%TF.GenerationSoftware,KiCad,Pcbnew,7.0.1*%
%TF.CreationDate,2023-05-21T17:17:07+09:00*%
%TF.ProjectId,joystick_74hc165_input,6a6f7973-7469-4636-9b5f-373468633136,4*%
%TF.SameCoordinates,Original*%
%TF.FileFunction,Copper,L1,Top*%
%TF.FilePolarity,Positive*%
%FSLAX46Y46*%
G04 Gerber Fmt 4.6, Leading zero omitted, Abs format (unit mm)*
G04 Created by KiCad (PCBNEW 7.0.1) date 2023-05-21 17:17:07*
%MOMM*%
%LPD*%
G01*
G04 APERTURE LIST*
G04 Aperture macros list*
%AMRoundRect*
0 Rectangle with rounded corners*
0 $1 Rounding radius*
0 $2 $3 $4 $5 $6 $7 $8 $9 X,Y pos of 4 corners*
0 Add a 4 corners polygon primitive as box body*
4,1,4,$2,$3,$4,$5,$6,$7,$8,$9,$2,$3,0*
0 Add four circle primitives for the rounded corners*
1,1,$1+$1,$2,$3*
1,1,$1+$1,$4,$5*
1,1,$1+$1,$6,$7*
1,1,$1+$1,$8,$9*
0 Add four rect primitives between the rounded corners*
20,1,$1+$1,$2,$3,$4,$5,0*
20,1,$1+$1,$4,$5,$6,$7,0*
20,1,$1+$1,$6,$7,$8,$9,0*
20,1,$1+$1,$8,$9,$2,$3,0*%
G04 Aperture macros list end*
%TA.AperFunction,ComponentPad*%
%ADD10R,1.700000X1.700000*%
%TD*%
%TA.AperFunction,ComponentPad*%
%ADD11O,1.700000X1.700000*%
%TD*%
%TA.AperFunction,ComponentPad*%
%ADD12R,1.600000X1.600000*%
%TD*%
%TA.AperFunction,ComponentPad*%
%ADD13O,1.600000X1.600000*%
%TD*%
%TA.AperFunction,SMDPad,CuDef*%
%ADD14RoundRect,0.250000X0.337500X0.475000X-0.337500X0.475000X-0.337500X-0.475000X0.337500X-0.475000X0*%
%TD*%
%TA.AperFunction,SMDPad,CuDef*%
%ADD15R,1.000000X1.500000*%
%TD*%
%TA.AperFunction,ViaPad*%
%ADD16C,0.800000*%
%TD*%
%TA.AperFunction,Conductor*%
%ADD17C,0.250000*%
%TD*%
%TA.AperFunction,Conductor*%
%ADD18C,0.500000*%
%TD*%
G04 APERTURE END LIST*
%TA.AperFunction,EtchedComponent*%
%TO.C,SHORT1*%
G36*
X135316800Y-101417400D02*
G01*
X134816800Y-101417400D01*
X134816800Y-100817400D01*
X135316800Y-100817400D01*
X135316800Y-101417400D01*
G37*
%TD.AperFunction*%
%TA.AperFunction,EtchedComponent*%
%TO.C,PULL1*%
G36*
X177908000Y-101544400D02*
G01*
X177408000Y-101544400D01*
X177408000Y-100944400D01*
X177908000Y-100944400D01*
X177908000Y-101544400D01*
G37*
%TD.AperFunction*%
%TD*%
D10*
%TO.P,J2,1,Pin_1*%
%TO.N,/C_SHORT*%
X172694600Y-88315800D03*
D11*
%TO.P,J2,2,Pin_2*%
X172694600Y-90855800D03*
%TO.P,J2,3,Pin_3*%
%TO.N,/C_P1_UP*%
X170154600Y-88315800D03*
%TO.P,J2,4,Pin_4*%
%TO.N,/C_P2_UP*%
X170154600Y-90855800D03*
%TO.P,J2,5,Pin_5*%
%TO.N,/C_P1_DOWN*%
X167614600Y-88315800D03*
%TO.P,J2,6,Pin_6*%
%TO.N,/C_P2_DOWN*%
X167614600Y-90855800D03*
%TO.P,J2,7,Pin_7*%
%TO.N,/C_P1_LEFT*%
X165074600Y-88315800D03*
%TO.P,J2,8,Pin_8*%
%TO.N,/C_P2_LEFT*%
X165074600Y-90855800D03*
%TO.P,J2,9,Pin_9*%
%TO.N,/C_P1_RIGHT*%
X162534600Y-88315800D03*
%TO.P,J2,10,Pin_10*%
%TO.N,/C_P2_RIGHT*%
X162534600Y-90855800D03*
%TO.P,J2,11,Pin_11*%
%TO.N,/C_P1_START*%
X159994600Y-88315800D03*
%TO.P,J2,12,Pin_12*%
%TO.N,/C_P2_START*%
X159994600Y-90855800D03*
%TO.P,J2,13,Pin_13*%
%TO.N,/C_P1_SELECT*%
X157454600Y-88315800D03*
%TO.P,J2,14,Pin_14*%
%TO.N,/C_P2_SELECT*%
X157454600Y-90855800D03*
%TO.P,J2,15,Pin_15*%
%TO.N,/C_P1_A*%
X154914600Y-88315800D03*
%TO.P,J2,16,Pin_16*%
%TO.N,/C_P2_A*%
X154914600Y-90855800D03*
%TO.P,J2,17,Pin_17*%
%TO.N,/C_P1_B*%
X152374600Y-88315800D03*
%TO.P,J2,18,Pin_18*%
%TO.N,/C_P2_B*%
X152374600Y-90855800D03*
%TO.P,J2,19,Pin_19*%
%TO.N,/C_P1_X*%
X149834600Y-88315800D03*
%TO.P,J2,20,Pin_20*%
%TO.N,/C_P2_X*%
X149834600Y-90855800D03*
%TO.P,J2,21,Pin_21*%
%TO.N,/C_P1_Y*%
X147294600Y-88315800D03*
%TO.P,J2,22,Pin_22*%
%TO.N,/C_P2_Y*%
X147294600Y-90855800D03*
%TO.P,J2,23,Pin_23*%
%TO.N,/C_P1_L*%
X144754600Y-88315800D03*
%TO.P,J2,24,Pin_24*%
%TO.N,/C_P2_L*%
X144754600Y-90855800D03*
%TO.P,J2,25,Pin_25*%
%TO.N,/C_P1_R*%
X142214600Y-88315800D03*
%TO.P,J2,26,Pin_26*%
%TO.N,/C_P2_R*%
X142214600Y-90855800D03*
%TO.P,J2,27,Pin_27*%
%TO.N,/C_SHORT*%
X139674600Y-88315800D03*
%TO.P,J2,28,Pin_28*%
X139674600Y-90855800D03*
%TD*%
D10*
%TO.P,IN1,1,Pin_1*%
%TO.N,VCC*%
X132435600Y-107365800D03*
D11*
%TO.P,IN1,2,Pin_2*%
%TO.N,GND*%
X132435600Y-109905800D03*
%TO.P,IN1,3,Pin_3*%
%TO.N,/LOAD*%
X132435600Y-112445800D03*
%TO.P,IN1,4,Pin_4*%
%TO.N,/CLK*%
X132435600Y-114985800D03*
%TO.P,IN1,5,Pin_5*%
%TO.N,/D_IN*%
X132435600Y-117525800D03*
%TD*%
D10*
%TO.P,J1,1,Pin_1*%
%TO.N,/C_SHORT*%
X177774600Y-94792800D03*
D11*
%TO.P,J1,2,Pin_2*%
%TO.N,/C_P1_UP*%
X175234600Y-94792800D03*
%TO.P,J1,3,Pin_3*%
%TO.N,/C_P1_DOWN*%
X172694600Y-94792800D03*
%TO.P,J1,4,Pin_4*%
%TO.N,/C_P1_LEFT*%
X170154600Y-94792800D03*
%TO.P,J1,5,Pin_5*%
%TO.N,/C_P1_RIGHT*%
X167614600Y-94792800D03*
%TO.P,J1,6,Pin_6*%
%TO.N,/C_P1_START*%
X165074600Y-94792800D03*
%TO.P,J1,7,Pin_7*%
%TO.N,/C_P1_SELECT*%
X162534600Y-94792800D03*
%TO.P,J1,8,Pin_8*%
%TO.N,/C_P1_A*%
X159994600Y-94792800D03*
%TO.P,J1,9,Pin_9*%
%TO.N,/C_P1_B*%
X157454600Y-94792800D03*
%TO.P,J1,10,Pin_10*%
%TO.N,/C_P1_X*%
X154914600Y-94792800D03*
%TO.P,J1,11,Pin_11*%
%TO.N,/C_P1_Y*%
X152374600Y-94792800D03*
%TO.P,J1,12,Pin_12*%
%TO.N,/C_P1_L*%
X149834600Y-94792800D03*
%TO.P,J1,13,Pin_13*%
%TO.N,/C_P1_R*%
X147294600Y-94792800D03*
%TO.P,J1,14,Pin_14*%
%TO.N,/C_P2_UP*%
X144754600Y-94792800D03*
%TO.P,J1,15,Pin_15*%
%TO.N,/C_P2_DOWN*%
X142214600Y-94792800D03*
%TO.P,J1,16,Pin_16*%
%TO.N,/C_P2_LEFT*%
X139674600Y-94792800D03*
%TO.P,J1,17,Pin_17*%
%TO.N,/C_P2_RIGHT*%
X137134600Y-94792800D03*
%TO.P,J1,18,Pin_18*%
%TO.N,/C_SHORT*%
X134594600Y-94792800D03*
%TD*%
D12*
%TO.P,74HC165_1,1,~{PL}*%
%TO.N,/LOAD*%
X165709600Y-103682800D03*
D13*
%TO.P,74HC165_1,2,CP*%
%TO.N,/CLK*%
X165709600Y-106222800D03*
%TO.P,74HC165_1,3,D4*%
%TO.N,/C_P1_RIGHT*%
X165709600Y-108762800D03*
%TO.P,74HC165_1,4,D5*%
%TO.N,/C_P1_LEFT*%
X165709600Y-111302800D03*
%TO.P,74HC165_1,5,D6*%
%TO.N,/C_P1_DOWN*%
X165709600Y-113842800D03*
%TO.P,74HC165_1,6,D7*%
%TO.N,/C_P1_UP*%
X165709600Y-116382800D03*
%TO.P,74HC165_1,7,~{Q7}*%
%TO.N,unconnected-(74HC165_1-Pad7)*%
X165709600Y-118922800D03*
%TO.P,74HC165_1,8,GND*%
%TO.N,GND*%
X165709600Y-121462800D03*
%TO.P,74HC165_1,9,Q7*%
%TO.N,/D_OUT*%
X173329600Y-121462800D03*
%TO.P,74HC165_1,10,DS*%
%TO.N,/D_OUT_2*%
X173329600Y-118922800D03*
%TO.P,74HC165_1,11,D0*%
%TO.N,/C_P1_B*%
X173329600Y-116382800D03*
%TO.P,74HC165_1,12,D1*%
%TO.N,/C_P1_A*%
X173329600Y-113842800D03*
%TO.P,74HC165_1,13,D2*%
%TO.N,/C_P1_SELECT*%
X173329600Y-111302800D03*
%TO.P,74HC165_1,14,D3*%
%TO.N,/C_P1_START*%
X173329600Y-108762800D03*
%TO.P,74HC165_1,15,~{CE}*%
%TO.N,GND*%
X173329600Y-106222800D03*
%TO.P,74HC165_1,16,VCC*%
%TO.N,VCC*%
X173329600Y-103682800D03*
%TD*%
D12*
%TO.P,74HC165_2,1,~{PL}*%
%TO.N,/LOAD*%
X152501600Y-103682800D03*
D13*
%TO.P,74HC165_2,2,CP*%
%TO.N,/CLK*%
X152501600Y-106222800D03*
%TO.P,74HC165_2,3,D4*%
%TO.N,/C_P1_R*%
X152501600Y-108762800D03*
%TO.P,74HC165_2,4,D5*%
%TO.N,/C_P1_L*%
X152501600Y-111302800D03*
%TO.P,74HC165_2,5,D6*%
%TO.N,/C_P1_Y*%
X152501600Y-113842800D03*
%TO.P,74HC165_2,6,D7*%
%TO.N,/C_P1_X*%
X152501600Y-116382800D03*
%TO.P,74HC165_2,7,~{Q7}*%
%TO.N,unconnected-(74HC165_2-Pad7)*%
X152501600Y-118922800D03*
%TO.P,74HC165_2,8,GND*%
%TO.N,GND*%
X152501600Y-121462800D03*
%TO.P,74HC165_2,9,Q7*%
%TO.N,/D_OUT_2*%
X160121600Y-121462800D03*
%TO.P,74HC165_2,10,DS*%
%TO.N,/D_OUT_3*%
X160121600Y-118922800D03*
%TO.P,74HC165_2,11,D0*%
%TO.N,/C_P2_RIGHT*%
X160121600Y-116382800D03*
%TO.P,74HC165_2,12,D1*%
%TO.N,/C_P2_LEFT*%
X160121600Y-113842800D03*
%TO.P,74HC165_2,13,D2*%
%TO.N,/C_P2_DOWN*%
X160121600Y-111302800D03*
%TO.P,74HC165_2,14,D3*%
%TO.N,/C_P2_UP*%
X160121600Y-108762800D03*
%TO.P,74HC165_2,15,~{CE}*%
%TO.N,GND*%
X160121600Y-106222800D03*
%TO.P,74HC165_2,16,VCC*%
%TO.N,VCC*%
X160121600Y-103682800D03*
%TD*%
D14*
%TO.P,C3,1*%
%TO.N,VCC*%
X160143100Y-101142800D03*
%TO.P,C3,2*%
%TO.N,GND*%
X158068100Y-101142800D03*
%TD*%
%TO.P,C4,1*%
%TO.N,VCC*%
X146935100Y-101142800D03*
%TO.P,C4,2*%
%TO.N,GND*%
X144860100Y-101142800D03*
%TD*%
D12*
%TO.P,RN1,1,common*%
%TO.N,/PULL*%
X176123600Y-118922800D03*
D13*
%TO.P,RN1,2,R1*%
%TO.N,/C_P1_B*%
X176123600Y-116382800D03*
%TO.P,RN1,3,R2*%
%TO.N,/C_P1_A*%
X176123600Y-113842800D03*
%TO.P,RN1,4,R3*%
%TO.N,/C_P1_SELECT*%
X176123600Y-111302800D03*
%TO.P,RN1,5,R4*%
%TO.N,/C_P1_START*%
X176123600Y-108762800D03*
%TD*%
D12*
%TO.P,RN4,1,common*%
%TO.N,/PULL*%
X136499600Y-118922800D03*
D13*
%TO.P,RN4,2,R1*%
%TO.N,/C_P2_START*%
X136499600Y-116382800D03*
%TO.P,RN4,3,R2*%
%TO.N,/C_P2_SELECT*%
X136499600Y-113842800D03*
%TO.P,RN4,4,R3*%
%TO.N,/C_P2_A*%
X136499600Y-111302800D03*
%TO.P,RN4,5,R4*%
%TO.N,/C_P2_B*%
X136499600Y-108762800D03*
%TD*%
D12*
%TO.P,RN2,1,common*%
%TO.N,/PULL*%
X162915600Y-121477800D03*
D13*
%TO.P,RN2,2,R1*%
%TO.N,/C_P1_UP*%
X162915600Y-118937800D03*
%TO.P,RN2,3,R2*%
%TO.N,/C_P1_DOWN*%
X162915600Y-116397800D03*
%TO.P,RN2,4,R3*%
%TO.N,/C_P1_LEFT*%
X162915600Y-113857800D03*
%TO.P,RN2,5,R4*%
%TO.N,/C_P1_RIGHT*%
X162915600Y-111317800D03*
%TO.P,RN2,6,R5*%
%TO.N,/C_P2_RIGHT*%
X162915600Y-108777800D03*
%TO.P,RN2,7,R6*%
%TO.N,/C_P2_LEFT*%
X162915600Y-106237800D03*
%TO.P,RN2,8,R7*%
%TO.N,/C_P2_DOWN*%
X162915600Y-103697800D03*
%TO.P,RN2,9,R8*%
%TO.N,/C_P2_UP*%
X162915600Y-101157800D03*
%TD*%
D12*
%TO.P,74HC165_3,1,~{PL}*%
%TO.N,/LOAD*%
X139293600Y-103682800D03*
D13*
%TO.P,74HC165_3,2,CP*%
%TO.N,/CLK*%
X139293600Y-106222800D03*
%TO.P,74HC165_3,3,D4*%
%TO.N,/C_P2_B*%
X139293600Y-108762800D03*
%TO.P,74HC165_3,4,D5*%
%TO.N,/C_P2_A*%
X139293600Y-111302800D03*
%TO.P,74HC165_3,5,D6*%
%TO.N,/C_P2_SELECT*%
X139293600Y-113842800D03*
%TO.P,74HC165_3,6,D7*%
%TO.N,/C_P2_START*%
X139293600Y-116382800D03*
%TO.P,74HC165_3,7,~{Q7}*%
%TO.N,unconnected-(74HC165_3-Pad7)*%
X139293600Y-118922800D03*
%TO.P,74HC165_3,8,GND*%
%TO.N,GND*%
X139293600Y-121462800D03*
%TO.P,74HC165_3,9,Q7*%
%TO.N,/D_OUT_3*%
X146913600Y-121462800D03*
%TO.P,74HC165_3,10,DS*%
%TO.N,/D_IN*%
X146913600Y-118922800D03*
%TO.P,74HC165_3,11,D0*%
%TO.N,/C_P2_R*%
X146913600Y-116382800D03*
%TO.P,74HC165_3,12,D1*%
%TO.N,/C_P2_L*%
X146913600Y-113842800D03*
%TO.P,74HC165_3,13,D2*%
%TO.N,/C_P2_Y*%
X146913600Y-111302800D03*
%TO.P,74HC165_3,14,D3*%
%TO.N,/C_P2_X*%
X146913600Y-108762800D03*
%TO.P,74HC165_3,15,~{CE}*%
%TO.N,GND*%
X146913600Y-106222800D03*
%TO.P,74HC165_3,16,VCC*%
%TO.N,VCC*%
X146913600Y-103682800D03*
%TD*%
D12*
%TO.P,RN3,1,common*%
%TO.N,/PULL*%
X149707600Y-121462800D03*
D13*
%TO.P,RN3,2,R1*%
%TO.N,/C_P1_X*%
X149707600Y-118922800D03*
%TO.P,RN3,3,R2*%
%TO.N,/C_P1_Y*%
X149707600Y-116382800D03*
%TO.P,RN3,4,R3*%
%TO.N,/C_P1_L*%
X149707600Y-113842800D03*
%TO.P,RN3,5,R4*%
%TO.N,/C_P1_R*%
X149707600Y-111302800D03*
%TO.P,RN3,6,R5*%
%TO.N,/C_P2_R*%
X149707600Y-108762800D03*
%TO.P,RN3,7,R6*%
%TO.N,/C_P2_L*%
X149707600Y-106222800D03*
%TO.P,RN3,8,R7*%
%TO.N,/C_P2_Y*%
X149707600Y-103682800D03*
%TO.P,RN3,9,R8*%
%TO.N,/C_P2_X*%
X149707600Y-101142800D03*
%TD*%
D14*
%TO.P,C2,1*%
%TO.N,VCC*%
X173351100Y-101142800D03*
%TO.P,C2,2*%
%TO.N,GND*%
X171276100Y-101142800D03*
%TD*%
D10*
%TO.P,OUT1,1,Pin_1*%
%TO.N,VCC*%
X180187600Y-107492800D03*
D11*
%TO.P,OUT1,2,Pin_2*%
%TO.N,GND*%
X180187600Y-110032800D03*
%TO.P,OUT1,3,Pin_3*%
%TO.N,/LOAD*%
X180187600Y-112572800D03*
%TO.P,OUT1,4,Pin_4*%
%TO.N,/CLK*%
X180187600Y-115112800D03*
%TO.P,OUT1,5,Pin_5*%
%TO.N,/D_OUT*%
X180187600Y-117652800D03*
%TD*%
D15*
%TO.P,SHORT1,1,A*%
%TO.N,GND*%
X135716800Y-101117400D03*
%TO.P,SHORT1,2,C*%
%TO.N,/C_SHORT*%
X134416800Y-101117400D03*
%TO.P,SHORT1,3,B*%
%TO.N,VCC*%
X133116800Y-101117400D03*
%TD*%
%TO.P,PULL1,1,A*%
%TO.N,VCC*%
X177008000Y-101244400D03*
%TO.P,PULL1,2,C*%
%TO.N,/PULL*%
X178308000Y-101244400D03*
%TO.P,PULL1,3,B*%
%TO.N,GND*%
X179608000Y-101244400D03*
%TD*%
D14*
%TO.P,C1,1*%
%TO.N,VCC*%
X177465900Y-105918000D03*
%TO.P,C1,2*%
%TO.N,GND*%
X175390900Y-105918000D03*
%TD*%
D16*
%TO.N,GND*%
X178257200Y-90728800D03*
X144475200Y-106222800D03*
X179374800Y-90728800D03*
X156311600Y-116230400D03*
X137922000Y-98704400D03*
X156311600Y-106349800D03*
X156311600Y-103047800D03*
X140004800Y-101650800D03*
X165582600Y-101269800D03*
X144500600Y-103301800D03*
X178308000Y-89662000D03*
X179374800Y-89712800D03*
X145034000Y-114909600D03*
X142036800Y-115417600D03*
X169570400Y-116281200D03*
%TO.N,/C_P1_UP*%
X169482153Y-98348298D03*
%TO.N,/C_P1_DOWN*%
X168341296Y-98348298D03*
%TO.N,/C_P1_LEFT*%
X167335911Y-98348298D03*
%TO.N,/C_P1_RIGHT*%
X166336408Y-98348298D03*
%TO.N,/C_P1_X*%
X153390600Y-98348800D03*
%TO.N,/C_P1_Y*%
X152247600Y-98348780D03*
%TO.N,/C_P1_L*%
X151146169Y-98317567D03*
%TO.N,/C_P1_R*%
X150105666Y-98302383D03*
%TO.N,/C_P2_X*%
X141325600Y-108635800D03*
X140690600Y-98348800D03*
%TO.N,/C_P2_Y*%
X142138400Y-109829600D03*
X141694983Y-98347648D03*
%TO.N,/C_P2_L*%
X142900400Y-110998000D03*
X142694485Y-98348806D03*
%TO.N,/C_P2_R*%
X143693987Y-98348800D03*
%TD*%
D17*
%TO.N,/PULL*%
X176123600Y-118922800D02*
X178663600Y-116382800D01*
X181965600Y-106375200D02*
X181305200Y-105714800D01*
X178308000Y-103987600D02*
X178308000Y-101244400D01*
X181051200Y-116382800D02*
X181965600Y-115468400D01*
X181965600Y-115468400D02*
X181965600Y-106375200D01*
X178663600Y-116382800D02*
X181051200Y-116382800D01*
X180035200Y-105714800D02*
X178308000Y-103987600D01*
X181305200Y-105714800D02*
X180035200Y-105714800D01*
D18*
%TO.N,VCC*%
X146913600Y-101121300D02*
X146913600Y-99415600D01*
X146935100Y-101142800D02*
X146913600Y-101121300D01*
X140411200Y-99415600D02*
X135991600Y-103835200D01*
X173351100Y-101142800D02*
X173351100Y-99546500D01*
X160143100Y-101142800D02*
X160143100Y-99415600D01*
X133045200Y-103835200D02*
X132435600Y-104444800D01*
X177008000Y-100554000D02*
X175869600Y-99415600D01*
X177008000Y-105460100D02*
X177008000Y-101244400D01*
X177008000Y-101244400D02*
X177008000Y-100554000D01*
X132435600Y-104444800D02*
X133116800Y-103763600D01*
X135991600Y-103835200D02*
X133045200Y-103835200D01*
X180187600Y-107492800D02*
X178612800Y-105918000D01*
X173329600Y-101164300D02*
X173351100Y-101142800D01*
X132435600Y-107365800D02*
X132435600Y-104444800D01*
X133116800Y-103763600D02*
X133116800Y-101117400D01*
X146913600Y-103682800D02*
X146913600Y-101164300D01*
X160121600Y-101164300D02*
X160143100Y-101142800D01*
X173329600Y-103682800D02*
X173329600Y-101164300D01*
X175869600Y-99415600D02*
X140411200Y-99415600D01*
X178612800Y-105918000D02*
X177465900Y-105918000D01*
X146913600Y-101164300D02*
X146935100Y-101142800D01*
X177465900Y-105918000D02*
X177008000Y-105460100D01*
X160121600Y-103682800D02*
X160121600Y-101164300D01*
D17*
%TO.N,/D_IN*%
X132435600Y-117525800D02*
X132562600Y-117652800D01*
X132562600Y-117652800D02*
X145643600Y-117652800D01*
X145643600Y-117652800D02*
X146913600Y-118922800D01*
%TO.N,/D_OUT*%
X180187600Y-118033800D02*
X180187600Y-117652800D01*
X173329600Y-121462800D02*
X176758600Y-121462800D01*
X176758600Y-121462800D02*
X180187600Y-118033800D01*
%TO.N,/LOAD*%
X177647600Y-110032800D02*
X172059600Y-110032800D01*
X139293600Y-103682800D02*
X137820400Y-103682800D01*
X151231600Y-104952800D02*
X152501600Y-103682800D01*
X180187600Y-112572800D02*
X177647600Y-110032800D01*
X164439600Y-104952800D02*
X165709600Y-103682800D01*
X139293600Y-103682800D02*
X140563600Y-104952800D01*
X152501600Y-103682800D02*
X153771600Y-104952800D01*
X172059600Y-110032800D02*
X165709600Y-103682800D01*
X140563600Y-104952800D02*
X151231600Y-104952800D01*
X134721600Y-110159800D02*
X132435600Y-112445800D01*
X134721600Y-106781600D02*
X134721600Y-110159800D01*
X137820400Y-103682800D02*
X134721600Y-106781600D01*
X153771600Y-104952800D02*
X164439600Y-104952800D01*
%TO.N,/CLK*%
X141960600Y-107492800D02*
X151612600Y-107492800D01*
X140690600Y-106222800D02*
X141960600Y-107492800D01*
X137364878Y-112572800D02*
X137922000Y-112015678D01*
X132435600Y-114985800D02*
X134848600Y-112572800D01*
X172059600Y-112572800D02*
X165709600Y-106222800D01*
X137922000Y-107594400D02*
X139293600Y-106222800D01*
X153771600Y-107492800D02*
X152501600Y-106222800D01*
X137922000Y-112015678D02*
X137922000Y-107594400D01*
X177647600Y-112572800D02*
X172059600Y-112572800D01*
X139293600Y-106222800D02*
X140690600Y-106222800D01*
X151612600Y-107492800D02*
X152501600Y-106603800D01*
X134848600Y-112572800D02*
X137364878Y-112572800D01*
X165709600Y-106222800D02*
X164439600Y-107492800D01*
X152501600Y-106603800D02*
X152501600Y-106222800D01*
X164439600Y-107492800D02*
X153771600Y-107492800D01*
X180187600Y-115112800D02*
X177647600Y-112572800D01*
%TO.N,/C_P1_START*%
X161264600Y-89839800D02*
X159994600Y-88569800D01*
X165201600Y-94792800D02*
X164478598Y-94792800D01*
X161264600Y-91578802D02*
X161264600Y-89839800D01*
X164478598Y-94792800D02*
X161264600Y-91578802D01*
%TO.N,/C_P1_SELECT*%
X161938598Y-94792800D02*
X158724600Y-91578802D01*
X158724600Y-89839800D02*
X157454600Y-88569800D01*
X158724600Y-91578802D02*
X158724600Y-89839800D01*
X162661600Y-94792800D02*
X161938598Y-94792800D01*
%TO.N,/C_P1_A*%
X160121600Y-94792800D02*
X159398598Y-94792800D01*
X159398598Y-94792800D02*
X156184600Y-91578802D01*
X156184600Y-91578802D02*
X156184600Y-89839800D01*
X156184600Y-89839800D02*
X154914600Y-88569800D01*
%TO.N,/C_P1_B*%
X157454600Y-94792800D02*
X156902599Y-94792800D01*
X153644600Y-91534801D02*
X153644600Y-89585800D01*
X153644600Y-89585800D02*
X152374600Y-88315800D01*
X156902599Y-94792800D02*
X153644600Y-91534801D01*
%TO.N,/C_P1_UP*%
X174726600Y-94792800D02*
X171424600Y-91490800D01*
X171424600Y-89585800D02*
X170154600Y-88315800D01*
X175209200Y-94792800D02*
X175234600Y-94792800D01*
X169482153Y-98348298D02*
X171653702Y-98348298D01*
X175234600Y-94792800D02*
X174726600Y-94792800D01*
X171424600Y-91490800D02*
X171424600Y-89585800D01*
X171653702Y-98348298D02*
X175209200Y-94792800D01*
%TO.N,/C_P1_DOWN*%
X169621200Y-96469200D02*
X171246800Y-96469200D01*
X168884600Y-91363800D02*
X168884600Y-89585800D01*
X172313600Y-94792800D02*
X168884600Y-91363800D01*
X168341296Y-97749104D02*
X169621200Y-96469200D01*
X172492719Y-94792800D02*
X172229155Y-94792800D01*
X168341296Y-98348298D02*
X168341296Y-97749104D01*
X172694600Y-94792800D02*
X172313600Y-94792800D01*
X172694600Y-95021400D02*
X172694600Y-94792800D01*
X168884600Y-89585800D02*
X167614600Y-88315800D01*
X172229155Y-94792800D02*
X172694600Y-94792800D01*
X171246800Y-96469200D02*
X172694600Y-95021400D01*
X172492719Y-94792800D02*
X172694600Y-94792800D01*
%TO.N,/C_P1_LEFT*%
X169773600Y-94792800D02*
X166344600Y-91363800D01*
X167335911Y-98348298D02*
X167335911Y-97611489D01*
X166344600Y-89585800D02*
X165074600Y-88315800D01*
X166344600Y-91363800D02*
X166344600Y-89585800D01*
X170154600Y-94792800D02*
X169773600Y-94792800D01*
X167335911Y-97611489D02*
X170154600Y-94792800D01*
%TO.N,/C_P1_RIGHT*%
X167189599Y-94792800D02*
X167614600Y-94792800D01*
X163804600Y-89585800D02*
X163804600Y-91407801D01*
X166336408Y-96070992D02*
X167614600Y-94792800D01*
X166336408Y-98348298D02*
X166336408Y-96070992D01*
X163804600Y-91407801D02*
X167189599Y-94792800D01*
X162534600Y-88315800D02*
X163804600Y-89585800D01*
%TO.N,/C_P1_X*%
X154406600Y-94792800D02*
X151104600Y-91490800D01*
X153390600Y-98348800D02*
X153390600Y-96570800D01*
X153390600Y-96570800D02*
X154914600Y-95046800D01*
X151104600Y-89585800D02*
X149834600Y-88315800D01*
X154914600Y-95046800D02*
X154914600Y-94792800D01*
X154914600Y-94792800D02*
X154406600Y-94792800D01*
X151104600Y-91490800D02*
X151104600Y-89585800D01*
%TO.N,/C_P1_Y*%
X151866600Y-94792800D02*
X148564600Y-91490800D01*
X148564600Y-91490800D02*
X148564600Y-89585800D01*
X152374600Y-98221780D02*
X152247600Y-98348780D01*
X148564600Y-89585800D02*
X147294600Y-88315800D01*
X152374600Y-94792800D02*
X152374600Y-98221780D01*
X152374600Y-94792800D02*
X151866600Y-94792800D01*
%TO.N,/C_P1_L*%
X151146169Y-97501369D02*
X151146169Y-98317567D01*
X149834600Y-96189800D02*
X151146169Y-97501369D01*
X149834600Y-94792800D02*
X149098000Y-94792800D01*
X146024600Y-91719400D02*
X146024600Y-89839800D01*
X146024600Y-89839800D02*
X144754600Y-88569800D01*
X149834600Y-94792800D02*
X149834600Y-96189800D01*
X149098000Y-94792800D02*
X146024600Y-91719400D01*
%TO.N,/C_P1_R*%
X143484600Y-91578802D02*
X143484600Y-89839800D01*
X144209398Y-92303600D02*
X143484600Y-91578802D01*
X147294600Y-94792800D02*
X147294600Y-94411800D01*
X147294600Y-94792800D02*
X147294600Y-95478600D01*
X143484600Y-89839800D02*
X142214600Y-88569800D01*
X147294600Y-94411800D02*
X145186400Y-92303600D01*
X147294600Y-95478600D02*
X150105666Y-98289666D01*
X150105666Y-98289666D02*
X150105666Y-98302383D01*
X145186400Y-92303600D02*
X144209398Y-92303600D01*
%TO.N,/C_P2_RIGHT*%
X164185600Y-114554000D02*
X164185600Y-110047800D01*
X160121600Y-116382800D02*
X161391600Y-115112800D01*
X164185600Y-110047800D02*
X162915600Y-108777800D01*
X161391600Y-115112800D02*
X163626800Y-115112800D01*
X163626800Y-115112800D02*
X164185600Y-114554000D01*
%TO.N,/C_P2_X*%
X141325600Y-108635800D02*
X141452600Y-108762800D01*
X147053578Y-86145778D02*
X148564600Y-87656800D01*
X137796101Y-92634901D02*
X137796101Y-87525888D01*
X141452600Y-108762800D02*
X146913600Y-108762800D01*
X138404600Y-93243400D02*
X137796101Y-92634901D01*
X140690600Y-98348800D02*
X140593622Y-98348800D01*
X137796101Y-87525888D02*
X139176211Y-86145778D01*
X138404600Y-96159778D02*
X138404600Y-93243400D01*
X149834600Y-90054802D02*
X149834600Y-90855800D01*
X148564600Y-88784802D02*
X149834600Y-90054802D01*
X139176211Y-86145778D02*
X147053578Y-86145778D01*
X140593622Y-98348800D02*
X138404600Y-96159778D01*
X148564600Y-87656800D02*
X148564600Y-88784802D01*
%TO.N,/C_P2_Y*%
X145516600Y-109905800D02*
X146913600Y-111302800D01*
X146024600Y-87656800D02*
X146024600Y-89203390D01*
X140944600Y-97078800D02*
X140944600Y-94005400D01*
X142138400Y-109829600D02*
X142214600Y-109905800D01*
X138277600Y-92100400D02*
X138277600Y-87807800D01*
X141694983Y-98347648D02*
X141694983Y-97829183D01*
X140944600Y-94005400D02*
X139852400Y-92913200D01*
X139852400Y-92913200D02*
X139090400Y-92913200D01*
X143163000Y-86595789D02*
X143174022Y-86606811D01*
X143174022Y-86606811D02*
X144974611Y-86606811D01*
X138277600Y-87807800D02*
X139489611Y-86595789D01*
X142214600Y-109905800D02*
X145516600Y-109905800D01*
X141694983Y-97829183D02*
X140944600Y-97078800D01*
X147294600Y-90473390D02*
X147294600Y-90855800D01*
X139090400Y-92913200D02*
X138277600Y-92100400D01*
X144974611Y-86606811D02*
X146024600Y-87656800D01*
X146024600Y-89203390D02*
X147294600Y-90473390D01*
X139489611Y-86595789D02*
X143163000Y-86595789D01*
%TO.N,/C_P2_L*%
X143484600Y-94056200D02*
X142697200Y-93268800D01*
X143484600Y-89203390D02*
X144754600Y-90473390D01*
X142694485Y-97741915D02*
X143484600Y-96951800D01*
X142694485Y-98348806D02*
X142694485Y-97741915D01*
X141833600Y-93268800D02*
X140944600Y-92379800D01*
X144170400Y-110998000D02*
X146913600Y-113741200D01*
X140944600Y-92379800D02*
X140944600Y-87553800D01*
X144754600Y-90473390D02*
X144754600Y-90855800D01*
X142976600Y-87045800D02*
X143484600Y-87553800D01*
X143484600Y-87553800D02*
X143484600Y-89203390D01*
X142697200Y-93268800D02*
X141833600Y-93268800D01*
X141452600Y-87045800D02*
X142976600Y-87045800D01*
X146913600Y-113741200D02*
X146913600Y-113842800D01*
X140944600Y-87553800D02*
X141452600Y-87045800D01*
X142900400Y-110998000D02*
X144170400Y-110998000D01*
X143484600Y-96951800D02*
X143484600Y-94056200D01*
%TO.N,/C_P2_R*%
X146050000Y-94183918D02*
X144695892Y-92829810D01*
X144695892Y-92829810D02*
X142986529Y-92829810D01*
X150977600Y-114401600D02*
X150977600Y-110032800D01*
X143693987Y-98348800D02*
X143713200Y-98348800D01*
X150215600Y-115163600D02*
X150977600Y-114401600D01*
X143713200Y-98348800D02*
X146050000Y-96012000D01*
X150977600Y-110032800D02*
X149707600Y-108762800D01*
X148132800Y-115163600D02*
X150215600Y-115163600D01*
X142986529Y-92829810D02*
X142214600Y-92057881D01*
X146050000Y-96012000D02*
X146050000Y-94183918D01*
X146913600Y-116382800D02*
X148132800Y-115163600D01*
X142214600Y-92057881D02*
X142214600Y-90855800D01*
%TO.N,/C_SHORT*%
X172694600Y-88315800D02*
X172694600Y-90855800D01*
X139674600Y-88569800D02*
X139674600Y-91109800D01*
X134594600Y-89738200D02*
X138636542Y-85696258D01*
X134594600Y-94792800D02*
X134594600Y-89738200D01*
X134416800Y-94970600D02*
X134594600Y-94792800D01*
X172694600Y-87147400D02*
X172694600Y-88315800D01*
X173837600Y-90855800D02*
X177774600Y-94792800D01*
X138636542Y-85696258D02*
X171243458Y-85696258D01*
X172694600Y-90855800D02*
X173837600Y-90855800D01*
X134416800Y-101117400D02*
X134416800Y-94970600D01*
X171243458Y-85696258D02*
X172694600Y-87147400D01*
%TO.N,/D_OUT_2*%
X161391600Y-120192800D02*
X172059600Y-120192800D01*
X172059600Y-120192800D02*
X173329600Y-118922800D01*
X160121600Y-121462800D02*
X161391600Y-120192800D01*
%TO.N,/D_OUT_3*%
X148183600Y-120192800D02*
X158851600Y-120192800D01*
X146913600Y-121462800D02*
X148183600Y-120192800D01*
X158851600Y-120192800D02*
X160121600Y-118922800D01*
%TD*%
%TA.AperFunction,Conductor*%
%TO.N,GND*%
G36*
X138365772Y-84905575D02*
G01*
X138412224Y-84956304D01*
X138425113Y-85023869D01*
X138400598Y-85088136D01*
X138345985Y-85129951D01*
X138340297Y-85132203D01*
X138328923Y-85136706D01*
X138293167Y-85162685D01*
X138283248Y-85169201D01*
X138245178Y-85191715D01*
X138230851Y-85206043D01*
X138215821Y-85218880D01*
X138199436Y-85230784D01*
X138171253Y-85264851D01*
X138163265Y-85273628D01*
X134205936Y-89230957D01*
X134189616Y-89244033D01*
X134140970Y-89295835D01*
X134138220Y-89298673D01*
X134118468Y-89318426D01*
X134118464Y-89318430D01*
X134118465Y-89318430D01*
X134115979Y-89321633D01*
X134108287Y-89330639D01*
X134078013Y-89362878D01*
X134068252Y-89380634D01*
X134057401Y-89397152D01*
X134044985Y-89413159D01*
X134027424Y-89453739D01*
X134022204Y-89464395D01*
X134000904Y-89503140D01*
X133995867Y-89522759D01*
X133989464Y-89541461D01*
X133981418Y-89560055D01*
X133974501Y-89603724D01*
X133972095Y-89615344D01*
X133961100Y-89658170D01*
X133961100Y-89678424D01*
X133959549Y-89698134D01*
X133956379Y-89718142D01*
X133960541Y-89762161D01*
X133961100Y-89774019D01*
X133961100Y-93515879D01*
X133943341Y-93580376D01*
X133895071Y-93626691D01*
X133870592Y-93639939D01*
X133849018Y-93651614D01*
X133671362Y-93789891D01*
X133518878Y-93955531D01*
X133395739Y-94144009D01*
X133305302Y-94350188D01*
X133250037Y-94568427D01*
X133250036Y-94568432D01*
X133231444Y-94792800D01*
X133250036Y-95017168D01*
X133250036Y-95017171D01*
X133250037Y-95017172D01*
X133305302Y-95235411D01*
X133395739Y-95441590D01*
X133518878Y-95630068D01*
X133601267Y-95719566D01*
X133671360Y-95795706D01*
X133734692Y-95845000D01*
X133770497Y-95889091D01*
X133783300Y-95944430D01*
X133783300Y-99732900D01*
X133766419Y-99795900D01*
X133720300Y-99842019D01*
X133657300Y-99858900D01*
X132568162Y-99858900D01*
X132507599Y-99865411D01*
X132370594Y-99916511D01*
X132253538Y-100004138D01*
X132165911Y-100121194D01*
X132114811Y-100258199D01*
X132108300Y-100318762D01*
X132108300Y-101916038D01*
X132114811Y-101976600D01*
X132165911Y-102113605D01*
X132253537Y-102230660D01*
X132307808Y-102271286D01*
X132344972Y-102315755D01*
X132358300Y-102372155D01*
X132358300Y-103397228D01*
X132348709Y-103445446D01*
X132321395Y-103486324D01*
X131944821Y-103862896D01*
X131930973Y-103874864D01*
X131911541Y-103889331D01*
X131879371Y-103927669D01*
X131871957Y-103935761D01*
X131868022Y-103939695D01*
X131848597Y-103964261D01*
X131846288Y-103967094D01*
X131796719Y-104026169D01*
X131786189Y-104042699D01*
X131753595Y-104112594D01*
X131752001Y-104115887D01*
X131717395Y-104184797D01*
X131710963Y-104203300D01*
X131695359Y-104278864D01*
X131694567Y-104282437D01*
X131676792Y-104357440D01*
X131674802Y-104376914D01*
X131677047Y-104454059D01*
X131677100Y-104457723D01*
X131677100Y-105881300D01*
X131660219Y-105944300D01*
X131614100Y-105990419D01*
X131551100Y-106007300D01*
X131536962Y-106007300D01*
X131476399Y-106013811D01*
X131339394Y-106064911D01*
X131222338Y-106152538D01*
X131134711Y-106269594D01*
X131095755Y-106374039D01*
X131083611Y-106406599D01*
X131077100Y-106467162D01*
X131077100Y-108264438D01*
X131083611Y-108325001D01*
X131084938Y-108328558D01*
X131134711Y-108462005D01*
X131222338Y-108579061D01*
X131339394Y-108666688D01*
X131339395Y-108666688D01*
X131339396Y-108666689D01*
X131454914Y-108709775D01*
X131505246Y-108744337D01*
X131533421Y-108798507D01*
X131532819Y-108859563D01*
X131503582Y-108913167D01*
X131360276Y-109068840D01*
X131237180Y-109257251D01*
X131146777Y-109463348D01*
X131099055Y-109651799D01*
X131099056Y-109651800D01*
X133772144Y-109651800D01*
X133772144Y-109651799D01*
X133724422Y-109463348D01*
X133634019Y-109257251D01*
X133510921Y-109068837D01*
X133367618Y-108913167D01*
X133338380Y-108859563D01*
X133337778Y-108798507D01*
X133365953Y-108744337D01*
X133416283Y-108709776D01*
X133531804Y-108666689D01*
X133648861Y-108579061D01*
X133736489Y-108462004D01*
X133787589Y-108325001D01*
X133794100Y-108264438D01*
X133794100Y-106467162D01*
X133787589Y-106406599D01*
X133736489Y-106269596D01*
X133701455Y-106222796D01*
X133648861Y-106152538D01*
X133531805Y-106064911D01*
X133443031Y-106031800D01*
X133394801Y-106013811D01*
X133334238Y-106007300D01*
X133320100Y-106007300D01*
X133257100Y-105990419D01*
X133210981Y-105944300D01*
X133194100Y-105881300D01*
X133194100Y-104811171D01*
X133203691Y-104762953D01*
X133231005Y-104722076D01*
X133322476Y-104630605D01*
X133363353Y-104603291D01*
X133411571Y-104593700D01*
X135709404Y-104593700D01*
X135766607Y-104607433D01*
X135811340Y-104645639D01*
X135833853Y-104699989D01*
X135829237Y-104758636D01*
X135798499Y-104808795D01*
X134332936Y-106274357D01*
X134316616Y-106287433D01*
X134267970Y-106339235D01*
X134265220Y-106342073D01*
X134245468Y-106361826D01*
X134245464Y-106361830D01*
X134245465Y-106361830D01*
X134242979Y-106365033D01*
X134235287Y-106374039D01*
X134205013Y-106406278D01*
X134195252Y-106424034D01*
X134184401Y-106440552D01*
X134171985Y-106456559D01*
X134154424Y-106497139D01*
X134149204Y-106507795D01*
X134127904Y-106546540D01*
X134122867Y-106566159D01*
X134116464Y-106584861D01*
X134108418Y-106603455D01*
X134101501Y-106647124D01*
X134099095Y-106658744D01*
X134088100Y-106701570D01*
X134088100Y-106721824D01*
X134086549Y-106741534D01*
X134083379Y-106761542D01*
X134087541Y-106805561D01*
X134088100Y-106817419D01*
X134088100Y-109845204D01*
X134078509Y-109893422D01*
X134051195Y-109934300D01*
X133862598Y-110122896D01*
X133821721Y-110150209D01*
X133773503Y-110159800D01*
X131099055Y-110159800D01*
X131146777Y-110348251D01*
X131237180Y-110554348D01*
X131360278Y-110742762D01*
X131512696Y-110908333D01*
X131690302Y-111046569D01*
X131723807Y-111064702D01*
X131772078Y-111111018D01*
X131789837Y-111175515D01*
X131772078Y-111240012D01*
X131723807Y-111286328D01*
X131690023Y-111304611D01*
X131512362Y-111442891D01*
X131359878Y-111608531D01*
X131236739Y-111797009D01*
X131146302Y-112003188D01*
X131091037Y-112221427D01*
X131091036Y-112221432D01*
X131072444Y-112445800D01*
X131091036Y-112670168D01*
X131091036Y-112670171D01*
X131091037Y-112670172D01*
X131146302Y-112888411D01*
X131236739Y-113094590D01*
X131344043Y-113258830D01*
X131359878Y-113283068D01*
X131472959Y-113405906D01*
X131512362Y-113448708D01*
X131690018Y-113586985D01*
X131690020Y-113586986D01*
X131690024Y-113586989D01*
X131723282Y-113604987D01*
X131771552Y-113651303D01*
X131789311Y-113715800D01*
X131771552Y-113780297D01*
X131723282Y-113826612D01*
X131698394Y-113840081D01*
X131690018Y-113844614D01*
X131512362Y-113982891D01*
X131359878Y-114148531D01*
X131236739Y-114337009D01*
X131146302Y-114543188D01*
X131101212Y-114721246D01*
X131091036Y-114761432D01*
X131072444Y-114985800D01*
X131091036Y-115210168D01*
X131091036Y-115210171D01*
X131091037Y-115210172D01*
X131146302Y-115428411D01*
X131236739Y-115634590D01*
X131342912Y-115797100D01*
X131359878Y-115823068D01*
X131461589Y-115933555D01*
X131512362Y-115988708D01*
X131553839Y-116020991D01*
X131690024Y-116126989D01*
X131723282Y-116144987D01*
X131771551Y-116191300D01*
X131789311Y-116255797D01*
X131771553Y-116320294D01*
X131723283Y-116366611D01*
X131690023Y-116384610D01*
X131512362Y-116522891D01*
X131359878Y-116688531D01*
X131236739Y-116877009D01*
X131146302Y-117083188D01*
X131106060Y-117242103D01*
X131091036Y-117301432D01*
X131072444Y-117525800D01*
X131091036Y-117750168D01*
X131091036Y-117750171D01*
X131091037Y-117750172D01*
X131146302Y-117968411D01*
X131236739Y-118174590D01*
X131236740Y-118174591D01*
X131359878Y-118363068D01*
X131494726Y-118509551D01*
X131512362Y-118528708D01*
X131675530Y-118655708D01*
X131690024Y-118666989D01*
X131888026Y-118774142D01*
X132100965Y-118847244D01*
X132323031Y-118884300D01*
X132548166Y-118884300D01*
X132548169Y-118884300D01*
X132770235Y-118847244D01*
X132983174Y-118774142D01*
X133181176Y-118666989D01*
X133358840Y-118528706D01*
X133511322Y-118363068D01*
X133524183Y-118343381D01*
X133569694Y-118301487D01*
X133629664Y-118286300D01*
X135065100Y-118286300D01*
X135128100Y-118303181D01*
X135174219Y-118349300D01*
X135191100Y-118412300D01*
X135191100Y-119771438D01*
X135197611Y-119832000D01*
X135248711Y-119969005D01*
X135336338Y-120086061D01*
X135453394Y-120173688D01*
X135453395Y-120173688D01*
X135453396Y-120173689D01*
X135590399Y-120224789D01*
X135650962Y-120231300D01*
X137348238Y-120231300D01*
X137408801Y-120224789D01*
X137545804Y-120173689D01*
X137662861Y-120086061D01*
X137750489Y-119969004D01*
X137801589Y-119832001D01*
X137808100Y-119771438D01*
X137808100Y-119391559D01*
X137822337Y-119333379D01*
X137861829Y-119288346D01*
X137917653Y-119266637D01*
X137977194Y-119273158D01*
X138026997Y-119306434D01*
X138055807Y-119358947D01*
X138059316Y-119372044D01*
X138156077Y-119579550D01*
X138287404Y-119767103D01*
X138449296Y-119928995D01*
X138449299Y-119928997D01*
X138449300Y-119928998D01*
X138636851Y-120060323D01*
X138676649Y-120078881D01*
X138729665Y-120125373D01*
X138749399Y-120193073D01*
X138729667Y-120260773D01*
X138676651Y-120307269D01*
X138637102Y-120325711D01*
X138449618Y-120456989D01*
X138287789Y-120618818D01*
X138156512Y-120806301D01*
X138059786Y-121013729D01*
X138007517Y-121208800D01*
X140579682Y-121208800D01*
X140527413Y-121013729D01*
X140430687Y-120806301D01*
X140299410Y-120618818D01*
X140137581Y-120456989D01*
X139950097Y-120325711D01*
X139910551Y-120307271D01*
X139857533Y-120260776D01*
X139837800Y-120193076D01*
X139857533Y-120125376D01*
X139910551Y-120078881D01*
X139911384Y-120078492D01*
X139950349Y-120060323D01*
X140137900Y-119928998D01*
X140299798Y-119767100D01*
X140431123Y-119579549D01*
X140527884Y-119372043D01*
X140587143Y-119150887D01*
X140607098Y-118922800D01*
X140587143Y-118694713D01*
X140527884Y-118473557D01*
X140524150Y-118465551D01*
X140512615Y-118404061D01*
X140532077Y-118344601D01*
X140577740Y-118301833D01*
X140638345Y-118286300D01*
X145329006Y-118286300D01*
X145377224Y-118295891D01*
X145418101Y-118323205D01*
X145604447Y-118509551D01*
X145637058Y-118566034D01*
X145637059Y-118631256D01*
X145620057Y-118694710D01*
X145600102Y-118922800D01*
X145620057Y-119150887D01*
X145679315Y-119372043D01*
X145776077Y-119579550D01*
X145907404Y-119767103D01*
X146069296Y-119928995D01*
X146069299Y-119928997D01*
X146069300Y-119928998D01*
X146256851Y-120060323D01*
X146296057Y-120078605D01*
X146349073Y-120125098D01*
X146368807Y-120192797D01*
X146349075Y-120260497D01*
X146296059Y-120306993D01*
X146256851Y-120325276D01*
X146069296Y-120456604D01*
X145907404Y-120618496D01*
X145776077Y-120806049D01*
X145679315Y-121013556D01*
X145620057Y-121234712D01*
X145600102Y-121462800D01*
X145620057Y-121690887D01*
X145679315Y-121912043D01*
X145776077Y-122119550D01*
X145907404Y-122307103D01*
X146069296Y-122468995D01*
X146256849Y-122600322D01*
X146464356Y-122697084D01*
X146523614Y-122712962D01*
X146685513Y-122756343D01*
X146913600Y-122776298D01*
X147141687Y-122756343D01*
X147362843Y-122697084D01*
X147570349Y-122600323D01*
X147757900Y-122468998D01*
X147919798Y-122307100D01*
X148051123Y-122119549D01*
X148147884Y-121912043D01*
X148151393Y-121898946D01*
X148180203Y-121846434D01*
X148230006Y-121813158D01*
X148289547Y-121806637D01*
X148345371Y-121828346D01*
X148384863Y-121873379D01*
X148399100Y-121931559D01*
X148399100Y-122311438D01*
X148405611Y-122372001D01*
X148411206Y-122387001D01*
X148456711Y-122509005D01*
X148544338Y-122626061D01*
X148661394Y-122713688D01*
X148661395Y-122713688D01*
X148661396Y-122713689D01*
X148798399Y-122764789D01*
X148858962Y-122771300D01*
X150556238Y-122771300D01*
X150616801Y-122764789D01*
X150753804Y-122713689D01*
X150870861Y-122626061D01*
X150958489Y-122509004D01*
X151009589Y-122372001D01*
X151016100Y-122311438D01*
X151016100Y-121929629D01*
X151030337Y-121871449D01*
X151069829Y-121826416D01*
X151125654Y-121804707D01*
X151185194Y-121811228D01*
X151234997Y-121844505D01*
X151263807Y-121897018D01*
X151267786Y-121911870D01*
X151364512Y-122119298D01*
X151495789Y-122306781D01*
X151657618Y-122468610D01*
X151845101Y-122599887D01*
X152052529Y-122696613D01*
X152247600Y-122748882D01*
X152247600Y-121716800D01*
X152755600Y-121716800D01*
X152755600Y-122748882D01*
X152950670Y-122696613D01*
X153158098Y-122599887D01*
X153345581Y-122468610D01*
X153507410Y-122306781D01*
X153638687Y-122119298D01*
X153735413Y-121911870D01*
X153787682Y-121716800D01*
X152755600Y-121716800D01*
X152247600Y-121716800D01*
X152247600Y-121334800D01*
X152264481Y-121271800D01*
X152310600Y-121225681D01*
X152373600Y-121208800D01*
X153787682Y-121208800D01*
X153735412Y-121013726D01*
X153731600Y-121005551D01*
X153720064Y-120944060D01*
X153739526Y-120884601D01*
X153785189Y-120841833D01*
X153845794Y-120826300D01*
X158767747Y-120826300D01*
X158795227Y-120829333D01*
X158803474Y-120831176D01*
X158853908Y-120855121D01*
X158889045Y-120898507D01*
X158901987Y-120952816D01*
X158890192Y-121007386D01*
X158887317Y-121013551D01*
X158828057Y-121234712D01*
X158808102Y-121462800D01*
X158828057Y-121690887D01*
X158887315Y-121912043D01*
X158984077Y-122119550D01*
X159115404Y-122307103D01*
X159277296Y-122468995D01*
X159464849Y-122600322D01*
X159672356Y-122697084D01*
X159731614Y-122712962D01*
X159893513Y-122756343D01*
X160121600Y-122776298D01*
X160349687Y-122756343D01*
X160570843Y-122697084D01*
X160778349Y-122600323D01*
X160965900Y-122468998D01*
X161127798Y-122307100D01*
X161259123Y-122119549D01*
X161355884Y-121912043D01*
X161359393Y-121898946D01*
X161388203Y-121846434D01*
X161438006Y-121813158D01*
X161497547Y-121806637D01*
X161553371Y-121828346D01*
X161592863Y-121873379D01*
X161607100Y-121931559D01*
X161607100Y-122326438D01*
X161609661Y-122350264D01*
X161613611Y-122387000D01*
X161664711Y-122524005D01*
X161752338Y-122641061D01*
X161869394Y-122728688D01*
X161869395Y-122728688D01*
X161869396Y-122728689D01*
X162006399Y-122779789D01*
X162066962Y-122786300D01*
X163764238Y-122786300D01*
X163824801Y-122779789D01*
X163961804Y-122728689D01*
X164078861Y-122641061D01*
X164166489Y-122524004D01*
X164217589Y-122387001D01*
X164224100Y-122326438D01*
X164224100Y-121929629D01*
X164238337Y-121871449D01*
X164277829Y-121826416D01*
X164333654Y-121804707D01*
X164393194Y-121811228D01*
X164442997Y-121844505D01*
X164471807Y-121897018D01*
X164475786Y-121911870D01*
X164572512Y-122119298D01*
X164703789Y-122306781D01*
X164865618Y-122468610D01*
X165053101Y-122599887D01*
X165260529Y-122696613D01*
X165455600Y-122748882D01*
X165455600Y-121716800D01*
X165963600Y-121716800D01*
X165963600Y-122748882D01*
X166158670Y-122696613D01*
X166366098Y-122599887D01*
X166553581Y-122468610D01*
X166715410Y-122306781D01*
X166846687Y-122119298D01*
X166943413Y-121911870D01*
X166995682Y-121716800D01*
X165963600Y-121716800D01*
X165455600Y-121716800D01*
X165455600Y-121334800D01*
X165472481Y-121271800D01*
X165518600Y-121225681D01*
X165581600Y-121208800D01*
X166995682Y-121208800D01*
X166943412Y-121013726D01*
X166939600Y-121005551D01*
X166928064Y-120944060D01*
X166947526Y-120884601D01*
X166993189Y-120841833D01*
X167053794Y-120826300D01*
X171975747Y-120826300D01*
X172003227Y-120829333D01*
X172011474Y-120831176D01*
X172061908Y-120855121D01*
X172097045Y-120898507D01*
X172109987Y-120952816D01*
X172098192Y-121007386D01*
X172095317Y-121013551D01*
X172036057Y-121234712D01*
X172016102Y-121462800D01*
X172036057Y-121690887D01*
X172095315Y-121912043D01*
X172192077Y-122119550D01*
X172323404Y-122307103D01*
X172485296Y-122468995D01*
X172672849Y-122600322D01*
X172880356Y-122697084D01*
X172939614Y-122712962D01*
X173101513Y-122756343D01*
X173329600Y-122776298D01*
X173557687Y-122756343D01*
X173718444Y-122713268D01*
X180177620Y-122713268D01*
X180196819Y-122920458D01*
X180253763Y-123120596D01*
X180346514Y-123306865D01*
X180471907Y-123472912D01*
X180471909Y-123472914D01*
X180625682Y-123613096D01*
X180802595Y-123722636D01*
X180996623Y-123797803D01*
X181201160Y-123836038D01*
X181409238Y-123836038D01*
X181409240Y-123836038D01*
X181613777Y-123797803D01*
X181807805Y-123722636D01*
X181984718Y-123613096D01*
X182138491Y-123472914D01*
X182263887Y-123306863D01*
X182356636Y-123120598D01*
X182413580Y-122920461D01*
X182432779Y-122713269D01*
X182413580Y-122506077D01*
X182356636Y-122305940D01*
X182263887Y-122119675D01*
X182263602Y-122119298D01*
X182138492Y-121953625D01*
X182114287Y-121931559D01*
X181984718Y-121813442D01*
X181868528Y-121741500D01*
X181807806Y-121703902D01*
X181613777Y-121628735D01*
X181613776Y-121628734D01*
X181409240Y-121590500D01*
X181201160Y-121590500D01*
X181064802Y-121615989D01*
X180996622Y-121628735D01*
X180802593Y-121703902D01*
X180625683Y-121813441D01*
X180471907Y-121953625D01*
X180346514Y-122119672D01*
X180253763Y-122305941D01*
X180196819Y-122506079D01*
X180177620Y-122713268D01*
X173718444Y-122713268D01*
X173778843Y-122697084D01*
X173986349Y-122600323D01*
X174173900Y-122468998D01*
X174335798Y-122307100D01*
X174445781Y-122150027D01*
X174490813Y-122110537D01*
X174548993Y-122096300D01*
X176674747Y-122096300D01*
X176695535Y-122098595D01*
X176698507Y-122098501D01*
X176698509Y-122098502D01*
X176766585Y-122096362D01*
X176770545Y-122096300D01*
X176798452Y-122096300D01*
X176798456Y-122096300D01*
X176802465Y-122095793D01*
X176814299Y-122094861D01*
X176858489Y-122093473D01*
X176877938Y-122087821D01*
X176897298Y-122083812D01*
X176917397Y-122081274D01*
X176958515Y-122064993D01*
X176969717Y-122061157D01*
X177012193Y-122048818D01*
X177029639Y-122038499D01*
X177047380Y-122029809D01*
X177066217Y-122022352D01*
X177101992Y-121996358D01*
X177111903Y-121989848D01*
X177149962Y-121967342D01*
X177164291Y-121953012D01*
X177179319Y-121940177D01*
X177195707Y-121928272D01*
X177223903Y-121894186D01*
X177231872Y-121885430D01*
X180069098Y-119048205D01*
X180109976Y-119020891D01*
X180158194Y-119011300D01*
X180300166Y-119011300D01*
X180300169Y-119011300D01*
X180522235Y-118974244D01*
X180735174Y-118901142D01*
X180933176Y-118793989D01*
X181110840Y-118655706D01*
X181263322Y-118490068D01*
X181386460Y-118301591D01*
X181476896Y-118095416D01*
X181532164Y-117877168D01*
X181550756Y-117652800D01*
X181532164Y-117428432D01*
X181476896Y-117210184D01*
X181402225Y-117039950D01*
X181391923Y-116980519D01*
X181410428Y-116923106D01*
X181433340Y-116900638D01*
X181431303Y-116898601D01*
X181442559Y-116887343D01*
X181442562Y-116887342D01*
X181456891Y-116873012D01*
X181471919Y-116860177D01*
X181488307Y-116848272D01*
X181516503Y-116814186D01*
X181524472Y-116805430D01*
X182354257Y-115975645D01*
X182370578Y-115962571D01*
X182372614Y-115960402D01*
X182372618Y-115960400D01*
X182419261Y-115910728D01*
X182421952Y-115907951D01*
X182441735Y-115888170D01*
X182444221Y-115884964D01*
X182451910Y-115875961D01*
X182482186Y-115843721D01*
X182491183Y-115827353D01*
X182536777Y-115780005D01*
X182600014Y-115762061D01*
X182663682Y-115778407D01*
X182710454Y-115824594D01*
X182727600Y-115888051D01*
X182727600Y-124029078D01*
X182710699Y-124092113D01*
X182664530Y-124138238D01*
X182601478Y-124155078D01*
X130173878Y-124104521D01*
X130110930Y-124087600D01*
X130064861Y-124041486D01*
X130048000Y-123978521D01*
X130048000Y-122732800D01*
X130323424Y-122732800D01*
X130342088Y-122934222D01*
X130342088Y-122934225D01*
X130342089Y-122934226D01*
X130397446Y-123128786D01*
X130487610Y-123309860D01*
X130487612Y-123309862D01*
X130609516Y-123471289D01*
X130759006Y-123607567D01*
X130930992Y-123714057D01*
X131119617Y-123787130D01*
X131318458Y-123824300D01*
X131520740Y-123824300D01*
X131520742Y-123824300D01*
X131719583Y-123787130D01*
X131908208Y-123714057D01*
X132080194Y-123607567D01*
X132229684Y-123471289D01*
X132351588Y-123309862D01*
X132441754Y-123128784D01*
X132497112Y-122934222D01*
X132515776Y-122732800D01*
X132497112Y-122531378D01*
X132441754Y-122336816D01*
X132441753Y-122336813D01*
X132351589Y-122155739D01*
X132306749Y-122096362D01*
X132229684Y-121994311D01*
X132080194Y-121858033D01*
X131982353Y-121797452D01*
X131908209Y-121751543D01*
X131818526Y-121716800D01*
X138007518Y-121716800D01*
X138059786Y-121911870D01*
X138156512Y-122119298D01*
X138287789Y-122306781D01*
X138449618Y-122468610D01*
X138637101Y-122599887D01*
X138844529Y-122696613D01*
X139039600Y-122748882D01*
X139039600Y-121716800D01*
X139547600Y-121716800D01*
X139547600Y-122748882D01*
X139742670Y-122696613D01*
X139950098Y-122599887D01*
X140137581Y-122468610D01*
X140299410Y-122306781D01*
X140430687Y-122119298D01*
X140527413Y-121911870D01*
X140579682Y-121716800D01*
X139547600Y-121716800D01*
X139039600Y-121716800D01*
X138007518Y-121716800D01*
X131818526Y-121716800D01*
X131719583Y-121678470D01*
X131719582Y-121678469D01*
X131520742Y-121641300D01*
X131318458Y-121641300D01*
X131185897Y-121666079D01*
X131119616Y-121678470D01*
X130930990Y-121751543D01*
X130759007Y-121858032D01*
X130759005Y-121858033D01*
X130759006Y-121858033D01*
X130654147Y-121953625D01*
X130609515Y-121994312D01*
X130487610Y-122155739D01*
X130397446Y-122336813D01*
X130342089Y-122531373D01*
X130342088Y-122531378D01*
X130323424Y-122732800D01*
X130048000Y-122732800D01*
X130048000Y-86309199D01*
X130311551Y-86309199D01*
X130330750Y-86516389D01*
X130387694Y-86716527D01*
X130480445Y-86902796D01*
X130605838Y-87068843D01*
X130605840Y-87068845D01*
X130759613Y-87209027D01*
X130845647Y-87262297D01*
X130927363Y-87312894D01*
X130936526Y-87318567D01*
X131130554Y-87393734D01*
X131335091Y-87431969D01*
X131543169Y-87431969D01*
X131543171Y-87431969D01*
X131747708Y-87393734D01*
X131941736Y-87318567D01*
X132118649Y-87209027D01*
X132272422Y-87068845D01*
X132397818Y-86902794D01*
X132490567Y-86716529D01*
X132547511Y-86516392D01*
X132566710Y-86309200D01*
X132547511Y-86102008D01*
X132490567Y-85901871D01*
X132397818Y-85715606D01*
X132327172Y-85622056D01*
X132272423Y-85549556D01*
X132212252Y-85494703D01*
X132118649Y-85409373D01*
X132002459Y-85337431D01*
X131941737Y-85299833D01*
X131747708Y-85224666D01*
X131716756Y-85218880D01*
X131543171Y-85186431D01*
X131335091Y-85186431D01*
X131209336Y-85209939D01*
X131130553Y-85224666D01*
X130936524Y-85299833D01*
X130759614Y-85409372D01*
X130605838Y-85549556D01*
X130480445Y-85715603D01*
X130387694Y-85901872D01*
X130330750Y-86102010D01*
X130311551Y-86309199D01*
X130048000Y-86309199D01*
X130048000Y-85012800D01*
X130064881Y-84949800D01*
X130111000Y-84903681D01*
X130174000Y-84886800D01*
X138299600Y-84886800D01*
X138365772Y-84905575D01*
G37*
%TD.AperFunction*%
%TA.AperFunction,Conductor*%
G36*
X167183932Y-108613894D02*
G01*
X167236188Y-108645293D01*
X171552354Y-112961459D01*
X171565433Y-112977783D01*
X171567599Y-112979817D01*
X171567600Y-112979818D01*
X171593565Y-113004201D01*
X171617249Y-113026441D01*
X171620060Y-113029165D01*
X171639830Y-113048935D01*
X171643043Y-113051427D01*
X171652033Y-113059106D01*
X171684279Y-113089386D01*
X171699761Y-113097897D01*
X171702026Y-113099142D01*
X171718550Y-113109996D01*
X171734559Y-113122414D01*
X171775142Y-113139975D01*
X171785793Y-113145193D01*
X171824540Y-113166495D01*
X171844160Y-113171532D01*
X171862867Y-113177937D01*
X171869480Y-113180798D01*
X171881454Y-113185981D01*
X171892105Y-113187667D01*
X171925130Y-113192898D01*
X171936725Y-113195298D01*
X171979570Y-113206300D01*
X171984855Y-113206300D01*
X172045460Y-113221833D01*
X172091123Y-113264601D01*
X172110585Y-113324061D01*
X172099049Y-113385552D01*
X172095315Y-113393557D01*
X172036057Y-113614712D01*
X172016102Y-113842800D01*
X172036057Y-114070887D01*
X172095315Y-114292043D01*
X172192077Y-114499550D01*
X172323404Y-114687103D01*
X172485296Y-114848995D01*
X172485299Y-114848997D01*
X172485300Y-114848998D01*
X172672851Y-114980323D01*
X172704120Y-114994904D01*
X172712057Y-114998605D01*
X172765074Y-115045100D01*
X172784807Y-115112800D01*
X172765074Y-115180500D01*
X172712057Y-115226995D01*
X172672850Y-115245277D01*
X172485296Y-115376604D01*
X172323404Y-115538496D01*
X172192077Y-115726049D01*
X172095315Y-115933556D01*
X172036057Y-116154712D01*
X172016102Y-116382800D01*
X172036057Y-116610887D01*
X172095315Y-116832043D01*
X172192077Y-117039550D01*
X172323404Y-117227103D01*
X172485296Y-117388995D01*
X172485299Y-117388997D01*
X172485300Y-117388998D01*
X172672851Y-117520323D01*
X172684597Y-117525800D01*
X172712057Y-117538605D01*
X172765074Y-117585100D01*
X172784807Y-117652800D01*
X172765074Y-117720500D01*
X172712057Y-117766995D01*
X172672850Y-117785277D01*
X172485296Y-117916604D01*
X172323404Y-118078496D01*
X172192077Y-118266049D01*
X172095315Y-118473556D01*
X172036057Y-118694712D01*
X172016102Y-118922800D01*
X172036057Y-119150887D01*
X172053059Y-119214340D01*
X172053059Y-119279562D01*
X172020448Y-119336046D01*
X171834100Y-119522395D01*
X171793222Y-119549709D01*
X171745004Y-119559300D01*
X167054345Y-119559300D01*
X166993740Y-119543767D01*
X166948077Y-119500999D01*
X166928615Y-119441539D01*
X166940151Y-119380048D01*
X166943884Y-119372043D01*
X167003143Y-119150887D01*
X167023098Y-118922800D01*
X167003143Y-118694713D01*
X166943884Y-118473557D01*
X166943883Y-118473555D01*
X166847122Y-118266049D01*
X166715795Y-118078496D01*
X166553903Y-117916604D01*
X166366348Y-117785276D01*
X166327143Y-117766995D01*
X166274125Y-117720500D01*
X166254392Y-117652800D01*
X166274125Y-117585100D01*
X166327143Y-117538605D01*
X166354603Y-117525800D01*
X166366349Y-117520323D01*
X166553900Y-117388998D01*
X166715798Y-117227100D01*
X166847123Y-117039549D01*
X166943884Y-116832043D01*
X167003143Y-116610887D01*
X167023098Y-116382800D01*
X167003143Y-116154713D01*
X166943884Y-115933557D01*
X166943883Y-115933555D01*
X166847122Y-115726049D01*
X166715795Y-115538496D01*
X166553903Y-115376604D01*
X166366348Y-115245276D01*
X166327143Y-115226995D01*
X166274125Y-115180500D01*
X166254392Y-115112800D01*
X166274125Y-115045100D01*
X166327143Y-114998605D01*
X166335080Y-114994904D01*
X166366349Y-114980323D01*
X166553900Y-114848998D01*
X166715798Y-114687100D01*
X166847123Y-114499549D01*
X166943884Y-114292043D01*
X167003143Y-114070887D01*
X167023098Y-113842800D01*
X167003143Y-113614713D01*
X166947193Y-113405906D01*
X166943884Y-113393556D01*
X166851438Y-113195304D01*
X166847123Y-113186051D01*
X166841442Y-113177938D01*
X166759417Y-113060795D01*
X166715798Y-112998500D01*
X166715797Y-112998499D01*
X166715795Y-112998496D01*
X166553903Y-112836604D01*
X166366348Y-112705276D01*
X166327143Y-112686995D01*
X166274125Y-112640500D01*
X166254392Y-112572800D01*
X166274125Y-112505100D01*
X166327143Y-112458605D01*
X166354603Y-112445800D01*
X166366349Y-112440323D01*
X166553900Y-112308998D01*
X166715798Y-112147100D01*
X166847123Y-111959549D01*
X166943884Y-111752043D01*
X167003143Y-111530887D01*
X167023098Y-111302800D01*
X167003143Y-111074713D01*
X166947903Y-110868557D01*
X166943884Y-110853556D01*
X166851438Y-110655304D01*
X166847123Y-110646051D01*
X166841442Y-110637938D01*
X166759417Y-110520795D01*
X166715798Y-110458500D01*
X166715797Y-110458499D01*
X166715795Y-110458496D01*
X166553903Y-110296604D01*
X166366348Y-110165276D01*
X166327143Y-110146995D01*
X166274125Y-110100500D01*
X166254392Y-110032800D01*
X166274125Y-109965100D01*
X166327143Y-109918605D01*
X166334183Y-109915322D01*
X166366349Y-109900323D01*
X166553900Y-109768998D01*
X166715798Y-109607100D01*
X166847123Y-109419549D01*
X166943884Y-109212043D01*
X167003143Y-108990887D01*
X167023098Y-108762800D01*
X167021573Y-108745370D01*
X167031109Y-108685157D01*
X167067798Y-108636468D01*
X167123051Y-108610703D01*
X167183932Y-108613894D01*
G37*
%TD.AperFunction*%
%TA.AperFunction,Conductor*%
G36*
X158837460Y-108141833D02*
G01*
X158883123Y-108184601D01*
X158902585Y-108244061D01*
X158891049Y-108305552D01*
X158887315Y-108313557D01*
X158828057Y-108534712D01*
X158808102Y-108762800D01*
X158828057Y-108990887D01*
X158887315Y-109212043D01*
X158984077Y-109419550D01*
X159115404Y-109607103D01*
X159277296Y-109768995D01*
X159277299Y-109768997D01*
X159277300Y-109768998D01*
X159464851Y-109900323D01*
X159504057Y-109918605D01*
X159557073Y-109965098D01*
X159576807Y-110032797D01*
X159557075Y-110100497D01*
X159504059Y-110146993D01*
X159464851Y-110165276D01*
X159277296Y-110296604D01*
X159115404Y-110458496D01*
X158984077Y-110646049D01*
X158887315Y-110853556D01*
X158828057Y-111074712D01*
X158808102Y-111302800D01*
X158828057Y-111530887D01*
X158887315Y-111752043D01*
X158984077Y-111959550D01*
X159115404Y-112147103D01*
X159277296Y-112308995D01*
X159277299Y-112308997D01*
X159277300Y-112308998D01*
X159464851Y-112440323D01*
X159476597Y-112445800D01*
X159504057Y-112458605D01*
X159557074Y-112505100D01*
X159576807Y-112572800D01*
X159557074Y-112640500D01*
X159504057Y-112686995D01*
X159464850Y-112705277D01*
X159277296Y-112836604D01*
X159115404Y-112998496D01*
X158984077Y-113186049D01*
X158887315Y-113393556D01*
X158828057Y-113614712D01*
X158808102Y-113842800D01*
X158828057Y-114070887D01*
X158887315Y-114292043D01*
X158984077Y-114499550D01*
X159115404Y-114687103D01*
X159277296Y-114848995D01*
X159277299Y-114848997D01*
X159277300Y-114848998D01*
X159464851Y-114980323D01*
X159496120Y-114994904D01*
X159504057Y-114998605D01*
X159557074Y-115045100D01*
X159576807Y-115112800D01*
X159557074Y-115180500D01*
X159504057Y-115226995D01*
X159464850Y-115245277D01*
X159277296Y-115376604D01*
X159115404Y-115538496D01*
X158984077Y-115726049D01*
X158887315Y-115933556D01*
X158828057Y-116154712D01*
X158808102Y-116382800D01*
X158828057Y-116610887D01*
X158887315Y-116832043D01*
X158984077Y-117039550D01*
X159115404Y-117227103D01*
X159277296Y-117388995D01*
X159277299Y-117388997D01*
X159277300Y-117388998D01*
X159464851Y-117520323D01*
X159476597Y-117525800D01*
X159504057Y-117538605D01*
X159557074Y-117585100D01*
X159576807Y-117652800D01*
X159557074Y-117720500D01*
X159504057Y-117766995D01*
X159464850Y-117785277D01*
X159277296Y-117916604D01*
X159115404Y-118078496D01*
X158984077Y-118266049D01*
X158887315Y-118473556D01*
X158828057Y-118694712D01*
X158808102Y-118922800D01*
X158828057Y-119150887D01*
X158845059Y-119214340D01*
X158845059Y-119279562D01*
X158812448Y-119336046D01*
X158626100Y-119522395D01*
X158585222Y-119549709D01*
X158537004Y-119559300D01*
X153846345Y-119559300D01*
X153785740Y-119543767D01*
X153740077Y-119500999D01*
X153720615Y-119441539D01*
X153732151Y-119380048D01*
X153735884Y-119372043D01*
X153795143Y-119150887D01*
X153815098Y-118922800D01*
X153795143Y-118694713D01*
X153735884Y-118473557D01*
X153735883Y-118473555D01*
X153639122Y-118266049D01*
X153507795Y-118078496D01*
X153345903Y-117916604D01*
X153158348Y-117785276D01*
X153119143Y-117766995D01*
X153066125Y-117720500D01*
X153046392Y-117652800D01*
X153066125Y-117585100D01*
X153119143Y-117538605D01*
X153146603Y-117525800D01*
X153158349Y-117520323D01*
X153345900Y-117388998D01*
X153507798Y-117227100D01*
X153639123Y-117039549D01*
X153735884Y-116832043D01*
X153795143Y-116610887D01*
X153815098Y-116382800D01*
X153795143Y-116154713D01*
X153735884Y-115933557D01*
X153735883Y-115933555D01*
X153639122Y-115726049D01*
X153507795Y-115538496D01*
X153345903Y-115376604D01*
X153158348Y-115245276D01*
X153119143Y-115226995D01*
X153066125Y-115180500D01*
X153046392Y-115112800D01*
X153066125Y-115045100D01*
X153119143Y-114998605D01*
X153127080Y-114994904D01*
X153158349Y-114980323D01*
X153345900Y-114848998D01*
X153507798Y-114687100D01*
X153639123Y-114499549D01*
X153735884Y-114292043D01*
X153795143Y-114070887D01*
X153815098Y-113842800D01*
X153795143Y-113614713D01*
X153739193Y-113405906D01*
X153735884Y-113393556D01*
X153643438Y-113195304D01*
X153639123Y-113186051D01*
X153633442Y-113177938D01*
X153551417Y-113060795D01*
X153507798Y-112998500D01*
X153507797Y-112998499D01*
X153507795Y-112998496D01*
X153345903Y-112836604D01*
X153158348Y-112705276D01*
X153119143Y-112686995D01*
X153066125Y-112640500D01*
X153046392Y-112572800D01*
X153066125Y-112505100D01*
X153119143Y-112458605D01*
X153146603Y-112445800D01*
X153158349Y-112440323D01*
X153345900Y-112308998D01*
X153507798Y-112147100D01*
X153639123Y-111959549D01*
X153735884Y-111752043D01*
X153795143Y-111530887D01*
X153815098Y-111302800D01*
X153795143Y-111074713D01*
X153739903Y-110868557D01*
X153735884Y-110853556D01*
X153643438Y-110655304D01*
X153639123Y-110646051D01*
X153633442Y-110637938D01*
X153551417Y-110520795D01*
X153507798Y-110458500D01*
X153507797Y-110458499D01*
X153507795Y-110458496D01*
X153345903Y-110296604D01*
X153158348Y-110165276D01*
X153119143Y-110146995D01*
X153066125Y-110100500D01*
X153046392Y-110032800D01*
X153066125Y-109965100D01*
X153119143Y-109918605D01*
X153126183Y-109915322D01*
X153158349Y-109900323D01*
X153345900Y-109768998D01*
X153507798Y-109607100D01*
X153639123Y-109419549D01*
X153735884Y-109212043D01*
X153795143Y-108990887D01*
X153815098Y-108762800D01*
X153795143Y-108534713D01*
X153735884Y-108313557D01*
X153732150Y-108305549D01*
X153720615Y-108244061D01*
X153740077Y-108184601D01*
X153785740Y-108141833D01*
X153846345Y-108126300D01*
X158776855Y-108126300D01*
X158837460Y-108141833D01*
G37*
%TD.AperFunction*%
%TA.AperFunction,Conductor*%
G36*
X140636295Y-109250411D02*
G01*
X140687354Y-109284689D01*
X140714344Y-109314664D01*
X140714347Y-109314666D01*
X140868848Y-109426918D01*
X141043312Y-109504594D01*
X141143370Y-109525862D01*
X141198162Y-109552586D01*
X141233996Y-109601907D01*
X141242481Y-109662278D01*
X141228616Y-109794207D01*
X141224896Y-109829600D01*
X141234251Y-109918605D01*
X141244858Y-110019529D01*
X141303872Y-110201156D01*
X141399358Y-110366542D01*
X141505875Y-110484841D01*
X141527147Y-110508466D01*
X141681648Y-110620718D01*
X141856112Y-110698394D01*
X141903868Y-110708544D01*
X141958661Y-110735269D01*
X141994495Y-110784590D01*
X142002980Y-110844961D01*
X141986896Y-110997998D01*
X141986896Y-110998000D01*
X141997953Y-111103199D01*
X142006858Y-111187929D01*
X142065872Y-111369556D01*
X142161358Y-111534942D01*
X142161360Y-111534944D01*
X142289147Y-111676866D01*
X142443648Y-111789118D01*
X142618112Y-111866794D01*
X142804913Y-111906500D01*
X142995885Y-111906500D01*
X142995887Y-111906500D01*
X143182688Y-111866794D01*
X143357152Y-111789118D01*
X143511653Y-111676866D01*
X143514964Y-111673188D01*
X143557352Y-111642393D01*
X143608600Y-111631500D01*
X143855806Y-111631500D01*
X143904024Y-111641091D01*
X143944901Y-111668405D01*
X145625918Y-113349422D01*
X145658530Y-113405906D01*
X145658530Y-113471128D01*
X145620057Y-113614712D01*
X145600102Y-113842800D01*
X145620057Y-114070887D01*
X145679315Y-114292043D01*
X145776077Y-114499550D01*
X145907404Y-114687103D01*
X146069296Y-114848995D01*
X146069299Y-114848997D01*
X146069300Y-114848998D01*
X146256851Y-114980323D01*
X146288120Y-114994904D01*
X146296057Y-114998605D01*
X146349074Y-115045100D01*
X146368807Y-115112800D01*
X146349074Y-115180500D01*
X146296057Y-115226995D01*
X146256850Y-115245277D01*
X146069296Y-115376604D01*
X145907404Y-115538496D01*
X145776077Y-115726049D01*
X145679315Y-115933556D01*
X145620057Y-116154712D01*
X145600102Y-116382800D01*
X145620057Y-116610887D01*
X145679315Y-116832042D01*
X145683049Y-116840048D01*
X145694585Y-116901539D01*
X145675123Y-116960999D01*
X145629460Y-117003767D01*
X145568855Y-117019300D01*
X140638345Y-117019300D01*
X140577740Y-117003767D01*
X140532077Y-116960999D01*
X140512615Y-116901539D01*
X140524151Y-116840048D01*
X140527884Y-116832043D01*
X140587143Y-116610887D01*
X140607098Y-116382800D01*
X140587143Y-116154713D01*
X140527884Y-115933557D01*
X140527883Y-115933555D01*
X140431122Y-115726049D01*
X140299795Y-115538496D01*
X140137903Y-115376604D01*
X139950348Y-115245276D01*
X139911143Y-115226995D01*
X139858125Y-115180500D01*
X139838392Y-115112800D01*
X139858125Y-115045100D01*
X139911143Y-114998605D01*
X139919080Y-114994904D01*
X139950349Y-114980323D01*
X140137900Y-114848998D01*
X140299798Y-114687100D01*
X140431123Y-114499549D01*
X140527884Y-114292043D01*
X140587143Y-114070887D01*
X140607098Y-113842800D01*
X140587143Y-113614713D01*
X140531193Y-113405906D01*
X140527884Y-113393556D01*
X140435438Y-113195304D01*
X140431123Y-113186051D01*
X140425442Y-113177938D01*
X140343417Y-113060795D01*
X140299798Y-112998500D01*
X140299797Y-112998499D01*
X140299795Y-112998496D01*
X140137903Y-112836604D01*
X139950348Y-112705276D01*
X139911143Y-112686995D01*
X139858125Y-112640500D01*
X139838392Y-112572800D01*
X139858125Y-112505100D01*
X139911143Y-112458605D01*
X139938603Y-112445800D01*
X139950349Y-112440323D01*
X140137900Y-112308998D01*
X140299798Y-112147100D01*
X140431123Y-111959549D01*
X140527884Y-111752043D01*
X140587143Y-111530887D01*
X140607098Y-111302800D01*
X140587143Y-111074713D01*
X140531903Y-110868557D01*
X140527884Y-110853556D01*
X140435438Y-110655304D01*
X140431123Y-110646051D01*
X140425442Y-110637938D01*
X140343417Y-110520795D01*
X140299798Y-110458500D01*
X140299797Y-110458499D01*
X140299795Y-110458496D01*
X140137903Y-110296604D01*
X139950348Y-110165276D01*
X139911143Y-110146995D01*
X139858125Y-110100500D01*
X139838392Y-110032800D01*
X139858125Y-109965100D01*
X139911143Y-109918605D01*
X139918183Y-109915322D01*
X139950349Y-109900323D01*
X140137900Y-109768998D01*
X140299798Y-109607100D01*
X140431123Y-109419549D01*
X140479525Y-109315749D01*
X140518329Y-109268043D01*
X140575094Y-109244384D01*
X140636295Y-109250411D01*
G37*
%TD.AperFunction*%
%TA.AperFunction,Conductor*%
G36*
X175551447Y-100183691D02*
G01*
X175592324Y-100211005D01*
X175962595Y-100581276D01*
X175989909Y-100622153D01*
X175999500Y-100670371D01*
X175999500Y-102043038D01*
X176006011Y-102103601D01*
X176028537Y-102163995D01*
X176057111Y-102240605D01*
X176144737Y-102357660D01*
X176199008Y-102398286D01*
X176236172Y-102442755D01*
X176249500Y-102499155D01*
X176249500Y-104648066D01*
X176232159Y-104711857D01*
X176184907Y-104758089D01*
X176120753Y-104774036D01*
X176057355Y-104755308D01*
X176050924Y-104751341D01*
X175882728Y-104695606D01*
X175778903Y-104685000D01*
X175644900Y-104685000D01*
X175644900Y-107151000D01*
X175778903Y-107151000D01*
X175882728Y-107140393D01*
X176050922Y-107084659D01*
X176201742Y-106991632D01*
X176337449Y-106855926D01*
X176339769Y-106858246D01*
X176366662Y-106832484D01*
X176428071Y-106816488D01*
X176489489Y-106832451D01*
X176516701Y-106858493D01*
X176518956Y-106856239D01*
X176654744Y-106992027D01*
X176654746Y-106992028D01*
X176654748Y-106992030D01*
X176805662Y-107085115D01*
X176973974Y-107140887D01*
X177077855Y-107151500D01*
X177853944Y-107151499D01*
X177957826Y-107140887D01*
X178126138Y-107085115D01*
X178277052Y-106992030D01*
X178315331Y-106953751D01*
X178356506Y-106912577D01*
X178412990Y-106879965D01*
X178478212Y-106879965D01*
X178534696Y-106912577D01*
X178792195Y-107170076D01*
X178819509Y-107210953D01*
X178829100Y-107259171D01*
X178829100Y-108391438D01*
X178835611Y-108452001D01*
X178843855Y-108474103D01*
X178886711Y-108589005D01*
X178974338Y-108706061D01*
X179091394Y-108793688D01*
X179091395Y-108793688D01*
X179091396Y-108793689D01*
X179206914Y-108836775D01*
X179257246Y-108871337D01*
X179285421Y-108925507D01*
X179284819Y-108986563D01*
X179255582Y-109040167D01*
X179112276Y-109195840D01*
X178989180Y-109384251D01*
X178898777Y-109590348D01*
X178851055Y-109778799D01*
X178851056Y-109778800D01*
X180315600Y-109778800D01*
X180378600Y-109795681D01*
X180424719Y-109841800D01*
X180441600Y-109904800D01*
X180441600Y-110160800D01*
X180424719Y-110223800D01*
X180378600Y-110269919D01*
X180315600Y-110286800D01*
X178849695Y-110286800D01*
X178801477Y-110277209D01*
X178760600Y-110249895D01*
X178154844Y-109644139D01*
X178141771Y-109627821D01*
X178123531Y-109610693D01*
X178089948Y-109579156D01*
X178087137Y-109576432D01*
X178067370Y-109556665D01*
X178064175Y-109554186D01*
X178055153Y-109546481D01*
X178052830Y-109544300D01*
X178022921Y-109516214D01*
X178022920Y-109516213D01*
X178005167Y-109506453D01*
X177988641Y-109495597D01*
X177972641Y-109483186D01*
X177932066Y-109465628D01*
X177921404Y-109460404D01*
X177882663Y-109439105D01*
X177868913Y-109435575D01*
X177863037Y-109434066D01*
X177844331Y-109427662D01*
X177842607Y-109426916D01*
X177825745Y-109419619D01*
X177782074Y-109412701D01*
X177770453Y-109410295D01*
X177727630Y-109399300D01*
X177727629Y-109399300D01*
X177707376Y-109399300D01*
X177687666Y-109397749D01*
X177667657Y-109394579D01*
X177623639Y-109398741D01*
X177611781Y-109399300D01*
X177468345Y-109399300D01*
X177407740Y-109383767D01*
X177362077Y-109340999D01*
X177342615Y-109281539D01*
X177354151Y-109220048D01*
X177357884Y-109212042D01*
X177417143Y-108990887D01*
X177437098Y-108762800D01*
X177417143Y-108534713D01*
X177361903Y-108328557D01*
X177357884Y-108313556D01*
X177272766Y-108131020D01*
X177261123Y-108106051D01*
X177129798Y-107918500D01*
X177129797Y-107918499D01*
X177129795Y-107918496D01*
X176967903Y-107756604D01*
X176780350Y-107625277D01*
X176572843Y-107528515D01*
X176351687Y-107469257D01*
X176123600Y-107449302D01*
X175895512Y-107469257D01*
X175674356Y-107528515D01*
X175466849Y-107625277D01*
X175279296Y-107756604D01*
X175117404Y-107918496D01*
X174986077Y-108106049D01*
X174889315Y-108313557D01*
X174848307Y-108466603D01*
X174815695Y-108523088D01*
X174759211Y-108555699D01*
X174693989Y-108555699D01*
X174637505Y-108523088D01*
X174604893Y-108466603D01*
X174563884Y-108313557D01*
X174478766Y-108131020D01*
X174467123Y-108106051D01*
X174335798Y-107918500D01*
X174335797Y-107918499D01*
X174335795Y-107918496D01*
X174173903Y-107756604D01*
X173986348Y-107625276D01*
X173946551Y-107606719D01*
X173893533Y-107560224D01*
X173873800Y-107492524D01*
X173893533Y-107424824D01*
X173946551Y-107378329D01*
X173986097Y-107359888D01*
X174173581Y-107228610D01*
X174335409Y-107066782D01*
X174380985Y-107001693D01*
X174421199Y-106964844D01*
X174473219Y-106948442D01*
X174527296Y-106955563D01*
X174573297Y-106984870D01*
X174580061Y-106991635D01*
X174730877Y-107084659D01*
X174899071Y-107140393D01*
X175002897Y-107151000D01*
X175136900Y-107151000D01*
X175136900Y-104685000D01*
X175002897Y-104685000D01*
X174899071Y-104695606D01*
X174730877Y-104751340D01*
X174580057Y-104844367D01*
X174454767Y-104969657D01*
X174361741Y-105120476D01*
X174353583Y-105145097D01*
X174323073Y-105194558D01*
X174273611Y-105225067D01*
X174215717Y-105230132D01*
X174161708Y-105208675D01*
X173986097Y-105085711D01*
X173946551Y-105067271D01*
X173893533Y-105020776D01*
X173873800Y-104953076D01*
X173893533Y-104885376D01*
X173946551Y-104838881D01*
X173947384Y-104838492D01*
X173986349Y-104820323D01*
X174173900Y-104688998D01*
X174335798Y-104527100D01*
X174467123Y-104339549D01*
X174563884Y-104132043D01*
X174623143Y-103910887D01*
X174643098Y-103682800D01*
X174623143Y-103454713D01*
X174563884Y-103233557D01*
X174563883Y-103233555D01*
X174467122Y-103026049D01*
X174335795Y-102838496D01*
X174173901Y-102676602D01*
X174141830Y-102654146D01*
X174102337Y-102609114D01*
X174088100Y-102550933D01*
X174088100Y-102332890D01*
X174104076Y-102271483D01*
X174147951Y-102225650D01*
X174162252Y-102216830D01*
X174287630Y-102091452D01*
X174380715Y-101940538D01*
X174436487Y-101772226D01*
X174447100Y-101668345D01*
X174447099Y-100617256D01*
X174436487Y-100513374D01*
X174380715Y-100345062D01*
X174380712Y-100345057D01*
X174378948Y-100339733D01*
X174374019Y-100280932D01*
X174396402Y-100226336D01*
X174441187Y-100187916D01*
X174498553Y-100174100D01*
X175503229Y-100174100D01*
X175551447Y-100183691D01*
G37*
%TD.AperFunction*%
%TA.AperFunction,Conductor*%
G36*
X170186540Y-100187917D02*
G01*
X170231325Y-100226336D01*
X170253708Y-100280933D01*
X170248779Y-100339733D01*
X170191206Y-100513476D01*
X170180600Y-100617297D01*
X170180600Y-100888800D01*
X171404100Y-100888800D01*
X171467100Y-100905681D01*
X171513219Y-100951800D01*
X171530100Y-101014800D01*
X171530100Y-102375800D01*
X171664103Y-102375800D01*
X171767928Y-102365193D01*
X171936122Y-102309459D01*
X172086942Y-102216432D01*
X172222649Y-102080726D01*
X172224969Y-102083046D01*
X172251862Y-102057284D01*
X172313271Y-102041288D01*
X172374689Y-102057251D01*
X172401901Y-102083293D01*
X172404156Y-102081039D01*
X172534195Y-102211078D01*
X172561509Y-102251955D01*
X172571100Y-102300173D01*
X172571100Y-102550933D01*
X172556863Y-102609114D01*
X172517370Y-102654146D01*
X172485298Y-102676602D01*
X172323404Y-102838496D01*
X172192077Y-103026049D01*
X172095315Y-103233556D01*
X172036057Y-103454712D01*
X172016102Y-103682800D01*
X172036057Y-103910887D01*
X172095315Y-104132043D01*
X172192077Y-104339550D01*
X172323404Y-104527103D01*
X172485296Y-104688995D01*
X172485299Y-104688997D01*
X172485300Y-104688998D01*
X172672851Y-104820323D01*
X172712649Y-104838881D01*
X172765665Y-104885373D01*
X172785399Y-104953073D01*
X172765667Y-105020773D01*
X172712651Y-105067269D01*
X172673102Y-105085711D01*
X172485618Y-105216989D01*
X172323789Y-105378818D01*
X172192512Y-105566301D01*
X172095786Y-105773729D01*
X172043517Y-105968800D01*
X173457600Y-105968800D01*
X173520600Y-105985681D01*
X173566719Y-106031800D01*
X173583600Y-106094800D01*
X173583600Y-106350800D01*
X173566719Y-106413800D01*
X173520600Y-106459919D01*
X173457600Y-106476800D01*
X172043518Y-106476800D01*
X172095786Y-106671870D01*
X172192512Y-106879298D01*
X172323789Y-107066781D01*
X172485618Y-107228610D01*
X172673101Y-107359887D01*
X172712649Y-107378329D01*
X172765666Y-107424824D01*
X172785399Y-107492524D01*
X172765666Y-107560224D01*
X172712649Y-107606719D01*
X172672850Y-107625277D01*
X172485296Y-107756604D01*
X172323404Y-107918496D01*
X172192077Y-108106049D01*
X172095315Y-108313556D01*
X172037162Y-108530588D01*
X172036057Y-108534713D01*
X172016103Y-108762796D01*
X172016102Y-108762802D01*
X172017627Y-108780234D01*
X172008089Y-108840446D01*
X171971399Y-108889134D01*
X171916147Y-108914897D01*
X171855267Y-108911706D01*
X171803011Y-108880307D01*
X169526159Y-106603455D01*
X167055005Y-104132300D01*
X167027691Y-104091423D01*
X167018100Y-104043205D01*
X167018100Y-102834162D01*
X167018099Y-102834161D01*
X167011589Y-102773599D01*
X166960489Y-102636596D01*
X166954354Y-102628400D01*
X166872861Y-102519538D01*
X166755805Y-102431911D01*
X166687302Y-102406360D01*
X166618801Y-102380811D01*
X166558238Y-102374300D01*
X164860962Y-102374300D01*
X164800399Y-102380811D01*
X164663394Y-102431911D01*
X164546338Y-102519538D01*
X164458711Y-102636594D01*
X164407611Y-102773599D01*
X164401100Y-102834162D01*
X164401100Y-103229041D01*
X164386863Y-103287221D01*
X164347371Y-103332254D01*
X164291547Y-103353963D01*
X164232006Y-103347442D01*
X164182203Y-103314166D01*
X164153393Y-103261653D01*
X164149884Y-103248557D01*
X164053123Y-103041051D01*
X164042618Y-103026049D01*
X163921795Y-102853496D01*
X163759903Y-102691604D01*
X163572348Y-102560276D01*
X163533143Y-102541995D01*
X163480125Y-102495500D01*
X163460392Y-102427800D01*
X163480125Y-102360100D01*
X163533143Y-102313605D01*
X163542838Y-102309084D01*
X163572349Y-102295323D01*
X163759900Y-102163998D01*
X163921798Y-102002100D01*
X164053123Y-101814549D01*
X164149884Y-101607043D01*
X164206219Y-101396800D01*
X170180600Y-101396800D01*
X170180600Y-101668303D01*
X170191206Y-101772128D01*
X170246940Y-101940322D01*
X170339967Y-102091142D01*
X170465257Y-102216432D01*
X170616077Y-102309459D01*
X170784271Y-102365193D01*
X170888097Y-102375800D01*
X171022100Y-102375800D01*
X171022100Y-101396800D01*
X170180600Y-101396800D01*
X164206219Y-101396800D01*
X164209143Y-101385887D01*
X164229098Y-101157800D01*
X164209143Y-100929713D01*
X164149884Y-100708557D01*
X164142889Y-100693557D01*
X164053122Y-100501049D01*
X163963020Y-100372371D01*
X163940503Y-100308341D01*
X163954470Y-100241920D01*
X164000868Y-100192381D01*
X164066233Y-100174100D01*
X170129174Y-100174100D01*
X170186540Y-100187917D01*
G37*
%TD.AperFunction*%
%TA.AperFunction,Conductor*%
G36*
X158838011Y-105601833D02*
G01*
X158883674Y-105644601D01*
X158903136Y-105704060D01*
X158891600Y-105765551D01*
X158887787Y-105773726D01*
X158835517Y-105968800D01*
X160249600Y-105968800D01*
X160312600Y-105985681D01*
X160358719Y-106031800D01*
X160375600Y-106094800D01*
X160375600Y-106350800D01*
X160358719Y-106413800D01*
X160312600Y-106459919D01*
X160249600Y-106476800D01*
X158835518Y-106476800D01*
X158887787Y-106671873D01*
X158891600Y-106680049D01*
X158903136Y-106741540D01*
X158883674Y-106800999D01*
X158838011Y-106843767D01*
X158777406Y-106859300D01*
X154086195Y-106859300D01*
X154037977Y-106849709D01*
X153997100Y-106822395D01*
X153810751Y-106636046D01*
X153778139Y-106579561D01*
X153778140Y-106514340D01*
X153795143Y-106450887D01*
X153815098Y-106222800D01*
X153795143Y-105994713D01*
X153735884Y-105773557D01*
X153732150Y-105765549D01*
X153720615Y-105704061D01*
X153740077Y-105644601D01*
X153785740Y-105601833D01*
X153846345Y-105586300D01*
X158777406Y-105586300D01*
X158838011Y-105601833D01*
G37*
%TD.AperFunction*%
%TA.AperFunction,Conductor*%
G36*
X145630011Y-105601833D02*
G01*
X145675674Y-105644601D01*
X145695136Y-105704060D01*
X145683600Y-105765551D01*
X145679787Y-105773726D01*
X145627517Y-105968800D01*
X147041600Y-105968800D01*
X147104600Y-105985681D01*
X147150719Y-106031800D01*
X147167600Y-106094800D01*
X147167600Y-106350800D01*
X147150719Y-106413800D01*
X147104600Y-106459919D01*
X147041600Y-106476800D01*
X145627518Y-106476800D01*
X145679787Y-106671873D01*
X145683600Y-106680049D01*
X145695136Y-106741540D01*
X145675674Y-106800999D01*
X145630011Y-106843767D01*
X145569406Y-106859300D01*
X142275195Y-106859300D01*
X142226977Y-106849709D01*
X142186100Y-106822395D01*
X141197844Y-105834139D01*
X141184771Y-105817821D01*
X141170213Y-105804150D01*
X141137649Y-105754235D01*
X141131668Y-105694939D01*
X141153607Y-105639526D01*
X141198559Y-105600395D01*
X141256466Y-105586300D01*
X145569406Y-105586300D01*
X145630011Y-105601833D01*
G37*
%TD.AperFunction*%
%TA.AperFunction,Conductor*%
G36*
X182664600Y-84903681D02*
G01*
X182710719Y-84949800D01*
X182727600Y-85012800D01*
X182727600Y-105958441D01*
X182712019Y-106019133D01*
X182669131Y-106064816D01*
X182609541Y-106084191D01*
X182547988Y-106072466D01*
X182499693Y-106032542D01*
X182499185Y-106031843D01*
X182492658Y-106021910D01*
X182470142Y-105983838D01*
X182455812Y-105969508D01*
X182442978Y-105954481D01*
X182431072Y-105938093D01*
X182427417Y-105935069D01*
X182397000Y-105909905D01*
X182388221Y-105901917D01*
X181812442Y-105326137D01*
X181799369Y-105309819D01*
X181747548Y-105261156D01*
X181744736Y-105258431D01*
X181724970Y-105238665D01*
X181721775Y-105236186D01*
X181712753Y-105228481D01*
X181709117Y-105225067D01*
X181680521Y-105198214D01*
X181680520Y-105198213D01*
X181662767Y-105188453D01*
X181646241Y-105177597D01*
X181630241Y-105165186D01*
X181589666Y-105147628D01*
X181579004Y-105142404D01*
X181540263Y-105121105D01*
X181526513Y-105117575D01*
X181520637Y-105116066D01*
X181501931Y-105109662D01*
X181483345Y-105101619D01*
X181439675Y-105094702D01*
X181428053Y-105092295D01*
X181385230Y-105081300D01*
X181385229Y-105081300D01*
X181364976Y-105081300D01*
X181345266Y-105079749D01*
X181325257Y-105076579D01*
X181281239Y-105080741D01*
X181269381Y-105081300D01*
X180349794Y-105081300D01*
X180301576Y-105071709D01*
X180260699Y-105044395D01*
X178978405Y-103762100D01*
X178951091Y-103721223D01*
X178941500Y-103673005D01*
X178941500Y-102628400D01*
X178958381Y-102565400D01*
X179004500Y-102519281D01*
X179067500Y-102502400D01*
X179354000Y-102502400D01*
X179354000Y-101498400D01*
X179862000Y-101498400D01*
X179862000Y-102502400D01*
X180156589Y-102502400D01*
X180217093Y-102495894D01*
X180353962Y-102444845D01*
X180470904Y-102357304D01*
X180558445Y-102240362D01*
X180609494Y-102103493D01*
X180616000Y-102042989D01*
X180616000Y-101498400D01*
X179862000Y-101498400D01*
X179354000Y-101498400D01*
X179354000Y-99986400D01*
X179862000Y-99986400D01*
X179862000Y-100990400D01*
X180616000Y-100990400D01*
X180616000Y-100445811D01*
X180609494Y-100385306D01*
X180558445Y-100248437D01*
X180470904Y-100131495D01*
X180353962Y-100043954D01*
X180217093Y-99992905D01*
X180156589Y-99986400D01*
X179862000Y-99986400D01*
X179354000Y-99986400D01*
X179059411Y-99986400D01*
X178988762Y-99993995D01*
X178958712Y-99999416D01*
X178923847Y-99993125D01*
X178856638Y-99985900D01*
X177759362Y-99985900D01*
X177690264Y-99993328D01*
X177657998Y-99999149D01*
X177625736Y-99993328D01*
X177551468Y-99985344D01*
X177510557Y-99973727D01*
X177475842Y-99949161D01*
X176451509Y-98924828D01*
X176439537Y-98910975D01*
X176425070Y-98891543D01*
X176386730Y-98859372D01*
X176378632Y-98851951D01*
X176374701Y-98848020D01*
X176366681Y-98841678D01*
X176350128Y-98828589D01*
X176347290Y-98826277D01*
X176288222Y-98776713D01*
X176271710Y-98766194D01*
X176201805Y-98733596D01*
X176198509Y-98732001D01*
X176129596Y-98697392D01*
X176111104Y-98690965D01*
X176035542Y-98675362D01*
X176031967Y-98674569D01*
X175956956Y-98656791D01*
X175937485Y-98654802D01*
X175860341Y-98657047D01*
X175856677Y-98657100D01*
X172544994Y-98657100D01*
X172487791Y-98643367D01*
X172443058Y-98605161D01*
X172420545Y-98550811D01*
X172425161Y-98492164D01*
X172455899Y-98442005D01*
X172921163Y-97976741D01*
X174757768Y-96140134D01*
X174818462Y-96106473D01*
X174887774Y-96110058D01*
X174899965Y-96114244D01*
X175122031Y-96151300D01*
X175347166Y-96151300D01*
X175347169Y-96151300D01*
X175569235Y-96114244D01*
X175782174Y-96041142D01*
X175980176Y-95933989D01*
X176157840Y-95795706D01*
X176218846Y-95729435D01*
X176272316Y-95695038D01*
X176335777Y-95691127D01*
X176393069Y-95718703D01*
X176429600Y-95770742D01*
X176473709Y-95889003D01*
X176561338Y-96006061D01*
X176678394Y-96093688D01*
X176678395Y-96093688D01*
X176678396Y-96093689D01*
X176815399Y-96144789D01*
X176875962Y-96151300D01*
X178673238Y-96151300D01*
X178733801Y-96144789D01*
X178870804Y-96093689D01*
X178987861Y-96006061D01*
X179075489Y-95889004D01*
X179126589Y-95752001D01*
X179133100Y-95691438D01*
X179133100Y-93894162D01*
X179126589Y-93833599D01*
X179075489Y-93696596D01*
X179075488Y-93696594D01*
X178987861Y-93579538D01*
X178870805Y-93491911D01*
X178795825Y-93463945D01*
X178733801Y-93440811D01*
X178673238Y-93434300D01*
X177364194Y-93434300D01*
X177315976Y-93424709D01*
X177275099Y-93397395D01*
X175823197Y-91945493D01*
X174344844Y-90467139D01*
X174331771Y-90450821D01*
X174279949Y-90402157D01*
X174277137Y-90399432D01*
X174257370Y-90379665D01*
X174254175Y-90377186D01*
X174245153Y-90369481D01*
X174212920Y-90339213D01*
X174195167Y-90329453D01*
X174178641Y-90318597D01*
X174162641Y-90306186D01*
X174122066Y-90288628D01*
X174111404Y-90283404D01*
X174072663Y-90262105D01*
X174058913Y-90258575D01*
X174053037Y-90257066D01*
X174034331Y-90250662D01*
X174015745Y-90242619D01*
X173972075Y-90235702D01*
X173960448Y-90233293D01*
X173947975Y-90230090D01*
X173905927Y-90210472D01*
X173873831Y-90176965D01*
X173770323Y-90018534D01*
X173770322Y-90018532D01*
X173627124Y-89862979D01*
X173597887Y-89809375D01*
X173597284Y-89748319D01*
X173625459Y-89694148D01*
X173675788Y-89659587D01*
X173790804Y-89616689D01*
X173907861Y-89529061D01*
X173995489Y-89412004D01*
X174046589Y-89275001D01*
X174053100Y-89214438D01*
X174053100Y-87417162D01*
X174046589Y-87356599D01*
X173995489Y-87219596D01*
X173995488Y-87219594D01*
X173907861Y-87102538D01*
X173790805Y-87014911D01*
X173717946Y-86987736D01*
X173653801Y-86963811D01*
X173593238Y-86957300D01*
X173390037Y-86957300D01*
X173327610Y-86940748D01*
X173281584Y-86895440D01*
X173270307Y-86876372D01*
X173261608Y-86858615D01*
X173257835Y-86849086D01*
X173254152Y-86839783D01*
X173228165Y-86804016D01*
X173221647Y-86794093D01*
X173218558Y-86788869D01*
X173199142Y-86756038D01*
X173184812Y-86741708D01*
X173171978Y-86726681D01*
X173160072Y-86710293D01*
X173153899Y-86705186D01*
X173125994Y-86682100D01*
X173117216Y-86674112D01*
X172752304Y-86309200D01*
X180209024Y-86309200D01*
X180227688Y-86510622D01*
X180227688Y-86510625D01*
X180227689Y-86510626D01*
X180283046Y-86705186D01*
X180373210Y-86886260D01*
X180426852Y-86957293D01*
X180495116Y-87047689D01*
X180644606Y-87183967D01*
X180816592Y-87290457D01*
X181005217Y-87363530D01*
X181204058Y-87400700D01*
X181406340Y-87400700D01*
X181406342Y-87400700D01*
X181605183Y-87363530D01*
X181793808Y-87290457D01*
X181965794Y-87183967D01*
X182115284Y-87047689D01*
X182237188Y-86886262D01*
X182327354Y-86705184D01*
X182382712Y-86510622D01*
X182401376Y-86309200D01*
X182382712Y-86107778D01*
X182327354Y-85913216D01*
X182327353Y-85913213D01*
X182237189Y-85732139D01*
X182145159Y-85610272D01*
X182115284Y-85570711D01*
X181965794Y-85434433D01*
X181809132Y-85337431D01*
X181793809Y-85327943D01*
X181605183Y-85254870D01*
X181539619Y-85242614D01*
X181406342Y-85217700D01*
X181204058Y-85217700D01*
X181085524Y-85239858D01*
X181005216Y-85254870D01*
X180816590Y-85327943D01*
X180644607Y-85434432D01*
X180495115Y-85570712D01*
X180373210Y-85732139D01*
X180283046Y-85913213D01*
X180229329Y-86102010D01*
X180227688Y-86107778D01*
X180209024Y-86309200D01*
X172752304Y-86309200D01*
X171750702Y-85307597D01*
X171737629Y-85291279D01*
X171685806Y-85242614D01*
X171682994Y-85239889D01*
X171663228Y-85220123D01*
X171660033Y-85217644D01*
X171651011Y-85209939D01*
X171618778Y-85179671D01*
X171601025Y-85169911D01*
X171584499Y-85159055D01*
X171568499Y-85146644D01*
X171527924Y-85129086D01*
X171517274Y-85123869D01*
X171516095Y-85123221D01*
X171468741Y-85077628D01*
X171450794Y-85014391D01*
X171467138Y-84950721D01*
X171513325Y-84903947D01*
X171576784Y-84886800D01*
X182601600Y-84886800D01*
X182664600Y-84903681D01*
G37*
%TD.AperFunction*%
%TA.AperFunction,Conductor*%
G36*
X156978540Y-100187917D02*
G01*
X157023325Y-100226336D01*
X157045708Y-100280933D01*
X157040779Y-100339733D01*
X156983206Y-100513476D01*
X156972600Y-100617297D01*
X156972600Y-100888800D01*
X158196100Y-100888800D01*
X158259100Y-100905681D01*
X158305219Y-100951800D01*
X158322100Y-101014800D01*
X158322100Y-102375800D01*
X158456103Y-102375800D01*
X158559928Y-102365193D01*
X158728122Y-102309459D01*
X158878942Y-102216432D01*
X159014649Y-102080726D01*
X159016969Y-102083046D01*
X159043862Y-102057284D01*
X159105271Y-102041288D01*
X159166689Y-102057251D01*
X159193901Y-102083293D01*
X159196156Y-102081039D01*
X159326195Y-102211078D01*
X159353509Y-102251955D01*
X159363100Y-102300173D01*
X159363100Y-102550933D01*
X159348863Y-102609114D01*
X159309370Y-102654146D01*
X159277298Y-102676602D01*
X159115404Y-102838496D01*
X158984077Y-103026049D01*
X158887315Y-103233556D01*
X158828057Y-103454712D01*
X158808102Y-103682800D01*
X158828057Y-103910887D01*
X158887315Y-104132042D01*
X158891049Y-104140048D01*
X158902585Y-104201539D01*
X158883123Y-104260999D01*
X158837460Y-104303767D01*
X158776855Y-104319300D01*
X154086195Y-104319300D01*
X154037977Y-104309709D01*
X153997100Y-104282395D01*
X153847005Y-104132300D01*
X153819691Y-104091423D01*
X153810100Y-104043205D01*
X153810100Y-102834162D01*
X153810099Y-102834161D01*
X153803589Y-102773599D01*
X153752489Y-102636596D01*
X153746354Y-102628400D01*
X153664861Y-102519538D01*
X153547805Y-102431911D01*
X153479302Y-102406360D01*
X153410801Y-102380811D01*
X153350238Y-102374300D01*
X151652962Y-102374300D01*
X151592399Y-102380811D01*
X151455394Y-102431911D01*
X151338338Y-102519538D01*
X151250711Y-102636594D01*
X151199611Y-102773599D01*
X151193100Y-102834162D01*
X151193100Y-103214041D01*
X151178863Y-103272221D01*
X151139371Y-103317254D01*
X151083547Y-103338963D01*
X151024006Y-103332442D01*
X150974203Y-103299166D01*
X150945393Y-103246653D01*
X150941883Y-103233556D01*
X150845123Y-103026051D01*
X150713798Y-102838500D01*
X150713797Y-102838499D01*
X150713795Y-102838496D01*
X150551903Y-102676604D01*
X150364348Y-102545276D01*
X150325143Y-102526995D01*
X150272125Y-102480500D01*
X150252392Y-102412800D01*
X150272125Y-102345100D01*
X150325143Y-102298605D01*
X150332183Y-102295322D01*
X150364349Y-102280323D01*
X150551900Y-102148998D01*
X150713798Y-101987100D01*
X150845123Y-101799549D01*
X150941884Y-101592043D01*
X150994200Y-101396800D01*
X156972600Y-101396800D01*
X156972600Y-101668303D01*
X156983206Y-101772128D01*
X157038940Y-101940322D01*
X157131967Y-102091142D01*
X157257257Y-102216432D01*
X157408077Y-102309459D01*
X157576271Y-102365193D01*
X157680097Y-102375800D01*
X157814100Y-102375800D01*
X157814100Y-101396800D01*
X156972600Y-101396800D01*
X150994200Y-101396800D01*
X151001143Y-101370887D01*
X151021098Y-101142800D01*
X151001143Y-100914713D01*
X150941884Y-100693557D01*
X150931072Y-100670371D01*
X150857864Y-100513375D01*
X150845123Y-100486051D01*
X150765522Y-100372370D01*
X150743006Y-100308341D01*
X150756973Y-100241920D01*
X150803370Y-100192381D01*
X150868736Y-100174100D01*
X156921174Y-100174100D01*
X156978540Y-100187917D01*
G37*
%TD.AperFunction*%
%TA.AperFunction,Conductor*%
G36*
X143770540Y-100187917D02*
G01*
X143815325Y-100226336D01*
X143837708Y-100280933D01*
X143832779Y-100339733D01*
X143775206Y-100513476D01*
X143764600Y-100617297D01*
X143764600Y-100888800D01*
X144988100Y-100888800D01*
X145051100Y-100905681D01*
X145097219Y-100951800D01*
X145114100Y-101014800D01*
X145114100Y-102375800D01*
X145248103Y-102375800D01*
X145351928Y-102365193D01*
X145520122Y-102309459D01*
X145670942Y-102216432D01*
X145806649Y-102080726D01*
X145808969Y-102083046D01*
X145835862Y-102057284D01*
X145897271Y-102041288D01*
X145958689Y-102057251D01*
X145985901Y-102083293D01*
X145988156Y-102081039D01*
X146118195Y-102211078D01*
X146145509Y-102251955D01*
X146155100Y-102300173D01*
X146155100Y-102550933D01*
X146140863Y-102609114D01*
X146101370Y-102654146D01*
X146069298Y-102676602D01*
X145907404Y-102838496D01*
X145776077Y-103026049D01*
X145679315Y-103233556D01*
X145620057Y-103454712D01*
X145600102Y-103682800D01*
X145620057Y-103910887D01*
X145679315Y-104132042D01*
X145683049Y-104140048D01*
X145694585Y-104201539D01*
X145675123Y-104260999D01*
X145629460Y-104303767D01*
X145568855Y-104319300D01*
X140878195Y-104319300D01*
X140829977Y-104309709D01*
X140789100Y-104282395D01*
X140639005Y-104132300D01*
X140611691Y-104091423D01*
X140602100Y-104043205D01*
X140602100Y-102834162D01*
X140595589Y-102773599D01*
X140544489Y-102636596D01*
X140538354Y-102628400D01*
X140456861Y-102519538D01*
X140339805Y-102431911D01*
X140271302Y-102406360D01*
X140202801Y-102380811D01*
X140142238Y-102374300D01*
X138829371Y-102374300D01*
X138772168Y-102360567D01*
X138727435Y-102322361D01*
X138704922Y-102268011D01*
X138709538Y-102209364D01*
X138740276Y-102159205D01*
X139502681Y-101396800D01*
X143764600Y-101396800D01*
X143764600Y-101668303D01*
X143775206Y-101772128D01*
X143830940Y-101940322D01*
X143923967Y-102091142D01*
X144049257Y-102216432D01*
X144200077Y-102309459D01*
X144368271Y-102365193D01*
X144472097Y-102375800D01*
X144606100Y-102375800D01*
X144606100Y-101396800D01*
X143764600Y-101396800D01*
X139502681Y-101396800D01*
X140688476Y-100211005D01*
X140729353Y-100183691D01*
X140777571Y-100174100D01*
X143713174Y-100174100D01*
X143770540Y-100187917D01*
G37*
%TD.AperFunction*%
%TA.AperFunction,Conductor*%
G36*
X135924569Y-95452258D02*
G01*
X135970081Y-95494154D01*
X136058878Y-95630068D01*
X136171125Y-95752000D01*
X136211362Y-95795708D01*
X136389021Y-95933987D01*
X136389024Y-95933989D01*
X136587026Y-96041142D01*
X136799965Y-96114244D01*
X137022031Y-96151300D01*
X137247166Y-96151300D01*
X137247169Y-96151300D01*
X137469235Y-96114244D01*
X137573224Y-96078544D01*
X137604188Y-96067915D01*
X137663266Y-96062404D01*
X137718316Y-96084543D01*
X137757129Y-96129422D01*
X137771100Y-96187088D01*
X137771100Y-96199635D01*
X137771607Y-96203651D01*
X137772537Y-96215474D01*
X137773926Y-96259670D01*
X137779577Y-96279119D01*
X137783586Y-96298474D01*
X137786125Y-96318572D01*
X137786125Y-96318574D01*
X137786126Y-96318575D01*
X137799769Y-96353035D01*
X137802401Y-96359681D01*
X137806244Y-96370908D01*
X137818580Y-96413368D01*
X137828894Y-96430808D01*
X137837587Y-96448552D01*
X137839883Y-96454350D01*
X137845049Y-96467397D01*
X137871031Y-96503158D01*
X137877548Y-96513079D01*
X137900058Y-96551141D01*
X137914378Y-96565461D01*
X137927218Y-96580494D01*
X137939126Y-96596883D01*
X137973198Y-96625070D01*
X137981978Y-96633060D01*
X139754867Y-98405949D01*
X139779497Y-98440799D01*
X139791082Y-98481872D01*
X139797058Y-98538730D01*
X139856071Y-98720353D01*
X139856073Y-98720356D01*
X139872770Y-98749277D01*
X139889171Y-98801294D01*
X139882052Y-98855370D01*
X139852746Y-98901371D01*
X136939895Y-101814222D01*
X136889736Y-101844960D01*
X136831089Y-101849576D01*
X136776739Y-101827063D01*
X136738533Y-101782330D01*
X136724800Y-101725127D01*
X136724800Y-101371400D01*
X135970800Y-101371400D01*
X135970800Y-102375400D01*
X136074527Y-102375400D01*
X136131730Y-102389133D01*
X136176463Y-102427339D01*
X136198976Y-102481689D01*
X136194360Y-102540336D01*
X136163623Y-102590495D01*
X135714324Y-103039795D01*
X135673446Y-103067109D01*
X135625228Y-103076700D01*
X134001300Y-103076700D01*
X133938300Y-103059819D01*
X133892181Y-103013700D01*
X133875300Y-102950700D01*
X133875300Y-102501900D01*
X133892181Y-102438900D01*
X133938300Y-102392781D01*
X134001300Y-102375900D01*
X134965439Y-102375900D01*
X134972176Y-102375175D01*
X135026001Y-102369389D01*
X135026004Y-102369387D01*
X135032652Y-102368673D01*
X135067513Y-102362383D01*
X135097554Y-102367803D01*
X135168210Y-102375400D01*
X135462800Y-102375400D01*
X135462800Y-99859400D01*
X135970800Y-99859400D01*
X135970800Y-100863400D01*
X136724800Y-100863400D01*
X136724800Y-100318811D01*
X136718294Y-100258306D01*
X136667245Y-100121437D01*
X136579704Y-100004495D01*
X136462762Y-99916954D01*
X136325893Y-99865905D01*
X136265389Y-99859400D01*
X135970800Y-99859400D01*
X135462800Y-99859400D01*
X135176300Y-99859400D01*
X135113300Y-99842519D01*
X135067181Y-99796400D01*
X135050300Y-99733400D01*
X135050300Y-96162645D01*
X135060912Y-96112032D01*
X135090962Y-96069945D01*
X135135386Y-96043473D01*
X135139821Y-96041949D01*
X135142174Y-96041142D01*
X135340176Y-95933989D01*
X135517840Y-95795706D01*
X135670322Y-95630068D01*
X135759118Y-95494154D01*
X135804631Y-95452258D01*
X135864600Y-95437072D01*
X135924569Y-95452258D01*
G37*
%TD.AperFunction*%
%TD*%
M02*
