%TF.GenerationSoftware,KiCad,Pcbnew,7.0.1*%
%TF.CreationDate,2023-05-21T17:17:07+09:00*%
%TF.ProjectId,joystick_74hc165_input,6a6f7973-7469-4636-9b5f-373468633136,4*%
%TF.SameCoordinates,Original*%
%TF.FileFunction,Legend,Bot*%
%TF.FilePolarity,Positive*%
%FSLAX46Y46*%
G04 Gerber Fmt 4.6, Leading zero omitted, Abs format (unit mm)*
G04 Created by KiCad (PCBNEW 7.0.1) date 2023-05-21 17:17:07*
%MOMM*%
%LPD*%
G01*
G04 APERTURE LIST*
%ADD10C,0.150000*%
%ADD11C,0.100000*%
G04 APERTURE END LIST*
D10*
X170653104Y-97540619D02*
X170653104Y-96540619D01*
X170224533Y-97540619D02*
X170224533Y-97016809D01*
X170224533Y-97016809D02*
X170272152Y-96921571D01*
X170272152Y-96921571D02*
X170367390Y-96873952D01*
X170367390Y-96873952D02*
X170510247Y-96873952D01*
X170510247Y-96873952D02*
X170605485Y-96921571D01*
X170605485Y-96921571D02*
X170653104Y-96969190D01*
X169891199Y-96873952D02*
X169510247Y-96873952D01*
X169748342Y-96540619D02*
X169748342Y-97397761D01*
X169748342Y-97397761D02*
X169700723Y-97493000D01*
X169700723Y-97493000D02*
X169605485Y-97540619D01*
X169605485Y-97540619D02*
X169510247Y-97540619D01*
X169319770Y-96873952D02*
X168938818Y-96873952D01*
X169176913Y-96540619D02*
X169176913Y-97397761D01*
X169176913Y-97397761D02*
X169129294Y-97493000D01*
X169129294Y-97493000D02*
X169034056Y-97540619D01*
X169034056Y-97540619D02*
X168938818Y-97540619D01*
X168605484Y-96873952D02*
X168605484Y-97873952D01*
X168605484Y-96921571D02*
X168510246Y-96873952D01*
X168510246Y-96873952D02*
X168319770Y-96873952D01*
X168319770Y-96873952D02*
X168224532Y-96921571D01*
X168224532Y-96921571D02*
X168176913Y-96969190D01*
X168176913Y-96969190D02*
X168129294Y-97064428D01*
X168129294Y-97064428D02*
X168129294Y-97350142D01*
X168129294Y-97350142D02*
X168176913Y-97445380D01*
X168176913Y-97445380D02*
X168224532Y-97493000D01*
X168224532Y-97493000D02*
X168319770Y-97540619D01*
X168319770Y-97540619D02*
X168510246Y-97540619D01*
X168510246Y-97540619D02*
X168605484Y-97493000D01*
X167748341Y-97493000D02*
X167653103Y-97540619D01*
X167653103Y-97540619D02*
X167462627Y-97540619D01*
X167462627Y-97540619D02*
X167367389Y-97493000D01*
X167367389Y-97493000D02*
X167319770Y-97397761D01*
X167319770Y-97397761D02*
X167319770Y-97350142D01*
X167319770Y-97350142D02*
X167367389Y-97254904D01*
X167367389Y-97254904D02*
X167462627Y-97207285D01*
X167462627Y-97207285D02*
X167605484Y-97207285D01*
X167605484Y-97207285D02*
X167700722Y-97159666D01*
X167700722Y-97159666D02*
X167748341Y-97064428D01*
X167748341Y-97064428D02*
X167748341Y-97016809D01*
X167748341Y-97016809D02*
X167700722Y-96921571D01*
X167700722Y-96921571D02*
X167605484Y-96873952D01*
X167605484Y-96873952D02*
X167462627Y-96873952D01*
X167462627Y-96873952D02*
X167367389Y-96921571D01*
X166891198Y-97445380D02*
X166843579Y-97493000D01*
X166843579Y-97493000D02*
X166891198Y-97540619D01*
X166891198Y-97540619D02*
X166938817Y-97493000D01*
X166938817Y-97493000D02*
X166891198Y-97445380D01*
X166891198Y-97445380D02*
X166891198Y-97540619D01*
X166891198Y-96921571D02*
X166843579Y-96969190D01*
X166843579Y-96969190D02*
X166891198Y-97016809D01*
X166891198Y-97016809D02*
X166938817Y-96969190D01*
X166938817Y-96969190D02*
X166891198Y-96921571D01*
X166891198Y-96921571D02*
X166891198Y-97016809D01*
X165700723Y-96493000D02*
X166557865Y-97778714D01*
X164653104Y-96493000D02*
X165510246Y-97778714D01*
X163891199Y-96873952D02*
X163891199Y-97683476D01*
X163891199Y-97683476D02*
X163938818Y-97778714D01*
X163938818Y-97778714D02*
X163986437Y-97826333D01*
X163986437Y-97826333D02*
X164081675Y-97873952D01*
X164081675Y-97873952D02*
X164224532Y-97873952D01*
X164224532Y-97873952D02*
X164319770Y-97826333D01*
X163891199Y-97493000D02*
X163986437Y-97540619D01*
X163986437Y-97540619D02*
X164176913Y-97540619D01*
X164176913Y-97540619D02*
X164272151Y-97493000D01*
X164272151Y-97493000D02*
X164319770Y-97445380D01*
X164319770Y-97445380D02*
X164367389Y-97350142D01*
X164367389Y-97350142D02*
X164367389Y-97064428D01*
X164367389Y-97064428D02*
X164319770Y-96969190D01*
X164319770Y-96969190D02*
X164272151Y-96921571D01*
X164272151Y-96921571D02*
X164176913Y-96873952D01*
X164176913Y-96873952D02*
X163986437Y-96873952D01*
X163986437Y-96873952D02*
X163891199Y-96921571D01*
X163415008Y-97540619D02*
X163415008Y-96873952D01*
X163415008Y-96540619D02*
X163462627Y-96588238D01*
X163462627Y-96588238D02*
X163415008Y-96635857D01*
X163415008Y-96635857D02*
X163367389Y-96588238D01*
X163367389Y-96588238D02*
X163415008Y-96540619D01*
X163415008Y-96540619D02*
X163415008Y-96635857D01*
X163081675Y-96873952D02*
X162700723Y-96873952D01*
X162938818Y-96540619D02*
X162938818Y-97397761D01*
X162938818Y-97397761D02*
X162891199Y-97493000D01*
X162891199Y-97493000D02*
X162795961Y-97540619D01*
X162795961Y-97540619D02*
X162700723Y-97540619D01*
X162367389Y-97540619D02*
X162367389Y-96540619D01*
X161938818Y-97540619D02*
X161938818Y-97016809D01*
X161938818Y-97016809D02*
X161986437Y-96921571D01*
X161986437Y-96921571D02*
X162081675Y-96873952D01*
X162081675Y-96873952D02*
X162224532Y-96873952D01*
X162224532Y-96873952D02*
X162319770Y-96921571D01*
X162319770Y-96921571D02*
X162367389Y-96969190D01*
X161034056Y-96873952D02*
X161034056Y-97540619D01*
X161462627Y-96873952D02*
X161462627Y-97397761D01*
X161462627Y-97397761D02*
X161415008Y-97493000D01*
X161415008Y-97493000D02*
X161319770Y-97540619D01*
X161319770Y-97540619D02*
X161176913Y-97540619D01*
X161176913Y-97540619D02*
X161081675Y-97493000D01*
X161081675Y-97493000D02*
X161034056Y-97445380D01*
X160557865Y-97540619D02*
X160557865Y-96540619D01*
X160557865Y-96921571D02*
X160462627Y-96873952D01*
X160462627Y-96873952D02*
X160272151Y-96873952D01*
X160272151Y-96873952D02*
X160176913Y-96921571D01*
X160176913Y-96921571D02*
X160129294Y-96969190D01*
X160129294Y-96969190D02*
X160081675Y-97064428D01*
X160081675Y-97064428D02*
X160081675Y-97350142D01*
X160081675Y-97350142D02*
X160129294Y-97445380D01*
X160129294Y-97445380D02*
X160176913Y-97493000D01*
X160176913Y-97493000D02*
X160272151Y-97540619D01*
X160272151Y-97540619D02*
X160462627Y-97540619D01*
X160462627Y-97540619D02*
X160557865Y-97493000D01*
X159653103Y-97445380D02*
X159605484Y-97493000D01*
X159605484Y-97493000D02*
X159653103Y-97540619D01*
X159653103Y-97540619D02*
X159700722Y-97493000D01*
X159700722Y-97493000D02*
X159653103Y-97445380D01*
X159653103Y-97445380D02*
X159653103Y-97540619D01*
X158748342Y-97493000D02*
X158843580Y-97540619D01*
X158843580Y-97540619D02*
X159034056Y-97540619D01*
X159034056Y-97540619D02*
X159129294Y-97493000D01*
X159129294Y-97493000D02*
X159176913Y-97445380D01*
X159176913Y-97445380D02*
X159224532Y-97350142D01*
X159224532Y-97350142D02*
X159224532Y-97064428D01*
X159224532Y-97064428D02*
X159176913Y-96969190D01*
X159176913Y-96969190D02*
X159129294Y-96921571D01*
X159129294Y-96921571D02*
X159034056Y-96873952D01*
X159034056Y-96873952D02*
X158843580Y-96873952D01*
X158843580Y-96873952D02*
X158748342Y-96921571D01*
X158176913Y-97540619D02*
X158272151Y-97493000D01*
X158272151Y-97493000D02*
X158319770Y-97445380D01*
X158319770Y-97445380D02*
X158367389Y-97350142D01*
X158367389Y-97350142D02*
X158367389Y-97064428D01*
X158367389Y-97064428D02*
X158319770Y-96969190D01*
X158319770Y-96969190D02*
X158272151Y-96921571D01*
X158272151Y-96921571D02*
X158176913Y-96873952D01*
X158176913Y-96873952D02*
X158034056Y-96873952D01*
X158034056Y-96873952D02*
X157938818Y-96921571D01*
X157938818Y-96921571D02*
X157891199Y-96969190D01*
X157891199Y-96969190D02*
X157843580Y-97064428D01*
X157843580Y-97064428D02*
X157843580Y-97350142D01*
X157843580Y-97350142D02*
X157891199Y-97445380D01*
X157891199Y-97445380D02*
X157938818Y-97493000D01*
X157938818Y-97493000D02*
X158034056Y-97540619D01*
X158034056Y-97540619D02*
X158176913Y-97540619D01*
X157415008Y-97540619D02*
X157415008Y-96873952D01*
X157415008Y-96969190D02*
X157367389Y-96921571D01*
X157367389Y-96921571D02*
X157272151Y-96873952D01*
X157272151Y-96873952D02*
X157129294Y-96873952D01*
X157129294Y-96873952D02*
X157034056Y-96921571D01*
X157034056Y-96921571D02*
X156986437Y-97016809D01*
X156986437Y-97016809D02*
X156986437Y-97540619D01*
X156986437Y-97016809D02*
X156938818Y-96921571D01*
X156938818Y-96921571D02*
X156843580Y-96873952D01*
X156843580Y-96873952D02*
X156700723Y-96873952D01*
X156700723Y-96873952D02*
X156605484Y-96921571D01*
X156605484Y-96921571D02*
X156557865Y-97016809D01*
X156557865Y-97016809D02*
X156557865Y-97540619D01*
X155367390Y-96493000D02*
X156224532Y-97778714D01*
X154605485Y-97540619D02*
X154605485Y-97016809D01*
X154605485Y-97016809D02*
X154653104Y-96921571D01*
X154653104Y-96921571D02*
X154748342Y-96873952D01*
X154748342Y-96873952D02*
X154938818Y-96873952D01*
X154938818Y-96873952D02*
X155034056Y-96921571D01*
X154605485Y-97493000D02*
X154700723Y-97540619D01*
X154700723Y-97540619D02*
X154938818Y-97540619D01*
X154938818Y-97540619D02*
X155034056Y-97493000D01*
X155034056Y-97493000D02*
X155081675Y-97397761D01*
X155081675Y-97397761D02*
X155081675Y-97302523D01*
X155081675Y-97302523D02*
X155034056Y-97207285D01*
X155034056Y-97207285D02*
X154938818Y-97159666D01*
X154938818Y-97159666D02*
X154700723Y-97159666D01*
X154700723Y-97159666D02*
X154605485Y-97112047D01*
X154129294Y-97540619D02*
X154129294Y-96873952D01*
X154129294Y-96969190D02*
X154081675Y-96921571D01*
X154081675Y-96921571D02*
X153986437Y-96873952D01*
X153986437Y-96873952D02*
X153843580Y-96873952D01*
X153843580Y-96873952D02*
X153748342Y-96921571D01*
X153748342Y-96921571D02*
X153700723Y-97016809D01*
X153700723Y-97016809D02*
X153700723Y-97540619D01*
X153700723Y-97016809D02*
X153653104Y-96921571D01*
X153653104Y-96921571D02*
X153557866Y-96873952D01*
X153557866Y-96873952D02*
X153415009Y-96873952D01*
X153415009Y-96873952D02*
X153319770Y-96921571D01*
X153319770Y-96921571D02*
X153272151Y-97016809D01*
X153272151Y-97016809D02*
X153272151Y-97540619D01*
X152653104Y-97540619D02*
X152748342Y-97493000D01*
X152748342Y-97493000D02*
X152795961Y-97445380D01*
X152795961Y-97445380D02*
X152843580Y-97350142D01*
X152843580Y-97350142D02*
X152843580Y-97064428D01*
X152843580Y-97064428D02*
X152795961Y-96969190D01*
X152795961Y-96969190D02*
X152748342Y-96921571D01*
X152748342Y-96921571D02*
X152653104Y-96873952D01*
X152653104Y-96873952D02*
X152510247Y-96873952D01*
X152510247Y-96873952D02*
X152415009Y-96921571D01*
X152415009Y-96921571D02*
X152367390Y-96969190D01*
X152367390Y-96969190D02*
X152319771Y-97064428D01*
X152319771Y-97064428D02*
X152319771Y-97350142D01*
X152319771Y-97350142D02*
X152367390Y-97445380D01*
X152367390Y-97445380D02*
X152415009Y-97493000D01*
X152415009Y-97493000D02*
X152510247Y-97540619D01*
X152510247Y-97540619D02*
X152653104Y-97540619D01*
X151938818Y-97493000D02*
X151843580Y-97540619D01*
X151843580Y-97540619D02*
X151653104Y-97540619D01*
X151653104Y-97540619D02*
X151557866Y-97493000D01*
X151557866Y-97493000D02*
X151510247Y-97397761D01*
X151510247Y-97397761D02*
X151510247Y-97350142D01*
X151510247Y-97350142D02*
X151557866Y-97254904D01*
X151557866Y-97254904D02*
X151653104Y-97207285D01*
X151653104Y-97207285D02*
X151795961Y-97207285D01*
X151795961Y-97207285D02*
X151891199Y-97159666D01*
X151891199Y-97159666D02*
X151938818Y-97064428D01*
X151938818Y-97064428D02*
X151938818Y-97016809D01*
X151938818Y-97016809D02*
X151891199Y-96921571D01*
X151891199Y-96921571D02*
X151795961Y-96873952D01*
X151795961Y-96873952D02*
X151653104Y-96873952D01*
X151653104Y-96873952D02*
X151557866Y-96921571D01*
X150653104Y-96873952D02*
X150653104Y-97540619D01*
X150891199Y-96493000D02*
X151129294Y-97207285D01*
X151129294Y-97207285D02*
X150510247Y-97207285D01*
X150176913Y-96635857D02*
X150129294Y-96588238D01*
X150129294Y-96588238D02*
X150034056Y-96540619D01*
X150034056Y-96540619D02*
X149795961Y-96540619D01*
X149795961Y-96540619D02*
X149700723Y-96588238D01*
X149700723Y-96588238D02*
X149653104Y-96635857D01*
X149653104Y-96635857D02*
X149605485Y-96731095D01*
X149605485Y-96731095D02*
X149605485Y-96826333D01*
X149605485Y-96826333D02*
X149653104Y-96969190D01*
X149653104Y-96969190D02*
X150224532Y-97540619D01*
X150224532Y-97540619D02*
X149605485Y-97540619D01*
X148462628Y-96493000D02*
X149319770Y-97778714D01*
X147700723Y-97540619D02*
X147700723Y-97016809D01*
X147700723Y-97016809D02*
X147748342Y-96921571D01*
X147748342Y-96921571D02*
X147843580Y-96873952D01*
X147843580Y-96873952D02*
X148034056Y-96873952D01*
X148034056Y-96873952D02*
X148129294Y-96921571D01*
X147700723Y-97493000D02*
X147795961Y-97540619D01*
X147795961Y-97540619D02*
X148034056Y-97540619D01*
X148034056Y-97540619D02*
X148129294Y-97493000D01*
X148129294Y-97493000D02*
X148176913Y-97397761D01*
X148176913Y-97397761D02*
X148176913Y-97302523D01*
X148176913Y-97302523D02*
X148129294Y-97207285D01*
X148129294Y-97207285D02*
X148034056Y-97159666D01*
X148034056Y-97159666D02*
X147795961Y-97159666D01*
X147795961Y-97159666D02*
X147700723Y-97112047D01*
X147224532Y-97540619D02*
X147224532Y-96873952D01*
X147224532Y-96969190D02*
X147176913Y-96921571D01*
X147176913Y-96921571D02*
X147081675Y-96873952D01*
X147081675Y-96873952D02*
X146938818Y-96873952D01*
X146938818Y-96873952D02*
X146843580Y-96921571D01*
X146843580Y-96921571D02*
X146795961Y-97016809D01*
X146795961Y-97016809D02*
X146795961Y-97540619D01*
X146795961Y-97016809D02*
X146748342Y-96921571D01*
X146748342Y-96921571D02*
X146653104Y-96873952D01*
X146653104Y-96873952D02*
X146510247Y-96873952D01*
X146510247Y-96873952D02*
X146415008Y-96921571D01*
X146415008Y-96921571D02*
X146367389Y-97016809D01*
X146367389Y-97016809D02*
X146367389Y-97540619D01*
X146129295Y-97635857D02*
X145367390Y-97635857D01*
X145129294Y-96873952D02*
X145129294Y-97731095D01*
X145129294Y-97731095D02*
X145176913Y-97826333D01*
X145176913Y-97826333D02*
X145272151Y-97873952D01*
X145272151Y-97873952D02*
X145319770Y-97873952D01*
X145129294Y-96540619D02*
X145176913Y-96588238D01*
X145176913Y-96588238D02*
X145129294Y-96635857D01*
X145129294Y-96635857D02*
X145081675Y-96588238D01*
X145081675Y-96588238D02*
X145129294Y-96540619D01*
X145129294Y-96540619D02*
X145129294Y-96635857D01*
X144510247Y-97540619D02*
X144605485Y-97493000D01*
X144605485Y-97493000D02*
X144653104Y-97445380D01*
X144653104Y-97445380D02*
X144700723Y-97350142D01*
X144700723Y-97350142D02*
X144700723Y-97064428D01*
X144700723Y-97064428D02*
X144653104Y-96969190D01*
X144653104Y-96969190D02*
X144605485Y-96921571D01*
X144605485Y-96921571D02*
X144510247Y-96873952D01*
X144510247Y-96873952D02*
X144367390Y-96873952D01*
X144367390Y-96873952D02*
X144272152Y-96921571D01*
X144272152Y-96921571D02*
X144224533Y-96969190D01*
X144224533Y-96969190D02*
X144176914Y-97064428D01*
X144176914Y-97064428D02*
X144176914Y-97350142D01*
X144176914Y-97350142D02*
X144224533Y-97445380D01*
X144224533Y-97445380D02*
X144272152Y-97493000D01*
X144272152Y-97493000D02*
X144367390Y-97540619D01*
X144367390Y-97540619D02*
X144510247Y-97540619D01*
X143843580Y-96873952D02*
X143605485Y-97540619D01*
X143367390Y-96873952D02*
X143605485Y-97540619D01*
X143605485Y-97540619D02*
X143700723Y-97778714D01*
X143700723Y-97778714D02*
X143748342Y-97826333D01*
X143748342Y-97826333D02*
X143843580Y-97873952D01*
X142986437Y-97540619D02*
X142986437Y-96873952D01*
X142986437Y-96540619D02*
X143034056Y-96588238D01*
X143034056Y-96588238D02*
X142986437Y-96635857D01*
X142986437Y-96635857D02*
X142938818Y-96588238D01*
X142938818Y-96588238D02*
X142986437Y-96540619D01*
X142986437Y-96540619D02*
X142986437Y-96635857D01*
X142510247Y-96873952D02*
X142510247Y-97540619D01*
X142510247Y-96969190D02*
X142462628Y-96921571D01*
X142462628Y-96921571D02*
X142367390Y-96873952D01*
X142367390Y-96873952D02*
X142224533Y-96873952D01*
X142224533Y-96873952D02*
X142129295Y-96921571D01*
X142129295Y-96921571D02*
X142081676Y-97016809D01*
X142081676Y-97016809D02*
X142081676Y-97540619D01*
D11*
X138218933Y-86226633D02*
X138452266Y-85893300D01*
X138618933Y-86226633D02*
X138618933Y-85526633D01*
X138618933Y-85526633D02*
X138352266Y-85526633D01*
X138352266Y-85526633D02*
X138285600Y-85559966D01*
X138285600Y-85559966D02*
X138252266Y-85593300D01*
X138252266Y-85593300D02*
X138218933Y-85659966D01*
X138218933Y-85659966D02*
X138218933Y-85759966D01*
X138218933Y-85759966D02*
X138252266Y-85826633D01*
X138252266Y-85826633D02*
X138285600Y-85859966D01*
X138285600Y-85859966D02*
X138352266Y-85893300D01*
X138352266Y-85893300D02*
X138618933Y-85893300D01*
X137652266Y-86193300D02*
X137718933Y-86226633D01*
X137718933Y-86226633D02*
X137852266Y-86226633D01*
X137852266Y-86226633D02*
X137918933Y-86193300D01*
X137918933Y-86193300D02*
X137952266Y-86126633D01*
X137952266Y-86126633D02*
X137952266Y-85859966D01*
X137952266Y-85859966D02*
X137918933Y-85793300D01*
X137918933Y-85793300D02*
X137852266Y-85759966D01*
X137852266Y-85759966D02*
X137718933Y-85759966D01*
X137718933Y-85759966D02*
X137652266Y-85793300D01*
X137652266Y-85793300D02*
X137618933Y-85859966D01*
X137618933Y-85859966D02*
X137618933Y-85926633D01*
X137618933Y-85926633D02*
X137952266Y-85993300D01*
X137385600Y-85759966D02*
X137218933Y-86226633D01*
X137218933Y-86226633D02*
X137052266Y-85759966D01*
X136785600Y-86159966D02*
X136752267Y-86193300D01*
X136752267Y-86193300D02*
X136785600Y-86226633D01*
X136785600Y-86226633D02*
X136818933Y-86193300D01*
X136818933Y-86193300D02*
X136785600Y-86159966D01*
X136785600Y-86159966D02*
X136785600Y-86226633D01*
X136152267Y-85759966D02*
X136152267Y-86226633D01*
X136318934Y-85493300D02*
X136485600Y-85993300D01*
X136485600Y-85993300D02*
X136052267Y-85993300D01*
D10*
X154548552Y-85952704D02*
X154072362Y-85952704D01*
X154643790Y-86238419D02*
X154310457Y-85238419D01*
X154310457Y-85238419D02*
X153977124Y-86238419D01*
X153643790Y-86238419D02*
X153643790Y-85571752D01*
X153643790Y-85666990D02*
X153596171Y-85619371D01*
X153596171Y-85619371D02*
X153500933Y-85571752D01*
X153500933Y-85571752D02*
X153358076Y-85571752D01*
X153358076Y-85571752D02*
X153262838Y-85619371D01*
X153262838Y-85619371D02*
X153215219Y-85714609D01*
X153215219Y-85714609D02*
X153215219Y-86238419D01*
X153215219Y-85714609D02*
X153167600Y-85619371D01*
X153167600Y-85619371D02*
X153072362Y-85571752D01*
X153072362Y-85571752D02*
X152929505Y-85571752D01*
X152929505Y-85571752D02*
X152834266Y-85619371D01*
X152834266Y-85619371D02*
X152786647Y-85714609D01*
X152786647Y-85714609D02*
X152786647Y-86238419D01*
X152167600Y-86238419D02*
X152262838Y-86190800D01*
X152262838Y-86190800D02*
X152310457Y-86143180D01*
X152310457Y-86143180D02*
X152358076Y-86047942D01*
X152358076Y-86047942D02*
X152358076Y-85762228D01*
X152358076Y-85762228D02*
X152310457Y-85666990D01*
X152310457Y-85666990D02*
X152262838Y-85619371D01*
X152262838Y-85619371D02*
X152167600Y-85571752D01*
X152167600Y-85571752D02*
X152024743Y-85571752D01*
X152024743Y-85571752D02*
X151929505Y-85619371D01*
X151929505Y-85619371D02*
X151881886Y-85666990D01*
X151881886Y-85666990D02*
X151834267Y-85762228D01*
X151834267Y-85762228D02*
X151834267Y-86047942D01*
X151834267Y-86047942D02*
X151881886Y-86143180D01*
X151881886Y-86143180D02*
X151929505Y-86190800D01*
X151929505Y-86190800D02*
X152024743Y-86238419D01*
X152024743Y-86238419D02*
X152167600Y-86238419D01*
X151453314Y-86190800D02*
X151358076Y-86238419D01*
X151358076Y-86238419D02*
X151167600Y-86238419D01*
X151167600Y-86238419D02*
X151072362Y-86190800D01*
X151072362Y-86190800D02*
X151024743Y-86095561D01*
X151024743Y-86095561D02*
X151024743Y-86047942D01*
X151024743Y-86047942D02*
X151072362Y-85952704D01*
X151072362Y-85952704D02*
X151167600Y-85905085D01*
X151167600Y-85905085D02*
X151310457Y-85905085D01*
X151310457Y-85905085D02*
X151405695Y-85857466D01*
X151405695Y-85857466D02*
X151453314Y-85762228D01*
X151453314Y-85762228D02*
X151453314Y-85714609D01*
X151453314Y-85714609D02*
X151405695Y-85619371D01*
X151405695Y-85619371D02*
X151310457Y-85571752D01*
X151310457Y-85571752D02*
X151167600Y-85571752D01*
X151167600Y-85571752D02*
X151072362Y-85619371D01*
X149548552Y-85238419D02*
X149548552Y-85952704D01*
X149548552Y-85952704D02*
X149596171Y-86095561D01*
X149596171Y-86095561D02*
X149691409Y-86190800D01*
X149691409Y-86190800D02*
X149834266Y-86238419D01*
X149834266Y-86238419D02*
X149929504Y-86238419D01*
X148929504Y-86238419D02*
X149024742Y-86190800D01*
X149024742Y-86190800D02*
X149072361Y-86143180D01*
X149072361Y-86143180D02*
X149119980Y-86047942D01*
X149119980Y-86047942D02*
X149119980Y-85762228D01*
X149119980Y-85762228D02*
X149072361Y-85666990D01*
X149072361Y-85666990D02*
X149024742Y-85619371D01*
X149024742Y-85619371D02*
X148929504Y-85571752D01*
X148929504Y-85571752D02*
X148786647Y-85571752D01*
X148786647Y-85571752D02*
X148691409Y-85619371D01*
X148691409Y-85619371D02*
X148643790Y-85666990D01*
X148643790Y-85666990D02*
X148596171Y-85762228D01*
X148596171Y-85762228D02*
X148596171Y-86047942D01*
X148596171Y-86047942D02*
X148643790Y-86143180D01*
X148643790Y-86143180D02*
X148691409Y-86190800D01*
X148691409Y-86190800D02*
X148786647Y-86238419D01*
X148786647Y-86238419D02*
X148929504Y-86238419D01*
X148262837Y-85571752D02*
X148024742Y-86238419D01*
X147786647Y-85571752D02*
X148024742Y-86238419D01*
X148024742Y-86238419D02*
X148119980Y-86476514D01*
X148119980Y-86476514D02*
X148167599Y-86524133D01*
X148167599Y-86524133D02*
X148262837Y-86571752D01*
X147453313Y-86190800D02*
X147358075Y-86238419D01*
X147358075Y-86238419D02*
X147167599Y-86238419D01*
X147167599Y-86238419D02*
X147072361Y-86190800D01*
X147072361Y-86190800D02*
X147024742Y-86095561D01*
X147024742Y-86095561D02*
X147024742Y-86047942D01*
X147024742Y-86047942D02*
X147072361Y-85952704D01*
X147072361Y-85952704D02*
X147167599Y-85905085D01*
X147167599Y-85905085D02*
X147310456Y-85905085D01*
X147310456Y-85905085D02*
X147405694Y-85857466D01*
X147405694Y-85857466D02*
X147453313Y-85762228D01*
X147453313Y-85762228D02*
X147453313Y-85714609D01*
X147453313Y-85714609D02*
X147405694Y-85619371D01*
X147405694Y-85619371D02*
X147310456Y-85571752D01*
X147310456Y-85571752D02*
X147167599Y-85571752D01*
X147167599Y-85571752D02*
X147072361Y-85619371D01*
X146739027Y-85571752D02*
X146358075Y-85571752D01*
X146596170Y-85238419D02*
X146596170Y-86095561D01*
X146596170Y-86095561D02*
X146548551Y-86190800D01*
X146548551Y-86190800D02*
X146453313Y-86238419D01*
X146453313Y-86238419D02*
X146358075Y-86238419D01*
X146024741Y-86238419D02*
X146024741Y-85571752D01*
X146024741Y-85238419D02*
X146072360Y-85286038D01*
X146072360Y-85286038D02*
X146024741Y-85333657D01*
X146024741Y-85333657D02*
X145977122Y-85286038D01*
X145977122Y-85286038D02*
X146024741Y-85238419D01*
X146024741Y-85238419D02*
X146024741Y-85333657D01*
X145119980Y-86190800D02*
X145215218Y-86238419D01*
X145215218Y-86238419D02*
X145405694Y-86238419D01*
X145405694Y-86238419D02*
X145500932Y-86190800D01*
X145500932Y-86190800D02*
X145548551Y-86143180D01*
X145548551Y-86143180D02*
X145596170Y-86047942D01*
X145596170Y-86047942D02*
X145596170Y-85762228D01*
X145596170Y-85762228D02*
X145548551Y-85666990D01*
X145548551Y-85666990D02*
X145500932Y-85619371D01*
X145500932Y-85619371D02*
X145405694Y-85571752D01*
X145405694Y-85571752D02*
X145215218Y-85571752D01*
X145215218Y-85571752D02*
X145119980Y-85619371D01*
X144691408Y-86238419D02*
X144691408Y-85238419D01*
X144596170Y-85857466D02*
X144310456Y-86238419D01*
X144310456Y-85571752D02*
X144691408Y-85952704D01*
X143119979Y-86238419D02*
X143119979Y-85238419D01*
X142643789Y-85571752D02*
X142643789Y-86238419D01*
X142643789Y-85666990D02*
X142596170Y-85619371D01*
X142596170Y-85619371D02*
X142500932Y-85571752D01*
X142500932Y-85571752D02*
X142358075Y-85571752D01*
X142358075Y-85571752D02*
X142262837Y-85619371D01*
X142262837Y-85619371D02*
X142215218Y-85714609D01*
X142215218Y-85714609D02*
X142215218Y-86238419D01*
X141739027Y-85571752D02*
X141739027Y-86571752D01*
X141739027Y-85619371D02*
X141643789Y-85571752D01*
X141643789Y-85571752D02*
X141453313Y-85571752D01*
X141453313Y-85571752D02*
X141358075Y-85619371D01*
X141358075Y-85619371D02*
X141310456Y-85666990D01*
X141310456Y-85666990D02*
X141262837Y-85762228D01*
X141262837Y-85762228D02*
X141262837Y-86047942D01*
X141262837Y-86047942D02*
X141310456Y-86143180D01*
X141310456Y-86143180D02*
X141358075Y-86190800D01*
X141358075Y-86190800D02*
X141453313Y-86238419D01*
X141453313Y-86238419D02*
X141643789Y-86238419D01*
X141643789Y-86238419D02*
X141739027Y-86190800D01*
X140405694Y-85571752D02*
X140405694Y-86238419D01*
X140834265Y-85571752D02*
X140834265Y-86095561D01*
X140834265Y-86095561D02*
X140786646Y-86190800D01*
X140786646Y-86190800D02*
X140691408Y-86238419D01*
X140691408Y-86238419D02*
X140548551Y-86238419D01*
X140548551Y-86238419D02*
X140453313Y-86190800D01*
X140453313Y-86190800D02*
X140405694Y-86143180D01*
X140072360Y-85571752D02*
X139691408Y-85571752D01*
X139929503Y-85238419D02*
X139929503Y-86095561D01*
X139929503Y-86095561D02*
X139881884Y-86190800D01*
X139881884Y-86190800D02*
X139786646Y-86238419D01*
X139786646Y-86238419D02*
X139691408Y-86238419D01*
M02*
