%TF.GenerationSoftware,KiCad,Pcbnew,7.0.1*%
%TF.CreationDate,2023-05-21T17:17:07+09:00*%
%TF.ProjectId,joystick_74hc165_input,6a6f7973-7469-4636-9b5f-373468633136,4*%
%TF.SameCoordinates,Original*%
%TF.FileFunction,Soldermask,Top*%
%TF.FilePolarity,Negative*%
%FSLAX46Y46*%
G04 Gerber Fmt 4.6, Leading zero omitted, Abs format (unit mm)*
G04 Created by KiCad (PCBNEW 7.0.1) date 2023-05-21 17:17:07*
%MOMM*%
%LPD*%
G01*
G04 APERTURE LIST*
G04 Aperture macros list*
%AMRoundRect*
0 Rectangle with rounded corners*
0 $1 Rounding radius*
0 $2 $3 $4 $5 $6 $7 $8 $9 X,Y pos of 4 corners*
0 Add a 4 corners polygon primitive as box body*
4,1,4,$2,$3,$4,$5,$6,$7,$8,$9,$2,$3,0*
0 Add four circle primitives for the rounded corners*
1,1,$1+$1,$2,$3*
1,1,$1+$1,$4,$5*
1,1,$1+$1,$6,$7*
1,1,$1+$1,$8,$9*
0 Add four rect primitives between the rounded corners*
20,1,$1+$1,$2,$3,$4,$5,0*
20,1,$1+$1,$4,$5,$6,$7,0*
20,1,$1+$1,$6,$7,$8,$9,0*
20,1,$1+$1,$8,$9,$2,$3,0*%
G04 Aperture macros list end*
%ADD10R,1.700000X1.700000*%
%ADD11O,1.700000X1.700000*%
%ADD12R,1.600000X1.600000*%
%ADD13O,1.600000X1.600000*%
%ADD14RoundRect,0.250000X0.337500X0.475000X-0.337500X0.475000X-0.337500X-0.475000X0.337500X-0.475000X0*%
%ADD15R,1.000000X1.500000*%
G04 APERTURE END LIST*
D10*
%TO.C,J2*%
X172694600Y-88315800D03*
D11*
X172694600Y-90855800D03*
X170154600Y-88315800D03*
X170154600Y-90855800D03*
X167614600Y-88315800D03*
X167614600Y-90855800D03*
X165074600Y-88315800D03*
X165074600Y-90855800D03*
X162534600Y-88315800D03*
X162534600Y-90855800D03*
X159994600Y-88315800D03*
X159994600Y-90855800D03*
X157454600Y-88315800D03*
X157454600Y-90855800D03*
X154914600Y-88315800D03*
X154914600Y-90855800D03*
X152374600Y-88315800D03*
X152374600Y-90855800D03*
X149834600Y-88315800D03*
X149834600Y-90855800D03*
X147294600Y-88315800D03*
X147294600Y-90855800D03*
X144754600Y-88315800D03*
X144754600Y-90855800D03*
X142214600Y-88315800D03*
X142214600Y-90855800D03*
X139674600Y-88315800D03*
X139674600Y-90855800D03*
%TD*%
D10*
%TO.C,IN1*%
X132435600Y-107365800D03*
D11*
X132435600Y-109905800D03*
X132435600Y-112445800D03*
X132435600Y-114985800D03*
X132435600Y-117525800D03*
%TD*%
D10*
%TO.C,J1*%
X177774600Y-94792800D03*
D11*
X175234600Y-94792800D03*
X172694600Y-94792800D03*
X170154600Y-94792800D03*
X167614600Y-94792800D03*
X165074600Y-94792800D03*
X162534600Y-94792800D03*
X159994600Y-94792800D03*
X157454600Y-94792800D03*
X154914600Y-94792800D03*
X152374600Y-94792800D03*
X149834600Y-94792800D03*
X147294600Y-94792800D03*
X144754600Y-94792800D03*
X142214600Y-94792800D03*
X139674600Y-94792800D03*
X137134600Y-94792800D03*
X134594600Y-94792800D03*
%TD*%
D12*
%TO.C,74HC165_1*%
X165709600Y-103682800D03*
D13*
X165709600Y-106222800D03*
X165709600Y-108762800D03*
X165709600Y-111302800D03*
X165709600Y-113842800D03*
X165709600Y-116382800D03*
X165709600Y-118922800D03*
X165709600Y-121462800D03*
X173329600Y-121462800D03*
X173329600Y-118922800D03*
X173329600Y-116382800D03*
X173329600Y-113842800D03*
X173329600Y-111302800D03*
X173329600Y-108762800D03*
X173329600Y-106222800D03*
X173329600Y-103682800D03*
%TD*%
D12*
%TO.C,74HC165_2*%
X152501600Y-103682800D03*
D13*
X152501600Y-106222800D03*
X152501600Y-108762800D03*
X152501600Y-111302800D03*
X152501600Y-113842800D03*
X152501600Y-116382800D03*
X152501600Y-118922800D03*
X152501600Y-121462800D03*
X160121600Y-121462800D03*
X160121600Y-118922800D03*
X160121600Y-116382800D03*
X160121600Y-113842800D03*
X160121600Y-111302800D03*
X160121600Y-108762800D03*
X160121600Y-106222800D03*
X160121600Y-103682800D03*
%TD*%
D14*
%TO.C,C3*%
X160143100Y-101142800D03*
X158068100Y-101142800D03*
%TD*%
%TO.C,C4*%
X146935100Y-101142800D03*
X144860100Y-101142800D03*
%TD*%
D12*
%TO.C,RN1*%
X176123600Y-118922800D03*
D13*
X176123600Y-116382800D03*
X176123600Y-113842800D03*
X176123600Y-111302800D03*
X176123600Y-108762800D03*
%TD*%
D12*
%TO.C,RN4*%
X136499600Y-118922800D03*
D13*
X136499600Y-116382800D03*
X136499600Y-113842800D03*
X136499600Y-111302800D03*
X136499600Y-108762800D03*
%TD*%
D12*
%TO.C,RN2*%
X162915600Y-121477800D03*
D13*
X162915600Y-118937800D03*
X162915600Y-116397800D03*
X162915600Y-113857800D03*
X162915600Y-111317800D03*
X162915600Y-108777800D03*
X162915600Y-106237800D03*
X162915600Y-103697800D03*
X162915600Y-101157800D03*
%TD*%
D12*
%TO.C,74HC165_3*%
X139293600Y-103682800D03*
D13*
X139293600Y-106222800D03*
X139293600Y-108762800D03*
X139293600Y-111302800D03*
X139293600Y-113842800D03*
X139293600Y-116382800D03*
X139293600Y-118922800D03*
X139293600Y-121462800D03*
X146913600Y-121462800D03*
X146913600Y-118922800D03*
X146913600Y-116382800D03*
X146913600Y-113842800D03*
X146913600Y-111302800D03*
X146913600Y-108762800D03*
X146913600Y-106222800D03*
X146913600Y-103682800D03*
%TD*%
D12*
%TO.C,RN3*%
X149707600Y-121462800D03*
D13*
X149707600Y-118922800D03*
X149707600Y-116382800D03*
X149707600Y-113842800D03*
X149707600Y-111302800D03*
X149707600Y-108762800D03*
X149707600Y-106222800D03*
X149707600Y-103682800D03*
X149707600Y-101142800D03*
%TD*%
D14*
%TO.C,C2*%
X173351100Y-101142800D03*
X171276100Y-101142800D03*
%TD*%
D10*
%TO.C,OUT1*%
X180187600Y-107492800D03*
D11*
X180187600Y-110032800D03*
X180187600Y-112572800D03*
X180187600Y-115112800D03*
X180187600Y-117652800D03*
%TD*%
D15*
%TO.C,SHORT1*%
X135716800Y-101117400D03*
X134416800Y-101117400D03*
X133116800Y-101117400D03*
%TD*%
%TO.C,PULL1*%
X177008000Y-101244400D03*
X178308000Y-101244400D03*
X179608000Y-101244400D03*
%TD*%
D14*
%TO.C,C1*%
X177465900Y-105918000D03*
X175390900Y-105918000D03*
%TD*%
M02*
