M48
; DRILL file {KiCad 7.0.1} date Sun Apr  2 01:13:56 2023
; FORMAT={-:-/ absolute / inch / decimal}
; #@! TF.CreationDate,2023-04-02T01:13:56+09:00
; #@! TF.GenerationSoftware,Kicad,Pcbnew,7.0.1
; #@! TF.FileFunction,Plated,1,2,PTH
FMAT,2
INCH
; #@! TA.AperFunction,Plated,PTH,ComponentDrill
T1C0.0197
; #@! TA.AperFunction,Plated,PTH,ComponentDrill
T2C0.0394
%
G90
G05
T1
X0.0333Y0.7741
X0.0333Y0.7249
X0.0333Y0.6756
X0.0333Y0.6264
X0.0333Y0.5772
X0.0333Y0.528
X0.0333Y0.4788
X0.0333Y0.4296
X0.0333Y0.3804
X0.0333Y0.3311
X0.0333Y0.2819
X0.0333Y0.2327
X0.0333Y0.1835
X0.4273Y0.7741
X0.4273Y0.7249
X0.4273Y0.6756
X0.4273Y0.6264
X0.4273Y0.5772
X0.4273Y0.528
X0.4273Y0.4788
X0.4273Y0.4296
X0.4273Y0.3804
X0.4273Y0.3311
X0.4273Y0.2819
X0.4273Y0.2327
X0.4273Y0.1835
T2
X0.1811Y0.8707
X0.1811Y0.7707
X0.1811Y0.6707
X0.1811Y0.5707
X0.1811Y0.4707
X0.1811Y0.3707
X0.1811Y0.2707
X0.1811Y0.1707
X0.1811Y0.0707
X0.2811Y0.8707
X0.2811Y0.7707
X0.2811Y0.6707
X0.2811Y0.5707
X0.2811Y0.4707
X0.2811Y0.3707
X0.2811Y0.2707
X0.2811Y0.1707
X0.2811Y0.0707
T0
M30
