%TF.GenerationSoftware,KiCad,Pcbnew,7.0.1*%
%TF.CreationDate,2023-04-02T01:13:53+09:00*%
%TF.ProjectId,joystick_gpio_input_2p_rasp_part,6a6f7973-7469-4636-9b5f-6770696f5f69,2*%
%TF.SameCoordinates,PX883b640PY6b1d950*%
%TF.FileFunction,Copper,L2,Bot*%
%TF.FilePolarity,Positive*%
%FSLAX46Y46*%
G04 Gerber Fmt 4.6, Leading zero omitted, Abs format (unit mm)*
G04 Created by KiCad (PCBNEW 7.0.1) date 2023-04-02 01:13:53*
%MOMM*%
%LPD*%
G01*
G04 APERTURE LIST*
G04 Aperture macros list*
%AMRoundRect*
0 Rectangle with rounded corners*
0 $1 Rounding radius*
0 $2 $3 $4 $5 $6 $7 $8 $9 X,Y pos of 4 corners*
0 Add a 4 corners polygon primitive as box body*
4,1,4,$2,$3,$4,$5,$6,$7,$8,$9,$2,$3,0*
0 Add four circle primitives for the rounded corners*
1,1,$1+$1,$2,$3*
1,1,$1+$1,$4,$5*
1,1,$1+$1,$6,$7*
1,1,$1+$1,$8,$9*
0 Add four rect primitives between the rounded corners*
20,1,$1+$1,$2,$3,$4,$5,0*
20,1,$1+$1,$4,$5,$6,$7,0*
20,1,$1+$1,$6,$7,$8,$9,0*
20,1,$1+$1,$8,$9,$2,$3,0*%
G04 Aperture macros list end*
%TA.AperFunction,ComponentPad*%
%ADD10RoundRect,0.200000X-0.450000X0.200000X-0.450000X-0.200000X0.450000X-0.200000X0.450000X0.200000X0*%
%TD*%
%TA.AperFunction,ComponentPad*%
%ADD11O,1.300000X0.800000*%
%TD*%
%TA.AperFunction,ComponentPad*%
%ADD12R,1.700000X1.700000*%
%TD*%
%TA.AperFunction,ComponentPad*%
%ADD13O,1.700000X1.700000*%
%TD*%
%TA.AperFunction,Conductor*%
%ADD14C,0.250000*%
%TD*%
G04 APERTURE END LIST*
D10*
%TO.P,J9,1,Pin_1*%
%TO.N,/2P_UP*%
X10854300Y19661200D03*
D11*
%TO.P,J9,2,Pin_2*%
%TO.N,/2P_TL*%
X10854300Y18411200D03*
%TO.P,J9,3,Pin_3*%
%TO.N,/2P_X*%
X10854300Y17161200D03*
%TO.P,J9,4,Pin_4*%
%TO.N,/2P_DOWN*%
X10854300Y15911200D03*
%TO.P,J9,5,Pin_5*%
%TO.N,/2P_Y*%
X10854300Y14661200D03*
%TO.P,J9,6,Pin_6*%
%TO.N,/2P_LEFT*%
X10854300Y13411200D03*
%TO.P,J9,7,Pin_7*%
%TO.N,/2P_RIGHT*%
X10854300Y12161200D03*
%TO.P,J9,8,Pin_8*%
%TO.N,/2P_TR*%
X10854300Y10911200D03*
%TO.P,J9,9,Pin_9*%
%TO.N,/2P_B*%
X10854300Y9661200D03*
%TO.P,J9,10,Pin_10*%
%TO.N,/2P_START*%
X10854300Y8411200D03*
%TO.P,J9,11,Pin_11*%
%TO.N,/2P_SELECT*%
X10854300Y7161200D03*
%TO.P,J9,12,Pin_12*%
%TO.N,/2P_A*%
X10854300Y5911200D03*
%TO.P,J9,13,Pin_13*%
%TO.N,/2P_GND*%
X10854300Y4661200D03*
%TD*%
D10*
%TO.P,J11,1,Pin_1*%
%TO.N,/2P_UP*%
X846700Y19661200D03*
D11*
%TO.P,J11,2,Pin_2*%
%TO.N,/2P_TL*%
X846700Y18411200D03*
%TO.P,J11,3,Pin_3*%
%TO.N,/2P_X*%
X846700Y17161200D03*
%TO.P,J11,4,Pin_4*%
%TO.N,/2P_DOWN*%
X846700Y15911200D03*
%TO.P,J11,5,Pin_5*%
%TO.N,/2P_Y*%
X846700Y14661200D03*
%TO.P,J11,6,Pin_6*%
%TO.N,/2P_LEFT*%
X846700Y13411200D03*
%TO.P,J11,7,Pin_7*%
%TO.N,/2P_RIGHT*%
X846700Y12161200D03*
%TO.P,J11,8,Pin_8*%
%TO.N,/2P_TR*%
X846700Y10911200D03*
%TO.P,J11,9,Pin_9*%
%TO.N,/2P_B*%
X846700Y9661200D03*
%TO.P,J11,10,Pin_10*%
%TO.N,/2P_START*%
X846700Y8411200D03*
%TO.P,J11,11,Pin_11*%
%TO.N,/2P_SELECT*%
X846700Y7161200D03*
%TO.P,J11,12,Pin_12*%
%TO.N,/2P_A*%
X846700Y5911200D03*
%TO.P,J11,13,Pin_13*%
%TO.N,/2P_GND*%
X846700Y4661200D03*
%TD*%
D12*
%TO.P,J7,1,Pin_1*%
%TO.N,/2P_UP*%
X4600900Y22115000D03*
D13*
%TO.P,J7,2,Pin_2*%
%TO.N,/2P_TL*%
X7140900Y22115000D03*
%TO.P,J7,3,Pin_3*%
%TO.N,/2P_GND*%
X4600900Y19575000D03*
%TO.P,J7,4,Pin_4*%
%TO.N,/2P_X*%
X7140900Y19575000D03*
%TO.P,J7,5,Pin_5*%
%TO.N,unconnected-(J7-Pin_5-Pad5)*%
X4600900Y17035000D03*
%TO.P,J7,6,Pin_6*%
%TO.N,unconnected-(J7-Pin_6-Pad6)*%
X7140900Y17035000D03*
%TO.P,J7,7,Pin_7*%
%TO.N,/2P_DOWN*%
X4600900Y14495000D03*
%TO.P,J7,8,Pin_8*%
%TO.N,/2P_GND*%
X7140900Y14495000D03*
%TO.P,J7,9,Pin_9*%
%TO.N,/2P_LEFT*%
X4600900Y11955000D03*
%TO.P,J7,10,Pin_10*%
%TO.N,/2P_Y*%
X7140900Y11955000D03*
%TO.P,J7,11,Pin_11*%
%TO.N,/2P_RIGHT*%
X4600900Y9415000D03*
%TO.P,J7,12,Pin_12*%
%TO.N,/2P_GND*%
X7140900Y9415000D03*
%TO.P,J7,13,Pin_13*%
%TO.N,/2P_START*%
X4600900Y6875000D03*
%TO.P,J7,14,Pin_14*%
%TO.N,/2P_TR*%
X7140900Y6875000D03*
%TO.P,J7,15,Pin_15*%
%TO.N,/2P_SELECT*%
X4600900Y4335000D03*
%TO.P,J7,16,Pin_16*%
%TO.N,/2P_B*%
X7140900Y4335000D03*
%TO.P,J7,17,Pin_17*%
%TO.N,/2P_GND*%
X4600900Y1795000D03*
%TO.P,J7,18,Pin_18*%
%TO.N,/2P_A*%
X7140900Y1795000D03*
%TD*%
D14*
%TO.N,/2P_B*%
X9017000Y6211100D02*
X7140900Y4335000D01*
X9017000Y8390500D02*
X9017000Y6211100D01*
X10287700Y9661200D02*
X9017000Y8390500D01*
X10854300Y9661200D02*
X10287700Y9661200D01*
%TO.N,/2P_UP*%
X5835500Y20880400D02*
X4600900Y22115000D01*
X7770800Y20880400D02*
X5835500Y20880400D01*
X8990000Y19661200D02*
X7770800Y20880400D01*
X10854300Y19661200D02*
X8990000Y19661200D01*
X4600900Y21568100D02*
X4600900Y22115000D01*
X2690200Y19657400D02*
X4600900Y21568100D01*
X846700Y19657400D02*
X2690200Y19657400D01*
%TO.N,/2P_GND*%
X7696200Y3073400D02*
X9284000Y4661200D01*
X9284000Y4661200D02*
X10854300Y4661200D01*
X4600900Y1795000D02*
X5879300Y3073400D01*
X5879300Y3073400D02*
X7696200Y3073400D01*
X2654000Y4661200D02*
X846700Y4661200D01*
X3225800Y3170100D02*
X3225800Y4089400D01*
X3225800Y4089400D02*
X2654000Y4661200D01*
X4600900Y1795000D02*
X3225800Y3170100D01*
X5875900Y15760000D02*
X7140900Y14495000D01*
X7140900Y14495000D02*
X5875900Y13230000D01*
X5875900Y13230000D02*
X5875900Y10680000D01*
X5875900Y10680000D02*
X7140900Y9415000D01*
X5875900Y8150000D02*
X5875900Y3070000D01*
X7140900Y9415000D02*
X5875900Y8150000D01*
X5875900Y18300000D02*
X5875900Y15760000D01*
X4600900Y19575000D02*
X5875900Y18300000D01*
X5875900Y3070000D02*
X4600900Y1795000D01*
%TO.N,/2P_START*%
X3064700Y8411200D02*
X4600900Y6875000D01*
X846700Y8411200D02*
X3064700Y8411200D01*
%TD*%
M02*
