%TF.GenerationSoftware,KiCad,Pcbnew,7.0.1*%
%TF.CreationDate,2023-04-02T01:13:53+09:00*%
%TF.ProjectId,joystick_gpio_input_2p_rasp_part,6a6f7973-7469-4636-9b5f-6770696f5f69,2*%
%TF.SameCoordinates,PX883b640PY6b1d950*%
%TF.FileFunction,Legend,Top*%
%TF.FilePolarity,Positive*%
%FSLAX46Y46*%
G04 Gerber Fmt 4.6, Leading zero omitted, Abs format (unit mm)*
G04 Created by KiCad (PCBNEW 7.0.1) date 2023-04-02 01:13:53*
%MOMM*%
%LPD*%
G01*
G04 APERTURE LIST*
G04 Aperture macros list*
%AMRoundRect*
0 Rectangle with rounded corners*
0 $1 Rounding radius*
0 $2 $3 $4 $5 $6 $7 $8 $9 X,Y pos of 4 corners*
0 Add a 4 corners polygon primitive as box body*
4,1,4,$2,$3,$4,$5,$6,$7,$8,$9,$2,$3,0*
0 Add four circle primitives for the rounded corners*
1,1,$1+$1,$2,$3*
1,1,$1+$1,$4,$5*
1,1,$1+$1,$6,$7*
1,1,$1+$1,$8,$9*
0 Add four rect primitives between the rounded corners*
20,1,$1+$1,$2,$3,$4,$5,0*
20,1,$1+$1,$4,$5,$6,$7,0*
20,1,$1+$1,$6,$7,$8,$9,0*
20,1,$1+$1,$8,$9,$2,$3,0*%
G04 Aperture macros list end*
%ADD10C,0.150000*%
%ADD11RoundRect,0.200000X-0.450000X0.200000X-0.450000X-0.200000X0.450000X-0.200000X0.450000X0.200000X0*%
%ADD12O,1.300000X0.800000*%
%ADD13R,1.700000X1.700000*%
%ADD14O,1.700000X1.700000*%
G04 APERTURE END LIST*
D10*
X9271000Y20091400D02*
X9271000Y4241800D01*
X2438400Y20116800D02*
X2438400Y4267200D01*
X8684952Y4262458D02*
X8646857Y4148172D01*
X8646857Y4148172D02*
X8608761Y4110077D01*
X8608761Y4110077D02*
X8532571Y4071981D01*
X8532571Y4071981D02*
X8418285Y4071981D01*
X8418285Y4071981D02*
X8342095Y4110077D01*
X8342095Y4110077D02*
X8304000Y4148172D01*
X8304000Y4148172D02*
X8265904Y4224362D01*
X8265904Y4224362D02*
X8265904Y4529124D01*
X8265904Y4529124D02*
X9065904Y4529124D01*
X9065904Y4529124D02*
X9065904Y4262458D01*
X9065904Y4262458D02*
X9027809Y4186267D01*
X9027809Y4186267D02*
X8989714Y4148172D01*
X8989714Y4148172D02*
X8913523Y4110077D01*
X8913523Y4110077D02*
X8837333Y4110077D01*
X8837333Y4110077D02*
X8761142Y4148172D01*
X8761142Y4148172D02*
X8723047Y4186267D01*
X8723047Y4186267D02*
X8684952Y4262458D01*
X8684952Y4262458D02*
X8684952Y4529124D01*
X3494295Y13874830D02*
X2694295Y13874830D01*
X2694295Y13874830D02*
X2694295Y14065306D01*
X2694295Y14065306D02*
X2732390Y14179592D01*
X2732390Y14179592D02*
X2808580Y14255782D01*
X2808580Y14255782D02*
X2884771Y14293877D01*
X2884771Y14293877D02*
X3037152Y14331973D01*
X3037152Y14331973D02*
X3151438Y14331973D01*
X3151438Y14331973D02*
X3303819Y14293877D01*
X3303819Y14293877D02*
X3380009Y14255782D01*
X3380009Y14255782D02*
X3456200Y14179592D01*
X3456200Y14179592D02*
X3494295Y14065306D01*
X3494295Y14065306D02*
X3494295Y13874830D01*
X3494295Y14674830D02*
X2694295Y14674830D01*
X2694295Y14674830D02*
X3494295Y15131973D01*
X3494295Y15131973D02*
X2694295Y15131973D01*
X3468895Y12211020D02*
X3468895Y11830068D01*
X3468895Y11830068D02*
X2668895Y11830068D01*
X3494295Y9671020D02*
X3113342Y9404353D01*
X3494295Y9213877D02*
X2694295Y9213877D01*
X2694295Y9213877D02*
X2694295Y9518639D01*
X2694295Y9518639D02*
X2732390Y9594829D01*
X2732390Y9594829D02*
X2770485Y9632924D01*
X2770485Y9632924D02*
X2846676Y9671020D01*
X2846676Y9671020D02*
X2960961Y9671020D01*
X2960961Y9671020D02*
X3037152Y9632924D01*
X3037152Y9632924D02*
X3075247Y9594829D01*
X3075247Y9594829D02*
X3113342Y9518639D01*
X3113342Y9518639D02*
X3113342Y9213877D01*
X9027809Y14285477D02*
X9065904Y14361667D01*
X9065904Y14361667D02*
X9065904Y14475953D01*
X9065904Y14475953D02*
X9027809Y14590239D01*
X9027809Y14590239D02*
X8951619Y14666429D01*
X8951619Y14666429D02*
X8875428Y14704524D01*
X8875428Y14704524D02*
X8723047Y14742620D01*
X8723047Y14742620D02*
X8608761Y14742620D01*
X8608761Y14742620D02*
X8456380Y14704524D01*
X8456380Y14704524D02*
X8380190Y14666429D01*
X8380190Y14666429D02*
X8304000Y14590239D01*
X8304000Y14590239D02*
X8265904Y14475953D01*
X8265904Y14475953D02*
X8265904Y14399762D01*
X8265904Y14399762D02*
X8304000Y14285477D01*
X8304000Y14285477D02*
X8342095Y14247381D01*
X8342095Y14247381D02*
X8608761Y14247381D01*
X8608761Y14247381D02*
X8608761Y14399762D01*
X9040504Y19826267D02*
X8240504Y19292933D01*
X9040504Y19292933D02*
X8240504Y19826267D01*
X8469076Y1968477D02*
X8469076Y1587524D01*
X8240504Y2044667D02*
X9040504Y1778000D01*
X9040504Y1778000D02*
X8240504Y1511334D01*
X5264228Y3401715D02*
X5302324Y3439810D01*
X5302324Y3439810D02*
X5378514Y3477905D01*
X5378514Y3477905D02*
X5568990Y3477905D01*
X5568990Y3477905D02*
X5645181Y3439810D01*
X5645181Y3439810D02*
X5683276Y3401715D01*
X5683276Y3401715D02*
X5721371Y3325524D01*
X5721371Y3325524D02*
X5721371Y3249334D01*
X5721371Y3249334D02*
X5683276Y3135048D01*
X5683276Y3135048D02*
X5226133Y2677905D01*
X5226133Y2677905D02*
X5721371Y2677905D01*
X6064229Y2677905D02*
X6064229Y3477905D01*
X6064229Y3477905D02*
X6368991Y3477905D01*
X6368991Y3477905D02*
X6445181Y3439810D01*
X6445181Y3439810D02*
X6483276Y3401715D01*
X6483276Y3401715D02*
X6521372Y3325524D01*
X6521372Y3325524D02*
X6521372Y3211239D01*
X6521372Y3211239D02*
X6483276Y3135048D01*
X6483276Y3135048D02*
X6445181Y3096953D01*
X6445181Y3096953D02*
X6368991Y3058858D01*
X6368991Y3058858D02*
X6064229Y3058858D01*
X2694295Y21728830D02*
X3341914Y21728830D01*
X3341914Y21728830D02*
X3418104Y21766925D01*
X3418104Y21766925D02*
X3456200Y21805020D01*
X3456200Y21805020D02*
X3494295Y21881211D01*
X3494295Y21881211D02*
X3494295Y22033592D01*
X3494295Y22033592D02*
X3456200Y22109782D01*
X3456200Y22109782D02*
X3418104Y22147877D01*
X3418104Y22147877D02*
X3341914Y22185973D01*
X3341914Y22185973D02*
X2694295Y22185973D01*
X3494295Y22566925D02*
X2694295Y22566925D01*
X2694295Y22566925D02*
X2694295Y22871687D01*
X2694295Y22871687D02*
X2732390Y22947877D01*
X2732390Y22947877D02*
X2770485Y22985972D01*
X2770485Y22985972D02*
X2846676Y23024068D01*
X2846676Y23024068D02*
X2960961Y23024068D01*
X2960961Y23024068D02*
X3037152Y22985972D01*
X3037152Y22985972D02*
X3075247Y22947877D01*
X3075247Y22947877D02*
X3113342Y22871687D01*
X3113342Y22871687D02*
X3113342Y22566925D01*
X2732390Y1999524D02*
X2694295Y1923334D01*
X2694295Y1923334D02*
X2694295Y1809048D01*
X2694295Y1809048D02*
X2732390Y1694762D01*
X2732390Y1694762D02*
X2808580Y1618572D01*
X2808580Y1618572D02*
X2884771Y1580477D01*
X2884771Y1580477D02*
X3037152Y1542381D01*
X3037152Y1542381D02*
X3151438Y1542381D01*
X3151438Y1542381D02*
X3303819Y1580477D01*
X3303819Y1580477D02*
X3380009Y1618572D01*
X3380009Y1618572D02*
X3456200Y1694762D01*
X3456200Y1694762D02*
X3494295Y1809048D01*
X3494295Y1809048D02*
X3494295Y1885239D01*
X3494295Y1885239D02*
X3456200Y1999524D01*
X3456200Y1999524D02*
X3418104Y2037620D01*
X3418104Y2037620D02*
X3151438Y2037620D01*
X3151438Y2037620D02*
X3151438Y1885239D01*
X3456200Y6350067D02*
X3494295Y6464353D01*
X3494295Y6464353D02*
X3494295Y6654829D01*
X3494295Y6654829D02*
X3456200Y6731020D01*
X3456200Y6731020D02*
X3418104Y6769115D01*
X3418104Y6769115D02*
X3341914Y6807210D01*
X3341914Y6807210D02*
X3265723Y6807210D01*
X3265723Y6807210D02*
X3189533Y6769115D01*
X3189533Y6769115D02*
X3151438Y6731020D01*
X3151438Y6731020D02*
X3113342Y6654829D01*
X3113342Y6654829D02*
X3075247Y6502448D01*
X3075247Y6502448D02*
X3037152Y6426258D01*
X3037152Y6426258D02*
X2999057Y6388163D01*
X2999057Y6388163D02*
X2922866Y6350067D01*
X2922866Y6350067D02*
X2846676Y6350067D01*
X2846676Y6350067D02*
X2770485Y6388163D01*
X2770485Y6388163D02*
X2732390Y6426258D01*
X2732390Y6426258D02*
X2694295Y6502448D01*
X2694295Y6502448D02*
X2694295Y6692925D01*
X2694295Y6692925D02*
X2732390Y6807210D01*
X2694295Y7035782D02*
X2694295Y7492925D01*
X3494295Y7264353D02*
X2694295Y7264353D01*
X8646857Y11939600D02*
X8265904Y11939600D01*
X9065904Y12206267D02*
X8646857Y11939600D01*
X8646857Y11939600D02*
X9065904Y11672934D01*
X3456200Y3791019D02*
X3494295Y3905305D01*
X3494295Y3905305D02*
X3494295Y4095781D01*
X3494295Y4095781D02*
X3456200Y4171972D01*
X3456200Y4171972D02*
X3418104Y4210067D01*
X3418104Y4210067D02*
X3341914Y4248162D01*
X3341914Y4248162D02*
X3265723Y4248162D01*
X3265723Y4248162D02*
X3189533Y4210067D01*
X3189533Y4210067D02*
X3151438Y4171972D01*
X3151438Y4171972D02*
X3113342Y4095781D01*
X3113342Y4095781D02*
X3075247Y3943400D01*
X3075247Y3943400D02*
X3037152Y3867210D01*
X3037152Y3867210D02*
X2999057Y3829115D01*
X2999057Y3829115D02*
X2922866Y3791019D01*
X2922866Y3791019D02*
X2846676Y3791019D01*
X2846676Y3791019D02*
X2770485Y3829115D01*
X2770485Y3829115D02*
X2732390Y3867210D01*
X2732390Y3867210D02*
X2694295Y3943400D01*
X2694295Y3943400D02*
X2694295Y4133877D01*
X2694295Y4133877D02*
X2732390Y4248162D01*
X3494295Y4971972D02*
X3494295Y4591020D01*
X3494295Y4591020D02*
X2694295Y4591020D01*
X9027809Y9205477D02*
X9065904Y9281667D01*
X9065904Y9281667D02*
X9065904Y9395953D01*
X9065904Y9395953D02*
X9027809Y9510239D01*
X9027809Y9510239D02*
X8951619Y9586429D01*
X8951619Y9586429D02*
X8875428Y9624524D01*
X8875428Y9624524D02*
X8723047Y9662620D01*
X8723047Y9662620D02*
X8608761Y9662620D01*
X8608761Y9662620D02*
X8456380Y9624524D01*
X8456380Y9624524D02*
X8380190Y9586429D01*
X8380190Y9586429D02*
X8304000Y9510239D01*
X8304000Y9510239D02*
X8265904Y9395953D01*
X8265904Y9395953D02*
X8265904Y9319762D01*
X8265904Y9319762D02*
X8304000Y9205477D01*
X8304000Y9205477D02*
X8342095Y9167381D01*
X8342095Y9167381D02*
X8608761Y9167381D01*
X8608761Y9167381D02*
X8608761Y9319762D01*
X9065904Y7488172D02*
X9065904Y7031029D01*
X8265904Y7259601D02*
X9065904Y7259601D01*
X8265904Y6307219D02*
X8646857Y6573886D01*
X8265904Y6764362D02*
X9065904Y6764362D01*
X9065904Y6764362D02*
X9065904Y6459600D01*
X9065904Y6459600D02*
X9027809Y6383410D01*
X9027809Y6383410D02*
X8989714Y6345315D01*
X8989714Y6345315D02*
X8913523Y6307219D01*
X8913523Y6307219D02*
X8799238Y6307219D01*
X8799238Y6307219D02*
X8723047Y6345315D01*
X8723047Y6345315D02*
X8684952Y6383410D01*
X8684952Y6383410D02*
X8646857Y6459600D01*
X8646857Y6459600D02*
X8646857Y6764362D01*
X2706990Y19784524D02*
X2668895Y19708334D01*
X2668895Y19708334D02*
X2668895Y19594048D01*
X2668895Y19594048D02*
X2706990Y19479762D01*
X2706990Y19479762D02*
X2783180Y19403572D01*
X2783180Y19403572D02*
X2859371Y19365477D01*
X2859371Y19365477D02*
X3011752Y19327381D01*
X3011752Y19327381D02*
X3126038Y19327381D01*
X3126038Y19327381D02*
X3278419Y19365477D01*
X3278419Y19365477D02*
X3354609Y19403572D01*
X3354609Y19403572D02*
X3430800Y19479762D01*
X3430800Y19479762D02*
X3468895Y19594048D01*
X3468895Y19594048D02*
X3468895Y19670239D01*
X3468895Y19670239D02*
X3430800Y19784524D01*
X3430800Y19784524D02*
X3392704Y19822620D01*
X3392704Y19822620D02*
X3126038Y19822620D01*
X3126038Y19822620D02*
X3126038Y19670239D01*
X9040504Y22651981D02*
X9040504Y22194838D01*
X8240504Y22423410D02*
X9040504Y22423410D01*
X8240504Y21547219D02*
X8240504Y21928171D01*
X8240504Y21928171D02*
X9040504Y21928171D01*
%LPC*%
D11*
%TO.C,J9*%
X10854300Y19661200D03*
D12*
X10854300Y18411200D03*
X10854300Y17161200D03*
X10854300Y15911200D03*
X10854300Y14661200D03*
X10854300Y13411200D03*
X10854300Y12161200D03*
X10854300Y10911200D03*
X10854300Y9661200D03*
X10854300Y8411200D03*
X10854300Y7161200D03*
X10854300Y5911200D03*
X10854300Y4661200D03*
%TD*%
D11*
%TO.C,J11*%
X846700Y19661200D03*
D12*
X846700Y18411200D03*
X846700Y17161200D03*
X846700Y15911200D03*
X846700Y14661200D03*
X846700Y13411200D03*
X846700Y12161200D03*
X846700Y10911200D03*
X846700Y9661200D03*
X846700Y8411200D03*
X846700Y7161200D03*
X846700Y5911200D03*
X846700Y4661200D03*
%TD*%
D13*
%TO.C,J7*%
X4600900Y22115000D03*
D14*
X7140900Y22115000D03*
X4600900Y19575000D03*
X7140900Y19575000D03*
X4600900Y17035000D03*
X7140900Y17035000D03*
X4600900Y14495000D03*
X7140900Y14495000D03*
X4600900Y11955000D03*
X7140900Y11955000D03*
X4600900Y9415000D03*
X7140900Y9415000D03*
X4600900Y6875000D03*
X7140900Y6875000D03*
X4600900Y4335000D03*
X7140900Y4335000D03*
X4600900Y1795000D03*
X7140900Y1795000D03*
%TD*%
M02*
