%TF.GenerationSoftware,KiCad,Pcbnew,7.0.1*%
%TF.CreationDate,2023-03-28T23:33:38+09:00*%
%TF.ProjectId,joystick_gpio_input_2p_rasp_part,6a6f7973-7469-4636-9b5f-6770696f5f69,2*%
%TF.SameCoordinates,PX883b640PY6b1d950*%
%TF.FileFunction,Copper,L1,Top*%
%TF.FilePolarity,Positive*%
%FSLAX46Y46*%
G04 Gerber Fmt 4.6, Leading zero omitted, Abs format (unit mm)*
G04 Created by KiCad (PCBNEW 7.0.1) date 2023-03-28 23:33:38*
%MOMM*%
%LPD*%
G01*
G04 APERTURE LIST*
G04 Aperture macros list*
%AMRoundRect*
0 Rectangle with rounded corners*
0 $1 Rounding radius*
0 $2 $3 $4 $5 $6 $7 $8 $9 X,Y pos of 4 corners*
0 Add a 4 corners polygon primitive as box body*
4,1,4,$2,$3,$4,$5,$6,$7,$8,$9,$2,$3,0*
0 Add four circle primitives for the rounded corners*
1,1,$1+$1,$2,$3*
1,1,$1+$1,$4,$5*
1,1,$1+$1,$6,$7*
1,1,$1+$1,$8,$9*
0 Add four rect primitives between the rounded corners*
20,1,$1+$1,$2,$3,$4,$5,0*
20,1,$1+$1,$4,$5,$6,$7,0*
20,1,$1+$1,$6,$7,$8,$9,0*
20,1,$1+$1,$8,$9,$2,$3,0*%
G04 Aperture macros list end*
%TA.AperFunction,ComponentPad*%
%ADD10RoundRect,0.200000X-0.450000X0.200000X-0.450000X-0.200000X0.450000X-0.200000X0.450000X0.200000X0*%
%TD*%
%TA.AperFunction,ComponentPad*%
%ADD11O,1.300000X0.800000*%
%TD*%
%TA.AperFunction,ComponentPad*%
%ADD12R,1.700000X1.700000*%
%TD*%
%TA.AperFunction,ComponentPad*%
%ADD13O,1.700000X1.700000*%
%TD*%
%TA.AperFunction,ViaPad*%
%ADD14C,0.800000*%
%TD*%
%TA.AperFunction,Conductor*%
%ADD15C,0.250000*%
%TD*%
G04 APERTURE END LIST*
D10*
%TO.P,J9,1,Pin_1*%
%TO.N,/2P_UP*%
X10854300Y19661200D03*
D11*
%TO.P,J9,2,Pin_2*%
%TO.N,/2P_TL*%
X10854300Y18411200D03*
%TO.P,J9,3,Pin_3*%
%TO.N,/2P_X*%
X10854300Y17161200D03*
%TO.P,J9,4,Pin_4*%
%TO.N,/2P_DOWN*%
X10854300Y15911200D03*
%TO.P,J9,5,Pin_5*%
%TO.N,/2P_Y*%
X10854300Y14661200D03*
%TO.P,J9,6,Pin_6*%
%TO.N,/2P_LEFT*%
X10854300Y13411200D03*
%TO.P,J9,7,Pin_7*%
%TO.N,/2P_RIGHT*%
X10854300Y12161200D03*
%TO.P,J9,8,Pin_8*%
%TO.N,/2P_TR*%
X10854300Y10911200D03*
%TO.P,J9,9,Pin_9*%
%TO.N,/2P_B*%
X10854300Y9661200D03*
%TO.P,J9,10,Pin_10*%
%TO.N,/2P_START*%
X10854300Y8411200D03*
%TO.P,J9,11,Pin_11*%
%TO.N,/2P_SELECT*%
X10854300Y7161200D03*
%TO.P,J9,12,Pin_12*%
%TO.N,/2P_A*%
X10854300Y5911200D03*
%TO.P,J9,13,Pin_13*%
%TO.N,/2P_GND*%
X10854300Y4661200D03*
%TD*%
D10*
%TO.P,J11,1,Pin_1*%
%TO.N,/2P_UP*%
X846700Y19661200D03*
D11*
%TO.P,J11,2,Pin_2*%
%TO.N,/2P_TL*%
X846700Y18411200D03*
%TO.P,J11,3,Pin_3*%
%TO.N,/2P_X*%
X846700Y17161200D03*
%TO.P,J11,4,Pin_4*%
%TO.N,/2P_DOWN*%
X846700Y15911200D03*
%TO.P,J11,5,Pin_5*%
%TO.N,/2P_Y*%
X846700Y14661200D03*
%TO.P,J11,6,Pin_6*%
%TO.N,/2P_LEFT*%
X846700Y13411200D03*
%TO.P,J11,7,Pin_7*%
%TO.N,/2P_RIGHT*%
X846700Y12161200D03*
%TO.P,J11,8,Pin_8*%
%TO.N,/2P_TR*%
X846700Y10911200D03*
%TO.P,J11,9,Pin_9*%
%TO.N,/2P_B*%
X846700Y9661200D03*
%TO.P,J11,10,Pin_10*%
%TO.N,/2P_START*%
X846700Y8411200D03*
%TO.P,J11,11,Pin_11*%
%TO.N,/2P_SELECT*%
X846700Y7161200D03*
%TO.P,J11,12,Pin_12*%
%TO.N,/2P_A*%
X846700Y5911200D03*
%TO.P,J11,13,Pin_13*%
%TO.N,/2P_GND*%
X846700Y4661200D03*
%TD*%
D12*
%TO.P,J7,1,Pin_1*%
%TO.N,/2P_UP*%
X4600900Y22115000D03*
D13*
%TO.P,J7,2,Pin_2*%
%TO.N,/2P_TL*%
X7140900Y22115000D03*
%TO.P,J7,3,Pin_3*%
%TO.N,/2P_GND*%
X4600900Y19575000D03*
%TO.P,J7,4,Pin_4*%
%TO.N,/2P_X*%
X7140900Y19575000D03*
%TO.P,J7,5,Pin_5*%
%TO.N,unconnected-(J7-Pin_5-Pad5)*%
X4600900Y17035000D03*
%TO.P,J7,6,Pin_6*%
%TO.N,unconnected-(J7-Pin_6-Pad6)*%
X7140900Y17035000D03*
%TO.P,J7,7,Pin_7*%
%TO.N,/2P_DOWN*%
X4600900Y14495000D03*
%TO.P,J7,8,Pin_8*%
%TO.N,/2P_GND*%
X7140900Y14495000D03*
%TO.P,J7,9,Pin_9*%
%TO.N,/2P_LEFT*%
X4600900Y11955000D03*
%TO.P,J7,10,Pin_10*%
%TO.N,/2P_Y*%
X7140900Y11955000D03*
%TO.P,J7,11,Pin_11*%
%TO.N,/2P_RIGHT*%
X4600900Y9415000D03*
%TO.P,J7,12,Pin_12*%
%TO.N,/2P_GND*%
X7140900Y9415000D03*
%TO.P,J7,13,Pin_13*%
%TO.N,/2P_START*%
X4600900Y6875000D03*
%TO.P,J7,14,Pin_14*%
%TO.N,/2P_TR*%
X7140900Y6875000D03*
%TO.P,J7,15,Pin_15*%
%TO.N,/2P_SELECT*%
X4600900Y4335000D03*
%TO.P,J7,16,Pin_16*%
%TO.N,/2P_B*%
X7140900Y4335000D03*
%TO.P,J7,17,Pin_17*%
%TO.N,/2P_GND*%
X4600900Y1795000D03*
%TO.P,J7,18,Pin_18*%
%TO.N,/2P_A*%
X7140900Y1795000D03*
%TD*%
D14*
%TO.N,/2P_START*%
X8834400Y7510000D03*
%TD*%
D15*
%TO.N,/2P_UP*%
X1394100Y19657400D02*
X3851700Y22115000D01*
X3851700Y22115000D02*
X4600900Y22115000D01*
X846700Y19657400D02*
X1394100Y19657400D01*
%TO.N,/2P_DOWN*%
X3184700Y15911200D02*
X4600900Y14495000D01*
X10854300Y15911200D02*
X10803100Y15860000D01*
X846700Y15911200D02*
X3184700Y15911200D01*
X5965900Y15860000D02*
X4600900Y14495000D01*
X10803100Y15860000D02*
X5965900Y15860000D01*
%TO.N,/2P_LEFT*%
X846700Y13411200D02*
X2743300Y13411200D01*
X7857100Y10685000D02*
X5870900Y10685000D01*
X4199500Y11955000D02*
X4600900Y11955000D01*
X2743300Y13411200D02*
X4199500Y11955000D01*
X10583300Y13411200D02*
X7857100Y10685000D01*
X10854300Y13411200D02*
X10583300Y13411200D01*
X5870900Y10685000D02*
X4600900Y11955000D01*
%TO.N,/2P_RIGHT*%
X846700Y12161200D02*
X1854700Y12161200D01*
X8619100Y9059400D02*
X7704700Y8145000D01*
X1854700Y12161200D02*
X4600900Y9415000D01*
X10323900Y12161200D02*
X8619100Y10456400D01*
X6507296Y8145000D02*
X5237296Y9415000D01*
X7704700Y8145000D02*
X6507296Y8145000D01*
X5237296Y9415000D02*
X4600900Y9415000D01*
X8619100Y10456400D02*
X8619100Y9059400D01*
X10854300Y12161200D02*
X10323900Y12161200D01*
%TO.N,/2P_START*%
X8834400Y7510000D02*
X8834400Y6736096D01*
X7703304Y5605000D02*
X6507296Y5605000D01*
X6507296Y5605000D02*
X5237296Y6875000D01*
X5237296Y6875000D02*
X4600900Y6875000D01*
X8834400Y6736096D02*
X7703304Y5605000D01*
%TO.N,/2P_SELECT*%
X4148700Y4335000D02*
X4600900Y4335000D01*
X7723704Y3014200D02*
X6206100Y3014200D01*
X846700Y7161200D02*
X1322500Y7161200D01*
X4885300Y4335000D02*
X4600900Y4335000D01*
X6206100Y3014200D02*
X4885300Y4335000D01*
X8796900Y5401800D02*
X8796900Y4087396D01*
X1322500Y7161200D02*
X4148700Y4335000D01*
X10854300Y7161200D02*
X10556300Y7161200D01*
X10556300Y7161200D02*
X8796900Y5401800D01*
X8796900Y4087396D02*
X7723704Y3014200D01*
%TO.N,/2P_A*%
X6688700Y1795000D02*
X7140900Y1795000D01*
X10854300Y5911200D02*
X10373100Y5911200D01*
X9304900Y4843000D02*
X9304900Y3928600D01*
X10373100Y5911200D02*
X9304900Y4843000D01*
X3996300Y3039600D02*
X5444100Y3039600D01*
X9304900Y3928600D02*
X7171300Y1795000D01*
X5444100Y3039600D02*
X6688700Y1795000D01*
X1124700Y5911200D02*
X3996300Y3039600D01*
X846700Y5911200D02*
X1124700Y5911200D01*
X7171300Y1795000D02*
X7140900Y1795000D01*
%TO.N,/2P_B*%
X2980300Y6697200D02*
X4072500Y5605000D01*
X4072500Y5605000D02*
X5870900Y5605000D01*
X9685900Y9059400D02*
X9685900Y6951200D01*
X2980300Y7552905D02*
X2980300Y6697200D01*
X10287700Y9661200D02*
X9685900Y9059400D01*
X10854300Y9661200D02*
X10287700Y9661200D01*
X872005Y9661200D02*
X2980300Y7552905D01*
X9685900Y6951200D02*
X7140900Y4406200D01*
X5870900Y5605000D02*
X7140900Y4335000D01*
X7140900Y4406200D02*
X7140900Y4335000D01*
X846700Y9661200D02*
X872005Y9661200D01*
%TO.N,/2P_X*%
X2344500Y17161200D02*
X3488300Y18305000D01*
X5870900Y18305000D02*
X7140900Y19575000D01*
X9554700Y17161200D02*
X7140900Y19575000D01*
X846700Y17161200D02*
X2344500Y17161200D01*
X10854300Y17161200D02*
X9554700Y17161200D01*
X3488300Y18305000D02*
X5870900Y18305000D01*
%TO.N,/2P_Y*%
X7679300Y11955000D02*
X7140900Y11955000D01*
X10385500Y14661200D02*
X7679300Y11955000D01*
X2331500Y14661200D02*
X3767700Y13225000D01*
X5870900Y13225000D02*
X7140900Y11955000D01*
X10854300Y14661200D02*
X10385500Y14661200D01*
X846700Y14661200D02*
X2331500Y14661200D01*
X3767700Y13225000D02*
X5870900Y13225000D01*
%TO.N,/2P_TL*%
X10275500Y18411200D02*
X7140900Y21545800D01*
X3767700Y20837200D02*
X5863100Y20837200D01*
X846700Y18407400D02*
X1337900Y18407400D01*
X7140900Y21545800D02*
X7140900Y22115000D01*
X5863100Y20837200D02*
X7140900Y22115000D01*
X1337900Y18407400D02*
X3767700Y20837200D01*
X10854300Y18411200D02*
X10275500Y18411200D01*
%TO.N,/2P_TR*%
X846700Y10911200D02*
X872005Y10911200D01*
X3638205Y8145000D02*
X5444100Y8145000D01*
X10318500Y10911200D02*
X9069100Y9661800D01*
X872005Y10911200D02*
X3638205Y8145000D01*
X10854300Y10911200D02*
X10318500Y10911200D01*
X5444100Y8145000D02*
X6714100Y6875000D01*
X6714100Y6875000D02*
X7140900Y6875000D01*
X7140900Y6920800D02*
X7140900Y6875000D01*
X9069100Y9661800D02*
X9069100Y8849000D01*
X9069100Y8849000D02*
X7140900Y6920800D01*
%TD*%
M02*
