%TF.GenerationSoftware,KiCad,Pcbnew,7.0.1*%
%TF.CreationDate,2023-04-02T14:36:04+09:00*%
%TF.ProjectId,joystick_gpio_input_2p_rasp_part,6a6f7973-7469-4636-9b5f-6770696f5f69,2*%
%TF.SameCoordinates,PX883b640PY6b1d950*%
%TF.FileFunction,Legend,Bot*%
%TF.FilePolarity,Positive*%
%FSLAX46Y46*%
G04 Gerber Fmt 4.6, Leading zero omitted, Abs format (unit mm)*
G04 Created by KiCad (PCBNEW 7.0.1) date 2023-04-02 14:36:04*
%MOMM*%
%LPD*%
G01*
G04 APERTURE LIST*
G04 Aperture macros list*
%AMRoundRect*
0 Rectangle with rounded corners*
0 $1 Rounding radius*
0 $2 $3 $4 $5 $6 $7 $8 $9 X,Y pos of 4 corners*
0 Add a 4 corners polygon primitive as box body*
4,1,4,$2,$3,$4,$5,$6,$7,$8,$9,$2,$3,0*
0 Add four circle primitives for the rounded corners*
1,1,$1+$1,$2,$3*
1,1,$1+$1,$4,$5*
1,1,$1+$1,$6,$7*
1,1,$1+$1,$8,$9*
0 Add four rect primitives between the rounded corners*
20,1,$1+$1,$2,$3,$4,$5,0*
20,1,$1+$1,$4,$5,$6,$7,0*
20,1,$1+$1,$6,$7,$8,$9,0*
20,1,$1+$1,$8,$9,$2,$3,0*%
G04 Aperture macros list end*
%ADD10C,0.100000*%
%ADD11C,0.120000*%
%ADD12RoundRect,0.200000X-0.450000X0.200000X-0.450000X-0.200000X0.450000X-0.200000X0.450000X0.200000X0*%
%ADD13O,1.300000X0.800000*%
%ADD14R,1.700000X1.700000*%
%ADD15O,1.700000X1.700000*%
G04 APERTURE END LIST*
D10*
%TO.C,J2*%
X9863719Y5752877D02*
X9482766Y5752877D01*
X9939909Y5524305D02*
X9673242Y6324305D01*
X9673242Y6324305D02*
X9406576Y5524305D01*
X9901814Y17576505D02*
X9368480Y16776505D01*
X9368480Y17576505D02*
X9901814Y16776505D01*
X9901823Y15531905D02*
X9901823Y16331905D01*
X9901823Y16331905D02*
X9711347Y16331905D01*
X9711347Y16331905D02*
X9597061Y16293810D01*
X9597061Y16293810D02*
X9520871Y16217620D01*
X9520871Y16217620D02*
X9482776Y16141429D01*
X9482776Y16141429D02*
X9444680Y15989048D01*
X9444680Y15989048D02*
X9444680Y15874762D01*
X9444680Y15874762D02*
X9482776Y15722381D01*
X9482776Y15722381D02*
X9520871Y15646191D01*
X9520871Y15646191D02*
X9597061Y15570000D01*
X9597061Y15570000D02*
X9711347Y15531905D01*
X9711347Y15531905D02*
X9901823Y15531905D01*
X9101823Y15531905D02*
X9101823Y16331905D01*
X9101823Y16331905D02*
X8644680Y15531905D01*
X8644680Y15531905D02*
X8644680Y16331905D01*
X9863719Y8077000D02*
X9749433Y8038905D01*
X9749433Y8038905D02*
X9558957Y8038905D01*
X9558957Y8038905D02*
X9482766Y8077000D01*
X9482766Y8077000D02*
X9444671Y8115096D01*
X9444671Y8115096D02*
X9406576Y8191286D01*
X9406576Y8191286D02*
X9406576Y8267477D01*
X9406576Y8267477D02*
X9444671Y8343667D01*
X9444671Y8343667D02*
X9482766Y8381762D01*
X9482766Y8381762D02*
X9558957Y8419858D01*
X9558957Y8419858D02*
X9711338Y8457953D01*
X9711338Y8457953D02*
X9787528Y8496048D01*
X9787528Y8496048D02*
X9825623Y8534143D01*
X9825623Y8534143D02*
X9863719Y8610334D01*
X9863719Y8610334D02*
X9863719Y8686524D01*
X9863719Y8686524D02*
X9825623Y8762715D01*
X9825623Y8762715D02*
X9787528Y8800810D01*
X9787528Y8800810D02*
X9711338Y8838905D01*
X9711338Y8838905D02*
X9520861Y8838905D01*
X9520861Y8838905D02*
X9406576Y8800810D01*
X9178004Y8838905D02*
X8720861Y8838905D01*
X8949433Y8038905D02*
X8949433Y8838905D01*
X9406576Y5041610D02*
X9482766Y5079705D01*
X9482766Y5079705D02*
X9597052Y5079705D01*
X9597052Y5079705D02*
X9711338Y5041610D01*
X9711338Y5041610D02*
X9787528Y4965420D01*
X9787528Y4965420D02*
X9825623Y4889229D01*
X9825623Y4889229D02*
X9863719Y4736848D01*
X9863719Y4736848D02*
X9863719Y4622562D01*
X9863719Y4622562D02*
X9825623Y4470181D01*
X9825623Y4470181D02*
X9787528Y4393991D01*
X9787528Y4393991D02*
X9711338Y4317800D01*
X9711338Y4317800D02*
X9597052Y4279705D01*
X9597052Y4279705D02*
X9520861Y4279705D01*
X9520861Y4279705D02*
X9406576Y4317800D01*
X9406576Y4317800D02*
X9368480Y4355896D01*
X9368480Y4355896D02*
X9368480Y4622562D01*
X9368480Y4622562D02*
X9520861Y4622562D01*
X9863719Y6807000D02*
X9749433Y6768905D01*
X9749433Y6768905D02*
X9558957Y6768905D01*
X9558957Y6768905D02*
X9482766Y6807000D01*
X9482766Y6807000D02*
X9444671Y6845096D01*
X9444671Y6845096D02*
X9406576Y6921286D01*
X9406576Y6921286D02*
X9406576Y6997477D01*
X9406576Y6997477D02*
X9444671Y7073667D01*
X9444671Y7073667D02*
X9482766Y7111762D01*
X9482766Y7111762D02*
X9558957Y7149858D01*
X9558957Y7149858D02*
X9711338Y7187953D01*
X9711338Y7187953D02*
X9787528Y7226048D01*
X9787528Y7226048D02*
X9825623Y7264143D01*
X9825623Y7264143D02*
X9863719Y7340334D01*
X9863719Y7340334D02*
X9863719Y7416524D01*
X9863719Y7416524D02*
X9825623Y7492715D01*
X9825623Y7492715D02*
X9787528Y7530810D01*
X9787528Y7530810D02*
X9711338Y7568905D01*
X9711338Y7568905D02*
X9520861Y7568905D01*
X9520861Y7568905D02*
X9406576Y7530810D01*
X8682766Y6768905D02*
X9063718Y6768905D01*
X9063718Y6768905D02*
X9063718Y7568905D01*
X9673242Y14668258D02*
X9673242Y14287305D01*
X9939909Y15087305D02*
X9673242Y14668258D01*
X9673242Y14668258D02*
X9406576Y15087305D01*
X9444671Y13017305D02*
X9825623Y13017305D01*
X9825623Y13017305D02*
X9825623Y13817305D01*
X9901823Y20091105D02*
X9901823Y19443486D01*
X9901823Y19443486D02*
X9863728Y19367296D01*
X9863728Y19367296D02*
X9825633Y19329200D01*
X9825633Y19329200D02*
X9749442Y19291105D01*
X9749442Y19291105D02*
X9597061Y19291105D01*
X9597061Y19291105D02*
X9520871Y19329200D01*
X9520871Y19329200D02*
X9482776Y19367296D01*
X9482776Y19367296D02*
X9444680Y19443486D01*
X9444680Y19443486D02*
X9444680Y20091105D01*
X9063728Y19291105D02*
X9063728Y20091105D01*
X9063728Y20091105D02*
X8758966Y20091105D01*
X8758966Y20091105D02*
X8682776Y20053010D01*
X8682776Y20053010D02*
X8644681Y20014915D01*
X8644681Y20014915D02*
X8606585Y19938724D01*
X8606585Y19938724D02*
X8606585Y19824439D01*
X8606585Y19824439D02*
X8644681Y19748248D01*
X8644681Y19748248D02*
X8682776Y19710153D01*
X8682776Y19710153D02*
X8758966Y19672058D01*
X8758966Y19672058D02*
X9063728Y19672058D01*
X9939909Y11328105D02*
X9482766Y11328105D01*
X9711338Y10528105D02*
X9711338Y11328105D01*
X8758956Y10528105D02*
X9025623Y10909058D01*
X9216099Y10528105D02*
X9216099Y11328105D01*
X9216099Y11328105D02*
X8911337Y11328105D01*
X8911337Y11328105D02*
X8835147Y11290010D01*
X8835147Y11290010D02*
X8797052Y11251915D01*
X8797052Y11251915D02*
X8758956Y11175724D01*
X8758956Y11175724D02*
X8758956Y11061439D01*
X8758956Y11061439D02*
X8797052Y10985248D01*
X8797052Y10985248D02*
X8835147Y10947153D01*
X8835147Y10947153D02*
X8911337Y10909058D01*
X8911337Y10909058D02*
X9216099Y10909058D01*
X9939909Y18846505D02*
X9482766Y18846505D01*
X9711338Y18046505D02*
X9711338Y18846505D01*
X8835147Y18046505D02*
X9216099Y18046505D01*
X9216099Y18046505D02*
X9216099Y18846505D01*
X9368480Y11772705D02*
X9635147Y12153658D01*
X9825623Y11772705D02*
X9825623Y12572705D01*
X9825623Y12572705D02*
X9520861Y12572705D01*
X9520861Y12572705D02*
X9444671Y12534610D01*
X9444671Y12534610D02*
X9406576Y12496515D01*
X9406576Y12496515D02*
X9368480Y12420324D01*
X9368480Y12420324D02*
X9368480Y12306039D01*
X9368480Y12306039D02*
X9406576Y12229848D01*
X9406576Y12229848D02*
X9444671Y12191753D01*
X9444671Y12191753D02*
X9520861Y12153658D01*
X9520861Y12153658D02*
X9825623Y12153658D01*
X9558957Y9702553D02*
X9444671Y9664458D01*
X9444671Y9664458D02*
X9406576Y9626362D01*
X9406576Y9626362D02*
X9368480Y9550172D01*
X9368480Y9550172D02*
X9368480Y9435886D01*
X9368480Y9435886D02*
X9406576Y9359696D01*
X9406576Y9359696D02*
X9444671Y9321600D01*
X9444671Y9321600D02*
X9520861Y9283505D01*
X9520861Y9283505D02*
X9825623Y9283505D01*
X9825623Y9283505D02*
X9825623Y10083505D01*
X9825623Y10083505D02*
X9558957Y10083505D01*
X9558957Y10083505D02*
X9482766Y10045410D01*
X9482766Y10045410D02*
X9444671Y10007315D01*
X9444671Y10007315D02*
X9406576Y9931124D01*
X9406576Y9931124D02*
X9406576Y9854934D01*
X9406576Y9854934D02*
X9444671Y9778743D01*
X9444671Y9778743D02*
X9482766Y9740648D01*
X9482766Y9740648D02*
X9558957Y9702553D01*
X9558957Y9702553D02*
X9825623Y9702553D01*
%TO.C,J3*%
X1849976Y5041610D02*
X1926166Y5079705D01*
X1926166Y5079705D02*
X2040452Y5079705D01*
X2040452Y5079705D02*
X2154738Y5041610D01*
X2154738Y5041610D02*
X2230928Y4965420D01*
X2230928Y4965420D02*
X2269023Y4889229D01*
X2269023Y4889229D02*
X2307119Y4736848D01*
X2307119Y4736848D02*
X2307119Y4622562D01*
X2307119Y4622562D02*
X2269023Y4470181D01*
X2269023Y4470181D02*
X2230928Y4393991D01*
X2230928Y4393991D02*
X2154738Y4317800D01*
X2154738Y4317800D02*
X2040452Y4279705D01*
X2040452Y4279705D02*
X1964261Y4279705D01*
X1964261Y4279705D02*
X1849976Y4317800D01*
X1849976Y4317800D02*
X1811880Y4355896D01*
X1811880Y4355896D02*
X1811880Y4622562D01*
X1811880Y4622562D02*
X1964261Y4622562D01*
X1811880Y11772705D02*
X2078547Y12153658D01*
X2269023Y11772705D02*
X2269023Y12572705D01*
X2269023Y12572705D02*
X1964261Y12572705D01*
X1964261Y12572705D02*
X1888071Y12534610D01*
X1888071Y12534610D02*
X1849976Y12496515D01*
X1849976Y12496515D02*
X1811880Y12420324D01*
X1811880Y12420324D02*
X1811880Y12306039D01*
X1811880Y12306039D02*
X1849976Y12229848D01*
X1849976Y12229848D02*
X1888071Y12191753D01*
X1888071Y12191753D02*
X1964261Y12153658D01*
X1964261Y12153658D02*
X2269023Y12153658D01*
X2992833Y11328105D02*
X2535690Y11328105D01*
X2764262Y10528105D02*
X2764262Y11328105D01*
X1811880Y10528105D02*
X2078547Y10909058D01*
X2269023Y10528105D02*
X2269023Y11328105D01*
X2269023Y11328105D02*
X1964261Y11328105D01*
X1964261Y11328105D02*
X1888071Y11290010D01*
X1888071Y11290010D02*
X1849976Y11251915D01*
X1849976Y11251915D02*
X1811880Y11175724D01*
X1811880Y11175724D02*
X1811880Y11061439D01*
X1811880Y11061439D02*
X1849976Y10985248D01*
X1849976Y10985248D02*
X1888071Y10947153D01*
X1888071Y10947153D02*
X1964261Y10909058D01*
X1964261Y10909058D02*
X2269023Y10909058D01*
X2002356Y14668258D02*
X2002356Y14287305D01*
X2269023Y15087305D02*
X2002356Y14668258D01*
X2002356Y14668258D02*
X1735690Y15087305D01*
X1735690Y13017305D02*
X2116642Y13017305D01*
X2116642Y13017305D02*
X2116642Y13817305D01*
X2916643Y6807000D02*
X2802357Y6768905D01*
X2802357Y6768905D02*
X2611881Y6768905D01*
X2611881Y6768905D02*
X2535690Y6807000D01*
X2535690Y6807000D02*
X2497595Y6845096D01*
X2497595Y6845096D02*
X2459500Y6921286D01*
X2459500Y6921286D02*
X2459500Y6997477D01*
X2459500Y6997477D02*
X2497595Y7073667D01*
X2497595Y7073667D02*
X2535690Y7111762D01*
X2535690Y7111762D02*
X2611881Y7149858D01*
X2611881Y7149858D02*
X2764262Y7187953D01*
X2764262Y7187953D02*
X2840452Y7226048D01*
X2840452Y7226048D02*
X2878547Y7264143D01*
X2878547Y7264143D02*
X2916643Y7340334D01*
X2916643Y7340334D02*
X2916643Y7416524D01*
X2916643Y7416524D02*
X2878547Y7492715D01*
X2878547Y7492715D02*
X2840452Y7530810D01*
X2840452Y7530810D02*
X2764262Y7568905D01*
X2764262Y7568905D02*
X2573785Y7568905D01*
X2573785Y7568905D02*
X2459500Y7530810D01*
X1735690Y6768905D02*
X2116642Y6768905D01*
X2116642Y6768905D02*
X2116642Y7568905D01*
X2002357Y9702553D02*
X1888071Y9664458D01*
X1888071Y9664458D02*
X1849976Y9626362D01*
X1849976Y9626362D02*
X1811880Y9550172D01*
X1811880Y9550172D02*
X1811880Y9435886D01*
X1811880Y9435886D02*
X1849976Y9359696D01*
X1849976Y9359696D02*
X1888071Y9321600D01*
X1888071Y9321600D02*
X1964261Y9283505D01*
X1964261Y9283505D02*
X2269023Y9283505D01*
X2269023Y9283505D02*
X2269023Y10083505D01*
X2269023Y10083505D02*
X2002357Y10083505D01*
X2002357Y10083505D02*
X1926166Y10045410D01*
X1926166Y10045410D02*
X1888071Y10007315D01*
X1888071Y10007315D02*
X1849976Y9931124D01*
X1849976Y9931124D02*
X1849976Y9854934D01*
X1849976Y9854934D02*
X1888071Y9778743D01*
X1888071Y9778743D02*
X1926166Y9740648D01*
X1926166Y9740648D02*
X2002357Y9702553D01*
X2002357Y9702553D02*
X2269023Y9702553D01*
X2840452Y18846505D02*
X2383309Y18846505D01*
X2611881Y18046505D02*
X2611881Y18846505D01*
X1735690Y18046505D02*
X2116642Y18046505D01*
X2116642Y18046505D02*
X2116642Y18846505D01*
X2192833Y5752877D02*
X1811880Y5752877D01*
X2269023Y5524305D02*
X2002356Y6324305D01*
X2002356Y6324305D02*
X1735690Y5524305D01*
X2878548Y8077000D02*
X2764262Y8038905D01*
X2764262Y8038905D02*
X2573786Y8038905D01*
X2573786Y8038905D02*
X2497595Y8077000D01*
X2497595Y8077000D02*
X2459500Y8115096D01*
X2459500Y8115096D02*
X2421405Y8191286D01*
X2421405Y8191286D02*
X2421405Y8267477D01*
X2421405Y8267477D02*
X2459500Y8343667D01*
X2459500Y8343667D02*
X2497595Y8381762D01*
X2497595Y8381762D02*
X2573786Y8419858D01*
X2573786Y8419858D02*
X2726167Y8457953D01*
X2726167Y8457953D02*
X2802357Y8496048D01*
X2802357Y8496048D02*
X2840452Y8534143D01*
X2840452Y8534143D02*
X2878548Y8610334D01*
X2878548Y8610334D02*
X2878548Y8686524D01*
X2878548Y8686524D02*
X2840452Y8762715D01*
X2840452Y8762715D02*
X2802357Y8800810D01*
X2802357Y8800810D02*
X2726167Y8838905D01*
X2726167Y8838905D02*
X2535690Y8838905D01*
X2535690Y8838905D02*
X2421405Y8800810D01*
X2192833Y8838905D02*
X1735690Y8838905D01*
X1964262Y8038905D02*
X1964262Y8838905D01*
X3107118Y15531905D02*
X3107118Y16331905D01*
X3107118Y16331905D02*
X2916642Y16331905D01*
X2916642Y16331905D02*
X2802356Y16293810D01*
X2802356Y16293810D02*
X2726166Y16217620D01*
X2726166Y16217620D02*
X2688071Y16141429D01*
X2688071Y16141429D02*
X2649975Y15989048D01*
X2649975Y15989048D02*
X2649975Y15874762D01*
X2649975Y15874762D02*
X2688071Y15722381D01*
X2688071Y15722381D02*
X2726166Y15646191D01*
X2726166Y15646191D02*
X2802356Y15570000D01*
X2802356Y15570000D02*
X2916642Y15531905D01*
X2916642Y15531905D02*
X3107118Y15531905D01*
X2307118Y15531905D02*
X2307118Y16331905D01*
X2307118Y16331905D02*
X1849975Y15531905D01*
X1849975Y15531905D02*
X1849975Y16331905D01*
X2307119Y17576505D02*
X1773785Y16776505D01*
X1773785Y17576505D02*
X2307119Y16776505D01*
X3107118Y20091105D02*
X3107118Y19443486D01*
X3107118Y19443486D02*
X3069023Y19367296D01*
X3069023Y19367296D02*
X3030928Y19329200D01*
X3030928Y19329200D02*
X2954737Y19291105D01*
X2954737Y19291105D02*
X2802356Y19291105D01*
X2802356Y19291105D02*
X2726166Y19329200D01*
X2726166Y19329200D02*
X2688071Y19367296D01*
X2688071Y19367296D02*
X2649975Y19443486D01*
X2649975Y19443486D02*
X2649975Y20091105D01*
X2269023Y19291105D02*
X2269023Y20091105D01*
X2269023Y20091105D02*
X1964261Y20091105D01*
X1964261Y20091105D02*
X1888071Y20053010D01*
X1888071Y20053010D02*
X1849976Y20014915D01*
X1849976Y20014915D02*
X1811880Y19938724D01*
X1811880Y19938724D02*
X1811880Y19824439D01*
X1811880Y19824439D02*
X1849976Y19748248D01*
X1849976Y19748248D02*
X1888071Y19710153D01*
X1888071Y19710153D02*
X1964261Y19672058D01*
X1964261Y19672058D02*
X2269023Y19672058D01*
D11*
%TO.C,J2*%
X11616300Y20169200D02*
X10092300Y20169200D01*
X10092300Y20169200D02*
X10092300Y4167200D01*
X11616300Y4167200D02*
X11616300Y20169200D01*
X11616300Y4167200D02*
X10092300Y4167200D01*
%TO.C,J3*%
X1608700Y20169200D02*
X84700Y20169200D01*
X84700Y20169200D02*
X84700Y4167200D01*
X1608700Y4167200D02*
X1608700Y20169200D01*
X1608700Y4167200D02*
X84700Y4167200D01*
%TO.C,J1*%
X8470900Y465000D02*
X3270900Y465000D01*
X8470900Y23445000D02*
X8470900Y465000D01*
X8470900Y23445000D02*
X5870900Y23445000D01*
X5870900Y20845000D02*
X3270900Y20845000D01*
X5870900Y23445000D02*
X5870900Y20845000D01*
X4600900Y23445000D02*
X3270900Y23445000D01*
X3270900Y20845000D02*
X3270900Y465000D01*
X3270900Y23445000D02*
X3270900Y22115000D01*
%TD*%
%LPC*%
D12*
%TO.C,J2*%
X10854300Y19661200D03*
D13*
X10854300Y18411200D03*
X10854300Y17161200D03*
X10854300Y15911200D03*
X10854300Y14661200D03*
X10854300Y13411200D03*
X10854300Y12161200D03*
X10854300Y10911200D03*
X10854300Y9661200D03*
X10854300Y8411200D03*
X10854300Y7161200D03*
X10854300Y5911200D03*
X10854300Y4661200D03*
%TD*%
D12*
%TO.C,J3*%
X846700Y19661200D03*
D13*
X846700Y18411200D03*
X846700Y17161200D03*
X846700Y15911200D03*
X846700Y14661200D03*
X846700Y13411200D03*
X846700Y12161200D03*
X846700Y10911200D03*
X846700Y9661200D03*
X846700Y8411200D03*
X846700Y7161200D03*
X846700Y5911200D03*
X846700Y4661200D03*
%TD*%
D14*
%TO.C,J1*%
X4600900Y22115000D03*
D15*
X7140900Y22115000D03*
X4600900Y19575000D03*
X7140900Y19575000D03*
X4600900Y17035000D03*
X7140900Y17035000D03*
X4600900Y14495000D03*
X7140900Y14495000D03*
X4600900Y11955000D03*
X7140900Y11955000D03*
X4600900Y9415000D03*
X7140900Y9415000D03*
X4600900Y6875000D03*
X7140900Y6875000D03*
X4600900Y4335000D03*
X7140900Y4335000D03*
X4600900Y1795000D03*
X7140900Y1795000D03*
%TD*%
M02*
