%TF.GenerationSoftware,KiCad,Pcbnew,7.0.1*%
%TF.CreationDate,2023-04-02T01:13:53+09:00*%
%TF.ProjectId,joystick_gpio_input_2p_rasp_part,6a6f7973-7469-4636-9b5f-6770696f5f69,2*%
%TF.SameCoordinates,PX883b640PY6b1d950*%
%TF.FileFunction,Soldermask,Bot*%
%TF.FilePolarity,Negative*%
%FSLAX46Y46*%
G04 Gerber Fmt 4.6, Leading zero omitted, Abs format (unit mm)*
G04 Created by KiCad (PCBNEW 7.0.1) date 2023-04-02 01:13:53*
%MOMM*%
%LPD*%
G01*
G04 APERTURE LIST*
G04 Aperture macros list*
%AMRoundRect*
0 Rectangle with rounded corners*
0 $1 Rounding radius*
0 $2 $3 $4 $5 $6 $7 $8 $9 X,Y pos of 4 corners*
0 Add a 4 corners polygon primitive as box body*
4,1,4,$2,$3,$4,$5,$6,$7,$8,$9,$2,$3,0*
0 Add four circle primitives for the rounded corners*
1,1,$1+$1,$2,$3*
1,1,$1+$1,$4,$5*
1,1,$1+$1,$6,$7*
1,1,$1+$1,$8,$9*
0 Add four rect primitives between the rounded corners*
20,1,$1+$1,$2,$3,$4,$5,0*
20,1,$1+$1,$4,$5,$6,$7,0*
20,1,$1+$1,$6,$7,$8,$9,0*
20,1,$1+$1,$8,$9,$2,$3,0*%
G04 Aperture macros list end*
%ADD10RoundRect,0.200000X-0.450000X0.200000X-0.450000X-0.200000X0.450000X-0.200000X0.450000X0.200000X0*%
%ADD11O,1.300000X0.800000*%
%ADD12R,1.700000X1.700000*%
%ADD13O,1.700000X1.700000*%
G04 APERTURE END LIST*
D10*
%TO.C,J9*%
X10854300Y19661200D03*
D11*
X10854300Y18411200D03*
X10854300Y17161200D03*
X10854300Y15911200D03*
X10854300Y14661200D03*
X10854300Y13411200D03*
X10854300Y12161200D03*
X10854300Y10911200D03*
X10854300Y9661200D03*
X10854300Y8411200D03*
X10854300Y7161200D03*
X10854300Y5911200D03*
X10854300Y4661200D03*
%TD*%
D10*
%TO.C,J11*%
X846700Y19661200D03*
D11*
X846700Y18411200D03*
X846700Y17161200D03*
X846700Y15911200D03*
X846700Y14661200D03*
X846700Y13411200D03*
X846700Y12161200D03*
X846700Y10911200D03*
X846700Y9661200D03*
X846700Y8411200D03*
X846700Y7161200D03*
X846700Y5911200D03*
X846700Y4661200D03*
%TD*%
D12*
%TO.C,J7*%
X4600900Y22115000D03*
D13*
X7140900Y22115000D03*
X4600900Y19575000D03*
X7140900Y19575000D03*
X4600900Y17035000D03*
X7140900Y17035000D03*
X4600900Y14495000D03*
X7140900Y14495000D03*
X4600900Y11955000D03*
X7140900Y11955000D03*
X4600900Y9415000D03*
X7140900Y9415000D03*
X4600900Y6875000D03*
X7140900Y6875000D03*
X4600900Y4335000D03*
X7140900Y4335000D03*
X4600900Y1795000D03*
X7140900Y1795000D03*
%TD*%
M02*
