%TF.GenerationSoftware,KiCad,Pcbnew,7.0.1*%
%TF.CreationDate,2023-05-21T17:20:38+09:00*%
%TF.ProjectId,joystick_74hc165_input_jst,6a6f7973-7469-4636-9b5f-373468633136,1*%
%TF.SameCoordinates,PX6f92990PY6f3bc80*%
%TF.FileFunction,Copper,L2,Bot*%
%TF.FilePolarity,Positive*%
%FSLAX46Y46*%
G04 Gerber Fmt 4.6, Leading zero omitted, Abs format (unit mm)*
G04 Created by KiCad (PCBNEW 7.0.1) date 2023-05-21 17:20:38*
%MOMM*%
%LPD*%
G01*
G04 APERTURE LIST*
G04 Aperture macros list*
%AMRoundRect*
0 Rectangle with rounded corners*
0 $1 Rounding radius*
0 $2 $3 $4 $5 $6 $7 $8 $9 X,Y pos of 4 corners*
0 Add a 4 corners polygon primitive as box body*
4,1,4,$2,$3,$4,$5,$6,$7,$8,$9,$2,$3,0*
0 Add four circle primitives for the rounded corners*
1,1,$1+$1,$2,$3*
1,1,$1+$1,$4,$5*
1,1,$1+$1,$6,$7*
1,1,$1+$1,$8,$9*
0 Add four rect primitives between the rounded corners*
20,1,$1+$1,$2,$3,$4,$5,0*
20,1,$1+$1,$4,$5,$6,$7,0*
20,1,$1+$1,$6,$7,$8,$9,0*
20,1,$1+$1,$8,$9,$2,$3,0*%
G04 Aperture macros list end*
%TA.AperFunction,ComponentPad*%
%ADD10R,1.700000X1.700000*%
%TD*%
%TA.AperFunction,ComponentPad*%
%ADD11O,1.700000X1.700000*%
%TD*%
%TA.AperFunction,ComponentPad*%
%ADD12RoundRect,0.250000X-0.750000X0.600000X-0.750000X-0.600000X0.750000X-0.600000X0.750000X0.600000X0*%
%TD*%
%TA.AperFunction,ComponentPad*%
%ADD13O,2.000000X1.700000*%
%TD*%
%TA.AperFunction,ComponentPad*%
%ADD14RoundRect,0.250000X0.600000X0.725000X-0.600000X0.725000X-0.600000X-0.725000X0.600000X-0.725000X0*%
%TD*%
%TA.AperFunction,ComponentPad*%
%ADD15O,1.700000X1.950000*%
%TD*%
%TA.AperFunction,ViaPad*%
%ADD16C,0.800000*%
%TD*%
%TA.AperFunction,Conductor*%
%ADD17C,0.250000*%
%TD*%
G04 APERTURE END LIST*
D10*
%TO.P,OUT1,1,Pin_1*%
%TO.N,VCC*%
X68199000Y15240000D03*
D11*
%TO.P,OUT1,2,Pin_2*%
%TO.N,GND*%
X68199000Y12700000D03*
%TO.P,OUT1,3,Pin_3*%
%TO.N,/LOAD*%
X68199000Y10160000D03*
%TO.P,OUT1,4,Pin_4*%
%TO.N,/CLK*%
X68199000Y7620000D03*
%TO.P,OUT1,5,Pin_5*%
%TO.N,/D_OUT*%
X68199000Y5080000D03*
%TD*%
D12*
%TO.P,J22,1,Pin_1*%
%TO.N,/C_SHORT*%
X52070000Y23876000D03*
D13*
%TO.P,J22,2,Pin_2*%
%TO.N,/C_P2_START*%
X52070000Y21376000D03*
%TD*%
D12*
%TO.P,J23,1,Pin_1*%
%TO.N,/C_SHORT*%
X45212000Y23876000D03*
D13*
%TO.P,J23,2,Pin_2*%
%TO.N,/C_P2_SELECT*%
X45212000Y21376000D03*
%TD*%
D12*
%TO.P,J24,1,Pin_1*%
%TO.N,/C_SHORT*%
X38354000Y23876000D03*
D13*
%TO.P,J24,2,Pin_2*%
%TO.N,/C_P2_A*%
X38354000Y21376000D03*
%TD*%
D12*
%TO.P,J25,1,Pin_1*%
%TO.N,/C_SHORT*%
X31496000Y23876000D03*
D13*
%TO.P,J25,2,Pin_2*%
%TO.N,/C_P2_B*%
X31496000Y21376000D03*
%TD*%
D12*
%TO.P,J26,1,Pin_1*%
%TO.N,/C_SHORT*%
X24638000Y23876000D03*
D13*
%TO.P,J26,2,Pin_2*%
%TO.N,/C_P2_X*%
X24638000Y21376000D03*
%TD*%
D12*
%TO.P,J27,1,Pin_1*%
%TO.N,/C_SHORT*%
X17780000Y23876000D03*
D13*
%TO.P,J27,2,Pin_2*%
%TO.N,/C_P2_Y*%
X17780000Y21376000D03*
%TD*%
D12*
%TO.P,J28,1,Pin_1*%
%TO.N,/C_SHORT*%
X10922000Y23876000D03*
D13*
%TO.P,J28,2,Pin_2*%
%TO.N,/C_P2_L*%
X10922000Y21376000D03*
%TD*%
D12*
%TO.P,J29,1,Pin_1*%
%TO.N,/C_SHORT*%
X4064000Y23876000D03*
D13*
%TO.P,J29,2,Pin_2*%
%TO.N,/C_P2_R*%
X4064000Y21376000D03*
%TD*%
D12*
%TO.P,J16,1,Pin_1*%
%TO.N,/C_SHORT*%
X24638000Y32512000D03*
D13*
%TO.P,J16,2,Pin_2*%
%TO.N,/C_P1_X*%
X24638000Y30012000D03*
%TD*%
D12*
%TO.P,J15,1,Pin_1*%
%TO.N,/C_SHORT*%
X31496000Y32512000D03*
D13*
%TO.P,J15,2,Pin_2*%
%TO.N,/C_P1_B*%
X31496000Y30012000D03*
%TD*%
D12*
%TO.P,J14,1,Pin_1*%
%TO.N,/C_SHORT*%
X38354000Y32512000D03*
D13*
%TO.P,J14,2,Pin_2*%
%TO.N,/C_P1_A*%
X38354000Y30012000D03*
%TD*%
D12*
%TO.P,J18,1,Pin_1*%
%TO.N,/C_SHORT*%
X10922000Y32512000D03*
D13*
%TO.P,J18,2,Pin_2*%
%TO.N,/C_P1_L*%
X10922000Y30012000D03*
%TD*%
D12*
%TO.P,J19,1,Pin_1*%
%TO.N,/C_SHORT*%
X4064000Y32512000D03*
D13*
%TO.P,J19,2,Pin_2*%
%TO.N,/C_P1_R*%
X4064000Y30012000D03*
%TD*%
D12*
%TO.P,J17,1,Pin_1*%
%TO.N,/C_SHORT*%
X17780000Y32512000D03*
D13*
%TO.P,J17,2,Pin_2*%
%TO.N,/C_P1_Y*%
X17780000Y30012000D03*
%TD*%
D12*
%TO.P,J13,1,Pin_1*%
%TO.N,/C_SHORT*%
X45212000Y32512000D03*
D13*
%TO.P,J13,2,Pin_2*%
%TO.N,/C_P1_SELECT*%
X45212000Y30012000D03*
%TD*%
D14*
%TO.P,J11,1,Pin_1*%
%TO.N,/C_P1_UP*%
X68072000Y31496000D03*
D15*
%TO.P,J11,2,Pin_2*%
%TO.N,/C_P1_DOWN*%
X65572000Y31496000D03*
%TO.P,J11,3,Pin_3*%
%TO.N,/C_P1_RIGHT*%
X63072000Y31496000D03*
%TO.P,J11,4,Pin_4*%
%TO.N,/C_P1_LEFT*%
X60572000Y31496000D03*
%TO.P,J11,5,Pin_5*%
%TO.N,/C_SHORT*%
X58072000Y31496000D03*
%TD*%
D12*
%TO.P,J12,1,Pin_1*%
%TO.N,/C_SHORT*%
X52070000Y32512000D03*
D13*
%TO.P,J12,2,Pin_2*%
%TO.N,/C_P1_START*%
X52070000Y30012000D03*
%TD*%
D14*
%TO.P,J21,1,Pin_1*%
%TO.N,/C_P2_UP*%
X68072000Y22860000D03*
D15*
%TO.P,J21,2,Pin_2*%
%TO.N,/C_P2_DOWN*%
X65572000Y22860000D03*
%TO.P,J21,3,Pin_3*%
%TO.N,/C_P2_RIGHT*%
X63072000Y22860000D03*
%TO.P,J21,4,Pin_4*%
%TO.N,/C_P2_LEFT*%
X60572000Y22860000D03*
%TO.P,J21,5,Pin_5*%
%TO.N,/C_SHORT*%
X58072000Y22860000D03*
%TD*%
D10*
%TO.P,IN1,1,Pin_1*%
%TO.N,VCC*%
X3175000Y15113000D03*
D11*
%TO.P,IN1,2,Pin_2*%
%TO.N,GND*%
X3175000Y12573000D03*
%TO.P,IN1,3,Pin_3*%
%TO.N,/LOAD*%
X3175000Y10033000D03*
%TO.P,IN1,4,Pin_4*%
%TO.N,/CLK*%
X3175000Y7493000D03*
%TO.P,IN1,5,Pin_5*%
%TO.N,/D_IN*%
X3175000Y4953000D03*
%TD*%
D16*
%TO.N,/PULL*%
X9144000Y7061200D03*
X64071494Y3492509D03*
X13945506Y2833006D03*
X29845001Y3429001D03*
X47815492Y3111510D03*
%TO.N,GND*%
X62928500Y15494000D03*
X44640500Y3492500D03*
X33782000Y12700000D03*
X14986000Y12954000D03*
X50800000Y12700000D03*
X57086500Y7747000D03*
X39052500Y11176000D03*
X38925500Y7429500D03*
X29845000Y7366000D03*
X55054500Y15367000D03*
X51943000Y12700000D03*
X52387500Y15430500D03*
X26924000Y3683000D03*
X15494000Y4191000D03*
X33083500Y3619500D03*
X63881000Y10668000D03*
X65278000Y4572000D03*
X10820400Y6908800D03*
X13970000Y12954000D03*
X30924500Y12700000D03*
X5943600Y7620000D03*
X48006000Y5651500D03*
X53721000Y15430500D03*
X20891500Y6477000D03*
X32448500Y12700000D03*
X20537010Y11176000D03*
X64389000Y15494000D03*
X62992000Y4572000D03*
%TO.N,/LOAD*%
X16065500Y12128500D03*
%TO.N,/CLK*%
X16065500Y10922000D03*
%TO.N,/C_P1_START*%
X61213980Y9508490D03*
%TO.N,/C_P1_SELECT*%
X61277500Y8318500D03*
%TO.N,/C_P1_A*%
X61277503Y7048487D03*
%TO.N,/C_P1_B*%
X61277500Y5905500D03*
%TO.N,/C_P1_UP*%
X52959000Y5715000D03*
%TO.N,/C_P1_DOWN*%
X52959000Y7048500D03*
%TO.N,/C_P1_LEFT*%
X52959000Y8255000D03*
%TO.N,/C_P1_RIGHT*%
X52959000Y9525000D03*
%TO.N,/C_P1_X*%
X34798000Y5715000D03*
%TO.N,/C_P1_Y*%
X34734506Y7048500D03*
%TO.N,/C_P1_L*%
X34802660Y8255000D03*
%TO.N,/C_P1_R*%
X34802660Y9548299D03*
%TO.N,/C_P2_START*%
X16865600Y5867400D03*
X22606000Y16897044D03*
%TO.N,/C_P2_SELECT*%
X21592280Y16908644D03*
X16827500Y7175500D03*
%TO.N,/C_P2_A*%
X20592458Y16934141D03*
X16827500Y8445500D03*
%TO.N,/C_P2_B*%
X19592898Y16964190D03*
X16789400Y9677400D03*
%TO.N,/C_P2_UP*%
X45974000Y16256000D03*
X43053000Y9652000D03*
%TO.N,/C_P2_DOWN*%
X44704000Y16319500D03*
X43053000Y8255000D03*
%TO.N,/C_P2_LEFT*%
X43370500Y16383000D03*
X43053000Y6985000D03*
%TO.N,/C_P2_RIGHT*%
X41973500Y16447033D03*
X43053000Y5715000D03*
%TO.N,/C_P2_X*%
X25018998Y9652000D03*
%TO.N,/C_P2_Y*%
X25019000Y8255000D03*
%TO.N,/C_P2_L*%
X25019000Y6985000D03*
%TO.N,/C_P2_R*%
X25019000Y5715000D03*
%TD*%
D17*
%TO.N,/PULL*%
X54610000Y1778000D02*
X47879000Y1778000D01*
X29845000Y3429000D02*
X29845001Y3429001D01*
X62356985Y1778000D02*
X64071494Y3492509D01*
X9144000Y7061200D02*
X9144000Y4191000D01*
X15000512Y1778000D02*
X13945506Y2833006D01*
X10501994Y2833006D02*
X13945506Y2833006D01*
X54610000Y1778000D02*
X15000512Y1778000D01*
X9144000Y4191000D02*
X10501994Y2833006D01*
X54610000Y1778000D02*
X62356985Y1778000D01*
X29845000Y1778000D02*
X29845000Y3429000D01*
X47815492Y1841508D02*
X47815492Y3111510D01*
X47879000Y1778000D02*
X47815492Y1841508D01*
%TO.N,/LOAD*%
X16065500Y12128500D02*
X6216502Y12128500D01*
X4121002Y10033000D02*
X3175000Y10033000D01*
X6216502Y12128500D02*
X4121002Y10033000D01*
%TO.N,/CLK*%
X3175000Y7493000D02*
X3556000Y7493000D01*
X3556000Y7493000D02*
X6985000Y10922000D01*
X6985000Y10922000D02*
X16065500Y10922000D01*
%TO.N,/C_P1_START*%
X49784000Y7816996D02*
X49784000Y27368500D01*
X61213980Y9508490D02*
X61213980Y9397980D01*
X52610997Y4989999D02*
X49784000Y7816996D01*
X52070000Y29654500D02*
X52070000Y30012000D01*
X49784000Y27368500D02*
X52070000Y29654500D01*
X56805999Y4989999D02*
X52610997Y4989999D01*
X61213980Y9397980D02*
X56805999Y4989999D01*
%TO.N,/C_P1_SELECT*%
X61277500Y8318500D02*
X57498989Y4539989D01*
X49276000Y7688586D02*
X49276000Y25336500D01*
X49276000Y25336500D02*
X45212000Y29400500D01*
X45212000Y29400500D02*
X45212000Y30012000D01*
X57498989Y4539989D02*
X52424596Y4539990D01*
X52424596Y4539990D02*
X49276000Y7688586D01*
%TO.N,/C_P1_A*%
X48768000Y24257000D02*
X48768000Y7560176D01*
X48768000Y7560176D02*
X52264176Y4064000D01*
X43013000Y30012000D02*
X48768000Y24257000D01*
X52264176Y4064000D02*
X58293016Y4064000D01*
X58293016Y4064000D02*
X61277503Y7048487D01*
X38354000Y30012000D02*
X43013000Y30012000D01*
%TO.N,/C_P1_B*%
X48260000Y23749000D02*
X48260000Y7302500D01*
X52006500Y3556000D02*
X58928000Y3556000D01*
X31496000Y30012000D02*
X31496000Y29273500D01*
X58928000Y3556000D02*
X61277500Y5905500D01*
X43624500Y28384500D02*
X48260000Y23749000D01*
X31496000Y29273500D02*
X32385000Y28384500D01*
X32385000Y28384500D02*
X43624500Y28384500D01*
X48260000Y7302500D02*
X52006500Y3556000D01*
%TO.N,/C_P1_UP*%
X66738500Y21858785D02*
X66747010Y21867295D01*
X55308500Y8064500D02*
X55308500Y10160000D01*
X52959000Y5715000D02*
X55308500Y8064500D01*
X66747010Y23471705D02*
X66738500Y23480215D01*
X66738500Y21590000D02*
X66738500Y21858785D01*
X66738500Y23480215D02*
X66738500Y30162500D01*
X55308500Y10160000D02*
X66738500Y21590000D01*
X66738500Y30162500D02*
X68072000Y31496000D01*
X66747010Y21867295D02*
X66747010Y23471705D01*
%TO.N,/C_P1_DOWN*%
X64325500Y30249500D02*
X64325500Y20129500D01*
X54483000Y10287000D02*
X54483000Y8572500D01*
X65572000Y31496000D02*
X64325500Y30249500D01*
X54483000Y8572500D02*
X52959000Y7048500D01*
X64325500Y20129500D02*
X54483000Y10287000D01*
%TO.N,/C_P1_LEFT*%
X59309000Y30233000D02*
X59309000Y17716500D01*
X60572000Y31496000D02*
X59309000Y30233000D01*
X52133500Y10541000D02*
X52133500Y9080500D01*
X59309000Y17716500D02*
X52133500Y10541000D01*
X52133500Y9080500D02*
X52959000Y8255000D01*
%TO.N,/C_P1_RIGHT*%
X61785500Y19177000D02*
X61785500Y30209500D01*
X53022500Y9588500D02*
X53022500Y10414000D01*
X61785500Y30209500D02*
X63072000Y31496000D01*
X52959000Y9525000D02*
X53022500Y9588500D01*
X53022500Y10414000D02*
X61785500Y19177000D01*
%TO.N,/C_P1_X*%
X33657822Y27813000D02*
X26225500Y27813000D01*
X24638000Y29400500D02*
X24638000Y30012000D01*
X36427683Y25043139D02*
X33657822Y27813000D01*
X26225500Y27813000D02*
X24638000Y29400500D01*
X34798000Y5715000D02*
X36427683Y7344683D01*
X36427683Y7344683D02*
X36427683Y25043139D01*
%TO.N,/C_P1_Y*%
X19754011Y27362989D02*
X17780000Y29337000D01*
X35977672Y24856739D02*
X33471422Y27362989D01*
X35977672Y8291665D02*
X35977672Y24856739D01*
X34734506Y7048500D02*
X35977672Y8291665D01*
X33471422Y27362989D02*
X19754011Y27362989D01*
X17780000Y29337000D02*
X17780000Y30012000D01*
%TO.N,/C_P1_L*%
X10922000Y30012000D02*
X10922000Y29337000D01*
X35527661Y24670339D02*
X35527661Y8980001D01*
X35527661Y8980001D02*
X35202659Y8654999D01*
X33285022Y26912978D02*
X35527661Y24670339D01*
X35202659Y8654999D02*
X34802660Y8255000D01*
X10922000Y29337000D02*
X13346022Y26912978D01*
X13346022Y26912978D02*
X33285022Y26912978D01*
%TO.N,/C_P1_R*%
X32973033Y26462967D02*
X34802660Y24633340D01*
X34802660Y24633340D02*
X34802660Y10113984D01*
X7001533Y26462967D02*
X32973033Y26462967D01*
X4064000Y30012000D02*
X4064000Y29400500D01*
X34802660Y10113984D02*
X34802660Y9548299D01*
X4064000Y29400500D02*
X7001533Y26462967D01*
%TO.N,/C_P2_START*%
X16979900Y5867400D02*
X19812000Y8699500D01*
X19812000Y14103044D02*
X22606000Y16897044D01*
X16865600Y5867400D02*
X16979900Y5867400D01*
X19812000Y8699500D02*
X19812000Y14103044D01*
%TO.N,/C_P2_SELECT*%
X16827500Y7175500D02*
X19171489Y9519489D01*
X19171489Y14487853D02*
X21592280Y16908644D01*
X19171489Y9519489D02*
X19171489Y14487853D01*
%TO.N,/C_P2_A*%
X16827500Y8445500D02*
X18721478Y10339478D01*
X18721478Y15063161D02*
X20592458Y16934141D01*
X18721478Y10339478D02*
X18721478Y15063161D01*
%TO.N,/C_P2_B*%
X18224500Y11112500D02*
X18224500Y15595792D01*
X16789400Y9677400D02*
X18224500Y11112500D01*
X18224500Y15595792D02*
X19592898Y16964190D01*
%TO.N,/C_P2_UP*%
X43053000Y9652000D02*
X43053000Y13335000D01*
X43053000Y13335000D02*
X45974000Y16256000D01*
%TO.N,/C_P2_DOWN*%
X42327999Y8980001D02*
X42327999Y13943499D01*
X42327999Y13943499D02*
X44704000Y16319500D01*
X43053000Y8255000D02*
X42327999Y8980001D01*
%TO.N,/C_P2_LEFT*%
X41877990Y14890490D02*
X43370500Y16383000D01*
X41877990Y8160010D02*
X41877990Y14890490D01*
X43053000Y6985000D02*
X41877990Y8160010D01*
%TO.N,/C_P2_RIGHT*%
X41427981Y7340019D02*
X41427981Y15901514D01*
X43053000Y5715000D02*
X41427981Y7340019D01*
X41427981Y15901514D02*
X41973500Y16447033D01*
%TO.N,/C_P2_X*%
X24701500Y9969498D02*
X25018998Y9652000D01*
X24701500Y21312500D02*
X24701500Y9969498D01*
X24638000Y21376000D02*
X24701500Y21312500D01*
%TO.N,/C_P2_Y*%
X21486500Y21376000D02*
X17780000Y21376000D01*
X25019000Y8255000D02*
X24251489Y9022511D01*
X24251489Y18611011D02*
X21486500Y21376000D01*
X24251489Y9022511D02*
X24251489Y18611011D01*
%TO.N,/C_P2_L*%
X10922000Y20276000D02*
X11330858Y19867142D01*
X11330858Y19867142D02*
X22358948Y19867142D01*
X22358948Y19867142D02*
X23801478Y18424612D01*
X24619001Y7384999D02*
X25019000Y6985000D01*
X23801478Y8202522D02*
X24619001Y7384999D01*
X23801478Y18424612D02*
X23801478Y8202522D01*
X10922000Y21376000D02*
X10922000Y20276000D01*
%TO.N,/C_P2_R*%
X23351467Y18238213D02*
X22172549Y19417131D01*
X23351467Y7382533D02*
X23351467Y18238213D01*
X4064000Y20276000D02*
X4064000Y21376000D01*
X4922869Y19417131D02*
X4064000Y20276000D01*
X22172549Y19417131D02*
X4922869Y19417131D01*
X25019000Y5715000D02*
X23351467Y7382533D01*
%TD*%
%TA.AperFunction,Conductor*%
%TO.N,GND*%
G36*
X22401803Y18278409D02*
G01*
X22442680Y18251095D01*
X22673136Y18020639D01*
X22703874Y17970480D01*
X22708490Y17911833D01*
X22685977Y17857483D01*
X22641244Y17819277D01*
X22584041Y17805544D01*
X22510513Y17805544D01*
X22323712Y17765838D01*
X22323710Y17765838D01*
X22323709Y17765837D01*
X22163414Y17694470D01*
X22112166Y17683577D01*
X22060917Y17694470D01*
X22049033Y17699761D01*
X22049032Y17699762D01*
X21874568Y17777438D01*
X21687767Y17817144D01*
X21496793Y17817144D01*
X21309992Y17777438D01*
X21309991Y17777438D01*
X21309988Y17777437D01*
X21170222Y17715210D01*
X21105804Y17705007D01*
X21062150Y17721764D01*
X21061308Y17719872D01*
X21049212Y17725258D01*
X21049210Y17725259D01*
X20874746Y17802935D01*
X20687945Y17842641D01*
X20496971Y17842641D01*
X20310170Y17802935D01*
X20310169Y17802935D01*
X20310166Y17802934D01*
X20174447Y17742509D01*
X20110029Y17732306D01*
X20062097Y17750705D01*
X20061748Y17749921D01*
X20049652Y17755307D01*
X20049650Y17755308D01*
X19875186Y17832984D01*
X19688385Y17872690D01*
X19497411Y17872690D01*
X19372877Y17846220D01*
X19310609Y17832984D01*
X19136144Y17755307D01*
X18981645Y17643057D01*
X18853856Y17501133D01*
X18758370Y17335747D01*
X18699356Y17154120D01*
X18681991Y16988899D01*
X18670407Y16947825D01*
X18645776Y16912975D01*
X17835836Y16103035D01*
X17819516Y16089959D01*
X17770870Y16038157D01*
X17768120Y16035319D01*
X17748368Y16015566D01*
X17748364Y16015562D01*
X17748365Y16015562D01*
X17745879Y16012359D01*
X17738187Y16003353D01*
X17707913Y15971114D01*
X17698152Y15953358D01*
X17687301Y15936840D01*
X17674885Y15920833D01*
X17657324Y15880253D01*
X17652104Y15869597D01*
X17630804Y15830852D01*
X17625767Y15811233D01*
X17619364Y15792531D01*
X17611318Y15773937D01*
X17604401Y15730268D01*
X17601995Y15718648D01*
X17591000Y15675822D01*
X17591000Y15655568D01*
X17589449Y15635858D01*
X17586279Y15615850D01*
X17590441Y15571831D01*
X17591000Y15559973D01*
X17591000Y11427095D01*
X17581409Y11378877D01*
X17554095Y11337999D01*
X17180926Y10964832D01*
X17119638Y10931035D01*
X17049771Y10935155D01*
X16992881Y10975923D01*
X16966522Y11040755D01*
X16959042Y11111928D01*
X16900027Y11293556D01*
X16900027Y11293557D01*
X16802631Y11462251D01*
X16785750Y11525251D01*
X16802631Y11588252D01*
X16804536Y11591552D01*
X16804540Y11591556D01*
X16900027Y11756944D01*
X16959042Y11938572D01*
X16979004Y12128500D01*
X16959042Y12318428D01*
X16900027Y12500056D01*
X16900027Y12500057D01*
X16804541Y12665443D01*
X16676752Y12807367D01*
X16522253Y12919617D01*
X16522252Y12919618D01*
X16347788Y12997294D01*
X16160987Y13037000D01*
X15970013Y13037000D01*
X15845479Y13010530D01*
X15783211Y12997294D01*
X15608746Y12919617D01*
X15454246Y12807367D01*
X15450935Y12803688D01*
X15408548Y12772893D01*
X15357300Y12762000D01*
X6300356Y12762000D01*
X6279566Y12764296D01*
X6208504Y12762062D01*
X6204546Y12762000D01*
X6176644Y12762000D01*
X6172636Y12761494D01*
X6160815Y12760564D01*
X6116611Y12759175D01*
X6097155Y12753522D01*
X6077803Y12749514D01*
X6057702Y12746974D01*
X6016596Y12730700D01*
X6005372Y12726857D01*
X5962907Y12714519D01*
X5945462Y12704203D01*
X5927719Y12695511D01*
X5908886Y12688054D01*
X5873118Y12662067D01*
X5863199Y12655551D01*
X5825138Y12633042D01*
X5810813Y12618717D01*
X5795786Y12605883D01*
X5779396Y12593975D01*
X5751203Y12559896D01*
X5743215Y12551119D01*
X4249887Y11057792D01*
X4198405Y11026632D01*
X4138342Y11022903D01*
X4083401Y11047456D01*
X3920578Y11174188D01*
X3914689Y11177375D01*
X3886792Y11192472D01*
X3838521Y11238788D01*
X3820762Y11303285D01*
X3838521Y11367783D01*
X3886793Y11414099D01*
X3920300Y11432232D01*
X4097903Y11570467D01*
X4250321Y11736038D01*
X4373419Y11924452D01*
X4463822Y12130549D01*
X4511544Y12319000D01*
X1838455Y12319000D01*
X1886177Y12130549D01*
X1976580Y11924452D01*
X2099678Y11736038D01*
X2252096Y11570467D01*
X2429702Y11432231D01*
X2463207Y11414098D01*
X2511478Y11367782D01*
X2529237Y11303285D01*
X2511478Y11238788D01*
X2463207Y11192472D01*
X2429423Y11174189D01*
X2251762Y11035909D01*
X2099278Y10870269D01*
X1976139Y10681791D01*
X1885702Y10475612D01*
X1835891Y10278909D01*
X1830436Y10257368D01*
X1811844Y10033000D01*
X1830436Y9808632D01*
X1830436Y9808629D01*
X1830437Y9808628D01*
X1885702Y9590389D01*
X1885703Y9590386D01*
X1885704Y9590384D01*
X1903508Y9549794D01*
X1976139Y9384210D01*
X2014359Y9325710D01*
X2099278Y9195732D01*
X2251164Y9030741D01*
X2251762Y9030092D01*
X2429418Y8891815D01*
X2429420Y8891814D01*
X2429424Y8891811D01*
X2462682Y8873813D01*
X2510952Y8827497D01*
X2528711Y8763000D01*
X2510952Y8698503D01*
X2462682Y8652188D01*
X2446432Y8643393D01*
X2429418Y8634186D01*
X2251762Y8495909D01*
X2099278Y8330269D01*
X1976139Y8141791D01*
X1885702Y7935612D01*
X1830611Y7718059D01*
X1830436Y7717368D01*
X1811844Y7493000D01*
X1830436Y7268632D01*
X1830436Y7268629D01*
X1830437Y7268628D01*
X1885702Y7050389D01*
X1885703Y7050386D01*
X1885704Y7050384D01*
X1894982Y7029232D01*
X1976139Y6844210D01*
X2099278Y6655732D01*
X2251762Y6490092D01*
X2346972Y6415987D01*
X2429424Y6351811D01*
X2462682Y6333813D01*
X2510951Y6287500D01*
X2528711Y6223003D01*
X2510953Y6158506D01*
X2462683Y6112189D01*
X2429423Y6094190D01*
X2251762Y5955909D01*
X2099278Y5790269D01*
X1976139Y5601791D01*
X1885702Y5395612D01*
X1830610Y5178056D01*
X1830436Y5177368D01*
X1811844Y4953000D01*
X1830436Y4728632D01*
X1830436Y4728629D01*
X1830437Y4728628D01*
X1885702Y4510389D01*
X1976139Y4304210D01*
X2056609Y4181042D01*
X2099278Y4115732D01*
X2223949Y3980304D01*
X2251762Y3950092D01*
X2429421Y3811813D01*
X2429424Y3811811D01*
X2627426Y3704658D01*
X2840365Y3631556D01*
X3062431Y3594500D01*
X3287566Y3594500D01*
X3287569Y3594500D01*
X3509635Y3631556D01*
X3722574Y3704658D01*
X3920576Y3811811D01*
X4098240Y3950094D01*
X4250722Y4115732D01*
X4373860Y4304209D01*
X4464296Y4510384D01*
X4519564Y4728632D01*
X4538156Y4953000D01*
X4519564Y5177368D01*
X4464296Y5395616D01*
X4373860Y5601791D01*
X4250722Y5790268D01*
X4098240Y5955906D01*
X4098239Y5955907D01*
X4098237Y5955909D01*
X3920578Y6094188D01*
X3887317Y6112188D01*
X3839046Y6158505D01*
X3821288Y6223003D01*
X3839049Y6287501D01*
X3887317Y6333813D01*
X3920576Y6351811D01*
X4098240Y6490094D01*
X4250722Y6655732D01*
X4373860Y6844209D01*
X4464296Y7050384D01*
X4467035Y7061200D01*
X8230496Y7061200D01*
X8250458Y6871271D01*
X8309472Y6689644D01*
X8404958Y6524258D01*
X8404960Y6524256D01*
X8462083Y6460814D01*
X8478136Y6442986D01*
X8502131Y6403829D01*
X8510500Y6358675D01*
X8510500Y4274853D01*
X8508204Y4254065D01*
X8510438Y4183014D01*
X8510500Y4179055D01*
X8510500Y4151143D01*
X8511007Y4147127D01*
X8511937Y4135304D01*
X8513326Y4091108D01*
X8518977Y4071659D01*
X8522986Y4052304D01*
X8525525Y4032206D01*
X8525525Y4032204D01*
X8525526Y4032203D01*
X8530353Y4020010D01*
X8541801Y3991097D01*
X8545644Y3979870D01*
X8557980Y3937410D01*
X8568294Y3919970D01*
X8576987Y3902226D01*
X8584448Y3883383D01*
X8584449Y3883381D01*
X8610431Y3847620D01*
X8616948Y3837699D01*
X8639458Y3799637D01*
X8653778Y3785317D01*
X8666618Y3770284D01*
X8678526Y3753895D01*
X8678527Y3753894D01*
X8678528Y3753893D01*
X8712598Y3725708D01*
X8721378Y3717718D01*
X9994745Y2444351D01*
X10007829Y2428021D01*
X10059660Y2379349D01*
X10062503Y2376593D01*
X10082224Y2356872D01*
X10085412Y2354399D01*
X10094440Y2346689D01*
X10126673Y2316420D01*
X10144426Y2306660D01*
X10160949Y2295806D01*
X10176951Y2283394D01*
X10176954Y2283392D01*
X10217533Y2265832D01*
X10228182Y2260615D01*
X10266929Y2239313D01*
X10266931Y2239313D01*
X10266934Y2239311D01*
X10286568Y2234270D01*
X10305253Y2227872D01*
X10323849Y2219825D01*
X10367524Y2212908D01*
X10379119Y2210508D01*
X10421964Y2199506D01*
X10442218Y2199506D01*
X10461928Y2197955D01*
X10481936Y2194786D01*
X10481936Y2194787D01*
X10481937Y2194786D01*
X10525955Y2198948D01*
X10537813Y2199506D01*
X13237306Y2199506D01*
X13288554Y2188613D01*
X13330941Y2157818D01*
X13334252Y2154140D01*
X13381446Y2119852D01*
X13488754Y2041888D01*
X13663218Y1964212D01*
X13850019Y1924506D01*
X13905912Y1924506D01*
X13954130Y1914915D01*
X13995007Y1887601D01*
X14493264Y1389344D01*
X14506343Y1373019D01*
X14558162Y1324358D01*
X14560973Y1321634D01*
X14580742Y1301865D01*
X14583955Y1299373D01*
X14592945Y1291694D01*
X14625191Y1261414D01*
X14642938Y1251658D01*
X14659462Y1240804D01*
X14675471Y1228386D01*
X14716054Y1210825D01*
X14726705Y1205607D01*
X14765452Y1184305D01*
X14785072Y1179268D01*
X14803779Y1172863D01*
X14810392Y1170002D01*
X14822366Y1164819D01*
X14833017Y1163133D01*
X14866042Y1157902D01*
X14877637Y1155502D01*
X14920482Y1144500D01*
X14940736Y1144500D01*
X14960446Y1142949D01*
X14980454Y1139780D01*
X14980454Y1139781D01*
X14980455Y1139780D01*
X15024473Y1143942D01*
X15036331Y1144500D01*
X29773207Y1144500D01*
X29796815Y1142269D01*
X29804906Y1140725D01*
X29804907Y1140726D01*
X29804908Y1140725D01*
X29860951Y1144251D01*
X29868863Y1144500D01*
X47798970Y1144500D01*
X47819224Y1144500D01*
X47838934Y1142949D01*
X47858942Y1139780D01*
X47858942Y1139781D01*
X47858943Y1139780D01*
X47902961Y1143942D01*
X47914819Y1144500D01*
X54529970Y1144500D01*
X54649856Y1144500D01*
X62273132Y1144500D01*
X62293920Y1142205D01*
X62296892Y1142299D01*
X62296894Y1142298D01*
X62364970Y1144438D01*
X62368930Y1144500D01*
X62396837Y1144500D01*
X62396841Y1144500D01*
X62400850Y1145007D01*
X62412684Y1145939D01*
X62456874Y1147327D01*
X62476323Y1152979D01*
X62495683Y1156988D01*
X62515782Y1159526D01*
X62556900Y1175807D01*
X62568102Y1179643D01*
X62610578Y1191982D01*
X62628024Y1202301D01*
X62645765Y1210991D01*
X62664602Y1218448D01*
X62700377Y1244442D01*
X62710288Y1250952D01*
X62748347Y1273458D01*
X62762676Y1287788D01*
X62777704Y1300623D01*
X62794092Y1312528D01*
X62822283Y1346607D01*
X62830253Y1355366D01*
X64021994Y2547105D01*
X64062872Y2574418D01*
X64111090Y2584009D01*
X64166979Y2584009D01*
X64166981Y2584009D01*
X64353782Y2623715D01*
X64528246Y2701391D01*
X64682747Y2813643D01*
X64810534Y2955565D01*
X64906021Y3120953D01*
X64965036Y3302581D01*
X64984998Y3492509D01*
X64965036Y3682437D01*
X64926656Y3800558D01*
X64906021Y3864066D01*
X64810535Y4029452D01*
X64682746Y4171376D01*
X64528247Y4283626D01*
X64528246Y4283627D01*
X64353782Y4361303D01*
X64166981Y4401009D01*
X63976007Y4401009D01*
X63851472Y4374539D01*
X63789205Y4361303D01*
X63614740Y4283626D01*
X63460241Y4171376D01*
X63332452Y4029452D01*
X63236966Y3864066D01*
X63177952Y3682439D01*
X63160587Y3517217D01*
X63149003Y3476143D01*
X63124372Y3441293D01*
X62131485Y2448405D01*
X62090608Y2421091D01*
X62042390Y2411500D01*
X54690030Y2411500D01*
X48678625Y2411500D01*
X48615625Y2428381D01*
X48569506Y2474500D01*
X48552625Y2537500D01*
X48569506Y2600500D01*
X48650019Y2739954D01*
X48661355Y2774842D01*
X48709034Y2921582D01*
X48728996Y3111510D01*
X48709034Y3301438D01*
X48655400Y3466506D01*
X48650019Y3483067D01*
X48554533Y3648453D01*
X48444836Y3770284D01*
X48426745Y3790376D01*
X48413998Y3799637D01*
X48298732Y3883383D01*
X48272244Y3902628D01*
X48097780Y3980304D01*
X47910979Y4020010D01*
X47720005Y4020010D01*
X47595470Y3993540D01*
X47533203Y3980304D01*
X47436862Y3937410D01*
X47378526Y3911437D01*
X47358738Y3902627D01*
X47204239Y3790377D01*
X47076450Y3648453D01*
X46980964Y3483067D01*
X46921950Y3301440D01*
X46901988Y3111510D01*
X46921950Y2921581D01*
X46980964Y2739954D01*
X47061478Y2600500D01*
X47078359Y2537500D01*
X47061478Y2474500D01*
X47015359Y2428381D01*
X46952359Y2411500D01*
X30604500Y2411500D01*
X30541500Y2428381D01*
X30495381Y2474500D01*
X30478500Y2537500D01*
X30478500Y2726475D01*
X30486869Y2771630D01*
X30510864Y2810786D01*
X30510867Y2810789D01*
X30584041Y2892057D01*
X30679528Y3057445D01*
X30738543Y3239073D01*
X30758505Y3429001D01*
X30738543Y3618929D01*
X30693175Y3758556D01*
X30679528Y3800558D01*
X30584042Y3965944D01*
X30456253Y4107868D01*
X30368842Y4171376D01*
X30301753Y4220119D01*
X30127289Y4297795D01*
X29940488Y4337501D01*
X29749514Y4337501D01*
X29624980Y4311031D01*
X29562712Y4297795D01*
X29388247Y4220118D01*
X29233748Y4107868D01*
X29105959Y3965944D01*
X29010473Y3800558D01*
X28951459Y3618931D01*
X28931497Y3429001D01*
X28951459Y3239072D01*
X29010473Y3057445D01*
X29105959Y2892059D01*
X29105961Y2892057D01*
X29179138Y2810786D01*
X29203131Y2771633D01*
X29211500Y2726478D01*
X29211500Y2537500D01*
X29194619Y2474500D01*
X29148500Y2428381D01*
X29085500Y2411500D01*
X15315107Y2411500D01*
X15266889Y2421091D01*
X15226011Y2448405D01*
X14892626Y2781791D01*
X14867996Y2816642D01*
X14856413Y2857711D01*
X14839048Y3022934D01*
X14780033Y3204562D01*
X14780033Y3204563D01*
X14684547Y3369949D01*
X14588971Y3476097D01*
X14556759Y3511872D01*
X14549402Y3517217D01*
X14409408Y3618929D01*
X14402258Y3624124D01*
X14227794Y3701800D01*
X14040993Y3741506D01*
X13850019Y3741506D01*
X13755899Y3721500D01*
X13663217Y3701800D01*
X13488752Y3624123D01*
X13334252Y3511873D01*
X13330941Y3508194D01*
X13288554Y3477399D01*
X13237306Y3466506D01*
X10816588Y3466506D01*
X10768370Y3476097D01*
X10727495Y3503409D01*
X9814402Y4416503D01*
X9787091Y4457377D01*
X9777500Y4505595D01*
X9777500Y6358675D01*
X9785869Y6403829D01*
X9809864Y6442986D01*
X9814432Y6448059D01*
X9883040Y6524256D01*
X9978527Y6689644D01*
X10037542Y6871272D01*
X10057504Y7061200D01*
X10037542Y7251128D01*
X10000359Y7365565D01*
X9978527Y7432757D01*
X9883041Y7598143D01*
X9767743Y7726194D01*
X9755253Y7740066D01*
X9692732Y7785490D01*
X9600753Y7852317D01*
X9600752Y7852318D01*
X9426288Y7929994D01*
X9239487Y7969700D01*
X9048513Y7969700D01*
X8941460Y7946945D01*
X8861711Y7929994D01*
X8687246Y7852317D01*
X8532747Y7740067D01*
X8404958Y7598143D01*
X8309472Y7432757D01*
X8250458Y7251130D01*
X8230496Y7061200D01*
X4467035Y7061200D01*
X4519564Y7268632D01*
X4538156Y7493000D01*
X4536378Y7514452D01*
X4543646Y7568222D01*
X4572851Y7613949D01*
X7210498Y10251595D01*
X7251376Y10278909D01*
X7299594Y10288500D01*
X15357300Y10288500D01*
X15408548Y10277607D01*
X15450935Y10246812D01*
X15454246Y10243134D01*
X15542393Y10179092D01*
X15608748Y10130882D01*
X15783212Y10053206D01*
X15808195Y10047896D01*
X15869524Y10015288D01*
X15904255Y9955134D01*
X15901832Y9885715D01*
X15895857Y9867328D01*
X15875896Y9677401D01*
X15895858Y9487471D01*
X15954872Y9305844D01*
X16050360Y9140455D01*
X16067904Y9120970D01*
X16094101Y9075596D01*
X16099578Y9023490D01*
X16083387Y8973660D01*
X15992972Y8817057D01*
X15933958Y8635430D01*
X15913996Y8445501D01*
X15933958Y8255571D01*
X15992972Y8073944D01*
X16088458Y7908558D01*
X16100835Y7894812D01*
X16129456Y7840985D01*
X16129457Y7780022D01*
X16100839Y7726194D01*
X16088459Y7712444D01*
X15992972Y7547057D01*
X15933958Y7365430D01*
X15913996Y7175500D01*
X15933958Y6985571D01*
X15992972Y6803944D01*
X16088458Y6638558D01*
X16088460Y6638556D01*
X16137038Y6584604D01*
X16165659Y6530778D01*
X16165660Y6469815D01*
X16137042Y6415987D01*
X16126559Y6404344D01*
X16031072Y6238957D01*
X15972058Y6057330D01*
X15952096Y5867401D01*
X15972058Y5677471D01*
X16031072Y5495844D01*
X16126558Y5330458D01*
X16126560Y5330456D01*
X16254347Y5188534D01*
X16408848Y5076282D01*
X16583312Y4998606D01*
X16770113Y4958900D01*
X16961085Y4958900D01*
X16961087Y4958900D01*
X17147888Y4998606D01*
X17322352Y5076282D01*
X17476853Y5188534D01*
X17604640Y5330456D01*
X17700127Y5495844D01*
X17759142Y5677472D01*
X17763082Y5714970D01*
X17774665Y5756043D01*
X17799294Y5790892D01*
X20200658Y8192256D01*
X20216979Y8205330D01*
X20219014Y8207498D01*
X20219018Y8207500D01*
X20265677Y8257189D01*
X20268368Y8259966D01*
X20288134Y8279730D01*
X20290605Y8282917D01*
X20298312Y8291941D01*
X20328586Y8324179D01*
X20338343Y8341930D01*
X20349199Y8358457D01*
X20361613Y8374459D01*
X20379172Y8415039D01*
X20384392Y8425691D01*
X20401752Y8457268D01*
X20405695Y8464440D01*
X20410732Y8484061D01*
X20417138Y8502770D01*
X20425181Y8521355D01*
X20432096Y8565023D01*
X20434504Y8576647D01*
X20443434Y8611424D01*
X20445500Y8619470D01*
X20445500Y8639724D01*
X20447051Y8659434D01*
X20450220Y8679443D01*
X20446059Y8723461D01*
X20445500Y8735319D01*
X20445500Y13788450D01*
X20455091Y13836668D01*
X20482405Y13877545D01*
X22502872Y15898012D01*
X22553031Y15928750D01*
X22611678Y15933366D01*
X22666028Y15910853D01*
X22704234Y15866120D01*
X22717967Y15808917D01*
X22717967Y7466386D01*
X22715671Y7445598D01*
X22717905Y7374547D01*
X22717967Y7370588D01*
X22717967Y7342676D01*
X22718474Y7338660D01*
X22719404Y7326837D01*
X22720793Y7282641D01*
X22726444Y7263192D01*
X22730453Y7243837D01*
X22732992Y7223739D01*
X22732992Y7223737D01*
X22732993Y7223736D01*
X22749058Y7183159D01*
X22749268Y7182630D01*
X22753111Y7171403D01*
X22765447Y7128943D01*
X22775761Y7111503D01*
X22784454Y7093759D01*
X22787358Y7086426D01*
X22791916Y7074914D01*
X22817898Y7039153D01*
X22824415Y7029232D01*
X22846925Y6991170D01*
X22861245Y6976850D01*
X22874085Y6961817D01*
X22885993Y6945428D01*
X22885994Y6945427D01*
X22885995Y6945426D01*
X22899401Y6934336D01*
X22920065Y6917241D01*
X22928845Y6909251D01*
X24071877Y5766218D01*
X24096508Y5731368D01*
X24108092Y5690294D01*
X24125458Y5525071D01*
X24184472Y5343444D01*
X24279958Y5178058D01*
X24279960Y5178056D01*
X24407747Y5036134D01*
X24562248Y4923882D01*
X24736712Y4846206D01*
X24923513Y4806500D01*
X25114485Y4806500D01*
X25114487Y4806500D01*
X25301288Y4846206D01*
X25475752Y4923882D01*
X25630253Y5036134D01*
X25758040Y5178056D01*
X25853527Y5343444D01*
X25912542Y5525072D01*
X25932504Y5715000D01*
X25912542Y5904928D01*
X25853527Y6086556D01*
X25853527Y6086557D01*
X25765406Y6239186D01*
X25758040Y6251944D01*
X25745663Y6265690D01*
X25717042Y6319517D01*
X25717042Y6380483D01*
X25745663Y6434311D01*
X25758040Y6448056D01*
X25853527Y6613444D01*
X25912542Y6795072D01*
X25932504Y6985000D01*
X25912542Y7174928D01*
X25863902Y7324626D01*
X25853527Y7356557D01*
X25758041Y7521942D01*
X25758040Y7521944D01*
X25745663Y7535690D01*
X25717042Y7589517D01*
X25717042Y7650483D01*
X25745663Y7704311D01*
X25758040Y7718056D01*
X25853527Y7883444D01*
X25912542Y8065072D01*
X25932504Y8255000D01*
X25912542Y8444928D01*
X25869744Y8576647D01*
X25853527Y8626557D01*
X25758039Y8791946D01*
X25688487Y8869192D01*
X25659866Y8923020D01*
X25659866Y8983985D01*
X25688485Y9037810D01*
X25758038Y9115056D01*
X25853525Y9280444D01*
X25912540Y9462072D01*
X25932502Y9652000D01*
X25912540Y9841928D01*
X25875757Y9955134D01*
X25853525Y10023557D01*
X25758039Y10188943D01*
X25630250Y10330867D01*
X25475751Y10443117D01*
X25475750Y10443118D01*
X25409748Y10472504D01*
X25370363Y10500082D01*
X25344175Y10540409D01*
X25335000Y10587609D01*
X25335000Y18162000D01*
X25351881Y18225000D01*
X25398000Y18271119D01*
X25461000Y18288000D01*
X34043160Y18288000D01*
X34106160Y18271119D01*
X34152279Y18225000D01*
X34169160Y18162000D01*
X34169160Y10250824D01*
X34160791Y10205670D01*
X34136796Y10166513D01*
X34063618Y10085242D01*
X33968132Y9919856D01*
X33909118Y9738229D01*
X33889156Y9548300D01*
X33909118Y9358370D01*
X33968132Y9176743D01*
X34063618Y9011357D01*
X34086485Y8985961D01*
X34115106Y8932133D01*
X34115106Y8871169D01*
X34086486Y8817340D01*
X34063618Y8791943D01*
X33968132Y8626557D01*
X33909118Y8444930D01*
X33889534Y8258596D01*
X33889156Y8255000D01*
X33894717Y8202092D01*
X33909118Y8065071D01*
X33968132Y7883445D01*
X34037870Y7762656D01*
X34054061Y7712828D01*
X34048585Y7660722D01*
X34022389Y7615348D01*
X33995466Y7585447D01*
X33899978Y7420057D01*
X33840964Y7238430D01*
X33821002Y7048500D01*
X33840964Y6858571D01*
X33899978Y6676944D01*
X33995466Y6511555D01*
X34068176Y6430802D01*
X34096797Y6376976D01*
X34096798Y6316015D01*
X34068181Y6262187D01*
X34058961Y6251947D01*
X33963472Y6086556D01*
X33904458Y5904930D01*
X33884496Y5715000D01*
X33904458Y5525071D01*
X33963472Y5343444D01*
X34058958Y5178058D01*
X34058960Y5178056D01*
X34186747Y5036134D01*
X34341248Y4923882D01*
X34515712Y4846206D01*
X34702513Y4806500D01*
X34893485Y4806500D01*
X34893487Y4806500D01*
X35080288Y4846206D01*
X35254752Y4923882D01*
X35409253Y5036134D01*
X35537040Y5178056D01*
X35632527Y5343444D01*
X35691542Y5525072D01*
X35708907Y5690300D01*
X35720490Y5731367D01*
X35745118Y5766215D01*
X36816342Y6837439D01*
X36832663Y6850514D01*
X36834697Y6852682D01*
X36834701Y6852683D01*
X36881344Y6902355D01*
X36884035Y6905132D01*
X36903818Y6924913D01*
X36906304Y6928119D01*
X36913993Y6937122D01*
X36944269Y6969362D01*
X36954025Y6987112D01*
X36964878Y7003633D01*
X36977297Y7019642D01*
X36994858Y7060229D01*
X37000071Y7070870D01*
X37021378Y7109623D01*
X37026416Y7129249D01*
X37032820Y7147951D01*
X37040864Y7166538D01*
X37047779Y7210202D01*
X37050187Y7221830D01*
X37061183Y7264653D01*
X37061183Y7284907D01*
X37062734Y7304617D01*
X37065903Y7324626D01*
X37061742Y7368644D01*
X37061183Y7380502D01*
X37061183Y15921572D01*
X40789760Y15921572D01*
X40793922Y15877553D01*
X40794481Y15865695D01*
X40794481Y7423872D01*
X40792185Y7403084D01*
X40794419Y7332033D01*
X40794481Y7328074D01*
X40794481Y7300162D01*
X40794988Y7296146D01*
X40795918Y7284323D01*
X40797307Y7240127D01*
X40802958Y7220678D01*
X40806967Y7201323D01*
X40809506Y7181225D01*
X40809506Y7181223D01*
X40809507Y7181222D01*
X40824360Y7143706D01*
X40825782Y7140116D01*
X40829625Y7128889D01*
X40841961Y7086429D01*
X40852275Y7068989D01*
X40860968Y7051245D01*
X40865756Y7039153D01*
X40868430Y7032400D01*
X40894412Y6996639D01*
X40900929Y6986718D01*
X40923439Y6948656D01*
X40937759Y6934336D01*
X40950599Y6919303D01*
X40962507Y6902914D01*
X40962508Y6902913D01*
X40962509Y6902912D01*
X40996579Y6874727D01*
X41005359Y6866737D01*
X42105877Y5766218D01*
X42130508Y5731368D01*
X42142092Y5690294D01*
X42159458Y5525071D01*
X42218472Y5343444D01*
X42313958Y5178058D01*
X42313960Y5178056D01*
X42441747Y5036134D01*
X42596248Y4923882D01*
X42770712Y4846206D01*
X42957513Y4806500D01*
X43148485Y4806500D01*
X43148487Y4806500D01*
X43335288Y4846206D01*
X43509752Y4923882D01*
X43664253Y5036134D01*
X43792040Y5178056D01*
X43887527Y5343444D01*
X43946542Y5525072D01*
X43966504Y5715000D01*
X43946542Y5904928D01*
X43887527Y6086556D01*
X43887527Y6086557D01*
X43799406Y6239186D01*
X43792040Y6251944D01*
X43779663Y6265690D01*
X43751042Y6319517D01*
X43751042Y6380483D01*
X43779663Y6434311D01*
X43792040Y6448056D01*
X43887527Y6613444D01*
X43946542Y6795072D01*
X43966504Y6985000D01*
X43946542Y7174928D01*
X43897902Y7324626D01*
X43887527Y7356557D01*
X43792041Y7521942D01*
X43792040Y7521944D01*
X43779663Y7535690D01*
X43751042Y7589517D01*
X43751042Y7650483D01*
X43779663Y7704311D01*
X43792040Y7718056D01*
X43887527Y7883444D01*
X43946542Y8065072D01*
X43966504Y8255000D01*
X43946542Y8444928D01*
X43903744Y8576647D01*
X43887527Y8626557D01*
X43792039Y8791946D01*
X43722488Y8869191D01*
X43693867Y8923019D01*
X43693867Y8983984D01*
X43722489Y9037812D01*
X43792039Y9115055D01*
X43806705Y9140456D01*
X43887527Y9280444D01*
X43946542Y9462072D01*
X43966504Y9652000D01*
X43946542Y9841928D01*
X43909759Y9955134D01*
X43887527Y10023557D01*
X43792041Y10188943D01*
X43735629Y10251595D01*
X43718863Y10270215D01*
X43694869Y10309371D01*
X43686500Y10354525D01*
X43686500Y13020406D01*
X43696091Y13068624D01*
X43723405Y13109501D01*
X45924500Y15310595D01*
X45965377Y15337909D01*
X46013595Y15347500D01*
X46069485Y15347500D01*
X46069487Y15347500D01*
X46256288Y15387206D01*
X46430752Y15464882D01*
X46585253Y15577134D01*
X46713040Y15719056D01*
X46808527Y15884444D01*
X46867542Y16066072D01*
X46887504Y16256000D01*
X46867542Y16445928D01*
X46808527Y16627556D01*
X46808527Y16627557D01*
X46713041Y16792943D01*
X46585252Y16934867D01*
X46491238Y17003172D01*
X46430752Y17047118D01*
X46256288Y17124794D01*
X46069487Y17164500D01*
X45878513Y17164500D01*
X45753978Y17138030D01*
X45691711Y17124794D01*
X45517246Y17047117D01*
X45456759Y17003171D01*
X45408895Y16981861D01*
X45356502Y16981862D01*
X45308638Y17003172D01*
X45248152Y17047118D01*
X45160752Y17110618D01*
X44986288Y17188294D01*
X44799487Y17228000D01*
X44608513Y17228000D01*
X44483978Y17201530D01*
X44421711Y17188294D01*
X44247246Y17110617D01*
X44151994Y17041413D01*
X44095468Y17018576D01*
X44034838Y17024949D01*
X43984297Y17059041D01*
X43981753Y17061866D01*
X43893617Y17125901D01*
X43827252Y17174118D01*
X43652788Y17251794D01*
X43465987Y17291500D01*
X43275013Y17291500D01*
X43150479Y17265030D01*
X43088211Y17251794D01*
X42913746Y17174117D01*
X42780398Y17077234D01*
X42723872Y17054396D01*
X42663242Y17060769D01*
X42612700Y17094860D01*
X42584751Y17125901D01*
X42481752Y17200734D01*
X42430252Y17238151D01*
X42255788Y17315827D01*
X42068987Y17355533D01*
X41878013Y17355533D01*
X41753478Y17329063D01*
X41691211Y17315827D01*
X41516746Y17238150D01*
X41362247Y17125900D01*
X41234458Y16983976D01*
X41138972Y16818590D01*
X41079958Y16636963D01*
X41063013Y16475744D01*
X41052267Y16436464D01*
X41029553Y16402663D01*
X40974352Y16343880D01*
X40971601Y16341041D01*
X40951849Y16321288D01*
X40951845Y16321284D01*
X40951846Y16321284D01*
X40949360Y16318081D01*
X40941668Y16309075D01*
X40911394Y16276836D01*
X40901633Y16259080D01*
X40890782Y16242562D01*
X40878366Y16226555D01*
X40860805Y16185975D01*
X40855585Y16175319D01*
X40834285Y16136574D01*
X40829248Y16116955D01*
X40822845Y16098253D01*
X40814799Y16079659D01*
X40807882Y16035990D01*
X40805476Y16024370D01*
X40794481Y15981544D01*
X40794481Y15961290D01*
X40792930Y15941580D01*
X40789760Y15921572D01*
X37061183Y15921572D01*
X37061183Y18162000D01*
X37078064Y18225000D01*
X37124183Y18271119D01*
X37187183Y18288000D01*
X47500500Y18288000D01*
X47563500Y18271119D01*
X47609619Y18225000D01*
X47626500Y18162000D01*
X47626500Y7386353D01*
X47624204Y7365565D01*
X47626438Y7294514D01*
X47626500Y7290555D01*
X47626500Y7262643D01*
X47627007Y7258627D01*
X47627937Y7246804D01*
X47629326Y7202608D01*
X47634977Y7183159D01*
X47638986Y7163804D01*
X47641525Y7143706D01*
X47641525Y7143704D01*
X47641526Y7143703D01*
X47655019Y7109622D01*
X47657801Y7102597D01*
X47661644Y7091370D01*
X47673980Y7048910D01*
X47674230Y7048488D01*
X47682595Y7034342D01*
X47684294Y7031470D01*
X47692987Y7013726D01*
X47699753Y6996639D01*
X47700449Y6994881D01*
X47726431Y6959120D01*
X47732948Y6949199D01*
X47755458Y6911137D01*
X47769778Y6896817D01*
X47782618Y6881784D01*
X47794526Y6865395D01*
X47794527Y6865394D01*
X47794528Y6865393D01*
X47802776Y6858570D01*
X47828598Y6837208D01*
X47837378Y6829218D01*
X51499254Y3167341D01*
X51512333Y3151017D01*
X51564149Y3102359D01*
X51566960Y3099635D01*
X51586730Y3079865D01*
X51589943Y3077373D01*
X51598933Y3069694D01*
X51631179Y3039414D01*
X51648926Y3029658D01*
X51665450Y3018804D01*
X51681459Y3006386D01*
X51722042Y2988825D01*
X51732693Y2983607D01*
X51771440Y2962305D01*
X51791060Y2957268D01*
X51809767Y2950863D01*
X51816380Y2948002D01*
X51828354Y2942819D01*
X51839005Y2941133D01*
X51872030Y2935902D01*
X51883625Y2933502D01*
X51926470Y2922500D01*
X51946724Y2922500D01*
X51966434Y2920949D01*
X51986442Y2917780D01*
X51986442Y2917781D01*
X51986443Y2917780D01*
X52030461Y2921942D01*
X52042319Y2922500D01*
X58844147Y2922500D01*
X58864935Y2920205D01*
X58867907Y2920299D01*
X58867909Y2920298D01*
X58935985Y2922438D01*
X58939945Y2922500D01*
X58967852Y2922500D01*
X58967856Y2922500D01*
X58971865Y2923007D01*
X58983699Y2923939D01*
X59027889Y2925327D01*
X59047338Y2930979D01*
X59066698Y2934988D01*
X59086797Y2937526D01*
X59127915Y2953807D01*
X59139117Y2957643D01*
X59181593Y2969982D01*
X59199039Y2980301D01*
X59216780Y2988991D01*
X59235617Y2996448D01*
X59271392Y3022442D01*
X59281303Y3028952D01*
X59319362Y3051458D01*
X59333691Y3065788D01*
X59348719Y3078623D01*
X59365107Y3090528D01*
X59393298Y3124607D01*
X59401268Y3133366D01*
X61228000Y4960096D01*
X61268878Y4987409D01*
X61317096Y4997000D01*
X61372985Y4997000D01*
X61372987Y4997000D01*
X61559788Y5036706D01*
X61657028Y5080000D01*
X66835844Y5080000D01*
X66854436Y4855632D01*
X66854436Y4855629D01*
X66854437Y4855628D01*
X66909702Y4637389D01*
X67000139Y4431210D01*
X67096560Y4283627D01*
X67123278Y4242732D01*
X67222173Y4135304D01*
X67275762Y4077092D01*
X67438930Y3950092D01*
X67453424Y3938811D01*
X67651426Y3831658D01*
X67864365Y3758556D01*
X68086431Y3721500D01*
X68311566Y3721500D01*
X68311569Y3721500D01*
X68533635Y3758556D01*
X68746574Y3831658D01*
X68944576Y3938811D01*
X69122240Y4077094D01*
X69274722Y4242732D01*
X69397860Y4431209D01*
X69488296Y4637384D01*
X69543564Y4855632D01*
X69562156Y5080000D01*
X69543564Y5304368D01*
X69488296Y5522616D01*
X69397860Y5728791D01*
X69274722Y5917268D01*
X69122240Y6082906D01*
X69122239Y6082907D01*
X69122237Y6082909D01*
X68944579Y6221187D01*
X68944577Y6221188D01*
X68944576Y6221189D01*
X68911317Y6239188D01*
X68863047Y6285502D01*
X68845288Y6350000D01*
X68863047Y6414498D01*
X68911317Y6460813D01*
X68944576Y6478811D01*
X69122240Y6617094D01*
X69274722Y6782732D01*
X69397860Y6971209D01*
X69488296Y7177384D01*
X69543564Y7395632D01*
X69562156Y7620000D01*
X69543564Y7844368D01*
X69488296Y8062616D01*
X69397860Y8268791D01*
X69274722Y8457268D01*
X69122240Y8622906D01*
X69122239Y8622907D01*
X69122237Y8622909D01*
X68944579Y8761187D01*
X68944577Y8761188D01*
X68944576Y8761189D01*
X68911317Y8779188D01*
X68863047Y8825502D01*
X68845288Y8890000D01*
X68863047Y8954498D01*
X68911317Y9000813D01*
X68944576Y9018811D01*
X69122240Y9157094D01*
X69274722Y9322732D01*
X69397860Y9511209D01*
X69488296Y9717384D01*
X69543564Y9935632D01*
X69562156Y10160000D01*
X69543564Y10384368D01*
X69488296Y10602616D01*
X69397860Y10808791D01*
X69274722Y10997268D01*
X69122240Y11162906D01*
X69122239Y11162907D01*
X69122237Y11162909D01*
X68970075Y11281342D01*
X68944576Y11301189D01*
X68910792Y11319472D01*
X68862521Y11365788D01*
X68844762Y11430285D01*
X68862521Y11494783D01*
X68910793Y11541099D01*
X68944300Y11559232D01*
X69121903Y11697467D01*
X69274321Y11863038D01*
X69397419Y12051452D01*
X69487822Y12257549D01*
X69535544Y12446000D01*
X66862455Y12446000D01*
X66910177Y12257549D01*
X67000580Y12051452D01*
X67123678Y11863038D01*
X67276096Y11697467D01*
X67453702Y11559231D01*
X67487207Y11541098D01*
X67535478Y11494782D01*
X67553237Y11430285D01*
X67535478Y11365788D01*
X67487207Y11319472D01*
X67453423Y11301189D01*
X67275762Y11162909D01*
X67123278Y10997269D01*
X67000139Y10808791D01*
X66909702Y10602612D01*
X66869313Y10443117D01*
X66854436Y10384368D01*
X66835844Y10160000D01*
X66854436Y9935632D01*
X66854436Y9935629D01*
X66854437Y9935628D01*
X66909702Y9717389D01*
X66909703Y9717386D01*
X66909704Y9717384D01*
X66932856Y9664602D01*
X67000139Y9511210D01*
X67123278Y9322732D01*
X67275762Y9157092D01*
X67453418Y9018815D01*
X67453420Y9018814D01*
X67453424Y9018811D01*
X67486682Y9000813D01*
X67534952Y8954497D01*
X67552711Y8890000D01*
X67534952Y8825503D01*
X67486682Y8779188D01*
X67461794Y8765719D01*
X67453418Y8761186D01*
X67275762Y8622909D01*
X67123278Y8457269D01*
X67000139Y8268791D01*
X66909702Y8062612D01*
X66854437Y7844373D01*
X66854436Y7844368D01*
X66841106Y7683496D01*
X66836141Y7623579D01*
X66835844Y7620000D01*
X66854436Y7395632D01*
X66854436Y7395629D01*
X66854437Y7395628D01*
X66909702Y7177389D01*
X66909703Y7177386D01*
X66909704Y7177384D01*
X66930825Y7129233D01*
X67000139Y6971210D01*
X67123278Y6782732D01*
X67275762Y6617092D01*
X67453418Y6478815D01*
X67453420Y6478814D01*
X67453424Y6478811D01*
X67486682Y6460813D01*
X67534952Y6414497D01*
X67552711Y6350000D01*
X67534952Y6285503D01*
X67486682Y6239188D01*
X67461794Y6225719D01*
X67453418Y6221186D01*
X67275762Y6082909D01*
X67123278Y5917269D01*
X67000139Y5728791D01*
X66909702Y5522612D01*
X66864331Y5343444D01*
X66854436Y5304368D01*
X66835844Y5080000D01*
X61657028Y5080000D01*
X61734252Y5114382D01*
X61888753Y5226634D01*
X62016540Y5368556D01*
X62112027Y5533944D01*
X62171042Y5715572D01*
X62191004Y5905500D01*
X62171042Y6095428D01*
X62136628Y6201342D01*
X62112027Y6277057D01*
X62032968Y6413991D01*
X62016087Y6476991D01*
X62032968Y6539991D01*
X62112030Y6676931D01*
X62116161Y6689644D01*
X62171045Y6858559D01*
X62191007Y7048487D01*
X62171045Y7238415D01*
X62132658Y7356557D01*
X62112030Y7420044D01*
X62016544Y7585430D01*
X62004159Y7599185D01*
X61975538Y7653014D01*
X61975538Y7713979D01*
X62004158Y7767806D01*
X62016540Y7781556D01*
X62112027Y7946944D01*
X62171042Y8128572D01*
X62191004Y8318500D01*
X62171042Y8508428D01*
X62132659Y8626557D01*
X62112027Y8690057D01*
X62016541Y8855443D01*
X62002381Y8871169D01*
X61998248Y8875759D01*
X61972052Y8921133D01*
X61966575Y8973240D01*
X61982764Y9023065D01*
X62048507Y9136934D01*
X62107522Y9318562D01*
X62127484Y9508490D01*
X62107522Y9698418D01*
X62071711Y9808632D01*
X62048507Y9880047D01*
X61953021Y10045433D01*
X61825232Y10187357D01*
X61711189Y10270214D01*
X61670732Y10299608D01*
X61496268Y10377284D01*
X61309467Y10416990D01*
X61118493Y10416990D01*
X60993958Y10390520D01*
X60931691Y10377284D01*
X60757226Y10299607D01*
X60602727Y10187357D01*
X60474938Y10045433D01*
X60379452Y9880047D01*
X60320438Y9698420D01*
X60300476Y9508490D01*
X60306378Y9452334D01*
X60299841Y9397104D01*
X60270163Y9350069D01*
X56580499Y5660404D01*
X56539622Y5633090D01*
X56491404Y5623499D01*
X54067593Y5623499D01*
X54010390Y5637232D01*
X53965657Y5675438D01*
X53943144Y5729788D01*
X53947760Y5788435D01*
X53978498Y5838594D01*
X54829548Y6689644D01*
X55697159Y7557256D01*
X55713480Y7570331D01*
X55715514Y7572499D01*
X55715518Y7572500D01*
X55762160Y7622171D01*
X55764851Y7624948D01*
X55784635Y7644730D01*
X55787121Y7647936D01*
X55794810Y7656939D01*
X55825086Y7689179D01*
X55834842Y7706929D01*
X55845695Y7723450D01*
X55858114Y7739459D01*
X55875675Y7780046D01*
X55880888Y7790687D01*
X55902195Y7829440D01*
X55907233Y7849066D01*
X55913637Y7867768D01*
X55920421Y7883444D01*
X55921681Y7886355D01*
X55928596Y7930019D01*
X55931004Y7941647D01*
X55932364Y7946944D01*
X55942000Y7984470D01*
X55942000Y8004724D01*
X55943551Y8024434D01*
X55946720Y8044443D01*
X55946719Y8044444D01*
X55942558Y8088462D01*
X55942000Y8100319D01*
X55942000Y9845406D01*
X55951591Y9893624D01*
X55978905Y9934501D01*
X60385767Y14341362D01*
X66840500Y14341362D01*
X66847011Y14280800D01*
X66898111Y14143795D01*
X66985738Y14026739D01*
X67102794Y13939112D01*
X67102795Y13939112D01*
X67102796Y13939111D01*
X67218314Y13896025D01*
X67268646Y13861463D01*
X67296821Y13807293D01*
X67296219Y13746237D01*
X67266982Y13692633D01*
X67123676Y13536960D01*
X67000580Y13348549D01*
X66910177Y13142452D01*
X66862455Y12954001D01*
X66862456Y12954000D01*
X69535544Y12954000D01*
X69535544Y12954001D01*
X69487822Y13142452D01*
X69397419Y13348549D01*
X69274321Y13536963D01*
X69131018Y13692633D01*
X69101780Y13746237D01*
X69101178Y13807293D01*
X69129353Y13861463D01*
X69179683Y13896024D01*
X69295204Y13939111D01*
X69412261Y14026739D01*
X69499889Y14143796D01*
X69550989Y14280799D01*
X69557500Y14341362D01*
X69557500Y16138638D01*
X69550989Y16199201D01*
X69499889Y16336204D01*
X69499888Y16336206D01*
X69412261Y16453262D01*
X69295205Y16540889D01*
X69226702Y16566439D01*
X69158201Y16591989D01*
X69097638Y16598500D01*
X67300362Y16598500D01*
X67239799Y16591989D01*
X67102794Y16540889D01*
X66985738Y16453262D01*
X66898111Y16336206D01*
X66847011Y16199201D01*
X66840500Y16138638D01*
X66840500Y14341362D01*
X60385767Y14341362D01*
X64295500Y18251095D01*
X64336377Y18278409D01*
X64384595Y18288000D01*
X70740000Y18288000D01*
X70803000Y18271119D01*
X70849119Y18225000D01*
X70866000Y18162000D01*
X70866000Y2344909D01*
X70848335Y2280569D01*
X70800293Y2234271D01*
X70735344Y2218995D01*
X70671701Y2239026D01*
X70627209Y2288746D01*
X70606263Y2330812D01*
X70585956Y2371594D01*
X70555820Y2411500D01*
X70460561Y2537644D01*
X70450183Y2547105D01*
X70306787Y2677827D01*
X70190597Y2749769D01*
X70129875Y2787367D01*
X69935846Y2862534D01*
X69935845Y2862535D01*
X69731309Y2900769D01*
X69523229Y2900769D01*
X69386871Y2875280D01*
X69318691Y2862534D01*
X69124662Y2787367D01*
X68947752Y2677828D01*
X68793976Y2537644D01*
X68668583Y2371597D01*
X68575832Y2185328D01*
X68518888Y1985190D01*
X68499689Y1778000D01*
X68518888Y1570811D01*
X68575832Y1370673D01*
X68668583Y1184404D01*
X68793976Y1018357D01*
X68793978Y1018355D01*
X68947751Y878173D01*
X69124664Y768633D01*
X69168910Y751492D01*
X69223944Y709932D01*
X69248857Y645626D01*
X69236185Y577837D01*
X69189724Y526873D01*
X69123394Y508000D01*
X2195316Y508000D01*
X2128985Y526873D01*
X2082525Y577837D01*
X2069854Y645626D01*
X2094766Y709932D01*
X2149799Y751492D01*
X2266608Y796743D01*
X2438594Y903233D01*
X2588084Y1039511D01*
X2709988Y1200938D01*
X2800154Y1382016D01*
X2855512Y1576578D01*
X2874176Y1778000D01*
X2855512Y1979422D01*
X2800154Y2173984D01*
X2800153Y2173987D01*
X2709989Y2355061D01*
X2642560Y2444351D01*
X2588084Y2516489D01*
X2438594Y2652767D01*
X2340753Y2713348D01*
X2266609Y2759257D01*
X2077983Y2832330D01*
X2074367Y2833006D01*
X1879142Y2869500D01*
X1676858Y2869500D01*
X1544297Y2844720D01*
X1478016Y2832330D01*
X1289390Y2759257D01*
X1117407Y2652768D01*
X967915Y2516488D01*
X846010Y2355061D01*
X755846Y2173987D01*
X755190Y2171680D01*
X751154Y2164565D01*
X750641Y2163533D01*
X750585Y2163561D01*
X725797Y2119852D01*
X675877Y2087324D01*
X616592Y2081369D01*
X561201Y2103320D01*
X522088Y2148268D01*
X508000Y2206161D01*
X508000Y14214362D01*
X1816500Y14214362D01*
X1823011Y14153799D01*
X1848560Y14085298D01*
X1874111Y14016795D01*
X1961738Y13899739D01*
X2078794Y13812112D01*
X2078795Y13812112D01*
X2078796Y13812111D01*
X2194314Y13769025D01*
X2244646Y13734463D01*
X2272821Y13680293D01*
X2272219Y13619237D01*
X2242982Y13565633D01*
X2099676Y13409960D01*
X1976580Y13221549D01*
X1886177Y13015452D01*
X1838455Y12827001D01*
X1838456Y12827000D01*
X4511544Y12827000D01*
X4511544Y12827001D01*
X4463822Y13015452D01*
X4373419Y13221549D01*
X4250321Y13409963D01*
X4107018Y13565633D01*
X4077780Y13619237D01*
X4077178Y13680293D01*
X4105353Y13734463D01*
X4155683Y13769024D01*
X4271204Y13812111D01*
X4388261Y13899739D01*
X4475889Y14016796D01*
X4526989Y14153799D01*
X4533500Y14214362D01*
X4533500Y16011638D01*
X4526989Y16072201D01*
X4475889Y16209204D01*
X4475888Y16209206D01*
X4388261Y16326262D01*
X4271205Y16413889D01*
X4185305Y16445928D01*
X4134201Y16464989D01*
X4073638Y16471500D01*
X2276362Y16471500D01*
X2215799Y16464989D01*
X2078794Y16413889D01*
X1961738Y16326262D01*
X1874111Y16209206D01*
X1832728Y16098253D01*
X1823011Y16072201D01*
X1816500Y16011638D01*
X1816500Y14214362D01*
X508000Y14214362D01*
X508000Y18162000D01*
X524881Y18225000D01*
X571000Y18271119D01*
X634000Y18288000D01*
X22353585Y18288000D01*
X22401803Y18278409D01*
G37*
%TD.AperFunction*%
%TA.AperFunction,Conductor*%
G36*
X58612500Y18271119D02*
G01*
X58658619Y18225000D01*
X58675500Y18162000D01*
X58675500Y18031095D01*
X58665909Y17982877D01*
X58638595Y17942000D01*
X51744836Y11048243D01*
X51728516Y11035167D01*
X51679870Y10983365D01*
X51677120Y10980527D01*
X51657368Y10960774D01*
X51657364Y10960770D01*
X51657365Y10960770D01*
X51654879Y10957567D01*
X51647187Y10948561D01*
X51616913Y10916322D01*
X51607152Y10898566D01*
X51596301Y10882048D01*
X51583885Y10866041D01*
X51566324Y10825461D01*
X51561104Y10814805D01*
X51539804Y10776060D01*
X51534767Y10756441D01*
X51528364Y10737739D01*
X51520318Y10719145D01*
X51513401Y10675476D01*
X51510995Y10663856D01*
X51500000Y10621030D01*
X51500000Y10600776D01*
X51498449Y10581066D01*
X51495279Y10561058D01*
X51499441Y10517039D01*
X51500000Y10505181D01*
X51500000Y9164353D01*
X51497704Y9143565D01*
X51499938Y9072514D01*
X51500000Y9068555D01*
X51500000Y9040643D01*
X51500507Y9036627D01*
X51501437Y9024804D01*
X51502826Y8980608D01*
X51508477Y8961159D01*
X51512486Y8941804D01*
X51515025Y8921706D01*
X51515025Y8921704D01*
X51515026Y8921703D01*
X51526859Y8891815D01*
X51531301Y8880597D01*
X51535144Y8869370D01*
X51547480Y8826910D01*
X51557794Y8809470D01*
X51566487Y8791726D01*
X51573948Y8772883D01*
X51573949Y8772881D01*
X51599931Y8737120D01*
X51606448Y8727199D01*
X51628958Y8689137D01*
X51643278Y8674817D01*
X51656118Y8659784D01*
X51668026Y8643395D01*
X51668027Y8643394D01*
X51668028Y8643393D01*
X51692789Y8622909D01*
X51702098Y8615208D01*
X51710878Y8607218D01*
X52011877Y8306219D01*
X52036508Y8271369D01*
X52048092Y8230295D01*
X52065458Y8065071D01*
X52124472Y7883444D01*
X52221868Y7714750D01*
X52238749Y7651750D01*
X52221868Y7588750D01*
X52124472Y7420057D01*
X52065458Y7238430D01*
X52045496Y7048500D01*
X52065458Y6858570D01*
X52108857Y6725003D01*
X52111989Y6658581D01*
X52080874Y6599814D01*
X52024177Y6565070D01*
X51957689Y6564026D01*
X51899929Y6596972D01*
X50454405Y8042496D01*
X50427091Y8083373D01*
X50417500Y8131591D01*
X50417500Y18162000D01*
X50434381Y18225000D01*
X50480500Y18271119D01*
X50543500Y18288000D01*
X58549500Y18288000D01*
X58612500Y18271119D01*
G37*
%TD.AperFunction*%
%TD*%
M02*
