%TF.GenerationSoftware,KiCad,Pcbnew,7.0.1*%
%TF.CreationDate,2023-05-21T17:20:38+09:00*%
%TF.ProjectId,joystick_74hc165_input_jst,6a6f7973-7469-4636-9b5f-373468633136,1*%
%TF.SameCoordinates,PX6f92990PY6f3bc80*%
%TF.FileFunction,Copper,L1,Top*%
%TF.FilePolarity,Positive*%
%FSLAX46Y46*%
G04 Gerber Fmt 4.6, Leading zero omitted, Abs format (unit mm)*
G04 Created by KiCad (PCBNEW 7.0.1) date 2023-05-21 17:20:38*
%MOMM*%
%LPD*%
G01*
G04 APERTURE LIST*
G04 Aperture macros list*
%AMRoundRect*
0 Rectangle with rounded corners*
0 $1 Rounding radius*
0 $2 $3 $4 $5 $6 $7 $8 $9 X,Y pos of 4 corners*
0 Add a 4 corners polygon primitive as box body*
4,1,4,$2,$3,$4,$5,$6,$7,$8,$9,$2,$3,0*
0 Add four circle primitives for the rounded corners*
1,1,$1+$1,$2,$3*
1,1,$1+$1,$4,$5*
1,1,$1+$1,$6,$7*
1,1,$1+$1,$8,$9*
0 Add four rect primitives between the rounded corners*
20,1,$1+$1,$2,$3,$4,$5,0*
20,1,$1+$1,$4,$5,$6,$7,0*
20,1,$1+$1,$6,$7,$8,$9,0*
20,1,$1+$1,$8,$9,$2,$3,0*%
%AMFreePoly0*
4,1,19,0.500000,-0.750000,0.000000,-0.750000,0.000000,-0.744911,-0.071157,-0.744911,-0.207708,-0.704816,-0.327430,-0.627875,-0.420627,-0.520320,-0.479746,-0.390866,-0.500000,-0.250000,-0.500000,0.250000,-0.479746,0.390866,-0.420627,0.520320,-0.327430,0.627875,-0.207708,0.704816,-0.071157,0.744911,0.000000,0.744911,0.000000,0.750000,0.500000,0.750000,0.500000,-0.750000,0.500000,-0.750000,
$1*%
%AMFreePoly1*
4,1,19,0.000000,0.744911,0.071157,0.744911,0.207708,0.704816,0.327430,0.627875,0.420627,0.520320,0.479746,0.390866,0.500000,0.250000,0.500000,-0.250000,0.479746,-0.390866,0.420627,-0.520320,0.327430,-0.627875,0.207708,-0.704816,0.071157,-0.744911,0.000000,-0.744911,0.000000,-0.750000,-0.500000,-0.750000,-0.500000,0.750000,0.000000,0.750000,0.000000,0.744911,0.000000,0.744911,
$1*%
G04 Aperture macros list end*
%TA.AperFunction,ComponentPad*%
%ADD10R,1.700000X1.700000*%
%TD*%
%TA.AperFunction,ComponentPad*%
%ADD11O,1.700000X1.700000*%
%TD*%
%TA.AperFunction,SMDPad,CuDef*%
%ADD12R,0.900000X0.400000*%
%TD*%
%TA.AperFunction,SMDPad,CuDef*%
%ADD13RoundRect,0.250000X-0.337500X-0.475000X0.337500X-0.475000X0.337500X0.475000X-0.337500X0.475000X0*%
%TD*%
%TA.AperFunction,SMDPad,CuDef*%
%ADD14RoundRect,0.150000X-0.825000X-0.150000X0.825000X-0.150000X0.825000X0.150000X-0.825000X0.150000X0*%
%TD*%
%TA.AperFunction,ComponentPad*%
%ADD15RoundRect,0.250000X-0.750000X0.600000X-0.750000X-0.600000X0.750000X-0.600000X0.750000X0.600000X0*%
%TD*%
%TA.AperFunction,ComponentPad*%
%ADD16O,2.000000X1.700000*%
%TD*%
%TA.AperFunction,ComponentPad*%
%ADD17RoundRect,0.250000X0.600000X0.725000X-0.600000X0.725000X-0.600000X-0.725000X0.600000X-0.725000X0*%
%TD*%
%TA.AperFunction,ComponentPad*%
%ADD18O,1.700000X1.950000*%
%TD*%
%TA.AperFunction,SMDPad,CuDef*%
%ADD19R,1.000000X1.500000*%
%TD*%
%TA.AperFunction,SMDPad,CuDef*%
%ADD20FreePoly0,0.000000*%
%TD*%
%TA.AperFunction,SMDPad,CuDef*%
%ADD21FreePoly1,0.000000*%
%TD*%
%TA.AperFunction,ViaPad*%
%ADD22C,0.800000*%
%TD*%
%TA.AperFunction,Conductor*%
%ADD23C,0.250000*%
%TD*%
%TA.AperFunction,Conductor*%
%ADD24C,0.500000*%
%TD*%
G04 APERTURE END LIST*
%TA.AperFunction,EtchedComponent*%
%TO.C,JP2*%
G36*
X10044000Y4526000D02*
G01*
X9544000Y4526000D01*
X9544000Y5126000D01*
X10044000Y5126000D01*
X10044000Y4526000D01*
G37*
%TD.AperFunction*%
%TA.AperFunction,EtchedComponent*%
%TO.C,JP1*%
G36*
X10044000Y8640800D02*
G01*
X9544000Y8640800D01*
X9544000Y9240800D01*
X10044000Y9240800D01*
X10044000Y8640800D01*
G37*
%TD.AperFunction*%
%TA.AperFunction,EtchedComponent*%
%TO.C,JP5*%
G36*
X14067600Y16819600D02*
G01*
X13567600Y16819600D01*
X13567600Y17419600D01*
X14067600Y17419600D01*
X14067600Y16819600D01*
G37*
%TD.AperFunction*%
%TA.AperFunction,EtchedComponent*%
%TO.C,JP6*%
G36*
X17420400Y16819600D02*
G01*
X16920400Y16819600D01*
X16920400Y17419600D01*
X17420400Y17419600D01*
X17420400Y16819600D01*
G37*
%TD.AperFunction*%
%TA.AperFunction,EtchedComponent*%
%TO.C,JP4*%
G36*
X10714800Y16819600D02*
G01*
X10214800Y16819600D01*
X10214800Y17419600D01*
X10714800Y17419600D01*
X10714800Y16819600D01*
G37*
%TD.AperFunction*%
%TA.AperFunction,EtchedComponent*%
%TO.C,JP3*%
G36*
X7362000Y16819600D02*
G01*
X6862000Y16819600D01*
X6862000Y17419600D01*
X7362000Y17419600D01*
X7362000Y16819600D01*
G37*
%TD.AperFunction*%
%TD*%
D10*
%TO.P,OUT1,1,Pin_1*%
%TO.N,VCC*%
X68199000Y15240000D03*
D11*
%TO.P,OUT1,2,Pin_2*%
%TO.N,GND*%
X68199000Y12700000D03*
%TO.P,OUT1,3,Pin_3*%
%TO.N,/LOAD*%
X68199000Y10160000D03*
%TO.P,OUT1,4,Pin_4*%
%TO.N,/CLK*%
X68199000Y7620000D03*
%TO.P,OUT1,5,Pin_5*%
%TO.N,/D_OUT*%
X68199000Y5080000D03*
%TD*%
D12*
%TO.P,RN2,1,R1.1*%
%TO.N,/PULL*%
X64096000Y6420000D03*
%TO.P,RN2,2,R2.1*%
X64096000Y7220000D03*
%TO.P,RN2,3,R3.1*%
X64096000Y8020000D03*
%TO.P,RN2,4,R4.1*%
X64096000Y8820000D03*
%TO.P,RN2,5,R4.2*%
%TO.N,/C_P1_START*%
X62396000Y8820000D03*
%TO.P,RN2,6,R3.2*%
%TO.N,/C_P1_SELECT*%
X62396000Y8020000D03*
%TO.P,RN2,7,R2.2*%
%TO.N,/C_P1_A*%
X62396000Y7220000D03*
%TO.P,RN2,8,R1.2*%
%TO.N,/C_P1_B*%
X62396000Y6420000D03*
%TD*%
%TO.P,RN1,1,R1.1*%
%TO.N,/PULL*%
X50077000Y8820000D03*
%TO.P,RN1,2,R2.1*%
X50077000Y8020000D03*
%TO.P,RN1,3,R3.1*%
X50077000Y7220000D03*
%TO.P,RN1,4,R4.1*%
X50077000Y6420000D03*
%TO.P,RN1,5,R4.2*%
%TO.N,/C_P1_UP*%
X51777000Y6420000D03*
%TO.P,RN1,6,R3.2*%
%TO.N,/C_P1_DOWN*%
X51777000Y7220000D03*
%TO.P,RN1,7,R2.2*%
%TO.N,/C_P1_LEFT*%
X51777000Y8020000D03*
%TO.P,RN1,8,R1.2*%
%TO.N,/C_P1_RIGHT*%
X51777000Y8820000D03*
%TD*%
%TO.P,RN4,1,R1.1*%
%TO.N,/PULL*%
X45935000Y6547000D03*
%TO.P,RN4,2,R2.1*%
X45935000Y7347000D03*
%TO.P,RN4,3,R3.1*%
X45935000Y8147000D03*
%TO.P,RN4,4,R4.1*%
X45935000Y8947000D03*
%TO.P,RN4,5,R4.2*%
%TO.N,/C_P2_UP*%
X44235000Y8947000D03*
%TO.P,RN4,6,R3.2*%
%TO.N,/C_P2_DOWN*%
X44235000Y8147000D03*
%TO.P,RN4,7,R2.2*%
%TO.N,/C_P2_LEFT*%
X44235000Y7347000D03*
%TO.P,RN4,8,R1.2*%
%TO.N,/C_P2_RIGHT*%
X44235000Y6547000D03*
%TD*%
%TO.P,RN5,1,R1.1*%
%TO.N,/PULL*%
X13945500Y8947000D03*
%TO.P,RN5,2,R2.1*%
X13945500Y8147000D03*
%TO.P,RN5,3,R3.1*%
X13945500Y7347000D03*
%TO.P,RN5,4,R4.1*%
X13945500Y6547000D03*
%TO.P,RN5,5,R4.2*%
%TO.N,/C_P2_START*%
X15645500Y6547000D03*
%TO.P,RN5,6,R3.2*%
%TO.N,/C_P2_SELECT*%
X15645500Y7347000D03*
%TO.P,RN5,7,R2.2*%
%TO.N,/C_P2_A*%
X15645500Y8147000D03*
%TO.P,RN5,8,R1.2*%
%TO.N,/C_P2_B*%
X15645500Y8947000D03*
%TD*%
%TO.P,RN6,1,R1.1*%
%TO.N,/PULL*%
X27901000Y6420000D03*
%TO.P,RN6,2,R2.1*%
X27901000Y7220000D03*
%TO.P,RN6,3,R3.1*%
X27901000Y8020000D03*
%TO.P,RN6,4,R4.1*%
X27901000Y8820000D03*
%TO.P,RN6,5,R4.2*%
%TO.N,/C_P2_X*%
X26201000Y8820000D03*
%TO.P,RN6,6,R3.2*%
%TO.N,/C_P2_Y*%
X26201000Y8020000D03*
%TO.P,RN6,7,R2.2*%
%TO.N,/C_P2_L*%
X26201000Y7220000D03*
%TO.P,RN6,8,R1.2*%
%TO.N,/C_P2_R*%
X26201000Y6420000D03*
%TD*%
%TO.P,RN3,1,R1.1*%
%TO.N,/PULL*%
X31916000Y8820000D03*
%TO.P,RN3,2,R2.1*%
X31916000Y8020000D03*
%TO.P,RN3,3,R3.1*%
X31916000Y7220000D03*
%TO.P,RN3,4,R4.1*%
X31916000Y6420000D03*
%TO.P,RN3,5,R4.2*%
%TO.N,/C_P1_X*%
X33616000Y6420000D03*
%TO.P,RN3,6,R3.2*%
%TO.N,/C_P1_Y*%
X33616000Y7220000D03*
%TO.P,RN3,7,R2.2*%
%TO.N,/C_P1_L*%
X33616000Y8020000D03*
%TO.P,RN3,8,R1.2*%
%TO.N,/C_P1_R*%
X33616000Y8820000D03*
%TD*%
D13*
%TO.P,C1,1*%
%TO.N,VCC*%
X61700500Y12700000D03*
%TO.P,C1,2*%
%TO.N,GND*%
X63775500Y12700000D03*
%TD*%
D14*
%TO.P,74HC165_1,1,~{PL}*%
%TO.N,/LOAD*%
X54548000Y12192000D03*
%TO.P,74HC165_1,2,CP*%
%TO.N,/CLK*%
X54548000Y10922000D03*
%TO.P,74HC165_1,3,D4*%
%TO.N,/C_P1_RIGHT*%
X54548000Y9652000D03*
%TO.P,74HC165_1,4,D5*%
%TO.N,/C_P1_LEFT*%
X54548000Y8382000D03*
%TO.P,74HC165_1,5,D6*%
%TO.N,/C_P1_DOWN*%
X54548000Y7112000D03*
%TO.P,74HC165_1,6,D7*%
%TO.N,/C_P1_UP*%
X54548000Y5842000D03*
%TO.P,74HC165_1,7,~{Q7}*%
%TO.N,unconnected-(74HC165_1-Pad7)*%
X54548000Y4572000D03*
%TO.P,74HC165_1,8,GND*%
%TO.N,GND*%
X54548000Y3302000D03*
%TO.P,74HC165_1,9,Q7*%
%TO.N,/D_OUT*%
X59498000Y3302000D03*
%TO.P,74HC165_1,10,DS*%
%TO.N,/D_OUT_2*%
X59498000Y4572000D03*
%TO.P,74HC165_1,11,D0*%
%TO.N,/C_P1_B*%
X59498000Y5842000D03*
%TO.P,74HC165_1,12,D1*%
%TO.N,/C_P1_A*%
X59498000Y7112000D03*
%TO.P,74HC165_1,13,D2*%
%TO.N,/C_P1_SELECT*%
X59498000Y8382000D03*
%TO.P,74HC165_1,14,D3*%
%TO.N,/C_P1_START*%
X59498000Y9652000D03*
%TO.P,74HC165_1,15,~{CE}*%
%TO.N,GND*%
X59498000Y10922000D03*
%TO.P,74HC165_1,16,VCC*%
%TO.N,VCC*%
X59498000Y12192000D03*
%TD*%
%TO.P,74HC165_2,1,~{PL}*%
%TO.N,/LOAD*%
X36450500Y12128500D03*
%TO.P,74HC165_2,2,CP*%
%TO.N,/CLK*%
X36450500Y10858500D03*
%TO.P,74HC165_2,3,D4*%
%TO.N,/C_P1_R*%
X36450500Y9588500D03*
%TO.P,74HC165_2,4,D5*%
%TO.N,/C_P1_L*%
X36450500Y8318500D03*
%TO.P,74HC165_2,5,D6*%
%TO.N,/C_P1_Y*%
X36450500Y7048500D03*
%TO.P,74HC165_2,6,D7*%
%TO.N,/C_P1_X*%
X36450500Y5778500D03*
%TO.P,74HC165_2,7,~{Q7}*%
%TO.N,unconnected-(74HC165_2-Pad7)*%
X36450500Y4508500D03*
%TO.P,74HC165_2,8,GND*%
%TO.N,GND*%
X36450500Y3238500D03*
%TO.P,74HC165_2,9,Q7*%
%TO.N,/D_OUT_2*%
X41400500Y3238500D03*
%TO.P,74HC165_2,10,DS*%
%TO.N,/D_OUT_3*%
X41400500Y4508500D03*
%TO.P,74HC165_2,11,D0*%
%TO.N,/C_P2_RIGHT*%
X41400500Y5778500D03*
%TO.P,74HC165_2,12,D1*%
%TO.N,/C_P2_LEFT*%
X41400500Y7048500D03*
%TO.P,74HC165_2,13,D2*%
%TO.N,/C_P2_DOWN*%
X41400500Y8318500D03*
%TO.P,74HC165_2,14,D3*%
%TO.N,/C_P2_UP*%
X41400500Y9588500D03*
%TO.P,74HC165_2,15,~{CE}*%
%TO.N,GND*%
X41400500Y10858500D03*
%TO.P,74HC165_2,16,VCC*%
%TO.N,VCC*%
X41400500Y12128500D03*
%TD*%
%TO.P,74HC165_3,1,~{PL}*%
%TO.N,/LOAD*%
X18416500Y12128500D03*
%TO.P,74HC165_3,2,CP*%
%TO.N,/CLK*%
X18416500Y10858500D03*
%TO.P,74HC165_3,3,D4*%
%TO.N,/C_P2_B*%
X18416500Y9588500D03*
%TO.P,74HC165_3,4,D5*%
%TO.N,/C_P2_A*%
X18416500Y8318500D03*
%TO.P,74HC165_3,5,D6*%
%TO.N,/C_P2_SELECT*%
X18416500Y7048500D03*
%TO.P,74HC165_3,6,D7*%
%TO.N,/C_P2_START*%
X18416500Y5778500D03*
%TO.P,74HC165_3,7,~{Q7}*%
%TO.N,unconnected-(74HC165_3-Pad7)*%
X18416500Y4508500D03*
%TO.P,74HC165_3,8,GND*%
%TO.N,GND*%
X18416500Y3238500D03*
%TO.P,74HC165_3,9,Q7*%
%TO.N,/D_OUT_3*%
X23366500Y3238500D03*
%TO.P,74HC165_3,10,DS*%
%TO.N,/D_IN*%
X23366500Y4508500D03*
%TO.P,74HC165_3,11,D0*%
%TO.N,/C_P2_R*%
X23366500Y5778500D03*
%TO.P,74HC165_3,12,D1*%
%TO.N,/C_P2_L*%
X23366500Y7048500D03*
%TO.P,74HC165_3,13,D2*%
%TO.N,/C_P2_Y*%
X23366500Y8318500D03*
%TO.P,74HC165_3,14,D3*%
%TO.N,/C_P2_X*%
X23366500Y9588500D03*
%TO.P,74HC165_3,15,~{CE}*%
%TO.N,GND*%
X23366500Y10858500D03*
%TO.P,74HC165_3,16,VCC*%
%TO.N,VCC*%
X23366500Y12128500D03*
%TD*%
D13*
%TO.P,C2,1*%
%TO.N,VCC*%
X43539500Y12700000D03*
%TO.P,C2,2*%
%TO.N,GND*%
X45614500Y12700000D03*
%TD*%
%TO.P,C3,1*%
%TO.N,VCC*%
X25505500Y12700000D03*
%TO.P,C3,2*%
%TO.N,GND*%
X27580500Y12700000D03*
%TD*%
D15*
%TO.P,J22,1,Pin_1*%
%TO.N,/C_SHORT*%
X52070000Y23876000D03*
D16*
%TO.P,J22,2,Pin_2*%
%TO.N,/C_P2_START*%
X52070000Y21376000D03*
%TD*%
D15*
%TO.P,J23,1,Pin_1*%
%TO.N,/C_SHORT*%
X45212000Y23876000D03*
D16*
%TO.P,J23,2,Pin_2*%
%TO.N,/C_P2_SELECT*%
X45212000Y21376000D03*
%TD*%
D15*
%TO.P,J24,1,Pin_1*%
%TO.N,/C_SHORT*%
X38354000Y23876000D03*
D16*
%TO.P,J24,2,Pin_2*%
%TO.N,/C_P2_A*%
X38354000Y21376000D03*
%TD*%
D15*
%TO.P,J25,1,Pin_1*%
%TO.N,/C_SHORT*%
X31496000Y23876000D03*
D16*
%TO.P,J25,2,Pin_2*%
%TO.N,/C_P2_B*%
X31496000Y21376000D03*
%TD*%
D15*
%TO.P,J26,1,Pin_1*%
%TO.N,/C_SHORT*%
X24638000Y23876000D03*
D16*
%TO.P,J26,2,Pin_2*%
%TO.N,/C_P2_X*%
X24638000Y21376000D03*
%TD*%
D15*
%TO.P,J27,1,Pin_1*%
%TO.N,/C_SHORT*%
X17780000Y23876000D03*
D16*
%TO.P,J27,2,Pin_2*%
%TO.N,/C_P2_Y*%
X17780000Y21376000D03*
%TD*%
D15*
%TO.P,J28,1,Pin_1*%
%TO.N,/C_SHORT*%
X10922000Y23876000D03*
D16*
%TO.P,J28,2,Pin_2*%
%TO.N,/C_P2_L*%
X10922000Y21376000D03*
%TD*%
D15*
%TO.P,J29,1,Pin_1*%
%TO.N,/C_SHORT*%
X4064000Y23876000D03*
D16*
%TO.P,J29,2,Pin_2*%
%TO.N,/C_P2_R*%
X4064000Y21376000D03*
%TD*%
D15*
%TO.P,J16,1,Pin_1*%
%TO.N,/C_SHORT*%
X24638000Y32512000D03*
D16*
%TO.P,J16,2,Pin_2*%
%TO.N,/C_P1_X*%
X24638000Y30012000D03*
%TD*%
D15*
%TO.P,J15,1,Pin_1*%
%TO.N,/C_SHORT*%
X31496000Y32512000D03*
D16*
%TO.P,J15,2,Pin_2*%
%TO.N,/C_P1_B*%
X31496000Y30012000D03*
%TD*%
D15*
%TO.P,J14,1,Pin_1*%
%TO.N,/C_SHORT*%
X38354000Y32512000D03*
D16*
%TO.P,J14,2,Pin_2*%
%TO.N,/C_P1_A*%
X38354000Y30012000D03*
%TD*%
D15*
%TO.P,J18,1,Pin_1*%
%TO.N,/C_SHORT*%
X10922000Y32512000D03*
D16*
%TO.P,J18,2,Pin_2*%
%TO.N,/C_P1_L*%
X10922000Y30012000D03*
%TD*%
D15*
%TO.P,J19,1,Pin_1*%
%TO.N,/C_SHORT*%
X4064000Y32512000D03*
D16*
%TO.P,J19,2,Pin_2*%
%TO.N,/C_P1_R*%
X4064000Y30012000D03*
%TD*%
D15*
%TO.P,J17,1,Pin_1*%
%TO.N,/C_SHORT*%
X17780000Y32512000D03*
D16*
%TO.P,J17,2,Pin_2*%
%TO.N,/C_P1_Y*%
X17780000Y30012000D03*
%TD*%
D15*
%TO.P,J13,1,Pin_1*%
%TO.N,/C_SHORT*%
X45212000Y32512000D03*
D16*
%TO.P,J13,2,Pin_2*%
%TO.N,/C_P1_SELECT*%
X45212000Y30012000D03*
%TD*%
D17*
%TO.P,J11,1,Pin_1*%
%TO.N,/C_P1_UP*%
X68072000Y31496000D03*
D18*
%TO.P,J11,2,Pin_2*%
%TO.N,/C_P1_DOWN*%
X65572000Y31496000D03*
%TO.P,J11,3,Pin_3*%
%TO.N,/C_P1_RIGHT*%
X63072000Y31496000D03*
%TO.P,J11,4,Pin_4*%
%TO.N,/C_P1_LEFT*%
X60572000Y31496000D03*
%TO.P,J11,5,Pin_5*%
%TO.N,/C_SHORT*%
X58072000Y31496000D03*
%TD*%
D15*
%TO.P,J12,1,Pin_1*%
%TO.N,/C_SHORT*%
X52070000Y32512000D03*
D16*
%TO.P,J12,2,Pin_2*%
%TO.N,/C_P1_START*%
X52070000Y30012000D03*
%TD*%
D17*
%TO.P,J21,1,Pin_1*%
%TO.N,/C_P2_UP*%
X68072000Y22860000D03*
D18*
%TO.P,J21,2,Pin_2*%
%TO.N,/C_P2_DOWN*%
X65572000Y22860000D03*
%TO.P,J21,3,Pin_3*%
%TO.N,/C_P2_RIGHT*%
X63072000Y22860000D03*
%TO.P,J21,4,Pin_4*%
%TO.N,/C_P2_LEFT*%
X60572000Y22860000D03*
%TO.P,J21,5,Pin_5*%
%TO.N,/C_SHORT*%
X58072000Y22860000D03*
%TD*%
D10*
%TO.P,IN1,1,Pin_1*%
%TO.N,VCC*%
X3175000Y15113000D03*
D11*
%TO.P,IN1,2,Pin_2*%
%TO.N,GND*%
X3175000Y12573000D03*
%TO.P,IN1,3,Pin_3*%
%TO.N,/LOAD*%
X3175000Y10033000D03*
%TO.P,IN1,4,Pin_4*%
%TO.N,/CLK*%
X3175000Y7493000D03*
%TO.P,IN1,5,Pin_5*%
%TO.N,/D_IN*%
X3175000Y4953000D03*
%TD*%
D19*
%TO.P,JP2,1,A*%
%TO.N,GND*%
X10444000Y4826000D03*
%TO.P,JP2,2,C*%
%TO.N,/C_SHORT*%
X9144000Y4826000D03*
%TO.P,JP2,3,B*%
%TO.N,VCC*%
X7844000Y4826000D03*
%TD*%
%TO.P,JP1,1,A*%
%TO.N,VCC*%
X10444000Y8940800D03*
%TO.P,JP1,2,C*%
%TO.N,/PULL*%
X9144000Y8940800D03*
%TO.P,JP1,3,B*%
%TO.N,GND*%
X7844000Y8940800D03*
%TD*%
D20*
%TO.P,JP5,1,A*%
%TO.N,/C_P2_Y*%
X13167600Y17119600D03*
D21*
%TO.P,JP5,2,B*%
%TO.N,/C_P2_LEFT*%
X14467600Y17119600D03*
%TD*%
D20*
%TO.P,JP6,1,A*%
%TO.N,/C_P2_X*%
X16520400Y17119600D03*
D21*
%TO.P,JP6,2,B*%
%TO.N,/C_P2_RIGHT*%
X17820400Y17119600D03*
%TD*%
D20*
%TO.P,JP4,1,A*%
%TO.N,/C_P2_L*%
X9814800Y17119600D03*
D21*
%TO.P,JP4,2,B*%
%TO.N,/C_P2_DOWN*%
X11114800Y17119600D03*
%TD*%
D20*
%TO.P,JP3,1,A*%
%TO.N,/C_P2_R*%
X6462000Y17119600D03*
D21*
%TO.P,JP3,2,B*%
%TO.N,/C_P2_UP*%
X7762000Y17119600D03*
%TD*%
D22*
%TO.N,/PULL*%
X9144000Y7061200D03*
X64071494Y3492509D03*
X13945506Y2833006D03*
X29845001Y3429001D03*
X47815492Y3111510D03*
%TO.N,GND*%
X62928500Y15494000D03*
X44640500Y3492500D03*
X33782000Y12700000D03*
X14986000Y12954000D03*
X50800000Y12700000D03*
X57086500Y7747000D03*
X39052500Y11176000D03*
X38925500Y7429500D03*
X29845000Y7366000D03*
X55054500Y15367000D03*
X51943000Y12700000D03*
X52387500Y15430500D03*
X26924000Y3683000D03*
X15494000Y4191000D03*
X33083500Y3619500D03*
X63881000Y10668000D03*
X65278000Y4572000D03*
X10820400Y6908800D03*
X13970000Y12954000D03*
X30924500Y12700000D03*
X5943600Y7620000D03*
X48006000Y5651500D03*
X53721000Y15430500D03*
X20891500Y6477000D03*
X32448500Y12700000D03*
X20537010Y11176000D03*
X64389000Y15494000D03*
X62992000Y4572000D03*
%TO.N,/LOAD*%
X16065500Y12128500D03*
%TO.N,/CLK*%
X16065500Y10922000D03*
%TO.N,/C_P1_START*%
X61213980Y9508490D03*
%TO.N,/C_P1_SELECT*%
X61277500Y8318500D03*
%TO.N,/C_P1_A*%
X61277503Y7048487D03*
%TO.N,/C_P1_B*%
X61277500Y5905500D03*
%TO.N,/C_P1_UP*%
X52959000Y5715000D03*
%TO.N,/C_P1_DOWN*%
X52959000Y7048500D03*
%TO.N,/C_P1_LEFT*%
X52959000Y8255000D03*
%TO.N,/C_P1_RIGHT*%
X52959000Y9525000D03*
%TO.N,/C_P1_X*%
X34798000Y5715000D03*
%TO.N,/C_P1_Y*%
X34734506Y7048500D03*
%TO.N,/C_P1_L*%
X34802660Y8255000D03*
%TO.N,/C_P1_R*%
X34802660Y9548299D03*
%TO.N,/C_P2_START*%
X16865600Y5867400D03*
X22606000Y16897044D03*
%TO.N,/C_P2_SELECT*%
X21592280Y16908644D03*
X16827500Y7175500D03*
%TO.N,/C_P2_A*%
X20592458Y16934141D03*
X16827500Y8445500D03*
%TO.N,/C_P2_B*%
X19592898Y16964190D03*
X16789400Y9677400D03*
%TO.N,/C_P2_UP*%
X45974000Y16256000D03*
X43053000Y9652000D03*
%TO.N,/C_P2_DOWN*%
X44704000Y16319500D03*
X43053000Y8255000D03*
%TO.N,/C_P2_LEFT*%
X43370500Y16383000D03*
X43053000Y6985000D03*
%TO.N,/C_P2_RIGHT*%
X41973500Y16447033D03*
X43053000Y5715000D03*
%TO.N,/C_P2_X*%
X25018998Y9652000D03*
%TO.N,/C_P2_Y*%
X25019000Y8255000D03*
%TO.N,/C_P2_L*%
X25019000Y6985000D03*
%TO.N,/C_P2_R*%
X25019000Y5715000D03*
%TD*%
D23*
%TO.N,/PULL*%
X9144000Y7061200D02*
X9144000Y8890000D01*
X31916000Y6420000D02*
X31916000Y5500000D01*
X45935000Y8947000D02*
X45935000Y4992002D01*
X31916000Y6420000D02*
X31916000Y8820000D01*
X27901000Y5373002D02*
X29845001Y3429001D01*
X50077000Y5373018D02*
X47815492Y3111510D01*
X64096000Y8820000D02*
X64096000Y3517015D01*
X13945500Y8947000D02*
X13945500Y2833012D01*
X31916000Y5500000D02*
X29845001Y3429001D01*
X27901000Y8820000D02*
X27901000Y5373002D01*
X64096000Y3517015D02*
X64071494Y3492509D01*
X13945500Y2833012D02*
X13945506Y2833006D01*
X45935000Y4992002D02*
X47815492Y3111510D01*
X50077000Y6420000D02*
X50077000Y8820000D01*
X50077000Y6420000D02*
X50077000Y5373018D01*
D24*
%TO.N,VCC*%
X7844000Y3576000D02*
X8753000Y2667000D01*
X12446000Y3365500D02*
X12446000Y8890000D01*
X61722000Y14097000D02*
X65913000Y14097000D01*
X25505500Y12700000D02*
X25505500Y14055000D01*
X23366500Y12190500D02*
X23876000Y12700000D01*
X12331700Y8940800D02*
X12382500Y8890000D01*
X61700500Y13948500D02*
X61722000Y13970000D01*
X23876000Y12700000D02*
X25505500Y12700000D01*
X61700500Y12700000D02*
X60133000Y12700000D01*
X11747500Y2667000D02*
X12446000Y3365500D01*
X60133000Y12700000D02*
X59561500Y12128500D01*
X41972000Y12700000D02*
X43539500Y12700000D01*
X59485300Y12128500D02*
X59561500Y12128500D01*
X61722000Y13970000D02*
X61722000Y14097000D01*
X3175000Y15113000D02*
X4953000Y15113000D01*
X8753000Y2667000D02*
X11747500Y2667000D01*
X7844000Y4826000D02*
X7844000Y3576000D01*
X67056000Y15240000D02*
X68199000Y15240000D01*
X65913000Y14097000D02*
X67056000Y15240000D01*
X25505500Y14055000D02*
X25463500Y14097000D01*
X43539500Y14075500D02*
X43539500Y12700000D01*
X43561000Y14097000D02*
X43539500Y14075500D01*
X12446000Y8953500D02*
X12446000Y14097000D01*
X12382500Y8890000D02*
X12446000Y8953500D01*
X41400500Y12128500D02*
X41972000Y12700000D01*
X4953000Y15113000D02*
X5969000Y14097000D01*
X5969000Y14097000D02*
X65913000Y14097000D01*
X10444000Y8940800D02*
X12331700Y8940800D01*
X23366500Y12128500D02*
X23366500Y12190500D01*
X61700500Y12700000D02*
X61700500Y13948500D01*
X12446000Y8890000D02*
X12382500Y8890000D01*
%TO.N,GND*%
X63627000Y10922000D02*
X63881000Y10668000D01*
X20854510Y10858500D02*
X20537010Y11176000D01*
X41400500Y10858500D02*
X39370000Y10858500D01*
X59498000Y10922000D02*
X63627000Y10922000D01*
X23366500Y10858500D02*
X20854510Y10858500D01*
X39370000Y10858500D02*
X39052500Y11176000D01*
D23*
%TO.N,/D_IN*%
X3175000Y4953000D02*
X6540500Y1587500D01*
X22391500Y4508500D02*
X23366500Y4508500D01*
X6540500Y1587500D02*
X19470500Y1587500D01*
X19470500Y1587500D02*
X22391500Y4508500D01*
%TO.N,/D_OUT*%
X65405000Y2032000D02*
X68199000Y4826000D01*
X60691800Y2032000D02*
X65405000Y2032000D01*
X68199000Y4826000D02*
X68199000Y5080000D01*
X59294800Y3429000D02*
X60691800Y2032000D01*
%TO.N,/LOAD*%
X54040000Y11557000D02*
X54611500Y12128500D01*
X24780075Y11503490D02*
X24865598Y11589013D01*
X40378742Y11503490D02*
X42422258Y11503490D01*
X35369500Y12128500D02*
X36450500Y12128500D01*
X67818000Y10160000D02*
X68199000Y10160000D01*
X57914732Y12128500D02*
X58489742Y11553490D01*
X40132000Y11557000D02*
X40325232Y11557000D01*
X42422258Y11503490D02*
X42475768Y11557000D01*
X26273925Y11503490D02*
X34109490Y11503490D01*
X22151510Y11503490D02*
X24780075Y11503490D01*
X18416500Y12128500D02*
X21526500Y12128500D01*
X21526500Y12128500D02*
X22151510Y11503490D01*
X34734500Y12128500D02*
X35369500Y12128500D01*
X34109490Y11503490D02*
X34734500Y12128500D01*
X66424510Y11553490D02*
X67818000Y10160000D01*
X58489742Y11553490D02*
X66424510Y11553490D01*
X18416500Y12128500D02*
X16065500Y12128500D01*
X40325232Y11557000D02*
X40378742Y11503490D01*
X26188402Y11589013D02*
X26273925Y11503490D01*
X36450500Y12128500D02*
X39560500Y12128500D01*
X24865598Y11589013D02*
X26188402Y11589013D01*
X54611500Y12128500D02*
X57914732Y12128500D01*
X39560500Y12128500D02*
X40132000Y11557000D01*
X42475768Y11557000D02*
X54040000Y11557000D01*
%TO.N,/CLK*%
X16129000Y10858500D02*
X16065500Y10922000D01*
X37693600Y10947400D02*
X38427490Y10213510D01*
X62318508Y10296990D02*
X62772998Y9842500D01*
X18416500Y10858500D02*
X16129000Y10858500D01*
X36361600Y10947400D02*
X37693600Y10947400D01*
X62772998Y9842500D02*
X65849500Y9842500D01*
X56632010Y10296990D02*
X62318508Y10296990D01*
X24368278Y10213510D02*
X19061490Y10213510D01*
X54416521Y11053479D02*
X54611500Y10858500D01*
X36450500Y10858500D02*
X25013268Y10858500D01*
X65849500Y9842500D02*
X68072000Y7620000D01*
X56070500Y10858500D02*
X56632010Y10296990D01*
X25013268Y10858500D02*
X24368278Y10213510D01*
X19061490Y10213510D02*
X18416500Y10858500D01*
X68072000Y7620000D02*
X68199000Y7620000D01*
X54611500Y10858500D02*
X56070500Y10858500D01*
X43262227Y11053479D02*
X54416521Y11053479D01*
X38427490Y10213510D02*
X42422258Y10213510D01*
X42422258Y10213510D02*
X43262227Y11053479D01*
%TO.N,/C_P1_START*%
X61133990Y9588500D02*
X61214000Y9508490D01*
X61214000Y9508490D02*
X61213980Y9508490D01*
X61214000Y9508490D02*
X61902490Y8820000D01*
X61902490Y8820000D02*
X62396000Y8820000D01*
X59561500Y9588500D02*
X61133990Y9588500D01*
%TO.N,/C_P1_SELECT*%
X59561500Y8318500D02*
X61096314Y8318500D01*
X61576000Y8020000D02*
X61277500Y8318500D01*
X62396000Y8020000D02*
X61576000Y8020000D01*
X61096314Y8318500D02*
X61277500Y8318500D01*
%TO.N,/C_P1_A*%
X62396000Y7220000D02*
X61449016Y7220000D01*
X61277490Y7048500D02*
X61277503Y7048487D01*
X59561500Y7048500D02*
X61277490Y7048500D01*
X61449016Y7220000D02*
X61277503Y7048487D01*
%TO.N,/C_P1_B*%
X61150500Y5778500D02*
X61277500Y5905500D01*
X59561500Y5778500D02*
X61150500Y5778500D01*
X62396000Y5970000D02*
X62331500Y5905500D01*
X62396000Y6420000D02*
X62396000Y5970000D01*
X62331500Y5905500D02*
X61277500Y5905500D01*
%TO.N,/C_P1_UP*%
X52959000Y5715000D02*
X52482000Y5715000D01*
X52482000Y5715000D02*
X51777000Y6420000D01*
X53530496Y5778500D02*
X54611500Y5778500D01*
X52959000Y5715000D02*
X53466996Y5715000D01*
X53466996Y5715000D02*
X53530496Y5778500D01*
%TO.N,/C_P1_DOWN*%
X54611500Y7048500D02*
X52959000Y7048500D01*
X52787500Y7220000D02*
X52959000Y7048500D01*
X51777000Y7220000D02*
X52787500Y7220000D01*
%TO.N,/C_P1_LEFT*%
X53276500Y8318500D02*
X54611500Y8318500D01*
X52959000Y8255000D02*
X52012000Y8255000D01*
X53213000Y8255000D02*
X53276500Y8318500D01*
X52012000Y8255000D02*
X51777000Y8020000D01*
X52959000Y8255000D02*
X53213000Y8255000D01*
%TO.N,/C_P1_RIGHT*%
X52482000Y9525000D02*
X51777000Y8820000D01*
X52968320Y9525000D02*
X53031820Y9588500D01*
X52959000Y9525000D02*
X52482000Y9525000D01*
X53031820Y9588500D02*
X54611500Y9588500D01*
X52959000Y9525000D02*
X52968320Y9525000D01*
%TO.N,/C_P1_X*%
X34861500Y5778500D02*
X34798000Y5715000D01*
X34798000Y5715000D02*
X34321000Y5715000D01*
X34321000Y5715000D02*
X33616000Y6420000D01*
X36450500Y5778500D02*
X34861500Y5778500D01*
%TO.N,/C_P1_Y*%
X34563006Y7220000D02*
X34734506Y7048500D01*
X33616000Y7220000D02*
X34563006Y7220000D01*
X36450500Y7048500D02*
X34734506Y7048500D01*
%TO.N,/C_P1_L*%
X33616000Y8020000D02*
X34567660Y8020000D01*
X36387000Y8255000D02*
X36450500Y8318500D01*
X34567660Y8020000D02*
X34802660Y8255000D01*
X34802660Y8255000D02*
X36387000Y8255000D01*
%TO.N,/C_P1_R*%
X34842861Y9588500D02*
X36450500Y9588500D01*
X34220000Y8820000D02*
X34802660Y9402660D01*
X34802660Y9548299D02*
X34842861Y9588500D01*
X34802660Y9402660D02*
X34802660Y9548299D01*
X33616000Y8820000D02*
X34220000Y8820000D01*
%TO.N,/C_P2_START*%
X49998000Y19304000D02*
X43858486Y19304000D01*
X52070000Y21376000D02*
X49998000Y19304000D01*
X15645500Y6547000D02*
X16325100Y5867400D01*
X16865600Y5867400D02*
X16954500Y5778500D01*
X43858486Y19304000D02*
X41851529Y17297043D01*
X16954500Y5778500D02*
X18416500Y5778500D01*
X18607000Y5842000D02*
X16891000Y5842000D01*
X41851529Y17297043D02*
X23005999Y17297043D01*
X16891000Y5842000D02*
X16865600Y5867400D01*
X16325100Y5867400D02*
X16865600Y5867400D01*
X23005999Y17297043D02*
X22606000Y16897044D01*
%TO.N,/C_P2_SELECT*%
X16954500Y7048500D02*
X16827500Y7175500D01*
X22527136Y17843500D02*
X21592280Y16908644D01*
X45212000Y21376000D02*
X41679500Y17843500D01*
X16656000Y7347000D02*
X16827500Y7175500D01*
X15645500Y7347000D02*
X16656000Y7347000D01*
X18416500Y7048500D02*
X16954500Y7048500D01*
X41679500Y17843500D02*
X22527136Y17843500D01*
%TO.N,/C_P2_A*%
X18416500Y8318500D02*
X16954500Y8318500D01*
X16529000Y8147000D02*
X16827500Y8445500D01*
X15645500Y8147000D02*
X16529000Y8147000D01*
X21951828Y18293511D02*
X20592458Y16934141D01*
X16954500Y8318500D02*
X16827500Y8445500D01*
X35271511Y18293511D02*
X21951828Y18293511D01*
X38354000Y21376000D02*
X35271511Y18293511D01*
%TO.N,/C_P2_B*%
X18327600Y9677400D02*
X18416500Y9588500D01*
X29741500Y19621500D02*
X22250208Y19621500D01*
X15645500Y8947000D02*
X16375900Y9677400D01*
X31496000Y21376000D02*
X29741500Y19621500D01*
X16375900Y9677400D02*
X16789400Y9677400D01*
X22250208Y19621500D02*
X19592898Y16964190D01*
X16789400Y9677400D02*
X18327600Y9677400D01*
%TO.N,/C_P2_UP*%
X41400500Y9588500D02*
X42989500Y9588500D01*
X43758000Y8947000D02*
X43053000Y9652000D01*
X46228000Y16510000D02*
X45974000Y16256000D01*
X10033049Y14822001D02*
X44540001Y14822001D01*
X63078000Y16510000D02*
X46228000Y16510000D01*
X44540001Y14822001D02*
X45974000Y16256000D01*
X68072000Y21504000D02*
X63078000Y16510000D01*
X44235000Y8947000D02*
X43758000Y8947000D01*
X7762000Y17093050D02*
X10033049Y14822001D01*
X68072000Y22860000D02*
X68072000Y21504000D01*
X42989500Y9588500D02*
X43053000Y9652000D01*
X7762000Y17119600D02*
X7762000Y17093050D01*
%TO.N,/C_P2_DOWN*%
X44216000Y8128000D02*
X44235000Y8147000D01*
X65572000Y21376000D02*
X61177001Y16981001D01*
X43053000Y8255000D02*
X41845000Y8255000D01*
X11114800Y17119600D02*
X12962388Y15272012D01*
X43656512Y15272012D02*
X44704000Y16319500D01*
X65572000Y22860000D02*
X65572000Y21376000D01*
X45365501Y16981001D02*
X44704000Y16319500D01*
X43053000Y8255000D02*
X43180000Y8128000D01*
X41845000Y8255000D02*
X41692600Y8407400D01*
X61177001Y16981001D02*
X45365501Y16981001D01*
X43180000Y8128000D02*
X44216000Y8128000D01*
X12962388Y15272012D02*
X43656512Y15272012D01*
%TO.N,/C_P2_LEFT*%
X15865177Y15722023D02*
X42709523Y15722023D01*
X60572000Y22860000D02*
X60572000Y21456000D01*
X56547012Y17431012D02*
X44418512Y17431012D01*
X43053000Y6985000D02*
X41464000Y6985000D01*
X43415000Y7347000D02*
X44235000Y7347000D01*
X43053000Y6985000D02*
X43415000Y7347000D01*
X42709523Y15722023D02*
X43370500Y16383000D01*
X41464000Y6985000D02*
X41400500Y7048500D01*
X14467600Y17119600D02*
X15865177Y15722023D01*
X44418512Y17431012D02*
X43370500Y16383000D01*
X60572000Y21456000D02*
X56547012Y17431012D01*
%TO.N,/C_P2_RIGHT*%
X59309000Y21463000D02*
X55727023Y17881023D01*
X44235000Y6547000D02*
X43885000Y6547000D01*
X41698501Y16172034D02*
X41973500Y16447033D01*
X43885000Y6547000D02*
X43053000Y5715000D01*
X17820400Y17119600D02*
X18767966Y16172034D01*
X43053000Y5715000D02*
X42900600Y5867400D01*
X42900600Y5867400D02*
X41692600Y5867400D01*
X43407490Y17881023D02*
X41973500Y16447033D01*
X41400500Y5778500D02*
X42989500Y5778500D01*
X42989500Y5778500D02*
X43053000Y5715000D01*
X59944000Y24257000D02*
X59309000Y23622000D01*
X59309000Y23622000D02*
X59309000Y21463000D01*
X55727023Y17881023D02*
X43407490Y17881023D01*
X18767966Y16172034D02*
X41698501Y16172034D01*
X63072000Y22860000D02*
X61675000Y24257000D01*
X61675000Y24257000D02*
X59944000Y24257000D01*
%TO.N,/C_P2_X*%
X22328500Y21376000D02*
X24638000Y21376000D01*
X25369000Y9652000D02*
X25018998Y9652000D01*
X16520400Y19075400D02*
X17130000Y19685000D01*
X23557000Y9652000D02*
X25018998Y9652000D01*
X26201000Y8820000D02*
X25369000Y9652000D01*
X20637500Y19685000D02*
X22328500Y21376000D01*
X17130000Y19685000D02*
X20637500Y19685000D01*
X16520400Y17119600D02*
X16520400Y19075400D01*
%TO.N,/C_P2_Y*%
X13167600Y17119600D02*
X13167600Y19779100D01*
X24955500Y8318500D02*
X25019000Y8255000D01*
X26182000Y8001000D02*
X26201000Y8020000D01*
X25019000Y8255000D02*
X25273000Y8001000D01*
X14764500Y21376000D02*
X17780000Y21376000D01*
X23366500Y8318500D02*
X24955500Y8318500D01*
X13167600Y19779100D02*
X14764500Y21376000D01*
X25273000Y8001000D02*
X26182000Y8001000D01*
%TO.N,/C_P2_L*%
X9804400Y20281900D02*
X10898500Y21376000D01*
X9804400Y17130000D02*
X9804400Y20281900D01*
X23366500Y7048500D02*
X24955500Y7048500D01*
X26182000Y7239000D02*
X26201000Y7220000D01*
X24955500Y7048500D02*
X25019000Y6985000D01*
X25019000Y6985000D02*
X25273000Y7239000D01*
X25273000Y7239000D02*
X26182000Y7239000D01*
X9814800Y17119600D02*
X9804400Y17130000D01*
X10898500Y21376000D02*
X10922000Y21376000D01*
%TO.N,/C_P2_R*%
X4087500Y21376000D02*
X4064000Y21376000D01*
X25019000Y5715000D02*
X25019000Y5842000D01*
X25019000Y5842000D02*
X25597000Y6420000D01*
X25597000Y6420000D02*
X26201000Y6420000D01*
X6462000Y19001500D02*
X4087500Y21376000D01*
X23366500Y5778500D02*
X24955500Y5778500D01*
X6462000Y17119600D02*
X6462000Y19001500D01*
X24955500Y5778500D02*
X25019000Y5715000D01*
%TO.N,/C_SHORT*%
X45212000Y23876000D02*
X52070000Y23876000D01*
X17780000Y23876000D02*
X24638000Y23876000D01*
X1333500Y29781500D02*
X1333500Y26606500D01*
X31496000Y32512000D02*
X38354000Y32512000D01*
X1333500Y21145500D02*
X4064000Y23876000D01*
X24638000Y23876000D02*
X31496000Y23876000D01*
X9144000Y5826000D02*
X8747000Y6223000D01*
X4064000Y23876000D02*
X10922000Y23876000D01*
X38354000Y32512000D02*
X45212000Y32512000D01*
X24638000Y32512000D02*
X31496000Y32512000D01*
X31496000Y23876000D02*
X38354000Y23876000D01*
X2222500Y6223000D02*
X1333500Y7112000D01*
X1333500Y26606500D02*
X4064000Y23876000D01*
X8747000Y6223000D02*
X2222500Y6223000D01*
X45212000Y32512000D02*
X52070000Y32512000D01*
X10922000Y32512000D02*
X17780000Y32512000D01*
X1333500Y7112000D02*
X1333500Y21145500D01*
X58072000Y22860000D02*
X58072000Y31496000D01*
X57056000Y32512000D02*
X52070000Y32512000D01*
X4064000Y32512000D02*
X1333500Y29781500D01*
X4064000Y32512000D02*
X10922000Y32512000D01*
X9144000Y4826000D02*
X9144000Y5826000D01*
X10922000Y23876000D02*
X17780000Y23876000D01*
X38354000Y23876000D02*
X45212000Y23876000D01*
X58072000Y31496000D02*
X57056000Y32512000D01*
X17780000Y32512000D02*
X24638000Y32512000D01*
%TO.N,/D_OUT_2*%
X58523000Y4572000D02*
X55983000Y2032000D01*
X55562500Y2032000D02*
X47186996Y2032000D01*
X59498000Y4572000D02*
X58523000Y4572000D01*
X47186996Y2032000D02*
X43115000Y2032000D01*
X43115000Y2032000D02*
X41845000Y3302000D01*
X55983000Y2032000D02*
X55562500Y2032000D01*
%TO.N,/D_OUT_3*%
X23666500Y2938500D02*
X23366500Y3238500D01*
X41400500Y4508500D02*
X40425500Y4508500D01*
X37949000Y2032000D02*
X24573000Y2032000D01*
X24573000Y2032000D02*
X23666500Y2938500D01*
X40425500Y4508500D02*
X37949000Y2032000D01*
%TD*%
%TA.AperFunction,Conductor*%
%TO.N,GND*%
G36*
X70803000Y18271119D02*
G01*
X70849119Y18225000D01*
X70866000Y18162000D01*
X70866000Y2344909D01*
X70848335Y2280569D01*
X70800293Y2234271D01*
X70735344Y2218995D01*
X70671701Y2239026D01*
X70627209Y2288746D01*
X70608017Y2327289D01*
X70585956Y2371594D01*
X70575125Y2385936D01*
X70460561Y2537644D01*
X70400390Y2592497D01*
X70306787Y2677827D01*
X70245383Y2715847D01*
X70129875Y2787367D01*
X69935846Y2862534D01*
X69935845Y2862535D01*
X69731309Y2900769D01*
X69523229Y2900769D01*
X69389717Y2875811D01*
X69318691Y2862534D01*
X69124662Y2787367D01*
X68947752Y2677828D01*
X68793976Y2537644D01*
X68668583Y2371597D01*
X68575832Y2185328D01*
X68518888Y1985190D01*
X68499689Y1778000D01*
X68518888Y1570811D01*
X68575832Y1370673D01*
X68668583Y1184404D01*
X68792488Y1020328D01*
X68793978Y1018355D01*
X68947751Y878173D01*
X69124664Y768633D01*
X69168910Y751492D01*
X69223944Y709932D01*
X69248857Y645626D01*
X69236185Y577837D01*
X69189724Y526873D01*
X69123394Y508000D01*
X2195316Y508000D01*
X2128985Y526873D01*
X2082525Y577837D01*
X2069854Y645626D01*
X2094766Y709932D01*
X2149799Y751492D01*
X2266608Y796743D01*
X2438594Y903233D01*
X2588084Y1039511D01*
X2709988Y1200938D01*
X2800154Y1382016D01*
X2855512Y1576578D01*
X2874176Y1778000D01*
X2855512Y1979422D01*
X2800154Y2173984D01*
X2800153Y2173987D01*
X2709989Y2355061D01*
X2651178Y2432939D01*
X2588084Y2516489D01*
X2438594Y2652767D01*
X2360064Y2701391D01*
X2266609Y2759257D01*
X2077983Y2832330D01*
X2074361Y2833007D01*
X1879142Y2869500D01*
X1676858Y2869500D01*
X1544297Y2844720D01*
X1478016Y2832330D01*
X1289390Y2759257D01*
X1117407Y2652768D01*
X967915Y2516488D01*
X846010Y2355061D01*
X755846Y2173987D01*
X755190Y2171680D01*
X751154Y2164565D01*
X750641Y2163533D01*
X750585Y2163561D01*
X725797Y2119852D01*
X675877Y2087324D01*
X616592Y2081369D01*
X561201Y2103320D01*
X522088Y2148268D01*
X508000Y2206161D01*
X508000Y6802771D01*
X524749Y6865543D01*
X570544Y6911626D01*
X633210Y6928769D01*
X696085Y6912413D01*
X742455Y6866908D01*
X757794Y6840970D01*
X766487Y6823226D01*
X773948Y6804383D01*
X773949Y6804381D01*
X799931Y6768620D01*
X806448Y6758699D01*
X828958Y6720637D01*
X843278Y6706317D01*
X856118Y6691284D01*
X868026Y6674895D01*
X902098Y6646708D01*
X910878Y6638718D01*
X1715252Y5834344D01*
X1728331Y5818019D01*
X1730499Y5815983D01*
X1730500Y5815982D01*
X1780150Y5769358D01*
X1782961Y5766634D01*
X1802730Y5746865D01*
X1805943Y5744373D01*
X1814933Y5736694D01*
X1847179Y5706414D01*
X1864926Y5696658D01*
X1881450Y5685803D01*
X1901973Y5669884D01*
X1937109Y5627342D01*
X1950698Y5573867D01*
X1940136Y5519712D01*
X1885703Y5395615D01*
X1830610Y5178056D01*
X1830436Y5177368D01*
X1811844Y4953000D01*
X1830436Y4728632D01*
X1830437Y4728630D01*
X1830437Y4728628D01*
X1885702Y4510389D01*
X1885703Y4510386D01*
X1885704Y4510384D01*
X1908856Y4457602D01*
X1976139Y4304210D01*
X2062925Y4171375D01*
X2099278Y4115732D01*
X2234057Y3969324D01*
X2251762Y3950092D01*
X2429421Y3811813D01*
X2429424Y3811811D01*
X2627426Y3704658D01*
X2840365Y3631556D01*
X3062431Y3594500D01*
X3287566Y3594500D01*
X3287569Y3594500D01*
X3509635Y3631556D01*
X3509637Y3631557D01*
X3519934Y3633275D01*
X3520454Y3630154D01*
X3572220Y3632837D01*
X3632923Y3599173D01*
X4839000Y2393095D01*
X6033254Y1198841D01*
X6046333Y1182517D01*
X6098149Y1133859D01*
X6100960Y1131135D01*
X6120730Y1111365D01*
X6123943Y1108873D01*
X6132933Y1101194D01*
X6165179Y1070914D01*
X6182926Y1061158D01*
X6199450Y1050304D01*
X6215459Y1037886D01*
X6256042Y1020325D01*
X6266693Y1015107D01*
X6305440Y993805D01*
X6325060Y988768D01*
X6343767Y982363D01*
X6350380Y979502D01*
X6362354Y974319D01*
X6373005Y972633D01*
X6406030Y967402D01*
X6417625Y965002D01*
X6460470Y954000D01*
X6480724Y954000D01*
X6500434Y952449D01*
X6520442Y949280D01*
X6520442Y949281D01*
X6520443Y949280D01*
X6564461Y953442D01*
X6576319Y954000D01*
X19386647Y954000D01*
X19407435Y951705D01*
X19410407Y951799D01*
X19410409Y951798D01*
X19478485Y953938D01*
X19482445Y954000D01*
X19510352Y954000D01*
X19510356Y954000D01*
X19514365Y954507D01*
X19526199Y955439D01*
X19570389Y956827D01*
X19589838Y962479D01*
X19609198Y966488D01*
X19629297Y969026D01*
X19670415Y985307D01*
X19681617Y989143D01*
X19724093Y1001482D01*
X19741539Y1011801D01*
X19759280Y1020491D01*
X19778117Y1027948D01*
X19813892Y1053942D01*
X19823803Y1060452D01*
X19861862Y1082958D01*
X19876191Y1097288D01*
X19891219Y1110123D01*
X19907607Y1122028D01*
X19935798Y1156107D01*
X19943768Y1164866D01*
X21707740Y2928837D01*
X21763586Y2961273D01*
X21828169Y2961780D01*
X21884519Y2930223D01*
X21917831Y2874892D01*
X21929999Y2833006D01*
X21932355Y2824899D01*
X21997159Y2715321D01*
X22017049Y2681690D01*
X22134689Y2564050D01*
X22134691Y2564049D01*
X22134693Y2564047D01*
X22277899Y2479355D01*
X22437669Y2432938D01*
X22474998Y2430000D01*
X23226906Y2430000D01*
X23275124Y2420409D01*
X23316001Y2393095D01*
X24065751Y1643345D01*
X24078835Y1627015D01*
X24130666Y1578343D01*
X24133509Y1575587D01*
X24153230Y1555866D01*
X24156418Y1553393D01*
X24165444Y1545684D01*
X24184855Y1527457D01*
X24197679Y1515414D01*
X24215432Y1505654D01*
X24231955Y1494800D01*
X24247957Y1482388D01*
X24247960Y1482386D01*
X24288539Y1464826D01*
X24299188Y1459609D01*
X24337935Y1438307D01*
X24337937Y1438307D01*
X24337940Y1438305D01*
X24357574Y1433264D01*
X24376259Y1426866D01*
X24394855Y1418819D01*
X24438530Y1411902D01*
X24450125Y1409502D01*
X24492970Y1398500D01*
X24513224Y1398500D01*
X24532934Y1396949D01*
X24552942Y1393780D01*
X24552942Y1393781D01*
X24552943Y1393780D01*
X24596961Y1397942D01*
X24608819Y1398500D01*
X37865147Y1398500D01*
X37885935Y1396205D01*
X37888907Y1396299D01*
X37888909Y1396298D01*
X37956985Y1398438D01*
X37960945Y1398500D01*
X37988852Y1398500D01*
X37988856Y1398500D01*
X37992865Y1399007D01*
X38004699Y1399939D01*
X38048889Y1401327D01*
X38068338Y1406979D01*
X38087698Y1410988D01*
X38107797Y1413526D01*
X38148915Y1429807D01*
X38160117Y1433643D01*
X38202593Y1445982D01*
X38220039Y1456301D01*
X38237780Y1464991D01*
X38256617Y1472448D01*
X38292392Y1498442D01*
X38302303Y1504952D01*
X38340362Y1527458D01*
X38354691Y1541788D01*
X38369719Y1554623D01*
X38386107Y1566528D01*
X38414298Y1600607D01*
X38422268Y1609366D01*
X39741740Y2928837D01*
X39797586Y2961273D01*
X39862169Y2961780D01*
X39918519Y2930223D01*
X39951831Y2874892D01*
X39963999Y2833006D01*
X39966355Y2824899D01*
X40031159Y2715321D01*
X40051049Y2681690D01*
X40168689Y2564050D01*
X40168691Y2564049D01*
X40168693Y2564047D01*
X40311899Y2479355D01*
X40471669Y2432938D01*
X40508998Y2430000D01*
X41768906Y2430000D01*
X41817124Y2420409D01*
X41858001Y2393095D01*
X42607751Y1643345D01*
X42620834Y1627015D01*
X42672665Y1578344D01*
X42675477Y1575619D01*
X42695230Y1555866D01*
X42696826Y1554628D01*
X42698424Y1553388D01*
X42707444Y1545684D01*
X42739679Y1515414D01*
X42757435Y1505653D01*
X42773951Y1494804D01*
X42789959Y1482387D01*
X42821644Y1468676D01*
X42830525Y1464833D01*
X42841188Y1459609D01*
X42879935Y1438307D01*
X42879937Y1438307D01*
X42879940Y1438305D01*
X42899574Y1433264D01*
X42918259Y1426866D01*
X42936855Y1418819D01*
X42980530Y1411902D01*
X42992125Y1409502D01*
X43034970Y1398500D01*
X43055224Y1398500D01*
X43074934Y1396949D01*
X43094942Y1393780D01*
X43094942Y1393781D01*
X43094943Y1393780D01*
X43138961Y1397942D01*
X43150819Y1398500D01*
X47106966Y1398500D01*
X47226852Y1398500D01*
X55482470Y1398500D01*
X55602356Y1398500D01*
X55899147Y1398500D01*
X55919935Y1396205D01*
X55922907Y1396299D01*
X55922909Y1396298D01*
X55990985Y1398438D01*
X55994945Y1398500D01*
X56022852Y1398500D01*
X56022856Y1398500D01*
X56026865Y1399007D01*
X56038699Y1399939D01*
X56082889Y1401327D01*
X56102338Y1406979D01*
X56121698Y1410988D01*
X56141797Y1413526D01*
X56182915Y1429807D01*
X56194117Y1433643D01*
X56236593Y1445982D01*
X56254039Y1456301D01*
X56271780Y1464991D01*
X56290617Y1472448D01*
X56326392Y1498442D01*
X56336303Y1504952D01*
X56374362Y1527458D01*
X56388691Y1541788D01*
X56403719Y1554623D01*
X56420107Y1566528D01*
X56448303Y1600614D01*
X56456272Y1609370D01*
X57839240Y2992337D01*
X57895085Y3024774D01*
X57959667Y3025282D01*
X58016017Y2993725D01*
X58049330Y2938394D01*
X58063855Y2888399D01*
X58148547Y2745193D01*
X58148549Y2745190D01*
X58266189Y2627550D01*
X58266191Y2627549D01*
X58266193Y2627547D01*
X58409399Y2542855D01*
X58569169Y2496438D01*
X58606498Y2493500D01*
X59282206Y2493500D01*
X59330424Y2483909D01*
X59371301Y2456595D01*
X60184551Y1643345D01*
X60197634Y1627015D01*
X60249465Y1578344D01*
X60252277Y1575619D01*
X60272030Y1555866D01*
X60273626Y1554628D01*
X60275224Y1553388D01*
X60284244Y1545684D01*
X60316479Y1515414D01*
X60334235Y1505653D01*
X60350751Y1494804D01*
X60366759Y1482387D01*
X60398444Y1468676D01*
X60407325Y1464833D01*
X60417988Y1459609D01*
X60456736Y1438307D01*
X60456740Y1438305D01*
X60476362Y1433267D01*
X60495067Y1426863D01*
X60513655Y1418819D01*
X60557322Y1411904D01*
X60568929Y1409500D01*
X60611770Y1398500D01*
X60632031Y1398500D01*
X60651739Y1396950D01*
X60671743Y1393781D01*
X60671743Y1393782D01*
X60671744Y1393781D01*
X60715754Y1397941D01*
X60727611Y1398500D01*
X65321147Y1398500D01*
X65341935Y1396205D01*
X65344907Y1396299D01*
X65344909Y1396298D01*
X65412985Y1398438D01*
X65416945Y1398500D01*
X65444852Y1398500D01*
X65444856Y1398500D01*
X65448865Y1399007D01*
X65460699Y1399939D01*
X65504889Y1401327D01*
X65524338Y1406979D01*
X65543698Y1410988D01*
X65563797Y1413526D01*
X65604915Y1429807D01*
X65616117Y1433643D01*
X65658593Y1445982D01*
X65676039Y1456301D01*
X65693780Y1464991D01*
X65712617Y1472448D01*
X65748392Y1498442D01*
X65758303Y1504952D01*
X65796362Y1527458D01*
X65810691Y1541788D01*
X65825719Y1554623D01*
X65842107Y1566528D01*
X65870303Y1600614D01*
X65878272Y1609370D01*
X67958276Y3689374D01*
X68008931Y3720271D01*
X68068107Y3724558D01*
X68086431Y3721500D01*
X68311566Y3721500D01*
X68311569Y3721500D01*
X68533635Y3758556D01*
X68746574Y3831658D01*
X68944576Y3938811D01*
X69122240Y4077094D01*
X69274722Y4242732D01*
X69397860Y4431209D01*
X69488296Y4637384D01*
X69543564Y4855632D01*
X69562156Y5080000D01*
X69543564Y5304368D01*
X69488296Y5522616D01*
X69397860Y5728791D01*
X69274722Y5917268D01*
X69122240Y6082906D01*
X69122239Y6082907D01*
X69122237Y6082909D01*
X68944579Y6221187D01*
X68944577Y6221188D01*
X68944576Y6221189D01*
X68911317Y6239188D01*
X68863047Y6285502D01*
X68845288Y6350000D01*
X68863047Y6414498D01*
X68911317Y6460813D01*
X68944576Y6478811D01*
X69122240Y6617094D01*
X69274722Y6782732D01*
X69397860Y6971209D01*
X69488296Y7177384D01*
X69543564Y7395632D01*
X69562156Y7620000D01*
X69543564Y7844368D01*
X69488296Y8062616D01*
X69397860Y8268791D01*
X69274722Y8457268D01*
X69122240Y8622906D01*
X69122239Y8622907D01*
X69122237Y8622909D01*
X68944579Y8761187D01*
X68944577Y8761188D01*
X68944576Y8761189D01*
X68911317Y8779188D01*
X68863047Y8825502D01*
X68845288Y8890000D01*
X68863047Y8954498D01*
X68911317Y9000813D01*
X68944576Y9018811D01*
X69122240Y9157094D01*
X69274722Y9322732D01*
X69397860Y9511209D01*
X69488296Y9717384D01*
X69543564Y9935632D01*
X69562156Y10160000D01*
X69543564Y10384368D01*
X69488296Y10602616D01*
X69397860Y10808791D01*
X69274722Y10997268D01*
X69122240Y11162906D01*
X69122239Y11162907D01*
X69122237Y11162909D01*
X68993023Y11263481D01*
X68944576Y11301189D01*
X68910792Y11319472D01*
X68862521Y11365788D01*
X68844762Y11430285D01*
X68862521Y11494783D01*
X68910793Y11541099D01*
X68944300Y11559232D01*
X69121903Y11697467D01*
X69274321Y11863038D01*
X69397419Y12051452D01*
X69487822Y12257549D01*
X69535544Y12446000D01*
X66862455Y12446000D01*
X66910995Y12254320D01*
X66908892Y12185097D01*
X66870523Y12127443D01*
X66807481Y12098774D01*
X66738811Y12107752D01*
X66708975Y12120663D01*
X66698314Y12125886D01*
X66659573Y12147185D01*
X66645823Y12150715D01*
X66639947Y12152224D01*
X66621241Y12158628D01*
X66602655Y12166671D01*
X66558985Y12173588D01*
X66547363Y12175995D01*
X66504540Y12186990D01*
X66504539Y12186990D01*
X66484286Y12186990D01*
X66464576Y12188541D01*
X66444567Y12191711D01*
X66400549Y12187549D01*
X66388691Y12186990D01*
X64997000Y12186990D01*
X64934000Y12203871D01*
X64887881Y12249990D01*
X64871000Y12312990D01*
X64871000Y12446000D01*
X63647500Y12446000D01*
X63584500Y12462881D01*
X63538381Y12509000D01*
X63521500Y12572000D01*
X63521500Y12828000D01*
X63538381Y12891000D01*
X63584500Y12937119D01*
X63647500Y12954000D01*
X64871000Y12954000D01*
X64871000Y13212500D01*
X64887881Y13275500D01*
X64934000Y13321619D01*
X64997000Y13338500D01*
X65848559Y13338500D01*
X65866820Y13337170D01*
X65890789Y13333659D01*
X65937253Y13337725D01*
X65940647Y13338021D01*
X65951628Y13338500D01*
X65957177Y13338500D01*
X65957180Y13338500D01*
X65988301Y13342139D01*
X65991889Y13342505D01*
X66067426Y13349113D01*
X66067430Y13349115D01*
X66068751Y13349230D01*
X66087856Y13353465D01*
X66089106Y13353921D01*
X66089113Y13353921D01*
X66160400Y13379868D01*
X66163769Y13381039D01*
X66235738Y13404886D01*
X66235739Y13404888D01*
X66237007Y13405307D01*
X66254613Y13413831D01*
X66255725Y13414563D01*
X66255732Y13414565D01*
X66319138Y13456270D01*
X66322161Y13458194D01*
X66323416Y13458968D01*
X66386651Y13497970D01*
X66386652Y13497972D01*
X66387788Y13498672D01*
X66402959Y13511030D01*
X66403871Y13511998D01*
X66403874Y13511999D01*
X66455929Y13567176D01*
X66458448Y13569769D01*
X66868323Y13979644D01*
X66919051Y14010564D01*
X66978311Y14014802D01*
X67032925Y13991415D01*
X67102794Y13939112D01*
X67102795Y13939112D01*
X67102796Y13939111D01*
X67218314Y13896025D01*
X67268646Y13861463D01*
X67296821Y13807293D01*
X67296219Y13746237D01*
X67266982Y13692633D01*
X67123676Y13536960D01*
X67000580Y13348549D01*
X66910177Y13142452D01*
X66862455Y12954001D01*
X66862456Y12954000D01*
X69535544Y12954000D01*
X69535544Y12954001D01*
X69487822Y13142452D01*
X69397419Y13348549D01*
X69274321Y13536963D01*
X69131018Y13692633D01*
X69101780Y13746237D01*
X69101178Y13807293D01*
X69129353Y13861463D01*
X69179683Y13896024D01*
X69295204Y13939111D01*
X69412261Y14026739D01*
X69499889Y14143796D01*
X69550989Y14280799D01*
X69557500Y14341362D01*
X69557500Y16138638D01*
X69550989Y16199201D01*
X69499889Y16336204D01*
X69499888Y16336206D01*
X69412261Y16453262D01*
X69295205Y16540889D01*
X69226702Y16566439D01*
X69158201Y16591989D01*
X69097638Y16598500D01*
X67300362Y16598500D01*
X67239799Y16591989D01*
X67102794Y16540889D01*
X66985738Y16453262D01*
X66898111Y16336206D01*
X66847011Y16199201D01*
X66840500Y16138638D01*
X66840500Y16058635D01*
X66829706Y16007610D01*
X66799174Y15965327D01*
X66754135Y15939031D01*
X66731998Y15931696D01*
X66714372Y15923162D01*
X66649918Y15880771D01*
X66646831Y15878804D01*
X66581218Y15838333D01*
X66566032Y15825962D01*
X66513104Y15769862D01*
X66510552Y15767235D01*
X65635724Y14892405D01*
X65594846Y14865091D01*
X65546628Y14855500D01*
X61747744Y14855500D01*
X61740418Y14855713D01*
X61677597Y14859372D01*
X61677596Y14859372D01*
X61666493Y14857414D01*
X61644614Y14855500D01*
X45773595Y14855500D01*
X45716392Y14869233D01*
X45671659Y14907439D01*
X45649146Y14961789D01*
X45653762Y15020436D01*
X45684500Y15070596D01*
X45924501Y15310596D01*
X45965378Y15337909D01*
X46013596Y15347500D01*
X46069485Y15347500D01*
X46069487Y15347500D01*
X46256288Y15387206D01*
X46430752Y15464882D01*
X46585253Y15577134D01*
X46713040Y15719056D01*
X46767567Y15813500D01*
X46813687Y15859619D01*
X46876687Y15876500D01*
X62994147Y15876500D01*
X63014935Y15874205D01*
X63017907Y15874299D01*
X63017909Y15874298D01*
X63085985Y15876438D01*
X63089945Y15876500D01*
X63117852Y15876500D01*
X63117856Y15876500D01*
X63121865Y15877007D01*
X63133699Y15877939D01*
X63177889Y15879327D01*
X63197338Y15884979D01*
X63216698Y15888988D01*
X63236797Y15891526D01*
X63277915Y15907807D01*
X63289117Y15911643D01*
X63331593Y15923982D01*
X63349039Y15934301D01*
X63366780Y15942991D01*
X63385617Y15950448D01*
X63421392Y15976442D01*
X63431303Y15982952D01*
X63469362Y16005458D01*
X63483691Y16019788D01*
X63498719Y16032623D01*
X63515107Y16044528D01*
X63543303Y16078614D01*
X63551272Y16087370D01*
X65714999Y18251096D01*
X65755875Y18278409D01*
X65804093Y18288000D01*
X70740000Y18288000D01*
X70803000Y18271119D01*
G37*
%TD.AperFunction*%
%TA.AperFunction,Conductor*%
G36*
X21820000Y9563129D02*
G01*
X21866119Y9517010D01*
X21883000Y9454010D01*
X21883000Y9372003D01*
X21885938Y9334667D01*
X21932354Y9174901D01*
X21932355Y9174899D01*
X22006347Y9049785D01*
X22025150Y9017992D01*
X22021569Y9015875D01*
X22038709Y8986285D01*
X22038802Y8921062D01*
X22021572Y8891124D01*
X22025150Y8889008D01*
X21932354Y8732100D01*
X21885938Y8572334D01*
X21885938Y8572331D01*
X21883000Y8535002D01*
X21883000Y8101998D01*
X21884597Y8081707D01*
X21885938Y8064667D01*
X21920822Y7944596D01*
X21932355Y7904899D01*
X22011329Y7771361D01*
X22025150Y7747992D01*
X22021571Y7745876D01*
X22038756Y7716111D01*
X22038756Y7650889D01*
X22021571Y7621125D01*
X22025150Y7619008D01*
X21932354Y7462100D01*
X21885938Y7302334D01*
X21885938Y7302331D01*
X21883000Y7265002D01*
X21883000Y6831998D01*
X21885098Y6805335D01*
X21885938Y6794667D01*
X21931245Y6638718D01*
X21932355Y6634899D01*
X22006450Y6509611D01*
X22025150Y6477992D01*
X22021571Y6475876D01*
X22038756Y6446111D01*
X22038756Y6380889D01*
X22021571Y6351125D01*
X22025150Y6349008D01*
X21932354Y6192100D01*
X21885938Y6032334D01*
X21885938Y6032331D01*
X21883000Y5995002D01*
X21883000Y5561998D01*
X21885060Y5535819D01*
X21885938Y5524667D01*
X21929296Y5375428D01*
X21932355Y5364899D01*
X22008353Y5236393D01*
X22025150Y5207992D01*
X22021577Y5205880D01*
X22038740Y5176169D01*
X22038786Y5111004D01*
X22021578Y5081117D01*
X22025149Y5079005D01*
X22017048Y5065309D01*
X22017047Y5065307D01*
X22006798Y5047977D01*
X21982819Y5007433D01*
X21963961Y4986707D01*
X21964536Y4986232D01*
X21926200Y4939895D01*
X21918213Y4931119D01*
X20008499Y3021405D01*
X19967622Y2994091D01*
X19919404Y2984500D01*
X16936507Y2984500D01*
X16982818Y2825101D01*
X17067447Y2681999D01*
X17184998Y2564448D01*
X17328100Y2479819D01*
X17368789Y2467997D01*
X17420368Y2438397D01*
X17452627Y2388437D01*
X17458378Y2329246D01*
X17436341Y2274010D01*
X17391425Y2235034D01*
X17333635Y2221000D01*
X14859448Y2221000D01*
X14796448Y2237881D01*
X14750329Y2284000D01*
X14733448Y2347000D01*
X14750329Y2410000D01*
X14780033Y2461450D01*
X14813499Y2564448D01*
X14839048Y2643078D01*
X14859010Y2833006D01*
X14839048Y3022934D01*
X14794868Y3158905D01*
X14780033Y3204563D01*
X14684547Y3369949D01*
X14677555Y3377715D01*
X14611361Y3451230D01*
X14587369Y3490382D01*
X14579000Y3535537D01*
X14579000Y5786101D01*
X14592328Y5842501D01*
X14629491Y5886969D01*
X14641702Y5896111D01*
X14641704Y5896111D01*
X14719992Y5954718D01*
X14768716Y5976968D01*
X14822282Y5976968D01*
X14871008Y5954716D01*
X14949294Y5896112D01*
X14949295Y5896112D01*
X14949296Y5896111D01*
X15086299Y5845011D01*
X15146862Y5838500D01*
X15405906Y5838500D01*
X15454124Y5828909D01*
X15495001Y5801595D01*
X15817851Y5478745D01*
X15830935Y5462415D01*
X15882766Y5413743D01*
X15885609Y5410987D01*
X15905330Y5391266D01*
X15908518Y5388793D01*
X15917544Y5381084D01*
X15934778Y5364901D01*
X15949779Y5350814D01*
X15967532Y5341054D01*
X15984055Y5330200D01*
X16000057Y5317788D01*
X16000060Y5317786D01*
X16040639Y5300226D01*
X16051288Y5295009D01*
X16090035Y5273707D01*
X16090037Y5273707D01*
X16090040Y5273705D01*
X16109674Y5268664D01*
X16128359Y5262266D01*
X16146955Y5254219D01*
X16159156Y5252287D01*
X16199568Y5238570D01*
X16233083Y5212150D01*
X16254347Y5188534D01*
X16408848Y5076282D01*
X16583312Y4998606D01*
X16770113Y4958900D01*
X16770115Y4958900D01*
X16825230Y4958900D01*
X16881549Y4945613D01*
X16925990Y4908553D01*
X16949180Y4855537D01*
X16946227Y4797747D01*
X16935938Y4762334D01*
X16935938Y4762331D01*
X16933286Y4728628D01*
X16933000Y4724997D01*
X16933000Y4292003D01*
X16935938Y4254667D01*
X16981887Y4096510D01*
X16982355Y4094899D01*
X17058113Y3966799D01*
X17075150Y3937992D01*
X17071689Y3935946D01*
X17089091Y3905824D01*
X17089144Y3840667D01*
X17071964Y3810819D01*
X17075548Y3808699D01*
X16982818Y3651900D01*
X16936507Y3492500D01*
X19896492Y3492500D01*
X19850181Y3651900D01*
X19757452Y3808699D01*
X19761048Y3810826D01*
X19743883Y3840565D01*
X19743906Y3905816D01*
X19761321Y3935939D01*
X19757850Y3937992D01*
X19771698Y3961408D01*
X19850645Y4094899D01*
X19897062Y4254669D01*
X19900000Y4291998D01*
X19900000Y4725002D01*
X19897062Y4762331D01*
X19850645Y4922101D01*
X19765953Y5065307D01*
X19765952Y5065308D01*
X19757850Y5079008D01*
X19761442Y5081133D01*
X19744259Y5110831D01*
X19744259Y5176169D01*
X19761442Y5205868D01*
X19757850Y5207992D01*
X19773412Y5234306D01*
X19850645Y5364899D01*
X19897062Y5524669D01*
X19900000Y5561998D01*
X19900000Y5995002D01*
X19897062Y6032331D01*
X19850645Y6192101D01*
X19765953Y6335307D01*
X19765952Y6335308D01*
X19757850Y6349008D01*
X19761442Y6351133D01*
X19744259Y6380831D01*
X19744259Y6446169D01*
X19761442Y6475868D01*
X19757850Y6477992D01*
X19765953Y6491693D01*
X19850645Y6634899D01*
X19897062Y6794669D01*
X19900000Y6831998D01*
X19900000Y7265002D01*
X19897062Y7302331D01*
X19850645Y7462101D01*
X19765953Y7605307D01*
X19765952Y7605308D01*
X19757850Y7619008D01*
X19761442Y7621133D01*
X19744259Y7650831D01*
X19744259Y7716169D01*
X19761442Y7745868D01*
X19757850Y7747992D01*
X19765953Y7761693D01*
X19850645Y7904899D01*
X19897062Y8064669D01*
X19900000Y8101998D01*
X19900000Y8535002D01*
X19897062Y8572331D01*
X19850645Y8732101D01*
X19765953Y8875307D01*
X19765952Y8875308D01*
X19757850Y8889008D01*
X19761441Y8891132D01*
X19744213Y8921005D01*
X19744305Y8986342D01*
X19761444Y9015867D01*
X19757850Y9017992D01*
X19765953Y9031693D01*
X19850645Y9174899D01*
X19897062Y9334669D01*
X19900000Y9371998D01*
X19900000Y9454010D01*
X19916881Y9517010D01*
X19963000Y9563129D01*
X20026000Y9580010D01*
X21757000Y9580010D01*
X21820000Y9563129D01*
G37*
%TD.AperFunction*%
%TA.AperFunction,Conductor*%
G36*
X65583124Y9199409D02*
G01*
X65624001Y9172095D01*
X66823471Y7972625D01*
X66855855Y7916980D01*
X66856520Y7852602D01*
X66854436Y7844368D01*
X66835844Y7620000D01*
X66854436Y7395632D01*
X66854436Y7395629D01*
X66854437Y7395628D01*
X66909702Y7177389D01*
X67000139Y6971210D01*
X67123278Y6782732D01*
X67275762Y6617092D01*
X67453418Y6478815D01*
X67453420Y6478814D01*
X67453424Y6478811D01*
X67486682Y6460813D01*
X67534952Y6414497D01*
X67552711Y6350000D01*
X67534952Y6285503D01*
X67486682Y6239188D01*
X67461794Y6225719D01*
X67453418Y6221186D01*
X67275762Y6082909D01*
X67123278Y5917269D01*
X67000139Y5728791D01*
X66909702Y5522612D01*
X66856683Y5313242D01*
X66854436Y5304368D01*
X66841017Y5142422D01*
X66835937Y5081117D01*
X66835844Y5080000D01*
X66854436Y4855632D01*
X66854436Y4855629D01*
X66854437Y4855628D01*
X66909703Y4637386D01*
X66937559Y4573879D01*
X66948159Y4525002D01*
X66938909Y4475851D01*
X66911266Y4434172D01*
X65179500Y2702405D01*
X65138623Y2675091D01*
X65090405Y2665500D01*
X64832359Y2665500D01*
X64776335Y2678640D01*
X64731996Y2715321D01*
X64708591Y2767890D01*
X64711001Y2825384D01*
X64738723Y2875811D01*
X64748255Y2886397D01*
X64810534Y2955565D01*
X64906021Y3120953D01*
X64965036Y3302581D01*
X64984998Y3492509D01*
X64965036Y3682437D01*
X64923220Y3811132D01*
X64906021Y3864066D01*
X64810535Y4029452D01*
X64767639Y4077092D01*
X64761863Y4083507D01*
X64737869Y4122662D01*
X64729500Y4167817D01*
X64729500Y5659101D01*
X64742828Y5715501D01*
X64779992Y5759970D01*
X64792201Y5769111D01*
X64792204Y5769111D01*
X64909261Y5856739D01*
X64996889Y5973796D01*
X65047989Y6110799D01*
X65054500Y6171362D01*
X65054500Y6668638D01*
X65047989Y6729201D01*
X65030544Y6775971D01*
X65022601Y6820002D01*
X65030546Y6864035D01*
X65047989Y6910799D01*
X65054500Y6971362D01*
X65054500Y7468638D01*
X65047989Y7529201D01*
X65030544Y7575972D01*
X65022600Y7620002D01*
X65030543Y7664026D01*
X65047989Y7710799D01*
X65054500Y7771362D01*
X65054500Y8268638D01*
X65047989Y8329201D01*
X65030544Y8375972D01*
X65022600Y8420002D01*
X65030543Y8464026D01*
X65047989Y8510799D01*
X65054500Y8571362D01*
X65054500Y9068638D01*
X65054404Y9069531D01*
X65054500Y9070081D01*
X65054500Y9075392D01*
X65055426Y9075392D01*
X65066346Y9138054D01*
X65112827Y9189801D01*
X65179682Y9209000D01*
X65534906Y9209000D01*
X65583124Y9199409D01*
G37*
%TD.AperFunction*%
%TA.AperFunction,Conductor*%
G36*
X63321505Y5827719D02*
G01*
X63399796Y5769111D01*
X63399797Y5769111D01*
X63412009Y5759969D01*
X63449172Y5715501D01*
X63462500Y5659101D01*
X63462500Y4222251D01*
X63454131Y4177097D01*
X63430136Y4137941D01*
X63332454Y4029455D01*
X63236966Y3864066D01*
X63177952Y3682439D01*
X63167669Y3584600D01*
X63157990Y3492509D01*
X63165584Y3420256D01*
X63177952Y3302580D01*
X63236966Y3120953D01*
X63332452Y2955567D01*
X63332454Y2955565D01*
X63392930Y2888399D01*
X63404265Y2875811D01*
X63431987Y2825384D01*
X63434397Y2767890D01*
X63410992Y2715321D01*
X63366653Y2678640D01*
X63310629Y2665500D01*
X61021224Y2665500D01*
X60957938Y2682546D01*
X60911776Y2729073D01*
X60895228Y2792491D01*
X60912771Y2855640D01*
X60932145Y2888399D01*
X60978562Y3048169D01*
X60981500Y3085498D01*
X60981500Y3518502D01*
X60978562Y3555831D01*
X60932145Y3715601D01*
X60847453Y3858807D01*
X60847452Y3858808D01*
X60839350Y3872508D01*
X60842942Y3874633D01*
X60825759Y3904331D01*
X60825759Y3969669D01*
X60842942Y3999368D01*
X60839350Y4001492D01*
X60848614Y4017156D01*
X60932145Y4158399D01*
X60978562Y4318169D01*
X60981500Y4355498D01*
X60981500Y4788502D01*
X60978562Y4825831D01*
X60970904Y4852188D01*
X60969307Y4916431D01*
X60999601Y4973109D01*
X61053908Y5007474D01*
X61118096Y5010586D01*
X61182013Y4997000D01*
X61372985Y4997000D01*
X61372987Y4997000D01*
X61559788Y5036706D01*
X61734252Y5114382D01*
X61888753Y5226634D01*
X61892064Y5230312D01*
X61934452Y5261107D01*
X61985700Y5272000D01*
X62247647Y5272000D01*
X62268435Y5269705D01*
X62271407Y5269799D01*
X62271409Y5269798D01*
X62339485Y5271938D01*
X62343445Y5272000D01*
X62371352Y5272000D01*
X62371356Y5272000D01*
X62375365Y5272507D01*
X62387199Y5273439D01*
X62431389Y5274827D01*
X62450838Y5280479D01*
X62470198Y5284488D01*
X62490297Y5287026D01*
X62531415Y5303307D01*
X62542617Y5307143D01*
X62585093Y5319482D01*
X62602539Y5329801D01*
X62620280Y5338491D01*
X62639117Y5345948D01*
X62674892Y5371942D01*
X62684803Y5378452D01*
X62722862Y5400958D01*
X62737191Y5415288D01*
X62752219Y5428123D01*
X62768607Y5440028D01*
X62783984Y5458617D01*
X62792450Y5466079D01*
X62792117Y5466391D01*
X62804843Y5479943D01*
X62849663Y5527674D01*
X62852354Y5530451D01*
X62872135Y5550230D01*
X62874621Y5553436D01*
X62882310Y5562439D01*
X62912586Y5594679D01*
X62922342Y5612429D01*
X62933195Y5628950D01*
X62945614Y5644959D01*
X62960147Y5678546D01*
X62989007Y5719862D01*
X63031753Y5746564D01*
X63041649Y5750255D01*
X63092204Y5769111D01*
X63170495Y5827720D01*
X63219216Y5849969D01*
X63272783Y5849970D01*
X63321505Y5827719D01*
G37*
%TD.AperFunction*%
%TA.AperFunction,Conductor*%
G36*
X56193411Y9821476D02*
G01*
X56243749Y9792555D01*
X56256689Y9780404D01*
X56274436Y9770648D01*
X56290960Y9759794D01*
X56306969Y9747376D01*
X56347552Y9729815D01*
X56358203Y9724597D01*
X56396950Y9703295D01*
X56416570Y9698258D01*
X56435277Y9691853D01*
X56441890Y9688992D01*
X56453864Y9683809D01*
X56462837Y9682388D01*
X56497540Y9676892D01*
X56509135Y9674492D01*
X56551980Y9663490D01*
X56572234Y9663490D01*
X56591944Y9661939D01*
X56611952Y9658770D01*
X56611952Y9658771D01*
X56611953Y9658770D01*
X56655971Y9662932D01*
X56667829Y9663490D01*
X57888500Y9663490D01*
X57951500Y9646609D01*
X57997619Y9600490D01*
X58014500Y9537490D01*
X58014500Y9435503D01*
X58017438Y9398167D01*
X58036027Y9334184D01*
X58063855Y9238399D01*
X58144608Y9101853D01*
X58156650Y9081492D01*
X58153069Y9079375D01*
X58170209Y9049785D01*
X58170302Y8984562D01*
X58153072Y8954624D01*
X58156650Y8952508D01*
X58063854Y8795600D01*
X58017438Y8635834D01*
X58016421Y8622909D01*
X58014500Y8598502D01*
X58014500Y8165498D01*
X58016206Y8143817D01*
X58017438Y8128167D01*
X58045742Y8030745D01*
X58063855Y7968399D01*
X58146948Y7827896D01*
X58156650Y7811492D01*
X58153069Y7809375D01*
X58170209Y7779785D01*
X58170302Y7714562D01*
X58153072Y7684624D01*
X58156650Y7682508D01*
X58148547Y7668808D01*
X58148547Y7668807D01*
X58141092Y7656201D01*
X58063854Y7525600D01*
X58017438Y7365834D01*
X58017438Y7365831D01*
X58014500Y7328502D01*
X58014500Y6895498D01*
X58016374Y6871686D01*
X58017438Y6858167D01*
X58063592Y6699303D01*
X58063855Y6698399D01*
X58099150Y6638718D01*
X58156650Y6541492D01*
X58153071Y6539376D01*
X58170256Y6509611D01*
X58170256Y6444389D01*
X58153071Y6414625D01*
X58156650Y6412508D01*
X58148547Y6398808D01*
X58148547Y6398807D01*
X58138805Y6382334D01*
X58063854Y6255600D01*
X58017438Y6095834D01*
X58014500Y6058497D01*
X58014500Y5625503D01*
X58017438Y5588167D01*
X58061627Y5436067D01*
X58063855Y5428399D01*
X58147462Y5287027D01*
X58156650Y5271492D01*
X58153077Y5269380D01*
X58170240Y5239669D01*
X58170286Y5174504D01*
X58153078Y5144617D01*
X58156649Y5142505D01*
X58148548Y5128809D01*
X58148547Y5128807D01*
X58133502Y5103369D01*
X58114319Y5070933D01*
X58095462Y5050209D01*
X58096037Y5049733D01*
X58085893Y5037473D01*
X58085893Y5037472D01*
X58071191Y5019701D01*
X58057711Y5003407D01*
X58049723Y4994630D01*
X56139999Y3084905D01*
X56099122Y3057591D01*
X56050904Y3048000D01*
X53068007Y3048000D01*
X53114319Y2888599D01*
X53133811Y2855638D01*
X53151353Y2792488D01*
X53134804Y2729071D01*
X53088642Y2682546D01*
X53025357Y2665500D01*
X48799252Y2665500D01*
X48742049Y2679233D01*
X48697316Y2717439D01*
X48674803Y2771789D01*
X48679419Y2830436D01*
X48709033Y2921580D01*
X48709034Y2921582D01*
X48726399Y3086810D01*
X48737983Y3127879D01*
X48762611Y3162727D01*
X50465658Y4865774D01*
X50481979Y4878848D01*
X50484014Y4881016D01*
X50484018Y4881018D01*
X50530677Y4930707D01*
X50533368Y4933484D01*
X50553134Y4953248D01*
X50555605Y4956435D01*
X50563312Y4965459D01*
X50593586Y4997697D01*
X50603343Y5015448D01*
X50614199Y5031975D01*
X50626613Y5047977D01*
X50644172Y5088557D01*
X50649392Y5099209D01*
X50660499Y5119412D01*
X50670695Y5137958D01*
X50675732Y5157579D01*
X50682138Y5176288D01*
X50690181Y5194873D01*
X50697096Y5238541D01*
X50699504Y5250165D01*
X50702374Y5261343D01*
X50710500Y5292988D01*
X50710500Y5313242D01*
X50712051Y5332952D01*
X50715220Y5352961D01*
X50713478Y5371390D01*
X50711058Y5396980D01*
X50710500Y5408837D01*
X50710500Y5659101D01*
X50723827Y5715500D01*
X50760990Y5759969D01*
X50773200Y5769110D01*
X50773204Y5769111D01*
X50851497Y5827721D01*
X50900215Y5849969D01*
X50953783Y5849969D01*
X51002505Y5827719D01*
X51080796Y5769111D01*
X51217799Y5718011D01*
X51278362Y5711500D01*
X51537406Y5711500D01*
X51585624Y5701909D01*
X51626501Y5674595D01*
X51974751Y5326345D01*
X51987835Y5310015D01*
X51990000Y5307982D01*
X52035835Y5264940D01*
X52039666Y5261343D01*
X52042509Y5258587D01*
X52062231Y5238865D01*
X52062654Y5238537D01*
X52065418Y5236393D01*
X52074444Y5228684D01*
X52082638Y5220990D01*
X52106679Y5198414D01*
X52124432Y5188654D01*
X52140955Y5177800D01*
X52156957Y5165388D01*
X52156960Y5165386D01*
X52197539Y5147826D01*
X52208188Y5142609D01*
X52253863Y5117499D01*
X52275397Y5108448D01*
X52303762Y5084984D01*
X52337083Y5047978D01*
X52347748Y5036133D01*
X52364255Y5024140D01*
X52502248Y4923882D01*
X52676712Y4846206D01*
X52863513Y4806500D01*
X52863515Y4806500D01*
X52938500Y4806500D01*
X53001500Y4789619D01*
X53047619Y4743500D01*
X53064500Y4680500D01*
X53064500Y4355498D01*
X53066598Y4328835D01*
X53067438Y4318167D01*
X53113854Y4158401D01*
X53113855Y4158399D01*
X53190112Y4029455D01*
X53206650Y4001492D01*
X53203189Y3999446D01*
X53220591Y3969324D01*
X53220644Y3904167D01*
X53203464Y3874319D01*
X53207048Y3872199D01*
X53114318Y3715400D01*
X53068007Y3556000D01*
X56027992Y3556000D01*
X55981681Y3715400D01*
X55888952Y3872199D01*
X55892548Y3874326D01*
X55875383Y3904065D01*
X55875406Y3969316D01*
X55892821Y3999439D01*
X55889350Y4001492D01*
X55898614Y4017156D01*
X55982145Y4158399D01*
X56028562Y4318169D01*
X56031500Y4355498D01*
X56031500Y4788502D01*
X56028562Y4825831D01*
X55982145Y4985601D01*
X55897453Y5128807D01*
X55897452Y5128808D01*
X55889350Y5142508D01*
X55892942Y5144633D01*
X55875759Y5174331D01*
X55875759Y5239669D01*
X55892942Y5269368D01*
X55889350Y5271492D01*
X55898537Y5287026D01*
X55982145Y5428399D01*
X56028562Y5588169D01*
X56031500Y5625498D01*
X56031500Y6058502D01*
X56028562Y6095831D01*
X55982145Y6255601D01*
X55897453Y6398807D01*
X55897452Y6398808D01*
X55889350Y6412508D01*
X55892942Y6414633D01*
X55875759Y6444331D01*
X55875759Y6509669D01*
X55892942Y6539368D01*
X55889350Y6541492D01*
X55897453Y6555193D01*
X55982145Y6698399D01*
X56028562Y6858169D01*
X56031500Y6895498D01*
X56031500Y7328502D01*
X56028562Y7365831D01*
X55982145Y7525601D01*
X55897453Y7668807D01*
X55897452Y7668808D01*
X55889350Y7682508D01*
X55892941Y7684632D01*
X55875713Y7714505D01*
X55875805Y7779842D01*
X55892944Y7809367D01*
X55889350Y7811492D01*
X55898840Y7827539D01*
X55982145Y7968399D01*
X56028562Y8128169D01*
X56031500Y8165498D01*
X56031500Y8598502D01*
X56028562Y8635831D01*
X55982145Y8795601D01*
X55897453Y8938807D01*
X55897452Y8938808D01*
X55889350Y8952508D01*
X55892941Y8954632D01*
X55875713Y8984505D01*
X55875805Y9049842D01*
X55892944Y9079367D01*
X55889350Y9081492D01*
X55897453Y9095193D01*
X55982145Y9238399D01*
X56028562Y9398169D01*
X56031500Y9435498D01*
X56031500Y9700702D01*
X56044876Y9757198D01*
X56082164Y9801699D01*
X56135446Y9824757D01*
X56193411Y9821476D01*
G37*
%TD.AperFunction*%
%TA.AperFunction,Conductor*%
G36*
X45160505Y5954719D02*
G01*
X45238796Y5896111D01*
X45238797Y5896111D01*
X45251009Y5886969D01*
X45288172Y5842501D01*
X45301500Y5786101D01*
X45301500Y5075855D01*
X45299204Y5055067D01*
X45301438Y4984016D01*
X45301500Y4980057D01*
X45301500Y4952145D01*
X45302007Y4948129D01*
X45302937Y4936306D01*
X45304326Y4892110D01*
X45309977Y4872661D01*
X45313986Y4853306D01*
X45316525Y4833208D01*
X45316525Y4833206D01*
X45316526Y4833205D01*
X45319444Y4825834D01*
X45332801Y4792099D01*
X45336644Y4780872D01*
X45348980Y4738412D01*
X45359294Y4720972D01*
X45367987Y4703228D01*
X45375448Y4684385D01*
X45375449Y4684383D01*
X45401431Y4648622D01*
X45407948Y4638701D01*
X45430458Y4600639D01*
X45444778Y4586319D01*
X45457618Y4571286D01*
X45469526Y4554897D01*
X45469527Y4554896D01*
X45469528Y4554895D01*
X45503598Y4526710D01*
X45512378Y4518720D01*
X46868369Y3162729D01*
X46893000Y3127879D01*
X46904584Y3086805D01*
X46921950Y2921581D01*
X46951565Y2830436D01*
X46956181Y2771789D01*
X46933668Y2717439D01*
X46888935Y2679233D01*
X46831732Y2665500D01*
X43429595Y2665500D01*
X43381377Y2675091D01*
X43340500Y2702405D01*
X42920905Y3122000D01*
X42893591Y3162877D01*
X42884000Y3211095D01*
X42884000Y3454997D01*
X42882015Y3480220D01*
X42881062Y3492331D01*
X42834645Y3652101D01*
X42749953Y3795307D01*
X42749952Y3795308D01*
X42741850Y3809008D01*
X42745441Y3811132D01*
X42728213Y3841005D01*
X42728305Y3906342D01*
X42745444Y3935867D01*
X42741850Y3937992D01*
X42755698Y3961408D01*
X42834645Y4094899D01*
X42881062Y4254669D01*
X42884000Y4291998D01*
X42884000Y4680500D01*
X42900881Y4743500D01*
X42947000Y4789619D01*
X43010000Y4806500D01*
X43148485Y4806500D01*
X43148487Y4806500D01*
X43335288Y4846206D01*
X43509752Y4923882D01*
X43664253Y5036134D01*
X43792040Y5178056D01*
X43887527Y5343444D01*
X43946542Y5525072D01*
X43963907Y5690300D01*
X43975491Y5731369D01*
X44000119Y5766217D01*
X44035500Y5801598D01*
X44076379Y5828910D01*
X44124595Y5838500D01*
X44733638Y5838500D01*
X44794201Y5845011D01*
X44931204Y5896111D01*
X45009492Y5954718D01*
X45058216Y5976969D01*
X45111783Y5976970D01*
X45160505Y5954719D01*
G37*
%TD.AperFunction*%
%TA.AperFunction,Conductor*%
G36*
X38110039Y9660613D02*
G01*
X38136900Y9648989D01*
X38143017Y9646342D01*
X38153678Y9641119D01*
X38192425Y9619817D01*
X38192427Y9619817D01*
X38192430Y9619815D01*
X38212064Y9614774D01*
X38230749Y9608376D01*
X38249345Y9600329D01*
X38293020Y9593412D01*
X38304615Y9591012D01*
X38347460Y9580010D01*
X38367714Y9580010D01*
X38387424Y9578459D01*
X38407432Y9575290D01*
X38407432Y9575291D01*
X38407433Y9575290D01*
X38451451Y9579452D01*
X38463309Y9580010D01*
X39791000Y9580010D01*
X39854000Y9563129D01*
X39900119Y9517010D01*
X39917000Y9454010D01*
X39917000Y9372003D01*
X39919938Y9334667D01*
X39966354Y9174901D01*
X39966355Y9174899D01*
X40040347Y9049785D01*
X40059150Y9017992D01*
X40055569Y9015875D01*
X40072709Y8986285D01*
X40072802Y8921062D01*
X40055572Y8891124D01*
X40059150Y8889008D01*
X39966354Y8732100D01*
X39919938Y8572334D01*
X39919938Y8572331D01*
X39917000Y8535002D01*
X39917000Y8101998D01*
X39918597Y8081707D01*
X39919938Y8064667D01*
X39954822Y7944596D01*
X39966355Y7904899D01*
X40045329Y7771361D01*
X40059150Y7747992D01*
X40055571Y7745876D01*
X40072756Y7716111D01*
X40072756Y7650889D01*
X40055571Y7621125D01*
X40059150Y7619008D01*
X39966354Y7462100D01*
X39919938Y7302334D01*
X39919938Y7302331D01*
X39917000Y7265002D01*
X39917000Y6831998D01*
X39919098Y6805335D01*
X39919938Y6794667D01*
X39965245Y6638718D01*
X39966355Y6634899D01*
X40040450Y6509611D01*
X40059150Y6477992D01*
X40055571Y6475876D01*
X40072756Y6446111D01*
X40072756Y6380889D01*
X40055571Y6351125D01*
X40059150Y6349008D01*
X39966354Y6192100D01*
X39919938Y6032334D01*
X39919938Y6032331D01*
X39917000Y5995002D01*
X39917000Y5561998D01*
X39919060Y5535819D01*
X39919938Y5524667D01*
X39963296Y5375428D01*
X39966355Y5364899D01*
X40042353Y5236393D01*
X40059150Y5207992D01*
X40055577Y5205880D01*
X40072740Y5176169D01*
X40072786Y5111004D01*
X40055578Y5081117D01*
X40059149Y5079005D01*
X40051048Y5065309D01*
X40051047Y5065307D01*
X40040798Y5047977D01*
X40016819Y5007433D01*
X39997961Y4986707D01*
X39998536Y4986232D01*
X39960200Y4939895D01*
X39952213Y4931119D01*
X38042499Y3021405D01*
X38001622Y2994091D01*
X37953404Y2984500D01*
X34970507Y2984500D01*
X35016367Y2826654D01*
X35019320Y2768863D01*
X34996131Y2715847D01*
X34951689Y2678787D01*
X34895370Y2665500D01*
X30663049Y2665500D01*
X30607025Y2678640D01*
X30562686Y2715321D01*
X30539281Y2767890D01*
X30541691Y2825384D01*
X30569413Y2875811D01*
X30584041Y2892057D01*
X30679528Y3057445D01*
X30738543Y3239073D01*
X30755908Y3404301D01*
X30767491Y3445368D01*
X30792119Y3480216D01*
X32304659Y4992756D01*
X32320980Y5005831D01*
X32323014Y5007999D01*
X32323018Y5008000D01*
X32369661Y5057672D01*
X32372352Y5060449D01*
X32392135Y5080230D01*
X32394621Y5083436D01*
X32402310Y5092439D01*
X32432586Y5124679D01*
X32442342Y5142429D01*
X32453195Y5158950D01*
X32465614Y5174959D01*
X32483175Y5215546D01*
X32488388Y5226187D01*
X32509695Y5264940D01*
X32514733Y5284566D01*
X32521137Y5303268D01*
X32524057Y5310015D01*
X32529181Y5321855D01*
X32536096Y5365519D01*
X32538504Y5377147D01*
X32540559Y5385150D01*
X32549500Y5419970D01*
X32549500Y5440224D01*
X32551051Y5459934D01*
X32554220Y5479943D01*
X32550059Y5523961D01*
X32549500Y5535819D01*
X32549500Y5659101D01*
X32562827Y5715500D01*
X32599990Y5759969D01*
X32612200Y5769110D01*
X32612204Y5769111D01*
X32690497Y5827721D01*
X32739215Y5849969D01*
X32792783Y5849969D01*
X32841505Y5827719D01*
X32919796Y5769111D01*
X33056799Y5718011D01*
X33117362Y5711500D01*
X33376406Y5711500D01*
X33424624Y5701909D01*
X33465501Y5674595D01*
X33813751Y5326345D01*
X33826835Y5310015D01*
X33829000Y5307982D01*
X33874835Y5264940D01*
X33878666Y5261343D01*
X33881509Y5258587D01*
X33901231Y5238865D01*
X33901654Y5238537D01*
X33904418Y5236393D01*
X33913444Y5228684D01*
X33921638Y5220990D01*
X33945679Y5198414D01*
X33963432Y5188654D01*
X33979955Y5177800D01*
X33995957Y5165388D01*
X33995960Y5165386D01*
X34036539Y5147826D01*
X34047188Y5142609D01*
X34092863Y5117499D01*
X34114397Y5108448D01*
X34142762Y5084984D01*
X34176083Y5047978D01*
X34186748Y5036133D01*
X34203255Y5024140D01*
X34341248Y4923882D01*
X34515712Y4846206D01*
X34702513Y4806500D01*
X34702515Y4806500D01*
X34841000Y4806500D01*
X34904000Y4789619D01*
X34950119Y4743500D01*
X34967000Y4680500D01*
X34967000Y4292003D01*
X34969938Y4254667D01*
X35015887Y4096510D01*
X35016355Y4094899D01*
X35092113Y3966799D01*
X35109150Y3937992D01*
X35105689Y3935946D01*
X35123091Y3905824D01*
X35123144Y3840667D01*
X35105964Y3810819D01*
X35109548Y3808699D01*
X35016818Y3651900D01*
X34970507Y3492500D01*
X37930492Y3492500D01*
X37884181Y3651900D01*
X37791452Y3808699D01*
X37795048Y3810826D01*
X37777883Y3840565D01*
X37777906Y3905816D01*
X37795321Y3935939D01*
X37791850Y3937992D01*
X37805698Y3961408D01*
X37884645Y4094899D01*
X37931062Y4254669D01*
X37934000Y4291998D01*
X37934000Y4725002D01*
X37931062Y4762331D01*
X37884645Y4922101D01*
X37799953Y5065307D01*
X37799952Y5065308D01*
X37791850Y5079008D01*
X37795442Y5081133D01*
X37778259Y5110831D01*
X37778259Y5176169D01*
X37795442Y5205868D01*
X37791850Y5207992D01*
X37807412Y5234306D01*
X37884645Y5364899D01*
X37931062Y5524669D01*
X37934000Y5561998D01*
X37934000Y5995002D01*
X37931062Y6032331D01*
X37884645Y6192101D01*
X37799953Y6335307D01*
X37799952Y6335308D01*
X37791850Y6349008D01*
X37795442Y6351133D01*
X37778259Y6380831D01*
X37778259Y6446169D01*
X37795442Y6475868D01*
X37791850Y6477992D01*
X37799953Y6491693D01*
X37884645Y6634899D01*
X37931062Y6794669D01*
X37934000Y6831998D01*
X37934000Y7265002D01*
X37931062Y7302331D01*
X37884645Y7462101D01*
X37799953Y7605307D01*
X37799952Y7605308D01*
X37791850Y7619008D01*
X37795442Y7621133D01*
X37778259Y7650831D01*
X37778259Y7716169D01*
X37795442Y7745868D01*
X37791850Y7747992D01*
X37799953Y7761693D01*
X37884645Y7904899D01*
X37931062Y8064669D01*
X37934000Y8101998D01*
X37934000Y8535002D01*
X37931062Y8572331D01*
X37884645Y8732101D01*
X37799953Y8875307D01*
X37799952Y8875308D01*
X37791850Y8889008D01*
X37795441Y8891132D01*
X37778213Y8921005D01*
X37778305Y8986342D01*
X37795444Y9015867D01*
X37791850Y9017992D01*
X37799953Y9031693D01*
X37884645Y9174899D01*
X37931062Y9334669D01*
X37934000Y9371998D01*
X37934000Y9544975D01*
X37949112Y9604807D01*
X37990823Y9650287D01*
X38049128Y9670505D01*
X38110039Y9660613D01*
G37*
%TD.AperFunction*%
%TA.AperFunction,Conductor*%
G36*
X27126505Y5827719D02*
G01*
X27204796Y5769111D01*
X27204797Y5769111D01*
X27217009Y5759969D01*
X27254172Y5715501D01*
X27267500Y5659101D01*
X27267500Y5456855D01*
X27265204Y5436067D01*
X27267438Y5365016D01*
X27267500Y5361057D01*
X27267500Y5333145D01*
X27268007Y5329129D01*
X27268937Y5317306D01*
X27270326Y5273110D01*
X27275977Y5253661D01*
X27279986Y5234306D01*
X27282525Y5214208D01*
X27282525Y5214206D01*
X27282526Y5214205D01*
X27298244Y5174504D01*
X27298801Y5173099D01*
X27302644Y5161872D01*
X27314980Y5119412D01*
X27325294Y5101972D01*
X27333987Y5084228D01*
X27341448Y5065385D01*
X27341449Y5065383D01*
X27367431Y5029622D01*
X27373948Y5019701D01*
X27396458Y4981639D01*
X27410778Y4967319D01*
X27423618Y4952286D01*
X27435526Y4935897D01*
X27435527Y4935896D01*
X27435528Y4935895D01*
X27459056Y4916431D01*
X27469598Y4907710D01*
X27478378Y4899720D01*
X28897878Y3480220D01*
X28922509Y3445370D01*
X28934093Y3404296D01*
X28951459Y3239072D01*
X29010473Y3057445D01*
X29105959Y2892059D01*
X29120589Y2875811D01*
X29148311Y2825384D01*
X29150721Y2767890D01*
X29127316Y2715321D01*
X29082977Y2678640D01*
X29026953Y2665500D01*
X24922152Y2665500D01*
X24865833Y2678787D01*
X24821392Y2715847D01*
X24798202Y2768862D01*
X24801155Y2826653D01*
X24833618Y2938394D01*
X24847062Y2984669D01*
X24850000Y3021998D01*
X24850000Y3455002D01*
X24847062Y3492331D01*
X24800645Y3652101D01*
X24715953Y3795307D01*
X24715952Y3795308D01*
X24707850Y3809008D01*
X24711441Y3811132D01*
X24694213Y3841005D01*
X24694305Y3906342D01*
X24711444Y3935867D01*
X24707850Y3937992D01*
X24721698Y3961408D01*
X24800645Y4094899D01*
X24847062Y4254669D01*
X24850000Y4291998D01*
X24850000Y4680500D01*
X24866881Y4743500D01*
X24913000Y4789619D01*
X24976000Y4806500D01*
X25114485Y4806500D01*
X25114487Y4806500D01*
X25301288Y4846206D01*
X25475752Y4923882D01*
X25630253Y5036134D01*
X25758040Y5178056D01*
X25853527Y5343444D01*
X25912542Y5525072D01*
X25920277Y5598673D01*
X25941128Y5655958D01*
X25986434Y5696751D01*
X26045587Y5711500D01*
X26699638Y5711500D01*
X26760201Y5718011D01*
X26897204Y5769111D01*
X26975492Y5827718D01*
X27024216Y5849969D01*
X27077783Y5849970D01*
X27126505Y5827719D01*
G37*
%TD.AperFunction*%
%TA.AperFunction,Conductor*%
G36*
X52315359Y10406838D02*
G01*
X52359698Y10370158D01*
X52383103Y10317588D01*
X52380693Y10260093D01*
X52352970Y10209667D01*
X52300822Y10151753D01*
X52242345Y10115070D01*
X52228407Y10111021D01*
X52210960Y10100703D01*
X52193217Y10092011D01*
X52174384Y10084554D01*
X52138616Y10058567D01*
X52128697Y10052051D01*
X52090636Y10029542D01*
X52076311Y10015217D01*
X52061284Y10002383D01*
X52044894Y9990475D01*
X52016701Y9956396D01*
X52008714Y9947619D01*
X51626497Y9565403D01*
X51585623Y9538091D01*
X51537405Y9528500D01*
X51278362Y9528500D01*
X51217799Y9521989D01*
X51080794Y9470889D01*
X51002509Y9412285D01*
X50953783Y9390032D01*
X50900217Y9390032D01*
X50851491Y9412285D01*
X50773205Y9470889D01*
X50704702Y9496440D01*
X50636201Y9521989D01*
X50575638Y9528500D01*
X49578362Y9528500D01*
X49517799Y9521989D01*
X49380794Y9470889D01*
X49263738Y9383262D01*
X49176111Y9266206D01*
X49125011Y9129201D01*
X49118500Y9068638D01*
X49118500Y8571362D01*
X49125011Y8510800D01*
X49142454Y8464033D01*
X49150398Y8420002D01*
X49142454Y8375970D01*
X49125011Y8329203D01*
X49118500Y8268638D01*
X49118500Y7771362D01*
X49125011Y7710798D01*
X49142454Y7664031D01*
X49150398Y7620000D01*
X49142454Y7575969D01*
X49125011Y7529203D01*
X49125010Y7529201D01*
X49125011Y7529201D01*
X49118500Y7468638D01*
X49118500Y6971362D01*
X49125011Y6910799D01*
X49139754Y6871272D01*
X49142454Y6864033D01*
X49150398Y6820002D01*
X49142454Y6775970D01*
X49125011Y6729203D01*
X49120935Y6691284D01*
X49118500Y6668638D01*
X49118500Y6171362D01*
X49125011Y6110799D01*
X49137249Y6077989D01*
X49176111Y5973795D01*
X49263738Y5856739D01*
X49376702Y5772175D01*
X49419249Y5715339D01*
X49424314Y5644524D01*
X49390288Y5582212D01*
X47904587Y4096510D01*
X47848103Y4063898D01*
X47782881Y4063898D01*
X47726397Y4096510D01*
X46605405Y5217502D01*
X46578091Y5258379D01*
X46568500Y5306597D01*
X46568500Y5786101D01*
X46581828Y5842501D01*
X46618992Y5886970D01*
X46631201Y5896111D01*
X46631204Y5896111D01*
X46748261Y5983739D01*
X46756693Y5995002D01*
X46804228Y6058502D01*
X46835889Y6100796D01*
X46886989Y6237799D01*
X46893500Y6298362D01*
X46893500Y6795638D01*
X46886989Y6856201D01*
X46869544Y6902971D01*
X46861601Y6947002D01*
X46869546Y6991035D01*
X46886989Y7037799D01*
X46893500Y7098362D01*
X46893500Y7595638D01*
X46886989Y7656201D01*
X46869544Y7702971D01*
X46861601Y7747002D01*
X46869546Y7791035D01*
X46886989Y7837799D01*
X46893500Y7898362D01*
X46893500Y8395638D01*
X46886989Y8456201D01*
X46869543Y8502974D01*
X46861600Y8547000D01*
X46869543Y8591027D01*
X46886989Y8637799D01*
X46893500Y8698362D01*
X46893500Y9195638D01*
X46886989Y9256201D01*
X46835889Y9393204D01*
X46832174Y9398167D01*
X46748261Y9510262D01*
X46631205Y9597889D01*
X46562702Y9623440D01*
X46494201Y9648989D01*
X46433638Y9655500D01*
X45436362Y9655500D01*
X45375799Y9648989D01*
X45238794Y9597889D01*
X45160509Y9539285D01*
X45111783Y9517032D01*
X45058217Y9517032D01*
X45009491Y9539285D01*
X44931205Y9597889D01*
X44862702Y9623440D01*
X44794201Y9648989D01*
X44733638Y9655500D01*
X44079587Y9655500D01*
X44020434Y9670249D01*
X43975128Y9711042D01*
X43954277Y9768329D01*
X43946542Y9841928D01*
X43894407Y10002383D01*
X43887527Y10023557D01*
X43792041Y10188943D01*
X43773380Y10209668D01*
X43745658Y10260095D01*
X43743248Y10317589D01*
X43766653Y10370158D01*
X43810992Y10406839D01*
X43867016Y10419979D01*
X52259335Y10419979D01*
X52315359Y10406838D01*
G37*
%TD.AperFunction*%
%TA.AperFunction,Conductor*%
G36*
X33989070Y10208119D02*
G01*
X34035189Y10162000D01*
X34052070Y10099000D01*
X34035189Y10036000D01*
X33968132Y9919856D01*
X33909118Y9738229D01*
X33908386Y9731261D01*
X33899213Y9643981D01*
X33898934Y9641329D01*
X33878083Y9584041D01*
X33832777Y9543249D01*
X33773624Y9528500D01*
X33117362Y9528500D01*
X33056799Y9521989D01*
X32919794Y9470889D01*
X32841509Y9412285D01*
X32792783Y9390032D01*
X32739217Y9390032D01*
X32690491Y9412285D01*
X32612205Y9470889D01*
X32543702Y9496440D01*
X32475201Y9521989D01*
X32414638Y9528500D01*
X31417362Y9528500D01*
X31356799Y9521989D01*
X31219794Y9470889D01*
X31102738Y9383262D01*
X31015111Y9266206D01*
X30964011Y9129201D01*
X30957500Y9068638D01*
X30957500Y8571362D01*
X30964011Y8510800D01*
X30981454Y8464033D01*
X30989398Y8420002D01*
X30981454Y8375970D01*
X30964011Y8329203D01*
X30957500Y8268638D01*
X30957500Y7771362D01*
X30964011Y7710798D01*
X30981454Y7664031D01*
X30989398Y7620000D01*
X30981454Y7575969D01*
X30964011Y7529203D01*
X30964010Y7529201D01*
X30964011Y7529201D01*
X30957500Y7468638D01*
X30957500Y6971362D01*
X30964011Y6910799D01*
X30978754Y6871272D01*
X30981454Y6864033D01*
X30989398Y6820002D01*
X30981454Y6775970D01*
X30964011Y6729203D01*
X30959935Y6691284D01*
X30957500Y6668638D01*
X30957500Y6171362D01*
X30964011Y6110799D01*
X30976249Y6077989D01*
X31015111Y5973795D01*
X31102737Y5856740D01*
X31118404Y5845012D01*
X31143083Y5826538D01*
X31178161Y5786056D01*
X31193253Y5734659D01*
X31185630Y5681638D01*
X31156669Y5636575D01*
X29934095Y4414001D01*
X29877611Y4381389D01*
X29812389Y4381389D01*
X29755905Y4414001D01*
X29183199Y4986707D01*
X28587701Y5582206D01*
X28558740Y5627269D01*
X28551117Y5680290D01*
X28566209Y5731687D01*
X28601283Y5772166D01*
X28714261Y5856739D01*
X28801889Y5973796D01*
X28852989Y6110799D01*
X28859500Y6171362D01*
X28859500Y6668638D01*
X28852989Y6729201D01*
X28835543Y6775974D01*
X28827600Y6820000D01*
X28835543Y6864027D01*
X28852989Y6910799D01*
X28859500Y6971362D01*
X28859500Y7468638D01*
X28852989Y7529201D01*
X28835544Y7575971D01*
X28827601Y7620002D01*
X28835546Y7664035D01*
X28852989Y7710799D01*
X28859500Y7771362D01*
X28859500Y8268638D01*
X28852989Y8329201D01*
X28835544Y8375972D01*
X28827600Y8420002D01*
X28835543Y8464026D01*
X28852989Y8510799D01*
X28859500Y8571362D01*
X28859500Y9068638D01*
X28852989Y9129201D01*
X28801889Y9266204D01*
X28751000Y9334184D01*
X28714261Y9383262D01*
X28597205Y9470889D01*
X28528702Y9496440D01*
X28460201Y9521989D01*
X28399638Y9528500D01*
X27402362Y9528500D01*
X27341799Y9521989D01*
X27204794Y9470889D01*
X27126509Y9412285D01*
X27077783Y9390032D01*
X27024217Y9390032D01*
X26975491Y9412285D01*
X26897205Y9470889D01*
X26828702Y9496440D01*
X26760201Y9521989D01*
X26699638Y9528500D01*
X26440594Y9528500D01*
X26392376Y9538091D01*
X26351499Y9565405D01*
X25906999Y10009905D01*
X25876261Y10060064D01*
X25871645Y10118711D01*
X25894158Y10173061D01*
X25938891Y10211267D01*
X25996094Y10225000D01*
X33926070Y10225000D01*
X33989070Y10208119D01*
G37*
%TD.AperFunction*%
%TA.AperFunction,Conductor*%
G36*
X11617094Y8143817D02*
G01*
X11668460Y8097345D01*
X11687500Y8030745D01*
X11687500Y5734624D01*
X11668460Y5668024D01*
X11617094Y5621552D01*
X11548926Y5609253D01*
X11484558Y5634844D01*
X11443444Y5690592D01*
X11394445Y5821963D01*
X11306904Y5938905D01*
X11189962Y6026446D01*
X11053093Y6077495D01*
X10992589Y6084000D01*
X10698000Y6084000D01*
X10698000Y4698000D01*
X10681119Y4635000D01*
X10635000Y4588881D01*
X10572000Y4572000D01*
X10316000Y4572000D01*
X10253000Y4588881D01*
X10206881Y4635000D01*
X10190000Y4698000D01*
X10190000Y6084000D01*
X9895410Y6084000D01*
X9823418Y6076260D01*
X9758838Y6086370D01*
X9708014Y6127476D01*
X9677566Y6169383D01*
X9671117Y6179188D01*
X9670799Y6179726D01*
X9653299Y6238611D01*
X9665725Y6298777D01*
X9705122Y6345913D01*
X9755253Y6382334D01*
X9883040Y6524256D01*
X9978527Y6689644D01*
X10037542Y6871272D01*
X10057504Y7061200D01*
X10037542Y7251128D01*
X9978527Y7432756D01*
X9961585Y7462101D01*
X9943572Y7493300D01*
X9926691Y7556300D01*
X9943572Y7619300D01*
X9989691Y7665419D01*
X10052691Y7682300D01*
X10992638Y7682300D01*
X11053201Y7688811D01*
X11190204Y7739911D01*
X11307261Y7827539D01*
X11394889Y7944596D01*
X11443445Y8074779D01*
X11484558Y8130525D01*
X11548926Y8156116D01*
X11617094Y8143817D01*
G37*
%TD.AperFunction*%
%TA.AperFunction,Conductor*%
G36*
X4743549Y14249770D02*
G01*
X5387092Y13606227D01*
X5399060Y13592380D01*
X5413531Y13572942D01*
X5451868Y13540774D01*
X5459965Y13533354D01*
X5463899Y13529420D01*
X5487158Y13511030D01*
X5488438Y13510018D01*
X5491281Y13507702D01*
X5550380Y13458112D01*
X5566889Y13447596D01*
X5568093Y13447035D01*
X5568095Y13447033D01*
X5636786Y13415002D01*
X5640078Y13413409D01*
X5707812Y13379391D01*
X5707814Y13379391D01*
X5709008Y13378791D01*
X5727490Y13372367D01*
X5728791Y13372099D01*
X5728794Y13372097D01*
X5803078Y13356759D01*
X5806630Y13355971D01*
X5880344Y13338500D01*
X5880346Y13338500D01*
X5881641Y13338193D01*
X5901114Y13336203D01*
X5902439Y13336242D01*
X5902442Y13336241D01*
X5976477Y13338396D01*
X5978259Y13338447D01*
X5981923Y13338500D01*
X11561500Y13338500D01*
X11624500Y13321619D01*
X11670619Y13275500D01*
X11687500Y13212500D01*
X11687500Y9850855D01*
X11668460Y9784255D01*
X11617094Y9737783D01*
X11548926Y9725484D01*
X11484558Y9751075D01*
X11443444Y9806823D01*
X11442769Y9808632D01*
X11394889Y9937004D01*
X11383792Y9951828D01*
X11307261Y10054062D01*
X11190205Y10141689D01*
X11083596Y10181452D01*
X11053201Y10192789D01*
X10992638Y10199300D01*
X9895362Y10199300D01*
X9834799Y10192789D01*
X9834798Y10192789D01*
X9826262Y10191871D01*
X9794000Y10186051D01*
X9761737Y10191871D01*
X9753202Y10192789D01*
X9753201Y10192789D01*
X9692638Y10199300D01*
X8595362Y10199300D01*
X8528153Y10192075D01*
X8493283Y10185784D01*
X8463236Y10191205D01*
X8392589Y10198800D01*
X8098000Y10198800D01*
X8098000Y7682800D01*
X8235597Y7682800D01*
X8298597Y7665919D01*
X8344716Y7619800D01*
X8361597Y7556800D01*
X8344716Y7493800D01*
X8309472Y7432757D01*
X8250458Y7251130D01*
X8234402Y7098362D01*
X8230496Y7061200D01*
X8237383Y6995669D01*
X8225322Y6927266D01*
X8178844Y6875646D01*
X8112074Y6856500D01*
X4572108Y6856500D01*
X4512139Y6871686D01*
X4466626Y6913584D01*
X4446539Y6972093D01*
X4456720Y7033111D01*
X4460645Y7042063D01*
X4464296Y7050384D01*
X4519564Y7268632D01*
X4538156Y7493000D01*
X4519564Y7717368D01*
X4464296Y7935616D01*
X4373860Y8141791D01*
X4250722Y8330268D01*
X4098240Y8495906D01*
X4098239Y8495907D01*
X4098237Y8495909D01*
X3920579Y8634187D01*
X3920577Y8634188D01*
X3920576Y8634189D01*
X3887317Y8652188D01*
X3851243Y8686800D01*
X6836000Y8686800D01*
X6836000Y8142211D01*
X6842505Y8081707D01*
X6893554Y7944838D01*
X6981095Y7827896D01*
X7098037Y7740355D01*
X7234906Y7689306D01*
X7295411Y7682800D01*
X7590000Y7682800D01*
X7590000Y8686800D01*
X6836000Y8686800D01*
X3851243Y8686800D01*
X3839047Y8698502D01*
X3821288Y8763000D01*
X3839047Y8827498D01*
X3887317Y8873813D01*
X3920576Y8891811D01*
X4098240Y9030094D01*
X4249864Y9194800D01*
X6836000Y9194800D01*
X7590000Y9194800D01*
X7590000Y10198800D01*
X7295411Y10198800D01*
X7234906Y10192295D01*
X7098037Y10141246D01*
X6981095Y10053705D01*
X6893554Y9936763D01*
X6842505Y9799894D01*
X6836000Y9739389D01*
X6836000Y9194800D01*
X4249864Y9194800D01*
X4250722Y9195732D01*
X4373860Y9384209D01*
X4464296Y9590384D01*
X4519564Y9808632D01*
X4538156Y10033000D01*
X4519564Y10257368D01*
X4464296Y10475616D01*
X4373860Y10681791D01*
X4250722Y10870268D01*
X4098240Y11035906D01*
X4098239Y11035907D01*
X4098237Y11035909D01*
X3956186Y11146472D01*
X3920576Y11174189D01*
X3886792Y11192472D01*
X3838521Y11238788D01*
X3820762Y11303285D01*
X3838521Y11367783D01*
X3886793Y11414099D01*
X3920300Y11432232D01*
X4097903Y11570467D01*
X4250321Y11736038D01*
X4373419Y11924452D01*
X4463822Y12130549D01*
X4511544Y12319000D01*
X3047000Y12319000D01*
X2984000Y12335881D01*
X2937881Y12382000D01*
X2921000Y12445000D01*
X2921000Y12701000D01*
X2937881Y12764000D01*
X2984000Y12810119D01*
X3047000Y12827000D01*
X4511544Y12827000D01*
X4511544Y12827001D01*
X4463822Y13015452D01*
X4373419Y13221549D01*
X4250321Y13409963D01*
X4107018Y13565633D01*
X4077780Y13619237D01*
X4077178Y13680293D01*
X4105353Y13734463D01*
X4155683Y13769024D01*
X4271204Y13812111D01*
X4388261Y13899739D01*
X4475889Y14016796D01*
X4526989Y14153799D01*
X4529176Y14174145D01*
X4555643Y14238857D01*
X4612536Y14279498D01*
X4682335Y14283552D01*
X4743549Y14249770D01*
G37*
%TD.AperFunction*%
%TA.AperFunction,Conductor*%
G36*
X23194830Y13324767D02*
G01*
X23239563Y13286561D01*
X23262076Y13232211D01*
X23257460Y13173564D01*
X23226723Y13123405D01*
X23077224Y12973905D01*
X23036346Y12946591D01*
X22988128Y12937000D01*
X22474998Y12937000D01*
X22451667Y12935164D01*
X22437666Y12934062D01*
X22277900Y12887646D01*
X22134692Y12802953D01*
X22019245Y12687506D01*
X21967830Y12656368D01*
X21907839Y12652593D01*
X21852926Y12677041D01*
X21851544Y12678113D01*
X21810966Y12695672D01*
X21800304Y12700896D01*
X21761563Y12722195D01*
X21747813Y12725725D01*
X21741937Y12727234D01*
X21723231Y12733638D01*
X21704645Y12741681D01*
X21660975Y12748598D01*
X21649353Y12751005D01*
X21639550Y12753522D01*
X21606530Y12762000D01*
X21606529Y12762000D01*
X21586276Y12762000D01*
X21566566Y12763551D01*
X21546557Y12766721D01*
X21502539Y12762559D01*
X21490681Y12762000D01*
X19741451Y12762000D01*
X19693233Y12771591D01*
X19652356Y12798905D01*
X19648310Y12802951D01*
X19607645Y12827000D01*
X19505101Y12887645D01*
X19505100Y12887646D01*
X19505099Y12887646D01*
X19345333Y12934062D01*
X19334665Y12934902D01*
X19308002Y12937000D01*
X17524998Y12937000D01*
X17501667Y12935164D01*
X17487666Y12934062D01*
X17327900Y12887646D01*
X17184689Y12802951D01*
X17180644Y12798905D01*
X17139767Y12771591D01*
X17091549Y12762000D01*
X16773700Y12762000D01*
X16722452Y12772893D01*
X16680065Y12803688D01*
X16676753Y12807367D01*
X16522253Y12919617D01*
X16522252Y12919618D01*
X16347788Y12997294D01*
X16160987Y13037000D01*
X15970013Y13037000D01*
X15845479Y13010530D01*
X15783211Y12997294D01*
X15608746Y12919617D01*
X15454247Y12807367D01*
X15326458Y12665443D01*
X15230972Y12500057D01*
X15171958Y12318430D01*
X15151996Y12128501D01*
X15171958Y11938571D01*
X15230972Y11756944D01*
X15328368Y11588250D01*
X15345249Y11525250D01*
X15328368Y11462250D01*
X15230972Y11293557D01*
X15171958Y11111930D01*
X15151996Y10922000D01*
X15171958Y10732071D01*
X15230972Y10550444D01*
X15326458Y10385058D01*
X15454247Y10243134D01*
X15608748Y10130882D01*
X15665958Y10105410D01*
X15713658Y10068309D01*
X15738598Y10013265D01*
X15735041Y9952940D01*
X15703804Y9901210D01*
X15494997Y9692403D01*
X15454123Y9665091D01*
X15405905Y9655500D01*
X15146862Y9655500D01*
X15086299Y9648989D01*
X14949294Y9597889D01*
X14871009Y9539285D01*
X14822283Y9517032D01*
X14768717Y9517032D01*
X14719991Y9539285D01*
X14641705Y9597889D01*
X14573202Y9623440D01*
X14504701Y9648989D01*
X14444138Y9655500D01*
X13446862Y9655500D01*
X13386297Y9648989D01*
X13374531Y9644600D01*
X13314796Y9637638D01*
X13258639Y9659157D01*
X13218852Y9704255D01*
X13204500Y9762656D01*
X13204500Y13212500D01*
X13221381Y13275500D01*
X13267500Y13321619D01*
X13330500Y13338500D01*
X23137627Y13338500D01*
X23194830Y13324767D01*
G37*
%TD.AperFunction*%
%TA.AperFunction,Conductor*%
G36*
X66158134Y10910399D02*
G01*
X66199011Y10883085D01*
X66801146Y10280950D01*
X66830353Y10235222D01*
X66837621Y10181452D01*
X66835844Y10160003D01*
X66835844Y10160000D01*
X66844316Y10057753D01*
X66834549Y9997691D01*
X66797771Y9949211D01*
X66742562Y9923620D01*
X66681798Y9926888D01*
X66629652Y9958254D01*
X66356742Y10231164D01*
X66343670Y10247479D01*
X66341501Y10249515D01*
X66341500Y10249518D01*
X66291862Y10296129D01*
X66289019Y10298885D01*
X66269270Y10318635D01*
X66268849Y10318961D01*
X66266069Y10321119D01*
X66257055Y10328818D01*
X66224820Y10359087D01*
X66207067Y10368847D01*
X66190541Y10379703D01*
X66183637Y10385058D01*
X66174541Y10392114D01*
X66133965Y10409673D01*
X66123304Y10414896D01*
X66084563Y10436195D01*
X66070813Y10439725D01*
X66064937Y10441234D01*
X66046231Y10447638D01*
X66027645Y10455681D01*
X65983975Y10462598D01*
X65972353Y10465005D01*
X65929530Y10476000D01*
X65929529Y10476000D01*
X65909276Y10476000D01*
X65889566Y10477551D01*
X65869557Y10480721D01*
X65825539Y10476559D01*
X65813681Y10476000D01*
X63087593Y10476000D01*
X63039375Y10485591D01*
X62998497Y10512905D01*
X62825750Y10685653D01*
X62812678Y10701970D01*
X62812498Y10702139D01*
X62812301Y10702440D01*
X62808461Y10707234D01*
X62801979Y10717448D01*
X62802354Y10717687D01*
X62779933Y10752054D01*
X62773952Y10811351D01*
X62795891Y10866764D01*
X62840843Y10905895D01*
X62898750Y10919990D01*
X66109916Y10919990D01*
X66158134Y10910399D01*
G37*
%TD.AperFunction*%
%TA.AperFunction,Conductor*%
G36*
X39294123Y11485409D02*
G01*
X39335000Y11458096D01*
X39488234Y11304861D01*
X39624757Y11168338D01*
X39637834Y11152016D01*
X39689650Y11103358D01*
X39692461Y11100634D01*
X39712230Y11080865D01*
X39715443Y11078373D01*
X39724439Y11070689D01*
X39730651Y11064855D01*
X39763212Y11014942D01*
X39769192Y10955646D01*
X39747252Y10900234D01*
X39702300Y10861104D01*
X39644394Y10847010D01*
X38742085Y10847010D01*
X38693867Y10856601D01*
X38652990Y10883915D01*
X38257000Y11279905D01*
X38226262Y11330064D01*
X38221646Y11388711D01*
X38244159Y11443061D01*
X38288892Y11481267D01*
X38346095Y11495000D01*
X39245905Y11495000D01*
X39294123Y11485409D01*
G37*
%TD.AperFunction*%
%TA.AperFunction,Conductor*%
G36*
X21260124Y11485409D02*
G01*
X21301001Y11458095D01*
X21644261Y11114835D01*
X21657345Y11098505D01*
X21693172Y11064861D01*
X21725737Y11014946D01*
X21731718Y10955649D01*
X21709779Y10900236D01*
X21664827Y10861105D01*
X21606920Y10847010D01*
X20026000Y10847010D01*
X19963000Y10863891D01*
X19916881Y10910010D01*
X19900000Y10973010D01*
X19900000Y11074997D01*
X19900000Y11075002D01*
X19897062Y11112331D01*
X19850645Y11272101D01*
X19833444Y11301187D01*
X19831271Y11304861D01*
X19813728Y11368010D01*
X19830276Y11431428D01*
X19876439Y11477954D01*
X19939724Y11495000D01*
X21211906Y11495000D01*
X21260124Y11485409D01*
G37*
%TD.AperFunction*%
%TA.AperFunction,Conductor*%
G36*
X41290830Y13324767D02*
G01*
X41335563Y13286561D01*
X41358076Y13232211D01*
X41353460Y13173564D01*
X41322723Y13123405D01*
X41173224Y12973905D01*
X41132346Y12946591D01*
X41084128Y12937000D01*
X40508998Y12937000D01*
X40485667Y12935164D01*
X40471666Y12934062D01*
X40311900Y12887646D01*
X40168692Y12802953D01*
X40053245Y12687506D01*
X40001830Y12656368D01*
X39941839Y12652593D01*
X39886926Y12677041D01*
X39885544Y12678113D01*
X39844966Y12695672D01*
X39834304Y12700896D01*
X39795563Y12722195D01*
X39781813Y12725725D01*
X39775937Y12727234D01*
X39757231Y12733638D01*
X39738645Y12741681D01*
X39694975Y12748598D01*
X39683353Y12751005D01*
X39673550Y12753522D01*
X39640530Y12762000D01*
X39640529Y12762000D01*
X39620276Y12762000D01*
X39600566Y12763551D01*
X39580557Y12766721D01*
X39536539Y12762559D01*
X39524681Y12762000D01*
X37775451Y12762000D01*
X37727233Y12771591D01*
X37686356Y12798905D01*
X37682310Y12802951D01*
X37641645Y12827000D01*
X37539101Y12887645D01*
X37539100Y12887646D01*
X37539099Y12887646D01*
X37379333Y12934062D01*
X37368665Y12934902D01*
X37342002Y12937000D01*
X35558998Y12937000D01*
X35535667Y12935164D01*
X35521666Y12934062D01*
X35361900Y12887646D01*
X35218689Y12802951D01*
X35214644Y12798905D01*
X35173767Y12771591D01*
X35125549Y12762000D01*
X34818354Y12762000D01*
X34797564Y12764296D01*
X34726502Y12762062D01*
X34722544Y12762000D01*
X34694642Y12762000D01*
X34690634Y12761494D01*
X34678813Y12760564D01*
X34634609Y12759175D01*
X34615153Y12753522D01*
X34595801Y12749514D01*
X34575700Y12746974D01*
X34534594Y12730700D01*
X34523370Y12726857D01*
X34480905Y12714519D01*
X34463460Y12704203D01*
X34445717Y12695511D01*
X34426884Y12688054D01*
X34391116Y12662067D01*
X34381197Y12655551D01*
X34343136Y12633042D01*
X34328811Y12618717D01*
X34313784Y12605883D01*
X34297394Y12593975D01*
X34269201Y12559896D01*
X34261213Y12551119D01*
X33883987Y12173893D01*
X33843113Y12146581D01*
X33794895Y12136990D01*
X28802000Y12136990D01*
X28739000Y12153871D01*
X28692881Y12199990D01*
X28676000Y12262990D01*
X28676000Y12446000D01*
X27452500Y12446000D01*
X27389500Y12462881D01*
X27343381Y12509000D01*
X27326500Y12572000D01*
X27326500Y12828000D01*
X27343381Y12891000D01*
X27389500Y12937119D01*
X27452500Y12954000D01*
X28676000Y12954000D01*
X28676000Y13212500D01*
X28692881Y13275500D01*
X28739000Y13321619D01*
X28802000Y13338500D01*
X41233627Y13338500D01*
X41290830Y13324767D01*
G37*
%TD.AperFunction*%
%TA.AperFunction,Conductor*%
G36*
X59451830Y13324767D02*
G01*
X59496563Y13286561D01*
X59519076Y13232211D01*
X59514460Y13173564D01*
X59483723Y13123405D01*
X59397724Y13037405D01*
X59356846Y13010091D01*
X59308628Y13000500D01*
X58606498Y13000500D01*
X58583167Y12998664D01*
X58569166Y12997562D01*
X58409400Y12951146D01*
X58266192Y12866453D01*
X58180180Y12780441D01*
X58130023Y12749704D01*
X58071378Y12745088D01*
X58049212Y12748598D01*
X58037585Y12751005D01*
X58027782Y12753522D01*
X57994762Y12762000D01*
X57994761Y12762000D01*
X57974508Y12762000D01*
X57954798Y12763551D01*
X57934789Y12766721D01*
X57890771Y12762559D01*
X57878913Y12762000D01*
X55936450Y12762000D01*
X55888232Y12771591D01*
X55847357Y12798903D01*
X55779807Y12866453D01*
X55636601Y12951145D01*
X55636600Y12951146D01*
X55636599Y12951146D01*
X55476833Y12997562D01*
X55466165Y12998402D01*
X55439502Y13000500D01*
X53656498Y13000500D01*
X53633167Y12998664D01*
X53619166Y12997562D01*
X53459400Y12951146D01*
X53316189Y12866451D01*
X53198549Y12748811D01*
X53113854Y12605600D01*
X53067438Y12445834D01*
X53064500Y12408497D01*
X53064500Y12316500D01*
X53047619Y12253500D01*
X53001500Y12207381D01*
X52938500Y12190500D01*
X46836000Y12190500D01*
X46773000Y12207381D01*
X46726881Y12253500D01*
X46710000Y12316500D01*
X46710000Y12446000D01*
X45486500Y12446000D01*
X45423500Y12462881D01*
X45377381Y12509000D01*
X45360500Y12572000D01*
X45360500Y12828000D01*
X45377381Y12891000D01*
X45423500Y12937119D01*
X45486500Y12954000D01*
X46710000Y12954000D01*
X46710000Y13212500D01*
X46726881Y13275500D01*
X46773000Y13321619D01*
X46836000Y13338500D01*
X59394627Y13338500D01*
X59451830Y13324767D01*
G37*
%TD.AperFunction*%
%TD*%
M02*
