%TF.GenerationSoftware,KiCad,Pcbnew,(6.0.10)*%
%TF.CreationDate,2023-02-13T19:28:03+09:00*%
%TF.ProjectId,joystick_74hc165_input_jst,6a6f7973-7469-4636-9b5f-373468633136,1*%
%TF.SameCoordinates,PX6f92990PY6f3bc80*%
%TF.FileFunction,Legend,Top*%
%TF.FilePolarity,Positive*%
%FSLAX46Y46*%
G04 Gerber Fmt 4.6, Leading zero omitted, Abs format (unit mm)*
G04 Created by KiCad (PCBNEW (6.0.10)) date 2023-02-13 19:28:03*
%MOMM*%
%LPD*%
G01*
G04 APERTURE LIST*
G04 Aperture macros list*
%AMRoundRect*
0 Rectangle with rounded corners*
0 $1 Rounding radius*
0 $2 $3 $4 $5 $6 $7 $8 $9 X,Y pos of 4 corners*
0 Add a 4 corners polygon primitive as box body*
4,1,4,$2,$3,$4,$5,$6,$7,$8,$9,$2,$3,0*
0 Add four circle primitives for the rounded corners*
1,1,$1+$1,$2,$3*
1,1,$1+$1,$4,$5*
1,1,$1+$1,$6,$7*
1,1,$1+$1,$8,$9*
0 Add four rect primitives between the rounded corners*
20,1,$1+$1,$2,$3,$4,$5,0*
20,1,$1+$1,$4,$5,$6,$7,0*
20,1,$1+$1,$6,$7,$8,$9,0*
20,1,$1+$1,$8,$9,$2,$3,0*%
%AMFreePoly0*
4,1,22,0.500000,-0.750000,0.000000,-0.750000,0.000000,-0.745033,-0.079941,-0.743568,-0.215256,-0.701293,-0.333266,-0.622738,-0.424486,-0.514219,-0.481581,-0.384460,-0.499164,-0.250000,-0.500000,-0.250000,-0.500000,0.250000,-0.499164,0.250000,-0.499963,0.256109,-0.478152,0.396186,-0.417904,0.524511,-0.324060,0.630769,-0.204165,0.706417,-0.067858,0.745374,0.000000,0.744959,0.000000,0.750000,
0.500000,0.750000,0.500000,-0.750000,0.500000,-0.750000,$1*%
%AMFreePoly1*
4,1,20,0.000000,0.744959,0.073905,0.744508,0.209726,0.703889,0.328688,0.626782,0.421226,0.519385,0.479903,0.390333,0.500000,0.250000,0.500000,-0.250000,0.499851,-0.262216,0.476331,-0.402017,0.414519,-0.529596,0.319384,-0.634700,0.198574,-0.708877,0.061801,-0.746166,0.000000,-0.745033,0.000000,-0.750000,-0.500000,-0.750000,-0.500000,0.750000,0.000000,0.750000,0.000000,0.744959,
0.000000,0.744959,$1*%
G04 Aperture macros list end*
%ADD10C,0.100000*%
%ADD11C,0.200000*%
%ADD12C,0.150000*%
%ADD13C,0.120000*%
%ADD14R,1.700000X1.700000*%
%ADD15O,1.700000X1.700000*%
%ADD16R,0.900000X0.400000*%
%ADD17RoundRect,0.250000X-0.337500X-0.475000X0.337500X-0.475000X0.337500X0.475000X-0.337500X0.475000X0*%
%ADD18RoundRect,0.150000X-0.825000X-0.150000X0.825000X-0.150000X0.825000X0.150000X-0.825000X0.150000X0*%
%ADD19RoundRect,0.250000X-0.750000X0.600000X-0.750000X-0.600000X0.750000X-0.600000X0.750000X0.600000X0*%
%ADD20O,2.000000X1.700000*%
%ADD21RoundRect,0.250000X0.600000X0.725000X-0.600000X0.725000X-0.600000X-0.725000X0.600000X-0.725000X0*%
%ADD22O,1.700000X1.950000*%
%ADD23R,1.000000X1.500000*%
%ADD24FreePoly0,0.000000*%
%ADD25FreePoly1,0.000000*%
G04 APERTURE END LIST*
D10*
G36*
X19431000Y16002000D02*
G01*
X19939000Y16002000D01*
X19939000Y15748000D01*
X19431000Y15748000D01*
X19431000Y15494000D01*
X18923000Y15875000D01*
X19431000Y16256000D01*
X19431000Y16002000D01*
G37*
X19431000Y16002000D02*
X19939000Y16002000D01*
X19939000Y15748000D01*
X19431000Y15748000D01*
X19431000Y15494000D01*
X18923000Y15875000D01*
X19431000Y16256000D01*
X19431000Y16002000D01*
D11*
X38211095Y36488667D02*
X37734904Y36488667D01*
X38306333Y36774381D02*
X37973000Y35774381D01*
X37639666Y36774381D01*
X4135476Y36774381D02*
X4468809Y36298191D01*
X4706904Y36774381D02*
X4706904Y35774381D01*
X4325952Y35774381D01*
X4230714Y35822000D01*
X4183095Y35869620D01*
X4135476Y35964858D01*
X4135476Y36107715D01*
X4183095Y36202953D01*
X4230714Y36250572D01*
X4325952Y36298191D01*
X4706904Y36298191D01*
X68460285Y35520381D02*
X68460285Y36329905D01*
X68412666Y36425143D01*
X68365047Y36472762D01*
X68269809Y36520381D01*
X68079333Y36520381D01*
X67984095Y36472762D01*
X67936476Y36425143D01*
X67888857Y36329905D01*
X67888857Y35520381D01*
X65888857Y36520381D02*
X65888857Y35520381D01*
X65650761Y35520381D01*
X65507904Y35568000D01*
X65412666Y35663239D01*
X65365047Y35758477D01*
X65317428Y35948953D01*
X65317428Y36091810D01*
X65365047Y36282286D01*
X65412666Y36377524D01*
X65507904Y36472762D01*
X65650761Y36520381D01*
X65888857Y36520381D01*
X62793619Y36520381D02*
X63126952Y36044191D01*
X63365047Y36520381D02*
X63365047Y35520381D01*
X62984095Y35520381D01*
X62888857Y35568000D01*
X62841238Y35615620D01*
X62793619Y35710858D01*
X62793619Y35853715D01*
X62841238Y35948953D01*
X62888857Y35996572D01*
X62984095Y36044191D01*
X63365047Y36044191D01*
X60365047Y36520381D02*
X60841238Y36520381D01*
X60841238Y35520381D01*
X58555523Y36472762D02*
X58412666Y36520381D01*
X58174571Y36520381D01*
X58079333Y36472762D01*
X58031714Y36425143D01*
X57984095Y36329905D01*
X57984095Y36234667D01*
X58031714Y36139429D01*
X58079333Y36091810D01*
X58174571Y36044191D01*
X58365047Y35996572D01*
X58460285Y35948953D01*
X58507904Y35901334D01*
X58555523Y35806096D01*
X58555523Y35710858D01*
X58507904Y35615620D01*
X58460285Y35568000D01*
X58365047Y35520381D01*
X58126952Y35520381D01*
X57984095Y35568000D01*
X70561404Y19756381D02*
X70561404Y18756381D01*
X70180452Y18756381D01*
X70085214Y18804000D01*
X70037595Y18851620D01*
X69989976Y18946858D01*
X69989976Y19089715D01*
X70037595Y19184953D01*
X70085214Y19232572D01*
X70180452Y19280191D01*
X70561404Y19280191D01*
X69418547Y19756381D02*
X69513785Y19708762D01*
X69561404Y19613524D01*
X69561404Y18756381D01*
X68609023Y19756381D02*
X68609023Y19232572D01*
X68656642Y19137334D01*
X68751880Y19089715D01*
X68942357Y19089715D01*
X69037595Y19137334D01*
X68609023Y19708762D02*
X68704261Y19756381D01*
X68942357Y19756381D01*
X69037595Y19708762D01*
X69085214Y19613524D01*
X69085214Y19518286D01*
X69037595Y19423048D01*
X68942357Y19375429D01*
X68704261Y19375429D01*
X68609023Y19327810D01*
X68228071Y19089715D02*
X67989976Y19756381D01*
X67751880Y19089715D02*
X67989976Y19756381D01*
X68085214Y19994477D01*
X68132833Y20042096D01*
X68228071Y20089715D01*
X66989976Y19708762D02*
X67085214Y19756381D01*
X67275690Y19756381D01*
X67370928Y19708762D01*
X67418547Y19613524D01*
X67418547Y19232572D01*
X67370928Y19137334D01*
X67275690Y19089715D01*
X67085214Y19089715D01*
X66989976Y19137334D01*
X66942357Y19232572D01*
X66942357Y19327810D01*
X67418547Y19423048D01*
X66513785Y19756381D02*
X66513785Y19089715D01*
X66513785Y19280191D02*
X66466166Y19184953D01*
X66418547Y19137334D01*
X66323309Y19089715D01*
X66228071Y19089715D01*
X65180452Y19089715D02*
X64466166Y19089715D01*
X64894738Y18661143D02*
X65180452Y19946858D01*
X64561404Y19518286D02*
X65275690Y19518286D01*
X64847119Y19946858D02*
X64561404Y18661143D01*
X64180452Y18851620D02*
X64132833Y18804000D01*
X64037595Y18756381D01*
X63799500Y18756381D01*
X63704261Y18804000D01*
X63656642Y18851620D01*
X63609023Y18946858D01*
X63609023Y19042096D01*
X63656642Y19184953D01*
X64228071Y19756381D01*
X63609023Y19756381D01*
D12*
X13036666Y15424143D02*
X13303333Y15424143D01*
X13417619Y15005096D02*
X13036666Y15005096D01*
X13036666Y15805096D01*
X13417619Y15805096D01*
X13684285Y15805096D02*
X14217619Y15005096D01*
X14217619Y15805096D02*
X13684285Y15005096D01*
X14446190Y15805096D02*
X14941428Y15805096D01*
X14674761Y15500334D01*
X14789047Y15500334D01*
X14865238Y15462239D01*
X14903333Y15424143D01*
X14941428Y15347953D01*
X14941428Y15157477D01*
X14903333Y15081286D01*
X14865238Y15043191D01*
X14789047Y15005096D01*
X14560476Y15005096D01*
X14484285Y15043191D01*
X14446190Y15081286D01*
X16338666Y15424143D02*
X16605333Y15424143D01*
X16719619Y15005096D02*
X16338666Y15005096D01*
X16338666Y15805096D01*
X16719619Y15805096D01*
X16986285Y15805096D02*
X17519619Y15005096D01*
X17519619Y15805096D02*
X16986285Y15005096D01*
X18167238Y15538429D02*
X18167238Y15005096D01*
X17976761Y15843191D02*
X17786285Y15271762D01*
X18281523Y15271762D01*
X69778619Y5595858D02*
X70778619Y5595858D01*
X70778619Y5357762D01*
X70731000Y5214905D01*
X70635761Y5119667D01*
X70540523Y5072048D01*
X70350047Y5024429D01*
X70207190Y5024429D01*
X70016714Y5072048D01*
X69921476Y5119667D01*
X69826238Y5214905D01*
X69778619Y5357762D01*
X69778619Y5595858D01*
X70778619Y4738715D02*
X70778619Y4167286D01*
X69778619Y4453000D02*
X70778619Y4453000D01*
X69873857Y7683477D02*
X69826238Y7731096D01*
X69778619Y7873953D01*
X69778619Y7969191D01*
X69826238Y8112048D01*
X69921476Y8207286D01*
X70016714Y8254905D01*
X70207190Y8302524D01*
X70350047Y8302524D01*
X70540523Y8254905D01*
X70635761Y8207286D01*
X70731000Y8112048D01*
X70778619Y7969191D01*
X70778619Y7873953D01*
X70731000Y7731096D01*
X70683380Y7683477D01*
X69778619Y7254905D02*
X70778619Y7254905D01*
X69778619Y6683477D02*
X70350047Y7112048D01*
X70778619Y6683477D02*
X70207190Y7254905D01*
X70778619Y15446334D02*
X69778619Y15113000D01*
X70778619Y14779667D01*
X69778619Y10223477D02*
X69778619Y10699667D01*
X70778619Y10699667D01*
X69778619Y9890143D02*
X70778619Y9890143D01*
X70778619Y9652048D01*
X70731000Y9509191D01*
X70635761Y9413953D01*
X70540523Y9366334D01*
X70350047Y9318715D01*
X70207190Y9318715D01*
X70016714Y9366334D01*
X69921476Y9413953D01*
X69826238Y9509191D01*
X69778619Y9652048D01*
X69778619Y9890143D01*
X70731000Y12438096D02*
X70778619Y12533334D01*
X70778619Y12676191D01*
X70731000Y12819048D01*
X70635761Y12914286D01*
X70540523Y12961905D01*
X70350047Y13009524D01*
X70207190Y13009524D01*
X70016714Y12961905D01*
X69921476Y12914286D01*
X69826238Y12819048D01*
X69778619Y12676191D01*
X69778619Y12580953D01*
X69826238Y12438096D01*
X69873857Y12390477D01*
X70207190Y12390477D01*
X70207190Y12580953D01*
X643000Y12961905D02*
X595380Y12866667D01*
X595380Y12723810D01*
X643000Y12580953D01*
X738238Y12485715D01*
X833476Y12438096D01*
X1023952Y12390477D01*
X1166809Y12390477D01*
X1357285Y12438096D01*
X1452523Y12485715D01*
X1547761Y12580953D01*
X1595380Y12723810D01*
X1595380Y12819048D01*
X1547761Y12961905D01*
X1500142Y13009524D01*
X1166809Y13009524D01*
X1166809Y12819048D01*
X1595380Y9842524D02*
X1595380Y9366334D01*
X595380Y9366334D01*
X1595380Y10175858D02*
X595380Y10175858D01*
X595380Y10413953D01*
X643000Y10556810D01*
X738238Y10652048D01*
X833476Y10699667D01*
X1023952Y10747286D01*
X1166809Y10747286D01*
X1357285Y10699667D01*
X1452523Y10652048D01*
X1547761Y10556810D01*
X1595380Y10413953D01*
X1595380Y10175858D01*
X595380Y14779667D02*
X1595380Y15113000D01*
X595380Y15446334D01*
X1500142Y7302524D02*
X1547761Y7254905D01*
X1595380Y7112048D01*
X1595380Y7016810D01*
X1547761Y6873953D01*
X1452523Y6778715D01*
X1357285Y6731096D01*
X1166809Y6683477D01*
X1023952Y6683477D01*
X833476Y6731096D01*
X738238Y6778715D01*
X643000Y6873953D01*
X595380Y7016810D01*
X595380Y7112048D01*
X643000Y7254905D01*
X690619Y7302524D01*
X1595380Y7731096D02*
X595380Y7731096D01*
X1595380Y8302524D02*
X1023952Y7873953D01*
X595380Y8302524D02*
X1166809Y7731096D01*
X1595380Y4429191D02*
X595380Y4429191D01*
X1595380Y4905381D02*
X595380Y4905381D01*
X1595380Y5476810D01*
X595380Y5476810D01*
D11*
X70624904Y28392381D02*
X70624904Y27392381D01*
X70243952Y27392381D01*
X70148714Y27440000D01*
X70101095Y27487620D01*
X70053476Y27582858D01*
X70053476Y27725715D01*
X70101095Y27820953D01*
X70148714Y27868572D01*
X70243952Y27916191D01*
X70624904Y27916191D01*
X69482047Y28392381D02*
X69577285Y28344762D01*
X69624904Y28249524D01*
X69624904Y27392381D01*
X68672523Y28392381D02*
X68672523Y27868572D01*
X68720142Y27773334D01*
X68815380Y27725715D01*
X69005857Y27725715D01*
X69101095Y27773334D01*
X68672523Y28344762D02*
X68767761Y28392381D01*
X69005857Y28392381D01*
X69101095Y28344762D01*
X69148714Y28249524D01*
X69148714Y28154286D01*
X69101095Y28059048D01*
X69005857Y28011429D01*
X68767761Y28011429D01*
X68672523Y27963810D01*
X68291571Y27725715D02*
X68053476Y28392381D01*
X67815380Y27725715D02*
X68053476Y28392381D01*
X68148714Y28630477D01*
X68196333Y28678096D01*
X68291571Y28725715D01*
X67053476Y28344762D02*
X67148714Y28392381D01*
X67339190Y28392381D01*
X67434428Y28344762D01*
X67482047Y28249524D01*
X67482047Y27868572D01*
X67434428Y27773334D01*
X67339190Y27725715D01*
X67148714Y27725715D01*
X67053476Y27773334D01*
X67005857Y27868572D01*
X67005857Y27963810D01*
X67482047Y28059048D01*
X66577285Y28392381D02*
X66577285Y27725715D01*
X66577285Y27916191D02*
X66529666Y27820953D01*
X66482047Y27773334D01*
X66386809Y27725715D01*
X66291571Y27725715D01*
X65243952Y27725715D02*
X64529666Y27725715D01*
X64958238Y27297143D02*
X65243952Y28582858D01*
X64624904Y28154286D02*
X65339190Y28154286D01*
X64910619Y28582858D02*
X64624904Y27297143D01*
X63672523Y28392381D02*
X64243952Y28392381D01*
X63958238Y28392381D02*
X63958238Y27392381D01*
X64053476Y27535239D01*
X64148714Y27630477D01*
X64243952Y27678096D01*
D12*
X38644071Y4201465D02*
X38644071Y4951465D01*
X38786928Y4951465D01*
X38872642Y4915750D01*
X38929785Y4844322D01*
X38958357Y4772893D01*
X38986928Y4630036D01*
X38986928Y4522893D01*
X38958357Y4380036D01*
X38929785Y4308608D01*
X38872642Y4237179D01*
X38786928Y4201465D01*
X38644071Y4201465D01*
X39215500Y4237179D02*
X39301214Y4201465D01*
X39444071Y4201465D01*
X39501214Y4237179D01*
X39529785Y4272893D01*
X39558357Y4344322D01*
X39558357Y4415750D01*
X39529785Y4487179D01*
X39501214Y4522893D01*
X39444071Y4558608D01*
X39329785Y4594322D01*
X39272642Y4630036D01*
X39244071Y4665750D01*
X39215500Y4737179D01*
X39215500Y4808608D01*
X39244071Y4880036D01*
X39272642Y4915750D01*
X39329785Y4951465D01*
X39472642Y4951465D01*
X39558357Y4915750D01*
X39815500Y4487179D02*
X40272642Y4487179D01*
X39015500Y2922536D02*
X38958357Y2958250D01*
X38901214Y3029679D01*
X38815500Y3136822D01*
X38758357Y3172536D01*
X38701214Y3172536D01*
X38729785Y2993965D02*
X38672642Y3029679D01*
X38615500Y3101108D01*
X38586928Y3243965D01*
X38586928Y3493965D01*
X38615500Y3636822D01*
X38672642Y3708250D01*
X38729785Y3743965D01*
X38844071Y3743965D01*
X38901214Y3708250D01*
X38958357Y3636822D01*
X38986928Y3493965D01*
X38986928Y3243965D01*
X38958357Y3101108D01*
X38901214Y3029679D01*
X38844071Y2993965D01*
X38729785Y2993965D01*
X39186928Y3743965D02*
X39586928Y3743965D01*
X39329785Y2993965D01*
X39815500Y3279679D02*
X40272642Y3279679D01*
X56741571Y4264965D02*
X56741571Y5014965D01*
X56884428Y5014965D01*
X56970142Y4979250D01*
X57027285Y4907822D01*
X57055857Y4836393D01*
X57084428Y4693536D01*
X57084428Y4586393D01*
X57055857Y4443536D01*
X57027285Y4372108D01*
X56970142Y4300679D01*
X56884428Y4264965D01*
X56741571Y4264965D01*
X57313000Y4300679D02*
X57398714Y4264965D01*
X57541571Y4264965D01*
X57598714Y4300679D01*
X57627285Y4336393D01*
X57655857Y4407822D01*
X57655857Y4479250D01*
X57627285Y4550679D01*
X57598714Y4586393D01*
X57541571Y4622108D01*
X57427285Y4657822D01*
X57370142Y4693536D01*
X57341571Y4729250D01*
X57313000Y4800679D01*
X57313000Y4872108D01*
X57341571Y4943536D01*
X57370142Y4979250D01*
X57427285Y5014965D01*
X57570142Y5014965D01*
X57655857Y4979250D01*
X57913000Y4550679D02*
X58370142Y4550679D01*
X57113000Y2986036D02*
X57055857Y3021750D01*
X56998714Y3093179D01*
X56913000Y3200322D01*
X56855857Y3236036D01*
X56798714Y3236036D01*
X56827285Y3057465D02*
X56770142Y3093179D01*
X56713000Y3164608D01*
X56684428Y3307465D01*
X56684428Y3557465D01*
X56713000Y3700322D01*
X56770142Y3771750D01*
X56827285Y3807465D01*
X56941571Y3807465D01*
X56998714Y3771750D01*
X57055857Y3700322D01*
X57084428Y3557465D01*
X57084428Y3307465D01*
X57055857Y3164608D01*
X56998714Y3093179D01*
X56941571Y3057465D01*
X56827285Y3057465D01*
X57284428Y3807465D02*
X57684428Y3807465D01*
X57427285Y3057465D01*
X57913000Y3343179D02*
X58370142Y3343179D01*
X23221904Y20332953D02*
X22421904Y20332953D01*
X22421904Y20637715D01*
X22460000Y20713905D01*
X22498095Y20752000D01*
X22574285Y20790096D01*
X22688571Y20790096D01*
X22764761Y20752000D01*
X22802857Y20713905D01*
X22840952Y20637715D01*
X22840952Y20332953D01*
X23221904Y21552000D02*
X23221904Y21094858D01*
X23221904Y21323429D02*
X22421904Y21323429D01*
X22536190Y21247239D01*
X22612380Y21171048D01*
X22650476Y21094858D01*
X23298095Y21704381D02*
X23298095Y22313905D01*
X22802857Y22504381D02*
X22802857Y22771048D01*
X23221904Y22885334D02*
X23221904Y22504381D01*
X22421904Y22504381D01*
X22421904Y22885334D01*
X22421904Y23152000D02*
X23221904Y23685334D01*
X22421904Y23685334D02*
X23221904Y23152000D01*
X22688571Y24332953D02*
X23221904Y24332953D01*
X22383809Y24142477D02*
X22955238Y23952000D01*
X22955238Y24447239D01*
X9505904Y20332953D02*
X8705904Y20332953D01*
X8705904Y20637715D01*
X8744000Y20713905D01*
X8782095Y20752000D01*
X8858285Y20790096D01*
X8972571Y20790096D01*
X9048761Y20752000D01*
X9086857Y20713905D01*
X9124952Y20637715D01*
X9124952Y20332953D01*
X9505904Y21552000D02*
X9505904Y21094858D01*
X9505904Y21323429D02*
X8705904Y21323429D01*
X8820190Y21247239D01*
X8896380Y21171048D01*
X8934476Y21094858D01*
X9582095Y21704381D02*
X9582095Y22313905D01*
X9086857Y22504381D02*
X9086857Y22771048D01*
X9505904Y22885334D02*
X9505904Y22504381D01*
X8705904Y22504381D01*
X8705904Y22885334D01*
X8705904Y23152000D02*
X9505904Y23685334D01*
X8705904Y23685334D02*
X9505904Y23152000D01*
X8782095Y23952000D02*
X8744000Y23990096D01*
X8705904Y24066286D01*
X8705904Y24256762D01*
X8744000Y24332953D01*
X8782095Y24371048D01*
X8858285Y24409143D01*
X8934476Y24409143D01*
X9048761Y24371048D01*
X9505904Y23913905D01*
X9505904Y24409143D01*
D11*
X46950047Y36726762D02*
X46807190Y36774381D01*
X46569095Y36774381D01*
X46473857Y36726762D01*
X46426238Y36679143D01*
X46378619Y36583905D01*
X46378619Y36488667D01*
X46426238Y36393429D01*
X46473857Y36345810D01*
X46569095Y36298191D01*
X46759571Y36250572D01*
X46854809Y36202953D01*
X46902428Y36155334D01*
X46950047Y36060096D01*
X46950047Y35964858D01*
X46902428Y35869620D01*
X46854809Y35822000D01*
X46759571Y35774381D01*
X46521476Y35774381D01*
X46378619Y35822000D01*
X45569095Y36726762D02*
X45664333Y36774381D01*
X45854809Y36774381D01*
X45950047Y36726762D01*
X45997666Y36631524D01*
X45997666Y36250572D01*
X45950047Y36155334D01*
X45854809Y36107715D01*
X45664333Y36107715D01*
X45569095Y36155334D01*
X45521476Y36250572D01*
X45521476Y36345810D01*
X45997666Y36441048D01*
X44950047Y36774381D02*
X45045285Y36726762D01*
X45092904Y36631524D01*
X45092904Y35774381D01*
X44188142Y36726762D02*
X44283380Y36774381D01*
X44473857Y36774381D01*
X44569095Y36726762D01*
X44616714Y36631524D01*
X44616714Y36250572D01*
X44569095Y36155334D01*
X44473857Y36107715D01*
X44283380Y36107715D01*
X44188142Y36155334D01*
X44140523Y36250572D01*
X44140523Y36345810D01*
X44616714Y36441048D01*
X43283380Y36726762D02*
X43378619Y36774381D01*
X43569095Y36774381D01*
X43664333Y36726762D01*
X43711952Y36679143D01*
X43759571Y36583905D01*
X43759571Y36298191D01*
X43711952Y36202953D01*
X43664333Y36155334D01*
X43569095Y36107715D01*
X43378619Y36107715D01*
X43283380Y36155334D01*
X42997666Y36107715D02*
X42616714Y36107715D01*
X42854809Y35774381D02*
X42854809Y36631524D01*
X42807190Y36726762D01*
X42711952Y36774381D01*
X42616714Y36774381D01*
X31424571Y36250572D02*
X31281714Y36298191D01*
X31234095Y36345810D01*
X31186476Y36441048D01*
X31186476Y36583905D01*
X31234095Y36679143D01*
X31281714Y36726762D01*
X31376952Y36774381D01*
X31757904Y36774381D01*
X31757904Y35774381D01*
X31424571Y35774381D01*
X31329333Y35822000D01*
X31281714Y35869620D01*
X31234095Y35964858D01*
X31234095Y36060096D01*
X31281714Y36155334D01*
X31329333Y36202953D01*
X31424571Y36250572D01*
X31757904Y36250572D01*
D12*
X20376095Y15295620D02*
X20376095Y16295620D01*
X20757047Y16295620D01*
X20852285Y16248000D01*
X20899904Y16200381D01*
X20947523Y16105143D01*
X20947523Y15962286D01*
X20899904Y15867048D01*
X20852285Y15819429D01*
X20757047Y15771810D01*
X20376095Y15771810D01*
X21899904Y15295620D02*
X21328476Y15295620D01*
X21614190Y15295620D02*
X21614190Y16295620D01*
X21518952Y16152762D01*
X21423714Y16057524D01*
X21328476Y16009905D01*
X22090380Y15200381D02*
X22852285Y15200381D01*
X23090380Y15819429D02*
X23423714Y15819429D01*
X23566571Y15295620D02*
X23090380Y15295620D01*
X23090380Y16295620D01*
X23566571Y16295620D01*
X23899904Y15295620D02*
X24423714Y15962286D01*
X23899904Y15962286D02*
X24423714Y15295620D01*
X24661809Y15962286D02*
X25042761Y15962286D01*
X24804666Y16295620D02*
X24804666Y15438477D01*
X24852285Y15343239D01*
X24947523Y15295620D01*
X25042761Y15295620D01*
X25376095Y15295620D02*
X25376095Y15962286D01*
X25376095Y15771810D02*
X25423714Y15867048D01*
X25471333Y15914667D01*
X25566571Y15962286D01*
X25661809Y15962286D01*
X26423714Y15295620D02*
X26423714Y15819429D01*
X26376095Y15914667D01*
X26280857Y15962286D01*
X26090380Y15962286D01*
X25995142Y15914667D01*
X26423714Y15343239D02*
X26328476Y15295620D01*
X26090380Y15295620D01*
X25995142Y15343239D01*
X25947523Y15438477D01*
X25947523Y15533715D01*
X25995142Y15628953D01*
X26090380Y15676572D01*
X26328476Y15676572D01*
X26423714Y15724191D01*
X27233238Y15819429D02*
X27376095Y15771810D01*
X27423714Y15724191D01*
X27471333Y15628953D01*
X27471333Y15486096D01*
X27423714Y15390858D01*
X27376095Y15343239D01*
X27280857Y15295620D01*
X26899904Y15295620D01*
X26899904Y16295620D01*
X27233238Y16295620D01*
X27328476Y16248000D01*
X27376095Y16200381D01*
X27423714Y16105143D01*
X27423714Y16009905D01*
X27376095Y15914667D01*
X27328476Y15867048D01*
X27233238Y15819429D01*
X26899904Y15819429D01*
X27757047Y15962286D02*
X28138000Y15962286D01*
X27899904Y16295620D02*
X27899904Y15438477D01*
X27947523Y15343239D01*
X28042761Y15295620D01*
X28138000Y15295620D01*
X28471333Y15962286D02*
X28471333Y15295620D01*
X28471333Y15867048D02*
X28518952Y15914667D01*
X28614190Y15962286D01*
X28757047Y15962286D01*
X28852285Y15914667D01*
X28899904Y15819429D01*
X28899904Y15295620D01*
X20610071Y4201465D02*
X20610071Y4951465D01*
X20752928Y4951465D01*
X20838642Y4915750D01*
X20895785Y4844322D01*
X20924357Y4772893D01*
X20952928Y4630036D01*
X20952928Y4522893D01*
X20924357Y4380036D01*
X20895785Y4308608D01*
X20838642Y4237179D01*
X20752928Y4201465D01*
X20610071Y4201465D01*
X21181500Y4237179D02*
X21267214Y4201465D01*
X21410071Y4201465D01*
X21467214Y4237179D01*
X21495785Y4272893D01*
X21524357Y4344322D01*
X21524357Y4415750D01*
X21495785Y4487179D01*
X21467214Y4522893D01*
X21410071Y4558608D01*
X21295785Y4594322D01*
X21238642Y4630036D01*
X21210071Y4665750D01*
X21181500Y4737179D01*
X21181500Y4808608D01*
X21210071Y4880036D01*
X21238642Y4915750D01*
X21295785Y4951465D01*
X21438642Y4951465D01*
X21524357Y4915750D01*
X21781500Y4487179D02*
X22238642Y4487179D01*
X20981500Y2922536D02*
X20924357Y2958250D01*
X20867214Y3029679D01*
X20781500Y3136822D01*
X20724357Y3172536D01*
X20667214Y3172536D01*
X20695785Y2993965D02*
X20638642Y3029679D01*
X20581500Y3101108D01*
X20552928Y3243965D01*
X20552928Y3493965D01*
X20581500Y3636822D01*
X20638642Y3708250D01*
X20695785Y3743965D01*
X20810071Y3743965D01*
X20867214Y3708250D01*
X20924357Y3636822D01*
X20952928Y3493965D01*
X20952928Y3243965D01*
X20924357Y3101108D01*
X20867214Y3029679D01*
X20810071Y2993965D01*
X20695785Y2993965D01*
X21152928Y3743965D02*
X21552928Y3743965D01*
X21295785Y2993965D01*
X21781500Y3279679D02*
X22238642Y3279679D01*
X16363904Y20332953D02*
X15563904Y20332953D01*
X15563904Y20637715D01*
X15602000Y20713905D01*
X15640095Y20752000D01*
X15716285Y20790096D01*
X15830571Y20790096D01*
X15906761Y20752000D01*
X15944857Y20713905D01*
X15982952Y20637715D01*
X15982952Y20332953D01*
X16363904Y21552000D02*
X16363904Y21094858D01*
X16363904Y21323429D02*
X15563904Y21323429D01*
X15678190Y21247239D01*
X15754380Y21171048D01*
X15792476Y21094858D01*
X16440095Y21704381D02*
X16440095Y22313905D01*
X15944857Y22504381D02*
X15944857Y22771048D01*
X16363904Y22885334D02*
X16363904Y22504381D01*
X15563904Y22504381D01*
X15563904Y22885334D01*
X15563904Y23152000D02*
X16363904Y23685334D01*
X15563904Y23685334D02*
X16363904Y23152000D01*
X15563904Y23913905D02*
X15563904Y24409143D01*
X15868666Y24142477D01*
X15868666Y24256762D01*
X15906761Y24332953D01*
X15944857Y24371048D01*
X16021047Y24409143D01*
X16211523Y24409143D01*
X16287714Y24371048D01*
X16325809Y24332953D01*
X16363904Y24256762D01*
X16363904Y24028191D01*
X16325809Y23952000D01*
X16287714Y23913905D01*
X6305666Y15424143D02*
X6572333Y15424143D01*
X6686619Y15005096D02*
X6305666Y15005096D01*
X6305666Y15805096D01*
X6686619Y15805096D01*
X6953285Y15805096D02*
X7486619Y15005096D01*
X7486619Y15805096D02*
X6953285Y15005096D01*
X8210428Y15005096D02*
X7753285Y15005096D01*
X7981857Y15005096D02*
X7981857Y15805096D01*
X7905666Y15690810D01*
X7829476Y15614620D01*
X7753285Y15576524D01*
X7548761Y10342620D02*
X7548761Y11342620D01*
X7929714Y11342620D01*
X8024952Y11295000D01*
X8072571Y11247381D01*
X8120190Y11152143D01*
X8120190Y11009286D01*
X8072571Y10914048D01*
X8024952Y10866429D01*
X7929714Y10818810D01*
X7548761Y10818810D01*
X8548761Y11342620D02*
X8548761Y10533096D01*
X8596380Y10437858D01*
X8644000Y10390239D01*
X8739238Y10342620D01*
X8929714Y10342620D01*
X9024952Y10390239D01*
X9072571Y10437858D01*
X9120190Y10533096D01*
X9120190Y11342620D01*
X10072571Y10342620D02*
X9596380Y10342620D01*
X9596380Y11342620D01*
X10882095Y10342620D02*
X10405904Y10342620D01*
X10405904Y11342620D01*
D11*
X25225333Y35774381D02*
X24558666Y36774381D01*
X24558666Y35774381D02*
X25225333Y36774381D01*
X10739476Y36774381D02*
X11215666Y36774381D01*
X11215666Y35774381D01*
D12*
X2647904Y20586953D02*
X1847904Y20586953D01*
X1847904Y20891715D01*
X1886000Y20967905D01*
X1924095Y21006000D01*
X2000285Y21044096D01*
X2114571Y21044096D01*
X2190761Y21006000D01*
X2228857Y20967905D01*
X2266952Y20891715D01*
X2266952Y20586953D01*
X2647904Y21806000D02*
X2647904Y21348858D01*
X2647904Y21577429D02*
X1847904Y21577429D01*
X1962190Y21501239D01*
X2038380Y21425048D01*
X2076476Y21348858D01*
X2724095Y21958381D02*
X2724095Y22567905D01*
X2228857Y22758381D02*
X2228857Y23025048D01*
X2647904Y23139334D02*
X2647904Y22758381D01*
X1847904Y22758381D01*
X1847904Y23139334D01*
X1847904Y23406000D02*
X2647904Y23939334D01*
X1847904Y23939334D02*
X2647904Y23406000D01*
X2647904Y24663143D02*
X2647904Y24206000D01*
X2647904Y24434572D02*
X1847904Y24434572D01*
X1962190Y24358381D01*
X2038380Y24282191D01*
X2076476Y24206000D01*
X6929714Y2516239D02*
X7072571Y2468620D01*
X7310666Y2468620D01*
X7405904Y2516239D01*
X7453523Y2563858D01*
X7501142Y2659096D01*
X7501142Y2754334D01*
X7453523Y2849572D01*
X7405904Y2897191D01*
X7310666Y2944810D01*
X7120190Y2992429D01*
X7024952Y3040048D01*
X6977333Y3087667D01*
X6929714Y3182905D01*
X6929714Y3278143D01*
X6977333Y3373381D01*
X7024952Y3421000D01*
X7120190Y3468620D01*
X7358285Y3468620D01*
X7501142Y3421000D01*
X7929714Y2468620D02*
X7929714Y3468620D01*
X7929714Y2992429D02*
X8501142Y2992429D01*
X8501142Y2468620D02*
X8501142Y3468620D01*
X9167809Y3468620D02*
X9358285Y3468620D01*
X9453523Y3421000D01*
X9548761Y3325762D01*
X9596380Y3135286D01*
X9596380Y2801953D01*
X9548761Y2611477D01*
X9453523Y2516239D01*
X9358285Y2468620D01*
X9167809Y2468620D01*
X9072571Y2516239D01*
X8977333Y2611477D01*
X8929714Y2801953D01*
X8929714Y3135286D01*
X8977333Y3325762D01*
X9072571Y3421000D01*
X9167809Y3468620D01*
X10596380Y2468620D02*
X10263047Y2944810D01*
X10024952Y2468620D02*
X10024952Y3468620D01*
X10405904Y3468620D01*
X10501142Y3421000D01*
X10548761Y3373381D01*
X10596380Y3278143D01*
X10596380Y3135286D01*
X10548761Y3040048D01*
X10501142Y2992429D01*
X10405904Y2944810D01*
X10024952Y2944810D01*
X10882095Y3468620D02*
X11453523Y3468620D01*
X11167809Y2468620D02*
X11167809Y3468620D01*
D11*
X53435047Y36726762D02*
X53292190Y36774381D01*
X53054095Y36774381D01*
X52958857Y36726762D01*
X52911238Y36679143D01*
X52863619Y36583905D01*
X52863619Y36488667D01*
X52911238Y36393429D01*
X52958857Y36345810D01*
X53054095Y36298191D01*
X53244571Y36250572D01*
X53339809Y36202953D01*
X53387428Y36155334D01*
X53435047Y36060096D01*
X53435047Y35964858D01*
X53387428Y35869620D01*
X53339809Y35822000D01*
X53244571Y35774381D01*
X53006476Y35774381D01*
X52863619Y35822000D01*
X52577904Y36107715D02*
X52196952Y36107715D01*
X52435047Y35774381D02*
X52435047Y36631524D01*
X52387428Y36726762D01*
X52292190Y36774381D01*
X52196952Y36774381D01*
X51435047Y36774381D02*
X51435047Y36250572D01*
X51482666Y36155334D01*
X51577904Y36107715D01*
X51768380Y36107715D01*
X51863619Y36155334D01*
X51435047Y36726762D02*
X51530285Y36774381D01*
X51768380Y36774381D01*
X51863619Y36726762D01*
X51911238Y36631524D01*
X51911238Y36536286D01*
X51863619Y36441048D01*
X51768380Y36393429D01*
X51530285Y36393429D01*
X51435047Y36345810D01*
X50958857Y36774381D02*
X50958857Y36107715D01*
X50958857Y36298191D02*
X50911238Y36202953D01*
X50863619Y36155334D01*
X50768380Y36107715D01*
X50673142Y36107715D01*
X50482666Y36107715D02*
X50101714Y36107715D01*
X50339809Y35774381D02*
X50339809Y36631524D01*
X50292190Y36726762D01*
X50196952Y36774381D01*
X50101714Y36774381D01*
D12*
X9607666Y15424143D02*
X9874333Y15424143D01*
X9988619Y15005096D02*
X9607666Y15005096D01*
X9607666Y15805096D01*
X9988619Y15805096D01*
X10255285Y15805096D02*
X10788619Y15005096D01*
X10788619Y15805096D02*
X10255285Y15005096D01*
X11055285Y15728905D02*
X11093380Y15767000D01*
X11169571Y15805096D01*
X11360047Y15805096D01*
X11436238Y15767000D01*
X11474333Y15728905D01*
X11512428Y15652715D01*
X11512428Y15576524D01*
X11474333Y15462239D01*
X11017190Y15005096D01*
X11512428Y15005096D01*
X66310000Y3468620D02*
X66500476Y3468620D01*
X66595714Y3421000D01*
X66690952Y3325762D01*
X66738571Y3135286D01*
X66738571Y2801953D01*
X66690952Y2611477D01*
X66595714Y2516239D01*
X66500476Y2468620D01*
X66310000Y2468620D01*
X66214761Y2516239D01*
X66119523Y2611477D01*
X66071904Y2801953D01*
X66071904Y3135286D01*
X66119523Y3325762D01*
X66214761Y3421000D01*
X66310000Y3468620D01*
X67167142Y3468620D02*
X67167142Y2659096D01*
X67214761Y2563858D01*
X67262380Y2516239D01*
X67357619Y2468620D01*
X67548095Y2468620D01*
X67643333Y2516239D01*
X67690952Y2563858D01*
X67738571Y2659096D01*
X67738571Y3468620D01*
X68071904Y3468620D02*
X68643333Y3468620D01*
X68357619Y2468620D02*
X68357619Y3468620D01*
X3286190Y2405120D02*
X3286190Y3405120D01*
X3762380Y2405120D02*
X3762380Y3405120D01*
X4333809Y2405120D01*
X4333809Y3405120D01*
D11*
X18034000Y36298191D02*
X18034000Y36774381D01*
X18367333Y35774381D02*
X18034000Y36298191D01*
X17700666Y35774381D01*
D12*
%TO.C,RN2*%
X62693619Y9544096D02*
X62426952Y9925048D01*
X62236476Y9544096D02*
X62236476Y10344096D01*
X62541238Y10344096D01*
X62617428Y10306000D01*
X62655523Y10267905D01*
X62693619Y10191715D01*
X62693619Y10077429D01*
X62655523Y10001239D01*
X62617428Y9963143D01*
X62541238Y9925048D01*
X62236476Y9925048D01*
X63036476Y9544096D02*
X63036476Y10344096D01*
X63493619Y9544096D01*
X63493619Y10344096D01*
X63836476Y10267905D02*
X63874571Y10306000D01*
X63950761Y10344096D01*
X64141238Y10344096D01*
X64217428Y10306000D01*
X64255523Y10267905D01*
X64293619Y10191715D01*
X64293619Y10115524D01*
X64255523Y10001239D01*
X63798380Y9544096D01*
X64293619Y9544096D01*
%TO.C,RN1*%
X50501619Y9518696D02*
X50234952Y9899648D01*
X50044476Y9518696D02*
X50044476Y10318696D01*
X50349238Y10318696D01*
X50425428Y10280600D01*
X50463523Y10242505D01*
X50501619Y10166315D01*
X50501619Y10052029D01*
X50463523Y9975839D01*
X50425428Y9937743D01*
X50349238Y9899648D01*
X50044476Y9899648D01*
X50844476Y9518696D02*
X50844476Y10318696D01*
X51301619Y9518696D01*
X51301619Y10318696D01*
X52101619Y9518696D02*
X51644476Y9518696D01*
X51873047Y9518696D02*
X51873047Y10318696D01*
X51796857Y10204410D01*
X51720666Y10128220D01*
X51644476Y10090124D01*
%TO.C,RN4*%
X44532619Y5048296D02*
X44265952Y5429248D01*
X44075476Y5048296D02*
X44075476Y5848296D01*
X44380238Y5848296D01*
X44456428Y5810200D01*
X44494523Y5772105D01*
X44532619Y5695915D01*
X44532619Y5581629D01*
X44494523Y5505439D01*
X44456428Y5467343D01*
X44380238Y5429248D01*
X44075476Y5429248D01*
X44875476Y5048296D02*
X44875476Y5848296D01*
X45332619Y5048296D01*
X45332619Y5848296D01*
X46056428Y5581629D02*
X46056428Y5048296D01*
X45865952Y5886391D02*
X45675476Y5314962D01*
X46170714Y5314962D01*
%TO.C,RN5*%
X14243119Y9671096D02*
X13976452Y10052048D01*
X13785976Y9671096D02*
X13785976Y10471096D01*
X14090738Y10471096D01*
X14166928Y10433000D01*
X14205023Y10394905D01*
X14243119Y10318715D01*
X14243119Y10204429D01*
X14205023Y10128239D01*
X14166928Y10090143D01*
X14090738Y10052048D01*
X13785976Y10052048D01*
X14585976Y9671096D02*
X14585976Y10471096D01*
X15043119Y9671096D01*
X15043119Y10471096D01*
X15805023Y10471096D02*
X15424071Y10471096D01*
X15385976Y10090143D01*
X15424071Y10128239D01*
X15500261Y10166334D01*
X15690738Y10166334D01*
X15766928Y10128239D01*
X15805023Y10090143D01*
X15843119Y10013953D01*
X15843119Y9823477D01*
X15805023Y9747286D01*
X15766928Y9709191D01*
X15690738Y9671096D01*
X15500261Y9671096D01*
X15424071Y9709191D01*
X15385976Y9747286D01*
%TO.C,RN6*%
X26498619Y4926376D02*
X26231952Y5307328D01*
X26041476Y4926376D02*
X26041476Y5726376D01*
X26346238Y5726376D01*
X26422428Y5688280D01*
X26460523Y5650185D01*
X26498619Y5573995D01*
X26498619Y5459709D01*
X26460523Y5383519D01*
X26422428Y5345423D01*
X26346238Y5307328D01*
X26041476Y5307328D01*
X26841476Y4926376D02*
X26841476Y5726376D01*
X27298619Y4926376D01*
X27298619Y5726376D01*
X28022428Y5726376D02*
X27870047Y5726376D01*
X27793857Y5688280D01*
X27755761Y5650185D01*
X27679571Y5535900D01*
X27641476Y5383519D01*
X27641476Y5078757D01*
X27679571Y5002566D01*
X27717666Y4964471D01*
X27793857Y4926376D01*
X27946238Y4926376D01*
X28022428Y4964471D01*
X28060523Y5002566D01*
X28098619Y5078757D01*
X28098619Y5269233D01*
X28060523Y5345423D01*
X28022428Y5383519D01*
X27946238Y5421614D01*
X27793857Y5421614D01*
X27717666Y5383519D01*
X27679571Y5345423D01*
X27641476Y5269233D01*
%TO.C,RN3*%
X32213619Y9493296D02*
X31946952Y9874248D01*
X31756476Y9493296D02*
X31756476Y10293296D01*
X32061238Y10293296D01*
X32137428Y10255200D01*
X32175523Y10217105D01*
X32213619Y10140915D01*
X32213619Y10026629D01*
X32175523Y9950439D01*
X32137428Y9912343D01*
X32061238Y9874248D01*
X31756476Y9874248D01*
X32556476Y9493296D02*
X32556476Y10293296D01*
X33013619Y9493296D01*
X33013619Y10293296D01*
X33318380Y10293296D02*
X33813619Y10293296D01*
X33546952Y9988534D01*
X33661238Y9988534D01*
X33737428Y9950439D01*
X33775523Y9912343D01*
X33813619Y9836153D01*
X33813619Y9645677D01*
X33775523Y9569486D01*
X33737428Y9531391D01*
X33661238Y9493296D01*
X33432666Y9493296D01*
X33356476Y9531391D01*
X33318380Y9569486D01*
%TO.C,C1*%
X62604666Y13811286D02*
X62566571Y13773191D01*
X62452285Y13735096D01*
X62376095Y13735096D01*
X62261809Y13773191D01*
X62185619Y13849381D01*
X62147523Y13925572D01*
X62109428Y14077953D01*
X62109428Y14192239D01*
X62147523Y14344620D01*
X62185619Y14420810D01*
X62261809Y14497000D01*
X62376095Y14535096D01*
X62452285Y14535096D01*
X62566571Y14497000D01*
X62604666Y14458905D01*
X63366571Y13735096D02*
X62909428Y13735096D01*
X63138000Y13735096D02*
X63138000Y14535096D01*
X63061809Y14420810D01*
X62985619Y14344620D01*
X62909428Y14306524D01*
D11*
%TO.C,74HC165_1*%
X52903952Y2198620D02*
X53570619Y2198620D01*
X53142047Y1198620D01*
X54380142Y1865286D02*
X54380142Y1198620D01*
X54142047Y2246239D02*
X53903952Y1531953D01*
X54523000Y1531953D01*
X54903952Y1198620D02*
X54903952Y2198620D01*
X54903952Y1722429D02*
X55475380Y1722429D01*
X55475380Y1198620D02*
X55475380Y2198620D01*
X56523000Y1293858D02*
X56475380Y1246239D01*
X56332523Y1198620D01*
X56237285Y1198620D01*
X56094428Y1246239D01*
X55999190Y1341477D01*
X55951571Y1436715D01*
X55903952Y1627191D01*
X55903952Y1770048D01*
X55951571Y1960524D01*
X55999190Y2055762D01*
X56094428Y2151000D01*
X56237285Y2198620D01*
X56332523Y2198620D01*
X56475380Y2151000D01*
X56523000Y2103381D01*
X57475380Y1198620D02*
X56903952Y1198620D01*
X57189666Y1198620D02*
X57189666Y2198620D01*
X57094428Y2055762D01*
X56999190Y1960524D01*
X56903952Y1912905D01*
X58332523Y2198620D02*
X58142047Y2198620D01*
X58046809Y2151000D01*
X57999190Y2103381D01*
X57903952Y1960524D01*
X57856333Y1770048D01*
X57856333Y1389096D01*
X57903952Y1293858D01*
X57951571Y1246239D01*
X58046809Y1198620D01*
X58237285Y1198620D01*
X58332523Y1246239D01*
X58380142Y1293858D01*
X58427761Y1389096D01*
X58427761Y1627191D01*
X58380142Y1722429D01*
X58332523Y1770048D01*
X58237285Y1817667D01*
X58046809Y1817667D01*
X57951571Y1770048D01*
X57903952Y1722429D01*
X57856333Y1627191D01*
X59332523Y2198620D02*
X58856333Y2198620D01*
X58808714Y1722429D01*
X58856333Y1770048D01*
X58951571Y1817667D01*
X59189666Y1817667D01*
X59284904Y1770048D01*
X59332523Y1722429D01*
X59380142Y1627191D01*
X59380142Y1389096D01*
X59332523Y1293858D01*
X59284904Y1246239D01*
X59189666Y1198620D01*
X58951571Y1198620D01*
X58856333Y1246239D01*
X58808714Y1293858D01*
X59570619Y1103381D02*
X60332523Y1103381D01*
X61094428Y1198620D02*
X60523000Y1198620D01*
X60808714Y1198620D02*
X60808714Y2198620D01*
X60713476Y2055762D01*
X60618238Y1960524D01*
X60523000Y1912905D01*
%TO.C,74HC165_2*%
X34806452Y2135120D02*
X35473119Y2135120D01*
X35044547Y1135120D01*
X36282642Y1801786D02*
X36282642Y1135120D01*
X36044547Y2182739D02*
X35806452Y1468453D01*
X36425500Y1468453D01*
X36806452Y1135120D02*
X36806452Y2135120D01*
X36806452Y1658929D02*
X37377880Y1658929D01*
X37377880Y1135120D02*
X37377880Y2135120D01*
X38425500Y1230358D02*
X38377880Y1182739D01*
X38235023Y1135120D01*
X38139785Y1135120D01*
X37996928Y1182739D01*
X37901690Y1277977D01*
X37854071Y1373215D01*
X37806452Y1563691D01*
X37806452Y1706548D01*
X37854071Y1897024D01*
X37901690Y1992262D01*
X37996928Y2087500D01*
X38139785Y2135120D01*
X38235023Y2135120D01*
X38377880Y2087500D01*
X38425500Y2039881D01*
X39377880Y1135120D02*
X38806452Y1135120D01*
X39092166Y1135120D02*
X39092166Y2135120D01*
X38996928Y1992262D01*
X38901690Y1897024D01*
X38806452Y1849405D01*
X40235023Y2135120D02*
X40044547Y2135120D01*
X39949309Y2087500D01*
X39901690Y2039881D01*
X39806452Y1897024D01*
X39758833Y1706548D01*
X39758833Y1325596D01*
X39806452Y1230358D01*
X39854071Y1182739D01*
X39949309Y1135120D01*
X40139785Y1135120D01*
X40235023Y1182739D01*
X40282642Y1230358D01*
X40330261Y1325596D01*
X40330261Y1563691D01*
X40282642Y1658929D01*
X40235023Y1706548D01*
X40139785Y1754167D01*
X39949309Y1754167D01*
X39854071Y1706548D01*
X39806452Y1658929D01*
X39758833Y1563691D01*
X41235023Y2135120D02*
X40758833Y2135120D01*
X40711214Y1658929D01*
X40758833Y1706548D01*
X40854071Y1754167D01*
X41092166Y1754167D01*
X41187404Y1706548D01*
X41235023Y1658929D01*
X41282642Y1563691D01*
X41282642Y1325596D01*
X41235023Y1230358D01*
X41187404Y1182739D01*
X41092166Y1135120D01*
X40854071Y1135120D01*
X40758833Y1182739D01*
X40711214Y1230358D01*
X41473119Y1039881D02*
X42235023Y1039881D01*
X42425500Y2039881D02*
X42473119Y2087500D01*
X42568357Y2135120D01*
X42806452Y2135120D01*
X42901690Y2087500D01*
X42949309Y2039881D01*
X42996928Y1944643D01*
X42996928Y1849405D01*
X42949309Y1706548D01*
X42377880Y1135120D01*
X42996928Y1135120D01*
%TO.C,74HC165_3*%
X16772452Y2135120D02*
X17439119Y2135120D01*
X17010547Y1135120D01*
X18248642Y1801786D02*
X18248642Y1135120D01*
X18010547Y2182739D02*
X17772452Y1468453D01*
X18391500Y1468453D01*
X18772452Y1135120D02*
X18772452Y2135120D01*
X18772452Y1658929D02*
X19343880Y1658929D01*
X19343880Y1135120D02*
X19343880Y2135120D01*
X20391500Y1230358D02*
X20343880Y1182739D01*
X20201023Y1135120D01*
X20105785Y1135120D01*
X19962928Y1182739D01*
X19867690Y1277977D01*
X19820071Y1373215D01*
X19772452Y1563691D01*
X19772452Y1706548D01*
X19820071Y1897024D01*
X19867690Y1992262D01*
X19962928Y2087500D01*
X20105785Y2135120D01*
X20201023Y2135120D01*
X20343880Y2087500D01*
X20391500Y2039881D01*
X21343880Y1135120D02*
X20772452Y1135120D01*
X21058166Y1135120D02*
X21058166Y2135120D01*
X20962928Y1992262D01*
X20867690Y1897024D01*
X20772452Y1849405D01*
X22201023Y2135120D02*
X22010547Y2135120D01*
X21915309Y2087500D01*
X21867690Y2039881D01*
X21772452Y1897024D01*
X21724833Y1706548D01*
X21724833Y1325596D01*
X21772452Y1230358D01*
X21820071Y1182739D01*
X21915309Y1135120D01*
X22105785Y1135120D01*
X22201023Y1182739D01*
X22248642Y1230358D01*
X22296261Y1325596D01*
X22296261Y1563691D01*
X22248642Y1658929D01*
X22201023Y1706548D01*
X22105785Y1754167D01*
X21915309Y1754167D01*
X21820071Y1706548D01*
X21772452Y1658929D01*
X21724833Y1563691D01*
X23201023Y2135120D02*
X22724833Y2135120D01*
X22677214Y1658929D01*
X22724833Y1706548D01*
X22820071Y1754167D01*
X23058166Y1754167D01*
X23153404Y1706548D01*
X23201023Y1658929D01*
X23248642Y1563691D01*
X23248642Y1325596D01*
X23201023Y1230358D01*
X23153404Y1182739D01*
X23058166Y1135120D01*
X22820071Y1135120D01*
X22724833Y1182739D01*
X22677214Y1230358D01*
X23439119Y1039881D02*
X24201023Y1039881D01*
X24343880Y2135120D02*
X24962928Y2135120D01*
X24629595Y1754167D01*
X24772452Y1754167D01*
X24867690Y1706548D01*
X24915309Y1658929D01*
X24962928Y1563691D01*
X24962928Y1325596D01*
X24915309Y1230358D01*
X24867690Y1182739D01*
X24772452Y1135120D01*
X24486738Y1135120D01*
X24391500Y1182739D01*
X24343880Y1230358D01*
D12*
%TO.C,C2*%
X44443666Y13811286D02*
X44405571Y13773191D01*
X44291285Y13735096D01*
X44215095Y13735096D01*
X44100809Y13773191D01*
X44024619Y13849381D01*
X43986523Y13925572D01*
X43948428Y14077953D01*
X43948428Y14192239D01*
X43986523Y14344620D01*
X44024619Y14420810D01*
X44100809Y14497000D01*
X44215095Y14535096D01*
X44291285Y14535096D01*
X44405571Y14497000D01*
X44443666Y14458905D01*
X44748428Y14458905D02*
X44786523Y14497000D01*
X44862714Y14535096D01*
X45053190Y14535096D01*
X45129380Y14497000D01*
X45167476Y14458905D01*
X45205571Y14382715D01*
X45205571Y14306524D01*
X45167476Y14192239D01*
X44710333Y13735096D01*
X45205571Y13735096D01*
%TO.C,C3*%
X26409666Y13811286D02*
X26371571Y13773191D01*
X26257285Y13735096D01*
X26181095Y13735096D01*
X26066809Y13773191D01*
X25990619Y13849381D01*
X25952523Y13925572D01*
X25914428Y14077953D01*
X25914428Y14192239D01*
X25952523Y14344620D01*
X25990619Y14420810D01*
X26066809Y14497000D01*
X26181095Y14535096D01*
X26257285Y14535096D01*
X26371571Y14497000D01*
X26409666Y14458905D01*
X26676333Y14535096D02*
X27171571Y14535096D01*
X26904904Y14230334D01*
X27019190Y14230334D01*
X27095380Y14192239D01*
X27133476Y14154143D01*
X27171571Y14077953D01*
X27171571Y13887477D01*
X27133476Y13811286D01*
X27095380Y13773191D01*
X27019190Y13735096D01*
X26790619Y13735096D01*
X26714428Y13773191D01*
X26676333Y13811286D01*
%TO.C,JP2*%
X11388000Y4509334D02*
X11388000Y5209334D01*
X11554666Y5209334D01*
X11654666Y5176000D01*
X11721333Y5109334D01*
X11754666Y5042667D01*
X11788000Y4909334D01*
X11788000Y4809334D01*
X11754666Y4676000D01*
X11721333Y4609334D01*
X11654666Y4542667D01*
X11554666Y4509334D01*
X11388000Y4509334D01*
X12088000Y4509334D02*
X12088000Y5209334D01*
X12488000Y4509334D01*
X12488000Y5209334D01*
X5800000Y5209334D02*
X5800000Y4642667D01*
X5833333Y4576000D01*
X5866666Y4542667D01*
X5933333Y4509334D01*
X6066666Y4509334D01*
X6133333Y4542667D01*
X6166666Y4576000D01*
X6200000Y4642667D01*
X6200000Y5209334D01*
X6533333Y4509334D02*
X6533333Y5209334D01*
X6800000Y5209334D01*
X6866666Y5176000D01*
X6900000Y5142667D01*
X6933333Y5076000D01*
X6933333Y4976000D01*
X6900000Y4909334D01*
X6866666Y4876000D01*
X6800000Y4842667D01*
X6533333Y4842667D01*
%TO.C,JP1*%
X5800000Y8624134D02*
X5800000Y9324134D01*
X5966666Y9324134D01*
X6066666Y9290800D01*
X6133333Y9224134D01*
X6166666Y9157467D01*
X6200000Y9024134D01*
X6200000Y8924134D01*
X6166666Y8790800D01*
X6133333Y8724134D01*
X6066666Y8657467D01*
X5966666Y8624134D01*
X5800000Y8624134D01*
X6500000Y8624134D02*
X6500000Y9324134D01*
X6900000Y8624134D01*
X6900000Y9324134D01*
X11388000Y9324134D02*
X11388000Y8757467D01*
X11421333Y8690800D01*
X11454666Y8657467D01*
X11521333Y8624134D01*
X11654666Y8624134D01*
X11721333Y8657467D01*
X11754666Y8690800D01*
X11788000Y8757467D01*
X11788000Y9324134D01*
X12121333Y8624134D02*
X12121333Y9324134D01*
X12388000Y9324134D01*
X12454666Y9290800D01*
X12488000Y9257467D01*
X12521333Y9190800D01*
X12521333Y9090800D01*
X12488000Y9024134D01*
X12454666Y8990800D01*
X12388000Y8957467D01*
X12121333Y8957467D01*
D13*
%TO.C,OUT1*%
X66869000Y16570000D02*
X68199000Y16570000D01*
X66869000Y3750000D02*
X69529000Y3750000D01*
X66869000Y15240000D02*
X66869000Y16570000D01*
X69529000Y13970000D02*
X69529000Y3750000D01*
X66869000Y13970000D02*
X69529000Y13970000D01*
X66869000Y13970000D02*
X66869000Y3750000D01*
%TO.C,RN2*%
X62846000Y5900000D02*
X63646000Y5900000D01*
X62846000Y9340000D02*
X63646000Y9340000D01*
%TO.C,RN1*%
X51327000Y9340000D02*
X50527000Y9340000D01*
X51327000Y5900000D02*
X50527000Y5900000D01*
%TO.C,RN4*%
X44685000Y6027000D02*
X45485000Y6027000D01*
X44685000Y9467000D02*
X45485000Y9467000D01*
%TO.C,RN5*%
X15195500Y6027000D02*
X14395500Y6027000D01*
X15195500Y9467000D02*
X14395500Y9467000D01*
%TO.C,RN6*%
X26651000Y9340000D02*
X27451000Y9340000D01*
X26651000Y5900000D02*
X27451000Y5900000D01*
%TO.C,RN3*%
X33166000Y5900000D02*
X32366000Y5900000D01*
X33166000Y9340000D02*
X32366000Y9340000D01*
%TO.C,C1*%
X62476748Y13435000D02*
X62999252Y13435000D01*
X62476748Y11965000D02*
X62999252Y11965000D01*
%TO.C,74HC165_1*%
X57023000Y12807000D02*
X53573000Y12807000D01*
X57023000Y12807000D02*
X58973000Y12807000D01*
X57023000Y2687000D02*
X58973000Y2687000D01*
X57023000Y2687000D02*
X55073000Y2687000D01*
%TO.C,74HC165_2*%
X38925500Y2623500D02*
X40875500Y2623500D01*
X38925500Y12743500D02*
X35475500Y12743500D01*
X38925500Y12743500D02*
X40875500Y12743500D01*
X38925500Y2623500D02*
X36975500Y2623500D01*
%TO.C,74HC165_3*%
X20891500Y12743500D02*
X22841500Y12743500D01*
X20891500Y2623500D02*
X22841500Y2623500D01*
X20891500Y12743500D02*
X17441500Y12743500D01*
X20891500Y2623500D02*
X18941500Y2623500D01*
%TO.C,C2*%
X44315748Y13435000D02*
X44838252Y13435000D01*
X44315748Y11965000D02*
X44838252Y11965000D01*
%TO.C,C3*%
X26281748Y13435000D02*
X26804252Y13435000D01*
X26281748Y11965000D02*
X26804252Y11965000D01*
%TO.C,J22*%
X54520000Y22126000D02*
X54520000Y23126000D01*
X53770000Y23126000D02*
X53770000Y22126000D01*
X53770000Y22126000D02*
X54520000Y22126000D01*
X54820000Y25476000D02*
X54820000Y26726000D01*
X53770000Y20626000D02*
X53770000Y18826000D01*
X53770000Y18826000D02*
X54520000Y18826000D01*
X49320000Y25676000D02*
X49320000Y22626000D01*
X52270000Y25676000D02*
X49320000Y25676000D01*
X54520000Y23126000D02*
X53770000Y23126000D01*
X54520000Y26426000D02*
X53770000Y26426000D01*
X52270000Y26426000D02*
X52270000Y25676000D01*
X54530000Y18816000D02*
X54530000Y26436000D01*
X54520000Y20626000D02*
X53770000Y20626000D01*
X48560000Y26436000D02*
X48560000Y18816000D01*
X52270000Y19576000D02*
X49320000Y19576000D01*
X53770000Y26426000D02*
X53770000Y24626000D01*
X49320000Y19576000D02*
X49320000Y22626000D01*
X54820000Y26726000D02*
X53570000Y26726000D01*
X54530000Y26436000D02*
X48560000Y26436000D01*
X54520000Y18826000D02*
X54520000Y20626000D01*
X54520000Y24626000D02*
X54520000Y26426000D01*
X53770000Y24626000D02*
X54520000Y24626000D01*
X48560000Y18816000D02*
X54530000Y18816000D01*
X52270000Y18826000D02*
X52270000Y19576000D01*
%TO.C,J23*%
X46912000Y26426000D02*
X46912000Y24626000D01*
X46912000Y22126000D02*
X47662000Y22126000D01*
X46912000Y18826000D02*
X47662000Y18826000D01*
X45412000Y19576000D02*
X42462000Y19576000D01*
X47662000Y22126000D02*
X47662000Y23126000D01*
X46912000Y20626000D02*
X46912000Y18826000D01*
X47662000Y23126000D02*
X46912000Y23126000D01*
X47962000Y25476000D02*
X47962000Y26726000D01*
X41702000Y26436000D02*
X41702000Y18816000D01*
X42462000Y25676000D02*
X42462000Y22626000D01*
X46912000Y24626000D02*
X47662000Y24626000D01*
X45412000Y18826000D02*
X45412000Y19576000D01*
X47662000Y18826000D02*
X47662000Y20626000D01*
X47672000Y18816000D02*
X47672000Y26436000D01*
X47662000Y24626000D02*
X47662000Y26426000D01*
X47662000Y20626000D02*
X46912000Y20626000D01*
X41702000Y18816000D02*
X47672000Y18816000D01*
X46912000Y23126000D02*
X46912000Y22126000D01*
X47662000Y26426000D02*
X46912000Y26426000D01*
X47962000Y26726000D02*
X46712000Y26726000D01*
X47672000Y26436000D02*
X41702000Y26436000D01*
X45412000Y25676000D02*
X42462000Y25676000D01*
X45412000Y26426000D02*
X45412000Y25676000D01*
X42462000Y19576000D02*
X42462000Y22626000D01*
%TO.C,J24*%
X38554000Y25676000D02*
X35604000Y25676000D01*
X40054000Y20626000D02*
X40054000Y18826000D01*
X34844000Y18816000D02*
X40814000Y18816000D01*
X40804000Y24626000D02*
X40804000Y26426000D01*
X40054000Y23126000D02*
X40054000Y22126000D01*
X40054000Y26426000D02*
X40054000Y24626000D01*
X40804000Y26426000D02*
X40054000Y26426000D01*
X41104000Y25476000D02*
X41104000Y26726000D01*
X40804000Y23126000D02*
X40054000Y23126000D01*
X41104000Y26726000D02*
X39854000Y26726000D01*
X38554000Y26426000D02*
X38554000Y25676000D01*
X40814000Y26436000D02*
X34844000Y26436000D01*
X38554000Y19576000D02*
X35604000Y19576000D01*
X35604000Y25676000D02*
X35604000Y22626000D01*
X40054000Y18826000D02*
X40804000Y18826000D01*
X40054000Y24626000D02*
X40804000Y24626000D01*
X40054000Y22126000D02*
X40804000Y22126000D01*
X40814000Y18816000D02*
X40814000Y26436000D01*
X34844000Y26436000D02*
X34844000Y18816000D01*
X35604000Y19576000D02*
X35604000Y22626000D01*
X40804000Y18826000D02*
X40804000Y20626000D01*
X38554000Y18826000D02*
X38554000Y19576000D01*
X40804000Y22126000D02*
X40804000Y23126000D01*
X40804000Y20626000D02*
X40054000Y20626000D01*
%TO.C,J25*%
X28746000Y25676000D02*
X28746000Y22626000D01*
X27986000Y26436000D02*
X27986000Y18816000D01*
X33956000Y18816000D02*
X33956000Y26436000D01*
X33946000Y22126000D02*
X33946000Y23126000D01*
X31696000Y26426000D02*
X31696000Y25676000D01*
X33946000Y26426000D02*
X33196000Y26426000D01*
X33196000Y22126000D02*
X33946000Y22126000D01*
X33956000Y26436000D02*
X27986000Y26436000D01*
X33196000Y20626000D02*
X33196000Y18826000D01*
X33196000Y26426000D02*
X33196000Y24626000D01*
X33196000Y24626000D02*
X33946000Y24626000D01*
X33196000Y23126000D02*
X33196000Y22126000D01*
X33946000Y24626000D02*
X33946000Y26426000D01*
X31696000Y25676000D02*
X28746000Y25676000D01*
X33196000Y18826000D02*
X33946000Y18826000D01*
X31696000Y18826000D02*
X31696000Y19576000D01*
X33946000Y23126000D02*
X33196000Y23126000D01*
X33946000Y18826000D02*
X33946000Y20626000D01*
X34246000Y25476000D02*
X34246000Y26726000D01*
X33946000Y20626000D02*
X33196000Y20626000D01*
X31696000Y19576000D02*
X28746000Y19576000D01*
X34246000Y26726000D02*
X32996000Y26726000D01*
X28746000Y19576000D02*
X28746000Y22626000D01*
X27986000Y18816000D02*
X33956000Y18816000D01*
%TO.C,J26*%
X26338000Y18826000D02*
X27088000Y18826000D01*
X27388000Y25476000D02*
X27388000Y26726000D01*
X26338000Y23126000D02*
X26338000Y22126000D01*
X27388000Y26726000D02*
X26138000Y26726000D01*
X21128000Y26436000D02*
X21128000Y18816000D01*
X27098000Y18816000D02*
X27098000Y26436000D01*
X27098000Y26436000D02*
X21128000Y26436000D01*
X27088000Y20626000D02*
X26338000Y20626000D01*
X24838000Y26426000D02*
X24838000Y25676000D01*
X26338000Y26426000D02*
X26338000Y24626000D01*
X26338000Y22126000D02*
X27088000Y22126000D01*
X24838000Y25676000D02*
X21888000Y25676000D01*
X27088000Y24626000D02*
X27088000Y26426000D01*
X27088000Y23126000D02*
X26338000Y23126000D01*
X21888000Y19576000D02*
X21888000Y22626000D01*
X21128000Y18816000D02*
X27098000Y18816000D01*
X24838000Y19576000D02*
X21888000Y19576000D01*
X21888000Y25676000D02*
X21888000Y22626000D01*
X27088000Y18826000D02*
X27088000Y20626000D01*
X26338000Y20626000D02*
X26338000Y18826000D01*
X27088000Y22126000D02*
X27088000Y23126000D01*
X26338000Y24626000D02*
X27088000Y24626000D01*
X24838000Y18826000D02*
X24838000Y19576000D01*
X27088000Y26426000D02*
X26338000Y26426000D01*
%TO.C,J27*%
X19480000Y22126000D02*
X20230000Y22126000D01*
X20530000Y25476000D02*
X20530000Y26726000D01*
X17980000Y18826000D02*
X17980000Y19576000D01*
X20230000Y26426000D02*
X19480000Y26426000D01*
X20230000Y23126000D02*
X19480000Y23126000D01*
X20230000Y24626000D02*
X20230000Y26426000D01*
X19480000Y20626000D02*
X19480000Y18826000D01*
X14270000Y18816000D02*
X20240000Y18816000D01*
X20240000Y18816000D02*
X20240000Y26436000D01*
X20230000Y22126000D02*
X20230000Y23126000D01*
X15030000Y19576000D02*
X15030000Y22626000D01*
X20530000Y26726000D02*
X19280000Y26726000D01*
X20240000Y26436000D02*
X14270000Y26436000D01*
X15030000Y25676000D02*
X15030000Y22626000D01*
X17980000Y26426000D02*
X17980000Y25676000D01*
X20230000Y18826000D02*
X20230000Y20626000D01*
X19480000Y26426000D02*
X19480000Y24626000D01*
X19480000Y18826000D02*
X20230000Y18826000D01*
X20230000Y20626000D02*
X19480000Y20626000D01*
X17980000Y25676000D02*
X15030000Y25676000D01*
X14270000Y26436000D02*
X14270000Y18816000D01*
X19480000Y24626000D02*
X20230000Y24626000D01*
X19480000Y23126000D02*
X19480000Y22126000D01*
X17980000Y19576000D02*
X15030000Y19576000D01*
%TO.C,J28*%
X7412000Y26436000D02*
X7412000Y18816000D01*
X12622000Y23126000D02*
X12622000Y22126000D01*
X12622000Y22126000D02*
X13372000Y22126000D01*
X13372000Y20626000D02*
X12622000Y20626000D01*
X11122000Y19576000D02*
X8172000Y19576000D01*
X13672000Y25476000D02*
X13672000Y26726000D01*
X13372000Y22126000D02*
X13372000Y23126000D01*
X12622000Y24626000D02*
X13372000Y24626000D01*
X13672000Y26726000D02*
X12422000Y26726000D01*
X11122000Y25676000D02*
X8172000Y25676000D01*
X13372000Y18826000D02*
X13372000Y20626000D01*
X13372000Y24626000D02*
X13372000Y26426000D01*
X8172000Y25676000D02*
X8172000Y22626000D01*
X13372000Y26426000D02*
X12622000Y26426000D01*
X13382000Y26436000D02*
X7412000Y26436000D01*
X13382000Y18816000D02*
X13382000Y26436000D01*
X8172000Y19576000D02*
X8172000Y22626000D01*
X7412000Y18816000D02*
X13382000Y18816000D01*
X12622000Y26426000D02*
X12622000Y24626000D01*
X12622000Y18826000D02*
X13372000Y18826000D01*
X13372000Y23126000D02*
X12622000Y23126000D01*
X11122000Y26426000D02*
X11122000Y25676000D01*
X11122000Y18826000D02*
X11122000Y19576000D01*
X12622000Y20626000D02*
X12622000Y18826000D01*
%TO.C,J29*%
X5764000Y22126000D02*
X6514000Y22126000D01*
X4264000Y26426000D02*
X4264000Y25676000D01*
X6814000Y26726000D02*
X5564000Y26726000D01*
X6514000Y18826000D02*
X6514000Y20626000D01*
X6814000Y25476000D02*
X6814000Y26726000D01*
X554000Y26436000D02*
X554000Y18816000D01*
X5764000Y18826000D02*
X6514000Y18826000D01*
X5764000Y24626000D02*
X6514000Y24626000D01*
X6524000Y18816000D02*
X6524000Y26436000D01*
X4264000Y19576000D02*
X1314000Y19576000D01*
X6514000Y26426000D02*
X5764000Y26426000D01*
X4264000Y25676000D02*
X1314000Y25676000D01*
X6514000Y23126000D02*
X5764000Y23126000D01*
X5764000Y20626000D02*
X5764000Y18826000D01*
X5764000Y23126000D02*
X5764000Y22126000D01*
X5764000Y26426000D02*
X5764000Y24626000D01*
X6524000Y26436000D02*
X554000Y26436000D01*
X6514000Y22126000D02*
X6514000Y23126000D01*
X6514000Y24626000D02*
X6514000Y26426000D01*
X1314000Y25676000D02*
X1314000Y22626000D01*
X4264000Y18826000D02*
X4264000Y19576000D01*
X1314000Y19576000D02*
X1314000Y22626000D01*
X554000Y18816000D02*
X6524000Y18816000D01*
X6514000Y20626000D02*
X5764000Y20626000D01*
%TO.C,J16*%
X27098000Y27452000D02*
X27098000Y35072000D01*
X26338000Y33262000D02*
X27088000Y33262000D01*
X27098000Y35072000D02*
X21128000Y35072000D01*
X21888000Y34312000D02*
X21888000Y31262000D01*
X24838000Y28212000D02*
X21888000Y28212000D01*
X21128000Y27452000D02*
X27098000Y27452000D01*
X24838000Y27462000D02*
X24838000Y28212000D01*
X27388000Y35362000D02*
X26138000Y35362000D01*
X27088000Y30762000D02*
X27088000Y31762000D01*
X21888000Y28212000D02*
X21888000Y31262000D01*
X26338000Y35062000D02*
X26338000Y33262000D01*
X26338000Y29262000D02*
X26338000Y27462000D01*
X27088000Y31762000D02*
X26338000Y31762000D01*
X24838000Y35062000D02*
X24838000Y34312000D01*
X21128000Y35072000D02*
X21128000Y27452000D01*
X26338000Y31762000D02*
X26338000Y30762000D01*
X27088000Y35062000D02*
X26338000Y35062000D01*
X27388000Y34112000D02*
X27388000Y35362000D01*
X27088000Y27462000D02*
X27088000Y29262000D01*
X27088000Y33262000D02*
X27088000Y35062000D01*
X27088000Y29262000D02*
X26338000Y29262000D01*
X26338000Y27462000D02*
X27088000Y27462000D01*
X24838000Y34312000D02*
X21888000Y34312000D01*
X26338000Y30762000D02*
X27088000Y30762000D01*
%TO.C,J15*%
X33196000Y35062000D02*
X33196000Y33262000D01*
X33946000Y27462000D02*
X33946000Y29262000D01*
X33946000Y31762000D02*
X33196000Y31762000D01*
X33196000Y31762000D02*
X33196000Y30762000D01*
X31696000Y28212000D02*
X28746000Y28212000D01*
X33196000Y30762000D02*
X33946000Y30762000D01*
X31696000Y34312000D02*
X28746000Y34312000D01*
X27986000Y27452000D02*
X33956000Y27452000D01*
X34246000Y35362000D02*
X32996000Y35362000D01*
X34246000Y34112000D02*
X34246000Y35362000D01*
X33946000Y35062000D02*
X33196000Y35062000D01*
X33946000Y29262000D02*
X33196000Y29262000D01*
X28746000Y28212000D02*
X28746000Y31262000D01*
X33956000Y27452000D02*
X33956000Y35072000D01*
X33946000Y33262000D02*
X33946000Y35062000D01*
X33946000Y30762000D02*
X33946000Y31762000D01*
X31696000Y35062000D02*
X31696000Y34312000D01*
X33196000Y33262000D02*
X33946000Y33262000D01*
X33196000Y27462000D02*
X33946000Y27462000D01*
X33956000Y35072000D02*
X27986000Y35072000D01*
X33196000Y29262000D02*
X33196000Y27462000D01*
X27986000Y35072000D02*
X27986000Y27452000D01*
X28746000Y34312000D02*
X28746000Y31262000D01*
X31696000Y27462000D02*
X31696000Y28212000D01*
%TO.C,J14*%
X38554000Y34312000D02*
X35604000Y34312000D01*
X34844000Y27452000D02*
X40814000Y27452000D01*
X40054000Y31762000D02*
X40054000Y30762000D01*
X40054000Y35062000D02*
X40054000Y33262000D01*
X40054000Y29262000D02*
X40054000Y27462000D01*
X41104000Y34112000D02*
X41104000Y35362000D01*
X38554000Y35062000D02*
X38554000Y34312000D01*
X40804000Y29262000D02*
X40054000Y29262000D01*
X40054000Y27462000D02*
X40804000Y27462000D01*
X40804000Y33262000D02*
X40804000Y35062000D01*
X40804000Y31762000D02*
X40054000Y31762000D01*
X40054000Y30762000D02*
X40804000Y30762000D01*
X40814000Y27452000D02*
X40814000Y35072000D01*
X38554000Y27462000D02*
X38554000Y28212000D01*
X40054000Y33262000D02*
X40804000Y33262000D01*
X40804000Y35062000D02*
X40054000Y35062000D01*
X40814000Y35072000D02*
X34844000Y35072000D01*
X38554000Y28212000D02*
X35604000Y28212000D01*
X35604000Y34312000D02*
X35604000Y31262000D01*
X41104000Y35362000D02*
X39854000Y35362000D01*
X40804000Y30762000D02*
X40804000Y31762000D01*
X35604000Y28212000D02*
X35604000Y31262000D01*
X34844000Y35072000D02*
X34844000Y27452000D01*
X40804000Y27462000D02*
X40804000Y29262000D01*
%TO.C,J18*%
X13372000Y30762000D02*
X13372000Y31762000D01*
X8172000Y34312000D02*
X8172000Y31262000D01*
X8172000Y28212000D02*
X8172000Y31262000D01*
X12622000Y30762000D02*
X13372000Y30762000D01*
X13672000Y35362000D02*
X12422000Y35362000D01*
X13372000Y27462000D02*
X13372000Y29262000D01*
X13382000Y35072000D02*
X7412000Y35072000D01*
X13672000Y34112000D02*
X13672000Y35362000D01*
X12622000Y27462000D02*
X13372000Y27462000D01*
X13372000Y29262000D02*
X12622000Y29262000D01*
X13382000Y27452000D02*
X13382000Y35072000D01*
X11122000Y28212000D02*
X8172000Y28212000D01*
X7412000Y27452000D02*
X13382000Y27452000D01*
X11122000Y35062000D02*
X11122000Y34312000D01*
X12622000Y35062000D02*
X12622000Y33262000D01*
X13372000Y33262000D02*
X13372000Y35062000D01*
X7412000Y35072000D02*
X7412000Y27452000D01*
X12622000Y29262000D02*
X12622000Y27462000D01*
X11122000Y34312000D02*
X8172000Y34312000D01*
X12622000Y33262000D02*
X13372000Y33262000D01*
X11122000Y27462000D02*
X11122000Y28212000D01*
X13372000Y31762000D02*
X12622000Y31762000D01*
X13372000Y35062000D02*
X12622000Y35062000D01*
X12622000Y31762000D02*
X12622000Y30762000D01*
%TO.C,J19*%
X6514000Y33262000D02*
X6514000Y35062000D01*
X6514000Y35062000D02*
X5764000Y35062000D01*
X5764000Y30762000D02*
X6514000Y30762000D01*
X6524000Y35072000D02*
X554000Y35072000D01*
X5764000Y31762000D02*
X5764000Y30762000D01*
X5764000Y29262000D02*
X5764000Y27462000D01*
X1314000Y34312000D02*
X1314000Y31262000D01*
X5764000Y35062000D02*
X5764000Y33262000D01*
X554000Y35072000D02*
X554000Y27452000D01*
X6514000Y27462000D02*
X6514000Y29262000D01*
X1314000Y28212000D02*
X1314000Y31262000D01*
X4264000Y28212000D02*
X1314000Y28212000D01*
X6814000Y34112000D02*
X6814000Y35362000D01*
X6814000Y35362000D02*
X5564000Y35362000D01*
X6514000Y31762000D02*
X5764000Y31762000D01*
X5764000Y27462000D02*
X6514000Y27462000D01*
X4264000Y34312000D02*
X1314000Y34312000D01*
X6514000Y29262000D02*
X5764000Y29262000D01*
X4264000Y35062000D02*
X4264000Y34312000D01*
X5764000Y33262000D02*
X6514000Y33262000D01*
X4264000Y27462000D02*
X4264000Y28212000D01*
X554000Y27452000D02*
X6524000Y27452000D01*
X6524000Y27452000D02*
X6524000Y35072000D01*
X6514000Y30762000D02*
X6514000Y31762000D01*
%TO.C,J17*%
X20230000Y29262000D02*
X19480000Y29262000D01*
X19480000Y27462000D02*
X20230000Y27462000D01*
X17980000Y34312000D02*
X15030000Y34312000D01*
X19480000Y31762000D02*
X19480000Y30762000D01*
X19480000Y30762000D02*
X20230000Y30762000D01*
X19480000Y29262000D02*
X19480000Y27462000D01*
X20230000Y27462000D02*
X20230000Y29262000D01*
X19480000Y33262000D02*
X20230000Y33262000D01*
X20530000Y34112000D02*
X20530000Y35362000D01*
X20230000Y30762000D02*
X20230000Y31762000D01*
X20230000Y35062000D02*
X19480000Y35062000D01*
X17980000Y27462000D02*
X17980000Y28212000D01*
X20230000Y31762000D02*
X19480000Y31762000D01*
X20230000Y33262000D02*
X20230000Y35062000D01*
X17980000Y35062000D02*
X17980000Y34312000D01*
X20240000Y27452000D02*
X20240000Y35072000D01*
X20530000Y35362000D02*
X19280000Y35362000D01*
X20240000Y35072000D02*
X14270000Y35072000D01*
X15030000Y28212000D02*
X15030000Y31262000D01*
X19480000Y35062000D02*
X19480000Y33262000D01*
X14270000Y27452000D02*
X20240000Y27452000D01*
X17980000Y28212000D02*
X15030000Y28212000D01*
X14270000Y35072000D02*
X14270000Y27452000D01*
X15030000Y34312000D02*
X15030000Y31262000D01*
%TO.C,J13*%
X46912000Y27462000D02*
X47662000Y27462000D01*
X47662000Y31762000D02*
X46912000Y31762000D01*
X46912000Y33262000D02*
X47662000Y33262000D01*
X47672000Y27452000D02*
X47672000Y35072000D01*
X46912000Y35062000D02*
X46912000Y33262000D01*
X47662000Y30762000D02*
X47662000Y31762000D01*
X47962000Y35362000D02*
X46712000Y35362000D01*
X47662000Y33262000D02*
X47662000Y35062000D01*
X47662000Y27462000D02*
X47662000Y29262000D01*
X47672000Y35072000D02*
X41702000Y35072000D01*
X47662000Y29262000D02*
X46912000Y29262000D01*
X42462000Y34312000D02*
X42462000Y31262000D01*
X45412000Y28212000D02*
X42462000Y28212000D01*
X46912000Y30762000D02*
X47662000Y30762000D01*
X47962000Y34112000D02*
X47962000Y35362000D01*
X46912000Y31762000D02*
X46912000Y30762000D01*
X41702000Y35072000D02*
X41702000Y27452000D01*
X45412000Y27462000D02*
X45412000Y28212000D01*
X45412000Y35062000D02*
X45412000Y34312000D01*
X41702000Y27452000D02*
X47672000Y27452000D01*
X47662000Y35062000D02*
X46912000Y35062000D01*
X46912000Y29262000D02*
X46912000Y27462000D01*
X42462000Y28212000D02*
X42462000Y31262000D01*
X45412000Y34312000D02*
X42462000Y34312000D01*
%TO.C,J11*%
X70922000Y28746000D02*
X70922000Y29996000D01*
X58822000Y29046000D02*
X67322000Y29046000D01*
X70622000Y31296000D02*
X69872000Y31296000D01*
X68822000Y29796000D02*
X68822000Y29046000D01*
X56272000Y34246000D02*
X63072000Y34246000D01*
X55522000Y29046000D02*
X57322000Y29046000D01*
X68822000Y29046000D02*
X70622000Y29046000D01*
X67322000Y29796000D02*
X58822000Y29796000D01*
X58822000Y29796000D02*
X58822000Y29046000D01*
X57322000Y29046000D02*
X57322000Y29796000D01*
X70632000Y35006000D02*
X55512000Y35006000D01*
X69672000Y28746000D02*
X70922000Y28746000D01*
X55522000Y29796000D02*
X55522000Y29046000D01*
X70632000Y29036000D02*
X70632000Y35006000D01*
X70622000Y29046000D02*
X70622000Y29796000D01*
X56272000Y31296000D02*
X56272000Y34246000D01*
X55512000Y29036000D02*
X70632000Y29036000D01*
X57322000Y29796000D02*
X55522000Y29796000D01*
X70622000Y29796000D02*
X68822000Y29796000D01*
X55522000Y31296000D02*
X56272000Y31296000D01*
X69872000Y31296000D02*
X69872000Y34246000D01*
X67322000Y29046000D02*
X67322000Y29796000D01*
X55512000Y35006000D02*
X55512000Y29036000D01*
X69872000Y34246000D02*
X63072000Y34246000D01*
%TO.C,J12*%
X49320000Y34312000D02*
X49320000Y31262000D01*
X52270000Y35062000D02*
X52270000Y34312000D01*
X54820000Y34112000D02*
X54820000Y35362000D01*
X49320000Y28212000D02*
X49320000Y31262000D01*
X54520000Y33262000D02*
X54520000Y35062000D01*
X53770000Y27462000D02*
X54520000Y27462000D01*
X48560000Y27452000D02*
X54530000Y27452000D01*
X54530000Y35072000D02*
X48560000Y35072000D01*
X53770000Y30762000D02*
X54520000Y30762000D01*
X53770000Y29262000D02*
X53770000Y27462000D01*
X48560000Y35072000D02*
X48560000Y27452000D01*
X53770000Y31762000D02*
X53770000Y30762000D01*
X54530000Y27452000D02*
X54530000Y35072000D01*
X52270000Y28212000D02*
X49320000Y28212000D01*
X53770000Y33262000D02*
X54520000Y33262000D01*
X54820000Y35362000D02*
X53570000Y35362000D01*
X54520000Y31762000D02*
X53770000Y31762000D01*
X52270000Y27462000D02*
X52270000Y28212000D01*
X54520000Y29262000D02*
X53770000Y29262000D01*
X53770000Y35062000D02*
X53770000Y33262000D01*
X54520000Y35062000D02*
X53770000Y35062000D01*
X54520000Y27462000D02*
X54520000Y29262000D01*
X52270000Y34312000D02*
X49320000Y34312000D01*
X54520000Y30762000D02*
X54520000Y31762000D01*
%TO.C,J21*%
X68822000Y21160000D02*
X68822000Y20410000D01*
X70922000Y20110000D02*
X70922000Y21360000D01*
X56272000Y22660000D02*
X56272000Y25610000D01*
X58822000Y21160000D02*
X58822000Y20410000D01*
X69672000Y20110000D02*
X70922000Y20110000D01*
X56272000Y25610000D02*
X63072000Y25610000D01*
X57322000Y20410000D02*
X57322000Y21160000D01*
X68822000Y20410000D02*
X70622000Y20410000D01*
X55522000Y22660000D02*
X56272000Y22660000D01*
X70632000Y26370000D02*
X55512000Y26370000D01*
X55512000Y20400000D02*
X70632000Y20400000D01*
X70622000Y20410000D02*
X70622000Y21160000D01*
X69872000Y22660000D02*
X69872000Y25610000D01*
X69872000Y25610000D02*
X63072000Y25610000D01*
X70622000Y21160000D02*
X68822000Y21160000D01*
X55522000Y20410000D02*
X57322000Y20410000D01*
X58822000Y20410000D02*
X67322000Y20410000D01*
X55522000Y21160000D02*
X55522000Y20410000D01*
X70632000Y20400000D02*
X70632000Y26370000D01*
X57322000Y21160000D02*
X55522000Y21160000D01*
X67322000Y21160000D02*
X58822000Y21160000D01*
X67322000Y20410000D02*
X67322000Y21160000D01*
X55512000Y26370000D02*
X55512000Y20400000D01*
X70622000Y22660000D02*
X69872000Y22660000D01*
%TO.C,IN1*%
X1845000Y3623000D02*
X4505000Y3623000D01*
X1845000Y15113000D02*
X1845000Y16443000D01*
X4505000Y13843000D02*
X4505000Y3623000D01*
X1845000Y13843000D02*
X4505000Y13843000D01*
X1845000Y13843000D02*
X1845000Y3623000D01*
X1845000Y16443000D02*
X3175000Y16443000D01*
%TO.C,JP2*%
X7094000Y5826000D02*
X11194000Y5826000D01*
X11194000Y5826000D02*
X11194000Y3826000D01*
X7094000Y3826000D02*
X7094000Y5826000D01*
X11194000Y3826000D02*
X7094000Y3826000D01*
%TO.C,JP1*%
X7094000Y9940800D02*
X11194000Y9940800D01*
X11194000Y9940800D02*
X11194000Y7940800D01*
X11194000Y7940800D02*
X7094000Y7940800D01*
X7094000Y7940800D02*
X7094000Y9940800D01*
%TO.C,JP5*%
X12417600Y16819600D02*
X12417600Y17419600D01*
X15217600Y17419600D02*
X15217600Y16819600D01*
X14517600Y16119600D02*
X13117600Y16119600D01*
X13117600Y18119600D02*
X14517600Y18119600D01*
X15217600Y17419600D02*
G75*
G03*
X14517600Y18119600I-700000J0D01*
G01*
X12417600Y16819600D02*
G75*
G03*
X13117600Y16119600I699999J-1D01*
G01*
X13117600Y18119600D02*
G75*
G03*
X12417600Y17419600I-1J-699999D01*
G01*
X14517600Y16119600D02*
G75*
G03*
X15217600Y16819600I0J700000D01*
G01*
%TO.C,JP6*%
X18570400Y17419600D02*
X18570400Y16819600D01*
X17870400Y16119600D02*
X16470400Y16119600D01*
X15770400Y16819600D02*
X15770400Y17419600D01*
X16470400Y18119600D02*
X17870400Y18119600D01*
X16470400Y18119600D02*
G75*
G03*
X15770400Y17419600I-1J-699999D01*
G01*
X15770400Y16819600D02*
G75*
G03*
X16470400Y16119600I699999J-1D01*
G01*
X18570400Y17419600D02*
G75*
G03*
X17870400Y18119600I-700000J0D01*
G01*
X17870400Y16119600D02*
G75*
G03*
X18570400Y16819600I0J700000D01*
G01*
%TO.C,JP4*%
X11164800Y16119600D02*
X9764800Y16119600D01*
X9064800Y16819600D02*
X9064800Y17419600D01*
X9764800Y18119600D02*
X11164800Y18119600D01*
X11864800Y17419600D02*
X11864800Y16819600D01*
X11164800Y16119600D02*
G75*
G03*
X11864800Y16819600I0J700000D01*
G01*
X9064800Y16819600D02*
G75*
G03*
X9764800Y16119600I699999J-1D01*
G01*
X11864800Y17419600D02*
G75*
G03*
X11164800Y18119600I-700000J0D01*
G01*
X9764800Y18119600D02*
G75*
G03*
X9064800Y17419600I-1J-699999D01*
G01*
%TO.C,JP3*%
X6412000Y18119600D02*
X7812000Y18119600D01*
X7812000Y16119600D02*
X6412000Y16119600D01*
X8512000Y17419600D02*
X8512000Y16819600D01*
X5712000Y16819600D02*
X5712000Y17419600D01*
X5712000Y16819600D02*
G75*
G03*
X6412000Y16119600I699999J-1D01*
G01*
X6412000Y18119600D02*
G75*
G03*
X5712000Y17419600I-1J-699999D01*
G01*
X7812000Y16119600D02*
G75*
G03*
X8512000Y16819600I0J700000D01*
G01*
X8512000Y17419600D02*
G75*
G03*
X7812000Y18119600I-700000J0D01*
G01*
%TD*%
%LPC*%
D14*
%TO.C,OUT1*%
X68199000Y15240000D03*
D15*
X68199000Y12700000D03*
X68199000Y10160000D03*
X68199000Y7620000D03*
X68199000Y5080000D03*
%TD*%
D16*
%TO.C,RN2*%
X64096000Y6420000D03*
X64096000Y7220000D03*
X64096000Y8020000D03*
X64096000Y8820000D03*
X62396000Y8820000D03*
X62396000Y8020000D03*
X62396000Y7220000D03*
X62396000Y6420000D03*
%TD*%
%TO.C,RN1*%
X50077000Y8820000D03*
X50077000Y8020000D03*
X50077000Y7220000D03*
X50077000Y6420000D03*
X51777000Y6420000D03*
X51777000Y7220000D03*
X51777000Y8020000D03*
X51777000Y8820000D03*
%TD*%
%TO.C,RN4*%
X45935000Y6547000D03*
X45935000Y7347000D03*
X45935000Y8147000D03*
X45935000Y8947000D03*
X44235000Y8947000D03*
X44235000Y8147000D03*
X44235000Y7347000D03*
X44235000Y6547000D03*
%TD*%
%TO.C,RN5*%
X13945500Y8947000D03*
X13945500Y8147000D03*
X13945500Y7347000D03*
X13945500Y6547000D03*
X15645500Y6547000D03*
X15645500Y7347000D03*
X15645500Y8147000D03*
X15645500Y8947000D03*
%TD*%
%TO.C,RN6*%
X27901000Y6420000D03*
X27901000Y7220000D03*
X27901000Y8020000D03*
X27901000Y8820000D03*
X26201000Y8820000D03*
X26201000Y8020000D03*
X26201000Y7220000D03*
X26201000Y6420000D03*
%TD*%
%TO.C,RN3*%
X31916000Y8820000D03*
X31916000Y8020000D03*
X31916000Y7220000D03*
X31916000Y6420000D03*
X33616000Y6420000D03*
X33616000Y7220000D03*
X33616000Y8020000D03*
X33616000Y8820000D03*
%TD*%
D17*
%TO.C,C1*%
X61700500Y12700000D03*
X63775500Y12700000D03*
%TD*%
D18*
%TO.C,74HC165_1*%
X54548000Y12192000D03*
X54548000Y10922000D03*
X54548000Y9652000D03*
X54548000Y8382000D03*
X54548000Y7112000D03*
X54548000Y5842000D03*
X54548000Y4572000D03*
X54548000Y3302000D03*
X59498000Y3302000D03*
X59498000Y4572000D03*
X59498000Y5842000D03*
X59498000Y7112000D03*
X59498000Y8382000D03*
X59498000Y9652000D03*
X59498000Y10922000D03*
X59498000Y12192000D03*
%TD*%
%TO.C,74HC165_2*%
X36450500Y12128500D03*
X36450500Y10858500D03*
X36450500Y9588500D03*
X36450500Y8318500D03*
X36450500Y7048500D03*
X36450500Y5778500D03*
X36450500Y4508500D03*
X36450500Y3238500D03*
X41400500Y3238500D03*
X41400500Y4508500D03*
X41400500Y5778500D03*
X41400500Y7048500D03*
X41400500Y8318500D03*
X41400500Y9588500D03*
X41400500Y10858500D03*
X41400500Y12128500D03*
%TD*%
%TO.C,74HC165_3*%
X18416500Y12128500D03*
X18416500Y10858500D03*
X18416500Y9588500D03*
X18416500Y8318500D03*
X18416500Y7048500D03*
X18416500Y5778500D03*
X18416500Y4508500D03*
X18416500Y3238500D03*
X23366500Y3238500D03*
X23366500Y4508500D03*
X23366500Y5778500D03*
X23366500Y7048500D03*
X23366500Y8318500D03*
X23366500Y9588500D03*
X23366500Y10858500D03*
X23366500Y12128500D03*
%TD*%
D17*
%TO.C,C2*%
X43539500Y12700000D03*
X45614500Y12700000D03*
%TD*%
%TO.C,C3*%
X25505500Y12700000D03*
X27580500Y12700000D03*
%TD*%
D19*
%TO.C,J22*%
X52070000Y23876000D03*
D20*
X52070000Y21376000D03*
%TD*%
D19*
%TO.C,J23*%
X45212000Y23876000D03*
D20*
X45212000Y21376000D03*
%TD*%
D19*
%TO.C,J24*%
X38354000Y23876000D03*
D20*
X38354000Y21376000D03*
%TD*%
D19*
%TO.C,J25*%
X31496000Y23876000D03*
D20*
X31496000Y21376000D03*
%TD*%
D19*
%TO.C,J26*%
X24638000Y23876000D03*
D20*
X24638000Y21376000D03*
%TD*%
D19*
%TO.C,J27*%
X17780000Y23876000D03*
D20*
X17780000Y21376000D03*
%TD*%
D19*
%TO.C,J28*%
X10922000Y23876000D03*
D20*
X10922000Y21376000D03*
%TD*%
D19*
%TO.C,J29*%
X4064000Y23876000D03*
D20*
X4064000Y21376000D03*
%TD*%
D19*
%TO.C,J16*%
X24638000Y32512000D03*
D20*
X24638000Y30012000D03*
%TD*%
D19*
%TO.C,J15*%
X31496000Y32512000D03*
D20*
X31496000Y30012000D03*
%TD*%
D19*
%TO.C,J14*%
X38354000Y32512000D03*
D20*
X38354000Y30012000D03*
%TD*%
D19*
%TO.C,J18*%
X10922000Y32512000D03*
D20*
X10922000Y30012000D03*
%TD*%
D19*
%TO.C,J19*%
X4064000Y32512000D03*
D20*
X4064000Y30012000D03*
%TD*%
D19*
%TO.C,J17*%
X17780000Y32512000D03*
D20*
X17780000Y30012000D03*
%TD*%
D19*
%TO.C,J13*%
X45212000Y32512000D03*
D20*
X45212000Y30012000D03*
%TD*%
D21*
%TO.C,J11*%
X68072000Y31496000D03*
D22*
X65572000Y31496000D03*
X63072000Y31496000D03*
X60572000Y31496000D03*
X58072000Y31496000D03*
%TD*%
D19*
%TO.C,J12*%
X52070000Y32512000D03*
D20*
X52070000Y30012000D03*
%TD*%
D21*
%TO.C,J21*%
X68072000Y22860000D03*
D22*
X65572000Y22860000D03*
X63072000Y22860000D03*
X60572000Y22860000D03*
X58072000Y22860000D03*
%TD*%
D14*
%TO.C,IN1*%
X3175000Y15113000D03*
D15*
X3175000Y12573000D03*
X3175000Y10033000D03*
X3175000Y7493000D03*
X3175000Y4953000D03*
%TD*%
D23*
%TO.C,JP2*%
X10444000Y4826000D03*
X9144000Y4826000D03*
X7844000Y4826000D03*
%TD*%
%TO.C,JP1*%
X10444000Y8940800D03*
X9144000Y8940800D03*
X7844000Y8940800D03*
%TD*%
D24*
%TO.C,JP5*%
X13167600Y17119600D03*
D25*
X14467600Y17119600D03*
%TD*%
D24*
%TO.C,JP6*%
X16520400Y17119600D03*
D25*
X17820400Y17119600D03*
%TD*%
D24*
%TO.C,JP4*%
X9814800Y17119600D03*
D25*
X11114800Y17119600D03*
%TD*%
D24*
%TO.C,JP3*%
X6462000Y17119600D03*
D25*
X7762000Y17119600D03*
%TD*%
M02*
