M48
; DRILL file {KiCad (6.0.10)} date Mon Feb 13 19:28:06 2023
; FORMAT={-:-/ absolute / inch / decimal}
; #@! TF.CreationDate,2023-02-13T19:28:06+09:00
; #@! TF.GenerationSoftware,Kicad,Pcbnew,(6.0.10)
; #@! TF.FileFunction,Plated,1,2,PTH
FMAT,2
INCH
; #@! TA.AperFunction,Plated,PTH,ViaDrill
T1C0.0157
; #@! TA.AperFunction,Plated,PTH,ComponentDrill
T2C0.0374
; #@! TA.AperFunction,Plated,PTH,ComponentDrill
T3C0.0394
%
G90
G05
T1
X0.234Y0.3
X0.36Y0.278
X0.426Y0.272
X0.549Y0.1115
X0.55Y0.51
X0.59Y0.51
X0.61Y0.165
X0.6325Y0.4775
X0.6325Y0.43
X0.661Y0.381
X0.6625Y0.3325
X0.6625Y0.2825
X0.664Y0.231
X0.7714Y0.6679
X0.8085Y0.44
X0.8107Y0.6667
X0.8225Y0.255
X0.8501Y0.6657
X0.89Y0.6652
X0.985Y0.38
X0.985Y0.325
X0.985Y0.275
X0.985Y0.225
X1.06Y0.145
X1.175Y0.29
X1.175Y0.135
X1.2175Y0.5
X1.2775Y0.5
X1.3025Y0.1425
X1.33Y0.5
X1.3675Y0.2775
X1.37Y0.225
X1.3702Y0.3759
X1.3702Y0.325
X1.5325Y0.2925
X1.5375Y0.44
X1.6525Y0.6475
X1.695Y0.38
X1.695Y0.325
X1.695Y0.275
X1.695Y0.225
X1.7075Y0.645
X1.7575Y0.1375
X1.76Y0.6425
X1.81Y0.64
X1.8825Y0.1225
X1.89Y0.2225
X2.0Y0.5
X2.045Y0.5
X2.0625Y0.6075
X2.085Y0.375
X2.085Y0.325
X2.085Y0.2775
X2.085Y0.225
X2.115Y0.6075
X2.1675Y0.605
X2.2475Y0.305
X2.41Y0.3744
X2.4125Y0.3275
X2.4125Y0.2325
X2.4125Y0.2775
X2.4775Y0.61
X2.48Y0.18
X2.515Y0.42
X2.5225Y0.1375
X2.535Y0.61
X2.57Y0.18
T2
X2.2863Y1.24
X2.2863Y0.9
X2.3847Y1.24
X2.3847Y0.9
X2.4831Y1.24
X2.4831Y0.9
X2.5816Y1.24
X2.5816Y0.9
X2.68Y1.24
X2.68Y0.9
T3
X0.125Y0.595
X0.125Y0.495
X0.125Y0.395
X0.125Y0.295
X0.125Y0.195
X0.16Y1.28
X0.16Y1.1816
X0.16Y0.94
X0.16Y0.8416
X0.43Y1.28
X0.43Y1.1816
X0.43Y0.94
X0.43Y0.8416
X0.7Y1.28
X0.7Y1.1816
X0.7Y0.94
X0.7Y0.8416
X0.97Y1.28
X0.97Y1.1816
X0.97Y0.94
X0.97Y0.8416
X1.24Y1.28
X1.24Y1.1816
X1.24Y0.94
X1.24Y0.8416
X1.51Y1.28
X1.51Y1.1816
X1.51Y0.94
X1.51Y0.8416
X1.78Y1.28
X1.78Y1.1816
X1.78Y0.94
X1.78Y0.8416
X2.05Y1.28
X2.05Y1.1816
X2.05Y0.94
X2.05Y0.8416
X2.685Y0.6
X2.685Y0.5
X2.685Y0.4
X2.685Y0.3
X2.685Y0.2
T0
M30
