%TF.GenerationSoftware,KiCad,Pcbnew,(6.0.10)*%
%TF.CreationDate,2023-02-13T19:28:03+09:00*%
%TF.ProjectId,joystick_74hc165_input_jst,6a6f7973-7469-4636-9b5f-373468633136,1*%
%TF.SameCoordinates,PX6f92990PY6f3bc80*%
%TF.FileFunction,Copper,L2,Bot*%
%TF.FilePolarity,Positive*%
%FSLAX46Y46*%
G04 Gerber Fmt 4.6, Leading zero omitted, Abs format (unit mm)*
G04 Created by KiCad (PCBNEW (6.0.10)) date 2023-02-13 19:28:03*
%MOMM*%
%LPD*%
G01*
G04 APERTURE LIST*
G04 Aperture macros list*
%AMRoundRect*
0 Rectangle with rounded corners*
0 $1 Rounding radius*
0 $2 $3 $4 $5 $6 $7 $8 $9 X,Y pos of 4 corners*
0 Add a 4 corners polygon primitive as box body*
4,1,4,$2,$3,$4,$5,$6,$7,$8,$9,$2,$3,0*
0 Add four circle primitives for the rounded corners*
1,1,$1+$1,$2,$3*
1,1,$1+$1,$4,$5*
1,1,$1+$1,$6,$7*
1,1,$1+$1,$8,$9*
0 Add four rect primitives between the rounded corners*
20,1,$1+$1,$2,$3,$4,$5,0*
20,1,$1+$1,$4,$5,$6,$7,0*
20,1,$1+$1,$6,$7,$8,$9,0*
20,1,$1+$1,$8,$9,$2,$3,0*%
G04 Aperture macros list end*
%TA.AperFunction,ComponentPad*%
%ADD10R,1.700000X1.700000*%
%TD*%
%TA.AperFunction,ComponentPad*%
%ADD11O,1.700000X1.700000*%
%TD*%
%TA.AperFunction,ComponentPad*%
%ADD12RoundRect,0.250000X-0.750000X0.600000X-0.750000X-0.600000X0.750000X-0.600000X0.750000X0.600000X0*%
%TD*%
%TA.AperFunction,ComponentPad*%
%ADD13O,2.000000X1.700000*%
%TD*%
%TA.AperFunction,ComponentPad*%
%ADD14RoundRect,0.250000X0.600000X0.725000X-0.600000X0.725000X-0.600000X-0.725000X0.600000X-0.725000X0*%
%TD*%
%TA.AperFunction,ComponentPad*%
%ADD15O,1.700000X1.950000*%
%TD*%
%TA.AperFunction,ViaPad*%
%ADD16C,0.800000*%
%TD*%
%TA.AperFunction,Conductor*%
%ADD17C,0.250000*%
%TD*%
G04 APERTURE END LIST*
D10*
%TO.P,OUT1,1,Pin_1*%
%TO.N,VCC*%
X68199000Y15240000D03*
D11*
%TO.P,OUT1,2,Pin_2*%
%TO.N,GND*%
X68199000Y12700000D03*
%TO.P,OUT1,3,Pin_3*%
%TO.N,/LOAD*%
X68199000Y10160000D03*
%TO.P,OUT1,4,Pin_4*%
%TO.N,/CLK*%
X68199000Y7620000D03*
%TO.P,OUT1,5,Pin_5*%
%TO.N,/D_OUT*%
X68199000Y5080000D03*
%TD*%
D12*
%TO.P,J22,1,Pin_1*%
%TO.N,/C_SHORT*%
X52070000Y23876000D03*
D13*
%TO.P,J22,2,Pin_2*%
%TO.N,/C_P2_START*%
X52070000Y21376000D03*
%TD*%
D12*
%TO.P,J23,1,Pin_1*%
%TO.N,/C_SHORT*%
X45212000Y23876000D03*
D13*
%TO.P,J23,2,Pin_2*%
%TO.N,/C_P2_SELECT*%
X45212000Y21376000D03*
%TD*%
D12*
%TO.P,J24,1,Pin_1*%
%TO.N,/C_SHORT*%
X38354000Y23876000D03*
D13*
%TO.P,J24,2,Pin_2*%
%TO.N,/C_P2_A*%
X38354000Y21376000D03*
%TD*%
D12*
%TO.P,J25,1,Pin_1*%
%TO.N,/C_SHORT*%
X31496000Y23876000D03*
D13*
%TO.P,J25,2,Pin_2*%
%TO.N,/C_P2_B*%
X31496000Y21376000D03*
%TD*%
D12*
%TO.P,J26,1,Pin_1*%
%TO.N,/C_SHORT*%
X24638000Y23876000D03*
D13*
%TO.P,J26,2,Pin_2*%
%TO.N,/C_P2_X*%
X24638000Y21376000D03*
%TD*%
D12*
%TO.P,J27,1,Pin_1*%
%TO.N,/C_SHORT*%
X17780000Y23876000D03*
D13*
%TO.P,J27,2,Pin_2*%
%TO.N,/C_P2_Y*%
X17780000Y21376000D03*
%TD*%
D12*
%TO.P,J28,1,Pin_1*%
%TO.N,/C_SHORT*%
X10922000Y23876000D03*
D13*
%TO.P,J28,2,Pin_2*%
%TO.N,/C_P2_L*%
X10922000Y21376000D03*
%TD*%
D12*
%TO.P,J29,1,Pin_1*%
%TO.N,/C_SHORT*%
X4064000Y23876000D03*
D13*
%TO.P,J29,2,Pin_2*%
%TO.N,/C_P2_R*%
X4064000Y21376000D03*
%TD*%
D12*
%TO.P,J16,1,Pin_1*%
%TO.N,/C_SHORT*%
X24638000Y32512000D03*
D13*
%TO.P,J16,2,Pin_2*%
%TO.N,/C_P1_X*%
X24638000Y30012000D03*
%TD*%
D12*
%TO.P,J15,1,Pin_1*%
%TO.N,/C_SHORT*%
X31496000Y32512000D03*
D13*
%TO.P,J15,2,Pin_2*%
%TO.N,/C_P1_B*%
X31496000Y30012000D03*
%TD*%
D12*
%TO.P,J14,1,Pin_1*%
%TO.N,/C_SHORT*%
X38354000Y32512000D03*
D13*
%TO.P,J14,2,Pin_2*%
%TO.N,/C_P1_A*%
X38354000Y30012000D03*
%TD*%
D12*
%TO.P,J18,1,Pin_1*%
%TO.N,/C_SHORT*%
X10922000Y32512000D03*
D13*
%TO.P,J18,2,Pin_2*%
%TO.N,/C_P1_L*%
X10922000Y30012000D03*
%TD*%
D12*
%TO.P,J19,1,Pin_1*%
%TO.N,/C_SHORT*%
X4064000Y32512000D03*
D13*
%TO.P,J19,2,Pin_2*%
%TO.N,/C_P1_R*%
X4064000Y30012000D03*
%TD*%
D12*
%TO.P,J17,1,Pin_1*%
%TO.N,/C_SHORT*%
X17780000Y32512000D03*
D13*
%TO.P,J17,2,Pin_2*%
%TO.N,/C_P1_Y*%
X17780000Y30012000D03*
%TD*%
D12*
%TO.P,J13,1,Pin_1*%
%TO.N,/C_SHORT*%
X45212000Y32512000D03*
D13*
%TO.P,J13,2,Pin_2*%
%TO.N,/C_P1_SELECT*%
X45212000Y30012000D03*
%TD*%
D14*
%TO.P,J11,1,Pin_1*%
%TO.N,/C_P1_UP*%
X68072000Y31496000D03*
D15*
%TO.P,J11,2,Pin_2*%
%TO.N,/C_P1_DOWN*%
X65572000Y31496000D03*
%TO.P,J11,3,Pin_3*%
%TO.N,/C_P1_RIGHT*%
X63072000Y31496000D03*
%TO.P,J11,4,Pin_4*%
%TO.N,/C_P1_LEFT*%
X60572000Y31496000D03*
%TO.P,J11,5,Pin_5*%
%TO.N,/C_SHORT*%
X58072000Y31496000D03*
%TD*%
D12*
%TO.P,J12,1,Pin_1*%
%TO.N,/C_SHORT*%
X52070000Y32512000D03*
D13*
%TO.P,J12,2,Pin_2*%
%TO.N,/C_P1_START*%
X52070000Y30012000D03*
%TD*%
D14*
%TO.P,J21,1,Pin_1*%
%TO.N,/C_P2_UP*%
X68072000Y22860000D03*
D15*
%TO.P,J21,2,Pin_2*%
%TO.N,/C_P2_DOWN*%
X65572000Y22860000D03*
%TO.P,J21,3,Pin_3*%
%TO.N,/C_P2_RIGHT*%
X63072000Y22860000D03*
%TO.P,J21,4,Pin_4*%
%TO.N,/C_P2_LEFT*%
X60572000Y22860000D03*
%TO.P,J21,5,Pin_5*%
%TO.N,/C_SHORT*%
X58072000Y22860000D03*
%TD*%
D10*
%TO.P,IN1,1,Pin_1*%
%TO.N,VCC*%
X3175000Y15113000D03*
D11*
%TO.P,IN1,2,Pin_2*%
%TO.N,GND*%
X3175000Y12573000D03*
%TO.P,IN1,3,Pin_3*%
%TO.N,/LOAD*%
X3175000Y10033000D03*
%TO.P,IN1,4,Pin_4*%
%TO.N,/CLK*%
X3175000Y7493000D03*
%TO.P,IN1,5,Pin_5*%
%TO.N,/D_IN*%
X3175000Y4953000D03*
%TD*%
D16*
%TO.N,/PULL*%
X9144000Y7061200D03*
X64071494Y3492509D03*
X13945506Y2833006D03*
X29845001Y3429001D03*
X47815492Y3111510D03*
%TO.N,GND*%
X62928500Y15494000D03*
X44640500Y3492500D03*
X33782000Y12700000D03*
X14986000Y12954000D03*
X50800000Y12700000D03*
X57086500Y7747000D03*
X39052500Y11176000D03*
X38925500Y7429500D03*
X29845000Y7366000D03*
X55054500Y15367000D03*
X51943000Y12700000D03*
X52387500Y15430500D03*
X26924000Y3683000D03*
X15494000Y4191000D03*
X33083500Y3619500D03*
X63881000Y10668000D03*
X65278000Y4572000D03*
X10820400Y6908800D03*
X13970000Y12954000D03*
X30924500Y12700000D03*
X5943600Y7620000D03*
X48006000Y5651500D03*
X53721000Y15430500D03*
X20891500Y6477000D03*
X32448500Y12700000D03*
X20537010Y11176000D03*
X64389000Y15494000D03*
X62992000Y4572000D03*
%TO.N,/LOAD*%
X16065500Y12128500D03*
%TO.N,/CLK*%
X16065500Y10922000D03*
%TO.N,/C_P1_START*%
X61213980Y9508490D03*
%TO.N,/C_P1_SELECT*%
X61277500Y8318500D03*
%TO.N,/C_P1_A*%
X61277503Y7048487D03*
%TO.N,/C_P1_B*%
X61277500Y5905500D03*
%TO.N,/C_P1_UP*%
X52959000Y5715000D03*
%TO.N,/C_P1_DOWN*%
X52959000Y7048500D03*
%TO.N,/C_P1_LEFT*%
X52959000Y8255000D03*
%TO.N,/C_P1_RIGHT*%
X52959000Y9525000D03*
%TO.N,/C_P1_X*%
X34798000Y5715000D03*
%TO.N,/C_P1_Y*%
X34734506Y7048500D03*
%TO.N,/C_P1_L*%
X34802660Y8255000D03*
%TO.N,/C_P1_R*%
X34802660Y9548299D03*
%TO.N,/C_P2_START*%
X16865600Y5867400D03*
X22606000Y16897044D03*
%TO.N,/C_P2_SELECT*%
X21592280Y16908644D03*
X16827500Y7175500D03*
%TO.N,/C_P2_A*%
X20592458Y16934141D03*
X16827500Y8445500D03*
%TO.N,/C_P2_B*%
X19592898Y16964190D03*
X16789400Y9677400D03*
%TO.N,/C_P2_UP*%
X45974000Y16256000D03*
X43053000Y9652000D03*
%TO.N,/C_P2_DOWN*%
X44704000Y16319500D03*
X43053000Y8255000D03*
%TO.N,/C_P2_LEFT*%
X43370500Y16383000D03*
X43053000Y6985000D03*
%TO.N,/C_P2_RIGHT*%
X41973500Y16447033D03*
X43053000Y5715000D03*
%TO.N,/C_P2_X*%
X25018998Y9652000D03*
%TO.N,/C_P2_Y*%
X25019000Y8255000D03*
%TO.N,/C_P2_L*%
X25019000Y6985000D03*
%TO.N,/C_P2_R*%
X25019000Y5715000D03*
%TD*%
D17*
%TO.N,/PULL*%
X54610000Y1778000D02*
X47879000Y1778000D01*
X29845000Y3429000D02*
X29845001Y3429001D01*
X62356985Y1778000D02*
X64071494Y3492509D01*
X9144000Y7061200D02*
X9144000Y4191000D01*
X15000512Y1778000D02*
X13945506Y2833006D01*
X10501994Y2833006D02*
X13945506Y2833006D01*
X54610000Y1778000D02*
X15000512Y1778000D01*
X9144000Y4191000D02*
X10501994Y2833006D01*
X54610000Y1778000D02*
X62356985Y1778000D01*
X29845000Y1778000D02*
X29845000Y3429000D01*
X47815492Y1841508D02*
X47815492Y3111510D01*
X47879000Y1778000D02*
X47815492Y1841508D01*
%TO.N,/LOAD*%
X16065500Y12128500D02*
X6216502Y12128500D01*
X4121002Y10033000D02*
X3175000Y10033000D01*
X6216502Y12128500D02*
X4121002Y10033000D01*
%TO.N,/CLK*%
X3175000Y7493000D02*
X3556000Y7493000D01*
X3556000Y7493000D02*
X6985000Y10922000D01*
X6985000Y10922000D02*
X16065500Y10922000D01*
%TO.N,/C_P1_START*%
X49784000Y7816996D02*
X49784000Y27368500D01*
X61213980Y9508490D02*
X61213980Y9397980D01*
X52610997Y4989999D02*
X49784000Y7816996D01*
X52070000Y29654500D02*
X52070000Y30012000D01*
X49784000Y27368500D02*
X52070000Y29654500D01*
X56805999Y4989999D02*
X52610997Y4989999D01*
X61213980Y9397980D02*
X56805999Y4989999D01*
%TO.N,/C_P1_SELECT*%
X61277500Y8318500D02*
X57498989Y4539989D01*
X49276000Y7688586D02*
X49276000Y25336500D01*
X49276000Y25336500D02*
X45212000Y29400500D01*
X45212000Y29400500D02*
X45212000Y30012000D01*
X57498989Y4539989D02*
X52424596Y4539990D01*
X52424596Y4539990D02*
X49276000Y7688586D01*
%TO.N,/C_P1_A*%
X48768000Y24257000D02*
X48768000Y7560176D01*
X48768000Y7560176D02*
X52264176Y4064000D01*
X43013000Y30012000D02*
X48768000Y24257000D01*
X52264176Y4064000D02*
X58293016Y4064000D01*
X58293016Y4064000D02*
X61277503Y7048487D01*
X38354000Y30012000D02*
X43013000Y30012000D01*
%TO.N,/C_P1_B*%
X48260000Y23749000D02*
X48260000Y7302500D01*
X52006500Y3556000D02*
X58928000Y3556000D01*
X31496000Y30012000D02*
X31496000Y29273500D01*
X58928000Y3556000D02*
X61277500Y5905500D01*
X43624500Y28384500D02*
X48260000Y23749000D01*
X31496000Y29273500D02*
X32385000Y28384500D01*
X32385000Y28384500D02*
X43624500Y28384500D01*
X48260000Y7302500D02*
X52006500Y3556000D01*
%TO.N,/C_P1_UP*%
X66738500Y21858785D02*
X66747010Y21867295D01*
X55308500Y8064500D02*
X55308500Y10160000D01*
X52959000Y5715000D02*
X55308500Y8064500D01*
X66747010Y23471705D02*
X66738500Y23480215D01*
X66738500Y21590000D02*
X66738500Y21858785D01*
X66738500Y23480215D02*
X66738500Y30162500D01*
X55308500Y10160000D02*
X66738500Y21590000D01*
X66738500Y30162500D02*
X68072000Y31496000D01*
X66747010Y21867295D02*
X66747010Y23471705D01*
%TO.N,/C_P1_DOWN*%
X64325500Y30249500D02*
X64325500Y20129500D01*
X54483000Y10287000D02*
X54483000Y8572500D01*
X65572000Y31496000D02*
X64325500Y30249500D01*
X54483000Y8572500D02*
X52959000Y7048500D01*
X64325500Y20129500D02*
X54483000Y10287000D01*
%TO.N,/C_P1_LEFT*%
X59309000Y30233000D02*
X59309000Y17716500D01*
X60572000Y31496000D02*
X59309000Y30233000D01*
X52133500Y10541000D02*
X52133500Y9080500D01*
X59309000Y17716500D02*
X52133500Y10541000D01*
X52133500Y9080500D02*
X52959000Y8255000D01*
%TO.N,/C_P1_RIGHT*%
X61785500Y19177000D02*
X61785500Y30209500D01*
X53022500Y9588500D02*
X53022500Y10414000D01*
X61785500Y30209500D02*
X63072000Y31496000D01*
X52959000Y9525000D02*
X53022500Y9588500D01*
X53022500Y10414000D02*
X61785500Y19177000D01*
%TO.N,/C_P1_X*%
X33657822Y27813000D02*
X26225500Y27813000D01*
X24638000Y29400500D02*
X24638000Y30012000D01*
X36427683Y25043139D02*
X33657822Y27813000D01*
X26225500Y27813000D02*
X24638000Y29400500D01*
X34798000Y5715000D02*
X36427683Y7344683D01*
X36427683Y7344683D02*
X36427683Y25043139D01*
%TO.N,/C_P1_Y*%
X19754011Y27362989D02*
X17780000Y29337000D01*
X35977672Y24856739D02*
X33471422Y27362989D01*
X35977672Y8291665D02*
X35977672Y24856739D01*
X34734506Y7048500D02*
X35977672Y8291665D01*
X33471422Y27362989D02*
X19754011Y27362989D01*
X17780000Y29337000D02*
X17780000Y30012000D01*
%TO.N,/C_P1_L*%
X10922000Y30012000D02*
X10922000Y29337000D01*
X35527661Y24670339D02*
X35527661Y8980001D01*
X35527661Y8980001D02*
X35202659Y8654999D01*
X33285022Y26912978D02*
X35527661Y24670339D01*
X35202659Y8654999D02*
X34802660Y8255000D01*
X10922000Y29337000D02*
X13346022Y26912978D01*
X13346022Y26912978D02*
X33285022Y26912978D01*
%TO.N,/C_P1_R*%
X32973033Y26462967D02*
X34802660Y24633340D01*
X34802660Y24633340D02*
X34802660Y10113984D01*
X7001533Y26462967D02*
X32973033Y26462967D01*
X4064000Y30012000D02*
X4064000Y29400500D01*
X34802660Y10113984D02*
X34802660Y9548299D01*
X4064000Y29400500D02*
X7001533Y26462967D01*
%TO.N,/C_P2_START*%
X16979900Y5867400D02*
X19812000Y8699500D01*
X19812000Y14103044D02*
X22606000Y16897044D01*
X16865600Y5867400D02*
X16979900Y5867400D01*
X19812000Y8699500D02*
X19812000Y14103044D01*
%TO.N,/C_P2_SELECT*%
X16827500Y7175500D02*
X19171489Y9519489D01*
X19171489Y14487853D02*
X21592280Y16908644D01*
X19171489Y9519489D02*
X19171489Y14487853D01*
%TO.N,/C_P2_A*%
X16827500Y8445500D02*
X18721478Y10339478D01*
X18721478Y15063161D02*
X20592458Y16934141D01*
X18721478Y10339478D02*
X18721478Y15063161D01*
%TO.N,/C_P2_B*%
X18224500Y11112500D02*
X18224500Y15595792D01*
X16789400Y9677400D02*
X18224500Y11112500D01*
X18224500Y15595792D02*
X19592898Y16964190D01*
%TO.N,/C_P2_UP*%
X43053000Y9652000D02*
X43053000Y13335000D01*
X43053000Y13335000D02*
X45974000Y16256000D01*
%TO.N,/C_P2_DOWN*%
X42327999Y8980001D02*
X42327999Y13943499D01*
X42327999Y13943499D02*
X44704000Y16319500D01*
X43053000Y8255000D02*
X42327999Y8980001D01*
%TO.N,/C_P2_LEFT*%
X41877990Y14890490D02*
X43370500Y16383000D01*
X41877990Y8160010D02*
X41877990Y14890490D01*
X43053000Y6985000D02*
X41877990Y8160010D01*
%TO.N,/C_P2_RIGHT*%
X41427981Y7340019D02*
X41427981Y15901514D01*
X43053000Y5715000D02*
X41427981Y7340019D01*
X41427981Y15901514D02*
X41973500Y16447033D01*
%TO.N,/C_P2_X*%
X24701500Y9969498D02*
X25018998Y9652000D01*
X24701500Y21312500D02*
X24701500Y9969498D01*
X24638000Y21376000D02*
X24701500Y21312500D01*
%TO.N,/C_P2_Y*%
X21486500Y21376000D02*
X17780000Y21376000D01*
X25019000Y8255000D02*
X24251489Y9022511D01*
X24251489Y18611011D02*
X21486500Y21376000D01*
X24251489Y9022511D02*
X24251489Y18611011D01*
%TO.N,/C_P2_L*%
X10922000Y20276000D02*
X11330858Y19867142D01*
X11330858Y19867142D02*
X22358948Y19867142D01*
X22358948Y19867142D02*
X23801478Y18424612D01*
X24619001Y7384999D02*
X25019000Y6985000D01*
X23801478Y8202522D02*
X24619001Y7384999D01*
X23801478Y18424612D02*
X23801478Y8202522D01*
X10922000Y21376000D02*
X10922000Y20276000D01*
%TO.N,/C_P2_R*%
X23351467Y18238213D02*
X22172549Y19417131D01*
X23351467Y7382533D02*
X23351467Y18238213D01*
X4064000Y20276000D02*
X4064000Y21376000D01*
X4922869Y19417131D02*
X4064000Y20276000D01*
X22172549Y19417131D02*
X4922869Y19417131D01*
X25019000Y5715000D02*
X23351467Y7382533D01*
%TD*%
%TA.AperFunction,Conductor*%
%TO.N,GND*%
G36*
X22421706Y18267998D02*
G01*
X22442680Y18251095D01*
X22673136Y18020639D01*
X22707162Y17958327D01*
X22702097Y17887512D01*
X22659550Y17830676D01*
X22593030Y17805865D01*
X22584041Y17805544D01*
X22510513Y17805544D01*
X22504061Y17804172D01*
X22504056Y17804172D01*
X22417113Y17785691D01*
X22323712Y17765838D01*
X22317682Y17763153D01*
X22317681Y17763153D01*
X22161880Y17693786D01*
X22091513Y17684352D01*
X22050310Y17698833D01*
X22049032Y17699762D01*
X21918243Y17757993D01*
X21880599Y17774753D01*
X21880598Y17774753D01*
X21874568Y17777438D01*
X21754615Y17802935D01*
X21694224Y17815772D01*
X21694219Y17815772D01*
X21687767Y17817144D01*
X21496793Y17817144D01*
X21490341Y17815772D01*
X21490336Y17815772D01*
X21429945Y17802935D01*
X21309992Y17777438D01*
X21303965Y17774755D01*
X21303957Y17774752D01*
X21169596Y17714931D01*
X21099229Y17705497D01*
X21055349Y17720918D01*
X21054550Y17721379D01*
X21049210Y17725259D01*
X20938044Y17774753D01*
X20880777Y17800250D01*
X20880776Y17800250D01*
X20874746Y17802935D01*
X20781346Y17822788D01*
X20694402Y17841269D01*
X20694397Y17841269D01*
X20687945Y17842641D01*
X20496971Y17842641D01*
X20490519Y17841269D01*
X20490514Y17841269D01*
X20403571Y17822788D01*
X20310170Y17802935D01*
X20304140Y17800250D01*
X20304139Y17800250D01*
X20174374Y17742475D01*
X20104007Y17733041D01*
X20060122Y17748465D01*
X20054990Y17751428D01*
X20049650Y17755308D01*
X20043620Y17757993D01*
X19881217Y17830299D01*
X19881216Y17830299D01*
X19875186Y17832984D01*
X19781785Y17852837D01*
X19694842Y17871318D01*
X19694837Y17871318D01*
X19688385Y17872690D01*
X19497411Y17872690D01*
X19490959Y17871318D01*
X19490954Y17871318D01*
X19404011Y17852837D01*
X19310610Y17832984D01*
X19304580Y17830299D01*
X19304579Y17830299D01*
X19142176Y17757993D01*
X19142174Y17757992D01*
X19136146Y17755308D01*
X18981645Y17643056D01*
X18853858Y17501134D01*
X18758371Y17335746D01*
X18699356Y17154118D01*
X18698666Y17147557D01*
X18698666Y17147555D01*
X18681991Y16988898D01*
X18654978Y16923241D01*
X18645776Y16912972D01*
X17832242Y16099439D01*
X17823963Y16091905D01*
X17817482Y16087792D01*
X17770857Y16038141D01*
X17768102Y16035299D01*
X17748365Y16015562D01*
X17745885Y16012365D01*
X17738182Y16003345D01*
X17707914Y15971113D01*
X17704095Y15964167D01*
X17704093Y15964164D01*
X17698152Y15953358D01*
X17687301Y15936839D01*
X17674886Y15920833D01*
X17671741Y15913564D01*
X17671738Y15913560D01*
X17657326Y15880255D01*
X17652109Y15869605D01*
X17630805Y15830852D01*
X17628834Y15823177D01*
X17628834Y15823176D01*
X17625767Y15811230D01*
X17619363Y15792526D01*
X17611319Y15773937D01*
X17610080Y15766114D01*
X17610077Y15766104D01*
X17604401Y15730268D01*
X17601995Y15718648D01*
X17591000Y15675822D01*
X17591000Y15655568D01*
X17589449Y15635858D01*
X17586280Y15615849D01*
X17587026Y15607957D01*
X17590441Y15571831D01*
X17591000Y15559973D01*
X17591000Y11427095D01*
X17570998Y11358974D01*
X17554095Y11337999D01*
X17180927Y10964832D01*
X17118615Y10930807D01*
X17047799Y10935872D01*
X16990964Y10978419D01*
X16966522Y11040758D01*
X16959732Y11105365D01*
X16959732Y11105367D01*
X16959042Y11111928D01*
X16900027Y11293556D01*
X16888517Y11313493D01*
X16804540Y11458944D01*
X16806210Y11459908D01*
X16785463Y11518056D01*
X16801542Y11587207D01*
X16803831Y11590769D01*
X16804540Y11591556D01*
X16900027Y11756944D01*
X16959042Y11938572D01*
X16979004Y12128500D01*
X16971139Y12203328D01*
X16959732Y12311865D01*
X16959732Y12311867D01*
X16959042Y12318428D01*
X16900027Y12500056D01*
X16804540Y12665444D01*
X16788381Y12683391D01*
X16681175Y12802455D01*
X16681174Y12802456D01*
X16676753Y12807366D01*
X16522252Y12919618D01*
X16516224Y12922302D01*
X16516222Y12922303D01*
X16353819Y12994609D01*
X16353818Y12994609D01*
X16347788Y12997294D01*
X16254387Y13017147D01*
X16167444Y13035628D01*
X16167439Y13035628D01*
X16160987Y13037000D01*
X15970013Y13037000D01*
X15963561Y13035628D01*
X15963556Y13035628D01*
X15876613Y13017147D01*
X15783212Y12997294D01*
X15777182Y12994609D01*
X15777181Y12994609D01*
X15614778Y12922303D01*
X15614776Y12922302D01*
X15608748Y12919618D01*
X15454247Y12807366D01*
X15449832Y12802463D01*
X15444920Y12798040D01*
X15443795Y12799289D01*
X15390486Y12766449D01*
X15357300Y12762000D01*
X6295270Y12762000D01*
X6284087Y12762527D01*
X6276594Y12764202D01*
X6268668Y12763953D01*
X6268667Y12763953D01*
X6208504Y12762062D01*
X6204546Y12762000D01*
X6176646Y12762000D01*
X6172656Y12761496D01*
X6160822Y12760564D01*
X6116613Y12759174D01*
X6108997Y12756961D01*
X6108995Y12756961D01*
X6097154Y12753521D01*
X6077795Y12749512D01*
X6076485Y12749346D01*
X6057705Y12746974D01*
X6050339Y12744058D01*
X6050333Y12744056D01*
X6016600Y12730700D01*
X6005370Y12726855D01*
X5970519Y12716730D01*
X5962909Y12714519D01*
X5956086Y12710484D01*
X5945468Y12704205D01*
X5927715Y12695508D01*
X5920070Y12692481D01*
X5908885Y12688052D01*
X5902470Y12683391D01*
X5873114Y12662063D01*
X5863197Y12655549D01*
X5825140Y12633042D01*
X5810819Y12618721D01*
X5795786Y12605881D01*
X5779395Y12593972D01*
X5774344Y12587866D01*
X5751204Y12559895D01*
X5743214Y12551116D01*
X4249494Y11057397D01*
X4187182Y11023371D01*
X4116366Y11028436D01*
X4082311Y11047607D01*
X3929359Y11168402D01*
X3909500Y11179365D01*
X3887569Y11191471D01*
X3837598Y11241903D01*
X3822826Y11311346D01*
X3847942Y11377752D01*
X3875294Y11404359D01*
X4050328Y11529208D01*
X4058200Y11535861D01*
X4209052Y11686188D01*
X4215730Y11694035D01*
X4340003Y11866980D01*
X4345313Y11875817D01*
X4439670Y12066733D01*
X4443469Y12076328D01*
X4505377Y12280090D01*
X4507555Y12290163D01*
X4508986Y12301038D01*
X4506775Y12315222D01*
X4493617Y12319000D01*
X1858225Y12319000D01*
X1844694Y12315027D01*
X1843257Y12305034D01*
X1873565Y12170554D01*
X1876645Y12160725D01*
X1956770Y11963397D01*
X1961413Y11954206D01*
X2072694Y11772612D01*
X2078777Y11764301D01*
X2218213Y11603333D01*
X2225580Y11596117D01*
X2389434Y11460084D01*
X2397881Y11454169D01*
X2466969Y11413797D01*
X2515693Y11362158D01*
X2528764Y11292375D01*
X2502033Y11226604D01*
X2461584Y11193248D01*
X2448607Y11186493D01*
X2444474Y11183390D01*
X2444471Y11183388D01*
X2340554Y11105365D01*
X2269965Y11052365D01*
X2254960Y11036663D01*
X2133318Y10909372D01*
X2115629Y10890862D01*
X2112715Y10886590D01*
X2112714Y10886589D01*
X2073174Y10828625D01*
X1989743Y10706320D01*
X1970032Y10663856D01*
X1902553Y10518484D01*
X1895688Y10503695D01*
X1835989Y10288430D01*
X1812251Y10066305D01*
X1812548Y10061152D01*
X1812548Y10061149D01*
X1823353Y9873761D01*
X1825110Y9843285D01*
X1826247Y9838239D01*
X1826248Y9838233D01*
X1844464Y9757404D01*
X1874222Y9625361D01*
X1958266Y9418384D01*
X1980260Y9382493D01*
X2046303Y9274721D01*
X2074987Y9227912D01*
X2221250Y9059062D01*
X2393126Y8916368D01*
X2418315Y8901649D01*
X2466445Y8873524D01*
X2515169Y8821886D01*
X2528240Y8752103D01*
X2501509Y8686331D01*
X2461055Y8652973D01*
X2448607Y8646493D01*
X2444474Y8643390D01*
X2444471Y8643388D01*
X2274100Y8515470D01*
X2269965Y8512365D01*
X2115629Y8350862D01*
X2112715Y8346590D01*
X2112714Y8346589D01*
X2075440Y8291947D01*
X1989743Y8166320D01*
X1895688Y7963695D01*
X1835989Y7748430D01*
X1812251Y7526305D01*
X1812548Y7521152D01*
X1812548Y7521149D01*
X1824331Y7316797D01*
X1825110Y7303285D01*
X1826247Y7298239D01*
X1826248Y7298233D01*
X1846086Y7210207D01*
X1874222Y7085361D01*
X1958266Y6878384D01*
X1974016Y6852683D01*
X2052258Y6725003D01*
X2074987Y6687912D01*
X2221250Y6519062D01*
X2393126Y6376368D01*
X2436785Y6350856D01*
X2466445Y6333524D01*
X2515169Y6281886D01*
X2528240Y6212103D01*
X2501509Y6146331D01*
X2461055Y6112973D01*
X2448607Y6106493D01*
X2444474Y6103390D01*
X2444471Y6103388D01*
X2383125Y6057328D01*
X2269965Y5972365D01*
X2115629Y5810862D01*
X2112715Y5806590D01*
X2112714Y5806589D01*
X2073174Y5748625D01*
X1989743Y5626320D01*
X1895688Y5423695D01*
X1835989Y5208430D01*
X1812251Y4986305D01*
X1812548Y4981152D01*
X1812548Y4981149D01*
X1823458Y4791931D01*
X1825110Y4763285D01*
X1826247Y4758239D01*
X1826248Y4758233D01*
X1844464Y4677404D01*
X1874222Y4545361D01*
X1911561Y4453405D01*
X1948960Y4361303D01*
X1958266Y4338384D01*
X1960965Y4333980D01*
X2055903Y4179055D01*
X2074987Y4147912D01*
X2221250Y3979062D01*
X2393126Y3836368D01*
X2586000Y3723662D01*
X2590825Y3721820D01*
X2590826Y3721819D01*
X2599685Y3718436D01*
X2794692Y3643970D01*
X2799760Y3642939D01*
X2799763Y3642938D01*
X2907017Y3621117D01*
X3013597Y3599433D01*
X3018772Y3599243D01*
X3018774Y3599243D01*
X3231673Y3591436D01*
X3231677Y3591436D01*
X3236837Y3591247D01*
X3241957Y3591903D01*
X3241959Y3591903D01*
X3453288Y3618975D01*
X3453289Y3618975D01*
X3458416Y3619632D01*
X3463366Y3621117D01*
X3667429Y3682339D01*
X3667434Y3682341D01*
X3672384Y3683826D01*
X3872994Y3782104D01*
X4054860Y3911827D01*
X4103430Y3960227D01*
X4167160Y4023735D01*
X4213096Y4069511D01*
X4234308Y4099030D01*
X4340435Y4246723D01*
X4343453Y4250923D01*
X4365292Y4295110D01*
X4440136Y4446547D01*
X4440137Y4446549D01*
X4442430Y4451189D01*
X4507370Y4664931D01*
X4536529Y4886410D01*
X4537445Y4923882D01*
X4538074Y4949635D01*
X4538074Y4949639D01*
X4538156Y4953000D01*
X4519852Y5175639D01*
X4465431Y5392298D01*
X4376354Y5597160D01*
X4273628Y5755950D01*
X4257822Y5780383D01*
X4257820Y5780386D01*
X4255014Y5784723D01*
X4104670Y5949949D01*
X4100619Y5953148D01*
X4100615Y5953152D01*
X3933414Y6085200D01*
X3933410Y6085202D01*
X3929359Y6088402D01*
X3888053Y6111204D01*
X3838084Y6161636D01*
X3823312Y6231079D01*
X3848428Y6297484D01*
X3875780Y6324091D01*
X3939629Y6369634D01*
X4054860Y6451827D01*
X4063588Y6460524D01*
X4179296Y6575829D01*
X4213096Y6609511D01*
X4239361Y6646062D01*
X4340435Y6786723D01*
X4343453Y6790923D01*
X4349889Y6803944D01*
X4440136Y6986547D01*
X4440137Y6986549D01*
X4442430Y6991189D01*
X4463701Y7061200D01*
X8230496Y7061200D01*
X8231186Y7054635D01*
X8249711Y6878384D01*
X8250458Y6871272D01*
X8309473Y6689644D01*
X8312776Y6683922D01*
X8312777Y6683921D01*
X8338969Y6638556D01*
X8404960Y6524256D01*
X8478137Y6442985D01*
X8508853Y6378979D01*
X8510500Y6358676D01*
X8510500Y4269767D01*
X8509973Y4258584D01*
X8508298Y4251091D01*
X8508547Y4243165D01*
X8508547Y4243164D01*
X8510438Y4183014D01*
X8510500Y4179055D01*
X8510500Y4151144D01*
X8510997Y4147210D01*
X8510997Y4147209D01*
X8511005Y4147144D01*
X8511938Y4135307D01*
X8513327Y4091111D01*
X8518383Y4073708D01*
X8518978Y4071661D01*
X8522987Y4052300D01*
X8525526Y4032203D01*
X8528445Y4024832D01*
X8528445Y4024830D01*
X8541804Y3991088D01*
X8545649Y3979858D01*
X8546840Y3975760D01*
X8557982Y3937407D01*
X8562015Y3930588D01*
X8562017Y3930583D01*
X8568293Y3919972D01*
X8576988Y3902224D01*
X8584448Y3883383D01*
X8589110Y3876967D01*
X8589110Y3876966D01*
X8610436Y3847613D01*
X8616952Y3837693D01*
X8633721Y3809339D01*
X8639458Y3799638D01*
X8653779Y3785317D01*
X8666619Y3770284D01*
X8678528Y3753893D01*
X8695160Y3740134D01*
X8712605Y3725702D01*
X8721384Y3717712D01*
X9998337Y2440759D01*
X10005881Y2432469D01*
X10009994Y2425988D01*
X10015771Y2420563D01*
X10059661Y2379348D01*
X10062503Y2376593D01*
X10082225Y2356871D01*
X10085349Y2354448D01*
X10085353Y2354444D01*
X10085418Y2354394D01*
X10094439Y2346689D01*
X10126673Y2316420D01*
X10133621Y2312601D01*
X10133623Y2312599D01*
X10144426Y2306660D01*
X10160953Y2295804D01*
X10170692Y2288249D01*
X10170694Y2288248D01*
X10176954Y2283392D01*
X10217534Y2265832D01*
X10228182Y2260615D01*
X10255238Y2245741D01*
X10266934Y2239311D01*
X10274610Y2237340D01*
X10274613Y2237339D01*
X10286556Y2234273D01*
X10305261Y2227869D01*
X10323849Y2219825D01*
X10331672Y2218586D01*
X10331682Y2218583D01*
X10367518Y2212907D01*
X10379138Y2210501D01*
X10414283Y2201478D01*
X10421964Y2199506D01*
X10442218Y2199506D01*
X10461928Y2197955D01*
X10481937Y2194786D01*
X10489829Y2195532D01*
X10525955Y2198947D01*
X10537813Y2199506D01*
X13237306Y2199506D01*
X13305427Y2179504D01*
X13324653Y2163163D01*
X13324926Y2163466D01*
X13329838Y2159043D01*
X13334253Y2154140D01*
X13488754Y2041888D01*
X13494782Y2039204D01*
X13494784Y2039203D01*
X13657187Y1966897D01*
X13663218Y1964212D01*
X13756618Y1944359D01*
X13843562Y1925878D01*
X13843567Y1925878D01*
X13850019Y1924506D01*
X13905911Y1924506D01*
X13974032Y1904504D01*
X13995007Y1887601D01*
X14258904Y1623703D01*
X14496865Y1385742D01*
X14504399Y1377463D01*
X14508512Y1370982D01*
X14529607Y1351173D01*
X14558163Y1324357D01*
X14561005Y1321602D01*
X14580742Y1301865D01*
X14583939Y1299385D01*
X14592959Y1291682D01*
X14625191Y1261414D01*
X14632137Y1257595D01*
X14632140Y1257593D01*
X14642946Y1251652D01*
X14659465Y1240801D01*
X14675471Y1228386D01*
X14682740Y1225241D01*
X14682744Y1225238D01*
X14716049Y1210826D01*
X14726699Y1205609D01*
X14765452Y1184305D01*
X14773127Y1182334D01*
X14773128Y1182334D01*
X14785074Y1179267D01*
X14803779Y1172863D01*
X14822367Y1164819D01*
X14830190Y1163580D01*
X14830200Y1163577D01*
X14866036Y1157901D01*
X14877656Y1155495D01*
X14909471Y1147327D01*
X14920482Y1144500D01*
X14940736Y1144500D01*
X14960446Y1142949D01*
X14980455Y1139780D01*
X14988347Y1140526D01*
X14999775Y1141606D01*
X15024474Y1143941D01*
X15036331Y1144500D01*
X29773207Y1144500D01*
X29796816Y1142268D01*
X29797119Y1142210D01*
X29797123Y1142210D01*
X29804906Y1140725D01*
X29860951Y1144251D01*
X29868862Y1144500D01*
X47819224Y1144500D01*
X47838934Y1142949D01*
X47858943Y1139780D01*
X47866835Y1140526D01*
X47878263Y1141606D01*
X47902962Y1143941D01*
X47914819Y1144500D01*
X62278218Y1144500D01*
X62289401Y1143973D01*
X62296894Y1142298D01*
X62304820Y1142547D01*
X62304821Y1142547D01*
X62364971Y1144438D01*
X62368930Y1144500D01*
X62396841Y1144500D01*
X62400776Y1144997D01*
X62400841Y1145005D01*
X62412678Y1145938D01*
X62444936Y1146952D01*
X62448955Y1147078D01*
X62456874Y1147327D01*
X62476328Y1152979D01*
X62495685Y1156987D01*
X62507915Y1158532D01*
X62507916Y1158532D01*
X62515782Y1159526D01*
X62523153Y1162445D01*
X62523155Y1162445D01*
X62556897Y1175804D01*
X62568127Y1179649D01*
X62602968Y1189771D01*
X62602969Y1189771D01*
X62610578Y1191982D01*
X62617397Y1196015D01*
X62617402Y1196017D01*
X62628013Y1202293D01*
X62645761Y1210988D01*
X62664602Y1218448D01*
X62700372Y1244436D01*
X62710292Y1250952D01*
X62741520Y1269420D01*
X62741523Y1269422D01*
X62748347Y1273458D01*
X62762668Y1287779D01*
X62777702Y1300620D01*
X62787679Y1307869D01*
X62794092Y1312528D01*
X62822283Y1346605D01*
X62830273Y1355384D01*
X64021994Y2547104D01*
X64084306Y2581130D01*
X64111089Y2584009D01*
X64166981Y2584009D01*
X64173433Y2585381D01*
X64173438Y2585381D01*
X64260382Y2603862D01*
X64353782Y2623715D01*
X64463634Y2672624D01*
X64522216Y2698706D01*
X64522218Y2698707D01*
X64528246Y2701391D01*
X64682747Y2813643D01*
X64758500Y2897775D01*
X64806115Y2950657D01*
X64806116Y2950658D01*
X64810534Y2955565D01*
X64874166Y3065779D01*
X64902717Y3115230D01*
X64902718Y3115231D01*
X64906021Y3120953D01*
X64965036Y3302581D01*
X64984998Y3492509D01*
X64974620Y3591247D01*
X64965726Y3675874D01*
X64965726Y3675876D01*
X64965036Y3682437D01*
X64906021Y3864065D01*
X64880177Y3908829D01*
X64838118Y3981676D01*
X64810534Y4029453D01*
X64800975Y4040070D01*
X64687169Y4166464D01*
X64687168Y4166465D01*
X64682747Y4171375D01*
X64566874Y4255562D01*
X64533588Y4279746D01*
X64533587Y4279747D01*
X64528246Y4283627D01*
X64522218Y4286311D01*
X64522216Y4286312D01*
X64359813Y4358618D01*
X64359812Y4358618D01*
X64353782Y4361303D01*
X64253767Y4382562D01*
X64173438Y4399637D01*
X64173433Y4399637D01*
X64166981Y4401009D01*
X63976007Y4401009D01*
X63969555Y4399637D01*
X63969550Y4399637D01*
X63889221Y4382562D01*
X63789206Y4361303D01*
X63783176Y4358618D01*
X63783175Y4358618D01*
X63620772Y4286312D01*
X63620770Y4286311D01*
X63614742Y4283627D01*
X63609401Y4279747D01*
X63609400Y4279746D01*
X63576114Y4255562D01*
X63460241Y4171375D01*
X63455820Y4166465D01*
X63455819Y4166464D01*
X63342014Y4040070D01*
X63332454Y4029453D01*
X63304870Y3981676D01*
X63262812Y3908829D01*
X63236967Y3864065D01*
X63177952Y3682437D01*
X63177262Y3675876D01*
X63177262Y3675874D01*
X63160587Y3517216D01*
X63133574Y3451559D01*
X63124372Y3441291D01*
X62131485Y2448405D01*
X62069173Y2414379D01*
X62042390Y2411500D01*
X48678624Y2411500D01*
X48610503Y2431502D01*
X48564010Y2485158D01*
X48553906Y2555432D01*
X48569505Y2600500D01*
X48646715Y2734231D01*
X48646716Y2734232D01*
X48650019Y2739954D01*
X48709034Y2921582D01*
X48710442Y2934973D01*
X48728306Y3104945D01*
X48728996Y3111510D01*
X48719216Y3204562D01*
X48709724Y3294875D01*
X48709724Y3294877D01*
X48709034Y3301438D01*
X48650019Y3483066D01*
X48630303Y3517216D01*
X48612806Y3547520D01*
X48554532Y3648454D01*
X48486815Y3723662D01*
X48431167Y3785465D01*
X48431166Y3785466D01*
X48426745Y3790376D01*
X48307565Y3876966D01*
X48277586Y3898747D01*
X48277585Y3898748D01*
X48272244Y3902628D01*
X48266216Y3905312D01*
X48266214Y3905313D01*
X48103811Y3977619D01*
X48103810Y3977619D01*
X48097780Y3980304D01*
X48004379Y4000157D01*
X47917436Y4018638D01*
X47917431Y4018638D01*
X47910979Y4020010D01*
X47720005Y4020010D01*
X47713553Y4018638D01*
X47713548Y4018638D01*
X47626605Y4000157D01*
X47533204Y3980304D01*
X47527174Y3977619D01*
X47527173Y3977619D01*
X47364770Y3905313D01*
X47364768Y3905312D01*
X47358740Y3902628D01*
X47353399Y3898748D01*
X47353398Y3898747D01*
X47323419Y3876966D01*
X47204239Y3790376D01*
X47199818Y3785466D01*
X47199817Y3785465D01*
X47144170Y3723662D01*
X47076452Y3648454D01*
X47018178Y3547520D01*
X47000682Y3517216D01*
X46980965Y3483066D01*
X46921950Y3301438D01*
X46921260Y3294877D01*
X46921260Y3294875D01*
X46911768Y3204562D01*
X46901988Y3111510D01*
X46902678Y3104945D01*
X46920543Y2934973D01*
X46921950Y2921582D01*
X46980965Y2739954D01*
X46984268Y2734232D01*
X46984269Y2734231D01*
X47061479Y2600500D01*
X47078217Y2531505D01*
X47054997Y2464413D01*
X46999190Y2420526D01*
X46952360Y2411500D01*
X30604500Y2411500D01*
X30536379Y2431502D01*
X30489886Y2485158D01*
X30478500Y2537500D01*
X30478500Y2726475D01*
X30498502Y2794596D01*
X30510864Y2810786D01*
X30513437Y2813643D01*
X30551175Y2855556D01*
X30579622Y2887149D01*
X30579623Y2887150D01*
X30584041Y2892057D01*
X30655814Y3016371D01*
X30676224Y3051722D01*
X30676225Y3051723D01*
X30679528Y3057445D01*
X30738543Y3239073D01*
X30749002Y3338580D01*
X30757815Y3422436D01*
X30758505Y3429001D01*
X30749233Y3517216D01*
X30739233Y3612366D01*
X30739233Y3612368D01*
X30738543Y3618929D01*
X30679528Y3800557D01*
X30672284Y3813105D01*
X30613182Y3915471D01*
X30584041Y3965945D01*
X30572231Y3979062D01*
X30460676Y4102956D01*
X30460675Y4102957D01*
X30456254Y4107867D01*
X30339268Y4192863D01*
X30307095Y4216238D01*
X30307094Y4216239D01*
X30301753Y4220119D01*
X30295725Y4222803D01*
X30295723Y4222804D01*
X30133320Y4295110D01*
X30133319Y4295110D01*
X30127289Y4297795D01*
X30033889Y4317648D01*
X29946945Y4336129D01*
X29946940Y4336129D01*
X29940488Y4337501D01*
X29749514Y4337501D01*
X29743062Y4336129D01*
X29743057Y4336129D01*
X29656113Y4317648D01*
X29562713Y4297795D01*
X29556683Y4295110D01*
X29556682Y4295110D01*
X29394279Y4222804D01*
X29394277Y4222803D01*
X29388249Y4220119D01*
X29382908Y4216239D01*
X29382907Y4216238D01*
X29350734Y4192863D01*
X29233748Y4107867D01*
X29229327Y4102957D01*
X29229326Y4102956D01*
X29117772Y3979062D01*
X29105961Y3965945D01*
X29076820Y3915471D01*
X29017719Y3813105D01*
X29010474Y3800557D01*
X28951459Y3618929D01*
X28950769Y3612368D01*
X28950769Y3612366D01*
X28940769Y3517216D01*
X28931497Y3429001D01*
X28932187Y3422436D01*
X28941001Y3338580D01*
X28951459Y3239073D01*
X29010474Y3057445D01*
X29013777Y3051723D01*
X29013778Y3051722D01*
X29034188Y3016371D01*
X29105961Y2892057D01*
X29110379Y2887150D01*
X29110380Y2887149D01*
X29179136Y2810788D01*
X29209853Y2746781D01*
X29211500Y2726478D01*
X29211500Y2537500D01*
X29191498Y2469379D01*
X29137842Y2422886D01*
X29085500Y2411500D01*
X15315106Y2411500D01*
X15246985Y2431502D01*
X15226011Y2448405D01*
X14892628Y2781788D01*
X14858602Y2844100D01*
X14856413Y2857713D01*
X14856245Y2859318D01*
X14845910Y2957649D01*
X14839738Y3016371D01*
X14839738Y3016373D01*
X14839048Y3022934D01*
X14780033Y3204562D01*
X14684546Y3369950D01*
X14637288Y3422436D01*
X14561181Y3506961D01*
X14561180Y3506962D01*
X14556759Y3511872D01*
X14434820Y3600466D01*
X14407600Y3620243D01*
X14407599Y3620244D01*
X14402258Y3624124D01*
X14396230Y3626808D01*
X14396228Y3626809D01*
X14233825Y3699115D01*
X14233824Y3699115D01*
X14227794Y3701800D01*
X14115345Y3725702D01*
X14047450Y3740134D01*
X14047445Y3740134D01*
X14040993Y3741506D01*
X13850019Y3741506D01*
X13843567Y3740134D01*
X13843562Y3740134D01*
X13775667Y3725702D01*
X13663218Y3701800D01*
X13657188Y3699115D01*
X13657187Y3699115D01*
X13494784Y3626809D01*
X13494782Y3626808D01*
X13488754Y3624124D01*
X13483413Y3620244D01*
X13483412Y3620243D01*
X13454770Y3599433D01*
X13334253Y3511872D01*
X13329838Y3506969D01*
X13324926Y3502546D01*
X13323801Y3503795D01*
X13270492Y3470955D01*
X13237306Y3466506D01*
X10816588Y3466506D01*
X10748467Y3486508D01*
X10727497Y3503407D01*
X9814403Y4416502D01*
X9780379Y4478812D01*
X9777500Y4505595D01*
X9777500Y6358676D01*
X9797502Y6426797D01*
X9809858Y6442979D01*
X9883040Y6524256D01*
X9949031Y6638556D01*
X9975223Y6683921D01*
X9975224Y6683922D01*
X9978527Y6689644D01*
X10037542Y6871272D01*
X10038290Y6878384D01*
X10056814Y7054635D01*
X10057504Y7061200D01*
X10056685Y7068991D01*
X10038232Y7244565D01*
X10038232Y7244567D01*
X10037542Y7251128D01*
X9978527Y7432756D01*
X9968895Y7449440D01*
X9910783Y7550092D01*
X9883040Y7598144D01*
X9868798Y7613962D01*
X9759675Y7735155D01*
X9759674Y7735156D01*
X9755253Y7740066D01*
X9621676Y7837116D01*
X9606094Y7848437D01*
X9606093Y7848438D01*
X9600752Y7852318D01*
X9594724Y7855002D01*
X9594722Y7855003D01*
X9432319Y7927309D01*
X9432318Y7927309D01*
X9426288Y7929994D01*
X9316977Y7953229D01*
X9245944Y7968328D01*
X9245939Y7968328D01*
X9239487Y7969700D01*
X9048513Y7969700D01*
X9042061Y7968328D01*
X9042056Y7968328D01*
X8971023Y7953229D01*
X8861712Y7929994D01*
X8855682Y7927309D01*
X8855681Y7927309D01*
X8693278Y7855003D01*
X8693276Y7855002D01*
X8687248Y7852318D01*
X8681907Y7848438D01*
X8681906Y7848437D01*
X8666324Y7837116D01*
X8532747Y7740066D01*
X8528326Y7735156D01*
X8528325Y7735155D01*
X8419203Y7613962D01*
X8404960Y7598144D01*
X8377217Y7550092D01*
X8319106Y7449440D01*
X8309473Y7432756D01*
X8250458Y7251128D01*
X8249768Y7244567D01*
X8249768Y7244565D01*
X8231315Y7068991D01*
X8230496Y7061200D01*
X4463701Y7061200D01*
X4487675Y7140107D01*
X4505865Y7199977D01*
X4505865Y7199979D01*
X4507370Y7204931D01*
X4536529Y7426410D01*
X4536684Y7432756D01*
X4538074Y7489635D01*
X4538074Y7489639D01*
X4538156Y7493000D01*
X4536385Y7514544D01*
X4550738Y7584075D01*
X4572866Y7613962D01*
X7210499Y10251595D01*
X7272811Y10285621D01*
X7299594Y10288500D01*
X15357300Y10288500D01*
X15425421Y10268498D01*
X15444647Y10252157D01*
X15444920Y10252460D01*
X15449832Y10248037D01*
X15454247Y10243134D01*
X15459586Y10239255D01*
X15568671Y10160000D01*
X15608748Y10130882D01*
X15614776Y10128198D01*
X15614778Y10128197D01*
X15777181Y10055891D01*
X15783212Y10053206D01*
X15789667Y10051834D01*
X15789673Y10051832D01*
X15808193Y10047896D01*
X15870668Y10014169D01*
X15904990Y9952020D01*
X15901831Y9885711D01*
X15897898Y9873608D01*
X15897897Y9873603D01*
X15895858Y9867328D01*
X15895168Y9860767D01*
X15895168Y9860765D01*
X15884305Y9757404D01*
X15875896Y9677400D01*
X15876586Y9670835D01*
X15894234Y9502927D01*
X15895858Y9487472D01*
X15954873Y9305844D01*
X16050360Y9140456D01*
X16067907Y9120968D01*
X16098623Y9056962D01*
X16089858Y8986508D01*
X16083388Y8973660D01*
X16011835Y8849726D01*
X15992973Y8817056D01*
X15933958Y8635428D01*
X15933268Y8628867D01*
X15933268Y8628865D01*
X15927175Y8570889D01*
X15913996Y8445500D01*
X15914686Y8438935D01*
X15929991Y8293320D01*
X15933958Y8255572D01*
X15992973Y8073944D01*
X15996276Y8068222D01*
X15996277Y8068221D01*
X16021557Y8024435D01*
X16088460Y7908556D01*
X16100838Y7894809D01*
X16131554Y7830803D01*
X16122790Y7760350D01*
X16100839Y7726193D01*
X16088460Y7712444D01*
X16051170Y7647856D01*
X15998576Y7556760D01*
X15992973Y7547056D01*
X15933958Y7365428D01*
X15933268Y7358867D01*
X15933268Y7358865D01*
X15919989Y7232522D01*
X15913996Y7175500D01*
X15914686Y7168935D01*
X15932796Y6996632D01*
X15933958Y6985572D01*
X15992973Y6803944D01*
X15996276Y6798222D01*
X15996277Y6798221D01*
X16034012Y6732863D01*
X16088460Y6638556D01*
X16125904Y6596971D01*
X16137039Y6584604D01*
X16167756Y6520596D01*
X16158993Y6450143D01*
X16137039Y6415982D01*
X16126560Y6404344D01*
X16123257Y6398623D01*
X16035269Y6246223D01*
X16031073Y6238956D01*
X15972058Y6057328D01*
X15971368Y6050767D01*
X15971368Y6050765D01*
X15952786Y5873965D01*
X15952096Y5867400D01*
X15952786Y5860835D01*
X15970711Y5690292D01*
X15972058Y5677472D01*
X16031073Y5495844D01*
X16126560Y5330456D01*
X16130978Y5325549D01*
X16130979Y5325548D01*
X16241058Y5203293D01*
X16254347Y5188534D01*
X16408848Y5076282D01*
X16414876Y5073598D01*
X16414878Y5073597D01*
X16557514Y5010092D01*
X16583312Y4998606D01*
X16676713Y4978753D01*
X16763656Y4960272D01*
X16763661Y4960272D01*
X16770113Y4958900D01*
X16961087Y4958900D01*
X16967539Y4960272D01*
X16967544Y4960272D01*
X17054487Y4978753D01*
X17147888Y4998606D01*
X17173686Y5010092D01*
X17316322Y5073597D01*
X17316324Y5073598D01*
X17322352Y5076282D01*
X17476853Y5188534D01*
X17490142Y5203293D01*
X17600221Y5325548D01*
X17600222Y5325549D01*
X17604640Y5330456D01*
X17700127Y5495844D01*
X17742522Y5626320D01*
X17757102Y5671193D01*
X17757102Y5671195D01*
X17759142Y5677472D01*
X17763083Y5714969D01*
X17790096Y5780626D01*
X17799298Y5790894D01*
X20204247Y8195843D01*
X20212537Y8203387D01*
X20219018Y8207500D01*
X20265659Y8257168D01*
X20268413Y8260009D01*
X20288134Y8279730D01*
X20290612Y8282925D01*
X20298318Y8291947D01*
X20323158Y8318399D01*
X20328586Y8324179D01*
X20338346Y8341932D01*
X20349199Y8358455D01*
X20356753Y8368194D01*
X20361613Y8374459D01*
X20379176Y8415043D01*
X20384383Y8425673D01*
X20405695Y8464440D01*
X20407666Y8472117D01*
X20407668Y8472122D01*
X20410732Y8484058D01*
X20417138Y8502770D01*
X20421291Y8512365D01*
X20425181Y8521355D01*
X20426421Y8529183D01*
X20426423Y8529190D01*
X20432099Y8565024D01*
X20434505Y8576644D01*
X20443528Y8611789D01*
X20443528Y8611790D01*
X20445500Y8619470D01*
X20445500Y8639724D01*
X20447051Y8659435D01*
X20448980Y8671614D01*
X20450220Y8679443D01*
X20446059Y8723462D01*
X20445500Y8735319D01*
X20445500Y13788450D01*
X20465502Y13856571D01*
X20482405Y13877545D01*
X22502872Y15898012D01*
X22565184Y15932038D01*
X22635999Y15926973D01*
X22692835Y15884426D01*
X22717646Y15817906D01*
X22717967Y15808917D01*
X22717967Y7461300D01*
X22717440Y7450117D01*
X22715765Y7442624D01*
X22716014Y7434698D01*
X22716014Y7434697D01*
X22717905Y7374547D01*
X22717967Y7370588D01*
X22717967Y7342677D01*
X22718464Y7338743D01*
X22718464Y7338742D01*
X22718472Y7338677D01*
X22719405Y7326840D01*
X22720794Y7282644D01*
X22725453Y7266608D01*
X22726445Y7263194D01*
X22730454Y7243833D01*
X22731139Y7238415D01*
X22732993Y7223736D01*
X22735912Y7216365D01*
X22735912Y7216363D01*
X22749271Y7182621D01*
X22753116Y7171391D01*
X22761160Y7143703D01*
X22765449Y7128940D01*
X22769482Y7122121D01*
X22769484Y7122116D01*
X22775760Y7111505D01*
X22784455Y7093757D01*
X22791915Y7074916D01*
X22796577Y7068500D01*
X22796577Y7068499D01*
X22817903Y7039146D01*
X22824419Y7029226D01*
X22841124Y7000980D01*
X22846925Y6991171D01*
X22861246Y6976850D01*
X22874086Y6961817D01*
X22885995Y6945426D01*
X22901254Y6932803D01*
X22920072Y6917235D01*
X22928851Y6909245D01*
X24071878Y5766217D01*
X24105904Y5703905D01*
X24108093Y5690292D01*
X24124526Y5533944D01*
X24125458Y5525072D01*
X24184473Y5343444D01*
X24187776Y5337722D01*
X24187777Y5337721D01*
X24221686Y5278990D01*
X24279960Y5178056D01*
X24284378Y5173149D01*
X24284379Y5173148D01*
X24374015Y5073597D01*
X24407747Y5036134D01*
X24562248Y4923882D01*
X24568276Y4921198D01*
X24568278Y4921197D01*
X24649055Y4885233D01*
X24736712Y4846206D01*
X24830112Y4826353D01*
X24917056Y4807872D01*
X24917061Y4807872D01*
X24923513Y4806500D01*
X25114487Y4806500D01*
X25120939Y4807872D01*
X25120944Y4807872D01*
X25207888Y4826353D01*
X25301288Y4846206D01*
X25388945Y4885233D01*
X25469722Y4921197D01*
X25469724Y4921198D01*
X25475752Y4923882D01*
X25630253Y5036134D01*
X25663985Y5073597D01*
X25753621Y5173148D01*
X25753622Y5173149D01*
X25758040Y5178056D01*
X25816314Y5278990D01*
X25850223Y5337721D01*
X25850224Y5337722D01*
X25853527Y5343444D01*
X25912542Y5525072D01*
X25913475Y5533944D01*
X25931814Y5708435D01*
X25932504Y5715000D01*
X25912542Y5904928D01*
X25853527Y6086556D01*
X25758040Y6251944D01*
X25745662Y6265691D01*
X25714946Y6329697D01*
X25723710Y6400150D01*
X25745661Y6434307D01*
X25758040Y6448056D01*
X25836876Y6584604D01*
X25850223Y6607721D01*
X25850224Y6607722D01*
X25853527Y6613444D01*
X25912542Y6795072D01*
X25913475Y6803944D01*
X25931814Y6978435D01*
X25932504Y6985000D01*
X25921426Y7090404D01*
X25913232Y7168365D01*
X25913232Y7168367D01*
X25912542Y7174928D01*
X25853527Y7356556D01*
X25846108Y7369407D01*
X25813876Y7425233D01*
X25758040Y7521944D01*
X25745662Y7535691D01*
X25714946Y7599697D01*
X25723710Y7670150D01*
X25745661Y7704307D01*
X25758040Y7718056D01*
X25823135Y7830803D01*
X25850223Y7877721D01*
X25850224Y7877722D01*
X25853527Y7883444D01*
X25912542Y8065072D01*
X25913475Y8073944D01*
X25931814Y8248435D01*
X25932504Y8255000D01*
X25912542Y8444928D01*
X25853527Y8626556D01*
X25845925Y8639724D01*
X25792471Y8732308D01*
X25758040Y8791944D01*
X25688484Y8869193D01*
X25657769Y8933198D01*
X25666532Y9003651D01*
X25688483Y9037807D01*
X25758038Y9115056D01*
X25853525Y9280444D01*
X25912540Y9462072D01*
X25915900Y9494035D01*
X25931812Y9645435D01*
X25932502Y9652000D01*
X25927623Y9698418D01*
X25913230Y9835365D01*
X25913230Y9835367D01*
X25912540Y9841928D01*
X25853525Y10023556D01*
X25758038Y10188944D01*
X25668398Y10288500D01*
X25634673Y10325955D01*
X25634672Y10325956D01*
X25630251Y10330866D01*
X25475750Y10443118D01*
X25469717Y10445804D01*
X25469712Y10445807D01*
X25409751Y10472504D01*
X25355655Y10518484D01*
X25335000Y10587610D01*
X25335000Y18162000D01*
X25355002Y18230121D01*
X25408658Y18276614D01*
X25461000Y18288000D01*
X34043160Y18288000D01*
X34111281Y18267998D01*
X34157774Y18214342D01*
X34169160Y18162000D01*
X34169160Y10250823D01*
X34149158Y10182702D01*
X34136802Y10166520D01*
X34063620Y10085243D01*
X34044330Y10051832D01*
X33986704Y9952020D01*
X33968133Y9919855D01*
X33909118Y9738227D01*
X33889156Y9548299D01*
X33889846Y9541734D01*
X33898879Y9455794D01*
X33909118Y9358371D01*
X33968133Y9176743D01*
X33971436Y9171021D01*
X33971437Y9171020D01*
X34048982Y9036709D01*
X34063620Y9011355D01*
X34068042Y9006444D01*
X34068044Y9006441D01*
X34086486Y8985958D01*
X34117203Y8921950D01*
X34108438Y8851497D01*
X34086485Y8817338D01*
X34063620Y8791944D01*
X34060319Y8786226D01*
X34060317Y8786223D01*
X33974938Y8638342D01*
X33968133Y8626556D01*
X33909118Y8444928D01*
X33889156Y8255000D01*
X33889846Y8248435D01*
X33908186Y8073944D01*
X33909118Y8065072D01*
X33968133Y7883444D01*
X34024688Y7785489D01*
X34037871Y7762655D01*
X34054609Y7693660D01*
X34031389Y7626568D01*
X34022388Y7615345D01*
X33999889Y7590357D01*
X33999886Y7590353D01*
X33995466Y7585444D01*
X33992163Y7579723D01*
X33905582Y7429760D01*
X33899979Y7420056D01*
X33840964Y7238428D01*
X33840274Y7231867D01*
X33840274Y7231865D01*
X33825406Y7090404D01*
X33821002Y7048500D01*
X33821692Y7041935D01*
X33839345Y6873980D01*
X33840964Y6858572D01*
X33899979Y6676944D01*
X33903282Y6671222D01*
X33903283Y6671221D01*
X33915553Y6649969D01*
X33995466Y6511556D01*
X33999884Y6506649D01*
X33999885Y6506648D01*
X34068177Y6430802D01*
X34098895Y6366795D01*
X34090130Y6296341D01*
X34068179Y6262184D01*
X34063383Y6256857D01*
X34063380Y6256853D01*
X34058960Y6251944D01*
X34055659Y6246226D01*
X34055657Y6246223D01*
X33974984Y6106493D01*
X33963473Y6086556D01*
X33904458Y5904928D01*
X33884496Y5715000D01*
X33885186Y5708435D01*
X33903526Y5533944D01*
X33904458Y5525072D01*
X33963473Y5343444D01*
X33966776Y5337722D01*
X33966777Y5337721D01*
X34000686Y5278990D01*
X34058960Y5178056D01*
X34063378Y5173149D01*
X34063379Y5173148D01*
X34153015Y5073597D01*
X34186747Y5036134D01*
X34341248Y4923882D01*
X34347276Y4921198D01*
X34347278Y4921197D01*
X34428055Y4885233D01*
X34515712Y4846206D01*
X34609112Y4826353D01*
X34696056Y4807872D01*
X34696061Y4807872D01*
X34702513Y4806500D01*
X34893487Y4806500D01*
X34899939Y4807872D01*
X34899944Y4807872D01*
X34986888Y4826353D01*
X35080288Y4846206D01*
X35167945Y4885233D01*
X35248722Y4921197D01*
X35248724Y4921198D01*
X35254752Y4923882D01*
X35409253Y5036134D01*
X35442985Y5073597D01*
X35532621Y5173148D01*
X35532622Y5173149D01*
X35537040Y5178056D01*
X35595314Y5278990D01*
X35629223Y5337721D01*
X35629224Y5337722D01*
X35632527Y5343444D01*
X35691542Y5525072D01*
X35692475Y5533944D01*
X35708249Y5684035D01*
X35708907Y5690294D01*
X35735920Y5755950D01*
X35745122Y5766218D01*
X36275246Y6296341D01*
X36819936Y6841031D01*
X36828222Y6848571D01*
X36834701Y6852683D01*
X36881327Y6902335D01*
X36884081Y6905176D01*
X36903818Y6924913D01*
X36906298Y6928110D01*
X36914003Y6937132D01*
X36944269Y6969362D01*
X36948088Y6976308D01*
X36948090Y6976311D01*
X36954031Y6987117D01*
X36964882Y7003636D01*
X36972441Y7013382D01*
X36977297Y7019642D01*
X36980442Y7026911D01*
X36980445Y7026915D01*
X36994857Y7060220D01*
X37000074Y7070870D01*
X37021378Y7109623D01*
X37026416Y7129246D01*
X37032820Y7147949D01*
X37037716Y7159263D01*
X37037716Y7159264D01*
X37040864Y7166538D01*
X37042103Y7174361D01*
X37042106Y7174371D01*
X37047782Y7210207D01*
X37050188Y7221827D01*
X37059211Y7256972D01*
X37059211Y7256973D01*
X37061183Y7264653D01*
X37061183Y7284907D01*
X37062734Y7304618D01*
X37064663Y7316797D01*
X37065903Y7324626D01*
X37061742Y7368645D01*
X37061183Y7380502D01*
X37061183Y15921571D01*
X40789761Y15921571D01*
X40790507Y15913679D01*
X40793922Y15877553D01*
X40794481Y15865695D01*
X40794481Y7418786D01*
X40793954Y7407603D01*
X40792279Y7400110D01*
X40792528Y7392184D01*
X40792528Y7392183D01*
X40794419Y7332033D01*
X40794481Y7328074D01*
X40794481Y7300163D01*
X40794978Y7296229D01*
X40794978Y7296228D01*
X40794986Y7296163D01*
X40795919Y7284326D01*
X40797308Y7240130D01*
X40802959Y7220680D01*
X40806968Y7201319D01*
X40809507Y7181222D01*
X40812426Y7173851D01*
X40812426Y7173849D01*
X40825785Y7140107D01*
X40829630Y7128877D01*
X40838871Y7097069D01*
X40841963Y7086426D01*
X40845996Y7079607D01*
X40845998Y7079602D01*
X40852274Y7068991D01*
X40860969Y7051243D01*
X40868429Y7032402D01*
X40873091Y7025986D01*
X40873091Y7025985D01*
X40894417Y6996632D01*
X40900933Y6986712D01*
X40915657Y6961816D01*
X40923439Y6948657D01*
X40937760Y6934336D01*
X40950600Y6919303D01*
X40962509Y6902912D01*
X40968615Y6897861D01*
X40996586Y6874721D01*
X41005365Y6866731D01*
X42105878Y5766217D01*
X42139904Y5703905D01*
X42142093Y5690292D01*
X42158526Y5533944D01*
X42159458Y5525072D01*
X42218473Y5343444D01*
X42221776Y5337722D01*
X42221777Y5337721D01*
X42255686Y5278990D01*
X42313960Y5178056D01*
X42318378Y5173149D01*
X42318379Y5173148D01*
X42408015Y5073597D01*
X42441747Y5036134D01*
X42596248Y4923882D01*
X42602276Y4921198D01*
X42602278Y4921197D01*
X42683055Y4885233D01*
X42770712Y4846206D01*
X42864112Y4826353D01*
X42951056Y4807872D01*
X42951061Y4807872D01*
X42957513Y4806500D01*
X43148487Y4806500D01*
X43154939Y4807872D01*
X43154944Y4807872D01*
X43241888Y4826353D01*
X43335288Y4846206D01*
X43422945Y4885233D01*
X43503722Y4921197D01*
X43503724Y4921198D01*
X43509752Y4923882D01*
X43664253Y5036134D01*
X43697985Y5073597D01*
X43787621Y5173148D01*
X43787622Y5173149D01*
X43792040Y5178056D01*
X43850314Y5278990D01*
X43884223Y5337721D01*
X43884224Y5337722D01*
X43887527Y5343444D01*
X43946542Y5525072D01*
X43947475Y5533944D01*
X43965814Y5708435D01*
X43966504Y5715000D01*
X43946542Y5904928D01*
X43887527Y6086556D01*
X43792040Y6251944D01*
X43779662Y6265691D01*
X43748946Y6329697D01*
X43757710Y6400150D01*
X43779661Y6434307D01*
X43792040Y6448056D01*
X43870876Y6584604D01*
X43884223Y6607721D01*
X43884224Y6607722D01*
X43887527Y6613444D01*
X43946542Y6795072D01*
X43947475Y6803944D01*
X43965814Y6978435D01*
X43966504Y6985000D01*
X43955426Y7090404D01*
X43947232Y7168365D01*
X43947232Y7168367D01*
X43946542Y7174928D01*
X43887527Y7356556D01*
X43880108Y7369407D01*
X43847876Y7425233D01*
X43792040Y7521944D01*
X43779662Y7535691D01*
X43748946Y7599697D01*
X43757710Y7670150D01*
X43779661Y7704307D01*
X43792040Y7718056D01*
X43857135Y7830803D01*
X43884223Y7877721D01*
X43884224Y7877722D01*
X43887527Y7883444D01*
X43946542Y8065072D01*
X43947475Y8073944D01*
X43965814Y8248435D01*
X43966504Y8255000D01*
X43946542Y8444928D01*
X43887527Y8626556D01*
X43879925Y8639724D01*
X43826471Y8732308D01*
X43792040Y8791944D01*
X43722485Y8869192D01*
X43691770Y8933197D01*
X43700533Y9003650D01*
X43722484Y9037806D01*
X43792040Y9115056D01*
X43887527Y9280444D01*
X43946542Y9462072D01*
X43949902Y9494035D01*
X43965814Y9645435D01*
X43966504Y9652000D01*
X43961625Y9698418D01*
X43947232Y9835365D01*
X43947232Y9835367D01*
X43946542Y9841928D01*
X43887527Y10023556D01*
X43792040Y10188944D01*
X43718863Y10270215D01*
X43688147Y10334221D01*
X43686500Y10354524D01*
X43686500Y13020406D01*
X43706502Y13088527D01*
X43723405Y13109501D01*
X45924500Y15310595D01*
X45986812Y15344621D01*
X46013595Y15347500D01*
X46069487Y15347500D01*
X46075939Y15348872D01*
X46075944Y15348872D01*
X46162887Y15367353D01*
X46256288Y15387206D01*
X46262319Y15389891D01*
X46424722Y15462197D01*
X46424724Y15462198D01*
X46430752Y15464882D01*
X46585253Y15577134D01*
X46627161Y15623678D01*
X46708621Y15714148D01*
X46708622Y15714149D01*
X46713040Y15719056D01*
X46802961Y15874803D01*
X46805223Y15878721D01*
X46805224Y15878722D01*
X46808527Y15884444D01*
X46867542Y16066072D01*
X46868304Y16073316D01*
X46886814Y16249435D01*
X46887504Y16256000D01*
X46880874Y16319081D01*
X46868232Y16439365D01*
X46868232Y16439367D01*
X46867542Y16445928D01*
X46808527Y16627556D01*
X46799473Y16643239D01*
X46716341Y16787226D01*
X46713040Y16792944D01*
X46604967Y16912972D01*
X46589675Y16929955D01*
X46589674Y16929956D01*
X46585253Y16934866D01*
X46430752Y17047118D01*
X46424724Y17049802D01*
X46424722Y17049803D01*
X46262319Y17122109D01*
X46262318Y17122109D01*
X46256288Y17124794D01*
X46149207Y17147555D01*
X46075944Y17163128D01*
X46075939Y17163128D01*
X46069487Y17164500D01*
X45878513Y17164500D01*
X45872061Y17163128D01*
X45872056Y17163128D01*
X45798793Y17147555D01*
X45691712Y17124794D01*
X45685682Y17122109D01*
X45685681Y17122109D01*
X45523278Y17049803D01*
X45523276Y17049802D01*
X45517248Y17047118D01*
X45456759Y17003170D01*
X45389894Y16979313D01*
X45320742Y16995393D01*
X45308643Y17003168D01*
X45206701Y17077234D01*
X45166094Y17106737D01*
X45166093Y17106738D01*
X45160752Y17110618D01*
X45154724Y17113302D01*
X45154722Y17113303D01*
X44992319Y17185609D01*
X44992318Y17185609D01*
X44986288Y17188294D01*
X44892888Y17208147D01*
X44805944Y17226628D01*
X44805939Y17226628D01*
X44799487Y17228000D01*
X44608513Y17228000D01*
X44602061Y17226628D01*
X44602056Y17226628D01*
X44515112Y17208147D01*
X44421712Y17188294D01*
X44415682Y17185609D01*
X44415681Y17185609D01*
X44253278Y17113303D01*
X44253276Y17113302D01*
X44247248Y17110618D01*
X44241907Y17106738D01*
X44241906Y17106737D01*
X44201299Y17077234D01*
X44168462Y17053376D01*
X44151996Y17041413D01*
X44085129Y17017555D01*
X44015977Y17033635D01*
X43991631Y17053156D01*
X43991077Y17052541D01*
X43986175Y17056954D01*
X43981753Y17061866D01*
X43846139Y17160396D01*
X43832594Y17170237D01*
X43832593Y17170238D01*
X43827252Y17174118D01*
X43821224Y17176802D01*
X43821222Y17176803D01*
X43658819Y17249109D01*
X43658818Y17249109D01*
X43652788Y17251794D01*
X43559388Y17271647D01*
X43472444Y17290128D01*
X43472439Y17290128D01*
X43465987Y17291500D01*
X43275013Y17291500D01*
X43268561Y17290128D01*
X43268556Y17290128D01*
X43181613Y17271647D01*
X43088212Y17251794D01*
X43082182Y17249109D01*
X43082181Y17249109D01*
X42919778Y17176803D01*
X42919776Y17176802D01*
X42913748Y17174118D01*
X42908407Y17170238D01*
X42908406Y17170237D01*
X42780399Y17077234D01*
X42713531Y17053376D01*
X42644380Y17069456D01*
X42612702Y17094859D01*
X42598512Y17110618D01*
X42584753Y17125899D01*
X42533512Y17163128D01*
X42435594Y17234270D01*
X42435593Y17234271D01*
X42430252Y17238151D01*
X42424224Y17240835D01*
X42424222Y17240836D01*
X42261819Y17313142D01*
X42261818Y17313142D01*
X42255788Y17315827D01*
X42135153Y17341469D01*
X42075444Y17354161D01*
X42075439Y17354161D01*
X42068987Y17355533D01*
X41878013Y17355533D01*
X41871561Y17354161D01*
X41871556Y17354161D01*
X41811847Y17341469D01*
X41691212Y17315827D01*
X41685182Y17313142D01*
X41685181Y17313142D01*
X41522778Y17240836D01*
X41522776Y17240835D01*
X41516748Y17238151D01*
X41362247Y17125899D01*
X41357826Y17120989D01*
X41357825Y17120988D01*
X41286176Y17041413D01*
X41234460Y16983977D01*
X41138973Y16818589D01*
X41079958Y16636961D01*
X41079268Y16630400D01*
X41079268Y16630398D01*
X41062779Y16473510D01*
X41035766Y16407853D01*
X41022780Y16394667D01*
X41020963Y16393514D01*
X41015537Y16387736D01*
X41015536Y16387735D01*
X40974338Y16343863D01*
X40971583Y16341021D01*
X40951846Y16321284D01*
X40949366Y16318087D01*
X40941663Y16309067D01*
X40911395Y16276835D01*
X40907576Y16269889D01*
X40907574Y16269886D01*
X40901633Y16259080D01*
X40890782Y16242561D01*
X40878367Y16226555D01*
X40875222Y16219286D01*
X40875219Y16219282D01*
X40860807Y16185977D01*
X40855590Y16175327D01*
X40834286Y16136574D01*
X40832315Y16128899D01*
X40832315Y16128898D01*
X40829248Y16116952D01*
X40822844Y16098248D01*
X40814800Y16079659D01*
X40813561Y16071836D01*
X40813558Y16071826D01*
X40807882Y16035990D01*
X40805476Y16024370D01*
X40794481Y15981544D01*
X40794481Y15961290D01*
X40792930Y15941580D01*
X40789761Y15921571D01*
X37061183Y15921571D01*
X37061183Y18162000D01*
X37081185Y18230121D01*
X37134841Y18276614D01*
X37187183Y18288000D01*
X47500500Y18288000D01*
X47568621Y18267998D01*
X47615114Y18214342D01*
X47626500Y18162000D01*
X47626500Y7381267D01*
X47625973Y7370084D01*
X47624298Y7362591D01*
X47624547Y7354665D01*
X47624547Y7354664D01*
X47626438Y7294514D01*
X47626500Y7290563D01*
X47626500Y7262644D01*
X47626997Y7258710D01*
X47626997Y7258709D01*
X47627005Y7258644D01*
X47627938Y7246807D01*
X47629327Y7202611D01*
X47634978Y7183161D01*
X47638987Y7163800D01*
X47641526Y7143703D01*
X47644445Y7136332D01*
X47644445Y7136330D01*
X47657804Y7102588D01*
X47661649Y7091358D01*
X47670627Y7060456D01*
X47673982Y7048907D01*
X47678015Y7042088D01*
X47678017Y7042083D01*
X47684293Y7031472D01*
X47692988Y7013724D01*
X47700448Y6994883D01*
X47705110Y6988467D01*
X47705110Y6988466D01*
X47726436Y6959113D01*
X47732952Y6949193D01*
X47750630Y6919302D01*
X47755458Y6911138D01*
X47769779Y6896817D01*
X47782619Y6881784D01*
X47794528Y6865393D01*
X47810362Y6852294D01*
X47828605Y6837202D01*
X47837384Y6829212D01*
X51502848Y3163747D01*
X51510388Y3155461D01*
X51514500Y3148982D01*
X51520277Y3143557D01*
X51564151Y3102357D01*
X51566993Y3099602D01*
X51586730Y3079865D01*
X51589927Y3077385D01*
X51598947Y3069682D01*
X51631179Y3039414D01*
X51638125Y3035595D01*
X51638128Y3035593D01*
X51648934Y3029652D01*
X51665453Y3018801D01*
X51681459Y3006386D01*
X51688728Y3003241D01*
X51688732Y3003238D01*
X51722037Y2988826D01*
X51732687Y2983609D01*
X51771440Y2962305D01*
X51779115Y2960334D01*
X51779116Y2960334D01*
X51791062Y2957267D01*
X51809767Y2950863D01*
X51828355Y2942819D01*
X51836178Y2941580D01*
X51836188Y2941577D01*
X51872024Y2935901D01*
X51883644Y2933495D01*
X51916429Y2925078D01*
X51926470Y2922500D01*
X51946724Y2922500D01*
X51966434Y2920949D01*
X51986443Y2917780D01*
X51994335Y2918526D01*
X52013080Y2920298D01*
X52030462Y2921941D01*
X52042319Y2922500D01*
X58849233Y2922500D01*
X58860416Y2921973D01*
X58867909Y2920298D01*
X58875835Y2920547D01*
X58875836Y2920547D01*
X58935986Y2922438D01*
X58939945Y2922500D01*
X58967856Y2922500D01*
X58971791Y2922997D01*
X58971856Y2923005D01*
X58983693Y2923938D01*
X59015951Y2924952D01*
X59019970Y2925078D01*
X59027889Y2925327D01*
X59047343Y2930979D01*
X59066700Y2934987D01*
X59078930Y2936532D01*
X59078931Y2936532D01*
X59086797Y2937526D01*
X59094168Y2940445D01*
X59094170Y2940445D01*
X59127912Y2953804D01*
X59139142Y2957649D01*
X59173983Y2967771D01*
X59173984Y2967771D01*
X59181593Y2969982D01*
X59188412Y2974015D01*
X59188417Y2974017D01*
X59199028Y2980293D01*
X59216776Y2988988D01*
X59235617Y2996448D01*
X59271387Y3022436D01*
X59281307Y3028952D01*
X59312535Y3047420D01*
X59312538Y3047422D01*
X59319362Y3051458D01*
X59333683Y3065779D01*
X59348717Y3078620D01*
X59358694Y3085869D01*
X59365107Y3090528D01*
X59393298Y3124605D01*
X59401288Y3133384D01*
X61228000Y4960095D01*
X61290312Y4994121D01*
X61317095Y4997000D01*
X61372987Y4997000D01*
X61379439Y4998372D01*
X61379444Y4998372D01*
X61466387Y5016853D01*
X61559788Y5036706D01*
X61648678Y5076282D01*
X61728222Y5111697D01*
X61728224Y5111698D01*
X61731833Y5113305D01*
X66836251Y5113305D01*
X66836548Y5108152D01*
X66836548Y5108149D01*
X66845494Y4953000D01*
X66849110Y4890285D01*
X66850247Y4885239D01*
X66850248Y4885233D01*
X66859353Y4844834D01*
X66898222Y4672361D01*
X66982266Y4465384D01*
X66984965Y4460980D01*
X67096025Y4279746D01*
X67098987Y4274912D01*
X67245250Y4106062D01*
X67417126Y3963368D01*
X67610000Y3850662D01*
X67614825Y3848820D01*
X67614826Y3848819D01*
X67638777Y3839673D01*
X67818692Y3770970D01*
X67823760Y3769939D01*
X67823763Y3769938D01*
X67927454Y3748842D01*
X68037597Y3726433D01*
X68042772Y3726243D01*
X68042774Y3726243D01*
X68255673Y3718436D01*
X68255677Y3718436D01*
X68260837Y3718247D01*
X68265957Y3718903D01*
X68265959Y3718903D01*
X68477288Y3745975D01*
X68477289Y3745975D01*
X68482416Y3746632D01*
X68487366Y3748117D01*
X68691429Y3809339D01*
X68691434Y3809341D01*
X68696384Y3810826D01*
X68896994Y3909104D01*
X69078860Y4038827D01*
X69109652Y4069511D01*
X69175672Y4135301D01*
X69237096Y4196511D01*
X69270620Y4243164D01*
X69364435Y4373723D01*
X69367453Y4377923D01*
X69404759Y4453405D01*
X69464136Y4573547D01*
X69464137Y4573549D01*
X69466430Y4578189D01*
X69531370Y4791931D01*
X69560529Y5013410D01*
X69560611Y5016760D01*
X69562074Y5076635D01*
X69562074Y5076639D01*
X69562156Y5080000D01*
X69543852Y5302639D01*
X69489431Y5519298D01*
X69400354Y5724160D01*
X69279014Y5911723D01*
X69128670Y6076949D01*
X69124619Y6080148D01*
X69124615Y6080152D01*
X68957414Y6212200D01*
X68957410Y6212202D01*
X68953359Y6215402D01*
X68912053Y6238204D01*
X68862084Y6288636D01*
X68847312Y6358079D01*
X68872428Y6424484D01*
X68899780Y6451091D01*
X68968759Y6500293D01*
X69078860Y6578827D01*
X69093321Y6593237D01*
X69233435Y6732863D01*
X69237096Y6736511D01*
X69290068Y6810229D01*
X69364435Y6913723D01*
X69367453Y6917923D01*
X69372099Y6927322D01*
X69464136Y7113547D01*
X69464137Y7113549D01*
X69466430Y7118189D01*
X69508596Y7256972D01*
X69529865Y7326977D01*
X69529865Y7326979D01*
X69531370Y7331931D01*
X69560529Y7553410D01*
X69560906Y7568837D01*
X69562074Y7616635D01*
X69562074Y7616639D01*
X69562156Y7620000D01*
X69543852Y7842639D01*
X69489431Y8059298D01*
X69400354Y8264160D01*
X69299224Y8420483D01*
X69281822Y8447383D01*
X69281820Y8447386D01*
X69279014Y8451723D01*
X69128670Y8616949D01*
X69124619Y8620148D01*
X69124615Y8620152D01*
X68957414Y8752200D01*
X68957410Y8752202D01*
X68953359Y8755402D01*
X68912053Y8778204D01*
X68862084Y8828636D01*
X68847312Y8898079D01*
X68872428Y8964484D01*
X68899780Y8991091D01*
X68969251Y9040644D01*
X69078860Y9118827D01*
X69091288Y9131211D01*
X69233435Y9272863D01*
X69237096Y9276511D01*
X69254062Y9300121D01*
X69364435Y9453723D01*
X69367453Y9457923D01*
X69371544Y9466199D01*
X69464136Y9653547D01*
X69464137Y9653549D01*
X69466430Y9658189D01*
X69524237Y9848453D01*
X69529865Y9866977D01*
X69529865Y9866979D01*
X69531370Y9871931D01*
X69560529Y10093410D01*
X69561445Y10130882D01*
X69562074Y10156635D01*
X69562074Y10156639D01*
X69562156Y10160000D01*
X69543852Y10382639D01*
X69489431Y10599298D01*
X69400354Y10804160D01*
X69324055Y10922100D01*
X69281822Y10987383D01*
X69281820Y10987386D01*
X69279014Y10991723D01*
X69128670Y11156949D01*
X69124619Y11160148D01*
X69124615Y11160152D01*
X68957414Y11292200D01*
X68957410Y11292202D01*
X68953359Y11295402D01*
X68911569Y11318471D01*
X68861598Y11368903D01*
X68846826Y11438346D01*
X68871942Y11504752D01*
X68899294Y11531359D01*
X69074328Y11656208D01*
X69082200Y11662861D01*
X69233052Y11813188D01*
X69239730Y11821035D01*
X69364003Y11993980D01*
X69369313Y12002817D01*
X69463670Y12193733D01*
X69467469Y12203328D01*
X69529377Y12407090D01*
X69531555Y12417163D01*
X69532986Y12428038D01*
X69530775Y12442222D01*
X69517617Y12446000D01*
X66882225Y12446000D01*
X66868694Y12442027D01*
X66867257Y12432034D01*
X66897565Y12297554D01*
X66900645Y12287725D01*
X66980770Y12090397D01*
X66985413Y12081206D01*
X67096694Y11899612D01*
X67102777Y11891301D01*
X67242213Y11730333D01*
X67249580Y11723117D01*
X67413434Y11587084D01*
X67421881Y11581169D01*
X67490969Y11540797D01*
X67539693Y11489158D01*
X67552764Y11419375D01*
X67526033Y11353604D01*
X67485584Y11320248D01*
X67472607Y11313493D01*
X67468474Y11310390D01*
X67468471Y11310388D01*
X67299323Y11183388D01*
X67293965Y11179365D01*
X67275605Y11160152D01*
X67144894Y11023371D01*
X67139629Y11017862D01*
X67013743Y10833320D01*
X66998003Y10799410D01*
X66940475Y10675476D01*
X66919688Y10630695D01*
X66859989Y10415430D01*
X66836251Y10193305D01*
X66836548Y10188152D01*
X66836548Y10188149D01*
X66843825Y10061944D01*
X66849110Y9970285D01*
X66850247Y9965239D01*
X66850248Y9965233D01*
X66870119Y9877061D01*
X66898222Y9752361D01*
X66936461Y9658189D01*
X66978417Y9554864D01*
X66982266Y9545384D01*
X66984965Y9540980D01*
X67092846Y9364934D01*
X67098987Y9354912D01*
X67245250Y9186062D01*
X67417126Y9043368D01*
X67487595Y9002189D01*
X67490445Y9000524D01*
X67539169Y8948886D01*
X67552240Y8879103D01*
X67525509Y8813331D01*
X67485055Y8779973D01*
X67472607Y8773493D01*
X67468474Y8770390D01*
X67468471Y8770388D01*
X67299323Y8643388D01*
X67293965Y8639365D01*
X67275718Y8620271D01*
X67154733Y8493667D01*
X67139629Y8477862D01*
X67136715Y8473590D01*
X67136714Y8473589D01*
X67118838Y8447383D01*
X67013743Y8293320D01*
X66973907Y8207500D01*
X66934356Y8122294D01*
X66919688Y8090695D01*
X66859989Y7875430D01*
X66836251Y7653305D01*
X66836548Y7648152D01*
X66836548Y7648149D01*
X66845494Y7493000D01*
X66849110Y7430285D01*
X66850247Y7425239D01*
X66850248Y7425233D01*
X66869740Y7338742D01*
X66898222Y7212361D01*
X66954032Y7074916D01*
X66975139Y7022937D01*
X66982266Y7005384D01*
X67010621Y6959113D01*
X67085328Y6837202D01*
X67098987Y6814912D01*
X67245250Y6646062D01*
X67417126Y6503368D01*
X67452006Y6482986D01*
X67490445Y6460524D01*
X67539169Y6408886D01*
X67552240Y6339103D01*
X67525509Y6273331D01*
X67485055Y6239973D01*
X67472607Y6233493D01*
X67468474Y6230390D01*
X67468471Y6230388D01*
X67299323Y6103388D01*
X67293965Y6099365D01*
X67247522Y6050765D01*
X67151180Y5949949D01*
X67139629Y5937862D01*
X67136715Y5933590D01*
X67136714Y5933589D01*
X67118838Y5907383D01*
X67013743Y5753320D01*
X66981583Y5684037D01*
X66943275Y5601508D01*
X66919688Y5550695D01*
X66859989Y5335430D01*
X66836251Y5113305D01*
X61731833Y5113305D01*
X61734252Y5114382D01*
X61888753Y5226634D01*
X61961707Y5307658D01*
X62012121Y5363648D01*
X62012122Y5363649D01*
X62016540Y5368556D01*
X62103571Y5519298D01*
X62108723Y5528221D01*
X62108724Y5528222D01*
X62112027Y5533944D01*
X62171042Y5715572D01*
X62175010Y5753320D01*
X62190314Y5898935D01*
X62191004Y5905500D01*
X62175736Y6050765D01*
X62171732Y6088865D01*
X62171732Y6088867D01*
X62171042Y6095428D01*
X62112027Y6277056D01*
X62032967Y6413992D01*
X62016229Y6482986D01*
X62032967Y6539991D01*
X62050296Y6570004D01*
X62094208Y6646062D01*
X62108726Y6671208D01*
X62108727Y6671209D01*
X62112030Y6676931D01*
X62171045Y6858559D01*
X62172347Y6870942D01*
X62190317Y7041922D01*
X62191007Y7048487D01*
X62187131Y7085361D01*
X62171735Y7231852D01*
X62171735Y7231854D01*
X62171045Y7238415D01*
X62112030Y7420043D01*
X62103570Y7434697D01*
X62050679Y7526305D01*
X62016543Y7585431D01*
X62004157Y7599187D01*
X61973441Y7663193D01*
X61982206Y7733646D01*
X62004155Y7767801D01*
X62016540Y7781556D01*
X62103033Y7931366D01*
X62108723Y7941221D01*
X62108724Y7941222D01*
X62112027Y7946944D01*
X62171042Y8128572D01*
X62175010Y8166320D01*
X62190314Y8311935D01*
X62191004Y8318500D01*
X62176966Y8452065D01*
X62171732Y8501865D01*
X62171732Y8501867D01*
X62171042Y8508428D01*
X62112027Y8690056D01*
X62108616Y8695965D01*
X62064207Y8772883D01*
X62016540Y8855444D01*
X61998248Y8875760D01*
X61967532Y8939764D01*
X61976295Y9010218D01*
X61982766Y9023068D01*
X61987196Y9030740D01*
X62048507Y9136934D01*
X62107522Y9318562D01*
X62110933Y9351010D01*
X62126794Y9501925D01*
X62127484Y9508490D01*
X62115201Y9625361D01*
X62108212Y9691855D01*
X62108212Y9691857D01*
X62107522Y9698418D01*
X62048507Y9880046D01*
X62038375Y9897596D01*
X61969280Y10017271D01*
X61953020Y10045434D01*
X61943605Y10055891D01*
X61829655Y10182445D01*
X61829654Y10182446D01*
X61825233Y10187356D01*
X61693188Y10283293D01*
X61676074Y10295727D01*
X61676073Y10295728D01*
X61670732Y10299608D01*
X61664704Y10302292D01*
X61664702Y10302293D01*
X61502299Y10374599D01*
X61502298Y10374599D01*
X61496268Y10377284D01*
X61402867Y10397137D01*
X61315924Y10415618D01*
X61315919Y10415618D01*
X61309467Y10416990D01*
X61118493Y10416990D01*
X61112041Y10415618D01*
X61112036Y10415618D01*
X61025093Y10397137D01*
X60931692Y10377284D01*
X60925662Y10374599D01*
X60925661Y10374599D01*
X60763258Y10302293D01*
X60763256Y10302292D01*
X60757228Y10299608D01*
X60751887Y10295728D01*
X60751886Y10295727D01*
X60734772Y10283293D01*
X60602727Y10187356D01*
X60598306Y10182446D01*
X60598305Y10182445D01*
X60484356Y10055891D01*
X60474940Y10045434D01*
X60458680Y10017271D01*
X60389586Y9897596D01*
X60379453Y9880046D01*
X60320438Y9698418D01*
X60319748Y9691857D01*
X60319748Y9691855D01*
X60312759Y9625361D01*
X60300476Y9508490D01*
X60301166Y9501925D01*
X60306378Y9452332D01*
X60293605Y9382493D01*
X60270163Y9350067D01*
X56580499Y5660404D01*
X56518187Y5626378D01*
X56491404Y5623499D01*
X54067593Y5623499D01*
X53999472Y5643501D01*
X53952979Y5697157D01*
X53942875Y5767431D01*
X53972369Y5832011D01*
X53978498Y5838594D01*
X54789874Y6649969D01*
X55700753Y7560848D01*
X55709039Y7568388D01*
X55715518Y7572500D01*
X55741058Y7599697D01*
X55762143Y7622151D01*
X55764898Y7624993D01*
X55784635Y7644730D01*
X55787115Y7647927D01*
X55794820Y7656949D01*
X55796218Y7658438D01*
X55825086Y7689179D01*
X55828905Y7696125D01*
X55828907Y7696128D01*
X55834848Y7706934D01*
X55845699Y7723453D01*
X55853258Y7733199D01*
X55858114Y7739459D01*
X55861259Y7746728D01*
X55861262Y7746732D01*
X55875674Y7780037D01*
X55880891Y7790687D01*
X55902195Y7829440D01*
X55907233Y7849063D01*
X55913637Y7867766D01*
X55918533Y7879080D01*
X55918533Y7879081D01*
X55921681Y7886355D01*
X55922920Y7894178D01*
X55922923Y7894188D01*
X55928599Y7930024D01*
X55931005Y7941644D01*
X55940028Y7976789D01*
X55940028Y7976790D01*
X55942000Y7984470D01*
X55942000Y8004724D01*
X55943551Y8024435D01*
X55945480Y8036614D01*
X55946720Y8044443D01*
X55942559Y8088462D01*
X55942000Y8100319D01*
X55942000Y9845406D01*
X55962002Y9913527D01*
X55978905Y9934501D01*
X60386271Y14341866D01*
X66840500Y14341866D01*
X66847255Y14279684D01*
X66898385Y14143295D01*
X66985739Y14026739D01*
X67102295Y13939385D01*
X67110704Y13936233D01*
X67110705Y13936232D01*
X67219960Y13895274D01*
X67276725Y13852633D01*
X67301425Y13786071D01*
X67286218Y13716722D01*
X67266825Y13690241D01*
X67143590Y13561283D01*
X67137104Y13553273D01*
X67017098Y13377351D01*
X67012000Y13368377D01*
X66922338Y13175217D01*
X66918775Y13165530D01*
X66863389Y12965817D01*
X66864912Y12957393D01*
X66877292Y12954000D01*
X69517344Y12954000D01*
X69530875Y12957973D01*
X69532180Y12967053D01*
X69490214Y13134125D01*
X69486894Y13143876D01*
X69401972Y13339186D01*
X69397105Y13348261D01*
X69281426Y13527074D01*
X69275136Y13535243D01*
X69131293Y13693323D01*
X69100241Y13757169D01*
X69108635Y13827667D01*
X69153812Y13882436D01*
X69180256Y13896105D01*
X69287297Y13936233D01*
X69295705Y13939385D01*
X69412261Y14026739D01*
X69499615Y14143295D01*
X69550745Y14279684D01*
X69557500Y14341866D01*
X69557500Y16138134D01*
X69550745Y16200316D01*
X69499615Y16336705D01*
X69412261Y16453261D01*
X69295705Y16540615D01*
X69159316Y16591745D01*
X69097134Y16598500D01*
X67300866Y16598500D01*
X67238684Y16591745D01*
X67102295Y16540615D01*
X66985739Y16453261D01*
X66898385Y16336705D01*
X66847255Y16200316D01*
X66840500Y16138134D01*
X66840500Y14341866D01*
X60386271Y14341866D01*
X64295500Y18251095D01*
X64357812Y18285121D01*
X64384595Y18288000D01*
X70739500Y18288000D01*
X70807621Y18267998D01*
X70854114Y18214342D01*
X70865500Y18162000D01*
X70865500Y3039738D01*
X70845498Y2971617D01*
X70791842Y2925124D01*
X70721568Y2915020D01*
X70657670Y2943927D01*
X70588225Y3003238D01*
X70544555Y3040536D01*
X70335757Y3168487D01*
X70331187Y3170380D01*
X70331183Y3170382D01*
X70114088Y3260306D01*
X70114086Y3260307D01*
X70109515Y3262200D01*
X70005249Y3287232D01*
X69876210Y3318212D01*
X69876204Y3318213D01*
X69871397Y3319367D01*
X69627269Y3338580D01*
X69383141Y3319367D01*
X69378334Y3318213D01*
X69378328Y3318212D01*
X69249289Y3287232D01*
X69145023Y3262200D01*
X69140452Y3260307D01*
X69140450Y3260306D01*
X68923355Y3170382D01*
X68923351Y3170380D01*
X68918781Y3168487D01*
X68709983Y3040536D01*
X68706223Y3037324D01*
X68706218Y3037321D01*
X68569964Y2920949D01*
X68523772Y2881497D01*
X68520559Y2877735D01*
X68367948Y2699051D01*
X68367945Y2699046D01*
X68364733Y2695286D01*
X68236782Y2486488D01*
X68234889Y2481918D01*
X68234887Y2481914D01*
X68144963Y2264819D01*
X68143069Y2260246D01*
X68123685Y2179504D01*
X68091578Y2045769D01*
X68085902Y2022128D01*
X68066689Y1778000D01*
X68085902Y1533872D01*
X68087056Y1529065D01*
X68087057Y1529059D01*
X68091965Y1508616D01*
X68143069Y1295754D01*
X68144962Y1291183D01*
X68144963Y1291181D01*
X68206530Y1142547D01*
X68236782Y1069512D01*
X68364733Y860714D01*
X68426092Y788872D01*
X68488048Y716330D01*
X68517079Y651540D01*
X68506474Y581340D01*
X68459599Y528018D01*
X68392237Y508500D01*
X2971910Y508500D01*
X2903789Y528502D01*
X2857296Y582158D01*
X2847192Y652432D01*
X2876097Y716328D01*
X3015160Y879151D01*
X3140540Y1083751D01*
X3164262Y1141020D01*
X3230475Y1300874D01*
X3230476Y1300876D01*
X3232369Y1305447D01*
X3254990Y1399671D01*
X3287232Y1533965D01*
X3287233Y1533971D01*
X3288387Y1538778D01*
X3307214Y1778000D01*
X3288387Y2017222D01*
X3287233Y2022029D01*
X3287232Y2022035D01*
X3249426Y2179504D01*
X3232369Y2250553D01*
X3226460Y2264819D01*
X3142434Y2467677D01*
X3142433Y2467679D01*
X3140540Y2472249D01*
X3015160Y2676849D01*
X2999414Y2695286D01*
X2862531Y2855556D01*
X2859318Y2859318D01*
X2787919Y2920298D01*
X2680617Y3011942D01*
X2680616Y3011943D01*
X2676849Y3015160D01*
X2472249Y3140540D01*
X2467679Y3142433D01*
X2467677Y3142434D01*
X2255126Y3230475D01*
X2255124Y3230476D01*
X2250553Y3232369D01*
X2168963Y3251957D01*
X2022035Y3287232D01*
X2022029Y3287233D01*
X2017222Y3288387D01*
X1778000Y3307214D01*
X1538778Y3288387D01*
X1533971Y3287233D01*
X1533965Y3287232D01*
X1387037Y3251957D01*
X1305447Y3232369D01*
X1300876Y3230476D01*
X1300874Y3230475D01*
X1088323Y3142434D01*
X1088321Y3142433D01*
X1083751Y3140540D01*
X879151Y3015160D01*
X716328Y2876097D01*
X651540Y2847068D01*
X581340Y2857673D01*
X528018Y2904548D01*
X508500Y2971910D01*
X508500Y14214866D01*
X1816500Y14214866D01*
X1823255Y14152684D01*
X1874385Y14016295D01*
X1961739Y13899739D01*
X2078295Y13812385D01*
X2086704Y13809233D01*
X2086705Y13809232D01*
X2195960Y13768274D01*
X2252725Y13725633D01*
X2277425Y13659071D01*
X2262218Y13589722D01*
X2242825Y13563241D01*
X2119590Y13434283D01*
X2113104Y13426273D01*
X1993098Y13250351D01*
X1988000Y13241377D01*
X1898338Y13048217D01*
X1894775Y13038530D01*
X1839389Y12838817D01*
X1840912Y12830393D01*
X1853292Y12827000D01*
X4493344Y12827000D01*
X4506875Y12830973D01*
X4508180Y12840053D01*
X4466214Y13007125D01*
X4462894Y13016876D01*
X4377972Y13212186D01*
X4373105Y13221261D01*
X4257426Y13400074D01*
X4251136Y13408243D01*
X4107293Y13566323D01*
X4076241Y13630169D01*
X4084635Y13700667D01*
X4129812Y13755436D01*
X4156256Y13769105D01*
X4263297Y13809233D01*
X4271705Y13812385D01*
X4388261Y13899739D01*
X4475615Y14016295D01*
X4526745Y14152684D01*
X4533500Y14214866D01*
X4533500Y16011134D01*
X4526745Y16073316D01*
X4475615Y16209705D01*
X4388261Y16326261D01*
X4271705Y16413615D01*
X4135316Y16464745D01*
X4073134Y16471500D01*
X2276866Y16471500D01*
X2214684Y16464745D01*
X2078295Y16413615D01*
X1961739Y16326261D01*
X1874385Y16209705D01*
X1823255Y16073316D01*
X1816500Y16011134D01*
X1816500Y14214866D01*
X508500Y14214866D01*
X508500Y18162000D01*
X528502Y18230121D01*
X582158Y18276614D01*
X634500Y18288000D01*
X22353585Y18288000D01*
X22421706Y18267998D01*
G37*
%TD.AperFunction*%
%TA.AperFunction,Conductor*%
G36*
X58617621Y18267998D02*
G01*
X58664114Y18214342D01*
X58675500Y18162000D01*
X58675500Y18031095D01*
X58655498Y17962974D01*
X58638595Y17942000D01*
X51741247Y11044652D01*
X51732961Y11037112D01*
X51726482Y11033000D01*
X51721057Y11027223D01*
X51679857Y10983349D01*
X51677102Y10980507D01*
X51657365Y10960770D01*
X51654885Y10957573D01*
X51647182Y10948553D01*
X51616914Y10916321D01*
X51613095Y10909375D01*
X51613093Y10909372D01*
X51607152Y10898566D01*
X51596301Y10882047D01*
X51583886Y10866041D01*
X51580741Y10858772D01*
X51580738Y10858768D01*
X51566326Y10825463D01*
X51561109Y10814813D01*
X51539805Y10776060D01*
X51537834Y10768385D01*
X51537834Y10768384D01*
X51534767Y10756438D01*
X51528363Y10737734D01*
X51520319Y10719145D01*
X51519080Y10711322D01*
X51519077Y10711312D01*
X51513401Y10675476D01*
X51510995Y10663856D01*
X51500000Y10621030D01*
X51500000Y10600776D01*
X51498449Y10581066D01*
X51495280Y10561057D01*
X51496026Y10553165D01*
X51499441Y10517039D01*
X51500000Y10505181D01*
X51500000Y9159267D01*
X51499473Y9148084D01*
X51497798Y9140591D01*
X51498047Y9132665D01*
X51498047Y9132664D01*
X51499938Y9072514D01*
X51500000Y9068555D01*
X51500000Y9040644D01*
X51500497Y9036710D01*
X51500497Y9036709D01*
X51500505Y9036644D01*
X51501438Y9024807D01*
X51502827Y8980611D01*
X51508478Y8961161D01*
X51512487Y8941800D01*
X51515026Y8921703D01*
X51517945Y8914332D01*
X51517945Y8914330D01*
X51531304Y8880588D01*
X51535149Y8869358D01*
X51545158Y8834905D01*
X51547482Y8826907D01*
X51551515Y8820088D01*
X51551517Y8820083D01*
X51557793Y8809472D01*
X51566488Y8791724D01*
X51573948Y8772883D01*
X51578610Y8766467D01*
X51578610Y8766466D01*
X51599936Y8737113D01*
X51606452Y8727193D01*
X51628958Y8689138D01*
X51643279Y8674817D01*
X51656119Y8659784D01*
X51668028Y8643393D01*
X51696946Y8619470D01*
X51702105Y8615202D01*
X51710884Y8607212D01*
X52011878Y8306218D01*
X52045904Y8243906D01*
X52048092Y8230297D01*
X52050874Y8203832D01*
X52064526Y8073944D01*
X52065458Y8065072D01*
X52124473Y7883444D01*
X52127776Y7877722D01*
X52127777Y7877721D01*
X52219960Y7718056D01*
X52218290Y7717092D01*
X52239037Y7658944D01*
X52222958Y7589793D01*
X52220669Y7586231D01*
X52219960Y7585444D01*
X52197797Y7547056D01*
X52130076Y7429760D01*
X52124473Y7420056D01*
X52065458Y7238428D01*
X52064768Y7231867D01*
X52064768Y7231865D01*
X52049900Y7090404D01*
X52045496Y7048500D01*
X52046186Y7041935D01*
X52063839Y6873980D01*
X52065458Y6858572D01*
X52105119Y6736511D01*
X52108858Y6725003D01*
X52110886Y6654035D01*
X52074223Y6593237D01*
X52010511Y6561911D01*
X51939977Y6570004D01*
X51899930Y6596971D01*
X50454405Y8042496D01*
X50420379Y8104808D01*
X50417500Y8131591D01*
X50417500Y18162000D01*
X50437502Y18230121D01*
X50491158Y18276614D01*
X50543500Y18288000D01*
X58549500Y18288000D01*
X58617621Y18267998D01*
G37*
%TD.AperFunction*%
%TD*%
M02*
