%TF.GenerationSoftware,KiCad,Pcbnew,(6.0.10)*%
%TF.CreationDate,2023-02-13T19:28:03+09:00*%
%TF.ProjectId,joystick_74hc165_input_jst,6a6f7973-7469-4636-9b5f-373468633136,1*%
%TF.SameCoordinates,PX6f92990PY6f3bc80*%
%TF.FileFunction,Legend,Bot*%
%TF.FilePolarity,Positive*%
%FSLAX46Y46*%
G04 Gerber Fmt 4.6, Leading zero omitted, Abs format (unit mm)*
G04 Created by KiCad (PCBNEW (6.0.10)) date 2023-02-13 19:28:03*
%MOMM*%
%LPD*%
G01*
G04 APERTURE LIST*
G04 Aperture macros list*
%AMRoundRect*
0 Rectangle with rounded corners*
0 $1 Rounding radius*
0 $2 $3 $4 $5 $6 $7 $8 $9 X,Y pos of 4 corners*
0 Add a 4 corners polygon primitive as box body*
4,1,4,$2,$3,$4,$5,$6,$7,$8,$9,$2,$3,0*
0 Add four circle primitives for the rounded corners*
1,1,$1+$1,$2,$3*
1,1,$1+$1,$4,$5*
1,1,$1+$1,$6,$7*
1,1,$1+$1,$8,$9*
0 Add four rect primitives between the rounded corners*
20,1,$1+$1,$2,$3,$4,$5,0*
20,1,$1+$1,$4,$5,$6,$7,0*
20,1,$1+$1,$6,$7,$8,$9,0*
20,1,$1+$1,$8,$9,$2,$3,0*%
G04 Aperture macros list end*
%ADD10C,0.100000*%
%ADD11C,0.150000*%
%ADD12R,1.700000X1.700000*%
%ADD13O,1.700000X1.700000*%
%ADD14RoundRect,0.250000X-0.750000X0.600000X-0.750000X-0.600000X0.750000X-0.600000X0.750000X0.600000X0*%
%ADD15O,2.000000X1.700000*%
%ADD16RoundRect,0.250000X0.600000X0.725000X-0.600000X0.725000X-0.600000X-0.725000X0.600000X-0.725000X0*%
%ADD17O,1.700000X1.950000*%
G04 APERTURE END LIST*
D10*
X7877333Y1715334D02*
X8110666Y2048667D01*
X8277333Y1715334D02*
X8277333Y2415334D01*
X8010666Y2415334D01*
X7944000Y2382000D01*
X7910666Y2348667D01*
X7877333Y2282000D01*
X7877333Y2182000D01*
X7910666Y2115334D01*
X7944000Y2082000D01*
X8010666Y2048667D01*
X8277333Y2048667D01*
X7310666Y1748667D02*
X7377333Y1715334D01*
X7510666Y1715334D01*
X7577333Y1748667D01*
X7610666Y1815334D01*
X7610666Y2082000D01*
X7577333Y2148667D01*
X7510666Y2182000D01*
X7377333Y2182000D01*
X7310666Y2148667D01*
X7277333Y2082000D01*
X7277333Y2015334D01*
X7610666Y1948667D01*
X7044000Y2182000D02*
X6877333Y1715334D01*
X6710666Y2182000D01*
X6444000Y1782000D02*
X6410666Y1748667D01*
X6444000Y1715334D01*
X6477333Y1748667D01*
X6444000Y1782000D01*
X6444000Y1715334D01*
X5744000Y1715334D02*
X6144000Y1715334D01*
X5944000Y1715334D02*
X5944000Y2415334D01*
X6010666Y2315334D01*
X6077333Y2248667D01*
X6144000Y2215334D01*
D11*
X24779952Y2119334D02*
X24303761Y2119334D01*
X24875190Y1833620D02*
X24541857Y2833620D01*
X24208523Y1833620D01*
X23875190Y1833620D02*
X23875190Y2500286D01*
X23875190Y2405048D02*
X23827571Y2452667D01*
X23732333Y2500286D01*
X23589476Y2500286D01*
X23494238Y2452667D01*
X23446619Y2357429D01*
X23446619Y1833620D01*
X23446619Y2357429D02*
X23399000Y2452667D01*
X23303761Y2500286D01*
X23160904Y2500286D01*
X23065666Y2452667D01*
X23018047Y2357429D01*
X23018047Y1833620D01*
X22399000Y1833620D02*
X22494238Y1881239D01*
X22541857Y1928858D01*
X22589476Y2024096D01*
X22589476Y2309810D01*
X22541857Y2405048D01*
X22494238Y2452667D01*
X22399000Y2500286D01*
X22256142Y2500286D01*
X22160904Y2452667D01*
X22113285Y2405048D01*
X22065666Y2309810D01*
X22065666Y2024096D01*
X22113285Y1928858D01*
X22160904Y1881239D01*
X22256142Y1833620D01*
X22399000Y1833620D01*
X21684714Y1881239D02*
X21589476Y1833620D01*
X21399000Y1833620D01*
X21303761Y1881239D01*
X21256142Y1976477D01*
X21256142Y2024096D01*
X21303761Y2119334D01*
X21399000Y2166953D01*
X21541857Y2166953D01*
X21637095Y2214572D01*
X21684714Y2309810D01*
X21684714Y2357429D01*
X21637095Y2452667D01*
X21541857Y2500286D01*
X21399000Y2500286D01*
X21303761Y2452667D01*
X19779952Y2833620D02*
X19779952Y2119334D01*
X19827571Y1976477D01*
X19922809Y1881239D01*
X20065666Y1833620D01*
X20160904Y1833620D01*
X19160904Y1833620D02*
X19256142Y1881239D01*
X19303761Y1928858D01*
X19351380Y2024096D01*
X19351380Y2309810D01*
X19303761Y2405048D01*
X19256142Y2452667D01*
X19160904Y2500286D01*
X19018047Y2500286D01*
X18922809Y2452667D01*
X18875190Y2405048D01*
X18827571Y2309810D01*
X18827571Y2024096D01*
X18875190Y1928858D01*
X18922809Y1881239D01*
X19018047Y1833620D01*
X19160904Y1833620D01*
X18494238Y2500286D02*
X18256142Y1833620D01*
X18018047Y2500286D02*
X18256142Y1833620D01*
X18351380Y1595524D01*
X18399000Y1547905D01*
X18494238Y1500286D01*
X17684714Y1881239D02*
X17589476Y1833620D01*
X17399000Y1833620D01*
X17303761Y1881239D01*
X17256142Y1976477D01*
X17256142Y2024096D01*
X17303761Y2119334D01*
X17399000Y2166953D01*
X17541857Y2166953D01*
X17637095Y2214572D01*
X17684714Y2309810D01*
X17684714Y2357429D01*
X17637095Y2452667D01*
X17541857Y2500286D01*
X17399000Y2500286D01*
X17303761Y2452667D01*
X16970428Y2500286D02*
X16589476Y2500286D01*
X16827571Y2833620D02*
X16827571Y1976477D01*
X16779952Y1881239D01*
X16684714Y1833620D01*
X16589476Y1833620D01*
X16256142Y1833620D02*
X16256142Y2500286D01*
X16256142Y2833620D02*
X16303761Y2786000D01*
X16256142Y2738381D01*
X16208523Y2786000D01*
X16256142Y2833620D01*
X16256142Y2738381D01*
X15351380Y1881239D02*
X15446619Y1833620D01*
X15637095Y1833620D01*
X15732333Y1881239D01*
X15779952Y1928858D01*
X15827571Y2024096D01*
X15827571Y2309810D01*
X15779952Y2405048D01*
X15732333Y2452667D01*
X15637095Y2500286D01*
X15446619Y2500286D01*
X15351380Y2452667D01*
X14922809Y1833620D02*
X14922809Y2833620D01*
X14827571Y2214572D02*
X14541857Y1833620D01*
X14541857Y2500286D02*
X14922809Y2119334D01*
X13351380Y1833620D02*
X13351380Y2833620D01*
X12875190Y2500286D02*
X12875190Y1833620D01*
X12875190Y2405048D02*
X12827571Y2452667D01*
X12732333Y2500286D01*
X12589476Y2500286D01*
X12494238Y2452667D01*
X12446619Y2357429D01*
X12446619Y1833620D01*
X11970428Y2500286D02*
X11970428Y1500286D01*
X11970428Y2452667D02*
X11875190Y2500286D01*
X11684714Y2500286D01*
X11589476Y2452667D01*
X11541857Y2405048D01*
X11494238Y2309810D01*
X11494238Y2024096D01*
X11541857Y1928858D01*
X11589476Y1881239D01*
X11684714Y1833620D01*
X11875190Y1833620D01*
X11970428Y1881239D01*
X10637095Y2500286D02*
X10637095Y1833620D01*
X11065666Y2500286D02*
X11065666Y1976477D01*
X11018047Y1881239D01*
X10922809Y1833620D01*
X10779952Y1833620D01*
X10684714Y1881239D01*
X10637095Y1928858D01*
X10303761Y2500286D02*
X9922809Y2500286D01*
X10160904Y2833620D02*
X10160904Y1976477D01*
X10113285Y1881239D01*
X10018047Y1833620D01*
X9922809Y1833620D01*
%LPC*%
D12*
%TO.C,OUT1*%
X68199000Y15240000D03*
D13*
X68199000Y12700000D03*
X68199000Y10160000D03*
X68199000Y7620000D03*
X68199000Y5080000D03*
%TD*%
D14*
%TO.C,J22*%
X52070000Y23876000D03*
D15*
X52070000Y21376000D03*
%TD*%
D14*
%TO.C,J23*%
X45212000Y23876000D03*
D15*
X45212000Y21376000D03*
%TD*%
D14*
%TO.C,J24*%
X38354000Y23876000D03*
D15*
X38354000Y21376000D03*
%TD*%
D14*
%TO.C,J25*%
X31496000Y23876000D03*
D15*
X31496000Y21376000D03*
%TD*%
D14*
%TO.C,J26*%
X24638000Y23876000D03*
D15*
X24638000Y21376000D03*
%TD*%
D14*
%TO.C,J27*%
X17780000Y23876000D03*
D15*
X17780000Y21376000D03*
%TD*%
D14*
%TO.C,J28*%
X10922000Y23876000D03*
D15*
X10922000Y21376000D03*
%TD*%
D14*
%TO.C,J29*%
X4064000Y23876000D03*
D15*
X4064000Y21376000D03*
%TD*%
D14*
%TO.C,J16*%
X24638000Y32512000D03*
D15*
X24638000Y30012000D03*
%TD*%
D14*
%TO.C,J15*%
X31496000Y32512000D03*
D15*
X31496000Y30012000D03*
%TD*%
D14*
%TO.C,J14*%
X38354000Y32512000D03*
D15*
X38354000Y30012000D03*
%TD*%
D14*
%TO.C,J18*%
X10922000Y32512000D03*
D15*
X10922000Y30012000D03*
%TD*%
D14*
%TO.C,J19*%
X4064000Y32512000D03*
D15*
X4064000Y30012000D03*
%TD*%
D14*
%TO.C,J17*%
X17780000Y32512000D03*
D15*
X17780000Y30012000D03*
%TD*%
D14*
%TO.C,J13*%
X45212000Y32512000D03*
D15*
X45212000Y30012000D03*
%TD*%
D16*
%TO.C,J11*%
X68072000Y31496000D03*
D17*
X65572000Y31496000D03*
X63072000Y31496000D03*
X60572000Y31496000D03*
X58072000Y31496000D03*
%TD*%
D14*
%TO.C,J12*%
X52070000Y32512000D03*
D15*
X52070000Y30012000D03*
%TD*%
D16*
%TO.C,J21*%
X68072000Y22860000D03*
D17*
X65572000Y22860000D03*
X63072000Y22860000D03*
X60572000Y22860000D03*
X58072000Y22860000D03*
%TD*%
D12*
%TO.C,IN1*%
X3175000Y15113000D03*
D13*
X3175000Y12573000D03*
X3175000Y10033000D03*
X3175000Y7493000D03*
X3175000Y4953000D03*
%TD*%
M02*
