%TF.GenerationSoftware,KiCad,Pcbnew,7.0.1*%
%TF.CreationDate,2023-05-21T17:20:38+09:00*%
%TF.ProjectId,joystick_74hc165_input_jst,6a6f7973-7469-4636-9b5f-373468633136,1*%
%TF.SameCoordinates,PX6f92990PY6f3bc80*%
%TF.FileFunction,Soldermask,Top*%
%TF.FilePolarity,Negative*%
%FSLAX46Y46*%
G04 Gerber Fmt 4.6, Leading zero omitted, Abs format (unit mm)*
G04 Created by KiCad (PCBNEW 7.0.1) date 2023-05-21 17:20:38*
%MOMM*%
%LPD*%
G01*
G04 APERTURE LIST*
G04 Aperture macros list*
%AMRoundRect*
0 Rectangle with rounded corners*
0 $1 Rounding radius*
0 $2 $3 $4 $5 $6 $7 $8 $9 X,Y pos of 4 corners*
0 Add a 4 corners polygon primitive as box body*
4,1,4,$2,$3,$4,$5,$6,$7,$8,$9,$2,$3,0*
0 Add four circle primitives for the rounded corners*
1,1,$1+$1,$2,$3*
1,1,$1+$1,$4,$5*
1,1,$1+$1,$6,$7*
1,1,$1+$1,$8,$9*
0 Add four rect primitives between the rounded corners*
20,1,$1+$1,$2,$3,$4,$5,0*
20,1,$1+$1,$4,$5,$6,$7,0*
20,1,$1+$1,$6,$7,$8,$9,0*
20,1,$1+$1,$8,$9,$2,$3,0*%
%AMFreePoly0*
4,1,19,0.500000,-0.750000,0.000000,-0.750000,0.000000,-0.744911,-0.071157,-0.744911,-0.207708,-0.704816,-0.327430,-0.627875,-0.420627,-0.520320,-0.479746,-0.390866,-0.500000,-0.250000,-0.500000,0.250000,-0.479746,0.390866,-0.420627,0.520320,-0.327430,0.627875,-0.207708,0.704816,-0.071157,0.744911,0.000000,0.744911,0.000000,0.750000,0.500000,0.750000,0.500000,-0.750000,0.500000,-0.750000,
$1*%
%AMFreePoly1*
4,1,19,0.000000,0.744911,0.071157,0.744911,0.207708,0.704816,0.327430,0.627875,0.420627,0.520320,0.479746,0.390866,0.500000,0.250000,0.500000,-0.250000,0.479746,-0.390866,0.420627,-0.520320,0.327430,-0.627875,0.207708,-0.704816,0.071157,-0.744911,0.000000,-0.744911,0.000000,-0.750000,-0.500000,-0.750000,-0.500000,0.750000,0.000000,0.750000,0.000000,0.744911,0.000000,0.744911,
$1*%
G04 Aperture macros list end*
%ADD10R,1.700000X1.700000*%
%ADD11O,1.700000X1.700000*%
%ADD12R,0.900000X0.400000*%
%ADD13RoundRect,0.250000X-0.337500X-0.475000X0.337500X-0.475000X0.337500X0.475000X-0.337500X0.475000X0*%
%ADD14RoundRect,0.150000X-0.825000X-0.150000X0.825000X-0.150000X0.825000X0.150000X-0.825000X0.150000X0*%
%ADD15RoundRect,0.250000X-0.750000X0.600000X-0.750000X-0.600000X0.750000X-0.600000X0.750000X0.600000X0*%
%ADD16O,2.000000X1.700000*%
%ADD17RoundRect,0.250000X0.600000X0.725000X-0.600000X0.725000X-0.600000X-0.725000X0.600000X-0.725000X0*%
%ADD18O,1.700000X1.950000*%
%ADD19R,1.000000X1.500000*%
%ADD20FreePoly0,0.000000*%
%ADD21FreePoly1,0.000000*%
G04 APERTURE END LIST*
D10*
%TO.C,OUT1*%
X68199000Y15240000D03*
D11*
X68199000Y12700000D03*
X68199000Y10160000D03*
X68199000Y7620000D03*
X68199000Y5080000D03*
%TD*%
D12*
%TO.C,RN2*%
X64096000Y6420000D03*
X64096000Y7220000D03*
X64096000Y8020000D03*
X64096000Y8820000D03*
X62396000Y8820000D03*
X62396000Y8020000D03*
X62396000Y7220000D03*
X62396000Y6420000D03*
%TD*%
%TO.C,RN1*%
X50077000Y8820000D03*
X50077000Y8020000D03*
X50077000Y7220000D03*
X50077000Y6420000D03*
X51777000Y6420000D03*
X51777000Y7220000D03*
X51777000Y8020000D03*
X51777000Y8820000D03*
%TD*%
%TO.C,RN4*%
X45935000Y6547000D03*
X45935000Y7347000D03*
X45935000Y8147000D03*
X45935000Y8947000D03*
X44235000Y8947000D03*
X44235000Y8147000D03*
X44235000Y7347000D03*
X44235000Y6547000D03*
%TD*%
%TO.C,RN5*%
X13945500Y8947000D03*
X13945500Y8147000D03*
X13945500Y7347000D03*
X13945500Y6547000D03*
X15645500Y6547000D03*
X15645500Y7347000D03*
X15645500Y8147000D03*
X15645500Y8947000D03*
%TD*%
%TO.C,RN6*%
X27901000Y6420000D03*
X27901000Y7220000D03*
X27901000Y8020000D03*
X27901000Y8820000D03*
X26201000Y8820000D03*
X26201000Y8020000D03*
X26201000Y7220000D03*
X26201000Y6420000D03*
%TD*%
%TO.C,RN3*%
X31916000Y8820000D03*
X31916000Y8020000D03*
X31916000Y7220000D03*
X31916000Y6420000D03*
X33616000Y6420000D03*
X33616000Y7220000D03*
X33616000Y8020000D03*
X33616000Y8820000D03*
%TD*%
D13*
%TO.C,C1*%
X61700500Y12700000D03*
X63775500Y12700000D03*
%TD*%
D14*
%TO.C,74HC165_1*%
X54548000Y12192000D03*
X54548000Y10922000D03*
X54548000Y9652000D03*
X54548000Y8382000D03*
X54548000Y7112000D03*
X54548000Y5842000D03*
X54548000Y4572000D03*
X54548000Y3302000D03*
X59498000Y3302000D03*
X59498000Y4572000D03*
X59498000Y5842000D03*
X59498000Y7112000D03*
X59498000Y8382000D03*
X59498000Y9652000D03*
X59498000Y10922000D03*
X59498000Y12192000D03*
%TD*%
%TO.C,74HC165_2*%
X36450500Y12128500D03*
X36450500Y10858500D03*
X36450500Y9588500D03*
X36450500Y8318500D03*
X36450500Y7048500D03*
X36450500Y5778500D03*
X36450500Y4508500D03*
X36450500Y3238500D03*
X41400500Y3238500D03*
X41400500Y4508500D03*
X41400500Y5778500D03*
X41400500Y7048500D03*
X41400500Y8318500D03*
X41400500Y9588500D03*
X41400500Y10858500D03*
X41400500Y12128500D03*
%TD*%
%TO.C,74HC165_3*%
X18416500Y12128500D03*
X18416500Y10858500D03*
X18416500Y9588500D03*
X18416500Y8318500D03*
X18416500Y7048500D03*
X18416500Y5778500D03*
X18416500Y4508500D03*
X18416500Y3238500D03*
X23366500Y3238500D03*
X23366500Y4508500D03*
X23366500Y5778500D03*
X23366500Y7048500D03*
X23366500Y8318500D03*
X23366500Y9588500D03*
X23366500Y10858500D03*
X23366500Y12128500D03*
%TD*%
D13*
%TO.C,C2*%
X43539500Y12700000D03*
X45614500Y12700000D03*
%TD*%
%TO.C,C3*%
X25505500Y12700000D03*
X27580500Y12700000D03*
%TD*%
D15*
%TO.C,J22*%
X52070000Y23876000D03*
D16*
X52070000Y21376000D03*
%TD*%
D15*
%TO.C,J23*%
X45212000Y23876000D03*
D16*
X45212000Y21376000D03*
%TD*%
D15*
%TO.C,J24*%
X38354000Y23876000D03*
D16*
X38354000Y21376000D03*
%TD*%
D15*
%TO.C,J25*%
X31496000Y23876000D03*
D16*
X31496000Y21376000D03*
%TD*%
D15*
%TO.C,J26*%
X24638000Y23876000D03*
D16*
X24638000Y21376000D03*
%TD*%
D15*
%TO.C,J27*%
X17780000Y23876000D03*
D16*
X17780000Y21376000D03*
%TD*%
D15*
%TO.C,J28*%
X10922000Y23876000D03*
D16*
X10922000Y21376000D03*
%TD*%
D15*
%TO.C,J29*%
X4064000Y23876000D03*
D16*
X4064000Y21376000D03*
%TD*%
D15*
%TO.C,J16*%
X24638000Y32512000D03*
D16*
X24638000Y30012000D03*
%TD*%
D15*
%TO.C,J15*%
X31496000Y32512000D03*
D16*
X31496000Y30012000D03*
%TD*%
D15*
%TO.C,J14*%
X38354000Y32512000D03*
D16*
X38354000Y30012000D03*
%TD*%
D15*
%TO.C,J18*%
X10922000Y32512000D03*
D16*
X10922000Y30012000D03*
%TD*%
D15*
%TO.C,J19*%
X4064000Y32512000D03*
D16*
X4064000Y30012000D03*
%TD*%
D15*
%TO.C,J17*%
X17780000Y32512000D03*
D16*
X17780000Y30012000D03*
%TD*%
D15*
%TO.C,J13*%
X45212000Y32512000D03*
D16*
X45212000Y30012000D03*
%TD*%
D17*
%TO.C,J11*%
X68072000Y31496000D03*
D18*
X65572000Y31496000D03*
X63072000Y31496000D03*
X60572000Y31496000D03*
X58072000Y31496000D03*
%TD*%
D15*
%TO.C,J12*%
X52070000Y32512000D03*
D16*
X52070000Y30012000D03*
%TD*%
D17*
%TO.C,J21*%
X68072000Y22860000D03*
D18*
X65572000Y22860000D03*
X63072000Y22860000D03*
X60572000Y22860000D03*
X58072000Y22860000D03*
%TD*%
D10*
%TO.C,IN1*%
X3175000Y15113000D03*
D11*
X3175000Y12573000D03*
X3175000Y10033000D03*
X3175000Y7493000D03*
X3175000Y4953000D03*
%TD*%
D19*
%TO.C,JP2*%
X10444000Y4826000D03*
X9144000Y4826000D03*
X7844000Y4826000D03*
%TD*%
%TO.C,JP1*%
X10444000Y8940800D03*
X9144000Y8940800D03*
X7844000Y8940800D03*
%TD*%
D20*
%TO.C,JP5*%
X13167600Y17119600D03*
D21*
X14467600Y17119600D03*
%TD*%
D20*
%TO.C,JP6*%
X16520400Y17119600D03*
D21*
X17820400Y17119600D03*
%TD*%
D20*
%TO.C,JP4*%
X9814800Y17119600D03*
D21*
X11114800Y17119600D03*
%TD*%
D20*
%TO.C,JP3*%
X6462000Y17119600D03*
D21*
X7762000Y17119600D03*
%TD*%
M02*
