%TF.GenerationSoftware,KiCad,Pcbnew,7.0.1*%
%TF.CreationDate,2023-05-21T17:20:38+09:00*%
%TF.ProjectId,joystick_74hc165_input_jst,6a6f7973-7469-4636-9b5f-373468633136,1*%
%TF.SameCoordinates,PX6f92990PY6f3bc80*%
%TF.FileFunction,Legend,Top*%
%TF.FilePolarity,Positive*%
%FSLAX46Y46*%
G04 Gerber Fmt 4.6, Leading zero omitted, Abs format (unit mm)*
G04 Created by KiCad (PCBNEW 7.0.1) date 2023-05-21 17:20:38*
%MOMM*%
%LPD*%
G01*
G04 APERTURE LIST*
G04 Aperture macros list*
%AMRoundRect*
0 Rectangle with rounded corners*
0 $1 Rounding radius*
0 $2 $3 $4 $5 $6 $7 $8 $9 X,Y pos of 4 corners*
0 Add a 4 corners polygon primitive as box body*
4,1,4,$2,$3,$4,$5,$6,$7,$8,$9,$2,$3,0*
0 Add four circle primitives for the rounded corners*
1,1,$1+$1,$2,$3*
1,1,$1+$1,$4,$5*
1,1,$1+$1,$6,$7*
1,1,$1+$1,$8,$9*
0 Add four rect primitives between the rounded corners*
20,1,$1+$1,$2,$3,$4,$5,0*
20,1,$1+$1,$4,$5,$6,$7,0*
20,1,$1+$1,$6,$7,$8,$9,0*
20,1,$1+$1,$8,$9,$2,$3,0*%
%AMFreePoly0*
4,1,19,0.500000,-0.750000,0.000000,-0.750000,0.000000,-0.744911,-0.071157,-0.744911,-0.207708,-0.704816,-0.327430,-0.627875,-0.420627,-0.520320,-0.479746,-0.390866,-0.500000,-0.250000,-0.500000,0.250000,-0.479746,0.390866,-0.420627,0.520320,-0.327430,0.627875,-0.207708,0.704816,-0.071157,0.744911,0.000000,0.744911,0.000000,0.750000,0.500000,0.750000,0.500000,-0.750000,0.500000,-0.750000,
$1*%
%AMFreePoly1*
4,1,19,0.000000,0.744911,0.071157,0.744911,0.207708,0.704816,0.327430,0.627875,0.420627,0.520320,0.479746,0.390866,0.500000,0.250000,0.500000,-0.250000,0.479746,-0.390866,0.420627,-0.520320,0.327430,-0.627875,0.207708,-0.704816,0.071157,-0.744911,0.000000,-0.744911,0.000000,-0.750000,-0.500000,-0.750000,-0.500000,0.750000,0.000000,0.750000,0.000000,0.744911,0.000000,0.744911,
$1*%
G04 Aperture macros list end*
%ADD10C,0.150000*%
%ADD11C,0.100000*%
%ADD12C,0.200000*%
%ADD13C,0.120000*%
%ADD14R,1.700000X1.700000*%
%ADD15O,1.700000X1.700000*%
%ADD16R,0.900000X0.400000*%
%ADD17RoundRect,0.250000X-0.337500X-0.475000X0.337500X-0.475000X0.337500X0.475000X-0.337500X0.475000X0*%
%ADD18RoundRect,0.150000X-0.825000X-0.150000X0.825000X-0.150000X0.825000X0.150000X-0.825000X0.150000X0*%
%ADD19RoundRect,0.250000X-0.750000X0.600000X-0.750000X-0.600000X0.750000X-0.600000X0.750000X0.600000X0*%
%ADD20O,2.000000X1.700000*%
%ADD21RoundRect,0.250000X0.600000X0.725000X-0.600000X0.725000X-0.600000X-0.725000X0.600000X-0.725000X0*%
%ADD22O,1.700000X1.950000*%
%ADD23R,1.000000X1.500000*%
%ADD24FreePoly0,0.000000*%
%ADD25FreePoly1,0.000000*%
G04 APERTURE END LIST*
D10*
X32673895Y17191181D02*
X32673895Y18191181D01*
X33102466Y17191181D02*
X33102466Y17714991D01*
X33102466Y17714991D02*
X33054847Y17810229D01*
X33054847Y17810229D02*
X32959609Y17857848D01*
X32959609Y17857848D02*
X32816752Y17857848D01*
X32816752Y17857848D02*
X32721514Y17810229D01*
X32721514Y17810229D02*
X32673895Y17762610D01*
X33435800Y17857848D02*
X33816752Y17857848D01*
X33578657Y18191181D02*
X33578657Y17334039D01*
X33578657Y17334039D02*
X33626276Y17238800D01*
X33626276Y17238800D02*
X33721514Y17191181D01*
X33721514Y17191181D02*
X33816752Y17191181D01*
X34007229Y17857848D02*
X34388181Y17857848D01*
X34150086Y18191181D02*
X34150086Y17334039D01*
X34150086Y17334039D02*
X34197705Y17238800D01*
X34197705Y17238800D02*
X34292943Y17191181D01*
X34292943Y17191181D02*
X34388181Y17191181D01*
X34721515Y17857848D02*
X34721515Y16857848D01*
X34721515Y17810229D02*
X34816753Y17857848D01*
X34816753Y17857848D02*
X35007229Y17857848D01*
X35007229Y17857848D02*
X35102467Y17810229D01*
X35102467Y17810229D02*
X35150086Y17762610D01*
X35150086Y17762610D02*
X35197705Y17667372D01*
X35197705Y17667372D02*
X35197705Y17381658D01*
X35197705Y17381658D02*
X35150086Y17286420D01*
X35150086Y17286420D02*
X35102467Y17238800D01*
X35102467Y17238800D02*
X35007229Y17191181D01*
X35007229Y17191181D02*
X34816753Y17191181D01*
X34816753Y17191181D02*
X34721515Y17238800D01*
X35578658Y17238800D02*
X35673896Y17191181D01*
X35673896Y17191181D02*
X35864372Y17191181D01*
X35864372Y17191181D02*
X35959610Y17238800D01*
X35959610Y17238800D02*
X36007229Y17334039D01*
X36007229Y17334039D02*
X36007229Y17381658D01*
X36007229Y17381658D02*
X35959610Y17476896D01*
X35959610Y17476896D02*
X35864372Y17524515D01*
X35864372Y17524515D02*
X35721515Y17524515D01*
X35721515Y17524515D02*
X35626277Y17572134D01*
X35626277Y17572134D02*
X35578658Y17667372D01*
X35578658Y17667372D02*
X35578658Y17714991D01*
X35578658Y17714991D02*
X35626277Y17810229D01*
X35626277Y17810229D02*
X35721515Y17857848D01*
X35721515Y17857848D02*
X35864372Y17857848D01*
X35864372Y17857848D02*
X35959610Y17810229D01*
X36435801Y17286420D02*
X36483420Y17238800D01*
X36483420Y17238800D02*
X36435801Y17191181D01*
X36435801Y17191181D02*
X36388182Y17238800D01*
X36388182Y17238800D02*
X36435801Y17286420D01*
X36435801Y17286420D02*
X36435801Y17191181D01*
X36435801Y17810229D02*
X36483420Y17762610D01*
X36483420Y17762610D02*
X36435801Y17714991D01*
X36435801Y17714991D02*
X36388182Y17762610D01*
X36388182Y17762610D02*
X36435801Y17810229D01*
X36435801Y17810229D02*
X36435801Y17714991D01*
X37626276Y18238800D02*
X36769134Y16953086D01*
X38673895Y18238800D02*
X37816753Y16953086D01*
X39435800Y17857848D02*
X39435800Y17048324D01*
X39435800Y17048324D02*
X39388181Y16953086D01*
X39388181Y16953086D02*
X39340562Y16905467D01*
X39340562Y16905467D02*
X39245324Y16857848D01*
X39245324Y16857848D02*
X39102467Y16857848D01*
X39102467Y16857848D02*
X39007229Y16905467D01*
X39435800Y17238800D02*
X39340562Y17191181D01*
X39340562Y17191181D02*
X39150086Y17191181D01*
X39150086Y17191181D02*
X39054848Y17238800D01*
X39054848Y17238800D02*
X39007229Y17286420D01*
X39007229Y17286420D02*
X38959610Y17381658D01*
X38959610Y17381658D02*
X38959610Y17667372D01*
X38959610Y17667372D02*
X39007229Y17762610D01*
X39007229Y17762610D02*
X39054848Y17810229D01*
X39054848Y17810229D02*
X39150086Y17857848D01*
X39150086Y17857848D02*
X39340562Y17857848D01*
X39340562Y17857848D02*
X39435800Y17810229D01*
X39911991Y17191181D02*
X39911991Y17857848D01*
X39911991Y18191181D02*
X39864372Y18143562D01*
X39864372Y18143562D02*
X39911991Y18095943D01*
X39911991Y18095943D02*
X39959610Y18143562D01*
X39959610Y18143562D02*
X39911991Y18191181D01*
X39911991Y18191181D02*
X39911991Y18095943D01*
X40245324Y17857848D02*
X40626276Y17857848D01*
X40388181Y18191181D02*
X40388181Y17334039D01*
X40388181Y17334039D02*
X40435800Y17238800D01*
X40435800Y17238800D02*
X40531038Y17191181D01*
X40531038Y17191181D02*
X40626276Y17191181D01*
X40959610Y17191181D02*
X40959610Y18191181D01*
X41388181Y17191181D02*
X41388181Y17714991D01*
X41388181Y17714991D02*
X41340562Y17810229D01*
X41340562Y17810229D02*
X41245324Y17857848D01*
X41245324Y17857848D02*
X41102467Y17857848D01*
X41102467Y17857848D02*
X41007229Y17810229D01*
X41007229Y17810229D02*
X40959610Y17762610D01*
X42292943Y17857848D02*
X42292943Y17191181D01*
X41864372Y17857848D02*
X41864372Y17334039D01*
X41864372Y17334039D02*
X41911991Y17238800D01*
X41911991Y17238800D02*
X42007229Y17191181D01*
X42007229Y17191181D02*
X42150086Y17191181D01*
X42150086Y17191181D02*
X42245324Y17238800D01*
X42245324Y17238800D02*
X42292943Y17286420D01*
X42769134Y17191181D02*
X42769134Y18191181D01*
X42769134Y17810229D02*
X42864372Y17857848D01*
X42864372Y17857848D02*
X43054848Y17857848D01*
X43054848Y17857848D02*
X43150086Y17810229D01*
X43150086Y17810229D02*
X43197705Y17762610D01*
X43197705Y17762610D02*
X43245324Y17667372D01*
X43245324Y17667372D02*
X43245324Y17381658D01*
X43245324Y17381658D02*
X43197705Y17286420D01*
X43197705Y17286420D02*
X43150086Y17238800D01*
X43150086Y17238800D02*
X43054848Y17191181D01*
X43054848Y17191181D02*
X42864372Y17191181D01*
X42864372Y17191181D02*
X42769134Y17238800D01*
X43673896Y17286420D02*
X43721515Y17238800D01*
X43721515Y17238800D02*
X43673896Y17191181D01*
X43673896Y17191181D02*
X43626277Y17238800D01*
X43626277Y17238800D02*
X43673896Y17286420D01*
X43673896Y17286420D02*
X43673896Y17191181D01*
X44578657Y17238800D02*
X44483419Y17191181D01*
X44483419Y17191181D02*
X44292943Y17191181D01*
X44292943Y17191181D02*
X44197705Y17238800D01*
X44197705Y17238800D02*
X44150086Y17286420D01*
X44150086Y17286420D02*
X44102467Y17381658D01*
X44102467Y17381658D02*
X44102467Y17667372D01*
X44102467Y17667372D02*
X44150086Y17762610D01*
X44150086Y17762610D02*
X44197705Y17810229D01*
X44197705Y17810229D02*
X44292943Y17857848D01*
X44292943Y17857848D02*
X44483419Y17857848D01*
X44483419Y17857848D02*
X44578657Y17810229D01*
X45150086Y17191181D02*
X45054848Y17238800D01*
X45054848Y17238800D02*
X45007229Y17286420D01*
X45007229Y17286420D02*
X44959610Y17381658D01*
X44959610Y17381658D02*
X44959610Y17667372D01*
X44959610Y17667372D02*
X45007229Y17762610D01*
X45007229Y17762610D02*
X45054848Y17810229D01*
X45054848Y17810229D02*
X45150086Y17857848D01*
X45150086Y17857848D02*
X45292943Y17857848D01*
X45292943Y17857848D02*
X45388181Y17810229D01*
X45388181Y17810229D02*
X45435800Y17762610D01*
X45435800Y17762610D02*
X45483419Y17667372D01*
X45483419Y17667372D02*
X45483419Y17381658D01*
X45483419Y17381658D02*
X45435800Y17286420D01*
X45435800Y17286420D02*
X45388181Y17238800D01*
X45388181Y17238800D02*
X45292943Y17191181D01*
X45292943Y17191181D02*
X45150086Y17191181D01*
X45911991Y17191181D02*
X45911991Y17857848D01*
X45911991Y17762610D02*
X45959610Y17810229D01*
X45959610Y17810229D02*
X46054848Y17857848D01*
X46054848Y17857848D02*
X46197705Y17857848D01*
X46197705Y17857848D02*
X46292943Y17810229D01*
X46292943Y17810229D02*
X46340562Y17714991D01*
X46340562Y17714991D02*
X46340562Y17191181D01*
X46340562Y17714991D02*
X46388181Y17810229D01*
X46388181Y17810229D02*
X46483419Y17857848D01*
X46483419Y17857848D02*
X46626276Y17857848D01*
X46626276Y17857848D02*
X46721515Y17810229D01*
X46721515Y17810229D02*
X46769134Y17714991D01*
X46769134Y17714991D02*
X46769134Y17191181D01*
X47959609Y18238800D02*
X47102467Y16953086D01*
X48721514Y17191181D02*
X48721514Y17714991D01*
X48721514Y17714991D02*
X48673895Y17810229D01*
X48673895Y17810229D02*
X48578657Y17857848D01*
X48578657Y17857848D02*
X48388181Y17857848D01*
X48388181Y17857848D02*
X48292943Y17810229D01*
X48721514Y17238800D02*
X48626276Y17191181D01*
X48626276Y17191181D02*
X48388181Y17191181D01*
X48388181Y17191181D02*
X48292943Y17238800D01*
X48292943Y17238800D02*
X48245324Y17334039D01*
X48245324Y17334039D02*
X48245324Y17429277D01*
X48245324Y17429277D02*
X48292943Y17524515D01*
X48292943Y17524515D02*
X48388181Y17572134D01*
X48388181Y17572134D02*
X48626276Y17572134D01*
X48626276Y17572134D02*
X48721514Y17619753D01*
X49197705Y17191181D02*
X49197705Y17857848D01*
X49197705Y17762610D02*
X49245324Y17810229D01*
X49245324Y17810229D02*
X49340562Y17857848D01*
X49340562Y17857848D02*
X49483419Y17857848D01*
X49483419Y17857848D02*
X49578657Y17810229D01*
X49578657Y17810229D02*
X49626276Y17714991D01*
X49626276Y17714991D02*
X49626276Y17191181D01*
X49626276Y17714991D02*
X49673895Y17810229D01*
X49673895Y17810229D02*
X49769133Y17857848D01*
X49769133Y17857848D02*
X49911990Y17857848D01*
X49911990Y17857848D02*
X50007229Y17810229D01*
X50007229Y17810229D02*
X50054848Y17714991D01*
X50054848Y17714991D02*
X50054848Y17191181D01*
X50673895Y17191181D02*
X50578657Y17238800D01*
X50578657Y17238800D02*
X50531038Y17286420D01*
X50531038Y17286420D02*
X50483419Y17381658D01*
X50483419Y17381658D02*
X50483419Y17667372D01*
X50483419Y17667372D02*
X50531038Y17762610D01*
X50531038Y17762610D02*
X50578657Y17810229D01*
X50578657Y17810229D02*
X50673895Y17857848D01*
X50673895Y17857848D02*
X50816752Y17857848D01*
X50816752Y17857848D02*
X50911990Y17810229D01*
X50911990Y17810229D02*
X50959609Y17762610D01*
X50959609Y17762610D02*
X51007228Y17667372D01*
X51007228Y17667372D02*
X51007228Y17381658D01*
X51007228Y17381658D02*
X50959609Y17286420D01*
X50959609Y17286420D02*
X50911990Y17238800D01*
X50911990Y17238800D02*
X50816752Y17191181D01*
X50816752Y17191181D02*
X50673895Y17191181D01*
X51388181Y17238800D02*
X51483419Y17191181D01*
X51483419Y17191181D02*
X51673895Y17191181D01*
X51673895Y17191181D02*
X51769133Y17238800D01*
X51769133Y17238800D02*
X51816752Y17334039D01*
X51816752Y17334039D02*
X51816752Y17381658D01*
X51816752Y17381658D02*
X51769133Y17476896D01*
X51769133Y17476896D02*
X51673895Y17524515D01*
X51673895Y17524515D02*
X51531038Y17524515D01*
X51531038Y17524515D02*
X51435800Y17572134D01*
X51435800Y17572134D02*
X51388181Y17667372D01*
X51388181Y17667372D02*
X51388181Y17714991D01*
X51388181Y17714991D02*
X51435800Y17810229D01*
X51435800Y17810229D02*
X51531038Y17857848D01*
X51531038Y17857848D02*
X51673895Y17857848D01*
X51673895Y17857848D02*
X51769133Y17810229D01*
X52673895Y17857848D02*
X52673895Y17191181D01*
X52435800Y18238800D02*
X52197705Y17524515D01*
X52197705Y17524515D02*
X52816752Y17524515D01*
X53150086Y18095943D02*
X53197705Y18143562D01*
X53197705Y18143562D02*
X53292943Y18191181D01*
X53292943Y18191181D02*
X53531038Y18191181D01*
X53531038Y18191181D02*
X53626276Y18143562D01*
X53626276Y18143562D02*
X53673895Y18095943D01*
X53673895Y18095943D02*
X53721514Y18000705D01*
X53721514Y18000705D02*
X53721514Y17905467D01*
X53721514Y17905467D02*
X53673895Y17762610D01*
X53673895Y17762610D02*
X53102467Y17191181D01*
X53102467Y17191181D02*
X53721514Y17191181D01*
X54864371Y18238800D02*
X54007229Y16953086D01*
X55626276Y17191181D02*
X55626276Y17714991D01*
X55626276Y17714991D02*
X55578657Y17810229D01*
X55578657Y17810229D02*
X55483419Y17857848D01*
X55483419Y17857848D02*
X55292943Y17857848D01*
X55292943Y17857848D02*
X55197705Y17810229D01*
X55626276Y17238800D02*
X55531038Y17191181D01*
X55531038Y17191181D02*
X55292943Y17191181D01*
X55292943Y17191181D02*
X55197705Y17238800D01*
X55197705Y17238800D02*
X55150086Y17334039D01*
X55150086Y17334039D02*
X55150086Y17429277D01*
X55150086Y17429277D02*
X55197705Y17524515D01*
X55197705Y17524515D02*
X55292943Y17572134D01*
X55292943Y17572134D02*
X55531038Y17572134D01*
X55531038Y17572134D02*
X55626276Y17619753D01*
X56102467Y17191181D02*
X56102467Y17857848D01*
X56102467Y17762610D02*
X56150086Y17810229D01*
X56150086Y17810229D02*
X56245324Y17857848D01*
X56245324Y17857848D02*
X56388181Y17857848D01*
X56388181Y17857848D02*
X56483419Y17810229D01*
X56483419Y17810229D02*
X56531038Y17714991D01*
X56531038Y17714991D02*
X56531038Y17191181D01*
X56531038Y17714991D02*
X56578657Y17810229D01*
X56578657Y17810229D02*
X56673895Y17857848D01*
X56673895Y17857848D02*
X56816752Y17857848D01*
X56816752Y17857848D02*
X56911991Y17810229D01*
X56911991Y17810229D02*
X56959610Y17714991D01*
X56959610Y17714991D02*
X56959610Y17191181D01*
X57197705Y17095943D02*
X57959609Y17095943D01*
X58197705Y17857848D02*
X58197705Y17000705D01*
X58197705Y17000705D02*
X58150086Y16905467D01*
X58150086Y16905467D02*
X58054848Y16857848D01*
X58054848Y16857848D02*
X58007229Y16857848D01*
X58197705Y18191181D02*
X58150086Y18143562D01*
X58150086Y18143562D02*
X58197705Y18095943D01*
X58197705Y18095943D02*
X58245324Y18143562D01*
X58245324Y18143562D02*
X58197705Y18191181D01*
X58197705Y18191181D02*
X58197705Y18095943D01*
X58816752Y17191181D02*
X58721514Y17238800D01*
X58721514Y17238800D02*
X58673895Y17286420D01*
X58673895Y17286420D02*
X58626276Y17381658D01*
X58626276Y17381658D02*
X58626276Y17667372D01*
X58626276Y17667372D02*
X58673895Y17762610D01*
X58673895Y17762610D02*
X58721514Y17810229D01*
X58721514Y17810229D02*
X58816752Y17857848D01*
X58816752Y17857848D02*
X58959609Y17857848D01*
X58959609Y17857848D02*
X59054847Y17810229D01*
X59054847Y17810229D02*
X59102466Y17762610D01*
X59102466Y17762610D02*
X59150085Y17667372D01*
X59150085Y17667372D02*
X59150085Y17381658D01*
X59150085Y17381658D02*
X59102466Y17286420D01*
X59102466Y17286420D02*
X59054847Y17238800D01*
X59054847Y17238800D02*
X58959609Y17191181D01*
X58959609Y17191181D02*
X58816752Y17191181D01*
X59483419Y17857848D02*
X59721514Y17191181D01*
X59959609Y17857848D02*
X59721514Y17191181D01*
X59721514Y17191181D02*
X59626276Y16953086D01*
X59626276Y16953086D02*
X59578657Y16905467D01*
X59578657Y16905467D02*
X59483419Y16857848D01*
X60340562Y17191181D02*
X60340562Y17857848D01*
X60340562Y18191181D02*
X60292943Y18143562D01*
X60292943Y18143562D02*
X60340562Y18095943D01*
X60340562Y18095943D02*
X60388181Y18143562D01*
X60388181Y18143562D02*
X60340562Y18191181D01*
X60340562Y18191181D02*
X60340562Y18095943D01*
X60816752Y17857848D02*
X60816752Y17191181D01*
X60816752Y17762610D02*
X60864371Y17810229D01*
X60864371Y17810229D02*
X60959609Y17857848D01*
X60959609Y17857848D02*
X61102466Y17857848D01*
X61102466Y17857848D02*
X61197704Y17810229D01*
X61197704Y17810229D02*
X61245323Y17714991D01*
X61245323Y17714991D02*
X61245323Y17191181D01*
D11*
X19431000Y16002000D02*
X19939000Y16002000D01*
X19939000Y15748000D01*
X19431000Y15748000D01*
X19431000Y15494000D01*
X18923000Y15875000D01*
X19431000Y16256000D01*
X19431000Y16002000D01*
G36*
X19431000Y16002000D02*
G01*
X19939000Y16002000D01*
X19939000Y15748000D01*
X19431000Y15748000D01*
X19431000Y15494000D01*
X18923000Y15875000D01*
X19431000Y16256000D01*
X19431000Y16002000D01*
G37*
D12*
X38211094Y36498905D02*
X37734904Y36498905D01*
X38306332Y36784620D02*
X37972999Y35784620D01*
X37972999Y35784620D02*
X37639666Y36784620D01*
X4135476Y36784620D02*
X4468809Y36308429D01*
X4706904Y36784620D02*
X4706904Y35784620D01*
X4706904Y35784620D02*
X4325952Y35784620D01*
X4325952Y35784620D02*
X4230714Y35832239D01*
X4230714Y35832239D02*
X4183095Y35879858D01*
X4183095Y35879858D02*
X4135476Y35975096D01*
X4135476Y35975096D02*
X4135476Y36117953D01*
X4135476Y36117953D02*
X4183095Y36213191D01*
X4183095Y36213191D02*
X4230714Y36260810D01*
X4230714Y36260810D02*
X4325952Y36308429D01*
X4325952Y36308429D02*
X4706904Y36308429D01*
X68460286Y35530620D02*
X68460286Y36340143D01*
X68460286Y36340143D02*
X68412667Y36435381D01*
X68412667Y36435381D02*
X68365048Y36483000D01*
X68365048Y36483000D02*
X68269810Y36530620D01*
X68269810Y36530620D02*
X68079334Y36530620D01*
X68079334Y36530620D02*
X67984096Y36483000D01*
X67984096Y36483000D02*
X67936477Y36435381D01*
X67936477Y36435381D02*
X67888858Y36340143D01*
X67888858Y36340143D02*
X67888858Y35530620D01*
X65888857Y36530620D02*
X65888857Y35530620D01*
X65888857Y35530620D02*
X65650762Y35530620D01*
X65650762Y35530620D02*
X65507905Y35578239D01*
X65507905Y35578239D02*
X65412667Y35673477D01*
X65412667Y35673477D02*
X65365048Y35768715D01*
X65365048Y35768715D02*
X65317429Y35959191D01*
X65317429Y35959191D02*
X65317429Y36102048D01*
X65317429Y36102048D02*
X65365048Y36292524D01*
X65365048Y36292524D02*
X65412667Y36387762D01*
X65412667Y36387762D02*
X65507905Y36483000D01*
X65507905Y36483000D02*
X65650762Y36530620D01*
X65650762Y36530620D02*
X65888857Y36530620D01*
X62793619Y36530620D02*
X63126952Y36054429D01*
X63365047Y36530620D02*
X63365047Y35530620D01*
X63365047Y35530620D02*
X62984095Y35530620D01*
X62984095Y35530620D02*
X62888857Y35578239D01*
X62888857Y35578239D02*
X62841238Y35625858D01*
X62841238Y35625858D02*
X62793619Y35721096D01*
X62793619Y35721096D02*
X62793619Y35863953D01*
X62793619Y35863953D02*
X62841238Y35959191D01*
X62841238Y35959191D02*
X62888857Y36006810D01*
X62888857Y36006810D02*
X62984095Y36054429D01*
X62984095Y36054429D02*
X63365047Y36054429D01*
X60365047Y36530620D02*
X60841237Y36530620D01*
X60841237Y36530620D02*
X60841237Y35530620D01*
X58555522Y36483000D02*
X58412665Y36530620D01*
X58412665Y36530620D02*
X58174570Y36530620D01*
X58174570Y36530620D02*
X58079332Y36483000D01*
X58079332Y36483000D02*
X58031713Y36435381D01*
X58031713Y36435381D02*
X57984094Y36340143D01*
X57984094Y36340143D02*
X57984094Y36244905D01*
X57984094Y36244905D02*
X58031713Y36149667D01*
X58031713Y36149667D02*
X58079332Y36102048D01*
X58079332Y36102048D02*
X58174570Y36054429D01*
X58174570Y36054429D02*
X58365046Y36006810D01*
X58365046Y36006810D02*
X58460284Y35959191D01*
X58460284Y35959191D02*
X58507903Y35911572D01*
X58507903Y35911572D02*
X58555522Y35816334D01*
X58555522Y35816334D02*
X58555522Y35721096D01*
X58555522Y35721096D02*
X58507903Y35625858D01*
X58507903Y35625858D02*
X58460284Y35578239D01*
X58460284Y35578239D02*
X58365046Y35530620D01*
X58365046Y35530620D02*
X58126951Y35530620D01*
X58126951Y35530620D02*
X57984094Y35578239D01*
X70691404Y19766620D02*
X70691404Y18766620D01*
X70691404Y18766620D02*
X70310452Y18766620D01*
X70310452Y18766620D02*
X70215214Y18814239D01*
X70215214Y18814239D02*
X70167595Y18861858D01*
X70167595Y18861858D02*
X70119976Y18957096D01*
X70119976Y18957096D02*
X70119976Y19099953D01*
X70119976Y19099953D02*
X70167595Y19195191D01*
X70167595Y19195191D02*
X70215214Y19242810D01*
X70215214Y19242810D02*
X70310452Y19290429D01*
X70310452Y19290429D02*
X70691404Y19290429D01*
X69548547Y19766620D02*
X69643785Y19719000D01*
X69643785Y19719000D02*
X69691404Y19623762D01*
X69691404Y19623762D02*
X69691404Y18766620D01*
X68739023Y19766620D02*
X68739023Y19242810D01*
X68739023Y19242810D02*
X68786642Y19147572D01*
X68786642Y19147572D02*
X68881880Y19099953D01*
X68881880Y19099953D02*
X69072356Y19099953D01*
X69072356Y19099953D02*
X69167594Y19147572D01*
X68739023Y19719000D02*
X68834261Y19766620D01*
X68834261Y19766620D02*
X69072356Y19766620D01*
X69072356Y19766620D02*
X69167594Y19719000D01*
X69167594Y19719000D02*
X69215213Y19623762D01*
X69215213Y19623762D02*
X69215213Y19528524D01*
X69215213Y19528524D02*
X69167594Y19433286D01*
X69167594Y19433286D02*
X69072356Y19385667D01*
X69072356Y19385667D02*
X68834261Y19385667D01*
X68834261Y19385667D02*
X68739023Y19338048D01*
X68358070Y19099953D02*
X68119975Y19766620D01*
X67881880Y19099953D02*
X68119975Y19766620D01*
X68119975Y19766620D02*
X68215213Y20004715D01*
X68215213Y20004715D02*
X68262832Y20052334D01*
X68262832Y20052334D02*
X68358070Y20099953D01*
X67119975Y19719000D02*
X67215213Y19766620D01*
X67215213Y19766620D02*
X67405689Y19766620D01*
X67405689Y19766620D02*
X67500927Y19719000D01*
X67500927Y19719000D02*
X67548546Y19623762D01*
X67548546Y19623762D02*
X67548546Y19242810D01*
X67548546Y19242810D02*
X67500927Y19147572D01*
X67500927Y19147572D02*
X67405689Y19099953D01*
X67405689Y19099953D02*
X67215213Y19099953D01*
X67215213Y19099953D02*
X67119975Y19147572D01*
X67119975Y19147572D02*
X67072356Y19242810D01*
X67072356Y19242810D02*
X67072356Y19338048D01*
X67072356Y19338048D02*
X67548546Y19433286D01*
X66643784Y19766620D02*
X66643784Y19099953D01*
X66643784Y19290429D02*
X66596165Y19195191D01*
X66596165Y19195191D02*
X66548546Y19147572D01*
X66548546Y19147572D02*
X66453308Y19099953D01*
X66453308Y19099953D02*
X66358070Y19099953D01*
X65310450Y19099953D02*
X64596165Y19099953D01*
X65024736Y18671381D02*
X65310450Y19957096D01*
X64691403Y19528524D02*
X65405688Y19528524D01*
X64977117Y19957096D02*
X64691403Y18671381D01*
X64310450Y18861858D02*
X64262831Y18814239D01*
X64262831Y18814239D02*
X64167593Y18766620D01*
X64167593Y18766620D02*
X63929498Y18766620D01*
X63929498Y18766620D02*
X63834260Y18814239D01*
X63834260Y18814239D02*
X63786641Y18861858D01*
X63786641Y18861858D02*
X63739022Y18957096D01*
X63739022Y18957096D02*
X63739022Y19052334D01*
X63739022Y19052334D02*
X63786641Y19195191D01*
X63786641Y19195191D02*
X64358069Y19766620D01*
X64358069Y19766620D02*
X63739022Y19766620D01*
D10*
X13036666Y15415953D02*
X13303332Y15415953D01*
X13417618Y14996905D02*
X13036666Y14996905D01*
X13036666Y14996905D02*
X13036666Y15796905D01*
X13036666Y15796905D02*
X13417618Y15796905D01*
X13684285Y15796905D02*
X14217619Y14996905D01*
X14217619Y15796905D02*
X13684285Y14996905D01*
X14446190Y15796905D02*
X14941428Y15796905D01*
X14941428Y15796905D02*
X14674762Y15492143D01*
X14674762Y15492143D02*
X14789047Y15492143D01*
X14789047Y15492143D02*
X14865238Y15454048D01*
X14865238Y15454048D02*
X14903333Y15415953D01*
X14903333Y15415953D02*
X14941428Y15339762D01*
X14941428Y15339762D02*
X14941428Y15149286D01*
X14941428Y15149286D02*
X14903333Y15073096D01*
X14903333Y15073096D02*
X14865238Y15035000D01*
X14865238Y15035000D02*
X14789047Y14996905D01*
X14789047Y14996905D02*
X14560476Y14996905D01*
X14560476Y14996905D02*
X14484285Y15035000D01*
X14484285Y15035000D02*
X14446190Y15073096D01*
X16338666Y15415953D02*
X16605332Y15415953D01*
X16719618Y14996905D02*
X16338666Y14996905D01*
X16338666Y14996905D02*
X16338666Y15796905D01*
X16338666Y15796905D02*
X16719618Y15796905D01*
X16986285Y15796905D02*
X17519619Y14996905D01*
X17519619Y15796905D02*
X16986285Y14996905D01*
X18167238Y15530239D02*
X18167238Y14996905D01*
X17976762Y15835000D02*
X17786285Y15263572D01*
X17786285Y15263572D02*
X18281524Y15263572D01*
X69768380Y5595857D02*
X70768380Y5595857D01*
X70768380Y5595857D02*
X70768380Y5357762D01*
X70768380Y5357762D02*
X70720761Y5214905D01*
X70720761Y5214905D02*
X70625523Y5119667D01*
X70625523Y5119667D02*
X70530285Y5072048D01*
X70530285Y5072048D02*
X70339809Y5024429D01*
X70339809Y5024429D02*
X70196952Y5024429D01*
X70196952Y5024429D02*
X70006476Y5072048D01*
X70006476Y5072048D02*
X69911238Y5119667D01*
X69911238Y5119667D02*
X69816000Y5214905D01*
X69816000Y5214905D02*
X69768380Y5357762D01*
X69768380Y5357762D02*
X69768380Y5595857D01*
X70768380Y4738714D02*
X70768380Y4167286D01*
X69768380Y4453000D02*
X70768380Y4453000D01*
X69863619Y7683477D02*
X69816000Y7731096D01*
X69816000Y7731096D02*
X69768380Y7873953D01*
X69768380Y7873953D02*
X69768380Y7969191D01*
X69768380Y7969191D02*
X69816000Y8112048D01*
X69816000Y8112048D02*
X69911238Y8207286D01*
X69911238Y8207286D02*
X70006476Y8254905D01*
X70006476Y8254905D02*
X70196952Y8302524D01*
X70196952Y8302524D02*
X70339809Y8302524D01*
X70339809Y8302524D02*
X70530285Y8254905D01*
X70530285Y8254905D02*
X70625523Y8207286D01*
X70625523Y8207286D02*
X70720761Y8112048D01*
X70720761Y8112048D02*
X70768380Y7969191D01*
X70768380Y7969191D02*
X70768380Y7873953D01*
X70768380Y7873953D02*
X70720761Y7731096D01*
X70720761Y7731096D02*
X70673142Y7683477D01*
X69768380Y7254905D02*
X70768380Y7254905D01*
X69768380Y6683477D02*
X70339809Y7112048D01*
X70768380Y6683477D02*
X70196952Y7254905D01*
X70768380Y15446333D02*
X69768380Y15113000D01*
X69768380Y15113000D02*
X70768380Y14779667D01*
X69768380Y10223477D02*
X69768380Y10699667D01*
X69768380Y10699667D02*
X70768380Y10699667D01*
X69768380Y9890143D02*
X70768380Y9890143D01*
X70768380Y9890143D02*
X70768380Y9652048D01*
X70768380Y9652048D02*
X70720761Y9509191D01*
X70720761Y9509191D02*
X70625523Y9413953D01*
X70625523Y9413953D02*
X70530285Y9366334D01*
X70530285Y9366334D02*
X70339809Y9318715D01*
X70339809Y9318715D02*
X70196952Y9318715D01*
X70196952Y9318715D02*
X70006476Y9366334D01*
X70006476Y9366334D02*
X69911238Y9413953D01*
X69911238Y9413953D02*
X69816000Y9509191D01*
X69816000Y9509191D02*
X69768380Y9652048D01*
X69768380Y9652048D02*
X69768380Y9890143D01*
X70720761Y12438096D02*
X70768380Y12533334D01*
X70768380Y12533334D02*
X70768380Y12676191D01*
X70768380Y12676191D02*
X70720761Y12819048D01*
X70720761Y12819048D02*
X70625523Y12914286D01*
X70625523Y12914286D02*
X70530285Y12961905D01*
X70530285Y12961905D02*
X70339809Y13009524D01*
X70339809Y13009524D02*
X70196952Y13009524D01*
X70196952Y13009524D02*
X70006476Y12961905D01*
X70006476Y12961905D02*
X69911238Y12914286D01*
X69911238Y12914286D02*
X69816000Y12819048D01*
X69816000Y12819048D02*
X69768380Y12676191D01*
X69768380Y12676191D02*
X69768380Y12580953D01*
X69768380Y12580953D02*
X69816000Y12438096D01*
X69816000Y12438096D02*
X69863619Y12390477D01*
X69863619Y12390477D02*
X70196952Y12390477D01*
X70196952Y12390477D02*
X70196952Y12580953D01*
X653238Y12961905D02*
X605619Y12866667D01*
X605619Y12866667D02*
X605619Y12723810D01*
X605619Y12723810D02*
X653238Y12580953D01*
X653238Y12580953D02*
X748476Y12485715D01*
X748476Y12485715D02*
X843714Y12438096D01*
X843714Y12438096D02*
X1034190Y12390477D01*
X1034190Y12390477D02*
X1177047Y12390477D01*
X1177047Y12390477D02*
X1367523Y12438096D01*
X1367523Y12438096D02*
X1462761Y12485715D01*
X1462761Y12485715D02*
X1558000Y12580953D01*
X1558000Y12580953D02*
X1605619Y12723810D01*
X1605619Y12723810D02*
X1605619Y12819048D01*
X1605619Y12819048D02*
X1558000Y12961905D01*
X1558000Y12961905D02*
X1510380Y13009524D01*
X1510380Y13009524D02*
X1177047Y13009524D01*
X1177047Y13009524D02*
X1177047Y12819048D01*
X1605619Y9842524D02*
X1605619Y9366334D01*
X1605619Y9366334D02*
X605619Y9366334D01*
X1605619Y10175858D02*
X605619Y10175858D01*
X605619Y10175858D02*
X605619Y10413953D01*
X605619Y10413953D02*
X653238Y10556810D01*
X653238Y10556810D02*
X748476Y10652048D01*
X748476Y10652048D02*
X843714Y10699667D01*
X843714Y10699667D02*
X1034190Y10747286D01*
X1034190Y10747286D02*
X1177047Y10747286D01*
X1177047Y10747286D02*
X1367523Y10699667D01*
X1367523Y10699667D02*
X1462761Y10652048D01*
X1462761Y10652048D02*
X1558000Y10556810D01*
X1558000Y10556810D02*
X1605619Y10413953D01*
X1605619Y10413953D02*
X1605619Y10175858D01*
X605619Y14779668D02*
X1605619Y15113001D01*
X1605619Y15113001D02*
X605619Y15446334D01*
X1510380Y7302524D02*
X1558000Y7254905D01*
X1558000Y7254905D02*
X1605619Y7112048D01*
X1605619Y7112048D02*
X1605619Y7016810D01*
X1605619Y7016810D02*
X1558000Y6873953D01*
X1558000Y6873953D02*
X1462761Y6778715D01*
X1462761Y6778715D02*
X1367523Y6731096D01*
X1367523Y6731096D02*
X1177047Y6683477D01*
X1177047Y6683477D02*
X1034190Y6683477D01*
X1034190Y6683477D02*
X843714Y6731096D01*
X843714Y6731096D02*
X748476Y6778715D01*
X748476Y6778715D02*
X653238Y6873953D01*
X653238Y6873953D02*
X605619Y7016810D01*
X605619Y7016810D02*
X605619Y7112048D01*
X605619Y7112048D02*
X653238Y7254905D01*
X653238Y7254905D02*
X700857Y7302524D01*
X1605619Y7731096D02*
X605619Y7731096D01*
X1605619Y8302524D02*
X1034190Y7873953D01*
X605619Y8302524D02*
X1177047Y7731096D01*
X1605619Y4429192D02*
X605619Y4429192D01*
X1605619Y4905382D02*
X605619Y4905382D01*
X605619Y4905382D02*
X1605619Y5476810D01*
X1605619Y5476810D02*
X605619Y5476810D01*
D12*
X70754904Y28402620D02*
X70754904Y27402620D01*
X70754904Y27402620D02*
X70373952Y27402620D01*
X70373952Y27402620D02*
X70278714Y27450239D01*
X70278714Y27450239D02*
X70231095Y27497858D01*
X70231095Y27497858D02*
X70183476Y27593096D01*
X70183476Y27593096D02*
X70183476Y27735953D01*
X70183476Y27735953D02*
X70231095Y27831191D01*
X70231095Y27831191D02*
X70278714Y27878810D01*
X70278714Y27878810D02*
X70373952Y27926429D01*
X70373952Y27926429D02*
X70754904Y27926429D01*
X69612047Y28402620D02*
X69707285Y28355000D01*
X69707285Y28355000D02*
X69754904Y28259762D01*
X69754904Y28259762D02*
X69754904Y27402620D01*
X68802523Y28402620D02*
X68802523Y27878810D01*
X68802523Y27878810D02*
X68850142Y27783572D01*
X68850142Y27783572D02*
X68945380Y27735953D01*
X68945380Y27735953D02*
X69135856Y27735953D01*
X69135856Y27735953D02*
X69231094Y27783572D01*
X68802523Y28355000D02*
X68897761Y28402620D01*
X68897761Y28402620D02*
X69135856Y28402620D01*
X69135856Y28402620D02*
X69231094Y28355000D01*
X69231094Y28355000D02*
X69278713Y28259762D01*
X69278713Y28259762D02*
X69278713Y28164524D01*
X69278713Y28164524D02*
X69231094Y28069286D01*
X69231094Y28069286D02*
X69135856Y28021667D01*
X69135856Y28021667D02*
X68897761Y28021667D01*
X68897761Y28021667D02*
X68802523Y27974048D01*
X68421570Y27735953D02*
X68183475Y28402620D01*
X67945380Y27735953D02*
X68183475Y28402620D01*
X68183475Y28402620D02*
X68278713Y28640715D01*
X68278713Y28640715D02*
X68326332Y28688334D01*
X68326332Y28688334D02*
X68421570Y28735953D01*
X67183475Y28355000D02*
X67278713Y28402620D01*
X67278713Y28402620D02*
X67469189Y28402620D01*
X67469189Y28402620D02*
X67564427Y28355000D01*
X67564427Y28355000D02*
X67612046Y28259762D01*
X67612046Y28259762D02*
X67612046Y27878810D01*
X67612046Y27878810D02*
X67564427Y27783572D01*
X67564427Y27783572D02*
X67469189Y27735953D01*
X67469189Y27735953D02*
X67278713Y27735953D01*
X67278713Y27735953D02*
X67183475Y27783572D01*
X67183475Y27783572D02*
X67135856Y27878810D01*
X67135856Y27878810D02*
X67135856Y27974048D01*
X67135856Y27974048D02*
X67612046Y28069286D01*
X66707284Y28402620D02*
X66707284Y27735953D01*
X66707284Y27926429D02*
X66659665Y27831191D01*
X66659665Y27831191D02*
X66612046Y27783572D01*
X66612046Y27783572D02*
X66516808Y27735953D01*
X66516808Y27735953D02*
X66421570Y27735953D01*
X65373950Y27735953D02*
X64659665Y27735953D01*
X65088236Y27307381D02*
X65373950Y28593096D01*
X64754903Y28164524D02*
X65469188Y28164524D01*
X65040617Y28593096D02*
X64754903Y27307381D01*
X63802522Y28402620D02*
X64373950Y28402620D01*
X64088236Y28402620D02*
X64088236Y27402620D01*
X64088236Y27402620D02*
X64183474Y27545477D01*
X64183474Y27545477D02*
X64278712Y27640715D01*
X64278712Y27640715D02*
X64373950Y27688334D01*
D10*
X38741571Y4197536D02*
X38741571Y4947536D01*
X38741571Y4947536D02*
X38884428Y4947536D01*
X38884428Y4947536D02*
X38970142Y4911822D01*
X38970142Y4911822D02*
X39027285Y4840393D01*
X39027285Y4840393D02*
X39055856Y4768965D01*
X39055856Y4768965D02*
X39084428Y4626108D01*
X39084428Y4626108D02*
X39084428Y4518965D01*
X39084428Y4518965D02*
X39055856Y4376108D01*
X39055856Y4376108D02*
X39027285Y4304679D01*
X39027285Y4304679D02*
X38970142Y4233250D01*
X38970142Y4233250D02*
X38884428Y4197536D01*
X38884428Y4197536D02*
X38741571Y4197536D01*
X39312999Y4233250D02*
X39398714Y4197536D01*
X39398714Y4197536D02*
X39541571Y4197536D01*
X39541571Y4197536D02*
X39598714Y4233250D01*
X39598714Y4233250D02*
X39627285Y4268965D01*
X39627285Y4268965D02*
X39655856Y4340393D01*
X39655856Y4340393D02*
X39655856Y4411822D01*
X39655856Y4411822D02*
X39627285Y4483250D01*
X39627285Y4483250D02*
X39598714Y4518965D01*
X39598714Y4518965D02*
X39541571Y4554679D01*
X39541571Y4554679D02*
X39427285Y4590393D01*
X39427285Y4590393D02*
X39370142Y4626108D01*
X39370142Y4626108D02*
X39341571Y4661822D01*
X39341571Y4661822D02*
X39312999Y4733250D01*
X39312999Y4733250D02*
X39312999Y4804679D01*
X39312999Y4804679D02*
X39341571Y4876108D01*
X39341571Y4876108D02*
X39370142Y4911822D01*
X39370142Y4911822D02*
X39427285Y4947536D01*
X39427285Y4947536D02*
X39570142Y4947536D01*
X39570142Y4947536D02*
X39655856Y4911822D01*
X39913000Y4483250D02*
X40370143Y4483250D01*
X39113000Y2911108D02*
X39055857Y2946822D01*
X39055857Y2946822D02*
X38998714Y3018250D01*
X38998714Y3018250D02*
X38913000Y3125393D01*
X38913000Y3125393D02*
X38855857Y3161108D01*
X38855857Y3161108D02*
X38798714Y3161108D01*
X38827285Y2982536D02*
X38770143Y3018250D01*
X38770143Y3018250D02*
X38713000Y3089679D01*
X38713000Y3089679D02*
X38684428Y3232536D01*
X38684428Y3232536D02*
X38684428Y3482536D01*
X38684428Y3482536D02*
X38713000Y3625393D01*
X38713000Y3625393D02*
X38770143Y3696822D01*
X38770143Y3696822D02*
X38827285Y3732536D01*
X38827285Y3732536D02*
X38941571Y3732536D01*
X38941571Y3732536D02*
X38998714Y3696822D01*
X38998714Y3696822D02*
X39055857Y3625393D01*
X39055857Y3625393D02*
X39084428Y3482536D01*
X39084428Y3482536D02*
X39084428Y3232536D01*
X39084428Y3232536D02*
X39055857Y3089679D01*
X39055857Y3089679D02*
X38998714Y3018250D01*
X38998714Y3018250D02*
X38941571Y2982536D01*
X38941571Y2982536D02*
X38827285Y2982536D01*
X39284428Y3732536D02*
X39684428Y3732536D01*
X39684428Y3732536D02*
X39427285Y2982536D01*
X39913000Y3268250D02*
X40370143Y3268250D01*
X56839071Y4261036D02*
X56839071Y5011036D01*
X56839071Y5011036D02*
X56981928Y5011036D01*
X56981928Y5011036D02*
X57067642Y4975322D01*
X57067642Y4975322D02*
X57124785Y4903893D01*
X57124785Y4903893D02*
X57153356Y4832465D01*
X57153356Y4832465D02*
X57181928Y4689608D01*
X57181928Y4689608D02*
X57181928Y4582465D01*
X57181928Y4582465D02*
X57153356Y4439608D01*
X57153356Y4439608D02*
X57124785Y4368179D01*
X57124785Y4368179D02*
X57067642Y4296750D01*
X57067642Y4296750D02*
X56981928Y4261036D01*
X56981928Y4261036D02*
X56839071Y4261036D01*
X57410499Y4296750D02*
X57496214Y4261036D01*
X57496214Y4261036D02*
X57639071Y4261036D01*
X57639071Y4261036D02*
X57696214Y4296750D01*
X57696214Y4296750D02*
X57724785Y4332465D01*
X57724785Y4332465D02*
X57753356Y4403893D01*
X57753356Y4403893D02*
X57753356Y4475322D01*
X57753356Y4475322D02*
X57724785Y4546750D01*
X57724785Y4546750D02*
X57696214Y4582465D01*
X57696214Y4582465D02*
X57639071Y4618179D01*
X57639071Y4618179D02*
X57524785Y4653893D01*
X57524785Y4653893D02*
X57467642Y4689608D01*
X57467642Y4689608D02*
X57439071Y4725322D01*
X57439071Y4725322D02*
X57410499Y4796750D01*
X57410499Y4796750D02*
X57410499Y4868179D01*
X57410499Y4868179D02*
X57439071Y4939608D01*
X57439071Y4939608D02*
X57467642Y4975322D01*
X57467642Y4975322D02*
X57524785Y5011036D01*
X57524785Y5011036D02*
X57667642Y5011036D01*
X57667642Y5011036D02*
X57753356Y4975322D01*
X58010500Y4546750D02*
X58467643Y4546750D01*
X57210500Y2974608D02*
X57153357Y3010322D01*
X57153357Y3010322D02*
X57096214Y3081750D01*
X57096214Y3081750D02*
X57010500Y3188893D01*
X57010500Y3188893D02*
X56953357Y3224608D01*
X56953357Y3224608D02*
X56896214Y3224608D01*
X56924785Y3046036D02*
X56867643Y3081750D01*
X56867643Y3081750D02*
X56810500Y3153179D01*
X56810500Y3153179D02*
X56781928Y3296036D01*
X56781928Y3296036D02*
X56781928Y3546036D01*
X56781928Y3546036D02*
X56810500Y3688893D01*
X56810500Y3688893D02*
X56867643Y3760322D01*
X56867643Y3760322D02*
X56924785Y3796036D01*
X56924785Y3796036D02*
X57039071Y3796036D01*
X57039071Y3796036D02*
X57096214Y3760322D01*
X57096214Y3760322D02*
X57153357Y3688893D01*
X57153357Y3688893D02*
X57181928Y3546036D01*
X57181928Y3546036D02*
X57181928Y3296036D01*
X57181928Y3296036D02*
X57153357Y3153179D01*
X57153357Y3153179D02*
X57096214Y3081750D01*
X57096214Y3081750D02*
X57039071Y3046036D01*
X57039071Y3046036D02*
X56924785Y3046036D01*
X57381928Y3796036D02*
X57781928Y3796036D01*
X57781928Y3796036D02*
X57524785Y3046036D01*
X58010500Y3331750D02*
X58467643Y3331750D01*
X23230095Y20332953D02*
X22430095Y20332953D01*
X22430095Y20332953D02*
X22430095Y20637715D01*
X22430095Y20637715D02*
X22468190Y20713905D01*
X22468190Y20713905D02*
X22506285Y20752000D01*
X22506285Y20752000D02*
X22582476Y20790096D01*
X22582476Y20790096D02*
X22696761Y20790096D01*
X22696761Y20790096D02*
X22772952Y20752000D01*
X22772952Y20752000D02*
X22811047Y20713905D01*
X22811047Y20713905D02*
X22849142Y20637715D01*
X22849142Y20637715D02*
X22849142Y20332953D01*
X23230095Y21552000D02*
X23230095Y21094857D01*
X23230095Y21323429D02*
X22430095Y21323429D01*
X22430095Y21323429D02*
X22544380Y21247238D01*
X22544380Y21247238D02*
X22620571Y21171048D01*
X22620571Y21171048D02*
X22658666Y21094857D01*
X23306285Y21704381D02*
X23306285Y22313905D01*
X22811047Y22504382D02*
X22811047Y22771048D01*
X23230095Y22885334D02*
X23230095Y22504382D01*
X23230095Y22504382D02*
X22430095Y22504382D01*
X22430095Y22504382D02*
X22430095Y22885334D01*
X22430095Y23152001D02*
X23230095Y23685335D01*
X22430095Y23685335D02*
X23230095Y23152001D01*
X22696761Y24332954D02*
X23230095Y24332954D01*
X22392000Y24142478D02*
X22963428Y23952001D01*
X22963428Y23952001D02*
X22963428Y24447240D01*
X9514095Y20332953D02*
X8714095Y20332953D01*
X8714095Y20332953D02*
X8714095Y20637715D01*
X8714095Y20637715D02*
X8752190Y20713905D01*
X8752190Y20713905D02*
X8790285Y20752000D01*
X8790285Y20752000D02*
X8866476Y20790096D01*
X8866476Y20790096D02*
X8980761Y20790096D01*
X8980761Y20790096D02*
X9056952Y20752000D01*
X9056952Y20752000D02*
X9095047Y20713905D01*
X9095047Y20713905D02*
X9133142Y20637715D01*
X9133142Y20637715D02*
X9133142Y20332953D01*
X9514095Y21552000D02*
X9514095Y21094857D01*
X9514095Y21323429D02*
X8714095Y21323429D01*
X8714095Y21323429D02*
X8828380Y21247238D01*
X8828380Y21247238D02*
X8904571Y21171048D01*
X8904571Y21171048D02*
X8942666Y21094857D01*
X9590285Y21704381D02*
X9590285Y22313905D01*
X9095047Y22504382D02*
X9095047Y22771048D01*
X9514095Y22885334D02*
X9514095Y22504382D01*
X9514095Y22504382D02*
X8714095Y22504382D01*
X8714095Y22504382D02*
X8714095Y22885334D01*
X8714095Y23152001D02*
X9514095Y23685335D01*
X8714095Y23685335D02*
X9514095Y23152001D01*
X8790285Y23952001D02*
X8752190Y23990097D01*
X8752190Y23990097D02*
X8714095Y24066287D01*
X8714095Y24066287D02*
X8714095Y24256763D01*
X8714095Y24256763D02*
X8752190Y24332954D01*
X8752190Y24332954D02*
X8790285Y24371049D01*
X8790285Y24371049D02*
X8866476Y24409144D01*
X8866476Y24409144D02*
X8942666Y24409144D01*
X8942666Y24409144D02*
X9056952Y24371049D01*
X9056952Y24371049D02*
X9514095Y23913906D01*
X9514095Y23913906D02*
X9514095Y24409144D01*
D12*
X46950047Y36737000D02*
X46807190Y36784620D01*
X46807190Y36784620D02*
X46569095Y36784620D01*
X46569095Y36784620D02*
X46473857Y36737000D01*
X46473857Y36737000D02*
X46426238Y36689381D01*
X46426238Y36689381D02*
X46378619Y36594143D01*
X46378619Y36594143D02*
X46378619Y36498905D01*
X46378619Y36498905D02*
X46426238Y36403667D01*
X46426238Y36403667D02*
X46473857Y36356048D01*
X46473857Y36356048D02*
X46569095Y36308429D01*
X46569095Y36308429D02*
X46759571Y36260810D01*
X46759571Y36260810D02*
X46854809Y36213191D01*
X46854809Y36213191D02*
X46902428Y36165572D01*
X46902428Y36165572D02*
X46950047Y36070334D01*
X46950047Y36070334D02*
X46950047Y35975096D01*
X46950047Y35975096D02*
X46902428Y35879858D01*
X46902428Y35879858D02*
X46854809Y35832239D01*
X46854809Y35832239D02*
X46759571Y35784620D01*
X46759571Y35784620D02*
X46521476Y35784620D01*
X46521476Y35784620D02*
X46378619Y35832239D01*
X45569095Y36737000D02*
X45664333Y36784620D01*
X45664333Y36784620D02*
X45854809Y36784620D01*
X45854809Y36784620D02*
X45950047Y36737000D01*
X45950047Y36737000D02*
X45997666Y36641762D01*
X45997666Y36641762D02*
X45997666Y36260810D01*
X45997666Y36260810D02*
X45950047Y36165572D01*
X45950047Y36165572D02*
X45854809Y36117953D01*
X45854809Y36117953D02*
X45664333Y36117953D01*
X45664333Y36117953D02*
X45569095Y36165572D01*
X45569095Y36165572D02*
X45521476Y36260810D01*
X45521476Y36260810D02*
X45521476Y36356048D01*
X45521476Y36356048D02*
X45997666Y36451286D01*
X44950047Y36784620D02*
X45045285Y36737000D01*
X45045285Y36737000D02*
X45092904Y36641762D01*
X45092904Y36641762D02*
X45092904Y35784620D01*
X44188142Y36737000D02*
X44283380Y36784620D01*
X44283380Y36784620D02*
X44473856Y36784620D01*
X44473856Y36784620D02*
X44569094Y36737000D01*
X44569094Y36737000D02*
X44616713Y36641762D01*
X44616713Y36641762D02*
X44616713Y36260810D01*
X44616713Y36260810D02*
X44569094Y36165572D01*
X44569094Y36165572D02*
X44473856Y36117953D01*
X44473856Y36117953D02*
X44283380Y36117953D01*
X44283380Y36117953D02*
X44188142Y36165572D01*
X44188142Y36165572D02*
X44140523Y36260810D01*
X44140523Y36260810D02*
X44140523Y36356048D01*
X44140523Y36356048D02*
X44616713Y36451286D01*
X43283380Y36737000D02*
X43378618Y36784620D01*
X43378618Y36784620D02*
X43569094Y36784620D01*
X43569094Y36784620D02*
X43664332Y36737000D01*
X43664332Y36737000D02*
X43711951Y36689381D01*
X43711951Y36689381D02*
X43759570Y36594143D01*
X43759570Y36594143D02*
X43759570Y36308429D01*
X43759570Y36308429D02*
X43711951Y36213191D01*
X43711951Y36213191D02*
X43664332Y36165572D01*
X43664332Y36165572D02*
X43569094Y36117953D01*
X43569094Y36117953D02*
X43378618Y36117953D01*
X43378618Y36117953D02*
X43283380Y36165572D01*
X42997665Y36117953D02*
X42616713Y36117953D01*
X42854808Y35784620D02*
X42854808Y36641762D01*
X42854808Y36641762D02*
X42807189Y36737000D01*
X42807189Y36737000D02*
X42711951Y36784620D01*
X42711951Y36784620D02*
X42616713Y36784620D01*
X31424571Y36260810D02*
X31281714Y36308429D01*
X31281714Y36308429D02*
X31234095Y36356048D01*
X31234095Y36356048D02*
X31186476Y36451286D01*
X31186476Y36451286D02*
X31186476Y36594143D01*
X31186476Y36594143D02*
X31234095Y36689381D01*
X31234095Y36689381D02*
X31281714Y36737000D01*
X31281714Y36737000D02*
X31376952Y36784620D01*
X31376952Y36784620D02*
X31757904Y36784620D01*
X31757904Y36784620D02*
X31757904Y35784620D01*
X31757904Y35784620D02*
X31424571Y35784620D01*
X31424571Y35784620D02*
X31329333Y35832239D01*
X31329333Y35832239D02*
X31281714Y35879858D01*
X31281714Y35879858D02*
X31234095Y35975096D01*
X31234095Y35975096D02*
X31234095Y36070334D01*
X31234095Y36070334D02*
X31281714Y36165572D01*
X31281714Y36165572D02*
X31329333Y36213191D01*
X31329333Y36213191D02*
X31424571Y36260810D01*
X31424571Y36260810D02*
X31757904Y36260810D01*
D10*
X20376094Y15285381D02*
X20376094Y16285381D01*
X20376094Y16285381D02*
X20757046Y16285381D01*
X20757046Y16285381D02*
X20852284Y16237762D01*
X20852284Y16237762D02*
X20899903Y16190143D01*
X20899903Y16190143D02*
X20947522Y16094905D01*
X20947522Y16094905D02*
X20947522Y15952048D01*
X20947522Y15952048D02*
X20899903Y15856810D01*
X20899903Y15856810D02*
X20852284Y15809191D01*
X20852284Y15809191D02*
X20757046Y15761572D01*
X20757046Y15761572D02*
X20376094Y15761572D01*
X21899903Y15285381D02*
X21328475Y15285381D01*
X21614189Y15285381D02*
X21614189Y16285381D01*
X21614189Y16285381D02*
X21518951Y16142524D01*
X21518951Y16142524D02*
X21423713Y16047286D01*
X21423713Y16047286D02*
X21328475Y15999667D01*
X22090380Y15190143D02*
X22852284Y15190143D01*
X23090380Y15809191D02*
X23423713Y15809191D01*
X23566570Y15285381D02*
X23090380Y15285381D01*
X23090380Y15285381D02*
X23090380Y16285381D01*
X23090380Y16285381D02*
X23566570Y16285381D01*
X23899904Y15285381D02*
X24423713Y15952048D01*
X23899904Y15952048D02*
X24423713Y15285381D01*
X24661809Y15952048D02*
X25042761Y15952048D01*
X24804666Y16285381D02*
X24804666Y15428239D01*
X24804666Y15428239D02*
X24852285Y15333000D01*
X24852285Y15333000D02*
X24947523Y15285381D01*
X24947523Y15285381D02*
X25042761Y15285381D01*
X25376095Y15285381D02*
X25376095Y15952048D01*
X25376095Y15761572D02*
X25423714Y15856810D01*
X25423714Y15856810D02*
X25471333Y15904429D01*
X25471333Y15904429D02*
X25566571Y15952048D01*
X25566571Y15952048D02*
X25661809Y15952048D01*
X26423714Y15285381D02*
X26423714Y15809191D01*
X26423714Y15809191D02*
X26376095Y15904429D01*
X26376095Y15904429D02*
X26280857Y15952048D01*
X26280857Y15952048D02*
X26090381Y15952048D01*
X26090381Y15952048D02*
X25995143Y15904429D01*
X26423714Y15333000D02*
X26328476Y15285381D01*
X26328476Y15285381D02*
X26090381Y15285381D01*
X26090381Y15285381D02*
X25995143Y15333000D01*
X25995143Y15333000D02*
X25947524Y15428239D01*
X25947524Y15428239D02*
X25947524Y15523477D01*
X25947524Y15523477D02*
X25995143Y15618715D01*
X25995143Y15618715D02*
X26090381Y15666334D01*
X26090381Y15666334D02*
X26328476Y15666334D01*
X26328476Y15666334D02*
X26423714Y15713953D01*
X27233238Y15809191D02*
X27376095Y15761572D01*
X27376095Y15761572D02*
X27423714Y15713953D01*
X27423714Y15713953D02*
X27471333Y15618715D01*
X27471333Y15618715D02*
X27471333Y15475858D01*
X27471333Y15475858D02*
X27423714Y15380620D01*
X27423714Y15380620D02*
X27376095Y15333000D01*
X27376095Y15333000D02*
X27280857Y15285381D01*
X27280857Y15285381D02*
X26899905Y15285381D01*
X26899905Y15285381D02*
X26899905Y16285381D01*
X26899905Y16285381D02*
X27233238Y16285381D01*
X27233238Y16285381D02*
X27328476Y16237762D01*
X27328476Y16237762D02*
X27376095Y16190143D01*
X27376095Y16190143D02*
X27423714Y16094905D01*
X27423714Y16094905D02*
X27423714Y15999667D01*
X27423714Y15999667D02*
X27376095Y15904429D01*
X27376095Y15904429D02*
X27328476Y15856810D01*
X27328476Y15856810D02*
X27233238Y15809191D01*
X27233238Y15809191D02*
X26899905Y15809191D01*
X27757048Y15952048D02*
X28138000Y15952048D01*
X27899905Y16285381D02*
X27899905Y15428239D01*
X27899905Y15428239D02*
X27947524Y15333000D01*
X27947524Y15333000D02*
X28042762Y15285381D01*
X28042762Y15285381D02*
X28138000Y15285381D01*
X28471334Y15952048D02*
X28471334Y15285381D01*
X28471334Y15856810D02*
X28518953Y15904429D01*
X28518953Y15904429D02*
X28614191Y15952048D01*
X28614191Y15952048D02*
X28757048Y15952048D01*
X28757048Y15952048D02*
X28852286Y15904429D01*
X28852286Y15904429D02*
X28899905Y15809191D01*
X28899905Y15809191D02*
X28899905Y15285381D01*
X20707571Y4197536D02*
X20707571Y4947536D01*
X20707571Y4947536D02*
X20850428Y4947536D01*
X20850428Y4947536D02*
X20936142Y4911822D01*
X20936142Y4911822D02*
X20993285Y4840393D01*
X20993285Y4840393D02*
X21021856Y4768965D01*
X21021856Y4768965D02*
X21050428Y4626108D01*
X21050428Y4626108D02*
X21050428Y4518965D01*
X21050428Y4518965D02*
X21021856Y4376108D01*
X21021856Y4376108D02*
X20993285Y4304679D01*
X20993285Y4304679D02*
X20936142Y4233250D01*
X20936142Y4233250D02*
X20850428Y4197536D01*
X20850428Y4197536D02*
X20707571Y4197536D01*
X21278999Y4233250D02*
X21364714Y4197536D01*
X21364714Y4197536D02*
X21507571Y4197536D01*
X21507571Y4197536D02*
X21564714Y4233250D01*
X21564714Y4233250D02*
X21593285Y4268965D01*
X21593285Y4268965D02*
X21621856Y4340393D01*
X21621856Y4340393D02*
X21621856Y4411822D01*
X21621856Y4411822D02*
X21593285Y4483250D01*
X21593285Y4483250D02*
X21564714Y4518965D01*
X21564714Y4518965D02*
X21507571Y4554679D01*
X21507571Y4554679D02*
X21393285Y4590393D01*
X21393285Y4590393D02*
X21336142Y4626108D01*
X21336142Y4626108D02*
X21307571Y4661822D01*
X21307571Y4661822D02*
X21278999Y4733250D01*
X21278999Y4733250D02*
X21278999Y4804679D01*
X21278999Y4804679D02*
X21307571Y4876108D01*
X21307571Y4876108D02*
X21336142Y4911822D01*
X21336142Y4911822D02*
X21393285Y4947536D01*
X21393285Y4947536D02*
X21536142Y4947536D01*
X21536142Y4947536D02*
X21621856Y4911822D01*
X21879000Y4483250D02*
X22336143Y4483250D01*
X21079000Y2911108D02*
X21021857Y2946822D01*
X21021857Y2946822D02*
X20964714Y3018250D01*
X20964714Y3018250D02*
X20879000Y3125393D01*
X20879000Y3125393D02*
X20821857Y3161108D01*
X20821857Y3161108D02*
X20764714Y3161108D01*
X20793285Y2982536D02*
X20736143Y3018250D01*
X20736143Y3018250D02*
X20679000Y3089679D01*
X20679000Y3089679D02*
X20650428Y3232536D01*
X20650428Y3232536D02*
X20650428Y3482536D01*
X20650428Y3482536D02*
X20679000Y3625393D01*
X20679000Y3625393D02*
X20736143Y3696822D01*
X20736143Y3696822D02*
X20793285Y3732536D01*
X20793285Y3732536D02*
X20907571Y3732536D01*
X20907571Y3732536D02*
X20964714Y3696822D01*
X20964714Y3696822D02*
X21021857Y3625393D01*
X21021857Y3625393D02*
X21050428Y3482536D01*
X21050428Y3482536D02*
X21050428Y3232536D01*
X21050428Y3232536D02*
X21021857Y3089679D01*
X21021857Y3089679D02*
X20964714Y3018250D01*
X20964714Y3018250D02*
X20907571Y2982536D01*
X20907571Y2982536D02*
X20793285Y2982536D01*
X21250428Y3732536D02*
X21650428Y3732536D01*
X21650428Y3732536D02*
X21393285Y2982536D01*
X21879000Y3268250D02*
X22336143Y3268250D01*
X16372095Y20332953D02*
X15572095Y20332953D01*
X15572095Y20332953D02*
X15572095Y20637715D01*
X15572095Y20637715D02*
X15610190Y20713905D01*
X15610190Y20713905D02*
X15648285Y20752000D01*
X15648285Y20752000D02*
X15724476Y20790096D01*
X15724476Y20790096D02*
X15838761Y20790096D01*
X15838761Y20790096D02*
X15914952Y20752000D01*
X15914952Y20752000D02*
X15953047Y20713905D01*
X15953047Y20713905D02*
X15991142Y20637715D01*
X15991142Y20637715D02*
X15991142Y20332953D01*
X16372095Y21552000D02*
X16372095Y21094857D01*
X16372095Y21323429D02*
X15572095Y21323429D01*
X15572095Y21323429D02*
X15686380Y21247238D01*
X15686380Y21247238D02*
X15762571Y21171048D01*
X15762571Y21171048D02*
X15800666Y21094857D01*
X16448285Y21704381D02*
X16448285Y22313905D01*
X15953047Y22504382D02*
X15953047Y22771048D01*
X16372095Y22885334D02*
X16372095Y22504382D01*
X16372095Y22504382D02*
X15572095Y22504382D01*
X15572095Y22504382D02*
X15572095Y22885334D01*
X15572095Y23152001D02*
X16372095Y23685335D01*
X15572095Y23685335D02*
X16372095Y23152001D01*
X15572095Y23913906D02*
X15572095Y24409144D01*
X15572095Y24409144D02*
X15876857Y24142478D01*
X15876857Y24142478D02*
X15876857Y24256763D01*
X15876857Y24256763D02*
X15914952Y24332954D01*
X15914952Y24332954D02*
X15953047Y24371049D01*
X15953047Y24371049D02*
X16029238Y24409144D01*
X16029238Y24409144D02*
X16219714Y24409144D01*
X16219714Y24409144D02*
X16295904Y24371049D01*
X16295904Y24371049D02*
X16334000Y24332954D01*
X16334000Y24332954D02*
X16372095Y24256763D01*
X16372095Y24256763D02*
X16372095Y24028192D01*
X16372095Y24028192D02*
X16334000Y23952001D01*
X16334000Y23952001D02*
X16295904Y23913906D01*
X6305666Y15415953D02*
X6572332Y15415953D01*
X6686618Y14996905D02*
X6305666Y14996905D01*
X6305666Y14996905D02*
X6305666Y15796905D01*
X6305666Y15796905D02*
X6686618Y15796905D01*
X6953285Y15796905D02*
X7486619Y14996905D01*
X7486619Y15796905D02*
X6953285Y14996905D01*
X8210428Y14996905D02*
X7753285Y14996905D01*
X7981857Y14996905D02*
X7981857Y15796905D01*
X7981857Y15796905D02*
X7905666Y15682620D01*
X7905666Y15682620D02*
X7829476Y15606429D01*
X7829476Y15606429D02*
X7753285Y15568334D01*
X7548762Y10332381D02*
X7548762Y11332381D01*
X7548762Y11332381D02*
X7929714Y11332381D01*
X7929714Y11332381D02*
X8024952Y11284762D01*
X8024952Y11284762D02*
X8072571Y11237143D01*
X8072571Y11237143D02*
X8120190Y11141905D01*
X8120190Y11141905D02*
X8120190Y10999048D01*
X8120190Y10999048D02*
X8072571Y10903810D01*
X8072571Y10903810D02*
X8024952Y10856191D01*
X8024952Y10856191D02*
X7929714Y10808572D01*
X7929714Y10808572D02*
X7548762Y10808572D01*
X8548762Y11332381D02*
X8548762Y10522858D01*
X8548762Y10522858D02*
X8596381Y10427620D01*
X8596381Y10427620D02*
X8644000Y10380000D01*
X8644000Y10380000D02*
X8739238Y10332381D01*
X8739238Y10332381D02*
X8929714Y10332381D01*
X8929714Y10332381D02*
X9024952Y10380000D01*
X9024952Y10380000D02*
X9072571Y10427620D01*
X9072571Y10427620D02*
X9120190Y10522858D01*
X9120190Y10522858D02*
X9120190Y11332381D01*
X10072571Y10332381D02*
X9596381Y10332381D01*
X9596381Y10332381D02*
X9596381Y11332381D01*
X10882095Y10332381D02*
X10405905Y10332381D01*
X10405905Y10332381D02*
X10405905Y11332381D01*
D12*
X25225332Y35784620D02*
X24558666Y36784620D01*
X24558666Y35784620D02*
X25225332Y36784620D01*
X10739476Y36784620D02*
X11215666Y36784620D01*
X11215666Y36784620D02*
X11215666Y35784620D01*
D10*
X2656095Y20586953D02*
X1856095Y20586953D01*
X1856095Y20586953D02*
X1856095Y20891715D01*
X1856095Y20891715D02*
X1894190Y20967905D01*
X1894190Y20967905D02*
X1932285Y21006000D01*
X1932285Y21006000D02*
X2008476Y21044096D01*
X2008476Y21044096D02*
X2122761Y21044096D01*
X2122761Y21044096D02*
X2198952Y21006000D01*
X2198952Y21006000D02*
X2237047Y20967905D01*
X2237047Y20967905D02*
X2275142Y20891715D01*
X2275142Y20891715D02*
X2275142Y20586953D01*
X2656095Y21806000D02*
X2656095Y21348857D01*
X2656095Y21577429D02*
X1856095Y21577429D01*
X1856095Y21577429D02*
X1970380Y21501238D01*
X1970380Y21501238D02*
X2046571Y21425048D01*
X2046571Y21425048D02*
X2084666Y21348857D01*
X2732285Y21958381D02*
X2732285Y22567905D01*
X2237047Y22758382D02*
X2237047Y23025048D01*
X2656095Y23139334D02*
X2656095Y22758382D01*
X2656095Y22758382D02*
X1856095Y22758382D01*
X1856095Y22758382D02*
X1856095Y23139334D01*
X1856095Y23406001D02*
X2656095Y23939335D01*
X1856095Y23939335D02*
X2656095Y23406001D01*
X2656095Y24663144D02*
X2656095Y24206001D01*
X2656095Y24434573D02*
X1856095Y24434573D01*
X1856095Y24434573D02*
X1970380Y24358382D01*
X1970380Y24358382D02*
X2046571Y24282192D01*
X2046571Y24282192D02*
X2084666Y24206001D01*
X6929714Y2506000D02*
X7072571Y2458381D01*
X7072571Y2458381D02*
X7310666Y2458381D01*
X7310666Y2458381D02*
X7405904Y2506000D01*
X7405904Y2506000D02*
X7453523Y2553620D01*
X7453523Y2553620D02*
X7501142Y2648858D01*
X7501142Y2648858D02*
X7501142Y2744096D01*
X7501142Y2744096D02*
X7453523Y2839334D01*
X7453523Y2839334D02*
X7405904Y2886953D01*
X7405904Y2886953D02*
X7310666Y2934572D01*
X7310666Y2934572D02*
X7120190Y2982191D01*
X7120190Y2982191D02*
X7024952Y3029810D01*
X7024952Y3029810D02*
X6977333Y3077429D01*
X6977333Y3077429D02*
X6929714Y3172667D01*
X6929714Y3172667D02*
X6929714Y3267905D01*
X6929714Y3267905D02*
X6977333Y3363143D01*
X6977333Y3363143D02*
X7024952Y3410762D01*
X7024952Y3410762D02*
X7120190Y3458381D01*
X7120190Y3458381D02*
X7358285Y3458381D01*
X7358285Y3458381D02*
X7501142Y3410762D01*
X7929714Y2458381D02*
X7929714Y3458381D01*
X7929714Y2982191D02*
X8501142Y2982191D01*
X8501142Y2458381D02*
X8501142Y3458381D01*
X9167809Y3458381D02*
X9358285Y3458381D01*
X9358285Y3458381D02*
X9453523Y3410762D01*
X9453523Y3410762D02*
X9548761Y3315524D01*
X9548761Y3315524D02*
X9596380Y3125048D01*
X9596380Y3125048D02*
X9596380Y2791715D01*
X9596380Y2791715D02*
X9548761Y2601239D01*
X9548761Y2601239D02*
X9453523Y2506000D01*
X9453523Y2506000D02*
X9358285Y2458381D01*
X9358285Y2458381D02*
X9167809Y2458381D01*
X9167809Y2458381D02*
X9072571Y2506000D01*
X9072571Y2506000D02*
X8977333Y2601239D01*
X8977333Y2601239D02*
X8929714Y2791715D01*
X8929714Y2791715D02*
X8929714Y3125048D01*
X8929714Y3125048D02*
X8977333Y3315524D01*
X8977333Y3315524D02*
X9072571Y3410762D01*
X9072571Y3410762D02*
X9167809Y3458381D01*
X10596380Y2458381D02*
X10263047Y2934572D01*
X10024952Y2458381D02*
X10024952Y3458381D01*
X10024952Y3458381D02*
X10405904Y3458381D01*
X10405904Y3458381D02*
X10501142Y3410762D01*
X10501142Y3410762D02*
X10548761Y3363143D01*
X10548761Y3363143D02*
X10596380Y3267905D01*
X10596380Y3267905D02*
X10596380Y3125048D01*
X10596380Y3125048D02*
X10548761Y3029810D01*
X10548761Y3029810D02*
X10501142Y2982191D01*
X10501142Y2982191D02*
X10405904Y2934572D01*
X10405904Y2934572D02*
X10024952Y2934572D01*
X10882095Y3458381D02*
X11453523Y3458381D01*
X11167809Y2458381D02*
X11167809Y3458381D01*
D12*
X53435047Y36737000D02*
X53292190Y36784620D01*
X53292190Y36784620D02*
X53054095Y36784620D01*
X53054095Y36784620D02*
X52958857Y36737000D01*
X52958857Y36737000D02*
X52911238Y36689381D01*
X52911238Y36689381D02*
X52863619Y36594143D01*
X52863619Y36594143D02*
X52863619Y36498905D01*
X52863619Y36498905D02*
X52911238Y36403667D01*
X52911238Y36403667D02*
X52958857Y36356048D01*
X52958857Y36356048D02*
X53054095Y36308429D01*
X53054095Y36308429D02*
X53244571Y36260810D01*
X53244571Y36260810D02*
X53339809Y36213191D01*
X53339809Y36213191D02*
X53387428Y36165572D01*
X53387428Y36165572D02*
X53435047Y36070334D01*
X53435047Y36070334D02*
X53435047Y35975096D01*
X53435047Y35975096D02*
X53387428Y35879858D01*
X53387428Y35879858D02*
X53339809Y35832239D01*
X53339809Y35832239D02*
X53244571Y35784620D01*
X53244571Y35784620D02*
X53006476Y35784620D01*
X53006476Y35784620D02*
X52863619Y35832239D01*
X52577904Y36117953D02*
X52196952Y36117953D01*
X52435047Y35784620D02*
X52435047Y36641762D01*
X52435047Y36641762D02*
X52387428Y36737000D01*
X52387428Y36737000D02*
X52292190Y36784620D01*
X52292190Y36784620D02*
X52196952Y36784620D01*
X51435047Y36784620D02*
X51435047Y36260810D01*
X51435047Y36260810D02*
X51482666Y36165572D01*
X51482666Y36165572D02*
X51577904Y36117953D01*
X51577904Y36117953D02*
X51768380Y36117953D01*
X51768380Y36117953D02*
X51863618Y36165572D01*
X51435047Y36737000D02*
X51530285Y36784620D01*
X51530285Y36784620D02*
X51768380Y36784620D01*
X51768380Y36784620D02*
X51863618Y36737000D01*
X51863618Y36737000D02*
X51911237Y36641762D01*
X51911237Y36641762D02*
X51911237Y36546524D01*
X51911237Y36546524D02*
X51863618Y36451286D01*
X51863618Y36451286D02*
X51768380Y36403667D01*
X51768380Y36403667D02*
X51530285Y36403667D01*
X51530285Y36403667D02*
X51435047Y36356048D01*
X50958856Y36784620D02*
X50958856Y36117953D01*
X50958856Y36308429D02*
X50911237Y36213191D01*
X50911237Y36213191D02*
X50863618Y36165572D01*
X50863618Y36165572D02*
X50768380Y36117953D01*
X50768380Y36117953D02*
X50673142Y36117953D01*
X50482665Y36117953D02*
X50101713Y36117953D01*
X50339808Y35784620D02*
X50339808Y36641762D01*
X50339808Y36641762D02*
X50292189Y36737000D01*
X50292189Y36737000D02*
X50196951Y36784620D01*
X50196951Y36784620D02*
X50101713Y36784620D01*
D10*
X9607666Y15415953D02*
X9874332Y15415953D01*
X9988618Y14996905D02*
X9607666Y14996905D01*
X9607666Y14996905D02*
X9607666Y15796905D01*
X9607666Y15796905D02*
X9988618Y15796905D01*
X10255285Y15796905D02*
X10788619Y14996905D01*
X10788619Y15796905D02*
X10255285Y14996905D01*
X11055285Y15720715D02*
X11093381Y15758810D01*
X11093381Y15758810D02*
X11169571Y15796905D01*
X11169571Y15796905D02*
X11360047Y15796905D01*
X11360047Y15796905D02*
X11436238Y15758810D01*
X11436238Y15758810D02*
X11474333Y15720715D01*
X11474333Y15720715D02*
X11512428Y15644524D01*
X11512428Y15644524D02*
X11512428Y15568334D01*
X11512428Y15568334D02*
X11474333Y15454048D01*
X11474333Y15454048D02*
X11017190Y14996905D01*
X11017190Y14996905D02*
X11512428Y14996905D01*
X66310000Y3458381D02*
X66500476Y3458381D01*
X66500476Y3458381D02*
X66595714Y3410762D01*
X66595714Y3410762D02*
X66690952Y3315524D01*
X66690952Y3315524D02*
X66738571Y3125048D01*
X66738571Y3125048D02*
X66738571Y2791715D01*
X66738571Y2791715D02*
X66690952Y2601239D01*
X66690952Y2601239D02*
X66595714Y2506000D01*
X66595714Y2506000D02*
X66500476Y2458381D01*
X66500476Y2458381D02*
X66310000Y2458381D01*
X66310000Y2458381D02*
X66214762Y2506000D01*
X66214762Y2506000D02*
X66119524Y2601239D01*
X66119524Y2601239D02*
X66071905Y2791715D01*
X66071905Y2791715D02*
X66071905Y3125048D01*
X66071905Y3125048D02*
X66119524Y3315524D01*
X66119524Y3315524D02*
X66214762Y3410762D01*
X66214762Y3410762D02*
X66310000Y3458381D01*
X67167143Y3458381D02*
X67167143Y2648858D01*
X67167143Y2648858D02*
X67214762Y2553620D01*
X67214762Y2553620D02*
X67262381Y2506000D01*
X67262381Y2506000D02*
X67357619Y2458381D01*
X67357619Y2458381D02*
X67548095Y2458381D01*
X67548095Y2458381D02*
X67643333Y2506000D01*
X67643333Y2506000D02*
X67690952Y2553620D01*
X67690952Y2553620D02*
X67738571Y2648858D01*
X67738571Y2648858D02*
X67738571Y3458381D01*
X68071905Y3458381D02*
X68643333Y3458381D01*
X68357619Y2458381D02*
X68357619Y3458381D01*
X3286191Y2394881D02*
X3286191Y3394881D01*
X3762381Y2394881D02*
X3762381Y3394881D01*
X3762381Y3394881D02*
X4333809Y2394881D01*
X4333809Y2394881D02*
X4333809Y3394881D01*
D12*
X18033999Y36308429D02*
X18033999Y36784620D01*
X18367332Y35784620D02*
X18033999Y36308429D01*
X18033999Y36308429D02*
X17700666Y35784620D01*
D10*
%TO.C,RN2*%
X62693619Y9535905D02*
X62426952Y9916858D01*
X62236476Y9535905D02*
X62236476Y10335905D01*
X62236476Y10335905D02*
X62541238Y10335905D01*
X62541238Y10335905D02*
X62617428Y10297810D01*
X62617428Y10297810D02*
X62655523Y10259715D01*
X62655523Y10259715D02*
X62693619Y10183524D01*
X62693619Y10183524D02*
X62693619Y10069239D01*
X62693619Y10069239D02*
X62655523Y9993048D01*
X62655523Y9993048D02*
X62617428Y9954953D01*
X62617428Y9954953D02*
X62541238Y9916858D01*
X62541238Y9916858D02*
X62236476Y9916858D01*
X63036476Y9535905D02*
X63036476Y10335905D01*
X63036476Y10335905D02*
X63493619Y9535905D01*
X63493619Y9535905D02*
X63493619Y10335905D01*
X63836475Y10259715D02*
X63874571Y10297810D01*
X63874571Y10297810D02*
X63950761Y10335905D01*
X63950761Y10335905D02*
X64141237Y10335905D01*
X64141237Y10335905D02*
X64217428Y10297810D01*
X64217428Y10297810D02*
X64255523Y10259715D01*
X64255523Y10259715D02*
X64293618Y10183524D01*
X64293618Y10183524D02*
X64293618Y10107334D01*
X64293618Y10107334D02*
X64255523Y9993048D01*
X64255523Y9993048D02*
X63798380Y9535905D01*
X63798380Y9535905D02*
X64293618Y9535905D01*
%TO.C,RN1*%
X50501619Y9510505D02*
X50234952Y9891458D01*
X50044476Y9510505D02*
X50044476Y10310505D01*
X50044476Y10310505D02*
X50349238Y10310505D01*
X50349238Y10310505D02*
X50425428Y10272410D01*
X50425428Y10272410D02*
X50463523Y10234315D01*
X50463523Y10234315D02*
X50501619Y10158124D01*
X50501619Y10158124D02*
X50501619Y10043839D01*
X50501619Y10043839D02*
X50463523Y9967648D01*
X50463523Y9967648D02*
X50425428Y9929553D01*
X50425428Y9929553D02*
X50349238Y9891458D01*
X50349238Y9891458D02*
X50044476Y9891458D01*
X50844476Y9510505D02*
X50844476Y10310505D01*
X50844476Y10310505D02*
X51301619Y9510505D01*
X51301619Y9510505D02*
X51301619Y10310505D01*
X52101618Y9510505D02*
X51644475Y9510505D01*
X51873047Y9510505D02*
X51873047Y10310505D01*
X51873047Y10310505D02*
X51796856Y10196220D01*
X51796856Y10196220D02*
X51720666Y10120029D01*
X51720666Y10120029D02*
X51644475Y10081934D01*
%TO.C,RN4*%
X44532619Y5040105D02*
X44265952Y5421058D01*
X44075476Y5040105D02*
X44075476Y5840105D01*
X44075476Y5840105D02*
X44380238Y5840105D01*
X44380238Y5840105D02*
X44456428Y5802010D01*
X44456428Y5802010D02*
X44494523Y5763915D01*
X44494523Y5763915D02*
X44532619Y5687724D01*
X44532619Y5687724D02*
X44532619Y5573439D01*
X44532619Y5573439D02*
X44494523Y5497248D01*
X44494523Y5497248D02*
X44456428Y5459153D01*
X44456428Y5459153D02*
X44380238Y5421058D01*
X44380238Y5421058D02*
X44075476Y5421058D01*
X44875476Y5040105D02*
X44875476Y5840105D01*
X44875476Y5840105D02*
X45332619Y5040105D01*
X45332619Y5040105D02*
X45332619Y5840105D01*
X46056428Y5573439D02*
X46056428Y5040105D01*
X45865952Y5878200D02*
X45675475Y5306772D01*
X45675475Y5306772D02*
X46170714Y5306772D01*
%TO.C,RN5*%
X14243119Y9662905D02*
X13976452Y10043858D01*
X13785976Y9662905D02*
X13785976Y10462905D01*
X13785976Y10462905D02*
X14090738Y10462905D01*
X14090738Y10462905D02*
X14166928Y10424810D01*
X14166928Y10424810D02*
X14205023Y10386715D01*
X14205023Y10386715D02*
X14243119Y10310524D01*
X14243119Y10310524D02*
X14243119Y10196239D01*
X14243119Y10196239D02*
X14205023Y10120048D01*
X14205023Y10120048D02*
X14166928Y10081953D01*
X14166928Y10081953D02*
X14090738Y10043858D01*
X14090738Y10043858D02*
X13785976Y10043858D01*
X14585976Y9662905D02*
X14585976Y10462905D01*
X14585976Y10462905D02*
X15043119Y9662905D01*
X15043119Y9662905D02*
X15043119Y10462905D01*
X15805023Y10462905D02*
X15424071Y10462905D01*
X15424071Y10462905D02*
X15385975Y10081953D01*
X15385975Y10081953D02*
X15424071Y10120048D01*
X15424071Y10120048D02*
X15500261Y10158143D01*
X15500261Y10158143D02*
X15690737Y10158143D01*
X15690737Y10158143D02*
X15766928Y10120048D01*
X15766928Y10120048D02*
X15805023Y10081953D01*
X15805023Y10081953D02*
X15843118Y10005762D01*
X15843118Y10005762D02*
X15843118Y9815286D01*
X15843118Y9815286D02*
X15805023Y9739096D01*
X15805023Y9739096D02*
X15766928Y9701000D01*
X15766928Y9701000D02*
X15690737Y9662905D01*
X15690737Y9662905D02*
X15500261Y9662905D01*
X15500261Y9662905D02*
X15424071Y9701000D01*
X15424071Y9701000D02*
X15385975Y9739096D01*
%TO.C,RN6*%
X26498619Y4918185D02*
X26231952Y5299138D01*
X26041476Y4918185D02*
X26041476Y5718185D01*
X26041476Y5718185D02*
X26346238Y5718185D01*
X26346238Y5718185D02*
X26422428Y5680090D01*
X26422428Y5680090D02*
X26460523Y5641995D01*
X26460523Y5641995D02*
X26498619Y5565804D01*
X26498619Y5565804D02*
X26498619Y5451519D01*
X26498619Y5451519D02*
X26460523Y5375328D01*
X26460523Y5375328D02*
X26422428Y5337233D01*
X26422428Y5337233D02*
X26346238Y5299138D01*
X26346238Y5299138D02*
X26041476Y5299138D01*
X26841476Y4918185D02*
X26841476Y5718185D01*
X26841476Y5718185D02*
X27298619Y4918185D01*
X27298619Y4918185D02*
X27298619Y5718185D01*
X28022428Y5718185D02*
X27870047Y5718185D01*
X27870047Y5718185D02*
X27793856Y5680090D01*
X27793856Y5680090D02*
X27755761Y5641995D01*
X27755761Y5641995D02*
X27679571Y5527709D01*
X27679571Y5527709D02*
X27641475Y5375328D01*
X27641475Y5375328D02*
X27641475Y5070566D01*
X27641475Y5070566D02*
X27679571Y4994376D01*
X27679571Y4994376D02*
X27717666Y4956280D01*
X27717666Y4956280D02*
X27793856Y4918185D01*
X27793856Y4918185D02*
X27946237Y4918185D01*
X27946237Y4918185D02*
X28022428Y4956280D01*
X28022428Y4956280D02*
X28060523Y4994376D01*
X28060523Y4994376D02*
X28098618Y5070566D01*
X28098618Y5070566D02*
X28098618Y5261042D01*
X28098618Y5261042D02*
X28060523Y5337233D01*
X28060523Y5337233D02*
X28022428Y5375328D01*
X28022428Y5375328D02*
X27946237Y5413423D01*
X27946237Y5413423D02*
X27793856Y5413423D01*
X27793856Y5413423D02*
X27717666Y5375328D01*
X27717666Y5375328D02*
X27679571Y5337233D01*
X27679571Y5337233D02*
X27641475Y5261042D01*
%TO.C,RN3*%
X32213619Y9485105D02*
X31946952Y9866058D01*
X31756476Y9485105D02*
X31756476Y10285105D01*
X31756476Y10285105D02*
X32061238Y10285105D01*
X32061238Y10285105D02*
X32137428Y10247010D01*
X32137428Y10247010D02*
X32175523Y10208915D01*
X32175523Y10208915D02*
X32213619Y10132724D01*
X32213619Y10132724D02*
X32213619Y10018439D01*
X32213619Y10018439D02*
X32175523Y9942248D01*
X32175523Y9942248D02*
X32137428Y9904153D01*
X32137428Y9904153D02*
X32061238Y9866058D01*
X32061238Y9866058D02*
X31756476Y9866058D01*
X32556476Y9485105D02*
X32556476Y10285105D01*
X32556476Y10285105D02*
X33013619Y9485105D01*
X33013619Y9485105D02*
X33013619Y10285105D01*
X33318380Y10285105D02*
X33813618Y10285105D01*
X33813618Y10285105D02*
X33546952Y9980343D01*
X33546952Y9980343D02*
X33661237Y9980343D01*
X33661237Y9980343D02*
X33737428Y9942248D01*
X33737428Y9942248D02*
X33775523Y9904153D01*
X33775523Y9904153D02*
X33813618Y9827962D01*
X33813618Y9827962D02*
X33813618Y9637486D01*
X33813618Y9637486D02*
X33775523Y9561296D01*
X33775523Y9561296D02*
X33737428Y9523200D01*
X33737428Y9523200D02*
X33661237Y9485105D01*
X33661237Y9485105D02*
X33432666Y9485105D01*
X33432666Y9485105D02*
X33356475Y9523200D01*
X33356475Y9523200D02*
X33318380Y9561296D01*
%TO.C,C1*%
X62604667Y13803096D02*
X62566571Y13765000D01*
X62566571Y13765000D02*
X62452286Y13726905D01*
X62452286Y13726905D02*
X62376095Y13726905D01*
X62376095Y13726905D02*
X62261809Y13765000D01*
X62261809Y13765000D02*
X62185619Y13841191D01*
X62185619Y13841191D02*
X62147524Y13917381D01*
X62147524Y13917381D02*
X62109428Y14069762D01*
X62109428Y14069762D02*
X62109428Y14184048D01*
X62109428Y14184048D02*
X62147524Y14336429D01*
X62147524Y14336429D02*
X62185619Y14412620D01*
X62185619Y14412620D02*
X62261809Y14488810D01*
X62261809Y14488810D02*
X62376095Y14526905D01*
X62376095Y14526905D02*
X62452286Y14526905D01*
X62452286Y14526905D02*
X62566571Y14488810D01*
X62566571Y14488810D02*
X62604667Y14450715D01*
X63366571Y13726905D02*
X62909428Y13726905D01*
X63138000Y13726905D02*
X63138000Y14526905D01*
X63138000Y14526905D02*
X63061809Y14412620D01*
X63061809Y14412620D02*
X62985619Y14336429D01*
X62985619Y14336429D02*
X62909428Y14298334D01*
D12*
%TO.C,74HC165_1*%
X52903952Y2188381D02*
X53570618Y2188381D01*
X53570618Y2188381D02*
X53142047Y1188381D01*
X54380142Y1855048D02*
X54380142Y1188381D01*
X54142047Y2236000D02*
X53903952Y1521715D01*
X53903952Y1521715D02*
X54522999Y1521715D01*
X54903952Y1188381D02*
X54903952Y2188381D01*
X54903952Y1712191D02*
X55475380Y1712191D01*
X55475380Y1188381D02*
X55475380Y2188381D01*
X56522999Y1283620D02*
X56475380Y1236000D01*
X56475380Y1236000D02*
X56332523Y1188381D01*
X56332523Y1188381D02*
X56237285Y1188381D01*
X56237285Y1188381D02*
X56094428Y1236000D01*
X56094428Y1236000D02*
X55999190Y1331239D01*
X55999190Y1331239D02*
X55951571Y1426477D01*
X55951571Y1426477D02*
X55903952Y1616953D01*
X55903952Y1616953D02*
X55903952Y1759810D01*
X55903952Y1759810D02*
X55951571Y1950286D01*
X55951571Y1950286D02*
X55999190Y2045524D01*
X55999190Y2045524D02*
X56094428Y2140762D01*
X56094428Y2140762D02*
X56237285Y2188381D01*
X56237285Y2188381D02*
X56332523Y2188381D01*
X56332523Y2188381D02*
X56475380Y2140762D01*
X56475380Y2140762D02*
X56522999Y2093143D01*
X57475380Y1188381D02*
X56903952Y1188381D01*
X57189666Y1188381D02*
X57189666Y2188381D01*
X57189666Y2188381D02*
X57094428Y2045524D01*
X57094428Y2045524D02*
X56999190Y1950286D01*
X56999190Y1950286D02*
X56903952Y1902667D01*
X58332523Y2188381D02*
X58142047Y2188381D01*
X58142047Y2188381D02*
X58046809Y2140762D01*
X58046809Y2140762D02*
X57999190Y2093143D01*
X57999190Y2093143D02*
X57903952Y1950286D01*
X57903952Y1950286D02*
X57856333Y1759810D01*
X57856333Y1759810D02*
X57856333Y1378858D01*
X57856333Y1378858D02*
X57903952Y1283620D01*
X57903952Y1283620D02*
X57951571Y1236000D01*
X57951571Y1236000D02*
X58046809Y1188381D01*
X58046809Y1188381D02*
X58237285Y1188381D01*
X58237285Y1188381D02*
X58332523Y1236000D01*
X58332523Y1236000D02*
X58380142Y1283620D01*
X58380142Y1283620D02*
X58427761Y1378858D01*
X58427761Y1378858D02*
X58427761Y1616953D01*
X58427761Y1616953D02*
X58380142Y1712191D01*
X58380142Y1712191D02*
X58332523Y1759810D01*
X58332523Y1759810D02*
X58237285Y1807429D01*
X58237285Y1807429D02*
X58046809Y1807429D01*
X58046809Y1807429D02*
X57951571Y1759810D01*
X57951571Y1759810D02*
X57903952Y1712191D01*
X57903952Y1712191D02*
X57856333Y1616953D01*
X59332523Y2188381D02*
X58856333Y2188381D01*
X58856333Y2188381D02*
X58808714Y1712191D01*
X58808714Y1712191D02*
X58856333Y1759810D01*
X58856333Y1759810D02*
X58951571Y1807429D01*
X58951571Y1807429D02*
X59189666Y1807429D01*
X59189666Y1807429D02*
X59284904Y1759810D01*
X59284904Y1759810D02*
X59332523Y1712191D01*
X59332523Y1712191D02*
X59380142Y1616953D01*
X59380142Y1616953D02*
X59380142Y1378858D01*
X59380142Y1378858D02*
X59332523Y1283620D01*
X59332523Y1283620D02*
X59284904Y1236000D01*
X59284904Y1236000D02*
X59189666Y1188381D01*
X59189666Y1188381D02*
X58951571Y1188381D01*
X58951571Y1188381D02*
X58856333Y1236000D01*
X58856333Y1236000D02*
X58808714Y1283620D01*
X59570619Y1093143D02*
X60332523Y1093143D01*
X61094428Y1188381D02*
X60523000Y1188381D01*
X60808714Y1188381D02*
X60808714Y2188381D01*
X60808714Y2188381D02*
X60713476Y2045524D01*
X60713476Y2045524D02*
X60618238Y1950286D01*
X60618238Y1950286D02*
X60523000Y1902667D01*
%TO.C,74HC165_2*%
X34806452Y2124881D02*
X35473118Y2124881D01*
X35473118Y2124881D02*
X35044547Y1124881D01*
X36282642Y1791548D02*
X36282642Y1124881D01*
X36044547Y2172500D02*
X35806452Y1458215D01*
X35806452Y1458215D02*
X36425499Y1458215D01*
X36806452Y1124881D02*
X36806452Y2124881D01*
X36806452Y1648691D02*
X37377880Y1648691D01*
X37377880Y1124881D02*
X37377880Y2124881D01*
X38425499Y1220120D02*
X38377880Y1172500D01*
X38377880Y1172500D02*
X38235023Y1124881D01*
X38235023Y1124881D02*
X38139785Y1124881D01*
X38139785Y1124881D02*
X37996928Y1172500D01*
X37996928Y1172500D02*
X37901690Y1267739D01*
X37901690Y1267739D02*
X37854071Y1362977D01*
X37854071Y1362977D02*
X37806452Y1553453D01*
X37806452Y1553453D02*
X37806452Y1696310D01*
X37806452Y1696310D02*
X37854071Y1886786D01*
X37854071Y1886786D02*
X37901690Y1982024D01*
X37901690Y1982024D02*
X37996928Y2077262D01*
X37996928Y2077262D02*
X38139785Y2124881D01*
X38139785Y2124881D02*
X38235023Y2124881D01*
X38235023Y2124881D02*
X38377880Y2077262D01*
X38377880Y2077262D02*
X38425499Y2029643D01*
X39377880Y1124881D02*
X38806452Y1124881D01*
X39092166Y1124881D02*
X39092166Y2124881D01*
X39092166Y2124881D02*
X38996928Y1982024D01*
X38996928Y1982024D02*
X38901690Y1886786D01*
X38901690Y1886786D02*
X38806452Y1839167D01*
X40235023Y2124881D02*
X40044547Y2124881D01*
X40044547Y2124881D02*
X39949309Y2077262D01*
X39949309Y2077262D02*
X39901690Y2029643D01*
X39901690Y2029643D02*
X39806452Y1886786D01*
X39806452Y1886786D02*
X39758833Y1696310D01*
X39758833Y1696310D02*
X39758833Y1315358D01*
X39758833Y1315358D02*
X39806452Y1220120D01*
X39806452Y1220120D02*
X39854071Y1172500D01*
X39854071Y1172500D02*
X39949309Y1124881D01*
X39949309Y1124881D02*
X40139785Y1124881D01*
X40139785Y1124881D02*
X40235023Y1172500D01*
X40235023Y1172500D02*
X40282642Y1220120D01*
X40282642Y1220120D02*
X40330261Y1315358D01*
X40330261Y1315358D02*
X40330261Y1553453D01*
X40330261Y1553453D02*
X40282642Y1648691D01*
X40282642Y1648691D02*
X40235023Y1696310D01*
X40235023Y1696310D02*
X40139785Y1743929D01*
X40139785Y1743929D02*
X39949309Y1743929D01*
X39949309Y1743929D02*
X39854071Y1696310D01*
X39854071Y1696310D02*
X39806452Y1648691D01*
X39806452Y1648691D02*
X39758833Y1553453D01*
X41235023Y2124881D02*
X40758833Y2124881D01*
X40758833Y2124881D02*
X40711214Y1648691D01*
X40711214Y1648691D02*
X40758833Y1696310D01*
X40758833Y1696310D02*
X40854071Y1743929D01*
X40854071Y1743929D02*
X41092166Y1743929D01*
X41092166Y1743929D02*
X41187404Y1696310D01*
X41187404Y1696310D02*
X41235023Y1648691D01*
X41235023Y1648691D02*
X41282642Y1553453D01*
X41282642Y1553453D02*
X41282642Y1315358D01*
X41282642Y1315358D02*
X41235023Y1220120D01*
X41235023Y1220120D02*
X41187404Y1172500D01*
X41187404Y1172500D02*
X41092166Y1124881D01*
X41092166Y1124881D02*
X40854071Y1124881D01*
X40854071Y1124881D02*
X40758833Y1172500D01*
X40758833Y1172500D02*
X40711214Y1220120D01*
X41473119Y1029643D02*
X42235023Y1029643D01*
X42425500Y2029643D02*
X42473119Y2077262D01*
X42473119Y2077262D02*
X42568357Y2124881D01*
X42568357Y2124881D02*
X42806452Y2124881D01*
X42806452Y2124881D02*
X42901690Y2077262D01*
X42901690Y2077262D02*
X42949309Y2029643D01*
X42949309Y2029643D02*
X42996928Y1934405D01*
X42996928Y1934405D02*
X42996928Y1839167D01*
X42996928Y1839167D02*
X42949309Y1696310D01*
X42949309Y1696310D02*
X42377881Y1124881D01*
X42377881Y1124881D02*
X42996928Y1124881D01*
%TO.C,74HC165_3*%
X16772452Y2124881D02*
X17439118Y2124881D01*
X17439118Y2124881D02*
X17010547Y1124881D01*
X18248642Y1791548D02*
X18248642Y1124881D01*
X18010547Y2172500D02*
X17772452Y1458215D01*
X17772452Y1458215D02*
X18391499Y1458215D01*
X18772452Y1124881D02*
X18772452Y2124881D01*
X18772452Y1648691D02*
X19343880Y1648691D01*
X19343880Y1124881D02*
X19343880Y2124881D01*
X20391499Y1220120D02*
X20343880Y1172500D01*
X20343880Y1172500D02*
X20201023Y1124881D01*
X20201023Y1124881D02*
X20105785Y1124881D01*
X20105785Y1124881D02*
X19962928Y1172500D01*
X19962928Y1172500D02*
X19867690Y1267739D01*
X19867690Y1267739D02*
X19820071Y1362977D01*
X19820071Y1362977D02*
X19772452Y1553453D01*
X19772452Y1553453D02*
X19772452Y1696310D01*
X19772452Y1696310D02*
X19820071Y1886786D01*
X19820071Y1886786D02*
X19867690Y1982024D01*
X19867690Y1982024D02*
X19962928Y2077262D01*
X19962928Y2077262D02*
X20105785Y2124881D01*
X20105785Y2124881D02*
X20201023Y2124881D01*
X20201023Y2124881D02*
X20343880Y2077262D01*
X20343880Y2077262D02*
X20391499Y2029643D01*
X21343880Y1124881D02*
X20772452Y1124881D01*
X21058166Y1124881D02*
X21058166Y2124881D01*
X21058166Y2124881D02*
X20962928Y1982024D01*
X20962928Y1982024D02*
X20867690Y1886786D01*
X20867690Y1886786D02*
X20772452Y1839167D01*
X22201023Y2124881D02*
X22010547Y2124881D01*
X22010547Y2124881D02*
X21915309Y2077262D01*
X21915309Y2077262D02*
X21867690Y2029643D01*
X21867690Y2029643D02*
X21772452Y1886786D01*
X21772452Y1886786D02*
X21724833Y1696310D01*
X21724833Y1696310D02*
X21724833Y1315358D01*
X21724833Y1315358D02*
X21772452Y1220120D01*
X21772452Y1220120D02*
X21820071Y1172500D01*
X21820071Y1172500D02*
X21915309Y1124881D01*
X21915309Y1124881D02*
X22105785Y1124881D01*
X22105785Y1124881D02*
X22201023Y1172500D01*
X22201023Y1172500D02*
X22248642Y1220120D01*
X22248642Y1220120D02*
X22296261Y1315358D01*
X22296261Y1315358D02*
X22296261Y1553453D01*
X22296261Y1553453D02*
X22248642Y1648691D01*
X22248642Y1648691D02*
X22201023Y1696310D01*
X22201023Y1696310D02*
X22105785Y1743929D01*
X22105785Y1743929D02*
X21915309Y1743929D01*
X21915309Y1743929D02*
X21820071Y1696310D01*
X21820071Y1696310D02*
X21772452Y1648691D01*
X21772452Y1648691D02*
X21724833Y1553453D01*
X23201023Y2124881D02*
X22724833Y2124881D01*
X22724833Y2124881D02*
X22677214Y1648691D01*
X22677214Y1648691D02*
X22724833Y1696310D01*
X22724833Y1696310D02*
X22820071Y1743929D01*
X22820071Y1743929D02*
X23058166Y1743929D01*
X23058166Y1743929D02*
X23153404Y1696310D01*
X23153404Y1696310D02*
X23201023Y1648691D01*
X23201023Y1648691D02*
X23248642Y1553453D01*
X23248642Y1553453D02*
X23248642Y1315358D01*
X23248642Y1315358D02*
X23201023Y1220120D01*
X23201023Y1220120D02*
X23153404Y1172500D01*
X23153404Y1172500D02*
X23058166Y1124881D01*
X23058166Y1124881D02*
X22820071Y1124881D01*
X22820071Y1124881D02*
X22724833Y1172500D01*
X22724833Y1172500D02*
X22677214Y1220120D01*
X23439119Y1029643D02*
X24201023Y1029643D01*
X24343881Y2124881D02*
X24962928Y2124881D01*
X24962928Y2124881D02*
X24629595Y1743929D01*
X24629595Y1743929D02*
X24772452Y1743929D01*
X24772452Y1743929D02*
X24867690Y1696310D01*
X24867690Y1696310D02*
X24915309Y1648691D01*
X24915309Y1648691D02*
X24962928Y1553453D01*
X24962928Y1553453D02*
X24962928Y1315358D01*
X24962928Y1315358D02*
X24915309Y1220120D01*
X24915309Y1220120D02*
X24867690Y1172500D01*
X24867690Y1172500D02*
X24772452Y1124881D01*
X24772452Y1124881D02*
X24486738Y1124881D01*
X24486738Y1124881D02*
X24391500Y1172500D01*
X24391500Y1172500D02*
X24343881Y1220120D01*
D10*
%TO.C,C2*%
X44443667Y13803096D02*
X44405571Y13765000D01*
X44405571Y13765000D02*
X44291286Y13726905D01*
X44291286Y13726905D02*
X44215095Y13726905D01*
X44215095Y13726905D02*
X44100809Y13765000D01*
X44100809Y13765000D02*
X44024619Y13841191D01*
X44024619Y13841191D02*
X43986524Y13917381D01*
X43986524Y13917381D02*
X43948428Y14069762D01*
X43948428Y14069762D02*
X43948428Y14184048D01*
X43948428Y14184048D02*
X43986524Y14336429D01*
X43986524Y14336429D02*
X44024619Y14412620D01*
X44024619Y14412620D02*
X44100809Y14488810D01*
X44100809Y14488810D02*
X44215095Y14526905D01*
X44215095Y14526905D02*
X44291286Y14526905D01*
X44291286Y14526905D02*
X44405571Y14488810D01*
X44405571Y14488810D02*
X44443667Y14450715D01*
X44748428Y14450715D02*
X44786524Y14488810D01*
X44786524Y14488810D02*
X44862714Y14526905D01*
X44862714Y14526905D02*
X45053190Y14526905D01*
X45053190Y14526905D02*
X45129381Y14488810D01*
X45129381Y14488810D02*
X45167476Y14450715D01*
X45167476Y14450715D02*
X45205571Y14374524D01*
X45205571Y14374524D02*
X45205571Y14298334D01*
X45205571Y14298334D02*
X45167476Y14184048D01*
X45167476Y14184048D02*
X44710333Y13726905D01*
X44710333Y13726905D02*
X45205571Y13726905D01*
%TO.C,C3*%
X26409667Y13803096D02*
X26371571Y13765000D01*
X26371571Y13765000D02*
X26257286Y13726905D01*
X26257286Y13726905D02*
X26181095Y13726905D01*
X26181095Y13726905D02*
X26066809Y13765000D01*
X26066809Y13765000D02*
X25990619Y13841191D01*
X25990619Y13841191D02*
X25952524Y13917381D01*
X25952524Y13917381D02*
X25914428Y14069762D01*
X25914428Y14069762D02*
X25914428Y14184048D01*
X25914428Y14184048D02*
X25952524Y14336429D01*
X25952524Y14336429D02*
X25990619Y14412620D01*
X25990619Y14412620D02*
X26066809Y14488810D01*
X26066809Y14488810D02*
X26181095Y14526905D01*
X26181095Y14526905D02*
X26257286Y14526905D01*
X26257286Y14526905D02*
X26371571Y14488810D01*
X26371571Y14488810D02*
X26409667Y14450715D01*
X26676333Y14526905D02*
X27171571Y14526905D01*
X27171571Y14526905D02*
X26904905Y14222143D01*
X26904905Y14222143D02*
X27019190Y14222143D01*
X27019190Y14222143D02*
X27095381Y14184048D01*
X27095381Y14184048D02*
X27133476Y14145953D01*
X27133476Y14145953D02*
X27171571Y14069762D01*
X27171571Y14069762D02*
X27171571Y13879286D01*
X27171571Y13879286D02*
X27133476Y13803096D01*
X27133476Y13803096D02*
X27095381Y13765000D01*
X27095381Y13765000D02*
X27019190Y13726905D01*
X27019190Y13726905D02*
X26790619Y13726905D01*
X26790619Y13726905D02*
X26714428Y13765000D01*
X26714428Y13765000D02*
X26676333Y13803096D01*
%TO.C,JP2*%
X11388000Y4502167D02*
X11388000Y5202167D01*
X11388000Y5202167D02*
X11554667Y5202167D01*
X11554667Y5202167D02*
X11654667Y5168834D01*
X11654667Y5168834D02*
X11721334Y5102167D01*
X11721334Y5102167D02*
X11754667Y5035500D01*
X11754667Y5035500D02*
X11788000Y4902167D01*
X11788000Y4902167D02*
X11788000Y4802167D01*
X11788000Y4802167D02*
X11754667Y4668834D01*
X11754667Y4668834D02*
X11721334Y4602167D01*
X11721334Y4602167D02*
X11654667Y4535500D01*
X11654667Y4535500D02*
X11554667Y4502167D01*
X11554667Y4502167D02*
X11388000Y4502167D01*
X12088000Y4502167D02*
X12088000Y5202167D01*
X12088000Y5202167D02*
X12488000Y4502167D01*
X12488000Y4502167D02*
X12488000Y5202167D01*
X5800000Y5202167D02*
X5800000Y4635500D01*
X5800000Y4635500D02*
X5833334Y4568834D01*
X5833334Y4568834D02*
X5866667Y4535500D01*
X5866667Y4535500D02*
X5933334Y4502167D01*
X5933334Y4502167D02*
X6066667Y4502167D01*
X6066667Y4502167D02*
X6133334Y4535500D01*
X6133334Y4535500D02*
X6166667Y4568834D01*
X6166667Y4568834D02*
X6200000Y4635500D01*
X6200000Y4635500D02*
X6200000Y5202167D01*
X6533333Y4502167D02*
X6533333Y5202167D01*
X6533333Y5202167D02*
X6800000Y5202167D01*
X6800000Y5202167D02*
X6866667Y5168834D01*
X6866667Y5168834D02*
X6900000Y5135500D01*
X6900000Y5135500D02*
X6933333Y5068834D01*
X6933333Y5068834D02*
X6933333Y4968834D01*
X6933333Y4968834D02*
X6900000Y4902167D01*
X6900000Y4902167D02*
X6866667Y4868834D01*
X6866667Y4868834D02*
X6800000Y4835500D01*
X6800000Y4835500D02*
X6533333Y4835500D01*
%TO.C,JP1*%
X5800000Y8616967D02*
X5800000Y9316967D01*
X5800000Y9316967D02*
X5966667Y9316967D01*
X5966667Y9316967D02*
X6066667Y9283634D01*
X6066667Y9283634D02*
X6133334Y9216967D01*
X6133334Y9216967D02*
X6166667Y9150300D01*
X6166667Y9150300D02*
X6200000Y9016967D01*
X6200000Y9016967D02*
X6200000Y8916967D01*
X6200000Y8916967D02*
X6166667Y8783634D01*
X6166667Y8783634D02*
X6133334Y8716967D01*
X6133334Y8716967D02*
X6066667Y8650300D01*
X6066667Y8650300D02*
X5966667Y8616967D01*
X5966667Y8616967D02*
X5800000Y8616967D01*
X6500000Y8616967D02*
X6500000Y9316967D01*
X6500000Y9316967D02*
X6900000Y8616967D01*
X6900000Y8616967D02*
X6900000Y9316967D01*
X11388000Y9316967D02*
X11388000Y8750300D01*
X11388000Y8750300D02*
X11421334Y8683634D01*
X11421334Y8683634D02*
X11454667Y8650300D01*
X11454667Y8650300D02*
X11521334Y8616967D01*
X11521334Y8616967D02*
X11654667Y8616967D01*
X11654667Y8616967D02*
X11721334Y8650300D01*
X11721334Y8650300D02*
X11754667Y8683634D01*
X11754667Y8683634D02*
X11788000Y8750300D01*
X11788000Y8750300D02*
X11788000Y9316967D01*
X12121333Y8616967D02*
X12121333Y9316967D01*
X12121333Y9316967D02*
X12388000Y9316967D01*
X12388000Y9316967D02*
X12454667Y9283634D01*
X12454667Y9283634D02*
X12488000Y9250300D01*
X12488000Y9250300D02*
X12521333Y9183634D01*
X12521333Y9183634D02*
X12521333Y9083634D01*
X12521333Y9083634D02*
X12488000Y9016967D01*
X12488000Y9016967D02*
X12454667Y8983634D01*
X12454667Y8983634D02*
X12388000Y8950300D01*
X12388000Y8950300D02*
X12121333Y8950300D01*
D13*
%TO.C,OUT1*%
X66869000Y16570000D02*
X68199000Y16570000D01*
X66869000Y3750000D02*
X69529000Y3750000D01*
X66869000Y15240000D02*
X66869000Y16570000D01*
X69529000Y13970000D02*
X69529000Y3750000D01*
X66869000Y13970000D02*
X69529000Y13970000D01*
X66869000Y13970000D02*
X66869000Y3750000D01*
%TO.C,RN2*%
X62846000Y5900000D02*
X63646000Y5900000D01*
X62846000Y9340000D02*
X63646000Y9340000D01*
%TO.C,RN1*%
X51327000Y9340000D02*
X50527000Y9340000D01*
X51327000Y5900000D02*
X50527000Y5900000D01*
%TO.C,RN4*%
X44685000Y6027000D02*
X45485000Y6027000D01*
X44685000Y9467000D02*
X45485000Y9467000D01*
%TO.C,RN5*%
X15195500Y6027000D02*
X14395500Y6027000D01*
X15195500Y9467000D02*
X14395500Y9467000D01*
%TO.C,RN6*%
X26651000Y9340000D02*
X27451000Y9340000D01*
X26651000Y5900000D02*
X27451000Y5900000D01*
%TO.C,RN3*%
X33166000Y5900000D02*
X32366000Y5900000D01*
X33166000Y9340000D02*
X32366000Y9340000D01*
%TO.C,C1*%
X62476748Y13435000D02*
X62999252Y13435000D01*
X62476748Y11965000D02*
X62999252Y11965000D01*
%TO.C,74HC165_1*%
X57023000Y12807000D02*
X53573000Y12807000D01*
X57023000Y12807000D02*
X58973000Y12807000D01*
X57023000Y2687000D02*
X58973000Y2687000D01*
X57023000Y2687000D02*
X55073000Y2687000D01*
%TO.C,74HC165_2*%
X38925500Y2623500D02*
X40875500Y2623500D01*
X38925500Y12743500D02*
X35475500Y12743500D01*
X38925500Y12743500D02*
X40875500Y12743500D01*
X38925500Y2623500D02*
X36975500Y2623500D01*
%TO.C,74HC165_3*%
X20891500Y12743500D02*
X22841500Y12743500D01*
X20891500Y2623500D02*
X22841500Y2623500D01*
X20891500Y12743500D02*
X17441500Y12743500D01*
X20891500Y2623500D02*
X18941500Y2623500D01*
%TO.C,C2*%
X44315748Y13435000D02*
X44838252Y13435000D01*
X44315748Y11965000D02*
X44838252Y11965000D01*
%TO.C,C3*%
X26281748Y13435000D02*
X26804252Y13435000D01*
X26281748Y11965000D02*
X26804252Y11965000D01*
%TO.C,J22*%
X54520000Y22126000D02*
X54520000Y23126000D01*
X53770000Y23126000D02*
X53770000Y22126000D01*
X53770000Y22126000D02*
X54520000Y22126000D01*
X54820000Y25476000D02*
X54820000Y26726000D01*
X53770000Y20626000D02*
X53770000Y18826000D01*
X53770000Y18826000D02*
X54520000Y18826000D01*
X49320000Y25676000D02*
X49320000Y22626000D01*
X52270000Y25676000D02*
X49320000Y25676000D01*
X54520000Y23126000D02*
X53770000Y23126000D01*
X54520000Y26426000D02*
X53770000Y26426000D01*
X52270000Y26426000D02*
X52270000Y25676000D01*
X54530000Y18816000D02*
X54530000Y26436000D01*
X54520000Y20626000D02*
X53770000Y20626000D01*
X48560000Y26436000D02*
X48560000Y18816000D01*
X52270000Y19576000D02*
X49320000Y19576000D01*
X53770000Y26426000D02*
X53770000Y24626000D01*
X49320000Y19576000D02*
X49320000Y22626000D01*
X54820000Y26726000D02*
X53570000Y26726000D01*
X54530000Y26436000D02*
X48560000Y26436000D01*
X54520000Y18826000D02*
X54520000Y20626000D01*
X54520000Y24626000D02*
X54520000Y26426000D01*
X53770000Y24626000D02*
X54520000Y24626000D01*
X48560000Y18816000D02*
X54530000Y18816000D01*
X52270000Y18826000D02*
X52270000Y19576000D01*
%TO.C,J23*%
X46912000Y26426000D02*
X46912000Y24626000D01*
X46912000Y22126000D02*
X47662000Y22126000D01*
X46912000Y18826000D02*
X47662000Y18826000D01*
X45412000Y19576000D02*
X42462000Y19576000D01*
X47662000Y22126000D02*
X47662000Y23126000D01*
X46912000Y20626000D02*
X46912000Y18826000D01*
X47662000Y23126000D02*
X46912000Y23126000D01*
X47962000Y25476000D02*
X47962000Y26726000D01*
X41702000Y26436000D02*
X41702000Y18816000D01*
X42462000Y25676000D02*
X42462000Y22626000D01*
X46912000Y24626000D02*
X47662000Y24626000D01*
X45412000Y18826000D02*
X45412000Y19576000D01*
X47662000Y18826000D02*
X47662000Y20626000D01*
X47672000Y18816000D02*
X47672000Y26436000D01*
X47662000Y24626000D02*
X47662000Y26426000D01*
X47662000Y20626000D02*
X46912000Y20626000D01*
X41702000Y18816000D02*
X47672000Y18816000D01*
X46912000Y23126000D02*
X46912000Y22126000D01*
X47662000Y26426000D02*
X46912000Y26426000D01*
X47962000Y26726000D02*
X46712000Y26726000D01*
X47672000Y26436000D02*
X41702000Y26436000D01*
X45412000Y25676000D02*
X42462000Y25676000D01*
X45412000Y26426000D02*
X45412000Y25676000D01*
X42462000Y19576000D02*
X42462000Y22626000D01*
%TO.C,J24*%
X38554000Y25676000D02*
X35604000Y25676000D01*
X40054000Y20626000D02*
X40054000Y18826000D01*
X34844000Y18816000D02*
X40814000Y18816000D01*
X40804000Y24626000D02*
X40804000Y26426000D01*
X40054000Y23126000D02*
X40054000Y22126000D01*
X40054000Y26426000D02*
X40054000Y24626000D01*
X40804000Y26426000D02*
X40054000Y26426000D01*
X41104000Y25476000D02*
X41104000Y26726000D01*
X40804000Y23126000D02*
X40054000Y23126000D01*
X41104000Y26726000D02*
X39854000Y26726000D01*
X38554000Y26426000D02*
X38554000Y25676000D01*
X40814000Y26436000D02*
X34844000Y26436000D01*
X38554000Y19576000D02*
X35604000Y19576000D01*
X35604000Y25676000D02*
X35604000Y22626000D01*
X40054000Y18826000D02*
X40804000Y18826000D01*
X40054000Y24626000D02*
X40804000Y24626000D01*
X40054000Y22126000D02*
X40804000Y22126000D01*
X40814000Y18816000D02*
X40814000Y26436000D01*
X34844000Y26436000D02*
X34844000Y18816000D01*
X35604000Y19576000D02*
X35604000Y22626000D01*
X40804000Y18826000D02*
X40804000Y20626000D01*
X38554000Y18826000D02*
X38554000Y19576000D01*
X40804000Y22126000D02*
X40804000Y23126000D01*
X40804000Y20626000D02*
X40054000Y20626000D01*
%TO.C,J25*%
X28746000Y25676000D02*
X28746000Y22626000D01*
X27986000Y26436000D02*
X27986000Y18816000D01*
X33956000Y18816000D02*
X33956000Y26436000D01*
X33946000Y22126000D02*
X33946000Y23126000D01*
X31696000Y26426000D02*
X31696000Y25676000D01*
X33946000Y26426000D02*
X33196000Y26426000D01*
X33196000Y22126000D02*
X33946000Y22126000D01*
X33956000Y26436000D02*
X27986000Y26436000D01*
X33196000Y20626000D02*
X33196000Y18826000D01*
X33196000Y26426000D02*
X33196000Y24626000D01*
X33196000Y24626000D02*
X33946000Y24626000D01*
X33196000Y23126000D02*
X33196000Y22126000D01*
X33946000Y24626000D02*
X33946000Y26426000D01*
X31696000Y25676000D02*
X28746000Y25676000D01*
X33196000Y18826000D02*
X33946000Y18826000D01*
X31696000Y18826000D02*
X31696000Y19576000D01*
X33946000Y23126000D02*
X33196000Y23126000D01*
X33946000Y18826000D02*
X33946000Y20626000D01*
X34246000Y25476000D02*
X34246000Y26726000D01*
X33946000Y20626000D02*
X33196000Y20626000D01*
X31696000Y19576000D02*
X28746000Y19576000D01*
X34246000Y26726000D02*
X32996000Y26726000D01*
X28746000Y19576000D02*
X28746000Y22626000D01*
X27986000Y18816000D02*
X33956000Y18816000D01*
%TO.C,J26*%
X26338000Y18826000D02*
X27088000Y18826000D01*
X27388000Y25476000D02*
X27388000Y26726000D01*
X26338000Y23126000D02*
X26338000Y22126000D01*
X27388000Y26726000D02*
X26138000Y26726000D01*
X21128000Y26436000D02*
X21128000Y18816000D01*
X27098000Y18816000D02*
X27098000Y26436000D01*
X27098000Y26436000D02*
X21128000Y26436000D01*
X27088000Y20626000D02*
X26338000Y20626000D01*
X24838000Y26426000D02*
X24838000Y25676000D01*
X26338000Y26426000D02*
X26338000Y24626000D01*
X26338000Y22126000D02*
X27088000Y22126000D01*
X24838000Y25676000D02*
X21888000Y25676000D01*
X27088000Y24626000D02*
X27088000Y26426000D01*
X27088000Y23126000D02*
X26338000Y23126000D01*
X21888000Y19576000D02*
X21888000Y22626000D01*
X21128000Y18816000D02*
X27098000Y18816000D01*
X24838000Y19576000D02*
X21888000Y19576000D01*
X21888000Y25676000D02*
X21888000Y22626000D01*
X27088000Y18826000D02*
X27088000Y20626000D01*
X26338000Y20626000D02*
X26338000Y18826000D01*
X27088000Y22126000D02*
X27088000Y23126000D01*
X26338000Y24626000D02*
X27088000Y24626000D01*
X24838000Y18826000D02*
X24838000Y19576000D01*
X27088000Y26426000D02*
X26338000Y26426000D01*
%TO.C,J27*%
X19480000Y22126000D02*
X20230000Y22126000D01*
X20530000Y25476000D02*
X20530000Y26726000D01*
X17980000Y18826000D02*
X17980000Y19576000D01*
X20230000Y26426000D02*
X19480000Y26426000D01*
X20230000Y23126000D02*
X19480000Y23126000D01*
X20230000Y24626000D02*
X20230000Y26426000D01*
X19480000Y20626000D02*
X19480000Y18826000D01*
X14270000Y18816000D02*
X20240000Y18816000D01*
X20240000Y18816000D02*
X20240000Y26436000D01*
X20230000Y22126000D02*
X20230000Y23126000D01*
X15030000Y19576000D02*
X15030000Y22626000D01*
X20530000Y26726000D02*
X19280000Y26726000D01*
X20240000Y26436000D02*
X14270000Y26436000D01*
X15030000Y25676000D02*
X15030000Y22626000D01*
X17980000Y26426000D02*
X17980000Y25676000D01*
X20230000Y18826000D02*
X20230000Y20626000D01*
X19480000Y26426000D02*
X19480000Y24626000D01*
X19480000Y18826000D02*
X20230000Y18826000D01*
X20230000Y20626000D02*
X19480000Y20626000D01*
X17980000Y25676000D02*
X15030000Y25676000D01*
X14270000Y26436000D02*
X14270000Y18816000D01*
X19480000Y24626000D02*
X20230000Y24626000D01*
X19480000Y23126000D02*
X19480000Y22126000D01*
X17980000Y19576000D02*
X15030000Y19576000D01*
%TO.C,J28*%
X7412000Y26436000D02*
X7412000Y18816000D01*
X12622000Y23126000D02*
X12622000Y22126000D01*
X12622000Y22126000D02*
X13372000Y22126000D01*
X13372000Y20626000D02*
X12622000Y20626000D01*
X11122000Y19576000D02*
X8172000Y19576000D01*
X13672000Y25476000D02*
X13672000Y26726000D01*
X13372000Y22126000D02*
X13372000Y23126000D01*
X12622000Y24626000D02*
X13372000Y24626000D01*
X13672000Y26726000D02*
X12422000Y26726000D01*
X11122000Y25676000D02*
X8172000Y25676000D01*
X13372000Y18826000D02*
X13372000Y20626000D01*
X13372000Y24626000D02*
X13372000Y26426000D01*
X8172000Y25676000D02*
X8172000Y22626000D01*
X13372000Y26426000D02*
X12622000Y26426000D01*
X13382000Y26436000D02*
X7412000Y26436000D01*
X13382000Y18816000D02*
X13382000Y26436000D01*
X8172000Y19576000D02*
X8172000Y22626000D01*
X7412000Y18816000D02*
X13382000Y18816000D01*
X12622000Y26426000D02*
X12622000Y24626000D01*
X12622000Y18826000D02*
X13372000Y18826000D01*
X13372000Y23126000D02*
X12622000Y23126000D01*
X11122000Y26426000D02*
X11122000Y25676000D01*
X11122000Y18826000D02*
X11122000Y19576000D01*
X12622000Y20626000D02*
X12622000Y18826000D01*
%TO.C,J29*%
X5764000Y22126000D02*
X6514000Y22126000D01*
X4264000Y26426000D02*
X4264000Y25676000D01*
X6814000Y26726000D02*
X5564000Y26726000D01*
X6514000Y18826000D02*
X6514000Y20626000D01*
X6814000Y25476000D02*
X6814000Y26726000D01*
X554000Y26436000D02*
X554000Y18816000D01*
X5764000Y18826000D02*
X6514000Y18826000D01*
X5764000Y24626000D02*
X6514000Y24626000D01*
X6524000Y18816000D02*
X6524000Y26436000D01*
X4264000Y19576000D02*
X1314000Y19576000D01*
X6514000Y26426000D02*
X5764000Y26426000D01*
X4264000Y25676000D02*
X1314000Y25676000D01*
X6514000Y23126000D02*
X5764000Y23126000D01*
X5764000Y20626000D02*
X5764000Y18826000D01*
X5764000Y23126000D02*
X5764000Y22126000D01*
X5764000Y26426000D02*
X5764000Y24626000D01*
X6524000Y26436000D02*
X554000Y26436000D01*
X6514000Y22126000D02*
X6514000Y23126000D01*
X6514000Y24626000D02*
X6514000Y26426000D01*
X1314000Y25676000D02*
X1314000Y22626000D01*
X4264000Y18826000D02*
X4264000Y19576000D01*
X1314000Y19576000D02*
X1314000Y22626000D01*
X554000Y18816000D02*
X6524000Y18816000D01*
X6514000Y20626000D02*
X5764000Y20626000D01*
%TO.C,J16*%
X27098000Y27452000D02*
X27098000Y35072000D01*
X26338000Y33262000D02*
X27088000Y33262000D01*
X27098000Y35072000D02*
X21128000Y35072000D01*
X21888000Y34312000D02*
X21888000Y31262000D01*
X24838000Y28212000D02*
X21888000Y28212000D01*
X21128000Y27452000D02*
X27098000Y27452000D01*
X24838000Y27462000D02*
X24838000Y28212000D01*
X27388000Y35362000D02*
X26138000Y35362000D01*
X27088000Y30762000D02*
X27088000Y31762000D01*
X21888000Y28212000D02*
X21888000Y31262000D01*
X26338000Y35062000D02*
X26338000Y33262000D01*
X26338000Y29262000D02*
X26338000Y27462000D01*
X27088000Y31762000D02*
X26338000Y31762000D01*
X24838000Y35062000D02*
X24838000Y34312000D01*
X21128000Y35072000D02*
X21128000Y27452000D01*
X26338000Y31762000D02*
X26338000Y30762000D01*
X27088000Y35062000D02*
X26338000Y35062000D01*
X27388000Y34112000D02*
X27388000Y35362000D01*
X27088000Y27462000D02*
X27088000Y29262000D01*
X27088000Y33262000D02*
X27088000Y35062000D01*
X27088000Y29262000D02*
X26338000Y29262000D01*
X26338000Y27462000D02*
X27088000Y27462000D01*
X24838000Y34312000D02*
X21888000Y34312000D01*
X26338000Y30762000D02*
X27088000Y30762000D01*
%TO.C,J15*%
X33196000Y35062000D02*
X33196000Y33262000D01*
X33946000Y27462000D02*
X33946000Y29262000D01*
X33946000Y31762000D02*
X33196000Y31762000D01*
X33196000Y31762000D02*
X33196000Y30762000D01*
X31696000Y28212000D02*
X28746000Y28212000D01*
X33196000Y30762000D02*
X33946000Y30762000D01*
X31696000Y34312000D02*
X28746000Y34312000D01*
X27986000Y27452000D02*
X33956000Y27452000D01*
X34246000Y35362000D02*
X32996000Y35362000D01*
X34246000Y34112000D02*
X34246000Y35362000D01*
X33946000Y35062000D02*
X33196000Y35062000D01*
X33946000Y29262000D02*
X33196000Y29262000D01*
X28746000Y28212000D02*
X28746000Y31262000D01*
X33956000Y27452000D02*
X33956000Y35072000D01*
X33946000Y33262000D02*
X33946000Y35062000D01*
X33946000Y30762000D02*
X33946000Y31762000D01*
X31696000Y35062000D02*
X31696000Y34312000D01*
X33196000Y33262000D02*
X33946000Y33262000D01*
X33196000Y27462000D02*
X33946000Y27462000D01*
X33956000Y35072000D02*
X27986000Y35072000D01*
X33196000Y29262000D02*
X33196000Y27462000D01*
X27986000Y35072000D02*
X27986000Y27452000D01*
X28746000Y34312000D02*
X28746000Y31262000D01*
X31696000Y27462000D02*
X31696000Y28212000D01*
%TO.C,J14*%
X38554000Y34312000D02*
X35604000Y34312000D01*
X34844000Y27452000D02*
X40814000Y27452000D01*
X40054000Y31762000D02*
X40054000Y30762000D01*
X40054000Y35062000D02*
X40054000Y33262000D01*
X40054000Y29262000D02*
X40054000Y27462000D01*
X41104000Y34112000D02*
X41104000Y35362000D01*
X38554000Y35062000D02*
X38554000Y34312000D01*
X40804000Y29262000D02*
X40054000Y29262000D01*
X40054000Y27462000D02*
X40804000Y27462000D01*
X40804000Y33262000D02*
X40804000Y35062000D01*
X40804000Y31762000D02*
X40054000Y31762000D01*
X40054000Y30762000D02*
X40804000Y30762000D01*
X40814000Y27452000D02*
X40814000Y35072000D01*
X38554000Y27462000D02*
X38554000Y28212000D01*
X40054000Y33262000D02*
X40804000Y33262000D01*
X40804000Y35062000D02*
X40054000Y35062000D01*
X40814000Y35072000D02*
X34844000Y35072000D01*
X38554000Y28212000D02*
X35604000Y28212000D01*
X35604000Y34312000D02*
X35604000Y31262000D01*
X41104000Y35362000D02*
X39854000Y35362000D01*
X40804000Y30762000D02*
X40804000Y31762000D01*
X35604000Y28212000D02*
X35604000Y31262000D01*
X34844000Y35072000D02*
X34844000Y27452000D01*
X40804000Y27462000D02*
X40804000Y29262000D01*
%TO.C,J18*%
X13372000Y30762000D02*
X13372000Y31762000D01*
X8172000Y34312000D02*
X8172000Y31262000D01*
X8172000Y28212000D02*
X8172000Y31262000D01*
X12622000Y30762000D02*
X13372000Y30762000D01*
X13672000Y35362000D02*
X12422000Y35362000D01*
X13372000Y27462000D02*
X13372000Y29262000D01*
X13382000Y35072000D02*
X7412000Y35072000D01*
X13672000Y34112000D02*
X13672000Y35362000D01*
X12622000Y27462000D02*
X13372000Y27462000D01*
X13372000Y29262000D02*
X12622000Y29262000D01*
X13382000Y27452000D02*
X13382000Y35072000D01*
X11122000Y28212000D02*
X8172000Y28212000D01*
X7412000Y27452000D02*
X13382000Y27452000D01*
X11122000Y35062000D02*
X11122000Y34312000D01*
X12622000Y35062000D02*
X12622000Y33262000D01*
X13372000Y33262000D02*
X13372000Y35062000D01*
X7412000Y35072000D02*
X7412000Y27452000D01*
X12622000Y29262000D02*
X12622000Y27462000D01*
X11122000Y34312000D02*
X8172000Y34312000D01*
X12622000Y33262000D02*
X13372000Y33262000D01*
X11122000Y27462000D02*
X11122000Y28212000D01*
X13372000Y31762000D02*
X12622000Y31762000D01*
X13372000Y35062000D02*
X12622000Y35062000D01*
X12622000Y31762000D02*
X12622000Y30762000D01*
%TO.C,J19*%
X6514000Y33262000D02*
X6514000Y35062000D01*
X6514000Y35062000D02*
X5764000Y35062000D01*
X5764000Y30762000D02*
X6514000Y30762000D01*
X6524000Y35072000D02*
X554000Y35072000D01*
X5764000Y31762000D02*
X5764000Y30762000D01*
X5764000Y29262000D02*
X5764000Y27462000D01*
X1314000Y34312000D02*
X1314000Y31262000D01*
X5764000Y35062000D02*
X5764000Y33262000D01*
X554000Y35072000D02*
X554000Y27452000D01*
X6514000Y27462000D02*
X6514000Y29262000D01*
X1314000Y28212000D02*
X1314000Y31262000D01*
X4264000Y28212000D02*
X1314000Y28212000D01*
X6814000Y34112000D02*
X6814000Y35362000D01*
X6814000Y35362000D02*
X5564000Y35362000D01*
X6514000Y31762000D02*
X5764000Y31762000D01*
X5764000Y27462000D02*
X6514000Y27462000D01*
X4264000Y34312000D02*
X1314000Y34312000D01*
X6514000Y29262000D02*
X5764000Y29262000D01*
X4264000Y35062000D02*
X4264000Y34312000D01*
X5764000Y33262000D02*
X6514000Y33262000D01*
X4264000Y27462000D02*
X4264000Y28212000D01*
X554000Y27452000D02*
X6524000Y27452000D01*
X6524000Y27452000D02*
X6524000Y35072000D01*
X6514000Y30762000D02*
X6514000Y31762000D01*
%TO.C,J17*%
X20230000Y29262000D02*
X19480000Y29262000D01*
X19480000Y27462000D02*
X20230000Y27462000D01*
X17980000Y34312000D02*
X15030000Y34312000D01*
X19480000Y31762000D02*
X19480000Y30762000D01*
X19480000Y30762000D02*
X20230000Y30762000D01*
X19480000Y29262000D02*
X19480000Y27462000D01*
X20230000Y27462000D02*
X20230000Y29262000D01*
X19480000Y33262000D02*
X20230000Y33262000D01*
X20530000Y34112000D02*
X20530000Y35362000D01*
X20230000Y30762000D02*
X20230000Y31762000D01*
X20230000Y35062000D02*
X19480000Y35062000D01*
X17980000Y27462000D02*
X17980000Y28212000D01*
X20230000Y31762000D02*
X19480000Y31762000D01*
X20230000Y33262000D02*
X20230000Y35062000D01*
X17980000Y35062000D02*
X17980000Y34312000D01*
X20240000Y27452000D02*
X20240000Y35072000D01*
X20530000Y35362000D02*
X19280000Y35362000D01*
X20240000Y35072000D02*
X14270000Y35072000D01*
X15030000Y28212000D02*
X15030000Y31262000D01*
X19480000Y35062000D02*
X19480000Y33262000D01*
X14270000Y27452000D02*
X20240000Y27452000D01*
X17980000Y28212000D02*
X15030000Y28212000D01*
X14270000Y35072000D02*
X14270000Y27452000D01*
X15030000Y34312000D02*
X15030000Y31262000D01*
%TO.C,J13*%
X46912000Y27462000D02*
X47662000Y27462000D01*
X47662000Y31762000D02*
X46912000Y31762000D01*
X46912000Y33262000D02*
X47662000Y33262000D01*
X47672000Y27452000D02*
X47672000Y35072000D01*
X46912000Y35062000D02*
X46912000Y33262000D01*
X47662000Y30762000D02*
X47662000Y31762000D01*
X47962000Y35362000D02*
X46712000Y35362000D01*
X47662000Y33262000D02*
X47662000Y35062000D01*
X47662000Y27462000D02*
X47662000Y29262000D01*
X47672000Y35072000D02*
X41702000Y35072000D01*
X47662000Y29262000D02*
X46912000Y29262000D01*
X42462000Y34312000D02*
X42462000Y31262000D01*
X45412000Y28212000D02*
X42462000Y28212000D01*
X46912000Y30762000D02*
X47662000Y30762000D01*
X47962000Y34112000D02*
X47962000Y35362000D01*
X46912000Y31762000D02*
X46912000Y30762000D01*
X41702000Y35072000D02*
X41702000Y27452000D01*
X45412000Y27462000D02*
X45412000Y28212000D01*
X45412000Y35062000D02*
X45412000Y34312000D01*
X41702000Y27452000D02*
X47672000Y27452000D01*
X47662000Y35062000D02*
X46912000Y35062000D01*
X46912000Y29262000D02*
X46912000Y27462000D01*
X42462000Y28212000D02*
X42462000Y31262000D01*
X45412000Y34312000D02*
X42462000Y34312000D01*
%TO.C,J11*%
X70922000Y28746000D02*
X70922000Y29996000D01*
X58822000Y29046000D02*
X67322000Y29046000D01*
X70622000Y31296000D02*
X69872000Y31296000D01*
X68822000Y29796000D02*
X68822000Y29046000D01*
X56272000Y34246000D02*
X63072000Y34246000D01*
X55522000Y29046000D02*
X57322000Y29046000D01*
X68822000Y29046000D02*
X70622000Y29046000D01*
X67322000Y29796000D02*
X58822000Y29796000D01*
X58822000Y29796000D02*
X58822000Y29046000D01*
X57322000Y29046000D02*
X57322000Y29796000D01*
X70632000Y35006000D02*
X55512000Y35006000D01*
X69672000Y28746000D02*
X70922000Y28746000D01*
X55522000Y29796000D02*
X55522000Y29046000D01*
X70632000Y29036000D02*
X70632000Y35006000D01*
X70622000Y29046000D02*
X70622000Y29796000D01*
X56272000Y31296000D02*
X56272000Y34246000D01*
X55512000Y29036000D02*
X70632000Y29036000D01*
X57322000Y29796000D02*
X55522000Y29796000D01*
X70622000Y29796000D02*
X68822000Y29796000D01*
X55522000Y31296000D02*
X56272000Y31296000D01*
X69872000Y31296000D02*
X69872000Y34246000D01*
X67322000Y29046000D02*
X67322000Y29796000D01*
X55512000Y35006000D02*
X55512000Y29036000D01*
X69872000Y34246000D02*
X63072000Y34246000D01*
%TO.C,J12*%
X49320000Y34312000D02*
X49320000Y31262000D01*
X52270000Y35062000D02*
X52270000Y34312000D01*
X54820000Y34112000D02*
X54820000Y35362000D01*
X49320000Y28212000D02*
X49320000Y31262000D01*
X54520000Y33262000D02*
X54520000Y35062000D01*
X53770000Y27462000D02*
X54520000Y27462000D01*
X48560000Y27452000D02*
X54530000Y27452000D01*
X54530000Y35072000D02*
X48560000Y35072000D01*
X53770000Y30762000D02*
X54520000Y30762000D01*
X53770000Y29262000D02*
X53770000Y27462000D01*
X48560000Y35072000D02*
X48560000Y27452000D01*
X53770000Y31762000D02*
X53770000Y30762000D01*
X54530000Y27452000D02*
X54530000Y35072000D01*
X52270000Y28212000D02*
X49320000Y28212000D01*
X53770000Y33262000D02*
X54520000Y33262000D01*
X54820000Y35362000D02*
X53570000Y35362000D01*
X54520000Y31762000D02*
X53770000Y31762000D01*
X52270000Y27462000D02*
X52270000Y28212000D01*
X54520000Y29262000D02*
X53770000Y29262000D01*
X53770000Y35062000D02*
X53770000Y33262000D01*
X54520000Y35062000D02*
X53770000Y35062000D01*
X54520000Y27462000D02*
X54520000Y29262000D01*
X52270000Y34312000D02*
X49320000Y34312000D01*
X54520000Y30762000D02*
X54520000Y31762000D01*
%TO.C,J21*%
X68822000Y21160000D02*
X68822000Y20410000D01*
X70922000Y20110000D02*
X70922000Y21360000D01*
X56272000Y22660000D02*
X56272000Y25610000D01*
X58822000Y21160000D02*
X58822000Y20410000D01*
X69672000Y20110000D02*
X70922000Y20110000D01*
X56272000Y25610000D02*
X63072000Y25610000D01*
X57322000Y20410000D02*
X57322000Y21160000D01*
X68822000Y20410000D02*
X70622000Y20410000D01*
X55522000Y22660000D02*
X56272000Y22660000D01*
X70632000Y26370000D02*
X55512000Y26370000D01*
X55512000Y20400000D02*
X70632000Y20400000D01*
X70622000Y20410000D02*
X70622000Y21160000D01*
X69872000Y22660000D02*
X69872000Y25610000D01*
X69872000Y25610000D02*
X63072000Y25610000D01*
X70622000Y21160000D02*
X68822000Y21160000D01*
X55522000Y20410000D02*
X57322000Y20410000D01*
X58822000Y20410000D02*
X67322000Y20410000D01*
X55522000Y21160000D02*
X55522000Y20410000D01*
X70632000Y20400000D02*
X70632000Y26370000D01*
X57322000Y21160000D02*
X55522000Y21160000D01*
X67322000Y21160000D02*
X58822000Y21160000D01*
X67322000Y20410000D02*
X67322000Y21160000D01*
X55512000Y26370000D02*
X55512000Y20400000D01*
X70622000Y22660000D02*
X69872000Y22660000D01*
%TO.C,IN1*%
X1845000Y3623000D02*
X4505000Y3623000D01*
X1845000Y15113000D02*
X1845000Y16443000D01*
X4505000Y13843000D02*
X4505000Y3623000D01*
X1845000Y13843000D02*
X4505000Y13843000D01*
X1845000Y13843000D02*
X1845000Y3623000D01*
X1845000Y16443000D02*
X3175000Y16443000D01*
%TO.C,JP2*%
X7094000Y5826000D02*
X11194000Y5826000D01*
X11194000Y5826000D02*
X11194000Y3826000D01*
X7094000Y3826000D02*
X7094000Y5826000D01*
X11194000Y3826000D02*
X7094000Y3826000D01*
%TO.C,JP1*%
X7094000Y9940800D02*
X11194000Y9940800D01*
X11194000Y9940800D02*
X11194000Y7940800D01*
X11194000Y7940800D02*
X7094000Y7940800D01*
X7094000Y7940800D02*
X7094000Y9940800D01*
%TO.C,JP5*%
X12417600Y16819600D02*
X12417600Y17419600D01*
X15217600Y17419600D02*
X15217600Y16819600D01*
X14517600Y16119600D02*
X13117600Y16119600D01*
X13117600Y18119600D02*
X14517600Y18119600D01*
X15217600Y17419600D02*
G75*
G03*
X14517600Y18119600I-700000J0D01*
G01*
X12417600Y16819600D02*
G75*
G03*
X13117600Y16119600I699999J-1D01*
G01*
X13117600Y18119600D02*
G75*
G03*
X12417600Y17419600I-1J-699999D01*
G01*
X14517600Y16119600D02*
G75*
G03*
X15217600Y16819600I0J700000D01*
G01*
%TO.C,JP6*%
X18570400Y17419600D02*
X18570400Y16819600D01*
X17870400Y16119600D02*
X16470400Y16119600D01*
X15770400Y16819600D02*
X15770400Y17419600D01*
X16470400Y18119600D02*
X17870400Y18119600D01*
X16470400Y18119600D02*
G75*
G03*
X15770400Y17419600I-1J-699999D01*
G01*
X15770400Y16819600D02*
G75*
G03*
X16470400Y16119600I699999J-1D01*
G01*
X18570400Y17419600D02*
G75*
G03*
X17870400Y18119600I-700000J0D01*
G01*
X17870400Y16119600D02*
G75*
G03*
X18570400Y16819600I0J700000D01*
G01*
%TO.C,JP4*%
X11164800Y16119600D02*
X9764800Y16119600D01*
X9064800Y16819600D02*
X9064800Y17419600D01*
X9764800Y18119600D02*
X11164800Y18119600D01*
X11864800Y17419600D02*
X11864800Y16819600D01*
X11164800Y16119600D02*
G75*
G03*
X11864800Y16819600I0J700000D01*
G01*
X9064800Y16819600D02*
G75*
G03*
X9764800Y16119600I699999J-1D01*
G01*
X11864800Y17419600D02*
G75*
G03*
X11164800Y18119600I-700000J0D01*
G01*
X9764800Y18119600D02*
G75*
G03*
X9064800Y17419600I-1J-699999D01*
G01*
%TO.C,JP3*%
X6412000Y18119600D02*
X7812000Y18119600D01*
X7812000Y16119600D02*
X6412000Y16119600D01*
X8512000Y17419600D02*
X8512000Y16819600D01*
X5712000Y16819600D02*
X5712000Y17419600D01*
X5712000Y16819600D02*
G75*
G03*
X6412000Y16119600I699999J-1D01*
G01*
X6412000Y18119600D02*
G75*
G03*
X5712000Y17419600I-1J-699999D01*
G01*
X7812000Y16119600D02*
G75*
G03*
X8512000Y16819600I0J700000D01*
G01*
X8512000Y17419600D02*
G75*
G03*
X7812000Y18119600I-700000J0D01*
G01*
%TD*%
%LPC*%
D14*
%TO.C,OUT1*%
X68199000Y15240000D03*
D15*
X68199000Y12700000D03*
X68199000Y10160000D03*
X68199000Y7620000D03*
X68199000Y5080000D03*
%TD*%
D16*
%TO.C,RN2*%
X64096000Y6420000D03*
X64096000Y7220000D03*
X64096000Y8020000D03*
X64096000Y8820000D03*
X62396000Y8820000D03*
X62396000Y8020000D03*
X62396000Y7220000D03*
X62396000Y6420000D03*
%TD*%
%TO.C,RN1*%
X50077000Y8820000D03*
X50077000Y8020000D03*
X50077000Y7220000D03*
X50077000Y6420000D03*
X51777000Y6420000D03*
X51777000Y7220000D03*
X51777000Y8020000D03*
X51777000Y8820000D03*
%TD*%
%TO.C,RN4*%
X45935000Y6547000D03*
X45935000Y7347000D03*
X45935000Y8147000D03*
X45935000Y8947000D03*
X44235000Y8947000D03*
X44235000Y8147000D03*
X44235000Y7347000D03*
X44235000Y6547000D03*
%TD*%
%TO.C,RN5*%
X13945500Y8947000D03*
X13945500Y8147000D03*
X13945500Y7347000D03*
X13945500Y6547000D03*
X15645500Y6547000D03*
X15645500Y7347000D03*
X15645500Y8147000D03*
X15645500Y8947000D03*
%TD*%
%TO.C,RN6*%
X27901000Y6420000D03*
X27901000Y7220000D03*
X27901000Y8020000D03*
X27901000Y8820000D03*
X26201000Y8820000D03*
X26201000Y8020000D03*
X26201000Y7220000D03*
X26201000Y6420000D03*
%TD*%
%TO.C,RN3*%
X31916000Y8820000D03*
X31916000Y8020000D03*
X31916000Y7220000D03*
X31916000Y6420000D03*
X33616000Y6420000D03*
X33616000Y7220000D03*
X33616000Y8020000D03*
X33616000Y8820000D03*
%TD*%
D17*
%TO.C,C1*%
X61700500Y12700000D03*
X63775500Y12700000D03*
%TD*%
D18*
%TO.C,74HC165_1*%
X54548000Y12192000D03*
X54548000Y10922000D03*
X54548000Y9652000D03*
X54548000Y8382000D03*
X54548000Y7112000D03*
X54548000Y5842000D03*
X54548000Y4572000D03*
X54548000Y3302000D03*
X59498000Y3302000D03*
X59498000Y4572000D03*
X59498000Y5842000D03*
X59498000Y7112000D03*
X59498000Y8382000D03*
X59498000Y9652000D03*
X59498000Y10922000D03*
X59498000Y12192000D03*
%TD*%
%TO.C,74HC165_2*%
X36450500Y12128500D03*
X36450500Y10858500D03*
X36450500Y9588500D03*
X36450500Y8318500D03*
X36450500Y7048500D03*
X36450500Y5778500D03*
X36450500Y4508500D03*
X36450500Y3238500D03*
X41400500Y3238500D03*
X41400500Y4508500D03*
X41400500Y5778500D03*
X41400500Y7048500D03*
X41400500Y8318500D03*
X41400500Y9588500D03*
X41400500Y10858500D03*
X41400500Y12128500D03*
%TD*%
%TO.C,74HC165_3*%
X18416500Y12128500D03*
X18416500Y10858500D03*
X18416500Y9588500D03*
X18416500Y8318500D03*
X18416500Y7048500D03*
X18416500Y5778500D03*
X18416500Y4508500D03*
X18416500Y3238500D03*
X23366500Y3238500D03*
X23366500Y4508500D03*
X23366500Y5778500D03*
X23366500Y7048500D03*
X23366500Y8318500D03*
X23366500Y9588500D03*
X23366500Y10858500D03*
X23366500Y12128500D03*
%TD*%
D17*
%TO.C,C2*%
X43539500Y12700000D03*
X45614500Y12700000D03*
%TD*%
%TO.C,C3*%
X25505500Y12700000D03*
X27580500Y12700000D03*
%TD*%
D19*
%TO.C,J22*%
X52070000Y23876000D03*
D20*
X52070000Y21376000D03*
%TD*%
D19*
%TO.C,J23*%
X45212000Y23876000D03*
D20*
X45212000Y21376000D03*
%TD*%
D19*
%TO.C,J24*%
X38354000Y23876000D03*
D20*
X38354000Y21376000D03*
%TD*%
D19*
%TO.C,J25*%
X31496000Y23876000D03*
D20*
X31496000Y21376000D03*
%TD*%
D19*
%TO.C,J26*%
X24638000Y23876000D03*
D20*
X24638000Y21376000D03*
%TD*%
D19*
%TO.C,J27*%
X17780000Y23876000D03*
D20*
X17780000Y21376000D03*
%TD*%
D19*
%TO.C,J28*%
X10922000Y23876000D03*
D20*
X10922000Y21376000D03*
%TD*%
D19*
%TO.C,J29*%
X4064000Y23876000D03*
D20*
X4064000Y21376000D03*
%TD*%
D19*
%TO.C,J16*%
X24638000Y32512000D03*
D20*
X24638000Y30012000D03*
%TD*%
D19*
%TO.C,J15*%
X31496000Y32512000D03*
D20*
X31496000Y30012000D03*
%TD*%
D19*
%TO.C,J14*%
X38354000Y32512000D03*
D20*
X38354000Y30012000D03*
%TD*%
D19*
%TO.C,J18*%
X10922000Y32512000D03*
D20*
X10922000Y30012000D03*
%TD*%
D19*
%TO.C,J19*%
X4064000Y32512000D03*
D20*
X4064000Y30012000D03*
%TD*%
D19*
%TO.C,J17*%
X17780000Y32512000D03*
D20*
X17780000Y30012000D03*
%TD*%
D19*
%TO.C,J13*%
X45212000Y32512000D03*
D20*
X45212000Y30012000D03*
%TD*%
D21*
%TO.C,J11*%
X68072000Y31496000D03*
D22*
X65572000Y31496000D03*
X63072000Y31496000D03*
X60572000Y31496000D03*
X58072000Y31496000D03*
%TD*%
D19*
%TO.C,J12*%
X52070000Y32512000D03*
D20*
X52070000Y30012000D03*
%TD*%
D21*
%TO.C,J21*%
X68072000Y22860000D03*
D22*
X65572000Y22860000D03*
X63072000Y22860000D03*
X60572000Y22860000D03*
X58072000Y22860000D03*
%TD*%
D14*
%TO.C,IN1*%
X3175000Y15113000D03*
D15*
X3175000Y12573000D03*
X3175000Y10033000D03*
X3175000Y7493000D03*
X3175000Y4953000D03*
%TD*%
D23*
%TO.C,JP2*%
X10444000Y4826000D03*
X9144000Y4826000D03*
X7844000Y4826000D03*
%TD*%
%TO.C,JP1*%
X10444000Y8940800D03*
X9144000Y8940800D03*
X7844000Y8940800D03*
%TD*%
D24*
%TO.C,JP5*%
X13167600Y17119600D03*
D25*
X14467600Y17119600D03*
%TD*%
D24*
%TO.C,JP6*%
X16520400Y17119600D03*
D25*
X17820400Y17119600D03*
%TD*%
D24*
%TO.C,JP4*%
X9814800Y17119600D03*
D25*
X11114800Y17119600D03*
%TD*%
D24*
%TO.C,JP3*%
X6462000Y17119600D03*
D25*
X7762000Y17119600D03*
%TD*%
M02*
