M48
; DRILL file {KiCad 7.0.1} date Sun Apr  2 01:17:50 2023
; FORMAT={-:-/ absolute / inch / decimal}
; #@! TF.CreationDate,2023-04-02T01:17:50+09:00
; #@! TF.GenerationSoftware,Kicad,Pcbnew,7.0.1
; #@! TF.FileFunction,Plated,1,2,PTH
FMAT,2
INCH
; #@! TA.AperFunction,Plated,PTH,ComponentDrill
T1C0.0197
; #@! TA.AperFunction,Plated,PTH,ComponentDrill
T2C0.0394
%
G90
G05
T1
X0.034Y0.7896
X0.034Y0.7404
X0.034Y0.6912
X0.034Y0.642
X0.034Y0.5927
X0.034Y0.5435
X0.034Y0.4943
X0.034Y0.4451
X0.034Y0.3959
X0.034Y0.3467
X0.034Y0.2975
X0.034Y0.2483
X0.034Y0.199
X0.034Y0.1498
X0.427Y0.7896
X0.427Y0.7404
X0.427Y0.6912
X0.427Y0.642
X0.427Y0.5927
X0.427Y0.5435
X0.427Y0.4943
X0.427Y0.4451
X0.427Y0.3959
X0.427Y0.3467
X0.427Y0.2975
X0.427Y0.2483
X0.427Y0.199
X0.427Y0.1498
T2
X0.1808Y0.8702
X0.1808Y0.7702
X0.1808Y0.6702
X0.1808Y0.5702
X0.1808Y0.4702
X0.1808Y0.3702
X0.1808Y0.2702
X0.1808Y0.1702
X0.1808Y0.0702
X0.2808Y0.8702
X0.2808Y0.7702
X0.2808Y0.6702
X0.2808Y0.5702
X0.2808Y0.4702
X0.2808Y0.3702
X0.2808Y0.2702
X0.2808Y0.1702
X0.2808Y0.0702
T0
M30
