%TF.GenerationSoftware,KiCad,Pcbnew,7.0.1*%
%TF.CreationDate,2023-04-02T13:10:04+09:00*%
%TF.ProjectId,joystick_gpio_input_1p_rasp_part,6a6f7973-7469-4636-9b5f-6770696f5f69,2*%
%TF.SameCoordinates,PX8841978PY69edb98*%
%TF.FileFunction,Copper,L1,Top*%
%TF.FilePolarity,Positive*%
%FSLAX46Y46*%
G04 Gerber Fmt 4.6, Leading zero omitted, Abs format (unit mm)*
G04 Created by KiCad (PCBNEW 7.0.1) date 2023-04-02 13:10:04*
%MOMM*%
%LPD*%
G01*
G04 APERTURE LIST*
G04 Aperture macros list*
%AMRoundRect*
0 Rectangle with rounded corners*
0 $1 Rounding radius*
0 $2 $3 $4 $5 $6 $7 $8 $9 X,Y pos of 4 corners*
0 Add a 4 corners polygon primitive as box body*
4,1,4,$2,$3,$4,$5,$6,$7,$8,$9,$2,$3,0*
0 Add four circle primitives for the rounded corners*
1,1,$1+$1,$2,$3*
1,1,$1+$1,$4,$5*
1,1,$1+$1,$6,$7*
1,1,$1+$1,$8,$9*
0 Add four rect primitives between the rounded corners*
20,1,$1+$1,$2,$3,$4,$5,0*
20,1,$1+$1,$4,$5,$6,$7,0*
20,1,$1+$1,$6,$7,$8,$9,0*
20,1,$1+$1,$8,$9,$2,$3,0*%
G04 Aperture macros list end*
%TA.AperFunction,ComponentPad*%
%ADD10RoundRect,0.200000X-0.450000X0.200000X-0.450000X-0.200000X0.450000X-0.200000X0.450000X0.200000X0*%
%TD*%
%TA.AperFunction,ComponentPad*%
%ADD11O,1.300000X0.800000*%
%TD*%
%TA.AperFunction,ComponentPad*%
%ADD12R,1.700000X1.700000*%
%TD*%
%TA.AperFunction,ComponentPad*%
%ADD13O,1.700000X1.700000*%
%TD*%
%TA.AperFunction,Conductor*%
%ADD14C,0.250000*%
%TD*%
G04 APERTURE END LIST*
D10*
%TO.P,J8,1,Pin_1*%
%TO.N,/1P_UP*%
X10845800Y20055600D03*
D11*
%TO.P,J8,2,Pin_2*%
%TO.N,/1P_TL*%
X10845800Y18805600D03*
%TO.P,J8,3,Pin_3*%
%TO.N,/1P_X*%
X10845800Y17555600D03*
%TO.P,J8,4,Pin_4*%
%TO.N,/1P_DOWN*%
X10845800Y16305600D03*
%TO.P,J8,5,Pin_5*%
%TO.N,/1P_Y*%
X10845800Y15055600D03*
%TO.P,J8,6,Pin_6*%
%TO.N,/1P_LEFT*%
X10845800Y13805600D03*
%TO.P,J8,7,Pin_7*%
%TO.N,/1P_RIGHT*%
X10845800Y12555600D03*
%TO.P,J8,8,Pin_8*%
%TO.N,/1P_TR*%
X10845800Y11305600D03*
%TO.P,J8,9,Pin_9*%
%TO.N,/1P_B*%
X10845800Y10055600D03*
%TO.P,J8,10,Pin_10*%
%TO.N,/1P_START*%
X10845800Y8805600D03*
%TO.P,J8,11,Pin_11*%
%TO.N,/1P_SELECT*%
X10845800Y7555600D03*
%TO.P,J8,12,Pin_12*%
%TO.N,/1P_A*%
X10845800Y6305600D03*
%TO.P,J8,13,Pin_13*%
%TO.N,/1P_GND*%
X10845800Y5055600D03*
%TO.P,J8,14,Pin_14*%
%TO.N,/1P_HK*%
X10845800Y3805600D03*
%TD*%
D12*
%TO.P,J6,1,Pin_1*%
%TO.N,/1P_UP*%
X4592400Y22103000D03*
D13*
%TO.P,J6,2,Pin_2*%
%TO.N,/1P_TL*%
X7132400Y22103000D03*
%TO.P,J6,3,Pin_3*%
%TO.N,/1P_GND*%
X4592400Y19563000D03*
%TO.P,J6,4,Pin_4*%
%TO.N,/1P_X*%
X7132400Y19563000D03*
%TO.P,J6,5,Pin_5*%
%TO.N,/1P_DOWN*%
X4592400Y17023000D03*
%TO.P,J6,6,Pin_6*%
%TO.N,/1P_Y*%
X7132400Y17023000D03*
%TO.P,J6,7,Pin_7*%
%TO.N,/1P_LEFT*%
X4592400Y14483000D03*
%TO.P,J6,8,Pin_8*%
%TO.N,/1P_GND*%
X7132400Y14483000D03*
%TO.P,J6,9,Pin_9*%
%TO.N,/1P_RIGHT*%
X4592400Y11943000D03*
%TO.P,J6,10,Pin_10*%
%TO.N,/1P_TR*%
X7132400Y11943000D03*
%TO.P,J6,11,Pin_11*%
%TO.N,unconnected-(J6-Pin_11-Pad11)*%
X4592400Y9403000D03*
%TO.P,J6,12,Pin_12*%
%TO.N,/1P_B*%
X7132400Y9403000D03*
%TO.P,J6,13,Pin_13*%
%TO.N,/1P_START*%
X4592400Y6863000D03*
%TO.P,J6,14,Pin_14*%
%TO.N,/1P_GND*%
X7132400Y6863000D03*
%TO.P,J6,15,Pin_15*%
%TO.N,/1P_SELECT*%
X4592400Y4323000D03*
%TO.P,J6,16,Pin_16*%
%TO.N,/1P_A*%
X7132400Y4323000D03*
%TO.P,J6,17,Pin_17*%
%TO.N,/1P_HK*%
X4592400Y1783000D03*
%TO.P,J6,18,Pin_18*%
%TO.N,unconnected-(J6-Pin_18-Pad18)*%
X7132400Y1783000D03*
%TD*%
D10*
%TO.P,J10,1,Pin_1*%
%TO.N,/1P_UP*%
X863600Y20055600D03*
D11*
%TO.P,J10,2,Pin_2*%
%TO.N,/1P_TL*%
X863600Y18805600D03*
%TO.P,J10,3,Pin_3*%
%TO.N,/1P_X*%
X863600Y17555600D03*
%TO.P,J10,4,Pin_4*%
%TO.N,/1P_DOWN*%
X863600Y16305600D03*
%TO.P,J10,5,Pin_5*%
%TO.N,/1P_Y*%
X863600Y15055600D03*
%TO.P,J10,6,Pin_6*%
%TO.N,/1P_LEFT*%
X863600Y13805600D03*
%TO.P,J10,7,Pin_7*%
%TO.N,/1P_RIGHT*%
X863600Y12555600D03*
%TO.P,J10,8,Pin_8*%
%TO.N,/1P_TR*%
X863600Y11305600D03*
%TO.P,J10,9,Pin_9*%
%TO.N,/1P_B*%
X863600Y10055600D03*
%TO.P,J10,10,Pin_10*%
%TO.N,/1P_START*%
X863600Y8805600D03*
%TO.P,J10,11,Pin_11*%
%TO.N,/1P_SELECT*%
X863600Y7555600D03*
%TO.P,J10,12,Pin_12*%
%TO.N,/1P_A*%
X863600Y6305600D03*
%TO.P,J10,13,Pin_13*%
%TO.N,/1P_GND*%
X863600Y5055600D03*
%TO.P,J10,14,Pin_14*%
%TO.N,/1P_HK*%
X863600Y3805600D03*
%TD*%
D14*
%TO.N,/1P_UP*%
X2546600Y20057200D02*
X4592400Y22103000D01*
X863600Y20057200D02*
X2546600Y20057200D01*
%TO.N,/1P_DOWN*%
X4592400Y17023000D02*
X5080000Y17023000D01*
X3875000Y16305600D02*
X4592400Y17023000D01*
X863600Y16305600D02*
X3875000Y16305600D01*
X10318600Y16305600D02*
X10845800Y16305600D01*
X6324600Y18267600D02*
X8356600Y18267600D01*
X8356600Y18267600D02*
X10318600Y16305600D01*
X5080000Y17023000D02*
X6324600Y18267600D01*
%TO.N,/1P_LEFT*%
X4592400Y14483000D02*
X5029200Y14483000D01*
X4084400Y13975000D02*
X4592400Y14483000D01*
X9872200Y13805600D02*
X10845800Y13805600D01*
X6299200Y15753000D02*
X7924800Y15753000D01*
X863600Y13805600D02*
X1033000Y13975000D01*
X1033000Y13975000D02*
X4084400Y13975000D01*
X7924800Y15753000D02*
X9872200Y13805600D01*
X5029200Y14483000D02*
X6299200Y15753000D01*
%TO.N,/1P_RIGHT*%
X4592400Y11943000D02*
X5887800Y13238400D01*
X863600Y12555600D02*
X968200Y12451000D01*
X4084400Y12451000D02*
X4592400Y11943000D01*
X5887800Y13238400D02*
X9652000Y13238400D01*
X968200Y12451000D02*
X4084400Y12451000D01*
X9652000Y13238400D02*
X10334800Y12555600D01*
X10334800Y12555600D02*
X10845800Y12555600D01*
%TO.N,/1P_START*%
X10324600Y8805600D02*
X10845800Y8805600D01*
X3352800Y6863000D02*
X4592400Y6863000D01*
X9652000Y8133000D02*
X10324600Y8805600D01*
X863600Y8805600D02*
X1410200Y8805600D01*
X4592400Y6863000D02*
X5228796Y6863000D01*
X6498796Y8133000D02*
X9652000Y8133000D01*
X1410200Y8805600D02*
X3352800Y6863000D01*
X5228796Y6863000D02*
X6498796Y8133000D01*
%TO.N,/1P_SELECT*%
X10293800Y7555600D02*
X10845800Y7555600D01*
X5862400Y5593000D02*
X8331200Y5593000D01*
X4592400Y4323000D02*
X5862400Y5593000D01*
X1359800Y7555600D02*
X4592400Y4323000D01*
X8331200Y5593000D02*
X10293800Y7555600D01*
X863600Y7555600D02*
X1359800Y7555600D01*
%TO.N,/1P_A*%
X6731000Y4323000D02*
X7132400Y4323000D01*
X1421000Y6305600D02*
X2794000Y4932600D01*
X5461000Y3053000D02*
X6731000Y4323000D01*
X3958796Y3053000D02*
X5461000Y3053000D01*
X10293400Y6305600D02*
X10845800Y6305600D01*
X8310800Y4323000D02*
X10293400Y6305600D01*
X2794000Y4217796D02*
X3958796Y3053000D01*
X7132400Y4323000D02*
X8310800Y4323000D01*
X863600Y6305600D02*
X1421000Y6305600D01*
X2794000Y4932600D02*
X2794000Y4217796D01*
%TO.N,/1P_B*%
X7132400Y9403000D02*
X7785000Y10055600D01*
X7785000Y10055600D02*
X10845800Y10055600D01*
X1379400Y10055600D02*
X2179400Y9255600D01*
X6756400Y9403000D02*
X7132400Y9403000D01*
X3303396Y8133000D02*
X5486400Y8133000D01*
X2180796Y9255600D02*
X3303396Y8133000D01*
X5486400Y8133000D02*
X6756400Y9403000D01*
X863600Y10055600D02*
X1379400Y10055600D01*
X2179400Y9255600D02*
X2180796Y9255600D01*
%TO.N,/1P_X*%
X7772400Y19563000D02*
X9779800Y17555600D01*
X2108200Y18293000D02*
X5588000Y18293000D01*
X1370800Y17555600D02*
X2108200Y18293000D01*
X5588000Y18293000D02*
X6858000Y19563000D01*
X863600Y17555600D02*
X1370800Y17555600D01*
X6858000Y19563000D02*
X7132400Y19563000D01*
X9779800Y17555600D02*
X10845800Y17555600D01*
X7132400Y19563000D02*
X7772400Y19563000D01*
%TO.N,/1P_Y*%
X6629400Y17023000D02*
X7132400Y17023000D01*
X7132400Y17023000D02*
X7620000Y17023000D01*
X863600Y15055600D02*
X1410800Y15055600D01*
X5359400Y15753000D02*
X6629400Y17023000D01*
X2108200Y15753000D02*
X5359400Y15753000D01*
X9587400Y15055600D02*
X10845800Y15055600D01*
X1410800Y15055600D02*
X2108200Y15753000D01*
X7620000Y17023000D02*
X9587400Y15055600D01*
%TO.N,/1P_TL*%
X1967000Y18807200D02*
X3992800Y20833000D01*
X5862400Y20833000D02*
X7132400Y22103000D01*
X10267000Y18805600D02*
X7132400Y21940200D01*
X863600Y18807200D02*
X1967000Y18807200D01*
X10845800Y18805600D02*
X10267000Y18805600D01*
X7132400Y21940200D02*
X7132400Y22103000D01*
X3992800Y20833000D02*
X5862400Y20833000D01*
%TO.N,/1P_TR*%
X5862400Y10673000D02*
X7132400Y11943000D01*
X7132400Y11943000D02*
X7615000Y11460400D01*
X7615000Y11460400D02*
X10691000Y11460400D01*
X863600Y11305600D02*
X1399400Y11305600D01*
X1399400Y11305600D02*
X2032000Y10673000D01*
X10691000Y11460400D02*
X10845800Y11305600D01*
X2032000Y10673000D02*
X5862400Y10673000D01*
%TO.N,/1P_HK*%
X10845800Y3805600D02*
X8540200Y3805600D01*
X7787600Y3053000D02*
X6299200Y3053000D01*
X863600Y3807200D02*
X2568200Y3807200D01*
X2568200Y3807200D02*
X4592400Y1783000D01*
X8540200Y3805600D02*
X7787600Y3053000D01*
X5029200Y1783000D02*
X4592400Y1783000D01*
X6299200Y3053000D02*
X5029200Y1783000D01*
%TD*%
M02*
