%TF.GenerationSoftware,KiCad,Pcbnew,7.0.1*%
%TF.CreationDate,2023-03-28T23:33:08+09:00*%
%TF.ProjectId,joystick_gpio_input_1p_rasp_part,6a6f7973-7469-4636-9b5f-6770696f5f69,2*%
%TF.SameCoordinates,PX8841978PY69edb98*%
%TF.FileFunction,Legend,Bot*%
%TF.FilePolarity,Positive*%
%FSLAX46Y46*%
G04 Gerber Fmt 4.6, Leading zero omitted, Abs format (unit mm)*
G04 Created by KiCad (PCBNEW 7.0.1) date 2023-03-28 23:33:08*
%MOMM*%
%LPD*%
G01*
G04 APERTURE LIST*
G04 Aperture macros list*
%AMRoundRect*
0 Rectangle with rounded corners*
0 $1 Rounding radius*
0 $2 $3 $4 $5 $6 $7 $8 $9 X,Y pos of 4 corners*
0 Add a 4 corners polygon primitive as box body*
4,1,4,$2,$3,$4,$5,$6,$7,$8,$9,$2,$3,0*
0 Add four circle primitives for the rounded corners*
1,1,$1+$1,$2,$3*
1,1,$1+$1,$4,$5*
1,1,$1+$1,$6,$7*
1,1,$1+$1,$8,$9*
0 Add four rect primitives between the rounded corners*
20,1,$1+$1,$2,$3,$4,$5,0*
20,1,$1+$1,$4,$5,$6,$7,0*
20,1,$1+$1,$6,$7,$8,$9,0*
20,1,$1+$1,$8,$9,$2,$3,0*%
G04 Aperture macros list end*
%ADD10C,0.100000*%
%ADD11C,0.120000*%
%ADD12RoundRect,0.200000X-0.450000X0.200000X-0.450000X-0.200000X0.450000X-0.200000X0.450000X0.200000X0*%
%ADD13O,1.300000X0.800000*%
%ADD14R,1.700000X1.700000*%
%ADD15O,1.700000X1.700000*%
G04 APERTURE END LIST*
D10*
%TO.C,J8*%
X9398076Y5436010D02*
X9474266Y5474105D01*
X9474266Y5474105D02*
X9588552Y5474105D01*
X9588552Y5474105D02*
X9702838Y5436010D01*
X9702838Y5436010D02*
X9779028Y5359820D01*
X9779028Y5359820D02*
X9817123Y5283629D01*
X9817123Y5283629D02*
X9855219Y5131248D01*
X9855219Y5131248D02*
X9855219Y5016962D01*
X9855219Y5016962D02*
X9817123Y4864581D01*
X9817123Y4864581D02*
X9779028Y4788391D01*
X9779028Y4788391D02*
X9702838Y4712200D01*
X9702838Y4712200D02*
X9588552Y4674105D01*
X9588552Y4674105D02*
X9512361Y4674105D01*
X9512361Y4674105D02*
X9398076Y4712200D01*
X9398076Y4712200D02*
X9359980Y4750296D01*
X9359980Y4750296D02*
X9359980Y5016962D01*
X9359980Y5016962D02*
X9512361Y5016962D01*
X9931409Y11722505D02*
X9474266Y11722505D01*
X9702838Y10922505D02*
X9702838Y11722505D01*
X8750456Y10922505D02*
X9017123Y11303458D01*
X9207599Y10922505D02*
X9207599Y11722505D01*
X9207599Y11722505D02*
X8902837Y11722505D01*
X8902837Y11722505D02*
X8826647Y11684410D01*
X8826647Y11684410D02*
X8788552Y11646315D01*
X8788552Y11646315D02*
X8750456Y11570124D01*
X8750456Y11570124D02*
X8750456Y11455839D01*
X8750456Y11455839D02*
X8788552Y11379648D01*
X8788552Y11379648D02*
X8826647Y11341553D01*
X8826647Y11341553D02*
X8902837Y11303458D01*
X8902837Y11303458D02*
X9207599Y11303458D01*
X9893323Y15926305D02*
X9893323Y16726305D01*
X9893323Y16726305D02*
X9702847Y16726305D01*
X9702847Y16726305D02*
X9588561Y16688210D01*
X9588561Y16688210D02*
X9512371Y16612020D01*
X9512371Y16612020D02*
X9474276Y16535829D01*
X9474276Y16535829D02*
X9436180Y16383448D01*
X9436180Y16383448D02*
X9436180Y16269162D01*
X9436180Y16269162D02*
X9474276Y16116781D01*
X9474276Y16116781D02*
X9512371Y16040591D01*
X9512371Y16040591D02*
X9588561Y15964400D01*
X9588561Y15964400D02*
X9702847Y15926305D01*
X9702847Y15926305D02*
X9893323Y15926305D01*
X9093323Y15926305D02*
X9093323Y16726305D01*
X9093323Y16726305D02*
X8636180Y15926305D01*
X8636180Y15926305D02*
X8636180Y16726305D01*
X9855219Y7201400D02*
X9740933Y7163305D01*
X9740933Y7163305D02*
X9550457Y7163305D01*
X9550457Y7163305D02*
X9474266Y7201400D01*
X9474266Y7201400D02*
X9436171Y7239496D01*
X9436171Y7239496D02*
X9398076Y7315686D01*
X9398076Y7315686D02*
X9398076Y7391877D01*
X9398076Y7391877D02*
X9436171Y7468067D01*
X9436171Y7468067D02*
X9474266Y7506162D01*
X9474266Y7506162D02*
X9550457Y7544258D01*
X9550457Y7544258D02*
X9702838Y7582353D01*
X9702838Y7582353D02*
X9779028Y7620448D01*
X9779028Y7620448D02*
X9817123Y7658543D01*
X9817123Y7658543D02*
X9855219Y7734734D01*
X9855219Y7734734D02*
X9855219Y7810924D01*
X9855219Y7810924D02*
X9817123Y7887115D01*
X9817123Y7887115D02*
X9779028Y7925210D01*
X9779028Y7925210D02*
X9702838Y7963305D01*
X9702838Y7963305D02*
X9512361Y7963305D01*
X9512361Y7963305D02*
X9398076Y7925210D01*
X8674266Y7163305D02*
X9055218Y7163305D01*
X9055218Y7163305D02*
X9055218Y7963305D01*
X9436171Y13411705D02*
X9817123Y13411705D01*
X9817123Y13411705D02*
X9817123Y14211705D01*
X9359980Y12167105D02*
X9626647Y12548058D01*
X9817123Y12167105D02*
X9817123Y12967105D01*
X9817123Y12967105D02*
X9512361Y12967105D01*
X9512361Y12967105D02*
X9436171Y12929010D01*
X9436171Y12929010D02*
X9398076Y12890915D01*
X9398076Y12890915D02*
X9359980Y12814724D01*
X9359980Y12814724D02*
X9359980Y12700439D01*
X9359980Y12700439D02*
X9398076Y12624248D01*
X9398076Y12624248D02*
X9436171Y12586153D01*
X9436171Y12586153D02*
X9512361Y12548058D01*
X9512361Y12548058D02*
X9817123Y12548058D01*
X9855219Y6147277D02*
X9474266Y6147277D01*
X9931409Y5918705D02*
X9664742Y6718705D01*
X9664742Y6718705D02*
X9398076Y5918705D01*
X9893323Y20485505D02*
X9893323Y19837886D01*
X9893323Y19837886D02*
X9855228Y19761696D01*
X9855228Y19761696D02*
X9817133Y19723600D01*
X9817133Y19723600D02*
X9740942Y19685505D01*
X9740942Y19685505D02*
X9588561Y19685505D01*
X9588561Y19685505D02*
X9512371Y19723600D01*
X9512371Y19723600D02*
X9474276Y19761696D01*
X9474276Y19761696D02*
X9436180Y19837886D01*
X9436180Y19837886D02*
X9436180Y20485505D01*
X9055228Y19685505D02*
X9055228Y20485505D01*
X9055228Y20485505D02*
X8750466Y20485505D01*
X8750466Y20485505D02*
X8674276Y20447410D01*
X8674276Y20447410D02*
X8636181Y20409315D01*
X8636181Y20409315D02*
X8598085Y20333124D01*
X8598085Y20333124D02*
X8598085Y20218839D01*
X8598085Y20218839D02*
X8636181Y20142648D01*
X8636181Y20142648D02*
X8674276Y20104553D01*
X8674276Y20104553D02*
X8750466Y20066458D01*
X8750466Y20066458D02*
X9055228Y20066458D01*
X9664742Y15062658D02*
X9664742Y14681705D01*
X9931409Y15481705D02*
X9664742Y15062658D01*
X9664742Y15062658D02*
X9398076Y15481705D01*
X9855219Y8471400D02*
X9740933Y8433305D01*
X9740933Y8433305D02*
X9550457Y8433305D01*
X9550457Y8433305D02*
X9474266Y8471400D01*
X9474266Y8471400D02*
X9436171Y8509496D01*
X9436171Y8509496D02*
X9398076Y8585686D01*
X9398076Y8585686D02*
X9398076Y8661877D01*
X9398076Y8661877D02*
X9436171Y8738067D01*
X9436171Y8738067D02*
X9474266Y8776162D01*
X9474266Y8776162D02*
X9550457Y8814258D01*
X9550457Y8814258D02*
X9702838Y8852353D01*
X9702838Y8852353D02*
X9779028Y8890448D01*
X9779028Y8890448D02*
X9817123Y8928543D01*
X9817123Y8928543D02*
X9855219Y9004734D01*
X9855219Y9004734D02*
X9855219Y9080924D01*
X9855219Y9080924D02*
X9817123Y9157115D01*
X9817123Y9157115D02*
X9779028Y9195210D01*
X9779028Y9195210D02*
X9702838Y9233305D01*
X9702838Y9233305D02*
X9512361Y9233305D01*
X9512361Y9233305D02*
X9398076Y9195210D01*
X9169504Y9233305D02*
X8712361Y9233305D01*
X8940933Y8433305D02*
X8940933Y9233305D01*
X9893323Y3429505D02*
X9893323Y4229505D01*
X9893323Y3848553D02*
X9436180Y3848553D01*
X9436180Y3429505D02*
X9436180Y4229505D01*
X9055228Y3429505D02*
X9055228Y4229505D01*
X8598085Y3429505D02*
X8940943Y3886648D01*
X8598085Y4229505D02*
X9055228Y3772362D01*
X9550457Y10096953D02*
X9436171Y10058858D01*
X9436171Y10058858D02*
X9398076Y10020762D01*
X9398076Y10020762D02*
X9359980Y9944572D01*
X9359980Y9944572D02*
X9359980Y9830286D01*
X9359980Y9830286D02*
X9398076Y9754096D01*
X9398076Y9754096D02*
X9436171Y9716000D01*
X9436171Y9716000D02*
X9512361Y9677905D01*
X9512361Y9677905D02*
X9817123Y9677905D01*
X9817123Y9677905D02*
X9817123Y10477905D01*
X9817123Y10477905D02*
X9550457Y10477905D01*
X9550457Y10477905D02*
X9474266Y10439810D01*
X9474266Y10439810D02*
X9436171Y10401715D01*
X9436171Y10401715D02*
X9398076Y10325524D01*
X9398076Y10325524D02*
X9398076Y10249334D01*
X9398076Y10249334D02*
X9436171Y10173143D01*
X9436171Y10173143D02*
X9474266Y10135048D01*
X9474266Y10135048D02*
X9550457Y10096953D01*
X9550457Y10096953D02*
X9817123Y10096953D01*
X9893314Y17970905D02*
X9359980Y17170905D01*
X9359980Y17970905D02*
X9893314Y17170905D01*
X9931409Y19240905D02*
X9474266Y19240905D01*
X9702838Y18440905D02*
X9702838Y19240905D01*
X8826647Y18440905D02*
X9207599Y18440905D01*
X9207599Y18440905D02*
X9207599Y19240905D01*
%TO.C,J10*%
X1828780Y12167105D02*
X2095447Y12548058D01*
X2285923Y12167105D02*
X2285923Y12967105D01*
X2285923Y12967105D02*
X1981161Y12967105D01*
X1981161Y12967105D02*
X1904971Y12929010D01*
X1904971Y12929010D02*
X1866876Y12890915D01*
X1866876Y12890915D02*
X1828780Y12814724D01*
X1828780Y12814724D02*
X1828780Y12700439D01*
X1828780Y12700439D02*
X1866876Y12624248D01*
X1866876Y12624248D02*
X1904971Y12586153D01*
X1904971Y12586153D02*
X1981161Y12548058D01*
X1981161Y12548058D02*
X2285923Y12548058D01*
X2019256Y15062658D02*
X2019256Y14681705D01*
X2285923Y15481705D02*
X2019256Y15062658D01*
X2019256Y15062658D02*
X1752590Y15481705D01*
X3124018Y3429505D02*
X3124018Y4229505D01*
X3124018Y3848553D02*
X2666875Y3848553D01*
X2666875Y3429505D02*
X2666875Y4229505D01*
X2285923Y3429505D02*
X2285923Y4229505D01*
X1828780Y3429505D02*
X2171638Y3886648D01*
X1828780Y4229505D02*
X2285923Y3772362D01*
X2857352Y19240905D02*
X2400209Y19240905D01*
X2628781Y18440905D02*
X2628781Y19240905D01*
X1752590Y18440905D02*
X2133542Y18440905D01*
X2133542Y18440905D02*
X2133542Y19240905D01*
X2324019Y17970905D02*
X1790685Y17170905D01*
X1790685Y17970905D02*
X2324019Y17170905D01*
X1866876Y5436010D02*
X1943066Y5474105D01*
X1943066Y5474105D02*
X2057352Y5474105D01*
X2057352Y5474105D02*
X2171638Y5436010D01*
X2171638Y5436010D02*
X2247828Y5359820D01*
X2247828Y5359820D02*
X2285923Y5283629D01*
X2285923Y5283629D02*
X2324019Y5131248D01*
X2324019Y5131248D02*
X2324019Y5016962D01*
X2324019Y5016962D02*
X2285923Y4864581D01*
X2285923Y4864581D02*
X2247828Y4788391D01*
X2247828Y4788391D02*
X2171638Y4712200D01*
X2171638Y4712200D02*
X2057352Y4674105D01*
X2057352Y4674105D02*
X1981161Y4674105D01*
X1981161Y4674105D02*
X1866876Y4712200D01*
X1866876Y4712200D02*
X1828780Y4750296D01*
X1828780Y4750296D02*
X1828780Y5016962D01*
X1828780Y5016962D02*
X1981161Y5016962D01*
X2209733Y6147277D02*
X1828780Y6147277D01*
X2285923Y5918705D02*
X2019256Y6718705D01*
X2019256Y6718705D02*
X1752590Y5918705D01*
X3009733Y11722505D02*
X2552590Y11722505D01*
X2781162Y10922505D02*
X2781162Y11722505D01*
X1828780Y10922505D02*
X2095447Y11303458D01*
X2285923Y10922505D02*
X2285923Y11722505D01*
X2285923Y11722505D02*
X1981161Y11722505D01*
X1981161Y11722505D02*
X1904971Y11684410D01*
X1904971Y11684410D02*
X1866876Y11646315D01*
X1866876Y11646315D02*
X1828780Y11570124D01*
X1828780Y11570124D02*
X1828780Y11455839D01*
X1828780Y11455839D02*
X1866876Y11379648D01*
X1866876Y11379648D02*
X1904971Y11341553D01*
X1904971Y11341553D02*
X1981161Y11303458D01*
X1981161Y11303458D02*
X2285923Y11303458D01*
X2895448Y8471400D02*
X2781162Y8433305D01*
X2781162Y8433305D02*
X2590686Y8433305D01*
X2590686Y8433305D02*
X2514495Y8471400D01*
X2514495Y8471400D02*
X2476400Y8509496D01*
X2476400Y8509496D02*
X2438305Y8585686D01*
X2438305Y8585686D02*
X2438305Y8661877D01*
X2438305Y8661877D02*
X2476400Y8738067D01*
X2476400Y8738067D02*
X2514495Y8776162D01*
X2514495Y8776162D02*
X2590686Y8814258D01*
X2590686Y8814258D02*
X2743067Y8852353D01*
X2743067Y8852353D02*
X2819257Y8890448D01*
X2819257Y8890448D02*
X2857352Y8928543D01*
X2857352Y8928543D02*
X2895448Y9004734D01*
X2895448Y9004734D02*
X2895448Y9080924D01*
X2895448Y9080924D02*
X2857352Y9157115D01*
X2857352Y9157115D02*
X2819257Y9195210D01*
X2819257Y9195210D02*
X2743067Y9233305D01*
X2743067Y9233305D02*
X2552590Y9233305D01*
X2552590Y9233305D02*
X2438305Y9195210D01*
X2209733Y9233305D02*
X1752590Y9233305D01*
X1981162Y8433305D02*
X1981162Y9233305D01*
X3124018Y15926305D02*
X3124018Y16726305D01*
X3124018Y16726305D02*
X2933542Y16726305D01*
X2933542Y16726305D02*
X2819256Y16688210D01*
X2819256Y16688210D02*
X2743066Y16612020D01*
X2743066Y16612020D02*
X2704971Y16535829D01*
X2704971Y16535829D02*
X2666875Y16383448D01*
X2666875Y16383448D02*
X2666875Y16269162D01*
X2666875Y16269162D02*
X2704971Y16116781D01*
X2704971Y16116781D02*
X2743066Y16040591D01*
X2743066Y16040591D02*
X2819256Y15964400D01*
X2819256Y15964400D02*
X2933542Y15926305D01*
X2933542Y15926305D02*
X3124018Y15926305D01*
X2324018Y15926305D02*
X2324018Y16726305D01*
X2324018Y16726305D02*
X1866875Y15926305D01*
X1866875Y15926305D02*
X1866875Y16726305D01*
X3124018Y20485505D02*
X3124018Y19837886D01*
X3124018Y19837886D02*
X3085923Y19761696D01*
X3085923Y19761696D02*
X3047828Y19723600D01*
X3047828Y19723600D02*
X2971637Y19685505D01*
X2971637Y19685505D02*
X2819256Y19685505D01*
X2819256Y19685505D02*
X2743066Y19723600D01*
X2743066Y19723600D02*
X2704971Y19761696D01*
X2704971Y19761696D02*
X2666875Y19837886D01*
X2666875Y19837886D02*
X2666875Y20485505D01*
X2285923Y19685505D02*
X2285923Y20485505D01*
X2285923Y20485505D02*
X1981161Y20485505D01*
X1981161Y20485505D02*
X1904971Y20447410D01*
X1904971Y20447410D02*
X1866876Y20409315D01*
X1866876Y20409315D02*
X1828780Y20333124D01*
X1828780Y20333124D02*
X1828780Y20218839D01*
X1828780Y20218839D02*
X1866876Y20142648D01*
X1866876Y20142648D02*
X1904971Y20104553D01*
X1904971Y20104553D02*
X1981161Y20066458D01*
X1981161Y20066458D02*
X2285923Y20066458D01*
X2933543Y7201400D02*
X2819257Y7163305D01*
X2819257Y7163305D02*
X2628781Y7163305D01*
X2628781Y7163305D02*
X2552590Y7201400D01*
X2552590Y7201400D02*
X2514495Y7239496D01*
X2514495Y7239496D02*
X2476400Y7315686D01*
X2476400Y7315686D02*
X2476400Y7391877D01*
X2476400Y7391877D02*
X2514495Y7468067D01*
X2514495Y7468067D02*
X2552590Y7506162D01*
X2552590Y7506162D02*
X2628781Y7544258D01*
X2628781Y7544258D02*
X2781162Y7582353D01*
X2781162Y7582353D02*
X2857352Y7620448D01*
X2857352Y7620448D02*
X2895447Y7658543D01*
X2895447Y7658543D02*
X2933543Y7734734D01*
X2933543Y7734734D02*
X2933543Y7810924D01*
X2933543Y7810924D02*
X2895447Y7887115D01*
X2895447Y7887115D02*
X2857352Y7925210D01*
X2857352Y7925210D02*
X2781162Y7963305D01*
X2781162Y7963305D02*
X2590685Y7963305D01*
X2590685Y7963305D02*
X2476400Y7925210D01*
X1752590Y7163305D02*
X2133542Y7163305D01*
X2133542Y7163305D02*
X2133542Y7963305D01*
X1752590Y13411705D02*
X2133542Y13411705D01*
X2133542Y13411705D02*
X2133542Y14211705D01*
X2019257Y10096953D02*
X1904971Y10058858D01*
X1904971Y10058858D02*
X1866876Y10020762D01*
X1866876Y10020762D02*
X1828780Y9944572D01*
X1828780Y9944572D02*
X1828780Y9830286D01*
X1828780Y9830286D02*
X1866876Y9754096D01*
X1866876Y9754096D02*
X1904971Y9716000D01*
X1904971Y9716000D02*
X1981161Y9677905D01*
X1981161Y9677905D02*
X2285923Y9677905D01*
X2285923Y9677905D02*
X2285923Y10477905D01*
X2285923Y10477905D02*
X2019257Y10477905D01*
X2019257Y10477905D02*
X1943066Y10439810D01*
X1943066Y10439810D02*
X1904971Y10401715D01*
X1904971Y10401715D02*
X1866876Y10325524D01*
X1866876Y10325524D02*
X1866876Y10249334D01*
X1866876Y10249334D02*
X1904971Y10173143D01*
X1904971Y10173143D02*
X1943066Y10135048D01*
X1943066Y10135048D02*
X2019257Y10096953D01*
X2019257Y10096953D02*
X2285923Y10096953D01*
D11*
%TO.C,J8*%
X11607800Y20563600D02*
X10083800Y20563600D01*
X10083800Y20563600D02*
X10083800Y3291600D01*
X11607800Y3291600D02*
X11607800Y20563600D01*
X11607800Y3291600D02*
X10083800Y3291600D01*
%TO.C,J6*%
X8462400Y453000D02*
X3262400Y453000D01*
X8462400Y23433000D02*
X8462400Y453000D01*
X8462400Y23433000D02*
X5862400Y23433000D01*
X5862400Y20833000D02*
X3262400Y20833000D01*
X5862400Y23433000D02*
X5862400Y20833000D01*
X4592400Y23433000D02*
X3262400Y23433000D01*
X3262400Y20833000D02*
X3262400Y453000D01*
X3262400Y23433000D02*
X3262400Y22103000D01*
%TO.C,J10*%
X1625600Y20563600D02*
X101600Y20563600D01*
X101600Y20563600D02*
X101600Y3291600D01*
X1625600Y3291600D02*
X1625600Y20563600D01*
X1625600Y3291600D02*
X101600Y3291600D01*
%TD*%
%LPC*%
D12*
%TO.C,J8*%
X10845800Y20055600D03*
D13*
X10845800Y18805600D03*
X10845800Y17555600D03*
X10845800Y16305600D03*
X10845800Y15055600D03*
X10845800Y13805600D03*
X10845800Y12555600D03*
X10845800Y11305600D03*
X10845800Y10055600D03*
X10845800Y8805600D03*
X10845800Y7555600D03*
X10845800Y6305600D03*
X10845800Y5055600D03*
X10845800Y3805600D03*
%TD*%
D14*
%TO.C,J6*%
X4592400Y22103000D03*
D15*
X7132400Y22103000D03*
X4592400Y19563000D03*
X7132400Y19563000D03*
X4592400Y17023000D03*
X7132400Y17023000D03*
X4592400Y14483000D03*
X7132400Y14483000D03*
X4592400Y11943000D03*
X7132400Y11943000D03*
X4592400Y9403000D03*
X7132400Y9403000D03*
X4592400Y6863000D03*
X7132400Y6863000D03*
X4592400Y4323000D03*
X7132400Y4323000D03*
X4592400Y1783000D03*
X7132400Y1783000D03*
%TD*%
D12*
%TO.C,J10*%
X863600Y20055600D03*
D13*
X863600Y18805600D03*
X863600Y17555600D03*
X863600Y16305600D03*
X863600Y15055600D03*
X863600Y13805600D03*
X863600Y12555600D03*
X863600Y11305600D03*
X863600Y10055600D03*
X863600Y8805600D03*
X863600Y7555600D03*
X863600Y6305600D03*
X863600Y5055600D03*
X863600Y3805600D03*
%TD*%
M02*
