%TF.GenerationSoftware,KiCad,Pcbnew,7.0.1*%
%TF.CreationDate,2023-04-02T13:10:04+09:00*%
%TF.ProjectId,joystick_gpio_input_1p_rasp_part,6a6f7973-7469-4636-9b5f-6770696f5f69,2*%
%TF.SameCoordinates,PX8841978PY69edb98*%
%TF.FileFunction,Legend,Top*%
%TF.FilePolarity,Positive*%
%FSLAX46Y46*%
G04 Gerber Fmt 4.6, Leading zero omitted, Abs format (unit mm)*
G04 Created by KiCad (PCBNEW 7.0.1) date 2023-04-02 13:10:04*
%MOMM*%
%LPD*%
G01*
G04 APERTURE LIST*
G04 Aperture macros list*
%AMRoundRect*
0 Rectangle with rounded corners*
0 $1 Rounding radius*
0 $2 $3 $4 $5 $6 $7 $8 $9 X,Y pos of 4 corners*
0 Add a 4 corners polygon primitive as box body*
4,1,4,$2,$3,$4,$5,$6,$7,$8,$9,$2,$3,0*
0 Add four circle primitives for the rounded corners*
1,1,$1+$1,$2,$3*
1,1,$1+$1,$4,$5*
1,1,$1+$1,$6,$7*
1,1,$1+$1,$8,$9*
0 Add four rect primitives between the rounded corners*
20,1,$1+$1,$2,$3,$4,$5,0*
20,1,$1+$1,$4,$5,$6,$7,0*
20,1,$1+$1,$6,$7,$8,$9,0*
20,1,$1+$1,$8,$9,$2,$3,0*%
G04 Aperture macros list end*
%ADD10C,0.150000*%
%ADD11RoundRect,0.200000X-0.450000X0.200000X-0.450000X-0.200000X0.450000X-0.200000X0.450000X0.200000X0*%
%ADD12O,1.300000X0.800000*%
%ADD13R,1.700000X1.700000*%
%ADD14O,1.700000X1.700000*%
G04 APERTURE END LIST*
D10*
X9271000Y20497800D02*
X9245600Y3378200D01*
X2438400Y20497800D02*
X2413000Y3378200D01*
X9027809Y14268477D02*
X9065904Y14344667D01*
X9065904Y14344667D02*
X9065904Y14458953D01*
X9065904Y14458953D02*
X9027809Y14573239D01*
X9027809Y14573239D02*
X8951619Y14649429D01*
X8951619Y14649429D02*
X8875428Y14687524D01*
X8875428Y14687524D02*
X8723047Y14725620D01*
X8723047Y14725620D02*
X8608761Y14725620D01*
X8608761Y14725620D02*
X8456380Y14687524D01*
X8456380Y14687524D02*
X8380190Y14649429D01*
X8380190Y14649429D02*
X8304000Y14573239D01*
X8304000Y14573239D02*
X8265904Y14458953D01*
X8265904Y14458953D02*
X8265904Y14382762D01*
X8265904Y14382762D02*
X8304000Y14268477D01*
X8304000Y14268477D02*
X8342095Y14230381D01*
X8342095Y14230381D02*
X8608761Y14230381D01*
X8608761Y14230381D02*
X8608761Y14382762D01*
X3456200Y3765619D02*
X3494295Y3879905D01*
X3494295Y3879905D02*
X3494295Y4070381D01*
X3494295Y4070381D02*
X3456200Y4146572D01*
X3456200Y4146572D02*
X3418104Y4184667D01*
X3418104Y4184667D02*
X3341914Y4222762D01*
X3341914Y4222762D02*
X3265723Y4222762D01*
X3265723Y4222762D02*
X3189533Y4184667D01*
X3189533Y4184667D02*
X3151438Y4146572D01*
X3151438Y4146572D02*
X3113342Y4070381D01*
X3113342Y4070381D02*
X3075247Y3918000D01*
X3075247Y3918000D02*
X3037152Y3841810D01*
X3037152Y3841810D02*
X2999057Y3803715D01*
X2999057Y3803715D02*
X2922866Y3765619D01*
X2922866Y3765619D02*
X2846676Y3765619D01*
X2846676Y3765619D02*
X2770485Y3803715D01*
X2770485Y3803715D02*
X2732390Y3841810D01*
X2732390Y3841810D02*
X2694295Y3918000D01*
X2694295Y3918000D02*
X2694295Y4108477D01*
X2694295Y4108477D02*
X2732390Y4222762D01*
X3494295Y4946572D02*
X3494295Y4565620D01*
X3494295Y4565620D02*
X2694295Y4565620D01*
X5721371Y2703305D02*
X5264228Y2703305D01*
X5492800Y2703305D02*
X5492800Y3503305D01*
X5492800Y3503305D02*
X5416609Y3389020D01*
X5416609Y3389020D02*
X5340419Y3312829D01*
X5340419Y3312829D02*
X5264228Y3274734D01*
X6064229Y2703305D02*
X6064229Y3503305D01*
X6064229Y3503305D02*
X6368991Y3503305D01*
X6368991Y3503305D02*
X6445181Y3465210D01*
X6445181Y3465210D02*
X6483276Y3427115D01*
X6483276Y3427115D02*
X6521372Y3350924D01*
X6521372Y3350924D02*
X6521372Y3236639D01*
X6521372Y3236639D02*
X6483276Y3160448D01*
X6483276Y3160448D02*
X6445181Y3122353D01*
X6445181Y3122353D02*
X6368991Y3084258D01*
X6368991Y3084258D02*
X6064229Y3084258D01*
X9040504Y22650381D02*
X9040504Y22193238D01*
X8240504Y22421810D02*
X9040504Y22421810D01*
X8240504Y21545619D02*
X8240504Y21926571D01*
X8240504Y21926571D02*
X9040504Y21926571D01*
X2706990Y19772524D02*
X2668895Y19696334D01*
X2668895Y19696334D02*
X2668895Y19582048D01*
X2668895Y19582048D02*
X2706990Y19467762D01*
X2706990Y19467762D02*
X2783180Y19391572D01*
X2783180Y19391572D02*
X2859371Y19353477D01*
X2859371Y19353477D02*
X3011752Y19315381D01*
X3011752Y19315381D02*
X3126038Y19315381D01*
X3126038Y19315381D02*
X3278419Y19353477D01*
X3278419Y19353477D02*
X3354609Y19391572D01*
X3354609Y19391572D02*
X3430800Y19467762D01*
X3430800Y19467762D02*
X3468895Y19582048D01*
X3468895Y19582048D02*
X3468895Y19658239D01*
X3468895Y19658239D02*
X3430800Y19772524D01*
X3430800Y19772524D02*
X3392704Y19810620D01*
X3392704Y19810620D02*
X3126038Y19810620D01*
X3126038Y19810620D02*
X3126038Y19658239D01*
X8621457Y17018000D02*
X8240504Y17018000D01*
X9040504Y17284667D02*
X8621457Y17018000D01*
X8621457Y17018000D02*
X9040504Y16751334D01*
X2668895Y21469430D02*
X3316514Y21469430D01*
X3316514Y21469430D02*
X3392704Y21507525D01*
X3392704Y21507525D02*
X3430800Y21545620D01*
X3430800Y21545620D02*
X3468895Y21621811D01*
X3468895Y21621811D02*
X3468895Y21774192D01*
X3468895Y21774192D02*
X3430800Y21850382D01*
X3430800Y21850382D02*
X3392704Y21888477D01*
X3392704Y21888477D02*
X3316514Y21926573D01*
X3316514Y21926573D02*
X2668895Y21926573D01*
X3468895Y22307525D02*
X2668895Y22307525D01*
X2668895Y22307525D02*
X2668895Y22612287D01*
X2668895Y22612287D02*
X2706990Y22688477D01*
X2706990Y22688477D02*
X2745085Y22726572D01*
X2745085Y22726572D02*
X2821276Y22764668D01*
X2821276Y22764668D02*
X2935561Y22764668D01*
X2935561Y22764668D02*
X3011752Y22726572D01*
X3011752Y22726572D02*
X3049847Y22688477D01*
X3049847Y22688477D02*
X3087942Y22612287D01*
X3087942Y22612287D02*
X3087942Y22307525D01*
X9040504Y12566572D02*
X9040504Y12109429D01*
X8240504Y12338001D02*
X9040504Y12338001D01*
X8240504Y11385619D02*
X8621457Y11652286D01*
X8240504Y11842762D02*
X9040504Y11842762D01*
X9040504Y11842762D02*
X9040504Y11538000D01*
X9040504Y11538000D02*
X9002409Y11461810D01*
X9002409Y11461810D02*
X8964314Y11423715D01*
X8964314Y11423715D02*
X8888123Y11385619D01*
X8888123Y11385619D02*
X8773838Y11385619D01*
X8773838Y11385619D02*
X8697647Y11423715D01*
X8697647Y11423715D02*
X8659552Y11461810D01*
X8659552Y11461810D02*
X8621457Y11538000D01*
X8621457Y11538000D02*
X8621457Y11842762D01*
X3494295Y1149430D02*
X2694295Y1149430D01*
X3075247Y1149430D02*
X3075247Y1606573D01*
X3494295Y1606573D02*
X2694295Y1606573D01*
X3494295Y1987525D02*
X2694295Y1987525D01*
X3494295Y2444668D02*
X3037152Y2101810D01*
X2694295Y2444668D02*
X3151438Y1987525D01*
X3494295Y16389430D02*
X2694295Y16389430D01*
X2694295Y16389430D02*
X2694295Y16579906D01*
X2694295Y16579906D02*
X2732390Y16694192D01*
X2732390Y16694192D02*
X2808580Y16770382D01*
X2808580Y16770382D02*
X2884771Y16808477D01*
X2884771Y16808477D02*
X3037152Y16846573D01*
X3037152Y16846573D02*
X3151438Y16846573D01*
X3151438Y16846573D02*
X3303819Y16808477D01*
X3303819Y16808477D02*
X3380009Y16770382D01*
X3380009Y16770382D02*
X3456200Y16694192D01*
X3456200Y16694192D02*
X3494295Y16579906D01*
X3494295Y16579906D02*
X3494295Y16389430D01*
X3494295Y17189430D02*
X2694295Y17189430D01*
X2694295Y17189430D02*
X3494295Y17646573D01*
X3494295Y17646573D02*
X2694295Y17646573D01*
X8443676Y4508477D02*
X8443676Y4127524D01*
X8215104Y4584667D02*
X9015104Y4318000D01*
X9015104Y4318000D02*
X8215104Y4051334D01*
X9015104Y19824667D02*
X8215104Y19291333D01*
X9015104Y19291333D02*
X8215104Y19824667D01*
X3494295Y12185620D02*
X3113342Y11918953D01*
X3494295Y11728477D02*
X2694295Y11728477D01*
X2694295Y11728477D02*
X2694295Y12033239D01*
X2694295Y12033239D02*
X2732390Y12109429D01*
X2732390Y12109429D02*
X2770485Y12147524D01*
X2770485Y12147524D02*
X2846676Y12185620D01*
X2846676Y12185620D02*
X2960961Y12185620D01*
X2960961Y12185620D02*
X3037152Y12147524D01*
X3037152Y12147524D02*
X3075247Y12109429D01*
X3075247Y12109429D02*
X3113342Y12033239D01*
X3113342Y12033239D02*
X3113342Y11728477D01*
X9002409Y6653477D02*
X9040504Y6729667D01*
X9040504Y6729667D02*
X9040504Y6843953D01*
X9040504Y6843953D02*
X9002409Y6958239D01*
X9002409Y6958239D02*
X8926219Y7034429D01*
X8926219Y7034429D02*
X8850028Y7072524D01*
X8850028Y7072524D02*
X8697647Y7110620D01*
X8697647Y7110620D02*
X8583361Y7110620D01*
X8583361Y7110620D02*
X8430980Y7072524D01*
X8430980Y7072524D02*
X8354790Y7034429D01*
X8354790Y7034429D02*
X8278600Y6958239D01*
X8278600Y6958239D02*
X8240504Y6843953D01*
X8240504Y6843953D02*
X8240504Y6767762D01*
X8240504Y6767762D02*
X8278600Y6653477D01*
X8278600Y6653477D02*
X8316695Y6615381D01*
X8316695Y6615381D02*
X8583361Y6615381D01*
X8583361Y6615381D02*
X8583361Y6767762D01*
X3468895Y14725620D02*
X3468895Y14344668D01*
X3468895Y14344668D02*
X2668895Y14344668D01*
X8659552Y9315458D02*
X8621457Y9201172D01*
X8621457Y9201172D02*
X8583361Y9163077D01*
X8583361Y9163077D02*
X8507171Y9124981D01*
X8507171Y9124981D02*
X8392885Y9124981D01*
X8392885Y9124981D02*
X8316695Y9163077D01*
X8316695Y9163077D02*
X8278600Y9201172D01*
X8278600Y9201172D02*
X8240504Y9277362D01*
X8240504Y9277362D02*
X8240504Y9582124D01*
X8240504Y9582124D02*
X9040504Y9582124D01*
X9040504Y9582124D02*
X9040504Y9315458D01*
X9040504Y9315458D02*
X9002409Y9239267D01*
X9002409Y9239267D02*
X8964314Y9201172D01*
X8964314Y9201172D02*
X8888123Y9163077D01*
X8888123Y9163077D02*
X8811933Y9163077D01*
X8811933Y9163077D02*
X8735742Y9201172D01*
X8735742Y9201172D02*
X8697647Y9239267D01*
X8697647Y9239267D02*
X8659552Y9315458D01*
X8659552Y9315458D02*
X8659552Y9582124D01*
X3456200Y6324667D02*
X3494295Y6438953D01*
X3494295Y6438953D02*
X3494295Y6629429D01*
X3494295Y6629429D02*
X3456200Y6705620D01*
X3456200Y6705620D02*
X3418104Y6743715D01*
X3418104Y6743715D02*
X3341914Y6781810D01*
X3341914Y6781810D02*
X3265723Y6781810D01*
X3265723Y6781810D02*
X3189533Y6743715D01*
X3189533Y6743715D02*
X3151438Y6705620D01*
X3151438Y6705620D02*
X3113342Y6629429D01*
X3113342Y6629429D02*
X3075247Y6477048D01*
X3075247Y6477048D02*
X3037152Y6400858D01*
X3037152Y6400858D02*
X2999057Y6362763D01*
X2999057Y6362763D02*
X2922866Y6324667D01*
X2922866Y6324667D02*
X2846676Y6324667D01*
X2846676Y6324667D02*
X2770485Y6362763D01*
X2770485Y6362763D02*
X2732390Y6400858D01*
X2732390Y6400858D02*
X2694295Y6477048D01*
X2694295Y6477048D02*
X2694295Y6667525D01*
X2694295Y6667525D02*
X2732390Y6781810D01*
X2694295Y7010382D02*
X2694295Y7467525D01*
X3494295Y7238953D02*
X2694295Y7238953D01*
%LPC*%
D11*
%TO.C,J8*%
X10845800Y20055600D03*
D12*
X10845800Y18805600D03*
X10845800Y17555600D03*
X10845800Y16305600D03*
X10845800Y15055600D03*
X10845800Y13805600D03*
X10845800Y12555600D03*
X10845800Y11305600D03*
X10845800Y10055600D03*
X10845800Y8805600D03*
X10845800Y7555600D03*
X10845800Y6305600D03*
X10845800Y5055600D03*
X10845800Y3805600D03*
%TD*%
D13*
%TO.C,J6*%
X4592400Y22103000D03*
D14*
X7132400Y22103000D03*
X4592400Y19563000D03*
X7132400Y19563000D03*
X4592400Y17023000D03*
X7132400Y17023000D03*
X4592400Y14483000D03*
X7132400Y14483000D03*
X4592400Y11943000D03*
X7132400Y11943000D03*
X4592400Y9403000D03*
X7132400Y9403000D03*
X4592400Y6863000D03*
X7132400Y6863000D03*
X4592400Y4323000D03*
X7132400Y4323000D03*
X4592400Y1783000D03*
X7132400Y1783000D03*
%TD*%
D11*
%TO.C,J10*%
X863600Y20055600D03*
D12*
X863600Y18805600D03*
X863600Y17555600D03*
X863600Y16305600D03*
X863600Y15055600D03*
X863600Y13805600D03*
X863600Y12555600D03*
X863600Y11305600D03*
X863600Y10055600D03*
X863600Y8805600D03*
X863600Y7555600D03*
X863600Y6305600D03*
X863600Y5055600D03*
X863600Y3805600D03*
%TD*%
M02*
