%TF.GenerationSoftware,KiCad,Pcbnew,7.0.1*%
%TF.CreationDate,2023-03-28T23:33:08+09:00*%
%TF.ProjectId,joystick_gpio_input_1p_rasp_part,6a6f7973-7469-4636-9b5f-6770696f5f69,2*%
%TF.SameCoordinates,PX8841978PY69edb98*%
%TF.FileFunction,Legend,Top*%
%TF.FilePolarity,Positive*%
%FSLAX46Y46*%
G04 Gerber Fmt 4.6, Leading zero omitted, Abs format (unit mm)*
G04 Created by KiCad (PCBNEW 7.0.1) date 2023-03-28 23:33:08*
%MOMM*%
%LPD*%
G01*
G04 APERTURE LIST*
G04 Aperture macros list*
%AMRoundRect*
0 Rectangle with rounded corners*
0 $1 Rounding radius*
0 $2 $3 $4 $5 $6 $7 $8 $9 X,Y pos of 4 corners*
0 Add a 4 corners polygon primitive as box body*
4,1,4,$2,$3,$4,$5,$6,$7,$8,$9,$2,$3,0*
0 Add four circle primitives for the rounded corners*
1,1,$1+$1,$2,$3*
1,1,$1+$1,$4,$5*
1,1,$1+$1,$6,$7*
1,1,$1+$1,$8,$9*
0 Add four rect primitives between the rounded corners*
20,1,$1+$1,$2,$3,$4,$5,0*
20,1,$1+$1,$4,$5,$6,$7,0*
20,1,$1+$1,$6,$7,$8,$9,0*
20,1,$1+$1,$8,$9,$2,$3,0*%
G04 Aperture macros list end*
%ADD10C,0.150000*%
%ADD11RoundRect,0.200000X-0.450000X0.200000X-0.450000X-0.200000X0.450000X-0.200000X0.450000X0.200000X0*%
%ADD12O,1.300000X0.800000*%
%ADD13R,1.700000X1.700000*%
%ADD14O,1.700000X1.700000*%
G04 APERTURE END LIST*
D10*
X9347200Y20523200D02*
X9321800Y3378200D01*
X2387600Y20497800D02*
X2362200Y3352800D01*
X9078609Y14248077D02*
X9116704Y14324267D01*
X9116704Y14324267D02*
X9116704Y14438553D01*
X9116704Y14438553D02*
X9078609Y14552839D01*
X9078609Y14552839D02*
X9002419Y14629029D01*
X9002419Y14629029D02*
X8926228Y14667124D01*
X8926228Y14667124D02*
X8773847Y14705220D01*
X8773847Y14705220D02*
X8659561Y14705220D01*
X8659561Y14705220D02*
X8507180Y14667124D01*
X8507180Y14667124D02*
X8430990Y14629029D01*
X8430990Y14629029D02*
X8354800Y14552839D01*
X8354800Y14552839D02*
X8316704Y14438553D01*
X8316704Y14438553D02*
X8316704Y14362362D01*
X8316704Y14362362D02*
X8354800Y14248077D01*
X8354800Y14248077D02*
X8392895Y14209981D01*
X8392895Y14209981D02*
X8659561Y14209981D01*
X8659561Y14209981D02*
X8659561Y14362362D01*
X3405400Y3653619D02*
X3443495Y3767905D01*
X3443495Y3767905D02*
X3443495Y3958381D01*
X3443495Y3958381D02*
X3405400Y4034572D01*
X3405400Y4034572D02*
X3367304Y4072667D01*
X3367304Y4072667D02*
X3291114Y4110762D01*
X3291114Y4110762D02*
X3214923Y4110762D01*
X3214923Y4110762D02*
X3138733Y4072667D01*
X3138733Y4072667D02*
X3100638Y4034572D01*
X3100638Y4034572D02*
X3062542Y3958381D01*
X3062542Y3958381D02*
X3024447Y3806000D01*
X3024447Y3806000D02*
X2986352Y3729810D01*
X2986352Y3729810D02*
X2948257Y3691715D01*
X2948257Y3691715D02*
X2872066Y3653619D01*
X2872066Y3653619D02*
X2795876Y3653619D01*
X2795876Y3653619D02*
X2719685Y3691715D01*
X2719685Y3691715D02*
X2681590Y3729810D01*
X2681590Y3729810D02*
X2643495Y3806000D01*
X2643495Y3806000D02*
X2643495Y3996477D01*
X2643495Y3996477D02*
X2681590Y4110762D01*
X3443495Y4834572D02*
X3443495Y4453620D01*
X3443495Y4453620D02*
X2643495Y4453620D01*
X5721371Y2703305D02*
X5264228Y2703305D01*
X5492800Y2703305D02*
X5492800Y3503305D01*
X5492800Y3503305D02*
X5416609Y3389020D01*
X5416609Y3389020D02*
X5340419Y3312829D01*
X5340419Y3312829D02*
X5264228Y3274734D01*
X6064229Y2703305D02*
X6064229Y3503305D01*
X6064229Y3503305D02*
X6368991Y3503305D01*
X6368991Y3503305D02*
X6445181Y3465210D01*
X6445181Y3465210D02*
X6483276Y3427115D01*
X6483276Y3427115D02*
X6521372Y3350924D01*
X6521372Y3350924D02*
X6521372Y3236639D01*
X6521372Y3236639D02*
X6483276Y3160448D01*
X6483276Y3160448D02*
X6445181Y3122353D01*
X6445181Y3122353D02*
X6368991Y3084258D01*
X6368991Y3084258D02*
X6064229Y3084258D01*
X9091304Y22589181D02*
X9091304Y22132038D01*
X8291304Y22360610D02*
X9091304Y22360610D01*
X8291304Y21484419D02*
X8291304Y21865371D01*
X8291304Y21865371D02*
X9091304Y21865371D01*
X2656190Y19772524D02*
X2618095Y19696334D01*
X2618095Y19696334D02*
X2618095Y19582048D01*
X2618095Y19582048D02*
X2656190Y19467762D01*
X2656190Y19467762D02*
X2732380Y19391572D01*
X2732380Y19391572D02*
X2808571Y19353477D01*
X2808571Y19353477D02*
X2960952Y19315381D01*
X2960952Y19315381D02*
X3075238Y19315381D01*
X3075238Y19315381D02*
X3227619Y19353477D01*
X3227619Y19353477D02*
X3303809Y19391572D01*
X3303809Y19391572D02*
X3380000Y19467762D01*
X3380000Y19467762D02*
X3418095Y19582048D01*
X3418095Y19582048D02*
X3418095Y19658239D01*
X3418095Y19658239D02*
X3380000Y19772524D01*
X3380000Y19772524D02*
X3341904Y19810620D01*
X3341904Y19810620D02*
X3075238Y19810620D01*
X3075238Y19810620D02*
X3075238Y19658239D01*
X8672257Y16956800D02*
X8291304Y16956800D01*
X9091304Y17223467D02*
X8672257Y16956800D01*
X8672257Y16956800D02*
X9091304Y16690134D01*
X2643495Y21357430D02*
X3291114Y21357430D01*
X3291114Y21357430D02*
X3367304Y21395525D01*
X3367304Y21395525D02*
X3405400Y21433620D01*
X3405400Y21433620D02*
X3443495Y21509811D01*
X3443495Y21509811D02*
X3443495Y21662192D01*
X3443495Y21662192D02*
X3405400Y21738382D01*
X3405400Y21738382D02*
X3367304Y21776477D01*
X3367304Y21776477D02*
X3291114Y21814573D01*
X3291114Y21814573D02*
X2643495Y21814573D01*
X3443495Y22195525D02*
X2643495Y22195525D01*
X2643495Y22195525D02*
X2643495Y22500287D01*
X2643495Y22500287D02*
X2681590Y22576477D01*
X2681590Y22576477D02*
X2719685Y22614572D01*
X2719685Y22614572D02*
X2795876Y22652668D01*
X2795876Y22652668D02*
X2910161Y22652668D01*
X2910161Y22652668D02*
X2986352Y22614572D01*
X2986352Y22614572D02*
X3024447Y22576477D01*
X3024447Y22576477D02*
X3062542Y22500287D01*
X3062542Y22500287D02*
X3062542Y22195525D01*
X9091304Y12505372D02*
X9091304Y12048229D01*
X8291304Y12276801D02*
X9091304Y12276801D01*
X8291304Y11324419D02*
X8672257Y11591086D01*
X8291304Y11781562D02*
X9091304Y11781562D01*
X9091304Y11781562D02*
X9091304Y11476800D01*
X9091304Y11476800D02*
X9053209Y11400610D01*
X9053209Y11400610D02*
X9015114Y11362515D01*
X9015114Y11362515D02*
X8938923Y11324419D01*
X8938923Y11324419D02*
X8824638Y11324419D01*
X8824638Y11324419D02*
X8748447Y11362515D01*
X8748447Y11362515D02*
X8710352Y11400610D01*
X8710352Y11400610D02*
X8672257Y11476800D01*
X8672257Y11476800D02*
X8672257Y11781562D01*
X3443495Y1037430D02*
X2643495Y1037430D01*
X3024447Y1037430D02*
X3024447Y1494573D01*
X3443495Y1494573D02*
X2643495Y1494573D01*
X3443495Y1875525D02*
X2643495Y1875525D01*
X3443495Y2332668D02*
X2986352Y1989810D01*
X2643495Y2332668D02*
X3100638Y1875525D01*
X3443495Y16277430D02*
X2643495Y16277430D01*
X2643495Y16277430D02*
X2643495Y16467906D01*
X2643495Y16467906D02*
X2681590Y16582192D01*
X2681590Y16582192D02*
X2757780Y16658382D01*
X2757780Y16658382D02*
X2833971Y16696477D01*
X2833971Y16696477D02*
X2986352Y16734573D01*
X2986352Y16734573D02*
X3100638Y16734573D01*
X3100638Y16734573D02*
X3253019Y16696477D01*
X3253019Y16696477D02*
X3329209Y16658382D01*
X3329209Y16658382D02*
X3405400Y16582192D01*
X3405400Y16582192D02*
X3443495Y16467906D01*
X3443495Y16467906D02*
X3443495Y16277430D01*
X3443495Y17077430D02*
X2643495Y17077430D01*
X2643495Y17077430D02*
X3443495Y17534573D01*
X3443495Y17534573D02*
X2643495Y17534573D01*
X8519876Y4447277D02*
X8519876Y4066324D01*
X8291304Y4523467D02*
X9091304Y4256800D01*
X9091304Y4256800D02*
X8291304Y3990134D01*
X9091304Y19763467D02*
X8291304Y19230133D01*
X9091304Y19230133D02*
X8291304Y19763467D01*
X3443495Y12073620D02*
X3062542Y11806953D01*
X3443495Y11616477D02*
X2643495Y11616477D01*
X2643495Y11616477D02*
X2643495Y11921239D01*
X2643495Y11921239D02*
X2681590Y11997429D01*
X2681590Y11997429D02*
X2719685Y12035524D01*
X2719685Y12035524D02*
X2795876Y12073620D01*
X2795876Y12073620D02*
X2910161Y12073620D01*
X2910161Y12073620D02*
X2986352Y12035524D01*
X2986352Y12035524D02*
X3024447Y11997429D01*
X3024447Y11997429D02*
X3062542Y11921239D01*
X3062542Y11921239D02*
X3062542Y11616477D01*
X9078609Y6653477D02*
X9116704Y6729667D01*
X9116704Y6729667D02*
X9116704Y6843953D01*
X9116704Y6843953D02*
X9078609Y6958239D01*
X9078609Y6958239D02*
X9002419Y7034429D01*
X9002419Y7034429D02*
X8926228Y7072524D01*
X8926228Y7072524D02*
X8773847Y7110620D01*
X8773847Y7110620D02*
X8659561Y7110620D01*
X8659561Y7110620D02*
X8507180Y7072524D01*
X8507180Y7072524D02*
X8430990Y7034429D01*
X8430990Y7034429D02*
X8354800Y6958239D01*
X8354800Y6958239D02*
X8316704Y6843953D01*
X8316704Y6843953D02*
X8316704Y6767762D01*
X8316704Y6767762D02*
X8354800Y6653477D01*
X8354800Y6653477D02*
X8392895Y6615381D01*
X8392895Y6615381D02*
X8659561Y6615381D01*
X8659561Y6615381D02*
X8659561Y6767762D01*
X3443495Y14613620D02*
X3443495Y14232668D01*
X3443495Y14232668D02*
X2643495Y14232668D01*
X8710352Y9279658D02*
X8672257Y9165372D01*
X8672257Y9165372D02*
X8634161Y9127277D01*
X8634161Y9127277D02*
X8557971Y9089181D01*
X8557971Y9089181D02*
X8443685Y9089181D01*
X8443685Y9089181D02*
X8367495Y9127277D01*
X8367495Y9127277D02*
X8329400Y9165372D01*
X8329400Y9165372D02*
X8291304Y9241562D01*
X8291304Y9241562D02*
X8291304Y9546324D01*
X8291304Y9546324D02*
X9091304Y9546324D01*
X9091304Y9546324D02*
X9091304Y9279658D01*
X9091304Y9279658D02*
X9053209Y9203467D01*
X9053209Y9203467D02*
X9015114Y9165372D01*
X9015114Y9165372D02*
X8938923Y9127277D01*
X8938923Y9127277D02*
X8862733Y9127277D01*
X8862733Y9127277D02*
X8786542Y9165372D01*
X8786542Y9165372D02*
X8748447Y9203467D01*
X8748447Y9203467D02*
X8710352Y9279658D01*
X8710352Y9279658D02*
X8710352Y9546324D01*
X3405400Y6212667D02*
X3443495Y6326953D01*
X3443495Y6326953D02*
X3443495Y6517429D01*
X3443495Y6517429D02*
X3405400Y6593620D01*
X3405400Y6593620D02*
X3367304Y6631715D01*
X3367304Y6631715D02*
X3291114Y6669810D01*
X3291114Y6669810D02*
X3214923Y6669810D01*
X3214923Y6669810D02*
X3138733Y6631715D01*
X3138733Y6631715D02*
X3100638Y6593620D01*
X3100638Y6593620D02*
X3062542Y6517429D01*
X3062542Y6517429D02*
X3024447Y6365048D01*
X3024447Y6365048D02*
X2986352Y6288858D01*
X2986352Y6288858D02*
X2948257Y6250763D01*
X2948257Y6250763D02*
X2872066Y6212667D01*
X2872066Y6212667D02*
X2795876Y6212667D01*
X2795876Y6212667D02*
X2719685Y6250763D01*
X2719685Y6250763D02*
X2681590Y6288858D01*
X2681590Y6288858D02*
X2643495Y6365048D01*
X2643495Y6365048D02*
X2643495Y6555525D01*
X2643495Y6555525D02*
X2681590Y6669810D01*
X2643495Y6898382D02*
X2643495Y7355525D01*
X3443495Y7126953D02*
X2643495Y7126953D01*
%LPC*%
D11*
%TO.C,J8*%
X10845800Y20055600D03*
D12*
X10845800Y18805600D03*
X10845800Y17555600D03*
X10845800Y16305600D03*
X10845800Y15055600D03*
X10845800Y13805600D03*
X10845800Y12555600D03*
X10845800Y11305600D03*
X10845800Y10055600D03*
X10845800Y8805600D03*
X10845800Y7555600D03*
X10845800Y6305600D03*
X10845800Y5055600D03*
X10845800Y3805600D03*
%TD*%
D13*
%TO.C,J6*%
X4592400Y22103000D03*
D14*
X7132400Y22103000D03*
X4592400Y19563000D03*
X7132400Y19563000D03*
X4592400Y17023000D03*
X7132400Y17023000D03*
X4592400Y14483000D03*
X7132400Y14483000D03*
X4592400Y11943000D03*
X7132400Y11943000D03*
X4592400Y9403000D03*
X7132400Y9403000D03*
X4592400Y6863000D03*
X7132400Y6863000D03*
X4592400Y4323000D03*
X7132400Y4323000D03*
X4592400Y1783000D03*
X7132400Y1783000D03*
%TD*%
D11*
%TO.C,J10*%
X863600Y20055600D03*
D12*
X863600Y18805600D03*
X863600Y17555600D03*
X863600Y16305600D03*
X863600Y15055600D03*
X863600Y13805600D03*
X863600Y12555600D03*
X863600Y11305600D03*
X863600Y10055600D03*
X863600Y8805600D03*
X863600Y7555600D03*
X863600Y6305600D03*
X863600Y5055600D03*
X863600Y3805600D03*
%TD*%
M02*
