%TF.GenerationSoftware,KiCad,Pcbnew,7.0.1*%
%TF.CreationDate,2023-05-21T17:19:05+09:00*%
%TF.ProjectId,joystick_74hc165_input_1p,6a6f7973-7469-4636-9b5f-373468633136,2*%
%TF.SameCoordinates,Original*%
%TF.FileFunction,Legend,Bot*%
%TF.FilePolarity,Positive*%
%FSLAX46Y46*%
G04 Gerber Fmt 4.6, Leading zero omitted, Abs format (unit mm)*
G04 Created by KiCad (PCBNEW 7.0.1) date 2023-05-21 17:19:05*
%MOMM*%
%LPD*%
G01*
G04 APERTURE LIST*
%ADD10C,0.150000*%
%ADD11C,0.100000*%
G04 APERTURE END LIST*
D10*
X150128952Y-106983904D02*
X149652762Y-106983904D01*
X150224190Y-107269619D02*
X149890857Y-106269619D01*
X149890857Y-106269619D02*
X149557524Y-107269619D01*
X149224190Y-107269619D02*
X149224190Y-106602952D01*
X149224190Y-106698190D02*
X149176571Y-106650571D01*
X149176571Y-106650571D02*
X149081333Y-106602952D01*
X149081333Y-106602952D02*
X148938476Y-106602952D01*
X148938476Y-106602952D02*
X148843238Y-106650571D01*
X148843238Y-106650571D02*
X148795619Y-106745809D01*
X148795619Y-106745809D02*
X148795619Y-107269619D01*
X148795619Y-106745809D02*
X148748000Y-106650571D01*
X148748000Y-106650571D02*
X148652762Y-106602952D01*
X148652762Y-106602952D02*
X148509905Y-106602952D01*
X148509905Y-106602952D02*
X148414666Y-106650571D01*
X148414666Y-106650571D02*
X148367047Y-106745809D01*
X148367047Y-106745809D02*
X148367047Y-107269619D01*
X147748000Y-107269619D02*
X147843238Y-107222000D01*
X147843238Y-107222000D02*
X147890857Y-107174380D01*
X147890857Y-107174380D02*
X147938476Y-107079142D01*
X147938476Y-107079142D02*
X147938476Y-106793428D01*
X147938476Y-106793428D02*
X147890857Y-106698190D01*
X147890857Y-106698190D02*
X147843238Y-106650571D01*
X147843238Y-106650571D02*
X147748000Y-106602952D01*
X147748000Y-106602952D02*
X147605143Y-106602952D01*
X147605143Y-106602952D02*
X147509905Y-106650571D01*
X147509905Y-106650571D02*
X147462286Y-106698190D01*
X147462286Y-106698190D02*
X147414667Y-106793428D01*
X147414667Y-106793428D02*
X147414667Y-107079142D01*
X147414667Y-107079142D02*
X147462286Y-107174380D01*
X147462286Y-107174380D02*
X147509905Y-107222000D01*
X147509905Y-107222000D02*
X147605143Y-107269619D01*
X147605143Y-107269619D02*
X147748000Y-107269619D01*
X147033714Y-107222000D02*
X146938476Y-107269619D01*
X146938476Y-107269619D02*
X146748000Y-107269619D01*
X146748000Y-107269619D02*
X146652762Y-107222000D01*
X146652762Y-107222000D02*
X146605143Y-107126761D01*
X146605143Y-107126761D02*
X146605143Y-107079142D01*
X146605143Y-107079142D02*
X146652762Y-106983904D01*
X146652762Y-106983904D02*
X146748000Y-106936285D01*
X146748000Y-106936285D02*
X146890857Y-106936285D01*
X146890857Y-106936285D02*
X146986095Y-106888666D01*
X146986095Y-106888666D02*
X147033714Y-106793428D01*
X147033714Y-106793428D02*
X147033714Y-106745809D01*
X147033714Y-106745809D02*
X146986095Y-106650571D01*
X146986095Y-106650571D02*
X146890857Y-106602952D01*
X146890857Y-106602952D02*
X146748000Y-106602952D01*
X146748000Y-106602952D02*
X146652762Y-106650571D01*
X145128952Y-106269619D02*
X145128952Y-106983904D01*
X145128952Y-106983904D02*
X145176571Y-107126761D01*
X145176571Y-107126761D02*
X145271809Y-107222000D01*
X145271809Y-107222000D02*
X145414666Y-107269619D01*
X145414666Y-107269619D02*
X145509904Y-107269619D01*
X144509904Y-107269619D02*
X144605142Y-107222000D01*
X144605142Y-107222000D02*
X144652761Y-107174380D01*
X144652761Y-107174380D02*
X144700380Y-107079142D01*
X144700380Y-107079142D02*
X144700380Y-106793428D01*
X144700380Y-106793428D02*
X144652761Y-106698190D01*
X144652761Y-106698190D02*
X144605142Y-106650571D01*
X144605142Y-106650571D02*
X144509904Y-106602952D01*
X144509904Y-106602952D02*
X144367047Y-106602952D01*
X144367047Y-106602952D02*
X144271809Y-106650571D01*
X144271809Y-106650571D02*
X144224190Y-106698190D01*
X144224190Y-106698190D02*
X144176571Y-106793428D01*
X144176571Y-106793428D02*
X144176571Y-107079142D01*
X144176571Y-107079142D02*
X144224190Y-107174380D01*
X144224190Y-107174380D02*
X144271809Y-107222000D01*
X144271809Y-107222000D02*
X144367047Y-107269619D01*
X144367047Y-107269619D02*
X144509904Y-107269619D01*
X143843237Y-106602952D02*
X143605142Y-107269619D01*
X143367047Y-106602952D02*
X143605142Y-107269619D01*
X143605142Y-107269619D02*
X143700380Y-107507714D01*
X143700380Y-107507714D02*
X143747999Y-107555333D01*
X143747999Y-107555333D02*
X143843237Y-107602952D01*
X143033713Y-107222000D02*
X142938475Y-107269619D01*
X142938475Y-107269619D02*
X142747999Y-107269619D01*
X142747999Y-107269619D02*
X142652761Y-107222000D01*
X142652761Y-107222000D02*
X142605142Y-107126761D01*
X142605142Y-107126761D02*
X142605142Y-107079142D01*
X142605142Y-107079142D02*
X142652761Y-106983904D01*
X142652761Y-106983904D02*
X142747999Y-106936285D01*
X142747999Y-106936285D02*
X142890856Y-106936285D01*
X142890856Y-106936285D02*
X142986094Y-106888666D01*
X142986094Y-106888666D02*
X143033713Y-106793428D01*
X143033713Y-106793428D02*
X143033713Y-106745809D01*
X143033713Y-106745809D02*
X142986094Y-106650571D01*
X142986094Y-106650571D02*
X142890856Y-106602952D01*
X142890856Y-106602952D02*
X142747999Y-106602952D01*
X142747999Y-106602952D02*
X142652761Y-106650571D01*
X142319427Y-106602952D02*
X141938475Y-106602952D01*
X142176570Y-106269619D02*
X142176570Y-107126761D01*
X142176570Y-107126761D02*
X142128951Y-107222000D01*
X142128951Y-107222000D02*
X142033713Y-107269619D01*
X142033713Y-107269619D02*
X141938475Y-107269619D01*
X141605141Y-107269619D02*
X141605141Y-106602952D01*
X141605141Y-106269619D02*
X141652760Y-106317238D01*
X141652760Y-106317238D02*
X141605141Y-106364857D01*
X141605141Y-106364857D02*
X141557522Y-106317238D01*
X141557522Y-106317238D02*
X141605141Y-106269619D01*
X141605141Y-106269619D02*
X141605141Y-106364857D01*
X140700380Y-107222000D02*
X140795618Y-107269619D01*
X140795618Y-107269619D02*
X140986094Y-107269619D01*
X140986094Y-107269619D02*
X141081332Y-107222000D01*
X141081332Y-107222000D02*
X141128951Y-107174380D01*
X141128951Y-107174380D02*
X141176570Y-107079142D01*
X141176570Y-107079142D02*
X141176570Y-106793428D01*
X141176570Y-106793428D02*
X141128951Y-106698190D01*
X141128951Y-106698190D02*
X141081332Y-106650571D01*
X141081332Y-106650571D02*
X140986094Y-106602952D01*
X140986094Y-106602952D02*
X140795618Y-106602952D01*
X140795618Y-106602952D02*
X140700380Y-106650571D01*
X140271808Y-107269619D02*
X140271808Y-106269619D01*
X140176570Y-106888666D02*
X139890856Y-107269619D01*
X139890856Y-106602952D02*
X140271808Y-106983904D01*
X138700379Y-107269619D02*
X138700379Y-106269619D01*
X138224189Y-106602952D02*
X138224189Y-107269619D01*
X138224189Y-106698190D02*
X138176570Y-106650571D01*
X138176570Y-106650571D02*
X138081332Y-106602952D01*
X138081332Y-106602952D02*
X137938475Y-106602952D01*
X137938475Y-106602952D02*
X137843237Y-106650571D01*
X137843237Y-106650571D02*
X137795618Y-106745809D01*
X137795618Y-106745809D02*
X137795618Y-107269619D01*
X137319427Y-106602952D02*
X137319427Y-107602952D01*
X137319427Y-106650571D02*
X137224189Y-106602952D01*
X137224189Y-106602952D02*
X137033713Y-106602952D01*
X137033713Y-106602952D02*
X136938475Y-106650571D01*
X136938475Y-106650571D02*
X136890856Y-106698190D01*
X136890856Y-106698190D02*
X136843237Y-106793428D01*
X136843237Y-106793428D02*
X136843237Y-107079142D01*
X136843237Y-107079142D02*
X136890856Y-107174380D01*
X136890856Y-107174380D02*
X136938475Y-107222000D01*
X136938475Y-107222000D02*
X137033713Y-107269619D01*
X137033713Y-107269619D02*
X137224189Y-107269619D01*
X137224189Y-107269619D02*
X137319427Y-107222000D01*
X135986094Y-106602952D02*
X135986094Y-107269619D01*
X136414665Y-106602952D02*
X136414665Y-107126761D01*
X136414665Y-107126761D02*
X136367046Y-107222000D01*
X136367046Y-107222000D02*
X136271808Y-107269619D01*
X136271808Y-107269619D02*
X136128951Y-107269619D01*
X136128951Y-107269619D02*
X136033713Y-107222000D01*
X136033713Y-107222000D02*
X135986094Y-107174380D01*
X135652760Y-106602952D02*
X135271808Y-106602952D01*
X135509903Y-106269619D02*
X135509903Y-107126761D01*
X135509903Y-107126761D02*
X135462284Y-107222000D01*
X135462284Y-107222000D02*
X135367046Y-107269619D01*
X135367046Y-107269619D02*
X135271808Y-107269619D01*
D11*
X134053333Y-107384833D02*
X134286666Y-107051500D01*
X134453333Y-107384833D02*
X134453333Y-106684833D01*
X134453333Y-106684833D02*
X134186666Y-106684833D01*
X134186666Y-106684833D02*
X134120000Y-106718166D01*
X134120000Y-106718166D02*
X134086666Y-106751500D01*
X134086666Y-106751500D02*
X134053333Y-106818166D01*
X134053333Y-106818166D02*
X134053333Y-106918166D01*
X134053333Y-106918166D02*
X134086666Y-106984833D01*
X134086666Y-106984833D02*
X134120000Y-107018166D01*
X134120000Y-107018166D02*
X134186666Y-107051500D01*
X134186666Y-107051500D02*
X134453333Y-107051500D01*
X133486666Y-107351500D02*
X133553333Y-107384833D01*
X133553333Y-107384833D02*
X133686666Y-107384833D01*
X133686666Y-107384833D02*
X133753333Y-107351500D01*
X133753333Y-107351500D02*
X133786666Y-107284833D01*
X133786666Y-107284833D02*
X133786666Y-107018166D01*
X133786666Y-107018166D02*
X133753333Y-106951500D01*
X133753333Y-106951500D02*
X133686666Y-106918166D01*
X133686666Y-106918166D02*
X133553333Y-106918166D01*
X133553333Y-106918166D02*
X133486666Y-106951500D01*
X133486666Y-106951500D02*
X133453333Y-107018166D01*
X133453333Y-107018166D02*
X133453333Y-107084833D01*
X133453333Y-107084833D02*
X133786666Y-107151500D01*
X133220000Y-106918166D02*
X133053333Y-107384833D01*
X133053333Y-107384833D02*
X132886666Y-106918166D01*
X132620000Y-107318166D02*
X132586667Y-107351500D01*
X132586667Y-107351500D02*
X132620000Y-107384833D01*
X132620000Y-107384833D02*
X132653333Y-107351500D01*
X132653333Y-107351500D02*
X132620000Y-107318166D01*
X132620000Y-107318166D02*
X132620000Y-107384833D01*
X132320000Y-106751500D02*
X132286667Y-106718166D01*
X132286667Y-106718166D02*
X132220000Y-106684833D01*
X132220000Y-106684833D02*
X132053334Y-106684833D01*
X132053334Y-106684833D02*
X131986667Y-106718166D01*
X131986667Y-106718166D02*
X131953334Y-106751500D01*
X131953334Y-106751500D02*
X131920000Y-106818166D01*
X131920000Y-106818166D02*
X131920000Y-106884833D01*
X131920000Y-106884833D02*
X131953334Y-106984833D01*
X131953334Y-106984833D02*
X132353334Y-107384833D01*
X132353334Y-107384833D02*
X131920000Y-107384833D01*
M02*
