%TF.GenerationSoftware,KiCad,Pcbnew,7.0.1*%
%TF.CreationDate,2023-05-21T17:19:05+09:00*%
%TF.ProjectId,joystick_74hc165_input_1p,6a6f7973-7469-4636-9b5f-373468633136,2*%
%TF.SameCoordinates,Original*%
%TF.FileFunction,Copper,L1,Top*%
%TF.FilePolarity,Positive*%
%FSLAX46Y46*%
G04 Gerber Fmt 4.6, Leading zero omitted, Abs format (unit mm)*
G04 Created by KiCad (PCBNEW 7.0.1) date 2023-05-21 17:19:05*
%MOMM*%
%LPD*%
G01*
G04 APERTURE LIST*
%TA.AperFunction,ComponentPad*%
%ADD10R,1.700000X1.700000*%
%TD*%
%TA.AperFunction,ComponentPad*%
%ADD11O,1.700000X1.700000*%
%TD*%
%TA.AperFunction,ComponentPad*%
%ADD12R,1.600000X1.600000*%
%TD*%
%TA.AperFunction,ComponentPad*%
%ADD13O,1.600000X1.600000*%
%TD*%
%TA.AperFunction,ComponentPad*%
%ADD14C,1.600000*%
%TD*%
%TA.AperFunction,SMDPad,CuDef*%
%ADD15R,1.000000X1.500000*%
%TD*%
%TA.AperFunction,ViaPad*%
%ADD16C,0.800000*%
%TD*%
%TA.AperFunction,Conductor*%
%ADD17C,0.250000*%
%TD*%
%TA.AperFunction,Conductor*%
%ADD18C,0.500000*%
%TD*%
G04 APERTURE END LIST*
%TA.AperFunction,EtchedComponent*%
%TO.C,PULL1*%
G36*
X161555000Y-104440000D02*
G01*
X161055000Y-104440000D01*
X161055000Y-103840000D01*
X161555000Y-103840000D01*
X161555000Y-104440000D01*
G37*
%TD.AperFunction*%
%TA.AperFunction,EtchedComponent*%
%TO.C,SHORT1*%
G36*
X139046000Y-104440000D02*
G01*
X138546000Y-104440000D01*
X138546000Y-103840000D01*
X139046000Y-103840000D01*
X139046000Y-104440000D01*
G37*
%TD.AperFunction*%
%TD*%
D10*
%TO.P,IN1,1,Pin_1*%
%TO.N,VCC*%
X130302000Y-103505000D03*
D11*
%TO.P,IN1,2,Pin_2*%
%TO.N,GND*%
X130302000Y-100965000D03*
%TO.P,IN1,3,Pin_3*%
%TO.N,/LOAD*%
X130302000Y-98425000D03*
%TO.P,IN1,4,Pin_4*%
%TO.N,/CLK*%
X130302000Y-95885000D03*
%TO.P,IN1,5,Pin_5*%
%TO.N,/D_IN*%
X130302000Y-93345000D03*
%TD*%
D12*
%TO.P,74HC165_2,1,~{PL}*%
%TO.N,/LOAD*%
X152146000Y-93599000D03*
D13*
%TO.P,74HC165_2,2,CP*%
%TO.N,/CLK*%
X149606000Y-93599000D03*
%TO.P,74HC165_2,3,D4*%
%TO.N,/C_R*%
X147066000Y-93599000D03*
%TO.P,74HC165_2,4,D5*%
%TO.N,/C_L*%
X144526000Y-93599000D03*
%TO.P,74HC165_2,5,D6*%
%TO.N,/C_Y*%
X141986000Y-93599000D03*
%TO.P,74HC165_2,6,D7*%
%TO.N,/C_X*%
X139446000Y-93599000D03*
%TO.P,74HC165_2,7,~{Q7}*%
%TO.N,unconnected-(74HC165_2-Pad7)*%
X136906000Y-93599000D03*
%TO.P,74HC165_2,8,GND*%
%TO.N,GND*%
X134366000Y-93599000D03*
%TO.P,74HC165_2,9,Q7*%
%TO.N,/Q7*%
X134366000Y-101219000D03*
%TO.P,74HC165_2,10,DS*%
%TO.N,/D_IN*%
X136906000Y-101219000D03*
%TO.P,74HC165_2,11,D0*%
%TO.N,/C_EX4*%
X139446000Y-101219000D03*
%TO.P,74HC165_2,12,D1*%
%TO.N,/C_EX3*%
X141986000Y-101219000D03*
%TO.P,74HC165_2,13,D2*%
%TO.N,/C_EX2*%
X144526000Y-101219000D03*
%TO.P,74HC165_2,14,D3*%
%TO.N,/C_EX1*%
X147066000Y-101219000D03*
%TO.P,74HC165_2,15,~{CE}*%
%TO.N,GND*%
X149606000Y-101219000D03*
%TO.P,74HC165_2,16,VCC*%
%TO.N,VCC*%
X152146000Y-101219000D03*
%TD*%
D12*
%TO.P,74HC165_1,1,~{PL}*%
%TO.N,/LOAD*%
X173228000Y-93599000D03*
D13*
%TO.P,74HC165_1,2,CP*%
%TO.N,/CLK*%
X170688000Y-93599000D03*
%TO.P,74HC165_1,3,D4*%
%TO.N,/C_RIGHT*%
X168148000Y-93599000D03*
%TO.P,74HC165_1,4,D5*%
%TO.N,/C_LEFT*%
X165608000Y-93599000D03*
%TO.P,74HC165_1,5,D6*%
%TO.N,/C_DOWN*%
X163068000Y-93599000D03*
%TO.P,74HC165_1,6,D7*%
%TO.N,/C_UP*%
X160528000Y-93599000D03*
%TO.P,74HC165_1,7,~{Q7}*%
%TO.N,unconnected-(74HC165_1-Pad7)*%
X157988000Y-93599000D03*
%TO.P,74HC165_1,8,GND*%
%TO.N,GND*%
X155448000Y-93599000D03*
%TO.P,74HC165_1,9,Q7*%
%TO.N,/D_OUT*%
X155448000Y-101219000D03*
%TO.P,74HC165_1,10,DS*%
%TO.N,/Q7*%
X157988000Y-101219000D03*
%TO.P,74HC165_1,11,D0*%
%TO.N,/C_B*%
X160528000Y-101219000D03*
%TO.P,74HC165_1,12,D1*%
%TO.N,/C_A*%
X163068000Y-101219000D03*
%TO.P,74HC165_1,13,D2*%
%TO.N,/C_SELECT*%
X165608000Y-101219000D03*
%TO.P,74HC165_1,14,D3*%
%TO.N,/C_START*%
X168148000Y-101219000D03*
%TO.P,74HC165_1,15,~{CE}*%
%TO.N,GND*%
X170688000Y-101219000D03*
%TO.P,74HC165_1,16,VCC*%
%TO.N,VCC*%
X173228000Y-101219000D03*
%TD*%
D12*
%TO.P,RN1,1,common*%
%TO.N,/PULL*%
X176022000Y-89154000D03*
D13*
%TO.P,RN1,2,R1*%
%TO.N,/C_UP*%
X173482000Y-89154000D03*
%TO.P,RN1,3,R2*%
%TO.N,/C_DOWN*%
X170942000Y-89154000D03*
%TO.P,RN1,4,R3*%
%TO.N,/C_LEFT*%
X168402000Y-89154000D03*
%TO.P,RN1,5,R4*%
%TO.N,/C_RIGHT*%
X165862000Y-89154000D03*
%TO.P,RN1,6,R5*%
%TO.N,/C_START*%
X163322000Y-89154000D03*
%TO.P,RN1,7,R6*%
%TO.N,/C_SELECT*%
X160782000Y-89154000D03*
%TO.P,RN1,8,R7*%
%TO.N,/C_A*%
X158242000Y-89154000D03*
%TO.P,RN1,9,R8*%
%TO.N,/C_B*%
X155702000Y-89154000D03*
%TD*%
D10*
%TO.P,J1,1,Pin_1*%
%TO.N,/C_SHORT*%
X175514000Y-84201000D03*
D11*
%TO.P,J1,2,Pin_2*%
%TO.N,/C_UP*%
X172974000Y-84201000D03*
%TO.P,J1,3,Pin_3*%
%TO.N,/C_DOWN*%
X170434000Y-84201000D03*
%TO.P,J1,4,Pin_4*%
%TO.N,/C_LEFT*%
X167894000Y-84201000D03*
%TO.P,J1,5,Pin_5*%
%TO.N,/C_RIGHT*%
X165354000Y-84201000D03*
%TO.P,J1,6,Pin_6*%
%TO.N,/C_START*%
X162814000Y-84201000D03*
%TO.P,J1,7,Pin_7*%
%TO.N,/C_SELECT*%
X160274000Y-84201000D03*
%TO.P,J1,8,Pin_8*%
%TO.N,/C_A*%
X157734000Y-84201000D03*
%TO.P,J1,9,Pin_9*%
%TO.N,/C_B*%
X155194000Y-84201000D03*
%TO.P,J1,10,Pin_10*%
%TO.N,/C_X*%
X152654000Y-84201000D03*
%TO.P,J1,11,Pin_11*%
%TO.N,/C_Y*%
X150114000Y-84201000D03*
%TO.P,J1,12,Pin_12*%
%TO.N,/C_L*%
X147574000Y-84201000D03*
%TO.P,J1,13,Pin_13*%
%TO.N,/C_R*%
X145034000Y-84201000D03*
%TO.P,J1,14,Pin_14*%
%TO.N,/C_EX1*%
X142494000Y-84201000D03*
%TO.P,J1,15,Pin_15*%
%TO.N,/C_EX2*%
X139954000Y-84201000D03*
%TO.P,J1,16,Pin_16*%
%TO.N,/C_EX3*%
X137414000Y-84201000D03*
%TO.P,J1,17,Pin_17*%
%TO.N,/C_EX4*%
X134874000Y-84201000D03*
%TO.P,J1,18,Pin_18*%
%TO.N,/C_SHORT*%
X132334000Y-84201000D03*
%TD*%
D12*
%TO.P,RN2,1,common*%
%TO.N,/PULL*%
X131826000Y-89154000D03*
D13*
%TO.P,RN2,2,R1*%
%TO.N,/C_EX4*%
X134366000Y-89154000D03*
%TO.P,RN2,3,R2*%
%TO.N,/C_EX3*%
X136906000Y-89154000D03*
%TO.P,RN2,4,R3*%
%TO.N,/C_EX2*%
X139446000Y-89154000D03*
%TO.P,RN2,5,R4*%
%TO.N,/C_EX1*%
X141986000Y-89154000D03*
%TO.P,RN2,6,R5*%
%TO.N,/C_R*%
X144526000Y-89154000D03*
%TO.P,RN2,7,R6*%
%TO.N,/C_L*%
X147066000Y-89154000D03*
%TO.P,RN2,8,R7*%
%TO.N,/C_Y*%
X149606000Y-89154000D03*
%TO.P,RN2,9,R8*%
%TO.N,/C_X*%
X152146000Y-89154000D03*
%TD*%
D10*
%TO.P,OUT1,1,Pin_1*%
%TO.N,VCC*%
X177546000Y-103505000D03*
D11*
%TO.P,OUT1,2,Pin_2*%
%TO.N,GND*%
X177546000Y-100965000D03*
%TO.P,OUT1,3,Pin_3*%
%TO.N,/LOAD*%
X177546000Y-98425000D03*
%TO.P,OUT1,4,Pin_4*%
%TO.N,/CLK*%
X177546000Y-95885000D03*
%TO.P,OUT1,5,Pin_5*%
%TO.N,/D_OUT*%
X177546000Y-93345000D03*
%TD*%
D14*
%TO.P,C2,1*%
%TO.N,VCC*%
X152146000Y-104140000D03*
%TO.P,C2,2*%
%TO.N,GND*%
X147146000Y-104140000D03*
%TD*%
%TO.P,C1,1*%
%TO.N,VCC*%
X173228000Y-104140000D03*
%TO.P,C1,2*%
%TO.N,GND*%
X168228000Y-104140000D03*
%TD*%
D15*
%TO.P,PULL1,1,Pin_1*%
%TO.N,VCC*%
X161955000Y-104140000D03*
%TO.P,PULL1,2,Pin_2*%
%TO.N,/PULL*%
X160655000Y-104140000D03*
%TO.P,PULL1,3,Pin_3*%
%TO.N,GND*%
X159355000Y-104140000D03*
%TD*%
%TO.P,SHORT1,1,Pin_1*%
%TO.N,GND*%
X138146000Y-104140000D03*
%TO.P,SHORT1,2,Pin_2*%
%TO.N,/C_SHORT*%
X139446000Y-104140000D03*
%TO.P,SHORT1,3,Pin_3*%
%TO.N,VCC*%
X140746000Y-104140000D03*
%TD*%
D16*
%TO.N,/LOAD*%
X152146000Y-98425000D03*
X172085000Y-98425000D03*
%TO.N,/CLK*%
X149606000Y-97155000D03*
X170688000Y-97155000D03*
%TD*%
D17*
%TO.N,/PULL*%
X176022000Y-96139000D02*
X176022000Y-88900000D01*
X169418000Y-101854000D02*
X169418000Y-100330000D01*
X169418000Y-100330000D02*
X170307000Y-99441000D01*
X170307000Y-99441000D02*
X172720000Y-99441000D01*
X168783000Y-102489000D02*
X169418000Y-101854000D01*
X160685000Y-104140000D02*
X160685000Y-103085000D01*
X172720000Y-99441000D02*
X176022000Y-96139000D01*
X160685000Y-103085000D02*
X161281000Y-102489000D01*
X161281000Y-102489000D02*
X168783000Y-102489000D01*
%TO.N,/C_SHORT*%
X175514000Y-84201000D02*
X174117000Y-82804000D01*
X133096000Y-84963000D02*
X133096000Y-90043000D01*
X138176000Y-101924501D02*
X139446000Y-103194501D01*
X132334000Y-84201000D02*
X133096000Y-84963000D01*
X174117000Y-82804000D02*
X133731000Y-82804000D01*
X135636000Y-96901000D02*
X138176000Y-99441000D01*
X133731000Y-82804000D02*
X132334000Y-84201000D01*
X135636000Y-92583000D02*
X135636000Y-96901000D01*
X133096000Y-90043000D02*
X135636000Y-92583000D01*
X138176000Y-99441000D02*
X138176000Y-101924501D01*
X139446000Y-103194501D02*
X139446000Y-104076500D01*
%TO.N,/C_UP*%
X173482000Y-84709000D02*
X173482000Y-89154000D01*
X172974000Y-84201000D02*
X173482000Y-84709000D01*
%TO.N,/C_DOWN*%
X170434000Y-84201000D02*
X170942000Y-84709000D01*
X170942000Y-84709000D02*
X170942000Y-89154000D01*
%TO.N,/C_LEFT*%
X167894000Y-84201000D02*
X168402000Y-84709000D01*
X168402000Y-84709000D02*
X168402000Y-89154000D01*
%TO.N,/C_RIGHT*%
X165862000Y-84709000D02*
X165862000Y-89154000D01*
X165354000Y-84201000D02*
X165862000Y-84709000D01*
%TO.N,/C_START*%
X162814000Y-84201000D02*
X163322000Y-84709000D01*
X163322000Y-89154000D02*
X166878000Y-92710000D01*
X166878000Y-99949000D02*
X168148000Y-101219000D01*
X166878000Y-92710000D02*
X166878000Y-99949000D01*
X163322000Y-84709000D02*
X163322000Y-89154000D01*
%TO.N,/C_SELECT*%
X160274000Y-84201000D02*
X160782000Y-84709000D01*
X160782000Y-84709000D02*
X160782000Y-89154000D01*
X164338000Y-92710000D02*
X164338000Y-99949000D01*
X160782000Y-89154000D02*
X164338000Y-92710000D01*
X164338000Y-99949000D02*
X165608000Y-101219000D01*
D18*
%TO.N,VCC*%
X173228000Y-104140000D02*
X173228000Y-101219000D01*
X173228000Y-106299000D02*
X173101000Y-106426000D01*
X173101000Y-106426000D02*
X174752000Y-106426000D01*
X177546000Y-103632000D02*
X177546000Y-103505000D01*
X140589000Y-106426000D02*
X134747000Y-106426000D01*
X173228000Y-104140000D02*
X173228000Y-106299000D01*
X152146000Y-104140000D02*
X152146000Y-106426000D01*
X131826000Y-103505000D02*
X130302000Y-103505000D01*
X161988500Y-106426000D02*
X140589000Y-106426000D01*
X161955000Y-104140000D02*
X161955000Y-106392500D01*
X152146000Y-101219000D02*
X152146000Y-104140000D01*
X134747000Y-106426000D02*
X131826000Y-103505000D01*
X140746000Y-106269000D02*
X140746000Y-104140000D01*
X161988500Y-106426000D02*
X173101000Y-106426000D01*
X174752000Y-106426000D02*
X177546000Y-103632000D01*
D17*
%TO.N,/D_IN*%
X130302000Y-93345000D02*
X130810000Y-93345000D01*
X136906000Y-99441000D02*
X136906000Y-101219000D01*
X130810000Y-93345000D02*
X136906000Y-99441000D01*
%TO.N,/LOAD*%
X152146000Y-93599000D02*
X152146000Y-98425000D01*
X173228000Y-93599000D02*
X173228000Y-97282000D01*
X173228000Y-97282000D02*
X172085000Y-98425000D01*
%TO.N,/CLK*%
X149606000Y-93599000D02*
X149606000Y-97155000D01*
X170688000Y-93599000D02*
X170688000Y-97155000D01*
%TO.N,/C_A*%
X158242000Y-84709000D02*
X158242000Y-89154000D01*
X158242000Y-89154000D02*
X161798000Y-92710000D01*
X157734000Y-84201000D02*
X158242000Y-84709000D01*
X161798000Y-99949000D02*
X163068000Y-101219000D01*
X161798000Y-92710000D02*
X161798000Y-99949000D01*
%TO.N,/C_B*%
X159258000Y-99949000D02*
X160528000Y-101219000D01*
X155702000Y-89154000D02*
X159258000Y-92710000D01*
X155194000Y-84201000D02*
X155702000Y-84709000D01*
X159258000Y-92710000D02*
X159258000Y-99949000D01*
X155702000Y-84709000D02*
X155702000Y-89154000D01*
%TO.N,/C_X*%
X152146000Y-84709000D02*
X152146000Y-89154000D01*
X152654000Y-84201000D02*
X152146000Y-84709000D01*
%TO.N,/C_Y*%
X149606000Y-84709000D02*
X149606000Y-89154000D01*
X150114000Y-84201000D02*
X149606000Y-84709000D01*
%TO.N,/C_EX4*%
X134366000Y-84709000D02*
X134874000Y-84201000D01*
X139446000Y-101219000D02*
X139446000Y-99314000D01*
X139446000Y-99314000D02*
X138176000Y-98044000D01*
X134366000Y-89154000D02*
X134366000Y-84709000D01*
X138176000Y-98044000D02*
X138176000Y-92964000D01*
X138176000Y-92964000D02*
X134366000Y-89154000D01*
%TO.N,/C_EX3*%
X137414000Y-84201000D02*
X136906000Y-84709000D01*
X136906000Y-84709000D02*
X136906000Y-89154000D01*
X137287000Y-89154000D02*
X140716000Y-92583000D01*
X140716000Y-99949000D02*
X141986000Y-101219000D01*
X140716000Y-92583000D02*
X140716000Y-99949000D01*
X136906000Y-89154000D02*
X137287000Y-89154000D01*
%TO.N,/C_EX2*%
X143256000Y-92583000D02*
X143256000Y-99949000D01*
X139446000Y-84709000D02*
X139446000Y-89154000D01*
X139446000Y-89154000D02*
X139827000Y-89154000D01*
X139954000Y-84201000D02*
X139446000Y-84709000D01*
X143256000Y-99949000D02*
X144526000Y-101219000D01*
X139827000Y-89154000D02*
X143256000Y-92583000D01*
%TO.N,/C_EX1*%
X145796000Y-99949000D02*
X147066000Y-101219000D01*
X141986000Y-84709000D02*
X141986000Y-89154000D01*
X145796000Y-92710000D02*
X145796000Y-99949000D01*
X141986000Y-89154000D02*
X142240000Y-89154000D01*
X142240000Y-89154000D02*
X145796000Y-92710000D01*
X142494000Y-84201000D02*
X141986000Y-84709000D01*
%TO.N,/C_R*%
X145034000Y-84201000D02*
X144526000Y-84709000D01*
X144526000Y-84709000D02*
X144526000Y-89154000D01*
%TO.N,/C_L*%
X147574000Y-84201000D02*
X147066000Y-84709000D01*
X147066000Y-84709000D02*
X147066000Y-89154000D01*
%TD*%
%TA.AperFunction,Conductor*%
%TO.N,GND*%
G36*
X170879000Y-100981881D02*
G01*
X170925119Y-101028000D01*
X170942000Y-101091000D01*
X170942000Y-102505082D01*
X171137070Y-102452813D01*
X171344498Y-102356087D01*
X171531981Y-102224810D01*
X171693810Y-102062981D01*
X171825088Y-101875497D01*
X171843529Y-101835951D01*
X171890024Y-101782933D01*
X171957724Y-101763200D01*
X172025424Y-101782933D01*
X172071919Y-101835951D01*
X172090476Y-101875748D01*
X172221804Y-102063303D01*
X172383698Y-102225197D01*
X172415770Y-102247654D01*
X172455263Y-102292686D01*
X172469500Y-102350867D01*
X172469500Y-103008133D01*
X172455263Y-103066314D01*
X172415770Y-103111346D01*
X172383698Y-103133802D01*
X172221804Y-103295696D01*
X172090477Y-103483249D01*
X171993715Y-103690756D01*
X171934457Y-103911912D01*
X171914502Y-104139999D01*
X171934457Y-104368087D01*
X171993715Y-104589243D01*
X172090477Y-104796750D01*
X172221804Y-104984303D01*
X172383698Y-105146197D01*
X172415770Y-105168654D01*
X172455263Y-105213686D01*
X172469500Y-105271867D01*
X172469500Y-105541500D01*
X172452619Y-105604500D01*
X172406500Y-105650619D01*
X172343500Y-105667500D01*
X168538082Y-105667500D01*
X168479902Y-105653263D01*
X168434869Y-105613771D01*
X168413160Y-105557946D01*
X168419681Y-105498405D01*
X168452958Y-105448603D01*
X168505471Y-105419793D01*
X168677070Y-105373813D01*
X168884498Y-105277087D01*
X168955888Y-105227099D01*
X168955888Y-105227097D01*
X168228001Y-104499210D01*
X168228000Y-104499210D01*
X167500110Y-105227098D01*
X167500110Y-105227100D01*
X167571497Y-105277085D01*
X167778929Y-105373813D01*
X167950529Y-105419793D01*
X168003042Y-105448603D01*
X168036319Y-105498405D01*
X168042840Y-105557946D01*
X168021131Y-105613771D01*
X167976098Y-105653263D01*
X167917918Y-105667500D01*
X162839500Y-105667500D01*
X162776500Y-105650619D01*
X162730381Y-105604500D01*
X162713500Y-105541500D01*
X162713500Y-105394755D01*
X162726828Y-105338355D01*
X162763992Y-105293886D01*
X162818262Y-105253260D01*
X162881597Y-105168654D01*
X162905889Y-105136204D01*
X162956989Y-104999201D01*
X162963500Y-104938638D01*
X162963500Y-103341362D01*
X162956989Y-103280799D01*
X162956988Y-103280797D01*
X162955297Y-103265064D01*
X162958128Y-103264759D01*
X162954405Y-103232787D01*
X162975926Y-103176634D01*
X163021022Y-103136851D01*
X163079421Y-103122500D01*
X167101645Y-103122500D01*
X167167010Y-103140781D01*
X167213408Y-103190320D01*
X167227375Y-103256741D01*
X167204858Y-103320771D01*
X167090912Y-103483501D01*
X166994186Y-103690929D01*
X166934951Y-103912000D01*
X166915004Y-104139999D01*
X166934951Y-104367999D01*
X166994186Y-104589070D01*
X167090912Y-104796497D01*
X167140900Y-104867888D01*
X167868788Y-104140001D01*
X168587210Y-104140001D01*
X169315097Y-104867888D01*
X169315099Y-104867888D01*
X169365087Y-104796498D01*
X169461813Y-104589070D01*
X169521048Y-104367999D01*
X169540995Y-104139999D01*
X169521048Y-103912000D01*
X169461813Y-103690929D01*
X169365085Y-103483497D01*
X169315100Y-103412110D01*
X169315098Y-103412110D01*
X168587210Y-104140000D01*
X168587210Y-104140001D01*
X167868788Y-104140001D01*
X168228000Y-103780790D01*
X168227999Y-103780790D01*
X168864956Y-103143832D01*
X168898622Y-103119775D01*
X168938262Y-103107920D01*
X168941797Y-103107474D01*
X168982915Y-103091193D01*
X168994117Y-103087357D01*
X169036593Y-103075018D01*
X169054039Y-103064699D01*
X169071780Y-103056009D01*
X169090617Y-103048552D01*
X169126392Y-103022558D01*
X169136303Y-103016048D01*
X169174362Y-102993542D01*
X169188691Y-102979212D01*
X169203719Y-102966377D01*
X169220107Y-102954472D01*
X169248303Y-102920386D01*
X169256272Y-102911630D01*
X169806658Y-102361244D01*
X169822978Y-102348170D01*
X169825014Y-102346002D01*
X169825018Y-102346000D01*
X169826499Y-102344422D01*
X169876218Y-102311927D01*
X169935303Y-102305821D01*
X169990620Y-102327462D01*
X170031501Y-102356087D01*
X170238929Y-102452813D01*
X170434000Y-102505082D01*
X170434000Y-101091000D01*
X170450881Y-101028000D01*
X170497000Y-100981881D01*
X170560000Y-100965000D01*
X170816000Y-100965000D01*
X170879000Y-100981881D01*
G37*
%TD.AperFunction*%
%TA.AperFunction,Conductor*%
G36*
X153983969Y-84860458D02*
G01*
X154029481Y-84902354D01*
X154118278Y-85038268D01*
X154230525Y-85160200D01*
X154270762Y-85203908D01*
X154390629Y-85297205D01*
X154448424Y-85342189D01*
X154646426Y-85449342D01*
X154859365Y-85522444D01*
X154963240Y-85539777D01*
X155017122Y-85562533D01*
X155054924Y-85607166D01*
X155068500Y-85664059D01*
X155068500Y-87934607D01*
X155054263Y-87992787D01*
X155014772Y-88037818D01*
X154946659Y-88085511D01*
X154857696Y-88147804D01*
X154695804Y-88309696D01*
X154564477Y-88497249D01*
X154467715Y-88704756D01*
X154408457Y-88925912D01*
X154388502Y-89154000D01*
X154408457Y-89382087D01*
X154467715Y-89603243D01*
X154564477Y-89810750D01*
X154695804Y-89998303D01*
X154857696Y-90160195D01*
X155045249Y-90291522D01*
X155045250Y-90291522D01*
X155045251Y-90291523D01*
X155071451Y-90303740D01*
X155252756Y-90388284D01*
X155306621Y-90402717D01*
X155473913Y-90447543D01*
X155702000Y-90467498D01*
X155930087Y-90447543D01*
X155993542Y-90430540D01*
X156058764Y-90430540D01*
X156115248Y-90463152D01*
X157761468Y-92109372D01*
X157794080Y-92165856D01*
X157794080Y-92231078D01*
X157761469Y-92287562D01*
X157704985Y-92320173D01*
X157538761Y-92364713D01*
X157331249Y-92461477D01*
X157143696Y-92592804D01*
X156981804Y-92754696D01*
X156850477Y-92942250D01*
X156831919Y-92982049D01*
X156785424Y-93035066D01*
X156717724Y-93054799D01*
X156650024Y-93035066D01*
X156603529Y-92982049D01*
X156585087Y-92942501D01*
X156453810Y-92755018D01*
X156291981Y-92593189D01*
X156104498Y-92461912D01*
X155897070Y-92365186D01*
X155701999Y-92312917D01*
X155702000Y-92312918D01*
X155702000Y-94885082D01*
X155897070Y-94832813D01*
X156104498Y-94736087D01*
X156291981Y-94604810D01*
X156453810Y-94442981D01*
X156585088Y-94255497D01*
X156603529Y-94215951D01*
X156650024Y-94162933D01*
X156717724Y-94143200D01*
X156785424Y-94162933D01*
X156831919Y-94215951D01*
X156850476Y-94255748D01*
X156981804Y-94443303D01*
X157143696Y-94605195D01*
X157331249Y-94736522D01*
X157538756Y-94833284D01*
X157554405Y-94837477D01*
X157759913Y-94892543D01*
X157988000Y-94912498D01*
X158216087Y-94892543D01*
X158437243Y-94833284D01*
X158445248Y-94829550D01*
X158506739Y-94818015D01*
X158566199Y-94837477D01*
X158608967Y-94883140D01*
X158624500Y-94943745D01*
X158624500Y-99865147D01*
X158621464Y-99892641D01*
X158619620Y-99900888D01*
X158595671Y-99951317D01*
X158552284Y-99986449D01*
X158497977Y-99999387D01*
X158443410Y-99987591D01*
X158437244Y-99984716D01*
X158216087Y-99925457D01*
X157988000Y-99905502D01*
X157759912Y-99925457D01*
X157538756Y-99984715D01*
X157331249Y-100081477D01*
X157143696Y-100212804D01*
X156981804Y-100374696D01*
X156850477Y-100562250D01*
X156832195Y-100601457D01*
X156785700Y-100654474D01*
X156718000Y-100674207D01*
X156650300Y-100654474D01*
X156603805Y-100601457D01*
X156585640Y-100562502D01*
X156585523Y-100562251D01*
X156454198Y-100374700D01*
X156454197Y-100374699D01*
X156454195Y-100374696D01*
X156292303Y-100212804D01*
X156104750Y-100081477D01*
X155897243Y-99984715D01*
X155676087Y-99925457D01*
X155448000Y-99905502D01*
X155219912Y-99925457D01*
X154998756Y-99984715D01*
X154791249Y-100081477D01*
X154603696Y-100212804D01*
X154441804Y-100374696D01*
X154310477Y-100562249D01*
X154213715Y-100769756D01*
X154154457Y-100990912D01*
X154134502Y-101219000D01*
X154154457Y-101447087D01*
X154213715Y-101668243D01*
X154310477Y-101875750D01*
X154441804Y-102063303D01*
X154603696Y-102225195D01*
X154603699Y-102225197D01*
X154603700Y-102225198D01*
X154661805Y-102265884D01*
X154791249Y-102356522D01*
X154998756Y-102453284D01*
X155020257Y-102459045D01*
X155219913Y-102512543D01*
X155448000Y-102532498D01*
X155676087Y-102512543D01*
X155897243Y-102453284D01*
X156104749Y-102356523D01*
X156292300Y-102225198D01*
X156454198Y-102063300D01*
X156585523Y-101875749D01*
X156603804Y-101836543D01*
X156650300Y-101783525D01*
X156718000Y-101763792D01*
X156785700Y-101783525D01*
X156832195Y-101836543D01*
X156850476Y-101875748D01*
X156981804Y-102063303D01*
X157143696Y-102225195D01*
X157143699Y-102225197D01*
X157143700Y-102225198D01*
X157201805Y-102265884D01*
X157331249Y-102356522D01*
X157538756Y-102453284D01*
X157560257Y-102459045D01*
X157759913Y-102512543D01*
X157988000Y-102532498D01*
X158216087Y-102512543D01*
X158437243Y-102453284D01*
X158644749Y-102356523D01*
X158832300Y-102225198D01*
X158994198Y-102063300D01*
X159125523Y-101875749D01*
X159143804Y-101836543D01*
X159190300Y-101783525D01*
X159258000Y-101763792D01*
X159325700Y-101783525D01*
X159372195Y-101836543D01*
X159390476Y-101875748D01*
X159521804Y-102063303D01*
X159683696Y-102225195D01*
X159683699Y-102225197D01*
X159683700Y-102225198D01*
X159741805Y-102265884D01*
X159871249Y-102356522D01*
X159871250Y-102356522D01*
X159871251Y-102356523D01*
X160078757Y-102453284D01*
X160139396Y-102469532D01*
X160195178Y-102501445D01*
X160227965Y-102556717D01*
X160229228Y-102620970D01*
X160198640Y-102677488D01*
X160168414Y-102709677D01*
X160158652Y-102727434D01*
X160147801Y-102743952D01*
X160135385Y-102759959D01*
X160117824Y-102800539D01*
X160112604Y-102811195D01*
X160104512Y-102825915D01*
X160064547Y-102869680D01*
X160008995Y-102890332D01*
X159980183Y-102886890D01*
X159979828Y-102890197D01*
X159903589Y-102882000D01*
X159609000Y-102882000D01*
X159609000Y-105398000D01*
X159903590Y-105398000D01*
X159974244Y-105390403D01*
X160004281Y-105384983D01*
X160039147Y-105391273D01*
X160045796Y-105391987D01*
X160045799Y-105391989D01*
X160098873Y-105397694D01*
X160106361Y-105398500D01*
X160106362Y-105398500D01*
X161070500Y-105398500D01*
X161133500Y-105415381D01*
X161179619Y-105461500D01*
X161196500Y-105524500D01*
X161196500Y-105541500D01*
X161179619Y-105604500D01*
X161133500Y-105650619D01*
X161070500Y-105667500D01*
X153030500Y-105667500D01*
X152967500Y-105650619D01*
X152921381Y-105604500D01*
X152904500Y-105541500D01*
X152904500Y-105271867D01*
X152918737Y-105213686D01*
X152958230Y-105168654D01*
X152990301Y-105146197D01*
X153152195Y-104984303D01*
X153152194Y-104984303D01*
X153152198Y-104984300D01*
X153283523Y-104796749D01*
X153380284Y-104589243D01*
X153432600Y-104394000D01*
X158347000Y-104394000D01*
X158347000Y-104938589D01*
X158353505Y-104999093D01*
X158404554Y-105135962D01*
X158492095Y-105252904D01*
X158609037Y-105340445D01*
X158745906Y-105391494D01*
X158806411Y-105398000D01*
X159101000Y-105398000D01*
X159101000Y-104394000D01*
X158347000Y-104394000D01*
X153432600Y-104394000D01*
X153439543Y-104368087D01*
X153459498Y-104140000D01*
X153439543Y-103911913D01*
X153432600Y-103886000D01*
X158347000Y-103886000D01*
X159101000Y-103886000D01*
X159101000Y-102882000D01*
X158806411Y-102882000D01*
X158745906Y-102888505D01*
X158609037Y-102939554D01*
X158492095Y-103027095D01*
X158404554Y-103144037D01*
X158353505Y-103280906D01*
X158347000Y-103341411D01*
X158347000Y-103886000D01*
X153432600Y-103886000D01*
X153380284Y-103690757D01*
X153283523Y-103483251D01*
X153233709Y-103412110D01*
X153152195Y-103295696D01*
X152990301Y-103133802D01*
X152958230Y-103111346D01*
X152918737Y-103066314D01*
X152904500Y-103008133D01*
X152904500Y-102350867D01*
X152918737Y-102292686D01*
X152958230Y-102247654D01*
X152973486Y-102236970D01*
X152990300Y-102225198D01*
X153152198Y-102063300D01*
X153283523Y-101875749D01*
X153380284Y-101668243D01*
X153439543Y-101447087D01*
X153459498Y-101219000D01*
X153439543Y-100990913D01*
X153380284Y-100769757D01*
X153352885Y-100711000D01*
X153283522Y-100562249D01*
X153195817Y-100436995D01*
X153152198Y-100374700D01*
X153152197Y-100374699D01*
X153152195Y-100374696D01*
X152990303Y-100212804D01*
X152802750Y-100081477D01*
X152595243Y-99984715D01*
X152374087Y-99925457D01*
X152146000Y-99905502D01*
X151917912Y-99925457D01*
X151696756Y-99984715D01*
X151489249Y-100081477D01*
X151301696Y-100212804D01*
X151139804Y-100374696D01*
X151008477Y-100562250D01*
X150989919Y-100602049D01*
X150943424Y-100655066D01*
X150875724Y-100674799D01*
X150808024Y-100655066D01*
X150761529Y-100602049D01*
X150743087Y-100562501D01*
X150611810Y-100375018D01*
X150449981Y-100213189D01*
X150262498Y-100081912D01*
X150055070Y-99985186D01*
X149859999Y-99932917D01*
X149860000Y-99932918D01*
X149860000Y-102505082D01*
X150055070Y-102452813D01*
X150262498Y-102356087D01*
X150449981Y-102224810D01*
X150611810Y-102062981D01*
X150743088Y-101875497D01*
X150761529Y-101835951D01*
X150808024Y-101782933D01*
X150875724Y-101763200D01*
X150943424Y-101782933D01*
X150989919Y-101835951D01*
X151008476Y-101875748D01*
X151139804Y-102063303D01*
X151301698Y-102225197D01*
X151333770Y-102247654D01*
X151373263Y-102292686D01*
X151387500Y-102350867D01*
X151387500Y-103008133D01*
X151373263Y-103066314D01*
X151333770Y-103111346D01*
X151301698Y-103133802D01*
X151139804Y-103295696D01*
X151008477Y-103483249D01*
X150911715Y-103690756D01*
X150852457Y-103911912D01*
X150832502Y-104139999D01*
X150852457Y-104368087D01*
X150911715Y-104589243D01*
X151008477Y-104796750D01*
X151139804Y-104984303D01*
X151301698Y-105146197D01*
X151333770Y-105168654D01*
X151373263Y-105213686D01*
X151387500Y-105271867D01*
X151387500Y-105541500D01*
X151370619Y-105604500D01*
X151324500Y-105650619D01*
X151261500Y-105667500D01*
X147456082Y-105667500D01*
X147397902Y-105653263D01*
X147352869Y-105613771D01*
X147331160Y-105557946D01*
X147337681Y-105498405D01*
X147370958Y-105448603D01*
X147423471Y-105419793D01*
X147595070Y-105373813D01*
X147802498Y-105277087D01*
X147873888Y-105227099D01*
X147873888Y-105227097D01*
X147146001Y-104499210D01*
X147146000Y-104499210D01*
X146418110Y-105227098D01*
X146418110Y-105227100D01*
X146489497Y-105277085D01*
X146696929Y-105373813D01*
X146868529Y-105419793D01*
X146921042Y-105448603D01*
X146954319Y-105498405D01*
X146960840Y-105557946D01*
X146939131Y-105613771D01*
X146894098Y-105653263D01*
X146835918Y-105667500D01*
X141630500Y-105667500D01*
X141567500Y-105650619D01*
X141521381Y-105604500D01*
X141504500Y-105541500D01*
X141504500Y-105394755D01*
X141517828Y-105338355D01*
X141554992Y-105293886D01*
X141609262Y-105253260D01*
X141672597Y-105168654D01*
X141696889Y-105136204D01*
X141747989Y-104999201D01*
X141754500Y-104938638D01*
X141754500Y-104139999D01*
X145833004Y-104139999D01*
X145852951Y-104367999D01*
X145912186Y-104589070D01*
X146008912Y-104796497D01*
X146058900Y-104867887D01*
X146786789Y-104140001D01*
X147505210Y-104140001D01*
X148233097Y-104867888D01*
X148233099Y-104867888D01*
X148283087Y-104796498D01*
X148379813Y-104589070D01*
X148439048Y-104367999D01*
X148458995Y-104139999D01*
X148439048Y-103912000D01*
X148379813Y-103690929D01*
X148283085Y-103483497D01*
X148233100Y-103412110D01*
X148233098Y-103412110D01*
X147505210Y-104140000D01*
X147505210Y-104140001D01*
X146786789Y-104140001D01*
X146786790Y-104140000D01*
X146786790Y-104139999D01*
X146058900Y-103412109D01*
X146008913Y-103483499D01*
X145912186Y-103690929D01*
X145852951Y-103912000D01*
X145833004Y-104139999D01*
X141754500Y-104139999D01*
X141754500Y-103341362D01*
X141747989Y-103280799D01*
X141696889Y-103143796D01*
X141696888Y-103143794D01*
X141628846Y-103052900D01*
X146418109Y-103052900D01*
X147145999Y-103780790D01*
X147146000Y-103780790D01*
X147873888Y-103052899D01*
X147802497Y-103002912D01*
X147595070Y-102906186D01*
X147373999Y-102846951D01*
X147146000Y-102827004D01*
X146918000Y-102846951D01*
X146696929Y-102906186D01*
X146489499Y-103002913D01*
X146418109Y-103052900D01*
X141628846Y-103052900D01*
X141609261Y-103026738D01*
X141492205Y-102939111D01*
X141418496Y-102911619D01*
X141355201Y-102888011D01*
X141294638Y-102881500D01*
X140197362Y-102881500D01*
X140136799Y-102888011D01*
X140136798Y-102888011D01*
X140128262Y-102888929D01*
X140096000Y-102894749D01*
X140063731Y-102888927D01*
X140059847Y-102888510D01*
X140058211Y-102887932D01*
X140051974Y-102886807D01*
X140040379Y-102882483D01*
X140040659Y-102881731D01*
X140005125Y-102869179D01*
X139964872Y-102827370D01*
X139962285Y-102822996D01*
X139950542Y-102803138D01*
X139936213Y-102788809D01*
X139923376Y-102773778D01*
X139911473Y-102757394D01*
X139877406Y-102729212D01*
X139868626Y-102721222D01*
X139817252Y-102669848D01*
X139784640Y-102613363D01*
X139784641Y-102548140D01*
X139817253Y-102491656D01*
X139873735Y-102459046D01*
X139895243Y-102453284D01*
X140102749Y-102356523D01*
X140290300Y-102225198D01*
X140452198Y-102063300D01*
X140583523Y-101875749D01*
X140601804Y-101836543D01*
X140648300Y-101783525D01*
X140716000Y-101763792D01*
X140783700Y-101783525D01*
X140830195Y-101836543D01*
X140848476Y-101875748D01*
X140979804Y-102063303D01*
X141141696Y-102225195D01*
X141141699Y-102225197D01*
X141141700Y-102225198D01*
X141199805Y-102265884D01*
X141329249Y-102356522D01*
X141536756Y-102453284D01*
X141558257Y-102459045D01*
X141757913Y-102512543D01*
X141986000Y-102532498D01*
X142214087Y-102512543D01*
X142435243Y-102453284D01*
X142642749Y-102356523D01*
X142830300Y-102225198D01*
X142992198Y-102063300D01*
X143123523Y-101875749D01*
X143141804Y-101836543D01*
X143188300Y-101783525D01*
X143256000Y-101763792D01*
X143323700Y-101783525D01*
X143370195Y-101836543D01*
X143388476Y-101875748D01*
X143519804Y-102063303D01*
X143681696Y-102225195D01*
X143681699Y-102225197D01*
X143681700Y-102225198D01*
X143739805Y-102265884D01*
X143869249Y-102356522D01*
X144076756Y-102453284D01*
X144098257Y-102459045D01*
X144297913Y-102512543D01*
X144526000Y-102532498D01*
X144754087Y-102512543D01*
X144975243Y-102453284D01*
X145182749Y-102356523D01*
X145370300Y-102225198D01*
X145532198Y-102063300D01*
X145663523Y-101875749D01*
X145681804Y-101836543D01*
X145728300Y-101783525D01*
X145796000Y-101763792D01*
X145863700Y-101783525D01*
X145910195Y-101836543D01*
X145928476Y-101875748D01*
X146059804Y-102063303D01*
X146221696Y-102225195D01*
X146221699Y-102225197D01*
X146221700Y-102225198D01*
X146279805Y-102265884D01*
X146409249Y-102356522D01*
X146616756Y-102453284D01*
X146638257Y-102459045D01*
X146837913Y-102512543D01*
X147066000Y-102532498D01*
X147294087Y-102512543D01*
X147515243Y-102453284D01*
X147722749Y-102356523D01*
X147910300Y-102225198D01*
X148072198Y-102063300D01*
X148203523Y-101875749D01*
X148222080Y-101835951D01*
X148268576Y-101782933D01*
X148336276Y-101763200D01*
X148403976Y-101782933D01*
X148450471Y-101835951D01*
X148468911Y-101875497D01*
X148600189Y-102062981D01*
X148762018Y-102224810D01*
X148949501Y-102356087D01*
X149156929Y-102452813D01*
X149352000Y-102505082D01*
X149352000Y-99932917D01*
X149156929Y-99985186D01*
X148949501Y-100081912D01*
X148762018Y-100213189D01*
X148600189Y-100375018D01*
X148468911Y-100562502D01*
X148450469Y-100602051D01*
X148403973Y-100655067D01*
X148336273Y-100674799D01*
X148268573Y-100655065D01*
X148222081Y-100602049D01*
X148203523Y-100562251D01*
X148072198Y-100374700D01*
X148072197Y-100374699D01*
X148072195Y-100374696D01*
X147910303Y-100212804D01*
X147722750Y-100081477D01*
X147515243Y-99984715D01*
X147294087Y-99925457D01*
X147066000Y-99905502D01*
X146837910Y-99925457D01*
X146774457Y-99942459D01*
X146709235Y-99942458D01*
X146652752Y-99909847D01*
X146466405Y-99723500D01*
X146439091Y-99682623D01*
X146429500Y-99634405D01*
X146429500Y-94943745D01*
X146445033Y-94883140D01*
X146487801Y-94837477D01*
X146547261Y-94818015D01*
X146608751Y-94829550D01*
X146616757Y-94833284D01*
X146837913Y-94892543D01*
X147066000Y-94912498D01*
X147294087Y-94892543D01*
X147515243Y-94833284D01*
X147722749Y-94736523D01*
X147910300Y-94605198D01*
X148072198Y-94443300D01*
X148203523Y-94255749D01*
X148221804Y-94216543D01*
X148268300Y-94163525D01*
X148336000Y-94143792D01*
X148403700Y-94163525D01*
X148450195Y-94216543D01*
X148468476Y-94255748D01*
X148599804Y-94443303D01*
X148761696Y-94605195D01*
X148761699Y-94605197D01*
X148761700Y-94605198D01*
X148918772Y-94715181D01*
X148958263Y-94760213D01*
X148972500Y-94818393D01*
X148972500Y-96452475D01*
X148964131Y-96497629D01*
X148940136Y-96536786D01*
X148866958Y-96618057D01*
X148771472Y-96783443D01*
X148712458Y-96965070D01*
X148692496Y-97155000D01*
X148712458Y-97344929D01*
X148771472Y-97526556D01*
X148866958Y-97691942D01*
X148866960Y-97691944D01*
X148994747Y-97833866D01*
X149149248Y-97946118D01*
X149323712Y-98023794D01*
X149510513Y-98063500D01*
X149701485Y-98063500D01*
X149701487Y-98063500D01*
X149888288Y-98023794D01*
X150062752Y-97946118D01*
X150217253Y-97833866D01*
X150345040Y-97691944D01*
X150440527Y-97526556D01*
X150499542Y-97344928D01*
X150519504Y-97155000D01*
X150499542Y-96965072D01*
X150440527Y-96783444D01*
X150440527Y-96783443D01*
X150345041Y-96618057D01*
X150271864Y-96536786D01*
X150247869Y-96497629D01*
X150239500Y-96452475D01*
X150239500Y-94818393D01*
X150253737Y-94760213D01*
X150293227Y-94715181D01*
X150450300Y-94605198D01*
X150612198Y-94443300D01*
X150614507Y-94440002D01*
X150660069Y-94400233D01*
X150718916Y-94386275D01*
X150777488Y-94401346D01*
X150822290Y-94441973D01*
X150843000Y-94498797D01*
X150844011Y-94508200D01*
X150895111Y-94645205D01*
X150982738Y-94762261D01*
X151099794Y-94849888D01*
X151099795Y-94849888D01*
X151099796Y-94849889D01*
X151236799Y-94900989D01*
X151297362Y-94907500D01*
X151386500Y-94907500D01*
X151449500Y-94924381D01*
X151495619Y-94970500D01*
X151512500Y-95033500D01*
X151512500Y-97722475D01*
X151504131Y-97767629D01*
X151480136Y-97806786D01*
X151406958Y-97888057D01*
X151311472Y-98053443D01*
X151252458Y-98235070D01*
X151232496Y-98425000D01*
X151252458Y-98614929D01*
X151311472Y-98796556D01*
X151406958Y-98961942D01*
X151406960Y-98961944D01*
X151534747Y-99103866D01*
X151689248Y-99216118D01*
X151863712Y-99293794D01*
X152050513Y-99333500D01*
X152241485Y-99333500D01*
X152241487Y-99333500D01*
X152428288Y-99293794D01*
X152602752Y-99216118D01*
X152757253Y-99103866D01*
X152885040Y-98961944D01*
X152980527Y-98796556D01*
X153039542Y-98614928D01*
X153059504Y-98425000D01*
X153039542Y-98235072D01*
X153008931Y-98140862D01*
X152980527Y-98053443D01*
X152885041Y-97888057D01*
X152811864Y-97806786D01*
X152787869Y-97767629D01*
X152779500Y-97722475D01*
X152779500Y-95033500D01*
X152796381Y-94970500D01*
X152842500Y-94924381D01*
X152905500Y-94907500D01*
X152994638Y-94907500D01*
X153055201Y-94900989D01*
X153192204Y-94849889D01*
X153309261Y-94762261D01*
X153396889Y-94645204D01*
X153447989Y-94508201D01*
X153454500Y-94447638D01*
X153454500Y-93853000D01*
X154161918Y-93853000D01*
X154214186Y-94048070D01*
X154310912Y-94255498D01*
X154442189Y-94442981D01*
X154604018Y-94604810D01*
X154791501Y-94736087D01*
X154998929Y-94832813D01*
X155194000Y-94885082D01*
X155194000Y-93853000D01*
X154161918Y-93853000D01*
X153454500Y-93853000D01*
X153454500Y-93345000D01*
X154161917Y-93345000D01*
X155194000Y-93345000D01*
X155194000Y-92312917D01*
X154998929Y-92365186D01*
X154791501Y-92461912D01*
X154604018Y-92593189D01*
X154442189Y-92755018D01*
X154310912Y-92942501D01*
X154214186Y-93149929D01*
X154161917Y-93345000D01*
X153454500Y-93345000D01*
X153454500Y-92750362D01*
X153447989Y-92689799D01*
X153396889Y-92552796D01*
X153396888Y-92552794D01*
X153309261Y-92435738D01*
X153192205Y-92348111D01*
X153117300Y-92320173D01*
X153055201Y-92297011D01*
X152994638Y-92290500D01*
X151297362Y-92290500D01*
X151236799Y-92297011D01*
X151099794Y-92348111D01*
X150982738Y-92435738D01*
X150895111Y-92552794D01*
X150844011Y-92689800D01*
X150843000Y-92699202D01*
X150822291Y-92756025D01*
X150777490Y-92796653D01*
X150718919Y-92811724D01*
X150660072Y-92797768D01*
X150614508Y-92757999D01*
X150613126Y-92756025D01*
X150612198Y-92754700D01*
X150612197Y-92754699D01*
X150612195Y-92754696D01*
X150450303Y-92592804D01*
X150262750Y-92461477D01*
X150055243Y-92364715D01*
X149834087Y-92305457D01*
X149810975Y-92303435D01*
X149606000Y-92285502D01*
X149605999Y-92285502D01*
X149377912Y-92305457D01*
X149156756Y-92364715D01*
X148949249Y-92461477D01*
X148761696Y-92592804D01*
X148599804Y-92754696D01*
X148468477Y-92942250D01*
X148450195Y-92981457D01*
X148403700Y-93034474D01*
X148336000Y-93054207D01*
X148268300Y-93034474D01*
X148221805Y-92981457D01*
X148219894Y-92977359D01*
X148203523Y-92942251D01*
X148072198Y-92754700D01*
X148072197Y-92754699D01*
X148072195Y-92754696D01*
X147910303Y-92592804D01*
X147722750Y-92461477D01*
X147515243Y-92364715D01*
X147294087Y-92305457D01*
X147270975Y-92303435D01*
X147066000Y-92285502D01*
X147065999Y-92285502D01*
X146837912Y-92305457D01*
X146616754Y-92364716D01*
X146495344Y-92421330D01*
X146439162Y-92433101D01*
X146383589Y-92418728D01*
X146340158Y-92381195D01*
X146329563Y-92366612D01*
X146323046Y-92356690D01*
X146317972Y-92348111D01*
X146300542Y-92318637D01*
X146286213Y-92304308D01*
X146273376Y-92289277D01*
X146261473Y-92272893D01*
X146227406Y-92244711D01*
X146218626Y-92236721D01*
X144646630Y-90664725D01*
X144612712Y-90602901D01*
X144617324Y-90532534D01*
X144659023Y-90475666D01*
X144724742Y-90450110D01*
X144754087Y-90447543D01*
X144975243Y-90388284D01*
X145182749Y-90291523D01*
X145370300Y-90160198D01*
X145532198Y-89998300D01*
X145663523Y-89810749D01*
X145681804Y-89771543D01*
X145728300Y-89718525D01*
X145796000Y-89698792D01*
X145863700Y-89718525D01*
X145910195Y-89771543D01*
X145928476Y-89810748D01*
X146059804Y-89998303D01*
X146221696Y-90160195D01*
X146409249Y-90291522D01*
X146409250Y-90291522D01*
X146409251Y-90291523D01*
X146435451Y-90303740D01*
X146616756Y-90388284D01*
X146670621Y-90402717D01*
X146837913Y-90447543D01*
X147066000Y-90467498D01*
X147294087Y-90447543D01*
X147515243Y-90388284D01*
X147722749Y-90291523D01*
X147910300Y-90160198D01*
X148072198Y-89998300D01*
X148203523Y-89810749D01*
X148221804Y-89771543D01*
X148268300Y-89718525D01*
X148336000Y-89698792D01*
X148403700Y-89718525D01*
X148450195Y-89771543D01*
X148468476Y-89810748D01*
X148599804Y-89998303D01*
X148761696Y-90160195D01*
X148949249Y-90291522D01*
X148949250Y-90291522D01*
X148949251Y-90291523D01*
X148975451Y-90303740D01*
X149156756Y-90388284D01*
X149210621Y-90402717D01*
X149377913Y-90447543D01*
X149606000Y-90467498D01*
X149834087Y-90447543D01*
X150055243Y-90388284D01*
X150262749Y-90291523D01*
X150450300Y-90160198D01*
X150612198Y-89998300D01*
X150743523Y-89810749D01*
X150761804Y-89771543D01*
X150808300Y-89718525D01*
X150876000Y-89698792D01*
X150943700Y-89718525D01*
X150990195Y-89771543D01*
X151008476Y-89810748D01*
X151139804Y-89998303D01*
X151301696Y-90160195D01*
X151489249Y-90291522D01*
X151489250Y-90291522D01*
X151489251Y-90291523D01*
X151515451Y-90303740D01*
X151696756Y-90388284D01*
X151750621Y-90402717D01*
X151917913Y-90447543D01*
X152146000Y-90467498D01*
X152374087Y-90447543D01*
X152595243Y-90388284D01*
X152802749Y-90291523D01*
X152990300Y-90160198D01*
X153152198Y-89998300D01*
X153283523Y-89810749D01*
X153380284Y-89603243D01*
X153439543Y-89382087D01*
X153459498Y-89154000D01*
X153439543Y-88925913D01*
X153380284Y-88704757D01*
X153377500Y-88698787D01*
X153283522Y-88497249D01*
X153152195Y-88309696D01*
X152990303Y-88147804D01*
X152968158Y-88132297D01*
X152833227Y-88037818D01*
X152793737Y-87992787D01*
X152779500Y-87934607D01*
X152779500Y-85664059D01*
X152793076Y-85607166D01*
X152830878Y-85562533D01*
X152884759Y-85539777D01*
X152988635Y-85522444D01*
X153201574Y-85449342D01*
X153399576Y-85342189D01*
X153577240Y-85203906D01*
X153729722Y-85038268D01*
X153818518Y-84902354D01*
X153864031Y-84860458D01*
X153924000Y-84845272D01*
X153983969Y-84860458D01*
G37*
%TD.AperFunction*%
%TA.AperFunction,Conductor*%
G36*
X177900954Y-80409873D02*
G01*
X177947415Y-80460837D01*
X177960087Y-80528626D01*
X177935174Y-80592932D01*
X177796917Y-80776013D01*
X177698327Y-80974008D01*
X177637795Y-81186756D01*
X177617386Y-81407000D01*
X177637795Y-81627243D01*
X177698327Y-81839991D01*
X177796917Y-82037986D01*
X177796919Y-82037988D01*
X177930214Y-82214500D01*
X178093674Y-82363514D01*
X178093676Y-82363515D01*
X178093677Y-82363516D01*
X178281727Y-82479952D01*
X178281731Y-82479953D01*
X178281732Y-82479954D01*
X178487984Y-82559857D01*
X178705406Y-82600500D01*
X178926592Y-82600500D01*
X178926594Y-82600500D01*
X179144016Y-82559857D01*
X179350268Y-82479954D01*
X179350269Y-82479952D01*
X179350272Y-82479952D01*
X179484273Y-82396982D01*
X179538326Y-82363514D01*
X179621115Y-82288041D01*
X179671518Y-82259967D01*
X179729152Y-82257302D01*
X179781932Y-82280607D01*
X179818791Y-82324994D01*
X179832000Y-82381157D01*
X179832000Y-106086843D01*
X179818791Y-106143006D01*
X179781932Y-106187393D01*
X179729152Y-106210698D01*
X179671518Y-106208033D01*
X179621115Y-106179958D01*
X179538326Y-106104486D01*
X179538323Y-106104484D01*
X179538322Y-106104483D01*
X179350272Y-105988047D01*
X179144016Y-105908143D01*
X178926594Y-105867500D01*
X178705406Y-105867500D01*
X178560458Y-105894595D01*
X178487983Y-105908143D01*
X178281727Y-105988047D01*
X178093677Y-106104483D01*
X177930213Y-106253501D01*
X177796917Y-106430013D01*
X177698327Y-106628008D01*
X177637795Y-106840756D01*
X177617386Y-107061000D01*
X177637795Y-107281243D01*
X177698327Y-107493991D01*
X177796917Y-107691986D01*
X177935174Y-107875068D01*
X177960087Y-107939374D01*
X177947415Y-108007163D01*
X177900954Y-108058127D01*
X177834624Y-108077000D01*
X130013376Y-108077000D01*
X129947046Y-108058127D01*
X129900585Y-108007163D01*
X129887913Y-107939374D01*
X129912826Y-107875068D01*
X129971771Y-107797012D01*
X130051081Y-107691988D01*
X130149673Y-107493989D01*
X130210204Y-107281245D01*
X130230613Y-107061000D01*
X130210204Y-106840755D01*
X130149673Y-106628011D01*
X130078897Y-106485873D01*
X130051082Y-106430013D01*
X129971771Y-106324988D01*
X129917786Y-106253500D01*
X129754326Y-106104486D01*
X129754323Y-106104484D01*
X129754322Y-106104483D01*
X129566272Y-105988047D01*
X129360016Y-105908143D01*
X129142594Y-105867500D01*
X128921406Y-105867500D01*
X128776458Y-105894595D01*
X128703983Y-105908143D01*
X128497727Y-105988047D01*
X128309677Y-106104483D01*
X128309673Y-106104486D01*
X128309674Y-106104486D01*
X128226884Y-106179958D01*
X128176482Y-106208033D01*
X128118848Y-106210698D01*
X128066068Y-106187393D01*
X128029209Y-106143006D01*
X128016000Y-106086843D01*
X128016000Y-98425000D01*
X128938844Y-98425000D01*
X128957436Y-98649368D01*
X128957436Y-98649371D01*
X128957437Y-98649372D01*
X129012702Y-98867611D01*
X129103139Y-99073790D01*
X129226278Y-99262268D01*
X129378762Y-99427908D01*
X129556422Y-99566188D01*
X129556424Y-99566189D01*
X129590205Y-99584470D01*
X129638477Y-99630785D01*
X129656237Y-99695282D01*
X129638479Y-99759779D01*
X129590209Y-99806096D01*
X129556702Y-99824229D01*
X129379096Y-99962466D01*
X129226678Y-100128037D01*
X129103580Y-100316451D01*
X129013177Y-100522548D01*
X128965455Y-100710999D01*
X128965456Y-100711000D01*
X131638544Y-100711000D01*
X131638544Y-100710999D01*
X131590822Y-100522548D01*
X131500419Y-100316451D01*
X131377321Y-100128037D01*
X131224903Y-99962466D01*
X131047299Y-99824231D01*
X131013791Y-99806097D01*
X130965520Y-99759780D01*
X130947762Y-99695282D01*
X130965522Y-99630785D01*
X131013791Y-99584471D01*
X131047576Y-99566189D01*
X131225240Y-99427906D01*
X131377722Y-99262268D01*
X131500860Y-99073791D01*
X131591296Y-98867616D01*
X131646564Y-98649368D01*
X131665156Y-98425000D01*
X131646564Y-98200632D01*
X131591296Y-97982384D01*
X131500860Y-97776209D01*
X131377722Y-97587732D01*
X131225240Y-97422094D01*
X131225239Y-97422093D01*
X131225237Y-97422091D01*
X131047578Y-97283812D01*
X131014317Y-97265812D01*
X130966046Y-97219495D01*
X130948288Y-97154997D01*
X130966049Y-97090499D01*
X131014317Y-97044187D01*
X131047576Y-97026189D01*
X131225240Y-96887906D01*
X131377722Y-96722268D01*
X131500860Y-96533791D01*
X131591296Y-96327616D01*
X131646564Y-96109368D01*
X131665156Y-95885000D01*
X131646564Y-95660632D01*
X131591296Y-95442384D01*
X131531915Y-95307009D01*
X131522546Y-95238747D01*
X131550486Y-95175762D01*
X131607379Y-95136891D01*
X131676212Y-95133759D01*
X131736398Y-95167302D01*
X133986190Y-97417095D01*
X136235595Y-99666500D01*
X136262909Y-99707377D01*
X136272500Y-99755595D01*
X136272500Y-99999607D01*
X136258263Y-100057787D01*
X136218772Y-100102818D01*
X136185039Y-100126439D01*
X136061696Y-100212804D01*
X135899804Y-100374696D01*
X135768477Y-100562250D01*
X135750195Y-100601457D01*
X135703700Y-100654474D01*
X135636000Y-100674207D01*
X135568300Y-100654474D01*
X135521805Y-100601457D01*
X135503640Y-100562502D01*
X135503523Y-100562251D01*
X135372198Y-100374700D01*
X135372197Y-100374699D01*
X135372195Y-100374696D01*
X135210303Y-100212804D01*
X135022750Y-100081477D01*
X134815243Y-99984715D01*
X134594087Y-99925457D01*
X134366000Y-99905502D01*
X134137912Y-99925457D01*
X133916756Y-99984715D01*
X133709249Y-100081477D01*
X133521696Y-100212804D01*
X133359804Y-100374696D01*
X133228477Y-100562249D01*
X133131715Y-100769756D01*
X133072457Y-100990912D01*
X133052502Y-101219000D01*
X133072457Y-101447087D01*
X133131715Y-101668243D01*
X133228477Y-101875750D01*
X133359804Y-102063303D01*
X133521696Y-102225195D01*
X133521699Y-102225197D01*
X133521700Y-102225198D01*
X133579805Y-102265884D01*
X133709249Y-102356522D01*
X133916756Y-102453284D01*
X133938257Y-102459045D01*
X134137913Y-102512543D01*
X134366000Y-102532498D01*
X134594087Y-102512543D01*
X134815243Y-102453284D01*
X135022749Y-102356523D01*
X135210300Y-102225198D01*
X135372198Y-102063300D01*
X135503523Y-101875749D01*
X135521804Y-101836543D01*
X135568300Y-101783525D01*
X135636000Y-101763792D01*
X135703700Y-101783525D01*
X135750195Y-101836543D01*
X135768476Y-101875748D01*
X135899804Y-102063303D01*
X136061696Y-102225195D01*
X136061699Y-102225197D01*
X136061700Y-102225198D01*
X136119805Y-102265884D01*
X136249249Y-102356522D01*
X136456756Y-102453284D01*
X136478257Y-102459045D01*
X136677913Y-102512543D01*
X136906000Y-102532498D01*
X137134087Y-102512543D01*
X137355243Y-102453284D01*
X137562749Y-102356523D01*
X137562749Y-102356522D01*
X137572740Y-102351864D01*
X137573151Y-102352746D01*
X137610928Y-102337047D01*
X137665142Y-102339223D01*
X137713413Y-102363995D01*
X137744597Y-102389792D01*
X137753378Y-102397783D01*
X138022500Y-102666905D01*
X138053238Y-102717064D01*
X138057854Y-102775711D01*
X138035341Y-102830061D01*
X137990608Y-102868267D01*
X137933405Y-102882000D01*
X137597411Y-102882000D01*
X137536906Y-102888505D01*
X137400037Y-102939554D01*
X137283095Y-103027095D01*
X137195554Y-103144037D01*
X137144505Y-103280906D01*
X137138000Y-103341411D01*
X137138000Y-103886000D01*
X138274000Y-103886000D01*
X138337000Y-103902881D01*
X138383119Y-103949000D01*
X138400000Y-104012000D01*
X138400000Y-105398000D01*
X138694590Y-105398000D01*
X138765244Y-105390403D01*
X138795281Y-105384983D01*
X138830147Y-105391273D01*
X138836796Y-105391987D01*
X138836799Y-105391989D01*
X138889873Y-105397694D01*
X138897361Y-105398500D01*
X138897362Y-105398500D01*
X139861500Y-105398500D01*
X139924500Y-105415381D01*
X139970619Y-105461500D01*
X139987500Y-105524500D01*
X139987500Y-105541500D01*
X139970619Y-105604500D01*
X139924500Y-105650619D01*
X139861500Y-105667500D01*
X135113371Y-105667500D01*
X135065153Y-105657909D01*
X135024276Y-105630595D01*
X133787681Y-104394000D01*
X137138000Y-104394000D01*
X137138000Y-104938589D01*
X137144505Y-104999093D01*
X137195554Y-105135962D01*
X137283095Y-105252904D01*
X137400037Y-105340445D01*
X137536906Y-105391494D01*
X137597411Y-105398000D01*
X137892000Y-105398000D01*
X137892000Y-104394000D01*
X137138000Y-104394000D01*
X133787681Y-104394000D01*
X132407909Y-103014228D01*
X132395937Y-103000375D01*
X132381470Y-102980943D01*
X132343130Y-102948772D01*
X132335032Y-102941351D01*
X132331101Y-102937420D01*
X132323081Y-102931078D01*
X132306528Y-102917989D01*
X132303690Y-102915677D01*
X132244622Y-102866113D01*
X132228110Y-102855594D01*
X132158205Y-102822996D01*
X132154909Y-102821401D01*
X132085996Y-102786792D01*
X132067504Y-102780365D01*
X131991942Y-102764762D01*
X131988367Y-102763969D01*
X131913356Y-102746191D01*
X131893885Y-102744202D01*
X131816741Y-102746447D01*
X131813077Y-102746500D01*
X131786500Y-102746500D01*
X131723500Y-102729619D01*
X131677381Y-102683500D01*
X131660500Y-102620500D01*
X131660500Y-102606362D01*
X131658482Y-102587593D01*
X131653989Y-102545799D01*
X131602889Y-102408796D01*
X131594645Y-102397783D01*
X131515261Y-102291738D01*
X131398206Y-102204111D01*
X131324758Y-102176716D01*
X131282684Y-102161024D01*
X131232352Y-102126461D01*
X131204178Y-102072291D01*
X131204781Y-102011235D01*
X131234018Y-101957632D01*
X131377321Y-101801962D01*
X131500419Y-101613548D01*
X131590822Y-101407451D01*
X131638544Y-101219000D01*
X128965455Y-101219000D01*
X129013177Y-101407451D01*
X129103580Y-101613548D01*
X129226678Y-101801962D01*
X129369981Y-101957632D01*
X129399218Y-102011235D01*
X129399821Y-102072291D01*
X129371647Y-102126461D01*
X129321313Y-102161025D01*
X129205793Y-102204111D01*
X129088738Y-102291738D01*
X129001111Y-102408794D01*
X128950011Y-102545799D01*
X128943500Y-102606362D01*
X128943500Y-104403638D01*
X128950011Y-104464200D01*
X129001111Y-104601205D01*
X129088738Y-104718261D01*
X129205794Y-104805888D01*
X129205795Y-104805888D01*
X129205796Y-104805889D01*
X129342799Y-104856989D01*
X129403362Y-104863500D01*
X131200638Y-104863500D01*
X131261201Y-104856989D01*
X131398204Y-104805889D01*
X131515261Y-104718261D01*
X131515260Y-104718261D01*
X131613746Y-104586702D01*
X131614087Y-104586957D01*
X131636914Y-104554078D01*
X131692643Y-104526180D01*
X131754926Y-104528404D01*
X131808524Y-104560205D01*
X134165092Y-106916773D01*
X134177060Y-106930620D01*
X134191530Y-106950057D01*
X134191531Y-106950058D01*
X134229868Y-106982226D01*
X134237965Y-106989646D01*
X134241900Y-106993581D01*
X134241904Y-106993584D01*
X134266455Y-107012997D01*
X134269296Y-107015311D01*
X134328377Y-107064885D01*
X134344890Y-107075405D01*
X134414786Y-107107998D01*
X134418078Y-107109591D01*
X134485812Y-107143609D01*
X134485814Y-107143609D01*
X134487008Y-107144209D01*
X134505490Y-107150633D01*
X134506791Y-107150901D01*
X134506794Y-107150903D01*
X134581078Y-107166241D01*
X134584630Y-107167029D01*
X134658344Y-107184500D01*
X134658346Y-107184500D01*
X134659641Y-107184807D01*
X134679114Y-107186797D01*
X134680439Y-107186758D01*
X134680442Y-107186759D01*
X134754477Y-107184604D01*
X134756259Y-107184553D01*
X134759923Y-107184500D01*
X140500344Y-107184500D01*
X140633180Y-107184500D01*
X152120256Y-107184500D01*
X152127581Y-107184712D01*
X152190403Y-107188372D01*
X152201507Y-107186413D01*
X152223386Y-107184500D01*
X161899844Y-107184500D01*
X162032680Y-107184500D01*
X173012344Y-107184500D01*
X173036559Y-107184500D01*
X173054820Y-107185830D01*
X173078789Y-107189341D01*
X173125253Y-107185275D01*
X173128647Y-107184979D01*
X173139628Y-107184500D01*
X173145180Y-107184500D01*
X174687559Y-107184500D01*
X174705820Y-107185830D01*
X174729789Y-107189341D01*
X174776253Y-107185275D01*
X174779647Y-107184979D01*
X174790628Y-107184500D01*
X174796177Y-107184500D01*
X174796180Y-107184500D01*
X174827301Y-107180861D01*
X174830889Y-107180495D01*
X174906426Y-107173887D01*
X174906430Y-107173885D01*
X174907751Y-107173770D01*
X174926856Y-107169535D01*
X174928106Y-107169079D01*
X174928113Y-107169079D01*
X174999400Y-107143132D01*
X175002769Y-107141961D01*
X175074738Y-107118114D01*
X175074739Y-107118112D01*
X175076007Y-107117693D01*
X175093613Y-107109169D01*
X175094725Y-107108437D01*
X175094732Y-107108435D01*
X175158138Y-107066730D01*
X175161161Y-107064806D01*
X175167332Y-107061000D01*
X175225651Y-107025030D01*
X175225652Y-107025028D01*
X175226788Y-107024328D01*
X175241959Y-107011970D01*
X175242871Y-107011002D01*
X175242874Y-107011001D01*
X175294929Y-106955824D01*
X175297448Y-106953231D01*
X177350275Y-104900405D01*
X177391153Y-104873091D01*
X177439371Y-104863500D01*
X178444638Y-104863500D01*
X178505201Y-104856989D01*
X178642204Y-104805889D01*
X178759261Y-104718261D01*
X178846889Y-104601204D01*
X178897989Y-104464201D01*
X178904500Y-104403638D01*
X178904500Y-102606362D01*
X178897989Y-102545799D01*
X178846889Y-102408796D01*
X178838645Y-102397783D01*
X178759261Y-102291738D01*
X178642206Y-102204111D01*
X178568758Y-102176716D01*
X178526684Y-102161024D01*
X178476352Y-102126461D01*
X178448178Y-102072291D01*
X178448781Y-102011235D01*
X178478018Y-101957632D01*
X178621321Y-101801962D01*
X178744419Y-101613548D01*
X178834822Y-101407451D01*
X178882544Y-101219000D01*
X176209455Y-101219000D01*
X176257177Y-101407451D01*
X176347580Y-101613548D01*
X176470678Y-101801962D01*
X176613981Y-101957632D01*
X176643218Y-102011235D01*
X176643821Y-102072291D01*
X176615647Y-102126461D01*
X176565313Y-102161025D01*
X176449793Y-102204111D01*
X176332738Y-102291738D01*
X176245111Y-102408794D01*
X176194011Y-102545799D01*
X176187500Y-102606362D01*
X176187500Y-103865629D01*
X176177909Y-103913847D01*
X176150595Y-103954724D01*
X174474724Y-105630595D01*
X174433847Y-105657909D01*
X174385629Y-105667500D01*
X174112500Y-105667500D01*
X174049500Y-105650619D01*
X174003381Y-105604500D01*
X173986500Y-105541500D01*
X173986500Y-105271867D01*
X174000737Y-105213686D01*
X174040230Y-105168654D01*
X174072301Y-105146197D01*
X174234195Y-104984303D01*
X174234194Y-104984303D01*
X174234198Y-104984300D01*
X174365523Y-104796749D01*
X174462284Y-104589243D01*
X174521543Y-104368087D01*
X174541498Y-104140000D01*
X174521543Y-103911913D01*
X174462284Y-103690757D01*
X174365523Y-103483251D01*
X174315709Y-103412110D01*
X174234195Y-103295696D01*
X174072301Y-103133802D01*
X174040230Y-103111346D01*
X174000737Y-103066314D01*
X173986500Y-103008133D01*
X173986500Y-102350867D01*
X174000737Y-102292686D01*
X174040230Y-102247654D01*
X174055486Y-102236970D01*
X174072300Y-102225198D01*
X174234198Y-102063300D01*
X174365523Y-101875749D01*
X174462284Y-101668243D01*
X174521543Y-101447087D01*
X174541498Y-101219000D01*
X174521543Y-100990913D01*
X174462284Y-100769757D01*
X174434885Y-100711000D01*
X174365522Y-100562249D01*
X174277817Y-100436995D01*
X174234198Y-100374700D01*
X174234197Y-100374699D01*
X174234195Y-100374696D01*
X174072303Y-100212804D01*
X173884750Y-100081477D01*
X173677243Y-99984715D01*
X173456087Y-99925457D01*
X173426740Y-99922889D01*
X173361019Y-99897332D01*
X173319322Y-99840464D01*
X173314710Y-99770098D01*
X173348626Y-99708276D01*
X176312407Y-96744495D01*
X176370569Y-96711448D01*
X176437452Y-96712830D01*
X176494198Y-96748252D01*
X176622760Y-96887906D01*
X176622762Y-96887908D01*
X176721899Y-96965070D01*
X176800424Y-97026189D01*
X176833682Y-97044187D01*
X176881951Y-97090500D01*
X176899711Y-97154997D01*
X176881953Y-97219494D01*
X176833683Y-97265811D01*
X176800423Y-97283810D01*
X176622762Y-97422091D01*
X176470278Y-97587731D01*
X176347139Y-97776209D01*
X176256702Y-97982388D01*
X176201437Y-98200627D01*
X176201436Y-98200632D01*
X176182844Y-98425000D01*
X176201436Y-98649368D01*
X176201436Y-98649371D01*
X176201437Y-98649372D01*
X176256702Y-98867611D01*
X176347139Y-99073790D01*
X176470278Y-99262268D01*
X176622762Y-99427908D01*
X176800422Y-99566188D01*
X176800424Y-99566189D01*
X176834205Y-99584470D01*
X176882477Y-99630785D01*
X176900237Y-99695282D01*
X176882479Y-99759779D01*
X176834209Y-99806096D01*
X176800702Y-99824229D01*
X176623096Y-99962466D01*
X176470678Y-100128037D01*
X176347580Y-100316451D01*
X176257177Y-100522548D01*
X176209455Y-100710999D01*
X176209456Y-100711000D01*
X178882544Y-100711000D01*
X178882544Y-100710999D01*
X178834822Y-100522548D01*
X178744419Y-100316451D01*
X178621321Y-100128037D01*
X178468903Y-99962466D01*
X178291299Y-99824231D01*
X178257791Y-99806097D01*
X178209520Y-99759780D01*
X178191762Y-99695282D01*
X178209522Y-99630785D01*
X178257791Y-99584471D01*
X178291576Y-99566189D01*
X178469240Y-99427906D01*
X178621722Y-99262268D01*
X178744860Y-99073791D01*
X178835296Y-98867616D01*
X178890564Y-98649368D01*
X178909156Y-98425000D01*
X178890564Y-98200632D01*
X178835296Y-97982384D01*
X178744860Y-97776209D01*
X178621722Y-97587732D01*
X178469240Y-97422094D01*
X178469239Y-97422093D01*
X178469237Y-97422091D01*
X178291578Y-97283812D01*
X178258317Y-97265812D01*
X178210046Y-97219495D01*
X178192288Y-97154997D01*
X178210049Y-97090499D01*
X178258317Y-97044187D01*
X178291576Y-97026189D01*
X178469240Y-96887906D01*
X178621722Y-96722268D01*
X178744860Y-96533791D01*
X178835296Y-96327616D01*
X178890564Y-96109368D01*
X178909156Y-95885000D01*
X178890564Y-95660632D01*
X178835296Y-95442384D01*
X178744860Y-95236209D01*
X178621722Y-95047732D01*
X178469240Y-94882094D01*
X178469239Y-94882093D01*
X178469237Y-94882091D01*
X178291579Y-94743813D01*
X178291577Y-94743812D01*
X178291576Y-94743811D01*
X178258317Y-94725812D01*
X178210047Y-94679498D01*
X178192288Y-94615000D01*
X178210047Y-94550502D01*
X178258317Y-94504187D01*
X178291576Y-94486189D01*
X178469240Y-94347906D01*
X178621722Y-94182268D01*
X178744860Y-93993791D01*
X178835296Y-93787616D01*
X178890564Y-93569368D01*
X178909156Y-93345000D01*
X178890564Y-93120632D01*
X178835296Y-92902384D01*
X178744860Y-92696209D01*
X178621722Y-92507732D01*
X178469240Y-92342094D01*
X178469239Y-92342093D01*
X178469237Y-92342091D01*
X178291578Y-92203812D01*
X178093573Y-92096657D01*
X177949427Y-92047172D01*
X177880635Y-92023556D01*
X177658569Y-91986500D01*
X177433431Y-91986500D01*
X177211365Y-92023556D01*
X177211362Y-92023556D01*
X177211362Y-92023557D01*
X176998426Y-92096657D01*
X176907447Y-92145893D01*
X176841467Y-92181599D01*
X176778896Y-92196758D01*
X176717003Y-92179026D01*
X176671949Y-92133032D01*
X176655500Y-92070785D01*
X176655500Y-90588500D01*
X176672381Y-90525500D01*
X176718500Y-90479381D01*
X176781500Y-90462500D01*
X176870638Y-90462500D01*
X176931201Y-90455989D01*
X177068204Y-90404889D01*
X177185261Y-90317261D01*
X177272889Y-90200204D01*
X177323989Y-90063201D01*
X177330500Y-90002638D01*
X177330500Y-88305362D01*
X177323989Y-88244799D01*
X177272889Y-88107796D01*
X177272888Y-88107794D01*
X177185261Y-87990738D01*
X177068205Y-87903111D01*
X176999702Y-87877561D01*
X176931201Y-87852011D01*
X176870638Y-87845500D01*
X175173362Y-87845500D01*
X175112799Y-87852011D01*
X174975794Y-87903111D01*
X174858738Y-87990738D01*
X174771111Y-88107794D01*
X174720011Y-88244800D01*
X174719000Y-88254202D01*
X174698291Y-88311025D01*
X174653490Y-88351653D01*
X174594919Y-88366724D01*
X174536072Y-88352768D01*
X174490508Y-88312999D01*
X174488195Y-88309696D01*
X174326303Y-88147804D01*
X174304158Y-88132297D01*
X174169227Y-88037818D01*
X174129737Y-87992787D01*
X174115500Y-87934607D01*
X174115500Y-85527309D01*
X174134303Y-85461091D01*
X174185100Y-85414637D01*
X174252731Y-85401811D01*
X174317009Y-85426441D01*
X174417794Y-85501888D01*
X174417795Y-85501888D01*
X174417796Y-85501889D01*
X174554799Y-85552989D01*
X174615362Y-85559500D01*
X176412638Y-85559500D01*
X176473201Y-85552989D01*
X176610204Y-85501889D01*
X176727261Y-85414261D01*
X176814889Y-85297204D01*
X176865989Y-85160201D01*
X176872500Y-85099638D01*
X176872500Y-83302362D01*
X176865989Y-83241799D01*
X176814889Y-83104796D01*
X176814888Y-83104794D01*
X176727261Y-82987738D01*
X176610205Y-82900111D01*
X176541702Y-82874561D01*
X176473201Y-82849011D01*
X176412638Y-82842500D01*
X175103595Y-82842500D01*
X175055377Y-82832909D01*
X175014500Y-82805595D01*
X174624244Y-82415339D01*
X174611171Y-82399021D01*
X174559349Y-82350357D01*
X174556537Y-82347632D01*
X174536770Y-82327865D01*
X174533575Y-82325386D01*
X174524553Y-82317681D01*
X174492320Y-82287413D01*
X174474567Y-82277653D01*
X174458041Y-82266797D01*
X174442041Y-82254386D01*
X174401466Y-82236828D01*
X174390804Y-82231604D01*
X174352063Y-82210305D01*
X174338313Y-82206775D01*
X174332437Y-82205266D01*
X174313731Y-82198862D01*
X174295145Y-82190819D01*
X174251475Y-82183902D01*
X174239853Y-82181495D01*
X174230050Y-82178978D01*
X174197030Y-82170500D01*
X174197029Y-82170500D01*
X174176776Y-82170500D01*
X174157066Y-82168949D01*
X174137057Y-82165779D01*
X174093039Y-82169941D01*
X174081181Y-82170500D01*
X133814849Y-82170500D01*
X133794064Y-82168205D01*
X133723033Y-82170438D01*
X133719075Y-82170500D01*
X133691140Y-82170500D01*
X133687114Y-82171008D01*
X133675302Y-82171937D01*
X133631110Y-82173326D01*
X133611657Y-82178978D01*
X133592303Y-82182986D01*
X133572204Y-82185525D01*
X133531096Y-82201801D01*
X133519870Y-82205644D01*
X133477408Y-82217981D01*
X133459964Y-82228297D01*
X133442215Y-82236991D01*
X133423384Y-82244446D01*
X133387625Y-82270427D01*
X133377706Y-82276943D01*
X133339636Y-82299457D01*
X133325309Y-82313785D01*
X133310279Y-82326622D01*
X133293894Y-82338526D01*
X133265711Y-82372593D01*
X133257723Y-82381370D01*
X132791922Y-82847171D01*
X132731235Y-82880832D01*
X132679452Y-82878158D01*
X132678932Y-82881275D01*
X132668639Y-82879557D01*
X132668635Y-82879556D01*
X132446569Y-82842500D01*
X132221431Y-82842500D01*
X131999365Y-82879556D01*
X131999362Y-82879556D01*
X131999362Y-82879557D01*
X131786426Y-82952657D01*
X131588421Y-83059812D01*
X131410762Y-83198091D01*
X131258278Y-83363731D01*
X131135139Y-83552209D01*
X131044702Y-83758388D01*
X130989437Y-83976627D01*
X130989436Y-83976632D01*
X130970844Y-84201000D01*
X130989436Y-84425368D01*
X130989436Y-84425371D01*
X130989437Y-84425372D01*
X131044702Y-84643611D01*
X131135139Y-84849790D01*
X131189500Y-84932995D01*
X131258278Y-85038268D01*
X131370525Y-85160200D01*
X131410762Y-85203908D01*
X131530629Y-85297205D01*
X131588424Y-85342189D01*
X131786426Y-85449342D01*
X131999365Y-85522444D01*
X132221431Y-85559500D01*
X132221434Y-85559500D01*
X132336500Y-85559500D01*
X132399500Y-85576381D01*
X132445619Y-85622500D01*
X132462500Y-85685500D01*
X132462500Y-87719500D01*
X132445619Y-87782500D01*
X132399500Y-87828619D01*
X132336500Y-87845500D01*
X130977362Y-87845500D01*
X130916799Y-87852011D01*
X130779794Y-87903111D01*
X130662738Y-87990738D01*
X130575111Y-88107794D01*
X130524011Y-88244799D01*
X130517500Y-88305362D01*
X130517500Y-90002638D01*
X130524011Y-90063200D01*
X130575111Y-90200205D01*
X130662738Y-90317261D01*
X130779794Y-90404888D01*
X130779795Y-90404888D01*
X130779796Y-90404889D01*
X130916799Y-90455989D01*
X130977362Y-90462500D01*
X132563882Y-90462500D01*
X132606563Y-90469949D01*
X132644197Y-90491415D01*
X132664598Y-90508292D01*
X132673378Y-90516282D01*
X134245831Y-92088735D01*
X134279749Y-92150558D01*
X134275137Y-92220924D01*
X134233441Y-92277792D01*
X134167719Y-92303350D01*
X134138005Y-92305949D01*
X133916929Y-92365186D01*
X133709501Y-92461912D01*
X133522018Y-92593189D01*
X133360189Y-92755018D01*
X133228912Y-92942501D01*
X133132186Y-93149929D01*
X133079917Y-93345000D01*
X134494000Y-93345000D01*
X134557000Y-93361881D01*
X134603119Y-93408000D01*
X134620000Y-93471000D01*
X134620000Y-94885082D01*
X134815073Y-94832812D01*
X134823249Y-94829000D01*
X134884740Y-94817464D01*
X134944199Y-94836926D01*
X134986967Y-94882589D01*
X135002500Y-94943194D01*
X135002500Y-96337406D01*
X134988767Y-96394609D01*
X134950561Y-96439342D01*
X134896211Y-96461855D01*
X134837564Y-96457239D01*
X134787405Y-96426501D01*
X133331404Y-94970500D01*
X132213905Y-93853000D01*
X133079918Y-93853000D01*
X133132186Y-94048070D01*
X133228912Y-94255498D01*
X133360189Y-94442981D01*
X133522018Y-94604810D01*
X133709501Y-94736087D01*
X133916929Y-94832813D01*
X134112000Y-94885082D01*
X134112000Y-93853000D01*
X133079918Y-93853000D01*
X132213905Y-93853000D01*
X131694134Y-93333229D01*
X131668912Y-93297121D01*
X131657660Y-93254543D01*
X131646564Y-93120632D01*
X131591296Y-92902384D01*
X131500860Y-92696209D01*
X131377722Y-92507732D01*
X131225240Y-92342094D01*
X131225239Y-92342093D01*
X131225237Y-92342091D01*
X131047578Y-92203812D01*
X130849573Y-92096657D01*
X130705427Y-92047172D01*
X130636635Y-92023556D01*
X130414569Y-91986500D01*
X130189431Y-91986500D01*
X129967365Y-92023556D01*
X129967362Y-92023556D01*
X129967362Y-92023557D01*
X129754426Y-92096657D01*
X129556421Y-92203812D01*
X129378762Y-92342091D01*
X129226278Y-92507731D01*
X129103139Y-92696209D01*
X129012702Y-92902388D01*
X128979254Y-93034474D01*
X128957436Y-93120632D01*
X128938844Y-93345000D01*
X128957436Y-93569368D01*
X128957436Y-93569371D01*
X128957437Y-93569372D01*
X129012702Y-93787611D01*
X129103139Y-93993790D01*
X129226278Y-94182268D01*
X129378762Y-94347908D01*
X129556418Y-94486185D01*
X129556420Y-94486186D01*
X129556424Y-94486189D01*
X129589682Y-94504187D01*
X129637952Y-94550503D01*
X129655711Y-94615000D01*
X129637952Y-94679497D01*
X129589682Y-94725812D01*
X129570697Y-94736087D01*
X129556418Y-94743814D01*
X129378762Y-94882091D01*
X129226278Y-95047731D01*
X129103139Y-95236209D01*
X129012702Y-95442388D01*
X128957437Y-95660627D01*
X128957436Y-95660632D01*
X128938844Y-95885000D01*
X128957436Y-96109368D01*
X128957436Y-96109371D01*
X128957437Y-96109372D01*
X129012702Y-96327611D01*
X129103139Y-96533790D01*
X129226278Y-96722268D01*
X129378762Y-96887908D01*
X129477899Y-96965070D01*
X129556424Y-97026189D01*
X129589682Y-97044187D01*
X129637951Y-97090500D01*
X129655711Y-97154997D01*
X129637953Y-97219494D01*
X129589683Y-97265811D01*
X129556423Y-97283810D01*
X129378762Y-97422091D01*
X129226278Y-97587731D01*
X129103139Y-97776209D01*
X129012702Y-97982388D01*
X128957437Y-98200627D01*
X128957436Y-98200632D01*
X128938844Y-98425000D01*
X128016000Y-98425000D01*
X128016000Y-82381157D01*
X128029209Y-82324994D01*
X128066068Y-82280607D01*
X128118848Y-82257302D01*
X128176482Y-82259967D01*
X128226884Y-82288041D01*
X128309674Y-82363514D01*
X128309676Y-82363515D01*
X128309677Y-82363516D01*
X128497727Y-82479952D01*
X128497731Y-82479953D01*
X128497732Y-82479954D01*
X128703984Y-82559857D01*
X128921406Y-82600500D01*
X129142592Y-82600500D01*
X129142594Y-82600500D01*
X129360016Y-82559857D01*
X129566268Y-82479954D01*
X129566269Y-82479952D01*
X129566272Y-82479952D01*
X129700273Y-82396982D01*
X129754326Y-82363514D01*
X129917786Y-82214500D01*
X130051081Y-82037988D01*
X130149673Y-81839989D01*
X130210204Y-81627245D01*
X130230613Y-81407000D01*
X130210204Y-81186755D01*
X130149673Y-80974011D01*
X130078897Y-80831873D01*
X130051082Y-80776013D01*
X129912826Y-80592932D01*
X129887913Y-80528626D01*
X129900585Y-80460837D01*
X129947046Y-80409873D01*
X130013376Y-80391000D01*
X177834624Y-80391000D01*
X177900954Y-80409873D01*
G37*
%TD.AperFunction*%
%TD*%
M02*
