%TF.GenerationSoftware,KiCad,Pcbnew,7.0.1*%
%TF.CreationDate,2023-05-21T17:19:05+09:00*%
%TF.ProjectId,joystick_74hc165_input_1p,6a6f7973-7469-4636-9b5f-373468633136,2*%
%TF.SameCoordinates,Original*%
%TF.FileFunction,Legend,Top*%
%TF.FilePolarity,Positive*%
%FSLAX46Y46*%
G04 Gerber Fmt 4.6, Leading zero omitted, Abs format (unit mm)*
G04 Created by KiCad (PCBNEW 7.0.1) date 2023-05-21 17:19:05*
%MOMM*%
%LPD*%
G01*
G04 APERTURE LIST*
%ADD10C,0.150000*%
%ADD11C,0.100000*%
%ADD12C,0.175000*%
%ADD13C,0.200000*%
%ADD14C,0.120000*%
G04 APERTURE END LIST*
D10*
X146262695Y-107776819D02*
X146262695Y-106776819D01*
X146691266Y-107776819D02*
X146691266Y-107253009D01*
X146691266Y-107253009D02*
X146643647Y-107157771D01*
X146643647Y-107157771D02*
X146548409Y-107110152D01*
X146548409Y-107110152D02*
X146405552Y-107110152D01*
X146405552Y-107110152D02*
X146310314Y-107157771D01*
X146310314Y-107157771D02*
X146262695Y-107205390D01*
X147024600Y-107110152D02*
X147405552Y-107110152D01*
X147167457Y-106776819D02*
X147167457Y-107633961D01*
X147167457Y-107633961D02*
X147215076Y-107729200D01*
X147215076Y-107729200D02*
X147310314Y-107776819D01*
X147310314Y-107776819D02*
X147405552Y-107776819D01*
X147596029Y-107110152D02*
X147976981Y-107110152D01*
X147738886Y-106776819D02*
X147738886Y-107633961D01*
X147738886Y-107633961D02*
X147786505Y-107729200D01*
X147786505Y-107729200D02*
X147881743Y-107776819D01*
X147881743Y-107776819D02*
X147976981Y-107776819D01*
X148310315Y-107110152D02*
X148310315Y-108110152D01*
X148310315Y-107157771D02*
X148405553Y-107110152D01*
X148405553Y-107110152D02*
X148596029Y-107110152D01*
X148596029Y-107110152D02*
X148691267Y-107157771D01*
X148691267Y-107157771D02*
X148738886Y-107205390D01*
X148738886Y-107205390D02*
X148786505Y-107300628D01*
X148786505Y-107300628D02*
X148786505Y-107586342D01*
X148786505Y-107586342D02*
X148738886Y-107681580D01*
X148738886Y-107681580D02*
X148691267Y-107729200D01*
X148691267Y-107729200D02*
X148596029Y-107776819D01*
X148596029Y-107776819D02*
X148405553Y-107776819D01*
X148405553Y-107776819D02*
X148310315Y-107729200D01*
X149167458Y-107729200D02*
X149262696Y-107776819D01*
X149262696Y-107776819D02*
X149453172Y-107776819D01*
X149453172Y-107776819D02*
X149548410Y-107729200D01*
X149548410Y-107729200D02*
X149596029Y-107633961D01*
X149596029Y-107633961D02*
X149596029Y-107586342D01*
X149596029Y-107586342D02*
X149548410Y-107491104D01*
X149548410Y-107491104D02*
X149453172Y-107443485D01*
X149453172Y-107443485D02*
X149310315Y-107443485D01*
X149310315Y-107443485D02*
X149215077Y-107395866D01*
X149215077Y-107395866D02*
X149167458Y-107300628D01*
X149167458Y-107300628D02*
X149167458Y-107253009D01*
X149167458Y-107253009D02*
X149215077Y-107157771D01*
X149215077Y-107157771D02*
X149310315Y-107110152D01*
X149310315Y-107110152D02*
X149453172Y-107110152D01*
X149453172Y-107110152D02*
X149548410Y-107157771D01*
X150024601Y-107681580D02*
X150072220Y-107729200D01*
X150072220Y-107729200D02*
X150024601Y-107776819D01*
X150024601Y-107776819D02*
X149976982Y-107729200D01*
X149976982Y-107729200D02*
X150024601Y-107681580D01*
X150024601Y-107681580D02*
X150024601Y-107776819D01*
X150024601Y-107157771D02*
X150072220Y-107205390D01*
X150072220Y-107205390D02*
X150024601Y-107253009D01*
X150024601Y-107253009D02*
X149976982Y-107205390D01*
X149976982Y-107205390D02*
X150024601Y-107157771D01*
X150024601Y-107157771D02*
X150024601Y-107253009D01*
X151215076Y-106729200D02*
X150357934Y-108014914D01*
X152262695Y-106729200D02*
X151405553Y-108014914D01*
X153024600Y-107110152D02*
X153024600Y-107919676D01*
X153024600Y-107919676D02*
X152976981Y-108014914D01*
X152976981Y-108014914D02*
X152929362Y-108062533D01*
X152929362Y-108062533D02*
X152834124Y-108110152D01*
X152834124Y-108110152D02*
X152691267Y-108110152D01*
X152691267Y-108110152D02*
X152596029Y-108062533D01*
X153024600Y-107729200D02*
X152929362Y-107776819D01*
X152929362Y-107776819D02*
X152738886Y-107776819D01*
X152738886Y-107776819D02*
X152643648Y-107729200D01*
X152643648Y-107729200D02*
X152596029Y-107681580D01*
X152596029Y-107681580D02*
X152548410Y-107586342D01*
X152548410Y-107586342D02*
X152548410Y-107300628D01*
X152548410Y-107300628D02*
X152596029Y-107205390D01*
X152596029Y-107205390D02*
X152643648Y-107157771D01*
X152643648Y-107157771D02*
X152738886Y-107110152D01*
X152738886Y-107110152D02*
X152929362Y-107110152D01*
X152929362Y-107110152D02*
X153024600Y-107157771D01*
X153500791Y-107776819D02*
X153500791Y-107110152D01*
X153500791Y-106776819D02*
X153453172Y-106824438D01*
X153453172Y-106824438D02*
X153500791Y-106872057D01*
X153500791Y-106872057D02*
X153548410Y-106824438D01*
X153548410Y-106824438D02*
X153500791Y-106776819D01*
X153500791Y-106776819D02*
X153500791Y-106872057D01*
X153834124Y-107110152D02*
X154215076Y-107110152D01*
X153976981Y-106776819D02*
X153976981Y-107633961D01*
X153976981Y-107633961D02*
X154024600Y-107729200D01*
X154024600Y-107729200D02*
X154119838Y-107776819D01*
X154119838Y-107776819D02*
X154215076Y-107776819D01*
X154548410Y-107776819D02*
X154548410Y-106776819D01*
X154976981Y-107776819D02*
X154976981Y-107253009D01*
X154976981Y-107253009D02*
X154929362Y-107157771D01*
X154929362Y-107157771D02*
X154834124Y-107110152D01*
X154834124Y-107110152D02*
X154691267Y-107110152D01*
X154691267Y-107110152D02*
X154596029Y-107157771D01*
X154596029Y-107157771D02*
X154548410Y-107205390D01*
X155881743Y-107110152D02*
X155881743Y-107776819D01*
X155453172Y-107110152D02*
X155453172Y-107633961D01*
X155453172Y-107633961D02*
X155500791Y-107729200D01*
X155500791Y-107729200D02*
X155596029Y-107776819D01*
X155596029Y-107776819D02*
X155738886Y-107776819D01*
X155738886Y-107776819D02*
X155834124Y-107729200D01*
X155834124Y-107729200D02*
X155881743Y-107681580D01*
X156357934Y-107776819D02*
X156357934Y-106776819D01*
X156357934Y-107157771D02*
X156453172Y-107110152D01*
X156453172Y-107110152D02*
X156643648Y-107110152D01*
X156643648Y-107110152D02*
X156738886Y-107157771D01*
X156738886Y-107157771D02*
X156786505Y-107205390D01*
X156786505Y-107205390D02*
X156834124Y-107300628D01*
X156834124Y-107300628D02*
X156834124Y-107586342D01*
X156834124Y-107586342D02*
X156786505Y-107681580D01*
X156786505Y-107681580D02*
X156738886Y-107729200D01*
X156738886Y-107729200D02*
X156643648Y-107776819D01*
X156643648Y-107776819D02*
X156453172Y-107776819D01*
X156453172Y-107776819D02*
X156357934Y-107729200D01*
X157262696Y-107681580D02*
X157310315Y-107729200D01*
X157310315Y-107729200D02*
X157262696Y-107776819D01*
X157262696Y-107776819D02*
X157215077Y-107729200D01*
X157215077Y-107729200D02*
X157262696Y-107681580D01*
X157262696Y-107681580D02*
X157262696Y-107776819D01*
X158167457Y-107729200D02*
X158072219Y-107776819D01*
X158072219Y-107776819D02*
X157881743Y-107776819D01*
X157881743Y-107776819D02*
X157786505Y-107729200D01*
X157786505Y-107729200D02*
X157738886Y-107681580D01*
X157738886Y-107681580D02*
X157691267Y-107586342D01*
X157691267Y-107586342D02*
X157691267Y-107300628D01*
X157691267Y-107300628D02*
X157738886Y-107205390D01*
X157738886Y-107205390D02*
X157786505Y-107157771D01*
X157786505Y-107157771D02*
X157881743Y-107110152D01*
X157881743Y-107110152D02*
X158072219Y-107110152D01*
X158072219Y-107110152D02*
X158167457Y-107157771D01*
X158738886Y-107776819D02*
X158643648Y-107729200D01*
X158643648Y-107729200D02*
X158596029Y-107681580D01*
X158596029Y-107681580D02*
X158548410Y-107586342D01*
X158548410Y-107586342D02*
X158548410Y-107300628D01*
X158548410Y-107300628D02*
X158596029Y-107205390D01*
X158596029Y-107205390D02*
X158643648Y-107157771D01*
X158643648Y-107157771D02*
X158738886Y-107110152D01*
X158738886Y-107110152D02*
X158881743Y-107110152D01*
X158881743Y-107110152D02*
X158976981Y-107157771D01*
X158976981Y-107157771D02*
X159024600Y-107205390D01*
X159024600Y-107205390D02*
X159072219Y-107300628D01*
X159072219Y-107300628D02*
X159072219Y-107586342D01*
X159072219Y-107586342D02*
X159024600Y-107681580D01*
X159024600Y-107681580D02*
X158976981Y-107729200D01*
X158976981Y-107729200D02*
X158881743Y-107776819D01*
X158881743Y-107776819D02*
X158738886Y-107776819D01*
X159500791Y-107776819D02*
X159500791Y-107110152D01*
X159500791Y-107205390D02*
X159548410Y-107157771D01*
X159548410Y-107157771D02*
X159643648Y-107110152D01*
X159643648Y-107110152D02*
X159786505Y-107110152D01*
X159786505Y-107110152D02*
X159881743Y-107157771D01*
X159881743Y-107157771D02*
X159929362Y-107253009D01*
X159929362Y-107253009D02*
X159929362Y-107776819D01*
X159929362Y-107253009D02*
X159976981Y-107157771D01*
X159976981Y-107157771D02*
X160072219Y-107110152D01*
X160072219Y-107110152D02*
X160215076Y-107110152D01*
X160215076Y-107110152D02*
X160310315Y-107157771D01*
X160310315Y-107157771D02*
X160357934Y-107253009D01*
X160357934Y-107253009D02*
X160357934Y-107776819D01*
X161548409Y-106729200D02*
X160691267Y-108014914D01*
X162310314Y-107776819D02*
X162310314Y-107253009D01*
X162310314Y-107253009D02*
X162262695Y-107157771D01*
X162262695Y-107157771D02*
X162167457Y-107110152D01*
X162167457Y-107110152D02*
X161976981Y-107110152D01*
X161976981Y-107110152D02*
X161881743Y-107157771D01*
X162310314Y-107729200D02*
X162215076Y-107776819D01*
X162215076Y-107776819D02*
X161976981Y-107776819D01*
X161976981Y-107776819D02*
X161881743Y-107729200D01*
X161881743Y-107729200D02*
X161834124Y-107633961D01*
X161834124Y-107633961D02*
X161834124Y-107538723D01*
X161834124Y-107538723D02*
X161881743Y-107443485D01*
X161881743Y-107443485D02*
X161976981Y-107395866D01*
X161976981Y-107395866D02*
X162215076Y-107395866D01*
X162215076Y-107395866D02*
X162310314Y-107348247D01*
X162786505Y-107776819D02*
X162786505Y-107110152D01*
X162786505Y-107205390D02*
X162834124Y-107157771D01*
X162834124Y-107157771D02*
X162929362Y-107110152D01*
X162929362Y-107110152D02*
X163072219Y-107110152D01*
X163072219Y-107110152D02*
X163167457Y-107157771D01*
X163167457Y-107157771D02*
X163215076Y-107253009D01*
X163215076Y-107253009D02*
X163215076Y-107776819D01*
X163215076Y-107253009D02*
X163262695Y-107157771D01*
X163262695Y-107157771D02*
X163357933Y-107110152D01*
X163357933Y-107110152D02*
X163500790Y-107110152D01*
X163500790Y-107110152D02*
X163596029Y-107157771D01*
X163596029Y-107157771D02*
X163643648Y-107253009D01*
X163643648Y-107253009D02*
X163643648Y-107776819D01*
X164262695Y-107776819D02*
X164167457Y-107729200D01*
X164167457Y-107729200D02*
X164119838Y-107681580D01*
X164119838Y-107681580D02*
X164072219Y-107586342D01*
X164072219Y-107586342D02*
X164072219Y-107300628D01*
X164072219Y-107300628D02*
X164119838Y-107205390D01*
X164119838Y-107205390D02*
X164167457Y-107157771D01*
X164167457Y-107157771D02*
X164262695Y-107110152D01*
X164262695Y-107110152D02*
X164405552Y-107110152D01*
X164405552Y-107110152D02*
X164500790Y-107157771D01*
X164500790Y-107157771D02*
X164548409Y-107205390D01*
X164548409Y-107205390D02*
X164596028Y-107300628D01*
X164596028Y-107300628D02*
X164596028Y-107586342D01*
X164596028Y-107586342D02*
X164548409Y-107681580D01*
X164548409Y-107681580D02*
X164500790Y-107729200D01*
X164500790Y-107729200D02*
X164405552Y-107776819D01*
X164405552Y-107776819D02*
X164262695Y-107776819D01*
X164976981Y-107729200D02*
X165072219Y-107776819D01*
X165072219Y-107776819D02*
X165262695Y-107776819D01*
X165262695Y-107776819D02*
X165357933Y-107729200D01*
X165357933Y-107729200D02*
X165405552Y-107633961D01*
X165405552Y-107633961D02*
X165405552Y-107586342D01*
X165405552Y-107586342D02*
X165357933Y-107491104D01*
X165357933Y-107491104D02*
X165262695Y-107443485D01*
X165262695Y-107443485D02*
X165119838Y-107443485D01*
X165119838Y-107443485D02*
X165024600Y-107395866D01*
X165024600Y-107395866D02*
X164976981Y-107300628D01*
X164976981Y-107300628D02*
X164976981Y-107253009D01*
X164976981Y-107253009D02*
X165024600Y-107157771D01*
X165024600Y-107157771D02*
X165119838Y-107110152D01*
X165119838Y-107110152D02*
X165262695Y-107110152D01*
X165262695Y-107110152D02*
X165357933Y-107157771D01*
X166262695Y-107110152D02*
X166262695Y-107776819D01*
X166024600Y-106729200D02*
X165786505Y-107443485D01*
X165786505Y-107443485D02*
X166405552Y-107443485D01*
X166738886Y-106872057D02*
X166786505Y-106824438D01*
X166786505Y-106824438D02*
X166881743Y-106776819D01*
X166881743Y-106776819D02*
X167119838Y-106776819D01*
X167119838Y-106776819D02*
X167215076Y-106824438D01*
X167215076Y-106824438D02*
X167262695Y-106872057D01*
X167262695Y-106872057D02*
X167310314Y-106967295D01*
X167310314Y-106967295D02*
X167310314Y-107062533D01*
X167310314Y-107062533D02*
X167262695Y-107205390D01*
X167262695Y-107205390D02*
X166691267Y-107776819D01*
X166691267Y-107776819D02*
X167310314Y-107776819D01*
X168453171Y-106729200D02*
X167596029Y-108014914D01*
X169215076Y-107776819D02*
X169215076Y-107253009D01*
X169215076Y-107253009D02*
X169167457Y-107157771D01*
X169167457Y-107157771D02*
X169072219Y-107110152D01*
X169072219Y-107110152D02*
X168881743Y-107110152D01*
X168881743Y-107110152D02*
X168786505Y-107157771D01*
X169215076Y-107729200D02*
X169119838Y-107776819D01*
X169119838Y-107776819D02*
X168881743Y-107776819D01*
X168881743Y-107776819D02*
X168786505Y-107729200D01*
X168786505Y-107729200D02*
X168738886Y-107633961D01*
X168738886Y-107633961D02*
X168738886Y-107538723D01*
X168738886Y-107538723D02*
X168786505Y-107443485D01*
X168786505Y-107443485D02*
X168881743Y-107395866D01*
X168881743Y-107395866D02*
X169119838Y-107395866D01*
X169119838Y-107395866D02*
X169215076Y-107348247D01*
X169691267Y-107776819D02*
X169691267Y-107110152D01*
X169691267Y-107205390D02*
X169738886Y-107157771D01*
X169738886Y-107157771D02*
X169834124Y-107110152D01*
X169834124Y-107110152D02*
X169976981Y-107110152D01*
X169976981Y-107110152D02*
X170072219Y-107157771D01*
X170072219Y-107157771D02*
X170119838Y-107253009D01*
X170119838Y-107253009D02*
X170119838Y-107776819D01*
X170119838Y-107253009D02*
X170167457Y-107157771D01*
X170167457Y-107157771D02*
X170262695Y-107110152D01*
X170262695Y-107110152D02*
X170405552Y-107110152D01*
X170405552Y-107110152D02*
X170500791Y-107157771D01*
X170500791Y-107157771D02*
X170548410Y-107253009D01*
X170548410Y-107253009D02*
X170548410Y-107776819D01*
X170786505Y-107872057D02*
X171548409Y-107872057D01*
X171786505Y-107110152D02*
X171786505Y-107967295D01*
X171786505Y-107967295D02*
X171738886Y-108062533D01*
X171738886Y-108062533D02*
X171643648Y-108110152D01*
X171643648Y-108110152D02*
X171596029Y-108110152D01*
X171786505Y-106776819D02*
X171738886Y-106824438D01*
X171738886Y-106824438D02*
X171786505Y-106872057D01*
X171786505Y-106872057D02*
X171834124Y-106824438D01*
X171834124Y-106824438D02*
X171786505Y-106776819D01*
X171786505Y-106776819D02*
X171786505Y-106872057D01*
X172405552Y-107776819D02*
X172310314Y-107729200D01*
X172310314Y-107729200D02*
X172262695Y-107681580D01*
X172262695Y-107681580D02*
X172215076Y-107586342D01*
X172215076Y-107586342D02*
X172215076Y-107300628D01*
X172215076Y-107300628D02*
X172262695Y-107205390D01*
X172262695Y-107205390D02*
X172310314Y-107157771D01*
X172310314Y-107157771D02*
X172405552Y-107110152D01*
X172405552Y-107110152D02*
X172548409Y-107110152D01*
X172548409Y-107110152D02*
X172643647Y-107157771D01*
X172643647Y-107157771D02*
X172691266Y-107205390D01*
X172691266Y-107205390D02*
X172738885Y-107300628D01*
X172738885Y-107300628D02*
X172738885Y-107586342D01*
X172738885Y-107586342D02*
X172691266Y-107681580D01*
X172691266Y-107681580D02*
X172643647Y-107729200D01*
X172643647Y-107729200D02*
X172548409Y-107776819D01*
X172548409Y-107776819D02*
X172405552Y-107776819D01*
X173072219Y-107110152D02*
X173310314Y-107776819D01*
X173548409Y-107110152D02*
X173310314Y-107776819D01*
X173310314Y-107776819D02*
X173215076Y-108014914D01*
X173215076Y-108014914D02*
X173167457Y-108062533D01*
X173167457Y-108062533D02*
X173072219Y-108110152D01*
X173929362Y-107776819D02*
X173929362Y-107110152D01*
X173929362Y-106776819D02*
X173881743Y-106824438D01*
X173881743Y-106824438D02*
X173929362Y-106872057D01*
X173929362Y-106872057D02*
X173976981Y-106824438D01*
X173976981Y-106824438D02*
X173929362Y-106776819D01*
X173929362Y-106776819D02*
X173929362Y-106872057D01*
X174405552Y-107110152D02*
X174405552Y-107776819D01*
X174405552Y-107205390D02*
X174453171Y-107157771D01*
X174453171Y-107157771D02*
X174548409Y-107110152D01*
X174548409Y-107110152D02*
X174691266Y-107110152D01*
X174691266Y-107110152D02*
X174786504Y-107157771D01*
X174786504Y-107157771D02*
X174834123Y-107253009D01*
X174834123Y-107253009D02*
X174834123Y-107776819D01*
D11*
X128147833Y-104074997D02*
X128847833Y-103841664D01*
X128847833Y-103841664D02*
X128147833Y-103608330D01*
X128181166Y-100874998D02*
X128147833Y-100941665D01*
X128147833Y-100941665D02*
X128147833Y-101041665D01*
X128147833Y-101041665D02*
X128181166Y-101141665D01*
X128181166Y-101141665D02*
X128247833Y-101208332D01*
X128247833Y-101208332D02*
X128314500Y-101241665D01*
X128314500Y-101241665D02*
X128447833Y-101274998D01*
X128447833Y-101274998D02*
X128547833Y-101274998D01*
X128547833Y-101274998D02*
X128681166Y-101241665D01*
X128681166Y-101241665D02*
X128747833Y-101208332D01*
X128747833Y-101208332D02*
X128814500Y-101141665D01*
X128814500Y-101141665D02*
X128847833Y-101041665D01*
X128847833Y-101041665D02*
X128847833Y-100974998D01*
X128847833Y-100974998D02*
X128814500Y-100874998D01*
X128814500Y-100874998D02*
X128781166Y-100841665D01*
X128781166Y-100841665D02*
X128547833Y-100841665D01*
X128547833Y-100841665D02*
X128547833Y-100974998D01*
X128847833Y-98608333D02*
X128847833Y-98941666D01*
X128847833Y-98941666D02*
X128147833Y-98941666D01*
X128847833Y-98374999D02*
X128147833Y-98374999D01*
X128147833Y-98374999D02*
X128147833Y-98208332D01*
X128147833Y-98208332D02*
X128181166Y-98108332D01*
X128181166Y-98108332D02*
X128247833Y-98041666D01*
X128247833Y-98041666D02*
X128314500Y-98008332D01*
X128314500Y-98008332D02*
X128447833Y-97974999D01*
X128447833Y-97974999D02*
X128547833Y-97974999D01*
X128547833Y-97974999D02*
X128681166Y-98008332D01*
X128681166Y-98008332D02*
X128747833Y-98041666D01*
X128747833Y-98041666D02*
X128814500Y-98108332D01*
X128814500Y-98108332D02*
X128847833Y-98208332D01*
X128847833Y-98208332D02*
X128847833Y-98374999D01*
X128781166Y-96208333D02*
X128814500Y-96241666D01*
X128814500Y-96241666D02*
X128847833Y-96341666D01*
X128847833Y-96341666D02*
X128847833Y-96408333D01*
X128847833Y-96408333D02*
X128814500Y-96508333D01*
X128814500Y-96508333D02*
X128747833Y-96575000D01*
X128747833Y-96575000D02*
X128681166Y-96608333D01*
X128681166Y-96608333D02*
X128547833Y-96641666D01*
X128547833Y-96641666D02*
X128447833Y-96641666D01*
X128447833Y-96641666D02*
X128314500Y-96608333D01*
X128314500Y-96608333D02*
X128247833Y-96575000D01*
X128247833Y-96575000D02*
X128181166Y-96508333D01*
X128181166Y-96508333D02*
X128147833Y-96408333D01*
X128147833Y-96408333D02*
X128147833Y-96341666D01*
X128147833Y-96341666D02*
X128181166Y-96241666D01*
X128181166Y-96241666D02*
X128214500Y-96208333D01*
X128847833Y-95908333D02*
X128147833Y-95908333D01*
X128847833Y-95508333D02*
X128447833Y-95808333D01*
X128147833Y-95508333D02*
X128547833Y-95908333D01*
X128847833Y-93608334D02*
X128147833Y-93608334D01*
X128847833Y-93275001D02*
X128147833Y-93275001D01*
X128147833Y-93275001D02*
X128847833Y-92875001D01*
X128847833Y-92875001D02*
X128147833Y-92875001D01*
X179024033Y-103891664D02*
X179724033Y-103658331D01*
X179724033Y-103658331D02*
X179024033Y-103424997D01*
X179057366Y-100691665D02*
X179024033Y-100758332D01*
X179024033Y-100758332D02*
X179024033Y-100858332D01*
X179024033Y-100858332D02*
X179057366Y-100958332D01*
X179057366Y-100958332D02*
X179124033Y-101024999D01*
X179124033Y-101024999D02*
X179190700Y-101058332D01*
X179190700Y-101058332D02*
X179324033Y-101091665D01*
X179324033Y-101091665D02*
X179424033Y-101091665D01*
X179424033Y-101091665D02*
X179557366Y-101058332D01*
X179557366Y-101058332D02*
X179624033Y-101024999D01*
X179624033Y-101024999D02*
X179690700Y-100958332D01*
X179690700Y-100958332D02*
X179724033Y-100858332D01*
X179724033Y-100858332D02*
X179724033Y-100791665D01*
X179724033Y-100791665D02*
X179690700Y-100691665D01*
X179690700Y-100691665D02*
X179657366Y-100658332D01*
X179657366Y-100658332D02*
X179424033Y-100658332D01*
X179424033Y-100658332D02*
X179424033Y-100791665D01*
X179724033Y-98425000D02*
X179724033Y-98758333D01*
X179724033Y-98758333D02*
X179024033Y-98758333D01*
X179724033Y-98191666D02*
X179024033Y-98191666D01*
X179024033Y-98191666D02*
X179024033Y-98024999D01*
X179024033Y-98024999D02*
X179057366Y-97924999D01*
X179057366Y-97924999D02*
X179124033Y-97858333D01*
X179124033Y-97858333D02*
X179190700Y-97824999D01*
X179190700Y-97824999D02*
X179324033Y-97791666D01*
X179324033Y-97791666D02*
X179424033Y-97791666D01*
X179424033Y-97791666D02*
X179557366Y-97824999D01*
X179557366Y-97824999D02*
X179624033Y-97858333D01*
X179624033Y-97858333D02*
X179690700Y-97924999D01*
X179690700Y-97924999D02*
X179724033Y-98024999D01*
X179724033Y-98024999D02*
X179724033Y-98191666D01*
X179657366Y-96025000D02*
X179690700Y-96058333D01*
X179690700Y-96058333D02*
X179724033Y-96158333D01*
X179724033Y-96158333D02*
X179724033Y-96225000D01*
X179724033Y-96225000D02*
X179690700Y-96325000D01*
X179690700Y-96325000D02*
X179624033Y-96391667D01*
X179624033Y-96391667D02*
X179557366Y-96425000D01*
X179557366Y-96425000D02*
X179424033Y-96458333D01*
X179424033Y-96458333D02*
X179324033Y-96458333D01*
X179324033Y-96458333D02*
X179190700Y-96425000D01*
X179190700Y-96425000D02*
X179124033Y-96391667D01*
X179124033Y-96391667D02*
X179057366Y-96325000D01*
X179057366Y-96325000D02*
X179024033Y-96225000D01*
X179024033Y-96225000D02*
X179024033Y-96158333D01*
X179024033Y-96158333D02*
X179057366Y-96058333D01*
X179057366Y-96058333D02*
X179090700Y-96025000D01*
X179724033Y-95725000D02*
X179024033Y-95725000D01*
X179724033Y-95325000D02*
X179324033Y-95625000D01*
X179024033Y-95325000D02*
X179424033Y-95725000D01*
X179724033Y-93425001D02*
X179024033Y-93425001D01*
X179024033Y-93425001D02*
X179024033Y-93258334D01*
X179024033Y-93258334D02*
X179057366Y-93158334D01*
X179057366Y-93158334D02*
X179124033Y-93091668D01*
X179124033Y-93091668D02*
X179190700Y-93058334D01*
X179190700Y-93058334D02*
X179324033Y-93025001D01*
X179324033Y-93025001D02*
X179424033Y-93025001D01*
X179424033Y-93025001D02*
X179557366Y-93058334D01*
X179557366Y-93058334D02*
X179624033Y-93091668D01*
X179624033Y-93091668D02*
X179690700Y-93158334D01*
X179690700Y-93158334D02*
X179724033Y-93258334D01*
X179724033Y-93258334D02*
X179724033Y-93425001D01*
D10*
X174339427Y-86819000D02*
X174453713Y-86857095D01*
X174453713Y-86857095D02*
X174644189Y-86857095D01*
X174644189Y-86857095D02*
X174720380Y-86819000D01*
X174720380Y-86819000D02*
X174758475Y-86780904D01*
X174758475Y-86780904D02*
X174796570Y-86704714D01*
X174796570Y-86704714D02*
X174796570Y-86628523D01*
X174796570Y-86628523D02*
X174758475Y-86552333D01*
X174758475Y-86552333D02*
X174720380Y-86514238D01*
X174720380Y-86514238D02*
X174644189Y-86476142D01*
X174644189Y-86476142D02*
X174491808Y-86438047D01*
X174491808Y-86438047D02*
X174415618Y-86399952D01*
X174415618Y-86399952D02*
X174377523Y-86361857D01*
X174377523Y-86361857D02*
X174339427Y-86285666D01*
X174339427Y-86285666D02*
X174339427Y-86209476D01*
X174339427Y-86209476D02*
X174377523Y-86133285D01*
X174377523Y-86133285D02*
X174415618Y-86095190D01*
X174415618Y-86095190D02*
X174491808Y-86057095D01*
X174491808Y-86057095D02*
X174682285Y-86057095D01*
X174682285Y-86057095D02*
X174796570Y-86095190D01*
X175139428Y-86857095D02*
X175139428Y-86057095D01*
X175482285Y-86857095D02*
X175482285Y-86438047D01*
X175482285Y-86438047D02*
X175444190Y-86361857D01*
X175444190Y-86361857D02*
X175367999Y-86323761D01*
X175367999Y-86323761D02*
X175253713Y-86323761D01*
X175253713Y-86323761D02*
X175177523Y-86361857D01*
X175177523Y-86361857D02*
X175139428Y-86399952D01*
X175977523Y-86857095D02*
X175901333Y-86819000D01*
X175901333Y-86819000D02*
X175863238Y-86780904D01*
X175863238Y-86780904D02*
X175825142Y-86704714D01*
X175825142Y-86704714D02*
X175825142Y-86476142D01*
X175825142Y-86476142D02*
X175863238Y-86399952D01*
X175863238Y-86399952D02*
X175901333Y-86361857D01*
X175901333Y-86361857D02*
X175977523Y-86323761D01*
X175977523Y-86323761D02*
X176091809Y-86323761D01*
X176091809Y-86323761D02*
X176168000Y-86361857D01*
X176168000Y-86361857D02*
X176206095Y-86399952D01*
X176206095Y-86399952D02*
X176244190Y-86476142D01*
X176244190Y-86476142D02*
X176244190Y-86704714D01*
X176244190Y-86704714D02*
X176206095Y-86780904D01*
X176206095Y-86780904D02*
X176168000Y-86819000D01*
X176168000Y-86819000D02*
X176091809Y-86857095D01*
X176091809Y-86857095D02*
X175977523Y-86857095D01*
X176587048Y-86857095D02*
X176587048Y-86323761D01*
X176587048Y-86476142D02*
X176625143Y-86399952D01*
X176625143Y-86399952D02*
X176663238Y-86361857D01*
X176663238Y-86361857D02*
X176739429Y-86323761D01*
X176739429Y-86323761D02*
X176815619Y-86323761D01*
X176968000Y-86323761D02*
X177272762Y-86323761D01*
X177082286Y-86057095D02*
X177082286Y-86742809D01*
X177082286Y-86742809D02*
X177120381Y-86819000D01*
X177120381Y-86819000D02*
X177196571Y-86857095D01*
X177196571Y-86857095D02*
X177272762Y-86857095D01*
X134721618Y-86857095D02*
X134264475Y-86857095D01*
X134493047Y-86857095D02*
X134493047Y-86057095D01*
X134493047Y-86057095D02*
X134416856Y-86171380D01*
X134416856Y-86171380D02*
X134340666Y-86247571D01*
X134340666Y-86247571D02*
X134264475Y-86285666D01*
X135407333Y-86057095D02*
X135254952Y-86057095D01*
X135254952Y-86057095D02*
X135178761Y-86095190D01*
X135178761Y-86095190D02*
X135140666Y-86133285D01*
X135140666Y-86133285D02*
X135064476Y-86247571D01*
X135064476Y-86247571D02*
X135026380Y-86399952D01*
X135026380Y-86399952D02*
X135026380Y-86704714D01*
X135026380Y-86704714D02*
X135064476Y-86780904D01*
X135064476Y-86780904D02*
X135102571Y-86819000D01*
X135102571Y-86819000D02*
X135178761Y-86857095D01*
X135178761Y-86857095D02*
X135331142Y-86857095D01*
X135331142Y-86857095D02*
X135407333Y-86819000D01*
X135407333Y-86819000D02*
X135445428Y-86780904D01*
X135445428Y-86780904D02*
X135483523Y-86704714D01*
X135483523Y-86704714D02*
X135483523Y-86514238D01*
X135483523Y-86514238D02*
X135445428Y-86438047D01*
X135445428Y-86438047D02*
X135407333Y-86399952D01*
X135407333Y-86399952D02*
X135331142Y-86361857D01*
X135331142Y-86361857D02*
X135178761Y-86361857D01*
X135178761Y-86361857D02*
X135102571Y-86399952D01*
X135102571Y-86399952D02*
X135064476Y-86438047D01*
X135064476Y-86438047D02*
X135026380Y-86514238D01*
X155117809Y-86399952D02*
X155041619Y-86361857D01*
X155041619Y-86361857D02*
X155003524Y-86323761D01*
X155003524Y-86323761D02*
X154965428Y-86247571D01*
X154965428Y-86247571D02*
X154965428Y-86209476D01*
X154965428Y-86209476D02*
X155003524Y-86133285D01*
X155003524Y-86133285D02*
X155041619Y-86095190D01*
X155041619Y-86095190D02*
X155117809Y-86057095D01*
X155117809Y-86057095D02*
X155270190Y-86057095D01*
X155270190Y-86057095D02*
X155346381Y-86095190D01*
X155346381Y-86095190D02*
X155384476Y-86133285D01*
X155384476Y-86133285D02*
X155422571Y-86209476D01*
X155422571Y-86209476D02*
X155422571Y-86247571D01*
X155422571Y-86247571D02*
X155384476Y-86323761D01*
X155384476Y-86323761D02*
X155346381Y-86361857D01*
X155346381Y-86361857D02*
X155270190Y-86399952D01*
X155270190Y-86399952D02*
X155117809Y-86399952D01*
X155117809Y-86399952D02*
X155041619Y-86438047D01*
X155041619Y-86438047D02*
X155003524Y-86476142D01*
X155003524Y-86476142D02*
X154965428Y-86552333D01*
X154965428Y-86552333D02*
X154965428Y-86704714D01*
X154965428Y-86704714D02*
X155003524Y-86780904D01*
X155003524Y-86780904D02*
X155041619Y-86819000D01*
X155041619Y-86819000D02*
X155117809Y-86857095D01*
X155117809Y-86857095D02*
X155270190Y-86857095D01*
X155270190Y-86857095D02*
X155346381Y-86819000D01*
X155346381Y-86819000D02*
X155384476Y-86780904D01*
X155384476Y-86780904D02*
X155422571Y-86704714D01*
X155422571Y-86704714D02*
X155422571Y-86552333D01*
X155422571Y-86552333D02*
X155384476Y-86476142D01*
X155384476Y-86476142D02*
X155346381Y-86438047D01*
X155346381Y-86438047D02*
X155270190Y-86399952D01*
X173202571Y-86857095D02*
X172745428Y-86857095D01*
X172974000Y-86857095D02*
X172974000Y-86057095D01*
X172974000Y-86057095D02*
X172897809Y-86171380D01*
X172897809Y-86171380D02*
X172821619Y-86247571D01*
X172821619Y-86247571D02*
X172745428Y-86285666D01*
D12*
X137769000Y-106208500D02*
X137869000Y-106241833D01*
X137869000Y-106241833D02*
X138035667Y-106241833D01*
X138035667Y-106241833D02*
X138102333Y-106208500D01*
X138102333Y-106208500D02*
X138135667Y-106175166D01*
X138135667Y-106175166D02*
X138169000Y-106108500D01*
X138169000Y-106108500D02*
X138169000Y-106041833D01*
X138169000Y-106041833D02*
X138135667Y-105975166D01*
X138135667Y-105975166D02*
X138102333Y-105941833D01*
X138102333Y-105941833D02*
X138035667Y-105908500D01*
X138035667Y-105908500D02*
X137902333Y-105875166D01*
X137902333Y-105875166D02*
X137835667Y-105841833D01*
X137835667Y-105841833D02*
X137802333Y-105808500D01*
X137802333Y-105808500D02*
X137769000Y-105741833D01*
X137769000Y-105741833D02*
X137769000Y-105675166D01*
X137769000Y-105675166D02*
X137802333Y-105608500D01*
X137802333Y-105608500D02*
X137835667Y-105575166D01*
X137835667Y-105575166D02*
X137902333Y-105541833D01*
X137902333Y-105541833D02*
X138069000Y-105541833D01*
X138069000Y-105541833D02*
X138169000Y-105575166D01*
X138469000Y-106241833D02*
X138469000Y-105541833D01*
X138469000Y-105875166D02*
X138869000Y-105875166D01*
X138869000Y-106241833D02*
X138869000Y-105541833D01*
X139335667Y-105541833D02*
X139469000Y-105541833D01*
X139469000Y-105541833D02*
X139535667Y-105575166D01*
X139535667Y-105575166D02*
X139602333Y-105641833D01*
X139602333Y-105641833D02*
X139635667Y-105775166D01*
X139635667Y-105775166D02*
X139635667Y-106008500D01*
X139635667Y-106008500D02*
X139602333Y-106141833D01*
X139602333Y-106141833D02*
X139535667Y-106208500D01*
X139535667Y-106208500D02*
X139469000Y-106241833D01*
X139469000Y-106241833D02*
X139335667Y-106241833D01*
X139335667Y-106241833D02*
X139269000Y-106208500D01*
X139269000Y-106208500D02*
X139202333Y-106141833D01*
X139202333Y-106141833D02*
X139169000Y-106008500D01*
X139169000Y-106008500D02*
X139169000Y-105775166D01*
X139169000Y-105775166D02*
X139202333Y-105641833D01*
X139202333Y-105641833D02*
X139269000Y-105575166D01*
X139269000Y-105575166D02*
X139335667Y-105541833D01*
X140335666Y-106241833D02*
X140102333Y-105908500D01*
X139935666Y-106241833D02*
X139935666Y-105541833D01*
X139935666Y-105541833D02*
X140202333Y-105541833D01*
X140202333Y-105541833D02*
X140269000Y-105575166D01*
X140269000Y-105575166D02*
X140302333Y-105608500D01*
X140302333Y-105608500D02*
X140335666Y-105675166D01*
X140335666Y-105675166D02*
X140335666Y-105775166D01*
X140335666Y-105775166D02*
X140302333Y-105841833D01*
X140302333Y-105841833D02*
X140269000Y-105875166D01*
X140269000Y-105875166D02*
X140202333Y-105908500D01*
X140202333Y-105908500D02*
X139935666Y-105908500D01*
X140535666Y-105541833D02*
X140935666Y-105541833D01*
X140735666Y-106241833D02*
X140735666Y-105541833D01*
D13*
X175211095Y-100348808D02*
X175211095Y-100196427D01*
X175211095Y-100196427D02*
X175249190Y-100120237D01*
X175249190Y-100120237D02*
X175325380Y-100044046D01*
X175325380Y-100044046D02*
X175477761Y-100005951D01*
X175477761Y-100005951D02*
X175744428Y-100005951D01*
X175744428Y-100005951D02*
X175896809Y-100044046D01*
X175896809Y-100044046D02*
X175973000Y-100120237D01*
X175973000Y-100120237D02*
X176011095Y-100196427D01*
X176011095Y-100196427D02*
X176011095Y-100348808D01*
X176011095Y-100348808D02*
X175973000Y-100424999D01*
X175973000Y-100424999D02*
X175896809Y-100501189D01*
X175896809Y-100501189D02*
X175744428Y-100539285D01*
X175744428Y-100539285D02*
X175477761Y-100539285D01*
X175477761Y-100539285D02*
X175325380Y-100501189D01*
X175325380Y-100501189D02*
X175249190Y-100424999D01*
X175249190Y-100424999D02*
X175211095Y-100348808D01*
X175211095Y-99663094D02*
X175858714Y-99663094D01*
X175858714Y-99663094D02*
X175934904Y-99624999D01*
X175934904Y-99624999D02*
X175973000Y-99586904D01*
X175973000Y-99586904D02*
X176011095Y-99510713D01*
X176011095Y-99510713D02*
X176011095Y-99358332D01*
X176011095Y-99358332D02*
X175973000Y-99282142D01*
X175973000Y-99282142D02*
X175934904Y-99244047D01*
X175934904Y-99244047D02*
X175858714Y-99205951D01*
X175858714Y-99205951D02*
X175211095Y-99205951D01*
X175211095Y-98939285D02*
X175211095Y-98482142D01*
X176011095Y-98710714D02*
X175211095Y-98710714D01*
X176011095Y-98215475D02*
X175211095Y-98215475D01*
X175211095Y-98215475D02*
X175211095Y-97910713D01*
X175211095Y-97910713D02*
X175249190Y-97834523D01*
X175249190Y-97834523D02*
X175287285Y-97796428D01*
X175287285Y-97796428D02*
X175363476Y-97758332D01*
X175363476Y-97758332D02*
X175477761Y-97758332D01*
X175477761Y-97758332D02*
X175553952Y-97796428D01*
X175553952Y-97796428D02*
X175592047Y-97834523D01*
X175592047Y-97834523D02*
X175630142Y-97910713D01*
X175630142Y-97910713D02*
X175630142Y-98215475D01*
X175211095Y-97415475D02*
X175858714Y-97415475D01*
X175858714Y-97415475D02*
X175934904Y-97377380D01*
X175934904Y-97377380D02*
X175973000Y-97339285D01*
X175973000Y-97339285D02*
X176011095Y-97263094D01*
X176011095Y-97263094D02*
X176011095Y-97110713D01*
X176011095Y-97110713D02*
X175973000Y-97034523D01*
X175973000Y-97034523D02*
X175934904Y-96996428D01*
X175934904Y-96996428D02*
X175858714Y-96958332D01*
X175858714Y-96958332D02*
X175211095Y-96958332D01*
X175211095Y-96691666D02*
X175211095Y-96234523D01*
X176011095Y-96463095D02*
X175211095Y-96463095D01*
D10*
X170205428Y-86133285D02*
X170243524Y-86095190D01*
X170243524Y-86095190D02*
X170319714Y-86057095D01*
X170319714Y-86057095D02*
X170510190Y-86057095D01*
X170510190Y-86057095D02*
X170586381Y-86095190D01*
X170586381Y-86095190D02*
X170624476Y-86133285D01*
X170624476Y-86133285D02*
X170662571Y-86209476D01*
X170662571Y-86209476D02*
X170662571Y-86285666D01*
X170662571Y-86285666D02*
X170624476Y-86399952D01*
X170624476Y-86399952D02*
X170167333Y-86857095D01*
X170167333Y-86857095D02*
X170662571Y-86857095D01*
X175159333Y-91408233D02*
X175159333Y-90708233D01*
X175159333Y-90708233D02*
X175426000Y-90708233D01*
X175426000Y-90708233D02*
X175492667Y-90741566D01*
X175492667Y-90741566D02*
X175526000Y-90774900D01*
X175526000Y-90774900D02*
X175559333Y-90841566D01*
X175559333Y-90841566D02*
X175559333Y-90941566D01*
X175559333Y-90941566D02*
X175526000Y-91008233D01*
X175526000Y-91008233D02*
X175492667Y-91041566D01*
X175492667Y-91041566D02*
X175426000Y-91074900D01*
X175426000Y-91074900D02*
X175159333Y-91074900D01*
X175859333Y-90708233D02*
X175859333Y-91274900D01*
X175859333Y-91274900D02*
X175892667Y-91341566D01*
X175892667Y-91341566D02*
X175926000Y-91374900D01*
X175926000Y-91374900D02*
X175992667Y-91408233D01*
X175992667Y-91408233D02*
X176126000Y-91408233D01*
X176126000Y-91408233D02*
X176192667Y-91374900D01*
X176192667Y-91374900D02*
X176226000Y-91341566D01*
X176226000Y-91341566D02*
X176259333Y-91274900D01*
X176259333Y-91274900D02*
X176259333Y-90708233D01*
X176926000Y-91408233D02*
X176592666Y-91408233D01*
X176592666Y-91408233D02*
X176592666Y-90708233D01*
X177492667Y-91408233D02*
X177159333Y-91408233D01*
X177159333Y-91408233D02*
X177159333Y-90708233D01*
X147421618Y-86857095D02*
X146964475Y-86857095D01*
X147193047Y-86857095D02*
X147193047Y-86057095D01*
X147193047Y-86057095D02*
X147116856Y-86171380D01*
X147116856Y-86171380D02*
X147040666Y-86247571D01*
X147040666Y-86247571D02*
X146964475Y-86285666D01*
X148183523Y-86857095D02*
X147726380Y-86857095D01*
X147954952Y-86857095D02*
X147954952Y-86057095D01*
X147954952Y-86057095D02*
X147878761Y-86171380D01*
X147878761Y-86171380D02*
X147802571Y-86247571D01*
X147802571Y-86247571D02*
X147726380Y-86285666D01*
X142341618Y-86857095D02*
X141884475Y-86857095D01*
X142113047Y-86857095D02*
X142113047Y-86057095D01*
X142113047Y-86057095D02*
X142036856Y-86171380D01*
X142036856Y-86171380D02*
X141960666Y-86247571D01*
X141960666Y-86247571D02*
X141884475Y-86285666D01*
X142608285Y-86057095D02*
X143103523Y-86057095D01*
X143103523Y-86057095D02*
X142836857Y-86361857D01*
X142836857Y-86361857D02*
X142951142Y-86361857D01*
X142951142Y-86361857D02*
X143027333Y-86399952D01*
X143027333Y-86399952D02*
X143065428Y-86438047D01*
X143065428Y-86438047D02*
X143103523Y-86514238D01*
X143103523Y-86514238D02*
X143103523Y-86704714D01*
X143103523Y-86704714D02*
X143065428Y-86780904D01*
X143065428Y-86780904D02*
X143027333Y-86819000D01*
X143027333Y-86819000D02*
X142951142Y-86857095D01*
X142951142Y-86857095D02*
X142722571Y-86857095D01*
X142722571Y-86857095D02*
X142646380Y-86819000D01*
X142646380Y-86819000D02*
X142608285Y-86780904D01*
D12*
X159538333Y-106241833D02*
X159538333Y-105541833D01*
X159538333Y-105541833D02*
X159805000Y-105541833D01*
X159805000Y-105541833D02*
X159871667Y-105575166D01*
X159871667Y-105575166D02*
X159905000Y-105608500D01*
X159905000Y-105608500D02*
X159938333Y-105675166D01*
X159938333Y-105675166D02*
X159938333Y-105775166D01*
X159938333Y-105775166D02*
X159905000Y-105841833D01*
X159905000Y-105841833D02*
X159871667Y-105875166D01*
X159871667Y-105875166D02*
X159805000Y-105908500D01*
X159805000Y-105908500D02*
X159538333Y-105908500D01*
X160238333Y-105541833D02*
X160238333Y-106108500D01*
X160238333Y-106108500D02*
X160271667Y-106175166D01*
X160271667Y-106175166D02*
X160305000Y-106208500D01*
X160305000Y-106208500D02*
X160371667Y-106241833D01*
X160371667Y-106241833D02*
X160505000Y-106241833D01*
X160505000Y-106241833D02*
X160571667Y-106208500D01*
X160571667Y-106208500D02*
X160605000Y-106175166D01*
X160605000Y-106175166D02*
X160638333Y-106108500D01*
X160638333Y-106108500D02*
X160638333Y-105541833D01*
X161305000Y-106241833D02*
X160971666Y-106241833D01*
X160971666Y-106241833D02*
X160971666Y-105541833D01*
X161871667Y-106241833D02*
X161538333Y-106241833D01*
X161538333Y-106241833D02*
X161538333Y-105541833D01*
D10*
X139801618Y-86857095D02*
X139344475Y-86857095D01*
X139573047Y-86857095D02*
X139573047Y-86057095D01*
X139573047Y-86057095D02*
X139496856Y-86171380D01*
X139496856Y-86171380D02*
X139420666Y-86247571D01*
X139420666Y-86247571D02*
X139344475Y-86285666D01*
X140487333Y-86323761D02*
X140487333Y-86857095D01*
X140296857Y-86019000D02*
X140106380Y-86590428D01*
X140106380Y-86590428D02*
X140601619Y-86590428D01*
X157467333Y-86057095D02*
X158000667Y-86057095D01*
X158000667Y-86057095D02*
X157657809Y-86857095D01*
X163004476Y-86057095D02*
X162623524Y-86057095D01*
X162623524Y-86057095D02*
X162585428Y-86438047D01*
X162585428Y-86438047D02*
X162623524Y-86399952D01*
X162623524Y-86399952D02*
X162699714Y-86361857D01*
X162699714Y-86361857D02*
X162890190Y-86361857D01*
X162890190Y-86361857D02*
X162966381Y-86399952D01*
X162966381Y-86399952D02*
X163004476Y-86438047D01*
X163004476Y-86438047D02*
X163042571Y-86514238D01*
X163042571Y-86514238D02*
X163042571Y-86704714D01*
X163042571Y-86704714D02*
X163004476Y-86780904D01*
X163004476Y-86780904D02*
X162966381Y-86819000D01*
X162966381Y-86819000D02*
X162890190Y-86857095D01*
X162890190Y-86857095D02*
X162699714Y-86857095D01*
X162699714Y-86857095D02*
X162623524Y-86819000D01*
X162623524Y-86819000D02*
X162585428Y-86780904D01*
X152501619Y-86857095D02*
X152654000Y-86857095D01*
X152654000Y-86857095D02*
X152730190Y-86819000D01*
X152730190Y-86819000D02*
X152768286Y-86780904D01*
X152768286Y-86780904D02*
X152844476Y-86666619D01*
X152844476Y-86666619D02*
X152882571Y-86514238D01*
X152882571Y-86514238D02*
X152882571Y-86209476D01*
X152882571Y-86209476D02*
X152844476Y-86133285D01*
X152844476Y-86133285D02*
X152806381Y-86095190D01*
X152806381Y-86095190D02*
X152730190Y-86057095D01*
X152730190Y-86057095D02*
X152577809Y-86057095D01*
X152577809Y-86057095D02*
X152501619Y-86095190D01*
X152501619Y-86095190D02*
X152463524Y-86133285D01*
X152463524Y-86133285D02*
X152425428Y-86209476D01*
X152425428Y-86209476D02*
X152425428Y-86399952D01*
X152425428Y-86399952D02*
X152463524Y-86476142D01*
X152463524Y-86476142D02*
X152501619Y-86514238D01*
X152501619Y-86514238D02*
X152577809Y-86552333D01*
X152577809Y-86552333D02*
X152730190Y-86552333D01*
X152730190Y-86552333D02*
X152806381Y-86514238D01*
X152806381Y-86514238D02*
X152844476Y-86476142D01*
X152844476Y-86476142D02*
X152882571Y-86399952D01*
D11*
X130709333Y-91382833D02*
X130709333Y-90682833D01*
X130709333Y-90682833D02*
X130976000Y-90682833D01*
X130976000Y-90682833D02*
X131042667Y-90716166D01*
X131042667Y-90716166D02*
X131076000Y-90749500D01*
X131076000Y-90749500D02*
X131109333Y-90816166D01*
X131109333Y-90816166D02*
X131109333Y-90916166D01*
X131109333Y-90916166D02*
X131076000Y-90982833D01*
X131076000Y-90982833D02*
X131042667Y-91016166D01*
X131042667Y-91016166D02*
X130976000Y-91049500D01*
X130976000Y-91049500D02*
X130709333Y-91049500D01*
X131409333Y-90682833D02*
X131409333Y-91249500D01*
X131409333Y-91249500D02*
X131442667Y-91316166D01*
X131442667Y-91316166D02*
X131476000Y-91349500D01*
X131476000Y-91349500D02*
X131542667Y-91382833D01*
X131542667Y-91382833D02*
X131676000Y-91382833D01*
X131676000Y-91382833D02*
X131742667Y-91349500D01*
X131742667Y-91349500D02*
X131776000Y-91316166D01*
X131776000Y-91316166D02*
X131809333Y-91249500D01*
X131809333Y-91249500D02*
X131809333Y-90682833D01*
X132476000Y-91382833D02*
X132142666Y-91382833D01*
X132142666Y-91382833D02*
X132142666Y-90682833D01*
X133042667Y-91382833D02*
X132709333Y-91382833D01*
X132709333Y-91382833D02*
X132709333Y-90682833D01*
D10*
X144881618Y-86857095D02*
X144424475Y-86857095D01*
X144653047Y-86857095D02*
X144653047Y-86057095D01*
X144653047Y-86057095D02*
X144576856Y-86171380D01*
X144576856Y-86171380D02*
X144500666Y-86247571D01*
X144500666Y-86247571D02*
X144424475Y-86285666D01*
X145186380Y-86133285D02*
X145224476Y-86095190D01*
X145224476Y-86095190D02*
X145300666Y-86057095D01*
X145300666Y-86057095D02*
X145491142Y-86057095D01*
X145491142Y-86057095D02*
X145567333Y-86095190D01*
X145567333Y-86095190D02*
X145605428Y-86133285D01*
X145605428Y-86133285D02*
X145643523Y-86209476D01*
X145643523Y-86209476D02*
X145643523Y-86285666D01*
X145643523Y-86285666D02*
X145605428Y-86399952D01*
X145605428Y-86399952D02*
X145148285Y-86857095D01*
X145148285Y-86857095D02*
X145643523Y-86857095D01*
D13*
X131836904Y-96882143D02*
X132636904Y-96882143D01*
X131836904Y-97263095D02*
X132636904Y-97263095D01*
X132636904Y-97263095D02*
X131836904Y-97720238D01*
X131836904Y-97720238D02*
X132636904Y-97720238D01*
X131836904Y-98101190D02*
X132636904Y-98101190D01*
X132636904Y-98101190D02*
X132636904Y-98405952D01*
X132636904Y-98405952D02*
X132598809Y-98482142D01*
X132598809Y-98482142D02*
X132560714Y-98520237D01*
X132560714Y-98520237D02*
X132484523Y-98558333D01*
X132484523Y-98558333D02*
X132370238Y-98558333D01*
X132370238Y-98558333D02*
X132294047Y-98520237D01*
X132294047Y-98520237D02*
X132255952Y-98482142D01*
X132255952Y-98482142D02*
X132217857Y-98405952D01*
X132217857Y-98405952D02*
X132217857Y-98101190D01*
X132636904Y-98901190D02*
X131989285Y-98901190D01*
X131989285Y-98901190D02*
X131913095Y-98939285D01*
X131913095Y-98939285D02*
X131875000Y-98977380D01*
X131875000Y-98977380D02*
X131836904Y-99053571D01*
X131836904Y-99053571D02*
X131836904Y-99205952D01*
X131836904Y-99205952D02*
X131875000Y-99282142D01*
X131875000Y-99282142D02*
X131913095Y-99320237D01*
X131913095Y-99320237D02*
X131989285Y-99358333D01*
X131989285Y-99358333D02*
X132636904Y-99358333D01*
X132636904Y-99624999D02*
X132636904Y-100082142D01*
X131836904Y-99853570D02*
X132636904Y-99853570D01*
D10*
X165506381Y-86323761D02*
X165506381Y-86857095D01*
X165315905Y-86019000D02*
X165125428Y-86590428D01*
X165125428Y-86590428D02*
X165620667Y-86590428D01*
X160426381Y-86057095D02*
X160274000Y-86057095D01*
X160274000Y-86057095D02*
X160197809Y-86095190D01*
X160197809Y-86095190D02*
X160159714Y-86133285D01*
X160159714Y-86133285D02*
X160083524Y-86247571D01*
X160083524Y-86247571D02*
X160045428Y-86399952D01*
X160045428Y-86399952D02*
X160045428Y-86704714D01*
X160045428Y-86704714D02*
X160083524Y-86780904D01*
X160083524Y-86780904D02*
X160121619Y-86819000D01*
X160121619Y-86819000D02*
X160197809Y-86857095D01*
X160197809Y-86857095D02*
X160350190Y-86857095D01*
X160350190Y-86857095D02*
X160426381Y-86819000D01*
X160426381Y-86819000D02*
X160464476Y-86780904D01*
X160464476Y-86780904D02*
X160502571Y-86704714D01*
X160502571Y-86704714D02*
X160502571Y-86514238D01*
X160502571Y-86514238D02*
X160464476Y-86438047D01*
X160464476Y-86438047D02*
X160426381Y-86399952D01*
X160426381Y-86399952D02*
X160350190Y-86361857D01*
X160350190Y-86361857D02*
X160197809Y-86361857D01*
X160197809Y-86361857D02*
X160121619Y-86399952D01*
X160121619Y-86399952D02*
X160083524Y-86438047D01*
X160083524Y-86438047D02*
X160045428Y-86514238D01*
X137261618Y-86857095D02*
X136804475Y-86857095D01*
X137033047Y-86857095D02*
X137033047Y-86057095D01*
X137033047Y-86057095D02*
X136956856Y-86171380D01*
X136956856Y-86171380D02*
X136880666Y-86247571D01*
X136880666Y-86247571D02*
X136804475Y-86285666D01*
X137985428Y-86057095D02*
X137604476Y-86057095D01*
X137604476Y-86057095D02*
X137566380Y-86438047D01*
X137566380Y-86438047D02*
X137604476Y-86399952D01*
X137604476Y-86399952D02*
X137680666Y-86361857D01*
X137680666Y-86361857D02*
X137871142Y-86361857D01*
X137871142Y-86361857D02*
X137947333Y-86399952D01*
X137947333Y-86399952D02*
X137985428Y-86438047D01*
X137985428Y-86438047D02*
X138023523Y-86514238D01*
X138023523Y-86514238D02*
X138023523Y-86704714D01*
X138023523Y-86704714D02*
X137985428Y-86780904D01*
X137985428Y-86780904D02*
X137947333Y-86819000D01*
X137947333Y-86819000D02*
X137871142Y-86857095D01*
X137871142Y-86857095D02*
X137680666Y-86857095D01*
X137680666Y-86857095D02*
X137604476Y-86819000D01*
X137604476Y-86819000D02*
X137566380Y-86780904D01*
X130524427Y-86819000D02*
X130638713Y-86857095D01*
X130638713Y-86857095D02*
X130829189Y-86857095D01*
X130829189Y-86857095D02*
X130905380Y-86819000D01*
X130905380Y-86819000D02*
X130943475Y-86780904D01*
X130943475Y-86780904D02*
X130981570Y-86704714D01*
X130981570Y-86704714D02*
X130981570Y-86628523D01*
X130981570Y-86628523D02*
X130943475Y-86552333D01*
X130943475Y-86552333D02*
X130905380Y-86514238D01*
X130905380Y-86514238D02*
X130829189Y-86476142D01*
X130829189Y-86476142D02*
X130676808Y-86438047D01*
X130676808Y-86438047D02*
X130600618Y-86399952D01*
X130600618Y-86399952D02*
X130562523Y-86361857D01*
X130562523Y-86361857D02*
X130524427Y-86285666D01*
X130524427Y-86285666D02*
X130524427Y-86209476D01*
X130524427Y-86209476D02*
X130562523Y-86133285D01*
X130562523Y-86133285D02*
X130600618Y-86095190D01*
X130600618Y-86095190D02*
X130676808Y-86057095D01*
X130676808Y-86057095D02*
X130867285Y-86057095D01*
X130867285Y-86057095D02*
X130981570Y-86095190D01*
X131324428Y-86857095D02*
X131324428Y-86057095D01*
X131667285Y-86857095D02*
X131667285Y-86438047D01*
X131667285Y-86438047D02*
X131629190Y-86361857D01*
X131629190Y-86361857D02*
X131552999Y-86323761D01*
X131552999Y-86323761D02*
X131438713Y-86323761D01*
X131438713Y-86323761D02*
X131362523Y-86361857D01*
X131362523Y-86361857D02*
X131324428Y-86399952D01*
X132162523Y-86857095D02*
X132086333Y-86819000D01*
X132086333Y-86819000D02*
X132048238Y-86780904D01*
X132048238Y-86780904D02*
X132010142Y-86704714D01*
X132010142Y-86704714D02*
X132010142Y-86476142D01*
X132010142Y-86476142D02*
X132048238Y-86399952D01*
X132048238Y-86399952D02*
X132086333Y-86361857D01*
X132086333Y-86361857D02*
X132162523Y-86323761D01*
X132162523Y-86323761D02*
X132276809Y-86323761D01*
X132276809Y-86323761D02*
X132353000Y-86361857D01*
X132353000Y-86361857D02*
X132391095Y-86399952D01*
X132391095Y-86399952D02*
X132429190Y-86476142D01*
X132429190Y-86476142D02*
X132429190Y-86704714D01*
X132429190Y-86704714D02*
X132391095Y-86780904D01*
X132391095Y-86780904D02*
X132353000Y-86819000D01*
X132353000Y-86819000D02*
X132276809Y-86857095D01*
X132276809Y-86857095D02*
X132162523Y-86857095D01*
X132772048Y-86857095D02*
X132772048Y-86323761D01*
X132772048Y-86476142D02*
X132810143Y-86399952D01*
X132810143Y-86399952D02*
X132848238Y-86361857D01*
X132848238Y-86361857D02*
X132924429Y-86323761D01*
X132924429Y-86323761D02*
X133000619Y-86323761D01*
X133153000Y-86323761D02*
X133457762Y-86323761D01*
X133267286Y-86057095D02*
X133267286Y-86742809D01*
X133267286Y-86742809D02*
X133305381Y-86819000D01*
X133305381Y-86819000D02*
X133381571Y-86857095D01*
X133381571Y-86857095D02*
X133457762Y-86857095D01*
X149961618Y-86857095D02*
X149504475Y-86857095D01*
X149733047Y-86857095D02*
X149733047Y-86057095D01*
X149733047Y-86057095D02*
X149656856Y-86171380D01*
X149656856Y-86171380D02*
X149580666Y-86247571D01*
X149580666Y-86247571D02*
X149504475Y-86285666D01*
X150456857Y-86057095D02*
X150533047Y-86057095D01*
X150533047Y-86057095D02*
X150609238Y-86095190D01*
X150609238Y-86095190D02*
X150647333Y-86133285D01*
X150647333Y-86133285D02*
X150685428Y-86209476D01*
X150685428Y-86209476D02*
X150723523Y-86361857D01*
X150723523Y-86361857D02*
X150723523Y-86552333D01*
X150723523Y-86552333D02*
X150685428Y-86704714D01*
X150685428Y-86704714D02*
X150647333Y-86780904D01*
X150647333Y-86780904D02*
X150609238Y-86819000D01*
X150609238Y-86819000D02*
X150533047Y-86857095D01*
X150533047Y-86857095D02*
X150456857Y-86857095D01*
X150456857Y-86857095D02*
X150380666Y-86819000D01*
X150380666Y-86819000D02*
X150342571Y-86780904D01*
X150342571Y-86780904D02*
X150304476Y-86704714D01*
X150304476Y-86704714D02*
X150266380Y-86552333D01*
X150266380Y-86552333D02*
X150266380Y-86361857D01*
X150266380Y-86361857D02*
X150304476Y-86209476D01*
X150304476Y-86209476D02*
X150342571Y-86133285D01*
X150342571Y-86133285D02*
X150380666Y-86095190D01*
X150380666Y-86095190D02*
X150456857Y-86057095D01*
X167627333Y-86057095D02*
X168122571Y-86057095D01*
X168122571Y-86057095D02*
X167855905Y-86361857D01*
X167855905Y-86361857D02*
X167970190Y-86361857D01*
X167970190Y-86361857D02*
X168046381Y-86399952D01*
X168046381Y-86399952D02*
X168084476Y-86438047D01*
X168084476Y-86438047D02*
X168122571Y-86514238D01*
X168122571Y-86514238D02*
X168122571Y-86704714D01*
X168122571Y-86704714D02*
X168084476Y-86780904D01*
X168084476Y-86780904D02*
X168046381Y-86819000D01*
X168046381Y-86819000D02*
X167970190Y-86857095D01*
X167970190Y-86857095D02*
X167741619Y-86857095D01*
X167741619Y-86857095D02*
X167665428Y-86819000D01*
X167665428Y-86819000D02*
X167627333Y-86780904D01*
%TO.C,74HC165_2*%
X134056952Y-95601619D02*
X134723618Y-95601619D01*
X134723618Y-95601619D02*
X134295047Y-96601619D01*
X135533142Y-95934952D02*
X135533142Y-96601619D01*
X135295047Y-95554000D02*
X135056952Y-96268285D01*
X135056952Y-96268285D02*
X135675999Y-96268285D01*
X136056952Y-96601619D02*
X136056952Y-95601619D01*
X136056952Y-96077809D02*
X136628380Y-96077809D01*
X136628380Y-96601619D02*
X136628380Y-95601619D01*
X137675999Y-96506380D02*
X137628380Y-96554000D01*
X137628380Y-96554000D02*
X137485523Y-96601619D01*
X137485523Y-96601619D02*
X137390285Y-96601619D01*
X137390285Y-96601619D02*
X137247428Y-96554000D01*
X137247428Y-96554000D02*
X137152190Y-96458761D01*
X137152190Y-96458761D02*
X137104571Y-96363523D01*
X137104571Y-96363523D02*
X137056952Y-96173047D01*
X137056952Y-96173047D02*
X137056952Y-96030190D01*
X137056952Y-96030190D02*
X137104571Y-95839714D01*
X137104571Y-95839714D02*
X137152190Y-95744476D01*
X137152190Y-95744476D02*
X137247428Y-95649238D01*
X137247428Y-95649238D02*
X137390285Y-95601619D01*
X137390285Y-95601619D02*
X137485523Y-95601619D01*
X137485523Y-95601619D02*
X137628380Y-95649238D01*
X137628380Y-95649238D02*
X137675999Y-95696857D01*
X138628380Y-96601619D02*
X138056952Y-96601619D01*
X138342666Y-96601619D02*
X138342666Y-95601619D01*
X138342666Y-95601619D02*
X138247428Y-95744476D01*
X138247428Y-95744476D02*
X138152190Y-95839714D01*
X138152190Y-95839714D02*
X138056952Y-95887333D01*
X139485523Y-95601619D02*
X139295047Y-95601619D01*
X139295047Y-95601619D02*
X139199809Y-95649238D01*
X139199809Y-95649238D02*
X139152190Y-95696857D01*
X139152190Y-95696857D02*
X139056952Y-95839714D01*
X139056952Y-95839714D02*
X139009333Y-96030190D01*
X139009333Y-96030190D02*
X139009333Y-96411142D01*
X139009333Y-96411142D02*
X139056952Y-96506380D01*
X139056952Y-96506380D02*
X139104571Y-96554000D01*
X139104571Y-96554000D02*
X139199809Y-96601619D01*
X139199809Y-96601619D02*
X139390285Y-96601619D01*
X139390285Y-96601619D02*
X139485523Y-96554000D01*
X139485523Y-96554000D02*
X139533142Y-96506380D01*
X139533142Y-96506380D02*
X139580761Y-96411142D01*
X139580761Y-96411142D02*
X139580761Y-96173047D01*
X139580761Y-96173047D02*
X139533142Y-96077809D01*
X139533142Y-96077809D02*
X139485523Y-96030190D01*
X139485523Y-96030190D02*
X139390285Y-95982571D01*
X139390285Y-95982571D02*
X139199809Y-95982571D01*
X139199809Y-95982571D02*
X139104571Y-96030190D01*
X139104571Y-96030190D02*
X139056952Y-96077809D01*
X139056952Y-96077809D02*
X139009333Y-96173047D01*
X140485523Y-95601619D02*
X140009333Y-95601619D01*
X140009333Y-95601619D02*
X139961714Y-96077809D01*
X139961714Y-96077809D02*
X140009333Y-96030190D01*
X140009333Y-96030190D02*
X140104571Y-95982571D01*
X140104571Y-95982571D02*
X140342666Y-95982571D01*
X140342666Y-95982571D02*
X140437904Y-96030190D01*
X140437904Y-96030190D02*
X140485523Y-96077809D01*
X140485523Y-96077809D02*
X140533142Y-96173047D01*
X140533142Y-96173047D02*
X140533142Y-96411142D01*
X140533142Y-96411142D02*
X140485523Y-96506380D01*
X140485523Y-96506380D02*
X140437904Y-96554000D01*
X140437904Y-96554000D02*
X140342666Y-96601619D01*
X140342666Y-96601619D02*
X140104571Y-96601619D01*
X140104571Y-96601619D02*
X140009333Y-96554000D01*
X140009333Y-96554000D02*
X139961714Y-96506380D01*
X140723619Y-96696857D02*
X141485523Y-96696857D01*
X141676000Y-95696857D02*
X141723619Y-95649238D01*
X141723619Y-95649238D02*
X141818857Y-95601619D01*
X141818857Y-95601619D02*
X142056952Y-95601619D01*
X142056952Y-95601619D02*
X142152190Y-95649238D01*
X142152190Y-95649238D02*
X142199809Y-95696857D01*
X142199809Y-95696857D02*
X142247428Y-95792095D01*
X142247428Y-95792095D02*
X142247428Y-95887333D01*
X142247428Y-95887333D02*
X142199809Y-96030190D01*
X142199809Y-96030190D02*
X141628381Y-96601619D01*
X141628381Y-96601619D02*
X142247428Y-96601619D01*
%TO.C,74HC165_1*%
X155138952Y-95601619D02*
X155805618Y-95601619D01*
X155805618Y-95601619D02*
X155377047Y-96601619D01*
X156615142Y-95934952D02*
X156615142Y-96601619D01*
X156377047Y-95554000D02*
X156138952Y-96268285D01*
X156138952Y-96268285D02*
X156757999Y-96268285D01*
X157138952Y-96601619D02*
X157138952Y-95601619D01*
X157138952Y-96077809D02*
X157710380Y-96077809D01*
X157710380Y-96601619D02*
X157710380Y-95601619D01*
X158757999Y-96506380D02*
X158710380Y-96554000D01*
X158710380Y-96554000D02*
X158567523Y-96601619D01*
X158567523Y-96601619D02*
X158472285Y-96601619D01*
X158472285Y-96601619D02*
X158329428Y-96554000D01*
X158329428Y-96554000D02*
X158234190Y-96458761D01*
X158234190Y-96458761D02*
X158186571Y-96363523D01*
X158186571Y-96363523D02*
X158138952Y-96173047D01*
X158138952Y-96173047D02*
X158138952Y-96030190D01*
X158138952Y-96030190D02*
X158186571Y-95839714D01*
X158186571Y-95839714D02*
X158234190Y-95744476D01*
X158234190Y-95744476D02*
X158329428Y-95649238D01*
X158329428Y-95649238D02*
X158472285Y-95601619D01*
X158472285Y-95601619D02*
X158567523Y-95601619D01*
X158567523Y-95601619D02*
X158710380Y-95649238D01*
X158710380Y-95649238D02*
X158757999Y-95696857D01*
X159710380Y-96601619D02*
X159138952Y-96601619D01*
X159424666Y-96601619D02*
X159424666Y-95601619D01*
X159424666Y-95601619D02*
X159329428Y-95744476D01*
X159329428Y-95744476D02*
X159234190Y-95839714D01*
X159234190Y-95839714D02*
X159138952Y-95887333D01*
X160567523Y-95601619D02*
X160377047Y-95601619D01*
X160377047Y-95601619D02*
X160281809Y-95649238D01*
X160281809Y-95649238D02*
X160234190Y-95696857D01*
X160234190Y-95696857D02*
X160138952Y-95839714D01*
X160138952Y-95839714D02*
X160091333Y-96030190D01*
X160091333Y-96030190D02*
X160091333Y-96411142D01*
X160091333Y-96411142D02*
X160138952Y-96506380D01*
X160138952Y-96506380D02*
X160186571Y-96554000D01*
X160186571Y-96554000D02*
X160281809Y-96601619D01*
X160281809Y-96601619D02*
X160472285Y-96601619D01*
X160472285Y-96601619D02*
X160567523Y-96554000D01*
X160567523Y-96554000D02*
X160615142Y-96506380D01*
X160615142Y-96506380D02*
X160662761Y-96411142D01*
X160662761Y-96411142D02*
X160662761Y-96173047D01*
X160662761Y-96173047D02*
X160615142Y-96077809D01*
X160615142Y-96077809D02*
X160567523Y-96030190D01*
X160567523Y-96030190D02*
X160472285Y-95982571D01*
X160472285Y-95982571D02*
X160281809Y-95982571D01*
X160281809Y-95982571D02*
X160186571Y-96030190D01*
X160186571Y-96030190D02*
X160138952Y-96077809D01*
X160138952Y-96077809D02*
X160091333Y-96173047D01*
X161567523Y-95601619D02*
X161091333Y-95601619D01*
X161091333Y-95601619D02*
X161043714Y-96077809D01*
X161043714Y-96077809D02*
X161091333Y-96030190D01*
X161091333Y-96030190D02*
X161186571Y-95982571D01*
X161186571Y-95982571D02*
X161424666Y-95982571D01*
X161424666Y-95982571D02*
X161519904Y-96030190D01*
X161519904Y-96030190D02*
X161567523Y-96077809D01*
X161567523Y-96077809D02*
X161615142Y-96173047D01*
X161615142Y-96173047D02*
X161615142Y-96411142D01*
X161615142Y-96411142D02*
X161567523Y-96506380D01*
X161567523Y-96506380D02*
X161519904Y-96554000D01*
X161519904Y-96554000D02*
X161424666Y-96601619D01*
X161424666Y-96601619D02*
X161186571Y-96601619D01*
X161186571Y-96601619D02*
X161091333Y-96554000D01*
X161091333Y-96554000D02*
X161043714Y-96506380D01*
X161805619Y-96696857D02*
X162567523Y-96696857D01*
X163329428Y-96601619D02*
X162758000Y-96601619D01*
X163043714Y-96601619D02*
X163043714Y-95601619D01*
X163043714Y-95601619D02*
X162948476Y-95744476D01*
X162948476Y-95744476D02*
X162853238Y-95839714D01*
X162853238Y-95839714D02*
X162758000Y-95887333D01*
%TO.C,RN1*%
X164039619Y-91556095D02*
X163772952Y-91175142D01*
X163582476Y-91556095D02*
X163582476Y-90756095D01*
X163582476Y-90756095D02*
X163887238Y-90756095D01*
X163887238Y-90756095D02*
X163963428Y-90794190D01*
X163963428Y-90794190D02*
X164001523Y-90832285D01*
X164001523Y-90832285D02*
X164039619Y-90908476D01*
X164039619Y-90908476D02*
X164039619Y-91022761D01*
X164039619Y-91022761D02*
X164001523Y-91098952D01*
X164001523Y-91098952D02*
X163963428Y-91137047D01*
X163963428Y-91137047D02*
X163887238Y-91175142D01*
X163887238Y-91175142D02*
X163582476Y-91175142D01*
X164382476Y-91556095D02*
X164382476Y-90756095D01*
X164382476Y-90756095D02*
X164839619Y-91556095D01*
X164839619Y-91556095D02*
X164839619Y-90756095D01*
X165639618Y-91556095D02*
X165182475Y-91556095D01*
X165411047Y-91556095D02*
X165411047Y-90756095D01*
X165411047Y-90756095D02*
X165334856Y-90870380D01*
X165334856Y-90870380D02*
X165258666Y-90946571D01*
X165258666Y-90946571D02*
X165182475Y-90984666D01*
%TO.C,J1*%
X177414095Y-84467666D02*
X177985523Y-84467666D01*
X177985523Y-84467666D02*
X178099809Y-84505761D01*
X178099809Y-84505761D02*
X178176000Y-84581952D01*
X178176000Y-84581952D02*
X178214095Y-84696237D01*
X178214095Y-84696237D02*
X178214095Y-84772428D01*
X178214095Y-83667666D02*
X178214095Y-84124809D01*
X178214095Y-83896237D02*
X177414095Y-83896237D01*
X177414095Y-83896237D02*
X177528380Y-83972428D01*
X177528380Y-83972428D02*
X177604571Y-84048618D01*
X177604571Y-84048618D02*
X177642666Y-84124809D01*
%TO.C,RN2*%
X142703619Y-91556095D02*
X142436952Y-91175142D01*
X142246476Y-91556095D02*
X142246476Y-90756095D01*
X142246476Y-90756095D02*
X142551238Y-90756095D01*
X142551238Y-90756095D02*
X142627428Y-90794190D01*
X142627428Y-90794190D02*
X142665523Y-90832285D01*
X142665523Y-90832285D02*
X142703619Y-90908476D01*
X142703619Y-90908476D02*
X142703619Y-91022761D01*
X142703619Y-91022761D02*
X142665523Y-91098952D01*
X142665523Y-91098952D02*
X142627428Y-91137047D01*
X142627428Y-91137047D02*
X142551238Y-91175142D01*
X142551238Y-91175142D02*
X142246476Y-91175142D01*
X143046476Y-91556095D02*
X143046476Y-90756095D01*
X143046476Y-90756095D02*
X143503619Y-91556095D01*
X143503619Y-91556095D02*
X143503619Y-90756095D01*
X143846475Y-90832285D02*
X143884571Y-90794190D01*
X143884571Y-90794190D02*
X143960761Y-90756095D01*
X143960761Y-90756095D02*
X144151237Y-90756095D01*
X144151237Y-90756095D02*
X144227428Y-90794190D01*
X144227428Y-90794190D02*
X144265523Y-90832285D01*
X144265523Y-90832285D02*
X144303618Y-90908476D01*
X144303618Y-90908476D02*
X144303618Y-90984666D01*
X144303618Y-90984666D02*
X144265523Y-91098952D01*
X144265523Y-91098952D02*
X143808380Y-91556095D01*
X143808380Y-91556095D02*
X144303618Y-91556095D01*
%TO.C,C2*%
X149439333Y-104507380D02*
X149391714Y-104555000D01*
X149391714Y-104555000D02*
X149248857Y-104602619D01*
X149248857Y-104602619D02*
X149153619Y-104602619D01*
X149153619Y-104602619D02*
X149010762Y-104555000D01*
X149010762Y-104555000D02*
X148915524Y-104459761D01*
X148915524Y-104459761D02*
X148867905Y-104364523D01*
X148867905Y-104364523D02*
X148820286Y-104174047D01*
X148820286Y-104174047D02*
X148820286Y-104031190D01*
X148820286Y-104031190D02*
X148867905Y-103840714D01*
X148867905Y-103840714D02*
X148915524Y-103745476D01*
X148915524Y-103745476D02*
X149010762Y-103650238D01*
X149010762Y-103650238D02*
X149153619Y-103602619D01*
X149153619Y-103602619D02*
X149248857Y-103602619D01*
X149248857Y-103602619D02*
X149391714Y-103650238D01*
X149391714Y-103650238D02*
X149439333Y-103697857D01*
X149820286Y-103697857D02*
X149867905Y-103650238D01*
X149867905Y-103650238D02*
X149963143Y-103602619D01*
X149963143Y-103602619D02*
X150201238Y-103602619D01*
X150201238Y-103602619D02*
X150296476Y-103650238D01*
X150296476Y-103650238D02*
X150344095Y-103697857D01*
X150344095Y-103697857D02*
X150391714Y-103793095D01*
X150391714Y-103793095D02*
X150391714Y-103888333D01*
X150391714Y-103888333D02*
X150344095Y-104031190D01*
X150344095Y-104031190D02*
X149772667Y-104602619D01*
X149772667Y-104602619D02*
X150391714Y-104602619D01*
%TO.C,C1*%
X170775333Y-104507380D02*
X170727714Y-104555000D01*
X170727714Y-104555000D02*
X170584857Y-104602619D01*
X170584857Y-104602619D02*
X170489619Y-104602619D01*
X170489619Y-104602619D02*
X170346762Y-104555000D01*
X170346762Y-104555000D02*
X170251524Y-104459761D01*
X170251524Y-104459761D02*
X170203905Y-104364523D01*
X170203905Y-104364523D02*
X170156286Y-104174047D01*
X170156286Y-104174047D02*
X170156286Y-104031190D01*
X170156286Y-104031190D02*
X170203905Y-103840714D01*
X170203905Y-103840714D02*
X170251524Y-103745476D01*
X170251524Y-103745476D02*
X170346762Y-103650238D01*
X170346762Y-103650238D02*
X170489619Y-103602619D01*
X170489619Y-103602619D02*
X170584857Y-103602619D01*
X170584857Y-103602619D02*
X170727714Y-103650238D01*
X170727714Y-103650238D02*
X170775333Y-103697857D01*
X171727714Y-104602619D02*
X171156286Y-104602619D01*
X171442000Y-104602619D02*
X171442000Y-103602619D01*
X171442000Y-103602619D02*
X171346762Y-103745476D01*
X171346762Y-103745476D02*
X171251524Y-103840714D01*
X171251524Y-103840714D02*
X171156286Y-103888333D01*
%TO.C,PULL1*%
X157105429Y-104510095D02*
X157105429Y-103710095D01*
X157105429Y-103710095D02*
X157295905Y-103710095D01*
X157295905Y-103710095D02*
X157410191Y-103748190D01*
X157410191Y-103748190D02*
X157486381Y-103824380D01*
X157486381Y-103824380D02*
X157524476Y-103900571D01*
X157524476Y-103900571D02*
X157562572Y-104052952D01*
X157562572Y-104052952D02*
X157562572Y-104167238D01*
X157562572Y-104167238D02*
X157524476Y-104319619D01*
X157524476Y-104319619D02*
X157486381Y-104395809D01*
X157486381Y-104395809D02*
X157410191Y-104472000D01*
X157410191Y-104472000D02*
X157295905Y-104510095D01*
X157295905Y-104510095D02*
X157105429Y-104510095D01*
X157905429Y-104510095D02*
X157905429Y-103710095D01*
X157905429Y-103710095D02*
X158362572Y-104510095D01*
X158362572Y-104510095D02*
X158362572Y-103710095D01*
X162947429Y-103710095D02*
X162947429Y-104357714D01*
X162947429Y-104357714D02*
X162985524Y-104433904D01*
X162985524Y-104433904D02*
X163023619Y-104472000D01*
X163023619Y-104472000D02*
X163099810Y-104510095D01*
X163099810Y-104510095D02*
X163252191Y-104510095D01*
X163252191Y-104510095D02*
X163328381Y-104472000D01*
X163328381Y-104472000D02*
X163366476Y-104433904D01*
X163366476Y-104433904D02*
X163404572Y-104357714D01*
X163404572Y-104357714D02*
X163404572Y-103710095D01*
X163785524Y-104510095D02*
X163785524Y-103710095D01*
X163785524Y-103710095D02*
X164090286Y-103710095D01*
X164090286Y-103710095D02*
X164166476Y-103748190D01*
X164166476Y-103748190D02*
X164204571Y-103786285D01*
X164204571Y-103786285D02*
X164242667Y-103862476D01*
X164242667Y-103862476D02*
X164242667Y-103976761D01*
X164242667Y-103976761D02*
X164204571Y-104052952D01*
X164204571Y-104052952D02*
X164166476Y-104091047D01*
X164166476Y-104091047D02*
X164090286Y-104129142D01*
X164090286Y-104129142D02*
X163785524Y-104129142D01*
%TO.C,SHORT1*%
X141738429Y-103710095D02*
X141738429Y-104357714D01*
X141738429Y-104357714D02*
X141776524Y-104433904D01*
X141776524Y-104433904D02*
X141814619Y-104472000D01*
X141814619Y-104472000D02*
X141890810Y-104510095D01*
X141890810Y-104510095D02*
X142043191Y-104510095D01*
X142043191Y-104510095D02*
X142119381Y-104472000D01*
X142119381Y-104472000D02*
X142157476Y-104433904D01*
X142157476Y-104433904D02*
X142195572Y-104357714D01*
X142195572Y-104357714D02*
X142195572Y-103710095D01*
X142576524Y-104510095D02*
X142576524Y-103710095D01*
X142576524Y-103710095D02*
X142881286Y-103710095D01*
X142881286Y-103710095D02*
X142957476Y-103748190D01*
X142957476Y-103748190D02*
X142995571Y-103786285D01*
X142995571Y-103786285D02*
X143033667Y-103862476D01*
X143033667Y-103862476D02*
X143033667Y-103976761D01*
X143033667Y-103976761D02*
X142995571Y-104052952D01*
X142995571Y-104052952D02*
X142957476Y-104091047D01*
X142957476Y-104091047D02*
X142881286Y-104129142D01*
X142881286Y-104129142D02*
X142576524Y-104129142D01*
X135896429Y-104510095D02*
X135896429Y-103710095D01*
X135896429Y-103710095D02*
X136086905Y-103710095D01*
X136086905Y-103710095D02*
X136201191Y-103748190D01*
X136201191Y-103748190D02*
X136277381Y-103824380D01*
X136277381Y-103824380D02*
X136315476Y-103900571D01*
X136315476Y-103900571D02*
X136353572Y-104052952D01*
X136353572Y-104052952D02*
X136353572Y-104167238D01*
X136353572Y-104167238D02*
X136315476Y-104319619D01*
X136315476Y-104319619D02*
X136277381Y-104395809D01*
X136277381Y-104395809D02*
X136201191Y-104472000D01*
X136201191Y-104472000D02*
X136086905Y-104510095D01*
X136086905Y-104510095D02*
X135896429Y-104510095D01*
X136696429Y-104510095D02*
X136696429Y-103710095D01*
X136696429Y-103710095D02*
X137153572Y-104510095D01*
X137153572Y-104510095D02*
X137153572Y-103710095D01*
D14*
%TO.C,IN1*%
X128972000Y-102235000D02*
X128972000Y-92015000D01*
X131632000Y-103505000D02*
X131632000Y-104835000D01*
X131632000Y-102235000D02*
X131632000Y-92015000D01*
X131632000Y-92015000D02*
X128972000Y-92015000D01*
X131632000Y-102235000D02*
X128972000Y-102235000D01*
X131632000Y-104835000D02*
X130302000Y-104835000D01*
%TO.C,74HC165_2*%
X153476000Y-100059000D02*
X153476000Y-98409000D01*
X153476000Y-94759000D02*
X133036000Y-94759000D01*
X153476000Y-96409000D02*
X153476000Y-94759000D01*
X133036000Y-100059000D02*
X153476000Y-100059000D01*
X133036000Y-94759000D02*
X133036000Y-100059000D01*
X153476000Y-96409000D02*
G75*
G03*
X153476000Y-98409000I0J-1000000D01*
G01*
%TO.C,74HC165_1*%
X154118000Y-100059000D02*
X174558000Y-100059000D01*
X174558000Y-94759000D02*
X154118000Y-94759000D01*
X154118000Y-94759000D02*
X154118000Y-100059000D01*
X174558000Y-100059000D02*
X174558000Y-98409000D01*
X174558000Y-96409000D02*
X174558000Y-94759000D01*
X174558000Y-96409000D02*
G75*
G03*
X174558000Y-98409000I0J-1000000D01*
G01*
%TO.C,RN1*%
X177462000Y-90554000D02*
X177462000Y-87754000D01*
X154262000Y-90554000D02*
X177462000Y-90554000D01*
X177462000Y-87754000D02*
X154262000Y-87754000D01*
X154262000Y-87754000D02*
X154262000Y-90554000D01*
X174752000Y-90554000D02*
X174752000Y-87754000D01*
%TO.C,J1*%
X174244000Y-82871000D02*
X131004000Y-82871000D01*
X131004000Y-82871000D02*
X131004000Y-85531000D01*
X175514000Y-82871000D02*
X176844000Y-82871000D01*
X174244000Y-85531000D02*
X131004000Y-85531000D01*
X176844000Y-82871000D02*
X176844000Y-84201000D01*
X174244000Y-82871000D02*
X174244000Y-85531000D01*
%TO.C,RN2*%
X133096000Y-87754000D02*
X133096000Y-90554000D01*
X153586000Y-90554000D02*
X153586000Y-87754000D01*
X130386000Y-90554000D02*
X153586000Y-90554000D01*
X130386000Y-87754000D02*
X130386000Y-90554000D01*
X153586000Y-87754000D02*
X130386000Y-87754000D01*
%TO.C,OUT1*%
X178876000Y-92015000D02*
X176216000Y-92015000D01*
X178876000Y-102235000D02*
X176216000Y-102235000D01*
X176216000Y-102235000D02*
X176216000Y-92015000D01*
X178876000Y-102235000D02*
X178876000Y-92015000D01*
X178876000Y-103505000D02*
X178876000Y-104835000D01*
X178876000Y-104835000D02*
X177546000Y-104835000D01*
%TO.C,C2*%
X151916000Y-105210000D02*
X151916000Y-105195000D01*
X147376000Y-105210000D02*
X147376000Y-105195000D01*
X151916000Y-103085000D02*
X151916000Y-103070000D01*
X147376000Y-103085000D02*
X147376000Y-103070000D01*
X151916000Y-103070000D02*
X147376000Y-103070000D01*
X151916000Y-105210000D02*
X147376000Y-105210000D01*
%TO.C,C1*%
X172998000Y-103070000D02*
X168458000Y-103070000D01*
X172998000Y-105210000D02*
X172998000Y-105195000D01*
X172998000Y-105210000D02*
X168458000Y-105210000D01*
X172998000Y-103085000D02*
X172998000Y-103070000D01*
X168458000Y-105210000D02*
X168458000Y-105195000D01*
X168458000Y-103085000D02*
X168458000Y-103070000D01*
%TO.C,PULL1*%
X158605000Y-103140000D02*
X162705000Y-103140000D01*
X162705000Y-105140000D02*
X158605000Y-105140000D01*
X162705000Y-103140000D02*
X162705000Y-105140000D01*
X158605000Y-105140000D02*
X158605000Y-103140000D01*
%TO.C,SHORT1*%
X141496000Y-103140000D02*
X141496000Y-105140000D01*
X137396000Y-105140000D02*
X137396000Y-103140000D01*
X141496000Y-105140000D02*
X137396000Y-105140000D01*
X137396000Y-103140000D02*
X141496000Y-103140000D01*
%TD*%
M02*
