%TF.GenerationSoftware,KiCad,Pcbnew,7.0.1*%
%TF.CreationDate,2023-05-21T17:19:05+09:00*%
%TF.ProjectId,joystick_74hc165_input_1p,6a6f7973-7469-4636-9b5f-373468633136,2*%
%TF.SameCoordinates,Original*%
%TF.FileFunction,Copper,L2,Bot*%
%TF.FilePolarity,Positive*%
%FSLAX46Y46*%
G04 Gerber Fmt 4.6, Leading zero omitted, Abs format (unit mm)*
G04 Created by KiCad (PCBNEW 7.0.1) date 2023-05-21 17:19:05*
%MOMM*%
%LPD*%
G01*
G04 APERTURE LIST*
%TA.AperFunction,ComponentPad*%
%ADD10R,1.700000X1.700000*%
%TD*%
%TA.AperFunction,ComponentPad*%
%ADD11O,1.700000X1.700000*%
%TD*%
%TA.AperFunction,ComponentPad*%
%ADD12R,1.600000X1.600000*%
%TD*%
%TA.AperFunction,ComponentPad*%
%ADD13O,1.600000X1.600000*%
%TD*%
%TA.AperFunction,ComponentPad*%
%ADD14C,1.600000*%
%TD*%
%TA.AperFunction,ViaPad*%
%ADD15C,0.800000*%
%TD*%
%TA.AperFunction,Conductor*%
%ADD16C,0.250000*%
%TD*%
G04 APERTURE END LIST*
D10*
%TO.P,IN1,1,Pin_1*%
%TO.N,VCC*%
X130302000Y-103505000D03*
D11*
%TO.P,IN1,2,Pin_2*%
%TO.N,GND*%
X130302000Y-100965000D03*
%TO.P,IN1,3,Pin_3*%
%TO.N,/LOAD*%
X130302000Y-98425000D03*
%TO.P,IN1,4,Pin_4*%
%TO.N,/CLK*%
X130302000Y-95885000D03*
%TO.P,IN1,5,Pin_5*%
%TO.N,/D_IN*%
X130302000Y-93345000D03*
%TD*%
D12*
%TO.P,74HC165_2,1,~{PL}*%
%TO.N,/LOAD*%
X152146000Y-93599000D03*
D13*
%TO.P,74HC165_2,2,CP*%
%TO.N,/CLK*%
X149606000Y-93599000D03*
%TO.P,74HC165_2,3,D4*%
%TO.N,/C_R*%
X147066000Y-93599000D03*
%TO.P,74HC165_2,4,D5*%
%TO.N,/C_L*%
X144526000Y-93599000D03*
%TO.P,74HC165_2,5,D6*%
%TO.N,/C_Y*%
X141986000Y-93599000D03*
%TO.P,74HC165_2,6,D7*%
%TO.N,/C_X*%
X139446000Y-93599000D03*
%TO.P,74HC165_2,7,~{Q7}*%
%TO.N,unconnected-(74HC165_2-Pad7)*%
X136906000Y-93599000D03*
%TO.P,74HC165_2,8,GND*%
%TO.N,GND*%
X134366000Y-93599000D03*
%TO.P,74HC165_2,9,Q7*%
%TO.N,/Q7*%
X134366000Y-101219000D03*
%TO.P,74HC165_2,10,DS*%
%TO.N,/D_IN*%
X136906000Y-101219000D03*
%TO.P,74HC165_2,11,D0*%
%TO.N,/C_EX4*%
X139446000Y-101219000D03*
%TO.P,74HC165_2,12,D1*%
%TO.N,/C_EX3*%
X141986000Y-101219000D03*
%TO.P,74HC165_2,13,D2*%
%TO.N,/C_EX2*%
X144526000Y-101219000D03*
%TO.P,74HC165_2,14,D3*%
%TO.N,/C_EX1*%
X147066000Y-101219000D03*
%TO.P,74HC165_2,15,~{CE}*%
%TO.N,GND*%
X149606000Y-101219000D03*
%TO.P,74HC165_2,16,VCC*%
%TO.N,VCC*%
X152146000Y-101219000D03*
%TD*%
D12*
%TO.P,74HC165_1,1,~{PL}*%
%TO.N,/LOAD*%
X173228000Y-93599000D03*
D13*
%TO.P,74HC165_1,2,CP*%
%TO.N,/CLK*%
X170688000Y-93599000D03*
%TO.P,74HC165_1,3,D4*%
%TO.N,/C_RIGHT*%
X168148000Y-93599000D03*
%TO.P,74HC165_1,4,D5*%
%TO.N,/C_LEFT*%
X165608000Y-93599000D03*
%TO.P,74HC165_1,5,D6*%
%TO.N,/C_DOWN*%
X163068000Y-93599000D03*
%TO.P,74HC165_1,6,D7*%
%TO.N,/C_UP*%
X160528000Y-93599000D03*
%TO.P,74HC165_1,7,~{Q7}*%
%TO.N,unconnected-(74HC165_1-Pad7)*%
X157988000Y-93599000D03*
%TO.P,74HC165_1,8,GND*%
%TO.N,GND*%
X155448000Y-93599000D03*
%TO.P,74HC165_1,9,Q7*%
%TO.N,/D_OUT*%
X155448000Y-101219000D03*
%TO.P,74HC165_1,10,DS*%
%TO.N,/Q7*%
X157988000Y-101219000D03*
%TO.P,74HC165_1,11,D0*%
%TO.N,/C_B*%
X160528000Y-101219000D03*
%TO.P,74HC165_1,12,D1*%
%TO.N,/C_A*%
X163068000Y-101219000D03*
%TO.P,74HC165_1,13,D2*%
%TO.N,/C_SELECT*%
X165608000Y-101219000D03*
%TO.P,74HC165_1,14,D3*%
%TO.N,/C_START*%
X168148000Y-101219000D03*
%TO.P,74HC165_1,15,~{CE}*%
%TO.N,GND*%
X170688000Y-101219000D03*
%TO.P,74HC165_1,16,VCC*%
%TO.N,VCC*%
X173228000Y-101219000D03*
%TD*%
D12*
%TO.P,RN1,1,common*%
%TO.N,/PULL*%
X176022000Y-89154000D03*
D13*
%TO.P,RN1,2,R1*%
%TO.N,/C_UP*%
X173482000Y-89154000D03*
%TO.P,RN1,3,R2*%
%TO.N,/C_DOWN*%
X170942000Y-89154000D03*
%TO.P,RN1,4,R3*%
%TO.N,/C_LEFT*%
X168402000Y-89154000D03*
%TO.P,RN1,5,R4*%
%TO.N,/C_RIGHT*%
X165862000Y-89154000D03*
%TO.P,RN1,6,R5*%
%TO.N,/C_START*%
X163322000Y-89154000D03*
%TO.P,RN1,7,R6*%
%TO.N,/C_SELECT*%
X160782000Y-89154000D03*
%TO.P,RN1,8,R7*%
%TO.N,/C_A*%
X158242000Y-89154000D03*
%TO.P,RN1,9,R8*%
%TO.N,/C_B*%
X155702000Y-89154000D03*
%TD*%
D10*
%TO.P,J1,1,Pin_1*%
%TO.N,/C_SHORT*%
X175514000Y-84201000D03*
D11*
%TO.P,J1,2,Pin_2*%
%TO.N,/C_UP*%
X172974000Y-84201000D03*
%TO.P,J1,3,Pin_3*%
%TO.N,/C_DOWN*%
X170434000Y-84201000D03*
%TO.P,J1,4,Pin_4*%
%TO.N,/C_LEFT*%
X167894000Y-84201000D03*
%TO.P,J1,5,Pin_5*%
%TO.N,/C_RIGHT*%
X165354000Y-84201000D03*
%TO.P,J1,6,Pin_6*%
%TO.N,/C_START*%
X162814000Y-84201000D03*
%TO.P,J1,7,Pin_7*%
%TO.N,/C_SELECT*%
X160274000Y-84201000D03*
%TO.P,J1,8,Pin_8*%
%TO.N,/C_A*%
X157734000Y-84201000D03*
%TO.P,J1,9,Pin_9*%
%TO.N,/C_B*%
X155194000Y-84201000D03*
%TO.P,J1,10,Pin_10*%
%TO.N,/C_X*%
X152654000Y-84201000D03*
%TO.P,J1,11,Pin_11*%
%TO.N,/C_Y*%
X150114000Y-84201000D03*
%TO.P,J1,12,Pin_12*%
%TO.N,/C_L*%
X147574000Y-84201000D03*
%TO.P,J1,13,Pin_13*%
%TO.N,/C_R*%
X145034000Y-84201000D03*
%TO.P,J1,14,Pin_14*%
%TO.N,/C_EX1*%
X142494000Y-84201000D03*
%TO.P,J1,15,Pin_15*%
%TO.N,/C_EX2*%
X139954000Y-84201000D03*
%TO.P,J1,16,Pin_16*%
%TO.N,/C_EX3*%
X137414000Y-84201000D03*
%TO.P,J1,17,Pin_17*%
%TO.N,/C_EX4*%
X134874000Y-84201000D03*
%TO.P,J1,18,Pin_18*%
%TO.N,/C_SHORT*%
X132334000Y-84201000D03*
%TD*%
D12*
%TO.P,RN2,1,common*%
%TO.N,/PULL*%
X131826000Y-89154000D03*
D13*
%TO.P,RN2,2,R1*%
%TO.N,/C_EX4*%
X134366000Y-89154000D03*
%TO.P,RN2,3,R2*%
%TO.N,/C_EX3*%
X136906000Y-89154000D03*
%TO.P,RN2,4,R3*%
%TO.N,/C_EX2*%
X139446000Y-89154000D03*
%TO.P,RN2,5,R4*%
%TO.N,/C_EX1*%
X141986000Y-89154000D03*
%TO.P,RN2,6,R5*%
%TO.N,/C_R*%
X144526000Y-89154000D03*
%TO.P,RN2,7,R6*%
%TO.N,/C_L*%
X147066000Y-89154000D03*
%TO.P,RN2,8,R7*%
%TO.N,/C_Y*%
X149606000Y-89154000D03*
%TO.P,RN2,9,R8*%
%TO.N,/C_X*%
X152146000Y-89154000D03*
%TD*%
D10*
%TO.P,OUT1,1,Pin_1*%
%TO.N,VCC*%
X177546000Y-103505000D03*
D11*
%TO.P,OUT1,2,Pin_2*%
%TO.N,GND*%
X177546000Y-100965000D03*
%TO.P,OUT1,3,Pin_3*%
%TO.N,/LOAD*%
X177546000Y-98425000D03*
%TO.P,OUT1,4,Pin_4*%
%TO.N,/CLK*%
X177546000Y-95885000D03*
%TO.P,OUT1,5,Pin_5*%
%TO.N,/D_OUT*%
X177546000Y-93345000D03*
%TD*%
D14*
%TO.P,C2,1*%
%TO.N,VCC*%
X152146000Y-104140000D03*
%TO.P,C2,2*%
%TO.N,GND*%
X147146000Y-104140000D03*
%TD*%
%TO.P,C1,1*%
%TO.N,VCC*%
X173228000Y-104140000D03*
%TO.P,C1,2*%
%TO.N,GND*%
X168228000Y-104140000D03*
%TD*%
D15*
%TO.N,/LOAD*%
X152146000Y-98425000D03*
X172085000Y-98425000D03*
%TO.N,/CLK*%
X149606000Y-97155000D03*
X170688000Y-97155000D03*
%TD*%
D16*
%TO.N,/PULL*%
X131826000Y-88773000D02*
X131826000Y-89154000D01*
X174625000Y-86868000D02*
X133731000Y-86868000D01*
X133731000Y-86868000D02*
X131826000Y-88773000D01*
X176022000Y-88265000D02*
X174625000Y-86868000D01*
X176022000Y-89154000D02*
X176022000Y-88265000D01*
%TO.N,/C_UP*%
X174498000Y-94742000D02*
X174498000Y-90170000D01*
X160528000Y-93599000D02*
X162814000Y-95885000D01*
X162814000Y-95885000D02*
X173355000Y-95885000D01*
X173355000Y-95885000D02*
X174498000Y-94742000D01*
X174498000Y-90170000D02*
X173482000Y-89154000D01*
%TO.N,/C_DOWN*%
X171958000Y-90170000D02*
X170942000Y-89154000D01*
X163068000Y-93599000D02*
X164846000Y-95377000D01*
X171958000Y-94615000D02*
X171958000Y-90170000D01*
X164846000Y-95377000D02*
X171196000Y-95377000D01*
X171196000Y-95377000D02*
X171958000Y-94615000D01*
%TO.N,/C_LEFT*%
X169037000Y-94869000D02*
X169418000Y-94488000D01*
X166878000Y-94869000D02*
X169037000Y-94869000D01*
X169418000Y-94488000D02*
X169418000Y-90170000D01*
X165608000Y-93599000D02*
X166878000Y-94869000D01*
X169418000Y-90170000D02*
X168402000Y-89154000D01*
%TO.N,/C_RIGHT*%
X168148000Y-91821000D02*
X165862000Y-89535000D01*
X165862000Y-89535000D02*
X165862000Y-89154000D01*
X168148000Y-93599000D02*
X168148000Y-91821000D01*
%TO.N,/D_OUT*%
X178816000Y-98894002D02*
X178015002Y-99695000D01*
X178015002Y-99695000D02*
X176657000Y-99695000D01*
X173863000Y-102489000D02*
X156718000Y-102489000D01*
X178816000Y-94615000D02*
X178816000Y-98894002D01*
X156718000Y-102489000D02*
X155448000Y-101219000D01*
X176657000Y-99695000D02*
X173863000Y-102489000D01*
X177546000Y-93345000D02*
X178816000Y-94615000D01*
%TO.N,/LOAD*%
X177546000Y-98425000D02*
X172085000Y-98425000D01*
X152146000Y-98425000D02*
X172085000Y-98425000D01*
X130302000Y-98425000D02*
X152146000Y-98425000D01*
%TO.N,/CLK*%
X177546000Y-95885000D02*
X176276000Y-97155000D01*
X149606000Y-97155000D02*
X169164000Y-97155000D01*
X130302000Y-95885000D02*
X131572000Y-97155000D01*
X131572000Y-97155000D02*
X149606000Y-97155000D01*
X170688000Y-97155000D02*
X169164000Y-97155000D01*
X176276000Y-97155000D02*
X170688000Y-97155000D01*
%TO.N,/C_X*%
X152400000Y-95885000D02*
X153416000Y-94869000D01*
X139446000Y-93599000D02*
X141732000Y-95885000D01*
X153416000Y-90424000D02*
X152146000Y-89154000D01*
X141732000Y-95885000D02*
X152400000Y-95885000D01*
X153416000Y-94869000D02*
X153416000Y-90424000D01*
%TO.N,/C_Y*%
X150876000Y-94488000D02*
X150876000Y-90424000D01*
X143764000Y-95377000D02*
X149987000Y-95377000D01*
X150876000Y-90424000D02*
X149606000Y-89154000D01*
X141986000Y-93599000D02*
X143764000Y-95377000D01*
X149987000Y-95377000D02*
X150876000Y-94488000D01*
%TO.N,/Q7*%
X134366000Y-101219000D02*
X136398000Y-99187000D01*
X155956000Y-99187000D02*
X157988000Y-101219000D01*
X136398000Y-99187000D02*
X155956000Y-99187000D01*
%TO.N,/C_R*%
X147066000Y-91694000D02*
X144526000Y-89154000D01*
X147066000Y-93599000D02*
X147066000Y-91694000D01*
%TO.N,/C_L*%
X148336000Y-94361000D02*
X148336000Y-90424000D01*
X148336000Y-90424000D02*
X147066000Y-89154000D01*
X145796000Y-94869000D02*
X147828000Y-94869000D01*
X147828000Y-94869000D02*
X148336000Y-94361000D01*
X144526000Y-93599000D02*
X145796000Y-94869000D01*
%TD*%
%TA.AperFunction,Conductor*%
%TO.N,GND*%
G36*
X171428048Y-99069393D02*
G01*
X171470435Y-99100188D01*
X171473746Y-99103866D01*
X171557600Y-99164789D01*
X171628248Y-99216118D01*
X171802712Y-99293794D01*
X171989513Y-99333500D01*
X172180485Y-99333500D01*
X172180487Y-99333500D01*
X172367288Y-99293794D01*
X172541752Y-99216118D01*
X172696253Y-99103866D01*
X172699564Y-99100188D01*
X172741952Y-99069393D01*
X172793200Y-99058500D01*
X176093405Y-99058500D01*
X176150608Y-99072233D01*
X176195341Y-99110439D01*
X176217854Y-99164789D01*
X176213238Y-99223436D01*
X176182501Y-99273593D01*
X174933546Y-100522548D01*
X174660777Y-100795317D01*
X174609571Y-100826389D01*
X174549802Y-100830307D01*
X174494978Y-100806183D01*
X174457487Y-100759470D01*
X174408803Y-100655067D01*
X174365523Y-100562251D01*
X174234198Y-100374700D01*
X174234197Y-100374699D01*
X174234195Y-100374696D01*
X174072303Y-100212804D01*
X173884750Y-100081477D01*
X173677243Y-99984715D01*
X173456087Y-99925457D01*
X173228000Y-99905502D01*
X172999912Y-99925457D01*
X172778756Y-99984715D01*
X172571249Y-100081477D01*
X172383696Y-100212804D01*
X172221804Y-100374696D01*
X172090477Y-100562250D01*
X172071919Y-100602049D01*
X172025424Y-100655066D01*
X171957724Y-100674799D01*
X171890024Y-100655066D01*
X171843529Y-100602049D01*
X171825087Y-100562501D01*
X171693810Y-100375018D01*
X171531981Y-100213189D01*
X171344498Y-100081912D01*
X171137070Y-99985186D01*
X170941999Y-99932917D01*
X170942000Y-99932918D01*
X170942000Y-101347000D01*
X170925119Y-101410000D01*
X170879000Y-101456119D01*
X170816000Y-101473000D01*
X170560000Y-101473000D01*
X170497000Y-101456119D01*
X170450881Y-101410000D01*
X170434000Y-101347000D01*
X170434000Y-99932917D01*
X170238929Y-99985186D01*
X170031501Y-100081912D01*
X169844018Y-100213189D01*
X169682189Y-100375018D01*
X169550911Y-100562502D01*
X169532469Y-100602051D01*
X169485973Y-100655067D01*
X169418273Y-100674799D01*
X169350573Y-100655065D01*
X169304081Y-100602049D01*
X169285523Y-100562251D01*
X169154198Y-100374700D01*
X169154197Y-100374699D01*
X169154195Y-100374696D01*
X168992303Y-100212804D01*
X168804750Y-100081477D01*
X168597243Y-99984715D01*
X168376087Y-99925457D01*
X168148000Y-99905502D01*
X167919912Y-99925457D01*
X167698756Y-99984715D01*
X167491249Y-100081477D01*
X167303696Y-100212804D01*
X167141804Y-100374696D01*
X167010477Y-100562250D01*
X166992195Y-100601457D01*
X166945700Y-100654474D01*
X166878000Y-100674207D01*
X166810300Y-100654474D01*
X166763805Y-100601457D01*
X166745640Y-100562502D01*
X166745523Y-100562251D01*
X166614198Y-100374700D01*
X166614197Y-100374699D01*
X166614195Y-100374696D01*
X166452303Y-100212804D01*
X166264750Y-100081477D01*
X166057243Y-99984715D01*
X165836087Y-99925457D01*
X165608000Y-99905502D01*
X165379912Y-99925457D01*
X165158756Y-99984715D01*
X164951249Y-100081477D01*
X164763696Y-100212804D01*
X164601804Y-100374696D01*
X164470477Y-100562250D01*
X164452195Y-100601457D01*
X164405700Y-100654474D01*
X164338000Y-100674207D01*
X164270300Y-100654474D01*
X164223805Y-100601457D01*
X164205640Y-100562502D01*
X164205523Y-100562251D01*
X164074198Y-100374700D01*
X164074197Y-100374699D01*
X164074195Y-100374696D01*
X163912303Y-100212804D01*
X163724750Y-100081477D01*
X163517243Y-99984715D01*
X163296087Y-99925457D01*
X163068000Y-99905502D01*
X162839912Y-99925457D01*
X162618756Y-99984715D01*
X162411249Y-100081477D01*
X162223696Y-100212804D01*
X162061804Y-100374696D01*
X161930477Y-100562250D01*
X161912195Y-100601457D01*
X161865700Y-100654474D01*
X161798000Y-100674207D01*
X161730300Y-100654474D01*
X161683805Y-100601457D01*
X161665640Y-100562502D01*
X161665523Y-100562251D01*
X161534198Y-100374700D01*
X161534197Y-100374699D01*
X161534195Y-100374696D01*
X161372303Y-100212804D01*
X161184750Y-100081477D01*
X160977243Y-99984715D01*
X160756087Y-99925457D01*
X160528000Y-99905502D01*
X160299912Y-99925457D01*
X160078756Y-99984715D01*
X159871249Y-100081477D01*
X159683696Y-100212804D01*
X159521804Y-100374696D01*
X159390477Y-100562250D01*
X159372195Y-100601457D01*
X159325700Y-100654474D01*
X159258000Y-100674207D01*
X159190300Y-100654474D01*
X159143805Y-100601457D01*
X159125640Y-100562502D01*
X159125523Y-100562251D01*
X158994198Y-100374700D01*
X158994197Y-100374699D01*
X158994195Y-100374696D01*
X158832303Y-100212804D01*
X158644750Y-100081477D01*
X158437243Y-99984715D01*
X158216087Y-99925457D01*
X157988000Y-99905502D01*
X157759910Y-99925457D01*
X157696457Y-99942459D01*
X157631235Y-99942458D01*
X157574752Y-99909847D01*
X156938500Y-99273595D01*
X156907762Y-99223436D01*
X156903146Y-99164789D01*
X156925659Y-99110439D01*
X156970392Y-99072233D01*
X157027595Y-99058500D01*
X171376800Y-99058500D01*
X171428048Y-99069393D01*
G37*
%TD.AperFunction*%
%TA.AperFunction,Conductor*%
G36*
X174358624Y-87511091D02*
G01*
X174399501Y-87538405D01*
X174778581Y-87917485D01*
X174809503Y-87968214D01*
X174813742Y-88027473D01*
X174790355Y-88082088D01*
X174771111Y-88107795D01*
X174720011Y-88244800D01*
X174719000Y-88254202D01*
X174698291Y-88311025D01*
X174653490Y-88351653D01*
X174594919Y-88366724D01*
X174536072Y-88352768D01*
X174490508Y-88312999D01*
X174488195Y-88309696D01*
X174326303Y-88147804D01*
X174138750Y-88016477D01*
X173931243Y-87919715D01*
X173710087Y-87860457D01*
X173710086Y-87860456D01*
X173482000Y-87840502D01*
X173481999Y-87840502D01*
X173253912Y-87860457D01*
X173032756Y-87919715D01*
X172825249Y-88016477D01*
X172637696Y-88147804D01*
X172475804Y-88309696D01*
X172344477Y-88497250D01*
X172326195Y-88536457D01*
X172279700Y-88589474D01*
X172212000Y-88609207D01*
X172144300Y-88589474D01*
X172097805Y-88536457D01*
X172095894Y-88532359D01*
X172079523Y-88497251D01*
X171948198Y-88309700D01*
X171948197Y-88309699D01*
X171948195Y-88309696D01*
X171786303Y-88147804D01*
X171598750Y-88016477D01*
X171391243Y-87919715D01*
X171170087Y-87860457D01*
X171170086Y-87860456D01*
X170942000Y-87840502D01*
X170941999Y-87840502D01*
X170713912Y-87860457D01*
X170492756Y-87919715D01*
X170285249Y-88016477D01*
X170097696Y-88147804D01*
X169935804Y-88309696D01*
X169804477Y-88497250D01*
X169786195Y-88536457D01*
X169739700Y-88589474D01*
X169672000Y-88609207D01*
X169604300Y-88589474D01*
X169557805Y-88536457D01*
X169555894Y-88532359D01*
X169539523Y-88497251D01*
X169408198Y-88309700D01*
X169408197Y-88309699D01*
X169408195Y-88309696D01*
X169246303Y-88147804D01*
X169058750Y-88016477D01*
X168851243Y-87919715D01*
X168630087Y-87860457D01*
X168630086Y-87860456D01*
X168402000Y-87840502D01*
X168401999Y-87840502D01*
X168173912Y-87860457D01*
X167952756Y-87919715D01*
X167745249Y-88016477D01*
X167557696Y-88147804D01*
X167395804Y-88309696D01*
X167264477Y-88497250D01*
X167246195Y-88536457D01*
X167199700Y-88589474D01*
X167132000Y-88609207D01*
X167064300Y-88589474D01*
X167017805Y-88536457D01*
X167015894Y-88532359D01*
X166999523Y-88497251D01*
X166868198Y-88309700D01*
X166868197Y-88309699D01*
X166868195Y-88309696D01*
X166706303Y-88147804D01*
X166518750Y-88016477D01*
X166311243Y-87919715D01*
X166090087Y-87860457D01*
X166090086Y-87860456D01*
X165862000Y-87840502D01*
X165861999Y-87840502D01*
X165633912Y-87860457D01*
X165412756Y-87919715D01*
X165205249Y-88016477D01*
X165017696Y-88147804D01*
X164855804Y-88309696D01*
X164724477Y-88497250D01*
X164706195Y-88536457D01*
X164659700Y-88589474D01*
X164592000Y-88609207D01*
X164524300Y-88589474D01*
X164477805Y-88536457D01*
X164475894Y-88532359D01*
X164459523Y-88497251D01*
X164328198Y-88309700D01*
X164328197Y-88309699D01*
X164328195Y-88309696D01*
X164166303Y-88147804D01*
X163978750Y-88016477D01*
X163771243Y-87919715D01*
X163550087Y-87860457D01*
X163550086Y-87860456D01*
X163322000Y-87840502D01*
X163321999Y-87840502D01*
X163093912Y-87860457D01*
X162872756Y-87919715D01*
X162665249Y-88016477D01*
X162477696Y-88147804D01*
X162315804Y-88309696D01*
X162184477Y-88497250D01*
X162166195Y-88536457D01*
X162119700Y-88589474D01*
X162052000Y-88609207D01*
X161984300Y-88589474D01*
X161937805Y-88536457D01*
X161935894Y-88532359D01*
X161919523Y-88497251D01*
X161788198Y-88309700D01*
X161788197Y-88309699D01*
X161788195Y-88309696D01*
X161626303Y-88147804D01*
X161438750Y-88016477D01*
X161231243Y-87919715D01*
X161010087Y-87860457D01*
X161010086Y-87860456D01*
X160782000Y-87840502D01*
X160781999Y-87840502D01*
X160553912Y-87860457D01*
X160332756Y-87919715D01*
X160125249Y-88016477D01*
X159937696Y-88147804D01*
X159775804Y-88309696D01*
X159644477Y-88497250D01*
X159626195Y-88536457D01*
X159579700Y-88589474D01*
X159512000Y-88609207D01*
X159444300Y-88589474D01*
X159397805Y-88536457D01*
X159395894Y-88532359D01*
X159379523Y-88497251D01*
X159248198Y-88309700D01*
X159248197Y-88309699D01*
X159248195Y-88309696D01*
X159086303Y-88147804D01*
X158898750Y-88016477D01*
X158691243Y-87919715D01*
X158470087Y-87860457D01*
X158470086Y-87860456D01*
X158242000Y-87840502D01*
X158241999Y-87840502D01*
X158013912Y-87860457D01*
X157792756Y-87919715D01*
X157585249Y-88016477D01*
X157397696Y-88147804D01*
X157235804Y-88309696D01*
X157104477Y-88497250D01*
X157086195Y-88536457D01*
X157039700Y-88589474D01*
X156972000Y-88609207D01*
X156904300Y-88589474D01*
X156857805Y-88536457D01*
X156855894Y-88532359D01*
X156839523Y-88497251D01*
X156708198Y-88309700D01*
X156708197Y-88309699D01*
X156708195Y-88309696D01*
X156546303Y-88147804D01*
X156358750Y-88016477D01*
X156151243Y-87919715D01*
X155930087Y-87860457D01*
X155930086Y-87860456D01*
X155702000Y-87840502D01*
X155701999Y-87840502D01*
X155473912Y-87860457D01*
X155252756Y-87919715D01*
X155045249Y-88016477D01*
X154857696Y-88147804D01*
X154695804Y-88309696D01*
X154564477Y-88497249D01*
X154467715Y-88704756D01*
X154408457Y-88925912D01*
X154388502Y-89154000D01*
X154408457Y-89382087D01*
X154467715Y-89603243D01*
X154564477Y-89810750D01*
X154695804Y-89998303D01*
X154857696Y-90160195D01*
X154857699Y-90160197D01*
X154857700Y-90160198D01*
X154872280Y-90170407D01*
X155045249Y-90291522D01*
X155252756Y-90388284D01*
X155306621Y-90402717D01*
X155473913Y-90447543D01*
X155702000Y-90467498D01*
X155930087Y-90447543D01*
X156151243Y-90388284D01*
X156358749Y-90291523D01*
X156546300Y-90160198D01*
X156708198Y-89998300D01*
X156839523Y-89810749D01*
X156857804Y-89771543D01*
X156904300Y-89718525D01*
X156972000Y-89698792D01*
X157039700Y-89718525D01*
X157086195Y-89771543D01*
X157104476Y-89810748D01*
X157235804Y-89998303D01*
X157397696Y-90160195D01*
X157397699Y-90160197D01*
X157397700Y-90160198D01*
X157412280Y-90170407D01*
X157585249Y-90291522D01*
X157792756Y-90388284D01*
X157846621Y-90402717D01*
X158013913Y-90447543D01*
X158242000Y-90467498D01*
X158470087Y-90447543D01*
X158691243Y-90388284D01*
X158898749Y-90291523D01*
X159086300Y-90160198D01*
X159248198Y-89998300D01*
X159379523Y-89810749D01*
X159397804Y-89771543D01*
X159444300Y-89718525D01*
X159512000Y-89698792D01*
X159579700Y-89718525D01*
X159626195Y-89771543D01*
X159644476Y-89810748D01*
X159775804Y-89998303D01*
X159937696Y-90160195D01*
X159937699Y-90160197D01*
X159937700Y-90160198D01*
X159952280Y-90170407D01*
X160125249Y-90291522D01*
X160332756Y-90388284D01*
X160386621Y-90402717D01*
X160553913Y-90447543D01*
X160782000Y-90467498D01*
X161010087Y-90447543D01*
X161231243Y-90388284D01*
X161438749Y-90291523D01*
X161626300Y-90160198D01*
X161788198Y-89998300D01*
X161919523Y-89810749D01*
X161937804Y-89771543D01*
X161984300Y-89718525D01*
X162052000Y-89698792D01*
X162119700Y-89718525D01*
X162166195Y-89771543D01*
X162184476Y-89810748D01*
X162315804Y-89998303D01*
X162477696Y-90160195D01*
X162477699Y-90160197D01*
X162477700Y-90160198D01*
X162492280Y-90170407D01*
X162665249Y-90291522D01*
X162872756Y-90388284D01*
X162926621Y-90402717D01*
X163093913Y-90447543D01*
X163322000Y-90467498D01*
X163550087Y-90447543D01*
X163771243Y-90388284D01*
X163978749Y-90291523D01*
X164166300Y-90160198D01*
X164328198Y-89998300D01*
X164459523Y-89810749D01*
X164477804Y-89771543D01*
X164524300Y-89718525D01*
X164592000Y-89698792D01*
X164659700Y-89718525D01*
X164706195Y-89771543D01*
X164724476Y-89810748D01*
X164855804Y-89998303D01*
X165017696Y-90160195D01*
X165017699Y-90160197D01*
X165017700Y-90160198D01*
X165032280Y-90170407D01*
X165205249Y-90291522D01*
X165412756Y-90388284D01*
X165466621Y-90402717D01*
X165633913Y-90447543D01*
X165856424Y-90467010D01*
X165898685Y-90478334D01*
X165934530Y-90503434D01*
X167477595Y-92046499D01*
X167504909Y-92087376D01*
X167514500Y-92135594D01*
X167514500Y-92379607D01*
X167500263Y-92437787D01*
X167460772Y-92482818D01*
X167392659Y-92530511D01*
X167303696Y-92592804D01*
X167141804Y-92754696D01*
X167010477Y-92942250D01*
X166992195Y-92981457D01*
X166945700Y-93034474D01*
X166878000Y-93054207D01*
X166810300Y-93034474D01*
X166763805Y-92981457D01*
X166761894Y-92977359D01*
X166745523Y-92942251D01*
X166614198Y-92754700D01*
X166614197Y-92754699D01*
X166614195Y-92754696D01*
X166452303Y-92592804D01*
X166264750Y-92461477D01*
X166057243Y-92364715D01*
X165836087Y-92305457D01*
X165665127Y-92290500D01*
X165608000Y-92285502D01*
X165607999Y-92285502D01*
X165379912Y-92305457D01*
X165158756Y-92364715D01*
X164951249Y-92461477D01*
X164763696Y-92592804D01*
X164601804Y-92754696D01*
X164470477Y-92942250D01*
X164452195Y-92981457D01*
X164405700Y-93034474D01*
X164338000Y-93054207D01*
X164270300Y-93034474D01*
X164223805Y-92981457D01*
X164221894Y-92977359D01*
X164205523Y-92942251D01*
X164074198Y-92754700D01*
X164074197Y-92754699D01*
X164074195Y-92754696D01*
X163912303Y-92592804D01*
X163724750Y-92461477D01*
X163517243Y-92364715D01*
X163296087Y-92305457D01*
X163125127Y-92290500D01*
X163068000Y-92285502D01*
X163067999Y-92285502D01*
X162839912Y-92305457D01*
X162618756Y-92364715D01*
X162411249Y-92461477D01*
X162223696Y-92592804D01*
X162061804Y-92754696D01*
X161930477Y-92942250D01*
X161912195Y-92981457D01*
X161865700Y-93034474D01*
X161798000Y-93054207D01*
X161730300Y-93034474D01*
X161683805Y-92981457D01*
X161681894Y-92977359D01*
X161665523Y-92942251D01*
X161534198Y-92754700D01*
X161534197Y-92754699D01*
X161534195Y-92754696D01*
X161372303Y-92592804D01*
X161184750Y-92461477D01*
X160977243Y-92364715D01*
X160756087Y-92305457D01*
X160585127Y-92290500D01*
X160528000Y-92285502D01*
X160527999Y-92285502D01*
X160299912Y-92305457D01*
X160078756Y-92364715D01*
X159871249Y-92461477D01*
X159683696Y-92592804D01*
X159521804Y-92754696D01*
X159390477Y-92942250D01*
X159372195Y-92981457D01*
X159325700Y-93034474D01*
X159258000Y-93054207D01*
X159190300Y-93034474D01*
X159143805Y-92981457D01*
X159141894Y-92977359D01*
X159125523Y-92942251D01*
X158994198Y-92754700D01*
X158994197Y-92754699D01*
X158994195Y-92754696D01*
X158832303Y-92592804D01*
X158644750Y-92461477D01*
X158437243Y-92364715D01*
X158216087Y-92305457D01*
X158045127Y-92290500D01*
X157988000Y-92285502D01*
X157987999Y-92285502D01*
X157759912Y-92305457D01*
X157538756Y-92364715D01*
X157331249Y-92461477D01*
X157143696Y-92592804D01*
X156981804Y-92754696D01*
X156850477Y-92942250D01*
X156831919Y-92982049D01*
X156785424Y-93035066D01*
X156717724Y-93054799D01*
X156650024Y-93035066D01*
X156603529Y-92982049D01*
X156585087Y-92942501D01*
X156453810Y-92755018D01*
X156291981Y-92593189D01*
X156104498Y-92461912D01*
X155897070Y-92365186D01*
X155701999Y-92312917D01*
X155702000Y-92312918D01*
X155702000Y-94885082D01*
X155897070Y-94832813D01*
X156104498Y-94736087D01*
X156291981Y-94604810D01*
X156453810Y-94442981D01*
X156585088Y-94255497D01*
X156603529Y-94215951D01*
X156650024Y-94162933D01*
X156717724Y-94143200D01*
X156785424Y-94162933D01*
X156831919Y-94215951D01*
X156850476Y-94255748D01*
X156981804Y-94443303D01*
X157143696Y-94605195D01*
X157331249Y-94736522D01*
X157538756Y-94833284D01*
X157582627Y-94845039D01*
X157759913Y-94892543D01*
X157988000Y-94912498D01*
X158216087Y-94892543D01*
X158437243Y-94833284D01*
X158644749Y-94736523D01*
X158832300Y-94605198D01*
X158994198Y-94443300D01*
X159125523Y-94255749D01*
X159143804Y-94216543D01*
X159190300Y-94163525D01*
X159258000Y-94143792D01*
X159325700Y-94163525D01*
X159372195Y-94216543D01*
X159390476Y-94255748D01*
X159521804Y-94443303D01*
X159683696Y-94605195D01*
X159871249Y-94736522D01*
X160078756Y-94833284D01*
X160122627Y-94845039D01*
X160299913Y-94892543D01*
X160528000Y-94912498D01*
X160756087Y-94892543D01*
X160819542Y-94875540D01*
X160884764Y-94875540D01*
X160941248Y-94908152D01*
X162306751Y-96273655D01*
X162319835Y-96289986D01*
X162334386Y-96303650D01*
X162366950Y-96353564D01*
X162372931Y-96412861D01*
X162350992Y-96468274D01*
X162306040Y-96507405D01*
X162248133Y-96521500D01*
X152963593Y-96521500D01*
X152906390Y-96507767D01*
X152861657Y-96469561D01*
X152839144Y-96415211D01*
X152843760Y-96356564D01*
X152874495Y-96306407D01*
X153804661Y-95376241D01*
X153820979Y-95363171D01*
X153823018Y-95361000D01*
X153869661Y-95311328D01*
X153872352Y-95308551D01*
X153892135Y-95288770D01*
X153894621Y-95285564D01*
X153902310Y-95276561D01*
X153932586Y-95244321D01*
X153942342Y-95226571D01*
X153953195Y-95210050D01*
X153965614Y-95194041D01*
X153983175Y-95153454D01*
X153988388Y-95142813D01*
X154009695Y-95104060D01*
X154014733Y-95084434D01*
X154021137Y-95065732D01*
X154029181Y-95047144D01*
X154036096Y-95003482D01*
X154038504Y-94991853D01*
X154049500Y-94949030D01*
X154049500Y-94928776D01*
X154051051Y-94909066D01*
X154054220Y-94889057D01*
X154050059Y-94845039D01*
X154049500Y-94833181D01*
X154049500Y-94263248D01*
X154067497Y-94198353D01*
X154116347Y-94151997D01*
X154182094Y-94137421D01*
X154245958Y-94158789D01*
X154289695Y-94209998D01*
X154310912Y-94255498D01*
X154442189Y-94442981D01*
X154604018Y-94604810D01*
X154791501Y-94736087D01*
X154998929Y-94832813D01*
X155194000Y-94885082D01*
X155194000Y-92312917D01*
X154998929Y-92365186D01*
X154791501Y-92461912D01*
X154604018Y-92593189D01*
X154442189Y-92755018D01*
X154310912Y-92942501D01*
X154289695Y-92988002D01*
X154245958Y-93039211D01*
X154182094Y-93060579D01*
X154116347Y-93046003D01*
X154067497Y-92999647D01*
X154049500Y-92934752D01*
X154049500Y-90507853D01*
X154051795Y-90487064D01*
X154051043Y-90463152D01*
X154049562Y-90416014D01*
X154049500Y-90412055D01*
X154049500Y-90384149D01*
X154049500Y-90384144D01*
X154048992Y-90380131D01*
X154048061Y-90368297D01*
X154046673Y-90324110D01*
X154041020Y-90304656D01*
X154037012Y-90285298D01*
X154034474Y-90265203D01*
X154018190Y-90224077D01*
X154014359Y-90212888D01*
X154002018Y-90170407D01*
X153991704Y-90152968D01*
X153983008Y-90135216D01*
X153981000Y-90130144D01*
X153975552Y-90116383D01*
X153949571Y-90080624D01*
X153943050Y-90070698D01*
X153920542Y-90032637D01*
X153906213Y-90018308D01*
X153893376Y-90003277D01*
X153881473Y-89986893D01*
X153847406Y-89958711D01*
X153838626Y-89950721D01*
X153455151Y-89567246D01*
X153422539Y-89510761D01*
X153422539Y-89445541D01*
X153439543Y-89382087D01*
X153459498Y-89154000D01*
X153439543Y-88925913D01*
X153380284Y-88704757D01*
X153377500Y-88698787D01*
X153283522Y-88497249D01*
X153152195Y-88309696D01*
X152990303Y-88147804D01*
X152802750Y-88016477D01*
X152595243Y-87919715D01*
X152374087Y-87860457D01*
X152374086Y-87860456D01*
X152146000Y-87840502D01*
X152145999Y-87840502D01*
X151917912Y-87860457D01*
X151696756Y-87919715D01*
X151489249Y-88016477D01*
X151301696Y-88147804D01*
X151139804Y-88309696D01*
X151008477Y-88497250D01*
X150990195Y-88536457D01*
X150943700Y-88589474D01*
X150876000Y-88609207D01*
X150808300Y-88589474D01*
X150761805Y-88536457D01*
X150759894Y-88532359D01*
X150743523Y-88497251D01*
X150612198Y-88309700D01*
X150612197Y-88309699D01*
X150612195Y-88309696D01*
X150450303Y-88147804D01*
X150262750Y-88016477D01*
X150055243Y-87919715D01*
X149834087Y-87860457D01*
X149834086Y-87860456D01*
X149606000Y-87840502D01*
X149605999Y-87840502D01*
X149377912Y-87860457D01*
X149156756Y-87919715D01*
X148949249Y-88016477D01*
X148761696Y-88147804D01*
X148599804Y-88309696D01*
X148468477Y-88497250D01*
X148450195Y-88536457D01*
X148403700Y-88589474D01*
X148336000Y-88609207D01*
X148268300Y-88589474D01*
X148221805Y-88536457D01*
X148219894Y-88532359D01*
X148203523Y-88497251D01*
X148072198Y-88309700D01*
X148072197Y-88309699D01*
X148072195Y-88309696D01*
X147910303Y-88147804D01*
X147722750Y-88016477D01*
X147515243Y-87919715D01*
X147294087Y-87860457D01*
X147294086Y-87860456D01*
X147066000Y-87840502D01*
X147065999Y-87840502D01*
X146837912Y-87860457D01*
X146616756Y-87919715D01*
X146409249Y-88016477D01*
X146221696Y-88147804D01*
X146059804Y-88309696D01*
X145928477Y-88497250D01*
X145910195Y-88536457D01*
X145863700Y-88589474D01*
X145796000Y-88609207D01*
X145728300Y-88589474D01*
X145681805Y-88536457D01*
X145679894Y-88532359D01*
X145663523Y-88497251D01*
X145532198Y-88309700D01*
X145532197Y-88309699D01*
X145532195Y-88309696D01*
X145370303Y-88147804D01*
X145182750Y-88016477D01*
X144975243Y-87919715D01*
X144754087Y-87860457D01*
X144754086Y-87860456D01*
X144526000Y-87840502D01*
X144525999Y-87840502D01*
X144297912Y-87860457D01*
X144076756Y-87919715D01*
X143869249Y-88016477D01*
X143681696Y-88147804D01*
X143519804Y-88309696D01*
X143388477Y-88497250D01*
X143370195Y-88536457D01*
X143323700Y-88589474D01*
X143256000Y-88609207D01*
X143188300Y-88589474D01*
X143141805Y-88536457D01*
X143139894Y-88532359D01*
X143123523Y-88497251D01*
X142992198Y-88309700D01*
X142992197Y-88309699D01*
X142992195Y-88309696D01*
X142830303Y-88147804D01*
X142642750Y-88016477D01*
X142435243Y-87919715D01*
X142214087Y-87860457D01*
X142214086Y-87860456D01*
X141986000Y-87840502D01*
X141985999Y-87840502D01*
X141757912Y-87860457D01*
X141536756Y-87919715D01*
X141329249Y-88016477D01*
X141141696Y-88147804D01*
X140979804Y-88309696D01*
X140848477Y-88497250D01*
X140830195Y-88536457D01*
X140783700Y-88589474D01*
X140716000Y-88609207D01*
X140648300Y-88589474D01*
X140601805Y-88536457D01*
X140599894Y-88532359D01*
X140583523Y-88497251D01*
X140452198Y-88309700D01*
X140452197Y-88309699D01*
X140452195Y-88309696D01*
X140290303Y-88147804D01*
X140102750Y-88016477D01*
X139895243Y-87919715D01*
X139674087Y-87860457D01*
X139674086Y-87860456D01*
X139446000Y-87840502D01*
X139445999Y-87840502D01*
X139217912Y-87860457D01*
X138996756Y-87919715D01*
X138789249Y-88016477D01*
X138601696Y-88147804D01*
X138439804Y-88309696D01*
X138308477Y-88497250D01*
X138290195Y-88536457D01*
X138243700Y-88589474D01*
X138176000Y-88609207D01*
X138108300Y-88589474D01*
X138061805Y-88536457D01*
X138059894Y-88532359D01*
X138043523Y-88497251D01*
X137912198Y-88309700D01*
X137912197Y-88309699D01*
X137912195Y-88309696D01*
X137750303Y-88147804D01*
X137562750Y-88016477D01*
X137355243Y-87919715D01*
X137134087Y-87860457D01*
X137134086Y-87860456D01*
X136906000Y-87840502D01*
X136905999Y-87840502D01*
X136677912Y-87860457D01*
X136456756Y-87919715D01*
X136249249Y-88016477D01*
X136061696Y-88147804D01*
X135899804Y-88309696D01*
X135768477Y-88497250D01*
X135750195Y-88536457D01*
X135703700Y-88589474D01*
X135636000Y-88609207D01*
X135568300Y-88589474D01*
X135521805Y-88536457D01*
X135519894Y-88532359D01*
X135503523Y-88497251D01*
X135372198Y-88309700D01*
X135372197Y-88309699D01*
X135372195Y-88309696D01*
X135210303Y-88147804D01*
X135022750Y-88016477D01*
X134815243Y-87919715D01*
X134594087Y-87860457D01*
X134594086Y-87860456D01*
X134366000Y-87840502D01*
X134365999Y-87840502D01*
X134137912Y-87860457D01*
X133906109Y-87922569D01*
X133905206Y-87919201D01*
X133855750Y-87927024D01*
X133791821Y-87899875D01*
X133751990Y-87842976D01*
X133748360Y-87773616D01*
X133782033Y-87712871D01*
X133956500Y-87538404D01*
X133997378Y-87511091D01*
X134045596Y-87501500D01*
X174310406Y-87501500D01*
X174358624Y-87511091D01*
G37*
%TD.AperFunction*%
%TA.AperFunction,Conductor*%
G36*
X177900954Y-80409873D02*
G01*
X177947415Y-80460837D01*
X177960087Y-80528626D01*
X177935174Y-80592932D01*
X177796917Y-80776013D01*
X177698327Y-80974008D01*
X177637795Y-81186756D01*
X177617386Y-81407000D01*
X177637795Y-81627243D01*
X177698327Y-81839991D01*
X177796917Y-82037986D01*
X177796919Y-82037988D01*
X177930214Y-82214500D01*
X178093674Y-82363514D01*
X178093676Y-82363515D01*
X178093677Y-82363516D01*
X178281727Y-82479952D01*
X178281731Y-82479953D01*
X178281732Y-82479954D01*
X178487984Y-82559857D01*
X178705406Y-82600500D01*
X178926592Y-82600500D01*
X178926594Y-82600500D01*
X179144016Y-82559857D01*
X179350268Y-82479954D01*
X179350269Y-82479952D01*
X179350272Y-82479952D01*
X179444296Y-82421734D01*
X179538326Y-82363514D01*
X179621115Y-82288041D01*
X179671518Y-82259967D01*
X179729152Y-82257302D01*
X179781932Y-82280607D01*
X179818791Y-82324994D01*
X179832000Y-82381157D01*
X179832000Y-106086843D01*
X179818791Y-106143006D01*
X179781932Y-106187393D01*
X179729152Y-106210698D01*
X179671518Y-106208033D01*
X179621115Y-106179958D01*
X179538326Y-106104486D01*
X179538323Y-106104484D01*
X179538322Y-106104483D01*
X179350272Y-105988047D01*
X179144016Y-105908143D01*
X178926594Y-105867500D01*
X178705406Y-105867500D01*
X178560458Y-105894595D01*
X178487983Y-105908143D01*
X178281727Y-105988047D01*
X178093677Y-106104483D01*
X177930213Y-106253501D01*
X177796917Y-106430013D01*
X177698327Y-106628008D01*
X177637795Y-106840756D01*
X177617386Y-107061000D01*
X177637795Y-107281243D01*
X177698327Y-107493991D01*
X177796917Y-107691986D01*
X177935174Y-107875068D01*
X177960087Y-107939374D01*
X177947415Y-108007163D01*
X177900954Y-108058127D01*
X177834624Y-108077000D01*
X130013376Y-108077000D01*
X129947046Y-108058127D01*
X129900585Y-108007163D01*
X129887913Y-107939374D01*
X129912826Y-107875068D01*
X129971771Y-107797012D01*
X130051081Y-107691988D01*
X130149673Y-107493989D01*
X130210204Y-107281245D01*
X130230613Y-107061000D01*
X130210204Y-106840755D01*
X130149673Y-106628011D01*
X130078897Y-106485873D01*
X130051082Y-106430013D01*
X129971771Y-106324988D01*
X129917786Y-106253500D01*
X129754326Y-106104486D01*
X129754323Y-106104484D01*
X129754322Y-106104483D01*
X129566272Y-105988047D01*
X129360016Y-105908143D01*
X129142594Y-105867500D01*
X128921406Y-105867500D01*
X128776458Y-105894595D01*
X128703983Y-105908143D01*
X128497727Y-105988047D01*
X128309677Y-106104483D01*
X128309673Y-106104486D01*
X128309674Y-106104486D01*
X128226884Y-106179958D01*
X128176482Y-106208033D01*
X128118848Y-106210698D01*
X128066068Y-106187393D01*
X128029209Y-106143006D01*
X128016000Y-106086843D01*
X128016000Y-105227100D01*
X146418110Y-105227100D01*
X146489497Y-105277085D01*
X146696929Y-105373813D01*
X146918000Y-105433048D01*
X147146000Y-105452995D01*
X147373999Y-105433048D01*
X147595070Y-105373813D01*
X147802498Y-105277087D01*
X147873888Y-105227099D01*
X147873888Y-105227097D01*
X147146001Y-104499210D01*
X147146000Y-104499210D01*
X146418110Y-105227098D01*
X146418110Y-105227100D01*
X128016000Y-105227100D01*
X128016000Y-104403638D01*
X128943500Y-104403638D01*
X128950011Y-104464200D01*
X129001111Y-104601205D01*
X129088738Y-104718261D01*
X129205794Y-104805888D01*
X129205795Y-104805888D01*
X129205796Y-104805889D01*
X129342799Y-104856989D01*
X129403362Y-104863500D01*
X131200638Y-104863500D01*
X131261201Y-104856989D01*
X131398204Y-104805889D01*
X131515261Y-104718261D01*
X131602889Y-104601204D01*
X131653989Y-104464201D01*
X131660500Y-104403638D01*
X131660500Y-104139999D01*
X145833004Y-104139999D01*
X145852951Y-104367999D01*
X145912186Y-104589070D01*
X146008912Y-104796497D01*
X146058900Y-104867887D01*
X146786789Y-104140001D01*
X147505210Y-104140001D01*
X148233097Y-104867888D01*
X148233099Y-104867888D01*
X148283087Y-104796498D01*
X148379813Y-104589070D01*
X148439048Y-104367999D01*
X148458995Y-104139999D01*
X150832502Y-104139999D01*
X150852457Y-104368087D01*
X150911715Y-104589243D01*
X151008477Y-104796750D01*
X151139804Y-104984303D01*
X151301696Y-105146195D01*
X151489249Y-105277522D01*
X151696756Y-105374284D01*
X151756015Y-105390162D01*
X151917913Y-105433543D01*
X152146000Y-105453498D01*
X152374087Y-105433543D01*
X152595243Y-105374284D01*
X152802749Y-105277523D01*
X152874760Y-105227100D01*
X167500110Y-105227100D01*
X167571497Y-105277085D01*
X167778929Y-105373813D01*
X168000000Y-105433048D01*
X168228000Y-105452995D01*
X168455999Y-105433048D01*
X168677070Y-105373813D01*
X168884498Y-105277087D01*
X168955888Y-105227099D01*
X168955888Y-105227097D01*
X168228001Y-104499210D01*
X168228000Y-104499210D01*
X167500110Y-105227098D01*
X167500110Y-105227100D01*
X152874760Y-105227100D01*
X152990300Y-105146198D01*
X153152198Y-104984300D01*
X153283523Y-104796749D01*
X153380284Y-104589243D01*
X153439543Y-104368087D01*
X153459498Y-104140000D01*
X153439543Y-103911913D01*
X153380284Y-103690757D01*
X153283523Y-103483251D01*
X153233709Y-103412110D01*
X153152195Y-103295696D01*
X152990303Y-103133804D01*
X152802750Y-103002477D01*
X152595243Y-102905715D01*
X152374087Y-102846457D01*
X152146000Y-102826502D01*
X151917912Y-102846457D01*
X151696756Y-102905715D01*
X151489249Y-103002477D01*
X151301696Y-103133804D01*
X151139804Y-103295696D01*
X151008477Y-103483249D01*
X150911715Y-103690756D01*
X150852457Y-103911912D01*
X150832502Y-104139999D01*
X148458995Y-104139999D01*
X148439048Y-103912000D01*
X148379813Y-103690929D01*
X148283085Y-103483497D01*
X148233100Y-103412110D01*
X148233098Y-103412110D01*
X147505210Y-104140000D01*
X147505210Y-104140001D01*
X146786789Y-104140001D01*
X146786790Y-104140000D01*
X146786790Y-104139999D01*
X146058900Y-103412109D01*
X146008913Y-103483499D01*
X145912186Y-103690929D01*
X145852951Y-103912000D01*
X145833004Y-104139999D01*
X131660500Y-104139999D01*
X131660500Y-103052900D01*
X146418109Y-103052900D01*
X147145999Y-103780790D01*
X147146000Y-103780790D01*
X147873888Y-103052899D01*
X147802497Y-103002912D01*
X147595070Y-102906186D01*
X147373999Y-102846951D01*
X147146000Y-102827004D01*
X146918000Y-102846951D01*
X146696929Y-102906186D01*
X146489499Y-103002913D01*
X146418109Y-103052900D01*
X131660500Y-103052900D01*
X131660500Y-102606362D01*
X131653989Y-102545799D01*
X131602889Y-102408796D01*
X131563758Y-102356523D01*
X131515261Y-102291738D01*
X131398206Y-102204111D01*
X131324758Y-102176716D01*
X131282684Y-102161024D01*
X131232352Y-102126461D01*
X131204178Y-102072291D01*
X131204781Y-102011235D01*
X131234018Y-101957632D01*
X131377321Y-101801962D01*
X131500419Y-101613548D01*
X131590822Y-101407451D01*
X131638544Y-101219000D01*
X128965455Y-101219000D01*
X129013177Y-101407451D01*
X129103580Y-101613548D01*
X129226678Y-101801962D01*
X129369981Y-101957632D01*
X129399218Y-102011235D01*
X129399821Y-102072291D01*
X129371647Y-102126461D01*
X129321313Y-102161025D01*
X129205793Y-102204111D01*
X129088738Y-102291738D01*
X129001111Y-102408794D01*
X128950011Y-102545799D01*
X128943500Y-102606362D01*
X128943500Y-104403638D01*
X128016000Y-104403638D01*
X128016000Y-98425000D01*
X128938844Y-98425000D01*
X128957436Y-98649368D01*
X128957436Y-98649371D01*
X128957437Y-98649372D01*
X129012702Y-98867611D01*
X129103139Y-99073790D01*
X129226278Y-99262268D01*
X129378762Y-99427908D01*
X129556422Y-99566188D01*
X129556424Y-99566189D01*
X129590205Y-99584470D01*
X129638477Y-99630785D01*
X129656237Y-99695282D01*
X129638479Y-99759779D01*
X129590209Y-99806096D01*
X129556702Y-99824229D01*
X129379096Y-99962466D01*
X129226678Y-100128037D01*
X129103580Y-100316451D01*
X129013177Y-100522548D01*
X128965455Y-100710999D01*
X128965456Y-100711000D01*
X131638544Y-100711000D01*
X131638544Y-100710999D01*
X131590822Y-100522548D01*
X131500419Y-100316451D01*
X131377321Y-100128037D01*
X131224903Y-99962466D01*
X131047299Y-99824231D01*
X131013791Y-99806097D01*
X130965520Y-99759780D01*
X130947762Y-99695282D01*
X130965522Y-99630785D01*
X131013791Y-99584471D01*
X131047576Y-99566189D01*
X131225240Y-99427906D01*
X131377722Y-99262268D01*
X131473555Y-99115583D01*
X131519069Y-99073686D01*
X131579038Y-99058500D01*
X135326405Y-99058500D01*
X135383608Y-99072233D01*
X135428341Y-99110439D01*
X135450854Y-99164789D01*
X135446238Y-99223436D01*
X135415500Y-99273594D01*
X135303093Y-99386002D01*
X134779245Y-99909848D01*
X134722761Y-99942459D01*
X134657540Y-99942459D01*
X134594087Y-99925457D01*
X134366000Y-99905502D01*
X134137912Y-99925457D01*
X133916756Y-99984715D01*
X133709249Y-100081477D01*
X133521696Y-100212804D01*
X133359804Y-100374696D01*
X133228477Y-100562249D01*
X133131715Y-100769756D01*
X133072457Y-100990912D01*
X133052502Y-101219000D01*
X133072457Y-101447087D01*
X133131715Y-101668243D01*
X133228477Y-101875750D01*
X133359804Y-102063303D01*
X133521696Y-102225195D01*
X133709249Y-102356522D01*
X133916756Y-102453284D01*
X133976014Y-102469162D01*
X134137913Y-102512543D01*
X134366000Y-102532498D01*
X134594087Y-102512543D01*
X134815243Y-102453284D01*
X135022749Y-102356523D01*
X135210300Y-102225198D01*
X135372198Y-102063300D01*
X135503523Y-101875749D01*
X135521804Y-101836543D01*
X135568300Y-101783525D01*
X135636000Y-101763792D01*
X135703700Y-101783525D01*
X135750195Y-101836543D01*
X135768476Y-101875748D01*
X135899804Y-102063303D01*
X136061696Y-102225195D01*
X136249249Y-102356522D01*
X136456756Y-102453284D01*
X136516014Y-102469162D01*
X136677913Y-102512543D01*
X136906000Y-102532498D01*
X137134087Y-102512543D01*
X137355243Y-102453284D01*
X137562749Y-102356523D01*
X137750300Y-102225198D01*
X137912198Y-102063300D01*
X138043523Y-101875749D01*
X138061804Y-101836543D01*
X138108300Y-101783525D01*
X138176000Y-101763792D01*
X138243700Y-101783525D01*
X138290195Y-101836543D01*
X138308476Y-101875748D01*
X138439804Y-102063303D01*
X138601696Y-102225195D01*
X138789249Y-102356522D01*
X138996756Y-102453284D01*
X139056014Y-102469162D01*
X139217913Y-102512543D01*
X139446000Y-102532498D01*
X139674087Y-102512543D01*
X139895243Y-102453284D01*
X140102749Y-102356523D01*
X140290300Y-102225198D01*
X140452198Y-102063300D01*
X140583523Y-101875749D01*
X140601804Y-101836543D01*
X140648300Y-101783525D01*
X140716000Y-101763792D01*
X140783700Y-101783525D01*
X140830195Y-101836543D01*
X140848476Y-101875748D01*
X140979804Y-102063303D01*
X141141696Y-102225195D01*
X141329249Y-102356522D01*
X141536756Y-102453284D01*
X141596014Y-102469162D01*
X141757913Y-102512543D01*
X141986000Y-102532498D01*
X142214087Y-102512543D01*
X142435243Y-102453284D01*
X142642749Y-102356523D01*
X142830300Y-102225198D01*
X142992198Y-102063300D01*
X143123523Y-101875749D01*
X143141804Y-101836543D01*
X143188300Y-101783525D01*
X143256000Y-101763792D01*
X143323700Y-101783525D01*
X143370195Y-101836543D01*
X143388476Y-101875748D01*
X143519804Y-102063303D01*
X143681696Y-102225195D01*
X143869249Y-102356522D01*
X144076756Y-102453284D01*
X144136014Y-102469162D01*
X144297913Y-102512543D01*
X144526000Y-102532498D01*
X144754087Y-102512543D01*
X144975243Y-102453284D01*
X145182749Y-102356523D01*
X145370300Y-102225198D01*
X145532198Y-102063300D01*
X145663523Y-101875749D01*
X145681804Y-101836543D01*
X145728300Y-101783525D01*
X145796000Y-101763792D01*
X145863700Y-101783525D01*
X145910195Y-101836543D01*
X145928476Y-101875748D01*
X146059804Y-102063303D01*
X146221696Y-102225195D01*
X146409249Y-102356522D01*
X146616756Y-102453284D01*
X146676014Y-102469162D01*
X146837913Y-102512543D01*
X147066000Y-102532498D01*
X147294087Y-102512543D01*
X147515243Y-102453284D01*
X147722749Y-102356523D01*
X147910300Y-102225198D01*
X148072198Y-102063300D01*
X148203523Y-101875749D01*
X148222080Y-101835951D01*
X148268576Y-101782933D01*
X148336276Y-101763200D01*
X148403976Y-101782933D01*
X148450471Y-101835951D01*
X148468911Y-101875497D01*
X148600189Y-102062981D01*
X148762018Y-102224810D01*
X148949501Y-102356087D01*
X149156929Y-102452813D01*
X149352000Y-102505082D01*
X149352000Y-101091000D01*
X149368881Y-101028000D01*
X149415000Y-100981881D01*
X149478000Y-100965000D01*
X149734000Y-100965000D01*
X149797000Y-100981881D01*
X149843119Y-101028000D01*
X149860000Y-101091000D01*
X149860000Y-102505082D01*
X150055070Y-102452813D01*
X150262498Y-102356087D01*
X150449981Y-102224810D01*
X150611810Y-102062981D01*
X150743088Y-101875497D01*
X150761529Y-101835951D01*
X150808024Y-101782933D01*
X150875724Y-101763200D01*
X150943424Y-101782933D01*
X150989919Y-101835951D01*
X151008476Y-101875748D01*
X151139804Y-102063303D01*
X151301696Y-102225195D01*
X151489249Y-102356522D01*
X151696756Y-102453284D01*
X151756014Y-102469162D01*
X151917913Y-102512543D01*
X152146000Y-102532498D01*
X152374087Y-102512543D01*
X152595243Y-102453284D01*
X152802749Y-102356523D01*
X152990300Y-102225198D01*
X153152198Y-102063300D01*
X153283523Y-101875749D01*
X153380284Y-101668243D01*
X153439543Y-101447087D01*
X153459498Y-101219000D01*
X153439543Y-100990913D01*
X153380284Y-100769757D01*
X153375487Y-100759470D01*
X153283522Y-100562249D01*
X153195817Y-100436995D01*
X153152198Y-100374700D01*
X153152197Y-100374699D01*
X153152195Y-100374696D01*
X152990303Y-100212804D01*
X152802748Y-100081476D01*
X152758182Y-100060695D01*
X152706973Y-100016959D01*
X152685604Y-99953095D01*
X152700180Y-99887347D01*
X152746536Y-99838497D01*
X152811431Y-99820500D01*
X154782569Y-99820500D01*
X154847464Y-99838497D01*
X154893820Y-99887347D01*
X154908396Y-99953095D01*
X154887027Y-100016959D01*
X154835818Y-100060695D01*
X154791251Y-100081476D01*
X154603696Y-100212804D01*
X154441804Y-100374696D01*
X154310477Y-100562249D01*
X154213715Y-100769756D01*
X154154457Y-100990912D01*
X154134502Y-101219000D01*
X154154457Y-101447087D01*
X154213715Y-101668243D01*
X154310477Y-101875750D01*
X154441804Y-102063303D01*
X154603696Y-102225195D01*
X154791249Y-102356522D01*
X154998756Y-102453284D01*
X155058014Y-102469162D01*
X155219913Y-102512543D01*
X155448000Y-102532498D01*
X155676087Y-102512543D01*
X155739542Y-102495540D01*
X155804764Y-102495540D01*
X155861248Y-102528152D01*
X156210751Y-102877655D01*
X156223834Y-102893985D01*
X156275665Y-102942656D01*
X156278477Y-102945381D01*
X156298230Y-102965134D01*
X156299826Y-102966372D01*
X156301424Y-102967612D01*
X156310444Y-102975316D01*
X156342679Y-103005586D01*
X156360435Y-103015347D01*
X156376951Y-103026196D01*
X156392959Y-103038613D01*
X156425973Y-103052899D01*
X156433525Y-103056167D01*
X156444188Y-103061391D01*
X156482935Y-103082693D01*
X156482937Y-103082693D01*
X156482940Y-103082695D01*
X156502574Y-103087736D01*
X156521259Y-103094134D01*
X156539855Y-103102181D01*
X156583530Y-103109098D01*
X156595125Y-103111498D01*
X156637970Y-103122500D01*
X156658224Y-103122500D01*
X156677934Y-103124051D01*
X156697942Y-103127220D01*
X156697942Y-103127219D01*
X156697943Y-103127220D01*
X156741961Y-103123058D01*
X156753819Y-103122500D01*
X167101645Y-103122500D01*
X167167010Y-103140781D01*
X167213408Y-103190320D01*
X167227375Y-103256741D01*
X167204858Y-103320771D01*
X167090912Y-103483501D01*
X166994186Y-103690929D01*
X166934951Y-103912000D01*
X166915004Y-104139999D01*
X166934951Y-104367999D01*
X166994186Y-104589070D01*
X167090912Y-104796497D01*
X167140900Y-104867888D01*
X168138904Y-103869884D01*
X168195388Y-103837272D01*
X168260610Y-103837272D01*
X168317094Y-103869884D01*
X169315097Y-104867888D01*
X169315099Y-104867888D01*
X169365087Y-104796498D01*
X169461813Y-104589070D01*
X169521048Y-104367999D01*
X169540995Y-104139999D01*
X169521048Y-103912000D01*
X169461813Y-103690929D01*
X169365087Y-103483501D01*
X169251142Y-103320771D01*
X169228625Y-103256741D01*
X169242592Y-103190320D01*
X169288990Y-103140781D01*
X169354355Y-103122500D01*
X172101034Y-103122500D01*
X172166399Y-103140781D01*
X172212797Y-103190320D01*
X172226764Y-103256741D01*
X172204247Y-103320771D01*
X172090477Y-103483249D01*
X171993715Y-103690756D01*
X171934457Y-103911912D01*
X171914502Y-104139999D01*
X171934457Y-104368087D01*
X171993715Y-104589243D01*
X172090477Y-104796750D01*
X172221804Y-104984303D01*
X172383696Y-105146195D01*
X172571249Y-105277522D01*
X172778756Y-105374284D01*
X172838015Y-105390162D01*
X172999913Y-105433543D01*
X173228000Y-105453498D01*
X173456087Y-105433543D01*
X173677243Y-105374284D01*
X173884749Y-105277523D01*
X174072300Y-105146198D01*
X174234198Y-104984300D01*
X174365523Y-104796749D01*
X174462284Y-104589243D01*
X174521543Y-104368087D01*
X174541498Y-104140000D01*
X174521543Y-103911913D01*
X174462284Y-103690757D01*
X174365523Y-103483251D01*
X174315709Y-103412110D01*
X174234195Y-103295696D01*
X174168614Y-103230115D01*
X174139497Y-103184632D01*
X174132097Y-103131137D01*
X174147773Y-103079457D01*
X174183644Y-103039087D01*
X174201379Y-103026201D01*
X174206387Y-103022561D01*
X174216303Y-103016048D01*
X174254362Y-102993542D01*
X174268691Y-102979212D01*
X174283719Y-102966377D01*
X174300107Y-102954472D01*
X174328303Y-102920386D01*
X174336272Y-102911630D01*
X176016173Y-101231729D01*
X176073073Y-101199009D01*
X176138714Y-101199348D01*
X176195277Y-101232657D01*
X176227410Y-101289896D01*
X176257180Y-101407457D01*
X176347580Y-101613548D01*
X176470678Y-101801962D01*
X176613981Y-101957632D01*
X176643218Y-102011235D01*
X176643821Y-102072291D01*
X176615647Y-102126461D01*
X176565313Y-102161025D01*
X176449793Y-102204111D01*
X176332738Y-102291738D01*
X176245111Y-102408794D01*
X176194011Y-102545799D01*
X176187500Y-102606362D01*
X176187500Y-104403638D01*
X176194011Y-104464200D01*
X176245111Y-104601205D01*
X176332738Y-104718261D01*
X176449794Y-104805888D01*
X176449795Y-104805888D01*
X176449796Y-104805889D01*
X176586799Y-104856989D01*
X176647362Y-104863500D01*
X178444638Y-104863500D01*
X178505201Y-104856989D01*
X178642204Y-104805889D01*
X178759261Y-104718261D01*
X178846889Y-104601204D01*
X178897989Y-104464201D01*
X178904500Y-104403638D01*
X178904500Y-102606362D01*
X178897989Y-102545799D01*
X178846889Y-102408796D01*
X178807758Y-102356523D01*
X178759261Y-102291738D01*
X178642206Y-102204111D01*
X178568758Y-102176716D01*
X178526684Y-102161024D01*
X178476352Y-102126461D01*
X178448178Y-102072291D01*
X178448781Y-102011235D01*
X178478018Y-101957632D01*
X178621321Y-101801962D01*
X178744419Y-101613548D01*
X178834822Y-101407451D01*
X178882544Y-101219000D01*
X177418000Y-101219000D01*
X177355000Y-101202119D01*
X177308881Y-101156000D01*
X177292000Y-101093000D01*
X177292000Y-100837000D01*
X177308881Y-100774000D01*
X177355000Y-100727881D01*
X177418000Y-100711000D01*
X178882544Y-100711000D01*
X178882544Y-100710999D01*
X178834822Y-100522548D01*
X178744419Y-100316451D01*
X178620598Y-100126929D01*
X178601049Y-100073598D01*
X178606908Y-100017101D01*
X178636982Y-99968922D01*
X179204661Y-99401243D01*
X179220981Y-99388169D01*
X179223012Y-99386005D01*
X179223018Y-99386002D01*
X179269677Y-99336313D01*
X179272368Y-99333536D01*
X179292134Y-99313772D01*
X179294605Y-99310585D01*
X179302312Y-99301561D01*
X179332586Y-99269323D01*
X179342343Y-99251572D01*
X179353199Y-99235045D01*
X179365613Y-99219043D01*
X179383172Y-99178463D01*
X179388392Y-99167811D01*
X179409694Y-99129063D01*
X179409695Y-99129062D01*
X179414732Y-99109441D01*
X179421138Y-99090732D01*
X179429181Y-99072147D01*
X179436096Y-99028479D01*
X179438504Y-99016855D01*
X179449500Y-98974031D01*
X179449500Y-98953778D01*
X179451051Y-98934068D01*
X179454220Y-98914059D01*
X179450059Y-98870041D01*
X179449500Y-98858183D01*
X179449500Y-94698853D01*
X179451795Y-94678064D01*
X179449562Y-94607014D01*
X179449500Y-94603055D01*
X179449500Y-94575149D01*
X179449500Y-94575144D01*
X179448992Y-94571131D01*
X179448061Y-94559297D01*
X179447785Y-94550502D01*
X179446673Y-94515110D01*
X179441020Y-94495656D01*
X179437012Y-94476298D01*
X179434474Y-94456203D01*
X179418190Y-94415077D01*
X179414359Y-94403888D01*
X179402018Y-94361407D01*
X179391704Y-94343968D01*
X179383008Y-94326216D01*
X179375552Y-94307383D01*
X179349571Y-94271624D01*
X179343050Y-94261698D01*
X179339531Y-94255748D01*
X179320542Y-94223637D01*
X179306213Y-94209308D01*
X179293376Y-94194277D01*
X179281473Y-94177893D01*
X179247406Y-94149711D01*
X179238626Y-94141721D01*
X178895866Y-93798961D01*
X178863482Y-93743314D01*
X178862817Y-93678936D01*
X178890564Y-93569368D01*
X178909156Y-93345000D01*
X178890564Y-93120632D01*
X178835296Y-92902384D01*
X178744860Y-92696209D01*
X178621722Y-92507732D01*
X178469240Y-92342094D01*
X178469239Y-92342093D01*
X178469237Y-92342091D01*
X178291578Y-92203812D01*
X178093573Y-92096657D01*
X177947466Y-92046499D01*
X177880635Y-92023556D01*
X177658569Y-91986500D01*
X177433431Y-91986500D01*
X177211365Y-92023556D01*
X177211362Y-92023556D01*
X177211362Y-92023557D01*
X176998426Y-92096657D01*
X176800421Y-92203812D01*
X176622762Y-92342091D01*
X176470278Y-92507731D01*
X176347139Y-92696209D01*
X176256702Y-92902388D01*
X176201437Y-93120627D01*
X176201436Y-93120632D01*
X176182844Y-93345000D01*
X176201436Y-93569368D01*
X176201437Y-93569370D01*
X176201437Y-93569372D01*
X176256702Y-93787611D01*
X176347139Y-93993790D01*
X176382602Y-94048070D01*
X176470278Y-94182268D01*
X176619139Y-94343973D01*
X176622762Y-94347908D01*
X176800418Y-94486185D01*
X176800420Y-94486186D01*
X176800424Y-94486189D01*
X176833682Y-94504187D01*
X176881952Y-94550503D01*
X176899711Y-94615000D01*
X176881952Y-94679497D01*
X176833682Y-94725812D01*
X176813893Y-94736522D01*
X176800418Y-94743814D01*
X176622762Y-94882091D01*
X176470278Y-95047731D01*
X176347139Y-95236209D01*
X176256702Y-95442388D01*
X176201437Y-95660627D01*
X176201436Y-95660632D01*
X176185148Y-95857188D01*
X176182844Y-95884999D01*
X176201436Y-96109368D01*
X176229182Y-96218935D01*
X176228516Y-96283314D01*
X176196133Y-96338960D01*
X176050500Y-96484595D01*
X176009623Y-96511909D01*
X175961404Y-96521500D01*
X173918593Y-96521500D01*
X173861390Y-96507767D01*
X173816657Y-96469561D01*
X173794144Y-96415211D01*
X173798760Y-96356564D01*
X173829498Y-96306405D01*
X174250904Y-95884999D01*
X174886658Y-95249245D01*
X174902980Y-95236169D01*
X174905014Y-95234001D01*
X174905018Y-95234000D01*
X174951661Y-95184328D01*
X174954352Y-95181551D01*
X174974135Y-95161770D01*
X174976621Y-95158564D01*
X174984310Y-95149561D01*
X175014586Y-95117321D01*
X175024342Y-95099571D01*
X175035195Y-95083050D01*
X175047614Y-95067041D01*
X175065175Y-95026454D01*
X175070388Y-95015813D01*
X175091695Y-94977060D01*
X175096733Y-94957434D01*
X175103137Y-94938732D01*
X175107383Y-94928920D01*
X175111181Y-94920145D01*
X175118096Y-94876481D01*
X175120504Y-94864853D01*
X175131500Y-94822030D01*
X175131500Y-94801776D01*
X175133051Y-94782066D01*
X175136220Y-94762057D01*
X175132058Y-94718038D01*
X175131500Y-94706181D01*
X175131500Y-90588500D01*
X175148381Y-90525500D01*
X175194500Y-90479381D01*
X175257500Y-90462500D01*
X176870638Y-90462500D01*
X176931201Y-90455989D01*
X177068204Y-90404889D01*
X177185261Y-90317261D01*
X177272889Y-90200204D01*
X177323989Y-90063201D01*
X177330500Y-90002638D01*
X177330500Y-88305362D01*
X177323989Y-88244799D01*
X177272889Y-88107796D01*
X177272888Y-88107794D01*
X177185261Y-87990738D01*
X177068205Y-87903111D01*
X176953845Y-87860457D01*
X176931201Y-87852011D01*
X176870638Y-87845500D01*
X176554118Y-87845500D01*
X176511437Y-87838051D01*
X176473802Y-87816584D01*
X176453405Y-87799710D01*
X176444626Y-87791721D01*
X175132244Y-86479339D01*
X175119171Y-86463021D01*
X175067349Y-86414357D01*
X175064537Y-86411632D01*
X175044770Y-86391865D01*
X175041575Y-86389386D01*
X175032553Y-86381681D01*
X175000320Y-86351413D01*
X174982567Y-86341653D01*
X174966041Y-86330797D01*
X174950041Y-86318386D01*
X174909466Y-86300828D01*
X174898804Y-86295604D01*
X174860063Y-86274305D01*
X174841914Y-86269646D01*
X174840437Y-86269266D01*
X174821731Y-86262862D01*
X174803145Y-86254819D01*
X174759475Y-86247902D01*
X174747853Y-86245495D01*
X174738050Y-86242978D01*
X174705030Y-86234500D01*
X174705029Y-86234500D01*
X174684776Y-86234500D01*
X174665066Y-86232949D01*
X174645057Y-86229779D01*
X174601039Y-86233941D01*
X174589181Y-86234500D01*
X133814853Y-86234500D01*
X133794063Y-86232204D01*
X133723001Y-86234438D01*
X133719043Y-86234500D01*
X133691142Y-86234500D01*
X133687134Y-86235006D01*
X133675313Y-86235936D01*
X133631108Y-86237325D01*
X133611651Y-86242978D01*
X133592301Y-86246986D01*
X133572202Y-86249525D01*
X133531093Y-86265802D01*
X133519865Y-86269646D01*
X133477408Y-86281981D01*
X133459964Y-86292297D01*
X133442217Y-86300990D01*
X133423384Y-86308446D01*
X133387611Y-86334437D01*
X133377693Y-86340951D01*
X133339639Y-86363457D01*
X133325312Y-86377783D01*
X133310283Y-86390618D01*
X133293894Y-86402525D01*
X133265701Y-86436604D01*
X133257713Y-86445381D01*
X131894500Y-87808595D01*
X131853623Y-87835909D01*
X131805405Y-87845500D01*
X130977362Y-87845500D01*
X130916799Y-87852011D01*
X130779794Y-87903111D01*
X130662738Y-87990738D01*
X130575111Y-88107794D01*
X130524010Y-88244799D01*
X130524011Y-88244799D01*
X130517500Y-88305362D01*
X130517500Y-90002638D01*
X130524011Y-90063201D01*
X130530510Y-90080624D01*
X130575111Y-90200205D01*
X130662738Y-90317261D01*
X130779794Y-90404888D01*
X130779795Y-90404888D01*
X130779796Y-90404889D01*
X130916799Y-90455989D01*
X130977362Y-90462500D01*
X132674638Y-90462500D01*
X132735201Y-90455989D01*
X132872204Y-90404889D01*
X132989261Y-90317261D01*
X133076889Y-90200204D01*
X133127989Y-90063201D01*
X133128999Y-90053800D01*
X133149706Y-89996978D01*
X133194506Y-89956348D01*
X133253077Y-89941275D01*
X133311924Y-89955230D01*
X133357490Y-89994998D01*
X133359804Y-89998303D01*
X133521696Y-90160195D01*
X133521699Y-90160197D01*
X133521700Y-90160198D01*
X133536280Y-90170407D01*
X133709249Y-90291522D01*
X133916756Y-90388284D01*
X133970621Y-90402717D01*
X134137913Y-90447543D01*
X134366000Y-90467498D01*
X134594087Y-90447543D01*
X134815243Y-90388284D01*
X135022749Y-90291523D01*
X135210300Y-90160198D01*
X135372198Y-89998300D01*
X135503523Y-89810749D01*
X135521804Y-89771543D01*
X135568300Y-89718525D01*
X135636000Y-89698792D01*
X135703700Y-89718525D01*
X135750195Y-89771543D01*
X135768476Y-89810748D01*
X135899804Y-89998303D01*
X136061696Y-90160195D01*
X136061699Y-90160197D01*
X136061700Y-90160198D01*
X136076280Y-90170407D01*
X136249249Y-90291522D01*
X136456756Y-90388284D01*
X136510621Y-90402717D01*
X136677913Y-90447543D01*
X136906000Y-90467498D01*
X137134087Y-90447543D01*
X137355243Y-90388284D01*
X137562749Y-90291523D01*
X137750300Y-90160198D01*
X137912198Y-89998300D01*
X138043523Y-89810749D01*
X138061804Y-89771543D01*
X138108300Y-89718525D01*
X138176000Y-89698792D01*
X138243700Y-89718525D01*
X138290195Y-89771543D01*
X138308476Y-89810748D01*
X138439804Y-89998303D01*
X138601696Y-90160195D01*
X138601699Y-90160197D01*
X138601700Y-90160198D01*
X138616280Y-90170407D01*
X138789249Y-90291522D01*
X138996756Y-90388284D01*
X139050621Y-90402717D01*
X139217913Y-90447543D01*
X139446000Y-90467498D01*
X139674087Y-90447543D01*
X139895243Y-90388284D01*
X140102749Y-90291523D01*
X140290300Y-90160198D01*
X140452198Y-89998300D01*
X140583523Y-89810749D01*
X140601804Y-89771543D01*
X140648300Y-89718525D01*
X140716000Y-89698792D01*
X140783700Y-89718525D01*
X140830195Y-89771543D01*
X140848476Y-89810748D01*
X140979804Y-89998303D01*
X141141696Y-90160195D01*
X141141699Y-90160197D01*
X141141700Y-90160198D01*
X141156280Y-90170407D01*
X141329249Y-90291522D01*
X141536756Y-90388284D01*
X141590621Y-90402717D01*
X141757913Y-90447543D01*
X141986000Y-90467498D01*
X142214087Y-90447543D01*
X142435243Y-90388284D01*
X142642749Y-90291523D01*
X142830300Y-90160198D01*
X142992198Y-89998300D01*
X143123523Y-89810749D01*
X143141804Y-89771543D01*
X143188300Y-89718525D01*
X143256000Y-89698792D01*
X143323700Y-89718525D01*
X143370195Y-89771543D01*
X143388476Y-89810748D01*
X143519804Y-89998303D01*
X143681696Y-90160195D01*
X143681699Y-90160197D01*
X143681700Y-90160198D01*
X143696280Y-90170407D01*
X143869249Y-90291522D01*
X144076756Y-90388284D01*
X144130621Y-90402717D01*
X144297913Y-90447543D01*
X144526000Y-90467498D01*
X144754087Y-90447543D01*
X144817542Y-90430540D01*
X144882764Y-90430540D01*
X144939248Y-90463152D01*
X146395595Y-91919499D01*
X146422909Y-91960376D01*
X146432500Y-92008594D01*
X146432500Y-92379607D01*
X146418263Y-92437787D01*
X146378772Y-92482818D01*
X146310659Y-92530511D01*
X146221696Y-92592804D01*
X146059804Y-92754696D01*
X145928477Y-92942250D01*
X145910195Y-92981457D01*
X145863700Y-93034474D01*
X145796000Y-93054207D01*
X145728300Y-93034474D01*
X145681805Y-92981457D01*
X145679894Y-92977359D01*
X145663523Y-92942251D01*
X145532198Y-92754700D01*
X145532197Y-92754699D01*
X145532195Y-92754696D01*
X145370303Y-92592804D01*
X145182750Y-92461477D01*
X144975243Y-92364715D01*
X144754087Y-92305457D01*
X144583127Y-92290500D01*
X144526000Y-92285502D01*
X144525999Y-92285502D01*
X144297912Y-92305457D01*
X144076756Y-92364715D01*
X143869249Y-92461477D01*
X143681696Y-92592804D01*
X143519804Y-92754696D01*
X143388477Y-92942250D01*
X143370195Y-92981457D01*
X143323700Y-93034474D01*
X143256000Y-93054207D01*
X143188300Y-93034474D01*
X143141805Y-92981457D01*
X143139894Y-92977359D01*
X143123523Y-92942251D01*
X142992198Y-92754700D01*
X142992197Y-92754699D01*
X142992195Y-92754696D01*
X142830303Y-92592804D01*
X142642750Y-92461477D01*
X142435243Y-92364715D01*
X142214087Y-92305457D01*
X142043127Y-92290500D01*
X141986000Y-92285502D01*
X141985999Y-92285502D01*
X141757912Y-92305457D01*
X141536756Y-92364715D01*
X141329249Y-92461477D01*
X141141696Y-92592804D01*
X140979804Y-92754696D01*
X140848477Y-92942250D01*
X140830195Y-92981457D01*
X140783700Y-93034474D01*
X140716000Y-93054207D01*
X140648300Y-93034474D01*
X140601805Y-92981457D01*
X140599894Y-92977359D01*
X140583523Y-92942251D01*
X140452198Y-92754700D01*
X140452197Y-92754699D01*
X140452195Y-92754696D01*
X140290303Y-92592804D01*
X140102750Y-92461477D01*
X139895243Y-92364715D01*
X139674087Y-92305457D01*
X139503127Y-92290500D01*
X139446000Y-92285502D01*
X139445999Y-92285502D01*
X139217912Y-92305457D01*
X138996756Y-92364715D01*
X138789249Y-92461477D01*
X138601696Y-92592804D01*
X138439804Y-92754696D01*
X138308477Y-92942250D01*
X138290195Y-92981457D01*
X138243700Y-93034474D01*
X138176000Y-93054207D01*
X138108300Y-93034474D01*
X138061805Y-92981457D01*
X138059894Y-92977359D01*
X138043523Y-92942251D01*
X137912198Y-92754700D01*
X137912197Y-92754699D01*
X137912195Y-92754696D01*
X137750303Y-92592804D01*
X137562750Y-92461477D01*
X137355243Y-92364715D01*
X137134087Y-92305457D01*
X136963127Y-92290500D01*
X136906000Y-92285502D01*
X136905999Y-92285502D01*
X136677912Y-92305457D01*
X136456756Y-92364715D01*
X136249249Y-92461477D01*
X136061696Y-92592804D01*
X135899804Y-92754696D01*
X135768477Y-92942250D01*
X135749919Y-92982049D01*
X135703424Y-93035066D01*
X135635724Y-93054799D01*
X135568024Y-93035066D01*
X135521529Y-92982049D01*
X135503087Y-92942501D01*
X135371810Y-92755018D01*
X135209981Y-92593189D01*
X135022498Y-92461912D01*
X134815070Y-92365186D01*
X134619999Y-92312917D01*
X134620000Y-92312918D01*
X134620000Y-94885082D01*
X134815070Y-94832813D01*
X135022498Y-94736087D01*
X135209981Y-94604810D01*
X135371810Y-94442981D01*
X135503088Y-94255497D01*
X135521529Y-94215951D01*
X135568024Y-94162933D01*
X135635724Y-94143200D01*
X135703424Y-94162933D01*
X135749919Y-94215951D01*
X135768476Y-94255748D01*
X135899804Y-94443303D01*
X136061696Y-94605195D01*
X136249249Y-94736522D01*
X136456756Y-94833284D01*
X136500627Y-94845039D01*
X136677913Y-94892543D01*
X136906000Y-94912498D01*
X137134087Y-94892543D01*
X137355243Y-94833284D01*
X137562749Y-94736523D01*
X137750300Y-94605198D01*
X137912198Y-94443300D01*
X138043523Y-94255749D01*
X138061804Y-94216543D01*
X138108300Y-94163525D01*
X138176000Y-94143792D01*
X138243700Y-94163525D01*
X138290195Y-94216543D01*
X138308476Y-94255748D01*
X138439804Y-94443303D01*
X138601696Y-94605195D01*
X138789249Y-94736522D01*
X138996756Y-94833284D01*
X139040627Y-94845039D01*
X139217913Y-94892543D01*
X139446000Y-94912498D01*
X139674087Y-94892543D01*
X139737542Y-94875540D01*
X139802764Y-94875540D01*
X139859248Y-94908152D01*
X141224751Y-96273655D01*
X141237835Y-96289986D01*
X141252386Y-96303650D01*
X141284950Y-96353564D01*
X141290931Y-96412861D01*
X141268992Y-96468274D01*
X141224040Y-96507405D01*
X141166133Y-96521500D01*
X131886595Y-96521500D01*
X131838377Y-96511909D01*
X131797500Y-96484595D01*
X131651866Y-96338961D01*
X131619482Y-96283314D01*
X131618817Y-96218935D01*
X131646564Y-96109368D01*
X131665156Y-95885000D01*
X131646564Y-95660632D01*
X131591296Y-95442384D01*
X131500860Y-95236209D01*
X131377722Y-95047732D01*
X131225240Y-94882094D01*
X131225239Y-94882093D01*
X131225237Y-94882091D01*
X131047579Y-94743813D01*
X131047577Y-94743812D01*
X131047576Y-94743811D01*
X131014317Y-94725812D01*
X130966047Y-94679498D01*
X130948288Y-94615000D01*
X130966047Y-94550502D01*
X131014317Y-94504187D01*
X131047576Y-94486189D01*
X131225240Y-94347906D01*
X131377722Y-94182268D01*
X131500860Y-93993791D01*
X131562616Y-93853000D01*
X133079918Y-93853000D01*
X133132186Y-94048070D01*
X133228912Y-94255498D01*
X133360189Y-94442981D01*
X133522018Y-94604810D01*
X133709501Y-94736087D01*
X133916929Y-94832813D01*
X134112000Y-94885082D01*
X134112000Y-93853000D01*
X133079918Y-93853000D01*
X131562616Y-93853000D01*
X131591296Y-93787616D01*
X131646564Y-93569368D01*
X131665156Y-93345000D01*
X133079917Y-93345000D01*
X134112000Y-93345000D01*
X134112000Y-92312917D01*
X133916929Y-92365186D01*
X133709501Y-92461912D01*
X133522018Y-92593189D01*
X133360189Y-92755018D01*
X133228912Y-92942501D01*
X133132186Y-93149929D01*
X133079917Y-93345000D01*
X131665156Y-93345000D01*
X131646564Y-93120632D01*
X131591296Y-92902384D01*
X131500860Y-92696209D01*
X131377722Y-92507732D01*
X131225240Y-92342094D01*
X131225239Y-92342093D01*
X131225237Y-92342091D01*
X131047578Y-92203812D01*
X130849573Y-92096657D01*
X130703466Y-92046499D01*
X130636635Y-92023556D01*
X130414569Y-91986500D01*
X130189431Y-91986500D01*
X129967365Y-92023556D01*
X129967362Y-92023556D01*
X129967362Y-92023557D01*
X129754426Y-92096657D01*
X129556421Y-92203812D01*
X129378762Y-92342091D01*
X129226278Y-92507731D01*
X129103139Y-92696209D01*
X129012702Y-92902388D01*
X128957437Y-93120627D01*
X128957436Y-93120632D01*
X128938844Y-93345000D01*
X128957436Y-93569368D01*
X128957437Y-93569370D01*
X128957437Y-93569372D01*
X129012702Y-93787611D01*
X129103139Y-93993790D01*
X129138602Y-94048070D01*
X129226278Y-94182268D01*
X129375139Y-94343973D01*
X129378762Y-94347908D01*
X129556418Y-94486185D01*
X129556420Y-94486186D01*
X129556424Y-94486189D01*
X129589682Y-94504187D01*
X129637952Y-94550503D01*
X129655711Y-94615000D01*
X129637952Y-94679497D01*
X129589682Y-94725812D01*
X129569893Y-94736522D01*
X129556418Y-94743814D01*
X129378762Y-94882091D01*
X129226278Y-95047731D01*
X129103139Y-95236209D01*
X129012702Y-95442388D01*
X128957437Y-95660627D01*
X128957436Y-95660632D01*
X128938844Y-95885000D01*
X128957436Y-96109368D01*
X128957437Y-96109370D01*
X128957437Y-96109372D01*
X129012702Y-96327611D01*
X129012703Y-96327614D01*
X129012704Y-96327616D01*
X129024086Y-96353564D01*
X129103139Y-96533790D01*
X129226278Y-96722268D01*
X129378762Y-96887908D01*
X129480611Y-96967181D01*
X129556424Y-97026189D01*
X129589682Y-97044187D01*
X129637951Y-97090500D01*
X129655711Y-97154997D01*
X129637953Y-97219494D01*
X129589683Y-97265811D01*
X129556423Y-97283810D01*
X129378762Y-97422091D01*
X129226278Y-97587731D01*
X129103139Y-97776209D01*
X129012702Y-97982388D01*
X128957437Y-98200627D01*
X128957436Y-98200632D01*
X128938844Y-98425000D01*
X128016000Y-98425000D01*
X128016000Y-84201000D01*
X130970844Y-84201000D01*
X130989436Y-84425368D01*
X130989436Y-84425371D01*
X130989437Y-84425372D01*
X131044702Y-84643611D01*
X131135139Y-84849790D01*
X131169482Y-84902356D01*
X131258278Y-85038268D01*
X131370525Y-85160200D01*
X131410762Y-85203908D01*
X131530629Y-85297205D01*
X131588424Y-85342189D01*
X131786426Y-85449342D01*
X131999365Y-85522444D01*
X132221431Y-85559500D01*
X132446566Y-85559500D01*
X132446569Y-85559500D01*
X132668635Y-85522444D01*
X132881574Y-85449342D01*
X133079576Y-85342189D01*
X133257240Y-85203906D01*
X133409722Y-85038268D01*
X133498518Y-84902354D01*
X133544031Y-84860458D01*
X133604000Y-84845272D01*
X133663969Y-84860458D01*
X133709481Y-84902354D01*
X133798278Y-85038268D01*
X133910525Y-85160200D01*
X133950762Y-85203908D01*
X134070629Y-85297205D01*
X134128424Y-85342189D01*
X134326426Y-85449342D01*
X134539365Y-85522444D01*
X134761431Y-85559500D01*
X134986566Y-85559500D01*
X134986569Y-85559500D01*
X135208635Y-85522444D01*
X135421574Y-85449342D01*
X135619576Y-85342189D01*
X135797240Y-85203906D01*
X135949722Y-85038268D01*
X136038518Y-84902354D01*
X136084031Y-84860458D01*
X136144000Y-84845272D01*
X136203969Y-84860458D01*
X136249481Y-84902354D01*
X136338278Y-85038268D01*
X136450525Y-85160200D01*
X136490762Y-85203908D01*
X136610629Y-85297205D01*
X136668424Y-85342189D01*
X136866426Y-85449342D01*
X137079365Y-85522444D01*
X137301431Y-85559500D01*
X137526566Y-85559500D01*
X137526569Y-85559500D01*
X137748635Y-85522444D01*
X137961574Y-85449342D01*
X138159576Y-85342189D01*
X138337240Y-85203906D01*
X138489722Y-85038268D01*
X138578518Y-84902354D01*
X138624031Y-84860458D01*
X138684000Y-84845272D01*
X138743969Y-84860458D01*
X138789481Y-84902354D01*
X138878278Y-85038268D01*
X138990525Y-85160200D01*
X139030762Y-85203908D01*
X139150629Y-85297205D01*
X139208424Y-85342189D01*
X139406426Y-85449342D01*
X139619365Y-85522444D01*
X139841431Y-85559500D01*
X140066566Y-85559500D01*
X140066569Y-85559500D01*
X140288635Y-85522444D01*
X140501574Y-85449342D01*
X140699576Y-85342189D01*
X140877240Y-85203906D01*
X141029722Y-85038268D01*
X141118518Y-84902354D01*
X141164031Y-84860458D01*
X141224000Y-84845272D01*
X141283969Y-84860458D01*
X141329481Y-84902354D01*
X141418278Y-85038268D01*
X141530525Y-85160200D01*
X141570762Y-85203908D01*
X141690629Y-85297205D01*
X141748424Y-85342189D01*
X141946426Y-85449342D01*
X142159365Y-85522444D01*
X142381431Y-85559500D01*
X142606566Y-85559500D01*
X142606569Y-85559500D01*
X142828635Y-85522444D01*
X143041574Y-85449342D01*
X143239576Y-85342189D01*
X143417240Y-85203906D01*
X143569722Y-85038268D01*
X143658518Y-84902354D01*
X143704031Y-84860458D01*
X143764000Y-84845272D01*
X143823969Y-84860458D01*
X143869481Y-84902354D01*
X143958278Y-85038268D01*
X144070525Y-85160200D01*
X144110762Y-85203908D01*
X144230629Y-85297205D01*
X144288424Y-85342189D01*
X144486426Y-85449342D01*
X144699365Y-85522444D01*
X144921431Y-85559500D01*
X145146566Y-85559500D01*
X145146569Y-85559500D01*
X145368635Y-85522444D01*
X145581574Y-85449342D01*
X145779576Y-85342189D01*
X145957240Y-85203906D01*
X146109722Y-85038268D01*
X146198518Y-84902354D01*
X146244031Y-84860458D01*
X146304000Y-84845272D01*
X146363969Y-84860458D01*
X146409481Y-84902354D01*
X146498278Y-85038268D01*
X146610525Y-85160200D01*
X146650762Y-85203908D01*
X146770629Y-85297205D01*
X146828424Y-85342189D01*
X147026426Y-85449342D01*
X147239365Y-85522444D01*
X147461431Y-85559500D01*
X147686566Y-85559500D01*
X147686569Y-85559500D01*
X147908635Y-85522444D01*
X148121574Y-85449342D01*
X148319576Y-85342189D01*
X148497240Y-85203906D01*
X148649722Y-85038268D01*
X148738518Y-84902354D01*
X148784031Y-84860458D01*
X148844000Y-84845272D01*
X148903969Y-84860458D01*
X148949481Y-84902354D01*
X149038278Y-85038268D01*
X149150525Y-85160200D01*
X149190762Y-85203908D01*
X149310629Y-85297205D01*
X149368424Y-85342189D01*
X149566426Y-85449342D01*
X149779365Y-85522444D01*
X150001431Y-85559500D01*
X150226566Y-85559500D01*
X150226569Y-85559500D01*
X150448635Y-85522444D01*
X150661574Y-85449342D01*
X150859576Y-85342189D01*
X151037240Y-85203906D01*
X151189722Y-85038268D01*
X151278518Y-84902354D01*
X151324031Y-84860458D01*
X151384000Y-84845272D01*
X151443969Y-84860458D01*
X151489481Y-84902354D01*
X151578278Y-85038268D01*
X151690525Y-85160200D01*
X151730762Y-85203908D01*
X151850629Y-85297205D01*
X151908424Y-85342189D01*
X152106426Y-85449342D01*
X152319365Y-85522444D01*
X152541431Y-85559500D01*
X152766566Y-85559500D01*
X152766569Y-85559500D01*
X152988635Y-85522444D01*
X153201574Y-85449342D01*
X153399576Y-85342189D01*
X153577240Y-85203906D01*
X153729722Y-85038268D01*
X153818518Y-84902354D01*
X153864031Y-84860458D01*
X153924000Y-84845272D01*
X153983969Y-84860458D01*
X154029481Y-84902354D01*
X154118278Y-85038268D01*
X154230525Y-85160200D01*
X154270762Y-85203908D01*
X154390629Y-85297205D01*
X154448424Y-85342189D01*
X154646426Y-85449342D01*
X154859365Y-85522444D01*
X155081431Y-85559500D01*
X155306566Y-85559500D01*
X155306569Y-85559500D01*
X155528635Y-85522444D01*
X155741574Y-85449342D01*
X155939576Y-85342189D01*
X156117240Y-85203906D01*
X156269722Y-85038268D01*
X156358518Y-84902354D01*
X156404031Y-84860458D01*
X156464000Y-84845272D01*
X156523969Y-84860458D01*
X156569481Y-84902354D01*
X156658278Y-85038268D01*
X156770525Y-85160200D01*
X156810762Y-85203908D01*
X156930629Y-85297205D01*
X156988424Y-85342189D01*
X157186426Y-85449342D01*
X157399365Y-85522444D01*
X157621431Y-85559500D01*
X157846566Y-85559500D01*
X157846569Y-85559500D01*
X158068635Y-85522444D01*
X158281574Y-85449342D01*
X158479576Y-85342189D01*
X158657240Y-85203906D01*
X158809722Y-85038268D01*
X158898518Y-84902354D01*
X158944031Y-84860458D01*
X159004000Y-84845272D01*
X159063969Y-84860458D01*
X159109481Y-84902354D01*
X159198278Y-85038268D01*
X159310525Y-85160200D01*
X159350762Y-85203908D01*
X159470629Y-85297205D01*
X159528424Y-85342189D01*
X159726426Y-85449342D01*
X159939365Y-85522444D01*
X160161431Y-85559500D01*
X160386566Y-85559500D01*
X160386569Y-85559500D01*
X160608635Y-85522444D01*
X160821574Y-85449342D01*
X161019576Y-85342189D01*
X161197240Y-85203906D01*
X161349722Y-85038268D01*
X161438518Y-84902354D01*
X161484031Y-84860458D01*
X161544000Y-84845272D01*
X161603969Y-84860458D01*
X161649481Y-84902354D01*
X161738278Y-85038268D01*
X161850525Y-85160200D01*
X161890762Y-85203908D01*
X162010629Y-85297205D01*
X162068424Y-85342189D01*
X162266426Y-85449342D01*
X162479365Y-85522444D01*
X162701431Y-85559500D01*
X162926566Y-85559500D01*
X162926569Y-85559500D01*
X163148635Y-85522444D01*
X163361574Y-85449342D01*
X163559576Y-85342189D01*
X163737240Y-85203906D01*
X163889722Y-85038268D01*
X163978518Y-84902354D01*
X164024031Y-84860458D01*
X164084000Y-84845272D01*
X164143969Y-84860458D01*
X164189481Y-84902354D01*
X164278278Y-85038268D01*
X164390525Y-85160200D01*
X164430762Y-85203908D01*
X164550629Y-85297205D01*
X164608424Y-85342189D01*
X164806426Y-85449342D01*
X165019365Y-85522444D01*
X165241431Y-85559500D01*
X165466566Y-85559500D01*
X165466569Y-85559500D01*
X165688635Y-85522444D01*
X165901574Y-85449342D01*
X166099576Y-85342189D01*
X166277240Y-85203906D01*
X166429722Y-85038268D01*
X166518518Y-84902354D01*
X166564031Y-84860458D01*
X166624000Y-84845272D01*
X166683969Y-84860458D01*
X166729481Y-84902354D01*
X166818278Y-85038268D01*
X166930525Y-85160200D01*
X166970762Y-85203908D01*
X167090629Y-85297205D01*
X167148424Y-85342189D01*
X167346426Y-85449342D01*
X167559365Y-85522444D01*
X167781431Y-85559500D01*
X168006566Y-85559500D01*
X168006569Y-85559500D01*
X168228635Y-85522444D01*
X168441574Y-85449342D01*
X168639576Y-85342189D01*
X168817240Y-85203906D01*
X168969722Y-85038268D01*
X169058518Y-84902354D01*
X169104031Y-84860458D01*
X169164000Y-84845272D01*
X169223969Y-84860458D01*
X169269481Y-84902354D01*
X169358278Y-85038268D01*
X169470525Y-85160200D01*
X169510762Y-85203908D01*
X169630629Y-85297205D01*
X169688424Y-85342189D01*
X169886426Y-85449342D01*
X170099365Y-85522444D01*
X170321431Y-85559500D01*
X170546566Y-85559500D01*
X170546569Y-85559500D01*
X170768635Y-85522444D01*
X170981574Y-85449342D01*
X171179576Y-85342189D01*
X171357240Y-85203906D01*
X171509722Y-85038268D01*
X171598518Y-84902354D01*
X171644031Y-84860458D01*
X171704000Y-84845272D01*
X171763969Y-84860458D01*
X171809481Y-84902354D01*
X171898278Y-85038268D01*
X172010525Y-85160200D01*
X172050762Y-85203908D01*
X172170629Y-85297205D01*
X172228424Y-85342189D01*
X172426426Y-85449342D01*
X172639365Y-85522444D01*
X172861431Y-85559500D01*
X173086566Y-85559500D01*
X173086569Y-85559500D01*
X173308635Y-85522444D01*
X173521574Y-85449342D01*
X173719576Y-85342189D01*
X173897240Y-85203906D01*
X173958246Y-85137635D01*
X174011716Y-85103238D01*
X174075177Y-85099327D01*
X174132469Y-85126903D01*
X174169000Y-85178942D01*
X174213109Y-85297203D01*
X174300738Y-85414261D01*
X174417794Y-85501888D01*
X174417795Y-85501888D01*
X174417796Y-85501889D01*
X174554799Y-85552989D01*
X174615362Y-85559500D01*
X176412638Y-85559500D01*
X176473201Y-85552989D01*
X176610204Y-85501889D01*
X176727261Y-85414261D01*
X176814889Y-85297204D01*
X176865989Y-85160201D01*
X176872500Y-85099638D01*
X176872500Y-83302362D01*
X176865989Y-83241799D01*
X176814889Y-83104796D01*
X176814888Y-83104794D01*
X176727261Y-82987738D01*
X176610205Y-82900111D01*
X176541702Y-82874561D01*
X176473201Y-82849011D01*
X176412638Y-82842500D01*
X174615362Y-82842500D01*
X174554799Y-82849011D01*
X174417794Y-82900111D01*
X174300738Y-82987738D01*
X174213109Y-83104796D01*
X174169000Y-83223057D01*
X174132469Y-83275096D01*
X174075178Y-83302672D01*
X174011716Y-83298762D01*
X173958245Y-83264362D01*
X173897240Y-83198094D01*
X173897239Y-83198093D01*
X173897237Y-83198091D01*
X173719578Y-83059812D01*
X173521573Y-82952657D01*
X173368510Y-82900111D01*
X173308635Y-82879556D01*
X173086569Y-82842500D01*
X172861431Y-82842500D01*
X172639365Y-82879556D01*
X172639362Y-82879556D01*
X172639362Y-82879557D01*
X172426426Y-82952657D01*
X172228421Y-83059812D01*
X172050762Y-83198091D01*
X171898278Y-83363731D01*
X171809483Y-83499643D01*
X171763969Y-83541541D01*
X171704000Y-83556727D01*
X171644031Y-83541541D01*
X171598517Y-83499643D01*
X171509721Y-83363731D01*
X171428126Y-83275096D01*
X171357240Y-83198094D01*
X171357239Y-83198093D01*
X171357237Y-83198091D01*
X171179578Y-83059812D01*
X170981573Y-82952657D01*
X170828510Y-82900111D01*
X170768635Y-82879556D01*
X170546569Y-82842500D01*
X170321431Y-82842500D01*
X170099365Y-82879556D01*
X170099362Y-82879556D01*
X170099362Y-82879557D01*
X169886426Y-82952657D01*
X169688421Y-83059812D01*
X169510762Y-83198091D01*
X169358278Y-83363731D01*
X169269483Y-83499643D01*
X169223969Y-83541541D01*
X169164000Y-83556727D01*
X169104031Y-83541541D01*
X169058517Y-83499643D01*
X168969721Y-83363731D01*
X168888126Y-83275096D01*
X168817240Y-83198094D01*
X168817239Y-83198093D01*
X168817237Y-83198091D01*
X168639578Y-83059812D01*
X168441573Y-82952657D01*
X168288510Y-82900111D01*
X168228635Y-82879556D01*
X168006569Y-82842500D01*
X167781431Y-82842500D01*
X167559365Y-82879556D01*
X167559362Y-82879556D01*
X167559362Y-82879557D01*
X167346426Y-82952657D01*
X167148421Y-83059812D01*
X166970762Y-83198091D01*
X166818278Y-83363731D01*
X166729483Y-83499643D01*
X166683969Y-83541541D01*
X166624000Y-83556727D01*
X166564031Y-83541541D01*
X166518517Y-83499643D01*
X166429721Y-83363731D01*
X166348126Y-83275096D01*
X166277240Y-83198094D01*
X166277239Y-83198093D01*
X166277237Y-83198091D01*
X166099578Y-83059812D01*
X165901573Y-82952657D01*
X165748510Y-82900111D01*
X165688635Y-82879556D01*
X165466569Y-82842500D01*
X165241431Y-82842500D01*
X165019365Y-82879556D01*
X165019362Y-82879556D01*
X165019362Y-82879557D01*
X164806426Y-82952657D01*
X164608421Y-83059812D01*
X164430762Y-83198091D01*
X164278278Y-83363731D01*
X164189483Y-83499643D01*
X164143969Y-83541541D01*
X164084000Y-83556727D01*
X164024031Y-83541541D01*
X163978517Y-83499643D01*
X163889721Y-83363731D01*
X163808126Y-83275096D01*
X163737240Y-83198094D01*
X163737239Y-83198093D01*
X163737237Y-83198091D01*
X163559578Y-83059812D01*
X163361573Y-82952657D01*
X163208510Y-82900111D01*
X163148635Y-82879556D01*
X162926569Y-82842500D01*
X162701431Y-82842500D01*
X162479365Y-82879556D01*
X162479362Y-82879556D01*
X162479362Y-82879557D01*
X162266426Y-82952657D01*
X162068421Y-83059812D01*
X161890762Y-83198091D01*
X161738278Y-83363731D01*
X161649483Y-83499643D01*
X161603969Y-83541541D01*
X161544000Y-83556727D01*
X161484031Y-83541541D01*
X161438517Y-83499643D01*
X161349721Y-83363731D01*
X161268126Y-83275096D01*
X161197240Y-83198094D01*
X161197239Y-83198093D01*
X161197237Y-83198091D01*
X161019578Y-83059812D01*
X160821573Y-82952657D01*
X160668510Y-82900111D01*
X160608635Y-82879556D01*
X160386569Y-82842500D01*
X160161431Y-82842500D01*
X159939365Y-82879556D01*
X159939362Y-82879556D01*
X159939362Y-82879557D01*
X159726426Y-82952657D01*
X159528421Y-83059812D01*
X159350762Y-83198091D01*
X159198278Y-83363731D01*
X159109483Y-83499643D01*
X159063969Y-83541541D01*
X159004000Y-83556727D01*
X158944031Y-83541541D01*
X158898517Y-83499643D01*
X158809721Y-83363731D01*
X158728126Y-83275096D01*
X158657240Y-83198094D01*
X158657239Y-83198093D01*
X158657237Y-83198091D01*
X158479578Y-83059812D01*
X158281573Y-82952657D01*
X158128510Y-82900111D01*
X158068635Y-82879556D01*
X157846569Y-82842500D01*
X157621431Y-82842500D01*
X157399365Y-82879556D01*
X157399362Y-82879556D01*
X157399362Y-82879557D01*
X157186426Y-82952657D01*
X156988421Y-83059812D01*
X156810762Y-83198091D01*
X156658278Y-83363731D01*
X156569483Y-83499643D01*
X156523969Y-83541541D01*
X156464000Y-83556727D01*
X156404031Y-83541541D01*
X156358517Y-83499643D01*
X156269721Y-83363731D01*
X156188126Y-83275096D01*
X156117240Y-83198094D01*
X156117239Y-83198093D01*
X156117237Y-83198091D01*
X155939578Y-83059812D01*
X155741573Y-82952657D01*
X155588510Y-82900111D01*
X155528635Y-82879556D01*
X155306569Y-82842500D01*
X155081431Y-82842500D01*
X154859365Y-82879556D01*
X154859362Y-82879556D01*
X154859362Y-82879557D01*
X154646426Y-82952657D01*
X154448421Y-83059812D01*
X154270762Y-83198091D01*
X154118278Y-83363731D01*
X154029483Y-83499643D01*
X153983969Y-83541541D01*
X153924000Y-83556727D01*
X153864031Y-83541541D01*
X153818517Y-83499643D01*
X153729721Y-83363731D01*
X153648126Y-83275096D01*
X153577240Y-83198094D01*
X153577239Y-83198093D01*
X153577237Y-83198091D01*
X153399578Y-83059812D01*
X153201573Y-82952657D01*
X153048510Y-82900111D01*
X152988635Y-82879556D01*
X152766569Y-82842500D01*
X152541431Y-82842500D01*
X152319365Y-82879556D01*
X152319362Y-82879556D01*
X152319362Y-82879557D01*
X152106426Y-82952657D01*
X151908421Y-83059812D01*
X151730762Y-83198091D01*
X151578278Y-83363731D01*
X151489483Y-83499643D01*
X151443969Y-83541541D01*
X151384000Y-83556727D01*
X151324031Y-83541541D01*
X151278517Y-83499643D01*
X151189721Y-83363731D01*
X151108126Y-83275096D01*
X151037240Y-83198094D01*
X151037239Y-83198093D01*
X151037237Y-83198091D01*
X150859578Y-83059812D01*
X150661573Y-82952657D01*
X150508510Y-82900111D01*
X150448635Y-82879556D01*
X150226569Y-82842500D01*
X150001431Y-82842500D01*
X149779365Y-82879556D01*
X149779362Y-82879556D01*
X149779362Y-82879557D01*
X149566426Y-82952657D01*
X149368421Y-83059812D01*
X149190762Y-83198091D01*
X149038278Y-83363731D01*
X148949483Y-83499643D01*
X148903969Y-83541541D01*
X148844000Y-83556727D01*
X148784031Y-83541541D01*
X148738517Y-83499643D01*
X148649721Y-83363731D01*
X148568126Y-83275096D01*
X148497240Y-83198094D01*
X148497239Y-83198093D01*
X148497237Y-83198091D01*
X148319578Y-83059812D01*
X148121573Y-82952657D01*
X147968510Y-82900111D01*
X147908635Y-82879556D01*
X147686569Y-82842500D01*
X147461431Y-82842500D01*
X147239365Y-82879556D01*
X147239362Y-82879556D01*
X147239362Y-82879557D01*
X147026426Y-82952657D01*
X146828421Y-83059812D01*
X146650762Y-83198091D01*
X146498278Y-83363731D01*
X146409483Y-83499643D01*
X146363969Y-83541541D01*
X146304000Y-83556727D01*
X146244031Y-83541541D01*
X146198517Y-83499643D01*
X146109721Y-83363731D01*
X146028126Y-83275096D01*
X145957240Y-83198094D01*
X145957239Y-83198093D01*
X145957237Y-83198091D01*
X145779578Y-83059812D01*
X145581573Y-82952657D01*
X145428510Y-82900111D01*
X145368635Y-82879556D01*
X145146569Y-82842500D01*
X144921431Y-82842500D01*
X144699365Y-82879556D01*
X144699362Y-82879556D01*
X144699362Y-82879557D01*
X144486426Y-82952657D01*
X144288421Y-83059812D01*
X144110762Y-83198091D01*
X143958278Y-83363731D01*
X143869483Y-83499643D01*
X143823969Y-83541541D01*
X143764000Y-83556727D01*
X143704031Y-83541541D01*
X143658517Y-83499643D01*
X143569721Y-83363731D01*
X143488126Y-83275096D01*
X143417240Y-83198094D01*
X143417239Y-83198093D01*
X143417237Y-83198091D01*
X143239578Y-83059812D01*
X143041573Y-82952657D01*
X142888510Y-82900111D01*
X142828635Y-82879556D01*
X142606569Y-82842500D01*
X142381431Y-82842500D01*
X142159365Y-82879556D01*
X142159362Y-82879556D01*
X142159362Y-82879557D01*
X141946426Y-82952657D01*
X141748421Y-83059812D01*
X141570762Y-83198091D01*
X141418278Y-83363731D01*
X141329483Y-83499643D01*
X141283969Y-83541541D01*
X141224000Y-83556727D01*
X141164031Y-83541541D01*
X141118517Y-83499643D01*
X141029721Y-83363731D01*
X140948126Y-83275096D01*
X140877240Y-83198094D01*
X140877239Y-83198093D01*
X140877237Y-83198091D01*
X140699578Y-83059812D01*
X140501573Y-82952657D01*
X140348510Y-82900111D01*
X140288635Y-82879556D01*
X140066569Y-82842500D01*
X139841431Y-82842500D01*
X139619365Y-82879556D01*
X139619362Y-82879556D01*
X139619362Y-82879557D01*
X139406426Y-82952657D01*
X139208421Y-83059812D01*
X139030762Y-83198091D01*
X138878278Y-83363731D01*
X138789483Y-83499643D01*
X138743969Y-83541541D01*
X138684000Y-83556727D01*
X138624031Y-83541541D01*
X138578517Y-83499643D01*
X138489721Y-83363731D01*
X138408126Y-83275096D01*
X138337240Y-83198094D01*
X138337239Y-83198093D01*
X138337237Y-83198091D01*
X138159578Y-83059812D01*
X137961573Y-82952657D01*
X137808510Y-82900111D01*
X137748635Y-82879556D01*
X137526569Y-82842500D01*
X137301431Y-82842500D01*
X137079365Y-82879556D01*
X137079362Y-82879556D01*
X137079362Y-82879557D01*
X136866426Y-82952657D01*
X136668421Y-83059812D01*
X136490762Y-83198091D01*
X136338278Y-83363731D01*
X136249483Y-83499643D01*
X136203969Y-83541541D01*
X136144000Y-83556727D01*
X136084031Y-83541541D01*
X136038517Y-83499643D01*
X135949721Y-83363731D01*
X135868126Y-83275096D01*
X135797240Y-83198094D01*
X135797239Y-83198093D01*
X135797237Y-83198091D01*
X135619578Y-83059812D01*
X135421573Y-82952657D01*
X135268510Y-82900111D01*
X135208635Y-82879556D01*
X134986569Y-82842500D01*
X134761431Y-82842500D01*
X134539365Y-82879556D01*
X134539362Y-82879556D01*
X134539362Y-82879557D01*
X134326426Y-82952657D01*
X134128421Y-83059812D01*
X133950762Y-83198091D01*
X133798278Y-83363731D01*
X133709483Y-83499643D01*
X133663969Y-83541541D01*
X133604000Y-83556727D01*
X133544031Y-83541541D01*
X133498517Y-83499643D01*
X133409721Y-83363731D01*
X133328126Y-83275096D01*
X133257240Y-83198094D01*
X133257239Y-83198093D01*
X133257237Y-83198091D01*
X133079578Y-83059812D01*
X132881573Y-82952657D01*
X132728510Y-82900111D01*
X132668635Y-82879556D01*
X132446569Y-82842500D01*
X132221431Y-82842500D01*
X131999365Y-82879556D01*
X131999362Y-82879556D01*
X131999362Y-82879557D01*
X131786426Y-82952657D01*
X131588421Y-83059812D01*
X131410762Y-83198091D01*
X131258278Y-83363731D01*
X131135139Y-83552209D01*
X131044702Y-83758388D01*
X130989437Y-83976627D01*
X130989436Y-83976632D01*
X130970844Y-84201000D01*
X128016000Y-84201000D01*
X128016000Y-82381157D01*
X128029209Y-82324994D01*
X128066068Y-82280607D01*
X128118848Y-82257302D01*
X128176482Y-82259967D01*
X128226884Y-82288041D01*
X128309674Y-82363514D01*
X128309676Y-82363515D01*
X128309677Y-82363516D01*
X128497727Y-82479952D01*
X128497731Y-82479953D01*
X128497732Y-82479954D01*
X128703984Y-82559857D01*
X128921406Y-82600500D01*
X129142592Y-82600500D01*
X129142594Y-82600500D01*
X129360016Y-82559857D01*
X129566268Y-82479954D01*
X129566269Y-82479952D01*
X129566272Y-82479952D01*
X129660296Y-82421734D01*
X129754326Y-82363514D01*
X129917786Y-82214500D01*
X130051081Y-82037988D01*
X130149673Y-81839989D01*
X130210204Y-81627245D01*
X130230613Y-81407000D01*
X130210204Y-81186755D01*
X130149673Y-80974011D01*
X130078897Y-80831873D01*
X130051082Y-80776013D01*
X129912826Y-80592932D01*
X129887913Y-80528626D01*
X129900585Y-80460837D01*
X129947046Y-80409873D01*
X130013376Y-80391000D01*
X177834624Y-80391000D01*
X177900954Y-80409873D01*
G37*
%TD.AperFunction*%
%TD*%
M02*
