%TF.GenerationSoftware,KiCad,Pcbnew,7.0.1*%
%TF.CreationDate,2023-05-21T17:25:09+09:00*%
%TF.ProjectId,joystick_gpio_input_main_part,6a6f7973-7469-4636-9b5f-6770696f5f69,2*%
%TF.SameCoordinates,PX7863d30PY784b050*%
%TF.FileFunction,Legend,Top*%
%TF.FilePolarity,Positive*%
%FSLAX46Y46*%
G04 Gerber Fmt 4.6, Leading zero omitted, Abs format (unit mm)*
G04 Created by KiCad (PCBNEW 7.0.1) date 2023-05-21 17:25:09*
%MOMM*%
%LPD*%
G01*
G04 APERTURE LIST*
G04 Aperture macros list*
%AMRoundRect*
0 Rectangle with rounded corners*
0 $1 Rounding radius*
0 $2 $3 $4 $5 $6 $7 $8 $9 X,Y pos of 4 corners*
0 Add a 4 corners polygon primitive as box body*
4,1,4,$2,$3,$4,$5,$6,$7,$8,$9,$2,$3,0*
0 Add four circle primitives for the rounded corners*
1,1,$1+$1,$2,$3*
1,1,$1+$1,$4,$5*
1,1,$1+$1,$6,$7*
1,1,$1+$1,$8,$9*
0 Add four rect primitives between the rounded corners*
20,1,$1+$1,$2,$3,$4,$5,0*
20,1,$1+$1,$4,$5,$6,$7,0*
20,1,$1+$1,$6,$7,$8,$9,0*
20,1,$1+$1,$8,$9,$2,$3,0*%
G04 Aperture macros list end*
%ADD10C,0.150000*%
%ADD11C,0.100000*%
%ADD12C,0.120000*%
%ADD13RoundRect,0.250000X-0.350000X-0.450000X0.350000X-0.450000X0.350000X0.450000X-0.350000X0.450000X0*%
%ADD14RoundRect,0.200000X-0.450000X0.200000X-0.450000X-0.200000X0.450000X-0.200000X0.450000X0.200000X0*%
%ADD15O,1.300000X0.800000*%
%ADD16R,1.700000X1.700000*%
%ADD17O,1.700000X1.700000*%
G04 APERTURE END LIST*
D10*
X8534400Y4394200D02*
X8305800Y4394200D01*
X8305800Y3835400D01*
X8001000Y3835400D01*
X8001000Y4394200D01*
X7772400Y4394200D01*
X8153400Y4978400D01*
X8534400Y4394200D01*
G36*
X8534400Y4394200D02*
G01*
X8305800Y4394200D01*
X8305800Y3835400D01*
X8001000Y3835400D01*
X8001000Y4394200D01*
X7772400Y4394200D01*
X8153400Y4978400D01*
X8534400Y4394200D01*
G37*
D11*
X2082123Y8965210D02*
X2005933Y9003305D01*
X2005933Y9003305D02*
X1891647Y9003305D01*
X1891647Y9003305D02*
X1777361Y8965210D01*
X1777361Y8965210D02*
X1701171Y8889020D01*
X1701171Y8889020D02*
X1663076Y8812829D01*
X1663076Y8812829D02*
X1624980Y8660448D01*
X1624980Y8660448D02*
X1624980Y8546162D01*
X1624980Y8546162D02*
X1663076Y8393781D01*
X1663076Y8393781D02*
X1701171Y8317591D01*
X1701171Y8317591D02*
X1777361Y8241400D01*
X1777361Y8241400D02*
X1891647Y8203305D01*
X1891647Y8203305D02*
X1967838Y8203305D01*
X1967838Y8203305D02*
X2082123Y8241400D01*
X2082123Y8241400D02*
X2120219Y8279496D01*
X2120219Y8279496D02*
X2120219Y8546162D01*
X2120219Y8546162D02*
X1967838Y8546162D01*
X1053551Y6945400D02*
X1167837Y6907305D01*
X1167837Y6907305D02*
X1358313Y6907305D01*
X1358313Y6907305D02*
X1434504Y6945400D01*
X1434504Y6945400D02*
X1472599Y6983496D01*
X1472599Y6983496D02*
X1510694Y7059686D01*
X1510694Y7059686D02*
X1510694Y7135877D01*
X1510694Y7135877D02*
X1472599Y7212067D01*
X1472599Y7212067D02*
X1434504Y7250162D01*
X1434504Y7250162D02*
X1358313Y7288258D01*
X1358313Y7288258D02*
X1205932Y7326353D01*
X1205932Y7326353D02*
X1129742Y7364448D01*
X1129742Y7364448D02*
X1091647Y7402543D01*
X1091647Y7402543D02*
X1053551Y7478734D01*
X1053551Y7478734D02*
X1053551Y7554924D01*
X1053551Y7554924D02*
X1091647Y7631115D01*
X1091647Y7631115D02*
X1129742Y7669210D01*
X1129742Y7669210D02*
X1205932Y7707305D01*
X1205932Y7707305D02*
X1396409Y7707305D01*
X1396409Y7707305D02*
X1510694Y7669210D01*
X1739266Y7707305D02*
X2196409Y7707305D01*
X1967837Y6907305D02*
X1967837Y7707305D01*
X1015456Y5649400D02*
X1129742Y5611305D01*
X1129742Y5611305D02*
X1320218Y5611305D01*
X1320218Y5611305D02*
X1396409Y5649400D01*
X1396409Y5649400D02*
X1434504Y5687496D01*
X1434504Y5687496D02*
X1472599Y5763686D01*
X1472599Y5763686D02*
X1472599Y5839877D01*
X1472599Y5839877D02*
X1434504Y5916067D01*
X1434504Y5916067D02*
X1396409Y5954162D01*
X1396409Y5954162D02*
X1320218Y5992258D01*
X1320218Y5992258D02*
X1167837Y6030353D01*
X1167837Y6030353D02*
X1091647Y6068448D01*
X1091647Y6068448D02*
X1053552Y6106543D01*
X1053552Y6106543D02*
X1015456Y6182734D01*
X1015456Y6182734D02*
X1015456Y6258924D01*
X1015456Y6258924D02*
X1053552Y6335115D01*
X1053552Y6335115D02*
X1091647Y6373210D01*
X1091647Y6373210D02*
X1167837Y6411305D01*
X1167837Y6411305D02*
X1358314Y6411305D01*
X1358314Y6411305D02*
X1472599Y6373210D01*
X2196409Y5611305D02*
X1815457Y5611305D01*
X1815457Y5611305D02*
X1815457Y6411305D01*
X2082123Y5077210D02*
X2005933Y5115305D01*
X2005933Y5115305D02*
X1891647Y5115305D01*
X1891647Y5115305D02*
X1777361Y5077210D01*
X1777361Y5077210D02*
X1701171Y5001020D01*
X1701171Y5001020D02*
X1663076Y4924829D01*
X1663076Y4924829D02*
X1624980Y4772448D01*
X1624980Y4772448D02*
X1624980Y4658162D01*
X1624980Y4658162D02*
X1663076Y4505781D01*
X1663076Y4505781D02*
X1701171Y4429591D01*
X1701171Y4429591D02*
X1777361Y4353400D01*
X1777361Y4353400D02*
X1891647Y4315305D01*
X1891647Y4315305D02*
X1967838Y4315305D01*
X1967838Y4315305D02*
X2082123Y4353400D01*
X2082123Y4353400D02*
X2120219Y4391496D01*
X2120219Y4391496D02*
X2120219Y4658162D01*
X2120219Y4658162D02*
X1967838Y4658162D01*
D10*
X6471133Y3084505D02*
X6471133Y2894029D01*
X6280657Y2970220D02*
X6471133Y2894029D01*
X6471133Y2894029D02*
X6661610Y2970220D01*
X6356848Y2741648D02*
X6471133Y2894029D01*
X6471133Y2894029D02*
X6585419Y2741648D01*
X7423515Y2284505D02*
X7156848Y2665458D01*
X6966372Y2284505D02*
X6966372Y3084505D01*
X6966372Y3084505D02*
X7271134Y3084505D01*
X7271134Y3084505D02*
X7347324Y3046410D01*
X7347324Y3046410D02*
X7385419Y3008315D01*
X7385419Y3008315D02*
X7423515Y2932124D01*
X7423515Y2932124D02*
X7423515Y2817839D01*
X7423515Y2817839D02*
X7385419Y2741648D01*
X7385419Y2741648D02*
X7347324Y2703553D01*
X7347324Y2703553D02*
X7271134Y2665458D01*
X7271134Y2665458D02*
X6966372Y2665458D01*
X8337800Y3122600D02*
X7652086Y2094029D01*
X8718752Y3084505D02*
X8718752Y2894029D01*
X8528276Y2970220D02*
X8718752Y2894029D01*
X8718752Y2894029D02*
X8909229Y2970220D01*
X8604467Y2741648D02*
X8718752Y2894029D01*
X8718752Y2894029D02*
X8833038Y2741648D01*
X9175895Y2322600D02*
X9290181Y2284505D01*
X9290181Y2284505D02*
X9480657Y2284505D01*
X9480657Y2284505D02*
X9556848Y2322600D01*
X9556848Y2322600D02*
X9594943Y2360696D01*
X9594943Y2360696D02*
X9633038Y2436886D01*
X9633038Y2436886D02*
X9633038Y2513077D01*
X9633038Y2513077D02*
X9594943Y2589267D01*
X9594943Y2589267D02*
X9556848Y2627362D01*
X9556848Y2627362D02*
X9480657Y2665458D01*
X9480657Y2665458D02*
X9328276Y2703553D01*
X9328276Y2703553D02*
X9252086Y2741648D01*
X9252086Y2741648D02*
X9213991Y2779743D01*
X9213991Y2779743D02*
X9175895Y2855934D01*
X9175895Y2855934D02*
X9175895Y2932124D01*
X9175895Y2932124D02*
X9213991Y3008315D01*
X9213991Y3008315D02*
X9252086Y3046410D01*
X9252086Y3046410D02*
X9328276Y3084505D01*
X9328276Y3084505D02*
X9518753Y3084505D01*
X9518753Y3084505D02*
X9633038Y3046410D01*
X10356848Y2284505D02*
X9975896Y2284505D01*
X9975896Y2284505D02*
X9975896Y3084505D01*
X11194943Y3122600D02*
X10509229Y2094029D01*
X11575895Y3084505D02*
X11575895Y2894029D01*
X11385419Y2970220D02*
X11575895Y2894029D01*
X11575895Y2894029D02*
X11766372Y2970220D01*
X11461610Y2741648D02*
X11575895Y2894029D01*
X11575895Y2894029D02*
X11690181Y2741648D01*
X12071134Y2284505D02*
X12071134Y3084505D01*
X12071134Y2703553D02*
X12528277Y2703553D01*
X12528277Y2284505D02*
X12528277Y3084505D01*
X12909229Y2284505D02*
X12909229Y3084505D01*
X13366372Y2284505D02*
X13023514Y2741648D01*
X13366372Y3084505D02*
X12909229Y2627362D01*
X14318753Y2360696D02*
X14356848Y2322600D01*
X14356848Y2322600D02*
X14318753Y2284505D01*
X14318753Y2284505D02*
X14280657Y2322600D01*
X14280657Y2322600D02*
X14318753Y2360696D01*
X14318753Y2360696D02*
X14318753Y2284505D01*
X14318753Y2779743D02*
X14356848Y2741648D01*
X14356848Y2741648D02*
X14318753Y2703553D01*
X14318753Y2703553D02*
X14280657Y2741648D01*
X14280657Y2741648D02*
X14318753Y2779743D01*
X14318753Y2779743D02*
X14318753Y2703553D01*
X5518752Y988505D02*
X5061609Y988505D01*
X5290181Y988505D02*
X5290181Y1788505D01*
X5290181Y1788505D02*
X5213990Y1674220D01*
X5213990Y1674220D02*
X5137800Y1598029D01*
X5137800Y1598029D02*
X5061609Y1559934D01*
X5747324Y1293267D02*
X5785419Y1331362D01*
X5785419Y1331362D02*
X5861610Y1369458D01*
X5861610Y1369458D02*
X6013991Y1293267D01*
X6013991Y1293267D02*
X6090181Y1331362D01*
X6090181Y1331362D02*
X6128276Y1369458D01*
X6394943Y1712315D02*
X6433039Y1750410D01*
X6433039Y1750410D02*
X6509229Y1788505D01*
X6509229Y1788505D02*
X6699705Y1788505D01*
X6699705Y1788505D02*
X6775896Y1750410D01*
X6775896Y1750410D02*
X6813991Y1712315D01*
X6813991Y1712315D02*
X6852086Y1636124D01*
X6852086Y1636124D02*
X6852086Y1559934D01*
X6852086Y1559934D02*
X6813991Y1445648D01*
X6813991Y1445648D02*
X6356848Y988505D01*
X6356848Y988505D02*
X6852086Y988505D01*
X7194944Y1064696D02*
X7233039Y1026600D01*
X7233039Y1026600D02*
X7194944Y988505D01*
X7194944Y988505D02*
X7156848Y1026600D01*
X7156848Y1026600D02*
X7194944Y1064696D01*
X7194944Y1064696D02*
X7194944Y988505D01*
X7194944Y1483743D02*
X7233039Y1445648D01*
X7233039Y1445648D02*
X7194944Y1407553D01*
X7194944Y1407553D02*
X7156848Y1445648D01*
X7156848Y1445648D02*
X7194944Y1483743D01*
X7194944Y1483743D02*
X7194944Y1407553D01*
X8033039Y1064696D02*
X7994943Y1026600D01*
X7994943Y1026600D02*
X7880658Y988505D01*
X7880658Y988505D02*
X7804467Y988505D01*
X7804467Y988505D02*
X7690181Y1026600D01*
X7690181Y1026600D02*
X7613991Y1102791D01*
X7613991Y1102791D02*
X7575896Y1178981D01*
X7575896Y1178981D02*
X7537800Y1331362D01*
X7537800Y1331362D02*
X7537800Y1445648D01*
X7537800Y1445648D02*
X7575896Y1598029D01*
X7575896Y1598029D02*
X7613991Y1674220D01*
X7613991Y1674220D02*
X7690181Y1750410D01*
X7690181Y1750410D02*
X7804467Y1788505D01*
X7804467Y1788505D02*
X7880658Y1788505D01*
X7880658Y1788505D02*
X7994943Y1750410D01*
X7994943Y1750410D02*
X8033039Y1712315D01*
X8528277Y1788505D02*
X8680658Y1788505D01*
X8680658Y1788505D02*
X8756848Y1750410D01*
X8756848Y1750410D02*
X8833039Y1674220D01*
X8833039Y1674220D02*
X8871134Y1521839D01*
X8871134Y1521839D02*
X8871134Y1255172D01*
X8871134Y1255172D02*
X8833039Y1102791D01*
X8833039Y1102791D02*
X8756848Y1026600D01*
X8756848Y1026600D02*
X8680658Y988505D01*
X8680658Y988505D02*
X8528277Y988505D01*
X8528277Y988505D02*
X8452086Y1026600D01*
X8452086Y1026600D02*
X8375896Y1102791D01*
X8375896Y1102791D02*
X8337800Y1255172D01*
X8337800Y1255172D02*
X8337800Y1521839D01*
X8337800Y1521839D02*
X8375896Y1674220D01*
X8375896Y1674220D02*
X8452086Y1750410D01*
X8452086Y1750410D02*
X8528277Y1788505D01*
X9213991Y988505D02*
X9213991Y1788505D01*
X9213991Y1788505D02*
X9671134Y988505D01*
X9671134Y988505D02*
X9671134Y1788505D01*
X10090181Y1026600D02*
X10090181Y988505D01*
X10090181Y988505D02*
X10052086Y912315D01*
X10052086Y912315D02*
X10013990Y874220D01*
X11004466Y1712315D02*
X11042562Y1750410D01*
X11042562Y1750410D02*
X11118752Y1788505D01*
X11118752Y1788505D02*
X11309228Y1788505D01*
X11309228Y1788505D02*
X11385419Y1750410D01*
X11385419Y1750410D02*
X11423514Y1712315D01*
X11423514Y1712315D02*
X11461609Y1636124D01*
X11461609Y1636124D02*
X11461609Y1559934D01*
X11461609Y1559934D02*
X11423514Y1445648D01*
X11423514Y1445648D02*
X10966371Y988505D01*
X10966371Y988505D02*
X11461609Y988505D01*
X11690181Y1293267D02*
X11728276Y1331362D01*
X11728276Y1331362D02*
X11804467Y1369458D01*
X11804467Y1369458D02*
X11956848Y1293267D01*
X11956848Y1293267D02*
X12033038Y1331362D01*
X12033038Y1331362D02*
X12071133Y1369458D01*
X12299705Y1788505D02*
X12794943Y1788505D01*
X12794943Y1788505D02*
X12528277Y1483743D01*
X12528277Y1483743D02*
X12642562Y1483743D01*
X12642562Y1483743D02*
X12718753Y1445648D01*
X12718753Y1445648D02*
X12756848Y1407553D01*
X12756848Y1407553D02*
X12794943Y1331362D01*
X12794943Y1331362D02*
X12794943Y1140886D01*
X12794943Y1140886D02*
X12756848Y1064696D01*
X12756848Y1064696D02*
X12718753Y1026600D01*
X12718753Y1026600D02*
X12642562Y988505D01*
X12642562Y988505D02*
X12413991Y988505D01*
X12413991Y988505D02*
X12337800Y1026600D01*
X12337800Y1026600D02*
X12299705Y1064696D01*
X13137801Y1064696D02*
X13175896Y1026600D01*
X13175896Y1026600D02*
X13137801Y988505D01*
X13137801Y988505D02*
X13099705Y1026600D01*
X13099705Y1026600D02*
X13137801Y1064696D01*
X13137801Y1064696D02*
X13137801Y988505D01*
X13137801Y1483743D02*
X13175896Y1445648D01*
X13175896Y1445648D02*
X13137801Y1407553D01*
X13137801Y1407553D02*
X13099705Y1445648D01*
X13099705Y1445648D02*
X13137801Y1483743D01*
X13137801Y1483743D02*
X13137801Y1407553D01*
X13937800Y1750410D02*
X13861610Y1788505D01*
X13861610Y1788505D02*
X13747324Y1788505D01*
X13747324Y1788505D02*
X13633038Y1750410D01*
X13633038Y1750410D02*
X13556848Y1674220D01*
X13556848Y1674220D02*
X13518753Y1598029D01*
X13518753Y1598029D02*
X13480657Y1445648D01*
X13480657Y1445648D02*
X13480657Y1331362D01*
X13480657Y1331362D02*
X13518753Y1178981D01*
X13518753Y1178981D02*
X13556848Y1102791D01*
X13556848Y1102791D02*
X13633038Y1026600D01*
X13633038Y1026600D02*
X13747324Y988505D01*
X13747324Y988505D02*
X13823515Y988505D01*
X13823515Y988505D02*
X13937800Y1026600D01*
X13937800Y1026600D02*
X13975896Y1064696D01*
X13975896Y1064696D02*
X13975896Y1331362D01*
X13975896Y1331362D02*
X13823515Y1331362D01*
X14318753Y988505D02*
X14318753Y1788505D01*
X14318753Y1788505D02*
X14775896Y988505D01*
X14775896Y988505D02*
X14775896Y1788505D01*
X15156848Y988505D02*
X15156848Y1788505D01*
X15156848Y1788505D02*
X15347324Y1788505D01*
X15347324Y1788505D02*
X15461610Y1750410D01*
X15461610Y1750410D02*
X15537800Y1674220D01*
X15537800Y1674220D02*
X15575895Y1598029D01*
X15575895Y1598029D02*
X15613991Y1445648D01*
X15613991Y1445648D02*
X15613991Y1331362D01*
X15613991Y1331362D02*
X15575895Y1178981D01*
X15575895Y1178981D02*
X15537800Y1102791D01*
X15537800Y1102791D02*
X15461610Y1026600D01*
X15461610Y1026600D02*
X15347324Y988505D01*
X15347324Y988505D02*
X15156848Y988505D01*
D11*
X2120923Y30863610D02*
X2044733Y30901705D01*
X2044733Y30901705D02*
X1930447Y30901705D01*
X1930447Y30901705D02*
X1816161Y30863610D01*
X1816161Y30863610D02*
X1739971Y30787420D01*
X1739971Y30787420D02*
X1701876Y30711229D01*
X1701876Y30711229D02*
X1663780Y30558848D01*
X1663780Y30558848D02*
X1663780Y30444562D01*
X1663780Y30444562D02*
X1701876Y30292181D01*
X1701876Y30292181D02*
X1739971Y30215991D01*
X1739971Y30215991D02*
X1816161Y30139800D01*
X1816161Y30139800D02*
X1930447Y30101705D01*
X1930447Y30101705D02*
X2006638Y30101705D01*
X2006638Y30101705D02*
X2120923Y30139800D01*
X2120923Y30139800D02*
X2159019Y30177896D01*
X2159019Y30177896D02*
X2159019Y30444562D01*
X2159019Y30444562D02*
X2006638Y30444562D01*
X863781Y29605705D02*
X863781Y28958086D01*
X863781Y28958086D02*
X901876Y28881896D01*
X901876Y28881896D02*
X939971Y28843800D01*
X939971Y28843800D02*
X1016162Y28805705D01*
X1016162Y28805705D02*
X1168543Y28805705D01*
X1168543Y28805705D02*
X1244733Y28843800D01*
X1244733Y28843800D02*
X1282828Y28881896D01*
X1282828Y28881896D02*
X1320924Y28958086D01*
X1320924Y28958086D02*
X1320924Y29605705D01*
X1701876Y28805705D02*
X1701876Y29605705D01*
X1701876Y29605705D02*
X2006638Y29605705D01*
X2006638Y29605705D02*
X2082828Y29567610D01*
X2082828Y29567610D02*
X2120923Y29529515D01*
X2120923Y29529515D02*
X2159019Y29453324D01*
X2159019Y29453324D02*
X2159019Y29339039D01*
X2159019Y29339039D02*
X2120923Y29262848D01*
X2120923Y29262848D02*
X2082828Y29224753D01*
X2082828Y29224753D02*
X2006638Y29186658D01*
X2006638Y29186658D02*
X1701876Y29186658D01*
X863781Y27509705D02*
X863781Y28309705D01*
X863781Y28309705D02*
X1054257Y28309705D01*
X1054257Y28309705D02*
X1168543Y28271610D01*
X1168543Y28271610D02*
X1244733Y28195420D01*
X1244733Y28195420D02*
X1282828Y28119229D01*
X1282828Y28119229D02*
X1320924Y27966848D01*
X1320924Y27966848D02*
X1320924Y27852562D01*
X1320924Y27852562D02*
X1282828Y27700181D01*
X1282828Y27700181D02*
X1244733Y27623991D01*
X1244733Y27623991D02*
X1168543Y27547800D01*
X1168543Y27547800D02*
X1054257Y27509705D01*
X1054257Y27509705D02*
X863781Y27509705D01*
X1663781Y27509705D02*
X1663781Y28309705D01*
X1663781Y28309705D02*
X2120924Y27509705D01*
X2120924Y27509705D02*
X2120924Y28309705D01*
X2235209Y26213705D02*
X1854257Y26213705D01*
X1854257Y26213705D02*
X1854257Y27013705D01*
X1206637Y25717705D02*
X1206637Y25527229D01*
X1016161Y25603420D02*
X1206637Y25527229D01*
X1206637Y25527229D02*
X1397114Y25603420D01*
X1092352Y25374848D02*
X1206637Y25527229D01*
X1206637Y25527229D02*
X1320923Y25374848D01*
X2159019Y24917705D02*
X1892352Y25298658D01*
X1701876Y24917705D02*
X1701876Y25717705D01*
X1701876Y25717705D02*
X2006638Y25717705D01*
X2006638Y25717705D02*
X2082828Y25679610D01*
X2082828Y25679610D02*
X2120923Y25641515D01*
X2120923Y25641515D02*
X2159019Y25565324D01*
X2159019Y25565324D02*
X2159019Y25451039D01*
X2159019Y25451039D02*
X2120923Y25374848D01*
X2120923Y25374848D02*
X2082828Y25336753D01*
X2082828Y25336753D02*
X2006638Y25298658D01*
X2006638Y25298658D02*
X1701876Y25298658D01*
X1092351Y23659800D02*
X1206637Y23621705D01*
X1206637Y23621705D02*
X1397113Y23621705D01*
X1397113Y23621705D02*
X1473304Y23659800D01*
X1473304Y23659800D02*
X1511399Y23697896D01*
X1511399Y23697896D02*
X1549494Y23774086D01*
X1549494Y23774086D02*
X1549494Y23850277D01*
X1549494Y23850277D02*
X1511399Y23926467D01*
X1511399Y23926467D02*
X1473304Y23964562D01*
X1473304Y23964562D02*
X1397113Y24002658D01*
X1397113Y24002658D02*
X1244732Y24040753D01*
X1244732Y24040753D02*
X1168542Y24078848D01*
X1168542Y24078848D02*
X1130447Y24116943D01*
X1130447Y24116943D02*
X1092351Y24193134D01*
X1092351Y24193134D02*
X1092351Y24269324D01*
X1092351Y24269324D02*
X1130447Y24345515D01*
X1130447Y24345515D02*
X1168542Y24383610D01*
X1168542Y24383610D02*
X1244732Y24421705D01*
X1244732Y24421705D02*
X1435209Y24421705D01*
X1435209Y24421705D02*
X1549494Y24383610D01*
X1778066Y24421705D02*
X2235209Y24421705D01*
X2006637Y23621705D02*
X2006637Y24421705D01*
X597113Y23125705D02*
X597113Y22935229D01*
X406637Y23011420D02*
X597113Y22935229D01*
X597113Y22935229D02*
X787590Y23011420D01*
X482828Y22782848D02*
X597113Y22935229D01*
X597113Y22935229D02*
X711399Y22782848D01*
X1054256Y22363800D02*
X1168542Y22325705D01*
X1168542Y22325705D02*
X1359018Y22325705D01*
X1359018Y22325705D02*
X1435209Y22363800D01*
X1435209Y22363800D02*
X1473304Y22401896D01*
X1473304Y22401896D02*
X1511399Y22478086D01*
X1511399Y22478086D02*
X1511399Y22554277D01*
X1511399Y22554277D02*
X1473304Y22630467D01*
X1473304Y22630467D02*
X1435209Y22668562D01*
X1435209Y22668562D02*
X1359018Y22706658D01*
X1359018Y22706658D02*
X1206637Y22744753D01*
X1206637Y22744753D02*
X1130447Y22782848D01*
X1130447Y22782848D02*
X1092352Y22820943D01*
X1092352Y22820943D02*
X1054256Y22897134D01*
X1054256Y22897134D02*
X1054256Y22973324D01*
X1054256Y22973324D02*
X1092352Y23049515D01*
X1092352Y23049515D02*
X1130447Y23087610D01*
X1130447Y23087610D02*
X1206637Y23125705D01*
X1206637Y23125705D02*
X1397114Y23125705D01*
X1397114Y23125705D02*
X1511399Y23087610D01*
X2235209Y22325705D02*
X1854257Y22325705D01*
X1854257Y22325705D02*
X1854257Y23125705D01*
X1778066Y21258277D02*
X2159019Y21258277D01*
X1701876Y21029705D02*
X1968543Y21829705D01*
X1968543Y21829705D02*
X2235209Y21029705D01*
X1968542Y20152753D02*
X2082828Y20114658D01*
X2082828Y20114658D02*
X2120923Y20076562D01*
X2120923Y20076562D02*
X2159019Y20000372D01*
X2159019Y20000372D02*
X2159019Y19886086D01*
X2159019Y19886086D02*
X2120923Y19809896D01*
X2120923Y19809896D02*
X2082828Y19771800D01*
X2082828Y19771800D02*
X2006638Y19733705D01*
X2006638Y19733705D02*
X1701876Y19733705D01*
X1701876Y19733705D02*
X1701876Y20533705D01*
X1701876Y20533705D02*
X1968542Y20533705D01*
X1968542Y20533705D02*
X2044733Y20495610D01*
X2044733Y20495610D02*
X2082828Y20457515D01*
X2082828Y20457515D02*
X2120923Y20381324D01*
X2120923Y20381324D02*
X2120923Y20305134D01*
X2120923Y20305134D02*
X2082828Y20228943D01*
X2082828Y20228943D02*
X2044733Y20190848D01*
X2044733Y20190848D02*
X1968542Y20152753D01*
X1968542Y20152753D02*
X1701876Y20152753D01*
X1663780Y19237705D02*
X2197114Y18437705D01*
X2197114Y19237705D02*
X1663780Y18437705D01*
X1968543Y17522658D02*
X1968543Y17141705D01*
X1701876Y17941705D02*
X1968543Y17522658D01*
X1968543Y17522658D02*
X2235209Y17941705D01*
X1130447Y16645705D02*
X1587590Y16645705D01*
X1359018Y15845705D02*
X1359018Y16645705D01*
X2235209Y15845705D02*
X1854257Y15845705D01*
X1854257Y15845705D02*
X1854257Y16645705D01*
X978066Y15349705D02*
X1435209Y15349705D01*
X1206637Y14549705D02*
X1206637Y15349705D01*
X2159019Y14549705D02*
X1892352Y14930658D01*
X1701876Y14549705D02*
X1701876Y15349705D01*
X1701876Y15349705D02*
X2006638Y15349705D01*
X2006638Y15349705D02*
X2082828Y15311610D01*
X2082828Y15311610D02*
X2120923Y15273515D01*
X2120923Y15273515D02*
X2159019Y15197324D01*
X2159019Y15197324D02*
X2159019Y15083039D01*
X2159019Y15083039D02*
X2120923Y15006848D01*
X2120923Y15006848D02*
X2082828Y14968753D01*
X2082828Y14968753D02*
X2006638Y14930658D01*
X2006638Y14930658D02*
X1701876Y14930658D01*
X368542Y14053705D02*
X368542Y13863229D01*
X178066Y13939420D02*
X368542Y13863229D01*
X368542Y13863229D02*
X559019Y13939420D01*
X254257Y13710848D02*
X368542Y13863229D01*
X368542Y13863229D02*
X482828Y13710848D01*
X863781Y13253705D02*
X863781Y14053705D01*
X863781Y13672753D02*
X1320924Y13672753D01*
X1320924Y13253705D02*
X1320924Y14053705D01*
X1701876Y13253705D02*
X1701876Y14053705D01*
X2159019Y13253705D02*
X1816161Y13710848D01*
X2159019Y14053705D02*
X1701876Y13596562D01*
X2120923Y12719610D02*
X2044733Y12757705D01*
X2044733Y12757705D02*
X1930447Y12757705D01*
X1930447Y12757705D02*
X1816161Y12719610D01*
X1816161Y12719610D02*
X1739971Y12643420D01*
X1739971Y12643420D02*
X1701876Y12567229D01*
X1701876Y12567229D02*
X1663780Y12414848D01*
X1663780Y12414848D02*
X1663780Y12300562D01*
X1663780Y12300562D02*
X1701876Y12148181D01*
X1701876Y12148181D02*
X1739971Y12071991D01*
X1739971Y12071991D02*
X1816161Y11995800D01*
X1816161Y11995800D02*
X1930447Y11957705D01*
X1930447Y11957705D02*
X2006638Y11957705D01*
X2006638Y11957705D02*
X2120923Y11995800D01*
X2120923Y11995800D02*
X2159019Y12033896D01*
X2159019Y12033896D02*
X2159019Y12300562D01*
X2159019Y12300562D02*
X2006638Y12300562D01*
X2056723Y40995210D02*
X1980533Y41033305D01*
X1980533Y41033305D02*
X1866247Y41033305D01*
X1866247Y41033305D02*
X1751961Y40995210D01*
X1751961Y40995210D02*
X1675771Y40919020D01*
X1675771Y40919020D02*
X1637676Y40842829D01*
X1637676Y40842829D02*
X1599580Y40690448D01*
X1599580Y40690448D02*
X1599580Y40576162D01*
X1599580Y40576162D02*
X1637676Y40423781D01*
X1637676Y40423781D02*
X1675771Y40347591D01*
X1675771Y40347591D02*
X1751961Y40271400D01*
X1751961Y40271400D02*
X1866247Y40233305D01*
X1866247Y40233305D02*
X1942438Y40233305D01*
X1942438Y40233305D02*
X2056723Y40271400D01*
X2056723Y40271400D02*
X2094819Y40309496D01*
X2094819Y40309496D02*
X2094819Y40576162D01*
X2094819Y40576162D02*
X1942438Y40576162D01*
X799581Y39737305D02*
X799581Y39089686D01*
X799581Y39089686D02*
X837676Y39013496D01*
X837676Y39013496D02*
X875771Y38975400D01*
X875771Y38975400D02*
X951962Y38937305D01*
X951962Y38937305D02*
X1104343Y38937305D01*
X1104343Y38937305D02*
X1180533Y38975400D01*
X1180533Y38975400D02*
X1218628Y39013496D01*
X1218628Y39013496D02*
X1256724Y39089686D01*
X1256724Y39089686D02*
X1256724Y39737305D01*
X1637676Y38937305D02*
X1637676Y39737305D01*
X1637676Y39737305D02*
X1942438Y39737305D01*
X1942438Y39737305D02*
X2018628Y39699210D01*
X2018628Y39699210D02*
X2056723Y39661115D01*
X2056723Y39661115D02*
X2094819Y39584924D01*
X2094819Y39584924D02*
X2094819Y39470639D01*
X2094819Y39470639D02*
X2056723Y39394448D01*
X2056723Y39394448D02*
X2018628Y39356353D01*
X2018628Y39356353D02*
X1942438Y39318258D01*
X1942438Y39318258D02*
X1637676Y39318258D01*
X799581Y37641305D02*
X799581Y38441305D01*
X799581Y38441305D02*
X990057Y38441305D01*
X990057Y38441305D02*
X1104343Y38403210D01*
X1104343Y38403210D02*
X1180533Y38327020D01*
X1180533Y38327020D02*
X1218628Y38250829D01*
X1218628Y38250829D02*
X1256724Y38098448D01*
X1256724Y38098448D02*
X1256724Y37984162D01*
X1256724Y37984162D02*
X1218628Y37831781D01*
X1218628Y37831781D02*
X1180533Y37755591D01*
X1180533Y37755591D02*
X1104343Y37679400D01*
X1104343Y37679400D02*
X990057Y37641305D01*
X990057Y37641305D02*
X799581Y37641305D01*
X1599581Y37641305D02*
X1599581Y38441305D01*
X1599581Y38441305D02*
X2056724Y37641305D01*
X2056724Y37641305D02*
X2056724Y38441305D01*
X2171009Y36345305D02*
X1790057Y36345305D01*
X1790057Y36345305D02*
X1790057Y37145305D01*
X2094819Y35049305D02*
X1828152Y35430258D01*
X1637676Y35049305D02*
X1637676Y35849305D01*
X1637676Y35849305D02*
X1942438Y35849305D01*
X1942438Y35849305D02*
X2018628Y35811210D01*
X2018628Y35811210D02*
X2056723Y35773115D01*
X2056723Y35773115D02*
X2094819Y35696924D01*
X2094819Y35696924D02*
X2094819Y35582639D01*
X2094819Y35582639D02*
X2056723Y35506448D01*
X2056723Y35506448D02*
X2018628Y35468353D01*
X2018628Y35468353D02*
X1942438Y35430258D01*
X1942438Y35430258D02*
X1637676Y35430258D01*
X2056723Y34515210D02*
X1980533Y34553305D01*
X1980533Y34553305D02*
X1866247Y34553305D01*
X1866247Y34553305D02*
X1751961Y34515210D01*
X1751961Y34515210D02*
X1675771Y34439020D01*
X1675771Y34439020D02*
X1637676Y34362829D01*
X1637676Y34362829D02*
X1599580Y34210448D01*
X1599580Y34210448D02*
X1599580Y34096162D01*
X1599580Y34096162D02*
X1637676Y33943781D01*
X1637676Y33943781D02*
X1675771Y33867591D01*
X1675771Y33867591D02*
X1751961Y33791400D01*
X1751961Y33791400D02*
X1866247Y33753305D01*
X1866247Y33753305D02*
X1942438Y33753305D01*
X1942438Y33753305D02*
X2056723Y33791400D01*
X2056723Y33791400D02*
X2094819Y33829496D01*
X2094819Y33829496D02*
X2094819Y34096162D01*
X2094819Y34096162D02*
X1942438Y34096162D01*
D10*
X7612999Y26744305D02*
X7612999Y26553829D01*
X7422523Y26630020D02*
X7612999Y26553829D01*
X7612999Y26553829D02*
X7803476Y26630020D01*
X7498714Y26401448D02*
X7612999Y26553829D01*
X7612999Y26553829D02*
X7727285Y26401448D01*
X8565381Y25944305D02*
X8298714Y26325258D01*
X8108238Y25944305D02*
X8108238Y26744305D01*
X8108238Y26744305D02*
X8413000Y26744305D01*
X8413000Y26744305D02*
X8489190Y26706210D01*
X8489190Y26706210D02*
X8527285Y26668115D01*
X8527285Y26668115D02*
X8565381Y26591924D01*
X8565381Y26591924D02*
X8565381Y26477639D01*
X8565381Y26477639D02*
X8527285Y26401448D01*
X8527285Y26401448D02*
X8489190Y26363353D01*
X8489190Y26363353D02*
X8413000Y26325258D01*
X8413000Y26325258D02*
X8108238Y26325258D01*
X6047646Y44685762D02*
X5952408Y44733381D01*
X5952408Y44733381D02*
X5809551Y44733381D01*
X5809551Y44733381D02*
X5666694Y44685762D01*
X5666694Y44685762D02*
X5571456Y44590524D01*
X5571456Y44590524D02*
X5523837Y44495286D01*
X5523837Y44495286D02*
X5476218Y44304810D01*
X5476218Y44304810D02*
X5476218Y44161953D01*
X5476218Y44161953D02*
X5523837Y43971477D01*
X5523837Y43971477D02*
X5571456Y43876239D01*
X5571456Y43876239D02*
X5666694Y43781000D01*
X5666694Y43781000D02*
X5809551Y43733381D01*
X5809551Y43733381D02*
X5904789Y43733381D01*
X5904789Y43733381D02*
X6047646Y43781000D01*
X6047646Y43781000D02*
X6095265Y43828620D01*
X6095265Y43828620D02*
X6095265Y44161953D01*
X6095265Y44161953D02*
X5904789Y44161953D01*
X6523837Y43733381D02*
X6523837Y44733381D01*
X6523837Y44733381D02*
X6904789Y44733381D01*
X6904789Y44733381D02*
X7000027Y44685762D01*
X7000027Y44685762D02*
X7047646Y44638143D01*
X7047646Y44638143D02*
X7095265Y44542905D01*
X7095265Y44542905D02*
X7095265Y44400048D01*
X7095265Y44400048D02*
X7047646Y44304810D01*
X7047646Y44304810D02*
X7000027Y44257191D01*
X7000027Y44257191D02*
X6904789Y44209572D01*
X6904789Y44209572D02*
X6523837Y44209572D01*
X7523837Y43733381D02*
X7523837Y44733381D01*
X8190503Y44733381D02*
X8380979Y44733381D01*
X8380979Y44733381D02*
X8476217Y44685762D01*
X8476217Y44685762D02*
X8571455Y44590524D01*
X8571455Y44590524D02*
X8619074Y44400048D01*
X8619074Y44400048D02*
X8619074Y44066715D01*
X8619074Y44066715D02*
X8571455Y43876239D01*
X8571455Y43876239D02*
X8476217Y43781000D01*
X8476217Y43781000D02*
X8380979Y43733381D01*
X8380979Y43733381D02*
X8190503Y43733381D01*
X8190503Y43733381D02*
X8095265Y43781000D01*
X8095265Y43781000D02*
X8000027Y43876239D01*
X8000027Y43876239D02*
X7952408Y44066715D01*
X7952408Y44066715D02*
X7952408Y44400048D01*
X7952408Y44400048D02*
X8000027Y44590524D01*
X8000027Y44590524D02*
X8095265Y44685762D01*
X8095265Y44685762D02*
X8190503Y44733381D01*
X9809551Y43733381D02*
X9809551Y44733381D01*
X10285741Y44400048D02*
X10285741Y43733381D01*
X10285741Y44304810D02*
X10333360Y44352429D01*
X10333360Y44352429D02*
X10428598Y44400048D01*
X10428598Y44400048D02*
X10571455Y44400048D01*
X10571455Y44400048D02*
X10666693Y44352429D01*
X10666693Y44352429D02*
X10714312Y44257191D01*
X10714312Y44257191D02*
X10714312Y43733381D01*
X11190503Y44400048D02*
X11190503Y43400048D01*
X11190503Y44352429D02*
X11285741Y44400048D01*
X11285741Y44400048D02*
X11476217Y44400048D01*
X11476217Y44400048D02*
X11571455Y44352429D01*
X11571455Y44352429D02*
X11619074Y44304810D01*
X11619074Y44304810D02*
X11666693Y44209572D01*
X11666693Y44209572D02*
X11666693Y43923858D01*
X11666693Y43923858D02*
X11619074Y43828620D01*
X11619074Y43828620D02*
X11571455Y43781000D01*
X11571455Y43781000D02*
X11476217Y43733381D01*
X11476217Y43733381D02*
X11285741Y43733381D01*
X11285741Y43733381D02*
X11190503Y43781000D01*
X12523836Y44400048D02*
X12523836Y43733381D01*
X12095265Y44400048D02*
X12095265Y43876239D01*
X12095265Y43876239D02*
X12142884Y43781000D01*
X12142884Y43781000D02*
X12238122Y43733381D01*
X12238122Y43733381D02*
X12380979Y43733381D01*
X12380979Y43733381D02*
X12476217Y43781000D01*
X12476217Y43781000D02*
X12523836Y43828620D01*
X12857170Y44400048D02*
X13238122Y44400048D01*
X13000027Y44733381D02*
X13000027Y43876239D01*
X13000027Y43876239D02*
X13047646Y43781000D01*
X13047646Y43781000D02*
X13142884Y43733381D01*
X13142884Y43733381D02*
X13238122Y43733381D01*
X14190504Y44400048D02*
X14571456Y44400048D01*
X14333361Y43733381D02*
X14333361Y44590524D01*
X14333361Y44590524D02*
X14380980Y44685762D01*
X14380980Y44685762D02*
X14476218Y44733381D01*
X14476218Y44733381D02*
X14571456Y44733381D01*
X15047647Y43733381D02*
X14952409Y43781000D01*
X14952409Y43781000D02*
X14904790Y43828620D01*
X14904790Y43828620D02*
X14857171Y43923858D01*
X14857171Y43923858D02*
X14857171Y44209572D01*
X14857171Y44209572D02*
X14904790Y44304810D01*
X14904790Y44304810D02*
X14952409Y44352429D01*
X14952409Y44352429D02*
X15047647Y44400048D01*
X15047647Y44400048D02*
X15190504Y44400048D01*
X15190504Y44400048D02*
X15285742Y44352429D01*
X15285742Y44352429D02*
X15333361Y44304810D01*
X15333361Y44304810D02*
X15380980Y44209572D01*
X15380980Y44209572D02*
X15380980Y43923858D01*
X15380980Y43923858D02*
X15333361Y43828620D01*
X15333361Y43828620D02*
X15285742Y43781000D01*
X15285742Y43781000D02*
X15190504Y43733381D01*
X15190504Y43733381D02*
X15047647Y43733381D01*
X15809552Y43733381D02*
X15809552Y44400048D01*
X15809552Y44209572D02*
X15857171Y44304810D01*
X15857171Y44304810D02*
X15904790Y44352429D01*
X15904790Y44352429D02*
X16000028Y44400048D01*
X16000028Y44400048D02*
X16095266Y44400048D01*
X17761933Y43733381D02*
X17428600Y44209572D01*
X17190505Y43733381D02*
X17190505Y44733381D01*
X17190505Y44733381D02*
X17571457Y44733381D01*
X17571457Y44733381D02*
X17666695Y44685762D01*
X17666695Y44685762D02*
X17714314Y44638143D01*
X17714314Y44638143D02*
X17761933Y44542905D01*
X17761933Y44542905D02*
X17761933Y44400048D01*
X17761933Y44400048D02*
X17714314Y44304810D01*
X17714314Y44304810D02*
X17666695Y44257191D01*
X17666695Y44257191D02*
X17571457Y44209572D01*
X17571457Y44209572D02*
X17190505Y44209572D01*
X18619076Y43733381D02*
X18619076Y44257191D01*
X18619076Y44257191D02*
X18571457Y44352429D01*
X18571457Y44352429D02*
X18476219Y44400048D01*
X18476219Y44400048D02*
X18285743Y44400048D01*
X18285743Y44400048D02*
X18190505Y44352429D01*
X18619076Y43781000D02*
X18523838Y43733381D01*
X18523838Y43733381D02*
X18285743Y43733381D01*
X18285743Y43733381D02*
X18190505Y43781000D01*
X18190505Y43781000D02*
X18142886Y43876239D01*
X18142886Y43876239D02*
X18142886Y43971477D01*
X18142886Y43971477D02*
X18190505Y44066715D01*
X18190505Y44066715D02*
X18285743Y44114334D01*
X18285743Y44114334D02*
X18523838Y44114334D01*
X18523838Y44114334D02*
X18619076Y44161953D01*
X19047648Y43781000D02*
X19142886Y43733381D01*
X19142886Y43733381D02*
X19333362Y43733381D01*
X19333362Y43733381D02*
X19428600Y43781000D01*
X19428600Y43781000D02*
X19476219Y43876239D01*
X19476219Y43876239D02*
X19476219Y43923858D01*
X19476219Y43923858D02*
X19428600Y44019096D01*
X19428600Y44019096D02*
X19333362Y44066715D01*
X19333362Y44066715D02*
X19190505Y44066715D01*
X19190505Y44066715D02*
X19095267Y44114334D01*
X19095267Y44114334D02*
X19047648Y44209572D01*
X19047648Y44209572D02*
X19047648Y44257191D01*
X19047648Y44257191D02*
X19095267Y44352429D01*
X19095267Y44352429D02*
X19190505Y44400048D01*
X19190505Y44400048D02*
X19333362Y44400048D01*
X19333362Y44400048D02*
X19428600Y44352429D01*
X19904791Y44400048D02*
X19904791Y43400048D01*
X19904791Y44352429D02*
X20000029Y44400048D01*
X20000029Y44400048D02*
X20190505Y44400048D01*
X20190505Y44400048D02*
X20285743Y44352429D01*
X20285743Y44352429D02*
X20333362Y44304810D01*
X20333362Y44304810D02*
X20380981Y44209572D01*
X20380981Y44209572D02*
X20380981Y43923858D01*
X20380981Y43923858D02*
X20333362Y43828620D01*
X20333362Y43828620D02*
X20285743Y43781000D01*
X20285743Y43781000D02*
X20190505Y43733381D01*
X20190505Y43733381D02*
X20000029Y43733381D01*
X20000029Y43733381D02*
X19904791Y43781000D01*
X7193952Y8176905D02*
X7193952Y7986429D01*
X7003476Y8062620D02*
X7193952Y7986429D01*
X7193952Y7986429D02*
X7384429Y8062620D01*
X7079667Y7834048D02*
X7193952Y7986429D01*
X7193952Y7986429D02*
X7308238Y7834048D01*
X7689191Y7376905D02*
X7689191Y8176905D01*
X7689191Y7795953D02*
X8146334Y7795953D01*
X8146334Y7376905D02*
X8146334Y8176905D01*
X8527286Y7376905D02*
X8527286Y8176905D01*
X8984429Y7376905D02*
X8641571Y7834048D01*
X8984429Y8176905D02*
X8527286Y7719762D01*
X7308237Y17442505D02*
X7308237Y17252029D01*
X7117761Y17328220D02*
X7308237Y17252029D01*
X7308237Y17252029D02*
X7498714Y17328220D01*
X7193952Y17099648D02*
X7308237Y17252029D01*
X7308237Y17252029D02*
X7422523Y17099648D01*
X7765380Y16680600D02*
X7879666Y16642505D01*
X7879666Y16642505D02*
X8070142Y16642505D01*
X8070142Y16642505D02*
X8146333Y16680600D01*
X8146333Y16680600D02*
X8184428Y16718696D01*
X8184428Y16718696D02*
X8222523Y16794886D01*
X8222523Y16794886D02*
X8222523Y16871077D01*
X8222523Y16871077D02*
X8184428Y16947267D01*
X8184428Y16947267D02*
X8146333Y16985362D01*
X8146333Y16985362D02*
X8070142Y17023458D01*
X8070142Y17023458D02*
X7917761Y17061553D01*
X7917761Y17061553D02*
X7841571Y17099648D01*
X7841571Y17099648D02*
X7803476Y17137743D01*
X7803476Y17137743D02*
X7765380Y17213934D01*
X7765380Y17213934D02*
X7765380Y17290124D01*
X7765380Y17290124D02*
X7803476Y17366315D01*
X7803476Y17366315D02*
X7841571Y17404410D01*
X7841571Y17404410D02*
X7917761Y17442505D01*
X7917761Y17442505D02*
X8108238Y17442505D01*
X8108238Y17442505D02*
X8222523Y17404410D01*
X8946333Y16642505D02*
X8565381Y16642505D01*
X8565381Y16642505D02*
X8565381Y17442505D01*
X14878172Y42276505D02*
X14611505Y42657458D01*
X14421029Y42276505D02*
X14421029Y43076505D01*
X14421029Y43076505D02*
X14725791Y43076505D01*
X14725791Y43076505D02*
X14801981Y43038410D01*
X14801981Y43038410D02*
X14840076Y43000315D01*
X14840076Y43000315D02*
X14878172Y42924124D01*
X14878172Y42924124D02*
X14878172Y42809839D01*
X14878172Y42809839D02*
X14840076Y42733648D01*
X14840076Y42733648D02*
X14801981Y42695553D01*
X14801981Y42695553D02*
X14725791Y42657458D01*
X14725791Y42657458D02*
X14421029Y42657458D01*
X15525791Y42314600D02*
X15449600Y42276505D01*
X15449600Y42276505D02*
X15297219Y42276505D01*
X15297219Y42276505D02*
X15221029Y42314600D01*
X15221029Y42314600D02*
X15182933Y42390791D01*
X15182933Y42390791D02*
X15182933Y42695553D01*
X15182933Y42695553D02*
X15221029Y42771743D01*
X15221029Y42771743D02*
X15297219Y42809839D01*
X15297219Y42809839D02*
X15449600Y42809839D01*
X15449600Y42809839D02*
X15525791Y42771743D01*
X15525791Y42771743D02*
X15563886Y42695553D01*
X15563886Y42695553D02*
X15563886Y42619362D01*
X15563886Y42619362D02*
X15182933Y42543172D01*
X15830552Y42809839D02*
X16021028Y42276505D01*
X16021028Y42276505D02*
X16211505Y42809839D01*
X16516267Y42352696D02*
X16554362Y42314600D01*
X16554362Y42314600D02*
X16516267Y42276505D01*
X16516267Y42276505D02*
X16478171Y42314600D01*
X16478171Y42314600D02*
X16516267Y42352696D01*
X16516267Y42352696D02*
X16516267Y42276505D01*
X16859123Y43000315D02*
X16897219Y43038410D01*
X16897219Y43038410D02*
X16973409Y43076505D01*
X16973409Y43076505D02*
X17163885Y43076505D01*
X17163885Y43076505D02*
X17240076Y43038410D01*
X17240076Y43038410D02*
X17278171Y43000315D01*
X17278171Y43000315D02*
X17316266Y42924124D01*
X17316266Y42924124D02*
X17316266Y42847934D01*
X17316266Y42847934D02*
X17278171Y42733648D01*
X17278171Y42733648D02*
X16821028Y42276505D01*
X16821028Y42276505D02*
X17316266Y42276505D01*
X21564523Y41319610D02*
X21488333Y41357705D01*
X21488333Y41357705D02*
X21374047Y41357705D01*
X21374047Y41357705D02*
X21259761Y41319610D01*
X21259761Y41319610D02*
X21183571Y41243420D01*
X21183571Y41243420D02*
X21145476Y41167229D01*
X21145476Y41167229D02*
X21107380Y41014848D01*
X21107380Y41014848D02*
X21107380Y40900562D01*
X21107380Y40900562D02*
X21145476Y40748181D01*
X21145476Y40748181D02*
X21183571Y40671991D01*
X21183571Y40671991D02*
X21259761Y40595800D01*
X21259761Y40595800D02*
X21374047Y40557705D01*
X21374047Y40557705D02*
X21450238Y40557705D01*
X21450238Y40557705D02*
X21564523Y40595800D01*
X21564523Y40595800D02*
X21602619Y40633896D01*
X21602619Y40633896D02*
X21602619Y40900562D01*
X21602619Y40900562D02*
X21450238Y40900562D01*
X21145476Y38765705D02*
X21145476Y38118086D01*
X21145476Y38118086D02*
X21183571Y38041896D01*
X21183571Y38041896D02*
X21221666Y38003800D01*
X21221666Y38003800D02*
X21297857Y37965705D01*
X21297857Y37965705D02*
X21450238Y37965705D01*
X21450238Y37965705D02*
X21526428Y38003800D01*
X21526428Y38003800D02*
X21564523Y38041896D01*
X21564523Y38041896D02*
X21602619Y38118086D01*
X21602619Y38118086D02*
X21602619Y38765705D01*
X21983571Y37965705D02*
X21983571Y38765705D01*
X21983571Y38765705D02*
X22288333Y38765705D01*
X22288333Y38765705D02*
X22364523Y38727610D01*
X22364523Y38727610D02*
X22402618Y38689515D01*
X22402618Y38689515D02*
X22440714Y38613324D01*
X22440714Y38613324D02*
X22440714Y38499039D01*
X22440714Y38499039D02*
X22402618Y38422848D01*
X22402618Y38422848D02*
X22364523Y38384753D01*
X22364523Y38384753D02*
X22288333Y38346658D01*
X22288333Y38346658D02*
X21983571Y38346658D01*
X21145476Y35373705D02*
X21145476Y36173705D01*
X21145476Y36173705D02*
X21335952Y36173705D01*
X21335952Y36173705D02*
X21450238Y36135610D01*
X21450238Y36135610D02*
X21526428Y36059420D01*
X21526428Y36059420D02*
X21564523Y35983229D01*
X21564523Y35983229D02*
X21602619Y35830848D01*
X21602619Y35830848D02*
X21602619Y35716562D01*
X21602619Y35716562D02*
X21564523Y35564181D01*
X21564523Y35564181D02*
X21526428Y35487991D01*
X21526428Y35487991D02*
X21450238Y35411800D01*
X21450238Y35411800D02*
X21335952Y35373705D01*
X21335952Y35373705D02*
X21145476Y35373705D01*
X21945476Y35373705D02*
X21945476Y36173705D01*
X21945476Y36173705D02*
X22402619Y35373705D01*
X22402619Y35373705D02*
X22402619Y36173705D01*
X21526428Y32781705D02*
X21145476Y32781705D01*
X21145476Y32781705D02*
X21145476Y33581705D01*
X21602619Y30189705D02*
X21335952Y30570658D01*
X21145476Y30189705D02*
X21145476Y30989705D01*
X21145476Y30989705D02*
X21450238Y30989705D01*
X21450238Y30989705D02*
X21526428Y30951610D01*
X21526428Y30951610D02*
X21564523Y30913515D01*
X21564523Y30913515D02*
X21602619Y30837324D01*
X21602619Y30837324D02*
X21602619Y30723039D01*
X21602619Y30723039D02*
X21564523Y30646848D01*
X21564523Y30646848D02*
X21526428Y30608753D01*
X21526428Y30608753D02*
X21450238Y30570658D01*
X21450238Y30570658D02*
X21145476Y30570658D01*
X21107380Y27635800D02*
X21221666Y27597705D01*
X21221666Y27597705D02*
X21412142Y27597705D01*
X21412142Y27597705D02*
X21488333Y27635800D01*
X21488333Y27635800D02*
X21526428Y27673896D01*
X21526428Y27673896D02*
X21564523Y27750086D01*
X21564523Y27750086D02*
X21564523Y27826277D01*
X21564523Y27826277D02*
X21526428Y27902467D01*
X21526428Y27902467D02*
X21488333Y27940562D01*
X21488333Y27940562D02*
X21412142Y27978658D01*
X21412142Y27978658D02*
X21259761Y28016753D01*
X21259761Y28016753D02*
X21183571Y28054848D01*
X21183571Y28054848D02*
X21145476Y28092943D01*
X21145476Y28092943D02*
X21107380Y28169134D01*
X21107380Y28169134D02*
X21107380Y28245324D01*
X21107380Y28245324D02*
X21145476Y28321515D01*
X21145476Y28321515D02*
X21183571Y28359610D01*
X21183571Y28359610D02*
X21259761Y28397705D01*
X21259761Y28397705D02*
X21450238Y28397705D01*
X21450238Y28397705D02*
X21564523Y28359610D01*
X21793095Y28397705D02*
X22250238Y28397705D01*
X22021666Y27597705D02*
X22021666Y28397705D01*
X21107380Y25043800D02*
X21221666Y25005705D01*
X21221666Y25005705D02*
X21412142Y25005705D01*
X21412142Y25005705D02*
X21488333Y25043800D01*
X21488333Y25043800D02*
X21526428Y25081896D01*
X21526428Y25081896D02*
X21564523Y25158086D01*
X21564523Y25158086D02*
X21564523Y25234277D01*
X21564523Y25234277D02*
X21526428Y25310467D01*
X21526428Y25310467D02*
X21488333Y25348562D01*
X21488333Y25348562D02*
X21412142Y25386658D01*
X21412142Y25386658D02*
X21259761Y25424753D01*
X21259761Y25424753D02*
X21183571Y25462848D01*
X21183571Y25462848D02*
X21145476Y25500943D01*
X21145476Y25500943D02*
X21107380Y25577134D01*
X21107380Y25577134D02*
X21107380Y25653324D01*
X21107380Y25653324D02*
X21145476Y25729515D01*
X21145476Y25729515D02*
X21183571Y25767610D01*
X21183571Y25767610D02*
X21259761Y25805705D01*
X21259761Y25805705D02*
X21450238Y25805705D01*
X21450238Y25805705D02*
X21564523Y25767610D01*
X22288333Y25005705D02*
X21907381Y25005705D01*
X21907381Y25005705D02*
X21907381Y25805705D01*
X21107380Y22642277D02*
X21488333Y22642277D01*
X21031190Y22413705D02*
X21297857Y23213705D01*
X21297857Y23213705D02*
X21564523Y22413705D01*
X21412142Y20240753D02*
X21526428Y20202658D01*
X21526428Y20202658D02*
X21564523Y20164562D01*
X21564523Y20164562D02*
X21602619Y20088372D01*
X21602619Y20088372D02*
X21602619Y19974086D01*
X21602619Y19974086D02*
X21564523Y19897896D01*
X21564523Y19897896D02*
X21526428Y19859800D01*
X21526428Y19859800D02*
X21450238Y19821705D01*
X21450238Y19821705D02*
X21145476Y19821705D01*
X21145476Y19821705D02*
X21145476Y20621705D01*
X21145476Y20621705D02*
X21412142Y20621705D01*
X21412142Y20621705D02*
X21488333Y20583610D01*
X21488333Y20583610D02*
X21526428Y20545515D01*
X21526428Y20545515D02*
X21564523Y20469324D01*
X21564523Y20469324D02*
X21564523Y20393134D01*
X21564523Y20393134D02*
X21526428Y20316943D01*
X21526428Y20316943D02*
X21488333Y20278848D01*
X21488333Y20278848D02*
X21412142Y20240753D01*
X21412142Y20240753D02*
X21145476Y20240753D01*
X21069285Y18029705D02*
X21602619Y17229705D01*
X21602619Y18029705D02*
X21069285Y17229705D01*
X21297857Y15018658D02*
X21297857Y14637705D01*
X21031190Y15437705D02*
X21297857Y15018658D01*
X21297857Y15018658D02*
X21564523Y15437705D01*
X21031190Y12845705D02*
X21488333Y12845705D01*
X21259761Y12045705D02*
X21259761Y12845705D01*
X22135952Y12045705D02*
X21755000Y12045705D01*
X21755000Y12045705D02*
X21755000Y12845705D01*
X21031190Y10253705D02*
X21488333Y10253705D01*
X21259761Y9453705D02*
X21259761Y10253705D01*
X22212143Y9453705D02*
X21945476Y9834658D01*
X21755000Y9453705D02*
X21755000Y10253705D01*
X21755000Y10253705D02*
X22059762Y10253705D01*
X22059762Y10253705D02*
X22135952Y10215610D01*
X22135952Y10215610D02*
X22174047Y10177515D01*
X22174047Y10177515D02*
X22212143Y10101324D01*
X22212143Y10101324D02*
X22212143Y9987039D01*
X22212143Y9987039D02*
X22174047Y9910848D01*
X22174047Y9910848D02*
X22135952Y9872753D01*
X22135952Y9872753D02*
X22059762Y9834658D01*
X22059762Y9834658D02*
X21755000Y9834658D01*
X21145476Y6861705D02*
X21145476Y7661705D01*
X21145476Y7280753D02*
X21602619Y7280753D01*
X21602619Y6861705D02*
X21602619Y7661705D01*
X21983571Y6861705D02*
X21983571Y7661705D01*
X22440714Y6861705D02*
X22097856Y7318848D01*
X22440714Y7661705D02*
X21983571Y7204562D01*
X21564523Y5031610D02*
X21488333Y5069705D01*
X21488333Y5069705D02*
X21374047Y5069705D01*
X21374047Y5069705D02*
X21259761Y5031610D01*
X21259761Y5031610D02*
X21183571Y4955420D01*
X21183571Y4955420D02*
X21145476Y4879229D01*
X21145476Y4879229D02*
X21107380Y4726848D01*
X21107380Y4726848D02*
X21107380Y4612562D01*
X21107380Y4612562D02*
X21145476Y4460181D01*
X21145476Y4460181D02*
X21183571Y4383991D01*
X21183571Y4383991D02*
X21259761Y4307800D01*
X21259761Y4307800D02*
X21374047Y4269705D01*
X21374047Y4269705D02*
X21450238Y4269705D01*
X21450238Y4269705D02*
X21564523Y4307800D01*
X21564523Y4307800D02*
X21602619Y4345896D01*
X21602619Y4345896D02*
X21602619Y4612562D01*
X21602619Y4612562D02*
X21450238Y4612562D01*
X15170228Y39901505D02*
X15017847Y39901505D01*
X15017847Y39901505D02*
X14941656Y39863410D01*
X14941656Y39863410D02*
X14903561Y39825315D01*
X14903561Y39825315D02*
X14827371Y39711029D01*
X14827371Y39711029D02*
X14789275Y39558648D01*
X14789275Y39558648D02*
X14789275Y39253886D01*
X14789275Y39253886D02*
X14827371Y39177696D01*
X14827371Y39177696D02*
X14865466Y39139600D01*
X14865466Y39139600D02*
X14941656Y39101505D01*
X14941656Y39101505D02*
X15094037Y39101505D01*
X15094037Y39101505D02*
X15170228Y39139600D01*
X15170228Y39139600D02*
X15208323Y39177696D01*
X15208323Y39177696D02*
X15246418Y39253886D01*
X15246418Y39253886D02*
X15246418Y39444362D01*
X15246418Y39444362D02*
X15208323Y39520553D01*
X15208323Y39520553D02*
X15170228Y39558648D01*
X15170228Y39558648D02*
X15094037Y39596743D01*
X15094037Y39596743D02*
X14941656Y39596743D01*
X14941656Y39596743D02*
X14865466Y39558648D01*
X14865466Y39558648D02*
X14827371Y39520553D01*
X14827371Y39520553D02*
X14789275Y39444362D01*
X15589276Y39101505D02*
X15589276Y39901505D01*
X16046419Y39101505D02*
X15703561Y39558648D01*
X16046419Y39901505D02*
X15589276Y39444362D01*
X16503561Y39558648D02*
X16427371Y39596743D01*
X16427371Y39596743D02*
X16389276Y39634839D01*
X16389276Y39634839D02*
X16351180Y39711029D01*
X16351180Y39711029D02*
X16351180Y39749124D01*
X16351180Y39749124D02*
X16389276Y39825315D01*
X16389276Y39825315D02*
X16427371Y39863410D01*
X16427371Y39863410D02*
X16503561Y39901505D01*
X16503561Y39901505D02*
X16655942Y39901505D01*
X16655942Y39901505D02*
X16732133Y39863410D01*
X16732133Y39863410D02*
X16770228Y39825315D01*
X16770228Y39825315D02*
X16808323Y39749124D01*
X16808323Y39749124D02*
X16808323Y39711029D01*
X16808323Y39711029D02*
X16770228Y39634839D01*
X16770228Y39634839D02*
X16732133Y39596743D01*
X16732133Y39596743D02*
X16655942Y39558648D01*
X16655942Y39558648D02*
X16503561Y39558648D01*
X16503561Y39558648D02*
X16427371Y39520553D01*
X16427371Y39520553D02*
X16389276Y39482458D01*
X16389276Y39482458D02*
X16351180Y39406267D01*
X16351180Y39406267D02*
X16351180Y39253886D01*
X16351180Y39253886D02*
X16389276Y39177696D01*
X16389276Y39177696D02*
X16427371Y39139600D01*
X16427371Y39139600D02*
X16503561Y39101505D01*
X16503561Y39101505D02*
X16655942Y39101505D01*
X16655942Y39101505D02*
X16732133Y39139600D01*
X16732133Y39139600D02*
X16770228Y39177696D01*
X16770228Y39177696D02*
X16808323Y39253886D01*
X16808323Y39253886D02*
X16808323Y39406267D01*
X16808323Y39406267D02*
X16770228Y39482458D01*
X16770228Y39482458D02*
X16732133Y39520553D01*
X16732133Y39520553D02*
X16655942Y39558648D01*
D11*
%TO.C,J6*%
X22593447Y30224105D02*
X23050590Y30224105D01*
X22822018Y29424105D02*
X22822018Y30224105D01*
X23698209Y29424105D02*
X23317257Y29424105D01*
X23317257Y29424105D02*
X23317257Y30224105D01*
X22326781Y31468705D02*
X22326781Y30821086D01*
X22326781Y30821086D02*
X22364876Y30744896D01*
X22364876Y30744896D02*
X22402971Y30706800D01*
X22402971Y30706800D02*
X22479162Y30668705D01*
X22479162Y30668705D02*
X22631543Y30668705D01*
X22631543Y30668705D02*
X22707733Y30706800D01*
X22707733Y30706800D02*
X22745828Y30744896D01*
X22745828Y30744896D02*
X22783924Y30821086D01*
X22783924Y30821086D02*
X22783924Y31468705D01*
X23164876Y30668705D02*
X23164876Y31468705D01*
X23164876Y31468705D02*
X23469638Y31468705D01*
X23469638Y31468705D02*
X23545828Y31430610D01*
X23545828Y31430610D02*
X23583923Y31392515D01*
X23583923Y31392515D02*
X23622019Y31316324D01*
X23622019Y31316324D02*
X23622019Y31202039D01*
X23622019Y31202039D02*
X23583923Y31125848D01*
X23583923Y31125848D02*
X23545828Y31087753D01*
X23545828Y31087753D02*
X23469638Y31049658D01*
X23469638Y31049658D02*
X23164876Y31049658D01*
X23622019Y23150305D02*
X23355352Y23531258D01*
X23164876Y23150305D02*
X23164876Y23950305D01*
X23164876Y23950305D02*
X23469638Y23950305D01*
X23469638Y23950305D02*
X23545828Y23912210D01*
X23545828Y23912210D02*
X23583923Y23874115D01*
X23583923Y23874115D02*
X23622019Y23797924D01*
X23622019Y23797924D02*
X23622019Y23683639D01*
X23622019Y23683639D02*
X23583923Y23607448D01*
X23583923Y23607448D02*
X23545828Y23569353D01*
X23545828Y23569353D02*
X23469638Y23531258D01*
X23469638Y23531258D02*
X23164876Y23531258D01*
X23431543Y26045858D02*
X23431543Y25664905D01*
X23164876Y26464905D02*
X23431543Y26045858D01*
X23431543Y26045858D02*
X23698209Y26464905D01*
X23431542Y21080153D02*
X23545828Y21042058D01*
X23545828Y21042058D02*
X23583923Y21003962D01*
X23583923Y21003962D02*
X23622019Y20927772D01*
X23622019Y20927772D02*
X23622019Y20813486D01*
X23622019Y20813486D02*
X23583923Y20737296D01*
X23583923Y20737296D02*
X23545828Y20699200D01*
X23545828Y20699200D02*
X23469638Y20661105D01*
X23469638Y20661105D02*
X23164876Y20661105D01*
X23164876Y20661105D02*
X23164876Y21461105D01*
X23164876Y21461105D02*
X23431542Y21461105D01*
X23431542Y21461105D02*
X23507733Y21423010D01*
X23507733Y21423010D02*
X23545828Y21384915D01*
X23545828Y21384915D02*
X23583923Y21308724D01*
X23583923Y21308724D02*
X23583923Y21232534D01*
X23583923Y21232534D02*
X23545828Y21156343D01*
X23545828Y21156343D02*
X23507733Y21118248D01*
X23507733Y21118248D02*
X23431542Y21080153D01*
X23431542Y21080153D02*
X23164876Y21080153D01*
X23583923Y16419210D02*
X23507733Y16457305D01*
X23507733Y16457305D02*
X23393447Y16457305D01*
X23393447Y16457305D02*
X23279161Y16419210D01*
X23279161Y16419210D02*
X23202971Y16343020D01*
X23202971Y16343020D02*
X23164876Y16266829D01*
X23164876Y16266829D02*
X23126780Y16114448D01*
X23126780Y16114448D02*
X23126780Y16000162D01*
X23126780Y16000162D02*
X23164876Y15847781D01*
X23164876Y15847781D02*
X23202971Y15771591D01*
X23202971Y15771591D02*
X23279161Y15695400D01*
X23279161Y15695400D02*
X23393447Y15657305D01*
X23393447Y15657305D02*
X23469638Y15657305D01*
X23469638Y15657305D02*
X23583923Y15695400D01*
X23583923Y15695400D02*
X23622019Y15733496D01*
X23622019Y15733496D02*
X23622019Y16000162D01*
X23622019Y16000162D02*
X23469638Y16000162D01*
X23126780Y28954105D02*
X23660114Y28154105D01*
X23660114Y28954105D02*
X23126780Y28154105D01*
X23698209Y24394905D02*
X23317257Y24394905D01*
X23317257Y24394905D02*
X23317257Y25194905D01*
X22326781Y14412705D02*
X22326781Y15212705D01*
X22326781Y14831753D02*
X22783924Y14831753D01*
X22783924Y14412705D02*
X22783924Y15212705D01*
X23164876Y14412705D02*
X23164876Y15212705D01*
X23622019Y14412705D02*
X23279161Y14869848D01*
X23622019Y15212705D02*
X23164876Y14755562D01*
X22555351Y19454600D02*
X22669637Y19416505D01*
X22669637Y19416505D02*
X22860113Y19416505D01*
X22860113Y19416505D02*
X22936304Y19454600D01*
X22936304Y19454600D02*
X22974399Y19492696D01*
X22974399Y19492696D02*
X23012494Y19568886D01*
X23012494Y19568886D02*
X23012494Y19645077D01*
X23012494Y19645077D02*
X22974399Y19721267D01*
X22974399Y19721267D02*
X22936304Y19759362D01*
X22936304Y19759362D02*
X22860113Y19797458D01*
X22860113Y19797458D02*
X22707732Y19835553D01*
X22707732Y19835553D02*
X22631542Y19873648D01*
X22631542Y19873648D02*
X22593447Y19911743D01*
X22593447Y19911743D02*
X22555351Y19987934D01*
X22555351Y19987934D02*
X22555351Y20064124D01*
X22555351Y20064124D02*
X22593447Y20140315D01*
X22593447Y20140315D02*
X22631542Y20178410D01*
X22631542Y20178410D02*
X22707732Y20216505D01*
X22707732Y20216505D02*
X22898209Y20216505D01*
X22898209Y20216505D02*
X23012494Y20178410D01*
X23241066Y20216505D02*
X23698209Y20216505D01*
X23469637Y19416505D02*
X23469637Y20216505D01*
X22441066Y22705705D02*
X22898209Y22705705D01*
X22669637Y21905705D02*
X22669637Y22705705D01*
X23622019Y21905705D02*
X23355352Y22286658D01*
X23164876Y21905705D02*
X23164876Y22705705D01*
X23164876Y22705705D02*
X23469638Y22705705D01*
X23469638Y22705705D02*
X23545828Y22667610D01*
X23545828Y22667610D02*
X23583923Y22629515D01*
X23583923Y22629515D02*
X23622019Y22553324D01*
X23622019Y22553324D02*
X23622019Y22439039D01*
X23622019Y22439039D02*
X23583923Y22362848D01*
X23583923Y22362848D02*
X23545828Y22324753D01*
X23545828Y22324753D02*
X23469638Y22286658D01*
X23469638Y22286658D02*
X23164876Y22286658D01*
X22326781Y26909505D02*
X22326781Y27709505D01*
X22326781Y27709505D02*
X22517257Y27709505D01*
X22517257Y27709505D02*
X22631543Y27671410D01*
X22631543Y27671410D02*
X22707733Y27595220D01*
X22707733Y27595220D02*
X22745828Y27519029D01*
X22745828Y27519029D02*
X22783924Y27366648D01*
X22783924Y27366648D02*
X22783924Y27252362D01*
X22783924Y27252362D02*
X22745828Y27099981D01*
X22745828Y27099981D02*
X22707733Y27023791D01*
X22707733Y27023791D02*
X22631543Y26947600D01*
X22631543Y26947600D02*
X22517257Y26909505D01*
X22517257Y26909505D02*
X22326781Y26909505D01*
X23126781Y26909505D02*
X23126781Y27709505D01*
X23126781Y27709505D02*
X23583924Y26909505D01*
X23583924Y26909505D02*
X23583924Y27709505D01*
X22517256Y18184600D02*
X22631542Y18146505D01*
X22631542Y18146505D02*
X22822018Y18146505D01*
X22822018Y18146505D02*
X22898209Y18184600D01*
X22898209Y18184600D02*
X22936304Y18222696D01*
X22936304Y18222696D02*
X22974399Y18298886D01*
X22974399Y18298886D02*
X22974399Y18375077D01*
X22974399Y18375077D02*
X22936304Y18451267D01*
X22936304Y18451267D02*
X22898209Y18489362D01*
X22898209Y18489362D02*
X22822018Y18527458D01*
X22822018Y18527458D02*
X22669637Y18565553D01*
X22669637Y18565553D02*
X22593447Y18603648D01*
X22593447Y18603648D02*
X22555352Y18641743D01*
X22555352Y18641743D02*
X22517256Y18717934D01*
X22517256Y18717934D02*
X22517256Y18794124D01*
X22517256Y18794124D02*
X22555352Y18870315D01*
X22555352Y18870315D02*
X22593447Y18908410D01*
X22593447Y18908410D02*
X22669637Y18946505D01*
X22669637Y18946505D02*
X22860114Y18946505D01*
X22860114Y18946505D02*
X22974399Y18908410D01*
X23698209Y18146505D02*
X23317257Y18146505D01*
X23317257Y18146505D02*
X23317257Y18946505D01*
X23241066Y17130477D02*
X23622019Y17130477D01*
X23164876Y16901905D02*
X23431543Y17701905D01*
X23431543Y17701905D02*
X23698209Y16901905D01*
D10*
%TO.C,R13*%
X15176579Y6475105D02*
X15024198Y6475105D01*
X15024198Y6475105D02*
X14948007Y6437010D01*
X14948007Y6437010D02*
X14909912Y6398915D01*
X14909912Y6398915D02*
X14833722Y6284629D01*
X14833722Y6284629D02*
X14795626Y6132248D01*
X14795626Y6132248D02*
X14795626Y5827486D01*
X14795626Y5827486D02*
X14833722Y5751296D01*
X14833722Y5751296D02*
X14871817Y5713200D01*
X14871817Y5713200D02*
X14948007Y5675105D01*
X14948007Y5675105D02*
X15100388Y5675105D01*
X15100388Y5675105D02*
X15176579Y5713200D01*
X15176579Y5713200D02*
X15214674Y5751296D01*
X15214674Y5751296D02*
X15252769Y5827486D01*
X15252769Y5827486D02*
X15252769Y6017962D01*
X15252769Y6017962D02*
X15214674Y6094153D01*
X15214674Y6094153D02*
X15176579Y6132248D01*
X15176579Y6132248D02*
X15100388Y6170343D01*
X15100388Y6170343D02*
X14948007Y6170343D01*
X14948007Y6170343D02*
X14871817Y6132248D01*
X14871817Y6132248D02*
X14833722Y6094153D01*
X14833722Y6094153D02*
X14795626Y6017962D01*
X15595627Y5675105D02*
X15595627Y6475105D01*
X16052770Y5675105D02*
X15709912Y6132248D01*
X16052770Y6475105D02*
X15595627Y6017962D01*
X16509912Y6132248D02*
X16433722Y6170343D01*
X16433722Y6170343D02*
X16395627Y6208439D01*
X16395627Y6208439D02*
X16357531Y6284629D01*
X16357531Y6284629D02*
X16357531Y6322724D01*
X16357531Y6322724D02*
X16395627Y6398915D01*
X16395627Y6398915D02*
X16433722Y6437010D01*
X16433722Y6437010D02*
X16509912Y6475105D01*
X16509912Y6475105D02*
X16662293Y6475105D01*
X16662293Y6475105D02*
X16738484Y6437010D01*
X16738484Y6437010D02*
X16776579Y6398915D01*
X16776579Y6398915D02*
X16814674Y6322724D01*
X16814674Y6322724D02*
X16814674Y6284629D01*
X16814674Y6284629D02*
X16776579Y6208439D01*
X16776579Y6208439D02*
X16738484Y6170343D01*
X16738484Y6170343D02*
X16662293Y6132248D01*
X16662293Y6132248D02*
X16509912Y6132248D01*
X16509912Y6132248D02*
X16433722Y6094153D01*
X16433722Y6094153D02*
X16395627Y6056058D01*
X16395627Y6056058D02*
X16357531Y5979867D01*
X16357531Y5979867D02*
X16357531Y5827486D01*
X16357531Y5827486D02*
X16395627Y5751296D01*
X16395627Y5751296D02*
X16433722Y5713200D01*
X16433722Y5713200D02*
X16509912Y5675105D01*
X16509912Y5675105D02*
X16662293Y5675105D01*
X16662293Y5675105D02*
X16738484Y5713200D01*
X16738484Y5713200D02*
X16776579Y5751296D01*
X16776579Y5751296D02*
X16814674Y5827486D01*
X16814674Y5827486D02*
X16814674Y5979867D01*
X16814674Y5979867D02*
X16776579Y6056058D01*
X16776579Y6056058D02*
X16738484Y6094153D01*
X16738484Y6094153D02*
X16662293Y6132248D01*
D12*
%TO.C,R10*%
X15578087Y15898800D02*
X16032215Y15898800D01*
X15578087Y14428800D02*
X16032215Y14428800D01*
%TO.C,R12*%
X15578087Y10818800D02*
X16032215Y10818800D01*
X15578087Y9348800D02*
X16032215Y9348800D01*
%TO.C,J6*%
X25349200Y31546800D02*
X25349200Y14274800D01*
X23825200Y31546800D02*
X25349200Y31546800D01*
X23825200Y14274800D02*
X23825200Y31546800D01*
X23825200Y14274800D02*
X25349200Y14274800D01*
%TO.C,R13*%
X15578087Y8278800D02*
X16032215Y8278800D01*
X15578087Y6808800D02*
X16032215Y6808800D01*
%TO.C,R11*%
X15578087Y13358800D02*
X16032215Y13358800D01*
X15578087Y11888800D02*
X16032215Y11888800D01*
%TO.C,R4*%
X15578087Y31138800D02*
X16032215Y31138800D01*
X15578087Y29668800D02*
X16032215Y29668800D01*
%TO.C,R9*%
X15578087Y18438800D02*
X16032215Y18438800D01*
X15578087Y16968800D02*
X16032215Y16968800D01*
%TO.C,R5*%
X15578087Y28598800D02*
X16032215Y28598800D01*
X15578087Y27128800D02*
X16032215Y27128800D01*
%TO.C,JP3*%
X6683000Y16138200D02*
X8013000Y16138200D01*
X6683000Y14808200D02*
X6683000Y16138200D01*
X6683000Y13538200D02*
X6683000Y8398200D01*
X6683000Y13538200D02*
X9343000Y13538200D01*
X6683000Y8398200D02*
X9343000Y8398200D01*
X9343000Y13538200D02*
X9343000Y8398200D01*
%TO.C,R2*%
X15578087Y36218800D02*
X16032215Y36218800D01*
X15578087Y34748800D02*
X16032215Y34748800D01*
%TO.C,J4*%
X2068800Y42463800D02*
X3068800Y42463800D01*
X2068800Y42463800D02*
X2068800Y41463800D01*
X5778800Y42173800D02*
X2358800Y42173800D01*
X2358800Y42173800D02*
X2358800Y32703800D01*
X4418800Y41863800D02*
X4418800Y41663800D01*
X3618800Y41863800D02*
X4418800Y41863800D01*
X5268800Y41663800D02*
X5268800Y37438800D01*
X4418800Y41663800D02*
X5268800Y41663800D01*
X3618800Y41663800D02*
X3618800Y41863800D01*
X2868800Y41663800D02*
X3618800Y41663800D01*
X2868800Y37438800D02*
X2868800Y41663800D01*
X2868800Y37438800D02*
X2868800Y33213800D01*
X5268800Y33213800D02*
X5268800Y37438800D01*
X4418800Y33213800D02*
X5268800Y33213800D01*
X3618800Y33213800D02*
X3618800Y33013800D01*
X2868800Y33213800D02*
X3618800Y33213800D01*
X4418800Y33013800D02*
X4418800Y33213800D01*
X3618800Y33013800D02*
X4418800Y33013800D01*
X5778800Y32703800D02*
X5778800Y42173800D01*
X2358800Y32703800D02*
X5778800Y32703800D01*
%TO.C,J1*%
X10696200Y41893800D02*
X12026200Y41893800D01*
X10696200Y40563800D02*
X10696200Y41893800D01*
X10696200Y39293800D02*
X10696200Y3673800D01*
X10696200Y39293800D02*
X13356200Y39293800D01*
X10696200Y3673800D02*
X13356200Y3673800D01*
X13356200Y39293800D02*
X13356200Y3673800D01*
%TO.C,R8*%
X15578087Y20978800D02*
X16032215Y20978800D01*
X15578087Y19508800D02*
X16032215Y19508800D01*
%TO.C,R3*%
X15578087Y33678800D02*
X16032215Y33678800D01*
X15578087Y32208800D02*
X16032215Y32208800D01*
%TO.C,J3*%
X2094200Y32049800D02*
X3094200Y32049800D01*
X2094200Y32049800D02*
X2094200Y31049800D01*
X5804200Y31759800D02*
X2384200Y31759800D01*
X2384200Y31759800D02*
X2384200Y11039800D01*
X4444200Y31449800D02*
X4444200Y31249800D01*
X3644200Y31449800D02*
X4444200Y31449800D01*
X5294200Y31249800D02*
X5294200Y21399800D01*
X4444200Y31249800D02*
X5294200Y31249800D01*
X3644200Y31249800D02*
X3644200Y31449800D01*
X2894200Y31249800D02*
X3644200Y31249800D01*
X2894200Y21399800D02*
X2894200Y31249800D01*
X2894200Y21399800D02*
X2894200Y11549800D01*
X5294200Y11549800D02*
X5294200Y21399800D01*
X4444200Y11549800D02*
X5294200Y11549800D01*
X3644200Y11549800D02*
X3644200Y11349800D01*
X2894200Y11549800D02*
X3644200Y11549800D01*
X4444200Y11349800D02*
X4444200Y11549800D01*
X3644200Y11349800D02*
X4444200Y11349800D01*
X5804200Y11039800D02*
X5804200Y31759800D01*
X2384200Y11039800D02*
X5804200Y11039800D01*
%TO.C,JP1*%
X6683000Y34680200D02*
X8013000Y34680200D01*
X6683000Y33350200D02*
X6683000Y34680200D01*
X6683000Y32080200D02*
X6683000Y26940200D01*
X6683000Y32080200D02*
X9343000Y32080200D01*
X6683000Y26940200D02*
X9343000Y26940200D01*
X9343000Y32080200D02*
X9343000Y26940200D01*
%TO.C,J2*%
X18234351Y41893800D02*
X19564351Y41893800D01*
X18234351Y40563800D02*
X18234351Y41893800D01*
X18234351Y39293800D02*
X18234351Y3673800D01*
X18234351Y39293800D02*
X20894351Y39293800D01*
X18234351Y3673800D02*
X20894351Y3673800D01*
X20894351Y39293800D02*
X20894351Y3673800D01*
%TO.C,JP2*%
X6683000Y25409200D02*
X8013000Y25409200D01*
X6683000Y24079200D02*
X6683000Y25409200D01*
X6683000Y22809200D02*
X6683000Y17669200D01*
X6683000Y22809200D02*
X9343000Y22809200D01*
X6683000Y17669200D02*
X9343000Y17669200D01*
X9343000Y22809200D02*
X9343000Y17669200D01*
%TO.C,J5*%
X2094200Y10459800D02*
X3094200Y10459800D01*
X2094200Y10459800D02*
X2094200Y9459800D01*
X5804200Y10169800D02*
X2384200Y10169800D01*
X2384200Y10169800D02*
X2384200Y3199800D01*
X4444200Y9859800D02*
X4444200Y9659800D01*
X3644200Y9859800D02*
X4444200Y9859800D01*
X5294200Y9659800D02*
X5294200Y6684800D01*
X4444200Y9659800D02*
X5294200Y9659800D01*
X3644200Y9659800D02*
X3644200Y9859800D01*
X2894200Y9659800D02*
X3644200Y9659800D01*
X2894200Y6684800D02*
X2894200Y9659800D01*
X2894200Y6684800D02*
X2894200Y3709800D01*
X5294200Y3709800D02*
X5294200Y6684800D01*
X4444200Y3709800D02*
X5294200Y3709800D01*
X3644200Y3709800D02*
X3644200Y3509800D01*
X2894200Y3709800D02*
X3644200Y3709800D01*
X4444200Y3509800D02*
X4444200Y3709800D01*
X3644200Y3509800D02*
X4444200Y3509800D01*
X5804200Y3199800D02*
X5804200Y10169800D01*
X2384200Y3199800D02*
X5804200Y3199800D01*
%TO.C,R7*%
X15578087Y23518800D02*
X16032215Y23518800D01*
X15578087Y22048800D02*
X16032215Y22048800D01*
%TO.C,R6*%
X15578087Y26058800D02*
X16032215Y26058800D01*
X15578087Y24588800D02*
X16032215Y24588800D01*
%TO.C,R1*%
X15578087Y38758800D02*
X16032215Y38758800D01*
X15578087Y37288800D02*
X16032215Y37288800D01*
%TD*%
%LPC*%
D13*
%TO.C,R10*%
X14805151Y15163800D03*
X16805151Y15163800D03*
%TD*%
%TO.C,R12*%
X14805151Y10083800D03*
X16805151Y10083800D03*
%TD*%
D14*
%TO.C,J6*%
X24587200Y31038800D03*
D15*
X24587200Y29788800D03*
X24587200Y28538800D03*
X24587200Y27288800D03*
X24587200Y26038800D03*
X24587200Y24788800D03*
X24587200Y23538800D03*
X24587200Y22288800D03*
X24587200Y21038800D03*
X24587200Y19788800D03*
X24587200Y18538800D03*
X24587200Y17288800D03*
X24587200Y16038800D03*
X24587200Y14788800D03*
%TD*%
D13*
%TO.C,R13*%
X14805151Y7543800D03*
X16805151Y7543800D03*
%TD*%
%TO.C,R11*%
X14805151Y12623800D03*
X16805151Y12623800D03*
%TD*%
%TO.C,R4*%
X14805151Y30403800D03*
X16805151Y30403800D03*
%TD*%
%TO.C,R9*%
X14805151Y17703800D03*
X16805151Y17703800D03*
%TD*%
%TO.C,R5*%
X14805151Y27863800D03*
X16805151Y27863800D03*
%TD*%
D16*
%TO.C,JP3*%
X8013000Y14808200D03*
D17*
X8013000Y12268200D03*
X8013000Y9728200D03*
%TD*%
D13*
%TO.C,R2*%
X14805151Y35483800D03*
X16805151Y35483800D03*
%TD*%
D14*
%TO.C,J4*%
X3618800Y40563800D03*
D15*
X3618800Y39313800D03*
X3618800Y38063800D03*
X3618800Y36813800D03*
X3618800Y35563800D03*
X3618800Y34313800D03*
%TD*%
D16*
%TO.C,J1*%
X12026200Y40563800D03*
D17*
X12026200Y38023800D03*
X12026200Y35483800D03*
X12026200Y32943800D03*
X12026200Y30403800D03*
X12026200Y27863800D03*
X12026200Y25323800D03*
X12026200Y22783800D03*
X12026200Y20243800D03*
X12026200Y17703800D03*
X12026200Y15163800D03*
X12026200Y12623800D03*
X12026200Y10083800D03*
X12026200Y7543800D03*
X12026200Y5003800D03*
%TD*%
D13*
%TO.C,R8*%
X14805151Y20243800D03*
X16805151Y20243800D03*
%TD*%
%TO.C,R3*%
X14805151Y32943800D03*
X16805151Y32943800D03*
%TD*%
D14*
%TO.C,J3*%
X3644200Y30149800D03*
D15*
X3644200Y28899800D03*
X3644200Y27649800D03*
X3644200Y26399800D03*
X3644200Y25149800D03*
X3644200Y23899800D03*
X3644200Y22649800D03*
X3644200Y21399800D03*
X3644200Y20149800D03*
X3644200Y18899800D03*
X3644200Y17649800D03*
X3644200Y16399800D03*
X3644200Y15149800D03*
X3644200Y13899800D03*
X3644200Y12649800D03*
%TD*%
D16*
%TO.C,JP1*%
X8013000Y33350200D03*
D17*
X8013000Y30810200D03*
X8013000Y28270200D03*
%TD*%
D16*
%TO.C,J2*%
X19564351Y40563800D03*
D17*
X19564351Y38023800D03*
X19564351Y35483800D03*
X19564351Y32943800D03*
X19564351Y30403800D03*
X19564351Y27863800D03*
X19564351Y25323800D03*
X19564351Y22783800D03*
X19564351Y20243800D03*
X19564351Y17703800D03*
X19564351Y15163800D03*
X19564351Y12623800D03*
X19564351Y10083800D03*
X19564351Y7543800D03*
X19564351Y5003800D03*
%TD*%
D16*
%TO.C,JP2*%
X8013000Y24079200D03*
D17*
X8013000Y21539200D03*
X8013000Y18999200D03*
%TD*%
D14*
%TO.C,J5*%
X3644200Y8559800D03*
D15*
X3644200Y7309800D03*
X3644200Y6059800D03*
X3644200Y4809800D03*
%TD*%
D13*
%TO.C,R7*%
X14805151Y22783800D03*
X16805151Y22783800D03*
%TD*%
%TO.C,R6*%
X14805151Y25323800D03*
X16805151Y25323800D03*
%TD*%
%TO.C,R1*%
X14805151Y38023800D03*
X16805151Y38023800D03*
%TD*%
M02*
