%TF.GenerationSoftware,KiCad,Pcbnew,7.0.1*%
%TF.CreationDate,2023-03-28T23:41:53+09:00*%
%TF.ProjectId,joystick_gpio_input_main_part,6a6f7973-7469-4636-9b5f-6770696f5f69,2*%
%TF.SameCoordinates,PX7863d30PY784b050*%
%TF.FileFunction,Copper,L1,Top*%
%TF.FilePolarity,Positive*%
%FSLAX46Y46*%
G04 Gerber Fmt 4.6, Leading zero omitted, Abs format (unit mm)*
G04 Created by KiCad (PCBNEW 7.0.1) date 2023-03-28 23:41:53*
%MOMM*%
%LPD*%
G01*
G04 APERTURE LIST*
G04 Aperture macros list*
%AMRoundRect*
0 Rectangle with rounded corners*
0 $1 Rounding radius*
0 $2 $3 $4 $5 $6 $7 $8 $9 X,Y pos of 4 corners*
0 Add a 4 corners polygon primitive as box body*
4,1,4,$2,$3,$4,$5,$6,$7,$8,$9,$2,$3,0*
0 Add four circle primitives for the rounded corners*
1,1,$1+$1,$2,$3*
1,1,$1+$1,$4,$5*
1,1,$1+$1,$6,$7*
1,1,$1+$1,$8,$9*
0 Add four rect primitives between the rounded corners*
20,1,$1+$1,$2,$3,$4,$5,0*
20,1,$1+$1,$4,$5,$6,$7,0*
20,1,$1+$1,$6,$7,$8,$9,0*
20,1,$1+$1,$8,$9,$2,$3,0*%
G04 Aperture macros list end*
%TA.AperFunction,SMDPad,CuDef*%
%ADD10RoundRect,0.250000X-0.350000X-0.450000X0.350000X-0.450000X0.350000X0.450000X-0.350000X0.450000X0*%
%TD*%
%TA.AperFunction,ComponentPad*%
%ADD11RoundRect,0.200000X-0.450000X0.200000X-0.450000X-0.200000X0.450000X-0.200000X0.450000X0.200000X0*%
%TD*%
%TA.AperFunction,ComponentPad*%
%ADD12O,1.300000X0.800000*%
%TD*%
%TA.AperFunction,ComponentPad*%
%ADD13R,1.700000X1.700000*%
%TD*%
%TA.AperFunction,ComponentPad*%
%ADD14O,1.700000X1.700000*%
%TD*%
%TA.AperFunction,ViaPad*%
%ADD15C,0.800000*%
%TD*%
%TA.AperFunction,Conductor*%
%ADD16C,0.250000*%
%TD*%
G04 APERTURE END LIST*
D10*
%TO.P,R10,1*%
%TO.N,/Y*%
X14805151Y15163800D03*
%TO.P,R10,2*%
%TO.N,/C_Y*%
X16805151Y15163800D03*
%TD*%
%TO.P,R12,1*%
%TO.N,/TR*%
X14805151Y10083800D03*
%TO.P,R12,2*%
%TO.N,/C_TR*%
X16805151Y10083800D03*
%TD*%
D11*
%TO.P,J5,1,Pin_1*%
%TO.N,/C_UP*%
X24853200Y31016600D03*
D12*
%TO.P,J5,2,Pin_2*%
%TO.N,/C_TL*%
X24853200Y29766600D03*
%TO.P,J5,3,Pin_3*%
%TO.N,/C_X*%
X24853200Y28516600D03*
%TO.P,J5,4,Pin_4*%
%TO.N,/C_DOWN*%
X24853200Y27266600D03*
%TO.P,J5,5,Pin_5*%
%TO.N,/C_Y*%
X24853200Y26016600D03*
%TO.P,J5,6,Pin_6*%
%TO.N,/C_LEFT*%
X24853200Y24766600D03*
%TO.P,J5,7,Pin_7*%
%TO.N,/C_RIGHT*%
X24853200Y23516600D03*
%TO.P,J5,8,Pin_8*%
%TO.N,/C_TR*%
X24853200Y22266600D03*
%TO.P,J5,9,Pin_9*%
%TO.N,/C_B*%
X24853200Y21016600D03*
%TO.P,J5,10,Pin_10*%
%TO.N,/C_START*%
X24853200Y19766600D03*
%TO.P,J5,11,Pin_11*%
%TO.N,/C_SELECT*%
X24853200Y18516600D03*
%TO.P,J5,12,Pin_12*%
%TO.N,/C_A*%
X24853200Y17266600D03*
%TO.P,J5,13,Pin_13*%
%TO.N,/GND*%
X24853200Y16016600D03*
%TO.P,J5,14,Pin_14*%
%TO.N,/C_HK*%
X24853200Y14766600D03*
%TD*%
D10*
%TO.P,R13,1*%
%TO.N,/HK*%
X14805151Y7543800D03*
%TO.P,R13,2*%
%TO.N,/C_HK*%
X16805151Y7543800D03*
%TD*%
%TO.P,R11,1*%
%TO.N,/TL*%
X14805151Y12623800D03*
%TO.P,R11,2*%
%TO.N,/C_TL*%
X16805151Y12623800D03*
%TD*%
%TO.P,R4,1*%
%TO.N,/RIGHT*%
X14805151Y30403800D03*
%TO.P,R4,2*%
%TO.N,/C_RIGHT*%
X16805151Y30403800D03*
%TD*%
%TO.P,R9,1*%
%TO.N,/X*%
X14805151Y17703800D03*
%TO.P,R9,2*%
%TO.N,/C_X*%
X16805151Y17703800D03*
%TD*%
%TO.P,R5,1*%
%TO.N,/START*%
X14805151Y27863800D03*
%TO.P,R5,2*%
%TO.N,/C_START*%
X16805151Y27863800D03*
%TD*%
D13*
%TO.P,JP3,1,Pin_1*%
%TO.N,/HK*%
X8013000Y14808200D03*
D14*
%TO.P,JP3,2,Pin_2*%
%TO.N,/HK_T*%
X8013000Y12268200D03*
%TO.P,JP3,3,Pin_3*%
%TO.N,/GND*%
X8013000Y9728200D03*
%TD*%
D10*
%TO.P,R2,1*%
%TO.N,/DOWN*%
X14805151Y35483800D03*
%TO.P,R2,2*%
%TO.N,/C_DOWN*%
X16805151Y35483800D03*
%TD*%
D11*
%TO.P,J1,1,Pin_1*%
%TO.N,/GND*%
X3618800Y40563800D03*
D12*
%TO.P,J1,2,Pin_2*%
%TO.N,/UP*%
X3618800Y39313800D03*
%TO.P,J1,3,Pin_3*%
%TO.N,/DOWN*%
X3618800Y38063800D03*
%TO.P,J1,4,Pin_4*%
%TO.N,/LEFT*%
X3618800Y36813800D03*
%TO.P,J1,5,Pin_5*%
%TO.N,/RIGHT*%
X3618800Y35563800D03*
%TO.P,J1,6,Pin_6*%
%TO.N,/GND*%
X3618800Y34313800D03*
%TD*%
D13*
%TO.P,J12,1,Pin_1*%
%TO.N,/GND*%
X12026200Y40563800D03*
D14*
%TO.P,J12,2,Pin_2*%
%TO.N,/UP*%
X12026200Y38023800D03*
%TO.P,J12,3,Pin_3*%
%TO.N,/DOWN*%
X12026200Y35483800D03*
%TO.P,J12,4,Pin_4*%
%TO.N,/LEFT*%
X12026200Y32943800D03*
%TO.P,J12,5,Pin_5*%
%TO.N,/RIGHT*%
X12026200Y30403800D03*
%TO.P,J12,6,Pin_6*%
%TO.N,/START*%
X12026200Y27863800D03*
%TO.P,J12,7,Pin_7*%
%TO.N,/SELECT*%
X12026200Y25323800D03*
%TO.P,J12,8,Pin_8*%
%TO.N,/A*%
X12026200Y22783800D03*
%TO.P,J12,9,Pin_9*%
%TO.N,/B*%
X12026200Y20243800D03*
%TO.P,J12,10,Pin_10*%
%TO.N,/X*%
X12026200Y17703800D03*
%TO.P,J12,11,Pin_11*%
%TO.N,/Y*%
X12026200Y15163800D03*
%TO.P,J12,12,Pin_12*%
%TO.N,/TL*%
X12026200Y12623800D03*
%TO.P,J12,13,Pin_13*%
%TO.N,/TR*%
X12026200Y10083800D03*
%TO.P,J12,14,Pin_14*%
%TO.N,/HK*%
X12026200Y7543800D03*
%TO.P,J12,15,Pin_15*%
%TO.N,/GND*%
X12026200Y5003800D03*
%TD*%
D10*
%TO.P,R8,1*%
%TO.N,/B*%
X14805151Y20243800D03*
%TO.P,R8,2*%
%TO.N,/C_B*%
X16805151Y20243800D03*
%TD*%
%TO.P,R3,1*%
%TO.N,/LEFT*%
X14805151Y32943800D03*
%TO.P,R3,2*%
%TO.N,/C_LEFT*%
X16805151Y32943800D03*
%TD*%
D11*
%TO.P,J3,1,Pin_1*%
%TO.N,/GND*%
X3644200Y30149800D03*
D12*
%TO.P,J3,2,Pin_2*%
%TO.N,/UP*%
X3644200Y28899800D03*
%TO.P,J3,3,Pin_3*%
%TO.N,/DOWN*%
X3644200Y27649800D03*
%TO.P,J3,4,Pin_4*%
%TO.N,/LEFT*%
X3644200Y26399800D03*
%TO.P,J3,5,Pin_5*%
%TO.N,/RIGHT_T*%
X3644200Y25149800D03*
%TO.P,J3,6,Pin_6*%
%TO.N,/START*%
X3644200Y23899800D03*
%TO.P,J3,7,Pin_7*%
%TO.N,/SELECT_T*%
X3644200Y22649800D03*
%TO.P,J3,8,Pin_8*%
%TO.N,/A*%
X3644200Y21399800D03*
%TO.P,J3,9,Pin_9*%
%TO.N,/B*%
X3644200Y20149800D03*
%TO.P,J3,10,Pin_10*%
%TO.N,/X*%
X3644200Y18899800D03*
%TO.P,J3,11,Pin_11*%
%TO.N,/Y*%
X3644200Y17649800D03*
%TO.P,J3,12,Pin_12*%
%TO.N,/TL*%
X3644200Y16399800D03*
%TO.P,J3,13,Pin_13*%
%TO.N,/TR*%
X3644200Y15149800D03*
%TO.P,J3,14,Pin_14*%
%TO.N,/HK_T*%
X3644200Y13899800D03*
%TO.P,J3,15,Pin_15*%
%TO.N,/GND*%
X3644200Y12649800D03*
%TD*%
D13*
%TO.P,JP1,1,Pin_1*%
%TO.N,/RIGHT*%
X8013000Y33350200D03*
D14*
%TO.P,JP1,2,Pin_2*%
%TO.N,/RIGHT_T*%
X8013000Y30810200D03*
%TO.P,JP1,3,Pin_3*%
%TO.N,/GND*%
X8013000Y28270200D03*
%TD*%
D13*
%TO.P,J4,1,Pin_1*%
%TO.N,/GND*%
X19564351Y40563800D03*
D14*
%TO.P,J4,2,Pin_2*%
%TO.N,/C_UP*%
X19564351Y38023800D03*
%TO.P,J4,3,Pin_3*%
%TO.N,/C_DOWN*%
X19564351Y35483800D03*
%TO.P,J4,4,Pin_4*%
%TO.N,/C_LEFT*%
X19564351Y32943800D03*
%TO.P,J4,5,Pin_5*%
%TO.N,/C_RIGHT*%
X19564351Y30403800D03*
%TO.P,J4,6,Pin_6*%
%TO.N,/C_START*%
X19564351Y27863800D03*
%TO.P,J4,7,Pin_7*%
%TO.N,/C_SELECT*%
X19564351Y25323800D03*
%TO.P,J4,8,Pin_8*%
%TO.N,/C_A*%
X19564351Y22783800D03*
%TO.P,J4,9,Pin_9*%
%TO.N,/C_B*%
X19564351Y20243800D03*
%TO.P,J4,10,Pin_10*%
%TO.N,/C_X*%
X19564351Y17703800D03*
%TO.P,J4,11,Pin_11*%
%TO.N,/C_Y*%
X19564351Y15163800D03*
%TO.P,J4,12,Pin_12*%
%TO.N,/C_TL*%
X19564351Y12623800D03*
%TO.P,J4,13,Pin_13*%
%TO.N,/C_TR*%
X19564351Y10083800D03*
%TO.P,J4,14,Pin_14*%
%TO.N,/C_HK*%
X19564351Y7543800D03*
%TO.P,J4,15,Pin_15*%
%TO.N,/GND*%
X19564351Y5003800D03*
%TD*%
D13*
%TO.P,JP2,1,Pin_1*%
%TO.N,/SELECT*%
X8013000Y24079200D03*
D14*
%TO.P,JP2,2,Pin_2*%
%TO.N,/SELECT_T*%
X8013000Y21539200D03*
%TO.P,JP2,3,Pin_3*%
%TO.N,/GND*%
X8013000Y18999200D03*
%TD*%
D11*
%TO.P,J2,1,Pin_1*%
%TO.N,/GND*%
X3644200Y8559800D03*
D12*
%TO.P,J2,2,Pin_2*%
%TO.N,/START*%
X3644200Y7309800D03*
%TO.P,J2,3,Pin_3*%
%TO.N,/SELECT*%
X3644200Y6059800D03*
%TO.P,J2,4,Pin_4*%
%TO.N,/GND*%
X3644200Y4809800D03*
%TD*%
D10*
%TO.P,R7,1*%
%TO.N,/A*%
X14805151Y22783800D03*
%TO.P,R7,2*%
%TO.N,/C_A*%
X16805151Y22783800D03*
%TD*%
%TO.P,R6,1*%
%TO.N,/SELECT*%
X14805151Y25323800D03*
%TO.P,R6,2*%
%TO.N,/C_SELECT*%
X16805151Y25323800D03*
%TD*%
%TO.P,R1,1*%
%TO.N,/UP*%
X14805151Y38023800D03*
%TO.P,R1,2*%
%TO.N,/C_UP*%
X16805151Y38023800D03*
%TD*%
D15*
%TO.N,/C_B*%
X22688551Y15976600D03*
%TD*%
D16*
%TO.N,/GND*%
X2450400Y39724699D02*
X3289501Y40563800D01*
X19564351Y5003800D02*
X23221951Y8661400D01*
X2323400Y29310699D02*
X3162501Y30149800D01*
X3618800Y40563800D02*
X12026200Y40563800D01*
X3644200Y12649800D02*
X3644200Y8559800D01*
X12052501Y5003800D02*
X19564351Y5003800D01*
X8013000Y9728200D02*
X8013000Y9017000D01*
X3618800Y34313800D02*
X3187699Y34313800D01*
X3644200Y4809800D02*
X3227699Y4809800D01*
X2475800Y7898499D02*
X3137101Y8559800D01*
X2475800Y5561699D02*
X2475800Y7898499D01*
X24455751Y16016600D02*
X24853200Y16016600D01*
X23221951Y8661400D02*
X23221951Y14782800D01*
X3644200Y4809800D02*
X11832200Y4809800D01*
X23221951Y14782800D02*
X24455751Y16016600D01*
X3644200Y12649800D02*
X3236299Y12649800D01*
X3618800Y34313800D02*
X3618800Y30175200D01*
X3162501Y30149800D02*
X3644200Y30149800D01*
X12026200Y5003800D02*
X12052501Y5003800D01*
X3289501Y40563800D02*
X3618800Y40563800D01*
X8013000Y9017000D02*
X12026200Y5003800D01*
X11832200Y4809800D02*
X12026200Y5003800D01*
X2450400Y35051099D02*
X2450400Y39724699D01*
X3236299Y12649800D02*
X2323400Y13562699D01*
X2323400Y13562699D02*
X2323400Y29310699D01*
X3618800Y30175200D02*
X3644200Y30149800D01*
X3227699Y4809800D02*
X2475800Y5561699D01*
X3187699Y34313800D02*
X2450400Y35051099D01*
X3137101Y8559800D02*
X3644200Y8559800D01*
X19564351Y40563800D02*
X12026200Y40563800D01*
%TO.N,/UP*%
X5092000Y29845000D02*
X5092000Y37865905D01*
X3618800Y39313800D02*
X10252699Y39313800D01*
X14805151Y38023800D02*
X12026200Y38023800D01*
X5092000Y37865905D02*
X3644105Y39313800D01*
X10252699Y39313800D02*
X11542699Y38023800D01*
X4146800Y28899800D02*
X5092000Y29845000D01*
X3644105Y39313800D02*
X3618800Y39313800D01*
X3644200Y28899800D02*
X4146800Y28899800D01*
X11542699Y38023800D02*
X12026200Y38023800D01*
%TO.N,/DOWN*%
X6845501Y35483800D02*
X12026200Y35483800D01*
X3644200Y27649800D02*
X4141400Y27649800D01*
X4141400Y27649800D02*
X6278600Y29787000D01*
X6278600Y34916899D02*
X6845501Y35483800D01*
X6278600Y29787000D02*
X6278600Y34916899D01*
X12026200Y35483800D02*
X14805151Y35483800D01*
%TO.N,/LEFT*%
X14778850Y32917499D02*
X12052501Y32917499D01*
%TO.N,/RIGHT*%
X14805151Y30403800D02*
X10959400Y30403800D01*
X10959400Y30403800D02*
X8013000Y33350200D01*
%TO.N,/START*%
X14778850Y27837499D02*
X14805151Y27863800D01*
X4150600Y23899800D02*
X6235000Y25984200D01*
X10172901Y25984200D02*
X12026200Y27837499D01*
X12026200Y27837499D02*
X14778850Y27837499D01*
X3644200Y23899800D02*
X4150600Y23899800D01*
X6235001Y25984200D02*
X10172901Y25984200D01*
%TO.N,/SELECT*%
X8013000Y24079200D02*
X10807901Y24079200D01*
X12052501Y25323800D02*
X14805151Y25323800D01*
X10807901Y24079200D02*
X12052501Y25323800D01*
%TO.N,/RIGHT_T*%
X4130600Y25149800D02*
X3644200Y25149800D01*
X5625400Y26644600D02*
X4130600Y25149800D01*
X8013000Y30353000D02*
X5625400Y27965400D01*
X5625400Y27965400D02*
X5625400Y26644600D01*
X8013000Y30810200D02*
X8013000Y30353000D01*
%TO.N,/A*%
X4114400Y21399800D02*
X5498400Y22783800D01*
X3644200Y21399800D02*
X4114400Y21399800D01*
X5498400Y22783800D02*
X14805151Y22783800D01*
%TO.N,/B*%
X3737299Y20242899D02*
X12000800Y20242899D01*
X3644200Y20149800D02*
X3737299Y20242899D01*
X12001701Y20243800D02*
X14805151Y20243800D01*
X3738200Y20243800D02*
X3644200Y20149800D01*
X12000800Y20242899D02*
X12001701Y20243800D01*
%TO.N,/X*%
X12052501Y17703800D02*
X14805151Y17703800D01*
X11823000Y17474299D02*
X12052501Y17703800D01*
X3644200Y18899800D02*
X4048400Y18899800D01*
X4048400Y18899800D02*
X5473901Y17474299D01*
X5473901Y17474299D02*
X11823000Y17474299D01*
%TO.N,/Y*%
X3644200Y17649800D02*
X4104600Y17649800D01*
X10172000Y16991699D02*
X12026200Y15137499D01*
X12026200Y15137499D02*
X14778850Y15137499D01*
X4104600Y17649800D02*
X4762701Y16991699D01*
X14778850Y15137499D02*
X14805151Y15163800D01*
X4762701Y16991699D02*
X10172000Y16991699D01*
%TO.N,/TL*%
X8808099Y16399800D02*
X12026200Y13181699D01*
X12026200Y12623800D02*
X14805151Y12623800D01*
X3644200Y16399800D02*
X8808099Y16399800D01*
X12026200Y13181699D02*
X12026200Y12623800D01*
%TO.N,/TR*%
X8570899Y13512800D02*
X11999899Y10083800D01*
X5701600Y13512800D02*
X8570899Y13512800D01*
X4064600Y15149800D02*
X5701600Y13512800D01*
X3644200Y15149800D02*
X4064600Y15149800D01*
X11999899Y10083800D02*
X14805151Y10083800D01*
%TO.N,/HK_T*%
X4095400Y13899800D02*
X3644200Y13899800D01*
X5727000Y12268200D02*
X4095400Y13899800D01*
X8013000Y12268200D02*
X5727000Y12268200D01*
%TO.N,/HK*%
X12026200Y7543800D02*
X14805151Y7543800D01*
%TO.N,/C_UP*%
X16805151Y38023800D02*
X19564351Y38023800D01*
X24853200Y32734951D02*
X24853200Y31016600D01*
X19564351Y38023800D02*
X24853200Y32734951D01*
%TO.N,/C_DOWN*%
X23238600Y31809551D02*
X23238600Y28456751D01*
X16805151Y35483800D02*
X19564351Y35483800D01*
X23238600Y28456751D02*
X24428751Y27266600D01*
X24428751Y27266600D02*
X24853200Y27266600D01*
X19564351Y35483800D02*
X23238600Y31809551D01*
%TO.N,/C_LEFT*%
X19564351Y32943800D02*
X22788600Y29719551D01*
X22788600Y29719551D02*
X22788600Y26442951D01*
X24464951Y24766600D02*
X24853200Y24766600D01*
X16805151Y32943800D02*
X19564351Y32943800D01*
X22788600Y26442951D02*
X24464951Y24766600D01*
%TO.N,/C_RIGHT*%
X24470351Y23516600D02*
X24853200Y23516600D01*
X22338600Y25648351D02*
X24470351Y23516600D01*
X22338600Y27629551D02*
X22338600Y25648351D01*
X16805151Y30403800D02*
X19564351Y30403800D01*
X19564351Y30403800D02*
X22338600Y27629551D01*
%TO.N,/C_START*%
X21886751Y21045600D02*
X23165751Y19766600D01*
X16805151Y27863800D02*
X19564351Y27863800D01*
X19564351Y26985501D02*
X21886751Y24663101D01*
X19564351Y27863800D02*
X19564351Y26985501D01*
X21886751Y24663101D02*
X21886751Y21045600D01*
X23165751Y19766600D02*
X24853200Y19766600D01*
%TO.N,/C_SELECT*%
X19564351Y25323800D02*
X21436751Y23451400D01*
X23094951Y18516600D02*
X24853200Y18516600D01*
X16805151Y25323800D02*
X19564351Y25323800D01*
X21436751Y23451400D02*
X21436751Y20174800D01*
X21436751Y20174800D02*
X23094951Y18516600D01*
%TO.N,/C_A*%
X20986751Y19558000D02*
X23278151Y17266600D01*
X19564351Y22783800D02*
X20986751Y21361400D01*
X20986751Y21361400D02*
X20986751Y19558000D01*
X23278151Y17266600D02*
X24853200Y17266600D01*
X16805151Y22783800D02*
X19564351Y22783800D01*
%TO.N,/C_B*%
X16805151Y20243800D02*
X19564351Y20243800D01*
X22688551Y15976600D02*
X22688551Y16916400D01*
X19564351Y20040600D02*
X19564351Y20243800D01*
X22688551Y16916400D02*
X19564351Y20040600D01*
%TO.N,/C_X*%
X16805151Y17703800D02*
X19564351Y17703800D01*
%TO.N,/C_Y*%
X16805151Y15163800D02*
X19564351Y15163800D01*
%TO.N,/C_TL*%
X16805151Y12623800D02*
X19564351Y12623800D01*
%TO.N,/C_TR*%
X16805151Y10083800D02*
X19564351Y10083800D01*
%TO.N,/C_HK*%
X16805151Y7543800D02*
X19564351Y7543800D01*
%TD*%
M02*
