%TF.GenerationSoftware,KiCad,Pcbnew,7.0.1*%
%TF.CreationDate,2023-03-28T23:41:53+09:00*%
%TF.ProjectId,joystick_gpio_input_main_part,6a6f7973-7469-4636-9b5f-6770696f5f69,2*%
%TF.SameCoordinates,PX7863d30PY784b050*%
%TF.FileFunction,Copper,L2,Bot*%
%TF.FilePolarity,Positive*%
%FSLAX46Y46*%
G04 Gerber Fmt 4.6, Leading zero omitted, Abs format (unit mm)*
G04 Created by KiCad (PCBNEW 7.0.1) date 2023-03-28 23:41:53*
%MOMM*%
%LPD*%
G01*
G04 APERTURE LIST*
G04 Aperture macros list*
%AMRoundRect*
0 Rectangle with rounded corners*
0 $1 Rounding radius*
0 $2 $3 $4 $5 $6 $7 $8 $9 X,Y pos of 4 corners*
0 Add a 4 corners polygon primitive as box body*
4,1,4,$2,$3,$4,$5,$6,$7,$8,$9,$2,$3,0*
0 Add four circle primitives for the rounded corners*
1,1,$1+$1,$2,$3*
1,1,$1+$1,$4,$5*
1,1,$1+$1,$6,$7*
1,1,$1+$1,$8,$9*
0 Add four rect primitives between the rounded corners*
20,1,$1+$1,$2,$3,$4,$5,0*
20,1,$1+$1,$4,$5,$6,$7,0*
20,1,$1+$1,$6,$7,$8,$9,0*
20,1,$1+$1,$8,$9,$2,$3,0*%
G04 Aperture macros list end*
%TA.AperFunction,ComponentPad*%
%ADD10RoundRect,0.200000X-0.450000X0.200000X-0.450000X-0.200000X0.450000X-0.200000X0.450000X0.200000X0*%
%TD*%
%TA.AperFunction,ComponentPad*%
%ADD11O,1.300000X0.800000*%
%TD*%
%TA.AperFunction,ComponentPad*%
%ADD12R,1.700000X1.700000*%
%TD*%
%TA.AperFunction,ComponentPad*%
%ADD13O,1.700000X1.700000*%
%TD*%
%TA.AperFunction,ViaPad*%
%ADD14C,0.800000*%
%TD*%
%TA.AperFunction,Conductor*%
%ADD15C,0.250000*%
%TD*%
G04 APERTURE END LIST*
D10*
%TO.P,J5,1,Pin_1*%
%TO.N,/C_UP*%
X24853200Y31016600D03*
D11*
%TO.P,J5,2,Pin_2*%
%TO.N,/C_TL*%
X24853200Y29766600D03*
%TO.P,J5,3,Pin_3*%
%TO.N,/C_X*%
X24853200Y28516600D03*
%TO.P,J5,4,Pin_4*%
%TO.N,/C_DOWN*%
X24853200Y27266600D03*
%TO.P,J5,5,Pin_5*%
%TO.N,/C_Y*%
X24853200Y26016600D03*
%TO.P,J5,6,Pin_6*%
%TO.N,/C_LEFT*%
X24853200Y24766600D03*
%TO.P,J5,7,Pin_7*%
%TO.N,/C_RIGHT*%
X24853200Y23516600D03*
%TO.P,J5,8,Pin_8*%
%TO.N,/C_TR*%
X24853200Y22266600D03*
%TO.P,J5,9,Pin_9*%
%TO.N,/C_B*%
X24853200Y21016600D03*
%TO.P,J5,10,Pin_10*%
%TO.N,/C_START*%
X24853200Y19766600D03*
%TO.P,J5,11,Pin_11*%
%TO.N,/C_SELECT*%
X24853200Y18516600D03*
%TO.P,J5,12,Pin_12*%
%TO.N,/C_A*%
X24853200Y17266600D03*
%TO.P,J5,13,Pin_13*%
%TO.N,/GND*%
X24853200Y16016600D03*
%TO.P,J5,14,Pin_14*%
%TO.N,/C_HK*%
X24853200Y14766600D03*
%TD*%
D12*
%TO.P,JP3,1,Pin_1*%
%TO.N,/HK*%
X8013000Y14808200D03*
D13*
%TO.P,JP3,2,Pin_2*%
%TO.N,/HK_T*%
X8013000Y12268200D03*
%TO.P,JP3,3,Pin_3*%
%TO.N,/GND*%
X8013000Y9728200D03*
%TD*%
D10*
%TO.P,J1,1,Pin_1*%
%TO.N,/GND*%
X3618800Y40563800D03*
D11*
%TO.P,J1,2,Pin_2*%
%TO.N,/UP*%
X3618800Y39313800D03*
%TO.P,J1,3,Pin_3*%
%TO.N,/DOWN*%
X3618800Y38063800D03*
%TO.P,J1,4,Pin_4*%
%TO.N,/LEFT*%
X3618800Y36813800D03*
%TO.P,J1,5,Pin_5*%
%TO.N,/RIGHT*%
X3618800Y35563800D03*
%TO.P,J1,6,Pin_6*%
%TO.N,/GND*%
X3618800Y34313800D03*
%TD*%
D12*
%TO.P,J12,1,Pin_1*%
%TO.N,/GND*%
X12026200Y40563800D03*
D13*
%TO.P,J12,2,Pin_2*%
%TO.N,/UP*%
X12026200Y38023800D03*
%TO.P,J12,3,Pin_3*%
%TO.N,/DOWN*%
X12026200Y35483800D03*
%TO.P,J12,4,Pin_4*%
%TO.N,/LEFT*%
X12026200Y32943800D03*
%TO.P,J12,5,Pin_5*%
%TO.N,/RIGHT*%
X12026200Y30403800D03*
%TO.P,J12,6,Pin_6*%
%TO.N,/START*%
X12026200Y27863800D03*
%TO.P,J12,7,Pin_7*%
%TO.N,/SELECT*%
X12026200Y25323800D03*
%TO.P,J12,8,Pin_8*%
%TO.N,/A*%
X12026200Y22783800D03*
%TO.P,J12,9,Pin_9*%
%TO.N,/B*%
X12026200Y20243800D03*
%TO.P,J12,10,Pin_10*%
%TO.N,/X*%
X12026200Y17703800D03*
%TO.P,J12,11,Pin_11*%
%TO.N,/Y*%
X12026200Y15163800D03*
%TO.P,J12,12,Pin_12*%
%TO.N,/TL*%
X12026200Y12623800D03*
%TO.P,J12,13,Pin_13*%
%TO.N,/TR*%
X12026200Y10083800D03*
%TO.P,J12,14,Pin_14*%
%TO.N,/HK*%
X12026200Y7543800D03*
%TO.P,J12,15,Pin_15*%
%TO.N,/GND*%
X12026200Y5003800D03*
%TD*%
D10*
%TO.P,J3,1,Pin_1*%
%TO.N,/GND*%
X3644200Y30149800D03*
D11*
%TO.P,J3,2,Pin_2*%
%TO.N,/UP*%
X3644200Y28899800D03*
%TO.P,J3,3,Pin_3*%
%TO.N,/DOWN*%
X3644200Y27649800D03*
%TO.P,J3,4,Pin_4*%
%TO.N,/LEFT*%
X3644200Y26399800D03*
%TO.P,J3,5,Pin_5*%
%TO.N,/RIGHT_T*%
X3644200Y25149800D03*
%TO.P,J3,6,Pin_6*%
%TO.N,/START*%
X3644200Y23899800D03*
%TO.P,J3,7,Pin_7*%
%TO.N,/SELECT_T*%
X3644200Y22649800D03*
%TO.P,J3,8,Pin_8*%
%TO.N,/A*%
X3644200Y21399800D03*
%TO.P,J3,9,Pin_9*%
%TO.N,/B*%
X3644200Y20149800D03*
%TO.P,J3,10,Pin_10*%
%TO.N,/X*%
X3644200Y18899800D03*
%TO.P,J3,11,Pin_11*%
%TO.N,/Y*%
X3644200Y17649800D03*
%TO.P,J3,12,Pin_12*%
%TO.N,/TL*%
X3644200Y16399800D03*
%TO.P,J3,13,Pin_13*%
%TO.N,/TR*%
X3644200Y15149800D03*
%TO.P,J3,14,Pin_14*%
%TO.N,/HK_T*%
X3644200Y13899800D03*
%TO.P,J3,15,Pin_15*%
%TO.N,/GND*%
X3644200Y12649800D03*
%TD*%
D12*
%TO.P,JP1,1,Pin_1*%
%TO.N,/RIGHT*%
X8013000Y33350200D03*
D13*
%TO.P,JP1,2,Pin_2*%
%TO.N,/RIGHT_T*%
X8013000Y30810200D03*
%TO.P,JP1,3,Pin_3*%
%TO.N,/GND*%
X8013000Y28270200D03*
%TD*%
D12*
%TO.P,J4,1,Pin_1*%
%TO.N,/GND*%
X19564351Y40563800D03*
D13*
%TO.P,J4,2,Pin_2*%
%TO.N,/C_UP*%
X19564351Y38023800D03*
%TO.P,J4,3,Pin_3*%
%TO.N,/C_DOWN*%
X19564351Y35483800D03*
%TO.P,J4,4,Pin_4*%
%TO.N,/C_LEFT*%
X19564351Y32943800D03*
%TO.P,J4,5,Pin_5*%
%TO.N,/C_RIGHT*%
X19564351Y30403800D03*
%TO.P,J4,6,Pin_6*%
%TO.N,/C_START*%
X19564351Y27863800D03*
%TO.P,J4,7,Pin_7*%
%TO.N,/C_SELECT*%
X19564351Y25323800D03*
%TO.P,J4,8,Pin_8*%
%TO.N,/C_A*%
X19564351Y22783800D03*
%TO.P,J4,9,Pin_9*%
%TO.N,/C_B*%
X19564351Y20243800D03*
%TO.P,J4,10,Pin_10*%
%TO.N,/C_X*%
X19564351Y17703800D03*
%TO.P,J4,11,Pin_11*%
%TO.N,/C_Y*%
X19564351Y15163800D03*
%TO.P,J4,12,Pin_12*%
%TO.N,/C_TL*%
X19564351Y12623800D03*
%TO.P,J4,13,Pin_13*%
%TO.N,/C_TR*%
X19564351Y10083800D03*
%TO.P,J4,14,Pin_14*%
%TO.N,/C_HK*%
X19564351Y7543800D03*
%TO.P,J4,15,Pin_15*%
%TO.N,/GND*%
X19564351Y5003800D03*
%TD*%
D12*
%TO.P,JP2,1,Pin_1*%
%TO.N,/SELECT*%
X8013000Y24079200D03*
D13*
%TO.P,JP2,2,Pin_2*%
%TO.N,/SELECT_T*%
X8013000Y21539200D03*
%TO.P,JP2,3,Pin_3*%
%TO.N,/GND*%
X8013000Y18999200D03*
%TD*%
D10*
%TO.P,J2,1,Pin_1*%
%TO.N,/GND*%
X3644200Y8559800D03*
D11*
%TO.P,J2,2,Pin_2*%
%TO.N,/START*%
X3644200Y7309800D03*
%TO.P,J2,3,Pin_3*%
%TO.N,/SELECT*%
X3644200Y6059800D03*
%TO.P,J2,4,Pin_4*%
%TO.N,/GND*%
X3644200Y4809800D03*
%TD*%
D14*
%TO.N,/C_B*%
X22688551Y15976600D03*
%TD*%
D15*
%TO.N,/GND*%
X6133400Y30149800D02*
X8013000Y28270200D01*
X8013000Y18999200D02*
X9994200Y20980400D01*
X9994200Y26289000D02*
X8013000Y28270200D01*
X9994200Y20980400D02*
X9994200Y26289000D01*
X3644200Y30149800D02*
X6133400Y30149800D01*
%TO.N,/DOWN*%
X11340400Y35457499D02*
X12026200Y35457499D01*
X8734099Y38063800D02*
X11340400Y35457499D01*
X3618800Y38063800D02*
X8734099Y38063800D01*
%TO.N,/LEFT*%
X3618800Y36813800D02*
X8129899Y36813800D01*
X3618800Y36813800D02*
X3348600Y36813800D01*
X2323400Y27457400D02*
X3381000Y26399800D01*
X2323400Y35788600D02*
X2323400Y27457400D01*
X3381000Y26399800D02*
X3644200Y26399800D01*
X3348600Y36813800D02*
X2323400Y35788600D01*
X8129899Y36813800D02*
X12026200Y32917499D01*
%TO.N,/RIGHT*%
X5799400Y35563800D02*
X3618800Y35563800D01*
X8013000Y33350200D02*
X5799400Y35563800D01*
%TO.N,/START*%
X2323400Y8128000D02*
X3141600Y7309800D01*
X3141600Y7309800D02*
X3644200Y7309800D01*
X2323400Y22834600D02*
X2323400Y8128000D01*
X3644200Y23899800D02*
X3388600Y23899800D01*
X3388600Y23899800D02*
X2323400Y22834600D01*
%TO.N,/SELECT*%
X3932551Y6059800D02*
X5447600Y7574849D01*
X10851200Y20175699D02*
X10851200Y24122499D01*
X10851200Y24122499D02*
X12026200Y25297499D01*
X5447600Y7574849D02*
X5447600Y14772099D01*
X5447600Y14772099D02*
X10851200Y20175699D01*
X3669505Y6059800D02*
X3932551Y6059800D01*
%TO.N,/SELECT_T*%
X6902400Y22649800D02*
X8013000Y21539200D01*
X3644200Y22649800D02*
X6902400Y22649800D01*
%TO.N,/HK*%
X8013000Y14808200D02*
X9664000Y13157200D01*
X9664000Y13157200D02*
X9664000Y9906000D01*
X9664000Y9906000D02*
X12026200Y7543800D01*
%TO.N,/C_B*%
X22688551Y15976600D02*
X23526751Y16814800D01*
X24502751Y21016600D02*
X24853200Y21016600D01*
X23526751Y16814800D02*
X23526751Y20040600D01*
X23526751Y20040600D02*
X24502751Y21016600D01*
%TO.N,/C_X*%
X19564351Y17703800D02*
X20072351Y17703800D01*
X21926551Y19558000D02*
X21926551Y25958800D01*
X20072351Y17703800D02*
X21926551Y19558000D01*
X21926551Y25958800D02*
X24484351Y28516600D01*
X24484351Y28516600D02*
X24853200Y28516600D01*
%TO.N,/C_Y*%
X24524351Y26016600D02*
X24853200Y26016600D01*
X22459951Y18059400D02*
X22459951Y23952200D01*
X19564351Y15163800D02*
X22459951Y18059400D01*
X22459951Y23952200D02*
X24524351Y26016600D01*
%TO.N,/C_TL*%
X18776951Y29133800D02*
X23679151Y29133800D01*
X24311951Y29766600D02*
X24853200Y29766600D01*
X18192751Y28549600D02*
X18776951Y29133800D01*
X23679151Y29133800D02*
X24311951Y29766600D01*
X18192751Y13995400D02*
X18192751Y28549600D01*
X19564351Y12623800D02*
X18192751Y13995400D01*
%TO.N,/C_TR*%
X23076751Y17939600D02*
X23076751Y20835200D01*
X21520151Y12039600D02*
X21520151Y16383000D01*
X24508151Y22266600D02*
X24853200Y22266600D01*
X23076751Y20835200D02*
X24508151Y22266600D01*
X21520151Y16383000D02*
X23076751Y17939600D01*
X19564351Y10083800D02*
X21520151Y12039600D01*
%TO.N,/C_HK*%
X19564351Y7543800D02*
X19970751Y7543800D01*
X24853200Y12426249D02*
X24853200Y14766600D01*
X19970751Y7543800D02*
X24853200Y12426249D01*
%TD*%
M02*
