%TF.GenerationSoftware,KiCad,Pcbnew,7.0.1*%
%TF.CreationDate,2023-05-21T17:25:09+09:00*%
%TF.ProjectId,joystick_gpio_input_main_part,6a6f7973-7469-4636-9b5f-6770696f5f69,2*%
%TF.SameCoordinates,PX7863d30PY784b050*%
%TF.FileFunction,Legend,Bot*%
%TF.FilePolarity,Positive*%
%FSLAX46Y46*%
G04 Gerber Fmt 4.6, Leading zero omitted, Abs format (unit mm)*
G04 Created by KiCad (PCBNEW 7.0.1) date 2023-05-21 17:25:09*
%MOMM*%
%LPD*%
G01*
G04 APERTURE LIST*
G04 Aperture macros list*
%AMRoundRect*
0 Rectangle with rounded corners*
0 $1 Rounding radius*
0 $2 $3 $4 $5 $6 $7 $8 $9 X,Y pos of 4 corners*
0 Add a 4 corners polygon primitive as box body*
4,1,4,$2,$3,$4,$5,$6,$7,$8,$9,$2,$3,0*
0 Add four circle primitives for the rounded corners*
1,1,$1+$1,$2,$3*
1,1,$1+$1,$4,$5*
1,1,$1+$1,$6,$7*
1,1,$1+$1,$8,$9*
0 Add four rect primitives between the rounded corners*
20,1,$1+$1,$2,$3,$4,$5,0*
20,1,$1+$1,$4,$5,$6,$7,0*
20,1,$1+$1,$6,$7,$8,$9,0*
20,1,$1+$1,$8,$9,$2,$3,0*%
G04 Aperture macros list end*
%ADD10C,0.150000*%
%ADD11RoundRect,0.200000X-0.450000X0.200000X-0.450000X-0.200000X0.450000X-0.200000X0.450000X0.200000X0*%
%ADD12O,1.300000X0.800000*%
%ADD13R,1.700000X1.700000*%
%ADD14O,1.700000X1.700000*%
G04 APERTURE END LIST*
D10*
X15565580Y9001096D02*
X16565580Y9001096D01*
X15565580Y9429667D02*
X16089390Y9429667D01*
X16089390Y9429667D02*
X16184628Y9382048D01*
X16184628Y9382048D02*
X16232247Y9286810D01*
X16232247Y9286810D02*
X16232247Y9143953D01*
X16232247Y9143953D02*
X16184628Y9048715D01*
X16184628Y9048715D02*
X16137009Y9001096D01*
X16232247Y9763001D02*
X16232247Y10143953D01*
X16565580Y9905858D02*
X15708438Y9905858D01*
X15708438Y9905858D02*
X15613200Y9953477D01*
X15613200Y9953477D02*
X15565580Y10048715D01*
X15565580Y10048715D02*
X15565580Y10143953D01*
X16232247Y10334430D02*
X16232247Y10715382D01*
X16565580Y10477287D02*
X15708438Y10477287D01*
X15708438Y10477287D02*
X15613200Y10524906D01*
X15613200Y10524906D02*
X15565580Y10620144D01*
X15565580Y10620144D02*
X15565580Y10715382D01*
X16232247Y11048716D02*
X15232247Y11048716D01*
X16184628Y11048716D02*
X16232247Y11143954D01*
X16232247Y11143954D02*
X16232247Y11334430D01*
X16232247Y11334430D02*
X16184628Y11429668D01*
X16184628Y11429668D02*
X16137009Y11477287D01*
X16137009Y11477287D02*
X16041771Y11524906D01*
X16041771Y11524906D02*
X15756057Y11524906D01*
X15756057Y11524906D02*
X15660819Y11477287D01*
X15660819Y11477287D02*
X15613200Y11429668D01*
X15613200Y11429668D02*
X15565580Y11334430D01*
X15565580Y11334430D02*
X15565580Y11143954D01*
X15565580Y11143954D02*
X15613200Y11048716D01*
X15613200Y11905859D02*
X15565580Y12001097D01*
X15565580Y12001097D02*
X15565580Y12191573D01*
X15565580Y12191573D02*
X15613200Y12286811D01*
X15613200Y12286811D02*
X15708438Y12334430D01*
X15708438Y12334430D02*
X15756057Y12334430D01*
X15756057Y12334430D02*
X15851295Y12286811D01*
X15851295Y12286811D02*
X15898914Y12191573D01*
X15898914Y12191573D02*
X15898914Y12048716D01*
X15898914Y12048716D02*
X15946533Y11953478D01*
X15946533Y11953478D02*
X16041771Y11905859D01*
X16041771Y11905859D02*
X16089390Y11905859D01*
X16089390Y11905859D02*
X16184628Y11953478D01*
X16184628Y11953478D02*
X16232247Y12048716D01*
X16232247Y12048716D02*
X16232247Y12191573D01*
X16232247Y12191573D02*
X16184628Y12286811D01*
X15660819Y12763002D02*
X15613200Y12810621D01*
X15613200Y12810621D02*
X15565580Y12763002D01*
X15565580Y12763002D02*
X15613200Y12715383D01*
X15613200Y12715383D02*
X15660819Y12763002D01*
X15660819Y12763002D02*
X15565580Y12763002D01*
X16184628Y12763002D02*
X16137009Y12810621D01*
X16137009Y12810621D02*
X16089390Y12763002D01*
X16089390Y12763002D02*
X16137009Y12715383D01*
X16137009Y12715383D02*
X16184628Y12763002D01*
X16184628Y12763002D02*
X16089390Y12763002D01*
X16613200Y13953477D02*
X15327485Y13096335D01*
X16613200Y15001096D02*
X15327485Y14143954D01*
X16232247Y15763001D02*
X15422723Y15763001D01*
X15422723Y15763001D02*
X15327485Y15715382D01*
X15327485Y15715382D02*
X15279866Y15667763D01*
X15279866Y15667763D02*
X15232247Y15572525D01*
X15232247Y15572525D02*
X15232247Y15429668D01*
X15232247Y15429668D02*
X15279866Y15334430D01*
X15613200Y15763001D02*
X15565580Y15667763D01*
X15565580Y15667763D02*
X15565580Y15477287D01*
X15565580Y15477287D02*
X15613200Y15382049D01*
X15613200Y15382049D02*
X15660819Y15334430D01*
X15660819Y15334430D02*
X15756057Y15286811D01*
X15756057Y15286811D02*
X16041771Y15286811D01*
X16041771Y15286811D02*
X16137009Y15334430D01*
X16137009Y15334430D02*
X16184628Y15382049D01*
X16184628Y15382049D02*
X16232247Y15477287D01*
X16232247Y15477287D02*
X16232247Y15667763D01*
X16232247Y15667763D02*
X16184628Y15763001D01*
X15565580Y16239192D02*
X16232247Y16239192D01*
X16565580Y16239192D02*
X16517961Y16191573D01*
X16517961Y16191573D02*
X16470342Y16239192D01*
X16470342Y16239192D02*
X16517961Y16286811D01*
X16517961Y16286811D02*
X16565580Y16239192D01*
X16565580Y16239192D02*
X16470342Y16239192D01*
X16232247Y16572525D02*
X16232247Y16953477D01*
X16565580Y16715382D02*
X15708438Y16715382D01*
X15708438Y16715382D02*
X15613200Y16763001D01*
X15613200Y16763001D02*
X15565580Y16858239D01*
X15565580Y16858239D02*
X15565580Y16953477D01*
X15565580Y17286811D02*
X16565580Y17286811D01*
X15565580Y17715382D02*
X16089390Y17715382D01*
X16089390Y17715382D02*
X16184628Y17667763D01*
X16184628Y17667763D02*
X16232247Y17572525D01*
X16232247Y17572525D02*
X16232247Y17429668D01*
X16232247Y17429668D02*
X16184628Y17334430D01*
X16184628Y17334430D02*
X16137009Y17286811D01*
X16232247Y18620144D02*
X15565580Y18620144D01*
X16232247Y18191573D02*
X15708438Y18191573D01*
X15708438Y18191573D02*
X15613200Y18239192D01*
X15613200Y18239192D02*
X15565580Y18334430D01*
X15565580Y18334430D02*
X15565580Y18477287D01*
X15565580Y18477287D02*
X15613200Y18572525D01*
X15613200Y18572525D02*
X15660819Y18620144D01*
X15565580Y19096335D02*
X16565580Y19096335D01*
X16184628Y19096335D02*
X16232247Y19191573D01*
X16232247Y19191573D02*
X16232247Y19382049D01*
X16232247Y19382049D02*
X16184628Y19477287D01*
X16184628Y19477287D02*
X16137009Y19524906D01*
X16137009Y19524906D02*
X16041771Y19572525D01*
X16041771Y19572525D02*
X15756057Y19572525D01*
X15756057Y19572525D02*
X15660819Y19524906D01*
X15660819Y19524906D02*
X15613200Y19477287D01*
X15613200Y19477287D02*
X15565580Y19382049D01*
X15565580Y19382049D02*
X15565580Y19191573D01*
X15565580Y19191573D02*
X15613200Y19096335D01*
X15660819Y20001097D02*
X15613200Y20048716D01*
X15613200Y20048716D02*
X15565580Y20001097D01*
X15565580Y20001097D02*
X15613200Y19953478D01*
X15613200Y19953478D02*
X15660819Y20001097D01*
X15660819Y20001097D02*
X15565580Y20001097D01*
X15613200Y20905858D02*
X15565580Y20810620D01*
X15565580Y20810620D02*
X15565580Y20620144D01*
X15565580Y20620144D02*
X15613200Y20524906D01*
X15613200Y20524906D02*
X15660819Y20477287D01*
X15660819Y20477287D02*
X15756057Y20429668D01*
X15756057Y20429668D02*
X16041771Y20429668D01*
X16041771Y20429668D02*
X16137009Y20477287D01*
X16137009Y20477287D02*
X16184628Y20524906D01*
X16184628Y20524906D02*
X16232247Y20620144D01*
X16232247Y20620144D02*
X16232247Y20810620D01*
X16232247Y20810620D02*
X16184628Y20905858D01*
X15565580Y21477287D02*
X15613200Y21382049D01*
X15613200Y21382049D02*
X15660819Y21334430D01*
X15660819Y21334430D02*
X15756057Y21286811D01*
X15756057Y21286811D02*
X16041771Y21286811D01*
X16041771Y21286811D02*
X16137009Y21334430D01*
X16137009Y21334430D02*
X16184628Y21382049D01*
X16184628Y21382049D02*
X16232247Y21477287D01*
X16232247Y21477287D02*
X16232247Y21620144D01*
X16232247Y21620144D02*
X16184628Y21715382D01*
X16184628Y21715382D02*
X16137009Y21763001D01*
X16137009Y21763001D02*
X16041771Y21810620D01*
X16041771Y21810620D02*
X15756057Y21810620D01*
X15756057Y21810620D02*
X15660819Y21763001D01*
X15660819Y21763001D02*
X15613200Y21715382D01*
X15613200Y21715382D02*
X15565580Y21620144D01*
X15565580Y21620144D02*
X15565580Y21477287D01*
X15565580Y22239192D02*
X16232247Y22239192D01*
X16137009Y22239192D02*
X16184628Y22286811D01*
X16184628Y22286811D02*
X16232247Y22382049D01*
X16232247Y22382049D02*
X16232247Y22524906D01*
X16232247Y22524906D02*
X16184628Y22620144D01*
X16184628Y22620144D02*
X16089390Y22667763D01*
X16089390Y22667763D02*
X15565580Y22667763D01*
X16089390Y22667763D02*
X16184628Y22715382D01*
X16184628Y22715382D02*
X16232247Y22810620D01*
X16232247Y22810620D02*
X16232247Y22953477D01*
X16232247Y22953477D02*
X16184628Y23048716D01*
X16184628Y23048716D02*
X16089390Y23096335D01*
X16089390Y23096335D02*
X15565580Y23096335D01*
X16613200Y24286810D02*
X15327485Y23429668D01*
X15565580Y25048715D02*
X16089390Y25048715D01*
X16089390Y25048715D02*
X16184628Y25001096D01*
X16184628Y25001096D02*
X16232247Y24905858D01*
X16232247Y24905858D02*
X16232247Y24715382D01*
X16232247Y24715382D02*
X16184628Y24620144D01*
X15613200Y25048715D02*
X15565580Y24953477D01*
X15565580Y24953477D02*
X15565580Y24715382D01*
X15565580Y24715382D02*
X15613200Y24620144D01*
X15613200Y24620144D02*
X15708438Y24572525D01*
X15708438Y24572525D02*
X15803676Y24572525D01*
X15803676Y24572525D02*
X15898914Y24620144D01*
X15898914Y24620144D02*
X15946533Y24715382D01*
X15946533Y24715382D02*
X15946533Y24953477D01*
X15946533Y24953477D02*
X15994152Y25048715D01*
X15565580Y25524906D02*
X16232247Y25524906D01*
X16137009Y25524906D02*
X16184628Y25572525D01*
X16184628Y25572525D02*
X16232247Y25667763D01*
X16232247Y25667763D02*
X16232247Y25810620D01*
X16232247Y25810620D02*
X16184628Y25905858D01*
X16184628Y25905858D02*
X16089390Y25953477D01*
X16089390Y25953477D02*
X15565580Y25953477D01*
X16089390Y25953477D02*
X16184628Y26001096D01*
X16184628Y26001096D02*
X16232247Y26096334D01*
X16232247Y26096334D02*
X16232247Y26239191D01*
X16232247Y26239191D02*
X16184628Y26334430D01*
X16184628Y26334430D02*
X16089390Y26382049D01*
X16089390Y26382049D02*
X15565580Y26382049D01*
X15565580Y27001096D02*
X15613200Y26905858D01*
X15613200Y26905858D02*
X15660819Y26858239D01*
X15660819Y26858239D02*
X15756057Y26810620D01*
X15756057Y26810620D02*
X16041771Y26810620D01*
X16041771Y26810620D02*
X16137009Y26858239D01*
X16137009Y26858239D02*
X16184628Y26905858D01*
X16184628Y26905858D02*
X16232247Y27001096D01*
X16232247Y27001096D02*
X16232247Y27143953D01*
X16232247Y27143953D02*
X16184628Y27239191D01*
X16184628Y27239191D02*
X16137009Y27286810D01*
X16137009Y27286810D02*
X16041771Y27334429D01*
X16041771Y27334429D02*
X15756057Y27334429D01*
X15756057Y27334429D02*
X15660819Y27286810D01*
X15660819Y27286810D02*
X15613200Y27239191D01*
X15613200Y27239191D02*
X15565580Y27143953D01*
X15565580Y27143953D02*
X15565580Y27001096D01*
X15613200Y27715382D02*
X15565580Y27810620D01*
X15565580Y27810620D02*
X15565580Y28001096D01*
X15565580Y28001096D02*
X15613200Y28096334D01*
X15613200Y28096334D02*
X15708438Y28143953D01*
X15708438Y28143953D02*
X15756057Y28143953D01*
X15756057Y28143953D02*
X15851295Y28096334D01*
X15851295Y28096334D02*
X15898914Y28001096D01*
X15898914Y28001096D02*
X15898914Y27858239D01*
X15898914Y27858239D02*
X15946533Y27763001D01*
X15946533Y27763001D02*
X16041771Y27715382D01*
X16041771Y27715382D02*
X16089390Y27715382D01*
X16089390Y27715382D02*
X16184628Y27763001D01*
X16184628Y27763001D02*
X16232247Y27858239D01*
X16232247Y27858239D02*
X16232247Y28001096D01*
X16232247Y28001096D02*
X16184628Y28096334D01*
X16232247Y29001096D02*
X15565580Y29001096D01*
X16613200Y28763001D02*
X15898914Y28524906D01*
X15898914Y28524906D02*
X15898914Y29143953D01*
X16470342Y29477287D02*
X16517961Y29524906D01*
X16517961Y29524906D02*
X16565580Y29620144D01*
X16565580Y29620144D02*
X16565580Y29858239D01*
X16565580Y29858239D02*
X16517961Y29953477D01*
X16517961Y29953477D02*
X16470342Y30001096D01*
X16470342Y30001096D02*
X16375104Y30048715D01*
X16375104Y30048715D02*
X16279866Y30048715D01*
X16279866Y30048715D02*
X16137009Y30001096D01*
X16137009Y30001096D02*
X15565580Y29429668D01*
X15565580Y29429668D02*
X15565580Y30048715D01*
X16613200Y31191572D02*
X15327485Y30334430D01*
X15565580Y31953477D02*
X16089390Y31953477D01*
X16089390Y31953477D02*
X16184628Y31905858D01*
X16184628Y31905858D02*
X16232247Y31810620D01*
X16232247Y31810620D02*
X16232247Y31620144D01*
X16232247Y31620144D02*
X16184628Y31524906D01*
X15613200Y31953477D02*
X15565580Y31858239D01*
X15565580Y31858239D02*
X15565580Y31620144D01*
X15565580Y31620144D02*
X15613200Y31524906D01*
X15613200Y31524906D02*
X15708438Y31477287D01*
X15708438Y31477287D02*
X15803676Y31477287D01*
X15803676Y31477287D02*
X15898914Y31524906D01*
X15898914Y31524906D02*
X15946533Y31620144D01*
X15946533Y31620144D02*
X15946533Y31858239D01*
X15946533Y31858239D02*
X15994152Y31953477D01*
X15565580Y32429668D02*
X16232247Y32429668D01*
X16137009Y32429668D02*
X16184628Y32477287D01*
X16184628Y32477287D02*
X16232247Y32572525D01*
X16232247Y32572525D02*
X16232247Y32715382D01*
X16232247Y32715382D02*
X16184628Y32810620D01*
X16184628Y32810620D02*
X16089390Y32858239D01*
X16089390Y32858239D02*
X15565580Y32858239D01*
X16089390Y32858239D02*
X16184628Y32905858D01*
X16184628Y32905858D02*
X16232247Y33001096D01*
X16232247Y33001096D02*
X16232247Y33143953D01*
X16232247Y33143953D02*
X16184628Y33239192D01*
X16184628Y33239192D02*
X16089390Y33286811D01*
X16089390Y33286811D02*
X15565580Y33286811D01*
X15470342Y33524905D02*
X15470342Y34286810D01*
X16232247Y34524906D02*
X15375104Y34524906D01*
X15375104Y34524906D02*
X15279866Y34477287D01*
X15279866Y34477287D02*
X15232247Y34382049D01*
X15232247Y34382049D02*
X15232247Y34334430D01*
X16565580Y34524906D02*
X16517961Y34477287D01*
X16517961Y34477287D02*
X16470342Y34524906D01*
X16470342Y34524906D02*
X16517961Y34572525D01*
X16517961Y34572525D02*
X16565580Y34524906D01*
X16565580Y34524906D02*
X16470342Y34524906D01*
X15565580Y35143953D02*
X15613200Y35048715D01*
X15613200Y35048715D02*
X15660819Y35001096D01*
X15660819Y35001096D02*
X15756057Y34953477D01*
X15756057Y34953477D02*
X16041771Y34953477D01*
X16041771Y34953477D02*
X16137009Y35001096D01*
X16137009Y35001096D02*
X16184628Y35048715D01*
X16184628Y35048715D02*
X16232247Y35143953D01*
X16232247Y35143953D02*
X16232247Y35286810D01*
X16232247Y35286810D02*
X16184628Y35382048D01*
X16184628Y35382048D02*
X16137009Y35429667D01*
X16137009Y35429667D02*
X16041771Y35477286D01*
X16041771Y35477286D02*
X15756057Y35477286D01*
X15756057Y35477286D02*
X15660819Y35429667D01*
X15660819Y35429667D02*
X15613200Y35382048D01*
X15613200Y35382048D02*
X15565580Y35286810D01*
X15565580Y35286810D02*
X15565580Y35143953D01*
X16232247Y35810620D02*
X15565580Y36048715D01*
X16232247Y36286810D02*
X15565580Y36048715D01*
X15565580Y36048715D02*
X15327485Y35953477D01*
X15327485Y35953477D02*
X15279866Y35905858D01*
X15279866Y35905858D02*
X15232247Y35810620D01*
X15565580Y36667763D02*
X16232247Y36667763D01*
X16565580Y36667763D02*
X16517961Y36620144D01*
X16517961Y36620144D02*
X16470342Y36667763D01*
X16470342Y36667763D02*
X16517961Y36715382D01*
X16517961Y36715382D02*
X16565580Y36667763D01*
X16565580Y36667763D02*
X16470342Y36667763D01*
X16232247Y37143953D02*
X15565580Y37143953D01*
X16137009Y37143953D02*
X16184628Y37191572D01*
X16184628Y37191572D02*
X16232247Y37286810D01*
X16232247Y37286810D02*
X16232247Y37429667D01*
X16232247Y37429667D02*
X16184628Y37524905D01*
X16184628Y37524905D02*
X16089390Y37572524D01*
X16089390Y37572524D02*
X15565580Y37572524D01*
%LPC*%
D11*
%TO.C,J6*%
X24587200Y31038800D03*
D12*
X24587200Y29788800D03*
X24587200Y28538800D03*
X24587200Y27288800D03*
X24587200Y26038800D03*
X24587200Y24788800D03*
X24587200Y23538800D03*
X24587200Y22288800D03*
X24587200Y21038800D03*
X24587200Y19788800D03*
X24587200Y18538800D03*
X24587200Y17288800D03*
X24587200Y16038800D03*
X24587200Y14788800D03*
%TD*%
D13*
%TO.C,JP3*%
X8013000Y14808200D03*
D14*
X8013000Y12268200D03*
X8013000Y9728200D03*
%TD*%
D11*
%TO.C,J4*%
X3618800Y40563800D03*
D12*
X3618800Y39313800D03*
X3618800Y38063800D03*
X3618800Y36813800D03*
X3618800Y35563800D03*
X3618800Y34313800D03*
%TD*%
D13*
%TO.C,J1*%
X12026200Y40563800D03*
D14*
X12026200Y38023800D03*
X12026200Y35483800D03*
X12026200Y32943800D03*
X12026200Y30403800D03*
X12026200Y27863800D03*
X12026200Y25323800D03*
X12026200Y22783800D03*
X12026200Y20243800D03*
X12026200Y17703800D03*
X12026200Y15163800D03*
X12026200Y12623800D03*
X12026200Y10083800D03*
X12026200Y7543800D03*
X12026200Y5003800D03*
%TD*%
D11*
%TO.C,J3*%
X3644200Y30149800D03*
D12*
X3644200Y28899800D03*
X3644200Y27649800D03*
X3644200Y26399800D03*
X3644200Y25149800D03*
X3644200Y23899800D03*
X3644200Y22649800D03*
X3644200Y21399800D03*
X3644200Y20149800D03*
X3644200Y18899800D03*
X3644200Y17649800D03*
X3644200Y16399800D03*
X3644200Y15149800D03*
X3644200Y13899800D03*
X3644200Y12649800D03*
%TD*%
D13*
%TO.C,JP1*%
X8013000Y33350200D03*
D14*
X8013000Y30810200D03*
X8013000Y28270200D03*
%TD*%
D13*
%TO.C,J2*%
X19564351Y40563800D03*
D14*
X19564351Y38023800D03*
X19564351Y35483800D03*
X19564351Y32943800D03*
X19564351Y30403800D03*
X19564351Y27863800D03*
X19564351Y25323800D03*
X19564351Y22783800D03*
X19564351Y20243800D03*
X19564351Y17703800D03*
X19564351Y15163800D03*
X19564351Y12623800D03*
X19564351Y10083800D03*
X19564351Y7543800D03*
X19564351Y5003800D03*
%TD*%
D13*
%TO.C,JP2*%
X8013000Y24079200D03*
D14*
X8013000Y21539200D03*
X8013000Y18999200D03*
%TD*%
D11*
%TO.C,J5*%
X3644200Y8559800D03*
D12*
X3644200Y7309800D03*
X3644200Y6059800D03*
X3644200Y4809800D03*
%TD*%
M02*
