M48
; DRILL file {KiCad 7.0.1} date Tue Mar 28 23:41:55 2023
; FORMAT={-:-/ absolute / inch / decimal}
; #@! TF.CreationDate,2023-03-28T23:41:55+09:00
; #@! TF.GenerationSoftware,Kicad,Pcbnew,7.0.1
; #@! TF.FileFunction,Plated,1,2,PTH
FMAT,2
INCH
; #@! TA.AperFunction,Plated,PTH,ViaDrill
T1C0.0157
; #@! TA.AperFunction,Plated,PTH,ComponentDrill
T2C0.0197
; #@! TA.AperFunction,Plated,PTH,ComponentDrill
T3C0.0394
%
G90
G05
T1
X0.8933Y0.629
T2
X0.1425Y1.597
X0.1425Y1.5478
X0.1425Y1.4986
X0.1425Y1.4494
X0.1425Y1.4001
X0.1425Y1.3509
X0.1435Y1.187
X0.1435Y1.1378
X0.1435Y1.0886
X0.1435Y1.0394
X0.1435Y0.9901
X0.1435Y0.9409
X0.1435Y0.8917
X0.1435Y0.8425
X0.1435Y0.7933
X0.1435Y0.7441
X0.1435Y0.6949
X0.1435Y0.6457
X0.1435Y0.5964
X0.1435Y0.5472
X0.1435Y0.498
X0.1435Y0.337
X0.1435Y0.2878
X0.1435Y0.2386
X0.1435Y0.1894
X0.9785Y1.2211
X0.9785Y1.1719
X0.9785Y1.1227
X0.9785Y1.0735
X0.9785Y1.0243
X0.9785Y0.9751
X0.9785Y0.9259
X0.9785Y0.8766
X0.9785Y0.8274
X0.9785Y0.7782
X0.9785Y0.729
X0.9785Y0.6798
X0.9785Y0.6306
X0.9785Y0.5814
T3
X0.3155Y1.313
X0.3155Y1.213
X0.3155Y1.113
X0.3155Y0.948
X0.3155Y0.848
X0.3155Y0.748
X0.3155Y0.583
X0.3155Y0.483
X0.3155Y0.383
X0.4735Y1.597
X0.4735Y1.497
X0.4735Y1.397
X0.4735Y1.297
X0.4735Y1.197
X0.4735Y1.097
X0.4735Y0.997
X0.4735Y0.897
X0.4735Y0.797
X0.4735Y0.697
X0.4735Y0.597
X0.4735Y0.497
X0.4735Y0.397
X0.4735Y0.297
X0.4735Y0.197
X0.7703Y1.597
X0.7703Y1.497
X0.7703Y1.397
X0.7703Y1.297
X0.7703Y1.197
X0.7703Y1.097
X0.7703Y0.997
X0.7703Y0.897
X0.7703Y0.797
X0.7703Y0.697
X0.7703Y0.597
X0.7703Y0.497
X0.7703Y0.397
X0.7703Y0.297
X0.7703Y0.197
T0
M30
