<?xml version="1.0" encoding="UTF-8" standalone="no"?>
<!-- Created with Inkscape (http://www.inkscape.org/) -->

<svg
   width="250.2654mm"
   height="140.26569mm"
   viewBox="0 0 250.26541 140.26569"
   version="1.1"
   id="svg5"
   xml:space="preserve"
   inkscape:version="1.3.1 (91b66b0783, 2023-11-16)"
   sodipodi:docname="input_pannel.svg"
   xmlns:inkscape="http://www.inkscape.org/namespaces/inkscape"
   xmlns:sodipodi="http://sodipodi.sourceforge.net/DTD/sodipodi-0.dtd"
   xmlns="http://www.w3.org/2000/svg"
   xmlns:svg="http://www.w3.org/2000/svg"><sodipodi:namedview
     id="namedview7"
     pagecolor="#ffffff"
     bordercolor="#666666"
     borderopacity="1.0"
     inkscape:showpageshadow="2"
     inkscape:pageopacity="0.0"
     inkscape:pagecheckerboard="0"
     inkscape:deskcolor="#d1d1d1"
     inkscape:document-units="mm"
     showgrid="false"
     inkscape:zoom="0.64693624"
     inkscape:cx="238.81797"
     inkscape:cy="-237.27222"
     inkscape:window-width="3440"
     inkscape:window-height="1351"
     inkscape:window-x="-9"
     inkscape:window-y="-9"
     inkscape:window-maximized="1"
     inkscape:current-layer="layer1" /><defs
     id="defs2"><marker
       id="DistanceX"
       orient="auto"
       refX="0"
       refY="0"
       style="overflow:visible"><path
         d="M 3,-3 -3,3 M 0,-5 V 5"
         style="stroke:#000000;stroke-width:0.5"
         id="path184" /></marker><pattern
       id="Hatch"
       patternUnits="userSpaceOnUse"
       width="8"
       height="8"
       x="0"
       y="0"><path
         d="M8 4 l-4,4"
         stroke="#000000"
         stroke-width="0.25"
         linecap="square"
         id="path187" /><path
         d="M6 2 l-4,4"
         stroke="#000000"
         stroke-width="0.25"
         linecap="square"
         id="path189" /><path
         d="M4 0 l-4,4"
         stroke="#000000"
         stroke-width="0.25"
         linecap="square"
         id="path191" /></pattern><symbol
       id="*Model_Space" /><symbol
       id="*Paper_Space" /><symbol
       id="*Paper_Space0" /></defs><g
     inkscape:label="Layer 1"
     inkscape:groupmode="layer"
     id="layer1"
     transform="translate(808.34296,1.5340003)"><path
       id="path2413"
       style="fill:none;stroke:#ff0000;stroke-width:0.264583;stroke-linecap:round;stroke-opacity:1"
       d="M -558.20985,-1.4017088 V 138.59939 M -802.2107,128.09861 a 1.5,1.5 0 0 0 -3,0 1.5,1.5 0 0 0 3,0 z m -5.99997,-129.5003188 h 250.00082 m -3.00085,4.500807 a 1.5000023,1.5000023 0 0 0 -3,0 1.5000023,1.5000023 0 0 0 3,0 z m 0,124.9995118 a 1.5000023,1.5000023 0 0 0 -3,0 1.5000023,1.5000023 0 0 0 3,0 z m 3.00085,10.50078 H -808.21067 M -681.74448,22.693473 a 7.9999998,7.9999998 0 0 0 -15.99999,0 8,8 0 0 0 15.99999,0 z M -808.21067,138.59939 V -1.4017088 m 231.53645,38.8373678 a 15,15 0 0 0 -30,0 15,15 0 0 0 30,0 z m -70.90896,56.999707 a 15,15 0 0 0 -30,0 15,15 0 0 0 30,0 z m 0,-37.999825 a 15,15 0 0 0 -30,0 15,15 0 0 0 30,0 z M -802.2107,3.0990982 a 1.5,1.5 0 0 0 -3,0 1.5,1.5 0 0 0 3,0 z m 187.53648,34.3365608 a 15,15 0 0 0 -30,0 15,15 0 0 0 30,0 z m 0,37.999783 a 15,15 0 0 0 -30,0 15,15 0 0 0 30,0 z m 38,0 a 15,15 0 0 0 -30,0 15,15 0 0 0 30,0 z m -165.40896,-9.499946 a 10.5,10.5 0 0 0 -21,0 10.5,10.5 0 0 0 21,0 z" /></g></svg>
