%TF.GenerationSoftware,KiCad,Pcbnew,(6.0.10)*%
%TF.CreationDate,2023-02-12T20:01:58+09:00*%
%TF.ProjectId,joystick_74hc165_input_smd,6a6f7973-7469-4636-9b5f-373468633136,2*%
%TF.SameCoordinates,PX7e249a4PY6c1eee4*%
%TF.FileFunction,Soldermask,Bot*%
%TF.FilePolarity,Negative*%
%FSLAX46Y46*%
G04 Gerber Fmt 4.6, Leading zero omitted, Abs format (unit mm)*
G04 Created by KiCad (PCBNEW (6.0.10)) date 2023-02-12 20:01:58*
%MOMM*%
%LPD*%
G01*
G04 APERTURE LIST*
%ADD10R,1.700000X1.700000*%
%ADD11O,1.700000X1.700000*%
G04 APERTURE END LIST*
D10*
%TO.C,OUT1*%
X50482500Y15430500D03*
D11*
X50482500Y12890500D03*
X50482500Y10350500D03*
X50482500Y7810500D03*
X50482500Y5270500D03*
%TD*%
D10*
%TO.C,J2*%
X42989500Y25717500D03*
D11*
X42989500Y23177500D03*
X40449500Y25717500D03*
X40449500Y23177500D03*
X37909500Y25717500D03*
X37909500Y23177500D03*
X35369500Y25717500D03*
X35369500Y23177500D03*
X32829500Y25717500D03*
X32829500Y23177500D03*
X30289500Y25717500D03*
X30289500Y23177500D03*
X27749500Y25717500D03*
X27749500Y23177500D03*
X25209500Y25717500D03*
X25209500Y23177500D03*
X22669500Y25717500D03*
X22669500Y23177500D03*
X20129500Y25717500D03*
X20129500Y23177500D03*
X17589500Y25717500D03*
X17589500Y23177500D03*
X15049500Y25717500D03*
X15049500Y23177500D03*
X12509500Y25717500D03*
X12509500Y23177500D03*
X9969500Y25717500D03*
X9969500Y23177500D03*
%TD*%
D10*
%TO.C,IN1*%
X2730500Y15303500D03*
D11*
X2730500Y12763500D03*
X2730500Y10223500D03*
X2730500Y7683500D03*
X2730500Y5143500D03*
%TD*%
D10*
%TO.C,J1*%
X48069500Y19240500D03*
D11*
X45529500Y19240500D03*
X42989500Y19240500D03*
X40449500Y19240500D03*
X37909500Y19240500D03*
X35369500Y19240500D03*
X32829500Y19240500D03*
X30289500Y19240500D03*
X27749500Y19240500D03*
X25209500Y19240500D03*
X22669500Y19240500D03*
X20129500Y19240500D03*
X17589500Y19240500D03*
X15049500Y19240500D03*
X12509500Y19240500D03*
X9969500Y19240500D03*
X7429500Y19240500D03*
X4889500Y19240500D03*
%TD*%
M02*
