M48
; DRILL file {KiCad (6.0.10)} date Sun Feb 12 18:14:54 2023
; FORMAT={-:-/ absolute / inch / decimal}
; #@! TF.CreationDate,2023-02-12T18:14:54+09:00
; #@! TF.GenerationSoftware,Kicad,Pcbnew,(6.0.10)
; #@! TF.FileFunction,Plated,1,2,PTH
FMAT,2
INCH
; #@! TA.AperFunction,Plated,PTH,ViaDrill
T1C0.0157
; #@! TA.AperFunction,Plated,PTH,ComponentDrill
T2C0.0394
%
G90
G05
T1
X0.24Y0.19
X0.2575Y0.9875
X0.2875Y0.8975
X0.3485Y0.3885
X0.35Y0.34
X0.35Y0.29
X0.3515Y0.2385
X0.4325Y0.6137
X0.4875Y0.6137
X0.4975Y0.4525
X0.51Y0.25
X0.5425Y0.6137
X0.5975Y0.6137
X0.6875Y0.1825
X0.6875Y0.3175
X0.6875Y0.2725
X0.6882Y0.2275
X0.7175Y0.6225
X0.8032Y0.6193
X0.8375Y0.5075
X0.8441Y0.6187
X0.8675Y0.2775
X0.8675Y0.116
X0.8677Y0.3984
X0.8677Y0.3581
X0.8677Y0.3177
X0.8875Y0.6175
X0.99Y0.62
X1.0375Y0.4525
X1.04Y0.25
X1.2175Y0.3125
X1.2175Y0.2725
X1.2175Y0.2275
X1.2175Y0.1825
X1.2725Y0.6325
X1.3825Y0.5125
X1.4022Y0.3982
X1.4025Y0.2675
X1.4025Y0.3125
X1.4025Y0.3575
X1.4025Y0.1175
X1.4407Y0.6141
X1.4814Y0.6146
X1.5211Y0.6139
X1.5651Y0.6137
X1.57Y0.23
X1.7398Y0.3375
X1.74Y0.2375
X1.74Y0.2875
X1.7411Y0.3789
X1.7775Y0.1675
X1.8375Y0.4225
X1.8525Y0.1575
X1.8975Y0.6175
T2
X0.1075Y0.6025
X0.1075Y0.5025
X0.1075Y0.4025
X0.1075Y0.3025
X0.1075Y0.2025
X0.1925Y0.7575
X0.2925Y0.7575
X0.3925Y1.0125
X0.3925Y0.9125
X0.3925Y0.7575
X0.4925Y1.0125
X0.4925Y0.9125
X0.4925Y0.7575
X0.5925Y1.0125
X0.5925Y0.9125
X0.5925Y0.7575
X0.6925Y1.0125
X0.6925Y0.9125
X0.6925Y0.7575
X0.7925Y1.0125
X0.7925Y0.9125
X0.7925Y0.7575
X0.8925Y1.0125
X0.8925Y0.9125
X0.8925Y0.7575
X0.9925Y1.0125
X0.9925Y0.9125
X0.9925Y0.7575
X1.0925Y1.0125
X1.0925Y0.9125
X1.0925Y0.7575
X1.1925Y1.0125
X1.1925Y0.9125
X1.1925Y0.7575
X1.2925Y1.0125
X1.2925Y0.9125
X1.2925Y0.7575
X1.3925Y1.0125
X1.3925Y0.9125
X1.3925Y0.7575
X1.4925Y1.0125
X1.4925Y0.9125
X1.4925Y0.7575
X1.5925Y1.0125
X1.5925Y0.9125
X1.5925Y0.7575
X1.6925Y1.0125
X1.6925Y0.9125
X1.6925Y0.7575
X1.7925Y0.7575
X1.8925Y0.7575
X1.9875Y0.6075
X1.9875Y0.5075
X1.9875Y0.4075
X1.9875Y0.3075
X1.9875Y0.2075
T0
M30
