%TF.GenerationSoftware,KiCad,Pcbnew,(6.0.10)*%
%TF.CreationDate,2023-02-12T20:01:58+09:00*%
%TF.ProjectId,joystick_74hc165_input_smd,6a6f7973-7469-4636-9b5f-373468633136,2*%
%TF.SameCoordinates,PX7e249a4PY6c1eee4*%
%TF.FileFunction,Copper,L2,Bot*%
%TF.FilePolarity,Positive*%
%FSLAX46Y46*%
G04 Gerber Fmt 4.6, Leading zero omitted, Abs format (unit mm)*
G04 Created by KiCad (PCBNEW (6.0.10)) date 2023-02-12 20:01:58*
%MOMM*%
%LPD*%
G01*
G04 APERTURE LIST*
%TA.AperFunction,ComponentPad*%
%ADD10R,1.700000X1.700000*%
%TD*%
%TA.AperFunction,ComponentPad*%
%ADD11O,1.700000X1.700000*%
%TD*%
%TA.AperFunction,ViaPad*%
%ADD12C,0.800000*%
%TD*%
%TA.AperFunction,Conductor*%
%ADD13C,0.250000*%
%TD*%
G04 APERTURE END LIST*
D10*
%TO.P,OUT1,1,Pin_1*%
%TO.N,VCC*%
X50482500Y15430500D03*
D11*
%TO.P,OUT1,2,Pin_2*%
%TO.N,GND*%
X50482500Y12890500D03*
%TO.P,OUT1,3,Pin_3*%
%TO.N,/LOAD*%
X50482500Y10350500D03*
%TO.P,OUT1,4,Pin_4*%
%TO.N,/CLK*%
X50482500Y7810500D03*
%TO.P,OUT1,5,Pin_5*%
%TO.N,/D_OUT*%
X50482500Y5270500D03*
%TD*%
D10*
%TO.P,J2,1,Pin_1*%
%TO.N,/C_SHORT*%
X42989500Y25717500D03*
D11*
%TO.P,J2,2,Pin_2*%
X42989500Y23177500D03*
%TO.P,J2,3,Pin_3*%
%TO.N,/C_P1_UP*%
X40449500Y25717500D03*
%TO.P,J2,4,Pin_4*%
%TO.N,/C_P2_UP*%
X40449500Y23177500D03*
%TO.P,J2,5,Pin_5*%
%TO.N,/C_P1_DOWN*%
X37909500Y25717500D03*
%TO.P,J2,6,Pin_6*%
%TO.N,/C_P2_DOWN*%
X37909500Y23177500D03*
%TO.P,J2,7,Pin_7*%
%TO.N,/C_P1_LEFT*%
X35369500Y25717500D03*
%TO.P,J2,8,Pin_8*%
%TO.N,/C_P2_LEFT*%
X35369500Y23177500D03*
%TO.P,J2,9,Pin_9*%
%TO.N,/C_P1_RIGHT*%
X32829500Y25717500D03*
%TO.P,J2,10,Pin_10*%
%TO.N,/C_P2_RIGHT*%
X32829500Y23177500D03*
%TO.P,J2,11,Pin_11*%
%TO.N,/C_P1_START*%
X30289500Y25717500D03*
%TO.P,J2,12,Pin_12*%
%TO.N,/C_P2_START*%
X30289500Y23177500D03*
%TO.P,J2,13,Pin_13*%
%TO.N,/C_P1_SELECT*%
X27749500Y25717500D03*
%TO.P,J2,14,Pin_14*%
%TO.N,/C_P2_SELECT*%
X27749500Y23177500D03*
%TO.P,J2,15,Pin_15*%
%TO.N,/C_P1_A*%
X25209500Y25717500D03*
%TO.P,J2,16,Pin_16*%
%TO.N,/C_P2_A*%
X25209500Y23177500D03*
%TO.P,J2,17,Pin_17*%
%TO.N,/C_P1_B*%
X22669500Y25717500D03*
%TO.P,J2,18,Pin_18*%
%TO.N,/C_P2_B*%
X22669500Y23177500D03*
%TO.P,J2,19,Pin_19*%
%TO.N,/C_P1_X*%
X20129500Y25717500D03*
%TO.P,J2,20,Pin_20*%
%TO.N,/C_P2_X*%
X20129500Y23177500D03*
%TO.P,J2,21,Pin_21*%
%TO.N,/C_P1_Y*%
X17589500Y25717500D03*
%TO.P,J2,22,Pin_22*%
%TO.N,/C_P2_Y*%
X17589500Y23177500D03*
%TO.P,J2,23,Pin_23*%
%TO.N,/C_P1_L*%
X15049500Y25717500D03*
%TO.P,J2,24,Pin_24*%
%TO.N,/C_P2_L*%
X15049500Y23177500D03*
%TO.P,J2,25,Pin_25*%
%TO.N,/C_P1_R*%
X12509500Y25717500D03*
%TO.P,J2,26,Pin_26*%
%TO.N,/C_P2_R*%
X12509500Y23177500D03*
%TO.P,J2,27,Pin_27*%
%TO.N,/C_SHORT*%
X9969500Y25717500D03*
%TO.P,J2,28,Pin_28*%
X9969500Y23177500D03*
%TD*%
D10*
%TO.P,IN1,1,Pin_1*%
%TO.N,VCC*%
X2730500Y15303500D03*
D11*
%TO.P,IN1,2,Pin_2*%
%TO.N,GND*%
X2730500Y12763500D03*
%TO.P,IN1,3,Pin_3*%
%TO.N,/LOAD*%
X2730500Y10223500D03*
%TO.P,IN1,4,Pin_4*%
%TO.N,/CLK*%
X2730500Y7683500D03*
%TO.P,IN1,5,Pin_5*%
%TO.N,/D_IN*%
X2730500Y5143500D03*
%TD*%
D10*
%TO.P,J1,1,Pin_1*%
%TO.N,/C_SHORT*%
X48069500Y19240500D03*
D11*
%TO.P,J1,2,Pin_2*%
%TO.N,/C_P1_UP*%
X45529500Y19240500D03*
%TO.P,J1,3,Pin_3*%
%TO.N,/C_P1_DOWN*%
X42989500Y19240500D03*
%TO.P,J1,4,Pin_4*%
%TO.N,/C_P1_LEFT*%
X40449500Y19240500D03*
%TO.P,J1,5,Pin_5*%
%TO.N,/C_P1_RIGHT*%
X37909500Y19240500D03*
%TO.P,J1,6,Pin_6*%
%TO.N,/C_P1_START*%
X35369500Y19240500D03*
%TO.P,J1,7,Pin_7*%
%TO.N,/C_P1_SELECT*%
X32829500Y19240500D03*
%TO.P,J1,8,Pin_8*%
%TO.N,/C_P1_A*%
X30289500Y19240500D03*
%TO.P,J1,9,Pin_9*%
%TO.N,/C_P1_B*%
X27749500Y19240500D03*
%TO.P,J1,10,Pin_10*%
%TO.N,/C_P1_X*%
X25209500Y19240500D03*
%TO.P,J1,11,Pin_11*%
%TO.N,/C_P1_Y*%
X22669500Y19240500D03*
%TO.P,J1,12,Pin_12*%
%TO.N,/C_P1_L*%
X20129500Y19240500D03*
%TO.P,J1,13,Pin_13*%
%TO.N,/C_P1_R*%
X17589500Y19240500D03*
%TO.P,J1,14,Pin_14*%
%TO.N,/C_P2_UP*%
X15049500Y19240500D03*
%TO.P,J1,15,Pin_15*%
%TO.N,/C_P2_DOWN*%
X12509500Y19240500D03*
%TO.P,J1,16,Pin_16*%
%TO.N,/C_P2_LEFT*%
X9969500Y19240500D03*
%TO.P,J1,17,Pin_17*%
%TO.N,/C_P2_RIGHT*%
X7429500Y19240500D03*
%TO.P,J1,18,Pin_18*%
%TO.N,/C_SHORT*%
X4889500Y19240500D03*
%TD*%
D12*
%TO.N,/PULL*%
X47053503Y4000497D03*
X22034500Y2947510D03*
X48196500Y15684500D03*
X6096012Y4826000D03*
X35623500Y2984500D03*
%TO.N,GND*%
X46672500Y10731500D03*
X26352500Y11493500D03*
X26416000Y6350000D03*
X32321500Y16065500D03*
X12954000Y6350000D03*
X39878000Y5842000D03*
X45148500Y4254500D03*
X21272500Y12890500D03*
X35115500Y13017500D03*
X18224500Y15811500D03*
X12636500Y11493500D03*
X6540500Y25082500D03*
%TO.N,/C_P1_START*%
X44223294Y9623315D03*
%TO.N,/C_P1_SELECT*%
X44189980Y8572520D03*
%TO.N,/C_P1_A*%
X44196004Y7302504D03*
%TO.N,/C_P1_B*%
X44196000Y6032500D03*
%TO.N,/C_P1_UP*%
X35623496Y6794500D03*
X39753211Y15587521D03*
%TO.N,/C_P1_DOWN*%
X35623498Y7937500D03*
X38636196Y15592804D03*
%TO.N,/C_P1_LEFT*%
X35623500Y9080500D03*
X37627986Y15609914D03*
%TO.N,/C_P1_RIGHT*%
X36593892Y15599281D03*
X35615350Y10113970D03*
%TO.N,/C_P1_X*%
X22034500Y7048500D03*
X25146000Y15748000D03*
%TO.N,/C_P1_Y*%
X22039160Y8069160D03*
X22542500Y15684520D03*
%TO.N,/C_P1_L*%
X21441069Y15715733D03*
X22039160Y9094480D03*
%TO.N,/C_P1_R*%
X22039160Y10119799D03*
X20400566Y15730917D03*
%TO.N,/C_P2_START*%
X8928100Y6057900D03*
%TO.N,/C_P2_SELECT*%
X8890000Y7366000D03*
%TO.N,/C_P2_A*%
X8890000Y8636000D03*
%TO.N,/C_P2_B*%
X8851900Y9867900D03*
%TO.N,/C_P2_UP*%
X30924500Y7937488D03*
%TO.N,/C_P2_DOWN*%
X30924500Y6921490D03*
%TO.N,/C_P2_LEFT*%
X30924500Y5778500D03*
%TO.N,/C_P2_RIGHT*%
X30924504Y4635500D03*
%TO.N,/C_P2_X*%
X17462500Y8064512D03*
X10985501Y15587521D03*
%TO.N,/C_P2_Y*%
X12382500Y15587521D03*
X17462500Y6921510D03*
%TO.N,/C_P2_L*%
X17480320Y5778510D03*
X13779500Y15587521D03*
%TO.N,/C_P2_R*%
X15176500Y15587521D03*
X17462494Y4635500D03*
%TO.N,/C_SHORT*%
X7302500Y22796500D03*
%TD*%
D13*
%TO.N,/PULL*%
X37528500Y1968500D02*
X45021506Y1968500D01*
X46291506Y3238500D02*
X47053503Y4000497D01*
X48196500Y5143494D02*
X47053503Y4000497D01*
X48196500Y15684500D02*
X48196500Y5143494D01*
X35623500Y1968500D02*
X35623500Y2984500D01*
X37528500Y1968500D02*
X35623500Y1968500D01*
X29400500Y1968500D02*
X37528500Y1968500D01*
X22034500Y1968500D02*
X22034500Y2947510D01*
X8953512Y1968500D02*
X29400500Y1968500D01*
X6096012Y4826000D02*
X8953512Y1968500D01*
X45021506Y1968500D02*
X46291506Y3238500D01*
%TO.N,/C_P1_START*%
X36940467Y17796533D02*
X40750467Y17796533D01*
X35496500Y19240500D02*
X36940467Y17796533D01*
X43823295Y10023314D02*
X44223294Y9623315D01*
X43823295Y14723705D02*
X43823295Y10023314D01*
X40750467Y17796533D02*
X43823295Y14723705D01*
%TO.N,/C_P1_SELECT*%
X32956500Y19240500D02*
X34850478Y17346522D01*
X42920489Y14863048D02*
X42920489Y9842011D01*
X34850478Y17346522D02*
X40437015Y17346522D01*
X40437015Y17346522D02*
X42920489Y14863048D01*
X42920489Y9842011D02*
X44189980Y8572520D01*
%TO.N,/C_P1_A*%
X30416500Y19240500D02*
X32188989Y17468011D01*
X40250615Y16896511D02*
X42470478Y14676648D01*
X42470478Y14676648D02*
X42470478Y9028030D01*
X34664078Y16896511D02*
X40250615Y16896511D01*
X34092578Y17468011D02*
X34664078Y16896511D01*
X42470478Y9028030D02*
X44196004Y7302504D01*
X32188989Y17468011D02*
X34092578Y17468011D01*
%TO.N,/C_P1_B*%
X30099000Y17018000D02*
X33906178Y17018000D01*
X42020467Y14490248D02*
X42020467Y8208033D01*
X33906178Y17018000D02*
X34514676Y16409502D01*
X42020467Y8208033D02*
X44196000Y6032500D01*
X34514676Y16409502D02*
X40101213Y16409502D01*
X27876500Y19240500D02*
X30099000Y17018000D01*
X40101213Y16409502D02*
X42020467Y14490248D01*
%TO.N,/C_P1_UP*%
X39753211Y10924215D02*
X39753211Y15587521D01*
X35623496Y6794500D02*
X39753211Y10924215D01*
%TO.N,/C_P1_DOWN*%
X37586489Y14543097D02*
X37586489Y9900491D01*
X38636196Y15592804D02*
X37586489Y14543097D01*
X37586489Y9900491D02*
X35623498Y7937500D01*
%TO.N,/C_P1_LEFT*%
X37136478Y10593478D02*
X35623500Y9080500D01*
X37136478Y15118406D02*
X37136478Y10593478D01*
X37627986Y15609914D02*
X37136478Y15118406D01*
%TO.N,/C_P1_RIGHT*%
X36593892Y15599281D02*
X36593892Y11092512D01*
X36593892Y11092512D02*
X35615350Y10113970D01*
%TO.N,/C_P1_X*%
X25146000Y9594315D02*
X22600185Y7048500D01*
X22600185Y7048500D02*
X22034500Y7048500D01*
X25146000Y15748000D02*
X25146000Y9594315D01*
%TO.N,/C_P1_Y*%
X22039160Y8069160D02*
X23431500Y9461500D01*
X23431500Y9461500D02*
X23431500Y14795520D01*
X23431500Y14795520D02*
X22542500Y15684520D01*
%TO.N,/C_P1_L*%
X22039160Y9094480D02*
X22796500Y9851820D01*
X22796500Y9851820D02*
X22796500Y14360302D01*
X22796500Y14360302D02*
X21441069Y15715733D01*
%TO.N,/C_P1_R*%
X22039160Y10119799D02*
X22161500Y10242139D01*
X22161500Y10242139D02*
X22161500Y13969983D01*
X22161500Y13969983D02*
X20400566Y15730917D01*
%TO.N,/C_P2_START*%
X2730500Y24320500D02*
X2730500Y18097500D01*
X29019500Y26376500D02*
X27456000Y27940000D01*
X27456000Y27940000D02*
X6350000Y27940000D01*
X6858000Y8128000D02*
X8928100Y6057900D01*
X2730500Y18097500D02*
X6858000Y13970000D01*
X30289500Y23177500D02*
X29019500Y24447500D01*
X6858000Y13970000D02*
X6858000Y8128000D01*
X29019500Y24447500D02*
X29019500Y26376500D01*
X6350000Y27940000D02*
X2730500Y24320500D01*
%TO.N,/C_P2_SELECT*%
X26479500Y24447500D02*
X26479500Y26396501D01*
X7308011Y14156400D02*
X7308011Y8947989D01*
X7308011Y8947989D02*
X8890000Y7366000D01*
X26479500Y26396501D02*
X25386012Y27489989D01*
X3180511Y24134101D02*
X3180511Y18283900D01*
X27749500Y23177500D02*
X26479500Y24447500D01*
X6536399Y27489989D02*
X3180511Y24134101D01*
X25386012Y27489989D02*
X6536399Y27489989D01*
X3180511Y18283900D02*
X7308011Y14156400D01*
%TO.N,/C_P2_A*%
X23939500Y26269501D02*
X23169023Y27039978D01*
X6722798Y27039978D02*
X3630522Y23947702D01*
X23169023Y27039978D02*
X6722798Y27039978D01*
X3630522Y23947702D02*
X3630522Y18470300D01*
X7868489Y14232333D02*
X7868489Y9657511D01*
X25209500Y23177500D02*
X23939500Y24447500D01*
X3630522Y18470300D02*
X7868489Y14232333D01*
X23939500Y24447500D02*
X23939500Y26269501D01*
X7868489Y9657511D02*
X8890000Y8636000D01*
%TO.N,/C_P2_B*%
X6176033Y16576826D02*
X8318500Y14434359D01*
X8318500Y10401300D02*
X8851900Y9867900D01*
X21463000Y24384000D02*
X7620000Y24384000D01*
X7620000Y24384000D02*
X6176033Y22940033D01*
X6176033Y22940033D02*
X6176033Y16576826D01*
X8318500Y14434359D02*
X8318500Y10401300D01*
X22669500Y23177500D02*
X21463000Y24384000D01*
%TO.N,/C_P2_UP*%
X27654501Y18065499D02*
X29019500Y16700500D01*
X40449500Y22923500D02*
X38019967Y20493967D01*
X16929210Y20493967D02*
X15675743Y19240500D01*
X16850744Y18065499D02*
X27654501Y18065499D01*
X29781500Y13334458D02*
X29781500Y9080488D01*
X29781500Y9080488D02*
X30924500Y7937488D01*
X29019500Y16700500D02*
X29019500Y14096458D01*
X38019967Y20493967D02*
X16929210Y20493967D01*
X15675743Y19240500D02*
X16850744Y18065499D01*
X29019500Y14096458D02*
X29781500Y13334458D01*
%TO.N,/C_P2_DOWN*%
X27491818Y17526000D02*
X28458099Y16559717D01*
X30867506Y6921490D02*
X30924500Y6921490D01*
X28458099Y16559717D02*
X28458099Y12801627D01*
X14351000Y17526000D02*
X27491818Y17526000D01*
X37909500Y23177500D02*
X35675978Y20943978D01*
X35675978Y20943978D02*
X14339978Y20943978D01*
X29331489Y8457507D02*
X30867506Y6921490D01*
X14339978Y20943978D02*
X12636500Y19240500D01*
X28458099Y12801627D02*
X29331489Y11928237D01*
X12636500Y19240500D02*
X14351000Y17526000D01*
X29331489Y11928237D02*
X29331489Y8457507D01*
%TO.N,/C_P2_LEFT*%
X28770478Y7875518D02*
X30867496Y5778500D01*
X28770478Y11583396D02*
X28770478Y7875518D01*
X27305417Y17075989D02*
X28008088Y16373317D01*
X35369500Y22923500D02*
X33839989Y21393989D01*
X28008088Y16373317D02*
X28008088Y12345786D01*
X12261011Y17075989D02*
X27305417Y17075989D01*
X28008088Y12345786D02*
X28770478Y11583396D01*
X12249989Y21393989D02*
X10096500Y19240500D01*
X10096500Y19240500D02*
X12261011Y17075989D01*
X33839989Y21393989D02*
X12249989Y21393989D01*
X30867496Y5778500D02*
X30924500Y5778500D01*
%TO.N,/C_P2_RIGHT*%
X28284001Y7276003D02*
X30924504Y4635500D01*
X32829500Y22923500D02*
X31750000Y21844000D01*
X10160000Y21844000D02*
X7556500Y19240500D01*
X10223500Y16573500D02*
X27171494Y16573500D01*
X28284001Y11397001D02*
X28284001Y7276003D01*
X27171494Y16573500D02*
X27558077Y16186917D01*
X31750000Y21844000D02*
X10160000Y21844000D01*
X7556500Y19240500D02*
X10223500Y16573500D01*
X27558077Y12122925D02*
X28284001Y11397001D01*
X27558077Y16186917D02*
X27558077Y12122925D01*
%TO.N,/C_P2_X*%
X10985501Y14541511D02*
X10985501Y15587521D01*
X17462500Y8064512D02*
X10985501Y14541511D01*
%TO.N,/C_P2_Y*%
X18261887Y9708134D02*
X12782499Y15187522D01*
X12782499Y15187522D02*
X12382500Y15587521D01*
X18261887Y7720897D02*
X18261887Y9708134D01*
X17462500Y6921510D02*
X18261887Y7720897D01*
%TO.N,/C_P2_L*%
X18844262Y10522759D02*
X14179499Y15187522D01*
X18844262Y7142452D02*
X18844262Y10522759D01*
X17480320Y5778510D02*
X18844262Y7142452D01*
X14179499Y15187522D02*
X13779500Y15587521D01*
%TO.N,/C_P2_R*%
X19294273Y6467279D02*
X19294273Y11469748D01*
X19294273Y11469748D02*
X15176500Y15587521D01*
X17462494Y4635500D02*
X19294273Y6467279D01*
%TO.N,/C_SHORT*%
X7302500Y22796500D02*
X9588500Y22796500D01*
X9588500Y22796500D02*
X9969500Y23177500D01*
%TD*%
%TA.AperFunction,Conductor*%
%TO.N,GND*%
G36*
X50398384Y28935498D02*
G01*
X50444877Y28881842D01*
X50454981Y28811568D01*
X50426074Y28747670D01*
X50362940Y28673749D01*
X50237560Y28469149D01*
X50235667Y28464579D01*
X50235666Y28464577D01*
X50152116Y28262869D01*
X50145731Y28247453D01*
X50144576Y28242641D01*
X50090868Y28018935D01*
X50090867Y28018929D01*
X50089713Y28014122D01*
X50071374Y27781100D01*
X50070886Y27774900D01*
X50089713Y27535678D01*
X50090867Y27530871D01*
X50090868Y27530865D01*
X50101902Y27484906D01*
X50145731Y27302347D01*
X50147624Y27297776D01*
X50147625Y27297774D01*
X50233106Y27091405D01*
X50237560Y27080651D01*
X50362940Y26876051D01*
X50366157Y26872284D01*
X50366158Y26872283D01*
X50478609Y26740619D01*
X50518782Y26693582D01*
X50522544Y26690369D01*
X50692888Y26544883D01*
X50701251Y26537740D01*
X50905851Y26412360D01*
X50910421Y26410467D01*
X50910423Y26410466D01*
X51100539Y26331718D01*
X51127547Y26320531D01*
X51209137Y26300943D01*
X51356065Y26265668D01*
X51356071Y26265667D01*
X51360878Y26264513D01*
X51600100Y26245686D01*
X51839322Y26264513D01*
X51844129Y26265667D01*
X51844135Y26265668D01*
X51991063Y26300943D01*
X52072653Y26320531D01*
X52099661Y26331718D01*
X52289777Y26410466D01*
X52289779Y26410467D01*
X52294349Y26412360D01*
X52498949Y26537740D01*
X52507313Y26544883D01*
X52623670Y26644261D01*
X52688460Y26673292D01*
X52758660Y26662687D01*
X52811982Y26615812D01*
X52831500Y26548450D01*
X52831500Y2982072D01*
X52811498Y2913951D01*
X52757842Y2867458D01*
X52687568Y2857354D01*
X52623670Y2886261D01*
X52521151Y2973821D01*
X52521146Y2973824D01*
X52517386Y2977036D01*
X52308588Y3104987D01*
X52304018Y3106880D01*
X52304014Y3106882D01*
X52086919Y3196806D01*
X52086917Y3196807D01*
X52082346Y3198700D01*
X51978080Y3223732D01*
X51849041Y3254712D01*
X51849035Y3254713D01*
X51844228Y3255867D01*
X51600100Y3275080D01*
X51355972Y3255867D01*
X51351165Y3254713D01*
X51351159Y3254712D01*
X51222120Y3223732D01*
X51117854Y3198700D01*
X51113283Y3196807D01*
X51113281Y3196806D01*
X50896186Y3106882D01*
X50896182Y3106880D01*
X50891612Y3104987D01*
X50682814Y2977036D01*
X50679054Y2973824D01*
X50679049Y2973821D01*
X50542684Y2857354D01*
X50496603Y2817997D01*
X50493390Y2814235D01*
X50340779Y2635551D01*
X50340776Y2635546D01*
X50337564Y2631786D01*
X50209613Y2422988D01*
X50207720Y2418418D01*
X50207718Y2418414D01*
X50124416Y2217305D01*
X50115900Y2196746D01*
X50114745Y2191934D01*
X50065767Y1987926D01*
X50058733Y1958628D01*
X50039520Y1714500D01*
X50058733Y1470372D01*
X50059887Y1465565D01*
X50059888Y1465559D01*
X50091769Y1332768D01*
X50115900Y1232254D01*
X50117793Y1227683D01*
X50117794Y1227681D01*
X50139313Y1175731D01*
X50209613Y1006012D01*
X50337564Y797214D01*
X50340780Y793449D01*
X50406645Y716330D01*
X50435676Y651540D01*
X50425071Y581340D01*
X50378196Y528018D01*
X50310834Y508500D01*
X2962644Y508500D01*
X2894523Y528502D01*
X2848030Y582158D01*
X2837926Y652432D01*
X2866831Y716329D01*
X2951660Y815651D01*
X3077040Y1020251D01*
X3168869Y1241947D01*
X3191490Y1336171D01*
X3223732Y1470465D01*
X3223733Y1470471D01*
X3224887Y1475278D01*
X3243714Y1714500D01*
X3224887Y1953722D01*
X3223733Y1958529D01*
X3223732Y1958535D01*
X3170024Y2182241D01*
X3168869Y2187053D01*
X3162960Y2201319D01*
X3078934Y2404177D01*
X3078933Y2404179D01*
X3077040Y2408749D01*
X2951660Y2613349D01*
X2935914Y2631786D01*
X2799031Y2792056D01*
X2795818Y2795818D01*
X2613349Y2951660D01*
X2408749Y3077040D01*
X2404179Y3078933D01*
X2404177Y3078934D01*
X2191626Y3166975D01*
X2191624Y3166976D01*
X2187053Y3168869D01*
X2105463Y3188457D01*
X1958535Y3223732D01*
X1958529Y3223733D01*
X1953722Y3224887D01*
X1714500Y3243714D01*
X1475278Y3224887D01*
X1470471Y3223733D01*
X1470465Y3223732D01*
X1323537Y3188457D01*
X1241947Y3168869D01*
X1237376Y3166976D01*
X1237374Y3166975D01*
X1024823Y3078934D01*
X1024821Y3078933D01*
X1020251Y3077040D01*
X815651Y2951660D01*
X716329Y2866831D01*
X651540Y2837802D01*
X581340Y2848407D01*
X528018Y2895283D01*
X508500Y2962644D01*
X508500Y5176805D01*
X1367751Y5176805D01*
X1368048Y5171652D01*
X1368048Y5171649D01*
X1378958Y4982431D01*
X1380610Y4953785D01*
X1381747Y4948739D01*
X1381748Y4948733D01*
X1399561Y4869692D01*
X1429722Y4735861D01*
X1513766Y4528884D01*
X1516465Y4524480D01*
X1600706Y4387011D01*
X1630487Y4338412D01*
X1776750Y4169562D01*
X1948626Y4026868D01*
X2141500Y3914162D01*
X2146325Y3912320D01*
X2146326Y3912319D01*
X2219112Y3884525D01*
X2350192Y3834470D01*
X2355260Y3833439D01*
X2355263Y3833438D01*
X2435410Y3817132D01*
X2569097Y3789933D01*
X2574272Y3789743D01*
X2574274Y3789743D01*
X2787173Y3781936D01*
X2787177Y3781936D01*
X2792337Y3781747D01*
X2797457Y3782403D01*
X2797459Y3782403D01*
X3008788Y3809475D01*
X3008789Y3809475D01*
X3013916Y3810132D01*
X3025539Y3813619D01*
X3222929Y3872839D01*
X3222934Y3872841D01*
X3227884Y3874326D01*
X3428494Y3972604D01*
X3610360Y4102327D01*
X3662082Y4153868D01*
X3734796Y4226329D01*
X3768596Y4260011D01*
X3794861Y4296562D01*
X3895935Y4437223D01*
X3898953Y4441423D01*
X3905389Y4454444D01*
X3995636Y4637047D01*
X3995637Y4637049D01*
X3997930Y4641689D01*
X4053928Y4826000D01*
X5182508Y4826000D01*
X5183198Y4819435D01*
X5201234Y4647835D01*
X5202470Y4636072D01*
X5261485Y4454444D01*
X5264788Y4448722D01*
X5264789Y4448721D01*
X5297994Y4391208D01*
X5356972Y4289056D01*
X5361390Y4284149D01*
X5361391Y4284148D01*
X5440127Y4196703D01*
X5484759Y4147134D01*
X5639260Y4034882D01*
X5645288Y4032198D01*
X5645290Y4032197D01*
X5807693Y3959891D01*
X5813724Y3957206D01*
X5901178Y3938617D01*
X5994068Y3918872D01*
X5994073Y3918872D01*
X6000525Y3917500D01*
X6056418Y3917500D01*
X6124539Y3897498D01*
X6145513Y3880595D01*
X8449855Y1576253D01*
X8457399Y1567963D01*
X8461512Y1561482D01*
X8467289Y1556057D01*
X8511179Y1514842D01*
X8514021Y1512087D01*
X8533742Y1492366D01*
X8536937Y1489888D01*
X8545959Y1482182D01*
X8578191Y1451914D01*
X8585140Y1448094D01*
X8595944Y1442154D01*
X8612468Y1431301D01*
X8628471Y1418887D01*
X8669055Y1401324D01*
X8679685Y1396117D01*
X8718452Y1374805D01*
X8726129Y1372834D01*
X8726134Y1372832D01*
X8738070Y1369768D01*
X8756778Y1363363D01*
X8775367Y1355319D01*
X8783195Y1354079D01*
X8783202Y1354077D01*
X8819036Y1348401D01*
X8830656Y1345995D01*
X8862471Y1337827D01*
X8873482Y1335000D01*
X8893736Y1335000D01*
X8913446Y1333449D01*
X8933455Y1330280D01*
X8941347Y1331026D01*
X8952775Y1332106D01*
X8977474Y1334441D01*
X8989331Y1335000D01*
X21962707Y1335000D01*
X21986316Y1332768D01*
X21986619Y1332710D01*
X21986623Y1332710D01*
X21994406Y1331225D01*
X22050451Y1334751D01*
X22058362Y1335000D01*
X35551707Y1335000D01*
X35575316Y1332768D01*
X35575619Y1332710D01*
X35575623Y1332710D01*
X35583406Y1331225D01*
X35639451Y1334751D01*
X35647362Y1335000D01*
X44942739Y1335000D01*
X44953922Y1334473D01*
X44961415Y1332798D01*
X44969341Y1333047D01*
X44969342Y1333047D01*
X45029492Y1334938D01*
X45033451Y1335000D01*
X45061362Y1335000D01*
X45065297Y1335497D01*
X45065362Y1335505D01*
X45077199Y1336438D01*
X45109457Y1337452D01*
X45113476Y1337578D01*
X45121395Y1337827D01*
X45140849Y1343479D01*
X45160206Y1347487D01*
X45172436Y1349032D01*
X45172437Y1349032D01*
X45180303Y1350026D01*
X45187674Y1352945D01*
X45187676Y1352945D01*
X45221418Y1366304D01*
X45232648Y1370149D01*
X45267489Y1380271D01*
X45267490Y1380271D01*
X45275099Y1382482D01*
X45281918Y1386515D01*
X45281923Y1386517D01*
X45292534Y1392793D01*
X45310282Y1401488D01*
X45329123Y1408948D01*
X45349493Y1423747D01*
X45364893Y1434936D01*
X45374813Y1441452D01*
X45406041Y1459920D01*
X45406044Y1459922D01*
X45412868Y1463958D01*
X45427189Y1478279D01*
X45442223Y1491120D01*
X45443938Y1492366D01*
X45458613Y1503028D01*
X45486804Y1537105D01*
X45494794Y1545884D01*
X47004002Y3055092D01*
X47066314Y3089118D01*
X47093097Y3091997D01*
X47148990Y3091997D01*
X47155442Y3093369D01*
X47155447Y3093369D01*
X47242391Y3111850D01*
X47335791Y3131703D01*
X47421862Y3170024D01*
X47504225Y3206694D01*
X47504227Y3206695D01*
X47510255Y3209379D01*
X47664756Y3321631D01*
X47690093Y3349771D01*
X47788124Y3458645D01*
X47788125Y3458646D01*
X47792543Y3463553D01*
X47888030Y3628941D01*
X47947045Y3810569D01*
X47956182Y3897498D01*
X47964410Y3975789D01*
X47991423Y4041446D01*
X48000625Y4051715D01*
X48283421Y4334510D01*
X48588758Y4639847D01*
X48597037Y4647381D01*
X48603518Y4651494D01*
X48650144Y4701146D01*
X48652898Y4703987D01*
X48672635Y4723724D01*
X48675115Y4726921D01*
X48682820Y4735943D01*
X48707659Y4762394D01*
X48713086Y4768173D01*
X48716905Y4775119D01*
X48716907Y4775122D01*
X48722848Y4785928D01*
X48733699Y4802447D01*
X48734059Y4802911D01*
X48746114Y4818453D01*
X48749259Y4825722D01*
X48749262Y4825726D01*
X48763674Y4859031D01*
X48768891Y4869681D01*
X48790195Y4908434D01*
X48795233Y4928057D01*
X48801637Y4946760D01*
X48806533Y4958074D01*
X48806533Y4958075D01*
X48809681Y4965349D01*
X48810920Y4973172D01*
X48810923Y4973182D01*
X48816599Y5009018D01*
X48819005Y5020638D01*
X48828028Y5055783D01*
X48828028Y5055784D01*
X48830000Y5063464D01*
X48830000Y5083718D01*
X48831551Y5103429D01*
X48833480Y5115608D01*
X48834720Y5123437D01*
X48830559Y5167456D01*
X48830000Y5179313D01*
X48830000Y5303805D01*
X49119751Y5303805D01*
X49120048Y5298652D01*
X49120048Y5298649D01*
X49128965Y5144003D01*
X49132610Y5080785D01*
X49133747Y5075739D01*
X49133748Y5075733D01*
X49149226Y5007056D01*
X49181722Y4862861D01*
X49235234Y4731075D01*
X49254656Y4683246D01*
X49265766Y4655884D01*
X49382487Y4465412D01*
X49528750Y4296562D01*
X49700626Y4153868D01*
X49893500Y4041162D01*
X49898325Y4039320D01*
X49898326Y4039319D01*
X49916977Y4032197D01*
X50102192Y3961470D01*
X50107260Y3960439D01*
X50107263Y3960438D01*
X50162107Y3949280D01*
X50321097Y3916933D01*
X50326272Y3916743D01*
X50326274Y3916743D01*
X50539173Y3908936D01*
X50539177Y3908936D01*
X50544337Y3908747D01*
X50549457Y3909403D01*
X50549459Y3909403D01*
X50760788Y3936475D01*
X50760789Y3936475D01*
X50765916Y3937132D01*
X50770866Y3938617D01*
X50974929Y3999839D01*
X50974934Y3999841D01*
X50979884Y4001326D01*
X51180494Y4099604D01*
X51362360Y4229327D01*
X51393152Y4260011D01*
X51476241Y4342811D01*
X51520596Y4387011D01*
X51573568Y4460729D01*
X51647935Y4564223D01*
X51650953Y4568423D01*
X51671894Y4610793D01*
X51747636Y4764047D01*
X51747637Y4764049D01*
X51749930Y4768689D01*
X51798350Y4928056D01*
X51813365Y4977477D01*
X51813365Y4977479D01*
X51814870Y4982431D01*
X51844029Y5203910D01*
X51844251Y5212998D01*
X51845574Y5267135D01*
X51845574Y5267139D01*
X51845656Y5270500D01*
X51827352Y5493139D01*
X51772931Y5709798D01*
X51683854Y5914660D01*
X51598365Y6046806D01*
X51565322Y6097883D01*
X51565320Y6097886D01*
X51562514Y6102223D01*
X51412170Y6267449D01*
X51408119Y6270648D01*
X51408115Y6270652D01*
X51240914Y6402700D01*
X51240910Y6402702D01*
X51236859Y6405902D01*
X51195553Y6428704D01*
X51145584Y6479136D01*
X51130812Y6548579D01*
X51155928Y6614984D01*
X51183280Y6641591D01*
X51241654Y6683229D01*
X51362360Y6769327D01*
X51393152Y6800011D01*
X51458503Y6865135D01*
X51520596Y6927011D01*
X51563858Y6987216D01*
X51647935Y7104223D01*
X51650953Y7108423D01*
X51665227Y7137303D01*
X51747636Y7304047D01*
X51747637Y7304049D01*
X51749930Y7308689D01*
X51805773Y7492490D01*
X51813365Y7517477D01*
X51813365Y7517479D01*
X51814870Y7522431D01*
X51844029Y7743910D01*
X51844118Y7747560D01*
X51845574Y7807135D01*
X51845574Y7807139D01*
X51845656Y7810500D01*
X51827352Y8033139D01*
X51772931Y8249798D01*
X51683854Y8454660D01*
X51603360Y8579085D01*
X51565322Y8637883D01*
X51565320Y8637886D01*
X51562514Y8642223D01*
X51412170Y8807449D01*
X51408119Y8810648D01*
X51408115Y8810652D01*
X51240914Y8942700D01*
X51240910Y8942702D01*
X51236859Y8945902D01*
X51195553Y8968704D01*
X51145584Y9019136D01*
X51130812Y9088579D01*
X51155928Y9154984D01*
X51183280Y9181591D01*
X51245459Y9225943D01*
X51362360Y9309327D01*
X51379987Y9326892D01*
X51450923Y9397581D01*
X51520596Y9467011D01*
X51537562Y9490621D01*
X51640170Y9633417D01*
X51650953Y9648423D01*
X51678629Y9704420D01*
X51747636Y9844047D01*
X51747637Y9844049D01*
X51749930Y9848689D01*
X51807737Y10038953D01*
X51813365Y10057477D01*
X51813365Y10057479D01*
X51814870Y10062431D01*
X51844029Y10283910D01*
X51844111Y10287260D01*
X51845574Y10347135D01*
X51845574Y10347139D01*
X51845656Y10350500D01*
X51827352Y10573139D01*
X51772931Y10789798D01*
X51683854Y10994660D01*
X51583545Y11149714D01*
X51565322Y11177883D01*
X51565320Y11177886D01*
X51562514Y11182223D01*
X51412170Y11347449D01*
X51408119Y11350648D01*
X51408115Y11350652D01*
X51240914Y11482700D01*
X51240910Y11482702D01*
X51236859Y11485902D01*
X51195069Y11508971D01*
X51145098Y11559403D01*
X51130326Y11628846D01*
X51155442Y11695252D01*
X51182794Y11721859D01*
X51357828Y11846708D01*
X51365700Y11853361D01*
X51516552Y12003688D01*
X51523230Y12011535D01*
X51647503Y12184480D01*
X51652813Y12193317D01*
X51747170Y12384233D01*
X51750969Y12393828D01*
X51812877Y12597590D01*
X51815055Y12607663D01*
X51816486Y12618538D01*
X51814275Y12632722D01*
X51801117Y12636500D01*
X49165725Y12636500D01*
X49152194Y12632527D01*
X49150757Y12622534D01*
X49181065Y12488054D01*
X49184145Y12478225D01*
X49264270Y12280897D01*
X49268913Y12271706D01*
X49380194Y12090112D01*
X49386277Y12081801D01*
X49525713Y11920833D01*
X49533080Y11913617D01*
X49696934Y11777584D01*
X49705381Y11771669D01*
X49774469Y11731297D01*
X49823193Y11679658D01*
X49836264Y11609875D01*
X49809533Y11544104D01*
X49769084Y11510748D01*
X49756107Y11503993D01*
X49751974Y11500890D01*
X49751971Y11500888D01*
X49582823Y11373888D01*
X49577465Y11369865D01*
X49573893Y11366127D01*
X49434680Y11220449D01*
X49423129Y11208362D01*
X49420215Y11204090D01*
X49420214Y11204089D01*
X49383122Y11149714D01*
X49297243Y11023820D01*
X49278186Y10982764D01*
X49213860Y10844185D01*
X49203188Y10821195D01*
X49143489Y10605930D01*
X49119751Y10383805D01*
X49120048Y10378652D01*
X49120048Y10378649D01*
X49128994Y10223500D01*
X49132610Y10160785D01*
X49133747Y10155739D01*
X49133748Y10155733D01*
X49143160Y10113970D01*
X49181722Y9942861D01*
X49219961Y9848689D01*
X49260748Y9748243D01*
X49265766Y9735884D01*
X49382487Y9545412D01*
X49528750Y9376562D01*
X49649027Y9276706D01*
X49685964Y9246041D01*
X49700626Y9233868D01*
X49726080Y9218994D01*
X49773945Y9191024D01*
X49822669Y9139386D01*
X49835740Y9069603D01*
X49809009Y9003831D01*
X49768555Y8970473D01*
X49756107Y8963993D01*
X49751974Y8960890D01*
X49751971Y8960888D01*
X49582823Y8833888D01*
X49577465Y8829865D01*
X49573893Y8826127D01*
X49434680Y8680449D01*
X49423129Y8668362D01*
X49420215Y8664090D01*
X49420214Y8664089D01*
X49384301Y8611443D01*
X49297243Y8483820D01*
X49253301Y8389155D01*
X49205790Y8286800D01*
X49203188Y8281195D01*
X49143489Y8065930D01*
X49119751Y7843805D01*
X49120048Y7838652D01*
X49120048Y7838649D01*
X49128859Y7685842D01*
X49132610Y7620785D01*
X49133747Y7615739D01*
X49133748Y7615733D01*
X49147226Y7555928D01*
X49181722Y7402861D01*
X49223981Y7298789D01*
X49253439Y7226243D01*
X49265766Y7195884D01*
X49268465Y7191480D01*
X49372071Y7022410D01*
X49382487Y7005412D01*
X49528750Y6836562D01*
X49700626Y6693868D01*
X49718833Y6683229D01*
X49773945Y6651024D01*
X49822669Y6599386D01*
X49835740Y6529603D01*
X49809009Y6463831D01*
X49768555Y6430473D01*
X49756107Y6423993D01*
X49751974Y6420890D01*
X49751971Y6420888D01*
X49586924Y6296967D01*
X49577465Y6289865D01*
X49531022Y6241265D01*
X49434251Y6140000D01*
X49423129Y6128362D01*
X49420215Y6124090D01*
X49420214Y6124089D01*
X49353258Y6025935D01*
X49297243Y5943820D01*
X49281503Y5909910D01*
X49217462Y5771945D01*
X49203188Y5741195D01*
X49143489Y5525930D01*
X49119751Y5303805D01*
X48830000Y5303805D01*
X48830000Y14981976D01*
X48850002Y15050097D01*
X48862364Y15066286D01*
X48878590Y15084307D01*
X48904365Y15112933D01*
X48964809Y15150172D01*
X49035793Y15148820D01*
X49094778Y15109307D01*
X49123036Y15044176D01*
X49124000Y15028622D01*
X49124000Y14532366D01*
X49130755Y14470184D01*
X49181885Y14333795D01*
X49269239Y14217239D01*
X49385795Y14129885D01*
X49394204Y14126733D01*
X49394205Y14126732D01*
X49503460Y14085774D01*
X49560225Y14043133D01*
X49584925Y13976571D01*
X49569718Y13907222D01*
X49550325Y13880741D01*
X49427090Y13751783D01*
X49420604Y13743773D01*
X49300598Y13567851D01*
X49295500Y13558877D01*
X49205838Y13365717D01*
X49202275Y13356030D01*
X49146889Y13156317D01*
X49148412Y13147893D01*
X49160792Y13144500D01*
X51800844Y13144500D01*
X51814375Y13148473D01*
X51815680Y13157553D01*
X51773714Y13324625D01*
X51770394Y13334376D01*
X51685472Y13529686D01*
X51680605Y13538761D01*
X51564926Y13717574D01*
X51558636Y13725743D01*
X51414793Y13883823D01*
X51383741Y13947669D01*
X51392135Y14018167D01*
X51437312Y14072936D01*
X51463756Y14086605D01*
X51570797Y14126733D01*
X51579205Y14129885D01*
X51695761Y14217239D01*
X51783115Y14333795D01*
X51834245Y14470184D01*
X51841000Y14532366D01*
X51841000Y16328634D01*
X51834245Y16390816D01*
X51783115Y16527205D01*
X51695761Y16643761D01*
X51579205Y16731115D01*
X51442816Y16782245D01*
X51380634Y16789000D01*
X49584366Y16789000D01*
X49522184Y16782245D01*
X49385795Y16731115D01*
X49269239Y16643761D01*
X49181885Y16527205D01*
X49130755Y16390816D01*
X49124000Y16328634D01*
X49122949Y16328748D01*
X49100760Y16265959D01*
X49044668Y16222436D01*
X48973951Y16216147D01*
X48911059Y16249088D01*
X48904964Y16255402D01*
X48895459Y16265959D01*
X48859966Y16305377D01*
X48812175Y16358455D01*
X48812174Y16358456D01*
X48807753Y16363366D01*
X48653252Y16475618D01*
X48647224Y16478302D01*
X48647222Y16478303D01*
X48484819Y16550609D01*
X48484818Y16550609D01*
X48478788Y16553294D01*
X48385387Y16573147D01*
X48298444Y16591628D01*
X48298439Y16591628D01*
X48291987Y16593000D01*
X48101013Y16593000D01*
X48094561Y16591628D01*
X48094556Y16591628D01*
X48007612Y16573147D01*
X47914212Y16553294D01*
X47908182Y16550609D01*
X47908181Y16550609D01*
X47745778Y16478303D01*
X47745776Y16478302D01*
X47739748Y16475618D01*
X47585247Y16363366D01*
X47580826Y16358456D01*
X47580825Y16358455D01*
X47550898Y16325217D01*
X47457460Y16221444D01*
X47399186Y16120510D01*
X47365602Y16062341D01*
X47361973Y16056056D01*
X47302958Y15874428D01*
X47302268Y15867867D01*
X47302268Y15867865D01*
X47294749Y15796321D01*
X47282996Y15684500D01*
X47283686Y15677935D01*
X47297390Y15547552D01*
X47302958Y15494572D01*
X47361973Y15312944D01*
X47457460Y15147556D01*
X47530636Y15066286D01*
X47561353Y15002279D01*
X47563000Y14981976D01*
X47563000Y5458089D01*
X47542998Y5389968D01*
X47526095Y5368993D01*
X47103002Y4945901D01*
X47040690Y4911876D01*
X47013907Y4908997D01*
X46958016Y4908997D01*
X46951564Y4907625D01*
X46951559Y4907625D01*
X46864616Y4889144D01*
X46771215Y4869291D01*
X46765185Y4866606D01*
X46765184Y4866606D01*
X46602781Y4794300D01*
X46602779Y4794299D01*
X46596751Y4791615D01*
X46591410Y4787735D01*
X46591409Y4787734D01*
X46574050Y4775122D01*
X46442250Y4679363D01*
X46437829Y4674453D01*
X46437828Y4674452D01*
X46338578Y4564223D01*
X46314463Y4537441D01*
X46218976Y4372053D01*
X46159961Y4190425D01*
X46159271Y4183864D01*
X46159271Y4183862D01*
X46142596Y4025205D01*
X46115583Y3959548D01*
X46106381Y3949280D01*
X44796006Y2638905D01*
X44733694Y2604879D01*
X44706911Y2602000D01*
X36627895Y2602000D01*
X36559774Y2622002D01*
X36513281Y2675658D01*
X36503177Y2745932D01*
X36508063Y2766938D01*
X36515002Y2788292D01*
X36515003Y2788297D01*
X36517042Y2794572D01*
X36537004Y2984500D01*
X36524612Y3102401D01*
X36517732Y3167865D01*
X36517732Y3167867D01*
X36517042Y3174428D01*
X36458027Y3356056D01*
X36362540Y3521444D01*
X36270903Y3623218D01*
X36239175Y3658455D01*
X36239174Y3658456D01*
X36234753Y3663366D01*
X36094407Y3765334D01*
X36085594Y3771737D01*
X36085593Y3771738D01*
X36080252Y3775618D01*
X36074224Y3778302D01*
X36074222Y3778303D01*
X35911819Y3850609D01*
X35911818Y3850609D01*
X35905788Y3853294D01*
X35796119Y3876605D01*
X35725444Y3891628D01*
X35725439Y3891628D01*
X35718987Y3893000D01*
X35528013Y3893000D01*
X35521561Y3891628D01*
X35521556Y3891628D01*
X35450881Y3876605D01*
X35341212Y3853294D01*
X35335182Y3850609D01*
X35335181Y3850609D01*
X35172778Y3778303D01*
X35172776Y3778302D01*
X35166748Y3775618D01*
X35161407Y3771738D01*
X35161406Y3771737D01*
X35152593Y3765334D01*
X35012247Y3663366D01*
X35007826Y3658456D01*
X35007825Y3658455D01*
X34976098Y3623218D01*
X34884460Y3521444D01*
X34788973Y3356056D01*
X34729958Y3174428D01*
X34729268Y3167867D01*
X34729268Y3167865D01*
X34722388Y3102401D01*
X34709996Y2984500D01*
X34729958Y2794572D01*
X34731997Y2788297D01*
X34731998Y2788292D01*
X34738937Y2766938D01*
X34740966Y2695971D01*
X34704305Y2635172D01*
X34640593Y2603846D01*
X34619105Y2602000D01*
X23049863Y2602000D01*
X22981742Y2622002D01*
X22935249Y2675658D01*
X22925145Y2745932D01*
X22926221Y2751979D01*
X22928042Y2757582D01*
X22929026Y2766938D01*
X22947314Y2940945D01*
X22948004Y2947510D01*
X22932674Y3093369D01*
X22928732Y3130875D01*
X22928732Y3130877D01*
X22928042Y3137438D01*
X22869027Y3319066D01*
X22851300Y3349771D01*
X22776841Y3478736D01*
X22773540Y3484454D01*
X22645753Y3626376D01*
X22491252Y3738628D01*
X22485224Y3741312D01*
X22485222Y3741313D01*
X22322819Y3813619D01*
X22322818Y3813619D01*
X22316788Y3816304D01*
X22222644Y3836315D01*
X22136444Y3854638D01*
X22136439Y3854638D01*
X22129987Y3856010D01*
X21939013Y3856010D01*
X21932561Y3854638D01*
X21932556Y3854638D01*
X21846356Y3836315D01*
X21752212Y3816304D01*
X21746182Y3813619D01*
X21746181Y3813619D01*
X21583778Y3741313D01*
X21583776Y3741312D01*
X21577748Y3738628D01*
X21423247Y3626376D01*
X21295460Y3484454D01*
X21292159Y3478736D01*
X21217701Y3349771D01*
X21199973Y3319066D01*
X21140958Y3137438D01*
X21140268Y3130877D01*
X21140268Y3130875D01*
X21136326Y3093369D01*
X21120996Y2947510D01*
X21121686Y2940945D01*
X21139975Y2766938D01*
X21140958Y2757582D01*
X21142321Y2753387D01*
X21136983Y2683410D01*
X21094168Y2626776D01*
X21027531Y2602280D01*
X21019137Y2602000D01*
X9268107Y2602000D01*
X9199986Y2622002D01*
X9179012Y2638905D01*
X7043134Y4774783D01*
X7009108Y4837095D01*
X7006919Y4850708D01*
X7005884Y4860561D01*
X6996616Y4948733D01*
X6990244Y5009365D01*
X6990244Y5009367D01*
X6989554Y5015928D01*
X6930539Y5197556D01*
X6925086Y5207002D01*
X6838353Y5357226D01*
X6835052Y5362944D01*
X6829606Y5368993D01*
X6711687Y5499955D01*
X6711686Y5499956D01*
X6707265Y5504866D01*
X6552764Y5617118D01*
X6546736Y5619802D01*
X6546734Y5619803D01*
X6384331Y5692109D01*
X6384330Y5692109D01*
X6378300Y5694794D01*
X6284900Y5714647D01*
X6197956Y5733128D01*
X6197951Y5733128D01*
X6191499Y5734500D01*
X6000525Y5734500D01*
X5994073Y5733128D01*
X5994068Y5733128D01*
X5907124Y5714647D01*
X5813724Y5694794D01*
X5807694Y5692109D01*
X5807693Y5692109D01*
X5645290Y5619803D01*
X5645288Y5619802D01*
X5639260Y5617118D01*
X5484759Y5504866D01*
X5480338Y5499956D01*
X5480337Y5499955D01*
X5362419Y5368993D01*
X5356972Y5362944D01*
X5353671Y5357226D01*
X5266939Y5207002D01*
X5261485Y5197556D01*
X5202470Y5015928D01*
X5201780Y5009367D01*
X5201780Y5009365D01*
X5187202Y4870663D01*
X5182508Y4826000D01*
X4053928Y4826000D01*
X4062870Y4855431D01*
X4092029Y5076910D01*
X4093656Y5143500D01*
X4075352Y5366139D01*
X4020931Y5582798D01*
X3931854Y5787660D01*
X3830830Y5943820D01*
X3813322Y5970883D01*
X3813320Y5970886D01*
X3810514Y5975223D01*
X3660170Y6140449D01*
X3656119Y6143648D01*
X3656115Y6143652D01*
X3488914Y6275700D01*
X3488910Y6275702D01*
X3484859Y6278902D01*
X3443553Y6301704D01*
X3393584Y6352136D01*
X3378812Y6421579D01*
X3403928Y6487984D01*
X3431280Y6514591D01*
X3500165Y6563726D01*
X3610360Y6642327D01*
X3619088Y6651024D01*
X3734796Y6766329D01*
X3768596Y6800011D01*
X3776281Y6810705D01*
X3895935Y6977223D01*
X3898953Y6981423D01*
X3905389Y6994444D01*
X3995636Y7177047D01*
X3995637Y7177049D01*
X3997930Y7181689D01*
X4053928Y7366000D01*
X4061365Y7390477D01*
X4061365Y7390479D01*
X4062870Y7395431D01*
X4092029Y7616910D01*
X4093272Y7667775D01*
X4093574Y7680135D01*
X4093574Y7680139D01*
X4093656Y7683500D01*
X4075352Y7906139D01*
X4020931Y8122798D01*
X3931854Y8327660D01*
X3830830Y8483820D01*
X3813322Y8510883D01*
X3813320Y8510886D01*
X3810514Y8515223D01*
X3660170Y8680449D01*
X3656119Y8683648D01*
X3656115Y8683652D01*
X3488914Y8815700D01*
X3488910Y8815702D01*
X3484859Y8818902D01*
X3443553Y8841704D01*
X3393584Y8892136D01*
X3378812Y8961579D01*
X3403928Y9027984D01*
X3431280Y9054591D01*
X3496406Y9101045D01*
X3610360Y9182327D01*
X3619088Y9191024D01*
X3734796Y9306329D01*
X3768596Y9340011D01*
X3794861Y9376562D01*
X3895935Y9517223D01*
X3898953Y9521423D01*
X3905436Y9534539D01*
X3995636Y9717047D01*
X3995637Y9717049D01*
X3997930Y9721689D01*
X4040358Y9861335D01*
X4061365Y9930477D01*
X4061365Y9930479D01*
X4062870Y9935431D01*
X4092029Y10156910D01*
X4093656Y10223500D01*
X4075352Y10446139D01*
X4020931Y10662798D01*
X3931854Y10867660D01*
X3833867Y11019125D01*
X3813322Y11050883D01*
X3813320Y11050886D01*
X3810514Y11055223D01*
X3660170Y11220449D01*
X3656119Y11223648D01*
X3656115Y11223652D01*
X3488914Y11355700D01*
X3488910Y11355702D01*
X3484859Y11358902D01*
X3465000Y11369865D01*
X3443069Y11381971D01*
X3393098Y11432403D01*
X3378326Y11501846D01*
X3403442Y11568252D01*
X3430794Y11594859D01*
X3605828Y11719708D01*
X3613700Y11726361D01*
X3764552Y11876688D01*
X3771230Y11884535D01*
X3895503Y12057480D01*
X3900813Y12066317D01*
X3995170Y12257233D01*
X3998969Y12266828D01*
X4060877Y12470590D01*
X4063055Y12480663D01*
X4064486Y12491538D01*
X4062275Y12505722D01*
X4049117Y12509500D01*
X1413725Y12509500D01*
X1400194Y12505527D01*
X1398757Y12495534D01*
X1429065Y12361054D01*
X1432145Y12351225D01*
X1512270Y12153897D01*
X1516913Y12144706D01*
X1628194Y11963112D01*
X1634277Y11954801D01*
X1773713Y11793833D01*
X1781080Y11786617D01*
X1944934Y11650584D01*
X1953381Y11644669D01*
X2022469Y11604297D01*
X2071193Y11552658D01*
X2084264Y11482875D01*
X2057533Y11417104D01*
X2017084Y11383748D01*
X2004107Y11376993D01*
X1999974Y11373890D01*
X1999971Y11373888D01*
X1829600Y11245970D01*
X1825465Y11242865D01*
X1671129Y11081362D01*
X1668215Y11077090D01*
X1668214Y11077089D01*
X1630956Y11022470D01*
X1545243Y10896820D01*
X1515921Y10833651D01*
X1457957Y10708777D01*
X1451188Y10694195D01*
X1391489Y10478930D01*
X1367751Y10256805D01*
X1368048Y10251652D01*
X1368048Y10251649D01*
X1378862Y10064106D01*
X1380610Y10033785D01*
X1381747Y10028739D01*
X1381748Y10028733D01*
X1390796Y9988586D01*
X1429722Y9815861D01*
X1488262Y9671694D01*
X1507501Y9624314D01*
X1513766Y9608884D01*
X1530149Y9582150D01*
X1617289Y9439950D01*
X1630487Y9418412D01*
X1776750Y9249562D01*
X1948626Y9106868D01*
X1982515Y9087065D01*
X2021945Y9064024D01*
X2070669Y9012386D01*
X2083740Y8942603D01*
X2057009Y8876831D01*
X2016555Y8843473D01*
X2004107Y8836993D01*
X1999974Y8833890D01*
X1999971Y8833888D01*
X1852181Y8722924D01*
X1825465Y8702865D01*
X1671129Y8541362D01*
X1668215Y8537090D01*
X1668214Y8537089D01*
X1606127Y8446072D01*
X1545243Y8356820D01*
X1520149Y8302759D01*
X1455852Y8164242D01*
X1451188Y8154195D01*
X1391489Y7938930D01*
X1367751Y7716805D01*
X1368048Y7711652D01*
X1368048Y7711649D01*
X1378958Y7522431D01*
X1380610Y7493785D01*
X1381747Y7488739D01*
X1381748Y7488733D01*
X1395936Y7425779D01*
X1429722Y7275861D01*
X1467009Y7184033D01*
X1510840Y7076091D01*
X1513766Y7068884D01*
X1516465Y7064480D01*
X1608100Y6914945D01*
X1630487Y6878412D01*
X1776750Y6709562D01*
X1948626Y6566868D01*
X1978230Y6549569D01*
X2021945Y6524024D01*
X2070669Y6472386D01*
X2083740Y6402603D01*
X2057009Y6336831D01*
X2016555Y6303473D01*
X2004107Y6296993D01*
X1999974Y6293890D01*
X1999971Y6293888D01*
X1829600Y6165970D01*
X1825465Y6162865D01*
X1812709Y6149517D01*
X1677275Y6007793D01*
X1671129Y6001362D01*
X1668215Y5997090D01*
X1668214Y5997089D01*
X1619520Y5925706D01*
X1545243Y5816820D01*
X1506395Y5733128D01*
X1470232Y5655221D01*
X1451188Y5614195D01*
X1391489Y5398930D01*
X1367751Y5176805D01*
X508500Y5176805D01*
X508500Y14405366D01*
X1372000Y14405366D01*
X1378755Y14343184D01*
X1429885Y14206795D01*
X1517239Y14090239D01*
X1633795Y14002885D01*
X1642204Y13999733D01*
X1642205Y13999732D01*
X1751460Y13958774D01*
X1808225Y13916133D01*
X1832925Y13849571D01*
X1817718Y13780222D01*
X1798325Y13753741D01*
X1675090Y13624783D01*
X1668604Y13616773D01*
X1548598Y13440851D01*
X1543500Y13431877D01*
X1453838Y13238717D01*
X1450275Y13229030D01*
X1394889Y13029317D01*
X1396412Y13020893D01*
X1408792Y13017500D01*
X4048844Y13017500D01*
X4062375Y13021473D01*
X4063680Y13030553D01*
X4021714Y13197625D01*
X4018394Y13207376D01*
X3933472Y13402686D01*
X3928605Y13411761D01*
X3812926Y13590574D01*
X3806636Y13598743D01*
X3662793Y13756823D01*
X3631741Y13820669D01*
X3640135Y13891167D01*
X3685312Y13945936D01*
X3711756Y13959605D01*
X3818797Y13999733D01*
X3827205Y14002885D01*
X3943761Y14090239D01*
X4031115Y14206795D01*
X4082245Y14343184D01*
X4089000Y14405366D01*
X4089000Y15538906D01*
X4109002Y15607027D01*
X4162658Y15653520D01*
X4232932Y15663624D01*
X4297512Y15634130D01*
X4304095Y15628001D01*
X6187595Y13744501D01*
X6221621Y13682189D01*
X6224500Y13655406D01*
X6224500Y8206767D01*
X6223973Y8195584D01*
X6222298Y8188091D01*
X6222547Y8180165D01*
X6222547Y8180164D01*
X6224438Y8120014D01*
X6224500Y8116063D01*
X6224500Y8088144D01*
X6224997Y8084210D01*
X6224997Y8084209D01*
X6225005Y8084144D01*
X6225938Y8072307D01*
X6227327Y8028111D01*
X6232978Y8008661D01*
X6236987Y7989300D01*
X6239526Y7969203D01*
X6242445Y7961832D01*
X6242445Y7961830D01*
X6255804Y7928088D01*
X6259649Y7916858D01*
X6269771Y7882017D01*
X6271982Y7874407D01*
X6276015Y7867588D01*
X6276017Y7867583D01*
X6282293Y7856972D01*
X6290988Y7839224D01*
X6298448Y7820383D01*
X6303110Y7813967D01*
X6303110Y7813966D01*
X6324436Y7784613D01*
X6330952Y7774693D01*
X6346999Y7747560D01*
X6353458Y7736638D01*
X6367779Y7722317D01*
X6380619Y7707284D01*
X6392528Y7690893D01*
X6398634Y7685842D01*
X6426605Y7662702D01*
X6435384Y7654712D01*
X7980978Y6109118D01*
X8015004Y6046806D01*
X8017192Y6033197D01*
X8034558Y5867972D01*
X8093573Y5686344D01*
X8189060Y5520956D01*
X8193478Y5516049D01*
X8193479Y5516048D01*
X8303558Y5393793D01*
X8316847Y5379034D01*
X8471348Y5266782D01*
X8477376Y5264098D01*
X8477378Y5264097D01*
X8620014Y5200592D01*
X8645812Y5189106D01*
X8739212Y5169253D01*
X8826156Y5150772D01*
X8826161Y5150772D01*
X8832613Y5149400D01*
X9023587Y5149400D01*
X9030039Y5150772D01*
X9030044Y5150772D01*
X9116988Y5169253D01*
X9210388Y5189106D01*
X9236186Y5200592D01*
X9378822Y5264097D01*
X9378824Y5264098D01*
X9384852Y5266782D01*
X9539353Y5379034D01*
X9552642Y5393793D01*
X9662721Y5516048D01*
X9662722Y5516049D01*
X9667140Y5520956D01*
X9762627Y5686344D01*
X9821642Y5867972D01*
X9829121Y5939125D01*
X9840914Y6051335D01*
X9841604Y6057900D01*
X9834198Y6128362D01*
X9822332Y6241265D01*
X9822332Y6241267D01*
X9821642Y6247828D01*
X9762627Y6429456D01*
X9743560Y6462482D01*
X9670443Y6589123D01*
X9667140Y6594844D01*
X9652472Y6611135D01*
X9626838Y6639604D01*
X9618561Y6648797D01*
X9587844Y6712804D01*
X9596607Y6783257D01*
X9618561Y6817418D01*
X9624621Y6824148D01*
X9624622Y6824149D01*
X9629040Y6829056D01*
X9682407Y6921490D01*
X9721223Y6988721D01*
X9721224Y6988722D01*
X9724527Y6994444D01*
X9783542Y7176072D01*
X9785162Y7191480D01*
X9802814Y7359435D01*
X9803504Y7366000D01*
X9793787Y7458454D01*
X9784232Y7549365D01*
X9784232Y7549367D01*
X9783542Y7555928D01*
X9724527Y7737556D01*
X9721116Y7743465D01*
X9665835Y7839213D01*
X9629040Y7902944D01*
X9616662Y7916691D01*
X9585946Y7980697D01*
X9594710Y8051150D01*
X9616661Y8085307D01*
X9629040Y8099056D01*
X9717646Y8252525D01*
X9721223Y8258721D01*
X9721224Y8258722D01*
X9724527Y8264444D01*
X9783542Y8446072D01*
X9787510Y8483820D01*
X9802814Y8629435D01*
X9803504Y8636000D01*
X9793771Y8728606D01*
X9784232Y8819365D01*
X9784232Y8819367D01*
X9783542Y8825928D01*
X9724527Y9007556D01*
X9698519Y9052604D01*
X9648415Y9139386D01*
X9629040Y9172944D01*
X9611493Y9192432D01*
X9580777Y9256438D01*
X9589542Y9326892D01*
X9596012Y9339740D01*
X9683123Y9490621D01*
X9683124Y9490622D01*
X9686427Y9496344D01*
X9745442Y9677972D01*
X9750558Y9726643D01*
X9764714Y9861335D01*
X9765404Y9867900D01*
X9760163Y9917764D01*
X9746132Y10051265D01*
X9746132Y10051267D01*
X9745442Y10057828D01*
X9686427Y10239456D01*
X9679388Y10251649D01*
X9624258Y10347135D01*
X9590940Y10404844D01*
X9585801Y10410552D01*
X9467575Y10541855D01*
X9467574Y10541856D01*
X9463153Y10546766D01*
X9319806Y10650914D01*
X9313994Y10655137D01*
X9313993Y10655138D01*
X9308652Y10659018D01*
X9302624Y10661702D01*
X9302622Y10661703D01*
X9140219Y10734009D01*
X9140218Y10734009D01*
X9134188Y10736694D01*
X9127733Y10738066D01*
X9127730Y10738067D01*
X9053225Y10753903D01*
X9051804Y10754205D01*
X8989330Y10787933D01*
X8955009Y10850082D01*
X8952000Y10877452D01*
X8952000Y14355592D01*
X8952527Y14366775D01*
X8954202Y14374268D01*
X8952062Y14442359D01*
X8952000Y14446316D01*
X8952000Y14474215D01*
X8951496Y14478206D01*
X8950563Y14490048D01*
X8950510Y14491751D01*
X8949174Y14534248D01*
X8946962Y14541862D01*
X8946961Y14541867D01*
X8943523Y14553700D01*
X8939512Y14573064D01*
X8937967Y14585295D01*
X8936974Y14593156D01*
X8934057Y14600523D01*
X8934056Y14600528D01*
X8920698Y14634267D01*
X8916854Y14645494D01*
X8909286Y14671541D01*
X8904518Y14687952D01*
X8894207Y14705387D01*
X8885512Y14723135D01*
X8878052Y14741976D01*
X8852064Y14777746D01*
X8845548Y14787666D01*
X8827080Y14818894D01*
X8827078Y14818897D01*
X8823042Y14825721D01*
X8808721Y14840042D01*
X8795880Y14855076D01*
X8788631Y14865053D01*
X8783972Y14871466D01*
X8749895Y14899657D01*
X8741116Y14907647D01*
X6846438Y16802326D01*
X6812412Y16864638D01*
X6809533Y16891421D01*
X6809533Y17839998D01*
X6829535Y17908119D01*
X6883191Y17954612D01*
X6953465Y17964716D01*
X6980481Y17957708D01*
X7049192Y17931470D01*
X7054260Y17930439D01*
X7054263Y17930438D01*
X7111594Y17918774D01*
X7268097Y17886933D01*
X7273272Y17886743D01*
X7273274Y17886743D01*
X7486173Y17878936D01*
X7486177Y17878936D01*
X7491337Y17878747D01*
X7496457Y17879403D01*
X7496459Y17879403D01*
X7707788Y17906475D01*
X7707789Y17906475D01*
X7712916Y17907132D01*
X7717867Y17908617D01*
X7717870Y17908618D01*
X7857020Y17950365D01*
X7928015Y17950781D01*
X7982322Y17918774D01*
X9719843Y16181253D01*
X9727387Y16172963D01*
X9731500Y16166482D01*
X9737277Y16161057D01*
X9781167Y16119842D01*
X9784009Y16117087D01*
X9803731Y16097365D01*
X9806855Y16094942D01*
X9806859Y16094938D01*
X9806924Y16094888D01*
X9815945Y16087183D01*
X9848179Y16056914D01*
X9855127Y16053095D01*
X9855129Y16053093D01*
X9865932Y16047154D01*
X9882459Y16036298D01*
X9892198Y16028743D01*
X9892200Y16028742D01*
X9898460Y16023886D01*
X9939040Y16006326D01*
X9949688Y16001109D01*
X9957061Y15997056D01*
X9988440Y15979805D01*
X9996116Y15977834D01*
X9996119Y15977833D01*
X10008062Y15974767D01*
X10026766Y15968363D01*
X10033095Y15965625D01*
X10087665Y15920210D01*
X10109020Y15852501D01*
X10102878Y15811056D01*
X10093999Y15783730D01*
X10093997Y15783723D01*
X10091959Y15777449D01*
X10091269Y15770888D01*
X10091269Y15770886D01*
X10089554Y15754564D01*
X10071997Y15587521D01*
X10091959Y15397593D01*
X10150974Y15215965D01*
X10154277Y15210243D01*
X10154278Y15210242D01*
X10167765Y15186882D01*
X10246461Y15050577D01*
X10319638Y14969306D01*
X10350354Y14905300D01*
X10352001Y14884997D01*
X10352001Y14620278D01*
X10351474Y14609095D01*
X10349799Y14601602D01*
X10350048Y14593676D01*
X10350048Y14593675D01*
X10351939Y14533525D01*
X10352001Y14529566D01*
X10352001Y14501655D01*
X10352498Y14497721D01*
X10352498Y14497720D01*
X10352506Y14497655D01*
X10353439Y14485818D01*
X10354828Y14441622D01*
X10360479Y14422172D01*
X10364488Y14402811D01*
X10367027Y14382714D01*
X10369946Y14375343D01*
X10369946Y14375341D01*
X10383305Y14341599D01*
X10387150Y14330369D01*
X10389593Y14321959D01*
X10399483Y14287918D01*
X10403516Y14281099D01*
X10403518Y14281094D01*
X10409794Y14270483D01*
X10418489Y14252735D01*
X10425949Y14233894D01*
X10430611Y14227478D01*
X10430611Y14227477D01*
X10451937Y14198124D01*
X10458453Y14188204D01*
X10480959Y14150149D01*
X10495280Y14135828D01*
X10508120Y14120795D01*
X10520029Y14104404D01*
X10537152Y14090239D01*
X10554106Y14076213D01*
X10562885Y14068223D01*
X16515378Y8115729D01*
X16549404Y8053417D01*
X16551593Y8039806D01*
X16556901Y7989300D01*
X16567780Y7885795D01*
X16568958Y7874584D01*
X16627973Y7692956D01*
X16631276Y7687234D01*
X16631277Y7687233D01*
X16707038Y7556011D01*
X16723776Y7487016D01*
X16707038Y7430011D01*
X16633422Y7302504D01*
X16627973Y7293066D01*
X16568958Y7111438D01*
X16568268Y7104877D01*
X16568268Y7104875D01*
X16553923Y6968386D01*
X16548996Y6921510D01*
X16549686Y6914945D01*
X16564786Y6771281D01*
X16568958Y6731582D01*
X16627973Y6549954D01*
X16631276Y6544232D01*
X16631277Y6544231D01*
X16715948Y6397577D01*
X16732686Y6328582D01*
X16715948Y6271579D01*
X16711154Y6263274D01*
X16653183Y6162865D01*
X16645793Y6150066D01*
X16586778Y5968438D01*
X16586088Y5961877D01*
X16586088Y5961875D01*
X16576219Y5867972D01*
X16566816Y5778510D01*
X16567506Y5771945D01*
X16584611Y5609203D01*
X16586778Y5588582D01*
X16645793Y5406954D01*
X16649096Y5401232D01*
X16649097Y5401231D01*
X16666460Y5371158D01*
X16705347Y5303805D01*
X16715948Y5285443D01*
X16732686Y5216448D01*
X16715948Y5159443D01*
X16635809Y5020638D01*
X16627967Y5007056D01*
X16568952Y4825428D01*
X16568262Y4818867D01*
X16568262Y4818865D01*
X16562934Y4768173D01*
X16548990Y4635500D01*
X16549680Y4628935D01*
X16568020Y4454444D01*
X16568952Y4445572D01*
X16627967Y4263944D01*
X16723454Y4098556D01*
X16727872Y4093649D01*
X16727873Y4093648D01*
X16838912Y3970327D01*
X16851241Y3956634D01*
X16917152Y3908747D01*
X16993476Y3853294D01*
X17005742Y3844382D01*
X17011770Y3841698D01*
X17011772Y3841697D01*
X17160189Y3775618D01*
X17180206Y3766706D01*
X17273607Y3746853D01*
X17360550Y3728372D01*
X17360555Y3728372D01*
X17367007Y3727000D01*
X17557981Y3727000D01*
X17564433Y3728372D01*
X17564438Y3728372D01*
X17651381Y3746853D01*
X17744782Y3766706D01*
X17764799Y3775618D01*
X17913216Y3841697D01*
X17913218Y3841698D01*
X17919246Y3844382D01*
X17931513Y3853294D01*
X18007836Y3908747D01*
X18073747Y3956634D01*
X18086076Y3970327D01*
X18197115Y4093648D01*
X18197116Y4093649D01*
X18201534Y4098556D01*
X18297021Y4263944D01*
X18356036Y4445572D01*
X18356969Y4454444D01*
X18366208Y4542349D01*
X18373401Y4610794D01*
X18400414Y4676450D01*
X18409616Y4686718D01*
X19686520Y5963622D01*
X19694810Y5971166D01*
X19701291Y5975279D01*
X19747932Y6024947D01*
X19750686Y6027788D01*
X19770408Y6047510D01*
X19772892Y6050712D01*
X19780590Y6059724D01*
X19805434Y6086181D01*
X19810859Y6091958D01*
X19820620Y6109713D01*
X19831471Y6126232D01*
X19843887Y6142238D01*
X19847270Y6150056D01*
X19861447Y6182816D01*
X19866664Y6193466D01*
X19887968Y6232219D01*
X19893006Y6251842D01*
X19899410Y6270545D01*
X19904306Y6281859D01*
X19904306Y6281860D01*
X19907454Y6289134D01*
X19908693Y6296957D01*
X19908696Y6296967D01*
X19914372Y6332803D01*
X19916778Y6344423D01*
X19925801Y6379568D01*
X19925801Y6379569D01*
X19927773Y6387249D01*
X19927773Y6407503D01*
X19929324Y6427214D01*
X19931253Y6439393D01*
X19932493Y6447222D01*
X19931260Y6460271D01*
X19928332Y6491240D01*
X19927773Y6503098D01*
X19927773Y11390985D01*
X19928300Y11402169D01*
X19929974Y11409657D01*
X19927835Y11477716D01*
X19927773Y11481673D01*
X19927773Y11509604D01*
X19927267Y11513610D01*
X19926334Y11525456D01*
X19925480Y11552658D01*
X19924946Y11569638D01*
X19919295Y11589090D01*
X19915287Y11608442D01*
X19913741Y11620680D01*
X19913740Y11620682D01*
X19912747Y11628545D01*
X19896467Y11669662D01*
X19892632Y11680863D01*
X19880291Y11723342D01*
X19876258Y11730161D01*
X19876256Y11730166D01*
X19869980Y11740777D01*
X19861283Y11758527D01*
X19853825Y11777365D01*
X19827844Y11813125D01*
X19821326Y11823047D01*
X19802851Y11854288D01*
X19802847Y11854293D01*
X19798815Y11861111D01*
X19784491Y11875435D01*
X19771649Y11890470D01*
X19759745Y11906855D01*
X19725679Y11935037D01*
X19716900Y11943026D01*
X16123622Y15536304D01*
X16089596Y15598616D01*
X16087407Y15612229D01*
X16070732Y15770886D01*
X16070732Y15770888D01*
X16070042Y15777449D01*
X16068002Y15783726D01*
X16067136Y15787802D01*
X16072537Y15858593D01*
X16115353Y15915226D01*
X16181990Y15939720D01*
X16190382Y15940000D01*
X19369100Y15940000D01*
X19437221Y15919998D01*
X19483714Y15866342D01*
X19494410Y15800830D01*
X19493041Y15787802D01*
X19487062Y15730917D01*
X19487752Y15724352D01*
X19505229Y15558072D01*
X19507024Y15540989D01*
X19566039Y15359361D01*
X19661526Y15193973D01*
X19665944Y15189066D01*
X19665945Y15189065D01*
X19774903Y15068055D01*
X19789313Y15052051D01*
X19843761Y15012492D01*
X19903199Y14969308D01*
X19943814Y14939799D01*
X19949842Y14937115D01*
X19949844Y14937114D01*
X20085948Y14876517D01*
X20118278Y14862123D01*
X20197551Y14845273D01*
X20298622Y14823789D01*
X20298627Y14823789D01*
X20305079Y14822417D01*
X20360972Y14822417D01*
X20429093Y14802415D01*
X20450067Y14785512D01*
X21491095Y13744483D01*
X21525121Y13682171D01*
X21528000Y13655388D01*
X21528000Y10935587D01*
X21507998Y10867466D01*
X21476061Y10833651D01*
X21427907Y10798665D01*
X21423486Y10793755D01*
X21423485Y10793754D01*
X21346972Y10708777D01*
X21300120Y10656743D01*
X21257641Y10583168D01*
X21210572Y10501641D01*
X21204633Y10491355D01*
X21145618Y10309727D01*
X21144928Y10303166D01*
X21144928Y10303164D01*
X21142556Y10280592D01*
X21125656Y10119799D01*
X21126346Y10113234D01*
X21143723Y9947904D01*
X21145618Y9929871D01*
X21204633Y9748243D01*
X21207936Y9742521D01*
X21207937Y9742520D01*
X21249726Y9670140D01*
X21266464Y9601145D01*
X21249726Y9544140D01*
X21236611Y9521423D01*
X21204633Y9466036D01*
X21145618Y9284408D01*
X21144928Y9277847D01*
X21144928Y9277845D01*
X21140653Y9237173D01*
X21125656Y9094480D01*
X21126346Y9087915D01*
X21141609Y8942700D01*
X21145618Y8904552D01*
X21204633Y8722924D01*
X21249728Y8644818D01*
X21266465Y8575825D01*
X21249728Y8518822D01*
X21204633Y8440716D01*
X21145618Y8259088D01*
X21144928Y8252527D01*
X21144928Y8252525D01*
X21129753Y8108144D01*
X21125656Y8069160D01*
X21126346Y8062595D01*
X21139344Y7938930D01*
X21145618Y7879232D01*
X21204633Y7697604D01*
X21207936Y7691882D01*
X21207937Y7691881D01*
X21246051Y7625866D01*
X21262789Y7556871D01*
X21246051Y7499866D01*
X21241793Y7492490D01*
X21199973Y7420056D01*
X21140958Y7238428D01*
X21140268Y7231867D01*
X21140268Y7231865D01*
X21130329Y7137303D01*
X21120996Y7048500D01*
X21121686Y7041935D01*
X21137501Y6891468D01*
X21140958Y6858572D01*
X21199973Y6676944D01*
X21203276Y6671222D01*
X21203277Y6671221D01*
X21214938Y6651024D01*
X21295460Y6511556D01*
X21299878Y6506649D01*
X21299879Y6506648D01*
X21397912Y6397771D01*
X21423247Y6369634D01*
X21479750Y6328582D01*
X21552536Y6275700D01*
X21577748Y6257382D01*
X21583776Y6254698D01*
X21583778Y6254697D01*
X21746181Y6182391D01*
X21752212Y6179706D01*
X21845613Y6159853D01*
X21932556Y6141372D01*
X21932561Y6141372D01*
X21939013Y6140000D01*
X22129987Y6140000D01*
X22136439Y6141372D01*
X22136444Y6141372D01*
X22223387Y6159853D01*
X22316788Y6179706D01*
X22322819Y6182391D01*
X22485222Y6254697D01*
X22485224Y6254698D01*
X22491252Y6257382D01*
X22516465Y6275700D01*
X22626974Y6355990D01*
X22645753Y6369634D01*
X22661223Y6386815D01*
X22721669Y6424054D01*
X22739067Y6427510D01*
X22751115Y6429032D01*
X22751116Y6429032D01*
X22758982Y6430026D01*
X22766353Y6432945D01*
X22766355Y6432945D01*
X22800097Y6446304D01*
X22811327Y6450149D01*
X22846168Y6460271D01*
X22846169Y6460271D01*
X22853778Y6462482D01*
X22860597Y6466515D01*
X22860602Y6466517D01*
X22871213Y6472793D01*
X22888961Y6481488D01*
X22907802Y6488948D01*
X22943572Y6514936D01*
X22953492Y6521452D01*
X22984720Y6539920D01*
X22984723Y6539922D01*
X22991547Y6543958D01*
X23005868Y6558279D01*
X23020902Y6571120D01*
X23037292Y6583028D01*
X23065483Y6617105D01*
X23073473Y6625884D01*
X25538253Y9090663D01*
X25546539Y9098203D01*
X25553018Y9102315D01*
X25599644Y9151967D01*
X25602398Y9154808D01*
X25622135Y9174545D01*
X25624615Y9177742D01*
X25632320Y9186764D01*
X25662586Y9218994D01*
X25666405Y9225940D01*
X25666407Y9225943D01*
X25672348Y9236749D01*
X25683199Y9253268D01*
X25690758Y9263014D01*
X25695614Y9269274D01*
X25698759Y9276543D01*
X25698762Y9276547D01*
X25713174Y9309852D01*
X25718391Y9320502D01*
X25739695Y9359255D01*
X25744733Y9378878D01*
X25751137Y9397581D01*
X25756033Y9408895D01*
X25756033Y9408896D01*
X25759181Y9416170D01*
X25760420Y9423993D01*
X25760423Y9424003D01*
X25766099Y9459839D01*
X25768505Y9471459D01*
X25777528Y9506604D01*
X25777528Y9506605D01*
X25779500Y9514285D01*
X25779500Y9534539D01*
X25781051Y9554250D01*
X25782980Y9566429D01*
X25784220Y9574258D01*
X25780059Y9618277D01*
X25779500Y9630134D01*
X25779500Y15045476D01*
X25799502Y15113597D01*
X25811858Y15129779D01*
X25885040Y15211056D01*
X25980527Y15376444D01*
X26039542Y15558072D01*
X26040964Y15571596D01*
X26058814Y15741435D01*
X26059504Y15748000D01*
X26053951Y15800831D01*
X26066723Y15870667D01*
X26115224Y15922514D01*
X26179261Y15940000D01*
X26798577Y15940000D01*
X26866698Y15919998D01*
X26913191Y15866342D01*
X26924577Y15814000D01*
X26924577Y12201692D01*
X26924050Y12190509D01*
X26922375Y12183016D01*
X26922624Y12175090D01*
X26922624Y12175089D01*
X26924515Y12114939D01*
X26924577Y12110980D01*
X26924577Y12083069D01*
X26925074Y12079135D01*
X26925074Y12079134D01*
X26925082Y12079069D01*
X26926015Y12067232D01*
X26927404Y12023036D01*
X26933025Y12003688D01*
X26933055Y12003586D01*
X26937064Y11984225D01*
X26939603Y11964128D01*
X26942522Y11956757D01*
X26942522Y11956755D01*
X26955881Y11923013D01*
X26959726Y11911783D01*
X26965918Y11890470D01*
X26972059Y11869332D01*
X26976092Y11862513D01*
X26976094Y11862508D01*
X26982370Y11851897D01*
X26991065Y11834149D01*
X26998525Y11815308D01*
X27003187Y11808892D01*
X27003187Y11808891D01*
X27024513Y11779538D01*
X27031029Y11769618D01*
X27048086Y11740777D01*
X27053535Y11731563D01*
X27067856Y11717242D01*
X27080696Y11702209D01*
X27092605Y11685818D01*
X27103814Y11676545D01*
X27126682Y11657627D01*
X27135461Y11649637D01*
X27613596Y11171502D01*
X27647622Y11109190D01*
X27650501Y11082407D01*
X27650501Y7354770D01*
X27649974Y7343587D01*
X27648299Y7336094D01*
X27648548Y7328168D01*
X27648548Y7328167D01*
X27650439Y7268017D01*
X27650501Y7264058D01*
X27650501Y7236147D01*
X27650998Y7232213D01*
X27650998Y7232212D01*
X27651006Y7232147D01*
X27651939Y7220310D01*
X27653328Y7176114D01*
X27658076Y7159771D01*
X27658979Y7156664D01*
X27662988Y7137303D01*
X27665527Y7117206D01*
X27668446Y7109835D01*
X27668446Y7109833D01*
X27681805Y7076091D01*
X27685650Y7064861D01*
X27695772Y7030020D01*
X27697983Y7022410D01*
X27702016Y7015591D01*
X27702018Y7015586D01*
X27708294Y7004975D01*
X27716989Y6987227D01*
X27724449Y6968386D01*
X27729111Y6961970D01*
X27729111Y6961969D01*
X27750437Y6932616D01*
X27756953Y6922696D01*
X27779459Y6884641D01*
X27793780Y6870320D01*
X27806620Y6855287D01*
X27818529Y6838896D01*
X27852606Y6810705D01*
X27861385Y6802715D01*
X29977382Y4686718D01*
X30011408Y4624406D01*
X30013596Y4610797D01*
X30020790Y4542349D01*
X30030030Y4454444D01*
X30030962Y4445572D01*
X30089977Y4263944D01*
X30185464Y4098556D01*
X30189882Y4093649D01*
X30189883Y4093648D01*
X30300922Y3970327D01*
X30313251Y3956634D01*
X30379162Y3908747D01*
X30455486Y3853294D01*
X30467752Y3844382D01*
X30473780Y3841698D01*
X30473782Y3841697D01*
X30622199Y3775618D01*
X30642216Y3766706D01*
X30735617Y3746853D01*
X30822560Y3728372D01*
X30822565Y3728372D01*
X30829017Y3727000D01*
X31019991Y3727000D01*
X31026443Y3728372D01*
X31026448Y3728372D01*
X31113391Y3746853D01*
X31206792Y3766706D01*
X31226809Y3775618D01*
X31375226Y3841697D01*
X31375228Y3841698D01*
X31381256Y3844382D01*
X31393523Y3853294D01*
X31469846Y3908747D01*
X31535757Y3956634D01*
X31548086Y3970327D01*
X31659125Y4093648D01*
X31659126Y4093649D01*
X31663544Y4098556D01*
X31759031Y4263944D01*
X31818046Y4445572D01*
X31818979Y4454444D01*
X31837318Y4628935D01*
X31838008Y4635500D01*
X31824064Y4768173D01*
X31818736Y4818865D01*
X31818736Y4818867D01*
X31818046Y4825428D01*
X31759031Y5007056D01*
X31751190Y5020638D01*
X31718701Y5076910D01*
X31679964Y5144004D01*
X31663226Y5212998D01*
X31679964Y5270003D01*
X31755723Y5401221D01*
X31755724Y5401222D01*
X31759027Y5406944D01*
X31818042Y5588572D01*
X31820211Y5609203D01*
X31837314Y5771935D01*
X31838004Y5778500D01*
X31828600Y5867972D01*
X31818732Y5961865D01*
X31818732Y5961867D01*
X31818042Y5968428D01*
X31759027Y6150056D01*
X31715598Y6225278D01*
X31691250Y6267449D01*
X31679965Y6286995D01*
X31663227Y6355990D01*
X31679965Y6412995D01*
X31680734Y6414326D01*
X31734036Y6506648D01*
X31755723Y6544211D01*
X31755724Y6544212D01*
X31759027Y6549934D01*
X31818042Y6731562D01*
X31825521Y6802715D01*
X31837314Y6914925D01*
X31838004Y6921490D01*
X31829594Y7001510D01*
X31818732Y7104855D01*
X31818732Y7104857D01*
X31818042Y7111418D01*
X31759027Y7293046D01*
X31716623Y7366491D01*
X31699886Y7435483D01*
X31716623Y7492487D01*
X31759027Y7565932D01*
X31818042Y7747560D01*
X31821432Y7779808D01*
X31837314Y7930923D01*
X31838004Y7937488D01*
X31824855Y8062595D01*
X31818732Y8120853D01*
X31818732Y8120855D01*
X31818042Y8127416D01*
X31759027Y8309044D01*
X31751022Y8322910D01*
X31712775Y8389155D01*
X31663540Y8474432D01*
X31630720Y8510883D01*
X31540175Y8611443D01*
X31540174Y8611444D01*
X31535753Y8616354D01*
X31381252Y8728606D01*
X31375224Y8731290D01*
X31375222Y8731291D01*
X31212819Y8803597D01*
X31212818Y8803597D01*
X31206788Y8806282D01*
X31113387Y8826135D01*
X31026444Y8844616D01*
X31026439Y8844616D01*
X31019987Y8845988D01*
X30964095Y8845988D01*
X30895974Y8865990D01*
X30874999Y8882893D01*
X30451904Y9305989D01*
X30417879Y9368301D01*
X30415000Y9395084D01*
X30415000Y13255690D01*
X30415527Y13266873D01*
X30417202Y13274366D01*
X30415062Y13342457D01*
X30415000Y13346414D01*
X30415000Y13374314D01*
X30414496Y13378305D01*
X30413563Y13390147D01*
X30412423Y13426422D01*
X30412174Y13434347D01*
X30409962Y13441961D01*
X30409961Y13441966D01*
X30406523Y13453799D01*
X30402512Y13473163D01*
X30400967Y13485394D01*
X30399974Y13493255D01*
X30397057Y13500622D01*
X30397056Y13500627D01*
X30383698Y13534366D01*
X30379854Y13545593D01*
X30369730Y13580436D01*
X30367518Y13588051D01*
X30357207Y13605486D01*
X30348512Y13623234D01*
X30341052Y13642075D01*
X30315064Y13677845D01*
X30308548Y13687765D01*
X30290080Y13718993D01*
X30290078Y13718996D01*
X30286042Y13725820D01*
X30271721Y13740141D01*
X30258880Y13755175D01*
X30251632Y13765151D01*
X30246972Y13771565D01*
X30212907Y13799746D01*
X30204126Y13807736D01*
X29689904Y14321959D01*
X29655879Y14384271D01*
X29653000Y14411054D01*
X29653000Y16327216D01*
X29673002Y16395337D01*
X29726658Y16441830D01*
X29796932Y16451934D01*
X29839700Y16437631D01*
X29863940Y16424305D01*
X29871616Y16422334D01*
X29871619Y16422333D01*
X29883562Y16419267D01*
X29902267Y16412863D01*
X29920855Y16404819D01*
X29928678Y16403580D01*
X29928688Y16403577D01*
X29964524Y16397901D01*
X29976144Y16395495D01*
X30011289Y16386472D01*
X30018970Y16384500D01*
X30039224Y16384500D01*
X30058934Y16382949D01*
X30078943Y16379780D01*
X30086835Y16380526D01*
X30112467Y16382949D01*
X30122962Y16383941D01*
X30134819Y16384500D01*
X33591583Y16384500D01*
X33659704Y16364498D01*
X33680679Y16347595D01*
X34011029Y16017244D01*
X34018563Y16008965D01*
X34022676Y16002484D01*
X34042759Y15983625D01*
X34072327Y15955859D01*
X34075169Y15953104D01*
X34094906Y15933367D01*
X34098103Y15930887D01*
X34107123Y15923184D01*
X34139355Y15892916D01*
X34146301Y15889097D01*
X34146304Y15889095D01*
X34157110Y15883154D01*
X34173629Y15872303D01*
X34189635Y15859888D01*
X34196904Y15856743D01*
X34196908Y15856740D01*
X34230213Y15842328D01*
X34240863Y15837111D01*
X34279616Y15815807D01*
X34287291Y15813836D01*
X34287292Y15813836D01*
X34299238Y15810769D01*
X34317942Y15804365D01*
X34326114Y15800829D01*
X34336531Y15796321D01*
X34344354Y15795082D01*
X34344364Y15795079D01*
X34380200Y15789403D01*
X34391820Y15786997D01*
X34426965Y15777974D01*
X34434646Y15776002D01*
X34454900Y15776002D01*
X34474610Y15774451D01*
X34494619Y15771282D01*
X34502511Y15772028D01*
X34538637Y15775443D01*
X34550495Y15776002D01*
X35559025Y15776002D01*
X35627146Y15756000D01*
X35673639Y15702344D01*
X35684335Y15636832D01*
X35680388Y15599281D01*
X35700350Y15409353D01*
X35759365Y15227725D01*
X35762668Y15222003D01*
X35762669Y15222002D01*
X35775550Y15199691D01*
X35854852Y15062337D01*
X35928029Y14981066D01*
X35958745Y14917060D01*
X35960392Y14896757D01*
X35960392Y11407107D01*
X35940390Y11338986D01*
X35923487Y11318012D01*
X35664850Y11059375D01*
X35602538Y11025349D01*
X35575755Y11022470D01*
X35519863Y11022470D01*
X35513411Y11021098D01*
X35513406Y11021098D01*
X35426462Y11002617D01*
X35333062Y10982764D01*
X35327032Y10980079D01*
X35327031Y10980079D01*
X35164628Y10907773D01*
X35164626Y10907772D01*
X35158598Y10905088D01*
X35153257Y10901208D01*
X35153256Y10901207D01*
X35147218Y10896820D01*
X35004097Y10792836D01*
X34999676Y10787926D01*
X34999675Y10787925D01*
X34885978Y10661651D01*
X34876310Y10650914D01*
X34821421Y10555843D01*
X34787493Y10497078D01*
X34780823Y10485526D01*
X34721808Y10303898D01*
X34701846Y10113970D01*
X34702536Y10107405D01*
X34720506Y9936434D01*
X34721808Y9924042D01*
X34780823Y9742414D01*
X34784126Y9736692D01*
X34784127Y9736691D01*
X34832344Y9653177D01*
X34849082Y9584182D01*
X34832344Y9527177D01*
X34793467Y9459839D01*
X34788973Y9452056D01*
X34729958Y9270428D01*
X34729268Y9263867D01*
X34729268Y9263865D01*
X34720209Y9177671D01*
X34709996Y9080500D01*
X34710686Y9073935D01*
X34728489Y8904552D01*
X34729958Y8890572D01*
X34788973Y8708944D01*
X34792276Y8703222D01*
X34792277Y8703221D01*
X34812403Y8668362D01*
X34865830Y8575825D01*
X34868037Y8572002D01*
X34884775Y8503007D01*
X34868037Y8446002D01*
X34796970Y8322910D01*
X34788971Y8309056D01*
X34729956Y8127428D01*
X34729266Y8120867D01*
X34729266Y8120865D01*
X34719208Y8025166D01*
X34709994Y7937500D01*
X34710684Y7930935D01*
X34727106Y7774693D01*
X34729956Y7747572D01*
X34788971Y7565944D01*
X34867754Y7429489D01*
X34868035Y7429002D01*
X34884773Y7360007D01*
X34868035Y7303002D01*
X34795315Y7177047D01*
X34788969Y7166056D01*
X34729954Y6984428D01*
X34729264Y6977867D01*
X34729264Y6977865D01*
X34723536Y6923363D01*
X34709992Y6794500D01*
X34710682Y6787935D01*
X34728860Y6614984D01*
X34729954Y6604572D01*
X34788969Y6422944D01*
X34792272Y6417222D01*
X34792273Y6417221D01*
X34809801Y6386862D01*
X34884456Y6257556D01*
X34888874Y6252649D01*
X34888875Y6252648D01*
X34988289Y6142238D01*
X35012243Y6115634D01*
X35069787Y6073826D01*
X35135703Y6025935D01*
X35166744Y6003382D01*
X35172772Y6000698D01*
X35172774Y6000697D01*
X35259993Y5961865D01*
X35341208Y5925706D01*
X35415522Y5909910D01*
X35521552Y5887372D01*
X35521557Y5887372D01*
X35528009Y5886000D01*
X35718983Y5886000D01*
X35725435Y5887372D01*
X35725440Y5887372D01*
X35831470Y5909910D01*
X35905784Y5925706D01*
X35986999Y5961865D01*
X36074218Y6000697D01*
X36074220Y6000698D01*
X36080248Y6003382D01*
X36111290Y6025935D01*
X36177205Y6073826D01*
X36234749Y6115634D01*
X36258703Y6142238D01*
X36358117Y6252648D01*
X36358118Y6252649D01*
X36362536Y6257556D01*
X36437191Y6386862D01*
X36454719Y6417221D01*
X36454720Y6417222D01*
X36458023Y6422944D01*
X36517038Y6604572D01*
X36518133Y6614984D01*
X36528073Y6709562D01*
X36534403Y6769794D01*
X36561416Y6835450D01*
X36570618Y6845718D01*
X38345138Y8620237D01*
X40145464Y10420563D01*
X40153750Y10428103D01*
X40160229Y10432215D01*
X40206855Y10481867D01*
X40209609Y10484708D01*
X40229346Y10504445D01*
X40231826Y10507642D01*
X40239531Y10516664D01*
X40264370Y10543115D01*
X40269797Y10548894D01*
X40273616Y10555840D01*
X40273618Y10555843D01*
X40279559Y10566649D01*
X40290410Y10583168D01*
X40297969Y10592914D01*
X40302825Y10599174D01*
X40305970Y10606443D01*
X40305973Y10606447D01*
X40320385Y10639752D01*
X40325602Y10650402D01*
X40346906Y10689155D01*
X40351944Y10708778D01*
X40358348Y10727481D01*
X40363244Y10738795D01*
X40363244Y10738796D01*
X40366392Y10746070D01*
X40367631Y10753893D01*
X40367634Y10753903D01*
X40373310Y10789739D01*
X40375716Y10801359D01*
X40384739Y10836504D01*
X40384739Y10836505D01*
X40386711Y10844185D01*
X40386711Y10864439D01*
X40388262Y10884150D01*
X40390191Y10896329D01*
X40391431Y10904158D01*
X40387270Y10948177D01*
X40386711Y10960034D01*
X40386711Y14884997D01*
X40406713Y14953118D01*
X40419066Y14969297D01*
X40437513Y14989785D01*
X40497955Y15027022D01*
X40568938Y15025672D01*
X40620242Y14994568D01*
X41350062Y14264748D01*
X41384088Y14202436D01*
X41386967Y14175653D01*
X41386967Y8286800D01*
X41386440Y8275617D01*
X41384765Y8268124D01*
X41385014Y8260198D01*
X41385014Y8260197D01*
X41386905Y8200047D01*
X41386967Y8196088D01*
X41386967Y8168177D01*
X41387464Y8164243D01*
X41387464Y8164242D01*
X41387472Y8164177D01*
X41388405Y8152340D01*
X41389794Y8108144D01*
X41393859Y8094153D01*
X41395445Y8088694D01*
X41399454Y8069333D01*
X41401993Y8049236D01*
X41404912Y8041865D01*
X41404912Y8041863D01*
X41418271Y8008121D01*
X41422116Y7996891D01*
X41430160Y7969203D01*
X41434449Y7954440D01*
X41438482Y7947621D01*
X41438484Y7947616D01*
X41444760Y7937005D01*
X41453455Y7919257D01*
X41460915Y7900416D01*
X41465577Y7894000D01*
X41465577Y7893999D01*
X41486903Y7864646D01*
X41493419Y7854726D01*
X41502594Y7839213D01*
X41515925Y7816671D01*
X41530246Y7802350D01*
X41543086Y7787317D01*
X41554995Y7770926D01*
X41561101Y7765875D01*
X41589072Y7742735D01*
X41597851Y7734745D01*
X43248878Y6083718D01*
X43282904Y6021406D01*
X43285092Y6007797D01*
X43288510Y5975279D01*
X43299099Y5874535D01*
X43302458Y5842572D01*
X43361473Y5660944D01*
X43456960Y5495556D01*
X43461378Y5490649D01*
X43461379Y5490648D01*
X43543962Y5398930D01*
X43584747Y5353634D01*
X43683843Y5281636D01*
X43707984Y5264097D01*
X43739248Y5241382D01*
X43745276Y5238698D01*
X43745278Y5238697D01*
X43907681Y5166391D01*
X43913712Y5163706D01*
X43992994Y5146854D01*
X44094056Y5125372D01*
X44094061Y5125372D01*
X44100513Y5124000D01*
X44291487Y5124000D01*
X44297939Y5125372D01*
X44297944Y5125372D01*
X44399006Y5146854D01*
X44478288Y5163706D01*
X44484319Y5166391D01*
X44646722Y5238697D01*
X44646724Y5238698D01*
X44652752Y5241382D01*
X44684017Y5264097D01*
X44708157Y5281636D01*
X44807253Y5353634D01*
X44848038Y5398930D01*
X44930621Y5490648D01*
X44930622Y5490649D01*
X44935040Y5495556D01*
X45030527Y5660944D01*
X45089542Y5842572D01*
X45092902Y5874535D01*
X45108814Y6025935D01*
X45109504Y6032500D01*
X45101389Y6109710D01*
X45090232Y6215865D01*
X45090232Y6215867D01*
X45089542Y6222428D01*
X45030527Y6404056D01*
X44935040Y6569444D01*
X44922664Y6583189D01*
X44891946Y6647196D01*
X44900711Y6717650D01*
X44922662Y6751807D01*
X44930621Y6760647D01*
X44930624Y6760651D01*
X44935044Y6765560D01*
X44955543Y6801065D01*
X45027227Y6925225D01*
X45027228Y6925226D01*
X45030531Y6930948D01*
X45089546Y7112576D01*
X45090860Y7125073D01*
X45108818Y7295939D01*
X45109508Y7302504D01*
X45099463Y7398075D01*
X45090236Y7485869D01*
X45090236Y7485871D01*
X45089546Y7492432D01*
X45030531Y7674060D01*
X45023145Y7686854D01*
X44988089Y7747572D01*
X44935044Y7839448D01*
X44919648Y7856547D01*
X44888930Y7920554D01*
X44897695Y7991008D01*
X44919644Y8025163D01*
X44929020Y8035576D01*
X45024507Y8200964D01*
X45083522Y8382592D01*
X45088971Y8434431D01*
X45102794Y8565955D01*
X45103484Y8572520D01*
X45089458Y8705970D01*
X45084212Y8755885D01*
X45084212Y8755887D01*
X45083522Y8762448D01*
X45024507Y8944076D01*
X44988715Y9006069D01*
X44971978Y9075062D01*
X44988715Y9132064D01*
X45057821Y9251759D01*
X45116836Y9433387D01*
X45120838Y9471459D01*
X45136108Y9616750D01*
X45136798Y9623315D01*
X45127329Y9713409D01*
X45117526Y9806680D01*
X45117526Y9806682D01*
X45116836Y9813243D01*
X45057821Y9994871D01*
X44962334Y10160259D01*
X44908422Y10220135D01*
X44838969Y10297270D01*
X44838968Y10297271D01*
X44834547Y10302181D01*
X44680046Y10414433D01*
X44674018Y10417117D01*
X44674016Y10417118D01*
X44548432Y10473031D01*
X44531546Y10480549D01*
X44477451Y10526529D01*
X44456795Y10595656D01*
X44456795Y14644938D01*
X44457322Y14656121D01*
X44458997Y14663614D01*
X44458304Y14685676D01*
X44456857Y14731691D01*
X44456795Y14735650D01*
X44456795Y14763561D01*
X44456290Y14767561D01*
X44455357Y14779404D01*
X44455098Y14787666D01*
X44453968Y14823594D01*
X44448316Y14843048D01*
X44444308Y14862405D01*
X44442763Y14874635D01*
X44442763Y14874636D01*
X44441769Y14882502D01*
X44434977Y14899657D01*
X44425491Y14923617D01*
X44421646Y14934847D01*
X44411524Y14969688D01*
X44411524Y14969689D01*
X44409313Y14977298D01*
X44405280Y14984117D01*
X44405278Y14984122D01*
X44399002Y14994733D01*
X44390307Y15012481D01*
X44382847Y15031322D01*
X44356859Y15067092D01*
X44350343Y15077012D01*
X44331875Y15108240D01*
X44331873Y15108243D01*
X44327837Y15115067D01*
X44313516Y15129388D01*
X44300675Y15144422D01*
X44297480Y15148820D01*
X44288767Y15160812D01*
X44254690Y15189003D01*
X44245911Y15196993D01*
X42780583Y16662321D01*
X41375644Y18067261D01*
X41341619Y18129571D01*
X41346684Y18200386D01*
X41375800Y18245605D01*
X41410500Y18280184D01*
X41487596Y18357011D01*
X41617953Y18538423D01*
X41619276Y18537472D01*
X41666145Y18580643D01*
X41736080Y18592875D01*
X41801526Y18565356D01*
X41829375Y18533506D01*
X41889487Y18435412D01*
X42035750Y18266562D01*
X42207626Y18123868D01*
X42400500Y18011162D01*
X42405325Y18009320D01*
X42405326Y18009319D01*
X42435986Y17997611D01*
X42609192Y17931470D01*
X42614260Y17930439D01*
X42614263Y17930438D01*
X42671594Y17918774D01*
X42828097Y17886933D01*
X42833272Y17886743D01*
X42833274Y17886743D01*
X43046173Y17878936D01*
X43046177Y17878936D01*
X43051337Y17878747D01*
X43056457Y17879403D01*
X43056459Y17879403D01*
X43267788Y17906475D01*
X43267789Y17906475D01*
X43272916Y17907132D01*
X43277869Y17908618D01*
X43481929Y17969839D01*
X43481934Y17969841D01*
X43486884Y17971326D01*
X43687494Y18069604D01*
X43869360Y18199327D01*
X44027596Y18357011D01*
X44157953Y18538423D01*
X44159276Y18537472D01*
X44206145Y18580643D01*
X44276080Y18592875D01*
X44341526Y18565356D01*
X44369375Y18533506D01*
X44429487Y18435412D01*
X44575750Y18266562D01*
X44747626Y18123868D01*
X44940500Y18011162D01*
X44945325Y18009320D01*
X44945326Y18009319D01*
X44975986Y17997611D01*
X45149192Y17931470D01*
X45154260Y17930439D01*
X45154263Y17930438D01*
X45211594Y17918774D01*
X45368097Y17886933D01*
X45373272Y17886743D01*
X45373274Y17886743D01*
X45586173Y17878936D01*
X45586177Y17878936D01*
X45591337Y17878747D01*
X45596457Y17879403D01*
X45596459Y17879403D01*
X45807788Y17906475D01*
X45807789Y17906475D01*
X45812916Y17907132D01*
X45817869Y17908618D01*
X46021929Y17969839D01*
X46021934Y17969841D01*
X46026884Y17971326D01*
X46227494Y18069604D01*
X46409360Y18199327D01*
X46517591Y18307181D01*
X46579962Y18341096D01*
X46650768Y18335908D01*
X46707530Y18293262D01*
X46724512Y18262159D01*
X46768885Y18143795D01*
X46856239Y18027239D01*
X46972795Y17939885D01*
X47109184Y17888755D01*
X47171366Y17882000D01*
X48967634Y17882000D01*
X49029816Y17888755D01*
X49166205Y17939885D01*
X49282761Y18027239D01*
X49370115Y18143795D01*
X49421245Y18280184D01*
X49428000Y18342366D01*
X49428000Y20138634D01*
X49421245Y20200816D01*
X49370115Y20337205D01*
X49282761Y20453761D01*
X49166205Y20541115D01*
X49029816Y20592245D01*
X48967634Y20599000D01*
X47171366Y20599000D01*
X47109184Y20592245D01*
X46972795Y20541115D01*
X46856239Y20453761D01*
X46768885Y20337205D01*
X46765733Y20328797D01*
X46724419Y20218593D01*
X46681777Y20161829D01*
X46615216Y20137129D01*
X46545867Y20152337D01*
X46513243Y20178024D01*
X46462651Y20233625D01*
X46462642Y20233634D01*
X46459170Y20237449D01*
X46455119Y20240648D01*
X46455115Y20240652D01*
X46287914Y20372700D01*
X46287910Y20372702D01*
X46283859Y20375902D01*
X46088289Y20483862D01*
X46083420Y20485586D01*
X46083416Y20485588D01*
X45882587Y20556705D01*
X45882583Y20556706D01*
X45877712Y20558431D01*
X45872619Y20559338D01*
X45872616Y20559339D01*
X45662873Y20596700D01*
X45662867Y20596701D01*
X45657784Y20597606D01*
X45583952Y20598508D01*
X45439581Y20600272D01*
X45439579Y20600272D01*
X45434411Y20600335D01*
X45213591Y20566545D01*
X45001256Y20497143D01*
X44970943Y20481363D01*
X44875805Y20431837D01*
X44803107Y20393993D01*
X44798974Y20390890D01*
X44798971Y20390888D01*
X44700290Y20316796D01*
X44624465Y20259865D01*
X44585025Y20218593D01*
X44530780Y20161829D01*
X44470129Y20098362D01*
X44362701Y19940879D01*
X44307793Y19895879D01*
X44237268Y19887708D01*
X44173521Y19918962D01*
X44152824Y19943446D01*
X44072322Y20067883D01*
X44072320Y20067886D01*
X44069514Y20072223D01*
X43919170Y20237449D01*
X43915119Y20240648D01*
X43915115Y20240652D01*
X43747914Y20372700D01*
X43747910Y20372702D01*
X43743859Y20375902D01*
X43548289Y20483862D01*
X43543420Y20485586D01*
X43543416Y20485588D01*
X43342587Y20556705D01*
X43342583Y20556706D01*
X43337712Y20558431D01*
X43332619Y20559338D01*
X43332616Y20559339D01*
X43122873Y20596700D01*
X43122867Y20596701D01*
X43117784Y20597606D01*
X43043952Y20598508D01*
X42899581Y20600272D01*
X42899579Y20600272D01*
X42894411Y20600335D01*
X42673591Y20566545D01*
X42461256Y20497143D01*
X42430943Y20481363D01*
X42335805Y20431837D01*
X42263107Y20393993D01*
X42258974Y20390890D01*
X42258971Y20390888D01*
X42160290Y20316796D01*
X42084465Y20259865D01*
X42045025Y20218593D01*
X41990780Y20161829D01*
X41930129Y20098362D01*
X41822701Y19940879D01*
X41767793Y19895879D01*
X41697268Y19887708D01*
X41633521Y19918962D01*
X41612824Y19943446D01*
X41532322Y20067883D01*
X41532320Y20067886D01*
X41529514Y20072223D01*
X41379170Y20237449D01*
X41375119Y20240648D01*
X41375115Y20240652D01*
X41207914Y20372700D01*
X41207910Y20372702D01*
X41203859Y20375902D01*
X41008289Y20483862D01*
X41003420Y20485586D01*
X41003416Y20485588D01*
X40802587Y20556705D01*
X40802583Y20556706D01*
X40797712Y20558431D01*
X40792619Y20559338D01*
X40792616Y20559339D01*
X40582873Y20596700D01*
X40582867Y20596701D01*
X40577784Y20597606D01*
X40503952Y20598508D01*
X40359581Y20600272D01*
X40359579Y20600272D01*
X40354411Y20600335D01*
X40133591Y20566545D01*
X39921256Y20497143D01*
X39890943Y20481363D01*
X39795805Y20431837D01*
X39723107Y20393993D01*
X39718974Y20390890D01*
X39718971Y20390888D01*
X39620290Y20316796D01*
X39544465Y20259865D01*
X39505025Y20218593D01*
X39450780Y20161829D01*
X39390129Y20098362D01*
X39282701Y19940879D01*
X39227793Y19895879D01*
X39157268Y19887708D01*
X39093521Y19918962D01*
X39072824Y19943446D01*
X38992322Y20067883D01*
X38992320Y20067886D01*
X38989514Y20072223D01*
X38840845Y20235608D01*
X38840844Y20235610D01*
X38839170Y20237449D01*
X38839550Y20237795D01*
X38805065Y20296033D01*
X38807662Y20366982D01*
X38838084Y20416180D01*
X40208499Y21786595D01*
X40270811Y21820621D01*
X40302211Y21823415D01*
X40506173Y21815936D01*
X40506177Y21815936D01*
X40511337Y21815747D01*
X40516457Y21816403D01*
X40516459Y21816403D01*
X40727788Y21843475D01*
X40727789Y21843475D01*
X40732916Y21844132D01*
X40771934Y21855838D01*
X40941929Y21906839D01*
X40941934Y21906841D01*
X40946884Y21908326D01*
X41147494Y22006604D01*
X41329360Y22136327D01*
X41336055Y22142998D01*
X41483935Y22290363D01*
X41487596Y22294011D01*
X41617953Y22475423D01*
X41619276Y22474472D01*
X41666145Y22517643D01*
X41736080Y22529875D01*
X41801526Y22502356D01*
X41829375Y22470506D01*
X41889487Y22372412D01*
X42035750Y22203562D01*
X42207626Y22060868D01*
X42400500Y21948162D01*
X42405325Y21946320D01*
X42405326Y21946319D01*
X42447037Y21930391D01*
X42609192Y21868470D01*
X42614260Y21867439D01*
X42614263Y21867438D01*
X42710380Y21847883D01*
X42828097Y21823933D01*
X42833272Y21823743D01*
X42833274Y21823743D01*
X43046173Y21815936D01*
X43046177Y21815936D01*
X43051337Y21815747D01*
X43056457Y21816403D01*
X43056459Y21816403D01*
X43267788Y21843475D01*
X43267789Y21843475D01*
X43272916Y21844132D01*
X43311934Y21855838D01*
X43481929Y21906839D01*
X43481934Y21906841D01*
X43486884Y21908326D01*
X43687494Y22006604D01*
X43869360Y22136327D01*
X43876055Y22142998D01*
X44023935Y22290363D01*
X44027596Y22294011D01*
X44157953Y22475423D01*
X44178820Y22517643D01*
X44254636Y22671047D01*
X44254637Y22671049D01*
X44256930Y22675689D01*
X44321870Y22889431D01*
X44351029Y23110910D01*
X44352656Y23177500D01*
X44334352Y23400139D01*
X44279931Y23616798D01*
X44190854Y23821660D01*
X44069514Y24009223D01*
X44066032Y24013050D01*
X43922298Y24171012D01*
X43891246Y24234858D01*
X43899641Y24305357D01*
X43944817Y24360125D01*
X43971261Y24373794D01*
X44077797Y24413733D01*
X44086205Y24416885D01*
X44202761Y24504239D01*
X44290115Y24620795D01*
X44341245Y24757184D01*
X44348000Y24819366D01*
X44348000Y26615634D01*
X44341245Y26677816D01*
X44290115Y26814205D01*
X44202761Y26930761D01*
X44086205Y27018115D01*
X43949816Y27069245D01*
X43887634Y27076000D01*
X42091366Y27076000D01*
X42029184Y27069245D01*
X41892795Y27018115D01*
X41776239Y26930761D01*
X41688885Y26814205D01*
X41685733Y26805797D01*
X41644419Y26695593D01*
X41601777Y26638829D01*
X41535216Y26614129D01*
X41465867Y26629337D01*
X41433243Y26655024D01*
X41382651Y26710625D01*
X41382642Y26710634D01*
X41379170Y26714449D01*
X41375119Y26717648D01*
X41375115Y26717652D01*
X41207914Y26849700D01*
X41207910Y26849702D01*
X41203859Y26852902D01*
X41180897Y26865578D01*
X41142335Y26886865D01*
X41008289Y26960862D01*
X41003420Y26962586D01*
X41003416Y26962588D01*
X40802587Y27033705D01*
X40802583Y27033706D01*
X40797712Y27035431D01*
X40792619Y27036338D01*
X40792616Y27036339D01*
X40582873Y27073700D01*
X40582867Y27073701D01*
X40577784Y27074606D01*
X40503952Y27075508D01*
X40359581Y27077272D01*
X40359579Y27077272D01*
X40354411Y27077335D01*
X40133591Y27043545D01*
X39921256Y26974143D01*
X39723107Y26870993D01*
X39718974Y26867890D01*
X39718971Y26867888D01*
X39548600Y26739970D01*
X39544465Y26736865D01*
X39506698Y26697344D01*
X39450780Y26638829D01*
X39390129Y26575362D01*
X39282701Y26417879D01*
X39227793Y26372879D01*
X39157268Y26364708D01*
X39093521Y26395962D01*
X39072824Y26420446D01*
X38992322Y26544883D01*
X38992320Y26544886D01*
X38989514Y26549223D01*
X38839170Y26714449D01*
X38835119Y26717648D01*
X38835115Y26717652D01*
X38667914Y26849700D01*
X38667910Y26849702D01*
X38663859Y26852902D01*
X38640897Y26865578D01*
X38602335Y26886865D01*
X38468289Y26960862D01*
X38463420Y26962586D01*
X38463416Y26962588D01*
X38262587Y27033705D01*
X38262583Y27033706D01*
X38257712Y27035431D01*
X38252619Y27036338D01*
X38252616Y27036339D01*
X38042873Y27073700D01*
X38042867Y27073701D01*
X38037784Y27074606D01*
X37963952Y27075508D01*
X37819581Y27077272D01*
X37819579Y27077272D01*
X37814411Y27077335D01*
X37593591Y27043545D01*
X37381256Y26974143D01*
X37183107Y26870993D01*
X37178974Y26867890D01*
X37178971Y26867888D01*
X37008600Y26739970D01*
X37004465Y26736865D01*
X36966698Y26697344D01*
X36910780Y26638829D01*
X36850129Y26575362D01*
X36742701Y26417879D01*
X36687793Y26372879D01*
X36617268Y26364708D01*
X36553521Y26395962D01*
X36532824Y26420446D01*
X36452322Y26544883D01*
X36452320Y26544886D01*
X36449514Y26549223D01*
X36299170Y26714449D01*
X36295119Y26717648D01*
X36295115Y26717652D01*
X36127914Y26849700D01*
X36127910Y26849702D01*
X36123859Y26852902D01*
X36100897Y26865578D01*
X36062335Y26886865D01*
X35928289Y26960862D01*
X35923420Y26962586D01*
X35923416Y26962588D01*
X35722587Y27033705D01*
X35722583Y27033706D01*
X35717712Y27035431D01*
X35712619Y27036338D01*
X35712616Y27036339D01*
X35502873Y27073700D01*
X35502867Y27073701D01*
X35497784Y27074606D01*
X35423952Y27075508D01*
X35279581Y27077272D01*
X35279579Y27077272D01*
X35274411Y27077335D01*
X35053591Y27043545D01*
X34841256Y26974143D01*
X34643107Y26870993D01*
X34638974Y26867890D01*
X34638971Y26867888D01*
X34468600Y26739970D01*
X34464465Y26736865D01*
X34426698Y26697344D01*
X34370780Y26638829D01*
X34310129Y26575362D01*
X34202701Y26417879D01*
X34147793Y26372879D01*
X34077268Y26364708D01*
X34013521Y26395962D01*
X33992824Y26420446D01*
X33912322Y26544883D01*
X33912320Y26544886D01*
X33909514Y26549223D01*
X33759170Y26714449D01*
X33755119Y26717648D01*
X33755115Y26717652D01*
X33587914Y26849700D01*
X33587910Y26849702D01*
X33583859Y26852902D01*
X33560897Y26865578D01*
X33522335Y26886865D01*
X33388289Y26960862D01*
X33383420Y26962586D01*
X33383416Y26962588D01*
X33182587Y27033705D01*
X33182583Y27033706D01*
X33177712Y27035431D01*
X33172619Y27036338D01*
X33172616Y27036339D01*
X32962873Y27073700D01*
X32962867Y27073701D01*
X32957784Y27074606D01*
X32883952Y27075508D01*
X32739581Y27077272D01*
X32739579Y27077272D01*
X32734411Y27077335D01*
X32513591Y27043545D01*
X32301256Y26974143D01*
X32103107Y26870993D01*
X32098974Y26867890D01*
X32098971Y26867888D01*
X31928600Y26739970D01*
X31924465Y26736865D01*
X31886698Y26697344D01*
X31830780Y26638829D01*
X31770129Y26575362D01*
X31662701Y26417879D01*
X31607793Y26372879D01*
X31537268Y26364708D01*
X31473521Y26395962D01*
X31452824Y26420446D01*
X31372322Y26544883D01*
X31372320Y26544886D01*
X31369514Y26549223D01*
X31219170Y26714449D01*
X31215119Y26717648D01*
X31215115Y26717652D01*
X31047914Y26849700D01*
X31047910Y26849702D01*
X31043859Y26852902D01*
X31020897Y26865578D01*
X30982335Y26886865D01*
X30848289Y26960862D01*
X30843420Y26962586D01*
X30843416Y26962588D01*
X30642587Y27033705D01*
X30642583Y27033706D01*
X30637712Y27035431D01*
X30632619Y27036338D01*
X30632616Y27036339D01*
X30422873Y27073700D01*
X30422867Y27073701D01*
X30417784Y27074606D01*
X30343952Y27075508D01*
X30199581Y27077272D01*
X30199579Y27077272D01*
X30194411Y27077335D01*
X29973591Y27043545D01*
X29761256Y26974143D01*
X29563107Y26870993D01*
X29560675Y26869167D01*
X29492969Y26849965D01*
X29425036Y26870597D01*
X29405039Y26886865D01*
X27959652Y28332253D01*
X27952112Y28340539D01*
X27948000Y28347018D01*
X27898348Y28393644D01*
X27895507Y28396398D01*
X27875770Y28416135D01*
X27872573Y28418615D01*
X27863551Y28426320D01*
X27856876Y28432588D01*
X27831321Y28456586D01*
X27824375Y28460405D01*
X27824372Y28460407D01*
X27813566Y28466348D01*
X27797047Y28477199D01*
X27796583Y28477559D01*
X27781041Y28489614D01*
X27773772Y28492759D01*
X27773768Y28492762D01*
X27740463Y28507174D01*
X27729813Y28512391D01*
X27691060Y28533695D01*
X27671437Y28538733D01*
X27652734Y28545137D01*
X27641420Y28550033D01*
X27641419Y28550033D01*
X27634145Y28553181D01*
X27626322Y28554420D01*
X27626312Y28554423D01*
X27590476Y28560099D01*
X27578856Y28562505D01*
X27543711Y28571528D01*
X27543710Y28571528D01*
X27536030Y28573500D01*
X27515776Y28573500D01*
X27496065Y28575051D01*
X27483886Y28576980D01*
X27476057Y28578220D01*
X27446786Y28575453D01*
X27432039Y28574059D01*
X27420181Y28573500D01*
X6428767Y28573500D01*
X6417584Y28574027D01*
X6410091Y28575702D01*
X6402165Y28575453D01*
X6402164Y28575453D01*
X6342014Y28573562D01*
X6338055Y28573500D01*
X6310144Y28573500D01*
X6306210Y28573003D01*
X6306209Y28573003D01*
X6306144Y28572995D01*
X6294307Y28572062D01*
X6262049Y28571048D01*
X6258030Y28570922D01*
X6250111Y28570673D01*
X6230657Y28565021D01*
X6211300Y28561013D01*
X6199070Y28559468D01*
X6199069Y28559468D01*
X6191203Y28558474D01*
X6183832Y28555555D01*
X6183830Y28555555D01*
X6150088Y28542196D01*
X6138858Y28538351D01*
X6104017Y28528229D01*
X6104016Y28528229D01*
X6096407Y28526018D01*
X6089588Y28521985D01*
X6089583Y28521983D01*
X6078972Y28515707D01*
X6061224Y28507012D01*
X6042383Y28499552D01*
X6035967Y28494890D01*
X6035966Y28494890D01*
X6006613Y28473564D01*
X5996693Y28467048D01*
X5965465Y28448580D01*
X5965462Y28448578D01*
X5958638Y28444542D01*
X5944317Y28430221D01*
X5929284Y28417381D01*
X5912893Y28405472D01*
X5904217Y28394984D01*
X5884702Y28371395D01*
X5876712Y28362616D01*
X2338247Y24824152D01*
X2329961Y24816612D01*
X2323482Y24812500D01*
X2318057Y24806723D01*
X2276857Y24762849D01*
X2274102Y24760007D01*
X2254365Y24740270D01*
X2251885Y24737073D01*
X2244182Y24728053D01*
X2213914Y24695821D01*
X2210095Y24688875D01*
X2210093Y24688872D01*
X2204152Y24678066D01*
X2193301Y24661547D01*
X2180886Y24645541D01*
X2177741Y24638272D01*
X2177738Y24638268D01*
X2163326Y24604963D01*
X2158109Y24594313D01*
X2136805Y24555560D01*
X2134834Y24547885D01*
X2134834Y24547884D01*
X2131767Y24535938D01*
X2125363Y24517234D01*
X2117319Y24498645D01*
X2116080Y24490822D01*
X2116077Y24490812D01*
X2110401Y24454976D01*
X2107995Y24443356D01*
X2098972Y24408211D01*
X2097000Y24400530D01*
X2097000Y24380276D01*
X2095449Y24360566D01*
X2092280Y24340557D01*
X2093026Y24332665D01*
X2096441Y24296539D01*
X2097000Y24284681D01*
X2097000Y18176267D01*
X2096473Y18165084D01*
X2094798Y18157591D01*
X2095047Y18149665D01*
X2095047Y18149664D01*
X2096938Y18089514D01*
X2097000Y18085555D01*
X2097000Y18057644D01*
X2097497Y18053710D01*
X2097497Y18053709D01*
X2097505Y18053644D01*
X2098438Y18041807D01*
X2099827Y17997611D01*
X2105478Y17978161D01*
X2109487Y17958800D01*
X2112026Y17938703D01*
X2114945Y17931332D01*
X2114945Y17931330D01*
X2128304Y17897588D01*
X2132149Y17886358D01*
X2144482Y17843907D01*
X2148515Y17837088D01*
X2148517Y17837083D01*
X2154793Y17826472D01*
X2163488Y17808724D01*
X2170948Y17789883D01*
X2175610Y17783467D01*
X2175610Y17783466D01*
X2196936Y17754113D01*
X2203452Y17744193D01*
X2225958Y17706138D01*
X2240279Y17691817D01*
X2253119Y17676784D01*
X2265028Y17660393D01*
X2271134Y17655342D01*
X2299105Y17632202D01*
X2307884Y17624212D01*
X3055001Y16877095D01*
X3089027Y16814783D01*
X3083962Y16743968D01*
X3041415Y16687132D01*
X2974895Y16662321D01*
X2965906Y16662000D01*
X1832366Y16662000D01*
X1770184Y16655245D01*
X1633795Y16604115D01*
X1517239Y16516761D01*
X1429885Y16400205D01*
X1378755Y16263816D01*
X1372000Y16201634D01*
X1372000Y14405366D01*
X508500Y14405366D01*
X508500Y26434834D01*
X528502Y26502955D01*
X582158Y26549448D01*
X652432Y26559552D01*
X716331Y26530645D01*
X797214Y26461564D01*
X1006012Y26333613D01*
X1010582Y26331720D01*
X1010586Y26331718D01*
X1227681Y26241794D01*
X1227683Y26241793D01*
X1232254Y26239900D01*
X1284204Y26227428D01*
X1465559Y26183888D01*
X1465565Y26183887D01*
X1470372Y26182733D01*
X1714500Y26163520D01*
X1958628Y26182733D01*
X1963435Y26183887D01*
X1963441Y26183888D01*
X2144796Y26227428D01*
X2196746Y26239900D01*
X2201317Y26241793D01*
X2201319Y26241794D01*
X2418414Y26331718D01*
X2418418Y26331720D01*
X2422988Y26333613D01*
X2631786Y26461564D01*
X2635546Y26464776D01*
X2635551Y26464779D01*
X2814235Y26617390D01*
X2817997Y26620603D01*
X2862998Y26673292D01*
X2973821Y26803049D01*
X2973824Y26803054D01*
X2977036Y26806814D01*
X3104987Y27015612D01*
X3107330Y27021267D01*
X3196806Y27237281D01*
X3196807Y27237283D01*
X3198700Y27241854D01*
X3223015Y27343133D01*
X3254712Y27475159D01*
X3254713Y27475165D01*
X3255867Y27479972D01*
X3275080Y27724100D01*
X3255867Y27968228D01*
X3246034Y28009188D01*
X3199855Y28201534D01*
X3198700Y28206346D01*
X3183666Y28242641D01*
X3106882Y28428014D01*
X3106880Y28428018D01*
X3104987Y28432588D01*
X2977036Y28641386D01*
X2973824Y28645146D01*
X2973821Y28645151D01*
X2886261Y28747670D01*
X2857230Y28812459D01*
X2867835Y28882659D01*
X2914710Y28935982D01*
X2982072Y28955500D01*
X50330263Y28955500D01*
X50398384Y28935498D01*
G37*
%TD.AperFunction*%
%TA.AperFunction,Conductor*%
G36*
X8662232Y26386476D02*
G01*
X8708725Y26332820D01*
X8718829Y26262546D01*
X8708399Y26227428D01*
X8690188Y26188195D01*
X8630489Y25972930D01*
X8606751Y25750805D01*
X8619610Y25527785D01*
X8620747Y25522739D01*
X8620748Y25522733D01*
X8644804Y25415992D01*
X8668722Y25309861D01*
X8701223Y25229820D01*
X8717025Y25190904D01*
X8724121Y25120263D01*
X8691899Y25056999D01*
X8630589Y25021199D01*
X8600282Y25017500D01*
X7698768Y25017500D01*
X7687585Y25018027D01*
X7680092Y25019702D01*
X7672166Y25019453D01*
X7672165Y25019453D01*
X7612002Y25017562D01*
X7608044Y25017500D01*
X7580144Y25017500D01*
X7576154Y25016996D01*
X7564320Y25016064D01*
X7520111Y25014674D01*
X7512497Y25012462D01*
X7512492Y25012461D01*
X7500659Y25009023D01*
X7481296Y25005012D01*
X7461203Y25002474D01*
X7453836Y24999557D01*
X7453831Y24999556D01*
X7420092Y24986198D01*
X7408865Y24982354D01*
X7366407Y24970018D01*
X7359581Y24965981D01*
X7348972Y24959707D01*
X7331224Y24951012D01*
X7312383Y24943552D01*
X7305967Y24938890D01*
X7305966Y24938890D01*
X7276613Y24917564D01*
X7266693Y24911048D01*
X7235465Y24892580D01*
X7235462Y24892578D01*
X7228638Y24888542D01*
X7214317Y24874221D01*
X7199284Y24861381D01*
X7182893Y24849472D01*
X7160814Y24822783D01*
X7154702Y24815395D01*
X7146712Y24806616D01*
X5783780Y23443685D01*
X5775494Y23436145D01*
X5769015Y23432033D01*
X5763590Y23426256D01*
X5722390Y23382382D01*
X5719635Y23379540D01*
X5699898Y23359803D01*
X5697418Y23356606D01*
X5689715Y23347586D01*
X5659447Y23315354D01*
X5655628Y23308408D01*
X5655626Y23308405D01*
X5649685Y23297599D01*
X5638834Y23281080D01*
X5626419Y23265074D01*
X5623274Y23257805D01*
X5623271Y23257801D01*
X5608859Y23224496D01*
X5603642Y23213846D01*
X5582338Y23175093D01*
X5580367Y23167418D01*
X5580367Y23167417D01*
X5577300Y23155471D01*
X5570896Y23136767D01*
X5562852Y23118178D01*
X5561613Y23110355D01*
X5561610Y23110345D01*
X5555934Y23074509D01*
X5553528Y23062889D01*
X5542533Y23020063D01*
X5542533Y22999809D01*
X5540982Y22980099D01*
X5537813Y22960090D01*
X5538559Y22952198D01*
X5541974Y22916072D01*
X5542533Y22904214D01*
X5542533Y20628775D01*
X5522531Y20560654D01*
X5468875Y20514161D01*
X5398601Y20504057D01*
X5374474Y20510002D01*
X5242591Y20556704D01*
X5242583Y20556706D01*
X5237712Y20558431D01*
X5232619Y20559338D01*
X5232616Y20559339D01*
X5022873Y20596700D01*
X5022867Y20596701D01*
X5017784Y20597606D01*
X4943952Y20598508D01*
X4799581Y20600272D01*
X4799579Y20600272D01*
X4794411Y20600335D01*
X4573591Y20566545D01*
X4479310Y20535729D01*
X4429167Y20519340D01*
X4358203Y20517189D01*
X4297341Y20553745D01*
X4265905Y20617403D01*
X4264022Y20639105D01*
X4264022Y23633108D01*
X4284024Y23701229D01*
X4300927Y23722203D01*
X6948297Y26369573D01*
X7010609Y26403599D01*
X7037392Y26406478D01*
X8594111Y26406478D01*
X8662232Y26386476D01*
G37*
%TD.AperFunction*%
%TD*%
M02*
