%TF.GenerationSoftware,KiCad,Pcbnew,(6.0.10)*%
%TF.CreationDate,2023-02-12T20:01:58+09:00*%
%TF.ProjectId,joystick_74hc165_input_smd,6a6f7973-7469-4636-9b5f-373468633136,2*%
%TF.SameCoordinates,PX7e249a4PY6c1eee4*%
%TF.FileFunction,Legend,Top*%
%TF.FilePolarity,Positive*%
%FSLAX46Y46*%
G04 Gerber Fmt 4.6, Leading zero omitted, Abs format (unit mm)*
G04 Created by KiCad (PCBNEW (6.0.10)) date 2023-02-12 20:01:58*
%MOMM*%
%LPD*%
G01*
G04 APERTURE LIST*
G04 Aperture macros list*
%AMRoundRect*
0 Rectangle with rounded corners*
0 $1 Rounding radius*
0 $2 $3 $4 $5 $6 $7 $8 $9 X,Y pos of 4 corners*
0 Add a 4 corners polygon primitive as box body*
4,1,4,$2,$3,$4,$5,$6,$7,$8,$9,$2,$3,0*
0 Add four circle primitives for the rounded corners*
1,1,$1+$1,$2,$3*
1,1,$1+$1,$4,$5*
1,1,$1+$1,$6,$7*
1,1,$1+$1,$8,$9*
0 Add four rect primitives between the rounded corners*
20,1,$1+$1,$2,$3,$4,$5,0*
20,1,$1+$1,$4,$5,$6,$7,0*
20,1,$1+$1,$6,$7,$8,$9,0*
20,1,$1+$1,$8,$9,$2,$3,0*%
G04 Aperture macros list end*
%ADD10C,0.150000*%
%ADD11C,0.100000*%
%ADD12C,0.125000*%
%ADD13C,0.120000*%
%ADD14R,1.700000X1.700000*%
%ADD15O,1.700000X1.700000*%
%ADD16R,0.900000X0.400000*%
%ADD17RoundRect,0.250000X-0.337500X-0.475000X0.337500X-0.475000X0.337500X0.475000X-0.337500X0.475000X0*%
%ADD18RoundRect,0.150000X-0.825000X-0.150000X0.825000X-0.150000X0.825000X0.150000X-0.825000X0.150000X0*%
%ADD19R,1.000000X1.500000*%
%ADD20RoundRect,0.250000X0.337500X0.475000X-0.337500X0.475000X-0.337500X-0.475000X0.337500X-0.475000X0*%
G04 APERTURE END LIST*
D10*
X5073595Y15697167D02*
X4273595Y15430500D01*
X5073595Y15163834D01*
X4356166Y16884691D02*
X4470452Y16846596D01*
X4660928Y16846596D01*
X4737119Y16884691D01*
X4775214Y16922786D01*
X4813309Y16998977D01*
X4813309Y17075167D01*
X4775214Y17151358D01*
X4737119Y17189453D01*
X4660928Y17227548D01*
X4508547Y17265643D01*
X4432357Y17303739D01*
X4394261Y17341834D01*
X4356166Y17418024D01*
X4356166Y17494215D01*
X4394261Y17570405D01*
X4432357Y17608500D01*
X4508547Y17646596D01*
X4699023Y17646596D01*
X4813309Y17608500D01*
X5041880Y17646596D02*
X5499023Y17646596D01*
X5270452Y16846596D02*
X5270452Y17646596D01*
X52825595Y15697167D02*
X52025595Y15430500D01*
X52825595Y15163834D01*
D11*
X12194500Y4374334D02*
X12194500Y5074334D01*
X12361166Y5074334D01*
X12461166Y5041000D01*
X12527833Y4974334D01*
X12561166Y4907667D01*
X12594500Y4774334D01*
X12594500Y4674334D01*
X12561166Y4541000D01*
X12527833Y4474334D01*
X12461166Y4407667D01*
X12361166Y4374334D01*
X12194500Y4374334D01*
X12861166Y4407667D02*
X12961166Y4374334D01*
X13127833Y4374334D01*
X13194500Y4407667D01*
X13227833Y4441000D01*
X13261166Y4507667D01*
X13261166Y4574334D01*
X13227833Y4641000D01*
X13194500Y4674334D01*
X13127833Y4707667D01*
X12994500Y4741000D01*
X12927833Y4774334D01*
X12894500Y4807667D01*
X12861166Y4874334D01*
X12861166Y4941000D01*
X12894500Y5007667D01*
X12927833Y5041000D01*
X12994500Y5074334D01*
X13161166Y5074334D01*
X13261166Y5041000D01*
X13561166Y4641000D02*
X14094500Y4641000D01*
X12644500Y3180667D02*
X12577833Y3214000D01*
X12511166Y3280667D01*
X12411166Y3380667D01*
X12344500Y3414000D01*
X12277833Y3414000D01*
X12311166Y3247334D02*
X12244500Y3280667D01*
X12177833Y3347334D01*
X12144500Y3480667D01*
X12144500Y3714000D01*
X12177833Y3847334D01*
X12244500Y3914000D01*
X12311166Y3947334D01*
X12444500Y3947334D01*
X12511166Y3914000D01*
X12577833Y3847334D01*
X12611166Y3714000D01*
X12611166Y3480667D01*
X12577833Y3347334D01*
X12511166Y3280667D01*
X12444500Y3247334D01*
X12311166Y3247334D01*
X12844500Y3947334D02*
X13311166Y3947334D01*
X13011166Y3247334D01*
X13577833Y3514000D02*
X14111166Y3514000D01*
X39245500Y4374334D02*
X39245500Y5074334D01*
X39412166Y5074334D01*
X39512166Y5041000D01*
X39578833Y4974334D01*
X39612166Y4907667D01*
X39645500Y4774334D01*
X39645500Y4674334D01*
X39612166Y4541000D01*
X39578833Y4474334D01*
X39512166Y4407667D01*
X39412166Y4374334D01*
X39245500Y4374334D01*
X39912166Y4407667D02*
X40012166Y4374334D01*
X40178833Y4374334D01*
X40245500Y4407667D01*
X40278833Y4441000D01*
X40312166Y4507667D01*
X40312166Y4574334D01*
X40278833Y4641000D01*
X40245500Y4674334D01*
X40178833Y4707667D01*
X40045500Y4741000D01*
X39978833Y4774334D01*
X39945500Y4807667D01*
X39912166Y4874334D01*
X39912166Y4941000D01*
X39945500Y5007667D01*
X39978833Y5041000D01*
X40045500Y5074334D01*
X40212166Y5074334D01*
X40312166Y5041000D01*
X40612166Y4641000D02*
X41145500Y4641000D01*
X39695500Y3180667D02*
X39628833Y3214000D01*
X39562166Y3280667D01*
X39462166Y3380667D01*
X39395500Y3414000D01*
X39328833Y3414000D01*
X39362166Y3247334D02*
X39295500Y3280667D01*
X39228833Y3347334D01*
X39195500Y3480667D01*
X39195500Y3714000D01*
X39228833Y3847334D01*
X39295500Y3914000D01*
X39362166Y3947334D01*
X39495500Y3947334D01*
X39562166Y3914000D01*
X39628833Y3847334D01*
X39662166Y3714000D01*
X39662166Y3480667D01*
X39628833Y3347334D01*
X39562166Y3280667D01*
X39495500Y3247334D01*
X39362166Y3247334D01*
X39895500Y3947334D02*
X40362166Y3947334D01*
X40062166Y3247334D01*
X40628833Y3514000D02*
X41162166Y3514000D01*
D10*
X7277119Y16846596D02*
X6819976Y16846596D01*
X7048547Y16846596D02*
X7048547Y17646596D01*
X6972357Y17532310D01*
X6896166Y17456120D01*
X6819976Y17418024D01*
X7962833Y17646596D02*
X7810452Y17646596D01*
X7734261Y17608500D01*
X7696166Y17570405D01*
X7619976Y17456120D01*
X7581880Y17303739D01*
X7581880Y16998977D01*
X7619976Y16922786D01*
X7658071Y16884691D01*
X7734261Y16846596D01*
X7886642Y16846596D01*
X7962833Y16884691D01*
X8000928Y16922786D01*
X8039023Y16998977D01*
X8039023Y17189453D01*
X8000928Y17265643D01*
X7962833Y17303739D01*
X7886642Y17341834D01*
X7734261Y17341834D01*
X7658071Y17303739D01*
X7619976Y17265643D01*
X7581880Y17189453D01*
X14897119Y16846596D02*
X14439976Y16846596D01*
X14668547Y16846596D02*
X14668547Y17646596D01*
X14592357Y17532310D01*
X14516166Y17456120D01*
X14439976Y17418024D01*
X15163785Y17646596D02*
X15659023Y17646596D01*
X15392357Y17341834D01*
X15506642Y17341834D01*
X15582833Y17303739D01*
X15620928Y17265643D01*
X15659023Y17189453D01*
X15659023Y16998977D01*
X15620928Y16922786D01*
X15582833Y16884691D01*
X15506642Y16846596D01*
X15278071Y16846596D01*
X15201880Y16884691D01*
X15163785Y16922786D01*
X17437119Y27260596D02*
X16979976Y27260596D01*
X17208547Y27260596D02*
X17208547Y28060596D01*
X17132357Y27946310D01*
X17056166Y27870120D01*
X16979976Y27832024D01*
X17932357Y28060596D02*
X18008547Y28060596D01*
X18084738Y28022500D01*
X18122833Y27984405D01*
X18160928Y27908215D01*
X18199023Y27755834D01*
X18199023Y27565358D01*
X18160928Y27412977D01*
X18122833Y27336786D01*
X18084738Y27298691D01*
X18008547Y27260596D01*
X17932357Y27260596D01*
X17856166Y27298691D01*
X17818071Y27336786D01*
X17779976Y27412977D01*
X17741880Y27565358D01*
X17741880Y27755834D01*
X17779976Y27908215D01*
X17818071Y27984405D01*
X17856166Y28022500D01*
X17932357Y28060596D01*
X22593309Y27717739D02*
X22517119Y27755834D01*
X22479023Y27793929D01*
X22440928Y27870120D01*
X22440928Y27908215D01*
X22479023Y27984405D01*
X22517119Y28022500D01*
X22593309Y28060596D01*
X22745690Y28060596D01*
X22821880Y28022500D01*
X22859976Y27984405D01*
X22898071Y27908215D01*
X22898071Y27870120D01*
X22859976Y27793929D01*
X22821880Y27755834D01*
X22745690Y27717739D01*
X22593309Y27717739D01*
X22517119Y27679643D01*
X22479023Y27641548D01*
X22440928Y27565358D01*
X22440928Y27412977D01*
X22479023Y27336786D01*
X22517119Y27298691D01*
X22593309Y27260596D01*
X22745690Y27260596D01*
X22821880Y27298691D01*
X22859976Y27336786D01*
X22898071Y27412977D01*
X22898071Y27565358D01*
X22859976Y27641548D01*
X22821880Y27679643D01*
X22745690Y27717739D01*
X27901880Y28060596D02*
X27749500Y28060596D01*
X27673309Y28022500D01*
X27635214Y27984405D01*
X27559023Y27870120D01*
X27520928Y27717739D01*
X27520928Y27412977D01*
X27559023Y27336786D01*
X27597119Y27298691D01*
X27673309Y27260596D01*
X27825690Y27260596D01*
X27901880Y27298691D01*
X27939976Y27336786D01*
X27978071Y27412977D01*
X27978071Y27603453D01*
X27939976Y27679643D01*
X27901880Y27717739D01*
X27825690Y27755834D01*
X27673309Y27755834D01*
X27597119Y27717739D01*
X27559023Y27679643D01*
X27520928Y27603453D01*
X24942833Y28060596D02*
X25476166Y28060596D01*
X25133309Y27260596D01*
X19977119Y27260596D02*
X20129500Y27260596D01*
X20205690Y27298691D01*
X20243785Y27336786D01*
X20319976Y27451072D01*
X20358071Y27603453D01*
X20358071Y27908215D01*
X20319976Y27984405D01*
X20281880Y28022500D01*
X20205690Y28060596D01*
X20053309Y28060596D01*
X19977119Y28022500D01*
X19939023Y27984405D01*
X19900928Y27908215D01*
X19900928Y27717739D01*
X19939023Y27641548D01*
X19977119Y27603453D01*
X20053309Y27565358D01*
X20205690Y27565358D01*
X20281880Y27603453D01*
X20319976Y27641548D01*
X20358071Y27717739D01*
X32854880Y27793929D02*
X32854880Y27260596D01*
X32664404Y28098691D02*
X32473928Y27527262D01*
X32969166Y27527262D01*
X37680928Y27984405D02*
X37719023Y28022500D01*
X37795214Y28060596D01*
X37985690Y28060596D01*
X38061880Y28022500D01*
X38099976Y27984405D01*
X38138071Y27908215D01*
X38138071Y27832024D01*
X38099976Y27717739D01*
X37642833Y27260596D01*
X38138071Y27260596D01*
X40678071Y27260596D02*
X40220928Y27260596D01*
X40449500Y27260596D02*
X40449500Y28060596D01*
X40373309Y27946310D01*
X40297119Y27870120D01*
X40220928Y27832024D01*
X30479976Y28060596D02*
X30099023Y28060596D01*
X30060928Y27679643D01*
X30099023Y27717739D01*
X30175214Y27755834D01*
X30365690Y27755834D01*
X30441880Y27717739D01*
X30479976Y27679643D01*
X30518071Y27603453D01*
X30518071Y27412977D01*
X30479976Y27336786D01*
X30441880Y27298691D01*
X30365690Y27260596D01*
X30175214Y27260596D01*
X30099023Y27298691D01*
X30060928Y27336786D01*
X14897119Y27260596D02*
X14439976Y27260596D01*
X14668547Y27260596D02*
X14668547Y28060596D01*
X14592357Y27946310D01*
X14516166Y27870120D01*
X14439976Y27832024D01*
X15659023Y27260596D02*
X15201880Y27260596D01*
X15430452Y27260596D02*
X15430452Y28060596D01*
X15354261Y27946310D01*
X15278071Y27870120D01*
X15201880Y27832024D01*
X12357119Y27260596D02*
X11899976Y27260596D01*
X12128547Y27260596D02*
X12128547Y28060596D01*
X12052357Y27946310D01*
X11976166Y27870120D01*
X11899976Y27832024D01*
X12661880Y27984405D02*
X12699976Y28022500D01*
X12776166Y28060596D01*
X12966642Y28060596D01*
X13042833Y28022500D01*
X13080928Y27984405D01*
X13119023Y27908215D01*
X13119023Y27832024D01*
X13080928Y27717739D01*
X12623785Y27260596D01*
X13119023Y27260596D01*
X42456166Y27298691D02*
X42570452Y27260596D01*
X42760928Y27260596D01*
X42837119Y27298691D01*
X42875214Y27336786D01*
X42913309Y27412977D01*
X42913309Y27489167D01*
X42875214Y27565358D01*
X42837119Y27603453D01*
X42760928Y27641548D01*
X42608547Y27679643D01*
X42532357Y27717739D01*
X42494261Y27755834D01*
X42456166Y27832024D01*
X42456166Y27908215D01*
X42494261Y27984405D01*
X42532357Y28022500D01*
X42608547Y28060596D01*
X42799023Y28060596D01*
X42913309Y28022500D01*
X43141880Y28060596D02*
X43599023Y28060596D01*
X43370452Y27260596D02*
X43370452Y28060596D01*
X35102833Y28060596D02*
X35598071Y28060596D01*
X35331404Y27755834D01*
X35445690Y27755834D01*
X35521880Y27717739D01*
X35559976Y27679643D01*
X35598071Y27603453D01*
X35598071Y27412977D01*
X35559976Y27336786D01*
X35521880Y27298691D01*
X35445690Y27260596D01*
X35217119Y27260596D01*
X35140928Y27298691D01*
X35102833Y27336786D01*
X9436166Y27298691D02*
X9550452Y27260596D01*
X9740928Y27260596D01*
X9817119Y27298691D01*
X9855214Y27336786D01*
X9893309Y27412977D01*
X9893309Y27489167D01*
X9855214Y27565358D01*
X9817119Y27603453D01*
X9740928Y27641548D01*
X9588547Y27679643D01*
X9512357Y27717739D01*
X9474261Y27755834D01*
X9436166Y27832024D01*
X9436166Y27908215D01*
X9474261Y27984405D01*
X9512357Y28022500D01*
X9588547Y28060596D01*
X9779023Y28060596D01*
X9893309Y28022500D01*
X10121880Y28060596D02*
X10579023Y28060596D01*
X10350452Y27260596D02*
X10350452Y28060596D01*
X30022833Y17646596D02*
X30556166Y17646596D01*
X30213309Y16846596D01*
X42760928Y17570405D02*
X42799023Y17608500D01*
X42875214Y17646596D01*
X43065690Y17646596D01*
X43141880Y17608500D01*
X43179976Y17570405D01*
X43218071Y17494215D01*
X43218071Y17418024D01*
X43179976Y17303739D01*
X42722833Y16846596D01*
X43218071Y16846596D01*
X45758071Y16846596D02*
X45300928Y16846596D01*
X45529500Y16846596D02*
X45529500Y17646596D01*
X45453309Y17532310D01*
X45377119Y17456120D01*
X45300928Y17418024D01*
X25057119Y16846596D02*
X25209500Y16846596D01*
X25285690Y16884691D01*
X25323785Y16922786D01*
X25399976Y17037072D01*
X25438071Y17189453D01*
X25438071Y17494215D01*
X25399976Y17570405D01*
X25361880Y17608500D01*
X25285690Y17646596D01*
X25133309Y17646596D01*
X25057119Y17608500D01*
X25019023Y17570405D01*
X24980928Y17494215D01*
X24980928Y17303739D01*
X25019023Y17227548D01*
X25057119Y17189453D01*
X25133309Y17151358D01*
X25285690Y17151358D01*
X25361880Y17189453D01*
X25399976Y17227548D01*
X25438071Y17303739D01*
X19977119Y16846596D02*
X19519976Y16846596D01*
X19748547Y16846596D02*
X19748547Y17646596D01*
X19672357Y17532310D01*
X19596166Y17456120D01*
X19519976Y17418024D01*
X20739023Y16846596D02*
X20281880Y16846596D01*
X20510452Y16846596D02*
X20510452Y17646596D01*
X20434261Y17532310D01*
X20358071Y17456120D01*
X20281880Y17418024D01*
X27673309Y17303739D02*
X27597119Y17341834D01*
X27559023Y17379929D01*
X27520928Y17456120D01*
X27520928Y17494215D01*
X27559023Y17570405D01*
X27597119Y17608500D01*
X27673309Y17646596D01*
X27825690Y17646596D01*
X27901880Y17608500D01*
X27939976Y17570405D01*
X27978071Y17494215D01*
X27978071Y17456120D01*
X27939976Y17379929D01*
X27901880Y17341834D01*
X27825690Y17303739D01*
X27673309Y17303739D01*
X27597119Y17265643D01*
X27559023Y17227548D01*
X27520928Y17151358D01*
X27520928Y16998977D01*
X27559023Y16922786D01*
X27597119Y16884691D01*
X27673309Y16846596D01*
X27825690Y16846596D01*
X27901880Y16884691D01*
X27939976Y16922786D01*
X27978071Y16998977D01*
X27978071Y17151358D01*
X27939976Y17227548D01*
X27901880Y17265643D01*
X27825690Y17303739D01*
X22517119Y16846596D02*
X22059976Y16846596D01*
X22288547Y16846596D02*
X22288547Y17646596D01*
X22212357Y17532310D01*
X22136166Y17456120D01*
X22059976Y17418024D01*
X23012357Y17646596D02*
X23088547Y17646596D01*
X23164738Y17608500D01*
X23202833Y17570405D01*
X23240928Y17494215D01*
X23279023Y17341834D01*
X23279023Y17151358D01*
X23240928Y16998977D01*
X23202833Y16922786D01*
X23164738Y16884691D01*
X23088547Y16846596D01*
X23012357Y16846596D01*
X22936166Y16884691D01*
X22898071Y16922786D01*
X22859976Y16998977D01*
X22821880Y17151358D01*
X22821880Y17341834D01*
X22859976Y17494215D01*
X22898071Y17570405D01*
X22936166Y17608500D01*
X23012357Y17646596D01*
X37934880Y17379929D02*
X37934880Y16846596D01*
X37744404Y17684691D02*
X37553928Y17113262D01*
X38049166Y17113262D01*
X17437119Y16846596D02*
X16979976Y16846596D01*
X17208547Y16846596D02*
X17208547Y17646596D01*
X17132357Y17532310D01*
X17056166Y17456120D01*
X16979976Y17418024D01*
X17741880Y17570405D02*
X17779976Y17608500D01*
X17856166Y17646596D01*
X18046642Y17646596D01*
X18122833Y17608500D01*
X18160928Y17570405D01*
X18199023Y17494215D01*
X18199023Y17418024D01*
X18160928Y17303739D01*
X17703785Y16846596D01*
X18199023Y16846596D01*
X47409166Y16884691D02*
X47523452Y16846596D01*
X47713928Y16846596D01*
X47790119Y16884691D01*
X47828214Y16922786D01*
X47866309Y16998977D01*
X47866309Y17075167D01*
X47828214Y17151358D01*
X47790119Y17189453D01*
X47713928Y17227548D01*
X47561547Y17265643D01*
X47485357Y17303739D01*
X47447261Y17341834D01*
X47409166Y17418024D01*
X47409166Y17494215D01*
X47447261Y17570405D01*
X47485357Y17608500D01*
X47561547Y17646596D01*
X47752023Y17646596D01*
X47866309Y17608500D01*
X48094880Y17646596D02*
X48552023Y17646596D01*
X48323452Y16846596D02*
X48323452Y17646596D01*
X40182833Y17646596D02*
X40678071Y17646596D01*
X40411404Y17341834D01*
X40525690Y17341834D01*
X40601880Y17303739D01*
X40639976Y17265643D01*
X40678071Y17189453D01*
X40678071Y16998977D01*
X40639976Y16922786D01*
X40601880Y16884691D01*
X40525690Y16846596D01*
X40297119Y16846596D01*
X40220928Y16884691D01*
X40182833Y16922786D01*
X35559976Y17646596D02*
X35179023Y17646596D01*
X35140928Y17265643D01*
X35179023Y17303739D01*
X35255214Y17341834D01*
X35445690Y17341834D01*
X35521880Y17303739D01*
X35559976Y17265643D01*
X35598071Y17189453D01*
X35598071Y16998977D01*
X35559976Y16922786D01*
X35521880Y16884691D01*
X35445690Y16846596D01*
X35255214Y16846596D01*
X35179023Y16884691D01*
X35140928Y16922786D01*
X32981880Y17646596D02*
X32829500Y17646596D01*
X32753309Y17608500D01*
X32715214Y17570405D01*
X32639023Y17456120D01*
X32600928Y17303739D01*
X32600928Y16998977D01*
X32639023Y16922786D01*
X32677119Y16884691D01*
X32753309Y16846596D01*
X32905690Y16846596D01*
X32981880Y16884691D01*
X33019976Y16922786D01*
X33058071Y16998977D01*
X33058071Y17189453D01*
X33019976Y17265643D01*
X32981880Y17303739D01*
X32905690Y17341834D01*
X32753309Y17341834D01*
X32677119Y17303739D01*
X32639023Y17265643D01*
X32600928Y17189453D01*
X1187404Y7118739D02*
X387404Y7118739D01*
X1187404Y7575881D01*
X387404Y7575881D01*
X1149309Y8261596D02*
X1187404Y8185405D01*
X1187404Y8033024D01*
X1149309Y7956834D01*
X1073119Y7918739D01*
X768357Y7918739D01*
X692166Y7956834D01*
X654071Y8033024D01*
X654071Y8185405D01*
X692166Y8261596D01*
X768357Y8299691D01*
X844547Y8299691D01*
X920738Y7918739D01*
X1187404Y8566358D02*
X654071Y8985405D01*
X654071Y8566358D02*
X1187404Y8985405D01*
X654071Y9175881D02*
X654071Y9480643D01*
X387404Y9290167D02*
X1073119Y9290167D01*
X1149309Y9328262D01*
X1187404Y9404453D01*
X1187404Y9480643D01*
X1111214Y10813977D02*
X1149309Y10775881D01*
X1187404Y10661596D01*
X1187404Y10585405D01*
X1149309Y10471120D01*
X1073119Y10394929D01*
X996928Y10356834D01*
X844547Y10318739D01*
X730261Y10318739D01*
X577880Y10356834D01*
X501690Y10394929D01*
X425500Y10471120D01*
X387404Y10585405D01*
X387404Y10661596D01*
X425500Y10775881D01*
X463595Y10813977D01*
X1187404Y11156834D02*
X387404Y11156834D01*
X1187404Y11499691D02*
X768357Y11499691D01*
X692166Y11461596D01*
X654071Y11385405D01*
X654071Y11271120D01*
X692166Y11194929D01*
X730261Y11156834D01*
X1187404Y12223500D02*
X768357Y12223500D01*
X692166Y12185405D01*
X654071Y12109215D01*
X654071Y11956834D01*
X692166Y11880643D01*
X1149309Y12223500D02*
X1187404Y12147310D01*
X1187404Y11956834D01*
X1149309Y11880643D01*
X1073119Y11842548D01*
X996928Y11842548D01*
X920738Y11880643D01*
X882642Y11956834D01*
X882642Y12147310D01*
X844547Y12223500D01*
X1187404Y12604453D02*
X654071Y12604453D01*
X387404Y12604453D02*
X425500Y12566358D01*
X463595Y12604453D01*
X425500Y12642548D01*
X387404Y12604453D01*
X463595Y12604453D01*
X654071Y12985405D02*
X1187404Y12985405D01*
X730261Y12985405D02*
X692166Y13023500D01*
X654071Y13099691D01*
X654071Y13213977D01*
X692166Y13290167D01*
X768357Y13328262D01*
X1187404Y13328262D01*
X44950119Y26542739D02*
X45950119Y26542739D01*
X45950119Y26161786D01*
X45902500Y26066548D01*
X45854880Y26018929D01*
X45759642Y25971310D01*
X45616785Y25971310D01*
X45521547Y26018929D01*
X45473928Y26066548D01*
X45426309Y26161786D01*
X45426309Y26542739D01*
X44950119Y25018929D02*
X44950119Y25590358D01*
X44950119Y25304643D02*
X45950119Y25304643D01*
X45807261Y25399881D01*
X45712023Y25495120D01*
X45664404Y25590358D01*
X44950119Y23828453D02*
X45950119Y23828453D01*
X45950119Y23447500D01*
X45902500Y23352262D01*
X45854880Y23304643D01*
X45759642Y23257024D01*
X45616785Y23257024D01*
X45521547Y23304643D01*
X45473928Y23352262D01*
X45426309Y23447500D01*
X45426309Y23828453D01*
X45854880Y22876072D02*
X45902500Y22828453D01*
X45950119Y22733215D01*
X45950119Y22495120D01*
X45902500Y22399881D01*
X45854880Y22352262D01*
X45759642Y22304643D01*
X45664404Y22304643D01*
X45521547Y22352262D01*
X44950119Y22923691D01*
X44950119Y22304643D01*
X4349785Y7835881D02*
X4311690Y7873977D01*
X4273595Y7988262D01*
X4273595Y8064453D01*
X4311690Y8178739D01*
X4387880Y8254929D01*
X4464071Y8293024D01*
X4616452Y8331120D01*
X4730738Y8331120D01*
X4883119Y8293024D01*
X4959309Y8254929D01*
X5035500Y8178739D01*
X5073595Y8064453D01*
X5073595Y7988262D01*
X5035500Y7873977D01*
X4997404Y7835881D01*
X4273595Y7493024D02*
X5073595Y7493024D01*
X4273595Y7035881D02*
X4730738Y7378739D01*
X5073595Y7035881D02*
X4616452Y7493024D01*
X4273595Y5657786D02*
X5073595Y5657786D01*
X5073595Y5467310D01*
X5035500Y5353024D01*
X4959309Y5276834D01*
X4883119Y5238739D01*
X4730738Y5200643D01*
X4616452Y5200643D01*
X4464071Y5238739D01*
X4387880Y5276834D01*
X4311690Y5353024D01*
X4273595Y5467310D01*
X4273595Y5657786D01*
X5073595Y4972072D02*
X5073595Y4514929D01*
X4273595Y4743500D02*
X5073595Y4743500D01*
X4273595Y10375881D02*
X4273595Y10756834D01*
X5073595Y10756834D01*
X4273595Y10109215D02*
X5073595Y10109215D01*
X5073595Y9918739D01*
X5035500Y9804453D01*
X4959309Y9728262D01*
X4883119Y9690167D01*
X4730738Y9652072D01*
X4616452Y9652072D01*
X4464071Y9690167D01*
X4387880Y9728262D01*
X4311690Y9804453D01*
X4273595Y9918739D01*
X4273595Y10109215D01*
D11*
X25656500Y4374334D02*
X25656500Y5074334D01*
X25823166Y5074334D01*
X25923166Y5041000D01*
X25989833Y4974334D01*
X26023166Y4907667D01*
X26056500Y4774334D01*
X26056500Y4674334D01*
X26023166Y4541000D01*
X25989833Y4474334D01*
X25923166Y4407667D01*
X25823166Y4374334D01*
X25656500Y4374334D01*
X26323166Y4407667D02*
X26423166Y4374334D01*
X26589833Y4374334D01*
X26656500Y4407667D01*
X26689833Y4441000D01*
X26723166Y4507667D01*
X26723166Y4574334D01*
X26689833Y4641000D01*
X26656500Y4674334D01*
X26589833Y4707667D01*
X26456500Y4741000D01*
X26389833Y4774334D01*
X26356500Y4807667D01*
X26323166Y4874334D01*
X26323166Y4941000D01*
X26356500Y5007667D01*
X26389833Y5041000D01*
X26456500Y5074334D01*
X26623166Y5074334D01*
X26723166Y5041000D01*
X27023166Y4641000D02*
X27556500Y4641000D01*
X26106500Y3180667D02*
X26039833Y3214000D01*
X25973166Y3280667D01*
X25873166Y3380667D01*
X25806500Y3414000D01*
X25739833Y3414000D01*
X25773166Y3247334D02*
X25706500Y3280667D01*
X25639833Y3347334D01*
X25606500Y3480667D01*
X25606500Y3714000D01*
X25639833Y3847334D01*
X25706500Y3914000D01*
X25773166Y3947334D01*
X25906500Y3947334D01*
X25973166Y3914000D01*
X26039833Y3847334D01*
X26073166Y3714000D01*
X26073166Y3480667D01*
X26039833Y3347334D01*
X25973166Y3280667D01*
X25906500Y3247334D01*
X25773166Y3247334D01*
X26306500Y3947334D02*
X26773166Y3947334D01*
X26473166Y3247334D01*
X27039833Y3514000D02*
X27573166Y3514000D01*
D10*
X52025595Y10502881D02*
X52025595Y10883834D01*
X52825595Y10883834D01*
X52025595Y10236215D02*
X52825595Y10236215D01*
X52825595Y10045739D01*
X52787500Y9931453D01*
X52711309Y9855262D01*
X52635119Y9817167D01*
X52482738Y9779072D01*
X52368452Y9779072D01*
X52216071Y9817167D01*
X52139880Y9855262D01*
X52063690Y9931453D01*
X52025595Y10045739D01*
X52025595Y10236215D01*
X12357119Y16846596D02*
X11899976Y16846596D01*
X12128547Y16846596D02*
X12128547Y17646596D01*
X12052357Y17532310D01*
X11976166Y17456120D01*
X11899976Y17418024D01*
X13042833Y17379929D02*
X13042833Y16846596D01*
X12852357Y17684691D02*
X12661880Y17113262D01*
X13157119Y17113262D01*
X52101785Y7962881D02*
X52063690Y8000977D01*
X52025595Y8115262D01*
X52025595Y8191453D01*
X52063690Y8305739D01*
X52139880Y8381929D01*
X52216071Y8420024D01*
X52368452Y8458120D01*
X52482738Y8458120D01*
X52635119Y8420024D01*
X52711309Y8381929D01*
X52787500Y8305739D01*
X52825595Y8191453D01*
X52825595Y8115262D01*
X52787500Y8000977D01*
X52749404Y7962881D01*
X52025595Y7620024D02*
X52825595Y7620024D01*
X52025595Y7162881D02*
X52482738Y7505739D01*
X52825595Y7162881D02*
X52368452Y7620024D01*
X52787500Y12680977D02*
X52825595Y12757167D01*
X52825595Y12871453D01*
X52787500Y12985739D01*
X52711309Y13061929D01*
X52635119Y13100024D01*
X52482738Y13138120D01*
X52368452Y13138120D01*
X52216071Y13100024D01*
X52139880Y13061929D01*
X52063690Y12985739D01*
X52025595Y12871453D01*
X52025595Y12795262D01*
X52063690Y12680977D01*
X52101785Y12642881D01*
X52368452Y12642881D01*
X52368452Y12795262D01*
X5035500Y12553977D02*
X5073595Y12630167D01*
X5073595Y12744453D01*
X5035500Y12858739D01*
X4959309Y12934929D01*
X4883119Y12973024D01*
X4730738Y13011120D01*
X4616452Y13011120D01*
X4464071Y12973024D01*
X4387880Y12934929D01*
X4311690Y12858739D01*
X4273595Y12744453D01*
X4273595Y12668262D01*
X4311690Y12553977D01*
X4349785Y12515881D01*
X4616452Y12515881D01*
X4616452Y12668262D01*
X52025595Y5784786D02*
X52825595Y5784786D01*
X52825595Y5594310D01*
X52787500Y5480024D01*
X52711309Y5403834D01*
X52635119Y5365739D01*
X52482738Y5327643D01*
X52368452Y5327643D01*
X52216071Y5365739D01*
X52139880Y5403834D01*
X52063690Y5480024D01*
X52025595Y5594310D01*
X52025595Y5784786D01*
X52825595Y5099072D02*
X52825595Y4641929D01*
X52025595Y4870500D02*
X52825595Y4870500D01*
X9817119Y16846596D02*
X9359976Y16846596D01*
X9588547Y16846596D02*
X9588547Y17646596D01*
X9512357Y17532310D01*
X9436166Y17456120D01*
X9359976Y17418024D01*
X10540928Y17646596D02*
X10159976Y17646596D01*
X10121880Y17265643D01*
X10159976Y17303739D01*
X10236166Y17341834D01*
X10426642Y17341834D01*
X10502833Y17303739D01*
X10540928Y17265643D01*
X10579023Y17189453D01*
X10579023Y16998977D01*
X10540928Y16922786D01*
X10502833Y16884691D01*
X10426642Y16846596D01*
X10236166Y16846596D01*
X10159976Y16884691D01*
X10121880Y16922786D01*
%TO.C,RN2*%
X45675619Y4908596D02*
X45408952Y5289548D01*
X45218476Y4908596D02*
X45218476Y5708596D01*
X45523238Y5708596D01*
X45599428Y5670500D01*
X45637523Y5632405D01*
X45675619Y5556215D01*
X45675619Y5441929D01*
X45637523Y5365739D01*
X45599428Y5327643D01*
X45523238Y5289548D01*
X45218476Y5289548D01*
X46018476Y4908596D02*
X46018476Y5708596D01*
X46475619Y4908596D01*
X46475619Y5708596D01*
X46818476Y5632405D02*
X46856571Y5670500D01*
X46932761Y5708596D01*
X47123238Y5708596D01*
X47199428Y5670500D01*
X47237523Y5632405D01*
X47275619Y5556215D01*
X47275619Y5480024D01*
X47237523Y5365739D01*
X46780380Y4908596D01*
X47275619Y4908596D01*
%TO.C,RN1*%
X31540404Y9290120D02*
X31159452Y9023453D01*
X31540404Y8832977D02*
X30740404Y8832977D01*
X30740404Y9137739D01*
X30778500Y9213929D01*
X30816595Y9252024D01*
X30892785Y9290120D01*
X31007071Y9290120D01*
X31083261Y9252024D01*
X31121357Y9213929D01*
X31159452Y9137739D01*
X31159452Y8832977D01*
X31540404Y9632977D02*
X30740404Y9632977D01*
X31540404Y10090120D01*
X30740404Y10090120D01*
X31540404Y10890120D02*
X31540404Y10432977D01*
X31540404Y10661548D02*
X30740404Y10661548D01*
X30854690Y10585358D01*
X30930880Y10509167D01*
X30968976Y10432977D01*
%TO.C,RN4*%
X35858404Y4464120D02*
X35477452Y4197453D01*
X35858404Y4006977D02*
X35058404Y4006977D01*
X35058404Y4311739D01*
X35096500Y4387929D01*
X35134595Y4426024D01*
X35210785Y4464120D01*
X35325071Y4464120D01*
X35401261Y4426024D01*
X35439357Y4387929D01*
X35477452Y4311739D01*
X35477452Y4006977D01*
X35858404Y4806977D02*
X35058404Y4806977D01*
X35858404Y5264120D01*
X35058404Y5264120D01*
X35325071Y5987929D02*
X35858404Y5987929D01*
X35020309Y5797453D02*
X35591738Y5606977D01*
X35591738Y6102215D01*
%TO.C,RN5*%
X6305619Y9988596D02*
X6038952Y10369548D01*
X5848476Y9988596D02*
X5848476Y10788596D01*
X6153238Y10788596D01*
X6229428Y10750500D01*
X6267523Y10712405D01*
X6305619Y10636215D01*
X6305619Y10521929D01*
X6267523Y10445739D01*
X6229428Y10407643D01*
X6153238Y10369548D01*
X5848476Y10369548D01*
X6648476Y9988596D02*
X6648476Y10788596D01*
X7105619Y9988596D01*
X7105619Y10788596D01*
X7867523Y10788596D02*
X7486571Y10788596D01*
X7448476Y10407643D01*
X7486571Y10445739D01*
X7562761Y10483834D01*
X7753238Y10483834D01*
X7829428Y10445739D01*
X7867523Y10407643D01*
X7905619Y10331453D01*
X7905619Y10140977D01*
X7867523Y10064786D01*
X7829428Y10026691D01*
X7753238Y9988596D01*
X7562761Y9988596D01*
X7486571Y10026691D01*
X7448476Y10064786D01*
%TO.C,RN3*%
X18078404Y9290120D02*
X17697452Y9023453D01*
X18078404Y8832977D02*
X17278404Y8832977D01*
X17278404Y9137739D01*
X17316500Y9213929D01*
X17354595Y9252024D01*
X17430785Y9290120D01*
X17545071Y9290120D01*
X17621261Y9252024D01*
X17659357Y9213929D01*
X17697452Y9137739D01*
X17697452Y8832977D01*
X18078404Y9632977D02*
X17278404Y9632977D01*
X18078404Y10090120D01*
X17278404Y10090120D01*
X17278404Y10394881D02*
X17278404Y10890120D01*
X17583166Y10623453D01*
X17583166Y10737739D01*
X17621261Y10813929D01*
X17659357Y10852024D01*
X17735547Y10890120D01*
X17926023Y10890120D01*
X18002214Y10852024D01*
X18040309Y10813929D01*
X18078404Y10737739D01*
X18078404Y10509167D01*
X18040309Y10432977D01*
X18002214Y10394881D01*
%TO.C,C1*%
X45523166Y14128786D02*
X45485071Y14090691D01*
X45370785Y14052596D01*
X45294595Y14052596D01*
X45180309Y14090691D01*
X45104119Y14166881D01*
X45066023Y14243072D01*
X45027928Y14395453D01*
X45027928Y14509739D01*
X45066023Y14662120D01*
X45104119Y14738310D01*
X45180309Y14814500D01*
X45294595Y14852596D01*
X45370785Y14852596D01*
X45485071Y14814500D01*
X45523166Y14776405D01*
X46285071Y14052596D02*
X45827928Y14052596D01*
X46056500Y14052596D02*
X46056500Y14852596D01*
X45980309Y14738310D01*
X45904119Y14662120D01*
X45827928Y14624024D01*
%TO.C,74HC165_1*%
X36709761Y2406596D02*
X37243095Y2406596D01*
X36900238Y1606596D01*
X37890714Y2139929D02*
X37890714Y1606596D01*
X37700238Y2444691D02*
X37509761Y1873262D01*
X38005000Y1873262D01*
X38309761Y1606596D02*
X38309761Y2406596D01*
X38309761Y2025643D02*
X38766904Y2025643D01*
X38766904Y1606596D02*
X38766904Y2406596D01*
X39605000Y1682786D02*
X39566904Y1644691D01*
X39452619Y1606596D01*
X39376428Y1606596D01*
X39262142Y1644691D01*
X39185952Y1720881D01*
X39147857Y1797072D01*
X39109761Y1949453D01*
X39109761Y2063739D01*
X39147857Y2216120D01*
X39185952Y2292310D01*
X39262142Y2368500D01*
X39376428Y2406596D01*
X39452619Y2406596D01*
X39566904Y2368500D01*
X39605000Y2330405D01*
X40366904Y1606596D02*
X39909761Y1606596D01*
X40138333Y1606596D02*
X40138333Y2406596D01*
X40062142Y2292310D01*
X39985952Y2216120D01*
X39909761Y2178024D01*
X41052619Y2406596D02*
X40900238Y2406596D01*
X40824047Y2368500D01*
X40785952Y2330405D01*
X40709761Y2216120D01*
X40671666Y2063739D01*
X40671666Y1758977D01*
X40709761Y1682786D01*
X40747857Y1644691D01*
X40824047Y1606596D01*
X40976428Y1606596D01*
X41052619Y1644691D01*
X41090714Y1682786D01*
X41128809Y1758977D01*
X41128809Y1949453D01*
X41090714Y2025643D01*
X41052619Y2063739D01*
X40976428Y2101834D01*
X40824047Y2101834D01*
X40747857Y2063739D01*
X40709761Y2025643D01*
X40671666Y1949453D01*
X41852619Y2406596D02*
X41471666Y2406596D01*
X41433571Y2025643D01*
X41471666Y2063739D01*
X41547857Y2101834D01*
X41738333Y2101834D01*
X41814523Y2063739D01*
X41852619Y2025643D01*
X41890714Y1949453D01*
X41890714Y1758977D01*
X41852619Y1682786D01*
X41814523Y1644691D01*
X41738333Y1606596D01*
X41547857Y1606596D01*
X41471666Y1644691D01*
X41433571Y1682786D01*
X42043095Y1530405D02*
X42652619Y1530405D01*
X43262142Y1606596D02*
X42805000Y1606596D01*
X43033571Y1606596D02*
X43033571Y2406596D01*
X42957380Y2292310D01*
X42881190Y2216120D01*
X42805000Y2178024D01*
%TO.C,74HC165_2*%
X23120761Y2406596D02*
X23654095Y2406596D01*
X23311238Y1606596D01*
X24301714Y2139929D02*
X24301714Y1606596D01*
X24111238Y2444691D02*
X23920761Y1873262D01*
X24416000Y1873262D01*
X24720761Y1606596D02*
X24720761Y2406596D01*
X24720761Y2025643D02*
X25177904Y2025643D01*
X25177904Y1606596D02*
X25177904Y2406596D01*
X26016000Y1682786D02*
X25977904Y1644691D01*
X25863619Y1606596D01*
X25787428Y1606596D01*
X25673142Y1644691D01*
X25596952Y1720881D01*
X25558857Y1797072D01*
X25520761Y1949453D01*
X25520761Y2063739D01*
X25558857Y2216120D01*
X25596952Y2292310D01*
X25673142Y2368500D01*
X25787428Y2406596D01*
X25863619Y2406596D01*
X25977904Y2368500D01*
X26016000Y2330405D01*
X26777904Y1606596D02*
X26320761Y1606596D01*
X26549333Y1606596D02*
X26549333Y2406596D01*
X26473142Y2292310D01*
X26396952Y2216120D01*
X26320761Y2178024D01*
X27463619Y2406596D02*
X27311238Y2406596D01*
X27235047Y2368500D01*
X27196952Y2330405D01*
X27120761Y2216120D01*
X27082666Y2063739D01*
X27082666Y1758977D01*
X27120761Y1682786D01*
X27158857Y1644691D01*
X27235047Y1606596D01*
X27387428Y1606596D01*
X27463619Y1644691D01*
X27501714Y1682786D01*
X27539809Y1758977D01*
X27539809Y1949453D01*
X27501714Y2025643D01*
X27463619Y2063739D01*
X27387428Y2101834D01*
X27235047Y2101834D01*
X27158857Y2063739D01*
X27120761Y2025643D01*
X27082666Y1949453D01*
X28263619Y2406596D02*
X27882666Y2406596D01*
X27844571Y2025643D01*
X27882666Y2063739D01*
X27958857Y2101834D01*
X28149333Y2101834D01*
X28225523Y2063739D01*
X28263619Y2025643D01*
X28301714Y1949453D01*
X28301714Y1758977D01*
X28263619Y1682786D01*
X28225523Y1644691D01*
X28149333Y1606596D01*
X27958857Y1606596D01*
X27882666Y1644691D01*
X27844571Y1682786D01*
X28454095Y1530405D02*
X29063619Y1530405D01*
X29216000Y2330405D02*
X29254095Y2368500D01*
X29330285Y2406596D01*
X29520761Y2406596D01*
X29596952Y2368500D01*
X29635047Y2330405D01*
X29673142Y2254215D01*
X29673142Y2178024D01*
X29635047Y2063739D01*
X29177904Y1606596D01*
X29673142Y1606596D01*
%TO.C,74HC165_3*%
X9658761Y2406596D02*
X10192095Y2406596D01*
X9849238Y1606596D01*
X10839714Y2139929D02*
X10839714Y1606596D01*
X10649238Y2444691D02*
X10458761Y1873262D01*
X10954000Y1873262D01*
X11258761Y1606596D02*
X11258761Y2406596D01*
X11258761Y2025643D02*
X11715904Y2025643D01*
X11715904Y1606596D02*
X11715904Y2406596D01*
X12554000Y1682786D02*
X12515904Y1644691D01*
X12401619Y1606596D01*
X12325428Y1606596D01*
X12211142Y1644691D01*
X12134952Y1720881D01*
X12096857Y1797072D01*
X12058761Y1949453D01*
X12058761Y2063739D01*
X12096857Y2216120D01*
X12134952Y2292310D01*
X12211142Y2368500D01*
X12325428Y2406596D01*
X12401619Y2406596D01*
X12515904Y2368500D01*
X12554000Y2330405D01*
X13315904Y1606596D02*
X12858761Y1606596D01*
X13087333Y1606596D02*
X13087333Y2406596D01*
X13011142Y2292310D01*
X12934952Y2216120D01*
X12858761Y2178024D01*
X14001619Y2406596D02*
X13849238Y2406596D01*
X13773047Y2368500D01*
X13734952Y2330405D01*
X13658761Y2216120D01*
X13620666Y2063739D01*
X13620666Y1758977D01*
X13658761Y1682786D01*
X13696857Y1644691D01*
X13773047Y1606596D01*
X13925428Y1606596D01*
X14001619Y1644691D01*
X14039714Y1682786D01*
X14077809Y1758977D01*
X14077809Y1949453D01*
X14039714Y2025643D01*
X14001619Y2063739D01*
X13925428Y2101834D01*
X13773047Y2101834D01*
X13696857Y2063739D01*
X13658761Y2025643D01*
X13620666Y1949453D01*
X14801619Y2406596D02*
X14420666Y2406596D01*
X14382571Y2025643D01*
X14420666Y2063739D01*
X14496857Y2101834D01*
X14687333Y2101834D01*
X14763523Y2063739D01*
X14801619Y2025643D01*
X14839714Y1949453D01*
X14839714Y1758977D01*
X14801619Y1682786D01*
X14763523Y1644691D01*
X14687333Y1606596D01*
X14496857Y1606596D01*
X14420666Y1644691D01*
X14382571Y1682786D01*
X14992095Y1530405D02*
X15601619Y1530405D01*
X15715904Y2406596D02*
X16211142Y2406596D01*
X15944476Y2101834D01*
X16058761Y2101834D01*
X16134952Y2063739D01*
X16173047Y2025643D01*
X16211142Y1949453D01*
X16211142Y1758977D01*
X16173047Y1682786D01*
X16134952Y1644691D01*
X16058761Y1606596D01*
X15830190Y1606596D01*
X15754000Y1644691D01*
X15715904Y1682786D01*
%TO.C,C2*%
X31934166Y14128786D02*
X31896071Y14090691D01*
X31781785Y14052596D01*
X31705595Y14052596D01*
X31591309Y14090691D01*
X31515119Y14166881D01*
X31477023Y14243072D01*
X31438928Y14395453D01*
X31438928Y14509739D01*
X31477023Y14662120D01*
X31515119Y14738310D01*
X31591309Y14814500D01*
X31705595Y14852596D01*
X31781785Y14852596D01*
X31896071Y14814500D01*
X31934166Y14776405D01*
X32238928Y14776405D02*
X32277023Y14814500D01*
X32353214Y14852596D01*
X32543690Y14852596D01*
X32619880Y14814500D01*
X32657976Y14776405D01*
X32696071Y14700215D01*
X32696071Y14624024D01*
X32657976Y14509739D01*
X32200833Y14052596D01*
X32696071Y14052596D01*
%TO.C,C3*%
X18472166Y14128786D02*
X18434071Y14090691D01*
X18319785Y14052596D01*
X18243595Y14052596D01*
X18129309Y14090691D01*
X18053119Y14166881D01*
X18015023Y14243072D01*
X17976928Y14395453D01*
X17976928Y14509739D01*
X18015023Y14662120D01*
X18053119Y14738310D01*
X18129309Y14814500D01*
X18243595Y14852596D01*
X18319785Y14852596D01*
X18434071Y14814500D01*
X18472166Y14776405D01*
X18738833Y14852596D02*
X19234071Y14852596D01*
X18967404Y14547834D01*
X19081690Y14547834D01*
X19157880Y14509739D01*
X19195976Y14471643D01*
X19234071Y14395453D01*
X19234071Y14204977D01*
X19195976Y14128786D01*
X19157880Y14090691D01*
X19081690Y14052596D01*
X18853119Y14052596D01*
X18776928Y14090691D01*
X18738833Y14128786D01*
%TO.C,RN6*%
X22396404Y4464120D02*
X22015452Y4197453D01*
X22396404Y4006977D02*
X21596404Y4006977D01*
X21596404Y4311739D01*
X21634500Y4387929D01*
X21672595Y4426024D01*
X21748785Y4464120D01*
X21863071Y4464120D01*
X21939261Y4426024D01*
X21977357Y4387929D01*
X22015452Y4311739D01*
X22015452Y4006977D01*
X22396404Y4806977D02*
X21596404Y4806977D01*
X22396404Y5264120D01*
X21596404Y5264120D01*
X21596404Y5987929D02*
X21596404Y5835548D01*
X21634500Y5759358D01*
X21672595Y5721262D01*
X21786880Y5645072D01*
X21939261Y5606977D01*
X22244023Y5606977D01*
X22320214Y5645072D01*
X22358309Y5683167D01*
X22396404Y5759358D01*
X22396404Y5911739D01*
X22358309Y5987929D01*
X22320214Y6026024D01*
X22244023Y6064120D01*
X22053547Y6064120D01*
X21977357Y6026024D01*
X21939261Y5987929D01*
X21901166Y5911739D01*
X21901166Y5759358D01*
X21939261Y5683167D01*
X21977357Y5645072D01*
X22053547Y5606977D01*
%TO.C,PULL1*%
X48063357Y23704596D02*
X48063357Y24504596D01*
X48368119Y24504596D01*
X48444309Y24466500D01*
X48482404Y24428405D01*
X48520500Y24352215D01*
X48520500Y24237929D01*
X48482404Y24161739D01*
X48444309Y24123643D01*
X48368119Y24085548D01*
X48063357Y24085548D01*
X48863357Y24504596D02*
X48863357Y23856977D01*
X48901452Y23780786D01*
X48939547Y23742691D01*
X49015738Y23704596D01*
X49168119Y23704596D01*
X49244309Y23742691D01*
X49282404Y23780786D01*
X49320500Y23856977D01*
X49320500Y24504596D01*
X50082404Y23704596D02*
X49701452Y23704596D01*
X49701452Y24504596D01*
X50730023Y23704596D02*
X50349071Y23704596D01*
X50349071Y24504596D01*
X51415738Y23704596D02*
X50958595Y23704596D01*
X51187166Y23704596D02*
X51187166Y24504596D01*
X51110976Y24390310D01*
X51034785Y24314120D01*
X50958595Y24276024D01*
D12*
X46727642Y22316310D02*
X46727642Y22816310D01*
X46846690Y22816310D01*
X46918119Y22792500D01*
X46965738Y22744881D01*
X46989547Y22697262D01*
X47013357Y22602024D01*
X47013357Y22530596D01*
X46989547Y22435358D01*
X46965738Y22387739D01*
X46918119Y22340120D01*
X46846690Y22316310D01*
X46727642Y22316310D01*
X47227642Y22316310D02*
X47227642Y22816310D01*
X47513357Y22316310D01*
X47513357Y22816310D01*
X51927642Y22816310D02*
X51927642Y22411548D01*
X51951452Y22363929D01*
X51975261Y22340120D01*
X52022880Y22316310D01*
X52118119Y22316310D01*
X52165738Y22340120D01*
X52189547Y22363929D01*
X52213357Y22411548D01*
X52213357Y22816310D01*
X52451452Y22316310D02*
X52451452Y22816310D01*
X52641928Y22816310D01*
X52689547Y22792500D01*
X52713357Y22768691D01*
X52737166Y22721072D01*
X52737166Y22649643D01*
X52713357Y22602024D01*
X52689547Y22578215D01*
X52641928Y22554405D01*
X52451452Y22554405D01*
D10*
%TO.C,C4*%
X47859966Y26625586D02*
X47821871Y26587491D01*
X47707585Y26549396D01*
X47631395Y26549396D01*
X47517109Y26587491D01*
X47440919Y26663681D01*
X47402823Y26739872D01*
X47364728Y26892253D01*
X47364728Y27006539D01*
X47402823Y27158920D01*
X47440919Y27235110D01*
X47517109Y27311300D01*
X47631395Y27349396D01*
X47707585Y27349396D01*
X47821871Y27311300D01*
X47859966Y27273205D01*
X48545680Y27082729D02*
X48545680Y26549396D01*
X48355204Y27387491D02*
X48164728Y26816062D01*
X48659966Y26816062D01*
%TO.C,SHORT1*%
X1492519Y23742691D02*
X1606804Y23704596D01*
X1797280Y23704596D01*
X1873471Y23742691D01*
X1911566Y23780786D01*
X1949661Y23856977D01*
X1949661Y23933167D01*
X1911566Y24009358D01*
X1873471Y24047453D01*
X1797280Y24085548D01*
X1644900Y24123643D01*
X1568709Y24161739D01*
X1530614Y24199834D01*
X1492519Y24276024D01*
X1492519Y24352215D01*
X1530614Y24428405D01*
X1568709Y24466500D01*
X1644900Y24504596D01*
X1835376Y24504596D01*
X1949661Y24466500D01*
X2292519Y23704596D02*
X2292519Y24504596D01*
X2292519Y24123643D02*
X2749661Y24123643D01*
X2749661Y23704596D02*
X2749661Y24504596D01*
X3282995Y24504596D02*
X3435376Y24504596D01*
X3511566Y24466500D01*
X3587757Y24390310D01*
X3625852Y24237929D01*
X3625852Y23971262D01*
X3587757Y23818881D01*
X3511566Y23742691D01*
X3435376Y23704596D01*
X3282995Y23704596D01*
X3206804Y23742691D01*
X3130614Y23818881D01*
X3092519Y23971262D01*
X3092519Y24237929D01*
X3130614Y24390310D01*
X3206804Y24466500D01*
X3282995Y24504596D01*
X4425852Y23704596D02*
X4159185Y24085548D01*
X3968709Y23704596D02*
X3968709Y24504596D01*
X4273471Y24504596D01*
X4349661Y24466500D01*
X4387757Y24428405D01*
X4425852Y24352215D01*
X4425852Y24237929D01*
X4387757Y24161739D01*
X4349661Y24123643D01*
X4273471Y24085548D01*
X3968709Y24085548D01*
X4654423Y24504596D02*
X5111566Y24504596D01*
X4882995Y23704596D02*
X4882995Y24504596D01*
X5797280Y23704596D02*
X5340138Y23704596D01*
X5568709Y23704596D02*
X5568709Y24504596D01*
X5492519Y24390310D01*
X5416328Y24314120D01*
X5340138Y24276024D01*
D12*
X652042Y22816310D02*
X652042Y22411548D01*
X675852Y22363929D01*
X699661Y22340120D01*
X747280Y22316310D01*
X842519Y22316310D01*
X890138Y22340120D01*
X913947Y22363929D01*
X937757Y22411548D01*
X937757Y22816310D01*
X1175852Y22316310D02*
X1175852Y22816310D01*
X1366328Y22816310D01*
X1413947Y22792500D01*
X1437757Y22768691D01*
X1461566Y22721072D01*
X1461566Y22649643D01*
X1437757Y22602024D01*
X1413947Y22578215D01*
X1366328Y22554405D01*
X1175852Y22554405D01*
X5852042Y22316310D02*
X5852042Y22816310D01*
X5971090Y22816310D01*
X6042519Y22792500D01*
X6090138Y22744881D01*
X6113947Y22697262D01*
X6137757Y22602024D01*
X6137757Y22530596D01*
X6113947Y22435358D01*
X6090138Y22387739D01*
X6042519Y22340120D01*
X5971090Y22316310D01*
X5852042Y22316310D01*
X6352042Y22316310D02*
X6352042Y22816310D01*
X6637757Y22316310D01*
X6637757Y22816310D01*
D13*
%TO.C,OUT1*%
X49152500Y16760500D02*
X50482500Y16760500D01*
X49152500Y14160500D02*
X51812500Y14160500D01*
X51812500Y14160500D02*
X51812500Y3940500D01*
X49152500Y15430500D02*
X49152500Y16760500D01*
X49152500Y3940500D02*
X51812500Y3940500D01*
X49152500Y14160500D02*
X49152500Y3940500D01*
%TO.C,J2*%
X44319500Y21847500D02*
X8639500Y21847500D01*
X44319500Y27047500D02*
X44319500Y25717500D01*
X42989500Y27047500D02*
X44319500Y27047500D01*
X41719500Y27047500D02*
X41719500Y24447500D01*
X41719500Y27047500D02*
X8639500Y27047500D01*
X8639500Y27047500D02*
X8639500Y21847500D01*
X44319500Y24447500D02*
X44319500Y21847500D01*
X41719500Y24447500D02*
X44319500Y24447500D01*
%TO.C,RN2*%
X45828000Y6217500D02*
X46628000Y6217500D01*
X45828000Y9657500D02*
X46628000Y9657500D01*
%TO.C,RN1*%
X33674000Y7678000D02*
X32874000Y7678000D01*
X33674000Y11118000D02*
X32874000Y11118000D01*
%TO.C,RN4*%
X32874000Y3868000D02*
X33674000Y3868000D01*
X32874000Y7308000D02*
X33674000Y7308000D01*
%TO.C,RN5*%
X7258000Y6217500D02*
X6458000Y6217500D01*
X7258000Y9657500D02*
X6458000Y9657500D01*
%TO.C,RN3*%
X20212000Y11118000D02*
X19412000Y11118000D01*
X20212000Y7678000D02*
X19412000Y7678000D01*
%TO.C,IN1*%
X1400500Y14033500D02*
X1400500Y3813500D01*
X1400500Y3813500D02*
X4060500Y3813500D01*
X1400500Y15303500D02*
X1400500Y16633500D01*
X1400500Y16633500D02*
X2730500Y16633500D01*
X1400500Y14033500D02*
X4060500Y14033500D01*
X4060500Y14033500D02*
X4060500Y3813500D01*
%TO.C,J1*%
X3559500Y20570500D02*
X3559500Y17910500D01*
X46799500Y20570500D02*
X46799500Y17910500D01*
X49399500Y20570500D02*
X49399500Y19240500D01*
X48069500Y20570500D02*
X49399500Y20570500D01*
X46799500Y20570500D02*
X3559500Y20570500D01*
X46799500Y17910500D02*
X3559500Y17910500D01*
%TO.C,C1*%
X45395248Y12155500D02*
X45917752Y12155500D01*
X45395248Y13625500D02*
X45917752Y13625500D01*
%TO.C,74HC165_1*%
X40005000Y12934000D02*
X41955000Y12934000D01*
X40005000Y2814000D02*
X41955000Y2814000D01*
X40005000Y2814000D02*
X38055000Y2814000D01*
X40005000Y12934000D02*
X36555000Y12934000D01*
%TO.C,74HC165_2*%
X26416000Y12934000D02*
X28366000Y12934000D01*
X26416000Y2814000D02*
X24466000Y2814000D01*
X26416000Y2814000D02*
X28366000Y2814000D01*
X26416000Y12934000D02*
X22966000Y12934000D01*
%TO.C,74HC165_3*%
X12954000Y2814000D02*
X14904000Y2814000D01*
X12954000Y2814000D02*
X11004000Y2814000D01*
X12954000Y12934000D02*
X9504000Y12934000D01*
X12954000Y12934000D02*
X14904000Y12934000D01*
%TO.C,C2*%
X31806248Y13625500D02*
X32328752Y13625500D01*
X31806248Y12155500D02*
X32328752Y12155500D01*
%TO.C,C3*%
X18344248Y13625500D02*
X18866752Y13625500D01*
X18344248Y12155500D02*
X18866752Y12155500D01*
%TO.C,RN6*%
X19412000Y7308000D02*
X20212000Y7308000D01*
X19412000Y3868000D02*
X20212000Y3868000D01*
%TO.C,PULL1*%
X47670500Y21542500D02*
X47670500Y23542500D01*
X47670500Y23542500D02*
X51770500Y23542500D01*
X51770500Y23542500D02*
X51770500Y21542500D01*
X51770500Y21542500D02*
X47670500Y21542500D01*
%TO.C,C4*%
X48254552Y24855500D02*
X47732048Y24855500D01*
X48254552Y26325500D02*
X47732048Y26325500D01*
%TO.C,SHORT1*%
X1594900Y23542500D02*
X5694900Y23542500D01*
X5694900Y21542500D02*
X1594900Y21542500D01*
X1594900Y21542500D02*
X1594900Y23542500D01*
X5694900Y23542500D02*
X5694900Y21542500D01*
%TD*%
%LPC*%
D14*
%TO.C,OUT1*%
X50482500Y15430500D03*
D15*
X50482500Y12890500D03*
X50482500Y10350500D03*
X50482500Y7810500D03*
X50482500Y5270500D03*
%TD*%
D14*
%TO.C,J2*%
X42989500Y25717500D03*
D15*
X42989500Y23177500D03*
X40449500Y25717500D03*
X40449500Y23177500D03*
X37909500Y25717500D03*
X37909500Y23177500D03*
X35369500Y25717500D03*
X35369500Y23177500D03*
X32829500Y25717500D03*
X32829500Y23177500D03*
X30289500Y25717500D03*
X30289500Y23177500D03*
X27749500Y25717500D03*
X27749500Y23177500D03*
X25209500Y25717500D03*
X25209500Y23177500D03*
X22669500Y25717500D03*
X22669500Y23177500D03*
X20129500Y25717500D03*
X20129500Y23177500D03*
X17589500Y25717500D03*
X17589500Y23177500D03*
X15049500Y25717500D03*
X15049500Y23177500D03*
X12509500Y25717500D03*
X12509500Y23177500D03*
X9969500Y25717500D03*
X9969500Y23177500D03*
%TD*%
D16*
%TO.C,RN2*%
X47078000Y6737500D03*
X47078000Y7537500D03*
X47078000Y8337500D03*
X47078000Y9137500D03*
X45378000Y9137500D03*
X45378000Y8337500D03*
X45378000Y7537500D03*
X45378000Y6737500D03*
%TD*%
%TO.C,RN1*%
X32424000Y10598000D03*
X32424000Y9798000D03*
X32424000Y8998000D03*
X32424000Y8198000D03*
X34124000Y8198000D03*
X34124000Y8998000D03*
X34124000Y9798000D03*
X34124000Y10598000D03*
%TD*%
%TO.C,RN4*%
X34124000Y4388000D03*
X34124000Y5188000D03*
X34124000Y5988000D03*
X34124000Y6788000D03*
X32424000Y6788000D03*
X32424000Y5988000D03*
X32424000Y5188000D03*
X32424000Y4388000D03*
%TD*%
%TO.C,RN5*%
X6008000Y9137500D03*
X6008000Y8337500D03*
X6008000Y7537500D03*
X6008000Y6737500D03*
X7708000Y6737500D03*
X7708000Y7537500D03*
X7708000Y8337500D03*
X7708000Y9137500D03*
%TD*%
%TO.C,RN3*%
X18962000Y10598000D03*
X18962000Y9798000D03*
X18962000Y8998000D03*
X18962000Y8198000D03*
X20662000Y8198000D03*
X20662000Y8998000D03*
X20662000Y9798000D03*
X20662000Y10598000D03*
%TD*%
D14*
%TO.C,IN1*%
X2730500Y15303500D03*
D15*
X2730500Y12763500D03*
X2730500Y10223500D03*
X2730500Y7683500D03*
X2730500Y5143500D03*
%TD*%
D14*
%TO.C,J1*%
X48069500Y19240500D03*
D15*
X45529500Y19240500D03*
X42989500Y19240500D03*
X40449500Y19240500D03*
X37909500Y19240500D03*
X35369500Y19240500D03*
X32829500Y19240500D03*
X30289500Y19240500D03*
X27749500Y19240500D03*
X25209500Y19240500D03*
X22669500Y19240500D03*
X20129500Y19240500D03*
X17589500Y19240500D03*
X15049500Y19240500D03*
X12509500Y19240500D03*
X9969500Y19240500D03*
X7429500Y19240500D03*
X4889500Y19240500D03*
%TD*%
D17*
%TO.C,C1*%
X44619000Y12890500D03*
X46694000Y12890500D03*
%TD*%
D18*
%TO.C,74HC165_1*%
X37530000Y12319000D03*
X37530000Y11049000D03*
X37530000Y9779000D03*
X37530000Y8509000D03*
X37530000Y7239000D03*
X37530000Y5969000D03*
X37530000Y4699000D03*
X37530000Y3429000D03*
X42480000Y3429000D03*
X42480000Y4699000D03*
X42480000Y5969000D03*
X42480000Y7239000D03*
X42480000Y8509000D03*
X42480000Y9779000D03*
X42480000Y11049000D03*
X42480000Y12319000D03*
%TD*%
%TO.C,74HC165_2*%
X23941000Y12319000D03*
X23941000Y11049000D03*
X23941000Y9779000D03*
X23941000Y8509000D03*
X23941000Y7239000D03*
X23941000Y5969000D03*
X23941000Y4699000D03*
X23941000Y3429000D03*
X28891000Y3429000D03*
X28891000Y4699000D03*
X28891000Y5969000D03*
X28891000Y7239000D03*
X28891000Y8509000D03*
X28891000Y9779000D03*
X28891000Y11049000D03*
X28891000Y12319000D03*
%TD*%
%TO.C,74HC165_3*%
X10479000Y12319000D03*
X10479000Y11049000D03*
X10479000Y9779000D03*
X10479000Y8509000D03*
X10479000Y7239000D03*
X10479000Y5969000D03*
X10479000Y4699000D03*
X10479000Y3429000D03*
X15429000Y3429000D03*
X15429000Y4699000D03*
X15429000Y5969000D03*
X15429000Y7239000D03*
X15429000Y8509000D03*
X15429000Y9779000D03*
X15429000Y11049000D03*
X15429000Y12319000D03*
%TD*%
D17*
%TO.C,C2*%
X31030000Y12890500D03*
X33105000Y12890500D03*
%TD*%
%TO.C,C3*%
X17568000Y12890500D03*
X19643000Y12890500D03*
%TD*%
D16*
%TO.C,RN6*%
X20662000Y4388000D03*
X20662000Y5188000D03*
X20662000Y5988000D03*
X20662000Y6788000D03*
X18962000Y6788000D03*
X18962000Y5988000D03*
X18962000Y5188000D03*
X18962000Y4388000D03*
%TD*%
D19*
%TO.C,PULL1*%
X51020500Y22542500D03*
X49720500Y22542500D03*
X48420500Y22542500D03*
%TD*%
D20*
%TO.C,C4*%
X49030800Y25590500D03*
X46955800Y25590500D03*
%TD*%
D19*
%TO.C,SHORT1*%
X4944900Y22542500D03*
X3644900Y22542500D03*
X2344900Y22542500D03*
%TD*%
M02*
