%TF.GenerationSoftware,KiCad,Pcbnew,(6.0.10)*%
%TF.CreationDate,2023-02-12T20:01:58+09:00*%
%TF.ProjectId,joystick_74hc165_input_smd,6a6f7973-7469-4636-9b5f-373468633136,2*%
%TF.SameCoordinates,PX7e249a4PY6c1eee4*%
%TF.FileFunction,Soldermask,Top*%
%TF.FilePolarity,Negative*%
%FSLAX46Y46*%
G04 Gerber Fmt 4.6, Leading zero omitted, Abs format (unit mm)*
G04 Created by KiCad (PCBNEW (6.0.10)) date 2023-02-12 20:01:58*
%MOMM*%
%LPD*%
G01*
G04 APERTURE LIST*
G04 Aperture macros list*
%AMRoundRect*
0 Rectangle with rounded corners*
0 $1 Rounding radius*
0 $2 $3 $4 $5 $6 $7 $8 $9 X,Y pos of 4 corners*
0 Add a 4 corners polygon primitive as box body*
4,1,4,$2,$3,$4,$5,$6,$7,$8,$9,$2,$3,0*
0 Add four circle primitives for the rounded corners*
1,1,$1+$1,$2,$3*
1,1,$1+$1,$4,$5*
1,1,$1+$1,$6,$7*
1,1,$1+$1,$8,$9*
0 Add four rect primitives between the rounded corners*
20,1,$1+$1,$2,$3,$4,$5,0*
20,1,$1+$1,$4,$5,$6,$7,0*
20,1,$1+$1,$6,$7,$8,$9,0*
20,1,$1+$1,$8,$9,$2,$3,0*%
G04 Aperture macros list end*
%ADD10R,1.700000X1.700000*%
%ADD11O,1.700000X1.700000*%
%ADD12R,0.900000X0.400000*%
%ADD13RoundRect,0.250000X-0.337500X-0.475000X0.337500X-0.475000X0.337500X0.475000X-0.337500X0.475000X0*%
%ADD14RoundRect,0.150000X-0.825000X-0.150000X0.825000X-0.150000X0.825000X0.150000X-0.825000X0.150000X0*%
%ADD15R,1.000000X1.500000*%
%ADD16RoundRect,0.250000X0.337500X0.475000X-0.337500X0.475000X-0.337500X-0.475000X0.337500X-0.475000X0*%
G04 APERTURE END LIST*
D10*
%TO.C,OUT1*%
X50482500Y15430500D03*
D11*
X50482500Y12890500D03*
X50482500Y10350500D03*
X50482500Y7810500D03*
X50482500Y5270500D03*
%TD*%
D10*
%TO.C,J2*%
X42989500Y25717500D03*
D11*
X42989500Y23177500D03*
X40449500Y25717500D03*
X40449500Y23177500D03*
X37909500Y25717500D03*
X37909500Y23177500D03*
X35369500Y25717500D03*
X35369500Y23177500D03*
X32829500Y25717500D03*
X32829500Y23177500D03*
X30289500Y25717500D03*
X30289500Y23177500D03*
X27749500Y25717500D03*
X27749500Y23177500D03*
X25209500Y25717500D03*
X25209500Y23177500D03*
X22669500Y25717500D03*
X22669500Y23177500D03*
X20129500Y25717500D03*
X20129500Y23177500D03*
X17589500Y25717500D03*
X17589500Y23177500D03*
X15049500Y25717500D03*
X15049500Y23177500D03*
X12509500Y25717500D03*
X12509500Y23177500D03*
X9969500Y25717500D03*
X9969500Y23177500D03*
%TD*%
D12*
%TO.C,RN2*%
X47078000Y6737500D03*
X47078000Y7537500D03*
X47078000Y8337500D03*
X47078000Y9137500D03*
X45378000Y9137500D03*
X45378000Y8337500D03*
X45378000Y7537500D03*
X45378000Y6737500D03*
%TD*%
%TO.C,RN1*%
X32424000Y10598000D03*
X32424000Y9798000D03*
X32424000Y8998000D03*
X32424000Y8198000D03*
X34124000Y8198000D03*
X34124000Y8998000D03*
X34124000Y9798000D03*
X34124000Y10598000D03*
%TD*%
%TO.C,RN4*%
X34124000Y4388000D03*
X34124000Y5188000D03*
X34124000Y5988000D03*
X34124000Y6788000D03*
X32424000Y6788000D03*
X32424000Y5988000D03*
X32424000Y5188000D03*
X32424000Y4388000D03*
%TD*%
%TO.C,RN5*%
X6008000Y9137500D03*
X6008000Y8337500D03*
X6008000Y7537500D03*
X6008000Y6737500D03*
X7708000Y6737500D03*
X7708000Y7537500D03*
X7708000Y8337500D03*
X7708000Y9137500D03*
%TD*%
%TO.C,RN3*%
X18962000Y10598000D03*
X18962000Y9798000D03*
X18962000Y8998000D03*
X18962000Y8198000D03*
X20662000Y8198000D03*
X20662000Y8998000D03*
X20662000Y9798000D03*
X20662000Y10598000D03*
%TD*%
D10*
%TO.C,IN1*%
X2730500Y15303500D03*
D11*
X2730500Y12763500D03*
X2730500Y10223500D03*
X2730500Y7683500D03*
X2730500Y5143500D03*
%TD*%
D10*
%TO.C,J1*%
X48069500Y19240500D03*
D11*
X45529500Y19240500D03*
X42989500Y19240500D03*
X40449500Y19240500D03*
X37909500Y19240500D03*
X35369500Y19240500D03*
X32829500Y19240500D03*
X30289500Y19240500D03*
X27749500Y19240500D03*
X25209500Y19240500D03*
X22669500Y19240500D03*
X20129500Y19240500D03*
X17589500Y19240500D03*
X15049500Y19240500D03*
X12509500Y19240500D03*
X9969500Y19240500D03*
X7429500Y19240500D03*
X4889500Y19240500D03*
%TD*%
D13*
%TO.C,C1*%
X44619000Y12890500D03*
X46694000Y12890500D03*
%TD*%
D14*
%TO.C,74HC165_1*%
X37530000Y12319000D03*
X37530000Y11049000D03*
X37530000Y9779000D03*
X37530000Y8509000D03*
X37530000Y7239000D03*
X37530000Y5969000D03*
X37530000Y4699000D03*
X37530000Y3429000D03*
X42480000Y3429000D03*
X42480000Y4699000D03*
X42480000Y5969000D03*
X42480000Y7239000D03*
X42480000Y8509000D03*
X42480000Y9779000D03*
X42480000Y11049000D03*
X42480000Y12319000D03*
%TD*%
%TO.C,74HC165_2*%
X23941000Y12319000D03*
X23941000Y11049000D03*
X23941000Y9779000D03*
X23941000Y8509000D03*
X23941000Y7239000D03*
X23941000Y5969000D03*
X23941000Y4699000D03*
X23941000Y3429000D03*
X28891000Y3429000D03*
X28891000Y4699000D03*
X28891000Y5969000D03*
X28891000Y7239000D03*
X28891000Y8509000D03*
X28891000Y9779000D03*
X28891000Y11049000D03*
X28891000Y12319000D03*
%TD*%
%TO.C,74HC165_3*%
X10479000Y12319000D03*
X10479000Y11049000D03*
X10479000Y9779000D03*
X10479000Y8509000D03*
X10479000Y7239000D03*
X10479000Y5969000D03*
X10479000Y4699000D03*
X10479000Y3429000D03*
X15429000Y3429000D03*
X15429000Y4699000D03*
X15429000Y5969000D03*
X15429000Y7239000D03*
X15429000Y8509000D03*
X15429000Y9779000D03*
X15429000Y11049000D03*
X15429000Y12319000D03*
%TD*%
D13*
%TO.C,C2*%
X31030000Y12890500D03*
X33105000Y12890500D03*
%TD*%
%TO.C,C3*%
X17568000Y12890500D03*
X19643000Y12890500D03*
%TD*%
D12*
%TO.C,RN6*%
X20662000Y4388000D03*
X20662000Y5188000D03*
X20662000Y5988000D03*
X20662000Y6788000D03*
X18962000Y6788000D03*
X18962000Y5988000D03*
X18962000Y5188000D03*
X18962000Y4388000D03*
%TD*%
D15*
%TO.C,PULL1*%
X51020500Y22542500D03*
X49720500Y22542500D03*
X48420500Y22542500D03*
%TD*%
D16*
%TO.C,C4*%
X49030800Y25590500D03*
X46955800Y25590500D03*
%TD*%
D15*
%TO.C,SHORT1*%
X4944900Y22542500D03*
X3644900Y22542500D03*
X2344900Y22542500D03*
%TD*%
M02*
