%TF.GenerationSoftware,KiCad,Pcbnew,(6.0.10)*%
%TF.CreationDate,2023-02-12T20:01:58+09:00*%
%TF.ProjectId,joystick_74hc165_input_smd,6a6f7973-7469-4636-9b5f-373468633136,2*%
%TF.SameCoordinates,PX7e249a4PY6c1eee4*%
%TF.FileFunction,Copper,L1,Top*%
%TF.FilePolarity,Positive*%
%FSLAX46Y46*%
G04 Gerber Fmt 4.6, Leading zero omitted, Abs format (unit mm)*
G04 Created by KiCad (PCBNEW (6.0.10)) date 2023-02-12 20:01:58*
%MOMM*%
%LPD*%
G01*
G04 APERTURE LIST*
G04 Aperture macros list*
%AMRoundRect*
0 Rectangle with rounded corners*
0 $1 Rounding radius*
0 $2 $3 $4 $5 $6 $7 $8 $9 X,Y pos of 4 corners*
0 Add a 4 corners polygon primitive as box body*
4,1,4,$2,$3,$4,$5,$6,$7,$8,$9,$2,$3,0*
0 Add four circle primitives for the rounded corners*
1,1,$1+$1,$2,$3*
1,1,$1+$1,$4,$5*
1,1,$1+$1,$6,$7*
1,1,$1+$1,$8,$9*
0 Add four rect primitives between the rounded corners*
20,1,$1+$1,$2,$3,$4,$5,0*
20,1,$1+$1,$4,$5,$6,$7,0*
20,1,$1+$1,$6,$7,$8,$9,0*
20,1,$1+$1,$8,$9,$2,$3,0*%
G04 Aperture macros list end*
%TA.AperFunction,ComponentPad*%
%ADD10R,1.700000X1.700000*%
%TD*%
%TA.AperFunction,ComponentPad*%
%ADD11O,1.700000X1.700000*%
%TD*%
%TA.AperFunction,SMDPad,CuDef*%
%ADD12R,0.900000X0.400000*%
%TD*%
%TA.AperFunction,SMDPad,CuDef*%
%ADD13RoundRect,0.250000X-0.337500X-0.475000X0.337500X-0.475000X0.337500X0.475000X-0.337500X0.475000X0*%
%TD*%
%TA.AperFunction,SMDPad,CuDef*%
%ADD14RoundRect,0.150000X-0.825000X-0.150000X0.825000X-0.150000X0.825000X0.150000X-0.825000X0.150000X0*%
%TD*%
%TA.AperFunction,SMDPad,CuDef*%
%ADD15R,1.000000X1.500000*%
%TD*%
%TA.AperFunction,SMDPad,CuDef*%
%ADD16RoundRect,0.250000X0.337500X0.475000X-0.337500X0.475000X-0.337500X-0.475000X0.337500X-0.475000X0*%
%TD*%
%TA.AperFunction,ViaPad*%
%ADD17C,0.800000*%
%TD*%
%TA.AperFunction,Conductor*%
%ADD18C,0.250000*%
%TD*%
%TA.AperFunction,Conductor*%
%ADD19C,0.500000*%
%TD*%
G04 APERTURE END LIST*
%TO.C,PULL1*%
G36*
X50620500Y22242500D02*
G01*
X50120500Y22242500D01*
X50120500Y22842500D01*
X50620500Y22842500D01*
X50620500Y22242500D01*
G37*
%TO.C,SHORT1*%
G36*
X4544900Y22242500D02*
G01*
X4044900Y22242500D01*
X4044900Y22842500D01*
X4544900Y22842500D01*
X4544900Y22242500D01*
G37*
%TD*%
D10*
%TO.P,OUT1,1,Pin_1*%
%TO.N,VCC*%
X50482500Y15430500D03*
D11*
%TO.P,OUT1,2,Pin_2*%
%TO.N,GND*%
X50482500Y12890500D03*
%TO.P,OUT1,3,Pin_3*%
%TO.N,/LOAD*%
X50482500Y10350500D03*
%TO.P,OUT1,4,Pin_4*%
%TO.N,/CLK*%
X50482500Y7810500D03*
%TO.P,OUT1,5,Pin_5*%
%TO.N,/D_OUT*%
X50482500Y5270500D03*
%TD*%
D10*
%TO.P,J2,1,Pin_1*%
%TO.N,/C_SHORT*%
X42989500Y25717500D03*
D11*
%TO.P,J2,2,Pin_2*%
X42989500Y23177500D03*
%TO.P,J2,3,Pin_3*%
%TO.N,/C_P1_UP*%
X40449500Y25717500D03*
%TO.P,J2,4,Pin_4*%
%TO.N,/C_P2_UP*%
X40449500Y23177500D03*
%TO.P,J2,5,Pin_5*%
%TO.N,/C_P1_DOWN*%
X37909500Y25717500D03*
%TO.P,J2,6,Pin_6*%
%TO.N,/C_P2_DOWN*%
X37909500Y23177500D03*
%TO.P,J2,7,Pin_7*%
%TO.N,/C_P1_LEFT*%
X35369500Y25717500D03*
%TO.P,J2,8,Pin_8*%
%TO.N,/C_P2_LEFT*%
X35369500Y23177500D03*
%TO.P,J2,9,Pin_9*%
%TO.N,/C_P1_RIGHT*%
X32829500Y25717500D03*
%TO.P,J2,10,Pin_10*%
%TO.N,/C_P2_RIGHT*%
X32829500Y23177500D03*
%TO.P,J2,11,Pin_11*%
%TO.N,/C_P1_START*%
X30289500Y25717500D03*
%TO.P,J2,12,Pin_12*%
%TO.N,/C_P2_START*%
X30289500Y23177500D03*
%TO.P,J2,13,Pin_13*%
%TO.N,/C_P1_SELECT*%
X27749500Y25717500D03*
%TO.P,J2,14,Pin_14*%
%TO.N,/C_P2_SELECT*%
X27749500Y23177500D03*
%TO.P,J2,15,Pin_15*%
%TO.N,/C_P1_A*%
X25209500Y25717500D03*
%TO.P,J2,16,Pin_16*%
%TO.N,/C_P2_A*%
X25209500Y23177500D03*
%TO.P,J2,17,Pin_17*%
%TO.N,/C_P1_B*%
X22669500Y25717500D03*
%TO.P,J2,18,Pin_18*%
%TO.N,/C_P2_B*%
X22669500Y23177500D03*
%TO.P,J2,19,Pin_19*%
%TO.N,/C_P1_X*%
X20129500Y25717500D03*
%TO.P,J2,20,Pin_20*%
%TO.N,/C_P2_X*%
X20129500Y23177500D03*
%TO.P,J2,21,Pin_21*%
%TO.N,/C_P1_Y*%
X17589500Y25717500D03*
%TO.P,J2,22,Pin_22*%
%TO.N,/C_P2_Y*%
X17589500Y23177500D03*
%TO.P,J2,23,Pin_23*%
%TO.N,/C_P1_L*%
X15049500Y25717500D03*
%TO.P,J2,24,Pin_24*%
%TO.N,/C_P2_L*%
X15049500Y23177500D03*
%TO.P,J2,25,Pin_25*%
%TO.N,/C_P1_R*%
X12509500Y25717500D03*
%TO.P,J2,26,Pin_26*%
%TO.N,/C_P2_R*%
X12509500Y23177500D03*
%TO.P,J2,27,Pin_27*%
%TO.N,/C_SHORT*%
X9969500Y25717500D03*
%TO.P,J2,28,Pin_28*%
X9969500Y23177500D03*
%TD*%
D12*
%TO.P,RN2,1,R1.1*%
%TO.N,/PULL*%
X47078000Y6737500D03*
%TO.P,RN2,2,R2.1*%
X47078000Y7537500D03*
%TO.P,RN2,3,R3.1*%
X47078000Y8337500D03*
%TO.P,RN2,4,R4.1*%
X47078000Y9137500D03*
%TO.P,RN2,5,R4.2*%
%TO.N,/C_P1_START*%
X45378000Y9137500D03*
%TO.P,RN2,6,R3.2*%
%TO.N,/C_P1_SELECT*%
X45378000Y8337500D03*
%TO.P,RN2,7,R2.2*%
%TO.N,/C_P1_A*%
X45378000Y7537500D03*
%TO.P,RN2,8,R1.2*%
%TO.N,/C_P1_B*%
X45378000Y6737500D03*
%TD*%
%TO.P,RN1,1,R1.1*%
%TO.N,/PULL*%
X32424000Y10598000D03*
%TO.P,RN1,2,R2.1*%
X32424000Y9798000D03*
%TO.P,RN1,3,R3.1*%
X32424000Y8998000D03*
%TO.P,RN1,4,R4.1*%
X32424000Y8198000D03*
%TO.P,RN1,5,R4.2*%
%TO.N,/C_P1_UP*%
X34124000Y8198000D03*
%TO.P,RN1,6,R3.2*%
%TO.N,/C_P1_DOWN*%
X34124000Y8998000D03*
%TO.P,RN1,7,R2.2*%
%TO.N,/C_P1_LEFT*%
X34124000Y9798000D03*
%TO.P,RN1,8,R1.2*%
%TO.N,/C_P1_RIGHT*%
X34124000Y10598000D03*
%TD*%
%TO.P,RN4,1,R1.1*%
%TO.N,/PULL*%
X34124000Y4388000D03*
%TO.P,RN4,2,R2.1*%
X34124000Y5188000D03*
%TO.P,RN4,3,R3.1*%
X34124000Y5988000D03*
%TO.P,RN4,4,R4.1*%
X34124000Y6788000D03*
%TO.P,RN4,5,R4.2*%
%TO.N,/C_P2_UP*%
X32424000Y6788000D03*
%TO.P,RN4,6,R3.2*%
%TO.N,/C_P2_DOWN*%
X32424000Y5988000D03*
%TO.P,RN4,7,R2.2*%
%TO.N,/C_P2_LEFT*%
X32424000Y5188000D03*
%TO.P,RN4,8,R1.2*%
%TO.N,/C_P2_RIGHT*%
X32424000Y4388000D03*
%TD*%
%TO.P,RN5,1,R1.1*%
%TO.N,/PULL*%
X6008000Y9137500D03*
%TO.P,RN5,2,R2.1*%
X6008000Y8337500D03*
%TO.P,RN5,3,R3.1*%
X6008000Y7537500D03*
%TO.P,RN5,4,R4.1*%
X6008000Y6737500D03*
%TO.P,RN5,5,R4.2*%
%TO.N,/C_P2_START*%
X7708000Y6737500D03*
%TO.P,RN5,6,R3.2*%
%TO.N,/C_P2_SELECT*%
X7708000Y7537500D03*
%TO.P,RN5,7,R2.2*%
%TO.N,/C_P2_A*%
X7708000Y8337500D03*
%TO.P,RN5,8,R1.2*%
%TO.N,/C_P2_B*%
X7708000Y9137500D03*
%TD*%
%TO.P,RN3,1,R1.1*%
%TO.N,/PULL*%
X18962000Y10598000D03*
%TO.P,RN3,2,R2.1*%
X18962000Y9798000D03*
%TO.P,RN3,3,R3.1*%
X18962000Y8998000D03*
%TO.P,RN3,4,R4.1*%
X18962000Y8198000D03*
%TO.P,RN3,5,R4.2*%
%TO.N,/C_P1_X*%
X20662000Y8198000D03*
%TO.P,RN3,6,R3.2*%
%TO.N,/C_P1_Y*%
X20662000Y8998000D03*
%TO.P,RN3,7,R2.2*%
%TO.N,/C_P1_L*%
X20662000Y9798000D03*
%TO.P,RN3,8,R1.2*%
%TO.N,/C_P1_R*%
X20662000Y10598000D03*
%TD*%
D10*
%TO.P,IN1,1,Pin_1*%
%TO.N,VCC*%
X2730500Y15303500D03*
D11*
%TO.P,IN1,2,Pin_2*%
%TO.N,GND*%
X2730500Y12763500D03*
%TO.P,IN1,3,Pin_3*%
%TO.N,/LOAD*%
X2730500Y10223500D03*
%TO.P,IN1,4,Pin_4*%
%TO.N,/CLK*%
X2730500Y7683500D03*
%TO.P,IN1,5,Pin_5*%
%TO.N,/D_IN*%
X2730500Y5143500D03*
%TD*%
D10*
%TO.P,J1,1,Pin_1*%
%TO.N,/C_SHORT*%
X48069500Y19240500D03*
D11*
%TO.P,J1,2,Pin_2*%
%TO.N,/C_P1_UP*%
X45529500Y19240500D03*
%TO.P,J1,3,Pin_3*%
%TO.N,/C_P1_DOWN*%
X42989500Y19240500D03*
%TO.P,J1,4,Pin_4*%
%TO.N,/C_P1_LEFT*%
X40449500Y19240500D03*
%TO.P,J1,5,Pin_5*%
%TO.N,/C_P1_RIGHT*%
X37909500Y19240500D03*
%TO.P,J1,6,Pin_6*%
%TO.N,/C_P1_START*%
X35369500Y19240500D03*
%TO.P,J1,7,Pin_7*%
%TO.N,/C_P1_SELECT*%
X32829500Y19240500D03*
%TO.P,J1,8,Pin_8*%
%TO.N,/C_P1_A*%
X30289500Y19240500D03*
%TO.P,J1,9,Pin_9*%
%TO.N,/C_P1_B*%
X27749500Y19240500D03*
%TO.P,J1,10,Pin_10*%
%TO.N,/C_P1_X*%
X25209500Y19240500D03*
%TO.P,J1,11,Pin_11*%
%TO.N,/C_P1_Y*%
X22669500Y19240500D03*
%TO.P,J1,12,Pin_12*%
%TO.N,/C_P1_L*%
X20129500Y19240500D03*
%TO.P,J1,13,Pin_13*%
%TO.N,/C_P1_R*%
X17589500Y19240500D03*
%TO.P,J1,14,Pin_14*%
%TO.N,/C_P2_UP*%
X15049500Y19240500D03*
%TO.P,J1,15,Pin_15*%
%TO.N,/C_P2_DOWN*%
X12509500Y19240500D03*
%TO.P,J1,16,Pin_16*%
%TO.N,/C_P2_LEFT*%
X9969500Y19240500D03*
%TO.P,J1,17,Pin_17*%
%TO.N,/C_P2_RIGHT*%
X7429500Y19240500D03*
%TO.P,J1,18,Pin_18*%
%TO.N,/C_SHORT*%
X4889500Y19240500D03*
%TD*%
D13*
%TO.P,C1,1*%
%TO.N,VCC*%
X44619000Y12890500D03*
%TO.P,C1,2*%
%TO.N,GND*%
X46694000Y12890500D03*
%TD*%
D14*
%TO.P,74HC165_1,1,~{PL}*%
%TO.N,/LOAD*%
X37530000Y12319000D03*
%TO.P,74HC165_1,2,CP*%
%TO.N,/CLK*%
X37530000Y11049000D03*
%TO.P,74HC165_1,3,D4*%
%TO.N,/C_P1_RIGHT*%
X37530000Y9779000D03*
%TO.P,74HC165_1,4,D5*%
%TO.N,/C_P1_LEFT*%
X37530000Y8509000D03*
%TO.P,74HC165_1,5,D6*%
%TO.N,/C_P1_DOWN*%
X37530000Y7239000D03*
%TO.P,74HC165_1,6,D7*%
%TO.N,/C_P1_UP*%
X37530000Y5969000D03*
%TO.P,74HC165_1,7,~{Q7}*%
%TO.N,unconnected-(74HC165_1-Pad7)*%
X37530000Y4699000D03*
%TO.P,74HC165_1,8,GND*%
%TO.N,GND*%
X37530000Y3429000D03*
%TO.P,74HC165_1,9,Q7*%
%TO.N,/D_OUT*%
X42480000Y3429000D03*
%TO.P,74HC165_1,10,DS*%
%TO.N,/D_OUT_2*%
X42480000Y4699000D03*
%TO.P,74HC165_1,11,D0*%
%TO.N,/C_P1_B*%
X42480000Y5969000D03*
%TO.P,74HC165_1,12,D1*%
%TO.N,/C_P1_A*%
X42480000Y7239000D03*
%TO.P,74HC165_1,13,D2*%
%TO.N,/C_P1_SELECT*%
X42480000Y8509000D03*
%TO.P,74HC165_1,14,D3*%
%TO.N,/C_P1_START*%
X42480000Y9779000D03*
%TO.P,74HC165_1,15,~{CE}*%
%TO.N,GND*%
X42480000Y11049000D03*
%TO.P,74HC165_1,16,VCC*%
%TO.N,VCC*%
X42480000Y12319000D03*
%TD*%
%TO.P,74HC165_2,1,~{PL}*%
%TO.N,/LOAD*%
X23941000Y12319000D03*
%TO.P,74HC165_2,2,CP*%
%TO.N,/CLK*%
X23941000Y11049000D03*
%TO.P,74HC165_2,3,D4*%
%TO.N,/C_P1_R*%
X23941000Y9779000D03*
%TO.P,74HC165_2,4,D5*%
%TO.N,/C_P1_L*%
X23941000Y8509000D03*
%TO.P,74HC165_2,5,D6*%
%TO.N,/C_P1_Y*%
X23941000Y7239000D03*
%TO.P,74HC165_2,6,D7*%
%TO.N,/C_P1_X*%
X23941000Y5969000D03*
%TO.P,74HC165_2,7,~{Q7}*%
%TO.N,unconnected-(74HC165_2-Pad7)*%
X23941000Y4699000D03*
%TO.P,74HC165_2,8,GND*%
%TO.N,GND*%
X23941000Y3429000D03*
%TO.P,74HC165_2,9,Q7*%
%TO.N,/D_OUT_2*%
X28891000Y3429000D03*
%TO.P,74HC165_2,10,DS*%
%TO.N,/D_OUT_3*%
X28891000Y4699000D03*
%TO.P,74HC165_2,11,D0*%
%TO.N,/C_P2_RIGHT*%
X28891000Y5969000D03*
%TO.P,74HC165_2,12,D1*%
%TO.N,/C_P2_LEFT*%
X28891000Y7239000D03*
%TO.P,74HC165_2,13,D2*%
%TO.N,/C_P2_DOWN*%
X28891000Y8509000D03*
%TO.P,74HC165_2,14,D3*%
%TO.N,/C_P2_UP*%
X28891000Y9779000D03*
%TO.P,74HC165_2,15,~{CE}*%
%TO.N,GND*%
X28891000Y11049000D03*
%TO.P,74HC165_2,16,VCC*%
%TO.N,VCC*%
X28891000Y12319000D03*
%TD*%
%TO.P,74HC165_3,1,~{PL}*%
%TO.N,/LOAD*%
X10479000Y12319000D03*
%TO.P,74HC165_3,2,CP*%
%TO.N,/CLK*%
X10479000Y11049000D03*
%TO.P,74HC165_3,3,D4*%
%TO.N,/C_P2_B*%
X10479000Y9779000D03*
%TO.P,74HC165_3,4,D5*%
%TO.N,/C_P2_A*%
X10479000Y8509000D03*
%TO.P,74HC165_3,5,D6*%
%TO.N,/C_P2_SELECT*%
X10479000Y7239000D03*
%TO.P,74HC165_3,6,D7*%
%TO.N,/C_P2_START*%
X10479000Y5969000D03*
%TO.P,74HC165_3,7,~{Q7}*%
%TO.N,unconnected-(74HC165_3-Pad7)*%
X10479000Y4699000D03*
%TO.P,74HC165_3,8,GND*%
%TO.N,GND*%
X10479000Y3429000D03*
%TO.P,74HC165_3,9,Q7*%
%TO.N,/D_OUT_3*%
X15429000Y3429000D03*
%TO.P,74HC165_3,10,DS*%
%TO.N,/D_IN*%
X15429000Y4699000D03*
%TO.P,74HC165_3,11,D0*%
%TO.N,/C_P2_R*%
X15429000Y5969000D03*
%TO.P,74HC165_3,12,D1*%
%TO.N,/C_P2_L*%
X15429000Y7239000D03*
%TO.P,74HC165_3,13,D2*%
%TO.N,/C_P2_Y*%
X15429000Y8509000D03*
%TO.P,74HC165_3,14,D3*%
%TO.N,/C_P2_X*%
X15429000Y9779000D03*
%TO.P,74HC165_3,15,~{CE}*%
%TO.N,GND*%
X15429000Y11049000D03*
%TO.P,74HC165_3,16,VCC*%
%TO.N,VCC*%
X15429000Y12319000D03*
%TD*%
D13*
%TO.P,C2,1*%
%TO.N,VCC*%
X31030000Y12890500D03*
%TO.P,C2,2*%
%TO.N,GND*%
X33105000Y12890500D03*
%TD*%
%TO.P,C3,1*%
%TO.N,VCC*%
X17568000Y12890500D03*
%TO.P,C3,2*%
%TO.N,GND*%
X19643000Y12890500D03*
%TD*%
D12*
%TO.P,RN6,1,R1.1*%
%TO.N,/PULL*%
X20662000Y4388000D03*
%TO.P,RN6,2,R2.1*%
X20662000Y5188000D03*
%TO.P,RN6,3,R3.1*%
X20662000Y5988000D03*
%TO.P,RN6,4,R4.1*%
X20662000Y6788000D03*
%TO.P,RN6,5,R4.2*%
%TO.N,/C_P2_X*%
X18962000Y6788000D03*
%TO.P,RN6,6,R3.2*%
%TO.N,/C_P2_Y*%
X18962000Y5988000D03*
%TO.P,RN6,7,R2.2*%
%TO.N,/C_P2_L*%
X18962000Y5188000D03*
%TO.P,RN6,8,R1.2*%
%TO.N,/C_P2_R*%
X18962000Y4388000D03*
%TD*%
D15*
%TO.P,PULL1,1,A*%
%TO.N,VCC*%
X51020500Y22542500D03*
%TO.P,PULL1,2,C*%
%TO.N,/PULL*%
X49720500Y22542500D03*
%TO.P,PULL1,3,B*%
%TO.N,GND*%
X48420500Y22542500D03*
%TD*%
D16*
%TO.P,C4,1*%
%TO.N,VCC*%
X49030800Y25590500D03*
%TO.P,C4,2*%
%TO.N,GND*%
X46955800Y25590500D03*
%TD*%
D15*
%TO.P,SHORT1,1,A*%
%TO.N,GND*%
X4944900Y22542500D03*
%TO.P,SHORT1,2,C*%
%TO.N,/C_SHORT*%
X3644900Y22542500D03*
%TO.P,SHORT1,3,B*%
%TO.N,VCC*%
X2344900Y22542500D03*
%TD*%
D17*
%TO.N,/PULL*%
X47053503Y4000497D03*
X22034500Y2947510D03*
X48196500Y15684500D03*
X6096012Y4826000D03*
X35623500Y2984500D03*
%TO.N,GND*%
X46672500Y10731500D03*
X26352500Y11493500D03*
X26416000Y6350000D03*
X32321500Y16065500D03*
X12954000Y6350000D03*
X39878000Y5842000D03*
X45148500Y4254500D03*
X21272500Y12890500D03*
X35115500Y13017500D03*
X18224500Y15811500D03*
X12636500Y11493500D03*
X6540500Y25082500D03*
%TO.N,/C_P1_START*%
X44223294Y9623315D03*
%TO.N,/C_P1_SELECT*%
X44189980Y8572520D03*
%TO.N,/C_P1_A*%
X44196004Y7302504D03*
%TO.N,/C_P1_B*%
X44196000Y6032500D03*
%TO.N,/C_P1_UP*%
X35623496Y6794500D03*
X39753211Y15587521D03*
%TO.N,/C_P1_DOWN*%
X35623498Y7937500D03*
X38636196Y15592804D03*
%TO.N,/C_P1_LEFT*%
X35623500Y9080500D03*
X37627986Y15609914D03*
%TO.N,/C_P1_RIGHT*%
X36593892Y15599281D03*
X35615350Y10113970D03*
%TO.N,/C_P1_X*%
X22034500Y7048500D03*
X25146000Y15748000D03*
%TO.N,/C_P1_Y*%
X22039160Y8069160D03*
X22542500Y15684520D03*
%TO.N,/C_P1_L*%
X21441069Y15715733D03*
X22039160Y9094480D03*
%TO.N,/C_P1_R*%
X22039160Y10119799D03*
X20400566Y15730917D03*
%TO.N,/C_P2_START*%
X8928100Y6057900D03*
%TO.N,/C_P2_SELECT*%
X8890000Y7366000D03*
%TO.N,/C_P2_A*%
X8890000Y8636000D03*
%TO.N,/C_P2_B*%
X8851900Y9867900D03*
%TO.N,/C_P2_UP*%
X30924500Y7937488D03*
%TO.N,/C_P2_DOWN*%
X30924500Y6921490D03*
%TO.N,/C_P2_LEFT*%
X30924500Y5778500D03*
%TO.N,/C_P2_RIGHT*%
X30924504Y4635500D03*
%TO.N,/C_P2_X*%
X17462500Y8064512D03*
X10985501Y15587521D03*
%TO.N,/C_P2_Y*%
X12382500Y15587521D03*
X17462500Y6921510D03*
%TO.N,/C_P2_L*%
X17480320Y5778510D03*
X13779500Y15587521D03*
%TO.N,/C_P2_R*%
X15176500Y15587521D03*
X17462494Y4635500D03*
%TO.N,/C_SHORT*%
X7302500Y22796500D03*
%TD*%
D18*
%TO.N,/PULL*%
X6008000Y9137500D02*
X6008000Y4914012D01*
X34124000Y6788000D02*
X34124000Y4484000D01*
X47078000Y4024994D02*
X47053503Y4000497D01*
X49720500Y17970500D02*
X49720500Y22542500D01*
X48196500Y16446500D02*
X49720500Y17970500D01*
X20372000Y6788000D02*
X20662000Y6788000D01*
X33834000Y6788000D02*
X32424000Y8198000D01*
X48196500Y15684500D02*
X48196500Y16446500D01*
X18962000Y10598000D02*
X19050000Y10510000D01*
X34124000Y6788000D02*
X33834000Y6788000D01*
X19050000Y10510000D02*
X19050000Y8286000D01*
X19050000Y8286000D02*
X18962000Y8198000D01*
X18962000Y8198000D02*
X20372000Y6788000D01*
X47078000Y9137500D02*
X47078000Y4024994D01*
X6008000Y4914012D02*
X6096012Y4826000D01*
X34124000Y4484000D02*
X35623500Y2984500D01*
X32424000Y8198000D02*
X32424000Y10598000D01*
X20662000Y6788000D02*
X20662000Y4320010D01*
X20662000Y4320010D02*
X22034500Y2947510D01*
D19*
%TO.N,VCC*%
X49339500Y14287500D02*
X29908500Y14287500D01*
X29462500Y12890500D02*
X31030000Y12890500D01*
X50736500Y15684500D02*
X50736500Y22258500D01*
X28891000Y12319000D02*
X29462500Y12890500D01*
X49945200Y25590500D02*
X49030800Y25590500D01*
X15429000Y12319000D02*
X15429000Y12381000D01*
X17568000Y12890500D02*
X17568000Y14182000D01*
X50482500Y15430500D02*
X49339500Y14287500D01*
X31030000Y12890500D02*
X31030000Y14266000D01*
X51020500Y22542500D02*
X51020500Y24515200D01*
X15429000Y12381000D02*
X15938500Y12890500D01*
X44619000Y12890500D02*
X44619000Y14266000D01*
X2730500Y15303500D02*
X4254500Y15303500D01*
X5270500Y14287500D02*
X17462500Y14287500D01*
X44619000Y12890500D02*
X43051500Y12890500D01*
X17568000Y14182000D02*
X17462500Y14287500D01*
X15938500Y12890500D02*
X17568000Y12890500D01*
X43051500Y12890500D02*
X42480000Y12319000D01*
X50482500Y15430500D02*
X50736500Y15684500D01*
X29908500Y14287500D02*
X30162500Y14287500D01*
X51020500Y24515200D02*
X49945200Y25590500D01*
X2319500Y15714500D02*
X2319500Y22542500D01*
X31030000Y14266000D02*
X31051500Y14287500D01*
X17462500Y14287500D02*
X29908500Y14287500D01*
X50736500Y22258500D02*
X51020500Y22542500D01*
X30162500Y14287500D02*
X31051500Y14287500D01*
X4254500Y15303500D02*
X5270500Y14287500D01*
X2730500Y15303500D02*
X2319500Y15714500D01*
%TO.N,GND*%
X4919500Y22542500D02*
X4919500Y23461500D01*
D18*
X28827500Y10985500D02*
X26860500Y10985500D01*
D19*
X4919500Y23461500D02*
X6540500Y25082500D01*
D18*
X46355000Y11049000D02*
X46672500Y10731500D01*
X15429000Y11049000D02*
X13081000Y11049000D01*
X26752499Y11093501D02*
X26352500Y11493500D01*
X42480000Y11049000D02*
X46355000Y11049000D01*
X26860500Y10985500D02*
X26752499Y11093501D01*
D19*
X28827500Y10985500D02*
X28891000Y11049000D01*
D18*
X13081000Y11049000D02*
X12636500Y11493500D01*
%TO.N,/D_IN*%
X7332040Y2222500D02*
X12382500Y2222500D01*
X14859000Y4699000D02*
X15429000Y4699000D01*
X4411040Y5143500D02*
X7332040Y2222500D01*
X2730500Y5143500D02*
X4411040Y5143500D01*
X12382500Y2222500D02*
X14859000Y4699000D01*
%TO.N,/D_OUT*%
X47434500Y2222500D02*
X50482500Y5270500D01*
X42480000Y3429000D02*
X43686500Y2222500D01*
X43686500Y2222500D02*
X47434500Y2222500D01*
%TO.N,/LOAD*%
X14214010Y11693990D02*
X21599990Y11693990D01*
X4381500Y10223500D02*
X2730500Y10223500D01*
X22225000Y12319000D02*
X22860000Y12319000D01*
X37230000Y12019000D02*
X37530000Y12319000D01*
X10644100Y12382500D02*
X6540500Y12382500D01*
X23941000Y12319000D02*
X27051000Y12319000D01*
X27051000Y12319000D02*
X27676010Y11693990D01*
X39360010Y11693990D02*
X49139010Y11693990D01*
X37530000Y12319000D02*
X38735000Y12319000D01*
X13589000Y12319000D02*
X14214010Y11693990D01*
X22860000Y12319000D02*
X23941000Y12319000D01*
X49139010Y11693990D02*
X49632501Y11200499D01*
X36904990Y11693990D02*
X37230000Y12019000D01*
X49632501Y11200499D02*
X50482500Y10350500D01*
X6540500Y12382500D02*
X4381500Y10223500D01*
X38735000Y12319000D02*
X39360010Y11693990D01*
X10479000Y12319000D02*
X13589000Y12319000D01*
X27676010Y11693990D02*
X36904990Y11693990D01*
X21599990Y11693990D02*
X22225000Y12319000D01*
%TO.N,/CLK*%
X37530000Y11049000D02*
X38768116Y11049000D01*
X23814000Y11176000D02*
X17202768Y11176000D01*
X16430778Y10404010D02*
X12328990Y10404010D01*
X37530000Y11049000D02*
X37335021Y11243979D01*
X38768116Y11049000D02*
X39393126Y10423990D01*
X48540502Y9752498D02*
X50482500Y7810500D01*
X45972000Y9752498D02*
X48540502Y9752498D01*
X23941000Y11049000D02*
X23814000Y11176000D01*
X10415500Y11112500D02*
X10479000Y11049000D01*
X6159500Y11112500D02*
X2730500Y7683500D01*
X12328990Y10404010D02*
X11684000Y11049000D01*
X39393126Y10423990D02*
X45300508Y10423990D01*
X30752727Y11243979D02*
X29912758Y10404010D01*
X11684000Y11049000D02*
X10479000Y11049000D01*
X29912758Y10404010D02*
X25917990Y10404010D01*
X25917990Y10404010D02*
X25184100Y11137900D01*
X17202768Y11176000D02*
X16430778Y10404010D01*
X45300508Y10423990D02*
X45972000Y9752498D01*
X25184100Y11137900D02*
X23852100Y11137900D01*
X37335021Y11243979D02*
X30752727Y11243979D01*
X7429500Y11112500D02*
X10415500Y11112500D01*
X7429500Y11112500D02*
X6159500Y11112500D01*
%TO.N,/C_P1_START*%
X44892185Y9623315D02*
X44223294Y9623315D01*
X42480000Y9779000D02*
X44067609Y9779000D01*
X45378000Y9137500D02*
X44892185Y9623315D01*
X35496500Y19240500D02*
X34773498Y19240500D01*
X31559500Y22454498D02*
X31559500Y24193500D01*
X31559500Y24193500D02*
X30289500Y25463500D01*
X34773498Y19240500D02*
X31559500Y22454498D01*
X44067609Y9779000D02*
X44223294Y9623315D01*
%TO.N,/C_P1_SELECT*%
X44189960Y8572500D02*
X44189980Y8572520D01*
X32956500Y19240500D02*
X32233498Y19240500D01*
X44425000Y8337500D02*
X44189980Y8572520D01*
X29019500Y24193500D02*
X27749500Y25463500D01*
X45378000Y8337500D02*
X44425000Y8337500D01*
X42213300Y8572500D02*
X44189960Y8572500D01*
X32233498Y19240500D02*
X29019500Y22454498D01*
X29019500Y22454498D02*
X29019500Y24193500D01*
%TO.N,/C_P1_A*%
X44132500Y7239000D02*
X44196004Y7302504D01*
X26479500Y24193500D02*
X25209500Y25463500D01*
X45143004Y7302504D02*
X45378000Y7537500D01*
X42480000Y7239000D02*
X44132500Y7239000D01*
X30416500Y19240500D02*
X29693498Y19240500D01*
X44196004Y7302504D02*
X45143004Y7302504D01*
X29693498Y19240500D02*
X26479500Y22454498D01*
X26479500Y22454498D02*
X26479500Y24193500D01*
%TO.N,/C_P1_B*%
X23939500Y22498499D02*
X23939500Y24447500D01*
X44132500Y5969000D02*
X44196000Y6032500D01*
X23939500Y24447500D02*
X22669500Y25717500D01*
X27749500Y19240500D02*
X27197499Y19240500D01*
X42480000Y5969000D02*
X44132500Y5969000D01*
X45378000Y6737500D02*
X44673000Y6032500D01*
X44673000Y6032500D02*
X44196000Y6032500D01*
X27197499Y19240500D02*
X23939500Y22498499D01*
%TO.N,/C_P1_UP*%
X45529500Y19240500D02*
X45021500Y19240500D01*
X41876521Y15587521D02*
X39753211Y15587521D01*
X36448996Y5969000D02*
X35623496Y6794500D01*
X41719500Y22542500D02*
X41719500Y24447500D01*
X41719500Y24447500D02*
X40449500Y25717500D01*
X37530000Y5969000D02*
X36448996Y5969000D01*
X35527500Y6794500D02*
X35623496Y6794500D01*
X45529500Y19240500D02*
X41876521Y15587521D01*
X45021500Y19240500D02*
X41719500Y22542500D01*
X34124000Y8198000D02*
X35527500Y6794500D01*
%TO.N,/C_P1_DOWN*%
X42283892Y19240500D02*
X38636196Y15592804D01*
X42524055Y19240500D02*
X42283892Y19240500D01*
X35223499Y8337499D02*
X35623498Y7937500D01*
X34124000Y8998000D02*
X34562998Y8998000D01*
X42608500Y19240500D02*
X39179500Y22669500D01*
X42787619Y19240500D02*
X42524055Y19240500D01*
X35856500Y7937500D02*
X35623498Y7937500D01*
X39179500Y24447500D02*
X37909500Y25717500D01*
X36555000Y7239000D02*
X35856500Y7937500D01*
X42787619Y19240500D02*
X42989500Y19240500D01*
X42989500Y19240500D02*
X42608500Y19240500D01*
X39179500Y22669500D02*
X39179500Y24447500D01*
X34562998Y8998000D02*
X35223499Y8337499D01*
X37530000Y7239000D02*
X36555000Y7239000D01*
X42524055Y19240500D02*
X42989500Y19240500D01*
%TO.N,/C_P1_LEFT*%
X37627986Y16418986D02*
X37627986Y15609914D01*
X37530000Y8509000D02*
X36195000Y8509000D01*
X34124000Y9798000D02*
X34906000Y9798000D01*
X40068500Y19240500D02*
X36639500Y22669500D01*
X40449500Y19240500D02*
X40068500Y19240500D01*
X36195000Y8509000D02*
X35623500Y9080500D01*
X36639500Y24447500D02*
X35369500Y25717500D01*
X34906000Y9798000D02*
X35623500Y9080500D01*
X40449500Y19240500D02*
X37627986Y16418986D01*
X36639500Y22669500D02*
X36639500Y24447500D01*
%TO.N,/C_P1_RIGHT*%
X32829500Y25717500D02*
X34099500Y24447500D01*
X36593892Y17924892D02*
X36593892Y15599281D01*
X35131320Y10598000D02*
X35615350Y10113970D01*
X34124000Y10598000D02*
X35131320Y10598000D01*
X37530000Y9779000D02*
X35950320Y9779000D01*
X37484499Y19240500D02*
X37909500Y19240500D01*
X34099500Y24447500D02*
X34099500Y22625499D01*
X37909500Y19240500D02*
X36593892Y17924892D01*
X34099500Y22625499D02*
X37484499Y19240500D01*
X35950320Y9779000D02*
X35615350Y10113970D01*
%TO.N,/C_P1_X*%
X25209500Y19240500D02*
X24701500Y19240500D01*
X24701500Y19240500D02*
X21399500Y22542500D01*
X23941000Y5969000D02*
X23114000Y5969000D01*
X25209500Y19240500D02*
X25209500Y15811500D01*
X23114000Y5969000D02*
X22034500Y7048500D01*
X21399500Y24447500D02*
X20129500Y25717500D01*
X21399500Y22542500D02*
X21399500Y24447500D01*
X20916000Y8198000D02*
X20916000Y8167000D01*
X20916000Y8167000D02*
X22034500Y7048500D01*
X25209500Y15811500D02*
X25146000Y15748000D01*
%TO.N,/C_P1_Y*%
X22161500Y19240500D02*
X18859500Y22542500D01*
X22780420Y7327900D02*
X22039160Y8069160D01*
X18859500Y24447500D02*
X17589500Y25717500D01*
X18859500Y22542500D02*
X18859500Y24447500D01*
X20916000Y8998000D02*
X21110320Y8998000D01*
X22669500Y19240500D02*
X22161500Y19240500D01*
X21110320Y8998000D02*
X22039160Y8069160D01*
X22669500Y15811520D02*
X22542500Y15684520D01*
X24233100Y7327900D02*
X22780420Y7327900D01*
X22669500Y19240500D02*
X22669500Y15811520D01*
%TO.N,/C_P1_L*%
X20129500Y19240500D02*
X21441069Y17928931D01*
X20916000Y9798000D02*
X21335640Y9798000D01*
X20129500Y19240500D02*
X19391688Y19240500D01*
X19391688Y19240500D02*
X16319500Y22312688D01*
X16319500Y22312688D02*
X16319500Y24193500D01*
X21441069Y17928931D02*
X21441069Y15715733D01*
X24233100Y8597900D02*
X22535740Y8597900D01*
X21335640Y9798000D02*
X22039160Y9094480D01*
X22535740Y8597900D02*
X22039160Y9094480D01*
X16319500Y24193500D02*
X15049500Y25463500D01*
%TO.N,/C_P1_R*%
X17589500Y19240500D02*
X15176500Y21653500D01*
X17589500Y19240500D02*
X20400566Y16429434D01*
X21560959Y10598000D02*
X22039160Y10119799D01*
X13779500Y22454498D02*
X13779500Y24193500D01*
X13779500Y24193500D02*
X12509500Y25463500D01*
X20916000Y10598000D02*
X21560959Y10598000D01*
X14580498Y21653500D02*
X13779500Y22454498D01*
X22291059Y9867900D02*
X22039160Y10119799D01*
X20400566Y16429434D02*
X20400566Y15730917D01*
X15176500Y21653500D02*
X14580498Y21653500D01*
X24233100Y9867900D02*
X22291059Y9867900D01*
%TO.N,/C_P2_START*%
X7708000Y6737500D02*
X8387600Y6057900D01*
X10669500Y6032500D02*
X8953500Y6032500D01*
X8953500Y6032500D02*
X8928100Y6057900D01*
X8387600Y6057900D02*
X10669500Y6057900D01*
%TO.N,/C_P2_SELECT*%
X8718500Y7537500D02*
X8890000Y7366000D01*
X9017000Y7239000D02*
X8890000Y7366000D01*
X7708000Y7537500D02*
X8718500Y7537500D01*
X10479000Y7239000D02*
X9017000Y7239000D01*
%TO.N,/C_P2_A*%
X10669500Y8572500D02*
X8953500Y8572500D01*
X8591500Y8337500D02*
X8890000Y8636000D01*
X8953500Y8572500D02*
X8890000Y8636000D01*
X7708000Y8337500D02*
X8591500Y8337500D01*
X10409100Y8337500D02*
X10669500Y8597900D01*
%TO.N,/C_P2_B*%
X7708000Y9137500D02*
X8438400Y9867900D01*
X8877300Y9842500D02*
X8851900Y9867900D01*
X10669500Y9842500D02*
X8877300Y9842500D01*
X8438400Y9867900D02*
X10669500Y9867900D01*
%TO.N,/C_P2_UP*%
X30924500Y8503173D02*
X29648673Y9779000D01*
X29648673Y9779000D02*
X28891000Y9779000D01*
X31274512Y7937488D02*
X30924500Y7937488D01*
X30924500Y7937488D02*
X30924500Y8503173D01*
X32424000Y6788000D02*
X31274512Y7937488D01*
%TO.N,/C_P2_DOWN*%
X30859510Y6921490D02*
X30924500Y6921490D01*
X29183100Y8597900D02*
X30859510Y6921490D01*
X32424000Y5988000D02*
X31857990Y5988000D01*
X31857990Y5988000D02*
X30924500Y6921490D01*
%TO.N,/C_P2_LEFT*%
X31515000Y5188000D02*
X30924500Y5778500D01*
X28891000Y7239000D02*
X29406998Y7239000D01*
X29406998Y7239000D02*
X30867498Y5778500D01*
X32424000Y5188000D02*
X31515000Y5188000D01*
X30867498Y5778500D02*
X30924500Y5778500D01*
%TO.N,/C_P2_RIGHT*%
X31235504Y4324500D02*
X30924504Y4635500D01*
X29183100Y6057900D02*
X29502104Y6057900D01*
X32678000Y4324500D02*
X31235504Y4324500D01*
X29502104Y6057900D02*
X30924504Y4635500D01*
%TO.N,/C_P2_X*%
X8699500Y21780500D02*
X8699500Y17873522D01*
X8699500Y17873522D02*
X10985501Y15587521D01*
X8091001Y26507412D02*
X8091001Y22388999D01*
X17348478Y27887522D02*
X9471111Y27887522D01*
X19216000Y6724500D02*
X17875988Y8064512D01*
X18859500Y26376500D02*
X17348478Y27887522D01*
X8091001Y22388999D02*
X8699500Y21780500D01*
X17875988Y8064512D02*
X17462500Y8064512D01*
X18859500Y25248498D02*
X18859500Y26376500D01*
X9471111Y27887522D02*
X8091001Y26507412D01*
X17462500Y8630197D02*
X17462500Y8064512D01*
X16250197Y9842500D02*
X17462500Y8630197D01*
X20129500Y23177500D02*
X20129500Y23978498D01*
X20129500Y23978498D02*
X18859500Y25248498D01*
X15619500Y9842500D02*
X16250197Y9842500D01*
%TO.N,/C_P2_Y*%
X16319500Y24829910D02*
X16319500Y26376500D01*
X17405486Y6921510D02*
X17462500Y6921510D01*
X19216000Y5924500D02*
X18459510Y5924500D01*
X15754496Y8572500D02*
X17405486Y6921510D01*
X17862499Y6521511D02*
X17462500Y6921510D01*
X16319500Y26376500D02*
X15269511Y27426489D01*
X15619500Y8572500D02*
X15754496Y8572500D01*
X13457900Y27437511D02*
X9784511Y27437511D01*
X8572500Y26225500D02*
X8572500Y22669500D01*
X15269511Y27426489D02*
X13468922Y27426489D01*
X9784511Y27437511D02*
X8572500Y26225500D01*
X13468922Y27426489D02*
X13457900Y27437511D01*
X18459510Y5924500D02*
X17862499Y6521511D01*
X11239500Y16730521D02*
X12382500Y15587521D01*
X11239500Y20002500D02*
X11239500Y16730521D01*
X8572500Y22669500D02*
X11239500Y20002500D01*
X17589500Y23177500D02*
X17589500Y23559910D01*
X17589500Y23559910D02*
X16319500Y24829910D01*
%TO.N,/C_P2_L*%
X13271500Y26987500D02*
X11747500Y26987500D01*
X11239500Y22512254D02*
X13779500Y19972254D01*
X13779500Y26479500D02*
X13271500Y26987500D01*
X17405486Y5778510D02*
X17480320Y5778510D01*
X15619500Y7302500D02*
X15881496Y7302500D01*
X15049500Y23559910D02*
X13779500Y24829910D01*
X11239500Y26479500D02*
X11239500Y22512254D01*
X13779500Y24829910D02*
X13779500Y26479500D01*
X15049500Y23177500D02*
X15049500Y23559910D01*
X19216000Y5124500D02*
X18134330Y5124500D01*
X18134330Y5124500D02*
X17480320Y5778510D01*
X11747500Y26987500D02*
X11239500Y26479500D01*
X15881496Y7302500D02*
X17405486Y5778510D01*
X13779500Y19972254D02*
X13779500Y15587521D01*
%TO.N,/C_P2_R*%
X16224501Y19804501D02*
X16224501Y16635522D01*
X19216000Y4324500D02*
X17773494Y4324500D01*
X14825512Y21203490D02*
X16224501Y19804501D01*
X12509500Y23177500D02*
X12509500Y21975419D01*
X12509500Y21975419D02*
X13281429Y21203490D01*
X17773494Y4324500D02*
X17462494Y4635500D01*
X13281429Y21203490D02*
X14825512Y21203490D01*
X16224501Y16635522D02*
X15176500Y15587521D01*
X15619500Y6032500D02*
X16065494Y6032500D01*
X16065494Y6032500D02*
X17462494Y4635500D01*
%TO.N,/C_SHORT*%
X4889500Y19240500D02*
X4889500Y20383500D01*
X44132500Y23177500D02*
X48069500Y19240500D01*
X48196500Y19240500D02*
X47815500Y19240500D01*
X9969500Y25463500D02*
X9969500Y22923500D01*
X42040511Y14862511D02*
X9267489Y14862511D01*
X47815500Y19240500D02*
X46291500Y17716500D01*
X9267489Y14862511D02*
X4889500Y19240500D01*
X3619500Y20510500D02*
X4889500Y19240500D01*
X42989500Y23177500D02*
X44132500Y23177500D01*
X42989500Y25717500D02*
X42989500Y23177500D01*
X3619500Y22542500D02*
X3619500Y20510500D01*
X46291500Y17716500D02*
X44894500Y17716500D01*
X4889500Y20383500D02*
X7302500Y22796500D01*
X44894500Y17716500D02*
X42040511Y14862511D01*
%TO.N,/D_OUT_2*%
X42480000Y4699000D02*
X42037000Y4699000D01*
X42037000Y4699000D02*
X39560500Y2222500D01*
X30605500Y2222500D02*
X29335500Y3492500D01*
X39560500Y2222500D02*
X30605500Y2222500D01*
%TO.N,/D_OUT_3*%
X15729000Y3129000D02*
X15429000Y3429000D01*
X28891000Y4699000D02*
X27916000Y4699000D01*
X27916000Y4699000D02*
X25439500Y2222500D01*
X16635500Y2222500D02*
X15729000Y3129000D01*
X25439500Y2222500D02*
X16635500Y2222500D01*
%TD*%
%TA.AperFunction,Conductor*%
%TO.N,GND*%
G36*
X50398384Y28935498D02*
G01*
X50444877Y28881842D01*
X50454981Y28811568D01*
X50426074Y28747670D01*
X50362940Y28673749D01*
X50237560Y28469149D01*
X50235667Y28464579D01*
X50235666Y28464577D01*
X50152116Y28262869D01*
X50145731Y28247453D01*
X50144576Y28242641D01*
X50090868Y28018935D01*
X50090867Y28018929D01*
X50089713Y28014122D01*
X50071374Y27781100D01*
X50070886Y27774900D01*
X50089713Y27535678D01*
X50090867Y27530871D01*
X50090868Y27530865D01*
X50101902Y27484906D01*
X50145731Y27302347D01*
X50237560Y27080651D01*
X50362940Y26876051D01*
X50366157Y26872284D01*
X50366158Y26872283D01*
X50439489Y26786423D01*
X50518782Y26693582D01*
X50522544Y26690369D01*
X50694307Y26543671D01*
X50701251Y26537740D01*
X50905851Y26412360D01*
X50910421Y26410467D01*
X50910423Y26410466D01*
X51095964Y26333613D01*
X51127547Y26320531D01*
X51200819Y26302940D01*
X51356065Y26265668D01*
X51356071Y26265667D01*
X51360878Y26264513D01*
X51600100Y26245686D01*
X51839322Y26264513D01*
X51844129Y26265667D01*
X51844135Y26265668D01*
X51999381Y26302940D01*
X52072653Y26320531D01*
X52104236Y26333613D01*
X52289777Y26410466D01*
X52289779Y26410467D01*
X52294349Y26412360D01*
X52498949Y26537740D01*
X52505894Y26543671D01*
X52607286Y26630268D01*
X52623670Y26644261D01*
X52688460Y26673292D01*
X52758660Y26662687D01*
X52811982Y26615812D01*
X52831500Y26548450D01*
X52831500Y2982072D01*
X52811498Y2913951D01*
X52757842Y2867458D01*
X52687568Y2857354D01*
X52623670Y2886261D01*
X52521151Y2973821D01*
X52521146Y2973824D01*
X52517386Y2977036D01*
X52308588Y3104987D01*
X52304018Y3106880D01*
X52304014Y3106882D01*
X52086919Y3196806D01*
X52086917Y3196807D01*
X52082346Y3198700D01*
X51978080Y3223732D01*
X51849041Y3254712D01*
X51849035Y3254713D01*
X51844228Y3255867D01*
X51600100Y3275080D01*
X51355972Y3255867D01*
X51351165Y3254713D01*
X51351159Y3254712D01*
X51222120Y3223732D01*
X51117854Y3198700D01*
X51113283Y3196807D01*
X51113281Y3196806D01*
X50896186Y3106882D01*
X50896182Y3106880D01*
X50891612Y3104987D01*
X50682814Y2977036D01*
X50679054Y2973824D01*
X50679049Y2973821D01*
X50553491Y2866584D01*
X50496603Y2817997D01*
X50493390Y2814235D01*
X50340779Y2635551D01*
X50340776Y2635546D01*
X50337564Y2631786D01*
X50209613Y2422988D01*
X50207720Y2418418D01*
X50207718Y2418414D01*
X50124416Y2217305D01*
X50115900Y2196746D01*
X50114745Y2191934D01*
X50065767Y1987926D01*
X50058733Y1958628D01*
X50039520Y1714500D01*
X50058733Y1470372D01*
X50059887Y1465565D01*
X50059888Y1465559D01*
X50064796Y1445116D01*
X50115900Y1232254D01*
X50117793Y1227683D01*
X50117794Y1227681D01*
X50139313Y1175731D01*
X50209613Y1006012D01*
X50337564Y797214D01*
X50340780Y793449D01*
X50406645Y716330D01*
X50435676Y651540D01*
X50425071Y581340D01*
X50378196Y528018D01*
X50310834Y508500D01*
X2962644Y508500D01*
X2894523Y528502D01*
X2848030Y582158D01*
X2837926Y652432D01*
X2866831Y716329D01*
X2951660Y815651D01*
X3077040Y1020251D01*
X3168869Y1241947D01*
X3191490Y1336171D01*
X3223732Y1470465D01*
X3223733Y1470471D01*
X3224887Y1475278D01*
X3243714Y1714500D01*
X3224887Y1953722D01*
X3223733Y1958529D01*
X3223732Y1958535D01*
X3170024Y2182241D01*
X3168869Y2187053D01*
X3162960Y2201319D01*
X3078934Y2404177D01*
X3078933Y2404179D01*
X3077040Y2408749D01*
X2951660Y2613349D01*
X2935914Y2631786D01*
X2799031Y2792056D01*
X2795818Y2795818D01*
X2722048Y2858823D01*
X2617117Y2948442D01*
X2617116Y2948443D01*
X2613349Y2951660D01*
X2408749Y3077040D01*
X2404179Y3078933D01*
X2404177Y3078934D01*
X2191626Y3166975D01*
X2191624Y3166976D01*
X2187053Y3168869D01*
X2078202Y3195002D01*
X1958535Y3223732D01*
X1958529Y3223733D01*
X1953722Y3224887D01*
X1714500Y3243714D01*
X1475278Y3224887D01*
X1470471Y3223733D01*
X1470465Y3223732D01*
X1350798Y3195002D01*
X1241947Y3168869D01*
X1237376Y3166976D01*
X1237374Y3166975D01*
X1024823Y3078934D01*
X1024821Y3078933D01*
X1020251Y3077040D01*
X815651Y2951660D01*
X716329Y2866831D01*
X651540Y2837802D01*
X581340Y2848407D01*
X528018Y2895283D01*
X508500Y2962644D01*
X508500Y21744366D01*
X1336400Y21744366D01*
X1343155Y21682184D01*
X1394285Y21545795D01*
X1481639Y21429239D01*
X1488819Y21423858D01*
X1488820Y21423857D01*
X1510565Y21407560D01*
X1553080Y21350700D01*
X1561000Y21306734D01*
X1561000Y16610913D01*
X1540998Y16542792D01*
X1524260Y16522023D01*
X1517239Y16516761D01*
X1429885Y16400205D01*
X1378755Y16263816D01*
X1372000Y16201634D01*
X1372000Y14405366D01*
X1378755Y14343184D01*
X1429885Y14206795D01*
X1517239Y14090239D01*
X1633795Y14002885D01*
X1642204Y13999733D01*
X1642205Y13999732D01*
X1751460Y13958774D01*
X1808225Y13916133D01*
X1832925Y13849571D01*
X1817718Y13780222D01*
X1798325Y13753741D01*
X1675090Y13624783D01*
X1668604Y13616773D01*
X1548598Y13440851D01*
X1543500Y13431877D01*
X1453838Y13238717D01*
X1450275Y13229030D01*
X1394889Y13029317D01*
X1396412Y13020893D01*
X1408792Y13017500D01*
X4048844Y13017500D01*
X4062375Y13021473D01*
X4063680Y13030553D01*
X4021714Y13197625D01*
X4018394Y13207376D01*
X3933472Y13402686D01*
X3928605Y13411761D01*
X3812926Y13590574D01*
X3806636Y13598743D01*
X3662793Y13756823D01*
X3631741Y13820669D01*
X3640135Y13891167D01*
X3685312Y13945936D01*
X3711756Y13959605D01*
X3818797Y13999733D01*
X3827205Y14002885D01*
X3943761Y14090239D01*
X3987787Y14148983D01*
X4025731Y14199611D01*
X4025731Y14199612D01*
X4031115Y14206795D01*
X4034267Y14215203D01*
X4036973Y14220145D01*
X4087231Y14270291D01*
X4156622Y14285305D01*
X4223114Y14260420D01*
X4236588Y14248731D01*
X4686730Y13798589D01*
X4699116Y13784177D01*
X4707649Y13772582D01*
X4707654Y13772577D01*
X4711992Y13766682D01*
X4717570Y13761943D01*
X4717573Y13761940D01*
X4752268Y13732465D01*
X4759784Y13725535D01*
X4765479Y13719840D01*
X4768361Y13717560D01*
X4787751Y13702219D01*
X4791155Y13699428D01*
X4799542Y13692303D01*
X4846785Y13652167D01*
X4853301Y13648839D01*
X4858350Y13645472D01*
X4863479Y13642305D01*
X4869216Y13637766D01*
X4935375Y13606845D01*
X4939269Y13604942D01*
X5004308Y13571731D01*
X5011416Y13569992D01*
X5017059Y13567893D01*
X5022822Y13565976D01*
X5029450Y13562878D01*
X5036612Y13561388D01*
X5036613Y13561388D01*
X5100912Y13548014D01*
X5105196Y13547044D01*
X5176110Y13529692D01*
X5181712Y13529344D01*
X5181715Y13529344D01*
X5187264Y13529000D01*
X5187262Y13528964D01*
X5191255Y13528725D01*
X5195447Y13528351D01*
X5202615Y13526860D01*
X5280020Y13528954D01*
X5283428Y13529000D01*
X15200129Y13529000D01*
X15268250Y13508998D01*
X15314743Y13455342D01*
X15324847Y13385068D01*
X15295353Y13320488D01*
X15289224Y13313905D01*
X15139724Y13164405D01*
X15077412Y13130379D01*
X15050629Y13127500D01*
X14537498Y13127500D01*
X14535050Y13127307D01*
X14535042Y13127307D01*
X14506579Y13125067D01*
X14506574Y13125066D01*
X14500169Y13124562D01*
X14400231Y13095528D01*
X14348012Y13080357D01*
X14348010Y13080356D01*
X14340399Y13078145D01*
X14333572Y13074108D01*
X14333573Y13074108D01*
X14204020Y12997491D01*
X14204017Y12997489D01*
X14197193Y12993453D01*
X14081745Y12878005D01*
X14019433Y12843979D01*
X13948618Y12849044D01*
X13927705Y12860701D01*
X13927126Y12859722D01*
X13920301Y12863758D01*
X13914041Y12868614D01*
X13906772Y12871759D01*
X13906768Y12871762D01*
X13873463Y12886174D01*
X13862813Y12891391D01*
X13824060Y12912695D01*
X13804437Y12917733D01*
X13785734Y12924137D01*
X13774420Y12929033D01*
X13774419Y12929033D01*
X13767145Y12932181D01*
X13759322Y12933420D01*
X13759312Y12933423D01*
X13723476Y12939099D01*
X13711856Y12941505D01*
X13676711Y12950528D01*
X13676710Y12950528D01*
X13669030Y12952500D01*
X13648776Y12952500D01*
X13629065Y12954051D01*
X13620681Y12955379D01*
X13609057Y12957220D01*
X13566097Y12953159D01*
X13565039Y12953059D01*
X13553181Y12952500D01*
X11803950Y12952500D01*
X11735829Y12972502D01*
X11722729Y12983059D01*
X11722675Y12982989D01*
X11716415Y12987845D01*
X11710807Y12993453D01*
X11703983Y12997489D01*
X11703980Y12997491D01*
X11574427Y13074108D01*
X11574428Y13074108D01*
X11567601Y13078145D01*
X11559990Y13080356D01*
X11559988Y13080357D01*
X11507769Y13095528D01*
X11407831Y13124562D01*
X11401426Y13125066D01*
X11401421Y13125067D01*
X11372958Y13127307D01*
X11372950Y13127307D01*
X11370502Y13127500D01*
X9587498Y13127500D01*
X9585050Y13127307D01*
X9585042Y13127307D01*
X9556579Y13125067D01*
X9556574Y13125066D01*
X9550169Y13124562D01*
X9450231Y13095528D01*
X9398012Y13080357D01*
X9398010Y13080356D01*
X9390399Y13078145D01*
X9383572Y13074108D01*
X9383573Y13074108D01*
X9314988Y13033547D01*
X9250849Y13016000D01*
X6619267Y13016000D01*
X6608084Y13016527D01*
X6600591Y13018202D01*
X6592665Y13017953D01*
X6592664Y13017953D01*
X6532514Y13016062D01*
X6528555Y13016000D01*
X6500644Y13016000D01*
X6496710Y13015503D01*
X6496709Y13015503D01*
X6496644Y13015495D01*
X6484807Y13014562D01*
X6452549Y13013548D01*
X6448530Y13013422D01*
X6440611Y13013173D01*
X6421157Y13007521D01*
X6401800Y13003513D01*
X6389570Y13001968D01*
X6389569Y13001968D01*
X6381703Y13000974D01*
X6374332Y12998055D01*
X6374330Y12998055D01*
X6340588Y12984696D01*
X6329358Y12980851D01*
X6294517Y12970729D01*
X6294516Y12970729D01*
X6286907Y12968518D01*
X6280088Y12964485D01*
X6280083Y12964483D01*
X6269472Y12958207D01*
X6251724Y12949512D01*
X6232883Y12942052D01*
X6226467Y12937390D01*
X6226466Y12937390D01*
X6197113Y12916064D01*
X6187193Y12909548D01*
X6155965Y12891080D01*
X6155962Y12891078D01*
X6149138Y12887042D01*
X6134817Y12872721D01*
X6119784Y12859881D01*
X6103393Y12847972D01*
X6088657Y12830159D01*
X6075202Y12813895D01*
X6067212Y12805116D01*
X4156000Y10893905D01*
X4093688Y10859879D01*
X4066905Y10857000D01*
X4007305Y10857000D01*
X3939184Y10877002D01*
X3901513Y10914560D01*
X3813322Y11050883D01*
X3813320Y11050886D01*
X3810514Y11055223D01*
X3660170Y11220449D01*
X3656119Y11223648D01*
X3656115Y11223652D01*
X3488914Y11355700D01*
X3488910Y11355702D01*
X3484859Y11358902D01*
X3443069Y11381971D01*
X3393098Y11432403D01*
X3378326Y11501846D01*
X3403442Y11568252D01*
X3430794Y11594859D01*
X3605828Y11719708D01*
X3613700Y11726361D01*
X3764552Y11876688D01*
X3771230Y11884535D01*
X3895503Y12057480D01*
X3900813Y12066317D01*
X3995170Y12257233D01*
X3998969Y12266828D01*
X4060877Y12470590D01*
X4063055Y12480663D01*
X4064486Y12491538D01*
X4062275Y12505722D01*
X4049117Y12509500D01*
X1413725Y12509500D01*
X1400194Y12505527D01*
X1398757Y12495534D01*
X1429065Y12361054D01*
X1432145Y12351225D01*
X1512270Y12153897D01*
X1516913Y12144706D01*
X1628194Y11963112D01*
X1634277Y11954801D01*
X1773713Y11793833D01*
X1781080Y11786617D01*
X1944934Y11650584D01*
X1953381Y11644669D01*
X2022469Y11604297D01*
X2071193Y11552658D01*
X2084264Y11482875D01*
X2057533Y11417104D01*
X2017084Y11383748D01*
X2004107Y11376993D01*
X1999974Y11373890D01*
X1999971Y11373888D01*
X1842108Y11255361D01*
X1825465Y11242865D01*
X1671129Y11081362D01*
X1668215Y11077090D01*
X1668214Y11077089D01*
X1614951Y10999008D01*
X1545243Y10896820D01*
X1451188Y10694195D01*
X1391489Y10478930D01*
X1367751Y10256805D01*
X1368048Y10251652D01*
X1368048Y10251649D01*
X1378958Y10062431D01*
X1380610Y10033785D01*
X1381747Y10028739D01*
X1381748Y10028733D01*
X1390493Y9989932D01*
X1429722Y9815861D01*
X1513766Y9608884D01*
X1516465Y9604480D01*
X1600706Y9467011D01*
X1630487Y9418412D01*
X1776750Y9249562D01*
X1948626Y9106868D01*
X1979924Y9088579D01*
X2021945Y9064024D01*
X2070669Y9012386D01*
X2083740Y8942603D01*
X2057009Y8876831D01*
X2016555Y8843473D01*
X2004107Y8836993D01*
X1999974Y8833890D01*
X1999971Y8833888D01*
X1829600Y8705970D01*
X1825465Y8702865D01*
X1671129Y8541362D01*
X1545243Y8356820D01*
X1543064Y8352125D01*
X1473613Y8202505D01*
X1451188Y8154195D01*
X1391489Y7938930D01*
X1367751Y7716805D01*
X1368048Y7711652D01*
X1368048Y7711649D01*
X1378958Y7522431D01*
X1380610Y7493785D01*
X1381747Y7488739D01*
X1381748Y7488733D01*
X1389794Y7453032D01*
X1429722Y7275861D01*
X1467945Y7181729D01*
X1503864Y7093271D01*
X1513766Y7068884D01*
X1531487Y7039966D01*
X1600706Y6927011D01*
X1630487Y6878412D01*
X1776750Y6709562D01*
X1948626Y6566868D01*
X1979924Y6548579D01*
X2021945Y6524024D01*
X2070669Y6472386D01*
X2083740Y6402603D01*
X2057009Y6336831D01*
X2016555Y6303473D01*
X2004107Y6296993D01*
X1999974Y6293890D01*
X1999971Y6293888D01*
X1830598Y6166719D01*
X1825465Y6162865D01*
X1821893Y6159127D01*
X1697541Y6029000D01*
X1671129Y6001362D01*
X1668215Y5997090D01*
X1668214Y5997089D01*
X1619520Y5925706D01*
X1545243Y5816820D01*
X1507822Y5736203D01*
X1469971Y5654659D01*
X1451188Y5614195D01*
X1391489Y5398930D01*
X1367751Y5176805D01*
X1368048Y5171652D01*
X1368048Y5171649D01*
X1378958Y4982431D01*
X1380610Y4953785D01*
X1381747Y4948739D01*
X1381748Y4948733D01*
X1389794Y4913032D01*
X1429722Y4735861D01*
X1513766Y4528884D01*
X1555531Y4460729D01*
X1600706Y4387011D01*
X1630487Y4338412D01*
X1776750Y4169562D01*
X1948626Y4026868D01*
X2141500Y3914162D01*
X2146325Y3912320D01*
X2146326Y3912319D01*
X2203464Y3890500D01*
X2350192Y3834470D01*
X2355260Y3833439D01*
X2355263Y3833438D01*
X2435410Y3817132D01*
X2569097Y3789933D01*
X2574272Y3789743D01*
X2574274Y3789743D01*
X2787173Y3781936D01*
X2787177Y3781936D01*
X2792337Y3781747D01*
X2797457Y3782403D01*
X2797459Y3782403D01*
X3008788Y3809475D01*
X3008789Y3809475D01*
X3013916Y3810132D01*
X3018866Y3811617D01*
X3222929Y3872839D01*
X3222934Y3872841D01*
X3227884Y3874326D01*
X3428494Y3972604D01*
X3610360Y4102327D01*
X3657214Y4149017D01*
X3734796Y4226329D01*
X3768596Y4260011D01*
X3792310Y4293012D01*
X3895935Y4437223D01*
X3898953Y4441423D01*
X3901246Y4446063D01*
X3902946Y4448892D01*
X3955174Y4496982D01*
X4010951Y4510000D01*
X4096446Y4510000D01*
X4164567Y4489998D01*
X4185541Y4473095D01*
X5510340Y3148295D01*
X6828388Y1830247D01*
X6835928Y1821961D01*
X6840040Y1815482D01*
X6845817Y1810057D01*
X6889691Y1768857D01*
X6892533Y1766102D01*
X6912270Y1746365D01*
X6915467Y1743885D01*
X6924487Y1736182D01*
X6956719Y1705914D01*
X6963665Y1702095D01*
X6963668Y1702093D01*
X6974474Y1696152D01*
X6990993Y1685301D01*
X7006999Y1672886D01*
X7014268Y1669741D01*
X7014272Y1669738D01*
X7047577Y1655326D01*
X7058226Y1650110D01*
X7096980Y1628805D01*
X7104655Y1626834D01*
X7104656Y1626834D01*
X7116602Y1623767D01*
X7135306Y1617363D01*
X7135309Y1617362D01*
X7153895Y1609319D01*
X7161718Y1608080D01*
X7161728Y1608077D01*
X7197564Y1602401D01*
X7209184Y1599995D01*
X7240999Y1591827D01*
X7252010Y1589000D01*
X7272264Y1589000D01*
X7291974Y1587449D01*
X7311983Y1584280D01*
X7319875Y1585026D01*
X7338620Y1586798D01*
X7356002Y1588441D01*
X7367859Y1589000D01*
X12303733Y1589000D01*
X12314916Y1588473D01*
X12322409Y1586798D01*
X12330335Y1587047D01*
X12330336Y1587047D01*
X12390486Y1588938D01*
X12394445Y1589000D01*
X12422356Y1589000D01*
X12426291Y1589497D01*
X12426356Y1589505D01*
X12438193Y1590438D01*
X12470451Y1591452D01*
X12474470Y1591578D01*
X12482389Y1591827D01*
X12501843Y1597479D01*
X12521200Y1601487D01*
X12533430Y1603032D01*
X12533431Y1603032D01*
X12541297Y1604026D01*
X12548668Y1606945D01*
X12548670Y1606945D01*
X12582412Y1620304D01*
X12593642Y1624149D01*
X12628483Y1634271D01*
X12628484Y1634271D01*
X12636093Y1636482D01*
X12642912Y1640515D01*
X12642917Y1640517D01*
X12653528Y1646793D01*
X12671276Y1655488D01*
X12690117Y1662948D01*
X12710487Y1677747D01*
X12725887Y1688936D01*
X12735807Y1695452D01*
X12767035Y1713920D01*
X12767038Y1713922D01*
X12773862Y1717958D01*
X12788183Y1732279D01*
X12803217Y1745120D01*
X12804932Y1746366D01*
X12819607Y1757028D01*
X12847798Y1791105D01*
X12855788Y1799884D01*
X13309173Y2253269D01*
X13914729Y2858824D01*
X13977039Y2892849D01*
X14047854Y2887784D01*
X14092917Y2858823D01*
X14197193Y2754547D01*
X14204017Y2750511D01*
X14204020Y2750509D01*
X14311589Y2686893D01*
X14340399Y2669855D01*
X14348010Y2667644D01*
X14348012Y2667643D01*
X14400231Y2652472D01*
X14500169Y2623438D01*
X14506574Y2622934D01*
X14506579Y2622933D01*
X14535042Y2620693D01*
X14535050Y2620693D01*
X14537498Y2620500D01*
X15289406Y2620500D01*
X15357527Y2600498D01*
X15378501Y2583595D01*
X16131843Y1830253D01*
X16139387Y1821963D01*
X16143500Y1815482D01*
X16149277Y1810057D01*
X16193167Y1768842D01*
X16195994Y1766102D01*
X16215731Y1746365D01*
X16218852Y1743944D01*
X16218859Y1743938D01*
X16218924Y1743888D01*
X16227945Y1736183D01*
X16260179Y1705914D01*
X16267127Y1702095D01*
X16267129Y1702093D01*
X16277932Y1696154D01*
X16294459Y1685298D01*
X16304198Y1677743D01*
X16304200Y1677742D01*
X16310460Y1672886D01*
X16351040Y1655326D01*
X16361688Y1650109D01*
X16386476Y1636482D01*
X16400440Y1628805D01*
X16408116Y1626834D01*
X16408119Y1626833D01*
X16420062Y1623767D01*
X16438766Y1617363D01*
X16438769Y1617362D01*
X16457355Y1609319D01*
X16465178Y1608080D01*
X16465188Y1608077D01*
X16501024Y1602401D01*
X16512644Y1599995D01*
X16544459Y1591827D01*
X16555470Y1589000D01*
X16575724Y1589000D01*
X16595434Y1587449D01*
X16615443Y1584280D01*
X16623335Y1585026D01*
X16642080Y1586798D01*
X16659462Y1588441D01*
X16671319Y1589000D01*
X25360733Y1589000D01*
X25371916Y1588473D01*
X25379409Y1586798D01*
X25387335Y1587047D01*
X25387336Y1587047D01*
X25447486Y1588938D01*
X25451445Y1589000D01*
X25479356Y1589000D01*
X25483291Y1589497D01*
X25483356Y1589505D01*
X25495193Y1590438D01*
X25527451Y1591452D01*
X25531470Y1591578D01*
X25539389Y1591827D01*
X25558843Y1597479D01*
X25578200Y1601487D01*
X25590430Y1603032D01*
X25590431Y1603032D01*
X25598297Y1604026D01*
X25605668Y1606945D01*
X25605670Y1606945D01*
X25639412Y1620304D01*
X25650642Y1624149D01*
X25685483Y1634271D01*
X25685484Y1634271D01*
X25693093Y1636482D01*
X25699912Y1640515D01*
X25699917Y1640517D01*
X25710528Y1646793D01*
X25728276Y1655488D01*
X25747117Y1662948D01*
X25767487Y1677747D01*
X25782887Y1688936D01*
X25792807Y1695452D01*
X25824035Y1713920D01*
X25824038Y1713922D01*
X25830862Y1717958D01*
X25845183Y1732279D01*
X25860217Y1745120D01*
X25861932Y1746366D01*
X25876607Y1757028D01*
X25904798Y1791105D01*
X25912788Y1799884D01*
X27232239Y3119334D01*
X27294551Y3153360D01*
X27365367Y3148295D01*
X27422202Y3105748D01*
X27442331Y3065391D01*
X27456855Y3015399D01*
X27460892Y3008573D01*
X27537509Y2879020D01*
X27537511Y2879017D01*
X27541547Y2872193D01*
X27659193Y2754547D01*
X27666017Y2750511D01*
X27666020Y2750509D01*
X27773589Y2686893D01*
X27802399Y2669855D01*
X27810010Y2667644D01*
X27810012Y2667643D01*
X27862231Y2652472D01*
X27962169Y2623438D01*
X27968574Y2622934D01*
X27968579Y2622933D01*
X27997042Y2620693D01*
X27997050Y2620693D01*
X27999498Y2620500D01*
X29259406Y2620500D01*
X29327527Y2600498D01*
X29348501Y2583595D01*
X30101843Y1830253D01*
X30109387Y1821963D01*
X30113500Y1815482D01*
X30119277Y1810057D01*
X30163167Y1768842D01*
X30165994Y1766102D01*
X30185730Y1746366D01*
X30188920Y1743892D01*
X30197946Y1736183D01*
X30230179Y1705914D01*
X30241358Y1699768D01*
X30247932Y1696154D01*
X30264456Y1685301D01*
X30280459Y1672887D01*
X30321039Y1655326D01*
X30331673Y1650117D01*
X30370440Y1628805D01*
X30378117Y1626834D01*
X30378122Y1626832D01*
X30390058Y1623768D01*
X30408766Y1617363D01*
X30427355Y1609319D01*
X30435183Y1608079D01*
X30435190Y1608077D01*
X30471024Y1602401D01*
X30482644Y1599995D01*
X30514459Y1591827D01*
X30525470Y1589000D01*
X30545724Y1589000D01*
X30565434Y1587449D01*
X30585443Y1584280D01*
X30593335Y1585026D01*
X30612080Y1586798D01*
X30629462Y1588441D01*
X30641319Y1589000D01*
X39481733Y1589000D01*
X39492916Y1588473D01*
X39500409Y1586798D01*
X39508335Y1587047D01*
X39508336Y1587047D01*
X39568486Y1588938D01*
X39572445Y1589000D01*
X39600356Y1589000D01*
X39604291Y1589497D01*
X39604356Y1589505D01*
X39616193Y1590438D01*
X39648451Y1591452D01*
X39652470Y1591578D01*
X39660389Y1591827D01*
X39679843Y1597479D01*
X39699200Y1601487D01*
X39711430Y1603032D01*
X39711431Y1603032D01*
X39719297Y1604026D01*
X39726668Y1606945D01*
X39726670Y1606945D01*
X39760412Y1620304D01*
X39771642Y1624149D01*
X39806483Y1634271D01*
X39806484Y1634271D01*
X39814093Y1636482D01*
X39820912Y1640515D01*
X39820917Y1640517D01*
X39831528Y1646793D01*
X39849276Y1655488D01*
X39868117Y1662948D01*
X39888487Y1677747D01*
X39903887Y1688936D01*
X39913807Y1695452D01*
X39945035Y1713920D01*
X39945038Y1713922D01*
X39951862Y1717958D01*
X39966183Y1732279D01*
X39981217Y1745120D01*
X39982932Y1746366D01*
X39997607Y1757028D01*
X40025798Y1791105D01*
X40033788Y1799884D01*
X41029227Y2795323D01*
X41091539Y2829349D01*
X41162354Y2824284D01*
X41207417Y2795323D01*
X41248193Y2754547D01*
X41255017Y2750511D01*
X41255020Y2750509D01*
X41362589Y2686893D01*
X41391399Y2669855D01*
X41399010Y2667644D01*
X41399012Y2667643D01*
X41451231Y2652472D01*
X41551169Y2623438D01*
X41557574Y2622934D01*
X41557579Y2622933D01*
X41586042Y2620693D01*
X41586050Y2620693D01*
X41588498Y2620500D01*
X42340406Y2620500D01*
X42408527Y2600498D01*
X42429501Y2583595D01*
X43182843Y1830253D01*
X43190387Y1821963D01*
X43194500Y1815482D01*
X43200277Y1810057D01*
X43244167Y1768842D01*
X43246994Y1766102D01*
X43266731Y1746365D01*
X43269852Y1743944D01*
X43269859Y1743938D01*
X43269924Y1743888D01*
X43278945Y1736183D01*
X43311179Y1705914D01*
X43318127Y1702095D01*
X43318129Y1702093D01*
X43328932Y1696154D01*
X43345459Y1685298D01*
X43355198Y1677743D01*
X43355200Y1677742D01*
X43361460Y1672886D01*
X43402040Y1655326D01*
X43412688Y1650109D01*
X43437476Y1636482D01*
X43451440Y1628805D01*
X43459116Y1626834D01*
X43459119Y1626833D01*
X43471062Y1623767D01*
X43489766Y1617363D01*
X43489769Y1617362D01*
X43508355Y1609319D01*
X43516178Y1608080D01*
X43516188Y1608077D01*
X43552024Y1602401D01*
X43563644Y1599995D01*
X43595459Y1591827D01*
X43606470Y1589000D01*
X43626724Y1589000D01*
X43646434Y1587449D01*
X43666443Y1584280D01*
X43674335Y1585026D01*
X43693080Y1586798D01*
X43710462Y1588441D01*
X43722319Y1589000D01*
X47355733Y1589000D01*
X47366916Y1588473D01*
X47374409Y1586798D01*
X47382335Y1587047D01*
X47382336Y1587047D01*
X47442486Y1588938D01*
X47446445Y1589000D01*
X47474356Y1589000D01*
X47478291Y1589497D01*
X47478356Y1589505D01*
X47490193Y1590438D01*
X47522451Y1591452D01*
X47526470Y1591578D01*
X47534389Y1591827D01*
X47553843Y1597479D01*
X47573200Y1601487D01*
X47585430Y1603032D01*
X47585431Y1603032D01*
X47593297Y1604026D01*
X47600668Y1606945D01*
X47600670Y1606945D01*
X47634412Y1620304D01*
X47645642Y1624149D01*
X47680483Y1634271D01*
X47680484Y1634271D01*
X47688093Y1636482D01*
X47694912Y1640515D01*
X47694917Y1640517D01*
X47705528Y1646793D01*
X47723276Y1655488D01*
X47742117Y1662948D01*
X47762487Y1677747D01*
X47777887Y1688936D01*
X47787807Y1695452D01*
X47819035Y1713920D01*
X47819038Y1713922D01*
X47825862Y1717958D01*
X47840183Y1732279D01*
X47855217Y1745120D01*
X47856932Y1746366D01*
X47871607Y1757028D01*
X47899798Y1791105D01*
X47907788Y1799884D01*
X50027049Y3919145D01*
X50089361Y3953171D01*
X50141262Y3953521D01*
X50321097Y3916933D01*
X50326272Y3916743D01*
X50326274Y3916743D01*
X50539173Y3908936D01*
X50539177Y3908936D01*
X50544337Y3908747D01*
X50549457Y3909403D01*
X50549459Y3909403D01*
X50760788Y3936475D01*
X50760789Y3936475D01*
X50765916Y3937132D01*
X50780662Y3941556D01*
X50974929Y3999839D01*
X50974934Y3999841D01*
X50979884Y4001326D01*
X51180494Y4099604D01*
X51362360Y4229327D01*
X51393152Y4260011D01*
X51476241Y4342811D01*
X51520596Y4387011D01*
X51545311Y4421405D01*
X51647935Y4564223D01*
X51650953Y4568423D01*
X51662361Y4591504D01*
X51747636Y4764047D01*
X51747637Y4764049D01*
X51749930Y4768689D01*
X51807754Y4959008D01*
X51813365Y4977477D01*
X51813365Y4977479D01*
X51814870Y4982431D01*
X51844029Y5203910D01*
X51845023Y5244605D01*
X51845574Y5267135D01*
X51845574Y5267139D01*
X51845656Y5270500D01*
X51827352Y5493139D01*
X51772931Y5709798D01*
X51683854Y5914660D01*
X51609884Y6029000D01*
X51565322Y6097883D01*
X51565320Y6097886D01*
X51562514Y6102223D01*
X51412170Y6267449D01*
X51408119Y6270648D01*
X51408115Y6270652D01*
X51240914Y6402700D01*
X51240910Y6402702D01*
X51236859Y6405902D01*
X51195553Y6428704D01*
X51145584Y6479136D01*
X51130812Y6548579D01*
X51155928Y6614984D01*
X51183280Y6641591D01*
X51249776Y6689022D01*
X51362360Y6769327D01*
X51393152Y6800011D01*
X51516935Y6923363D01*
X51520596Y6927011D01*
X51580094Y7009811D01*
X51647935Y7104223D01*
X51650953Y7108423D01*
X51689612Y7186643D01*
X51747636Y7304047D01*
X51747637Y7304049D01*
X51749930Y7308689D01*
X51814870Y7522431D01*
X51844029Y7743910D01*
X51844965Y7782217D01*
X51845574Y7807135D01*
X51845574Y7807139D01*
X51845656Y7810500D01*
X51827352Y8033139D01*
X51772931Y8249798D01*
X51683854Y8454660D01*
X51599123Y8585634D01*
X51565322Y8637883D01*
X51565320Y8637886D01*
X51562514Y8642223D01*
X51412170Y8807449D01*
X51408119Y8810648D01*
X51408115Y8810652D01*
X51240914Y8942700D01*
X51240910Y8942702D01*
X51236859Y8945902D01*
X51195553Y8968704D01*
X51145584Y9019136D01*
X51130812Y9088579D01*
X51155928Y9154984D01*
X51183280Y9181591D01*
X51249776Y9229022D01*
X51362360Y9309327D01*
X51368767Y9315711D01*
X51516935Y9463363D01*
X51520596Y9467011D01*
X51650953Y9648423D01*
X51686361Y9720065D01*
X51747636Y9844047D01*
X51747637Y9844049D01*
X51749930Y9848689D01*
X51807737Y10038953D01*
X51813365Y10057477D01*
X51813365Y10057479D01*
X51814870Y10062431D01*
X51844029Y10283910D01*
X51844121Y10287684D01*
X51845574Y10347135D01*
X51845574Y10347139D01*
X51845656Y10350500D01*
X51827352Y10573139D01*
X51772931Y10789798D01*
X51683854Y10994660D01*
X51638308Y11065064D01*
X51565322Y11177883D01*
X51565320Y11177886D01*
X51562514Y11182223D01*
X51412170Y11347449D01*
X51408119Y11350648D01*
X51408115Y11350652D01*
X51240914Y11482700D01*
X51240910Y11482702D01*
X51236859Y11485902D01*
X51195069Y11508971D01*
X51145098Y11559403D01*
X51130326Y11628846D01*
X51155442Y11695252D01*
X51182794Y11721859D01*
X51357828Y11846708D01*
X51365700Y11853361D01*
X51516552Y12003688D01*
X51523230Y12011535D01*
X51647503Y12184480D01*
X51652813Y12193317D01*
X51747170Y12384233D01*
X51750969Y12393828D01*
X51812877Y12597590D01*
X51815055Y12607663D01*
X51816486Y12618538D01*
X51814275Y12632722D01*
X51801117Y12636500D01*
X49165725Y12636500D01*
X49152194Y12632527D01*
X49150757Y12622534D01*
X49182201Y12483011D01*
X49180249Y12482571D01*
X49181367Y12420163D01*
X49144059Y12359759D01*
X49080017Y12329114D01*
X49059854Y12327490D01*
X47915500Y12327490D01*
X47847379Y12347492D01*
X47800886Y12401148D01*
X47789500Y12453490D01*
X47789500Y12618385D01*
X47785025Y12633624D01*
X47783635Y12634829D01*
X47775952Y12636500D01*
X46566000Y12636500D01*
X46497879Y12656502D01*
X46451386Y12710158D01*
X46440000Y12762500D01*
X46440000Y13018500D01*
X46460002Y13086621D01*
X46513658Y13133114D01*
X46566000Y13144500D01*
X47771384Y13144500D01*
X47786623Y13148975D01*
X47787828Y13150365D01*
X47789499Y13158048D01*
X47789499Y13403000D01*
X47809501Y13471121D01*
X47863157Y13517614D01*
X47915499Y13529000D01*
X49085298Y13529000D01*
X49153419Y13508998D01*
X49199912Y13455342D01*
X49210016Y13385068D01*
X49203548Y13359493D01*
X49202277Y13356038D01*
X49146889Y13156317D01*
X49148412Y13147893D01*
X49160792Y13144500D01*
X51800844Y13144500D01*
X51814375Y13148473D01*
X51815680Y13157553D01*
X51773714Y13324625D01*
X51770394Y13334376D01*
X51685469Y13529692D01*
X51680605Y13538761D01*
X51564926Y13717574D01*
X51558636Y13725743D01*
X51414793Y13883823D01*
X51383741Y13947669D01*
X51392135Y14018167D01*
X51437312Y14072936D01*
X51463756Y14086605D01*
X51570797Y14126733D01*
X51579205Y14129885D01*
X51695761Y14217239D01*
X51783115Y14333795D01*
X51834245Y14470184D01*
X51841000Y14532366D01*
X51841000Y16328634D01*
X51834245Y16390816D01*
X51783115Y16527205D01*
X51695761Y16643761D01*
X51593633Y16720302D01*
X51586387Y16725733D01*
X51586384Y16725735D01*
X51579205Y16731115D01*
X51570802Y16734265D01*
X51562926Y16738577D01*
X51564421Y16741308D01*
X51520019Y16774652D01*
X51495308Y16841209D01*
X51495000Y16850009D01*
X51495000Y21162947D01*
X51515002Y21231068D01*
X51568658Y21277561D01*
X51607390Y21288210D01*
X51612901Y21288809D01*
X51630816Y21290755D01*
X51767205Y21341885D01*
X51883761Y21429239D01*
X51971115Y21545795D01*
X52022245Y21682184D01*
X52029000Y21744366D01*
X52029000Y23340634D01*
X52022245Y23402816D01*
X51971115Y23539205D01*
X51883761Y23655761D01*
X51829435Y23696476D01*
X51786920Y23753335D01*
X51779000Y23797302D01*
X51779000Y24448130D01*
X51780433Y24467080D01*
X51782599Y24481315D01*
X51782599Y24481319D01*
X51783699Y24488549D01*
X51782991Y24497260D01*
X51779415Y24541218D01*
X51779000Y24551433D01*
X51779000Y24559493D01*
X51775709Y24587720D01*
X51775278Y24592079D01*
X51771707Y24635979D01*
X51769360Y24664836D01*
X51767105Y24671797D01*
X51765918Y24677737D01*
X51764529Y24683612D01*
X51763682Y24690881D01*
X51738764Y24759530D01*
X51737347Y24763658D01*
X51717107Y24826136D01*
X51717106Y24826138D01*
X51714851Y24833099D01*
X51711055Y24839354D01*
X51708549Y24844828D01*
X51705830Y24850258D01*
X51703333Y24857137D01*
X51663314Y24918176D01*
X51660967Y24921895D01*
X51642153Y24952900D01*
X51623095Y24984307D01*
X51615697Y24992684D01*
X51615724Y24992708D01*
X51613071Y24995700D01*
X51610368Y24998933D01*
X51606356Y25005052D01*
X51550117Y25058328D01*
X51547675Y25060706D01*
X50528970Y26079411D01*
X50516584Y26093823D01*
X50508051Y26105418D01*
X50508046Y26105423D01*
X50503708Y26111318D01*
X50498130Y26116057D01*
X50498127Y26116060D01*
X50463432Y26145535D01*
X50455916Y26152465D01*
X50450221Y26158160D01*
X50442956Y26163908D01*
X50427949Y26175781D01*
X50424545Y26178572D01*
X50374497Y26221091D01*
X50374495Y26221092D01*
X50368915Y26225833D01*
X50362399Y26229161D01*
X50357350Y26232528D01*
X50352221Y26235695D01*
X50346484Y26240234D01*
X50280325Y26271155D01*
X50276425Y26273061D01*
X50211392Y26306269D01*
X50204284Y26308008D01*
X50198641Y26310107D01*
X50192878Y26312024D01*
X50186250Y26315122D01*
X50160245Y26320531D01*
X50145448Y26323609D01*
X50082828Y26357065D01*
X50059878Y26389463D01*
X50059850Y26389446D01*
X50059570Y26389898D01*
X49966778Y26539848D01*
X49841603Y26664805D01*
X49820645Y26677724D01*
X49697268Y26753775D01*
X49697266Y26753776D01*
X49691038Y26757615D01*
X49554058Y26803049D01*
X49529689Y26811132D01*
X49529687Y26811132D01*
X49523161Y26813297D01*
X49516325Y26813997D01*
X49516322Y26813998D01*
X49473269Y26818409D01*
X49418700Y26824000D01*
X48642900Y26824000D01*
X48639654Y26823663D01*
X48639650Y26823663D01*
X48543992Y26813738D01*
X48543988Y26813737D01*
X48537134Y26813026D01*
X48530598Y26810845D01*
X48530596Y26810845D01*
X48457395Y26786423D01*
X48369354Y26757050D01*
X48218952Y26663978D01*
X48093995Y26538803D01*
X48091198Y26534265D01*
X48033947Y26493676D01*
X47963024Y26490446D01*
X47901613Y26526072D01*
X47894238Y26534568D01*
X47886202Y26544707D01*
X47771471Y26659239D01*
X47760060Y26668251D01*
X47622057Y26753316D01*
X47608876Y26759463D01*
X47454590Y26810638D01*
X47441214Y26813505D01*
X47346862Y26823172D01*
X47340445Y26823500D01*
X47227915Y26823500D01*
X47212676Y26819025D01*
X47211471Y26817635D01*
X47209800Y26809952D01*
X47209800Y24375616D01*
X47214275Y24360377D01*
X47215665Y24359172D01*
X47223348Y24357501D01*
X47340395Y24357501D01*
X47346914Y24357838D01*
X47442506Y24367757D01*
X47455900Y24370649D01*
X47610084Y24422088D01*
X47623262Y24428261D01*
X47761107Y24513563D01*
X47772508Y24522599D01*
X47887038Y24637328D01*
X47894094Y24646262D01*
X47952012Y24687323D01*
X48022935Y24690553D01*
X48084346Y24654926D01*
X48091146Y24647093D01*
X48094822Y24641152D01*
X48100004Y24635979D01*
X48122413Y24613609D01*
X48219997Y24516195D01*
X48226227Y24512355D01*
X48226228Y24512354D01*
X48363588Y24427684D01*
X48370562Y24423385D01*
X48399662Y24413733D01*
X48531911Y24369868D01*
X48531913Y24369868D01*
X48538439Y24367703D01*
X48545275Y24367003D01*
X48545278Y24367002D01*
X48588331Y24362591D01*
X48642900Y24357000D01*
X49418700Y24357000D01*
X49421946Y24357337D01*
X49421950Y24357337D01*
X49517608Y24367262D01*
X49517612Y24367263D01*
X49524466Y24367974D01*
X49531002Y24370155D01*
X49531004Y24370155D01*
X49671070Y24416885D01*
X49692246Y24423950D01*
X49821645Y24504025D01*
X49890097Y24522863D01*
X49957866Y24501702D01*
X49977043Y24485976D01*
X50225095Y24237924D01*
X50259121Y24175612D01*
X50262000Y24148829D01*
X50262000Y23927000D01*
X50241998Y23858879D01*
X50188342Y23812386D01*
X50136000Y23801000D01*
X49172366Y23801000D01*
X49110184Y23794245D01*
X49102784Y23791471D01*
X49098558Y23790466D01*
X49040261Y23790466D01*
X49022854Y23794605D01*
X48971986Y23800131D01*
X48965172Y23800500D01*
X48692615Y23800500D01*
X48677376Y23796025D01*
X48676171Y23794635D01*
X48674500Y23786952D01*
X48674500Y21302616D01*
X48678975Y21287377D01*
X48680365Y21286172D01*
X48688048Y21284501D01*
X48961000Y21284501D01*
X49029121Y21264499D01*
X49075614Y21210843D01*
X49087000Y21158501D01*
X49087000Y20725000D01*
X49066998Y20656879D01*
X49013342Y20610386D01*
X48961000Y20599000D01*
X47659094Y20599000D01*
X47590973Y20619002D01*
X47569999Y20635905D01*
X46458074Y21747831D01*
X47412501Y21747831D01*
X47412871Y21741010D01*
X47418395Y21690148D01*
X47422021Y21674896D01*
X47467176Y21554446D01*
X47475714Y21538851D01*
X47552215Y21436776D01*
X47564776Y21424215D01*
X47666851Y21347714D01*
X47682446Y21339176D01*
X47802894Y21294022D01*
X47818149Y21290395D01*
X47869014Y21284869D01*
X47875828Y21284500D01*
X48148385Y21284500D01*
X48163624Y21288975D01*
X48164829Y21290365D01*
X48166500Y21298048D01*
X48166500Y22270385D01*
X48162025Y22285624D01*
X48160635Y22286829D01*
X48152952Y22288500D01*
X47430616Y22288500D01*
X47415377Y22284025D01*
X47414172Y22282635D01*
X47412501Y22274952D01*
X47412501Y21747831D01*
X46458074Y21747831D01*
X46115153Y22090752D01*
X45391290Y22814615D01*
X47412500Y22814615D01*
X47416975Y22799376D01*
X47418365Y22798171D01*
X47426048Y22796500D01*
X48148385Y22796500D01*
X48163624Y22800975D01*
X48164829Y22802365D01*
X48166500Y22810048D01*
X48166500Y23782384D01*
X48162025Y23797623D01*
X48160635Y23798828D01*
X48152952Y23800499D01*
X47875831Y23800499D01*
X47869010Y23800129D01*
X47818148Y23794605D01*
X47802896Y23790979D01*
X47682446Y23745824D01*
X47666851Y23737286D01*
X47564776Y23660785D01*
X47552215Y23648224D01*
X47475714Y23546149D01*
X47467176Y23530554D01*
X47422022Y23410106D01*
X47418395Y23394851D01*
X47412869Y23343986D01*
X47412500Y23337172D01*
X47412500Y22814615D01*
X45391290Y22814615D01*
X44636152Y23569753D01*
X44628612Y23578039D01*
X44624500Y23584518D01*
X44574848Y23631144D01*
X44572007Y23633898D01*
X44552270Y23653635D01*
X44549073Y23656115D01*
X44540051Y23663820D01*
X44507821Y23694086D01*
X44500875Y23697905D01*
X44500872Y23697907D01*
X44490066Y23703848D01*
X44473547Y23714699D01*
X44471372Y23716386D01*
X44457541Y23727114D01*
X44450272Y23730259D01*
X44450268Y23730262D01*
X44416963Y23744674D01*
X44406313Y23749891D01*
X44367560Y23771195D01*
X44347937Y23776233D01*
X44329234Y23782637D01*
X44317920Y23787533D01*
X44317919Y23787533D01*
X44310645Y23790681D01*
X44302822Y23791920D01*
X44302812Y23791923D01*
X44266976Y23797599D01*
X44255361Y23800004D01*
X44242517Y23803301D01*
X44181509Y23839612D01*
X44168057Y23856899D01*
X44069514Y24009223D01*
X44066032Y24013050D01*
X43922298Y24171012D01*
X43891246Y24234858D01*
X43899641Y24305357D01*
X43944817Y24360125D01*
X43971261Y24373794D01*
X44077797Y24413733D01*
X44086205Y24416885D01*
X44202761Y24504239D01*
X44290115Y24620795D01*
X44341245Y24757184D01*
X44348000Y24819366D01*
X44348000Y25068405D01*
X45860301Y25068405D01*
X45860638Y25061886D01*
X45870557Y24966294D01*
X45873449Y24952900D01*
X45924888Y24798716D01*
X45931061Y24785538D01*
X46016363Y24647693D01*
X46025399Y24636292D01*
X46140129Y24521761D01*
X46151540Y24512749D01*
X46289543Y24427684D01*
X46302724Y24421537D01*
X46457010Y24370362D01*
X46470386Y24367495D01*
X46564738Y24357828D01*
X46571154Y24357500D01*
X46683685Y24357500D01*
X46698924Y24361975D01*
X46700129Y24363365D01*
X46701800Y24371048D01*
X46701800Y25318385D01*
X46697325Y25333624D01*
X46695935Y25334829D01*
X46688252Y25336500D01*
X45878416Y25336500D01*
X45863177Y25332025D01*
X45861972Y25330635D01*
X45860301Y25322952D01*
X45860301Y25068405D01*
X44348000Y25068405D01*
X44348000Y25862615D01*
X45860300Y25862615D01*
X45864775Y25847376D01*
X45866165Y25846171D01*
X45873848Y25844500D01*
X46683685Y25844500D01*
X46698924Y25848975D01*
X46700129Y25850365D01*
X46701800Y25858048D01*
X46701800Y26805384D01*
X46697325Y26820623D01*
X46695935Y26821828D01*
X46688252Y26823499D01*
X46571205Y26823499D01*
X46564686Y26823162D01*
X46469094Y26813243D01*
X46455700Y26810351D01*
X46301516Y26758912D01*
X46288338Y26752739D01*
X46150493Y26667437D01*
X46139092Y26658401D01*
X46024561Y26543671D01*
X46015549Y26532260D01*
X45930484Y26394257D01*
X45924337Y26381076D01*
X45873162Y26226790D01*
X45870295Y26213414D01*
X45860628Y26119062D01*
X45860300Y26112645D01*
X45860300Y25862615D01*
X44348000Y25862615D01*
X44348000Y26615634D01*
X44341245Y26677816D01*
X44290115Y26814205D01*
X44202761Y26930761D01*
X44086205Y27018115D01*
X43949816Y27069245D01*
X43887634Y27076000D01*
X42091366Y27076000D01*
X42029184Y27069245D01*
X41892795Y27018115D01*
X41776239Y26930761D01*
X41688885Y26814205D01*
X41685733Y26805797D01*
X41644419Y26695593D01*
X41601777Y26638829D01*
X41535216Y26614129D01*
X41465867Y26629337D01*
X41433243Y26655024D01*
X41382651Y26710625D01*
X41382642Y26710634D01*
X41379170Y26714449D01*
X41375119Y26717648D01*
X41375115Y26717652D01*
X41207914Y26849700D01*
X41207910Y26849702D01*
X41203859Y26852902D01*
X41171805Y26870597D01*
X41083593Y26919292D01*
X41008289Y26960862D01*
X41003420Y26962586D01*
X41003416Y26962588D01*
X40802587Y27033705D01*
X40802583Y27033706D01*
X40797712Y27035431D01*
X40792619Y27036338D01*
X40792616Y27036339D01*
X40582873Y27073700D01*
X40582867Y27073701D01*
X40577784Y27074606D01*
X40503952Y27075508D01*
X40359581Y27077272D01*
X40359579Y27077272D01*
X40354411Y27077335D01*
X40133591Y27043545D01*
X39921256Y26974143D01*
X39890943Y26958363D01*
X39756761Y26888512D01*
X39723107Y26870993D01*
X39718974Y26867890D01*
X39718971Y26867888D01*
X39548600Y26739970D01*
X39544465Y26736865D01*
X39483713Y26673292D01*
X39450780Y26638829D01*
X39390129Y26575362D01*
X39282701Y26417879D01*
X39227793Y26372879D01*
X39157268Y26364708D01*
X39093521Y26395962D01*
X39072824Y26420446D01*
X38992322Y26544883D01*
X38992320Y26544886D01*
X38989514Y26549223D01*
X38839170Y26714449D01*
X38835119Y26717648D01*
X38835115Y26717652D01*
X38667914Y26849700D01*
X38667910Y26849702D01*
X38663859Y26852902D01*
X38631805Y26870597D01*
X38543593Y26919292D01*
X38468289Y26960862D01*
X38463420Y26962586D01*
X38463416Y26962588D01*
X38262587Y27033705D01*
X38262583Y27033706D01*
X38257712Y27035431D01*
X38252619Y27036338D01*
X38252616Y27036339D01*
X38042873Y27073700D01*
X38042867Y27073701D01*
X38037784Y27074606D01*
X37963952Y27075508D01*
X37819581Y27077272D01*
X37819579Y27077272D01*
X37814411Y27077335D01*
X37593591Y27043545D01*
X37381256Y26974143D01*
X37350943Y26958363D01*
X37216761Y26888512D01*
X37183107Y26870993D01*
X37178974Y26867890D01*
X37178971Y26867888D01*
X37008600Y26739970D01*
X37004465Y26736865D01*
X36943713Y26673292D01*
X36910780Y26638829D01*
X36850129Y26575362D01*
X36742701Y26417879D01*
X36687793Y26372879D01*
X36617268Y26364708D01*
X36553521Y26395962D01*
X36532824Y26420446D01*
X36452322Y26544883D01*
X36452320Y26544886D01*
X36449514Y26549223D01*
X36299170Y26714449D01*
X36295119Y26717648D01*
X36295115Y26717652D01*
X36127914Y26849700D01*
X36127910Y26849702D01*
X36123859Y26852902D01*
X36091805Y26870597D01*
X36003593Y26919292D01*
X35928289Y26960862D01*
X35923420Y26962586D01*
X35923416Y26962588D01*
X35722587Y27033705D01*
X35722583Y27033706D01*
X35717712Y27035431D01*
X35712619Y27036338D01*
X35712616Y27036339D01*
X35502873Y27073700D01*
X35502867Y27073701D01*
X35497784Y27074606D01*
X35423952Y27075508D01*
X35279581Y27077272D01*
X35279579Y27077272D01*
X35274411Y27077335D01*
X35053591Y27043545D01*
X34841256Y26974143D01*
X34810943Y26958363D01*
X34676761Y26888512D01*
X34643107Y26870993D01*
X34638974Y26867890D01*
X34638971Y26867888D01*
X34468600Y26739970D01*
X34464465Y26736865D01*
X34403713Y26673292D01*
X34370780Y26638829D01*
X34310129Y26575362D01*
X34202701Y26417879D01*
X34147793Y26372879D01*
X34077268Y26364708D01*
X34013521Y26395962D01*
X33992824Y26420446D01*
X33912322Y26544883D01*
X33912320Y26544886D01*
X33909514Y26549223D01*
X33759170Y26714449D01*
X33755119Y26717648D01*
X33755115Y26717652D01*
X33587914Y26849700D01*
X33587910Y26849702D01*
X33583859Y26852902D01*
X33551805Y26870597D01*
X33463593Y26919292D01*
X33388289Y26960862D01*
X33383420Y26962586D01*
X33383416Y26962588D01*
X33182587Y27033705D01*
X33182583Y27033706D01*
X33177712Y27035431D01*
X33172619Y27036338D01*
X33172616Y27036339D01*
X32962873Y27073700D01*
X32962867Y27073701D01*
X32957784Y27074606D01*
X32883952Y27075508D01*
X32739581Y27077272D01*
X32739579Y27077272D01*
X32734411Y27077335D01*
X32513591Y27043545D01*
X32301256Y26974143D01*
X32270943Y26958363D01*
X32136761Y26888512D01*
X32103107Y26870993D01*
X32098974Y26867890D01*
X32098971Y26867888D01*
X31928600Y26739970D01*
X31924465Y26736865D01*
X31863713Y26673292D01*
X31830780Y26638829D01*
X31770129Y26575362D01*
X31662701Y26417879D01*
X31607793Y26372879D01*
X31537268Y26364708D01*
X31473521Y26395962D01*
X31452824Y26420446D01*
X31372322Y26544883D01*
X31372320Y26544886D01*
X31369514Y26549223D01*
X31219170Y26714449D01*
X31215119Y26717648D01*
X31215115Y26717652D01*
X31047914Y26849700D01*
X31047910Y26849702D01*
X31043859Y26852902D01*
X31011805Y26870597D01*
X30923593Y26919292D01*
X30848289Y26960862D01*
X30843420Y26962586D01*
X30843416Y26962588D01*
X30642587Y27033705D01*
X30642583Y27033706D01*
X30637712Y27035431D01*
X30632619Y27036338D01*
X30632616Y27036339D01*
X30422873Y27073700D01*
X30422867Y27073701D01*
X30417784Y27074606D01*
X30343952Y27075508D01*
X30199581Y27077272D01*
X30199579Y27077272D01*
X30194411Y27077335D01*
X29973591Y27043545D01*
X29761256Y26974143D01*
X29730943Y26958363D01*
X29596761Y26888512D01*
X29563107Y26870993D01*
X29558974Y26867890D01*
X29558971Y26867888D01*
X29388600Y26739970D01*
X29384465Y26736865D01*
X29323713Y26673292D01*
X29290780Y26638829D01*
X29230129Y26575362D01*
X29122701Y26417879D01*
X29067793Y26372879D01*
X28997268Y26364708D01*
X28933521Y26395962D01*
X28912824Y26420446D01*
X28832322Y26544883D01*
X28832320Y26544886D01*
X28829514Y26549223D01*
X28679170Y26714449D01*
X28675119Y26717648D01*
X28675115Y26717652D01*
X28507914Y26849700D01*
X28507910Y26849702D01*
X28503859Y26852902D01*
X28471805Y26870597D01*
X28383593Y26919292D01*
X28308289Y26960862D01*
X28303420Y26962586D01*
X28303416Y26962588D01*
X28102587Y27033705D01*
X28102583Y27033706D01*
X28097712Y27035431D01*
X28092619Y27036338D01*
X28092616Y27036339D01*
X27882873Y27073700D01*
X27882867Y27073701D01*
X27877784Y27074606D01*
X27803952Y27075508D01*
X27659581Y27077272D01*
X27659579Y27077272D01*
X27654411Y27077335D01*
X27433591Y27043545D01*
X27221256Y26974143D01*
X27190943Y26958363D01*
X27056761Y26888512D01*
X27023107Y26870993D01*
X27018974Y26867890D01*
X27018971Y26867888D01*
X26848600Y26739970D01*
X26844465Y26736865D01*
X26783713Y26673292D01*
X26750780Y26638829D01*
X26690129Y26575362D01*
X26582701Y26417879D01*
X26527793Y26372879D01*
X26457268Y26364708D01*
X26393521Y26395962D01*
X26372824Y26420446D01*
X26292322Y26544883D01*
X26292320Y26544886D01*
X26289514Y26549223D01*
X26139170Y26714449D01*
X26135119Y26717648D01*
X26135115Y26717652D01*
X25967914Y26849700D01*
X25967910Y26849702D01*
X25963859Y26852902D01*
X25931805Y26870597D01*
X25843593Y26919292D01*
X25768289Y26960862D01*
X25763420Y26962586D01*
X25763416Y26962588D01*
X25562587Y27033705D01*
X25562583Y27033706D01*
X25557712Y27035431D01*
X25552619Y27036338D01*
X25552616Y27036339D01*
X25342873Y27073700D01*
X25342867Y27073701D01*
X25337784Y27074606D01*
X25263952Y27075508D01*
X25119581Y27077272D01*
X25119579Y27077272D01*
X25114411Y27077335D01*
X24893591Y27043545D01*
X24681256Y26974143D01*
X24650943Y26958363D01*
X24516761Y26888512D01*
X24483107Y26870993D01*
X24478974Y26867890D01*
X24478971Y26867888D01*
X24308600Y26739970D01*
X24304465Y26736865D01*
X24243713Y26673292D01*
X24210780Y26638829D01*
X24150129Y26575362D01*
X24042701Y26417879D01*
X23987793Y26372879D01*
X23917268Y26364708D01*
X23853521Y26395962D01*
X23832824Y26420446D01*
X23752322Y26544883D01*
X23752320Y26544886D01*
X23749514Y26549223D01*
X23599170Y26714449D01*
X23595119Y26717648D01*
X23595115Y26717652D01*
X23427914Y26849700D01*
X23427910Y26849702D01*
X23423859Y26852902D01*
X23391805Y26870597D01*
X23303593Y26919292D01*
X23228289Y26960862D01*
X23223420Y26962586D01*
X23223416Y26962588D01*
X23022587Y27033705D01*
X23022583Y27033706D01*
X23017712Y27035431D01*
X23012619Y27036338D01*
X23012616Y27036339D01*
X22802873Y27073700D01*
X22802867Y27073701D01*
X22797784Y27074606D01*
X22723952Y27075508D01*
X22579581Y27077272D01*
X22579579Y27077272D01*
X22574411Y27077335D01*
X22353591Y27043545D01*
X22141256Y26974143D01*
X22110943Y26958363D01*
X21976761Y26888512D01*
X21943107Y26870993D01*
X21938974Y26867890D01*
X21938971Y26867888D01*
X21768600Y26739970D01*
X21764465Y26736865D01*
X21703713Y26673292D01*
X21670780Y26638829D01*
X21610129Y26575362D01*
X21502701Y26417879D01*
X21447793Y26372879D01*
X21377268Y26364708D01*
X21313521Y26395962D01*
X21292824Y26420446D01*
X21212322Y26544883D01*
X21212320Y26544886D01*
X21209514Y26549223D01*
X21059170Y26714449D01*
X21055119Y26717648D01*
X21055115Y26717652D01*
X20887914Y26849700D01*
X20887910Y26849702D01*
X20883859Y26852902D01*
X20851805Y26870597D01*
X20763593Y26919292D01*
X20688289Y26960862D01*
X20683420Y26962586D01*
X20683416Y26962588D01*
X20482587Y27033705D01*
X20482583Y27033706D01*
X20477712Y27035431D01*
X20472619Y27036338D01*
X20472616Y27036339D01*
X20262873Y27073700D01*
X20262867Y27073701D01*
X20257784Y27074606D01*
X20183952Y27075508D01*
X20039581Y27077272D01*
X20039579Y27077272D01*
X20034411Y27077335D01*
X19813591Y27043545D01*
X19601256Y26974143D01*
X19403107Y26870993D01*
X19400675Y26869167D01*
X19332969Y26849965D01*
X19265036Y26870597D01*
X19245039Y26886865D01*
X17852130Y28279775D01*
X17844590Y28288061D01*
X17840478Y28294540D01*
X17790826Y28341166D01*
X17787985Y28343920D01*
X17768248Y28363657D01*
X17765051Y28366137D01*
X17756029Y28373842D01*
X17742594Y28386458D01*
X17723799Y28404108D01*
X17716853Y28407927D01*
X17716850Y28407929D01*
X17706044Y28413870D01*
X17689525Y28424721D01*
X17685279Y28428014D01*
X17673519Y28437136D01*
X17666250Y28440281D01*
X17666246Y28440284D01*
X17632941Y28454696D01*
X17622291Y28459913D01*
X17583538Y28481217D01*
X17563915Y28486255D01*
X17545212Y28492659D01*
X17533898Y28497555D01*
X17533897Y28497555D01*
X17526623Y28500703D01*
X17518800Y28501942D01*
X17518790Y28501945D01*
X17482954Y28507621D01*
X17471334Y28510027D01*
X17436189Y28519050D01*
X17436188Y28519050D01*
X17428508Y28521022D01*
X17408254Y28521022D01*
X17388543Y28522573D01*
X17376364Y28524502D01*
X17368535Y28525742D01*
X17339264Y28522975D01*
X17324517Y28521581D01*
X17312659Y28521022D01*
X9549878Y28521022D01*
X9538695Y28521549D01*
X9531202Y28523224D01*
X9523276Y28522975D01*
X9523275Y28522975D01*
X9463125Y28521084D01*
X9459166Y28521022D01*
X9431255Y28521022D01*
X9427321Y28520525D01*
X9427320Y28520525D01*
X9427255Y28520517D01*
X9415418Y28519584D01*
X9383601Y28518584D01*
X9379140Y28518444D01*
X9371221Y28518195D01*
X9353565Y28513066D01*
X9351769Y28512544D01*
X9332417Y28508536D01*
X9325346Y28507642D01*
X9312314Y28505996D01*
X9304945Y28503079D01*
X9304943Y28503078D01*
X9271208Y28489722D01*
X9259980Y28485877D01*
X9217518Y28473540D01*
X9210696Y28469506D01*
X9210690Y28469503D01*
X9200079Y28463228D01*
X9182329Y28454532D01*
X9170867Y28449994D01*
X9170862Y28449991D01*
X9163494Y28447074D01*
X9149364Y28436808D01*
X9127736Y28421095D01*
X9117818Y28414579D01*
X9106574Y28407929D01*
X9079748Y28392064D01*
X9065424Y28377740D01*
X9050392Y28364901D01*
X9034004Y28352994D01*
X9005823Y28318929D01*
X8997833Y28310149D01*
X7698748Y27011064D01*
X7690462Y27003524D01*
X7683983Y26999412D01*
X7678558Y26993635D01*
X7637358Y26949761D01*
X7634603Y26946919D01*
X7614866Y26927182D01*
X7612386Y26923985D01*
X7604683Y26914965D01*
X7574415Y26882733D01*
X7570596Y26875787D01*
X7570594Y26875784D01*
X7564653Y26864978D01*
X7553802Y26848459D01*
X7541387Y26832453D01*
X7538242Y26825184D01*
X7538239Y26825180D01*
X7523827Y26791875D01*
X7518610Y26781225D01*
X7497306Y26742472D01*
X7495335Y26734797D01*
X7495335Y26734796D01*
X7492268Y26722850D01*
X7485864Y26704146D01*
X7477820Y26685557D01*
X7476581Y26677734D01*
X7476578Y26677724D01*
X7470902Y26641888D01*
X7468496Y26630268D01*
X7466015Y26620603D01*
X7457501Y26587442D01*
X7457501Y26567188D01*
X7455950Y26547478D01*
X7452781Y26527469D01*
X7453527Y26519577D01*
X7456942Y26483451D01*
X7457501Y26471593D01*
X7457501Y23831000D01*
X7437499Y23762879D01*
X7383843Y23716386D01*
X7331501Y23705000D01*
X7207013Y23705000D01*
X7200561Y23703628D01*
X7200556Y23703628D01*
X7130135Y23688659D01*
X7020212Y23665294D01*
X7014182Y23662609D01*
X7014181Y23662609D01*
X6851778Y23590303D01*
X6851776Y23590302D01*
X6845748Y23587618D01*
X6840407Y23583738D01*
X6840406Y23583737D01*
X6821159Y23569753D01*
X6691247Y23475366D01*
X6686826Y23470456D01*
X6686825Y23470455D01*
X6572956Y23343990D01*
X6563460Y23333444D01*
X6467973Y23168056D01*
X6408958Y22986428D01*
X6408268Y22979867D01*
X6408268Y22979865D01*
X6391593Y22821208D01*
X6364580Y22755551D01*
X6355378Y22745283D01*
X6167995Y22557900D01*
X6105683Y22523874D01*
X6034868Y22528939D01*
X5978032Y22571486D01*
X5953221Y22638006D01*
X5952900Y22646995D01*
X5952899Y23337169D01*
X5952529Y23343990D01*
X5947005Y23394852D01*
X5943379Y23410104D01*
X5898224Y23530554D01*
X5889686Y23546149D01*
X5813185Y23648224D01*
X5800624Y23660785D01*
X5698549Y23737286D01*
X5682954Y23745824D01*
X5562506Y23790978D01*
X5547251Y23794605D01*
X5496386Y23800131D01*
X5489572Y23800500D01*
X5217015Y23800500D01*
X5201776Y23796025D01*
X5200571Y23794635D01*
X5198900Y23786952D01*
X5198900Y22414500D01*
X5178898Y22346379D01*
X5125242Y22299886D01*
X5072900Y22288500D01*
X4816900Y22288500D01*
X4748779Y22308502D01*
X4702286Y22362158D01*
X4690900Y22414500D01*
X4690900Y23782384D01*
X4686425Y23797623D01*
X4685035Y23798828D01*
X4677352Y23800499D01*
X4400231Y23800499D01*
X4393410Y23800129D01*
X4342551Y23794605D01*
X4325136Y23790465D01*
X4266842Y23790466D01*
X4262616Y23791471D01*
X4255216Y23794245D01*
X4193034Y23801000D01*
X3096766Y23801000D01*
X3034584Y23794245D01*
X3027185Y23791471D01*
X3024046Y23790725D01*
X2965754Y23790725D01*
X2962615Y23791471D01*
X2955216Y23794245D01*
X2893034Y23801000D01*
X1796766Y23801000D01*
X1734584Y23794245D01*
X1598195Y23743115D01*
X1481639Y23655761D01*
X1394285Y23539205D01*
X1343155Y23402816D01*
X1336400Y23340634D01*
X1336400Y21744366D01*
X508500Y21744366D01*
X508500Y26434834D01*
X528502Y26502955D01*
X582158Y26549448D01*
X652432Y26559552D01*
X716330Y26530645D01*
X729289Y26519577D01*
X797214Y26461564D01*
X1006012Y26333613D01*
X1010582Y26331720D01*
X1010586Y26331718D01*
X1227681Y26241794D01*
X1227683Y26241793D01*
X1232254Y26239900D01*
X1310599Y26221091D01*
X1465559Y26183888D01*
X1465565Y26183887D01*
X1470372Y26182733D01*
X1714500Y26163520D01*
X1958628Y26182733D01*
X1963435Y26183887D01*
X1963441Y26183888D01*
X2118401Y26221091D01*
X2196746Y26239900D01*
X2201317Y26241793D01*
X2201319Y26241794D01*
X2418414Y26331718D01*
X2418418Y26331720D01*
X2422988Y26333613D01*
X2631786Y26461564D01*
X2635546Y26464776D01*
X2635551Y26464779D01*
X2814235Y26617390D01*
X2817997Y26620603D01*
X2847395Y26655024D01*
X2973821Y26803049D01*
X2973824Y26803054D01*
X2977036Y26806814D01*
X3104987Y27015612D01*
X3107330Y27021267D01*
X3196806Y27237281D01*
X3196807Y27237283D01*
X3198700Y27241854D01*
X3223015Y27343133D01*
X3254712Y27475159D01*
X3254713Y27475165D01*
X3255867Y27479972D01*
X3275080Y27724100D01*
X3255867Y27968228D01*
X3246034Y28009188D01*
X3199855Y28201534D01*
X3198700Y28206346D01*
X3183666Y28242641D01*
X3106882Y28428014D01*
X3106880Y28428018D01*
X3104987Y28432588D01*
X2977036Y28641386D01*
X2973824Y28645146D01*
X2973821Y28645151D01*
X2886261Y28747670D01*
X2857230Y28812459D01*
X2867835Y28882659D01*
X2914710Y28935982D01*
X2982072Y28955500D01*
X50330263Y28955500D01*
X50398384Y28935498D01*
G37*
%TD.AperFunction*%
%TA.AperFunction,Conductor*%
G36*
X12138535Y9796156D02*
G01*
X12150845Y9790829D01*
X12158668Y9789590D01*
X12158678Y9789587D01*
X12194514Y9783911D01*
X12206134Y9781505D01*
X12241279Y9772482D01*
X12248960Y9770510D01*
X12269214Y9770510D01*
X12288924Y9768959D01*
X12308933Y9765790D01*
X12316825Y9766536D01*
X12352951Y9769951D01*
X12364809Y9770510D01*
X13819500Y9770510D01*
X13887621Y9750508D01*
X13934114Y9696852D01*
X13945500Y9644510D01*
X13945500Y9562498D01*
X13945693Y9560050D01*
X13945693Y9560042D01*
X13946762Y9546469D01*
X13948438Y9525169D01*
X13994855Y9365399D01*
X14079547Y9222193D01*
X14082229Y9219511D01*
X14107502Y9155139D01*
X14093600Y9085516D01*
X14083428Y9069688D01*
X14079547Y9065807D01*
X13994855Y8922601D01*
X13992644Y8914990D01*
X13992643Y8914988D01*
X13981558Y8876831D01*
X13948438Y8762831D01*
X13945500Y8725502D01*
X13945500Y8292498D01*
X13945693Y8290050D01*
X13945693Y8290042D01*
X13947679Y8264817D01*
X13948438Y8255169D01*
X13994855Y8095399D01*
X14079547Y7952193D01*
X14082229Y7949511D01*
X14107502Y7885139D01*
X14093600Y7815516D01*
X14083428Y7799688D01*
X14079547Y7795807D01*
X13994855Y7652601D01*
X13948438Y7492831D01*
X13945500Y7455502D01*
X13945500Y7022498D01*
X13945693Y7020050D01*
X13945693Y7020042D01*
X13947152Y7001510D01*
X13948438Y6985169D01*
X13994855Y6825399D01*
X14079547Y6682193D01*
X14082229Y6679511D01*
X14107502Y6615139D01*
X14093600Y6545516D01*
X14083428Y6529688D01*
X14079547Y6525807D01*
X13994855Y6382601D01*
X13948438Y6222831D01*
X13945500Y6185502D01*
X13945500Y5752498D01*
X13945693Y5750050D01*
X13945693Y5750042D01*
X13947457Y5727639D01*
X13948438Y5715169D01*
X13960218Y5674621D01*
X13992643Y5563014D01*
X13994855Y5555399D01*
X14079547Y5412193D01*
X14082229Y5409511D01*
X14107502Y5345139D01*
X14093600Y5275516D01*
X14083428Y5259688D01*
X14079547Y5255807D01*
X13994855Y5112601D01*
X13992644Y5104990D01*
X13992643Y5104988D01*
X13977472Y5052769D01*
X13948438Y4952831D01*
X13947934Y4946426D01*
X13947933Y4946421D01*
X13947150Y4936469D01*
X13945500Y4915502D01*
X13945500Y4733594D01*
X13925498Y4665473D01*
X13908595Y4644499D01*
X12157000Y2892905D01*
X12094688Y2858879D01*
X12067905Y2856000D01*
X12034130Y2856000D01*
X11966009Y2876002D01*
X11919516Y2929658D01*
X11909412Y2999932D01*
X11913133Y3017154D01*
X11953939Y3157605D01*
X11953899Y3171706D01*
X11946630Y3175000D01*
X9017122Y3175000D01*
X9003591Y3171027D01*
X9002456Y3163130D01*
X9044867Y3017154D01*
X9044665Y2946158D01*
X9006111Y2886541D01*
X8941446Y2857232D01*
X8923870Y2856000D01*
X7646634Y2856000D01*
X7578513Y2876002D01*
X7557539Y2892905D01*
X6577615Y3872830D01*
X6543589Y3935142D01*
X6548654Y4005958D01*
X6592648Y4063859D01*
X6673337Y4122484D01*
X6701921Y4143251D01*
X6701923Y4143253D01*
X6707265Y4147134D01*
X6773334Y4220511D01*
X6830633Y4284148D01*
X6830634Y4284149D01*
X6835052Y4289056D01*
X6911464Y4421405D01*
X6927235Y4448721D01*
X6927236Y4448722D01*
X6930539Y4454444D01*
X6989554Y4636072D01*
X6992291Y4662107D01*
X7008826Y4819435D01*
X7009516Y4826000D01*
X6998288Y4932832D01*
X6990244Y5009365D01*
X6990244Y5009367D01*
X6989554Y5015928D01*
X6930539Y5197556D01*
X6924937Y5207260D01*
X6851763Y5334000D01*
X6835052Y5362944D01*
X6807276Y5393793D01*
X6711687Y5499955D01*
X6711686Y5499956D01*
X6707265Y5504866D01*
X6693439Y5514911D01*
X6650086Y5571132D01*
X6641500Y5616847D01*
X6641500Y5979067D01*
X6661502Y6047188D01*
X6703678Y6086500D01*
X6704705Y6086885D01*
X6771080Y6136630D01*
X6782435Y6145140D01*
X6848942Y6169988D01*
X6918324Y6154935D01*
X6933565Y6145140D01*
X6996620Y6097883D01*
X7011295Y6086885D01*
X7147684Y6035755D01*
X7209866Y6029000D01*
X7468406Y6029000D01*
X7536527Y6008998D01*
X7557501Y5992095D01*
X7883943Y5665653D01*
X7891487Y5657363D01*
X7895600Y5650882D01*
X7901377Y5645457D01*
X7945267Y5604242D01*
X7948109Y5601487D01*
X7967831Y5581765D01*
X7970955Y5579342D01*
X7970959Y5579338D01*
X7971024Y5579288D01*
X7980045Y5571583D01*
X8012279Y5541314D01*
X8019227Y5537495D01*
X8019229Y5537493D01*
X8030032Y5531554D01*
X8046559Y5520698D01*
X8056298Y5513143D01*
X8056300Y5513142D01*
X8062560Y5508286D01*
X8103140Y5490726D01*
X8113788Y5485509D01*
X8141943Y5470031D01*
X8152540Y5464205D01*
X8160216Y5462234D01*
X8160219Y5462233D01*
X8172162Y5459167D01*
X8190866Y5452763D01*
X8196057Y5450517D01*
X8209455Y5444719D01*
X8217277Y5443480D01*
X8217284Y5443478D01*
X8221657Y5442786D01*
X8224807Y5441293D01*
X8224899Y5441266D01*
X8224895Y5441251D01*
X8285811Y5412375D01*
X8295582Y5402651D01*
X8316847Y5379034D01*
X8322186Y5375155D01*
X8459327Y5275516D01*
X8471348Y5266782D01*
X8477376Y5264098D01*
X8477378Y5264097D01*
X8639781Y5191791D01*
X8645812Y5189106D01*
X8739212Y5169253D01*
X8826156Y5150772D01*
X8826161Y5150772D01*
X8832613Y5149400D01*
X8887730Y5149400D01*
X8955851Y5129398D01*
X9002344Y5075742D01*
X9012448Y5005468D01*
X9008727Y4988248D01*
X9000233Y4959011D01*
X9000232Y4959007D01*
X8998438Y4952831D01*
X8997934Y4946426D01*
X8997933Y4946421D01*
X8997150Y4936469D01*
X8995500Y4915502D01*
X8995500Y4482498D01*
X8995693Y4480050D01*
X8995693Y4480042D01*
X8996201Y4473595D01*
X8998438Y4445169D01*
X9044855Y4285399D01*
X9061405Y4257415D01*
X9123721Y4152045D01*
X9129547Y4142193D01*
X9132487Y4139253D01*
X9157820Y4074734D01*
X9143921Y4005111D01*
X9131874Y3986364D01*
X9125910Y3978676D01*
X9049352Y3849221D01*
X9043107Y3834790D01*
X9004061Y3700395D01*
X9004101Y3686294D01*
X9011370Y3683000D01*
X11940878Y3683000D01*
X11954409Y3686973D01*
X11955544Y3694871D01*
X11914893Y3834790D01*
X11908648Y3849221D01*
X11832089Y3978677D01*
X11826129Y3986360D01*
X11800180Y4052444D01*
X11814078Y4122067D01*
X11824421Y4138161D01*
X11828453Y4142193D01*
X11913145Y4285399D01*
X11959562Y4445169D01*
X11961800Y4473595D01*
X11962307Y4480042D01*
X11962307Y4480050D01*
X11962500Y4482498D01*
X11962500Y4915502D01*
X11960850Y4936469D01*
X11960067Y4946421D01*
X11960066Y4946426D01*
X11959562Y4952831D01*
X11930528Y5052769D01*
X11915357Y5104988D01*
X11915356Y5104990D01*
X11913145Y5112601D01*
X11828453Y5255807D01*
X11825771Y5258489D01*
X11800498Y5322861D01*
X11814400Y5392484D01*
X11824572Y5408312D01*
X11828453Y5412193D01*
X11913145Y5555399D01*
X11915358Y5563014D01*
X11947782Y5674621D01*
X11959562Y5715169D01*
X11960544Y5727639D01*
X11962307Y5750042D01*
X11962307Y5750050D01*
X11962500Y5752498D01*
X11962500Y6185502D01*
X11959562Y6222831D01*
X11913145Y6382601D01*
X11828453Y6525807D01*
X11825771Y6528489D01*
X11800498Y6592861D01*
X11814400Y6662484D01*
X11824572Y6678312D01*
X11828453Y6682193D01*
X11913145Y6825399D01*
X11959562Y6985169D01*
X11960849Y7001510D01*
X11962307Y7020042D01*
X11962307Y7020050D01*
X11962500Y7022498D01*
X11962500Y7455502D01*
X11959562Y7492831D01*
X11913145Y7652601D01*
X11828453Y7795807D01*
X11825771Y7798489D01*
X11800498Y7862861D01*
X11814400Y7932484D01*
X11824572Y7948312D01*
X11828453Y7952193D01*
X11913145Y8095399D01*
X11959562Y8255169D01*
X11960322Y8264817D01*
X11962307Y8290042D01*
X11962307Y8290050D01*
X11962500Y8292498D01*
X11962500Y8725502D01*
X11959562Y8762831D01*
X11926442Y8876831D01*
X11915357Y8914988D01*
X11915356Y8914990D01*
X11913145Y8922601D01*
X11828453Y9065807D01*
X11825771Y9068489D01*
X11800498Y9132861D01*
X11814400Y9202484D01*
X11824572Y9218312D01*
X11828453Y9222193D01*
X11913145Y9365399D01*
X11959562Y9525169D01*
X11961239Y9546469D01*
X11962307Y9560042D01*
X11962307Y9560050D01*
X11962500Y9562498D01*
X11962500Y9680517D01*
X11982502Y9748638D01*
X12036158Y9795131D01*
X12106432Y9805235D01*
X12138535Y9796156D01*
G37*
%TD.AperFunction*%
%TA.AperFunction,Conductor*%
G36*
X39170826Y9827019D02*
G01*
X39177689Y9825257D01*
X39196393Y9818853D01*
X39214981Y9810809D01*
X39222804Y9809570D01*
X39222814Y9809567D01*
X39258650Y9803891D01*
X39270270Y9801485D01*
X39299522Y9793975D01*
X39313096Y9790490D01*
X39333350Y9790490D01*
X39353060Y9788939D01*
X39373069Y9785770D01*
X39380961Y9786516D01*
X39417087Y9789931D01*
X39428945Y9790490D01*
X40870500Y9790490D01*
X40938621Y9770488D01*
X40985114Y9716832D01*
X40996500Y9664490D01*
X40996500Y9562498D01*
X40996693Y9560050D01*
X40996693Y9560042D01*
X40997762Y9546469D01*
X40999438Y9525169D01*
X41045855Y9365399D01*
X41130547Y9222193D01*
X41133229Y9219511D01*
X41158502Y9155139D01*
X41144600Y9085516D01*
X41134428Y9069688D01*
X41130547Y9065807D01*
X41045855Y8922601D01*
X41043644Y8914990D01*
X41043643Y8914988D01*
X41032558Y8876831D01*
X40999438Y8762831D01*
X40996500Y8725502D01*
X40996500Y8292498D01*
X40996693Y8290050D01*
X40996693Y8290042D01*
X40998679Y8264817D01*
X40999438Y8255169D01*
X41045855Y8095399D01*
X41130547Y7952193D01*
X41133229Y7949511D01*
X41158502Y7885139D01*
X41144600Y7815516D01*
X41134428Y7799688D01*
X41130547Y7795807D01*
X41045855Y7652601D01*
X40999438Y7492831D01*
X40996500Y7455502D01*
X40996500Y7022498D01*
X40996693Y7020050D01*
X40996693Y7020042D01*
X40998152Y7001510D01*
X40999438Y6985169D01*
X41045855Y6825399D01*
X41130547Y6682193D01*
X41133229Y6679511D01*
X41158502Y6615139D01*
X41144600Y6545516D01*
X41134428Y6529688D01*
X41130547Y6525807D01*
X41045855Y6382601D01*
X40999438Y6222831D01*
X40996500Y6185502D01*
X40996500Y5752498D01*
X40996693Y5750050D01*
X40996693Y5750042D01*
X40998457Y5727639D01*
X40999438Y5715169D01*
X41011218Y5674621D01*
X41043643Y5563014D01*
X41045855Y5555399D01*
X41130547Y5412193D01*
X41133229Y5409511D01*
X41158502Y5345139D01*
X41144600Y5275516D01*
X41134428Y5259688D01*
X41130547Y5255807D01*
X41045855Y5112601D01*
X41043644Y5104990D01*
X41043643Y5104988D01*
X41028472Y5052769D01*
X40999438Y4952831D01*
X40998934Y4946426D01*
X40998933Y4946421D01*
X40998150Y4936469D01*
X40996500Y4915502D01*
X40996500Y4606594D01*
X40976498Y4538473D01*
X40959595Y4517499D01*
X39335000Y2892905D01*
X39272688Y2858879D01*
X39245905Y2856000D01*
X39085130Y2856000D01*
X39017009Y2876002D01*
X38970516Y2929658D01*
X38960412Y2999932D01*
X38964133Y3017154D01*
X39004939Y3157605D01*
X39004899Y3171706D01*
X38997630Y3175000D01*
X37402000Y3175000D01*
X37333879Y3195002D01*
X37287386Y3248658D01*
X37276000Y3301000D01*
X37276000Y3557000D01*
X37296002Y3625121D01*
X37349658Y3671614D01*
X37402000Y3683000D01*
X38991878Y3683000D01*
X39005409Y3686973D01*
X39006544Y3694871D01*
X38965893Y3834790D01*
X38959648Y3849221D01*
X38883089Y3978677D01*
X38877129Y3986360D01*
X38851180Y4052444D01*
X38865078Y4122067D01*
X38875421Y4138161D01*
X38879453Y4142193D01*
X38964145Y4285399D01*
X39010562Y4445169D01*
X39012800Y4473595D01*
X39013307Y4480042D01*
X39013307Y4480050D01*
X39013500Y4482498D01*
X39013500Y4915502D01*
X39011850Y4936469D01*
X39011067Y4946421D01*
X39011066Y4946426D01*
X39010562Y4952831D01*
X38981528Y5052769D01*
X38966357Y5104988D01*
X38966356Y5104990D01*
X38964145Y5112601D01*
X38879453Y5255807D01*
X38876771Y5258489D01*
X38851498Y5322861D01*
X38865400Y5392484D01*
X38875572Y5408312D01*
X38879453Y5412193D01*
X38964145Y5555399D01*
X38966358Y5563014D01*
X38998782Y5674621D01*
X39010562Y5715169D01*
X39011544Y5727639D01*
X39013307Y5750042D01*
X39013307Y5750050D01*
X39013500Y5752498D01*
X39013500Y6185502D01*
X39010562Y6222831D01*
X38964145Y6382601D01*
X38879453Y6525807D01*
X38876771Y6528489D01*
X38851498Y6592861D01*
X38865400Y6662484D01*
X38875572Y6678312D01*
X38879453Y6682193D01*
X38964145Y6825399D01*
X39010562Y6985169D01*
X39011849Y7001510D01*
X39013307Y7020042D01*
X39013307Y7020050D01*
X39013500Y7022498D01*
X39013500Y7455502D01*
X39010562Y7492831D01*
X38964145Y7652601D01*
X38879453Y7795807D01*
X38876771Y7798489D01*
X38851498Y7862861D01*
X38865400Y7932484D01*
X38875572Y7948312D01*
X38879453Y7952193D01*
X38964145Y8095399D01*
X39010562Y8255169D01*
X39011322Y8264817D01*
X39013307Y8290042D01*
X39013307Y8290050D01*
X39013500Y8292498D01*
X39013500Y8725502D01*
X39010562Y8762831D01*
X38977442Y8876831D01*
X38966357Y8914988D01*
X38966356Y8914990D01*
X38964145Y8922601D01*
X38879453Y9065807D01*
X38876771Y9068489D01*
X38851498Y9132861D01*
X38865400Y9202484D01*
X38875572Y9218312D01*
X38879453Y9222193D01*
X38964145Y9365399D01*
X39010562Y9525169D01*
X39012239Y9546469D01*
X39013307Y9560042D01*
X39013307Y9560050D01*
X39013500Y9562498D01*
X39013500Y9704975D01*
X39033502Y9773096D01*
X39087158Y9819589D01*
X39157432Y9829693D01*
X39170826Y9827019D01*
G37*
%TD.AperFunction*%
%TA.AperFunction,Conductor*%
G36*
X46288324Y6154935D02*
G01*
X46303565Y6145140D01*
X46314920Y6136630D01*
X46381295Y6086885D01*
X46381951Y6086639D01*
X46429157Y6039325D01*
X46444500Y5979067D01*
X46444500Y4730228D01*
X46424498Y4662107D01*
X46412136Y4645918D01*
X46329737Y4554404D01*
X46314463Y4537441D01*
X46218976Y4372053D01*
X46159961Y4190425D01*
X46159271Y4183864D01*
X46159271Y4183862D01*
X46146673Y4064000D01*
X46139999Y4000497D01*
X46140689Y3993933D01*
X46140689Y3993932D01*
X46159042Y3819317D01*
X46159961Y3810569D01*
X46218976Y3628941D01*
X46314463Y3463553D01*
X46318881Y3458646D01*
X46318882Y3458645D01*
X46417242Y3349405D01*
X46442250Y3321631D01*
X46596751Y3209379D01*
X46602779Y3206695D01*
X46602781Y3206694D01*
X46758334Y3137438D01*
X46771215Y3131703D01*
X46887988Y3106882D01*
X46895680Y3105247D01*
X46958153Y3071518D01*
X46992475Y3009369D01*
X46987747Y2938530D01*
X46945471Y2881492D01*
X46879070Y2856365D01*
X46869483Y2856000D01*
X44035652Y2856000D01*
X43967531Y2876002D01*
X43921038Y2929658D01*
X43910934Y2999932D01*
X43914655Y3017152D01*
X43958767Y3168989D01*
X43958768Y3168993D01*
X43960562Y3175169D01*
X43963044Y3206694D01*
X43963307Y3210042D01*
X43963307Y3210050D01*
X43963500Y3212498D01*
X43963500Y3645502D01*
X43963307Y3647958D01*
X43961067Y3676421D01*
X43961066Y3676426D01*
X43960562Y3682831D01*
X43921785Y3816304D01*
X43916357Y3834988D01*
X43916356Y3834990D01*
X43914145Y3842601D01*
X43829453Y3985807D01*
X43826771Y3988489D01*
X43801498Y4052861D01*
X43815400Y4122484D01*
X43825572Y4138312D01*
X43829453Y4142193D01*
X43914145Y4285399D01*
X43960562Y4445169D01*
X43962800Y4473595D01*
X43963307Y4480042D01*
X43963307Y4480050D01*
X43963500Y4482498D01*
X43963500Y4915502D01*
X43961850Y4936469D01*
X43961067Y4946421D01*
X43961066Y4946426D01*
X43960562Y4952831D01*
X43958768Y4959007D01*
X43958767Y4959011D01*
X43956963Y4965221D01*
X43957168Y5036218D01*
X43995724Y5095833D01*
X44060390Y5125139D01*
X44091130Y5125680D01*
X44094056Y5125373D01*
X44100513Y5124000D01*
X44291487Y5124000D01*
X44297939Y5125372D01*
X44297944Y5125372D01*
X44384887Y5143853D01*
X44478288Y5163706D01*
X44486522Y5167372D01*
X44646722Y5238697D01*
X44646724Y5238698D01*
X44652752Y5241382D01*
X44663220Y5248987D01*
X44727171Y5295451D01*
X44807253Y5353634D01*
X44854177Y5405749D01*
X44912657Y5442433D01*
X44926593Y5446482D01*
X44933412Y5450515D01*
X44933417Y5450517D01*
X44944028Y5456793D01*
X44961776Y5465488D01*
X44980617Y5472948D01*
X44999616Y5486751D01*
X45016387Y5498936D01*
X45026307Y5505452D01*
X45057535Y5523920D01*
X45057538Y5523922D01*
X45064362Y5527958D01*
X45078683Y5542279D01*
X45093717Y5555120D01*
X45095695Y5556557D01*
X45110107Y5567028D01*
X45138298Y5601105D01*
X45146288Y5609884D01*
X45528499Y5992095D01*
X45590811Y6026121D01*
X45617594Y6029000D01*
X45876134Y6029000D01*
X45938316Y6035755D01*
X46074705Y6086885D01*
X46089380Y6097883D01*
X46152435Y6145140D01*
X46218942Y6169988D01*
X46288324Y6154935D01*
G37*
%TD.AperFunction*%
%TA.AperFunction,Conductor*%
G36*
X25600538Y9851113D02*
G01*
X25633533Y9836834D01*
X25644163Y9831627D01*
X25682930Y9810315D01*
X25690607Y9808344D01*
X25690612Y9808342D01*
X25702548Y9805278D01*
X25721256Y9798873D01*
X25739845Y9790829D01*
X25747673Y9789589D01*
X25747680Y9789587D01*
X25783514Y9783911D01*
X25795134Y9781505D01*
X25830279Y9772482D01*
X25837960Y9770510D01*
X25858214Y9770510D01*
X25877924Y9768959D01*
X25897933Y9765790D01*
X25905825Y9766536D01*
X25941951Y9769951D01*
X25953809Y9770510D01*
X27281500Y9770510D01*
X27349621Y9750508D01*
X27396114Y9696852D01*
X27407500Y9644510D01*
X27407500Y9562498D01*
X27407693Y9560050D01*
X27407693Y9560042D01*
X27408762Y9546469D01*
X27410438Y9525169D01*
X27456855Y9365399D01*
X27541547Y9222193D01*
X27544229Y9219511D01*
X27569502Y9155139D01*
X27555600Y9085516D01*
X27545428Y9069688D01*
X27541547Y9065807D01*
X27456855Y8922601D01*
X27454644Y8914990D01*
X27454643Y8914988D01*
X27443558Y8876831D01*
X27410438Y8762831D01*
X27407500Y8725502D01*
X27407500Y8292498D01*
X27407693Y8290050D01*
X27407693Y8290042D01*
X27409679Y8264817D01*
X27410438Y8255169D01*
X27456855Y8095399D01*
X27541547Y7952193D01*
X27544229Y7949511D01*
X27569502Y7885139D01*
X27555600Y7815516D01*
X27545428Y7799688D01*
X27541547Y7795807D01*
X27456855Y7652601D01*
X27410438Y7492831D01*
X27407500Y7455502D01*
X27407500Y7022498D01*
X27407693Y7020050D01*
X27407693Y7020042D01*
X27409152Y7001510D01*
X27410438Y6985169D01*
X27456855Y6825399D01*
X27541547Y6682193D01*
X27544229Y6679511D01*
X27569502Y6615139D01*
X27555600Y6545516D01*
X27545428Y6529688D01*
X27541547Y6525807D01*
X27456855Y6382601D01*
X27410438Y6222831D01*
X27407500Y6185502D01*
X27407500Y5752498D01*
X27407693Y5750050D01*
X27407693Y5750042D01*
X27409457Y5727639D01*
X27410438Y5715169D01*
X27422218Y5674621D01*
X27454643Y5563014D01*
X27456855Y5555399D01*
X27541547Y5412193D01*
X27544229Y5409511D01*
X27569502Y5345139D01*
X27555600Y5275516D01*
X27545425Y5259685D01*
X27541547Y5255807D01*
X27537516Y5248991D01*
X27537513Y5248987D01*
X27537508Y5248978D01*
X27507098Y5197556D01*
X27505637Y5195086D01*
X27484195Y5168324D01*
X27478893Y5164472D01*
X27473845Y5158370D01*
X27473844Y5158369D01*
X27450702Y5130395D01*
X27442712Y5121616D01*
X25530488Y3209393D01*
X25468176Y3175367D01*
X25430041Y3178095D01*
X25429759Y3174076D01*
X25416577Y3175000D01*
X23813000Y3175000D01*
X23744879Y3195002D01*
X23698386Y3248658D01*
X23687000Y3301000D01*
X23687000Y3557000D01*
X23707002Y3625121D01*
X23760658Y3671614D01*
X23813000Y3683000D01*
X25402878Y3683000D01*
X25416409Y3686973D01*
X25417544Y3694871D01*
X25376893Y3834790D01*
X25370648Y3849221D01*
X25294089Y3978677D01*
X25288129Y3986360D01*
X25262180Y4052444D01*
X25276078Y4122067D01*
X25286421Y4138161D01*
X25290453Y4142193D01*
X25375145Y4285399D01*
X25421562Y4445169D01*
X25423800Y4473595D01*
X25424307Y4480042D01*
X25424307Y4480050D01*
X25424500Y4482498D01*
X25424500Y4915502D01*
X25422850Y4936469D01*
X25422067Y4946421D01*
X25422066Y4946426D01*
X25421562Y4952831D01*
X25392528Y5052769D01*
X25377357Y5104988D01*
X25377356Y5104990D01*
X25375145Y5112601D01*
X25290453Y5255807D01*
X25287771Y5258489D01*
X25262498Y5322861D01*
X25276400Y5392484D01*
X25286572Y5408312D01*
X25290453Y5412193D01*
X25375145Y5555399D01*
X25377358Y5563014D01*
X25409782Y5674621D01*
X25421562Y5715169D01*
X25422544Y5727639D01*
X25424307Y5750042D01*
X25424307Y5750050D01*
X25424500Y5752498D01*
X25424500Y6185502D01*
X25421562Y6222831D01*
X25375145Y6382601D01*
X25290453Y6525807D01*
X25287771Y6528489D01*
X25262498Y6592861D01*
X25276400Y6662484D01*
X25286572Y6678312D01*
X25290453Y6682193D01*
X25375145Y6825399D01*
X25421562Y6985169D01*
X25422849Y7001510D01*
X25424307Y7020042D01*
X25424307Y7020050D01*
X25424500Y7022498D01*
X25424500Y7455502D01*
X25421562Y7492831D01*
X25375145Y7652601D01*
X25290453Y7795807D01*
X25287771Y7798489D01*
X25262498Y7862861D01*
X25276400Y7932484D01*
X25286572Y7948312D01*
X25290453Y7952193D01*
X25375145Y8095399D01*
X25421562Y8255169D01*
X25422322Y8264817D01*
X25424307Y8290042D01*
X25424307Y8290050D01*
X25424500Y8292498D01*
X25424500Y8725502D01*
X25421562Y8762831D01*
X25388442Y8876831D01*
X25377357Y8914988D01*
X25377356Y8914990D01*
X25375145Y8922601D01*
X25290453Y9065807D01*
X25287771Y9068489D01*
X25262498Y9132861D01*
X25276400Y9202484D01*
X25286572Y9218312D01*
X25290453Y9222193D01*
X25375145Y9365399D01*
X25421562Y9525169D01*
X25423239Y9546469D01*
X25424307Y9560042D01*
X25424307Y9560050D01*
X25424500Y9562498D01*
X25424500Y9735475D01*
X25444502Y9803596D01*
X25498158Y9850089D01*
X25568432Y9860193D01*
X25600538Y9851113D01*
G37*
%TD.AperFunction*%
%TA.AperFunction,Conductor*%
G36*
X48892537Y11040488D02*
G01*
X48913511Y11023585D01*
X49132278Y10804818D01*
X49166304Y10742506D01*
X49164600Y10682052D01*
X49143489Y10605930D01*
X49142941Y10600800D01*
X49142940Y10600796D01*
X49139433Y10567978D01*
X49119751Y10383805D01*
X49120048Y10378652D01*
X49120048Y10378649D01*
X49120336Y10373659D01*
X49104288Y10304500D01*
X49053398Y10254995D01*
X48983822Y10240863D01*
X48920902Y10264314D01*
X48915823Y10269084D01*
X48908877Y10272903D01*
X48908874Y10272905D01*
X48898068Y10278846D01*
X48881549Y10289697D01*
X48881085Y10290057D01*
X48865543Y10302112D01*
X48858274Y10305257D01*
X48858270Y10305260D01*
X48824965Y10319672D01*
X48814315Y10324889D01*
X48775562Y10346193D01*
X48755939Y10351231D01*
X48737236Y10357635D01*
X48725922Y10362531D01*
X48725921Y10362531D01*
X48718647Y10365679D01*
X48710824Y10366918D01*
X48710814Y10366921D01*
X48674978Y10372597D01*
X48663358Y10375003D01*
X48628213Y10384026D01*
X48628212Y10384026D01*
X48620532Y10385998D01*
X48600278Y10385998D01*
X48580567Y10387549D01*
X48571798Y10388938D01*
X48560559Y10390718D01*
X48552667Y10389972D01*
X48516541Y10386557D01*
X48504683Y10385998D01*
X46286595Y10385998D01*
X46218474Y10406000D01*
X46197499Y10422903D01*
X46014473Y10605930D01*
X45804155Y10816248D01*
X45796621Y10824527D01*
X45792508Y10831008D01*
X45780122Y10842639D01*
X45744156Y10903852D01*
X45746993Y10974792D01*
X45787733Y11032936D01*
X45853441Y11059825D01*
X45866374Y11060490D01*
X48824416Y11060490D01*
X48892537Y11040488D01*
G37*
%TD.AperFunction*%
%TA.AperFunction,Conductor*%
G36*
X13342527Y11665498D02*
G01*
X13363501Y11648595D01*
X13710353Y11301743D01*
X13717897Y11293453D01*
X13722010Y11286972D01*
X13727787Y11281547D01*
X13755673Y11255361D01*
X13791639Y11194148D01*
X13788802Y11123209D01*
X13748062Y11065064D01*
X13682354Y11038176D01*
X13669421Y11037510D01*
X12643585Y11037510D01*
X12575464Y11057512D01*
X12554489Y11074415D01*
X12386040Y11242865D01*
X12187647Y11441258D01*
X12180113Y11449537D01*
X12176000Y11456018D01*
X12163614Y11467649D01*
X12127648Y11528862D01*
X12130485Y11599802D01*
X12171225Y11657946D01*
X12236933Y11684835D01*
X12249866Y11685500D01*
X13274406Y11685500D01*
X13342527Y11665498D01*
G37*
%TD.AperFunction*%
%TA.AperFunction,Conductor*%
G36*
X26804527Y11665498D02*
G01*
X26825501Y11648595D01*
X27172353Y11301743D01*
X27179897Y11293453D01*
X27184010Y11286972D01*
X27189787Y11281547D01*
X27217673Y11255361D01*
X27253639Y11194148D01*
X27250802Y11123209D01*
X27210062Y11065064D01*
X27144354Y11038176D01*
X27131421Y11037510D01*
X26232585Y11037510D01*
X26164464Y11057512D01*
X26143490Y11074415D01*
X25747500Y11470405D01*
X25713474Y11532717D01*
X25718539Y11603532D01*
X25761086Y11660368D01*
X25827606Y11685179D01*
X25836595Y11685500D01*
X26736406Y11685500D01*
X26804527Y11665498D01*
G37*
%TD.AperFunction*%
%TA.AperFunction,Conductor*%
G36*
X28792250Y13508998D02*
G01*
X28838743Y13455342D01*
X28848847Y13385068D01*
X28819353Y13320488D01*
X28813224Y13313905D01*
X28663724Y13164405D01*
X28601412Y13130379D01*
X28574629Y13127500D01*
X27999498Y13127500D01*
X27997050Y13127307D01*
X27997042Y13127307D01*
X27968579Y13125067D01*
X27968574Y13125066D01*
X27962169Y13124562D01*
X27862231Y13095528D01*
X27810012Y13080357D01*
X27810010Y13080356D01*
X27802399Y13078145D01*
X27795572Y13074108D01*
X27795573Y13074108D01*
X27666020Y12997491D01*
X27666017Y12997489D01*
X27659193Y12993453D01*
X27543745Y12878005D01*
X27481433Y12843979D01*
X27410618Y12849044D01*
X27389705Y12860701D01*
X27389126Y12859722D01*
X27382301Y12863758D01*
X27376041Y12868614D01*
X27368772Y12871759D01*
X27368768Y12871762D01*
X27335463Y12886174D01*
X27324813Y12891391D01*
X27286060Y12912695D01*
X27266437Y12917733D01*
X27247734Y12924137D01*
X27236420Y12929033D01*
X27236419Y12929033D01*
X27229145Y12932181D01*
X27221322Y12933420D01*
X27221312Y12933423D01*
X27185476Y12939099D01*
X27173856Y12941505D01*
X27138711Y12950528D01*
X27138710Y12950528D01*
X27131030Y12952500D01*
X27110776Y12952500D01*
X27091065Y12954051D01*
X27082681Y12955379D01*
X27071057Y12957220D01*
X27028097Y12953159D01*
X27027039Y12953059D01*
X27015181Y12952500D01*
X25265950Y12952500D01*
X25197829Y12972502D01*
X25184729Y12983059D01*
X25184675Y12982989D01*
X25178415Y12987845D01*
X25172807Y12993453D01*
X25165983Y12997489D01*
X25165980Y12997491D01*
X25036427Y13074108D01*
X25036428Y13074108D01*
X25029601Y13078145D01*
X25021990Y13080356D01*
X25021988Y13080357D01*
X24969769Y13095528D01*
X24869831Y13124562D01*
X24863426Y13125066D01*
X24863421Y13125067D01*
X24834958Y13127307D01*
X24834950Y13127307D01*
X24832502Y13127500D01*
X23049498Y13127500D01*
X23047050Y13127307D01*
X23047042Y13127307D01*
X23018579Y13125067D01*
X23018574Y13125066D01*
X23012169Y13124562D01*
X22912231Y13095528D01*
X22860012Y13080357D01*
X22860010Y13080356D01*
X22852399Y13078145D01*
X22845572Y13074108D01*
X22845573Y13074108D01*
X22716020Y12997491D01*
X22716017Y12997489D01*
X22709193Y12993453D01*
X22703585Y12987845D01*
X22697325Y12982989D01*
X22696156Y12984496D01*
X22642833Y12955379D01*
X22616050Y12952500D01*
X22303768Y12952500D01*
X22292585Y12953027D01*
X22285092Y12954702D01*
X22277166Y12954453D01*
X22277165Y12954453D01*
X22217002Y12952562D01*
X22213044Y12952500D01*
X22185144Y12952500D01*
X22181154Y12951996D01*
X22169320Y12951064D01*
X22125111Y12949674D01*
X22117495Y12947461D01*
X22117493Y12947461D01*
X22105652Y12944021D01*
X22086293Y12940012D01*
X22084983Y12939846D01*
X22066203Y12937474D01*
X22058837Y12934558D01*
X22058831Y12934556D01*
X22025098Y12921200D01*
X22013868Y12917355D01*
X21986996Y12909548D01*
X21971407Y12905019D01*
X21964584Y12900984D01*
X21953966Y12894705D01*
X21936213Y12886008D01*
X21928568Y12882981D01*
X21917383Y12878552D01*
X21904208Y12868980D01*
X21881612Y12852563D01*
X21871695Y12846049D01*
X21833638Y12823542D01*
X21819317Y12809221D01*
X21804284Y12796381D01*
X21787893Y12784472D01*
X21761516Y12752587D01*
X21759712Y12750407D01*
X21751722Y12741626D01*
X21374489Y12364394D01*
X21312177Y12330369D01*
X21285394Y12327490D01*
X20864500Y12327490D01*
X20796379Y12347492D01*
X20749886Y12401148D01*
X20738500Y12453490D01*
X20738500Y12618385D01*
X20734025Y12633624D01*
X20732635Y12634829D01*
X20724952Y12636500D01*
X19515000Y12636500D01*
X19446879Y12656502D01*
X19400386Y12710158D01*
X19389000Y12762500D01*
X19389000Y13018500D01*
X19409002Y13086621D01*
X19462658Y13133114D01*
X19515000Y13144500D01*
X20720384Y13144500D01*
X20735623Y13148975D01*
X20736828Y13150365D01*
X20738499Y13158048D01*
X20738499Y13403000D01*
X20758501Y13471121D01*
X20812157Y13517614D01*
X20864499Y13529000D01*
X28724129Y13529000D01*
X28792250Y13508998D01*
G37*
%TD.AperFunction*%
%TA.AperFunction,Conductor*%
G36*
X42381250Y13508998D02*
G01*
X42427743Y13455342D01*
X42437847Y13385068D01*
X42408353Y13320488D01*
X42402224Y13313905D01*
X42252724Y13164405D01*
X42190412Y13130379D01*
X42163629Y13127500D01*
X41588498Y13127500D01*
X41586050Y13127307D01*
X41586042Y13127307D01*
X41557579Y13125067D01*
X41557574Y13125066D01*
X41551169Y13124562D01*
X41451231Y13095528D01*
X41399012Y13080357D01*
X41399010Y13080356D01*
X41391399Y13078145D01*
X41384572Y13074108D01*
X41384573Y13074108D01*
X41255020Y12997491D01*
X41255017Y12997489D01*
X41248193Y12993453D01*
X41130547Y12875807D01*
X41126511Y12868983D01*
X41126509Y12868980D01*
X41081179Y12792331D01*
X41045855Y12732601D01*
X41043644Y12724990D01*
X41043643Y12724988D01*
X41041467Y12717498D01*
X40999438Y12572831D01*
X40996500Y12535502D01*
X40996500Y12453490D01*
X40976498Y12385369D01*
X40922842Y12338876D01*
X40870500Y12327490D01*
X39674605Y12327490D01*
X39606484Y12347492D01*
X39585509Y12364395D01*
X39416873Y12533032D01*
X39238647Y12711258D01*
X39231113Y12719537D01*
X39227000Y12726018D01*
X39177348Y12772644D01*
X39174507Y12775398D01*
X39154770Y12795135D01*
X39151573Y12797615D01*
X39142551Y12805320D01*
X39133420Y12813895D01*
X39110321Y12835586D01*
X39103375Y12839405D01*
X39103372Y12839407D01*
X39092566Y12845348D01*
X39076047Y12856199D01*
X39071301Y12859880D01*
X39060041Y12868614D01*
X39052772Y12871759D01*
X39052768Y12871762D01*
X39019463Y12886174D01*
X39008813Y12891391D01*
X38970060Y12912695D01*
X38950437Y12917733D01*
X38931734Y12924137D01*
X38920420Y12929033D01*
X38920419Y12929033D01*
X38913145Y12932181D01*
X38905322Y12933420D01*
X38905312Y12933423D01*
X38869476Y12939099D01*
X38857855Y12941505D01*
X38831907Y12948167D01*
X38774146Y12981114D01*
X38761807Y12993453D01*
X38754983Y12997489D01*
X38754980Y12997491D01*
X38625427Y13074108D01*
X38625428Y13074108D01*
X38618601Y13078145D01*
X38610990Y13080356D01*
X38610988Y13080357D01*
X38558769Y13095528D01*
X38458831Y13124562D01*
X38452426Y13125066D01*
X38452421Y13125067D01*
X38423958Y13127307D01*
X38423950Y13127307D01*
X38421502Y13127500D01*
X36638498Y13127500D01*
X36636050Y13127307D01*
X36636042Y13127307D01*
X36607579Y13125067D01*
X36607574Y13125066D01*
X36601169Y13124562D01*
X36501231Y13095528D01*
X36449012Y13080357D01*
X36449010Y13080356D01*
X36441399Y13078145D01*
X36434572Y13074108D01*
X36434573Y13074108D01*
X36305020Y12997491D01*
X36305017Y12997489D01*
X36298193Y12993453D01*
X36180547Y12875807D01*
X36176511Y12868983D01*
X36176509Y12868980D01*
X36131179Y12792331D01*
X36095855Y12732601D01*
X36093644Y12724990D01*
X36093643Y12724988D01*
X36091467Y12717498D01*
X36049438Y12572831D01*
X36046500Y12535502D01*
X36046500Y12453490D01*
X36026498Y12385369D01*
X35972842Y12338876D01*
X35920500Y12327490D01*
X34326500Y12327490D01*
X34258379Y12347492D01*
X34211886Y12401148D01*
X34200500Y12453490D01*
X34200500Y12618385D01*
X34196025Y12633624D01*
X34194635Y12634829D01*
X34186952Y12636500D01*
X32977000Y12636500D01*
X32908879Y12656502D01*
X32862386Y12710158D01*
X32851000Y12762500D01*
X32851000Y13018500D01*
X32871002Y13086621D01*
X32924658Y13133114D01*
X32977000Y13144500D01*
X34182384Y13144500D01*
X34197623Y13148975D01*
X34198828Y13150365D01*
X34200499Y13158048D01*
X34200499Y13403000D01*
X34220501Y13471121D01*
X34274157Y13517614D01*
X34326499Y13529000D01*
X42313129Y13529000D01*
X42381250Y13508998D01*
G37*
%TD.AperFunction*%
%TA.AperFunction,Conductor*%
G36*
X34181526Y18565356D02*
G01*
X34209375Y18533506D01*
X34269487Y18435412D01*
X34415750Y18266562D01*
X34587626Y18123868D01*
X34780500Y18011162D01*
X34785325Y18009320D01*
X34785326Y18009319D01*
X34828221Y17992939D01*
X34989192Y17931470D01*
X34994260Y17930439D01*
X34994263Y17930438D01*
X35101503Y17908620D01*
X35208097Y17886933D01*
X35213272Y17886743D01*
X35213274Y17886743D01*
X35426173Y17878936D01*
X35426177Y17878936D01*
X35431337Y17878747D01*
X35436457Y17879403D01*
X35436459Y17879403D01*
X35647788Y17906475D01*
X35647789Y17906475D01*
X35652916Y17907132D01*
X35798185Y17950715D01*
X35869180Y17951132D01*
X35929130Y17913099D01*
X35959002Y17848693D01*
X35960392Y17830029D01*
X35960392Y16301805D01*
X35940390Y16233684D01*
X35928034Y16217502D01*
X35854852Y16136225D01*
X35811599Y16061308D01*
X35768155Y15986061D01*
X35759365Y15970837D01*
X35700350Y15789209D01*
X35684162Y15635183D01*
X35681393Y15608841D01*
X35654380Y15543184D01*
X35596158Y15502554D01*
X35556083Y15496011D01*
X26172956Y15496011D01*
X26104835Y15516013D01*
X26058342Y15569669D01*
X26047646Y15635182D01*
X26047647Y15635183D01*
X26059504Y15748000D01*
X26054513Y15795487D01*
X26040232Y15931365D01*
X26040232Y15931367D01*
X26039542Y15937928D01*
X25980527Y16119556D01*
X25974205Y16130507D01*
X25889076Y16277954D01*
X25885040Y16284944D01*
X25875365Y16295689D01*
X25844647Y16359696D01*
X25843000Y16380001D01*
X25843000Y17960073D01*
X25863002Y18028194D01*
X25904118Y18067950D01*
X25907494Y18069604D01*
X26089360Y18199327D01*
X26247596Y18357011D01*
X26307094Y18439811D01*
X26377953Y18538423D01*
X26379276Y18537472D01*
X26426145Y18580643D01*
X26496080Y18592875D01*
X26561526Y18565356D01*
X26589375Y18533506D01*
X26649487Y18435412D01*
X26795750Y18266562D01*
X26967626Y18123868D01*
X27160500Y18011162D01*
X27165325Y18009320D01*
X27165326Y18009319D01*
X27208221Y17992939D01*
X27369192Y17931470D01*
X27374260Y17930439D01*
X27374263Y17930438D01*
X27481503Y17908620D01*
X27588097Y17886933D01*
X27593272Y17886743D01*
X27593274Y17886743D01*
X27806173Y17878936D01*
X27806177Y17878936D01*
X27811337Y17878747D01*
X27816457Y17879403D01*
X27816459Y17879403D01*
X28027788Y17906475D01*
X28027789Y17906475D01*
X28032916Y17907132D01*
X28071934Y17918838D01*
X28241929Y17969839D01*
X28241934Y17969841D01*
X28246884Y17971326D01*
X28447494Y18069604D01*
X28629360Y18199327D01*
X28787596Y18357011D01*
X28847094Y18439811D01*
X28917953Y18538423D01*
X28919276Y18537472D01*
X28966145Y18580643D01*
X29036080Y18592875D01*
X29101526Y18565356D01*
X29129375Y18533506D01*
X29189487Y18435412D01*
X29335750Y18266562D01*
X29507626Y18123868D01*
X29700500Y18011162D01*
X29705325Y18009320D01*
X29705326Y18009319D01*
X29748221Y17992939D01*
X29909192Y17931470D01*
X29914260Y17930439D01*
X29914263Y17930438D01*
X30021503Y17908620D01*
X30128097Y17886933D01*
X30133272Y17886743D01*
X30133274Y17886743D01*
X30346173Y17878936D01*
X30346177Y17878936D01*
X30351337Y17878747D01*
X30356457Y17879403D01*
X30356459Y17879403D01*
X30567788Y17906475D01*
X30567789Y17906475D01*
X30572916Y17907132D01*
X30611934Y17918838D01*
X30781929Y17969839D01*
X30781934Y17969841D01*
X30786884Y17971326D01*
X30987494Y18069604D01*
X31169360Y18199327D01*
X31327596Y18357011D01*
X31387094Y18439811D01*
X31457953Y18538423D01*
X31459276Y18537472D01*
X31506145Y18580643D01*
X31576080Y18592875D01*
X31641526Y18565356D01*
X31669375Y18533506D01*
X31729487Y18435412D01*
X31875750Y18266562D01*
X32047626Y18123868D01*
X32240500Y18011162D01*
X32245325Y18009320D01*
X32245326Y18009319D01*
X32288221Y17992939D01*
X32449192Y17931470D01*
X32454260Y17930439D01*
X32454263Y17930438D01*
X32561503Y17908620D01*
X32668097Y17886933D01*
X32673272Y17886743D01*
X32673274Y17886743D01*
X32886173Y17878936D01*
X32886177Y17878936D01*
X32891337Y17878747D01*
X32896457Y17879403D01*
X32896459Y17879403D01*
X33107788Y17906475D01*
X33107789Y17906475D01*
X33112916Y17907132D01*
X33151934Y17918838D01*
X33321929Y17969839D01*
X33321934Y17969841D01*
X33326884Y17971326D01*
X33527494Y18069604D01*
X33709360Y18199327D01*
X33867596Y18357011D01*
X33927094Y18439811D01*
X33997953Y18538423D01*
X33999276Y18537472D01*
X34046145Y18580643D01*
X34116080Y18592875D01*
X34181526Y18565356D01*
G37*
%TD.AperFunction*%
%TA.AperFunction,Conductor*%
G36*
X17028950Y18000298D02*
G01*
X17209192Y17931470D01*
X17214260Y17930439D01*
X17214263Y17930438D01*
X17321503Y17908620D01*
X17428097Y17886933D01*
X17433272Y17886743D01*
X17433274Y17886743D01*
X17646173Y17878936D01*
X17646177Y17878936D01*
X17651337Y17878747D01*
X17656457Y17879403D01*
X17656459Y17879403D01*
X17867788Y17906475D01*
X17867789Y17906475D01*
X17872916Y17907132D01*
X17877867Y17908617D01*
X17877870Y17908618D01*
X17919329Y17921056D01*
X17990325Y17921472D01*
X18044631Y17889465D01*
X19594884Y16339212D01*
X19628910Y16276900D01*
X19623845Y16206085D01*
X19614908Y16187117D01*
X19582224Y16130507D01*
X19566039Y16102473D01*
X19507024Y15920845D01*
X19506334Y15914284D01*
X19506334Y15914282D01*
X19501203Y15865465D01*
X19487062Y15730917D01*
X19487752Y15724352D01*
X19497124Y15635181D01*
X19484352Y15565343D01*
X19435850Y15513496D01*
X19371814Y15496011D01*
X16285084Y15496011D01*
X16216963Y15516013D01*
X16170470Y15569669D01*
X16160366Y15639943D01*
X16189860Y15704523D01*
X16195989Y15711106D01*
X16616748Y16131865D01*
X16625038Y16139409D01*
X16631519Y16143522D01*
X16678160Y16193190D01*
X16680914Y16196031D01*
X16700635Y16215752D01*
X16703113Y16218947D01*
X16710819Y16227969D01*
X16716186Y16233684D01*
X16741087Y16260201D01*
X16747233Y16271380D01*
X16750847Y16277954D01*
X16761700Y16294477D01*
X16769254Y16304216D01*
X16774114Y16310481D01*
X16791677Y16351065D01*
X16796884Y16361695D01*
X16818196Y16400462D01*
X16820167Y16408139D01*
X16820169Y16408144D01*
X16823233Y16420080D01*
X16829639Y16438792D01*
X16834534Y16450103D01*
X16837682Y16457377D01*
X16838922Y16465205D01*
X16838924Y16465212D01*
X16844600Y16501046D01*
X16847006Y16512666D01*
X16856029Y16547811D01*
X16856029Y16547812D01*
X16858001Y16555492D01*
X16858001Y16575746D01*
X16859552Y16595457D01*
X16861481Y16607636D01*
X16862721Y16615465D01*
X16858560Y16659484D01*
X16858001Y16671341D01*
X16858001Y17882588D01*
X16878003Y17950709D01*
X16931659Y17997202D01*
X17001933Y18007306D01*
X17028950Y18000298D01*
G37*
%TD.AperFunction*%
%TD*%
M02*
