%TF.GenerationSoftware,KiCad,Pcbnew,7.0.1*%
%TF.CreationDate,2023-05-21T17:22:54+09:00*%
%TF.ProjectId,joystick_74hc165_input_smd,6a6f7973-7469-4636-9b5f-373468633136,2*%
%TF.SameCoordinates,PX7e249a4PY6c1eee4*%
%TF.FileFunction,Copper,L2,Bot*%
%TF.FilePolarity,Positive*%
%FSLAX46Y46*%
G04 Gerber Fmt 4.6, Leading zero omitted, Abs format (unit mm)*
G04 Created by KiCad (PCBNEW 7.0.1) date 2023-05-21 17:22:54*
%MOMM*%
%LPD*%
G01*
G04 APERTURE LIST*
%TA.AperFunction,ComponentPad*%
%ADD10R,1.700000X1.700000*%
%TD*%
%TA.AperFunction,ComponentPad*%
%ADD11O,1.700000X1.700000*%
%TD*%
%TA.AperFunction,ViaPad*%
%ADD12C,0.800000*%
%TD*%
%TA.AperFunction,Conductor*%
%ADD13C,0.250000*%
%TD*%
G04 APERTURE END LIST*
D10*
%TO.P,OUT1,1,Pin_1*%
%TO.N,VCC*%
X50482500Y15430500D03*
D11*
%TO.P,OUT1,2,Pin_2*%
%TO.N,GND*%
X50482500Y12890500D03*
%TO.P,OUT1,3,Pin_3*%
%TO.N,/LOAD*%
X50482500Y10350500D03*
%TO.P,OUT1,4,Pin_4*%
%TO.N,/CLK*%
X50482500Y7810500D03*
%TO.P,OUT1,5,Pin_5*%
%TO.N,/D_OUT*%
X50482500Y5270500D03*
%TD*%
D10*
%TO.P,J2,1,Pin_1*%
%TO.N,/C_SHORT*%
X42989500Y25717500D03*
D11*
%TO.P,J2,2,Pin_2*%
X42989500Y23177500D03*
%TO.P,J2,3,Pin_3*%
%TO.N,/C_P1_UP*%
X40449500Y25717500D03*
%TO.P,J2,4,Pin_4*%
%TO.N,/C_P2_UP*%
X40449500Y23177500D03*
%TO.P,J2,5,Pin_5*%
%TO.N,/C_P1_DOWN*%
X37909500Y25717500D03*
%TO.P,J2,6,Pin_6*%
%TO.N,/C_P2_DOWN*%
X37909500Y23177500D03*
%TO.P,J2,7,Pin_7*%
%TO.N,/C_P1_LEFT*%
X35369500Y25717500D03*
%TO.P,J2,8,Pin_8*%
%TO.N,/C_P2_LEFT*%
X35369500Y23177500D03*
%TO.P,J2,9,Pin_9*%
%TO.N,/C_P1_RIGHT*%
X32829500Y25717500D03*
%TO.P,J2,10,Pin_10*%
%TO.N,/C_P2_RIGHT*%
X32829500Y23177500D03*
%TO.P,J2,11,Pin_11*%
%TO.N,/C_P1_START*%
X30289500Y25717500D03*
%TO.P,J2,12,Pin_12*%
%TO.N,/C_P2_START*%
X30289500Y23177500D03*
%TO.P,J2,13,Pin_13*%
%TO.N,/C_P1_SELECT*%
X27749500Y25717500D03*
%TO.P,J2,14,Pin_14*%
%TO.N,/C_P2_SELECT*%
X27749500Y23177500D03*
%TO.P,J2,15,Pin_15*%
%TO.N,/C_P1_A*%
X25209500Y25717500D03*
%TO.P,J2,16,Pin_16*%
%TO.N,/C_P2_A*%
X25209500Y23177500D03*
%TO.P,J2,17,Pin_17*%
%TO.N,/C_P1_B*%
X22669500Y25717500D03*
%TO.P,J2,18,Pin_18*%
%TO.N,/C_P2_B*%
X22669500Y23177500D03*
%TO.P,J2,19,Pin_19*%
%TO.N,/C_P1_X*%
X20129500Y25717500D03*
%TO.P,J2,20,Pin_20*%
%TO.N,/C_P2_X*%
X20129500Y23177500D03*
%TO.P,J2,21,Pin_21*%
%TO.N,/C_P1_Y*%
X17589500Y25717500D03*
%TO.P,J2,22,Pin_22*%
%TO.N,/C_P2_Y*%
X17589500Y23177500D03*
%TO.P,J2,23,Pin_23*%
%TO.N,/C_P1_L*%
X15049500Y25717500D03*
%TO.P,J2,24,Pin_24*%
%TO.N,/C_P2_L*%
X15049500Y23177500D03*
%TO.P,J2,25,Pin_25*%
%TO.N,/C_P1_R*%
X12509500Y25717500D03*
%TO.P,J2,26,Pin_26*%
%TO.N,/C_P2_R*%
X12509500Y23177500D03*
%TO.P,J2,27,Pin_27*%
%TO.N,/C_SHORT*%
X9969500Y25717500D03*
%TO.P,J2,28,Pin_28*%
X9969500Y23177500D03*
%TD*%
D10*
%TO.P,IN1,1,Pin_1*%
%TO.N,VCC*%
X2730500Y15303500D03*
D11*
%TO.P,IN1,2,Pin_2*%
%TO.N,GND*%
X2730500Y12763500D03*
%TO.P,IN1,3,Pin_3*%
%TO.N,/LOAD*%
X2730500Y10223500D03*
%TO.P,IN1,4,Pin_4*%
%TO.N,/CLK*%
X2730500Y7683500D03*
%TO.P,IN1,5,Pin_5*%
%TO.N,/D_IN*%
X2730500Y5143500D03*
%TD*%
D10*
%TO.P,J1,1,Pin_1*%
%TO.N,/C_SHORT*%
X48069500Y19240500D03*
D11*
%TO.P,J1,2,Pin_2*%
%TO.N,/C_P1_UP*%
X45529500Y19240500D03*
%TO.P,J1,3,Pin_3*%
%TO.N,/C_P1_DOWN*%
X42989500Y19240500D03*
%TO.P,J1,4,Pin_4*%
%TO.N,/C_P1_LEFT*%
X40449500Y19240500D03*
%TO.P,J1,5,Pin_5*%
%TO.N,/C_P1_RIGHT*%
X37909500Y19240500D03*
%TO.P,J1,6,Pin_6*%
%TO.N,/C_P1_START*%
X35369500Y19240500D03*
%TO.P,J1,7,Pin_7*%
%TO.N,/C_P1_SELECT*%
X32829500Y19240500D03*
%TO.P,J1,8,Pin_8*%
%TO.N,/C_P1_A*%
X30289500Y19240500D03*
%TO.P,J1,9,Pin_9*%
%TO.N,/C_P1_B*%
X27749500Y19240500D03*
%TO.P,J1,10,Pin_10*%
%TO.N,/C_P1_X*%
X25209500Y19240500D03*
%TO.P,J1,11,Pin_11*%
%TO.N,/C_P1_Y*%
X22669500Y19240500D03*
%TO.P,J1,12,Pin_12*%
%TO.N,/C_P1_L*%
X20129500Y19240500D03*
%TO.P,J1,13,Pin_13*%
%TO.N,/C_P1_R*%
X17589500Y19240500D03*
%TO.P,J1,14,Pin_14*%
%TO.N,/C_P2_UP*%
X15049500Y19240500D03*
%TO.P,J1,15,Pin_15*%
%TO.N,/C_P2_DOWN*%
X12509500Y19240500D03*
%TO.P,J1,16,Pin_16*%
%TO.N,/C_P2_LEFT*%
X9969500Y19240500D03*
%TO.P,J1,17,Pin_17*%
%TO.N,/C_P2_RIGHT*%
X7429500Y19240500D03*
%TO.P,J1,18,Pin_18*%
%TO.N,/C_SHORT*%
X4889500Y19240500D03*
%TD*%
D12*
%TO.N,/PULL*%
X47053503Y4000497D03*
X22034500Y2947510D03*
X48196500Y15684500D03*
X6096012Y4826000D03*
X35623500Y2984500D03*
%TO.N,GND*%
X46672500Y10731500D03*
X26352500Y11493500D03*
X26416000Y6350000D03*
X32321500Y16065500D03*
X12954000Y6350000D03*
X39878000Y5842000D03*
X45148500Y4254500D03*
X21272500Y12890500D03*
X35115500Y13017500D03*
X18224500Y15811500D03*
X12636500Y11493500D03*
X6540500Y25082500D03*
%TO.N,/C_P1_START*%
X44223294Y9623315D03*
%TO.N,/C_P1_SELECT*%
X44189980Y8572520D03*
%TO.N,/C_P1_A*%
X44196004Y7302504D03*
%TO.N,/C_P1_B*%
X44196000Y6032500D03*
%TO.N,/C_P1_UP*%
X35623496Y6794500D03*
X39753211Y15587521D03*
%TO.N,/C_P1_DOWN*%
X35623498Y7937500D03*
X38636196Y15592804D03*
%TO.N,/C_P1_LEFT*%
X35623500Y9080500D03*
X37627986Y15609914D03*
%TO.N,/C_P1_RIGHT*%
X36593892Y15599281D03*
X35615350Y10113970D03*
%TO.N,/C_P1_X*%
X22034500Y7048500D03*
X25146000Y15748000D03*
%TO.N,/C_P1_Y*%
X22039160Y8069160D03*
X22542500Y15684520D03*
%TO.N,/C_P1_L*%
X21441069Y15715733D03*
X22039160Y9094480D03*
%TO.N,/C_P1_R*%
X22039160Y10119799D03*
X20400566Y15730917D03*
%TO.N,/C_P2_START*%
X8928100Y6057900D03*
%TO.N,/C_P2_SELECT*%
X8890000Y7366000D03*
%TO.N,/C_P2_A*%
X8890000Y8636000D03*
%TO.N,/C_P2_B*%
X8851900Y9867900D03*
%TO.N,/C_P2_UP*%
X30924500Y7937488D03*
%TO.N,/C_P2_DOWN*%
X30924500Y6921490D03*
%TO.N,/C_P2_LEFT*%
X30924500Y5778500D03*
%TO.N,/C_P2_RIGHT*%
X30924504Y4635500D03*
%TO.N,/C_P2_X*%
X17462500Y8064512D03*
X10985501Y15587521D03*
%TO.N,/C_P2_Y*%
X12382500Y15587521D03*
X17462500Y6921510D03*
%TO.N,/C_P2_L*%
X17480320Y5778510D03*
X13779500Y15587521D03*
%TO.N,/C_P2_R*%
X15176500Y15587521D03*
X17462494Y4635500D03*
%TO.N,/C_SHORT*%
X7302500Y22796500D03*
%TD*%
D13*
%TO.N,/PULL*%
X37528500Y1968500D02*
X45021506Y1968500D01*
X46291506Y3238500D02*
X47053503Y4000497D01*
X48196500Y5143494D02*
X47053503Y4000497D01*
X48196500Y15684500D02*
X48196500Y5143494D01*
X35623500Y1968500D02*
X35623500Y2984500D01*
X37528500Y1968500D02*
X35623500Y1968500D01*
X29400500Y1968500D02*
X37528500Y1968500D01*
X22034500Y1968500D02*
X22034500Y2947510D01*
X8953512Y1968500D02*
X29400500Y1968500D01*
X6096012Y4826000D02*
X8953512Y1968500D01*
X45021506Y1968500D02*
X46291506Y3238500D01*
%TO.N,/C_P1_START*%
X36940467Y17796533D02*
X40750467Y17796533D01*
X35496500Y19240500D02*
X36940467Y17796533D01*
X43823295Y10023314D02*
X44223294Y9623315D01*
X43823295Y14723705D02*
X43823295Y10023314D01*
X40750467Y17796533D02*
X43823295Y14723705D01*
%TO.N,/C_P1_SELECT*%
X32956500Y19240500D02*
X34850478Y17346522D01*
X42920489Y14863048D02*
X42920489Y9842011D01*
X34850478Y17346522D02*
X40437015Y17346522D01*
X40437015Y17346522D02*
X42920489Y14863048D01*
X42920489Y9842011D02*
X44189980Y8572520D01*
%TO.N,/C_P1_A*%
X30416500Y19240500D02*
X32188989Y17468011D01*
X40250615Y16896511D02*
X42470478Y14676648D01*
X42470478Y14676648D02*
X42470478Y9028030D01*
X34664078Y16896511D02*
X40250615Y16896511D01*
X34092578Y17468011D02*
X34664078Y16896511D01*
X42470478Y9028030D02*
X44196004Y7302504D01*
X32188989Y17468011D02*
X34092578Y17468011D01*
%TO.N,/C_P1_B*%
X30099000Y17018000D02*
X33906178Y17018000D01*
X42020467Y14490248D02*
X42020467Y8208033D01*
X33906178Y17018000D02*
X34514676Y16409502D01*
X42020467Y8208033D02*
X44196000Y6032500D01*
X34514676Y16409502D02*
X40101213Y16409502D01*
X27876500Y19240500D02*
X30099000Y17018000D01*
X40101213Y16409502D02*
X42020467Y14490248D01*
%TO.N,/C_P1_UP*%
X39753211Y10924215D02*
X39753211Y15587521D01*
X35623496Y6794500D02*
X39753211Y10924215D01*
%TO.N,/C_P1_DOWN*%
X37586489Y14543097D02*
X37586489Y9900491D01*
X38636196Y15592804D02*
X37586489Y14543097D01*
X37586489Y9900491D02*
X35623498Y7937500D01*
%TO.N,/C_P1_LEFT*%
X37136478Y10593478D02*
X35623500Y9080500D01*
X37136478Y15118406D02*
X37136478Y10593478D01*
X37627986Y15609914D02*
X37136478Y15118406D01*
%TO.N,/C_P1_RIGHT*%
X36593892Y15599281D02*
X36593892Y11092512D01*
X36593892Y11092512D02*
X35615350Y10113970D01*
%TO.N,/C_P1_X*%
X25146000Y9594315D02*
X22600185Y7048500D01*
X22600185Y7048500D02*
X22034500Y7048500D01*
X25146000Y15748000D02*
X25146000Y9594315D01*
%TO.N,/C_P1_Y*%
X22039160Y8069160D02*
X23431500Y9461500D01*
X23431500Y9461500D02*
X23431500Y14795520D01*
X23431500Y14795520D02*
X22542500Y15684520D01*
%TO.N,/C_P1_L*%
X22039160Y9094480D02*
X22796500Y9851820D01*
X22796500Y9851820D02*
X22796500Y14360302D01*
X22796500Y14360302D02*
X21441069Y15715733D01*
%TO.N,/C_P1_R*%
X22039160Y10119799D02*
X22161500Y10242139D01*
X22161500Y10242139D02*
X22161500Y13969983D01*
X22161500Y13969983D02*
X20400566Y15730917D01*
%TO.N,/C_P2_START*%
X2730500Y24320500D02*
X2730500Y18097500D01*
X29019500Y26376500D02*
X27456000Y27940000D01*
X27456000Y27940000D02*
X6350000Y27940000D01*
X6858000Y8128000D02*
X8928100Y6057900D01*
X2730500Y18097500D02*
X6858000Y13970000D01*
X30289500Y23177500D02*
X29019500Y24447500D01*
X6858000Y13970000D02*
X6858000Y8128000D01*
X29019500Y24447500D02*
X29019500Y26376500D01*
X6350000Y27940000D02*
X2730500Y24320500D01*
%TO.N,/C_P2_SELECT*%
X26479500Y24447500D02*
X26479500Y26396501D01*
X7308011Y14156400D02*
X7308011Y8947989D01*
X7308011Y8947989D02*
X8890000Y7366000D01*
X26479500Y26396501D02*
X25386012Y27489989D01*
X3180511Y24134101D02*
X3180511Y18283900D01*
X27749500Y23177500D02*
X26479500Y24447500D01*
X6536399Y27489989D02*
X3180511Y24134101D01*
X25386012Y27489989D02*
X6536399Y27489989D01*
X3180511Y18283900D02*
X7308011Y14156400D01*
%TO.N,/C_P2_A*%
X23939500Y26269501D02*
X23169023Y27039978D01*
X6722798Y27039978D02*
X3630522Y23947702D01*
X23169023Y27039978D02*
X6722798Y27039978D01*
X3630522Y23947702D02*
X3630522Y18470300D01*
X7868489Y14232333D02*
X7868489Y9657511D01*
X25209500Y23177500D02*
X23939500Y24447500D01*
X3630522Y18470300D02*
X7868489Y14232333D01*
X23939500Y24447500D02*
X23939500Y26269501D01*
X7868489Y9657511D02*
X8890000Y8636000D01*
%TO.N,/C_P2_B*%
X6176033Y16576826D02*
X8318500Y14434359D01*
X8318500Y10401300D02*
X8851900Y9867900D01*
X21463000Y24384000D02*
X7620000Y24384000D01*
X7620000Y24384000D02*
X6176033Y22940033D01*
X6176033Y22940033D02*
X6176033Y16576826D01*
X8318500Y14434359D02*
X8318500Y10401300D01*
X22669500Y23177500D02*
X21463000Y24384000D01*
%TO.N,/C_P2_UP*%
X27654501Y18065499D02*
X29019500Y16700500D01*
X40449500Y22923500D02*
X38019967Y20493967D01*
X16929210Y20493967D02*
X15675743Y19240500D01*
X16850744Y18065499D02*
X27654501Y18065499D01*
X29781500Y13334458D02*
X29781500Y9080488D01*
X29781500Y9080488D02*
X30924500Y7937488D01*
X29019500Y16700500D02*
X29019500Y14096458D01*
X38019967Y20493967D02*
X16929210Y20493967D01*
X15675743Y19240500D02*
X16850744Y18065499D01*
X29019500Y14096458D02*
X29781500Y13334458D01*
%TO.N,/C_P2_DOWN*%
X27491818Y17526000D02*
X28458099Y16559717D01*
X30867506Y6921490D02*
X30924500Y6921490D01*
X28458099Y16559717D02*
X28458099Y12801627D01*
X14351000Y17526000D02*
X27491818Y17526000D01*
X37909500Y23177500D02*
X35675978Y20943978D01*
X35675978Y20943978D02*
X14339978Y20943978D01*
X29331489Y8457507D02*
X30867506Y6921490D01*
X14339978Y20943978D02*
X12636500Y19240500D01*
X28458099Y12801627D02*
X29331489Y11928237D01*
X12636500Y19240500D02*
X14351000Y17526000D01*
X29331489Y11928237D02*
X29331489Y8457507D01*
%TO.N,/C_P2_LEFT*%
X28770478Y7875518D02*
X30867496Y5778500D01*
X28770478Y11583396D02*
X28770478Y7875518D01*
X27305417Y17075989D02*
X28008088Y16373317D01*
X35369500Y22923500D02*
X33839989Y21393989D01*
X28008088Y16373317D02*
X28008088Y12345786D01*
X12261011Y17075989D02*
X27305417Y17075989D01*
X28008088Y12345786D02*
X28770478Y11583396D01*
X12249989Y21393989D02*
X10096500Y19240500D01*
X10096500Y19240500D02*
X12261011Y17075989D01*
X33839989Y21393989D02*
X12249989Y21393989D01*
X30867496Y5778500D02*
X30924500Y5778500D01*
%TO.N,/C_P2_RIGHT*%
X28284001Y7276003D02*
X30924504Y4635500D01*
X32829500Y22923500D02*
X31750000Y21844000D01*
X10160000Y21844000D02*
X7556500Y19240500D01*
X10223500Y16573500D02*
X27171494Y16573500D01*
X28284001Y11397001D02*
X28284001Y7276003D01*
X27171494Y16573500D02*
X27558077Y16186917D01*
X31750000Y21844000D02*
X10160000Y21844000D01*
X7556500Y19240500D02*
X10223500Y16573500D01*
X27558077Y12122925D02*
X28284001Y11397001D01*
X27558077Y16186917D02*
X27558077Y12122925D01*
%TO.N,/C_P2_X*%
X10985501Y14541511D02*
X10985501Y15587521D01*
X17462500Y8064512D02*
X10985501Y14541511D01*
%TO.N,/C_P2_Y*%
X18261887Y9708134D02*
X12782499Y15187522D01*
X12782499Y15187522D02*
X12382500Y15587521D01*
X18261887Y7720897D02*
X18261887Y9708134D01*
X17462500Y6921510D02*
X18261887Y7720897D01*
%TO.N,/C_P2_L*%
X18844262Y10522759D02*
X14179499Y15187522D01*
X18844262Y7142452D02*
X18844262Y10522759D01*
X17480320Y5778510D02*
X18844262Y7142452D01*
X14179499Y15187522D02*
X13779500Y15587521D01*
%TO.N,/C_P2_R*%
X19294273Y6467279D02*
X19294273Y11469748D01*
X19294273Y11469748D02*
X15176500Y15587521D01*
X17462494Y4635500D02*
X19294273Y6467279D01*
%TO.N,/C_SHORT*%
X7302500Y22796500D02*
X9588500Y22796500D01*
X9588500Y22796500D02*
X9969500Y23177500D01*
%TD*%
%TA.AperFunction,Conductor*%
%TO.N,GND*%
G36*
X8655380Y26391292D02*
G01*
X8700894Y26349394D01*
X8720981Y26290884D01*
X8710799Y26229867D01*
X8699500Y26204107D01*
X8680202Y26160112D01*
X8624937Y25941873D01*
X8624936Y25941868D01*
X8606344Y25717500D01*
X8624936Y25493132D01*
X8624936Y25493129D01*
X8624937Y25493128D01*
X8680202Y25274889D01*
X8680203Y25274886D01*
X8680204Y25274884D01*
X8715634Y25194110D01*
X8725816Y25133095D01*
X8705729Y25074584D01*
X8660215Y25032686D01*
X8600246Y25017500D01*
X7703854Y25017500D01*
X7683064Y25019796D01*
X7612002Y25017562D01*
X7608044Y25017500D01*
X7580142Y25017500D01*
X7576134Y25016994D01*
X7564313Y25016064D01*
X7520108Y25014675D01*
X7500651Y25009022D01*
X7481301Y25005014D01*
X7461202Y25002475D01*
X7420093Y24986198D01*
X7408865Y24982354D01*
X7366408Y24970019D01*
X7348964Y24959703D01*
X7331217Y24951010D01*
X7312384Y24943554D01*
X7276611Y24917563D01*
X7266693Y24911049D01*
X7228639Y24888543D01*
X7214312Y24874217D01*
X7199283Y24861382D01*
X7182894Y24849475D01*
X7154701Y24815396D01*
X7146713Y24806619D01*
X5787369Y23447276D01*
X5771049Y23434200D01*
X5722403Y23382398D01*
X5719653Y23379560D01*
X5699901Y23359807D01*
X5699897Y23359803D01*
X5699898Y23359803D01*
X5697412Y23356600D01*
X5689720Y23347594D01*
X5659446Y23315355D01*
X5649685Y23297599D01*
X5638834Y23281081D01*
X5626418Y23265074D01*
X5608857Y23224494D01*
X5603637Y23213838D01*
X5582337Y23175093D01*
X5577300Y23155474D01*
X5570897Y23136772D01*
X5562851Y23118178D01*
X5555934Y23074509D01*
X5553528Y23062889D01*
X5542533Y23020063D01*
X5542533Y22999809D01*
X5540982Y22980099D01*
X5537812Y22960091D01*
X5541974Y22916072D01*
X5542533Y22904214D01*
X5542533Y20629112D01*
X5528562Y20571446D01*
X5489749Y20526567D01*
X5434699Y20504428D01*
X5375621Y20509939D01*
X5311956Y20531795D01*
X5224135Y20561944D01*
X5002069Y20599000D01*
X4776931Y20599000D01*
X4554865Y20561944D01*
X4430932Y20519398D01*
X4371856Y20513887D01*
X4316806Y20536026D01*
X4277993Y20580905D01*
X4264022Y20638571D01*
X4264022Y23633108D01*
X4273613Y23681326D01*
X4300927Y23722203D01*
X6948297Y26369573D01*
X6989174Y26396887D01*
X7037392Y26406478D01*
X8595411Y26406478D01*
X8655380Y26391292D01*
G37*
%TD.AperFunction*%
%TA.AperFunction,Conductor*%
G36*
X53023000Y29193119D02*
G01*
X53069119Y29147000D01*
X53086000Y29084000D01*
X53086000Y380000D01*
X53069119Y317000D01*
X53023000Y270881D01*
X52960000Y254000D01*
X380000Y254000D01*
X317000Y270881D01*
X270881Y317000D01*
X254000Y380000D01*
X254000Y1714500D01*
X618324Y1714500D01*
X636988Y1513078D01*
X636988Y1513075D01*
X636989Y1513074D01*
X692346Y1318514D01*
X782510Y1137440D01*
X782512Y1137438D01*
X904416Y976011D01*
X1053906Y839733D01*
X1225892Y733243D01*
X1414517Y660170D01*
X1613358Y623000D01*
X1815640Y623000D01*
X1815642Y623000D01*
X2014483Y660170D01*
X2203108Y733243D01*
X2375094Y839733D01*
X2524584Y976011D01*
X2646488Y1137438D01*
X2736654Y1318516D01*
X2792012Y1513078D01*
X2810676Y1714500D01*
X2792012Y1915922D01*
X2736654Y2110484D01*
X2736653Y2110487D01*
X2646489Y2291561D01*
X2554459Y2413428D01*
X2524584Y2452989D01*
X2375094Y2589267D01*
X2327288Y2618868D01*
X2203109Y2695757D01*
X2014483Y2768830D01*
X1815642Y2806000D01*
X1613358Y2806000D01*
X1480797Y2781220D01*
X1414516Y2768830D01*
X1225890Y2695757D01*
X1053907Y2589268D01*
X904415Y2452988D01*
X782510Y2291561D01*
X692346Y2110487D01*
X638629Y1921690D01*
X636988Y1915922D01*
X618324Y1714500D01*
X254000Y1714500D01*
X254000Y5143500D01*
X1367344Y5143500D01*
X1385936Y4919132D01*
X1385936Y4919129D01*
X1385937Y4919128D01*
X1441202Y4700889D01*
X1441203Y4700886D01*
X1441204Y4700884D01*
X1450644Y4679363D01*
X1531639Y4494710D01*
X1531640Y4494709D01*
X1654778Y4306232D01*
X1801239Y4147134D01*
X1807262Y4140592D01*
X1966793Y4016423D01*
X1984924Y4002311D01*
X2182926Y3895158D01*
X2395865Y3822056D01*
X2617931Y3785000D01*
X2843066Y3785000D01*
X2843069Y3785000D01*
X3065135Y3822056D01*
X3278074Y3895158D01*
X3476076Y4002311D01*
X3653740Y4140594D01*
X3806222Y4306232D01*
X3929360Y4494709D01*
X4019796Y4700884D01*
X4051480Y4826001D01*
X5182508Y4826001D01*
X5202470Y4636071D01*
X5261484Y4454444D01*
X5356970Y4289058D01*
X5356972Y4289056D01*
X5484759Y4147134D01*
X5639260Y4034882D01*
X5813724Y3957206D01*
X6000525Y3917500D01*
X6056418Y3917500D01*
X6104636Y3907909D01*
X6145513Y3880595D01*
X8446263Y1579845D01*
X8459346Y1563515D01*
X8511177Y1514844D01*
X8513989Y1512119D01*
X8533742Y1492366D01*
X8535338Y1491128D01*
X8536936Y1489888D01*
X8545956Y1482184D01*
X8578191Y1451914D01*
X8595947Y1442153D01*
X8612463Y1431304D01*
X8628471Y1418887D01*
X8668665Y1401494D01*
X8669037Y1401333D01*
X8679700Y1396109D01*
X8718447Y1374807D01*
X8718449Y1374807D01*
X8718452Y1374805D01*
X8738086Y1369764D01*
X8756771Y1363366D01*
X8775367Y1355319D01*
X8819042Y1348402D01*
X8830637Y1346002D01*
X8873482Y1335000D01*
X8893736Y1335000D01*
X8913446Y1333449D01*
X8933454Y1330280D01*
X8933454Y1330281D01*
X8933455Y1330280D01*
X8977473Y1334442D01*
X8989331Y1335000D01*
X21962707Y1335000D01*
X21986315Y1332769D01*
X21994406Y1331225D01*
X21994407Y1331226D01*
X21994408Y1331225D01*
X22050451Y1334751D01*
X22058363Y1335000D01*
X29320470Y1335000D01*
X29440356Y1335000D01*
X35543470Y1335000D01*
X35551707Y1335000D01*
X35575315Y1332769D01*
X35583406Y1331225D01*
X35583407Y1331226D01*
X35583408Y1331225D01*
X35639451Y1334751D01*
X35647363Y1335000D01*
X37448470Y1335000D01*
X37568356Y1335000D01*
X44937653Y1335000D01*
X44958441Y1332705D01*
X44961413Y1332799D01*
X44961415Y1332798D01*
X45029491Y1334938D01*
X45033451Y1335000D01*
X45061358Y1335000D01*
X45061362Y1335000D01*
X45065371Y1335507D01*
X45077205Y1336439D01*
X45121395Y1337827D01*
X45140844Y1343479D01*
X45160204Y1347488D01*
X45180303Y1350026D01*
X45221421Y1366307D01*
X45232623Y1370143D01*
X45275099Y1382482D01*
X45292545Y1392801D01*
X45310286Y1401491D01*
X45329123Y1408948D01*
X45364898Y1434942D01*
X45374809Y1441452D01*
X45412868Y1463958D01*
X45427197Y1478288D01*
X45442225Y1491123D01*
X45458613Y1503028D01*
X45486809Y1537114D01*
X45494768Y1545860D01*
X45663408Y1714500D01*
X50472520Y1714500D01*
X50491719Y1507311D01*
X50548663Y1307173D01*
X50641414Y1120904D01*
X50766807Y954857D01*
X50766809Y954855D01*
X50920582Y814673D01*
X51097495Y705133D01*
X51291523Y629966D01*
X51496060Y591731D01*
X51704138Y591731D01*
X51704140Y591731D01*
X51908677Y629966D01*
X52102705Y705133D01*
X52279618Y814673D01*
X52433391Y954855D01*
X52558787Y1120906D01*
X52651536Y1307171D01*
X52708480Y1507308D01*
X52727679Y1714500D01*
X52708480Y1921692D01*
X52651536Y2121829D01*
X52558787Y2308094D01*
X52488141Y2401644D01*
X52433392Y2474144D01*
X52373221Y2528997D01*
X52279618Y2614327D01*
X52215644Y2653938D01*
X52102706Y2723867D01*
X51908677Y2799034D01*
X51704140Y2837269D01*
X51496060Y2837269D01*
X51359701Y2811779D01*
X51291522Y2799034D01*
X51097493Y2723867D01*
X50920583Y2614328D01*
X50766807Y2474144D01*
X50641414Y2308097D01*
X50548663Y2121828D01*
X50491719Y1921690D01*
X50472520Y1714500D01*
X45663408Y1714500D01*
X46767640Y2818730D01*
X46767639Y2818730D01*
X47004002Y3055093D01*
X47044880Y3082406D01*
X47093098Y3091997D01*
X47148988Y3091997D01*
X47148990Y3091997D01*
X47335791Y3131703D01*
X47510255Y3209379D01*
X47664756Y3321631D01*
X47792543Y3463553D01*
X47888030Y3628941D01*
X47947045Y3810569D01*
X47964410Y3975797D01*
X47975993Y4016864D01*
X48000621Y4051712D01*
X48585159Y4636250D01*
X48601480Y4649325D01*
X48603514Y4651493D01*
X48603518Y4651494D01*
X48650161Y4701166D01*
X48652852Y4703943D01*
X48672635Y4723724D01*
X48675121Y4726930D01*
X48682810Y4735933D01*
X48713086Y4768173D01*
X48722842Y4785923D01*
X48733695Y4802444D01*
X48746114Y4818453D01*
X48763675Y4859040D01*
X48768888Y4869681D01*
X48790195Y4908434D01*
X48795233Y4928060D01*
X48801637Y4946762D01*
X48809681Y4965350D01*
X48816596Y5009012D01*
X48819004Y5020641D01*
X48830000Y5063464D01*
X48830000Y5083718D01*
X48831551Y5103428D01*
X48834720Y5123437D01*
X48830559Y5167455D01*
X48830000Y5179313D01*
X48830000Y5270500D01*
X49119344Y5270500D01*
X49137936Y5046132D01*
X49137936Y5046129D01*
X49137937Y5046128D01*
X49193202Y4827889D01*
X49193203Y4827886D01*
X49193204Y4827884D01*
X49194281Y4825428D01*
X49283639Y4621710D01*
X49406778Y4433232D01*
X49559262Y4267592D01*
X49722430Y4140592D01*
X49736924Y4129311D01*
X49934926Y4022158D01*
X50147865Y3949056D01*
X50369931Y3912000D01*
X50595066Y3912000D01*
X50595069Y3912000D01*
X50817135Y3949056D01*
X51030074Y4022158D01*
X51228076Y4129311D01*
X51405740Y4267594D01*
X51558222Y4433232D01*
X51681360Y4621709D01*
X51771796Y4827884D01*
X51827064Y5046132D01*
X51845656Y5270500D01*
X51827064Y5494868D01*
X51771796Y5713116D01*
X51681360Y5919291D01*
X51558222Y6107768D01*
X51405740Y6273406D01*
X51405739Y6273407D01*
X51405737Y6273409D01*
X51228079Y6411687D01*
X51228077Y6411688D01*
X51228076Y6411689D01*
X51194817Y6429688D01*
X51146547Y6476002D01*
X51128788Y6540500D01*
X51146547Y6604998D01*
X51194817Y6651313D01*
X51228076Y6669311D01*
X51405740Y6807594D01*
X51558222Y6973232D01*
X51681360Y7161709D01*
X51771796Y7367884D01*
X51827064Y7586132D01*
X51845656Y7810500D01*
X51827064Y8034868D01*
X51771796Y8253116D01*
X51681360Y8459291D01*
X51558222Y8647768D01*
X51405740Y8813406D01*
X51405739Y8813407D01*
X51405737Y8813409D01*
X51228079Y8951687D01*
X51228077Y8951688D01*
X51228076Y8951689D01*
X51194817Y8969688D01*
X51146547Y9016002D01*
X51128788Y9080500D01*
X51146547Y9144998D01*
X51194817Y9191313D01*
X51228076Y9209311D01*
X51405740Y9347594D01*
X51558222Y9513232D01*
X51681360Y9701709D01*
X51771796Y9907884D01*
X51827064Y10126132D01*
X51845656Y10350500D01*
X51827064Y10574868D01*
X51771796Y10793116D01*
X51681360Y10999291D01*
X51558222Y11187768D01*
X51405740Y11353406D01*
X51405739Y11353407D01*
X51405737Y11353409D01*
X51253575Y11471842D01*
X51228076Y11491689D01*
X51194292Y11509972D01*
X51146021Y11556288D01*
X51128262Y11620785D01*
X51146021Y11685283D01*
X51194293Y11731599D01*
X51227800Y11749732D01*
X51405403Y11887967D01*
X51557821Y12053538D01*
X51680919Y12241952D01*
X51771322Y12448049D01*
X51819044Y12636500D01*
X49145955Y12636500D01*
X49193677Y12448049D01*
X49284080Y12241952D01*
X49407178Y12053538D01*
X49559596Y11887967D01*
X49737202Y11749731D01*
X49770707Y11731598D01*
X49818978Y11685282D01*
X49836737Y11620785D01*
X49818978Y11556288D01*
X49770707Y11509972D01*
X49736923Y11491689D01*
X49559262Y11353409D01*
X49406778Y11187769D01*
X49283639Y10999291D01*
X49193202Y10793112D01*
X49137937Y10574873D01*
X49137936Y10574868D01*
X49119344Y10350500D01*
X49137936Y10126132D01*
X49137936Y10126129D01*
X49137937Y10126128D01*
X49193202Y9907889D01*
X49193203Y9907886D01*
X49193204Y9907884D01*
X49213905Y9860691D01*
X49283639Y9701710D01*
X49334857Y9623315D01*
X49406778Y9513232D01*
X49521620Y9388481D01*
X49559262Y9347592D01*
X49736918Y9209315D01*
X49736920Y9209314D01*
X49736924Y9209311D01*
X49770182Y9191313D01*
X49818452Y9144997D01*
X49836211Y9080500D01*
X49818452Y9016003D01*
X49770182Y8969688D01*
X49745294Y8956219D01*
X49736918Y8951686D01*
X49559262Y8813409D01*
X49406778Y8647769D01*
X49283639Y8459291D01*
X49193202Y8253112D01*
X49146620Y8069161D01*
X49137936Y8034868D01*
X49119344Y7810500D01*
X49137936Y7586132D01*
X49137936Y7586129D01*
X49137937Y7586128D01*
X49193202Y7367889D01*
X49193203Y7367886D01*
X49193204Y7367884D01*
X49202827Y7345945D01*
X49283639Y7161710D01*
X49397637Y6987223D01*
X49406778Y6973232D01*
X49488333Y6884640D01*
X49559262Y6807592D01*
X49736918Y6669315D01*
X49736920Y6669314D01*
X49736924Y6669311D01*
X49770182Y6651313D01*
X49818452Y6604997D01*
X49836211Y6540500D01*
X49818452Y6476003D01*
X49770182Y6429688D01*
X49748266Y6417827D01*
X49736918Y6411686D01*
X49559262Y6273409D01*
X49406778Y6107769D01*
X49283639Y5919291D01*
X49193202Y5713112D01*
X49138110Y5495556D01*
X49137936Y5494868D01*
X49119344Y5270500D01*
X48830000Y5270500D01*
X48830000Y14981975D01*
X48838369Y15027129D01*
X48862364Y15066285D01*
X48904364Y15112931D01*
X48954080Y15146718D01*
X49013792Y15153627D01*
X49069910Y15132086D01*
X49109662Y15086996D01*
X49124000Y15028621D01*
X49124000Y14531862D01*
X49130511Y14471299D01*
X49140570Y14444331D01*
X49181611Y14334295D01*
X49269238Y14217239D01*
X49386294Y14129612D01*
X49386295Y14129612D01*
X49386296Y14129611D01*
X49501814Y14086525D01*
X49552146Y14051963D01*
X49580321Y13997793D01*
X49579719Y13936737D01*
X49550482Y13883133D01*
X49407176Y13727460D01*
X49284080Y13539049D01*
X49193677Y13332952D01*
X49145955Y13144501D01*
X49145956Y13144500D01*
X51819044Y13144500D01*
X51819044Y13144501D01*
X51771322Y13332952D01*
X51680919Y13539049D01*
X51557821Y13727463D01*
X51414518Y13883133D01*
X51385280Y13936737D01*
X51384678Y13997793D01*
X51412853Y14051963D01*
X51463183Y14086524D01*
X51578704Y14129611D01*
X51695761Y14217239D01*
X51783389Y14334296D01*
X51834489Y14471299D01*
X51841000Y14531862D01*
X51841000Y16329138D01*
X51834489Y16389701D01*
X51783389Y16526704D01*
X51783388Y16526706D01*
X51695761Y16643762D01*
X51578705Y16731389D01*
X51479772Y16768289D01*
X51441701Y16782489D01*
X51381138Y16789000D01*
X49583862Y16789000D01*
X49523299Y16782489D01*
X49386294Y16731389D01*
X49269238Y16643762D01*
X49181611Y16526706D01*
X49130511Y16389701D01*
X49123709Y16326432D01*
X49104687Y16272184D01*
X49063548Y16232032D01*
X49008855Y16214333D01*
X48951992Y16222771D01*
X48904795Y16255590D01*
X48807752Y16363367D01*
X48690619Y16448469D01*
X48653252Y16475618D01*
X48478788Y16553294D01*
X48291987Y16593000D01*
X48101013Y16593000D01*
X47976479Y16566530D01*
X47914211Y16553294D01*
X47832159Y16516762D01*
X47765039Y16486878D01*
X47739746Y16475617D01*
X47585247Y16363367D01*
X47457458Y16221443D01*
X47361972Y16056057D01*
X47302958Y15874430D01*
X47282996Y15684500D01*
X47302958Y15494571D01*
X47361972Y15312944D01*
X47457458Y15147558D01*
X47497454Y15103138D01*
X47514411Y15084305D01*
X47530636Y15066286D01*
X47554631Y15027129D01*
X47563000Y14981975D01*
X47563000Y5458089D01*
X47553409Y5409871D01*
X47526095Y5368993D01*
X47103002Y4945901D01*
X47062125Y4918588D01*
X47013907Y4908997D01*
X46958016Y4908997D01*
X46833481Y4882527D01*
X46771214Y4869291D01*
X46657035Y4818455D01*
X46603483Y4794612D01*
X46596749Y4791614D01*
X46442250Y4679364D01*
X46314461Y4537440D01*
X46218975Y4372054D01*
X46159961Y4190427D01*
X46142596Y4025206D01*
X46131012Y3984133D01*
X46106382Y3949282D01*
X45900143Y3743042D01*
X44796006Y2638905D01*
X44755129Y2611591D01*
X44706911Y2602000D01*
X37608530Y2602000D01*
X36627895Y2602000D01*
X36570692Y2615733D01*
X36525959Y2653939D01*
X36503446Y2708290D01*
X36508061Y2766934D01*
X36517042Y2794572D01*
X36537004Y2984500D01*
X36517042Y3174428D01*
X36470046Y3319067D01*
X36458027Y3356057D01*
X36362541Y3521443D01*
X36234752Y3663367D01*
X36147169Y3727000D01*
X36080252Y3775618D01*
X35905788Y3853294D01*
X35718987Y3893000D01*
X35528013Y3893000D01*
X35403478Y3866530D01*
X35341211Y3853294D01*
X35245247Y3810568D01*
X35187821Y3785000D01*
X35166746Y3775617D01*
X35012247Y3663367D01*
X34884458Y3521443D01*
X34788972Y3356057D01*
X34729958Y3174430D01*
X34709996Y2984501D01*
X34709996Y2984500D01*
X34729958Y2794572D01*
X34738938Y2766934D01*
X34743554Y2708290D01*
X34721041Y2653939D01*
X34676308Y2615733D01*
X34619105Y2602000D01*
X29480530Y2602000D01*
X23050914Y2602000D01*
X22993712Y2615733D01*
X22948979Y2653938D01*
X22926466Y2708288D01*
X22929286Y2744136D01*
X22926657Y2744412D01*
X22928040Y2757579D01*
X22928042Y2757582D01*
X22948004Y2947510D01*
X22928042Y3137438D01*
X22869027Y3319066D01*
X22869027Y3319067D01*
X22773541Y3484453D01*
X22645752Y3626377D01*
X22568502Y3682503D01*
X22491252Y3738628D01*
X22316788Y3816304D01*
X22129987Y3856010D01*
X21939013Y3856010D01*
X21814478Y3829540D01*
X21752211Y3816304D01*
X21577746Y3738627D01*
X21423247Y3626377D01*
X21295458Y3484453D01*
X21199972Y3319067D01*
X21140958Y3137440D01*
X21140957Y3137438D01*
X21140958Y3137438D01*
X21120996Y2947510D01*
X21140958Y2757582D01*
X21140959Y2757579D01*
X21142343Y2744412D01*
X21139713Y2744136D01*
X21142534Y2708288D01*
X21120021Y2653938D01*
X21075288Y2615733D01*
X21018086Y2602000D01*
X9268107Y2602000D01*
X9219889Y2611591D01*
X9179012Y2638905D01*
X7043133Y4774784D01*
X7018502Y4809635D01*
X7006919Y4850704D01*
X6989554Y5015928D01*
X6941537Y5163707D01*
X6930539Y5197557D01*
X6835053Y5362943D01*
X6707264Y5504867D01*
X6592054Y5588572D01*
X6552764Y5617118D01*
X6378300Y5694794D01*
X6191499Y5734500D01*
X6000525Y5734500D01*
X5899922Y5713116D01*
X5813723Y5694794D01*
X5639258Y5617117D01*
X5484759Y5504867D01*
X5356970Y5362943D01*
X5261484Y5197557D01*
X5202470Y5015930D01*
X5182508Y4826001D01*
X4051480Y4826001D01*
X4075064Y4919132D01*
X4093656Y5143500D01*
X4075064Y5367868D01*
X4019796Y5586116D01*
X3929360Y5792291D01*
X3806222Y5980768D01*
X3653740Y6146406D01*
X3653739Y6146407D01*
X3653737Y6146409D01*
X3476079Y6284687D01*
X3476077Y6284688D01*
X3476076Y6284689D01*
X3442817Y6302688D01*
X3394547Y6349002D01*
X3376788Y6413500D01*
X3394547Y6477998D01*
X3442817Y6524313D01*
X3476076Y6542311D01*
X3653740Y6680594D01*
X3806222Y6846232D01*
X3929360Y7034709D01*
X4019796Y7240884D01*
X4075064Y7459132D01*
X4093656Y7683500D01*
X4075064Y7907868D01*
X4019796Y8126116D01*
X3929360Y8332291D01*
X3806222Y8520768D01*
X3653740Y8686406D01*
X3653739Y8686407D01*
X3653737Y8686409D01*
X3476079Y8824687D01*
X3476077Y8824688D01*
X3476076Y8824689D01*
X3442817Y8842688D01*
X3394547Y8889002D01*
X3376788Y8953500D01*
X3394547Y9017998D01*
X3442817Y9064313D01*
X3476076Y9082311D01*
X3653740Y9220594D01*
X3806222Y9386232D01*
X3929360Y9574709D01*
X4019796Y9780884D01*
X4075064Y9999132D01*
X4093656Y10223500D01*
X4075064Y10447868D01*
X4019796Y10666116D01*
X3929360Y10872291D01*
X3806222Y11060768D01*
X3653740Y11226406D01*
X3653739Y11226407D01*
X3653737Y11226409D01*
X3490568Y11353409D01*
X3476076Y11364689D01*
X3442292Y11382972D01*
X3394021Y11429288D01*
X3376262Y11493785D01*
X3394021Y11558283D01*
X3442293Y11604599D01*
X3475800Y11622732D01*
X3653403Y11760967D01*
X3805821Y11926538D01*
X3928919Y12114952D01*
X4019322Y12321049D01*
X4067044Y12509500D01*
X1393955Y12509500D01*
X1441677Y12321049D01*
X1532080Y12114952D01*
X1655178Y11926538D01*
X1807596Y11760967D01*
X1985202Y11622731D01*
X2018707Y11604598D01*
X2066978Y11558282D01*
X2084737Y11493785D01*
X2066978Y11429288D01*
X2018707Y11382972D01*
X1984923Y11364689D01*
X1807262Y11226409D01*
X1654778Y11060769D01*
X1531639Y10872291D01*
X1441202Y10666112D01*
X1395472Y10485526D01*
X1385936Y10447868D01*
X1367344Y10223500D01*
X1385936Y9999132D01*
X1385936Y9999129D01*
X1385937Y9999128D01*
X1441202Y9780889D01*
X1531639Y9574710D01*
X1602640Y9466035D01*
X1654778Y9386232D01*
X1762446Y9269274D01*
X1807262Y9220592D01*
X1856286Y9182435D01*
X1984924Y9082311D01*
X2018182Y9064313D01*
X2066451Y9018000D01*
X2084211Y8953503D01*
X2066453Y8889006D01*
X2018183Y8842689D01*
X1984923Y8824690D01*
X1807262Y8686409D01*
X1654778Y8520769D01*
X1531639Y8332291D01*
X1441202Y8126112D01*
X1388170Y7916690D01*
X1385936Y7907868D01*
X1367344Y7683500D01*
X1385936Y7459132D01*
X1385936Y7459129D01*
X1385937Y7459128D01*
X1441202Y7240889D01*
X1441203Y7240886D01*
X1441204Y7240884D01*
X1442281Y7238428D01*
X1531639Y7034710D01*
X1654778Y6846232D01*
X1807262Y6680592D01*
X1848112Y6648797D01*
X1984924Y6542311D01*
X2018182Y6524313D01*
X2066451Y6478000D01*
X2084211Y6413503D01*
X2066453Y6349006D01*
X2018183Y6302689D01*
X1984923Y6284690D01*
X1807262Y6146409D01*
X1654778Y5980769D01*
X1531639Y5792291D01*
X1441202Y5586112D01*
X1386221Y5368993D01*
X1385936Y5367868D01*
X1367344Y5143500D01*
X254000Y5143500D01*
X254000Y14404862D01*
X1372000Y14404862D01*
X1378511Y14344299D01*
X1388470Y14317598D01*
X1429611Y14207295D01*
X1517238Y14090239D01*
X1634294Y14002612D01*
X1634295Y14002612D01*
X1634296Y14002611D01*
X1749814Y13959525D01*
X1800146Y13924963D01*
X1828321Y13870793D01*
X1827719Y13809737D01*
X1798482Y13756133D01*
X1655176Y13600460D01*
X1532080Y13412049D01*
X1441677Y13205952D01*
X1393955Y13017501D01*
X1393956Y13017500D01*
X4067044Y13017500D01*
X4067044Y13017501D01*
X4019322Y13205952D01*
X3928919Y13412049D01*
X3805821Y13600463D01*
X3662518Y13756133D01*
X3633280Y13809737D01*
X3632678Y13870793D01*
X3660853Y13924963D01*
X3711183Y13959524D01*
X3826704Y14002611D01*
X3943761Y14090239D01*
X4031389Y14207296D01*
X4082489Y14344299D01*
X4089000Y14404862D01*
X4089000Y15538906D01*
X4102733Y15596109D01*
X4140939Y15640842D01*
X4195289Y15663355D01*
X4253936Y15658739D01*
X4304095Y15628001D01*
X6187595Y13744501D01*
X6214909Y13703624D01*
X6224500Y13655406D01*
X6224500Y8211853D01*
X6222204Y8191065D01*
X6224438Y8120014D01*
X6224500Y8116055D01*
X6224500Y8088143D01*
X6225007Y8084127D01*
X6225937Y8072304D01*
X6227326Y8028108D01*
X6232977Y8008659D01*
X6236986Y7989304D01*
X6239525Y7969206D01*
X6239525Y7969204D01*
X6239526Y7969203D01*
X6252077Y7937501D01*
X6255801Y7928097D01*
X6259644Y7916870D01*
X6271980Y7874410D01*
X6271982Y7874407D01*
X6280595Y7859842D01*
X6282294Y7856970D01*
X6290987Y7839226D01*
X6298448Y7820383D01*
X6298449Y7820381D01*
X6324431Y7784620D01*
X6330948Y7774699D01*
X6353458Y7736637D01*
X6367778Y7722317D01*
X6380618Y7707284D01*
X6392526Y7690895D01*
X6392527Y7690894D01*
X6392528Y7690893D01*
X6412876Y7674060D01*
X6426598Y7662708D01*
X6435378Y7654718D01*
X7980977Y6109119D01*
X8005608Y6074269D01*
X8017192Y6033195D01*
X8034558Y5867971D01*
X8093572Y5686344D01*
X8189058Y5520958D01*
X8203547Y5504866D01*
X8316847Y5379034D01*
X8471348Y5266782D01*
X8645812Y5189106D01*
X8832613Y5149400D01*
X9023585Y5149400D01*
X9023587Y5149400D01*
X9210388Y5189106D01*
X9384852Y5266782D01*
X9539353Y5379034D01*
X9667140Y5520956D01*
X9762627Y5686344D01*
X9821642Y5867972D01*
X9841604Y6057900D01*
X9821642Y6247828D01*
X9767976Y6412995D01*
X9762627Y6429457D01*
X9667141Y6594843D01*
X9657997Y6604998D01*
X9618559Y6648799D01*
X9589939Y6702627D01*
X9589939Y6763592D01*
X9618559Y6817417D01*
X9629040Y6829056D01*
X9724527Y6994444D01*
X9783542Y7176072D01*
X9803504Y7366000D01*
X9783542Y7555928D01*
X9734363Y7707284D01*
X9724527Y7737557D01*
X9629041Y7902943D01*
X9616663Y7916690D01*
X9588041Y7970520D01*
X9588043Y8031487D01*
X9616664Y8085313D01*
X9629040Y8099056D01*
X9638855Y8116055D01*
X9724527Y8264444D01*
X9726689Y8271098D01*
X9783542Y8446072D01*
X9803504Y8636000D01*
X9783542Y8825928D01*
X9745153Y8944076D01*
X9724527Y9007557D01*
X9629039Y9172946D01*
X9611495Y9192431D01*
X9585298Y9237805D01*
X9579821Y9289912D01*
X9596012Y9339741D01*
X9618600Y9378865D01*
X9686427Y9496344D01*
X9745442Y9677972D01*
X9765404Y9867900D01*
X9745442Y10057828D01*
X9712160Y10160259D01*
X9686427Y10239457D01*
X9590941Y10404843D01*
X9463152Y10546767D01*
X9320486Y10650420D01*
X9308652Y10659018D01*
X9134188Y10736694D01*
X9051801Y10754206D01*
X9000426Y10778163D01*
X8964752Y10822217D01*
X8952000Y10877452D01*
X8952000Y14350506D01*
X8954295Y14371296D01*
X8953936Y14382714D01*
X8952061Y14442359D01*
X8952000Y14446316D01*
X8952000Y14474210D01*
X8952000Y14474215D01*
X8951493Y14478221D01*
X8950562Y14490054D01*
X8950324Y14497638D01*
X8949174Y14534248D01*
X8943520Y14553707D01*
X8939513Y14573053D01*
X8936974Y14593156D01*
X8920694Y14634273D01*
X8916853Y14645493D01*
X8916299Y14647400D01*
X8904518Y14687952D01*
X8894206Y14705389D01*
X8885508Y14723144D01*
X8882124Y14731691D01*
X8878052Y14741976D01*
X8852065Y14777743D01*
X8845547Y14787666D01*
X8833831Y14807477D01*
X8823042Y14825721D01*
X8808712Y14840051D01*
X8795878Y14855078D01*
X8783972Y14871466D01*
X8770632Y14882502D01*
X8749894Y14899659D01*
X8741116Y14907647D01*
X6846438Y16802326D01*
X6819124Y16843203D01*
X6809533Y16891421D01*
X6809533Y17840537D01*
X6823504Y17898203D01*
X6862317Y17943082D01*
X6917367Y17965221D01*
X6976443Y17959711D01*
X7094865Y17919056D01*
X7316931Y17882000D01*
X7542066Y17882000D01*
X7542069Y17882000D01*
X7764135Y17919056D01*
X7851962Y17949208D01*
X7921272Y17952792D01*
X7981967Y17919129D01*
X9716251Y16184845D01*
X9729335Y16168515D01*
X9781166Y16119843D01*
X9784009Y16117087D01*
X9803730Y16097366D01*
X9806918Y16094893D01*
X9815946Y16087183D01*
X9848179Y16056914D01*
X9865932Y16047154D01*
X9882455Y16036300D01*
X9898457Y16023888D01*
X9898460Y16023886D01*
X9939039Y16006326D01*
X9949688Y16001109D01*
X9988435Y15979807D01*
X9988437Y15979807D01*
X9988440Y15979805D01*
X10008074Y15974764D01*
X10026763Y15968365D01*
X10033087Y15965628D01*
X10081791Y15928256D01*
X10107053Y15872306D01*
X10102879Y15811058D01*
X10091959Y15777451D01*
X10071997Y15587522D01*
X10091959Y15397592D01*
X10150973Y15215965D01*
X10246459Y15050579D01*
X10319637Y14969307D01*
X10343632Y14930150D01*
X10352001Y14884996D01*
X10352001Y14625364D01*
X10349705Y14604576D01*
X10351939Y14533525D01*
X10352001Y14529566D01*
X10352001Y14501654D01*
X10352508Y14497638D01*
X10353438Y14485815D01*
X10354827Y14441619D01*
X10360478Y14422170D01*
X10364487Y14402815D01*
X10367026Y14382717D01*
X10367026Y14382715D01*
X10367027Y14382714D01*
X10382236Y14344299D01*
X10383302Y14341608D01*
X10387145Y14330381D01*
X10399481Y14287921D01*
X10409795Y14270481D01*
X10418488Y14252737D01*
X10425949Y14233894D01*
X10425950Y14233892D01*
X10451932Y14198131D01*
X10458449Y14188210D01*
X10480959Y14150148D01*
X10495279Y14135828D01*
X10508119Y14120795D01*
X10520027Y14104406D01*
X10554099Y14076219D01*
X10562879Y14068229D01*
X16515377Y8115730D01*
X16540008Y8080880D01*
X16551592Y8039806D01*
X16568958Y7874583D01*
X16627972Y7692957D01*
X16647621Y7658924D01*
X16701310Y7565932D01*
X16707038Y7556012D01*
X16723919Y7493012D01*
X16707038Y7430012D01*
X16627972Y7293067D01*
X16568958Y7111440D01*
X16548996Y6921511D01*
X16568958Y6731581D01*
X16627972Y6549954D01*
X16715947Y6397578D01*
X16732828Y6334578D01*
X16715947Y6271578D01*
X16645792Y6150067D01*
X16586778Y5968440D01*
X16566816Y5778511D01*
X16586778Y5588581D01*
X16645792Y5406954D01*
X16715947Y5285443D01*
X16732828Y5222443D01*
X16715947Y5159443D01*
X16627966Y5007057D01*
X16568952Y4825430D01*
X16548990Y4635500D01*
X16568952Y4445571D01*
X16627966Y4263944D01*
X16723452Y4098558D01*
X16792243Y4022158D01*
X16851241Y3956634D01*
X17005742Y3844382D01*
X17180206Y3766706D01*
X17367007Y3727000D01*
X17557979Y3727000D01*
X17557981Y3727000D01*
X17744782Y3766706D01*
X17919246Y3844382D01*
X18073747Y3956634D01*
X18201534Y4098556D01*
X18297021Y4263944D01*
X18356036Y4445572D01*
X18373401Y4610800D01*
X18384985Y4651869D01*
X18409613Y4686717D01*
X19682931Y5960035D01*
X19699252Y5973109D01*
X19701287Y5975277D01*
X19701291Y5975279D01*
X19747949Y6024967D01*
X19750640Y6027744D01*
X19770408Y6047510D01*
X19772881Y6050700D01*
X19780589Y6059726D01*
X19810859Y6091958D01*
X19820617Y6109711D01*
X19831468Y6126231D01*
X19843887Y6142238D01*
X19861452Y6182833D01*
X19866657Y6193457D01*
X19887968Y6232219D01*
X19893006Y6251845D01*
X19899410Y6270547D01*
X19905530Y6284689D01*
X19907454Y6289134D01*
X19914369Y6332798D01*
X19916777Y6344426D01*
X19927773Y6387250D01*
X19927773Y6407503D01*
X19929324Y6427213D01*
X19932493Y6447222D01*
X19928332Y6491240D01*
X19927773Y6503098D01*
X19927773Y11385899D01*
X19930067Y11406684D01*
X19927835Y11477715D01*
X19927773Y11481673D01*
X19927773Y11509600D01*
X19927773Y11509604D01*
X19927265Y11513624D01*
X19926334Y11525453D01*
X19924946Y11569638D01*
X19919293Y11589092D01*
X19915285Y11608449D01*
X19913481Y11622732D01*
X19912747Y11628545D01*
X19896470Y11669656D01*
X19892631Y11680866D01*
X19880291Y11723342D01*
X19869973Y11740787D01*
X19861281Y11758532D01*
X19853825Y11777365D01*
X19853824Y11777367D01*
X19827837Y11813135D01*
X19821319Y11823058D01*
X19804265Y11851895D01*
X19798815Y11861111D01*
X19784486Y11875440D01*
X19771649Y11890471D01*
X19759746Y11906855D01*
X19725679Y11935037D01*
X19716899Y11943027D01*
X16123621Y15536305D01*
X16098990Y15571156D01*
X16087407Y15612225D01*
X16070042Y15777449D01*
X16070040Y15777453D01*
X16068657Y15790620D01*
X16069584Y15790718D01*
X16066202Y15833714D01*
X16088715Y15888063D01*
X16133448Y15926267D01*
X16190650Y15940000D01*
X19369100Y15940000D01*
X19435870Y15920854D01*
X19482348Y15869235D01*
X19494410Y15800830D01*
X19491638Y15774451D01*
X19487062Y15730917D01*
X19491941Y15684500D01*
X19507024Y15540988D01*
X19566038Y15359361D01*
X19661524Y15193975D01*
X19706136Y15144428D01*
X19789313Y15052051D01*
X19943814Y14939799D01*
X20118278Y14862123D01*
X20305079Y14822417D01*
X20360972Y14822417D01*
X20409190Y14812826D01*
X20450067Y14785512D01*
X21491095Y13744483D01*
X21518409Y13703606D01*
X21528000Y13655388D01*
X21528000Y10935587D01*
X21514267Y10878384D01*
X21476061Y10833651D01*
X21427907Y10798666D01*
X21300118Y10656742D01*
X21204632Y10491356D01*
X21145618Y10309729D01*
X21125656Y10119800D01*
X21145618Y9929870D01*
X21204632Y9748243D01*
X21249725Y9670140D01*
X21266606Y9607140D01*
X21249726Y9544141D01*
X21204632Y9466035D01*
X21145618Y9284410D01*
X21125656Y9094480D01*
X21145618Y8904551D01*
X21204632Y8722926D01*
X21249726Y8644819D01*
X21266606Y8581820D01*
X21249726Y8518821D01*
X21204632Y8440715D01*
X21145618Y8259090D01*
X21125656Y8069161D01*
X21125656Y8069160D01*
X21132015Y8008659D01*
X21145618Y7879231D01*
X21201487Y7707284D01*
X21204633Y7697604D01*
X21208508Y7690893D01*
X21246051Y7625865D01*
X21262931Y7562866D01*
X21246051Y7499867D01*
X21199972Y7420055D01*
X21140958Y7238430D01*
X21127730Y7112575D01*
X21120996Y7048500D01*
X21123738Y7022413D01*
X21140958Y6858571D01*
X21199972Y6676944D01*
X21295458Y6511558D01*
X21407386Y6387249D01*
X21423247Y6369634D01*
X21577748Y6257382D01*
X21752212Y6179706D01*
X21939013Y6140000D01*
X22129985Y6140000D01*
X22129987Y6140000D01*
X22316788Y6179706D01*
X22491252Y6257382D01*
X22645753Y6369634D01*
X22661221Y6386814D01*
X22696484Y6414167D01*
X22739068Y6427511D01*
X22758982Y6430026D01*
X22800100Y6446307D01*
X22811302Y6450143D01*
X22853778Y6462482D01*
X22871224Y6472801D01*
X22888965Y6481491D01*
X22907802Y6488948D01*
X22943577Y6514942D01*
X22953488Y6521452D01*
X22991547Y6543958D01*
X23005876Y6558288D01*
X23020904Y6571123D01*
X23037292Y6583028D01*
X23065488Y6617114D01*
X23073457Y6625870D01*
X25534659Y9087071D01*
X25550980Y9100146D01*
X25553014Y9102314D01*
X25553018Y9102315D01*
X25599660Y9151986D01*
X25602351Y9154763D01*
X25622135Y9174545D01*
X25624621Y9177751D01*
X25632310Y9186754D01*
X25662586Y9218994D01*
X25672342Y9236744D01*
X25683195Y9253265D01*
X25695614Y9269274D01*
X25713175Y9309861D01*
X25718388Y9320502D01*
X25739695Y9359255D01*
X25744733Y9378881D01*
X25751137Y9397583D01*
X25759181Y9416171D01*
X25761908Y9433386D01*
X25766096Y9459834D01*
X25768504Y9471462D01*
X25774893Y9496344D01*
X25779500Y9514285D01*
X25779500Y9534539D01*
X25781051Y9554249D01*
X25784220Y9574258D01*
X25780059Y9618276D01*
X25779500Y9630134D01*
X25779500Y15045475D01*
X25787869Y15090629D01*
X25811864Y15129786D01*
X25827866Y15147558D01*
X25885040Y15211056D01*
X25980527Y15376444D01*
X26039542Y15558072D01*
X26059504Y15748000D01*
X26053951Y15800831D01*
X26066013Y15869235D01*
X26112491Y15920854D01*
X26179261Y15940000D01*
X26798577Y15940000D01*
X26861577Y15923119D01*
X26907696Y15877000D01*
X26924577Y15814000D01*
X26924577Y12206778D01*
X26922281Y12185990D01*
X26924515Y12114939D01*
X26924577Y12110980D01*
X26924577Y12083068D01*
X26925084Y12079052D01*
X26926014Y12067229D01*
X26927403Y12023033D01*
X26933054Y12003584D01*
X26937063Y11984229D01*
X26939602Y11964131D01*
X26939602Y11964129D01*
X26939603Y11964128D01*
X26947957Y11943027D01*
X26955878Y11923022D01*
X26959721Y11911795D01*
X26972057Y11869335D01*
X26982371Y11851895D01*
X26991064Y11834151D01*
X26998525Y11815308D01*
X26998526Y11815306D01*
X27024508Y11779545D01*
X27031025Y11769624D01*
X27053535Y11731562D01*
X27067855Y11717242D01*
X27080695Y11702209D01*
X27092603Y11685820D01*
X27126675Y11657633D01*
X27135455Y11649643D01*
X27613596Y11171502D01*
X27640910Y11130625D01*
X27650501Y11082407D01*
X27650501Y7359856D01*
X27648205Y7339068D01*
X27650439Y7268017D01*
X27650501Y7264058D01*
X27650501Y7236146D01*
X27651008Y7232130D01*
X27651938Y7220307D01*
X27653327Y7176111D01*
X27658978Y7156662D01*
X27662987Y7137307D01*
X27665526Y7117209D01*
X27681802Y7076100D01*
X27685645Y7064873D01*
X27697981Y7022413D01*
X27708295Y7004973D01*
X27716988Y6987229D01*
X27724449Y6968386D01*
X27724450Y6968384D01*
X27750432Y6932623D01*
X27756949Y6922702D01*
X27779459Y6884640D01*
X27793779Y6870320D01*
X27806619Y6855287D01*
X27818527Y6838898D01*
X27852599Y6810711D01*
X27861379Y6802721D01*
X29977381Y4686719D01*
X30002012Y4651869D01*
X30013596Y4610795D01*
X30030962Y4445571D01*
X30089976Y4263944D01*
X30185462Y4098558D01*
X30254253Y4022158D01*
X30313251Y3956634D01*
X30467752Y3844382D01*
X30642216Y3766706D01*
X30829017Y3727000D01*
X31019989Y3727000D01*
X31019991Y3727000D01*
X31206792Y3766706D01*
X31381256Y3844382D01*
X31535757Y3956634D01*
X31663544Y4098556D01*
X31759031Y4263944D01*
X31818046Y4445572D01*
X31838008Y4635500D01*
X31818046Y4825428D01*
X31759031Y5007056D01*
X31757902Y5009012D01*
X31679964Y5144004D01*
X31663083Y5207004D01*
X31679963Y5270002D01*
X31759027Y5406944D01*
X31818042Y5588572D01*
X31838004Y5778500D01*
X31818042Y5968428D01*
X31759027Y6150056D01*
X31679964Y6286996D01*
X31663084Y6349995D01*
X31679965Y6412995D01*
X31689798Y6430026D01*
X31759027Y6549934D01*
X31818042Y6731562D01*
X31838004Y6921490D01*
X31818042Y7111418D01*
X31782662Y7220307D01*
X31759028Y7293044D01*
X31753566Y7302504D01*
X31716623Y7366491D01*
X31699743Y7429489D01*
X31716623Y7492488D01*
X31759027Y7565932D01*
X31818042Y7747560D01*
X31838004Y7937488D01*
X31818042Y8127416D01*
X31759027Y8309044D01*
X31759027Y8309045D01*
X31663541Y8474431D01*
X31575221Y8572520D01*
X31535753Y8616354D01*
X31496574Y8644819D01*
X31408313Y8708945D01*
X31381252Y8728606D01*
X31206788Y8806282D01*
X31019987Y8845988D01*
X31019985Y8845988D01*
X30964095Y8845988D01*
X30915877Y8855579D01*
X30874999Y8882893D01*
X30451904Y9305989D01*
X30424591Y9346866D01*
X30415000Y9395084D01*
X30415000Y13250604D01*
X30417295Y13271394D01*
X30415062Y13342456D01*
X30415000Y13346414D01*
X30415000Y13374309D01*
X30415000Y13374314D01*
X30414493Y13378320D01*
X30413562Y13390153D01*
X30412874Y13412049D01*
X30412174Y13434347D01*
X30406520Y13453806D01*
X30402513Y13473152D01*
X30399974Y13493255D01*
X30383694Y13534372D01*
X30379853Y13545592D01*
X30367517Y13588053D01*
X30357206Y13605488D01*
X30348508Y13623243D01*
X30341052Y13642075D01*
X30315065Y13677842D01*
X30308547Y13687765D01*
X30296819Y13707596D01*
X30286042Y13725820D01*
X30271712Y13740150D01*
X30258878Y13755177D01*
X30246972Y13771565D01*
X30246971Y13771566D01*
X30212900Y13799753D01*
X30204121Y13807741D01*
X29689904Y14321959D01*
X29662591Y14362836D01*
X29653000Y14411054D01*
X29653000Y16327216D01*
X29669553Y16389644D01*
X29714861Y16435670D01*
X29777022Y16453200D01*
X29839701Y16437631D01*
X29863940Y16424305D01*
X29883574Y16419264D01*
X29902259Y16412866D01*
X29920855Y16404819D01*
X29964530Y16397902D01*
X29976125Y16395502D01*
X30018970Y16384500D01*
X30039224Y16384500D01*
X30058934Y16382949D01*
X30078942Y16379780D01*
X30078942Y16379781D01*
X30078943Y16379780D01*
X30122961Y16383942D01*
X30134819Y16384500D01*
X33591583Y16384500D01*
X33639801Y16374909D01*
X33680678Y16347596D01*
X33853268Y16175005D01*
X34007433Y16020840D01*
X34020510Y16004518D01*
X34022675Y16002485D01*
X34022676Y16002484D01*
X34059011Y15968363D01*
X34072326Y15955860D01*
X34075137Y15953136D01*
X34094906Y15933367D01*
X34098119Y15930875D01*
X34107109Y15923196D01*
X34139355Y15892916D01*
X34157102Y15883160D01*
X34173626Y15872306D01*
X34189635Y15859888D01*
X34230218Y15842327D01*
X34240869Y15837109D01*
X34279616Y15815807D01*
X34299236Y15810770D01*
X34317943Y15804365D01*
X34324556Y15801504D01*
X34336530Y15796321D01*
X34347181Y15794635D01*
X34380206Y15789404D01*
X34391801Y15787004D01*
X34434646Y15776002D01*
X34454900Y15776002D01*
X34474610Y15774451D01*
X34494618Y15771282D01*
X34494618Y15771283D01*
X34494619Y15771282D01*
X34538637Y15775444D01*
X34550495Y15776002D01*
X35559025Y15776002D01*
X35625795Y15756856D01*
X35672273Y15705237D01*
X35684335Y15636831D01*
X35680388Y15599282D01*
X35700350Y15409352D01*
X35759364Y15227725D01*
X35854850Y15062339D01*
X35928028Y14981067D01*
X35952023Y14941910D01*
X35960392Y14896756D01*
X35960392Y11407107D01*
X35950801Y11358889D01*
X35923487Y11318012D01*
X35664850Y11059375D01*
X35623973Y11032061D01*
X35575755Y11022470D01*
X35519863Y11022470D01*
X35410815Y10999291D01*
X35333061Y10982764D01*
X35158596Y10905087D01*
X35004097Y10792837D01*
X34876308Y10650913D01*
X34780822Y10485527D01*
X34721808Y10303900D01*
X34720021Y10286897D01*
X34701846Y10113970D01*
X34707747Y10057828D01*
X34721808Y9924041D01*
X34780823Y9742412D01*
X34832343Y9653176D01*
X34849224Y9590177D01*
X34832344Y9527178D01*
X34788972Y9452055D01*
X34729958Y9270430D01*
X34716775Y9144998D01*
X34709996Y9080500D01*
X34717663Y9007557D01*
X34729958Y8890571D01*
X34788972Y8708945D01*
X34868036Y8572003D01*
X34884917Y8509003D01*
X34868037Y8446004D01*
X34788970Y8309055D01*
X34729956Y8127430D01*
X34709994Y7937501D01*
X34729956Y7747571D01*
X34788970Y7565945D01*
X34868034Y7429003D01*
X34884915Y7366003D01*
X34868035Y7303004D01*
X34788968Y7166055D01*
X34729954Y6984430D01*
X34729953Y6984428D01*
X34729954Y6984428D01*
X34709992Y6794500D01*
X34716605Y6731582D01*
X34729954Y6604571D01*
X34788968Y6422944D01*
X34884454Y6257558D01*
X34946842Y6188269D01*
X35012243Y6115634D01*
X35166744Y6003382D01*
X35341208Y5925706D01*
X35528009Y5886000D01*
X35718981Y5886000D01*
X35718983Y5886000D01*
X35905784Y5925706D01*
X36080248Y6003382D01*
X36234749Y6115634D01*
X36362536Y6257556D01*
X36458023Y6422944D01*
X36517038Y6604572D01*
X36534403Y6769800D01*
X36545987Y6810869D01*
X36570615Y6845717D01*
X40141870Y10416971D01*
X40158191Y10430046D01*
X40160225Y10432214D01*
X40160229Y10432215D01*
X40206871Y10481886D01*
X40209562Y10484663D01*
X40229346Y10504445D01*
X40231832Y10507651D01*
X40239521Y10516654D01*
X40269797Y10548894D01*
X40279553Y10566644D01*
X40290406Y10583165D01*
X40302825Y10599174D01*
X40320386Y10639761D01*
X40325599Y10650402D01*
X40346906Y10689155D01*
X40351944Y10708781D01*
X40358348Y10727483D01*
X40366392Y10746071D01*
X40373307Y10789733D01*
X40375715Y10801362D01*
X40386711Y10844186D01*
X40386711Y10864439D01*
X40388262Y10884149D01*
X40391431Y10904158D01*
X40387270Y10948176D01*
X40386711Y10960034D01*
X40386711Y14884997D01*
X40395079Y14930150D01*
X40419070Y14969302D01*
X40437513Y14989785D01*
X40494307Y15025967D01*
X40561628Y15027730D01*
X40620242Y14994569D01*
X40989446Y14625364D01*
X41350063Y14264747D01*
X41377376Y14223870D01*
X41386967Y14175652D01*
X41386967Y8291886D01*
X41384671Y8271098D01*
X41386905Y8200047D01*
X41386967Y8196088D01*
X41386967Y8168176D01*
X41387474Y8164160D01*
X41388404Y8152337D01*
X41389793Y8108141D01*
X41395444Y8088692D01*
X41399453Y8069337D01*
X41401992Y8049239D01*
X41401992Y8049237D01*
X41401993Y8049236D01*
X41418058Y8008659D01*
X41418268Y8008130D01*
X41422111Y7996903D01*
X41434447Y7954443D01*
X41434449Y7954440D01*
X41444473Y7937489D01*
X41444761Y7937003D01*
X41453454Y7919259D01*
X41460915Y7900416D01*
X41460916Y7900414D01*
X41486898Y7864653D01*
X41493415Y7854732D01*
X41515925Y7816670D01*
X41530245Y7802350D01*
X41543085Y7787317D01*
X41554993Y7770928D01*
X41554994Y7770927D01*
X41554995Y7770926D01*
X41583240Y7747560D01*
X41589065Y7742741D01*
X41597845Y7734751D01*
X43248877Y6083719D01*
X43273508Y6048869D01*
X43285092Y6007795D01*
X43302458Y5842571D01*
X43361472Y5660944D01*
X43456958Y5495558D01*
X43537688Y5405898D01*
X43584747Y5353634D01*
X43739248Y5241382D01*
X43913712Y5163706D01*
X44100513Y5124000D01*
X44291485Y5124000D01*
X44291487Y5124000D01*
X44478288Y5163706D01*
X44652752Y5241382D01*
X44807253Y5353634D01*
X44935040Y5495556D01*
X45030527Y5660944D01*
X45089542Y5842572D01*
X45109504Y6032500D01*
X45089542Y6222428D01*
X45048092Y6349996D01*
X45030527Y6404057D01*
X44935041Y6569443D01*
X44922664Y6583189D01*
X44894043Y6637018D01*
X44894043Y6697983D01*
X44922665Y6751812D01*
X44935044Y6765560D01*
X45030531Y6930948D01*
X45089546Y7112576D01*
X45109508Y7302504D01*
X45089546Y7492432D01*
X45030531Y7674060D01*
X45030531Y7674061D01*
X44935045Y7839447D01*
X44919648Y7856547D01*
X44891027Y7910376D01*
X44891027Y7971342D01*
X44919647Y8025167D01*
X44929020Y8035576D01*
X45024507Y8200964D01*
X45083522Y8382592D01*
X45103484Y8572520D01*
X45083522Y8762448D01*
X45042402Y8889002D01*
X45024508Y8944074D01*
X45020113Y8951687D01*
X44988715Y9006069D01*
X44971835Y9069067D01*
X44988714Y9132065D01*
X45057821Y9251759D01*
X45116836Y9433387D01*
X45136798Y9623315D01*
X45116836Y9813243D01*
X45057821Y9994871D01*
X45057821Y9994872D01*
X44962335Y10160258D01*
X44834546Y10302182D01*
X44680047Y10414432D01*
X44680046Y10414433D01*
X44531545Y10480550D01*
X44492158Y10508129D01*
X44465970Y10548456D01*
X44456795Y10595656D01*
X44456795Y14639852D01*
X44459090Y14660641D01*
X44458512Y14679021D01*
X44456857Y14731691D01*
X44456795Y14735650D01*
X44456795Y14763556D01*
X44456795Y14763561D01*
X44456287Y14767574D01*
X44455356Y14779408D01*
X44453968Y14823594D01*
X44448316Y14843046D01*
X44444307Y14862406D01*
X44441769Y14882502D01*
X44425491Y14923615D01*
X44421645Y14934849D01*
X44420206Y14939801D01*
X44409313Y14977298D01*
X44399001Y14994735D01*
X44390303Y15012490D01*
X44383916Y15028621D01*
X44382847Y15031322D01*
X44356860Y15067089D01*
X44350342Y15077012D01*
X44346029Y15084305D01*
X44327837Y15115067D01*
X44313507Y15129397D01*
X44300673Y15144424D01*
X44288767Y15160812D01*
X44288766Y15160813D01*
X44254689Y15189005D01*
X44245911Y15196993D01*
X41377974Y18064931D01*
X41345823Y18119741D01*
X41344510Y18183272D01*
X41374366Y18239361D01*
X41525222Y18403232D01*
X41614018Y18539146D01*
X41659531Y18581042D01*
X41719500Y18596228D01*
X41779469Y18581042D01*
X41824981Y18539146D01*
X41913778Y18403232D01*
X42026025Y18281300D01*
X42066262Y18237592D01*
X42243921Y18099313D01*
X42243924Y18099311D01*
X42441926Y17992158D01*
X42654865Y17919056D01*
X42876931Y17882000D01*
X43102066Y17882000D01*
X43102069Y17882000D01*
X43324135Y17919056D01*
X43537074Y17992158D01*
X43735076Y18099311D01*
X43912740Y18237594D01*
X44065222Y18403232D01*
X44154018Y18539146D01*
X44199531Y18581042D01*
X44259500Y18596228D01*
X44319469Y18581042D01*
X44364981Y18539146D01*
X44453778Y18403232D01*
X44566025Y18281300D01*
X44606262Y18237592D01*
X44783921Y18099313D01*
X44783924Y18099311D01*
X44981926Y17992158D01*
X45194865Y17919056D01*
X45416931Y17882000D01*
X45642066Y17882000D01*
X45642069Y17882000D01*
X45864135Y17919056D01*
X46077074Y17992158D01*
X46275076Y18099311D01*
X46452740Y18237594D01*
X46513746Y18303865D01*
X46567216Y18338262D01*
X46630677Y18342173D01*
X46687969Y18314597D01*
X46724500Y18262558D01*
X46768609Y18144297D01*
X46856238Y18027239D01*
X46973294Y17939612D01*
X46973295Y17939612D01*
X46973296Y17939611D01*
X47110299Y17888511D01*
X47170862Y17882000D01*
X48968138Y17882000D01*
X49028701Y17888511D01*
X49165704Y17939611D01*
X49282761Y18027239D01*
X49370389Y18144296D01*
X49421489Y18281299D01*
X49428000Y18341862D01*
X49428000Y20139138D01*
X49421489Y20199701D01*
X49370389Y20336704D01*
X49352006Y20361261D01*
X49282761Y20453762D01*
X49165705Y20541389D01*
X49085119Y20571446D01*
X49028701Y20592489D01*
X48968138Y20599000D01*
X47170862Y20599000D01*
X47110299Y20592489D01*
X46973294Y20541389D01*
X46856238Y20453762D01*
X46768609Y20336704D01*
X46724500Y20218443D01*
X46687969Y20166404D01*
X46630678Y20138828D01*
X46567216Y20142738D01*
X46513745Y20177138D01*
X46452740Y20243406D01*
X46452739Y20243407D01*
X46452737Y20243409D01*
X46275078Y20381688D01*
X46077073Y20488843D01*
X45924010Y20541389D01*
X45864135Y20561944D01*
X45642069Y20599000D01*
X45416931Y20599000D01*
X45194865Y20561944D01*
X45194862Y20561944D01*
X45194862Y20561943D01*
X44981926Y20488843D01*
X44783921Y20381688D01*
X44606262Y20243409D01*
X44453778Y20077769D01*
X44364983Y19941857D01*
X44319469Y19899959D01*
X44259500Y19884773D01*
X44199531Y19899959D01*
X44154017Y19941857D01*
X44065221Y20077769D01*
X43983626Y20166404D01*
X43912740Y20243406D01*
X43912739Y20243407D01*
X43912737Y20243409D01*
X43735078Y20381688D01*
X43537073Y20488843D01*
X43384010Y20541389D01*
X43324135Y20561944D01*
X43102069Y20599000D01*
X42876931Y20599000D01*
X42654865Y20561944D01*
X42654862Y20561944D01*
X42654862Y20561943D01*
X42441926Y20488843D01*
X42243921Y20381688D01*
X42066262Y20243409D01*
X41913778Y20077769D01*
X41824983Y19941857D01*
X41779469Y19899959D01*
X41719500Y19884773D01*
X41659531Y19899959D01*
X41614017Y19941857D01*
X41525221Y20077769D01*
X41443626Y20166404D01*
X41372740Y20243406D01*
X41372739Y20243407D01*
X41372737Y20243409D01*
X41195078Y20381688D01*
X40997073Y20488843D01*
X40844010Y20541389D01*
X40784135Y20561944D01*
X40562069Y20599000D01*
X40336931Y20599000D01*
X40114865Y20561944D01*
X40114862Y20561944D01*
X40114862Y20561943D01*
X39901926Y20488843D01*
X39703921Y20381688D01*
X39526262Y20243409D01*
X39373778Y20077769D01*
X39284983Y19941857D01*
X39239469Y19899959D01*
X39179500Y19884773D01*
X39119531Y19899959D01*
X39074017Y19941857D01*
X39071058Y19946386D01*
X38985222Y20077768D01*
X38834366Y20241640D01*
X38804509Y20297730D01*
X38805822Y20361261D01*
X38837971Y20416069D01*
X40208776Y21786874D01*
X40259431Y21817771D01*
X40318607Y21822058D01*
X40336931Y21819000D01*
X40562066Y21819000D01*
X40562069Y21819000D01*
X40784135Y21856056D01*
X40997074Y21929158D01*
X41195076Y22036311D01*
X41372740Y22174594D01*
X41525222Y22340232D01*
X41614018Y22476146D01*
X41659531Y22518042D01*
X41719500Y22533228D01*
X41779469Y22518042D01*
X41824981Y22476146D01*
X41885706Y22383199D01*
X41913778Y22340232D01*
X42066262Y22174592D01*
X42243921Y22036313D01*
X42243924Y22036311D01*
X42441926Y21929158D01*
X42654865Y21856056D01*
X42876931Y21819000D01*
X43102066Y21819000D01*
X43102069Y21819000D01*
X43324135Y21856056D01*
X43537074Y21929158D01*
X43735076Y22036311D01*
X43912740Y22174594D01*
X44065222Y22340232D01*
X44188360Y22528709D01*
X44278796Y22734884D01*
X44334064Y22953132D01*
X44352656Y23177500D01*
X44334064Y23401868D01*
X44278796Y23620116D01*
X44188360Y23826291D01*
X44065222Y24014768D01*
X43922023Y24170322D01*
X43892787Y24223925D01*
X43892184Y24284981D01*
X43920359Y24339152D01*
X43970688Y24373713D01*
X44085704Y24416611D01*
X44202761Y24504239D01*
X44290389Y24621296D01*
X44341489Y24758299D01*
X44348000Y24818862D01*
X44348000Y26616138D01*
X44341489Y26676701D01*
X44290389Y26813704D01*
X44290388Y26813706D01*
X44202761Y26930762D01*
X44085705Y27018389D01*
X44012846Y27045564D01*
X43948701Y27069489D01*
X43888138Y27076000D01*
X42090862Y27076000D01*
X42030299Y27069489D01*
X41893294Y27018389D01*
X41776238Y26930762D01*
X41688609Y26813704D01*
X41644500Y26695443D01*
X41607969Y26643404D01*
X41550678Y26615828D01*
X41487216Y26619738D01*
X41433745Y26654138D01*
X41372740Y26720406D01*
X41372739Y26720407D01*
X41372737Y26720409D01*
X41195078Y26858688D01*
X40997073Y26965843D01*
X40791513Y27036411D01*
X40784135Y27038944D01*
X40562069Y27076000D01*
X40336931Y27076000D01*
X40114865Y27038944D01*
X40114862Y27038944D01*
X40114862Y27038943D01*
X39901926Y26965843D01*
X39703921Y26858688D01*
X39526262Y26720409D01*
X39373778Y26554769D01*
X39284983Y26418857D01*
X39239469Y26376959D01*
X39179500Y26361773D01*
X39119531Y26376959D01*
X39074017Y26418857D01*
X38985221Y26554769D01*
X38903626Y26643404D01*
X38832740Y26720406D01*
X38832739Y26720407D01*
X38832737Y26720409D01*
X38655078Y26858688D01*
X38457073Y26965843D01*
X38251513Y27036411D01*
X38244135Y27038944D01*
X38022069Y27076000D01*
X37796931Y27076000D01*
X37574865Y27038944D01*
X37574862Y27038944D01*
X37574862Y27038943D01*
X37361926Y26965843D01*
X37163921Y26858688D01*
X36986262Y26720409D01*
X36833778Y26554769D01*
X36744983Y26418857D01*
X36699469Y26376959D01*
X36639500Y26361773D01*
X36579531Y26376959D01*
X36534017Y26418857D01*
X36445221Y26554769D01*
X36363626Y26643404D01*
X36292740Y26720406D01*
X36292739Y26720407D01*
X36292737Y26720409D01*
X36115078Y26858688D01*
X35917073Y26965843D01*
X35711513Y27036411D01*
X35704135Y27038944D01*
X35482069Y27076000D01*
X35256931Y27076000D01*
X35034865Y27038944D01*
X35034862Y27038944D01*
X35034862Y27038943D01*
X34821926Y26965843D01*
X34623921Y26858688D01*
X34446262Y26720409D01*
X34293778Y26554769D01*
X34204983Y26418857D01*
X34159469Y26376959D01*
X34099500Y26361773D01*
X34039531Y26376959D01*
X33994017Y26418857D01*
X33905221Y26554769D01*
X33823626Y26643404D01*
X33752740Y26720406D01*
X33752739Y26720407D01*
X33752737Y26720409D01*
X33575078Y26858688D01*
X33377073Y26965843D01*
X33171513Y27036411D01*
X33164135Y27038944D01*
X32942069Y27076000D01*
X32716931Y27076000D01*
X32494865Y27038944D01*
X32494862Y27038944D01*
X32494862Y27038943D01*
X32281926Y26965843D01*
X32083921Y26858688D01*
X31906262Y26720409D01*
X31753778Y26554769D01*
X31664983Y26418857D01*
X31619469Y26376959D01*
X31559500Y26361773D01*
X31499531Y26376959D01*
X31454017Y26418857D01*
X31365221Y26554769D01*
X31283626Y26643404D01*
X31212740Y26720406D01*
X31212739Y26720407D01*
X31212737Y26720409D01*
X31035078Y26858688D01*
X30837073Y26965843D01*
X30631513Y27036411D01*
X30624135Y27038944D01*
X30402069Y27076000D01*
X30176931Y27076000D01*
X29954865Y27038944D01*
X29954862Y27038944D01*
X29954862Y27038943D01*
X29741926Y26965843D01*
X29554718Y26864531D01*
X29503423Y26849644D01*
X29450568Y26857345D01*
X29405654Y26886250D01*
X28517005Y27774900D01*
X50503924Y27774900D01*
X50522588Y27573478D01*
X50522588Y27573475D01*
X50522589Y27573474D01*
X50577946Y27378914D01*
X50668110Y27197840D01*
X50668112Y27197838D01*
X50790016Y27036411D01*
X50939506Y26900133D01*
X51037347Y26839552D01*
X51079092Y26813704D01*
X51111492Y26793643D01*
X51300117Y26720570D01*
X51498958Y26683400D01*
X51701240Y26683400D01*
X51701242Y26683400D01*
X51900083Y26720570D01*
X52088708Y26793643D01*
X52260694Y26900133D01*
X52410184Y27036411D01*
X52532088Y27197838D01*
X52622254Y27378916D01*
X52677612Y27573478D01*
X52696276Y27774900D01*
X52677612Y27976322D01*
X52622254Y28170884D01*
X52575895Y28263986D01*
X52532089Y28351961D01*
X52483627Y28416135D01*
X52410184Y28513389D01*
X52260694Y28649667D01*
X52162853Y28710248D01*
X52088709Y28756157D01*
X51900083Y28829230D01*
X51900082Y28829231D01*
X51701242Y28866400D01*
X51498958Y28866400D01*
X51394477Y28846869D01*
X51300116Y28829230D01*
X51111490Y28756157D01*
X50939507Y28649668D01*
X50790015Y28513388D01*
X50668110Y28351961D01*
X50577946Y28170887D01*
X50522589Y27976327D01*
X50522588Y27976322D01*
X50503924Y27774900D01*
X28517005Y27774900D01*
X27963244Y28328661D01*
X27950171Y28344979D01*
X27931386Y28362619D01*
X27898347Y28393645D01*
X27895536Y28396369D01*
X27875770Y28416135D01*
X27872575Y28418614D01*
X27863553Y28426319D01*
X27831320Y28456587D01*
X27813567Y28466347D01*
X27797041Y28477203D01*
X27788608Y28483744D01*
X27781041Y28489614D01*
X27740465Y28507173D01*
X27729804Y28512396D01*
X27691063Y28533695D01*
X27677313Y28537225D01*
X27671437Y28538734D01*
X27652731Y28545138D01*
X27634145Y28553181D01*
X27590475Y28560098D01*
X27578853Y28562505D01*
X27569050Y28565022D01*
X27536030Y28573500D01*
X27536029Y28573500D01*
X27515776Y28573500D01*
X27496066Y28575051D01*
X27476057Y28578221D01*
X27432039Y28574059D01*
X27420181Y28573500D01*
X6433853Y28573500D01*
X6413064Y28575796D01*
X6342014Y28573562D01*
X6338055Y28573500D01*
X6310139Y28573500D01*
X6306123Y28572993D01*
X6294304Y28572063D01*
X6250111Y28570674D01*
X6230658Y28565022D01*
X6211304Y28561014D01*
X6191205Y28558475D01*
X6177834Y28553181D01*
X6150091Y28542198D01*
X6138874Y28538357D01*
X6096407Y28526018D01*
X6078964Y28515703D01*
X6061217Y28507010D01*
X6042384Y28499554D01*
X6006611Y28473563D01*
X5996693Y28467049D01*
X5958639Y28444543D01*
X5944312Y28430217D01*
X5929283Y28417382D01*
X5912894Y28405475D01*
X5884701Y28371396D01*
X5876713Y28362619D01*
X2341836Y24827743D01*
X2325516Y24814667D01*
X2276870Y24762865D01*
X2274120Y24760027D01*
X2254368Y24740274D01*
X2254364Y24740270D01*
X2254365Y24740270D01*
X2251879Y24737067D01*
X2244187Y24728061D01*
X2213913Y24695822D01*
X2204152Y24678066D01*
X2193301Y24661548D01*
X2180885Y24645541D01*
X2163324Y24604961D01*
X2158104Y24594305D01*
X2136804Y24555560D01*
X2131767Y24535941D01*
X2125364Y24517239D01*
X2117318Y24498645D01*
X2110401Y24454976D01*
X2107995Y24443356D01*
X2097000Y24400530D01*
X2097000Y24380276D01*
X2095449Y24360566D01*
X2092279Y24340558D01*
X2096441Y24296539D01*
X2097000Y24284681D01*
X2097000Y18181353D01*
X2094704Y18160565D01*
X2096938Y18089514D01*
X2097000Y18085555D01*
X2097000Y18057643D01*
X2097507Y18053627D01*
X2098437Y18041804D01*
X2099826Y17997608D01*
X2105477Y17978159D01*
X2109486Y17958804D01*
X2112025Y17938706D01*
X2128301Y17897597D01*
X2132144Y17886370D01*
X2144480Y17843910D01*
X2154794Y17826470D01*
X2163487Y17808726D01*
X2170948Y17789883D01*
X2170949Y17789881D01*
X2196931Y17754120D01*
X2203448Y17744199D01*
X2225958Y17706137D01*
X2240278Y17691817D01*
X2253118Y17676784D01*
X2265026Y17660395D01*
X2299098Y17632208D01*
X2307878Y17624218D01*
X3055001Y16877095D01*
X3085739Y16826936D01*
X3090355Y16768289D01*
X3067842Y16713939D01*
X3023109Y16675733D01*
X2965906Y16662000D01*
X1831862Y16662000D01*
X1771299Y16655489D01*
X1634294Y16604389D01*
X1517238Y16516762D01*
X1429611Y16399706D01*
X1382048Y16272184D01*
X1378511Y16262701D01*
X1372000Y16202138D01*
X1372000Y14404862D01*
X254000Y14404862D01*
X254000Y27724100D01*
X586920Y27724100D01*
X606119Y27516911D01*
X663063Y27316773D01*
X755814Y27130504D01*
X881207Y26964457D01*
X881209Y26964455D01*
X1034982Y26824273D01*
X1121016Y26771003D01*
X1202732Y26720406D01*
X1211895Y26714733D01*
X1405923Y26639566D01*
X1610460Y26601331D01*
X1818538Y26601331D01*
X1818540Y26601331D01*
X2023077Y26639566D01*
X2217105Y26714733D01*
X2394018Y26824273D01*
X2547791Y26964455D01*
X2673187Y27130506D01*
X2765936Y27316771D01*
X2822880Y27516908D01*
X2842079Y27724100D01*
X2822880Y27931292D01*
X2765936Y28131429D01*
X2673187Y28317694D01*
X2652582Y28344979D01*
X2547792Y28483744D01*
X2522270Y28507010D01*
X2394018Y28623927D01*
X2277828Y28695869D01*
X2217106Y28733467D01*
X2023077Y28808634D01*
X1818540Y28846869D01*
X1610460Y28846869D01*
X1516101Y28829230D01*
X1405922Y28808634D01*
X1211893Y28733467D01*
X1034983Y28623928D01*
X881207Y28483744D01*
X755814Y28317697D01*
X663063Y28131428D01*
X606119Y27931290D01*
X586920Y27724100D01*
X254000Y27724100D01*
X254000Y29084000D01*
X270881Y29147000D01*
X317000Y29193119D01*
X380000Y29210000D01*
X52960000Y29210000D01*
X53023000Y29193119D01*
G37*
%TD.AperFunction*%
%TD*%
M02*
