%TF.GenerationSoftware,KiCad,Pcbnew,(6.0.10)*%
%TF.CreationDate,2023-02-12T20:01:58+09:00*%
%TF.ProjectId,joystick_74hc165_input_smd,6a6f7973-7469-4636-9b5f-373468633136,2*%
%TF.SameCoordinates,PX7e249a4PY6c1eee4*%
%TF.FileFunction,Legend,Bot*%
%TF.FilePolarity,Positive*%
%FSLAX46Y46*%
G04 Gerber Fmt 4.6, Leading zero omitted, Abs format (unit mm)*
G04 Created by KiCad (PCBNEW (6.0.10)) date 2023-02-12 20:01:58*
%MOMM*%
%LPD*%
G01*
G04 APERTURE LIST*
%ADD10C,0.100000*%
%ADD11C,0.150000*%
%ADD12R,1.700000X1.700000*%
%ADD13O,1.700000X1.700000*%
G04 APERTURE END LIST*
D10*
X8956833Y1651834D02*
X9190166Y1985167D01*
X9356833Y1651834D02*
X9356833Y2351834D01*
X9090166Y2351834D01*
X9023500Y2318500D01*
X8990166Y2285167D01*
X8956833Y2218500D01*
X8956833Y2118500D01*
X8990166Y2051834D01*
X9023500Y2018500D01*
X9090166Y1985167D01*
X9356833Y1985167D01*
X8390166Y1685167D02*
X8456833Y1651834D01*
X8590166Y1651834D01*
X8656833Y1685167D01*
X8690166Y1751834D01*
X8690166Y2018500D01*
X8656833Y2085167D01*
X8590166Y2118500D01*
X8456833Y2118500D01*
X8390166Y2085167D01*
X8356833Y2018500D01*
X8356833Y1951834D01*
X8690166Y1885167D01*
X8123500Y2118500D02*
X7956833Y1651834D01*
X7790166Y2118500D01*
X7523500Y1718500D02*
X7490166Y1685167D01*
X7523500Y1651834D01*
X7556833Y1685167D01*
X7523500Y1718500D01*
X7523500Y1651834D01*
X7223500Y2285167D02*
X7190166Y2318500D01*
X7123500Y2351834D01*
X6956833Y2351834D01*
X6890166Y2318500D01*
X6856833Y2285167D01*
X6823500Y2218500D01*
X6823500Y2151834D01*
X6856833Y2051834D01*
X7256833Y1651834D01*
X6823500Y1651834D01*
D11*
X20652452Y3579834D02*
X20176261Y3579834D01*
X20747690Y3294120D02*
X20414357Y4294120D01*
X20081023Y3294120D01*
X19747690Y3294120D02*
X19747690Y3960786D01*
X19747690Y3865548D02*
X19700071Y3913167D01*
X19604833Y3960786D01*
X19461976Y3960786D01*
X19366738Y3913167D01*
X19319119Y3817929D01*
X19319119Y3294120D01*
X19319119Y3817929D02*
X19271500Y3913167D01*
X19176261Y3960786D01*
X19033404Y3960786D01*
X18938166Y3913167D01*
X18890547Y3817929D01*
X18890547Y3294120D01*
X18271500Y3294120D02*
X18366738Y3341739D01*
X18414357Y3389358D01*
X18461976Y3484596D01*
X18461976Y3770310D01*
X18414357Y3865548D01*
X18366738Y3913167D01*
X18271500Y3960786D01*
X18128642Y3960786D01*
X18033404Y3913167D01*
X17985785Y3865548D01*
X17938166Y3770310D01*
X17938166Y3484596D01*
X17985785Y3389358D01*
X18033404Y3341739D01*
X18128642Y3294120D01*
X18271500Y3294120D01*
X17557214Y3341739D02*
X17461976Y3294120D01*
X17271500Y3294120D01*
X17176261Y3341739D01*
X17128642Y3436977D01*
X17128642Y3484596D01*
X17176261Y3579834D01*
X17271500Y3627453D01*
X17414357Y3627453D01*
X17509595Y3675072D01*
X17557214Y3770310D01*
X17557214Y3817929D01*
X17509595Y3913167D01*
X17414357Y3960786D01*
X17271500Y3960786D01*
X17176261Y3913167D01*
X15652452Y4294120D02*
X15652452Y3579834D01*
X15700071Y3436977D01*
X15795309Y3341739D01*
X15938166Y3294120D01*
X16033404Y3294120D01*
X15033404Y3294120D02*
X15128642Y3341739D01*
X15176261Y3389358D01*
X15223880Y3484596D01*
X15223880Y3770310D01*
X15176261Y3865548D01*
X15128642Y3913167D01*
X15033404Y3960786D01*
X14890547Y3960786D01*
X14795309Y3913167D01*
X14747690Y3865548D01*
X14700071Y3770310D01*
X14700071Y3484596D01*
X14747690Y3389358D01*
X14795309Y3341739D01*
X14890547Y3294120D01*
X15033404Y3294120D01*
X14366738Y3960786D02*
X14128642Y3294120D01*
X13890547Y3960786D02*
X14128642Y3294120D01*
X14223880Y3056024D01*
X14271500Y3008405D01*
X14366738Y2960786D01*
X13557214Y3341739D02*
X13461976Y3294120D01*
X13271500Y3294120D01*
X13176261Y3341739D01*
X13128642Y3436977D01*
X13128642Y3484596D01*
X13176261Y3579834D01*
X13271500Y3627453D01*
X13414357Y3627453D01*
X13509595Y3675072D01*
X13557214Y3770310D01*
X13557214Y3817929D01*
X13509595Y3913167D01*
X13414357Y3960786D01*
X13271500Y3960786D01*
X13176261Y3913167D01*
X12842928Y3960786D02*
X12461976Y3960786D01*
X12700071Y4294120D02*
X12700071Y3436977D01*
X12652452Y3341739D01*
X12557214Y3294120D01*
X12461976Y3294120D01*
X12128642Y3294120D02*
X12128642Y3960786D01*
X12128642Y4294120D02*
X12176261Y4246500D01*
X12128642Y4198881D01*
X12081023Y4246500D01*
X12128642Y4294120D01*
X12128642Y4198881D01*
X11223880Y3341739D02*
X11319119Y3294120D01*
X11509595Y3294120D01*
X11604833Y3341739D01*
X11652452Y3389358D01*
X11700071Y3484596D01*
X11700071Y3770310D01*
X11652452Y3865548D01*
X11604833Y3913167D01*
X11509595Y3960786D01*
X11319119Y3960786D01*
X11223880Y3913167D01*
X10795309Y3294120D02*
X10795309Y4294120D01*
X10700071Y3675072D02*
X10414357Y3294120D01*
X10414357Y3960786D02*
X10795309Y3579834D01*
X9223880Y3294120D02*
X9223880Y4294120D01*
X8747690Y3960786D02*
X8747690Y3294120D01*
X8747690Y3865548D02*
X8700071Y3913167D01*
X8604833Y3960786D01*
X8461976Y3960786D01*
X8366738Y3913167D01*
X8319119Y3817929D01*
X8319119Y3294120D01*
X7842928Y3960786D02*
X7842928Y2960786D01*
X7842928Y3913167D02*
X7747690Y3960786D01*
X7557214Y3960786D01*
X7461976Y3913167D01*
X7414357Y3865548D01*
X7366738Y3770310D01*
X7366738Y3484596D01*
X7414357Y3389358D01*
X7461976Y3341739D01*
X7557214Y3294120D01*
X7747690Y3294120D01*
X7842928Y3341739D01*
X6509595Y3960786D02*
X6509595Y3294120D01*
X6938166Y3960786D02*
X6938166Y3436977D01*
X6890547Y3341739D01*
X6795309Y3294120D01*
X6652452Y3294120D01*
X6557214Y3341739D01*
X6509595Y3389358D01*
X6176261Y3960786D02*
X5795309Y3960786D01*
X6033404Y4294120D02*
X6033404Y3436977D01*
X5985785Y3341739D01*
X5890547Y3294120D01*
X5795309Y3294120D01*
%LPC*%
D12*
%TO.C,OUT1*%
X50482500Y15430500D03*
D13*
X50482500Y12890500D03*
X50482500Y10350500D03*
X50482500Y7810500D03*
X50482500Y5270500D03*
%TD*%
D12*
%TO.C,J2*%
X42989500Y25717500D03*
D13*
X42989500Y23177500D03*
X40449500Y25717500D03*
X40449500Y23177500D03*
X37909500Y25717500D03*
X37909500Y23177500D03*
X35369500Y25717500D03*
X35369500Y23177500D03*
X32829500Y25717500D03*
X32829500Y23177500D03*
X30289500Y25717500D03*
X30289500Y23177500D03*
X27749500Y25717500D03*
X27749500Y23177500D03*
X25209500Y25717500D03*
X25209500Y23177500D03*
X22669500Y25717500D03*
X22669500Y23177500D03*
X20129500Y25717500D03*
X20129500Y23177500D03*
X17589500Y25717500D03*
X17589500Y23177500D03*
X15049500Y25717500D03*
X15049500Y23177500D03*
X12509500Y25717500D03*
X12509500Y23177500D03*
X9969500Y25717500D03*
X9969500Y23177500D03*
%TD*%
D12*
%TO.C,IN1*%
X2730500Y15303500D03*
D13*
X2730500Y12763500D03*
X2730500Y10223500D03*
X2730500Y7683500D03*
X2730500Y5143500D03*
%TD*%
D12*
%TO.C,J1*%
X48069500Y19240500D03*
D13*
X45529500Y19240500D03*
X42989500Y19240500D03*
X40449500Y19240500D03*
X37909500Y19240500D03*
X35369500Y19240500D03*
X32829500Y19240500D03*
X30289500Y19240500D03*
X27749500Y19240500D03*
X25209500Y19240500D03*
X22669500Y19240500D03*
X20129500Y19240500D03*
X17589500Y19240500D03*
X15049500Y19240500D03*
X12509500Y19240500D03*
X9969500Y19240500D03*
X7429500Y19240500D03*
X4889500Y19240500D03*
%TD*%
M02*
