M48
; DRILL file {KiCad (6.0.10)} date Sun Feb 12 21:50:33 2023
; FORMAT={-:-/ absolute / inch / decimal}
; #@! TF.CreationDate,2023-02-12T21:50:33+09:00
; #@! TF.GenerationSoftware,Kicad,Pcbnew,(6.0.10)
; #@! TF.FileFunction,Plated,1,2,PTH
FMAT,2
INCH
; #@! TA.AperFunction,Plated,PTH,ViaDrill
T1C0.0157
; #@! TA.AperFunction,Plated,PTH,ComponentDrill
T2C0.0197
; #@! TA.AperFunction,Plated,PTH,ComponentDrill
T3C0.0394
%
G90
G05
T1
X0.4046Y1.418
X0.4046Y1.318
X0.4046Y0.918
X0.4046Y0.818
X0.4046Y0.718
X0.4046Y0.618
X0.4046Y0.518
X0.4046Y0.418
X0.8165Y0.4725
T2
X0.136Y1.618
X0.136Y1.5688
X0.136Y1.5196
X0.136Y1.4704
X0.136Y1.4211
X0.136Y1.3719
X0.136Y1.208
X0.136Y1.1588
X0.136Y1.1096
X0.136Y1.0604
X0.136Y1.0111
X0.136Y0.9619
X0.136Y0.9127
X0.136Y0.8635
X0.136Y0.8143
X0.136Y0.7651
X0.136Y0.7159
X0.136Y0.6667
X0.136Y0.6174
X0.136Y0.5682
X0.136Y0.519
X0.136Y0.358
X0.136Y0.3088
X0.136Y0.2596
X0.136Y0.2104
T3
X0.298Y1.324
X0.298Y1.224
X0.298Y1.124
X0.298Y0.969
X0.298Y0.869
X0.298Y0.769
X0.298Y0.614
X0.298Y0.514
X0.298Y0.414
X0.592Y1.618
X0.592Y1.518
X0.592Y1.418
X0.592Y1.318
X0.592Y1.218
X0.592Y1.118
X0.592Y1.018
X0.592Y0.918
X0.592Y0.818
X0.592Y0.718
X0.592Y0.618
X0.592Y0.518
X0.592Y0.418
X0.592Y0.318
X0.592Y0.218
X0.764Y1.62
X0.764Y1.52
X0.764Y1.42
X0.764Y1.32
X0.764Y1.22
X0.764Y1.12
X0.764Y1.02
X0.764Y0.92
X0.764Y0.82
X0.764Y0.72
X0.764Y0.62
X0.764Y0.52
X0.764Y0.42
X0.764Y0.32
X0.764Y0.22
T0
M30
