M48
; DRILL file {KiCad (7.0.0)} date Sun Mar 12 00:46:29 2023
; FORMAT={-:-/ absolute / inch / decimal}
; #@! TF.CreationDate,2023-03-12T00:46:29+09:00
; #@! TF.GenerationSoftware,Kicad,Pcbnew,(7.0.0)
; #@! TF.FileFunction,Plated,1,2,PTH
FMAT,2
INCH
; #@! TA.AperFunction,Plated,PTH,ViaDrill
T1C0.0157
; #@! TA.AperFunction,Plated,PTH,ComponentDrill
T2C0.0197
; #@! TA.AperFunction,Plated,PTH,ComponentDrill
T3C0.0394
%
G90
G05
T1
X0.4106Y1.418
X0.4106Y1.318
X0.4106Y0.318
X0.83Y0.47
T2
X0.142Y1.618
X0.142Y1.5688
X0.142Y1.5196
X0.142Y1.4704
X0.142Y1.4211
X0.142Y1.3719
X0.142Y1.208
X0.142Y1.1588
X0.142Y1.1096
X0.142Y1.0604
X0.142Y1.0111
X0.142Y0.9619
X0.142Y0.9127
X0.142Y0.8635
X0.142Y0.8143
X0.142Y0.7651
X0.142Y0.7159
X0.142Y0.6667
X0.142Y0.6174
X0.142Y0.5682
X0.142Y0.519
X0.142Y0.358
X0.142Y0.3088
X0.142Y0.2596
X0.142Y0.2104
X0.958Y0.7596
X0.958Y0.7103
X0.958Y0.6611
X0.958Y0.6119
X0.958Y0.5627
X0.958Y0.5135
X0.958Y0.4643
X0.958Y0.4151
X0.958Y0.3659
X0.958Y0.3166
X0.958Y0.2674
X0.958Y0.2182
X0.958Y0.169
X0.959Y1.7058
X0.959Y1.6566
X0.959Y1.6073
X0.959Y1.5581
X0.959Y1.5089
X0.959Y1.4597
X0.959Y1.4105
X0.959Y1.3613
X0.959Y1.3121
X0.959Y1.2629
X0.959Y1.2136
X0.959Y1.1644
X0.959Y1.1152
X0.959Y1.066
X1.352Y1.7057
X1.352Y1.6565
X1.352Y1.6073
X1.352Y1.5581
X1.352Y1.5089
X1.352Y1.4596
X1.352Y1.4104
X1.352Y1.3612
X1.352Y1.312
X1.352Y1.2628
X1.352Y1.2136
X1.352Y1.1644
X1.352Y1.1151
X1.352Y1.0659
X1.352Y0.7597
X1.352Y0.7105
X1.352Y0.6613
X1.352Y0.6121
X1.352Y0.5629
X1.352Y0.5136
X1.352Y0.4644
X1.352Y0.4152
X1.352Y0.366
X1.352Y0.3168
X1.352Y0.2676
X1.352Y0.2184
X1.352Y0.1691
T3
X0.304Y1.324
X0.304Y1.224
X0.304Y1.124
X0.304Y0.969
X0.304Y0.869
X0.304Y0.769
X0.304Y0.614
X0.304Y0.514
X0.304Y0.414
X0.598Y1.618
X0.598Y1.518
X0.598Y1.418
X0.598Y1.318
X0.598Y1.218
X0.598Y1.118
X0.598Y1.018
X0.598Y0.918
X0.598Y0.818
X0.598Y0.718
X0.598Y0.618
X0.598Y0.518
X0.598Y0.418
X0.598Y0.318
X0.598Y0.218
X0.772Y1.62
X0.772Y1.52
X0.772Y1.42
X0.772Y1.32
X0.772Y1.22
X0.772Y1.12
X0.772Y1.02
X0.772Y0.92
X0.772Y0.82
X0.772Y0.72
X0.772Y0.62
X0.772Y0.52
X0.772Y0.42
X0.772Y0.32
X0.772Y0.22
X1.1058Y1.7863
X1.1058Y1.6863
X1.1058Y1.5863
X1.1058Y1.4863
X1.1058Y1.3863
X1.1058Y1.2863
X1.1058Y1.1863
X1.1058Y1.0863
X1.1058Y0.9863
X1.1058Y0.8563
X1.1058Y0.7563
X1.1058Y0.6563
X1.1058Y0.5563
X1.1058Y0.4563
X1.1058Y0.3563
X1.1058Y0.2563
X1.1058Y0.1563
X1.1058Y0.0563
X1.2058Y1.7863
X1.2058Y1.6863
X1.2058Y1.5863
X1.2058Y1.4863
X1.2058Y1.3863
X1.2058Y1.2863
X1.2058Y1.1863
X1.2058Y1.0863
X1.2058Y0.9863
X1.2058Y0.8563
X1.2058Y0.7563
X1.2058Y0.6563
X1.2058Y0.5563
X1.2058Y0.4563
X1.2058Y0.3563
X1.2058Y0.2563
X1.2058Y0.1563
X1.2058Y0.0563
T0
M30
