%TF.GenerationSoftware,KiCad,Pcbnew,(6.0.10)*%
%TF.CreationDate,2023-02-12T22:57:06+09:00*%
%TF.ProjectId,joystick_gpio_input,6a6f7973-7469-4636-9b5f-6770696f5f69,1*%
%TF.SameCoordinates,PX7b89fa0PY78dfd90*%
%TF.FileFunction,Copper,L2,Bot*%
%TF.FilePolarity,Positive*%
%FSLAX46Y46*%
G04 Gerber Fmt 4.6, Leading zero omitted, Abs format (unit mm)*
G04 Created by KiCad (PCBNEW (6.0.10)) date 2023-02-12 22:57:06*
%MOMM*%
%LPD*%
G01*
G04 APERTURE LIST*
G04 Aperture macros list*
%AMRoundRect*
0 Rectangle with rounded corners*
0 $1 Rounding radius*
0 $2 $3 $4 $5 $6 $7 $8 $9 X,Y pos of 4 corners*
0 Add a 4 corners polygon primitive as box body*
4,1,4,$2,$3,$4,$5,$6,$7,$8,$9,$2,$3,0*
0 Add four circle primitives for the rounded corners*
1,1,$1+$1,$2,$3*
1,1,$1+$1,$4,$5*
1,1,$1+$1,$6,$7*
1,1,$1+$1,$8,$9*
0 Add four rect primitives between the rounded corners*
20,1,$1+$1,$2,$3,$4,$5,0*
20,1,$1+$1,$4,$5,$6,$7,0*
20,1,$1+$1,$6,$7,$8,$9,0*
20,1,$1+$1,$8,$9,$2,$3,0*%
G04 Aperture macros list end*
%TA.AperFunction,ComponentPad*%
%ADD10R,1.700000X1.700000*%
%TD*%
%TA.AperFunction,ComponentPad*%
%ADD11O,1.700000X1.700000*%
%TD*%
%TA.AperFunction,ComponentPad*%
%ADD12RoundRect,0.200000X-0.450000X0.200000X-0.450000X-0.200000X0.450000X-0.200000X0.450000X0.200000X0*%
%TD*%
%TA.AperFunction,ComponentPad*%
%ADD13O,1.300000X0.800000*%
%TD*%
%TA.AperFunction,ViaPad*%
%ADD14C,0.800000*%
%TD*%
%TA.AperFunction,Conductor*%
%ADD15C,0.250000*%
%TD*%
G04 APERTURE END LIST*
D10*
%TO.P,J5,1,Pin_1*%
%TO.N,/C_UP*%
X19608800Y41148000D03*
D11*
%TO.P,J5,2,Pin_2*%
%TO.N,/C_TL*%
X19608800Y38608000D03*
%TO.P,J5,3,Pin_3*%
%TO.N,/GND*%
X19608800Y36068000D03*
%TO.P,J5,4,Pin_4*%
%TO.N,/C_X*%
X19608800Y33528000D03*
%TO.P,J5,5,Pin_5*%
%TO.N,/C_DOWN*%
X19608800Y30988000D03*
%TO.P,J5,6,Pin_6*%
%TO.N,/C_Y*%
X19608800Y28448000D03*
%TO.P,J5,7,Pin_7*%
%TO.N,/C_LEFT*%
X19608800Y25908000D03*
%TO.P,J5,8,Pin_8*%
%TO.N,/C_RIGHT*%
X19608800Y23368000D03*
%TO.P,J5,9,Pin_9*%
%TO.N,/C_TR*%
X19608800Y20828000D03*
%TO.P,J5,10,Pin_10*%
%TO.N,/C_B*%
X19608800Y18288000D03*
%TO.P,J5,11,Pin_11*%
%TO.N,/C_START*%
X19608800Y15748000D03*
%TO.P,J5,12,Pin_12*%
%TO.N,/C_SELECT*%
X19608800Y13208000D03*
%TO.P,J5,13,Pin_13*%
%TO.N,/C_A*%
X19608800Y10668000D03*
%TO.P,J5,14,Pin_14*%
%TO.N,/C_HK*%
X19608800Y8128000D03*
%TO.P,J5,15,Pin_15*%
%TO.N,/GND*%
X19608800Y5588000D03*
%TD*%
D10*
%TO.P,JP3,1,Pin_1*%
%TO.N,/HK*%
X7721600Y15595600D03*
D11*
%TO.P,JP3,2,Pin_2*%
%TO.N,/HK_T*%
X7721600Y13055600D03*
%TO.P,JP3,3,Pin_3*%
%TO.N,/GND*%
X7721600Y10515600D03*
%TD*%
D12*
%TO.P,J1,1,Pin_1*%
%TO.N,/GND*%
X3606800Y41097200D03*
D13*
%TO.P,J1,2,Pin_2*%
%TO.N,/UP*%
X3606800Y39847200D03*
%TO.P,J1,3,Pin_3*%
%TO.N,/DOWN*%
X3606800Y38597200D03*
%TO.P,J1,4,Pin_4*%
%TO.N,/LEFT*%
X3606800Y37347200D03*
%TO.P,J1,5,Pin_5*%
%TO.N,/RIGHT*%
X3606800Y36097200D03*
%TO.P,J1,6,Pin_6*%
%TO.N,/GND*%
X3606800Y34847200D03*
%TD*%
D12*
%TO.P,J3,1,Pin_1*%
%TO.N,/GND*%
X3606800Y30683200D03*
D13*
%TO.P,J3,2,Pin_2*%
%TO.N,/UP*%
X3606800Y29433200D03*
%TO.P,J3,3,Pin_3*%
%TO.N,/DOWN*%
X3606800Y28183200D03*
%TO.P,J3,4,Pin_4*%
%TO.N,/LEFT*%
X3606800Y26933200D03*
%TO.P,J3,5,Pin_5*%
%TO.N,/RIGHT_T*%
X3606800Y25683200D03*
%TO.P,J3,6,Pin_6*%
%TO.N,/START*%
X3606800Y24433200D03*
%TO.P,J3,7,Pin_7*%
%TO.N,/SELECT_T*%
X3606800Y23183200D03*
%TO.P,J3,8,Pin_8*%
%TO.N,/A*%
X3606800Y21933200D03*
%TO.P,J3,9,Pin_9*%
%TO.N,/B*%
X3606800Y20683200D03*
%TO.P,J3,10,Pin_10*%
%TO.N,/X*%
X3606800Y19433200D03*
%TO.P,J3,11,Pin_11*%
%TO.N,/Y*%
X3606800Y18183200D03*
%TO.P,J3,12,Pin_12*%
%TO.N,/TL*%
X3606800Y16933200D03*
%TO.P,J3,13,Pin_13*%
%TO.N,/TR*%
X3606800Y15683200D03*
%TO.P,J3,14,Pin_14*%
%TO.N,/HK_T*%
X3606800Y14433200D03*
%TO.P,J3,15,Pin_15*%
%TO.N,/GND*%
X3606800Y13183200D03*
%TD*%
D10*
%TO.P,JP1,1,Pin_1*%
%TO.N,/RIGHT*%
X7721600Y33629600D03*
D11*
%TO.P,JP1,2,Pin_2*%
%TO.N,/RIGHT_T*%
X7721600Y31089600D03*
%TO.P,JP1,3,Pin_3*%
%TO.N,/GND*%
X7721600Y28549600D03*
%TD*%
D10*
%TO.P,J4,1,Pin_1*%
%TO.N,/GND*%
X15189200Y41097200D03*
D11*
%TO.P,J4,2,Pin_2*%
%TO.N,/C_UP*%
X15189200Y38557200D03*
%TO.P,J4,3,Pin_3*%
%TO.N,/C_DOWN*%
X15189200Y36017200D03*
%TO.P,J4,4,Pin_4*%
%TO.N,/C_LEFT*%
X15189200Y33477200D03*
%TO.P,J4,5,Pin_5*%
%TO.N,/C_RIGHT*%
X15189200Y30937200D03*
%TO.P,J4,6,Pin_6*%
%TO.N,/C_START*%
X15189200Y28397200D03*
%TO.P,J4,7,Pin_7*%
%TO.N,/C_SELECT*%
X15189200Y25857200D03*
%TO.P,J4,8,Pin_8*%
%TO.N,/C_A*%
X15189200Y23317200D03*
%TO.P,J4,9,Pin_9*%
%TO.N,/C_B*%
X15189200Y20777200D03*
%TO.P,J4,10,Pin_10*%
%TO.N,/C_X*%
X15189200Y18237200D03*
%TO.P,J4,11,Pin_11*%
%TO.N,/C_Y*%
X15189200Y15697200D03*
%TO.P,J4,12,Pin_12*%
%TO.N,/C_TL*%
X15189200Y13157200D03*
%TO.P,J4,13,Pin_13*%
%TO.N,/C_TR*%
X15189200Y10617200D03*
%TO.P,J4,14,Pin_14*%
%TO.N,/C_HK*%
X15189200Y8077200D03*
%TO.P,J4,15,Pin_15*%
%TO.N,/GND*%
X15189200Y5537200D03*
%TD*%
D10*
%TO.P,JP2,1,Pin_1*%
%TO.N,/SELECT*%
X7721600Y24612600D03*
D11*
%TO.P,JP2,2,Pin_2*%
%TO.N,/SELECT_T*%
X7721600Y22072600D03*
%TO.P,JP2,3,Pin_3*%
%TO.N,/GND*%
X7721600Y19532600D03*
%TD*%
D12*
%TO.P,J2,1,Pin_1*%
%TO.N,/GND*%
X3606800Y9093200D03*
D13*
%TO.P,J2,2,Pin_2*%
%TO.N,/START*%
X3606800Y7843200D03*
%TO.P,J2,3,Pin_3*%
%TO.N,/SELECT*%
X3606800Y6593200D03*
%TO.P,J2,4,Pin_4*%
%TO.N,/GND*%
X3606800Y5343200D03*
%TD*%
D14*
%TO.N,/DOWN*%
X10430000Y36017200D03*
%TO.N,/LEFT*%
X10430000Y33477200D03*
%TO.N,/HK*%
X10430000Y8077200D03*
%TO.N,/C_TR*%
X21082000Y11938000D03*
%TD*%
D15*
%TO.N,/C_TR*%
X15443200Y10617200D02*
X15189200Y10617200D01*
X16764000Y11938000D02*
X15443200Y10617200D01*
X21082000Y11938000D02*
X16764000Y11938000D01*
%TO.N,/DOWN*%
X10430000Y36017200D02*
X7850000Y38597200D01*
X7850000Y38597200D02*
X3606800Y38597200D01*
%TO.N,/LEFT*%
X2032000Y36322000D02*
X2032000Y27990800D01*
X2032000Y27990800D02*
X3089600Y26933200D01*
X6560000Y37347200D02*
X3606800Y37347200D01*
X3089600Y26933200D02*
X3606800Y26933200D01*
X3606800Y37347200D02*
X3057200Y37347200D01*
X10430000Y33477200D02*
X6560000Y37347200D01*
X3057200Y37347200D02*
X2032000Y36322000D01*
%TO.N,/RIGHT*%
X7721600Y33629600D02*
X5254000Y36097200D01*
X5254000Y36097200D02*
X3606800Y36097200D01*
%TO.N,/SELECT*%
X10845800Y24612600D02*
X7721600Y24612600D01*
X3606800Y6593200D02*
X10911200Y6593200D01*
X10911200Y6593200D02*
X11684000Y7366000D01*
X11684000Y23774400D02*
X10845800Y24612600D01*
X11684000Y7366000D02*
X11684000Y23774400D01*
%TO.N,/SELECT_T*%
X3606800Y23183200D02*
X6611000Y23183200D01*
X6611000Y23183200D02*
X7721600Y22072600D01*
%TO.N,/HK*%
X9398000Y13919200D02*
X9398000Y9109200D01*
X9398000Y9109200D02*
X10430000Y8077200D01*
X7721600Y15595600D02*
X9398000Y13919200D01*
%TO.N,/C_RIGHT*%
X15189200Y30937200D02*
X15189200Y30734000D01*
X17772800Y28150400D02*
X17772800Y25204000D01*
X17772800Y25204000D02*
X19608800Y23368000D01*
X15189200Y30734000D02*
X17772800Y28150400D01*
%TO.N,/C_B*%
X15544800Y20777200D02*
X18034000Y18288000D01*
X18034000Y18288000D02*
X19608800Y18288000D01*
X15189200Y20777200D02*
X15544800Y20777200D01*
%TO.N,/C_X*%
X18288000Y32207200D02*
X19608800Y33528000D01*
X13436600Y31572200D02*
X14071600Y32207200D01*
X14071600Y32207200D02*
X18288000Y32207200D01*
X15189200Y18237200D02*
X13436600Y19989800D01*
X13436600Y19989800D02*
X13436600Y31572200D01*
%TO.N,/C_Y*%
X15189200Y15697200D02*
X16510000Y17018000D01*
X20904200Y27152600D02*
X19608800Y28448000D01*
X16510000Y17018000D02*
X20294600Y17018000D01*
X20904200Y17627600D02*
X20904200Y27152600D01*
X20294600Y17018000D02*
X20904200Y17627600D01*
%TO.N,/C_TL*%
X15189200Y13157200D02*
X16510000Y14478000D01*
X21354200Y15029600D02*
X21354200Y36862600D01*
X20802600Y14478000D02*
X21354200Y15029600D01*
X16510000Y14478000D02*
X20802600Y14478000D01*
X21354200Y36862600D02*
X19608800Y38608000D01*
%TD*%
%TA.AperFunction,Conductor*%
%TO.N,/GND*%
G36*
X19790151Y45953998D02*
G01*
X19836644Y45900342D01*
X19846748Y45830068D01*
X19838439Y45799782D01*
X19801495Y45710591D01*
X19800340Y45705779D01*
X19752798Y45507750D01*
X19742391Y45464403D01*
X19722526Y45212000D01*
X19742391Y44959597D01*
X19743545Y44954790D01*
X19743546Y44954784D01*
X19781179Y44798032D01*
X19801495Y44713409D01*
X19803388Y44708838D01*
X19803389Y44708836D01*
X19831631Y44640655D01*
X19898384Y44479498D01*
X20030672Y44263624D01*
X20195102Y44071102D01*
X20387624Y43906672D01*
X20603498Y43774384D01*
X20608068Y43772491D01*
X20608072Y43772489D01*
X20806618Y43690249D01*
X20837409Y43677495D01*
X20884661Y43666151D01*
X21078784Y43619546D01*
X21078790Y43619545D01*
X21083597Y43618391D01*
X21336000Y43598526D01*
X21588403Y43618391D01*
X21593210Y43619545D01*
X21593216Y43619546D01*
X21787339Y43666151D01*
X21834591Y43677495D01*
X21923782Y43714439D01*
X21994372Y43722028D01*
X22057859Y43690249D01*
X22094086Y43629190D01*
X22098000Y43598030D01*
X22098000Y37309979D01*
X22077998Y37241858D01*
X22024342Y37195365D01*
X21954068Y37185261D01*
X21889488Y37214755D01*
X21867671Y37240898D01*
X21867639Y37240873D01*
X21866949Y37241763D01*
X21863547Y37245839D01*
X21862778Y37247140D01*
X21862774Y37247145D01*
X21858742Y37253963D01*
X21844418Y37268287D01*
X21831576Y37283322D01*
X21830064Y37285403D01*
X21819672Y37299707D01*
X21785606Y37327889D01*
X21776827Y37335878D01*
X20960018Y38152687D01*
X20925992Y38214999D01*
X20928555Y38278411D01*
X20939665Y38314978D01*
X20941170Y38319931D01*
X20970329Y38541410D01*
X20971956Y38608000D01*
X20953652Y38830639D01*
X20899231Y39047298D01*
X20810154Y39252160D01*
X20724486Y39384583D01*
X20691622Y39435383D01*
X20691620Y39435386D01*
X20688814Y39439723D01*
X20685332Y39443550D01*
X20541598Y39601512D01*
X20510546Y39665358D01*
X20518941Y39735857D01*
X20564117Y39790625D01*
X20590561Y39804294D01*
X20697097Y39844233D01*
X20705505Y39847385D01*
X20822061Y39934739D01*
X20909415Y40051295D01*
X20960545Y40187684D01*
X20967300Y40249866D01*
X20967300Y42046134D01*
X20960545Y42108316D01*
X20909415Y42244705D01*
X20822061Y42361261D01*
X20705505Y42448615D01*
X20569116Y42499745D01*
X20506934Y42506500D01*
X18710666Y42506500D01*
X18648484Y42499745D01*
X18512095Y42448615D01*
X18395539Y42361261D01*
X18308185Y42244705D01*
X18257055Y42108316D01*
X18250300Y42046134D01*
X18250300Y40249866D01*
X18257055Y40187684D01*
X18308185Y40051295D01*
X18395539Y39934739D01*
X18512095Y39847385D01*
X18520504Y39844233D01*
X18520505Y39844232D01*
X18629251Y39803465D01*
X18686016Y39760824D01*
X18710716Y39694262D01*
X18695509Y39624913D01*
X18676116Y39598432D01*
X18549429Y39465862D01*
X18546515Y39461590D01*
X18546514Y39461589D01*
X18511861Y39410789D01*
X18423543Y39281320D01*
X18386427Y39201360D01*
X18331728Y39083520D01*
X18329488Y39078695D01*
X18269789Y38863430D01*
X18246051Y38641305D01*
X18246348Y38636152D01*
X18246348Y38636149D01*
X18251811Y38541410D01*
X18258910Y38418285D01*
X18260047Y38413239D01*
X18260048Y38413233D01*
X18270358Y38367485D01*
X18308022Y38200361D01*
X18392066Y37993384D01*
X18400640Y37979393D01*
X18496708Y37822624D01*
X18508787Y37802912D01*
X18655050Y37634062D01*
X18826926Y37491368D01*
X18900755Y37448226D01*
X18949479Y37396588D01*
X18962550Y37326805D01*
X18935819Y37261033D01*
X18895362Y37227673D01*
X18887257Y37223454D01*
X18878538Y37217964D01*
X18708233Y37090095D01*
X18700526Y37083252D01*
X18553390Y36929283D01*
X18546904Y36921273D01*
X18426898Y36745351D01*
X18421800Y36736377D01*
X18332138Y36543217D01*
X18328575Y36533530D01*
X18273189Y36333817D01*
X18274712Y36325393D01*
X18287092Y36322000D01*
X19736800Y36322000D01*
X19804921Y36301998D01*
X19851414Y36248342D01*
X19862800Y36196000D01*
X19862800Y35940000D01*
X19842798Y35871879D01*
X19789142Y35825386D01*
X19736800Y35814000D01*
X18292025Y35814000D01*
X18278494Y35810027D01*
X18277057Y35800034D01*
X18307365Y35665554D01*
X18310445Y35655725D01*
X18390570Y35458397D01*
X18395213Y35449206D01*
X18506494Y35267612D01*
X18512577Y35259301D01*
X18652013Y35098333D01*
X18659380Y35091117D01*
X18823234Y34955084D01*
X18831681Y34949169D01*
X18900769Y34908797D01*
X18949493Y34857158D01*
X18962564Y34787375D01*
X18935833Y34721604D01*
X18895384Y34688248D01*
X18882407Y34681493D01*
X18878274Y34678390D01*
X18878271Y34678388D01*
X18735943Y34571525D01*
X18703765Y34547365D01*
X18700193Y34543627D01*
X18568389Y34405702D01*
X18549429Y34385862D01*
X18546515Y34381590D01*
X18546514Y34381589D01*
X18469246Y34268318D01*
X18423543Y34201320D01*
X18402537Y34156066D01*
X18337723Y34016435D01*
X18329488Y33998695D01*
X18269789Y33783430D01*
X18246051Y33561305D01*
X18258910Y33338285D01*
X18260047Y33333239D01*
X18260048Y33333233D01*
X18270358Y33287485D01*
X18291368Y33194261D01*
X18292253Y33190332D01*
X18287717Y33119480D01*
X18258431Y33073536D01*
X18062500Y32877605D01*
X18000188Y32843579D01*
X17973405Y32840700D01*
X16585677Y32840700D01*
X16517556Y32860702D01*
X16471063Y32914358D01*
X16460959Y32984632D01*
X16465117Y33003321D01*
X16521570Y33189131D01*
X16550729Y33410610D01*
X16550811Y33413960D01*
X16552274Y33473835D01*
X16552274Y33473839D01*
X16552356Y33477200D01*
X16534052Y33699839D01*
X16479631Y33916498D01*
X16390554Y34121360D01*
X16336057Y34205599D01*
X16272022Y34304583D01*
X16272020Y34304586D01*
X16269214Y34308923D01*
X16118870Y34474149D01*
X16114819Y34477348D01*
X16114815Y34477352D01*
X15947614Y34609400D01*
X15947610Y34609402D01*
X15943559Y34612602D01*
X15902253Y34635404D01*
X15852284Y34685836D01*
X15837512Y34755279D01*
X15862628Y34821684D01*
X15889980Y34848291D01*
X15945419Y34887835D01*
X16069060Y34976027D01*
X16081498Y34988421D01*
X16163430Y35070068D01*
X16227296Y35133711D01*
X16236870Y35147034D01*
X16354635Y35310923D01*
X16357653Y35315123D01*
X16367206Y35334451D01*
X16454336Y35510747D01*
X16454337Y35510749D01*
X16456630Y35515389D01*
X16498114Y35651929D01*
X16520065Y35724177D01*
X16520065Y35724179D01*
X16521570Y35729131D01*
X16550729Y35950610D01*
X16550811Y35953960D01*
X16552274Y36013835D01*
X16552274Y36013839D01*
X16552356Y36017200D01*
X16534052Y36239839D01*
X16479631Y36456498D01*
X16390554Y36661360D01*
X16342023Y36736377D01*
X16272022Y36844583D01*
X16272020Y36844586D01*
X16269214Y36848923D01*
X16118870Y37014149D01*
X16114819Y37017348D01*
X16114815Y37017352D01*
X15947614Y37149400D01*
X15947610Y37149402D01*
X15943559Y37152602D01*
X15902253Y37175404D01*
X15852284Y37225836D01*
X15837512Y37295279D01*
X15862628Y37361684D01*
X15889980Y37388291D01*
X15933803Y37419550D01*
X16069060Y37516027D01*
X16227296Y37673711D01*
X16286794Y37756511D01*
X16354635Y37850923D01*
X16357653Y37855123D01*
X16361935Y37863786D01*
X16454336Y38050747D01*
X16454337Y38050749D01*
X16456630Y38055389D01*
X16521570Y38269131D01*
X16550729Y38490610D01*
X16552356Y38557200D01*
X16534052Y38779839D01*
X16479631Y38996498D01*
X16390554Y39201360D01*
X16323922Y39304358D01*
X16272022Y39384583D01*
X16272020Y39384586D01*
X16269214Y39388923D01*
X16265740Y39392741D01*
X16265733Y39392750D01*
X16121635Y39551112D01*
X16090583Y39614958D01*
X16098979Y39685456D01*
X16144156Y39740224D01*
X16170600Y39753893D01*
X16277252Y39793875D01*
X16292849Y39802414D01*
X16394924Y39878915D01*
X16407485Y39891476D01*
X16483986Y39993551D01*
X16492524Y40009146D01*
X16537678Y40129594D01*
X16541305Y40144849D01*
X16546831Y40195714D01*
X16547200Y40202528D01*
X16547200Y40825085D01*
X16542725Y40840324D01*
X16541335Y40841529D01*
X16533652Y40843200D01*
X13849316Y40843200D01*
X13834077Y40838725D01*
X13832872Y40837335D01*
X13831201Y40829652D01*
X13831201Y40202531D01*
X13831571Y40195710D01*
X13837095Y40144848D01*
X13840721Y40129596D01*
X13885876Y40009146D01*
X13894414Y39993551D01*
X13970915Y39891476D01*
X13983476Y39878915D01*
X14085551Y39802414D01*
X14101146Y39793876D01*
X14210027Y39753058D01*
X14266791Y39710416D01*
X14291491Y39643855D01*
X14276283Y39574506D01*
X14256891Y39548025D01*
X14149248Y39435383D01*
X14129829Y39415062D01*
X14126915Y39410790D01*
X14126914Y39410789D01*
X14054312Y39304358D01*
X14003943Y39230520D01*
X13975663Y39169596D01*
X13918895Y39047298D01*
X13909888Y39027895D01*
X13850189Y38812630D01*
X13826451Y38590505D01*
X13826748Y38585352D01*
X13826748Y38585349D01*
X13832211Y38490610D01*
X13839310Y38367485D01*
X13840447Y38362439D01*
X13840448Y38362433D01*
X13849703Y38321369D01*
X13888422Y38149561D01*
X13949873Y37998224D01*
X13957520Y37979393D01*
X13972466Y37942584D01*
X13992285Y37910242D01*
X14057420Y37803952D01*
X14089187Y37752112D01*
X14235450Y37583262D01*
X14407326Y37440568D01*
X14477795Y37399389D01*
X14480645Y37397724D01*
X14529369Y37346086D01*
X14542440Y37276303D01*
X14515709Y37210531D01*
X14475255Y37177173D01*
X14462807Y37170693D01*
X14458674Y37167590D01*
X14458671Y37167588D01*
X14288300Y37039670D01*
X14284165Y37036565D01*
X14129829Y36875062D01*
X14126915Y36870790D01*
X14126914Y36870789D01*
X14054306Y36764349D01*
X14003943Y36690520D01*
X13962016Y36600196D01*
X13935568Y36543217D01*
X13909888Y36487895D01*
X13850189Y36272630D01*
X13826451Y36050505D01*
X13826748Y36045352D01*
X13826748Y36045349D01*
X13836750Y35871879D01*
X13839310Y35827485D01*
X13840447Y35822439D01*
X13840448Y35822433D01*
X13842349Y35814000D01*
X13888422Y35609561D01*
X13972466Y35402584D01*
X14006880Y35346425D01*
X14082272Y35223397D01*
X14089187Y35212112D01*
X14235450Y35043262D01*
X14407326Y34900568D01*
X14429116Y34887835D01*
X14480645Y34857724D01*
X14529369Y34806086D01*
X14542440Y34736303D01*
X14515709Y34670531D01*
X14475255Y34637173D01*
X14462807Y34630693D01*
X14458674Y34627590D01*
X14458671Y34627588D01*
X14288300Y34499670D01*
X14284165Y34496565D01*
X14280593Y34492827D01*
X14153396Y34359723D01*
X14129829Y34335062D01*
X14126915Y34330790D01*
X14126914Y34330789D01*
X14111998Y34308923D01*
X14003943Y34150520D01*
X13965077Y34066789D01*
X13912141Y33952748D01*
X13909888Y33947895D01*
X13850189Y33732630D01*
X13826451Y33510505D01*
X13826748Y33505352D01*
X13826748Y33505349D01*
X13832211Y33410610D01*
X13839310Y33287485D01*
X13840447Y33282439D01*
X13840448Y33282433D01*
X13860319Y33194261D01*
X13888422Y33069561D01*
X13915316Y33003328D01*
X13928806Y32970106D01*
X13935902Y32899465D01*
X13903680Y32836201D01*
X13847217Y32801705D01*
X13818007Y32793219D01*
X13811184Y32789184D01*
X13800566Y32782905D01*
X13782813Y32774208D01*
X13775168Y32771181D01*
X13763983Y32766752D01*
X13757568Y32762091D01*
X13728212Y32740763D01*
X13718295Y32734249D01*
X13680238Y32711742D01*
X13665917Y32697421D01*
X13650884Y32684581D01*
X13634493Y32672672D01*
X13611196Y32644511D01*
X13606312Y32638607D01*
X13598322Y32629826D01*
X13044342Y32075847D01*
X13036063Y32068313D01*
X13029582Y32064200D01*
X13000261Y32032976D01*
X12982957Y32014549D01*
X12980202Y32011707D01*
X12960465Y31991970D01*
X12957985Y31988773D01*
X12950282Y31979753D01*
X12920014Y31947521D01*
X12916195Y31940575D01*
X12916193Y31940572D01*
X12910252Y31929766D01*
X12899401Y31913247D01*
X12886986Y31897241D01*
X12883841Y31889972D01*
X12883838Y31889968D01*
X12869426Y31856663D01*
X12864209Y31846013D01*
X12842905Y31807260D01*
X12840934Y31799585D01*
X12840934Y31799584D01*
X12837867Y31787638D01*
X12831463Y31768934D01*
X12823419Y31750345D01*
X12822180Y31742522D01*
X12822177Y31742512D01*
X12816501Y31706676D01*
X12814095Y31695056D01*
X12803100Y31652230D01*
X12803100Y31631976D01*
X12801549Y31612266D01*
X12798380Y31592257D01*
X12799126Y31584365D01*
X12802541Y31548239D01*
X12803100Y31536381D01*
X12803100Y20068567D01*
X12802573Y20057384D01*
X12800898Y20049891D01*
X12801147Y20041965D01*
X12801147Y20041964D01*
X12803038Y19981814D01*
X12803100Y19977855D01*
X12803100Y19949944D01*
X12803597Y19946010D01*
X12803597Y19946009D01*
X12803605Y19945944D01*
X12804538Y19934107D01*
X12805927Y19889911D01*
X12811578Y19870461D01*
X12815587Y19851100D01*
X12818126Y19831003D01*
X12821045Y19823632D01*
X12821045Y19823630D01*
X12834404Y19789888D01*
X12838249Y19778658D01*
X12850582Y19736207D01*
X12854615Y19729388D01*
X12854617Y19729383D01*
X12860893Y19718772D01*
X12869588Y19701024D01*
X12877048Y19682183D01*
X12881710Y19675767D01*
X12881710Y19675766D01*
X12903036Y19646413D01*
X12909552Y19636493D01*
X12921148Y19616886D01*
X12932058Y19598438D01*
X12946379Y19584117D01*
X12959219Y19569084D01*
X12971128Y19552693D01*
X12980859Y19544643D01*
X13005205Y19524502D01*
X13013984Y19516512D01*
X13838978Y18691518D01*
X13873004Y18629206D01*
X13871300Y18568752D01*
X13850189Y18492630D01*
X13849641Y18487500D01*
X13849640Y18487496D01*
X13846598Y18459031D01*
X13826451Y18270505D01*
X13826748Y18265352D01*
X13826748Y18265349D01*
X13837363Y18081256D01*
X13839310Y18047485D01*
X13840447Y18042439D01*
X13840448Y18042433D01*
X13860319Y17954261D01*
X13888422Y17829561D01*
X13932461Y17721106D01*
X13968537Y17632261D01*
X13972466Y17622584D01*
X14089187Y17432112D01*
X14235450Y17263262D01*
X14407326Y17120568D01*
X14477795Y17079389D01*
X14480645Y17077724D01*
X14529369Y17026086D01*
X14542440Y16956303D01*
X14515709Y16890531D01*
X14475255Y16857173D01*
X14462807Y16850693D01*
X14458674Y16847590D01*
X14458671Y16847588D01*
X14397529Y16801681D01*
X14284165Y16716565D01*
X14129829Y16555062D01*
X14126915Y16550790D01*
X14126914Y16550789D01*
X14076202Y16476448D01*
X14003943Y16370520D01*
X14001764Y16365825D01*
X13943622Y16240568D01*
X13909888Y16167895D01*
X13850189Y15952630D01*
X13826451Y15730505D01*
X13826748Y15725352D01*
X13826748Y15725349D01*
X13832211Y15630610D01*
X13839310Y15507485D01*
X13840447Y15502439D01*
X13840448Y15502433D01*
X13860319Y15414261D01*
X13888422Y15289561D01*
X13941676Y15158411D01*
X13960725Y15111500D01*
X13972466Y15082584D01*
X14089187Y14892112D01*
X14235450Y14723262D01*
X14407326Y14580568D01*
X14470971Y14543377D01*
X14480645Y14537724D01*
X14529369Y14486086D01*
X14542440Y14416303D01*
X14515709Y14350531D01*
X14475255Y14317173D01*
X14462807Y14310693D01*
X14458674Y14307590D01*
X14458671Y14307588D01*
X14302370Y14190234D01*
X14284165Y14176565D01*
X14273288Y14165183D01*
X14164338Y14051173D01*
X14129829Y14015062D01*
X14126915Y14010790D01*
X14126914Y14010789D01*
X14094346Y13963046D01*
X14003943Y13830520D01*
X13964626Y13745818D01*
X13918895Y13647298D01*
X13909888Y13627895D01*
X13850189Y13412630D01*
X13826451Y13190505D01*
X13826748Y13185352D01*
X13826748Y13185349D01*
X13839012Y12972653D01*
X13839310Y12967485D01*
X13840447Y12962439D01*
X13840448Y12962433D01*
X13860319Y12874261D01*
X13888422Y12749561D01*
X13942623Y12616078D01*
X13965795Y12559014D01*
X13972466Y12542584D01*
X13983843Y12524018D01*
X14081392Y12364833D01*
X14089187Y12352112D01*
X14235450Y12183262D01*
X14407326Y12040568D01*
X14452061Y12014427D01*
X14480645Y11997724D01*
X14529369Y11946086D01*
X14542440Y11876303D01*
X14515709Y11810531D01*
X14475255Y11777173D01*
X14462807Y11770693D01*
X14458674Y11767590D01*
X14458671Y11767588D01*
X14288300Y11639670D01*
X14284165Y11636565D01*
X14280593Y11632827D01*
X14189683Y11537695D01*
X14129829Y11475062D01*
X14126915Y11470790D01*
X14126914Y11470789D01*
X14062856Y11376883D01*
X14003943Y11290520D01*
X14001764Y11285825D01*
X13943622Y11160568D01*
X13909888Y11087895D01*
X13850189Y10872630D01*
X13826451Y10650505D01*
X13826748Y10645352D01*
X13826748Y10645349D01*
X13832211Y10550610D01*
X13839310Y10427485D01*
X13840447Y10422439D01*
X13840448Y10422433D01*
X13850027Y10379931D01*
X13888422Y10209561D01*
X13972466Y10002584D01*
X14089187Y9812112D01*
X14235450Y9643262D01*
X14407326Y9500568D01*
X14413254Y9497104D01*
X14480645Y9457724D01*
X14529369Y9406086D01*
X14542440Y9336303D01*
X14515709Y9270531D01*
X14475255Y9237173D01*
X14462807Y9230693D01*
X14458674Y9227590D01*
X14458671Y9227588D01*
X14288300Y9099670D01*
X14284165Y9096565D01*
X14243012Y9053501D01*
X14153396Y8959723D01*
X14129829Y8935062D01*
X14126915Y8930790D01*
X14126914Y8930789D01*
X14061384Y8834725D01*
X14003943Y8750520D01*
X13988773Y8717838D01*
X13918895Y8567298D01*
X13909888Y8547895D01*
X13850189Y8332630D01*
X13826451Y8110505D01*
X13826748Y8105352D01*
X13826748Y8105349D01*
X13832211Y8010610D01*
X13839310Y7887485D01*
X13840447Y7882439D01*
X13840448Y7882433D01*
X13850027Y7839931D01*
X13888422Y7669561D01*
X13972466Y7462584D01*
X14009703Y7401819D01*
X14085402Y7278289D01*
X14089187Y7272112D01*
X14235450Y7103262D01*
X14407326Y6960568D01*
X14431863Y6946230D01*
X14481155Y6917426D01*
X14529879Y6865788D01*
X14542950Y6796005D01*
X14516219Y6730233D01*
X14475762Y6696873D01*
X14467657Y6692654D01*
X14458938Y6687164D01*
X14288633Y6559295D01*
X14280926Y6552452D01*
X14133790Y6398483D01*
X14127304Y6390473D01*
X14007298Y6214551D01*
X14002200Y6205577D01*
X13912538Y6012417D01*
X13908975Y6002730D01*
X13853589Y5803017D01*
X13855112Y5794593D01*
X13867492Y5791200D01*
X16507544Y5791200D01*
X16521075Y5795173D01*
X16522380Y5804253D01*
X16480414Y5971325D01*
X16477094Y5981076D01*
X16392172Y6176386D01*
X16387305Y6185461D01*
X16271626Y6364274D01*
X16265336Y6372443D01*
X16122006Y6529960D01*
X16114473Y6536985D01*
X15947339Y6668978D01*
X15938756Y6674680D01*
X15901802Y6695080D01*
X15851831Y6745513D01*
X15837059Y6814955D01*
X15862175Y6881361D01*
X15889527Y6907968D01*
X15939240Y6943428D01*
X16069060Y7036027D01*
X16074010Y7040959D01*
X16191429Y7157969D01*
X16227296Y7193711D01*
X16286794Y7276511D01*
X16354635Y7370923D01*
X16357653Y7375123D01*
X16364987Y7389961D01*
X16454336Y7570747D01*
X16454337Y7570749D01*
X16456630Y7575389D01*
X16521570Y7789131D01*
X16550729Y8010610D01*
X16550811Y8013960D01*
X16552274Y8073835D01*
X16552274Y8073839D01*
X16552356Y8077200D01*
X16534052Y8299839D01*
X16479631Y8516498D01*
X16390554Y8721360D01*
X16320979Y8828906D01*
X16272022Y8904583D01*
X16272020Y8904586D01*
X16269214Y8908923D01*
X16118870Y9074149D01*
X16114819Y9077348D01*
X16114815Y9077352D01*
X15947614Y9209400D01*
X15947610Y9209402D01*
X15943559Y9212602D01*
X15902253Y9235404D01*
X15852284Y9285836D01*
X15837512Y9355279D01*
X15862628Y9421684D01*
X15889980Y9448291D01*
X15958413Y9497104D01*
X16069060Y9576027D01*
X16227296Y9733711D01*
X16286794Y9816511D01*
X16354635Y9910923D01*
X16357653Y9915123D01*
X16385053Y9970562D01*
X16454336Y10110747D01*
X16454337Y10110749D01*
X16456630Y10115389D01*
X16500676Y10260361D01*
X16520065Y10324177D01*
X16520065Y10324179D01*
X16521570Y10329131D01*
X16550729Y10550610D01*
X16552356Y10617200D01*
X16540937Y10756096D01*
X16555290Y10825626D01*
X16577418Y10855514D01*
X16989499Y11267595D01*
X17051811Y11301621D01*
X17078594Y11304500D01*
X18210327Y11304500D01*
X18278448Y11284498D01*
X18324941Y11230842D01*
X18335045Y11160568D01*
X18329545Y11138818D01*
X18329488Y11138695D01*
X18269789Y10923430D01*
X18246051Y10701305D01*
X18246348Y10696152D01*
X18246348Y10696149D01*
X18251811Y10601410D01*
X18258910Y10478285D01*
X18260047Y10473239D01*
X18260048Y10473233D01*
X18270358Y10427485D01*
X18308022Y10260361D01*
X18392066Y10053384D01*
X18435146Y9983084D01*
X18482385Y9905997D01*
X18508787Y9862912D01*
X18655050Y9694062D01*
X18826926Y9551368D01*
X18836227Y9545933D01*
X18900245Y9508524D01*
X18948969Y9456886D01*
X18962040Y9387103D01*
X18935309Y9321331D01*
X18894855Y9287973D01*
X18882407Y9281493D01*
X18878274Y9278390D01*
X18878271Y9278388D01*
X18707900Y9150470D01*
X18703765Y9147365D01*
X18700193Y9143627D01*
X18553251Y8989861D01*
X18549429Y8985862D01*
X18546515Y8981590D01*
X18546514Y8981589D01*
X18511861Y8930789D01*
X18423543Y8801320D01*
X18329488Y8598695D01*
X18269789Y8383430D01*
X18246051Y8161305D01*
X18246348Y8156152D01*
X18246348Y8156149D01*
X18258612Y7943453D01*
X18258910Y7938285D01*
X18260047Y7933239D01*
X18260048Y7933233D01*
X18270358Y7887485D01*
X18308022Y7720361D01*
X18392066Y7513384D01*
X18394765Y7508980D01*
X18494674Y7345943D01*
X18508787Y7322912D01*
X18655050Y7154062D01*
X18826926Y7011368D01*
X18900755Y6968226D01*
X18949479Y6916588D01*
X18962550Y6846805D01*
X18935819Y6781033D01*
X18895362Y6747673D01*
X18887257Y6743454D01*
X18878538Y6737964D01*
X18708233Y6610095D01*
X18700526Y6603252D01*
X18553390Y6449283D01*
X18546904Y6441273D01*
X18426898Y6265351D01*
X18421800Y6256377D01*
X18332138Y6063217D01*
X18328575Y6053530D01*
X18273189Y5853817D01*
X18274712Y5845393D01*
X18287092Y5842000D01*
X20927144Y5842000D01*
X20940675Y5845973D01*
X20941980Y5855053D01*
X20900014Y6022125D01*
X20896694Y6031876D01*
X20811772Y6227186D01*
X20806905Y6236261D01*
X20691226Y6415074D01*
X20684936Y6423243D01*
X20541606Y6580760D01*
X20534073Y6587785D01*
X20366939Y6719778D01*
X20358356Y6725480D01*
X20321402Y6745880D01*
X20271431Y6796313D01*
X20256659Y6865755D01*
X20281775Y6932161D01*
X20309127Y6958768D01*
X20363607Y6997628D01*
X20488660Y7086827D01*
X20532928Y7130940D01*
X20627711Y7225393D01*
X20646896Y7244511D01*
X20663926Y7268210D01*
X20774235Y7421723D01*
X20777253Y7425923D01*
X20793196Y7458180D01*
X20873936Y7621547D01*
X20873937Y7621549D01*
X20876230Y7626189D01*
X20941170Y7839931D01*
X20970329Y8061410D01*
X20971956Y8128000D01*
X20953652Y8350639D01*
X20899231Y8567298D01*
X20810154Y8772160D01*
X20713661Y8921315D01*
X20691622Y8955383D01*
X20691620Y8955386D01*
X20688814Y8959723D01*
X20538470Y9124949D01*
X20534419Y9128148D01*
X20534415Y9128152D01*
X20367214Y9260200D01*
X20367210Y9260202D01*
X20363159Y9263402D01*
X20321853Y9286204D01*
X20271884Y9336636D01*
X20257112Y9406079D01*
X20282228Y9472484D01*
X20309580Y9499091D01*
X20375250Y9545933D01*
X20488660Y9626827D01*
X20646896Y9784511D01*
X20663926Y9808210D01*
X20774235Y9961723D01*
X20777253Y9965923D01*
X20785735Y9983084D01*
X20873936Y10161547D01*
X20873937Y10161549D01*
X20876230Y10166189D01*
X20941170Y10379931D01*
X20970329Y10601410D01*
X20971956Y10668000D01*
X20953652Y10890639D01*
X20955461Y10890788D01*
X20963107Y10953394D01*
X21008449Y11008026D01*
X21078808Y11029500D01*
X21177487Y11029500D01*
X21183939Y11030872D01*
X21183944Y11030872D01*
X21270887Y11049353D01*
X21364288Y11069206D01*
X21370319Y11071891D01*
X21532722Y11144197D01*
X21532724Y11144198D01*
X21538752Y11146882D01*
X21693253Y11259134D01*
X21725366Y11294799D01*
X21816621Y11396148D01*
X21816622Y11396149D01*
X21821040Y11401056D01*
X21862882Y11473528D01*
X21914263Y11522520D01*
X21983977Y11535956D01*
X22049888Y11509570D01*
X22091070Y11451738D01*
X22098000Y11410527D01*
X22098000Y3137970D01*
X22077998Y3069849D01*
X22024342Y3023356D01*
X21954068Y3013252D01*
X21923782Y3021561D01*
X21839164Y3056611D01*
X21839162Y3056612D01*
X21834591Y3058505D01*
X21749968Y3078821D01*
X21593216Y3116454D01*
X21593210Y3116455D01*
X21588403Y3117609D01*
X21336000Y3137474D01*
X21083597Y3117609D01*
X21078790Y3116455D01*
X21078784Y3116454D01*
X20922032Y3078821D01*
X20837409Y3058505D01*
X20832838Y3056612D01*
X20832836Y3056611D01*
X20608072Y2963511D01*
X20608068Y2963509D01*
X20603498Y2961616D01*
X20387624Y2829328D01*
X20195102Y2664898D01*
X20030672Y2472376D01*
X19898384Y2256502D01*
X19896491Y2251932D01*
X19896489Y2251928D01*
X19807154Y2036254D01*
X19801495Y2022591D01*
X19800340Y2017779D01*
X19752798Y1819750D01*
X19742391Y1776403D01*
X19722526Y1524000D01*
X19742391Y1271597D01*
X19743545Y1266790D01*
X19743546Y1266784D01*
X19781179Y1110032D01*
X19801495Y1025409D01*
X19803388Y1020838D01*
X19803389Y1020836D01*
X19838439Y936218D01*
X19846028Y865628D01*
X19814249Y802141D01*
X19753190Y765914D01*
X19722030Y762000D01*
X3137970Y762000D01*
X3069849Y782002D01*
X3023356Y835658D01*
X3013252Y905932D01*
X3021561Y936218D01*
X3056611Y1020836D01*
X3056612Y1020838D01*
X3058505Y1025409D01*
X3078821Y1110032D01*
X3116454Y1266784D01*
X3116455Y1266790D01*
X3117609Y1271597D01*
X3137474Y1524000D01*
X3117609Y1776403D01*
X3107203Y1819750D01*
X3059660Y2017779D01*
X3058505Y2022591D01*
X3052846Y2036254D01*
X2963511Y2251928D01*
X2963509Y2251932D01*
X2961616Y2256502D01*
X2829328Y2472376D01*
X2664898Y2664898D01*
X2472376Y2829328D01*
X2256502Y2961616D01*
X2251932Y2963509D01*
X2251928Y2963511D01*
X2027164Y3056611D01*
X2027162Y3056612D01*
X2022591Y3058505D01*
X1937968Y3078821D01*
X1781216Y3116454D01*
X1781210Y3116455D01*
X1776403Y3117609D01*
X1524000Y3137474D01*
X1271597Y3117609D01*
X1266790Y3116455D01*
X1266784Y3116454D01*
X1110032Y3078821D01*
X1025409Y3058505D01*
X1020838Y3056612D01*
X1020836Y3056611D01*
X936218Y3021561D01*
X865628Y3013972D01*
X802141Y3045751D01*
X765914Y3106810D01*
X762000Y3137970D01*
X762000Y5074732D01*
X2485578Y5074732D01*
X2487110Y5067525D01*
X2491167Y5055039D01*
X2563432Y4892729D01*
X2569998Y4881357D01*
X2674424Y4737626D01*
X2683215Y4727863D01*
X2815242Y4608986D01*
X2825873Y4601262D01*
X2979726Y4512435D01*
X2991734Y4507089D01*
X3160698Y4452189D01*
X3173539Y4449459D01*
X3305938Y4435544D01*
X3312498Y4435200D01*
X3334685Y4435200D01*
X3349924Y4439675D01*
X3351129Y4441065D01*
X3352800Y4448748D01*
X3352800Y4453315D01*
X3860800Y4453315D01*
X3865275Y4438076D01*
X3866665Y4436871D01*
X3874348Y4435200D01*
X3901102Y4435200D01*
X3907662Y4435544D01*
X4040061Y4449459D01*
X4052902Y4452189D01*
X4221866Y4507089D01*
X4233874Y4512435D01*
X4387727Y4601262D01*
X4398358Y4608986D01*
X4530385Y4727863D01*
X4539176Y4737626D01*
X4643602Y4881357D01*
X4650168Y4892729D01*
X4722433Y5055039D01*
X4726490Y5067525D01*
X4727330Y5071478D01*
X4726257Y5085541D01*
X4716303Y5089200D01*
X3878915Y5089200D01*
X3863676Y5084725D01*
X3862471Y5083335D01*
X3860800Y5075652D01*
X3860800Y4453315D01*
X3352800Y4453315D01*
X3352800Y5071085D01*
X3348325Y5086324D01*
X3346935Y5087529D01*
X3339252Y5089200D01*
X2500618Y5089200D01*
X2487087Y5085227D01*
X2485578Y5074732D01*
X762000Y5074732D01*
X762000Y5269234D01*
X13857457Y5269234D01*
X13887765Y5134754D01*
X13890845Y5124925D01*
X13970970Y4927597D01*
X13975613Y4918406D01*
X14086894Y4736812D01*
X14092977Y4728501D01*
X14232413Y4567533D01*
X14239780Y4560317D01*
X14403634Y4424284D01*
X14412081Y4418369D01*
X14595956Y4310921D01*
X14605242Y4306471D01*
X14804201Y4230497D01*
X14814099Y4227621D01*
X14917450Y4206594D01*
X14931499Y4207790D01*
X14935200Y4218135D01*
X14935200Y4218683D01*
X15443200Y4218683D01*
X15447264Y4204841D01*
X15460678Y4202807D01*
X15467384Y4203666D01*
X15477462Y4205808D01*
X15681455Y4267009D01*
X15691042Y4270767D01*
X15882295Y4364461D01*
X15891145Y4369736D01*
X16064528Y4493408D01*
X16072400Y4500061D01*
X16223252Y4650388D01*
X16229930Y4658235D01*
X16354203Y4831180D01*
X16359513Y4840017D01*
X16453870Y5030933D01*
X16457669Y5040528D01*
X16519577Y5244290D01*
X16521755Y5254363D01*
X16523186Y5265238D01*
X16520975Y5279422D01*
X16507817Y5283200D01*
X15461315Y5283200D01*
X15446076Y5278725D01*
X15444871Y5277335D01*
X15443200Y5269652D01*
X15443200Y4218683D01*
X14935200Y4218683D01*
X14935200Y5265085D01*
X14930725Y5280324D01*
X14929335Y5281529D01*
X14921652Y5283200D01*
X13872425Y5283200D01*
X13858894Y5279227D01*
X13857457Y5269234D01*
X762000Y5269234D01*
X762000Y5320034D01*
X18277057Y5320034D01*
X18307365Y5185554D01*
X18310445Y5175725D01*
X18390570Y4978397D01*
X18395213Y4969206D01*
X18506494Y4787612D01*
X18512577Y4779301D01*
X18652013Y4618333D01*
X18659380Y4611117D01*
X18823234Y4475084D01*
X18831681Y4469169D01*
X19015556Y4361721D01*
X19024842Y4357271D01*
X19223801Y4281297D01*
X19233699Y4278421D01*
X19337050Y4257394D01*
X19351099Y4258590D01*
X19354800Y4268935D01*
X19354800Y4269483D01*
X19862800Y4269483D01*
X19866864Y4255641D01*
X19880278Y4253607D01*
X19886984Y4254466D01*
X19897062Y4256608D01*
X20101055Y4317809D01*
X20110642Y4321567D01*
X20301895Y4415261D01*
X20310745Y4420536D01*
X20484128Y4544208D01*
X20492000Y4550861D01*
X20642852Y4701188D01*
X20649530Y4709035D01*
X20773803Y4881980D01*
X20779113Y4890817D01*
X20873470Y5081733D01*
X20877269Y5091328D01*
X20939177Y5295090D01*
X20941355Y5305163D01*
X20942786Y5316038D01*
X20940575Y5330222D01*
X20927417Y5334000D01*
X19880915Y5334000D01*
X19865676Y5329525D01*
X19864471Y5328135D01*
X19862800Y5320452D01*
X19862800Y4269483D01*
X19354800Y4269483D01*
X19354800Y5315885D01*
X19350325Y5331124D01*
X19348935Y5332329D01*
X19341252Y5334000D01*
X18292025Y5334000D01*
X18278494Y5330027D01*
X18277057Y5320034D01*
X762000Y5320034D01*
X762000Y9361614D01*
X2449887Y9361614D01*
X2453275Y9350076D01*
X2454665Y9348871D01*
X2462348Y9347200D01*
X3334685Y9347200D01*
X3349924Y9351675D01*
X3351129Y9353065D01*
X3352800Y9360748D01*
X3352800Y9365315D01*
X3860800Y9365315D01*
X3865275Y9350076D01*
X3866665Y9348871D01*
X3874348Y9347200D01*
X4746684Y9347200D01*
X4761923Y9351675D01*
X4763128Y9353065D01*
X4764091Y9357494D01*
X4758668Y9416515D01*
X4756057Y9429551D01*
X4709085Y9579443D01*
X4702879Y9593188D01*
X4621976Y9726774D01*
X4612669Y9738643D01*
X4502243Y9849069D01*
X4490374Y9858376D01*
X4356788Y9939279D01*
X4343043Y9945485D01*
X4193156Y9992456D01*
X4180106Y9995069D01*
X4116279Y10000934D01*
X4110491Y10001200D01*
X3878915Y10001200D01*
X3863676Y9996725D01*
X3862471Y9995335D01*
X3860800Y9987652D01*
X3860800Y9365315D01*
X3352800Y9365315D01*
X3352800Y9983084D01*
X3348325Y9998323D01*
X3346935Y9999528D01*
X3339252Y10001199D01*
X3103095Y10001199D01*
X3097346Y10000936D01*
X3033485Y9995068D01*
X3020449Y9992457D01*
X2870557Y9945485D01*
X2856812Y9939279D01*
X2723226Y9858376D01*
X2711357Y9849069D01*
X2600931Y9738643D01*
X2591624Y9726774D01*
X2510721Y9593188D01*
X2504515Y9579443D01*
X2457544Y9429556D01*
X2454931Y9416506D01*
X2449887Y9361614D01*
X762000Y9361614D01*
X762000Y10247634D01*
X6389857Y10247634D01*
X6420165Y10113154D01*
X6423245Y10103325D01*
X6503370Y9905997D01*
X6508013Y9896806D01*
X6619294Y9715212D01*
X6625377Y9706901D01*
X6764813Y9545933D01*
X6772180Y9538717D01*
X6936034Y9402684D01*
X6944481Y9396769D01*
X7128356Y9289321D01*
X7137642Y9284871D01*
X7336601Y9208897D01*
X7346499Y9206021D01*
X7449850Y9184994D01*
X7463899Y9186190D01*
X7467600Y9196535D01*
X7467600Y10243485D01*
X7463125Y10258724D01*
X7461735Y10259929D01*
X7454052Y10261600D01*
X6404825Y10261600D01*
X6391294Y10257627D01*
X6389857Y10247634D01*
X762000Y10247634D01*
X762000Y12914732D01*
X2485578Y12914732D01*
X2487110Y12907525D01*
X2491167Y12895039D01*
X2563432Y12732729D01*
X2569998Y12721357D01*
X2674424Y12577626D01*
X2683215Y12567863D01*
X2815242Y12448986D01*
X2825873Y12441262D01*
X2979726Y12352435D01*
X2991734Y12347089D01*
X3160698Y12292189D01*
X3173539Y12289459D01*
X3305938Y12275544D01*
X3312498Y12275200D01*
X3334685Y12275200D01*
X3349924Y12279675D01*
X3351129Y12281065D01*
X3352800Y12288748D01*
X3352800Y12293315D01*
X3860800Y12293315D01*
X3865275Y12278076D01*
X3866665Y12276871D01*
X3874348Y12275200D01*
X3901102Y12275200D01*
X3907662Y12275544D01*
X4040061Y12289459D01*
X4052902Y12292189D01*
X4221866Y12347089D01*
X4233874Y12352435D01*
X4387727Y12441262D01*
X4398358Y12448986D01*
X4530385Y12567863D01*
X4539176Y12577626D01*
X4643602Y12721357D01*
X4650168Y12732729D01*
X4722433Y12895039D01*
X4726490Y12907525D01*
X4727330Y12911478D01*
X4726257Y12925541D01*
X4716303Y12929200D01*
X3878915Y12929200D01*
X3863676Y12924725D01*
X3862471Y12923335D01*
X3860800Y12915652D01*
X3860800Y12293315D01*
X3352800Y12293315D01*
X3352800Y12911085D01*
X3348325Y12926324D01*
X3346935Y12927529D01*
X3339252Y12929200D01*
X2500618Y12929200D01*
X2487087Y12925227D01*
X2485578Y12914732D01*
X762000Y12914732D01*
X762000Y36342057D01*
X1393780Y36342057D01*
X1394526Y36334165D01*
X1397941Y36298039D01*
X1398500Y36286181D01*
X1398500Y28069567D01*
X1397973Y28058384D01*
X1396298Y28050891D01*
X1396547Y28042965D01*
X1396547Y28042964D01*
X1398438Y27982814D01*
X1398500Y27978855D01*
X1398500Y27950944D01*
X1398997Y27947010D01*
X1398997Y27947009D01*
X1399005Y27946944D01*
X1399938Y27935107D01*
X1401327Y27890911D01*
X1406978Y27871461D01*
X1410987Y27852100D01*
X1413526Y27832003D01*
X1416445Y27824632D01*
X1416445Y27824630D01*
X1429804Y27790888D01*
X1433649Y27779658D01*
X1445982Y27737207D01*
X1450015Y27730388D01*
X1450017Y27730383D01*
X1456293Y27719772D01*
X1464988Y27702024D01*
X1472448Y27683183D01*
X1477110Y27676767D01*
X1477110Y27676766D01*
X1498436Y27647413D01*
X1504952Y27637493D01*
X1527458Y27599438D01*
X1541779Y27585117D01*
X1554619Y27570084D01*
X1566528Y27553693D01*
X1585570Y27537940D01*
X1600605Y27525502D01*
X1609384Y27517512D01*
X2481139Y26645757D01*
X2507151Y26607911D01*
X2554591Y26501360D01*
X2565682Y26476448D01*
X2569562Y26471107D01*
X2569563Y26471106D01*
X2634113Y26382261D01*
X2657972Y26315393D01*
X2641891Y26246242D01*
X2634113Y26234139D01*
X2565682Y26139952D01*
X2562998Y26133924D01*
X2562997Y26133922D01*
X2538918Y26079839D01*
X2488006Y25965488D01*
X2486634Y25959031D01*
X2464989Y25857200D01*
X2448300Y25778687D01*
X2448300Y25587713D01*
X2449672Y25581261D01*
X2449672Y25581256D01*
X2463940Y25514131D01*
X2488006Y25400912D01*
X2490691Y25394882D01*
X2490691Y25394881D01*
X2562486Y25233627D01*
X2565682Y25226448D01*
X2569562Y25221107D01*
X2569563Y25221106D01*
X2634113Y25132261D01*
X2657972Y25065393D01*
X2641891Y24996242D01*
X2634113Y24984139D01*
X2565682Y24889952D01*
X2562998Y24883924D01*
X2562997Y24883922D01*
X2521761Y24791303D01*
X2488006Y24715488D01*
X2482225Y24688291D01*
X2462455Y24595279D01*
X2448300Y24528687D01*
X2448300Y24337713D01*
X2449672Y24331261D01*
X2449672Y24331256D01*
X2454120Y24310330D01*
X2488006Y24150912D01*
X2490691Y24144882D01*
X2490691Y24144881D01*
X2539694Y24034819D01*
X2565682Y23976448D01*
X2569562Y23971107D01*
X2569563Y23971106D01*
X2634113Y23882261D01*
X2657972Y23815393D01*
X2641891Y23746242D01*
X2634113Y23734139D01*
X2612549Y23704458D01*
X2565682Y23639952D01*
X2562998Y23633924D01*
X2562997Y23633922D01*
X2508712Y23511995D01*
X2488006Y23465488D01*
X2472802Y23393958D01*
X2454708Y23308833D01*
X2448300Y23278687D01*
X2448300Y23087713D01*
X2449672Y23081261D01*
X2449672Y23081256D01*
X2460752Y23029131D01*
X2488006Y22900912D01*
X2565682Y22726448D01*
X2569562Y22721108D01*
X2569563Y22721106D01*
X2634113Y22632261D01*
X2657972Y22565393D01*
X2641891Y22496242D01*
X2634113Y22484139D01*
X2604092Y22442818D01*
X2565682Y22389952D01*
X2562998Y22383924D01*
X2562997Y22383922D01*
X2513625Y22273029D01*
X2488006Y22215488D01*
X2471676Y22138662D01*
X2449919Y22036303D01*
X2448300Y22028687D01*
X2448300Y21837713D01*
X2449672Y21831261D01*
X2449672Y21831256D01*
X2457046Y21796565D01*
X2488006Y21650912D01*
X2490691Y21644882D01*
X2490691Y21644881D01*
X2556699Y21496625D01*
X2565682Y21476448D01*
X2569562Y21471107D01*
X2569563Y21471106D01*
X2634113Y21382261D01*
X2657972Y21315393D01*
X2641891Y21246242D01*
X2634113Y21234139D01*
X2604448Y21193308D01*
X2565682Y21139952D01*
X2562998Y21133924D01*
X2562997Y21133922D01*
X2503300Y20999839D01*
X2488006Y20965488D01*
X2448300Y20778687D01*
X2448300Y20587713D01*
X2449672Y20581261D01*
X2449672Y20581256D01*
X2468153Y20494313D01*
X2488006Y20400912D01*
X2565682Y20226448D01*
X2569562Y20221107D01*
X2569563Y20221106D01*
X2634113Y20132261D01*
X2657972Y20065393D01*
X2641891Y19996242D01*
X2634113Y19984139D01*
X2628546Y19976476D01*
X2565682Y19889952D01*
X2562998Y19883924D01*
X2562997Y19883922D01*
X2494192Y19729383D01*
X2488006Y19715488D01*
X2473324Y19646413D01*
X2451692Y19544643D01*
X2448300Y19528687D01*
X2448300Y19337713D01*
X2449672Y19331261D01*
X2449672Y19331256D01*
X2464683Y19260638D01*
X2488006Y19150912D01*
X2490691Y19144882D01*
X2490691Y19144881D01*
X2524510Y19068923D01*
X2565682Y18976448D01*
X2569562Y18971107D01*
X2569563Y18971106D01*
X2634113Y18882261D01*
X2657972Y18815393D01*
X2641891Y18746242D01*
X2634113Y18734139D01*
X2565682Y18639952D01*
X2562998Y18633924D01*
X2562997Y18633922D01*
X2490691Y18471519D01*
X2488006Y18465488D01*
X2478270Y18419684D01*
X2454174Y18306321D01*
X2448300Y18278687D01*
X2448300Y18087713D01*
X2449672Y18081261D01*
X2449672Y18081256D01*
X2468153Y17994313D01*
X2488006Y17900912D01*
X2490691Y17894882D01*
X2490691Y17894881D01*
X2527652Y17811866D01*
X2565682Y17726448D01*
X2569562Y17721107D01*
X2569563Y17721106D01*
X2634113Y17632261D01*
X2657972Y17565393D01*
X2641891Y17496242D01*
X2634113Y17484139D01*
X2565682Y17389952D01*
X2488006Y17215488D01*
X2448300Y17028687D01*
X2448300Y16837713D01*
X2449672Y16831261D01*
X2449672Y16831256D01*
X2455959Y16801681D01*
X2488006Y16650912D01*
X2490691Y16644882D01*
X2490691Y16644881D01*
X2541646Y16530435D01*
X2565682Y16476448D01*
X2569562Y16471107D01*
X2569563Y16471106D01*
X2634113Y16382261D01*
X2657972Y16315393D01*
X2641891Y16246242D01*
X2634113Y16234139D01*
X2620209Y16215001D01*
X2565682Y16139952D01*
X2562998Y16133924D01*
X2562997Y16133922D01*
X2490691Y15971519D01*
X2488006Y15965488D01*
X2486634Y15959031D01*
X2449948Y15786438D01*
X2448300Y15778687D01*
X2448300Y15587713D01*
X2449672Y15581261D01*
X2449672Y15581256D01*
X2465353Y15507485D01*
X2488006Y15400912D01*
X2490691Y15394882D01*
X2490691Y15394881D01*
X2552778Y15255432D01*
X2565682Y15226448D01*
X2569562Y15221107D01*
X2569563Y15221106D01*
X2634113Y15132261D01*
X2657972Y15065393D01*
X2641891Y14996242D01*
X2634113Y14984139D01*
X2630919Y14979742D01*
X2565682Y14889952D01*
X2562998Y14883924D01*
X2562997Y14883922D01*
X2523202Y14794540D01*
X2488006Y14715488D01*
X2478608Y14671275D01*
X2450195Y14537600D01*
X2448300Y14528687D01*
X2448300Y14337713D01*
X2449672Y14331261D01*
X2449672Y14331256D01*
X2454043Y14310693D01*
X2488006Y14150912D01*
X2490691Y14144882D01*
X2490691Y14144881D01*
X2551693Y14007869D01*
X2565682Y13976448D01*
X2634423Y13881834D01*
X2658280Y13814970D01*
X2642200Y13745818D01*
X2634422Y13733715D01*
X2569998Y13645043D01*
X2563432Y13633671D01*
X2491167Y13471361D01*
X2487110Y13458875D01*
X2486270Y13454922D01*
X2487343Y13440859D01*
X2497297Y13437200D01*
X4712982Y13437200D01*
X4726513Y13441173D01*
X4728022Y13451668D01*
X4726490Y13458875D01*
X4722433Y13471361D01*
X4650168Y13633671D01*
X4643602Y13645043D01*
X4579178Y13733715D01*
X4555319Y13800583D01*
X4571400Y13869734D01*
X4579166Y13881820D01*
X4647918Y13976448D01*
X4661908Y14007869D01*
X4722909Y14144881D01*
X4722909Y14144882D01*
X4725594Y14150912D01*
X4759557Y14310693D01*
X4763928Y14331256D01*
X4763928Y14331261D01*
X4765300Y14337713D01*
X4765300Y14528687D01*
X4763406Y14537600D01*
X4734992Y14671275D01*
X4725594Y14715488D01*
X4690398Y14794540D01*
X4650603Y14883922D01*
X4650602Y14883924D01*
X4647918Y14889952D01*
X4582682Y14979742D01*
X4579487Y14984139D01*
X4555628Y15051007D01*
X4571709Y15120158D01*
X4579487Y15132261D01*
X4644037Y15221106D01*
X4644038Y15221107D01*
X4647918Y15226448D01*
X4660823Y15255432D01*
X4722909Y15394881D01*
X4722909Y15394882D01*
X4725594Y15400912D01*
X4748247Y15507485D01*
X4763928Y15581256D01*
X4763928Y15581261D01*
X4765300Y15587713D01*
X4765300Y15778687D01*
X4763653Y15786438D01*
X4726966Y15959031D01*
X4725594Y15965488D01*
X4722909Y15971519D01*
X4650603Y16133922D01*
X4650602Y16133924D01*
X4647918Y16139952D01*
X4593392Y16215001D01*
X4579487Y16234139D01*
X4555628Y16301007D01*
X4571709Y16370158D01*
X4579487Y16382261D01*
X4644037Y16471106D01*
X4644038Y16471107D01*
X4647918Y16476448D01*
X4671955Y16530435D01*
X4722909Y16644881D01*
X4722909Y16644882D01*
X4725594Y16650912D01*
X4757641Y16801681D01*
X4763928Y16831256D01*
X4763928Y16831261D01*
X4765300Y16837713D01*
X4765300Y17028687D01*
X4725594Y17215488D01*
X4647918Y17389952D01*
X4579487Y17484139D01*
X4555628Y17551007D01*
X4571709Y17620158D01*
X4579487Y17632261D01*
X4644037Y17721106D01*
X4644038Y17721107D01*
X4647918Y17726448D01*
X4685949Y17811866D01*
X4722909Y17894881D01*
X4722909Y17894882D01*
X4725594Y17900912D01*
X4745447Y17994313D01*
X4763928Y18081256D01*
X4763928Y18081261D01*
X4765300Y18087713D01*
X4765300Y18278687D01*
X4759427Y18306321D01*
X4735330Y18419684D01*
X4725594Y18465488D01*
X4722909Y18471519D01*
X4650603Y18633922D01*
X4650602Y18633924D01*
X4647918Y18639952D01*
X4579487Y18734139D01*
X4555628Y18801007D01*
X4571709Y18870158D01*
X4579487Y18882261D01*
X4644037Y18971106D01*
X4644038Y18971107D01*
X4647918Y18976448D01*
X4689091Y19068923D01*
X4722909Y19144881D01*
X4722909Y19144882D01*
X4725594Y19150912D01*
X4748917Y19260638D01*
X4749766Y19264634D01*
X6389857Y19264634D01*
X6420165Y19130154D01*
X6423245Y19120325D01*
X6503370Y18922997D01*
X6508013Y18913806D01*
X6619294Y18732212D01*
X6625377Y18723901D01*
X6764813Y18562933D01*
X6772180Y18555717D01*
X6936034Y18419684D01*
X6944481Y18413769D01*
X7128356Y18306321D01*
X7137642Y18301871D01*
X7336601Y18225897D01*
X7346499Y18223021D01*
X7449850Y18201994D01*
X7463899Y18203190D01*
X7467600Y18213535D01*
X7467600Y18214083D01*
X7975600Y18214083D01*
X7979664Y18200241D01*
X7993078Y18198207D01*
X7999784Y18199066D01*
X8009862Y18201208D01*
X8213855Y18262409D01*
X8223442Y18266167D01*
X8414695Y18359861D01*
X8423545Y18365136D01*
X8596928Y18488808D01*
X8604800Y18495461D01*
X8755652Y18645788D01*
X8762330Y18653635D01*
X8886603Y18826580D01*
X8891913Y18835417D01*
X8986270Y19026333D01*
X8990069Y19035928D01*
X9051977Y19239690D01*
X9054155Y19249763D01*
X9055586Y19260638D01*
X9053375Y19274822D01*
X9040217Y19278600D01*
X7993715Y19278600D01*
X7978476Y19274125D01*
X7977271Y19272735D01*
X7975600Y19265052D01*
X7975600Y18214083D01*
X7467600Y18214083D01*
X7467600Y19260485D01*
X7463125Y19275724D01*
X7461735Y19276929D01*
X7454052Y19278600D01*
X6404825Y19278600D01*
X6391294Y19274627D01*
X6389857Y19264634D01*
X4749766Y19264634D01*
X4763928Y19331256D01*
X4763928Y19331261D01*
X4765300Y19337713D01*
X4765300Y19528687D01*
X4761909Y19544643D01*
X4740276Y19646413D01*
X4725594Y19715488D01*
X4719408Y19729383D01*
X4650603Y19883922D01*
X4650602Y19883924D01*
X4647918Y19889952D01*
X4585055Y19976476D01*
X4579487Y19984139D01*
X4555628Y20051007D01*
X4571709Y20120158D01*
X4579487Y20132261D01*
X4644037Y20221106D01*
X4644038Y20221107D01*
X4647918Y20226448D01*
X4725594Y20400912D01*
X4745447Y20494313D01*
X4763928Y20581256D01*
X4763928Y20581261D01*
X4765300Y20587713D01*
X4765300Y20778687D01*
X4725594Y20965488D01*
X4710300Y20999839D01*
X4650603Y21133922D01*
X4650602Y21133924D01*
X4647918Y21139952D01*
X4609153Y21193308D01*
X4579487Y21234139D01*
X4555628Y21301007D01*
X4571709Y21370158D01*
X4579487Y21382261D01*
X4644037Y21471106D01*
X4644038Y21471107D01*
X4647918Y21476448D01*
X4656902Y21496625D01*
X4722909Y21644881D01*
X4722909Y21644882D01*
X4725594Y21650912D01*
X4756554Y21796565D01*
X4763928Y21831256D01*
X4763928Y21831261D01*
X4765300Y21837713D01*
X4765300Y22028687D01*
X4763682Y22036303D01*
X4741924Y22138662D01*
X4725594Y22215488D01*
X4698641Y22276027D01*
X4655710Y22372451D01*
X4646276Y22442818D01*
X4676383Y22507115D01*
X4736471Y22544929D01*
X4770817Y22549700D01*
X6278366Y22549700D01*
X6346487Y22529698D01*
X6392980Y22476042D01*
X6403084Y22405768D01*
X6399784Y22390031D01*
X6382589Y22328030D01*
X6382041Y22322900D01*
X6382040Y22322896D01*
X6374396Y22251368D01*
X6358851Y22105905D01*
X6359148Y22100752D01*
X6359148Y22100749D01*
X6364611Y22006010D01*
X6371710Y21882885D01*
X6372847Y21877839D01*
X6372848Y21877833D01*
X6379015Y21850470D01*
X6420822Y21664961D01*
X6482273Y21513624D01*
X6497369Y21476448D01*
X6504866Y21457984D01*
X6507565Y21453580D01*
X6605078Y21294453D01*
X6621587Y21267512D01*
X6767850Y21098662D01*
X6939726Y20955968D01*
X7013555Y20912826D01*
X7062279Y20861188D01*
X7075350Y20791405D01*
X7048619Y20725633D01*
X7008162Y20692273D01*
X7000057Y20688054D01*
X6991338Y20682564D01*
X6821033Y20554695D01*
X6813326Y20547852D01*
X6666190Y20393883D01*
X6659704Y20385873D01*
X6539698Y20209951D01*
X6534600Y20200977D01*
X6444938Y20007817D01*
X6441375Y19998130D01*
X6385989Y19798417D01*
X6387512Y19789993D01*
X6399892Y19786600D01*
X9039944Y19786600D01*
X9053475Y19790573D01*
X9054780Y19799653D01*
X9012814Y19966725D01*
X9009494Y19976476D01*
X8924572Y20171786D01*
X8919705Y20180861D01*
X8804026Y20359674D01*
X8797736Y20367843D01*
X8654406Y20525360D01*
X8646873Y20532385D01*
X8479739Y20664378D01*
X8471156Y20670080D01*
X8434202Y20690480D01*
X8384231Y20740913D01*
X8369459Y20810355D01*
X8394575Y20876761D01*
X8421927Y20903368D01*
X8445397Y20920109D01*
X8601460Y21031427D01*
X8658645Y21088412D01*
X8756035Y21185463D01*
X8759696Y21189111D01*
X8779376Y21216498D01*
X8887035Y21366323D01*
X8890053Y21370523D01*
X8895855Y21382261D01*
X8986736Y21566147D01*
X8986737Y21566149D01*
X8989030Y21570789D01*
X9047068Y21761813D01*
X9052465Y21779577D01*
X9052465Y21779579D01*
X9053970Y21784531D01*
X9083129Y22006010D01*
X9083485Y22020562D01*
X9084674Y22069235D01*
X9084674Y22069239D01*
X9084756Y22072600D01*
X9066452Y22295239D01*
X9012031Y22511898D01*
X8922954Y22716760D01*
X8855943Y22820343D01*
X8804422Y22899983D01*
X8804420Y22899986D01*
X8801614Y22904323D01*
X8798132Y22908150D01*
X8654398Y23066112D01*
X8623346Y23129958D01*
X8631741Y23200457D01*
X8676917Y23255225D01*
X8703361Y23268894D01*
X8809897Y23308833D01*
X8818305Y23311985D01*
X8934861Y23399339D01*
X9022215Y23515895D01*
X9073345Y23652284D01*
X9080100Y23714466D01*
X9080100Y23853100D01*
X9100102Y23921221D01*
X9153758Y23967714D01*
X9206100Y23979100D01*
X10531205Y23979100D01*
X10599326Y23959098D01*
X10620301Y23942195D01*
X11013596Y23548899D01*
X11047621Y23486587D01*
X11050500Y23459804D01*
X11050500Y8989436D01*
X11030498Y8921315D01*
X10976842Y8874822D01*
X10906568Y8864718D01*
X10873251Y8874329D01*
X10718319Y8943309D01*
X10718318Y8943309D01*
X10712288Y8945994D01*
X10618887Y8965847D01*
X10531944Y8984328D01*
X10531939Y8984328D01*
X10525487Y8985700D01*
X10469595Y8985700D01*
X10401474Y9005702D01*
X10380500Y9022605D01*
X10068405Y9334700D01*
X10034379Y9397012D01*
X10031500Y9423795D01*
X10031500Y13840432D01*
X10032027Y13851615D01*
X10033702Y13859108D01*
X10033057Y13879649D01*
X10031562Y13927198D01*
X10031500Y13931156D01*
X10031500Y13959056D01*
X10030996Y13963047D01*
X10030063Y13974889D01*
X10029438Y13994793D01*
X10028674Y14019089D01*
X10023021Y14038548D01*
X10019012Y14057907D01*
X10018846Y14059217D01*
X10016474Y14077997D01*
X10013558Y14085363D01*
X10013556Y14085369D01*
X10000200Y14119102D01*
X9996355Y14130332D01*
X9986230Y14165183D01*
X9986230Y14165184D01*
X9984019Y14172793D01*
X9973705Y14190234D01*
X9965008Y14207987D01*
X9960472Y14219442D01*
X9957552Y14226817D01*
X9931563Y14262588D01*
X9925047Y14272508D01*
X9906578Y14303737D01*
X9902542Y14310562D01*
X9888221Y14324883D01*
X9875380Y14339917D01*
X9868131Y14349894D01*
X9863472Y14356307D01*
X9829395Y14384498D01*
X9820616Y14392488D01*
X9117005Y15096099D01*
X9082979Y15158411D01*
X9080100Y15185194D01*
X9080100Y16493734D01*
X9073345Y16555916D01*
X9022215Y16692305D01*
X8934861Y16808861D01*
X8818305Y16896215D01*
X8681916Y16947345D01*
X8619734Y16954100D01*
X6823466Y16954100D01*
X6761284Y16947345D01*
X6624895Y16896215D01*
X6508339Y16808861D01*
X6420985Y16692305D01*
X6369855Y16555916D01*
X6363100Y16493734D01*
X6363100Y14697466D01*
X6369855Y14635284D01*
X6420985Y14498895D01*
X6508339Y14382339D01*
X6624895Y14294985D01*
X6633304Y14291833D01*
X6633305Y14291832D01*
X6742051Y14251065D01*
X6798816Y14208424D01*
X6823516Y14141862D01*
X6808309Y14072513D01*
X6788916Y14046032D01*
X6695165Y13947927D01*
X6662229Y13913462D01*
X6659315Y13909190D01*
X6659314Y13909189D01*
X6625151Y13859108D01*
X6536343Y13728920D01*
X6497409Y13645043D01*
X6459037Y13562377D01*
X6442288Y13526295D01*
X6382589Y13311030D01*
X6358851Y13088905D01*
X6359148Y13083752D01*
X6359148Y13083749D01*
X6369081Y12911478D01*
X6371710Y12865885D01*
X6372847Y12860839D01*
X6372848Y12860833D01*
X6396789Y12754604D01*
X6420822Y12647961D01*
X6457606Y12557372D01*
X6493866Y12468075D01*
X6504866Y12440984D01*
X6621587Y12250512D01*
X6767850Y12081662D01*
X6939726Y11938968D01*
X6958732Y11927862D01*
X7013555Y11895826D01*
X7062279Y11844188D01*
X7075350Y11774405D01*
X7048619Y11708633D01*
X7008162Y11675273D01*
X7000057Y11671054D01*
X6991338Y11665564D01*
X6821033Y11537695D01*
X6813326Y11530852D01*
X6666190Y11376883D01*
X6659704Y11368873D01*
X6539698Y11192951D01*
X6534600Y11183977D01*
X6444938Y10990817D01*
X6441375Y10981130D01*
X6385989Y10781417D01*
X6387512Y10772993D01*
X6399892Y10769600D01*
X7849600Y10769600D01*
X7917721Y10749598D01*
X7964214Y10695942D01*
X7975600Y10643600D01*
X7975600Y9197083D01*
X7979664Y9183241D01*
X7993078Y9181207D01*
X7999784Y9182066D01*
X8009862Y9184208D01*
X8213855Y9245409D01*
X8223442Y9249167D01*
X8414695Y9342861D01*
X8423545Y9348136D01*
X8565332Y9449271D01*
X8632406Y9472545D01*
X8701414Y9455861D01*
X8750448Y9404517D01*
X8764500Y9346692D01*
X8764500Y9187967D01*
X8763973Y9176784D01*
X8762298Y9169291D01*
X8762547Y9161365D01*
X8762547Y9161364D01*
X8764438Y9101214D01*
X8764500Y9097255D01*
X8764500Y9069344D01*
X8764997Y9065410D01*
X8764997Y9065409D01*
X8765005Y9065344D01*
X8765938Y9053507D01*
X8767327Y9009311D01*
X8772978Y8989861D01*
X8776987Y8970500D01*
X8778349Y8959723D01*
X8779526Y8950403D01*
X8782445Y8943032D01*
X8782445Y8943030D01*
X8795804Y8909288D01*
X8799649Y8898058D01*
X8811982Y8855607D01*
X8816015Y8848788D01*
X8816017Y8848783D01*
X8822293Y8838172D01*
X8830988Y8820424D01*
X8838448Y8801583D01*
X8843110Y8795167D01*
X8843110Y8795166D01*
X8864436Y8765813D01*
X8870952Y8755893D01*
X8888804Y8725708D01*
X8893458Y8717838D01*
X8907779Y8703517D01*
X8920619Y8688484D01*
X8932528Y8672093D01*
X8938634Y8667042D01*
X8966605Y8643902D01*
X8975384Y8635912D01*
X9482878Y8128418D01*
X9516904Y8066106D01*
X9519092Y8052497D01*
X9536458Y7887272D01*
X9595473Y7705644D01*
X9598776Y7699922D01*
X9598777Y7699921D01*
X9619069Y7664775D01*
X9690960Y7540256D01*
X9695378Y7535349D01*
X9695379Y7535348D01*
X9783923Y7437010D01*
X9814641Y7373003D01*
X9805876Y7302549D01*
X9760413Y7248018D01*
X9690287Y7226700D01*
X4770817Y7226700D01*
X4702696Y7246702D01*
X4656203Y7300358D01*
X4646099Y7370632D01*
X4655710Y7403949D01*
X4722909Y7554881D01*
X4722909Y7554882D01*
X4725594Y7560912D01*
X4749760Y7674604D01*
X4763928Y7741256D01*
X4763928Y7741261D01*
X4765300Y7747713D01*
X4765300Y7938687D01*
X4750718Y8007292D01*
X4741110Y8052493D01*
X4725594Y8125488D01*
X4711943Y8156149D01*
X4650603Y8293922D01*
X4650602Y8293924D01*
X4647918Y8299952D01*
X4630236Y8324289D01*
X4606378Y8391156D01*
X4624396Y8463622D01*
X4702879Y8593212D01*
X4709085Y8606957D01*
X4756056Y8756844D01*
X4758669Y8769894D01*
X4763713Y8824786D01*
X4760325Y8836324D01*
X4758935Y8837529D01*
X4751252Y8839200D01*
X2466916Y8839200D01*
X2451677Y8834725D01*
X2450472Y8833335D01*
X2449509Y8828906D01*
X2454932Y8769885D01*
X2457543Y8756849D01*
X2504515Y8606957D01*
X2510721Y8593212D01*
X2589204Y8463622D01*
X2607383Y8394992D01*
X2583364Y8324289D01*
X2565682Y8299952D01*
X2562998Y8293924D01*
X2562997Y8293922D01*
X2501657Y8156149D01*
X2488006Y8125488D01*
X2472490Y8052493D01*
X2462883Y8007292D01*
X2448300Y7938687D01*
X2448300Y7747713D01*
X2449672Y7741261D01*
X2449672Y7741256D01*
X2463840Y7674604D01*
X2488006Y7560912D01*
X2490691Y7554882D01*
X2490691Y7554881D01*
X2549977Y7421723D01*
X2565682Y7386448D01*
X2569562Y7381107D01*
X2569563Y7381106D01*
X2634113Y7292261D01*
X2657972Y7225393D01*
X2641891Y7156242D01*
X2634113Y7144139D01*
X2588623Y7081527D01*
X2565682Y7049952D01*
X2562998Y7043924D01*
X2562997Y7043922D01*
X2506678Y6917426D01*
X2488006Y6875488D01*
X2468153Y6782088D01*
X2454909Y6719778D01*
X2448300Y6688687D01*
X2448300Y6497713D01*
X2449672Y6491261D01*
X2449672Y6491256D01*
X2468153Y6404312D01*
X2488006Y6310912D01*
X2490691Y6304882D01*
X2490691Y6304881D01*
X2552359Y6166373D01*
X2565682Y6136448D01*
X2634423Y6041834D01*
X2658280Y5974970D01*
X2642200Y5905818D01*
X2634422Y5893715D01*
X2569998Y5805043D01*
X2563432Y5793671D01*
X2491167Y5631361D01*
X2487110Y5618875D01*
X2486270Y5614922D01*
X2487343Y5600859D01*
X2497297Y5597200D01*
X4712982Y5597200D01*
X4726513Y5601173D01*
X4728022Y5611668D01*
X4726490Y5618875D01*
X4722433Y5631361D01*
X4655163Y5782451D01*
X4645729Y5852818D01*
X4675835Y5917115D01*
X4735924Y5954928D01*
X4770270Y5959700D01*
X10832433Y5959700D01*
X10843616Y5959173D01*
X10851109Y5957498D01*
X10859035Y5957747D01*
X10859036Y5957747D01*
X10919186Y5959638D01*
X10923145Y5959700D01*
X10951056Y5959700D01*
X10954991Y5960197D01*
X10955056Y5960205D01*
X10966893Y5961138D01*
X10999151Y5962152D01*
X11003170Y5962278D01*
X11011089Y5962527D01*
X11030543Y5968179D01*
X11049900Y5972187D01*
X11062130Y5973732D01*
X11062131Y5973732D01*
X11069997Y5974726D01*
X11077368Y5977645D01*
X11077370Y5977645D01*
X11111112Y5991004D01*
X11122342Y5994849D01*
X11157183Y6004971D01*
X11157184Y6004971D01*
X11164793Y6007182D01*
X11171612Y6011215D01*
X11171617Y6011217D01*
X11182228Y6017493D01*
X11199976Y6026188D01*
X11218817Y6033648D01*
X11254587Y6059636D01*
X11264507Y6066152D01*
X11295735Y6084620D01*
X11295738Y6084622D01*
X11302562Y6088658D01*
X11316883Y6102979D01*
X11331917Y6115820D01*
X11341894Y6123069D01*
X11348307Y6127728D01*
X11376498Y6161805D01*
X11384488Y6170584D01*
X12076247Y6862343D01*
X12084537Y6869887D01*
X12091018Y6874000D01*
X12137659Y6923668D01*
X12140413Y6926509D01*
X12160134Y6946230D01*
X12162612Y6949425D01*
X12170318Y6958447D01*
X12195158Y6984899D01*
X12200586Y6990679D01*
X12210346Y7008432D01*
X12221199Y7024955D01*
X12228753Y7034694D01*
X12233613Y7040959D01*
X12251176Y7081543D01*
X12256383Y7092173D01*
X12277695Y7130940D01*
X12279666Y7138617D01*
X12279668Y7138622D01*
X12282732Y7150558D01*
X12289138Y7169270D01*
X12294033Y7180581D01*
X12297181Y7187855D01*
X12298421Y7195683D01*
X12298423Y7195690D01*
X12304099Y7231524D01*
X12306505Y7243144D01*
X12315528Y7278289D01*
X12315528Y7278290D01*
X12317500Y7285970D01*
X12317500Y7306224D01*
X12319051Y7325935D01*
X12320980Y7338114D01*
X12322220Y7345943D01*
X12318059Y7389962D01*
X12317500Y7401819D01*
X12317500Y23695633D01*
X12318027Y23706816D01*
X12319702Y23714309D01*
X12317562Y23782400D01*
X12317500Y23786357D01*
X12317500Y23814256D01*
X12316996Y23818247D01*
X12316063Y23830089D01*
X12315856Y23836702D01*
X12314674Y23874289D01*
X12312462Y23881903D01*
X12312461Y23881908D01*
X12309023Y23893741D01*
X12305012Y23913105D01*
X12303467Y23925336D01*
X12302474Y23933197D01*
X12299557Y23940564D01*
X12299556Y23940569D01*
X12286198Y23974308D01*
X12282354Y23985535D01*
X12272230Y24020378D01*
X12270018Y24027993D01*
X12259707Y24045428D01*
X12251012Y24063176D01*
X12243552Y24082017D01*
X12217564Y24117787D01*
X12211048Y24127707D01*
X12192580Y24158935D01*
X12192578Y24158938D01*
X12188542Y24165762D01*
X12174221Y24180083D01*
X12161380Y24195117D01*
X12154131Y24205094D01*
X12149472Y24211507D01*
X12143367Y24216558D01*
X12143362Y24216563D01*
X12115396Y24239699D01*
X12106618Y24247687D01*
X11349452Y25004853D01*
X11341912Y25013139D01*
X11337800Y25019618D01*
X11288148Y25066244D01*
X11285307Y25068998D01*
X11265570Y25088735D01*
X11262373Y25091215D01*
X11253351Y25098920D01*
X11226900Y25123759D01*
X11221121Y25129186D01*
X11214175Y25133005D01*
X11214172Y25133007D01*
X11203366Y25138948D01*
X11186847Y25149799D01*
X11179983Y25155123D01*
X11170841Y25162214D01*
X11163572Y25165359D01*
X11163568Y25165362D01*
X11130263Y25179774D01*
X11119613Y25184991D01*
X11080860Y25206295D01*
X11061237Y25211333D01*
X11042534Y25217737D01*
X11031220Y25222633D01*
X11031219Y25222633D01*
X11023945Y25225781D01*
X11016122Y25227020D01*
X11016112Y25227023D01*
X10980276Y25232699D01*
X10968656Y25235105D01*
X10933511Y25244128D01*
X10933510Y25244128D01*
X10925830Y25246100D01*
X10905576Y25246100D01*
X10885865Y25247651D01*
X10873686Y25249580D01*
X10865857Y25250820D01*
X10857965Y25250074D01*
X10821839Y25246659D01*
X10809981Y25246100D01*
X9206100Y25246100D01*
X9137979Y25266102D01*
X9091486Y25319758D01*
X9080100Y25372100D01*
X9080100Y25510734D01*
X9073345Y25572916D01*
X9022215Y25709305D01*
X8934861Y25825861D01*
X8818305Y25913215D01*
X8681916Y25964345D01*
X8619734Y25971100D01*
X6823466Y25971100D01*
X6761284Y25964345D01*
X6624895Y25913215D01*
X6508339Y25825861D01*
X6420985Y25709305D01*
X6369855Y25572916D01*
X6363100Y25510734D01*
X6363100Y23942700D01*
X6343098Y23874579D01*
X6289442Y23828086D01*
X6237100Y23816700D01*
X4770817Y23816700D01*
X4702696Y23836702D01*
X4656203Y23890358D01*
X4646099Y23960632D01*
X4655710Y23993949D01*
X4722909Y24144881D01*
X4722909Y24144882D01*
X4725594Y24150912D01*
X4759480Y24310330D01*
X4763928Y24331256D01*
X4763928Y24331261D01*
X4765300Y24337713D01*
X4765300Y24528687D01*
X4751146Y24595279D01*
X4731375Y24688291D01*
X4725594Y24715488D01*
X4691839Y24791303D01*
X4650603Y24883922D01*
X4650602Y24883924D01*
X4647918Y24889952D01*
X4579487Y24984139D01*
X4555628Y25051007D01*
X4571709Y25120158D01*
X4579487Y25132261D01*
X4644037Y25221106D01*
X4644038Y25221107D01*
X4647918Y25226448D01*
X4651115Y25233627D01*
X4722909Y25394881D01*
X4722909Y25394882D01*
X4725594Y25400912D01*
X4749660Y25514131D01*
X4763928Y25581256D01*
X4763928Y25581261D01*
X4765300Y25587713D01*
X4765300Y25778687D01*
X4748612Y25857200D01*
X4726966Y25959031D01*
X4725594Y25965488D01*
X4674682Y26079839D01*
X4650603Y26133922D01*
X4650602Y26133924D01*
X4647918Y26139952D01*
X4579487Y26234139D01*
X4555628Y26301007D01*
X4571709Y26370158D01*
X4579487Y26382261D01*
X4644037Y26471106D01*
X4644038Y26471107D01*
X4647918Y26476448D01*
X4659010Y26501360D01*
X4722909Y26644881D01*
X4722909Y26644882D01*
X4725594Y26650912D01*
X4758949Y26807832D01*
X4763928Y26831256D01*
X4763928Y26831261D01*
X4765300Y26837713D01*
X4765300Y27028687D01*
X4756950Y27067973D01*
X4736401Y27164643D01*
X4725594Y27215488D01*
X4722909Y27221519D01*
X4650603Y27383922D01*
X4650602Y27383924D01*
X4647918Y27389952D01*
X4583971Y27477968D01*
X4579487Y27484139D01*
X4555628Y27551007D01*
X4571709Y27620158D01*
X4579487Y27632261D01*
X4644037Y27721106D01*
X4644038Y27721107D01*
X4647918Y27726448D01*
X4656097Y27744817D01*
X4722909Y27894881D01*
X4722909Y27894882D01*
X4725594Y27900912D01*
X4745447Y27994313D01*
X4763928Y28081256D01*
X4763928Y28081261D01*
X4765300Y28087713D01*
X4765300Y28278687D01*
X4764674Y28281634D01*
X6389857Y28281634D01*
X6420165Y28147154D01*
X6423245Y28137325D01*
X6503370Y27939997D01*
X6508013Y27930806D01*
X6619294Y27749212D01*
X6625377Y27740901D01*
X6764813Y27579933D01*
X6772180Y27572717D01*
X6936034Y27436684D01*
X6944481Y27430769D01*
X7128356Y27323321D01*
X7137642Y27318871D01*
X7336601Y27242897D01*
X7346499Y27240021D01*
X7449850Y27218994D01*
X7463899Y27220190D01*
X7467600Y27230535D01*
X7467600Y27231083D01*
X7975600Y27231083D01*
X7979664Y27217241D01*
X7993078Y27215207D01*
X7999784Y27216066D01*
X8009862Y27218208D01*
X8213855Y27279409D01*
X8223442Y27283167D01*
X8414695Y27376861D01*
X8423545Y27382136D01*
X8596928Y27505808D01*
X8604800Y27512461D01*
X8755652Y27662788D01*
X8762330Y27670635D01*
X8886603Y27843580D01*
X8891913Y27852417D01*
X8986270Y28043333D01*
X8990069Y28052928D01*
X9051977Y28256690D01*
X9054155Y28266763D01*
X9055586Y28277638D01*
X9053375Y28291822D01*
X9040217Y28295600D01*
X7993715Y28295600D01*
X7978476Y28291125D01*
X7977271Y28289735D01*
X7975600Y28282052D01*
X7975600Y27231083D01*
X7467600Y27231083D01*
X7467600Y28277485D01*
X7463125Y28292724D01*
X7461735Y28293929D01*
X7454052Y28295600D01*
X6404825Y28295600D01*
X6391294Y28291627D01*
X6389857Y28281634D01*
X4764674Y28281634D01*
X4762657Y28291125D01*
X4726966Y28459031D01*
X4725594Y28465488D01*
X4671268Y28587507D01*
X4650603Y28633922D01*
X4650602Y28633924D01*
X4647918Y28639952D01*
X4604137Y28700212D01*
X4579487Y28734139D01*
X4555628Y28801007D01*
X4571709Y28870158D01*
X4579487Y28882261D01*
X4644037Y28971106D01*
X4644038Y28971107D01*
X4647918Y28976448D01*
X4655500Y28993476D01*
X4722909Y29144881D01*
X4722909Y29144882D01*
X4725594Y29150912D01*
X4758530Y29305862D01*
X4763928Y29331256D01*
X4763928Y29331261D01*
X4765300Y29337713D01*
X4765300Y29528687D01*
X4761283Y29547588D01*
X4730722Y29691362D01*
X4725594Y29715488D01*
X4720879Y29726079D01*
X4650603Y29883922D01*
X4650602Y29883924D01*
X4647918Y29889952D01*
X4640409Y29900288D01*
X4630236Y29914289D01*
X4606378Y29981156D01*
X4624396Y30053622D01*
X4702879Y30183212D01*
X4709085Y30196957D01*
X4756056Y30346844D01*
X4758669Y30359894D01*
X4763713Y30414786D01*
X4760325Y30426324D01*
X4758935Y30427529D01*
X4751252Y30429200D01*
X3478800Y30429200D01*
X3410679Y30449202D01*
X3364186Y30502858D01*
X3352800Y30555200D01*
X3352800Y30955315D01*
X3860800Y30955315D01*
X3865275Y30940076D01*
X3866665Y30938871D01*
X3874348Y30937200D01*
X4746684Y30937200D01*
X4761923Y30941675D01*
X4763128Y30943065D01*
X4764091Y30947494D01*
X4758668Y31006515D01*
X4756057Y31019551D01*
X4709085Y31169443D01*
X4702879Y31183188D01*
X4621976Y31316774D01*
X4612669Y31328643D01*
X4502243Y31439069D01*
X4490374Y31448376D01*
X4356788Y31529279D01*
X4343043Y31535485D01*
X4193156Y31582456D01*
X4180106Y31585069D01*
X4116279Y31590934D01*
X4110491Y31591200D01*
X3878915Y31591200D01*
X3863676Y31586725D01*
X3862471Y31585335D01*
X3860800Y31577652D01*
X3860800Y30955315D01*
X3352800Y30955315D01*
X3352800Y31573084D01*
X3348325Y31588323D01*
X3346935Y31589528D01*
X3339252Y31591199D01*
X3103095Y31591199D01*
X3097346Y31590936D01*
X3033485Y31585068D01*
X3020449Y31582457D01*
X2870557Y31535485D01*
X2856803Y31529275D01*
X2856767Y31529253D01*
X2856737Y31529245D01*
X2849884Y31526151D01*
X2849368Y31527293D01*
X2788137Y31511076D01*
X2720574Y31532889D01*
X2675530Y31587767D01*
X2665500Y31637031D01*
X2665500Y33979616D01*
X2685502Y34047737D01*
X2739158Y34094230D01*
X2809432Y34104334D01*
X2854500Y34088735D01*
X2979726Y34016435D01*
X2991734Y34011089D01*
X3160698Y33956189D01*
X3173539Y33953459D01*
X3305938Y33939544D01*
X3312498Y33939200D01*
X3334685Y33939200D01*
X3349924Y33943675D01*
X3351129Y33945065D01*
X3352800Y33952748D01*
X3352800Y33957315D01*
X3860800Y33957315D01*
X3865275Y33942076D01*
X3866665Y33940871D01*
X3874348Y33939200D01*
X3901102Y33939200D01*
X3907662Y33939544D01*
X4040061Y33953459D01*
X4052902Y33956189D01*
X4221866Y34011089D01*
X4233874Y34016435D01*
X4387727Y34105262D01*
X4398358Y34112986D01*
X4530385Y34231863D01*
X4539176Y34241626D01*
X4643602Y34385357D01*
X4650168Y34396729D01*
X4722433Y34559039D01*
X4726490Y34571525D01*
X4727330Y34575478D01*
X4726257Y34589541D01*
X4716303Y34593200D01*
X3878915Y34593200D01*
X3863676Y34588725D01*
X3862471Y34587335D01*
X3860800Y34579652D01*
X3860800Y33957315D01*
X3352800Y33957315D01*
X3352800Y34975200D01*
X3372802Y35043321D01*
X3426458Y35089814D01*
X3478800Y35101200D01*
X4712982Y35101200D01*
X4726513Y35105173D01*
X4728022Y35115668D01*
X4726490Y35122875D01*
X4722433Y35135361D01*
X4655163Y35286451D01*
X4645729Y35356818D01*
X4675835Y35421115D01*
X4735924Y35458928D01*
X4770270Y35463700D01*
X4939406Y35463700D01*
X5007527Y35443698D01*
X5028501Y35426795D01*
X6326195Y34129101D01*
X6360221Y34066789D01*
X6363100Y34040006D01*
X6363100Y32731466D01*
X6369855Y32669284D01*
X6420985Y32532895D01*
X6508339Y32416339D01*
X6624895Y32328985D01*
X6633304Y32325833D01*
X6633305Y32325832D01*
X6742051Y32285065D01*
X6798816Y32242424D01*
X6823516Y32175862D01*
X6808309Y32106513D01*
X6788916Y32080032D01*
X6701775Y31988844D01*
X6662229Y31947462D01*
X6659315Y31943190D01*
X6659314Y31943189D01*
X6623009Y31889968D01*
X6536343Y31762920D01*
X6520603Y31729010D01*
X6452575Y31582456D01*
X6442288Y31560295D01*
X6382589Y31345030D01*
X6358851Y31122905D01*
X6359148Y31117752D01*
X6359148Y31117749D01*
X6364611Y31023010D01*
X6371710Y30899885D01*
X6372847Y30894839D01*
X6372848Y30894833D01*
X6379055Y30867292D01*
X6420822Y30681961D01*
X6504866Y30474984D01*
X6520665Y30449202D01*
X6595709Y30326742D01*
X6621587Y30284512D01*
X6767850Y30115662D01*
X6939726Y29972968D01*
X6955299Y29963868D01*
X7013555Y29929826D01*
X7062279Y29878188D01*
X7075350Y29808405D01*
X7048619Y29742633D01*
X7008162Y29709273D01*
X7000057Y29705054D01*
X6991338Y29699564D01*
X6821033Y29571695D01*
X6813326Y29564852D01*
X6666190Y29410883D01*
X6659704Y29402873D01*
X6539698Y29226951D01*
X6534600Y29217977D01*
X6444938Y29024817D01*
X6441375Y29015130D01*
X6385989Y28815417D01*
X6387512Y28806993D01*
X6399892Y28803600D01*
X9039944Y28803600D01*
X9053475Y28807573D01*
X9054780Y28816653D01*
X9012814Y28983725D01*
X9009494Y28993476D01*
X8924572Y29188786D01*
X8919705Y29197861D01*
X8804026Y29376674D01*
X8797736Y29384843D01*
X8654406Y29542360D01*
X8646873Y29549385D01*
X8479739Y29681378D01*
X8471156Y29687080D01*
X8434202Y29707480D01*
X8384231Y29757913D01*
X8369459Y29827355D01*
X8394575Y29893761D01*
X8421927Y29920368D01*
X8482912Y29963868D01*
X8601460Y30048427D01*
X8759696Y30206111D01*
X8819194Y30288911D01*
X8887035Y30383323D01*
X8890053Y30387523D01*
X8920537Y30449202D01*
X8986736Y30583147D01*
X8986737Y30583149D01*
X8989030Y30587789D01*
X9053970Y30801531D01*
X9083129Y31023010D01*
X9084756Y31089600D01*
X9066452Y31312239D01*
X9012031Y31528898D01*
X8922954Y31733760D01*
X8846972Y31851211D01*
X8804422Y31916983D01*
X8804420Y31916986D01*
X8801614Y31921323D01*
X8798132Y31925150D01*
X8654398Y32083112D01*
X8623346Y32146958D01*
X8631741Y32217457D01*
X8676917Y32272225D01*
X8703361Y32285894D01*
X8809897Y32325833D01*
X8818305Y32328985D01*
X8934861Y32416339D01*
X9022215Y32532895D01*
X9073345Y32669284D01*
X9080100Y32731466D01*
X9080100Y33627006D01*
X9100102Y33695127D01*
X9153758Y33741620D01*
X9224032Y33751724D01*
X9288612Y33722230D01*
X9295195Y33716101D01*
X9482878Y33528418D01*
X9516904Y33466106D01*
X9519092Y33452497D01*
X9536458Y33287272D01*
X9595473Y33105644D01*
X9598776Y33099922D01*
X9598777Y33099921D01*
X9619069Y33064775D01*
X9690960Y32940256D01*
X9695378Y32935349D01*
X9695379Y32935348D01*
X9794130Y32825674D01*
X9818747Y32798334D01*
X9973248Y32686082D01*
X9979276Y32683398D01*
X9979278Y32683397D01*
X10141681Y32611091D01*
X10147712Y32608406D01*
X10241113Y32588553D01*
X10328056Y32570072D01*
X10328061Y32570072D01*
X10334513Y32568700D01*
X10525487Y32568700D01*
X10531939Y32570072D01*
X10531944Y32570072D01*
X10618887Y32588553D01*
X10712288Y32608406D01*
X10718319Y32611091D01*
X10880722Y32683397D01*
X10880724Y32683398D01*
X10886752Y32686082D01*
X11041253Y32798334D01*
X11065870Y32825674D01*
X11164621Y32935348D01*
X11164622Y32935349D01*
X11169040Y32940256D01*
X11240931Y33064775D01*
X11261223Y33099921D01*
X11261224Y33099922D01*
X11264527Y33105644D01*
X11323542Y33287272D01*
X11336157Y33407292D01*
X11342814Y33470635D01*
X11343504Y33477200D01*
X11323542Y33667128D01*
X11264527Y33848756D01*
X11169040Y34014144D01*
X11080043Y34112986D01*
X11045675Y34151155D01*
X11045674Y34151156D01*
X11041253Y34156066D01*
X10886752Y34268318D01*
X10880724Y34271002D01*
X10880722Y34271003D01*
X10718319Y34343309D01*
X10718318Y34343309D01*
X10712288Y34345994D01*
X10618887Y34365847D01*
X10531944Y34384328D01*
X10531939Y34384328D01*
X10525487Y34385700D01*
X10469595Y34385700D01*
X10401474Y34405702D01*
X10380500Y34422605D01*
X9656363Y35146742D01*
X9645398Y35166823D01*
X9639494Y35168435D01*
X9616489Y35186616D01*
X7063652Y37739453D01*
X7056112Y37747738D01*
X7052000Y37754218D01*
X7047728Y37758230D01*
X7020081Y37822624D01*
X7031789Y37892649D01*
X7079496Y37945227D01*
X7145176Y37963700D01*
X7535406Y37963700D01*
X7603527Y37943698D01*
X7624501Y37926795D01*
X9482878Y36068417D01*
X9516904Y36006105D01*
X9519093Y35992494D01*
X9536458Y35827272D01*
X9595473Y35645644D01*
X9598776Y35639922D01*
X9598777Y35639921D01*
X9619069Y35604775D01*
X9690960Y35480256D01*
X9695378Y35475349D01*
X9695379Y35475348D01*
X9799220Y35360021D01*
X9805734Y35346449D01*
X9805843Y35346425D01*
X9819519Y35337773D01*
X9890158Y35286451D01*
X9973248Y35226082D01*
X9979276Y35223398D01*
X9979278Y35223397D01*
X10141681Y35151091D01*
X10147712Y35148406D01*
X10234009Y35130063D01*
X10328056Y35110072D01*
X10328061Y35110072D01*
X10334513Y35108700D01*
X10525487Y35108700D01*
X10531939Y35110072D01*
X10531944Y35110072D01*
X10625991Y35130063D01*
X10712288Y35148406D01*
X10718319Y35151091D01*
X10880722Y35223397D01*
X10880724Y35223398D01*
X10886752Y35226082D01*
X11041253Y35338334D01*
X11057896Y35356818D01*
X11164621Y35475348D01*
X11164622Y35475349D01*
X11169040Y35480256D01*
X11240931Y35604775D01*
X11261223Y35639921D01*
X11261224Y35639922D01*
X11264527Y35645644D01*
X11323542Y35827272D01*
X11336157Y35947292D01*
X11342814Y36010635D01*
X11343504Y36017200D01*
X11323542Y36207128D01*
X11264527Y36388756D01*
X11169040Y36554144D01*
X11151761Y36573335D01*
X11045675Y36691155D01*
X11045674Y36691156D01*
X11041253Y36696066D01*
X10908301Y36792662D01*
X10892094Y36804437D01*
X10892093Y36804438D01*
X10886752Y36808318D01*
X10880724Y36811002D01*
X10880722Y36811003D01*
X10718319Y36883309D01*
X10718318Y36883309D01*
X10712288Y36885994D01*
X10618888Y36905847D01*
X10531944Y36924328D01*
X10531939Y36924328D01*
X10525487Y36925700D01*
X10469594Y36925700D01*
X10401473Y36945702D01*
X10380499Y36962605D01*
X9379405Y37963700D01*
X8353652Y38989453D01*
X8346112Y38997739D01*
X8342000Y39004218D01*
X8292348Y39050844D01*
X8289507Y39053598D01*
X8269770Y39073335D01*
X8266573Y39075815D01*
X8257551Y39083520D01*
X8231100Y39108359D01*
X8225321Y39113786D01*
X8218375Y39117605D01*
X8218372Y39117607D01*
X8207566Y39123548D01*
X8191047Y39134399D01*
X8190583Y39134759D01*
X8175041Y39146814D01*
X8167772Y39149959D01*
X8167768Y39149962D01*
X8134463Y39164374D01*
X8123813Y39169591D01*
X8085060Y39190895D01*
X8065437Y39195933D01*
X8046734Y39202337D01*
X8035420Y39207233D01*
X8035419Y39207233D01*
X8028145Y39210381D01*
X8020322Y39211620D01*
X8020312Y39211623D01*
X7984476Y39217299D01*
X7972856Y39219705D01*
X7937711Y39228728D01*
X7937710Y39228728D01*
X7930030Y39230700D01*
X7909776Y39230700D01*
X7890065Y39232251D01*
X7877886Y39234180D01*
X7870057Y39235420D01*
X7862165Y39234674D01*
X7826039Y39231259D01*
X7814181Y39230700D01*
X4770817Y39230700D01*
X4702696Y39250702D01*
X4656203Y39304358D01*
X4646099Y39374632D01*
X4655710Y39407949D01*
X4722909Y39558881D01*
X4722909Y39558882D01*
X4725594Y39564912D01*
X4751217Y39685456D01*
X4763928Y39745256D01*
X4763928Y39745261D01*
X4765300Y39751713D01*
X4765300Y39942687D01*
X4754489Y39993551D01*
X4743742Y40044109D01*
X4725594Y40129488D01*
X4696110Y40195710D01*
X4650603Y40297922D01*
X4650602Y40297924D01*
X4647918Y40303952D01*
X4630236Y40328289D01*
X4606378Y40395156D01*
X4624396Y40467622D01*
X4702879Y40597212D01*
X4709085Y40610957D01*
X4756056Y40760844D01*
X4758669Y40773894D01*
X4763713Y40828786D01*
X4760325Y40840324D01*
X4758935Y40841529D01*
X4751252Y40843200D01*
X2466916Y40843200D01*
X2451677Y40838725D01*
X2450472Y40837335D01*
X2449509Y40832906D01*
X2454932Y40773885D01*
X2457543Y40760849D01*
X2504515Y40610957D01*
X2510721Y40597212D01*
X2589204Y40467622D01*
X2607383Y40398992D01*
X2583364Y40328289D01*
X2565682Y40303952D01*
X2562998Y40297924D01*
X2562997Y40297922D01*
X2517490Y40195710D01*
X2488006Y40129488D01*
X2469858Y40044109D01*
X2459112Y39993551D01*
X2448300Y39942687D01*
X2448300Y39751713D01*
X2449672Y39745261D01*
X2449672Y39745256D01*
X2462383Y39685456D01*
X2488006Y39564912D01*
X2490691Y39558882D01*
X2490691Y39558881D01*
X2556626Y39410789D01*
X2565682Y39390448D01*
X2569562Y39385107D01*
X2569563Y39385106D01*
X2634113Y39296261D01*
X2657972Y39229393D01*
X2641891Y39160242D01*
X2634113Y39148139D01*
X2579765Y39073335D01*
X2565682Y39053952D01*
X2562998Y39047924D01*
X2562997Y39047922D01*
X2551858Y39022903D01*
X2488006Y38879488D01*
X2448300Y38692687D01*
X2448300Y38501713D01*
X2449672Y38495261D01*
X2449672Y38495256D01*
X2450660Y38490610D01*
X2488006Y38314912D01*
X2490691Y38308882D01*
X2490691Y38308881D01*
X2561625Y38149561D01*
X2565682Y38140448D01*
X2569562Y38135107D01*
X2569563Y38135106D01*
X2634113Y38046261D01*
X2657972Y37979393D01*
X2641891Y37910242D01*
X2634113Y37898139D01*
X2579765Y37823335D01*
X2565682Y37803952D01*
X2562995Y37797917D01*
X2533152Y37730891D01*
X2507141Y37693046D01*
X1639747Y36825652D01*
X1631461Y36818112D01*
X1624982Y36814000D01*
X1619557Y36808223D01*
X1578357Y36764349D01*
X1575602Y36761507D01*
X1555865Y36741770D01*
X1553385Y36738573D01*
X1545682Y36729553D01*
X1515414Y36697321D01*
X1511595Y36690375D01*
X1511593Y36690372D01*
X1505652Y36679566D01*
X1494801Y36663047D01*
X1482386Y36647041D01*
X1479241Y36639772D01*
X1479238Y36639768D01*
X1464826Y36606463D01*
X1459609Y36595813D01*
X1438305Y36557060D01*
X1436334Y36549385D01*
X1436334Y36549384D01*
X1433267Y36537438D01*
X1426863Y36518734D01*
X1418819Y36500145D01*
X1417580Y36492322D01*
X1417577Y36492312D01*
X1411901Y36456476D01*
X1409495Y36444856D01*
X1398500Y36402030D01*
X1398500Y36381776D01*
X1396949Y36362066D01*
X1393780Y36342057D01*
X762000Y36342057D01*
X762000Y41365614D01*
X2449887Y41365614D01*
X2453275Y41354076D01*
X2454665Y41352871D01*
X2462348Y41351200D01*
X3334685Y41351200D01*
X3349924Y41355675D01*
X3351129Y41357065D01*
X3352800Y41364748D01*
X3352800Y41369315D01*
X3860800Y41369315D01*
X3865275Y41354076D01*
X3866665Y41352871D01*
X3874348Y41351200D01*
X4746684Y41351200D01*
X4761923Y41355675D01*
X4763128Y41357065D01*
X4764091Y41361494D01*
X4763372Y41369315D01*
X13831200Y41369315D01*
X13835675Y41354076D01*
X13837065Y41352871D01*
X13844748Y41351200D01*
X14917085Y41351200D01*
X14932324Y41355675D01*
X14933529Y41357065D01*
X14935200Y41364748D01*
X14935200Y41369315D01*
X15443200Y41369315D01*
X15447675Y41354076D01*
X15449065Y41352871D01*
X15456748Y41351200D01*
X16529084Y41351200D01*
X16544323Y41355675D01*
X16545528Y41357065D01*
X16547199Y41364748D01*
X16547199Y41991869D01*
X16546829Y41998690D01*
X16541305Y42049552D01*
X16537679Y42064804D01*
X16492524Y42185254D01*
X16483986Y42200849D01*
X16407485Y42302924D01*
X16394924Y42315485D01*
X16292849Y42391986D01*
X16277254Y42400524D01*
X16156806Y42445678D01*
X16141551Y42449305D01*
X16090686Y42454831D01*
X16083872Y42455200D01*
X15461315Y42455200D01*
X15446076Y42450725D01*
X15444871Y42449335D01*
X15443200Y42441652D01*
X15443200Y41369315D01*
X14935200Y41369315D01*
X14935200Y42437084D01*
X14930725Y42452323D01*
X14929335Y42453528D01*
X14921652Y42455199D01*
X14294531Y42455199D01*
X14287710Y42454829D01*
X14236848Y42449305D01*
X14221596Y42445679D01*
X14101146Y42400524D01*
X14085551Y42391986D01*
X13983476Y42315485D01*
X13970915Y42302924D01*
X13894414Y42200849D01*
X13885876Y42185254D01*
X13840722Y42064806D01*
X13837095Y42049551D01*
X13831569Y41998686D01*
X13831200Y41991872D01*
X13831200Y41369315D01*
X4763372Y41369315D01*
X4758668Y41420515D01*
X4756057Y41433551D01*
X4709085Y41583443D01*
X4702879Y41597188D01*
X4621976Y41730774D01*
X4612669Y41742643D01*
X4502243Y41853069D01*
X4490374Y41862376D01*
X4356788Y41943279D01*
X4343043Y41949485D01*
X4193156Y41996456D01*
X4180106Y41999069D01*
X4116279Y42004934D01*
X4110491Y42005200D01*
X3878915Y42005200D01*
X3863676Y42000725D01*
X3862471Y41999335D01*
X3860800Y41991652D01*
X3860800Y41369315D01*
X3352800Y41369315D01*
X3352800Y41987084D01*
X3348325Y42002323D01*
X3346935Y42003528D01*
X3339252Y42005199D01*
X3103095Y42005199D01*
X3097346Y42004936D01*
X3033485Y41999068D01*
X3020449Y41996457D01*
X2870557Y41949485D01*
X2856812Y41943279D01*
X2723226Y41862376D01*
X2711357Y41853069D01*
X2600931Y41742643D01*
X2591624Y41730774D01*
X2510721Y41597188D01*
X2504515Y41583443D01*
X2457544Y41433556D01*
X2454931Y41420506D01*
X2449887Y41365614D01*
X762000Y41365614D01*
X762000Y43598030D01*
X782002Y43666151D01*
X835658Y43712644D01*
X905932Y43722748D01*
X936219Y43714439D01*
X1025409Y43677495D01*
X1072661Y43666151D01*
X1266784Y43619546D01*
X1266790Y43619545D01*
X1271597Y43618391D01*
X1524000Y43598526D01*
X1776403Y43618391D01*
X1781210Y43619545D01*
X1781216Y43619546D01*
X1975339Y43666151D01*
X2022591Y43677495D01*
X2053382Y43690249D01*
X2251928Y43772489D01*
X2251932Y43772491D01*
X2256502Y43774384D01*
X2472376Y43906672D01*
X2664898Y44071102D01*
X2829328Y44263624D01*
X2961616Y44479498D01*
X3028370Y44640655D01*
X3056611Y44708836D01*
X3056612Y44708838D01*
X3058505Y44713409D01*
X3078821Y44798032D01*
X3116454Y44954784D01*
X3116455Y44954790D01*
X3117609Y44959597D01*
X3137474Y45212000D01*
X3117609Y45464403D01*
X3107203Y45507750D01*
X3059660Y45705779D01*
X3058505Y45710591D01*
X3021561Y45799782D01*
X3013972Y45870372D01*
X3045751Y45933859D01*
X3106810Y45970086D01*
X3137970Y45974000D01*
X19722030Y45974000D01*
X19790151Y45953998D01*
G37*
%TD.AperFunction*%
%TD*%
M02*
