%TF.GenerationSoftware,KiCad,Pcbnew,(7.0.0)*%
%TF.CreationDate,2023-03-12T00:46:26+09:00*%
%TF.ProjectId,joystick_gpio_input,6a6f7973-7469-4636-9b5f-6770696f5f69,2*%
%TF.SameCoordinates,PX7b89fa0PY78dfd90*%
%TF.FileFunction,Copper,L2,Bot*%
%TF.FilePolarity,Positive*%
%FSLAX46Y46*%
G04 Gerber Fmt 4.6, Leading zero omitted, Abs format (unit mm)*
G04 Created by KiCad (PCBNEW (7.0.0)) date 2023-03-12 00:46:26*
%MOMM*%
%LPD*%
G01*
G04 APERTURE LIST*
G04 Aperture macros list*
%AMRoundRect*
0 Rectangle with rounded corners*
0 $1 Rounding radius*
0 $2 $3 $4 $5 $6 $7 $8 $9 X,Y pos of 4 corners*
0 Add a 4 corners polygon primitive as box body*
4,1,4,$2,$3,$4,$5,$6,$7,$8,$9,$2,$3,0*
0 Add four circle primitives for the rounded corners*
1,1,$1+$1,$2,$3*
1,1,$1+$1,$4,$5*
1,1,$1+$1,$6,$7*
1,1,$1+$1,$8,$9*
0 Add four rect primitives between the rounded corners*
20,1,$1+$1,$2,$3,$4,$5,0*
20,1,$1+$1,$4,$5,$6,$7,0*
20,1,$1+$1,$6,$7,$8,$9,0*
20,1,$1+$1,$8,$9,$2,$3,0*%
G04 Aperture macros list end*
%TA.AperFunction,ComponentPad*%
%ADD10RoundRect,0.200000X-0.450000X0.200000X-0.450000X-0.200000X0.450000X-0.200000X0.450000X0.200000X0*%
%TD*%
%TA.AperFunction,ComponentPad*%
%ADD11O,1.300000X0.800000*%
%TD*%
%TA.AperFunction,ComponentPad*%
%ADD12R,1.700000X1.700000*%
%TD*%
%TA.AperFunction,ComponentPad*%
%ADD13O,1.700000X1.700000*%
%TD*%
%TA.AperFunction,ComponentPad*%
%ADD14RoundRect,0.200000X0.450000X-0.200000X0.450000X0.200000X-0.450000X0.200000X-0.450000X-0.200000X0*%
%TD*%
%TA.AperFunction,ViaPad*%
%ADD15C,0.800000*%
%TD*%
%TA.AperFunction,Conductor*%
%ADD16C,0.250000*%
%TD*%
G04 APERTURE END LIST*
D10*
%TO.P,J9,1,Pin_1*%
%TO.N,/2P_UP*%
X34340800Y19296400D03*
D11*
%TO.P,J9,2,Pin_2*%
%TO.N,/2P_TL*%
X34340799Y18046399D03*
%TO.P,J9,3,Pin_3*%
%TO.N,/2P_GND*%
X34340799Y16796399D03*
%TO.P,J9,4,Pin_4*%
%TO.N,/2P_X*%
X34340799Y15546399D03*
%TO.P,J9,5,Pin_5*%
%TO.N,/2P_DOWN*%
X34340799Y14296399D03*
%TO.P,J9,6,Pin_6*%
%TO.N,/2P_Y*%
X34340799Y13046399D03*
%TO.P,J9,7,Pin_7*%
%TO.N,/2P_LEFT*%
X34340799Y11796399D03*
%TO.P,J9,8,Pin_8*%
%TO.N,/2P_RIGHT*%
X34340799Y10546399D03*
%TO.P,J9,9,Pin_9*%
%TO.N,/2P_TR*%
X34340799Y9296399D03*
%TO.P,J9,10,Pin_10*%
%TO.N,/2P_B*%
X34340799Y8046399D03*
%TO.P,J9,11,Pin_11*%
%TO.N,/2P_START*%
X34340799Y6796399D03*
%TO.P,J9,12,Pin_12*%
%TO.N,/2P_SELECT*%
X34340799Y5546399D03*
%TO.P,J9,13,Pin_13*%
%TO.N,/2P_A*%
X34340799Y4296399D03*
%TD*%
D12*
%TO.P,J5,1,Pin_1*%
%TO.N,/C_UP*%
X19608799Y41147999D03*
D13*
%TO.P,J5,2,Pin_2*%
%TO.N,/C_TL*%
X19608799Y38607999D03*
%TO.P,J5,3,Pin_3*%
%TO.N,/GND*%
X19608799Y36067999D03*
%TO.P,J5,4,Pin_4*%
%TO.N,/C_X*%
X19608799Y33527999D03*
%TO.P,J5,5,Pin_5*%
%TO.N,/C_DOWN*%
X19608799Y30987999D03*
%TO.P,J5,6,Pin_6*%
%TO.N,/C_Y*%
X19608799Y28447999D03*
%TO.P,J5,7,Pin_7*%
%TO.N,/C_LEFT*%
X19608799Y25907999D03*
%TO.P,J5,8,Pin_8*%
%TO.N,/C_RIGHT*%
X19608799Y23367999D03*
%TO.P,J5,9,Pin_9*%
%TO.N,/C_TR*%
X19608799Y20827999D03*
%TO.P,J5,10,Pin_10*%
%TO.N,/C_B*%
X19608799Y18287999D03*
%TO.P,J5,11,Pin_11*%
%TO.N,/C_START*%
X19608799Y15747999D03*
%TO.P,J5,12,Pin_12*%
%TO.N,/GND*%
X19608799Y13207999D03*
%TO.P,J5,13,Pin_13*%
%TO.N,/C_SELECT*%
X19608799Y10667999D03*
%TO.P,J5,14,Pin_14*%
%TO.N,/C_A*%
X19608799Y8127999D03*
%TO.P,J5,15,Pin_15*%
%TO.N,/C_HK*%
X19608799Y5587999D03*
%TD*%
D14*
%TO.P,J11,1,Pin_1*%
%TO.N,/2P_A*%
X24333200Y4292600D03*
D11*
%TO.P,J11,2,Pin_2*%
%TO.N,/2P_SELECT*%
X24333199Y5542599D03*
%TO.P,J11,3,Pin_3*%
%TO.N,/2P_START*%
X24333199Y6792599D03*
%TO.P,J11,4,Pin_4*%
%TO.N,/2P_B*%
X24333199Y8042599D03*
%TO.P,J11,5,Pin_5*%
%TO.N,/2P_TR*%
X24333199Y9292599D03*
%TO.P,J11,6,Pin_6*%
%TO.N,/2P_RIGHT*%
X24333199Y10542599D03*
%TO.P,J11,7,Pin_7*%
%TO.N,/2P_LEFT*%
X24333199Y11792599D03*
%TO.P,J11,8,Pin_8*%
%TO.N,/2P_Y*%
X24333199Y13042599D03*
%TO.P,J11,9,Pin_9*%
%TO.N,/2P_DOWN*%
X24333199Y14292599D03*
%TO.P,J11,10,Pin_10*%
%TO.N,/2P_X*%
X24333199Y15542599D03*
%TO.P,J11,11,Pin_11*%
%TO.N,/2P_GND*%
X24333199Y16792599D03*
%TO.P,J11,12,Pin_12*%
%TO.N,/2P_TL*%
X24333199Y18042599D03*
%TO.P,J11,13,Pin_13*%
%TO.N,/2P_UP*%
X24333199Y19292599D03*
%TD*%
D12*
%TO.P,JP3,1,Pin_1*%
%TO.N,/HK*%
X7721599Y15595599D03*
D13*
%TO.P,JP3,2,Pin_2*%
%TO.N,/HK_T*%
X7721599Y13055599D03*
%TO.P,JP3,3,Pin_3*%
%TO.N,/GND*%
X7721599Y10515599D03*
%TD*%
D10*
%TO.P,J1,1,Pin_1*%
%TO.N,/GND*%
X3606800Y41097200D03*
D11*
%TO.P,J1,2,Pin_2*%
%TO.N,/UP*%
X3606799Y39847199D03*
%TO.P,J1,3,Pin_3*%
%TO.N,/DOWN*%
X3606799Y38597199D03*
%TO.P,J1,4,Pin_4*%
%TO.N,/LEFT*%
X3606799Y37347199D03*
%TO.P,J1,5,Pin_5*%
%TO.N,/RIGHT*%
X3606799Y36097199D03*
%TO.P,J1,6,Pin_6*%
%TO.N,/GND*%
X3606799Y34847199D03*
%TD*%
D10*
%TO.P,J8,1,Pin_1*%
%TO.N,/1P_UP*%
X34340800Y43324800D03*
D11*
%TO.P,J8,2,Pin_2*%
%TO.N,/1P_TL*%
X34340799Y42074799D03*
%TO.P,J8,3,Pin_3*%
%TO.N,/1P_GND*%
X34340799Y40824799D03*
%TO.P,J8,4,Pin_4*%
%TO.N,/1P_X*%
X34340799Y39574799D03*
%TO.P,J8,5,Pin_5*%
%TO.N,/1P_DOWN*%
X34340799Y38324799D03*
%TO.P,J8,6,Pin_6*%
%TO.N,/1P_Y*%
X34340799Y37074799D03*
%TO.P,J8,7,Pin_7*%
%TO.N,/1P_LEFT*%
X34340799Y35824799D03*
%TO.P,J8,8,Pin_8*%
%TO.N,/1P_RIGHT*%
X34340799Y34574799D03*
%TO.P,J8,9,Pin_9*%
%TO.N,/1P_TR*%
X34340799Y33324799D03*
%TO.P,J8,10,Pin_10*%
%TO.N,/1P_B*%
X34340799Y32074799D03*
%TO.P,J8,11,Pin_11*%
%TO.N,/1P_START*%
X34340799Y30824799D03*
%TO.P,J8,12,Pin_12*%
%TO.N,/1P_SELECT*%
X34340799Y29574799D03*
%TO.P,J8,13,Pin_13*%
%TO.N,/1P_A*%
X34340799Y28324799D03*
%TO.P,J8,14,Pin_14*%
%TO.N,/1P_HK*%
X34340799Y27074799D03*
%TD*%
D10*
%TO.P,J3,1,Pin_1*%
%TO.N,/GND*%
X3606800Y30683200D03*
D11*
%TO.P,J3,2,Pin_2*%
%TO.N,/UP*%
X3606799Y29433199D03*
%TO.P,J3,3,Pin_3*%
%TO.N,/DOWN*%
X3606799Y28183199D03*
%TO.P,J3,4,Pin_4*%
%TO.N,/LEFT*%
X3606799Y26933199D03*
%TO.P,J3,5,Pin_5*%
%TO.N,/RIGHT_T*%
X3606799Y25683199D03*
%TO.P,J3,6,Pin_6*%
%TO.N,/START*%
X3606799Y24433199D03*
%TO.P,J3,7,Pin_7*%
%TO.N,/SELECT_T*%
X3606799Y23183199D03*
%TO.P,J3,8,Pin_8*%
%TO.N,/A*%
X3606799Y21933199D03*
%TO.P,J3,9,Pin_9*%
%TO.N,/B*%
X3606799Y20683199D03*
%TO.P,J3,10,Pin_10*%
%TO.N,/X*%
X3606799Y19433199D03*
%TO.P,J3,11,Pin_11*%
%TO.N,/Y*%
X3606799Y18183199D03*
%TO.P,J3,12,Pin_12*%
%TO.N,/TL*%
X3606799Y16933199D03*
%TO.P,J3,13,Pin_13*%
%TO.N,/TR*%
X3606799Y15683199D03*
%TO.P,J3,14,Pin_14*%
%TO.N,/HK_T*%
X3606799Y14433199D03*
%TO.P,J3,15,Pin_15*%
%TO.N,/GND*%
X3606799Y13183199D03*
%TD*%
D12*
%TO.P,JP1,1,Pin_1*%
%TO.N,/RIGHT*%
X7721599Y33629599D03*
D13*
%TO.P,JP1,2,Pin_2*%
%TO.N,/RIGHT_T*%
X7721599Y31089599D03*
%TO.P,JP1,3,Pin_3*%
%TO.N,/GND*%
X7721599Y28549599D03*
%TD*%
D12*
%TO.P,J4,1,Pin_1*%
%TO.N,/GND*%
X15189199Y41097199D03*
D13*
%TO.P,J4,2,Pin_2*%
%TO.N,/C_UP*%
X15189199Y38557199D03*
%TO.P,J4,3,Pin_3*%
%TO.N,/C_DOWN*%
X15189199Y36017199D03*
%TO.P,J4,4,Pin_4*%
%TO.N,/C_LEFT*%
X15189199Y33477199D03*
%TO.P,J4,5,Pin_5*%
%TO.N,/C_RIGHT*%
X15189199Y30937199D03*
%TO.P,J4,6,Pin_6*%
%TO.N,/C_START*%
X15189199Y28397199D03*
%TO.P,J4,7,Pin_7*%
%TO.N,/C_SELECT*%
X15189199Y25857199D03*
%TO.P,J4,8,Pin_8*%
%TO.N,/C_A*%
X15189199Y23317199D03*
%TO.P,J4,9,Pin_9*%
%TO.N,/C_B*%
X15189199Y20777199D03*
%TO.P,J4,10,Pin_10*%
%TO.N,/C_X*%
X15189199Y18237199D03*
%TO.P,J4,11,Pin_11*%
%TO.N,/C_Y*%
X15189199Y15697199D03*
%TO.P,J4,12,Pin_12*%
%TO.N,/C_TL*%
X15189199Y13157199D03*
%TO.P,J4,13,Pin_13*%
%TO.N,/C_TR*%
X15189199Y10617199D03*
%TO.P,J4,14,Pin_14*%
%TO.N,/C_HK*%
X15189199Y8077199D03*
%TO.P,J4,15,Pin_15*%
%TO.N,/GND*%
X15189199Y5537199D03*
%TD*%
D12*
%TO.P,JP2,1,Pin_1*%
%TO.N,/SELECT*%
X7721599Y24612599D03*
D13*
%TO.P,JP2,2,Pin_2*%
%TO.N,/SELECT_T*%
X7721599Y22072599D03*
%TO.P,JP2,3,Pin_3*%
%TO.N,/GND*%
X7721599Y19532599D03*
%TD*%
D10*
%TO.P,J2,1,Pin_1*%
%TO.N,/GND*%
X3606800Y9093200D03*
D11*
%TO.P,J2,2,Pin_2*%
%TO.N,/START*%
X3606799Y7843199D03*
%TO.P,J2,3,Pin_3*%
%TO.N,/SELECT*%
X3606799Y6593199D03*
%TO.P,J2,4,Pin_4*%
%TO.N,/GND*%
X3606799Y5343199D03*
%TD*%
D14*
%TO.P,J10,1,Pin_1*%
%TO.N,/1P_HK*%
X24358600Y27076400D03*
D11*
%TO.P,J10,2,Pin_2*%
%TO.N,/1P_A*%
X24358599Y28326399D03*
%TO.P,J10,3,Pin_3*%
%TO.N,/1P_SELECT*%
X24358599Y29576399D03*
%TO.P,J10,4,Pin_4*%
%TO.N,/1P_START*%
X24358599Y30826399D03*
%TO.P,J10,5,Pin_5*%
%TO.N,/1P_B*%
X24358599Y32076399D03*
%TO.P,J10,6,Pin_6*%
%TO.N,/1P_TR*%
X24358599Y33326399D03*
%TO.P,J10,7,Pin_7*%
%TO.N,/1P_RIGHT*%
X24358599Y34576399D03*
%TO.P,J10,8,Pin_8*%
%TO.N,/1P_LEFT*%
X24358599Y35826399D03*
%TO.P,J10,9,Pin_9*%
%TO.N,/1P_Y*%
X24358599Y37076399D03*
%TO.P,J10,10,Pin_10*%
%TO.N,/1P_DOWN*%
X24358599Y38326399D03*
%TO.P,J10,11,Pin_11*%
%TO.N,/1P_X*%
X24358599Y39576399D03*
%TO.P,J10,12,Pin_12*%
%TO.N,/1P_GND*%
X24358599Y40826399D03*
%TO.P,J10,13,Pin_13*%
%TO.N,/1P_TL*%
X24358599Y42076399D03*
%TO.P,J10,14,Pin_14*%
%TO.N,/1P_UP*%
X24358599Y43326399D03*
%TD*%
D12*
%TO.P,J7,1,Pin_1*%
%TO.N,/2P_UP*%
X28087399Y21750199D03*
D13*
%TO.P,J7,2,Pin_2*%
%TO.N,/2P_TL*%
X30627399Y21750199D03*
%TO.P,J7,3,Pin_3*%
%TO.N,/2P_GND*%
X28087399Y19210199D03*
%TO.P,J7,4,Pin_4*%
%TO.N,/2P_X*%
X30627399Y19210199D03*
%TO.P,J7,5,Pin_5*%
%TO.N,unconnected-(J7-Pin_5-Pad5)*%
X28087399Y16670199D03*
%TO.P,J7,6,Pin_6*%
%TO.N,unconnected-(J7-Pin_6-Pad6)*%
X30627399Y16670199D03*
%TO.P,J7,7,Pin_7*%
%TO.N,/2P_DOWN*%
X28087399Y14130199D03*
%TO.P,J7,8,Pin_8*%
%TO.N,unconnected-(J7-Pin_8-Pad8)*%
X30627399Y14130199D03*
%TO.P,J7,9,Pin_9*%
%TO.N,/2P_LEFT*%
X28087399Y11590199D03*
%TO.P,J7,10,Pin_10*%
%TO.N,/2P_Y*%
X30627399Y11590199D03*
%TO.P,J7,11,Pin_11*%
%TO.N,/2P_RIGHT*%
X28087399Y9050199D03*
%TO.P,J7,12,Pin_12*%
%TO.N,unconnected-(J7-Pin_12-Pad12)*%
X30627399Y9050199D03*
%TO.P,J7,13,Pin_13*%
%TO.N,/2P_START*%
X28087399Y6510199D03*
%TO.P,J7,14,Pin_14*%
%TO.N,/2P_TR*%
X30627399Y6510199D03*
%TO.P,J7,15,Pin_15*%
%TO.N,/2P_SELECT*%
X28087399Y3970199D03*
%TO.P,J7,16,Pin_16*%
%TO.N,/2P_B*%
X30627399Y3970199D03*
%TO.P,J7,17,Pin_17*%
%TO.N,unconnected-(J7-Pin_17-Pad17)*%
X28087399Y1430199D03*
%TO.P,J7,18,Pin_18*%
%TO.N,/2P_A*%
X30627399Y1430199D03*
%TD*%
D12*
%TO.P,J6,1,Pin_1*%
%TO.N,/1P_UP*%
X28087399Y45372199D03*
D13*
%TO.P,J6,2,Pin_2*%
%TO.N,/1P_TL*%
X30627399Y45372199D03*
%TO.P,J6,3,Pin_3*%
%TO.N,/1P_GND*%
X28087399Y42832199D03*
%TO.P,J6,4,Pin_4*%
%TO.N,/1P_X*%
X30627399Y42832199D03*
%TO.P,J6,5,Pin_5*%
%TO.N,/1P_DOWN*%
X28087399Y40292199D03*
%TO.P,J6,6,Pin_6*%
%TO.N,/1P_Y*%
X30627399Y40292199D03*
%TO.P,J6,7,Pin_7*%
%TO.N,/1P_LEFT*%
X28087399Y37752199D03*
%TO.P,J6,8,Pin_8*%
%TO.N,unconnected-(J6-Pin_8-Pad8)*%
X30627399Y37752199D03*
%TO.P,J6,9,Pin_9*%
%TO.N,/1P_RIGHT*%
X28087399Y35212199D03*
%TO.P,J6,10,Pin_10*%
%TO.N,/1P_TR*%
X30627399Y35212199D03*
%TO.P,J6,11,Pin_11*%
%TO.N,unconnected-(J6-Pin_11-Pad11)*%
X28087399Y32672199D03*
%TO.P,J6,12,Pin_12*%
%TO.N,/1P_B*%
X30627399Y32672199D03*
%TO.P,J6,13,Pin_13*%
%TO.N,/1P_START*%
X28087399Y30132199D03*
%TO.P,J6,14,Pin_14*%
%TO.N,unconnected-(J6-Pin_14-Pad14)*%
X30627399Y30132199D03*
%TO.P,J6,15,Pin_15*%
%TO.N,/1P_SELECT*%
X28087399Y27592199D03*
%TO.P,J6,16,Pin_16*%
%TO.N,/1P_A*%
X30627399Y27592199D03*
%TO.P,J6,17,Pin_17*%
%TO.N,/1P_HK*%
X28087399Y25052199D03*
%TO.P,J6,18,Pin_18*%
%TO.N,unconnected-(J6-Pin_18-Pad18)*%
X30627399Y25052199D03*
%TD*%
D15*
%TO.N,/DOWN*%
X10430000Y36017200D03*
%TO.N,/LEFT*%
X10430000Y33477200D03*
%TO.N,/HK*%
X10430000Y8077200D03*
%TO.N,/C_TR*%
X21082000Y11938000D03*
%TD*%
D16*
%TO.N,/DOWN*%
X10430000Y36017200D02*
X7850000Y38597200D01*
X7850000Y38597200D02*
X3606800Y38597200D01*
%TO.N,/LEFT*%
X2032000Y36322000D02*
X2032000Y27990800D01*
X2032000Y27990800D02*
X3089600Y26933200D01*
X6560000Y37347200D02*
X3606800Y37347200D01*
X3089600Y26933200D02*
X3606800Y26933200D01*
X3606800Y37347200D02*
X3057200Y37347200D01*
X10430000Y33477200D02*
X6560000Y37347200D01*
X3057200Y37347200D02*
X2032000Y36322000D01*
%TO.N,/RIGHT*%
X7721600Y33629600D02*
X5254000Y36097200D01*
X5254000Y36097200D02*
X3606800Y36097200D01*
%TO.N,/SELECT*%
X10845800Y24612600D02*
X7721600Y24612600D01*
X3606800Y6593200D02*
X10911200Y6593200D01*
X10911200Y6593200D02*
X11684000Y7366000D01*
X11684000Y23774400D02*
X10845800Y24612600D01*
X11684000Y7366000D02*
X11684000Y23774400D01*
%TO.N,/SELECT_T*%
X3606800Y23183200D02*
X6611000Y23183200D01*
X6611000Y23183200D02*
X7721600Y22072600D01*
%TO.N,/HK*%
X9398000Y13919200D02*
X9398000Y9109200D01*
X9398000Y9109200D02*
X10430000Y8077200D01*
X7721600Y15595600D02*
X9398000Y13919200D01*
%TO.N,/C_RIGHT*%
X15189200Y30937200D02*
X15189200Y30734000D01*
X17772800Y28150400D02*
X17772800Y25204000D01*
X17772800Y25204000D02*
X19608800Y23368000D01*
X15189200Y30734000D02*
X17772800Y28150400D01*
%TO.N,/C_B*%
X15544800Y20777200D02*
X18034000Y18288000D01*
X18034000Y18288000D02*
X19608800Y18288000D01*
X15189200Y20777200D02*
X15544800Y20777200D01*
%TO.N,/C_X*%
X18288000Y32207200D02*
X19608800Y33528000D01*
X13436600Y31572200D02*
X14071600Y32207200D01*
X14071600Y32207200D02*
X18288000Y32207200D01*
X15189200Y18237200D02*
X13436600Y19989800D01*
X13436600Y19989800D02*
X13436600Y31572200D01*
%TO.N,/C_Y*%
X15189200Y15697200D02*
X16510000Y17018000D01*
X20904200Y27152600D02*
X19608800Y28448000D01*
X16510000Y17018000D02*
X20294600Y17018000D01*
X20904200Y17627600D02*
X20904200Y27152600D01*
X20294600Y17018000D02*
X20904200Y17627600D01*
%TO.N,/C_TL*%
X15189200Y13157200D02*
X16510000Y14478000D01*
X21354200Y15029600D02*
X21354200Y36862600D01*
X20802600Y14478000D02*
X21354200Y15029600D01*
X16510000Y14478000D02*
X20802600Y14478000D01*
X21354200Y36862600D02*
X19608800Y38608000D01*
%TO.N,/C_TR*%
X21082000Y11938000D02*
X16764000Y11938000D01*
X15443200Y10617200D02*
X15189200Y10617200D01*
X16764000Y11938000D02*
X15443200Y10617200D01*
%TO.N,/1P_UP*%
X34340800Y43324800D02*
X33578800Y44086800D01*
X29372800Y44086800D02*
X28087400Y45372200D01*
X33578800Y44086800D02*
X29372800Y44086800D01*
%TO.N,/1P_DOWN*%
X33803600Y38324800D02*
X33121600Y39006800D01*
X29372800Y39006800D02*
X28087400Y40292200D01*
X33121600Y39006800D02*
X29372800Y39006800D01*
X34340800Y38324800D02*
X33803600Y38324800D01*
%TO.N,/1P_LEFT*%
X34340800Y35824800D02*
X33814400Y35824800D01*
X33121600Y36517600D02*
X29322000Y36517600D01*
X33814400Y35824800D02*
X33121600Y36517600D01*
X29322000Y36517600D02*
X28087400Y37752200D01*
%TO.N,/1P_A*%
X29452400Y28767200D02*
X30627400Y27592200D01*
X24799400Y28767200D02*
X29452400Y28767200D01*
X24358600Y28326400D02*
X24799400Y28767200D01*
%TO.N,/2P_GND*%
X34340800Y16796400D02*
X33742000Y16796400D01*
X29322000Y17975600D02*
X28087400Y19210200D01*
X32562800Y17975600D02*
X29322000Y17975600D01*
X33742000Y16796400D02*
X32562800Y17975600D01*
%TO.N,/2P_UP*%
X29322000Y20515600D02*
X28087400Y21750200D01*
X33121600Y20515600D02*
X29322000Y20515600D01*
X34340800Y19296400D02*
X33121600Y20515600D01*
%TO.N,/2P_LEFT*%
X34340800Y11796400D02*
X33814400Y11796400D01*
X33814400Y11796400D02*
X32766000Y12844800D01*
X32766000Y12844800D02*
X29342000Y12844800D01*
X29342000Y12844800D02*
X28087400Y11590200D01*
%TO.N,/2P_START*%
X33121600Y7764800D02*
X29342000Y7764800D01*
X27805000Y6792600D02*
X28087400Y6510200D01*
X34090000Y6796400D02*
X33121600Y7764800D01*
X29342000Y7764800D02*
X28087400Y6510200D01*
X24333200Y6792600D02*
X27805000Y6792600D01*
X34340800Y6796400D02*
X34090000Y6796400D01*
%TO.N,/2P_SELECT*%
X29342000Y5224800D02*
X28087400Y3970200D01*
X34019200Y5224800D02*
X29342000Y5224800D01*
X34340800Y5546400D02*
X34019200Y5224800D01*
%TO.N,/1P_GND*%
X34340800Y40824800D02*
X33843600Y40824800D01*
X33843600Y40824800D02*
X33121600Y41546800D01*
X29372800Y41546800D02*
X28087400Y42832200D01*
X33121600Y41546800D02*
X29372800Y41546800D01*
%TD*%
%TA.AperFunction,Conductor*%
%TO.N,/GND*%
G36*
X21141308Y46208687D02*
G01*
X21187794Y46156669D01*
X21199480Y46087892D01*
X21172783Y46023440D01*
X21115887Y45983071D01*
X20993157Y45940127D01*
X20993150Y45940124D01*
X20986478Y45937789D01*
X20980492Y45934029D01*
X20980486Y45934025D01*
X20839733Y45845584D01*
X20839726Y45845579D01*
X20833738Y45841816D01*
X20828733Y45836812D01*
X20828729Y45836808D01*
X20711192Y45719271D01*
X20711188Y45719267D01*
X20706184Y45714262D01*
X20702421Y45708274D01*
X20702416Y45708267D01*
X20613975Y45567514D01*
X20613971Y45567508D01*
X20610211Y45561522D01*
X20607876Y45554850D01*
X20607873Y45554843D01*
X20552968Y45397933D01*
X20552966Y45397927D01*
X20550632Y45391255D01*
X20549840Y45384231D01*
X20549840Y45384228D01*
X20545817Y45348520D01*
X20530435Y45212000D01*
X20550632Y45032745D01*
X20552967Y45026072D01*
X20552968Y45026068D01*
X20607873Y44869158D01*
X20607875Y44869154D01*
X20610211Y44862478D01*
X20706184Y44709738D01*
X20833738Y44582184D01*
X20986478Y44486211D01*
X21156745Y44426632D01*
X21336000Y44406435D01*
X21515255Y44426632D01*
X21685522Y44486211D01*
X21838262Y44582184D01*
X21965816Y44709738D01*
X22061789Y44862478D01*
X22107071Y44991888D01*
X22147440Y45048783D01*
X22211892Y45075480D01*
X22280669Y45063794D01*
X22332687Y45017308D01*
X22352000Y44950272D01*
X22352000Y1785728D01*
X22332687Y1718692D01*
X22280669Y1672206D01*
X22211892Y1660520D01*
X22147440Y1687217D01*
X22107071Y1744113D01*
X22065831Y1861969D01*
X22061789Y1873522D01*
X21965816Y2026262D01*
X21838262Y2153816D01*
X21832268Y2157582D01*
X21832266Y2157584D01*
X21691513Y2246025D01*
X21691510Y2246027D01*
X21685522Y2249789D01*
X21678846Y2252125D01*
X21678842Y2252127D01*
X21521932Y2307032D01*
X21521928Y2307033D01*
X21515255Y2309368D01*
X21508228Y2310160D01*
X21508227Y2310160D01*
X21343029Y2328773D01*
X21336000Y2329565D01*
X21328971Y2328773D01*
X21163772Y2310160D01*
X21163769Y2310160D01*
X21156745Y2309368D01*
X21150073Y2307034D01*
X21150067Y2307032D01*
X20993157Y2252127D01*
X20993150Y2252124D01*
X20986478Y2249789D01*
X20980492Y2246029D01*
X20980486Y2246025D01*
X20839733Y2157584D01*
X20839726Y2157579D01*
X20833738Y2153816D01*
X20828733Y2148812D01*
X20828729Y2148808D01*
X20711192Y2031271D01*
X20711188Y2031267D01*
X20706184Y2026262D01*
X20702421Y2020274D01*
X20702416Y2020267D01*
X20613975Y1879514D01*
X20613971Y1879508D01*
X20610211Y1873522D01*
X20607876Y1866850D01*
X20607873Y1866843D01*
X20552968Y1709933D01*
X20552966Y1709927D01*
X20550632Y1703255D01*
X20549840Y1696231D01*
X20549840Y1696228D01*
X20545817Y1660520D01*
X20530435Y1524000D01*
X20550632Y1344745D01*
X20552967Y1338072D01*
X20552968Y1338068D01*
X20607873Y1181158D01*
X20607875Y1181154D01*
X20610211Y1174478D01*
X20706184Y1021738D01*
X20833738Y894184D01*
X20986478Y798211D01*
X20993157Y795874D01*
X21115887Y752929D01*
X21172783Y712560D01*
X21199480Y648108D01*
X21187794Y579331D01*
X21141308Y527313D01*
X21074272Y508000D01*
X1785728Y508000D01*
X1718692Y527313D01*
X1672206Y579331D01*
X1660520Y648108D01*
X1687217Y712560D01*
X1744113Y752929D01*
X1873522Y798211D01*
X2026262Y894184D01*
X2153816Y1021738D01*
X2249789Y1174478D01*
X2309368Y1344745D01*
X2329565Y1524000D01*
X2309368Y1703255D01*
X2249789Y1873522D01*
X2153816Y2026262D01*
X2026262Y2153816D01*
X2020268Y2157582D01*
X2020266Y2157584D01*
X1879513Y2246025D01*
X1879510Y2246027D01*
X1873522Y2249789D01*
X1866846Y2252125D01*
X1866842Y2252127D01*
X1709932Y2307032D01*
X1709928Y2307033D01*
X1703255Y2309368D01*
X1696228Y2310160D01*
X1696227Y2310160D01*
X1531029Y2328773D01*
X1524000Y2329565D01*
X1516971Y2328773D01*
X1351772Y2310160D01*
X1351769Y2310160D01*
X1344745Y2309368D01*
X1338073Y2307034D01*
X1338067Y2307032D01*
X1181157Y2252127D01*
X1181150Y2252124D01*
X1174478Y2249789D01*
X1168492Y2246029D01*
X1168486Y2246025D01*
X1027733Y2157584D01*
X1027726Y2157579D01*
X1021738Y2153816D01*
X1016733Y2148812D01*
X1016729Y2148808D01*
X899192Y2031271D01*
X899188Y2031267D01*
X894184Y2026262D01*
X890421Y2020274D01*
X890416Y2020267D01*
X801978Y1879518D01*
X801976Y1879515D01*
X798211Y1873522D01*
X797205Y1870648D01*
X754214Y1821440D01*
X690454Y1800722D01*
X625093Y1815640D01*
X576636Y1861969D01*
X558800Y1926595D01*
X558800Y5075430D01*
X2485429Y5075430D01*
X2487110Y5067526D01*
X2491166Y5055040D01*
X2563432Y4892730D01*
X2569998Y4881358D01*
X2674424Y4737627D01*
X2683215Y4727863D01*
X2815242Y4608986D01*
X2825873Y4601263D01*
X2979726Y4512436D01*
X2991733Y4507089D01*
X3160698Y4452189D01*
X3173539Y4449460D01*
X3305937Y4435544D01*
X3312498Y4435200D01*
X3336210Y4435200D01*
X3349293Y4438707D01*
X3352800Y4451790D01*
X3860800Y4451790D01*
X3864306Y4438707D01*
X3877390Y4435200D01*
X3901102Y4435200D01*
X3907662Y4435544D01*
X4040060Y4449460D01*
X4052901Y4452189D01*
X4221866Y4507089D01*
X4233873Y4512436D01*
X4387726Y4601263D01*
X4398357Y4608986D01*
X4530384Y4727863D01*
X4539175Y4737627D01*
X4643601Y4881358D01*
X4650167Y4892730D01*
X4722433Y5055040D01*
X4726489Y5067526D01*
X4728170Y5075430D01*
X4728022Y5086711D01*
X4717021Y5089200D01*
X3877390Y5089200D01*
X3864306Y5085694D01*
X3860800Y5072610D01*
X3860800Y4451790D01*
X3352800Y4451790D01*
X3352800Y5072610D01*
X3349293Y5085694D01*
X3336210Y5089200D01*
X2496579Y5089200D01*
X2485577Y5086711D01*
X2485429Y5075430D01*
X558800Y5075430D01*
X558800Y5280635D01*
X13855951Y5280635D01*
X13856186Y5269257D01*
X13899100Y5099792D01*
X13902470Y5089977D01*
X13988688Y4893422D01*
X13993631Y4884287D01*
X14111022Y4704607D01*
X14117410Y4696401D01*
X14262767Y4538500D01*
X14270411Y4531463D01*
X14439788Y4399632D01*
X14448481Y4393953D01*
X14637242Y4291800D01*
X14646759Y4287625D01*
X14849757Y4217936D01*
X14859827Y4215386D01*
X14921661Y4205068D01*
X14932798Y4205644D01*
X14935200Y4216536D01*
X15443200Y4216536D01*
X15445601Y4205644D01*
X15456738Y4205068D01*
X15518572Y4215386D01*
X15528642Y4217936D01*
X15731640Y4287625D01*
X15741157Y4291800D01*
X15929918Y4393953D01*
X15938611Y4399632D01*
X16107988Y4531463D01*
X16115632Y4538500D01*
X16260989Y4696401D01*
X16267377Y4704607D01*
X16384768Y4884287D01*
X16389711Y4893422D01*
X16475929Y5089977D01*
X16479299Y5099792D01*
X16522213Y5269257D01*
X16522448Y5280635D01*
X16511360Y5283200D01*
X15459790Y5283200D01*
X15446706Y5279694D01*
X15443200Y5266610D01*
X15443200Y4216536D01*
X14935200Y4216536D01*
X14935200Y5266610D01*
X14931693Y5279694D01*
X14918610Y5283200D01*
X13867040Y5283200D01*
X13855951Y5280635D01*
X558800Y5280635D01*
X558800Y9360406D01*
X2449706Y9360406D01*
X2452306Y9350707D01*
X2465390Y9347200D01*
X3336210Y9347200D01*
X3349293Y9350707D01*
X3352800Y9363790D01*
X3860800Y9363790D01*
X3864306Y9350707D01*
X3877390Y9347200D01*
X4748209Y9347200D01*
X4761292Y9350707D01*
X4763892Y9360406D01*
X4758921Y9415113D01*
X4756333Y9428127D01*
X4709432Y9578635D01*
X4703225Y9592426D01*
X4622162Y9726521D01*
X4612826Y9738437D01*
X4502036Y9849227D01*
X4490120Y9858563D01*
X4356025Y9939626D01*
X4342234Y9945833D01*
X4191718Y9992736D01*
X4178721Y9995322D01*
X4116874Y10000942D01*
X4111163Y10001200D01*
X3877390Y10001200D01*
X3864306Y9997694D01*
X3860800Y9984610D01*
X3860800Y9363790D01*
X3352800Y9363790D01*
X3352800Y9984609D01*
X3349293Y9997693D01*
X3336210Y10001199D01*
X3102439Y10001199D01*
X3096722Y10000940D01*
X3034887Y9995322D01*
X3021873Y9992734D01*
X2871365Y9945833D01*
X2857574Y9939626D01*
X2723479Y9858563D01*
X2711563Y9849227D01*
X2600773Y9738437D01*
X2591437Y9726521D01*
X2510374Y9592426D01*
X2504167Y9578635D01*
X2457264Y9428119D01*
X2454678Y9415122D01*
X2449706Y9360406D01*
X558800Y9360406D01*
X558800Y10259035D01*
X6388351Y10259035D01*
X6388586Y10247657D01*
X6431500Y10078192D01*
X6434870Y10068377D01*
X6521088Y9871822D01*
X6526031Y9862687D01*
X6643422Y9683007D01*
X6649810Y9674801D01*
X6795167Y9516900D01*
X6802811Y9509863D01*
X6972188Y9378032D01*
X6980881Y9372353D01*
X7169642Y9270200D01*
X7179159Y9266025D01*
X7382157Y9196336D01*
X7392227Y9193786D01*
X7454061Y9183468D01*
X7465198Y9184044D01*
X7467600Y9194936D01*
X7467600Y10245010D01*
X7464093Y10258094D01*
X7451010Y10261600D01*
X6399440Y10261600D01*
X6388351Y10259035D01*
X558800Y10259035D01*
X558800Y12915430D01*
X2485429Y12915430D01*
X2487110Y12907526D01*
X2491166Y12895040D01*
X2563432Y12732730D01*
X2569998Y12721358D01*
X2674424Y12577627D01*
X2683215Y12567863D01*
X2815242Y12448986D01*
X2825873Y12441263D01*
X2979726Y12352436D01*
X2991733Y12347089D01*
X3160698Y12292189D01*
X3173539Y12289460D01*
X3305937Y12275544D01*
X3312498Y12275200D01*
X3336210Y12275200D01*
X3349293Y12278707D01*
X3352800Y12291790D01*
X3860800Y12291790D01*
X3864306Y12278707D01*
X3877390Y12275200D01*
X3901102Y12275200D01*
X3907662Y12275544D01*
X4040060Y12289460D01*
X4052901Y12292189D01*
X4221866Y12347089D01*
X4233873Y12352436D01*
X4387726Y12441263D01*
X4398357Y12448986D01*
X4530384Y12567863D01*
X4539175Y12577627D01*
X4643601Y12721358D01*
X4650167Y12732730D01*
X4722433Y12895040D01*
X4726489Y12907526D01*
X4728170Y12915430D01*
X4728022Y12926711D01*
X4717021Y12929200D01*
X3877390Y12929200D01*
X3864306Y12925694D01*
X3860800Y12912610D01*
X3860800Y12291790D01*
X3352800Y12291790D01*
X3352800Y12912610D01*
X3349293Y12925694D01*
X3336210Y12929200D01*
X2496579Y12929200D01*
X2485577Y12926711D01*
X2485429Y12915430D01*
X558800Y12915430D01*
X558800Y36342057D01*
X1393780Y36342057D01*
X1394525Y36334174D01*
X1394525Y36334166D01*
X1397941Y36298039D01*
X1398500Y36286181D01*
X1398500Y28069567D01*
X1397972Y28058384D01*
X1396298Y28050891D01*
X1396547Y28042967D01*
X1396547Y28042965D01*
X1398438Y27982814D01*
X1398500Y27978855D01*
X1398500Y27950944D01*
X1398995Y27947026D01*
X1398997Y27946994D01*
X1399008Y27946912D01*
X1399937Y27935103D01*
X1401077Y27898831D01*
X1401078Y27898824D01*
X1401327Y27890911D01*
X1403537Y27883302D01*
X1403538Y27883300D01*
X1406978Y27871458D01*
X1410986Y27852107D01*
X1413526Y27832003D01*
X1416444Y27824631D01*
X1416445Y27824630D01*
X1429800Y27790899D01*
X1433645Y27779670D01*
X1443771Y27744814D01*
X1443773Y27744808D01*
X1445982Y27737207D01*
X1450014Y27730389D01*
X1450015Y27730387D01*
X1456293Y27719771D01*
X1464990Y27702018D01*
X1472448Y27683183D01*
X1477107Y27676770D01*
X1477108Y27676769D01*
X1498432Y27647419D01*
X1504948Y27637499D01*
X1523422Y27606262D01*
X1527458Y27599438D01*
X1533062Y27593834D01*
X1533063Y27593833D01*
X1541778Y27585118D01*
X1554618Y27570085D01*
X1566528Y27553693D01*
X1572635Y27548641D01*
X1572636Y27548640D01*
X1600598Y27525508D01*
X1609378Y27517518D01*
X2481139Y26645757D01*
X2507151Y26607911D01*
X2565682Y26476448D01*
X2634115Y26382259D01*
X2655423Y26334399D01*
X2655424Y26282005D01*
X2634113Y26234140D01*
X2569563Y26145295D01*
X2569559Y26145289D01*
X2565682Y26139952D01*
X2488006Y25965488D01*
X2486635Y25959039D01*
X2486633Y25959032D01*
X2458327Y25825861D01*
X2448300Y25778687D01*
X2448300Y25587713D01*
X2449671Y25581260D01*
X2449672Y25581257D01*
X2486633Y25407369D01*
X2486634Y25407365D01*
X2488006Y25400912D01*
X2565682Y25226448D01*
X2634115Y25132259D01*
X2655423Y25084399D01*
X2655424Y25032005D01*
X2634113Y24984140D01*
X2569563Y24895295D01*
X2569559Y24895289D01*
X2565682Y24889952D01*
X2562998Y24883925D01*
X2562997Y24883922D01*
X2547196Y24848432D01*
X2488006Y24715488D01*
X2486635Y24709039D01*
X2486633Y24709032D01*
X2449672Y24535144D01*
X2448300Y24528687D01*
X2448300Y24337713D01*
X2449671Y24331260D01*
X2449672Y24331257D01*
X2486633Y24157369D01*
X2486634Y24157365D01*
X2488006Y24150912D01*
X2565682Y23976448D01*
X2634115Y23882259D01*
X2655423Y23834399D01*
X2655424Y23782005D01*
X2634113Y23734140D01*
X2569563Y23645295D01*
X2569559Y23645289D01*
X2565682Y23639952D01*
X2562998Y23633925D01*
X2562997Y23633922D01*
X2508712Y23511995D01*
X2488006Y23465488D01*
X2486635Y23459039D01*
X2486633Y23459032D01*
X2454650Y23308563D01*
X2448300Y23278687D01*
X2448300Y23087713D01*
X2449671Y23081260D01*
X2449672Y23081257D01*
X2486633Y22907369D01*
X2486634Y22907365D01*
X2488006Y22900912D01*
X2565682Y22726448D01*
X2634115Y22632259D01*
X2655423Y22584399D01*
X2655424Y22532005D01*
X2634113Y22484140D01*
X2569563Y22395295D01*
X2569559Y22395289D01*
X2565682Y22389952D01*
X2562998Y22383925D01*
X2562997Y22383922D01*
X2540917Y22334329D01*
X2488006Y22215488D01*
X2486635Y22209039D01*
X2486633Y22209032D01*
X2456531Y22067411D01*
X2448300Y22028687D01*
X2448300Y21837713D01*
X2449671Y21831260D01*
X2449672Y21831257D01*
X2486633Y21657369D01*
X2486634Y21657365D01*
X2488006Y21650912D01*
X2565682Y21476448D01*
X2634115Y21382259D01*
X2655423Y21334399D01*
X2655424Y21282005D01*
X2634113Y21234140D01*
X2569563Y21145295D01*
X2569559Y21145289D01*
X2565682Y21139952D01*
X2562998Y21133925D01*
X2562997Y21133922D01*
X2526687Y21052368D01*
X2488006Y20965488D01*
X2486635Y20959039D01*
X2486633Y20959032D01*
X2453323Y20802319D01*
X2448300Y20778687D01*
X2448300Y20587713D01*
X2449671Y20581260D01*
X2449672Y20581257D01*
X2486633Y20407369D01*
X2486634Y20407365D01*
X2488006Y20400912D01*
X2565682Y20226448D01*
X2634115Y20132259D01*
X2655423Y20084399D01*
X2655424Y20032005D01*
X2634113Y19984140D01*
X2569563Y19895295D01*
X2569559Y19895289D01*
X2565682Y19889952D01*
X2562998Y19883925D01*
X2562997Y19883922D01*
X2494194Y19729387D01*
X2488006Y19715488D01*
X2486635Y19709039D01*
X2486633Y19709032D01*
X2449927Y19536342D01*
X2448300Y19528687D01*
X2448300Y19337713D01*
X2449671Y19331260D01*
X2449672Y19331257D01*
X2486633Y19157369D01*
X2486634Y19157365D01*
X2488006Y19150912D01*
X2565682Y18976448D01*
X2634115Y18882259D01*
X2655423Y18834399D01*
X2655424Y18782005D01*
X2634113Y18734140D01*
X2569563Y18645295D01*
X2569559Y18645289D01*
X2565682Y18639952D01*
X2562998Y18633925D01*
X2562997Y18633922D01*
X2518465Y18533900D01*
X2488006Y18465488D01*
X2486635Y18459039D01*
X2486633Y18459032D01*
X2449672Y18285144D01*
X2448300Y18278687D01*
X2448300Y18087713D01*
X2449671Y18081260D01*
X2449672Y18081257D01*
X2486633Y17907369D01*
X2486634Y17907365D01*
X2488006Y17900912D01*
X2565682Y17726448D01*
X2618535Y17653702D01*
X2634113Y17632261D01*
X2655424Y17584397D01*
X2655424Y17532003D01*
X2634113Y17484139D01*
X2576104Y17404296D01*
X2565682Y17389952D01*
X2488006Y17215488D01*
X2486635Y17209039D01*
X2486633Y17209032D01*
X2449672Y17035144D01*
X2448300Y17028687D01*
X2448300Y16837713D01*
X2449671Y16831260D01*
X2449672Y16831257D01*
X2486633Y16657369D01*
X2486634Y16657365D01*
X2488006Y16650912D01*
X2565682Y16476448D01*
X2620653Y16400786D01*
X2634113Y16382261D01*
X2655424Y16334397D01*
X2655424Y16282003D01*
X2634113Y16234139D01*
X2598815Y16185555D01*
X2565682Y16139952D01*
X2562998Y16133925D01*
X2562997Y16133922D01*
X2491069Y15972368D01*
X2488006Y15965488D01*
X2486635Y15959039D01*
X2486633Y15959032D01*
X2478670Y15921568D01*
X2448300Y15778687D01*
X2448300Y15587713D01*
X2449671Y15581260D01*
X2449672Y15581257D01*
X2486633Y15407369D01*
X2486634Y15407365D01*
X2488006Y15400912D01*
X2565682Y15226448D01*
X2576439Y15211643D01*
X2634113Y15132261D01*
X2655424Y15084397D01*
X2655424Y15032003D01*
X2634113Y14984139D01*
X2573702Y14900990D01*
X2565682Y14889952D01*
X2562998Y14883925D01*
X2562997Y14883922D01*
X2501201Y14745125D01*
X2488006Y14715488D01*
X2486635Y14709039D01*
X2486633Y14709032D01*
X2449672Y14535144D01*
X2448300Y14528687D01*
X2448300Y14337713D01*
X2449671Y14331260D01*
X2449672Y14331257D01*
X2486633Y14157369D01*
X2486634Y14157365D01*
X2488006Y14150912D01*
X2565682Y13976448D01*
X2607822Y13918448D01*
X2634421Y13881837D01*
X2655732Y13833973D01*
X2655732Y13781580D01*
X2634422Y13733716D01*
X2569997Y13645042D01*
X2563432Y13633671D01*
X2491166Y13471361D01*
X2487110Y13458875D01*
X2485429Y13450971D01*
X2485577Y13439690D01*
X2496579Y13437200D01*
X4717021Y13437200D01*
X4728022Y13439690D01*
X4728170Y13450971D01*
X4726489Y13458875D01*
X4722433Y13471361D01*
X4650167Y13633671D01*
X4643601Y13645043D01*
X4579178Y13733715D01*
X4557867Y13781580D01*
X4557868Y13833974D01*
X4579175Y13881833D01*
X4647918Y13976448D01*
X4725594Y14150912D01*
X4765300Y14337713D01*
X4765300Y14528687D01*
X4725594Y14715488D01*
X4647918Y14889952D01*
X4579483Y14984144D01*
X4558175Y15032003D01*
X4558175Y15084397D01*
X4579483Y15132257D01*
X4647918Y15226448D01*
X4725594Y15400912D01*
X4765300Y15587713D01*
X4765300Y15778687D01*
X4725594Y15965488D01*
X4647918Y16139952D01*
X4579483Y16234144D01*
X4558175Y16282003D01*
X4558175Y16334397D01*
X4579483Y16382257D01*
X4647918Y16476448D01*
X4725594Y16650912D01*
X4765300Y16837713D01*
X4765300Y17028687D01*
X4725594Y17215488D01*
X4647918Y17389952D01*
X4579483Y17484144D01*
X4558175Y17532003D01*
X4558175Y17584397D01*
X4579483Y17632257D01*
X4647918Y17726448D01*
X4725594Y17900912D01*
X4765300Y18087713D01*
X4765300Y18278687D01*
X4725594Y18465488D01*
X4647918Y18639952D01*
X4579483Y18734144D01*
X4558175Y18782003D01*
X4558175Y18834397D01*
X4579483Y18882257D01*
X4647918Y18976448D01*
X4725594Y19150912D01*
X4752190Y19276035D01*
X6388351Y19276035D01*
X6388586Y19264657D01*
X6431500Y19095192D01*
X6434870Y19085377D01*
X6521088Y18888822D01*
X6526031Y18879687D01*
X6643422Y18700007D01*
X6649810Y18691801D01*
X6795167Y18533900D01*
X6802811Y18526863D01*
X6972188Y18395032D01*
X6980881Y18389353D01*
X7169642Y18287200D01*
X7179159Y18283025D01*
X7382157Y18213336D01*
X7392227Y18210786D01*
X7454061Y18200468D01*
X7465198Y18201044D01*
X7467600Y18211936D01*
X7975600Y18211936D01*
X7978001Y18201044D01*
X7989138Y18200468D01*
X8050972Y18210786D01*
X8061042Y18213336D01*
X8264040Y18283025D01*
X8273557Y18287200D01*
X8462318Y18389353D01*
X8471011Y18395032D01*
X8640388Y18526863D01*
X8648032Y18533900D01*
X8793389Y18691801D01*
X8799777Y18700007D01*
X8917168Y18879687D01*
X8922111Y18888822D01*
X9008329Y19085377D01*
X9011699Y19095192D01*
X9054613Y19264657D01*
X9054848Y19276035D01*
X9043760Y19278600D01*
X7992190Y19278600D01*
X7979106Y19275094D01*
X7975600Y19262010D01*
X7975600Y18211936D01*
X7467600Y18211936D01*
X7467600Y19262010D01*
X7464093Y19275094D01*
X7451010Y19278600D01*
X6399440Y19278600D01*
X6388351Y19276035D01*
X4752190Y19276035D01*
X4765300Y19337713D01*
X4765300Y19528687D01*
X4725594Y19715488D01*
X4647918Y19889952D01*
X4579483Y19984144D01*
X4558175Y20032003D01*
X4558175Y20084397D01*
X4579483Y20132257D01*
X4647918Y20226448D01*
X4725594Y20400912D01*
X4765300Y20587713D01*
X4765300Y20778687D01*
X4725594Y20965488D01*
X4647918Y21139952D01*
X4579483Y21234144D01*
X4558175Y21282003D01*
X4558175Y21334397D01*
X4579483Y21382257D01*
X4647918Y21476448D01*
X4725594Y21650912D01*
X4765300Y21837713D01*
X4765300Y22028687D01*
X4725594Y22215488D01*
X4655710Y22372451D01*
X4645205Y22433586D01*
X4665145Y22492325D01*
X4710695Y22534431D01*
X4770817Y22549700D01*
X6279151Y22549700D01*
X6334490Y22536897D01*
X6378583Y22501091D01*
X6402469Y22449557D01*
X6401295Y22392769D01*
X6378316Y22302030D01*
X6378312Y22302009D01*
X6377036Y22296968D01*
X6376606Y22291786D01*
X6376605Y22291776D01*
X6362343Y22119658D01*
X6358444Y22072600D01*
X6358874Y22067411D01*
X6371487Y21915188D01*
X6377036Y21848232D01*
X6432304Y21629984D01*
X6434397Y21625211D01*
X6434399Y21625207D01*
X6468233Y21548073D01*
X6522740Y21423809D01*
X6645878Y21235332D01*
X6649406Y21231500D01*
X6794827Y21073531D01*
X6794831Y21073527D01*
X6798360Y21069694D01*
X6976024Y20931411D01*
X6980600Y20928935D01*
X6980604Y20928932D01*
X6991182Y20923208D01*
X7009805Y20913130D01*
X7058076Y20866816D01*
X7075837Y20802319D01*
X7058079Y20737821D01*
X7009809Y20691504D01*
X6980885Y20675851D01*
X6972188Y20670169D01*
X6802811Y20538338D01*
X6795167Y20531301D01*
X6649810Y20373400D01*
X6643422Y20365194D01*
X6526031Y20185514D01*
X6521088Y20176379D01*
X6434870Y19979824D01*
X6431500Y19970009D01*
X6388586Y19800544D01*
X6388351Y19789166D01*
X6399440Y19786600D01*
X9043760Y19786600D01*
X9054848Y19789166D01*
X9054613Y19800544D01*
X9011699Y19970009D01*
X9008329Y19979824D01*
X8922111Y20176379D01*
X8917168Y20185514D01*
X8799777Y20365194D01*
X8793389Y20373400D01*
X8648032Y20531301D01*
X8640388Y20538338D01*
X8471011Y20670169D01*
X8462313Y20675851D01*
X8433392Y20691503D01*
X8385120Y20737820D01*
X8367362Y20802319D01*
X8385123Y20866816D01*
X8433391Y20913128D01*
X8467176Y20931411D01*
X8644840Y21069694D01*
X8797322Y21235332D01*
X8920460Y21423809D01*
X9010896Y21629984D01*
X9066164Y21848232D01*
X9084756Y22072600D01*
X9066164Y22296968D01*
X9010896Y22515216D01*
X8920460Y22721391D01*
X8797322Y22909868D01*
X8654125Y23065420D01*
X8624888Y23119024D01*
X8624285Y23180080D01*
X8652459Y23234250D01*
X8702791Y23268814D01*
X8817804Y23311711D01*
X8934861Y23399339D01*
X9022489Y23516396D01*
X9073589Y23653399D01*
X9080100Y23713962D01*
X9080100Y23853100D01*
X9096981Y23916100D01*
X9143100Y23962219D01*
X9206100Y23979100D01*
X10531205Y23979100D01*
X10579423Y23969509D01*
X10620301Y23942195D01*
X11013596Y23548899D01*
X11040909Y23508022D01*
X11050500Y23459804D01*
X11050500Y8989436D01*
X11035231Y8929314D01*
X10993125Y8883764D01*
X10934386Y8863824D01*
X10873251Y8874329D01*
X10712288Y8945994D01*
X10705835Y8947366D01*
X10705831Y8947367D01*
X10531943Y8984328D01*
X10531940Y8984329D01*
X10525487Y8985700D01*
X10518884Y8985700D01*
X10469595Y8985700D01*
X10421377Y8995291D01*
X10380500Y9022605D01*
X10068405Y9334700D01*
X10041091Y9375577D01*
X10031500Y9423795D01*
X10031500Y13840432D01*
X10032027Y13851616D01*
X10033702Y13859108D01*
X10031561Y13927199D01*
X10031500Y13931156D01*
X10031500Y13955091D01*
X10031500Y13959056D01*
X10030995Y13963048D01*
X10030062Y13974895D01*
X10028674Y14019089D01*
X10023017Y14038558D01*
X10019013Y14057898D01*
X10016474Y14077997D01*
X10000200Y14119101D01*
X9996356Y14130328D01*
X9986230Y14165183D01*
X9986229Y14165184D01*
X9984019Y14172793D01*
X9973703Y14190236D01*
X9965005Y14207991D01*
X9957552Y14226817D01*
X9931561Y14262591D01*
X9925055Y14272495D01*
X9902542Y14310562D01*
X9888218Y14324886D01*
X9875382Y14339914D01*
X9863472Y14356307D01*
X9857367Y14361358D01*
X9857360Y14361365D01*
X9829394Y14384500D01*
X9820615Y14392489D01*
X9117005Y15096099D01*
X9089691Y15136976D01*
X9080100Y15185194D01*
X9080100Y16490869D01*
X9080100Y16494238D01*
X9073589Y16554801D01*
X9022489Y16691804D01*
X9016274Y16700106D01*
X8940259Y16801650D01*
X8934861Y16808861D01*
X8904944Y16831257D01*
X8825017Y16891090D01*
X8825014Y16891092D01*
X8817804Y16896489D01*
X8809366Y16899636D01*
X8809363Y16899638D01*
X8688180Y16944837D01*
X8688178Y16944838D01*
X8680801Y16947589D01*
X8672973Y16948431D01*
X8672967Y16948432D01*
X8623588Y16953740D01*
X8623585Y16953741D01*
X8620238Y16954100D01*
X6822962Y16954100D01*
X6819615Y16953741D01*
X6819611Y16953740D01*
X6770232Y16948432D01*
X6770225Y16948431D01*
X6762399Y16947589D01*
X6755023Y16944839D01*
X6755019Y16944837D01*
X6633836Y16899638D01*
X6633830Y16899635D01*
X6625396Y16896489D01*
X6618188Y16891094D01*
X6618182Y16891090D01*
X6515550Y16814260D01*
X6515546Y16814257D01*
X6508339Y16808861D01*
X6502943Y16801654D01*
X6502940Y16801650D01*
X6426110Y16699018D01*
X6426106Y16699012D01*
X6420711Y16691804D01*
X6417565Y16683370D01*
X6417562Y16683364D01*
X6372363Y16562181D01*
X6372361Y16562177D01*
X6369611Y16554801D01*
X6368769Y16546975D01*
X6368768Y16546968D01*
X6366933Y16529893D01*
X6363100Y16494238D01*
X6363100Y14696962D01*
X6363459Y14693615D01*
X6363460Y14693612D01*
X6368768Y14644233D01*
X6368769Y14644227D01*
X6369611Y14636399D01*
X6372362Y14629022D01*
X6372363Y14629020D01*
X6417562Y14507837D01*
X6417564Y14507834D01*
X6420711Y14499396D01*
X6426108Y14492186D01*
X6426110Y14492183D01*
X6426474Y14491697D01*
X6508339Y14382339D01*
X6515550Y14376941D01*
X6617165Y14300872D01*
X6625396Y14294711D01*
X6633835Y14291564D01*
X6633836Y14291563D01*
X6740406Y14251814D01*
X6790740Y14217250D01*
X6818914Y14163080D01*
X6818311Y14102024D01*
X6789074Y14048420D01*
X6649406Y13896701D01*
X6649402Y13896698D01*
X6645878Y13892868D01*
X6643030Y13888510D01*
X6643027Y13888505D01*
X6541898Y13733715D01*
X6522740Y13704391D01*
X6520648Y13699622D01*
X6520646Y13699618D01*
X6434399Y13502994D01*
X6434396Y13502986D01*
X6432304Y13498216D01*
X6431023Y13493160D01*
X6431022Y13493155D01*
X6401449Y13376373D01*
X6377036Y13279968D01*
X6376606Y13274780D01*
X6376605Y13274773D01*
X6367293Y13162389D01*
X6358444Y13055600D01*
X6358874Y13050411D01*
X6375884Y12845128D01*
X6377036Y12831232D01*
X6432304Y12612984D01*
X6434397Y12608211D01*
X6434399Y12608207D01*
X6455432Y12560256D01*
X6522740Y12406809D01*
X6645878Y12218332D01*
X6649406Y12214500D01*
X6794827Y12056531D01*
X6794831Y12056527D01*
X6798360Y12052694D01*
X6976024Y11914411D01*
X6980600Y11911935D01*
X6980604Y11911932D01*
X6986285Y11908858D01*
X7009805Y11896130D01*
X7058076Y11849816D01*
X7075837Y11785319D01*
X7058079Y11720821D01*
X7009809Y11674504D01*
X6980885Y11658851D01*
X6972188Y11653169D01*
X6802811Y11521338D01*
X6795167Y11514301D01*
X6649810Y11356400D01*
X6643422Y11348194D01*
X6526031Y11168514D01*
X6521088Y11159379D01*
X6434870Y10962824D01*
X6431500Y10953009D01*
X6388586Y10783544D01*
X6388351Y10772166D01*
X6399440Y10769600D01*
X7849600Y10769600D01*
X7912600Y10752719D01*
X7958719Y10706600D01*
X7975600Y10643600D01*
X7975600Y9194936D01*
X7978001Y9184044D01*
X7989138Y9183468D01*
X8050972Y9193786D01*
X8061042Y9196336D01*
X8264040Y9266025D01*
X8273557Y9270200D01*
X8462318Y9372353D01*
X8471011Y9378032D01*
X8561109Y9448157D01*
X8625502Y9474053D01*
X8693839Y9461922D01*
X8745385Y9415446D01*
X8764500Y9348725D01*
X8764500Y9187967D01*
X8763972Y9176784D01*
X8762298Y9169291D01*
X8762547Y9161367D01*
X8762547Y9161365D01*
X8764438Y9101214D01*
X8764500Y9097255D01*
X8764500Y9069344D01*
X8764995Y9065426D01*
X8764997Y9065394D01*
X8765008Y9065312D01*
X8765937Y9053503D01*
X8767077Y9017231D01*
X8767078Y9017224D01*
X8767327Y9009311D01*
X8769537Y9001702D01*
X8769538Y9001700D01*
X8772978Y8989858D01*
X8776986Y8970507D01*
X8779526Y8950403D01*
X8782444Y8943031D01*
X8782445Y8943030D01*
X8795800Y8909299D01*
X8799645Y8898070D01*
X8809771Y8863214D01*
X8809773Y8863208D01*
X8811982Y8855607D01*
X8816014Y8848789D01*
X8816015Y8848787D01*
X8822293Y8838171D01*
X8830990Y8820418D01*
X8838448Y8801583D01*
X8843107Y8795170D01*
X8843108Y8795169D01*
X8864432Y8765819D01*
X8870948Y8755899D01*
X8882278Y8736742D01*
X8893458Y8717838D01*
X8899062Y8712234D01*
X8899063Y8712233D01*
X8907778Y8703518D01*
X8920618Y8688485D01*
X8932528Y8672093D01*
X8938635Y8667041D01*
X8938636Y8667040D01*
X8966598Y8643908D01*
X8975378Y8635918D01*
X9482877Y8128419D01*
X9507508Y8093569D01*
X9519092Y8052495D01*
X9535270Y7898574D01*
X9536458Y7887272D01*
X9538495Y7881000D01*
X9538497Y7880995D01*
X9593430Y7711929D01*
X9593433Y7711922D01*
X9595473Y7705644D01*
X9690960Y7540256D01*
X9745927Y7479209D01*
X9783923Y7437010D01*
X9811646Y7386584D01*
X9814055Y7329090D01*
X9790650Y7276520D01*
X9746311Y7239840D01*
X9690287Y7226700D01*
X4770817Y7226700D01*
X4710695Y7241969D01*
X4665145Y7284075D01*
X4645205Y7342814D01*
X4655710Y7403949D01*
X4666600Y7428409D01*
X4725594Y7560912D01*
X4765300Y7747713D01*
X4765300Y7938687D01*
X4725594Y8125488D01*
X4647918Y8299952D01*
X4644038Y8305292D01*
X4644036Y8305296D01*
X4630252Y8324267D01*
X4609728Y8368668D01*
X4607660Y8417538D01*
X4624359Y8463514D01*
X4703225Y8593975D01*
X4709432Y8607766D01*
X4756335Y8758282D01*
X4758921Y8771279D01*
X4763893Y8825995D01*
X4761293Y8835694D01*
X4748210Y8839200D01*
X2465391Y8839200D01*
X2452307Y8835694D01*
X2449707Y8825995D01*
X2454678Y8771288D01*
X2457266Y8758274D01*
X2504167Y8607766D01*
X2510373Y8593977D01*
X2589241Y8463513D01*
X2605939Y8417539D01*
X2603871Y8368669D01*
X2583349Y8324270D01*
X2569565Y8305298D01*
X2569560Y8305291D01*
X2565682Y8299952D01*
X2488006Y8125488D01*
X2486635Y8119039D01*
X2486633Y8119032D01*
X2449672Y7945144D01*
X2448300Y7938687D01*
X2448300Y7747713D01*
X2449671Y7741260D01*
X2449672Y7741257D01*
X2486633Y7567369D01*
X2486634Y7567365D01*
X2488006Y7560912D01*
X2565682Y7386448D01*
X2616763Y7316142D01*
X2634113Y7292261D01*
X2655424Y7244397D01*
X2655424Y7192003D01*
X2634113Y7144139D01*
X2583368Y7074294D01*
X2565682Y7049952D01*
X2562998Y7043925D01*
X2562997Y7043922D01*
X2506814Y6917732D01*
X2488006Y6875488D01*
X2486635Y6869039D01*
X2486633Y6869032D01*
X2449876Y6696103D01*
X2448300Y6688687D01*
X2448300Y6497713D01*
X2449671Y6491260D01*
X2449672Y6491257D01*
X2486633Y6317369D01*
X2486634Y6317365D01*
X2488006Y6310912D01*
X2565682Y6136448D01*
X2598339Y6091500D01*
X2634421Y6041837D01*
X2655732Y5993973D01*
X2655732Y5941580D01*
X2634422Y5893716D01*
X2569997Y5805042D01*
X2563432Y5793671D01*
X2491166Y5631361D01*
X2487110Y5618875D01*
X2485429Y5610971D01*
X2485577Y5599690D01*
X2496579Y5597200D01*
X4717021Y5597200D01*
X4728022Y5599690D01*
X4728170Y5610971D01*
X4726489Y5618875D01*
X4722433Y5631361D01*
X4655163Y5782451D01*
X4644658Y5843586D01*
X4664597Y5902324D01*
X4710148Y5944431D01*
X4770270Y5959700D01*
X10832433Y5959700D01*
X10843616Y5959173D01*
X10851109Y5957498D01*
X10919185Y5959638D01*
X10923145Y5959700D01*
X10947094Y5959700D01*
X10951056Y5959700D01*
X10955056Y5960206D01*
X10966899Y5961139D01*
X11011089Y5962527D01*
X11030533Y5968177D01*
X11049902Y5972188D01*
X11069997Y5974726D01*
X11111115Y5991007D01*
X11122317Y5994843D01*
X11164793Y6007182D01*
X11182239Y6017501D01*
X11199969Y6026187D01*
X11218817Y6033648D01*
X11254587Y6059639D01*
X11264498Y6066149D01*
X11302562Y6088658D01*
X11316888Y6102985D01*
X11331917Y6115822D01*
X11348307Y6127728D01*
X11376494Y6161803D01*
X11384472Y6170570D01*
X12076259Y6862357D01*
X12084533Y6869886D01*
X12091018Y6874000D01*
X12137676Y6923688D01*
X12140368Y6926466D01*
X12160134Y6946230D01*
X12162601Y6949412D01*
X12170310Y6958439D01*
X12200586Y6990679D01*
X12210345Y7008433D01*
X12221199Y7024957D01*
X12233613Y7040959D01*
X12251167Y7081525D01*
X12256392Y7092192D01*
X12267072Y7111617D01*
X12277695Y7130940D01*
X12282732Y7150558D01*
X12289138Y7169270D01*
X12294032Y7180579D01*
X12297181Y7187855D01*
X12304096Y7231523D01*
X12306504Y7243147D01*
X12306825Y7244397D01*
X12317500Y7285970D01*
X12317500Y7306224D01*
X12319051Y7325935D01*
X12320980Y7338115D01*
X12322220Y7345943D01*
X12318058Y7389962D01*
X12317500Y7401819D01*
X12317500Y23695633D01*
X12318027Y23706817D01*
X12319702Y23714309D01*
X12317561Y23782400D01*
X12317500Y23786357D01*
X12317500Y23810291D01*
X12317500Y23814256D01*
X12316995Y23818248D01*
X12316062Y23830095D01*
X12316003Y23831969D01*
X12314674Y23874289D01*
X12309019Y23893753D01*
X12305013Y23913099D01*
X12302474Y23933197D01*
X12286199Y23974302D01*
X12282353Y23985535D01*
X12272229Y24020382D01*
X12270018Y24027993D01*
X12259708Y24045427D01*
X12251007Y24063187D01*
X12243552Y24082017D01*
X12217565Y24117784D01*
X12211047Y24127707D01*
X12192578Y24158937D01*
X12188542Y24165762D01*
X12174217Y24180087D01*
X12161382Y24195114D01*
X12149472Y24211507D01*
X12143367Y24216558D01*
X12143360Y24216565D01*
X12115394Y24239700D01*
X12106615Y24247689D01*
X11349451Y25004853D01*
X11341912Y25013137D01*
X11337800Y25019618D01*
X11288147Y25066245D01*
X11285305Y25069000D01*
X11268374Y25085931D01*
X11265570Y25088735D01*
X11262375Y25091214D01*
X11253354Y25098918D01*
X11226897Y25123762D01*
X11221121Y25129186D01*
X11214177Y25133004D01*
X11214171Y25133008D01*
X11203366Y25138948D01*
X11186847Y25149799D01*
X11170841Y25162214D01*
X11163566Y25165362D01*
X11163563Y25165364D01*
X11130266Y25179772D01*
X11119604Y25184995D01*
X11087807Y25202476D01*
X11087805Y25202477D01*
X11080860Y25206295D01*
X11073183Y25208266D01*
X11073181Y25208267D01*
X11061238Y25211333D01*
X11042534Y25217737D01*
X11031220Y25222633D01*
X11031218Y25222634D01*
X11023945Y25225781D01*
X11016119Y25227021D01*
X11016118Y25227021D01*
X10980275Y25232698D01*
X10968659Y25235104D01*
X10925830Y25246100D01*
X10917901Y25246100D01*
X10905576Y25246100D01*
X10885865Y25247651D01*
X10873685Y25249581D01*
X10873678Y25249582D01*
X10865857Y25250820D01*
X10857973Y25250075D01*
X10857965Y25250075D01*
X10821839Y25246659D01*
X10809981Y25246100D01*
X9206100Y25246100D01*
X9143100Y25262981D01*
X9096981Y25309100D01*
X9080100Y25372100D01*
X9080100Y25507869D01*
X9080100Y25511238D01*
X9073589Y25571801D01*
X9022489Y25708804D01*
X8934861Y25825861D01*
X8899929Y25852011D01*
X8825017Y25908090D01*
X8825014Y25908092D01*
X8817804Y25913489D01*
X8809366Y25916636D01*
X8809363Y25916638D01*
X8688180Y25961837D01*
X8688178Y25961838D01*
X8680801Y25964589D01*
X8672973Y25965431D01*
X8672967Y25965432D01*
X8623588Y25970740D01*
X8623585Y25970741D01*
X8620238Y25971100D01*
X6822962Y25971100D01*
X6819615Y25970741D01*
X6819611Y25970740D01*
X6770232Y25965432D01*
X6770225Y25965431D01*
X6762399Y25964589D01*
X6755023Y25961839D01*
X6755019Y25961837D01*
X6633836Y25916638D01*
X6633830Y25916635D01*
X6625396Y25913489D01*
X6618188Y25908094D01*
X6618182Y25908090D01*
X6515550Y25831260D01*
X6515546Y25831257D01*
X6508339Y25825861D01*
X6502943Y25818654D01*
X6502940Y25818650D01*
X6426110Y25716018D01*
X6426106Y25716012D01*
X6420711Y25708804D01*
X6417565Y25700370D01*
X6417562Y25700364D01*
X6372363Y25579181D01*
X6372361Y25579177D01*
X6369611Y25571801D01*
X6368769Y25563975D01*
X6368768Y25563968D01*
X6363460Y25514589D01*
X6363100Y25511238D01*
X6363100Y25507869D01*
X6363100Y23942700D01*
X6346219Y23879700D01*
X6300100Y23833581D01*
X6237100Y23816700D01*
X4770817Y23816700D01*
X4710695Y23831969D01*
X4665145Y23874075D01*
X4645205Y23932814D01*
X4655710Y23993949D01*
X4660140Y24003900D01*
X4725594Y24150912D01*
X4765300Y24337713D01*
X4765300Y24528687D01*
X4725594Y24715488D01*
X4647918Y24889952D01*
X4579483Y24984144D01*
X4558175Y25032003D01*
X4558175Y25084397D01*
X4579483Y25132257D01*
X4647918Y25226448D01*
X4725594Y25400912D01*
X4765300Y25587713D01*
X4765300Y25778687D01*
X4725594Y25965488D01*
X4647918Y26139952D01*
X4579483Y26234144D01*
X4558175Y26282003D01*
X4558175Y26334397D01*
X4579483Y26382257D01*
X4647918Y26476448D01*
X4725594Y26650912D01*
X4765300Y26837713D01*
X4765300Y27028687D01*
X4725594Y27215488D01*
X4647918Y27389952D01*
X4579483Y27484144D01*
X4558175Y27532003D01*
X4558175Y27584397D01*
X4579483Y27632257D01*
X4647918Y27726448D01*
X4725594Y27900912D01*
X4765300Y28087713D01*
X4765300Y28278687D01*
X4762250Y28293035D01*
X6388351Y28293035D01*
X6388586Y28281657D01*
X6431500Y28112192D01*
X6434870Y28102377D01*
X6521088Y27905822D01*
X6526031Y27896687D01*
X6643422Y27717007D01*
X6649810Y27708801D01*
X6795167Y27550900D01*
X6802811Y27543863D01*
X6972188Y27412032D01*
X6980881Y27406353D01*
X7169642Y27304200D01*
X7179159Y27300025D01*
X7382157Y27230336D01*
X7392227Y27227786D01*
X7454061Y27217468D01*
X7465198Y27218044D01*
X7467600Y27228936D01*
X7975600Y27228936D01*
X7978001Y27218044D01*
X7989138Y27217468D01*
X8050972Y27227786D01*
X8061042Y27230336D01*
X8264040Y27300025D01*
X8273557Y27304200D01*
X8462318Y27406353D01*
X8471011Y27412032D01*
X8640388Y27543863D01*
X8648032Y27550900D01*
X8793389Y27708801D01*
X8799777Y27717007D01*
X8917168Y27896687D01*
X8922111Y27905822D01*
X9008329Y28102377D01*
X9011699Y28112192D01*
X9054613Y28281657D01*
X9054848Y28293035D01*
X9043760Y28295600D01*
X7992190Y28295600D01*
X7979106Y28292094D01*
X7975600Y28279010D01*
X7975600Y27228936D01*
X7467600Y27228936D01*
X7467600Y28279010D01*
X7464093Y28292094D01*
X7451010Y28295600D01*
X6399440Y28295600D01*
X6388351Y28293035D01*
X4762250Y28293035D01*
X4725594Y28465488D01*
X4647918Y28639952D01*
X4579483Y28734144D01*
X4558175Y28782003D01*
X4558175Y28834397D01*
X4579483Y28882257D01*
X4647918Y28976448D01*
X4725594Y29150912D01*
X4765300Y29337713D01*
X4765300Y29528687D01*
X4725594Y29715488D01*
X4647918Y29889952D01*
X4644038Y29895292D01*
X4644036Y29895296D01*
X4630252Y29914267D01*
X4609728Y29958668D01*
X4607660Y30007538D01*
X4624359Y30053514D01*
X4703225Y30183975D01*
X4709432Y30197766D01*
X4756335Y30348282D01*
X4758921Y30361279D01*
X4763893Y30415995D01*
X4761293Y30425694D01*
X4748210Y30429200D01*
X3478800Y30429200D01*
X3415800Y30446081D01*
X3369681Y30492200D01*
X3352800Y30555200D01*
X3352800Y30953790D01*
X3860800Y30953790D01*
X3864306Y30940707D01*
X3877390Y30937200D01*
X4748209Y30937200D01*
X4761292Y30940707D01*
X4763892Y30950406D01*
X4758921Y31005113D01*
X4756333Y31018127D01*
X4709432Y31168635D01*
X4703225Y31182426D01*
X4622162Y31316521D01*
X4612826Y31328437D01*
X4502036Y31439227D01*
X4490120Y31448563D01*
X4356025Y31529626D01*
X4342234Y31535833D01*
X4191718Y31582736D01*
X4178721Y31585322D01*
X4116874Y31590942D01*
X4111163Y31591200D01*
X3877390Y31591200D01*
X3864306Y31587694D01*
X3860800Y31574610D01*
X3860800Y30953790D01*
X3352800Y30953790D01*
X3352800Y31574609D01*
X3349293Y31587693D01*
X3336210Y31591199D01*
X3102439Y31591199D01*
X3096722Y31590940D01*
X3034887Y31585322D01*
X3021873Y31582734D01*
X2871365Y31535833D01*
X2857578Y31529628D01*
X2856686Y31529088D01*
X2855840Y31528846D01*
X2850623Y31526497D01*
X2850283Y31527251D01*
X2793404Y31510930D01*
X2729602Y31527168D01*
X2682700Y31573367D01*
X2665500Y31636916D01*
X2665500Y33979616D01*
X2682381Y34042616D01*
X2728500Y34088735D01*
X2791500Y34105616D01*
X2854500Y34088735D01*
X2979726Y34016436D01*
X2991733Y34011089D01*
X3160698Y33956189D01*
X3173539Y33953460D01*
X3305937Y33939544D01*
X3312498Y33939200D01*
X3336210Y33939200D01*
X3349293Y33942707D01*
X3352800Y33955790D01*
X3860800Y33955790D01*
X3864306Y33942707D01*
X3877390Y33939200D01*
X3901102Y33939200D01*
X3907662Y33939544D01*
X4040060Y33953460D01*
X4052901Y33956189D01*
X4221866Y34011089D01*
X4233873Y34016436D01*
X4387726Y34105263D01*
X4398357Y34112986D01*
X4530384Y34231863D01*
X4539175Y34241627D01*
X4643601Y34385358D01*
X4650167Y34396730D01*
X4722433Y34559040D01*
X4726489Y34571526D01*
X4728170Y34579430D01*
X4728022Y34590711D01*
X4717021Y34593200D01*
X3877390Y34593200D01*
X3864306Y34589694D01*
X3860800Y34576610D01*
X3860800Y33955790D01*
X3352800Y33955790D01*
X3352800Y34975200D01*
X3369681Y35038200D01*
X3415800Y35084319D01*
X3478800Y35101200D01*
X4717021Y35101200D01*
X4728022Y35103690D01*
X4728170Y35114971D01*
X4726489Y35122875D01*
X4722433Y35135361D01*
X4655163Y35286451D01*
X4644658Y35347586D01*
X4664597Y35406324D01*
X4710148Y35448431D01*
X4770270Y35463700D01*
X4939406Y35463700D01*
X4987624Y35454109D01*
X5028501Y35426795D01*
X6326195Y34129101D01*
X6353509Y34088224D01*
X6363100Y34040006D01*
X6363100Y32730962D01*
X6363459Y32727615D01*
X6363460Y32727612D01*
X6368768Y32678233D01*
X6368769Y32678227D01*
X6369611Y32670399D01*
X6372362Y32663022D01*
X6372363Y32663020D01*
X6417562Y32541837D01*
X6417564Y32541834D01*
X6420711Y32533396D01*
X6426108Y32526186D01*
X6426110Y32526183D01*
X6502940Y32423551D01*
X6508339Y32416339D01*
X6625396Y32328711D01*
X6633835Y32325564D01*
X6633836Y32325563D01*
X6740406Y32285814D01*
X6790740Y32251250D01*
X6818914Y32197080D01*
X6818311Y32136024D01*
X6789074Y32082420D01*
X6649406Y31930701D01*
X6649402Y31930698D01*
X6645878Y31926868D01*
X6643030Y31922510D01*
X6643027Y31922505D01*
X6525592Y31742757D01*
X6522740Y31738391D01*
X6520648Y31733622D01*
X6520646Y31733618D01*
X6434399Y31536994D01*
X6434396Y31536986D01*
X6432304Y31532216D01*
X6431026Y31527168D01*
X6431022Y31527155D01*
X6417449Y31473557D01*
X6377036Y31313968D01*
X6376606Y31308780D01*
X6376605Y31308773D01*
X6363977Y31156373D01*
X6358444Y31089600D01*
X6358874Y31084411D01*
X6369697Y30953790D01*
X6377036Y30865232D01*
X6432304Y30646984D01*
X6434397Y30642211D01*
X6434399Y30642207D01*
X6478965Y30540607D01*
X6522740Y30440809D01*
X6645878Y30252332D01*
X6649406Y30248500D01*
X6794827Y30090531D01*
X6794831Y30090527D01*
X6798360Y30086694D01*
X6976024Y29948411D01*
X6980600Y29945935D01*
X6980604Y29945932D01*
X6989870Y29940918D01*
X7009805Y29930130D01*
X7058076Y29883816D01*
X7075837Y29819319D01*
X7058079Y29754821D01*
X7009809Y29708504D01*
X6980885Y29692851D01*
X6972188Y29687169D01*
X6802811Y29555338D01*
X6795167Y29548301D01*
X6649810Y29390400D01*
X6643422Y29382194D01*
X6526031Y29202514D01*
X6521088Y29193379D01*
X6434870Y28996824D01*
X6431500Y28987009D01*
X6388586Y28817544D01*
X6388351Y28806166D01*
X6399440Y28803600D01*
X9043760Y28803600D01*
X9054848Y28806166D01*
X9054613Y28817544D01*
X9011699Y28987009D01*
X9008329Y28996824D01*
X8922111Y29193379D01*
X8917168Y29202514D01*
X8799777Y29382194D01*
X8793389Y29390400D01*
X8648032Y29548301D01*
X8640388Y29555338D01*
X8471011Y29687169D01*
X8462313Y29692851D01*
X8433392Y29708503D01*
X8385120Y29754820D01*
X8367362Y29819319D01*
X8385123Y29883816D01*
X8433391Y29930128D01*
X8467176Y29948411D01*
X8644840Y30086694D01*
X8797322Y30252332D01*
X8920460Y30440809D01*
X9010896Y30646984D01*
X9066164Y30865232D01*
X9084756Y31089600D01*
X9066164Y31313968D01*
X9010896Y31532216D01*
X8984560Y31592257D01*
X12798380Y31592257D01*
X12799125Y31584374D01*
X12799125Y31584366D01*
X12802541Y31548239D01*
X12803100Y31536381D01*
X12803100Y20068567D01*
X12802572Y20057384D01*
X12800898Y20049891D01*
X12801147Y20041967D01*
X12801147Y20041965D01*
X12803038Y19981814D01*
X12803100Y19977855D01*
X12803100Y19949944D01*
X12803595Y19946026D01*
X12803597Y19945994D01*
X12803608Y19945912D01*
X12804537Y19934103D01*
X12805677Y19897831D01*
X12805678Y19897824D01*
X12805927Y19889911D01*
X12808137Y19882302D01*
X12808138Y19882300D01*
X12811578Y19870458D01*
X12815586Y19851107D01*
X12818126Y19831003D01*
X12821044Y19823631D01*
X12821045Y19823630D01*
X12834400Y19789899D01*
X12838245Y19778670D01*
X12848371Y19743814D01*
X12848373Y19743808D01*
X12850582Y19736207D01*
X12854614Y19729389D01*
X12854615Y19729387D01*
X12860893Y19718771D01*
X12869590Y19701018D01*
X12873947Y19690013D01*
X12877048Y19682183D01*
X12881707Y19675770D01*
X12881708Y19675769D01*
X12903032Y19646419D01*
X12909548Y19636499D01*
X12928022Y19605262D01*
X12932058Y19598438D01*
X12937663Y19592833D01*
X12946378Y19584118D01*
X12959218Y19569085D01*
X12971128Y19552693D01*
X12977235Y19547641D01*
X12977236Y19547640D01*
X13005198Y19524508D01*
X13013978Y19516518D01*
X13839332Y18691164D01*
X13871716Y18635518D01*
X13872382Y18571139D01*
X13845915Y18466622D01*
X13845913Y18466613D01*
X13844636Y18461568D01*
X13844206Y18456386D01*
X13844205Y18456376D01*
X13830187Y18287200D01*
X13826044Y18237200D01*
X13844636Y18012832D01*
X13845917Y18007774D01*
X13895527Y17811866D01*
X13899904Y17794584D01*
X13901997Y17789811D01*
X13901999Y17789807D01*
X13971104Y17632262D01*
X13990340Y17588409D01*
X14113478Y17399932D01*
X14163927Y17345131D01*
X14262427Y17238131D01*
X14262431Y17238127D01*
X14265960Y17234294D01*
X14443624Y17096011D01*
X14448202Y17093534D01*
X14448209Y17093529D01*
X14476880Y17078013D01*
X14525151Y17031697D01*
X14542910Y16967200D01*
X14525151Y16902703D01*
X14476880Y16856387D01*
X14448209Y16840872D01*
X14448193Y16840862D01*
X14443624Y16838389D01*
X14439513Y16835190D01*
X14439511Y16835188D01*
X14270078Y16703312D01*
X14270072Y16703307D01*
X14265960Y16700106D01*
X14262437Y16696281D01*
X14262427Y16696270D01*
X14117006Y16538301D01*
X14117002Y16538298D01*
X14113478Y16534468D01*
X14110630Y16530110D01*
X14110627Y16530105D01*
X13993192Y16350357D01*
X13990340Y16345991D01*
X13988248Y16341222D01*
X13988246Y16341218D01*
X13901999Y16144594D01*
X13901996Y16144586D01*
X13899904Y16139816D01*
X13898623Y16134760D01*
X13898622Y16134755D01*
X13888686Y16095517D01*
X13844636Y15921568D01*
X13844206Y15916380D01*
X13844205Y15916373D01*
X13827109Y15710053D01*
X13826044Y15697200D01*
X13826474Y15692011D01*
X13840845Y15518574D01*
X13844636Y15472832D01*
X13899904Y15254584D01*
X13901997Y15249811D01*
X13901999Y15249807D01*
X13969421Y15096099D01*
X13990340Y15048409D01*
X14113478Y14859932D01*
X14117006Y14856100D01*
X14262427Y14698131D01*
X14262431Y14698127D01*
X14265960Y14694294D01*
X14443624Y14556011D01*
X14448202Y14553534D01*
X14448209Y14553529D01*
X14476880Y14538013D01*
X14525151Y14491697D01*
X14542910Y14427200D01*
X14525151Y14362703D01*
X14476880Y14316387D01*
X14448209Y14300872D01*
X14448193Y14300862D01*
X14443624Y14298389D01*
X14439513Y14295190D01*
X14439511Y14295188D01*
X14270078Y14163312D01*
X14270072Y14163307D01*
X14265960Y14160106D01*
X14262437Y14156281D01*
X14262427Y14156270D01*
X14117006Y13998301D01*
X14117002Y13998298D01*
X14113478Y13994468D01*
X14110630Y13990110D01*
X14110627Y13990105D01*
X13993192Y13810357D01*
X13990340Y13805991D01*
X13988248Y13801222D01*
X13988246Y13801218D01*
X13901999Y13604594D01*
X13901996Y13604586D01*
X13899904Y13599816D01*
X13898623Y13594760D01*
X13898622Y13594755D01*
X13858724Y13437200D01*
X13844636Y13381568D01*
X13844206Y13376380D01*
X13844205Y13376373D01*
X13827109Y13170053D01*
X13826044Y13157200D01*
X13844636Y12932832D01*
X13845917Y12927774D01*
X13898188Y12721358D01*
X13899904Y12714584D01*
X13901997Y12709811D01*
X13901999Y12709807D01*
X13956005Y12586686D01*
X13990340Y12508409D01*
X14113478Y12319932D01*
X14154657Y12275200D01*
X14262427Y12158131D01*
X14262431Y12158127D01*
X14265960Y12154294D01*
X14443624Y12016011D01*
X14448202Y12013534D01*
X14448209Y12013529D01*
X14476880Y11998013D01*
X14525151Y11951697D01*
X14542910Y11887200D01*
X14525151Y11822703D01*
X14476880Y11776387D01*
X14448209Y11760872D01*
X14448193Y11760862D01*
X14443624Y11758389D01*
X14439513Y11755190D01*
X14439511Y11755188D01*
X14270078Y11623312D01*
X14270072Y11623307D01*
X14265960Y11620106D01*
X14262437Y11616281D01*
X14262427Y11616270D01*
X14117006Y11458301D01*
X14117002Y11458298D01*
X14113478Y11454468D01*
X14110630Y11450110D01*
X14110627Y11450105D01*
X13993192Y11270357D01*
X13990340Y11265991D01*
X13988248Y11261222D01*
X13988246Y11261218D01*
X13901999Y11064594D01*
X13901996Y11064586D01*
X13899904Y11059816D01*
X13898623Y11054760D01*
X13898622Y11054755D01*
X13868799Y10936987D01*
X13844636Y10841568D01*
X13844206Y10836380D01*
X13844205Y10836373D01*
X13828232Y10643600D01*
X13826044Y10617200D01*
X13826474Y10612011D01*
X13840845Y10438574D01*
X13844636Y10392832D01*
X13845917Y10387774D01*
X13877868Y10261600D01*
X13899904Y10174584D01*
X13990340Y9968409D01*
X14113478Y9779932D01*
X14117006Y9776100D01*
X14262427Y9618131D01*
X14262431Y9618127D01*
X14265960Y9614294D01*
X14443624Y9476011D01*
X14448202Y9473534D01*
X14448209Y9473529D01*
X14476880Y9458013D01*
X14525151Y9411697D01*
X14542910Y9347200D01*
X14525151Y9282703D01*
X14476880Y9236387D01*
X14448209Y9220872D01*
X14448193Y9220862D01*
X14443624Y9218389D01*
X14439513Y9215190D01*
X14439511Y9215188D01*
X14270078Y9083312D01*
X14270072Y9083307D01*
X14265960Y9080106D01*
X14262437Y9076281D01*
X14262427Y9076270D01*
X14117006Y8918301D01*
X14117002Y8918298D01*
X14113478Y8914468D01*
X14110630Y8910110D01*
X14110627Y8910105D01*
X14003279Y8745796D01*
X13990340Y8725991D01*
X13988248Y8721222D01*
X13988246Y8721218D01*
X13901999Y8524594D01*
X13901996Y8524586D01*
X13899904Y8519816D01*
X13898623Y8514760D01*
X13898622Y8514755D01*
X13861628Y8368669D01*
X13844636Y8301568D01*
X13844206Y8296380D01*
X13844205Y8296373D01*
X13829510Y8119032D01*
X13826044Y8077200D01*
X13826474Y8072011D01*
X13840845Y7898574D01*
X13844636Y7852832D01*
X13899904Y7634584D01*
X13990340Y7428409D01*
X14113478Y7239932D01*
X14117006Y7236100D01*
X14262427Y7078131D01*
X14262431Y7078127D01*
X14265960Y7074294D01*
X14443624Y6936011D01*
X14448200Y6933535D01*
X14448204Y6933532D01*
X14458782Y6927808D01*
X14477405Y6917730D01*
X14525676Y6871416D01*
X14543437Y6806919D01*
X14525679Y6742421D01*
X14477409Y6696104D01*
X14448485Y6680451D01*
X14439788Y6674769D01*
X14270411Y6542938D01*
X14262767Y6535901D01*
X14117410Y6378000D01*
X14111022Y6369794D01*
X13993631Y6190114D01*
X13988688Y6180979D01*
X13902470Y5984424D01*
X13899100Y5974609D01*
X13856186Y5805144D01*
X13855951Y5793766D01*
X13867040Y5791200D01*
X16511360Y5791200D01*
X16522448Y5793766D01*
X16522213Y5805144D01*
X16479299Y5974609D01*
X16475929Y5984424D01*
X16389711Y6180979D01*
X16384768Y6190114D01*
X16267377Y6369794D01*
X16260989Y6378000D01*
X16115632Y6535901D01*
X16107988Y6542938D01*
X15938611Y6674769D01*
X15929913Y6680451D01*
X15900992Y6696103D01*
X15852720Y6742420D01*
X15834962Y6806919D01*
X15852723Y6871416D01*
X15900991Y6917728D01*
X15934776Y6936011D01*
X16112440Y7074294D01*
X16264922Y7239932D01*
X16388060Y7428409D01*
X16478496Y7634584D01*
X16533764Y7852832D01*
X16552356Y8077200D01*
X16533764Y8301568D01*
X16478496Y8519816D01*
X16388060Y8725991D01*
X16264922Y8914468D01*
X16195520Y8989858D01*
X16115972Y9076270D01*
X16115967Y9076275D01*
X16112440Y9080106D01*
X15934776Y9218389D01*
X15930202Y9220864D01*
X15930195Y9220869D01*
X15901520Y9236386D01*
X15853248Y9282702D01*
X15835489Y9347200D01*
X15853248Y9411698D01*
X15901520Y9458014D01*
X15908742Y9461922D01*
X15934776Y9476011D01*
X16112440Y9614294D01*
X16264922Y9779932D01*
X16388060Y9968409D01*
X16478496Y10174584D01*
X16533764Y10392832D01*
X16552356Y10617200D01*
X16540860Y10755932D01*
X16548128Y10809702D01*
X16577335Y10855432D01*
X16781720Y11059816D01*
X16989499Y11267596D01*
X17030377Y11294909D01*
X17078595Y11304500D01*
X18211692Y11304500D01*
X18271662Y11289314D01*
X18317175Y11247415D01*
X18337262Y11188904D01*
X18327079Y11127885D01*
X18321599Y11115395D01*
X18321594Y11115382D01*
X18319504Y11110616D01*
X18318223Y11105560D01*
X18318222Y11105555D01*
X18296005Y11017822D01*
X18264236Y10892368D01*
X18263806Y10887180D01*
X18263805Y10887173D01*
X18246709Y10680853D01*
X18245644Y10668000D01*
X18246074Y10662811D01*
X18249423Y10622389D01*
X18264236Y10443632D01*
X18319504Y10225384D01*
X18321597Y10220611D01*
X18321599Y10220607D01*
X18343882Y10169807D01*
X18409940Y10019209D01*
X18533078Y9830732D01*
X18536606Y9826900D01*
X18682027Y9668931D01*
X18682031Y9668927D01*
X18685560Y9665094D01*
X18863224Y9526811D01*
X18867802Y9524334D01*
X18867809Y9524329D01*
X18896480Y9508813D01*
X18944751Y9462497D01*
X18962510Y9398000D01*
X18944751Y9333503D01*
X18896480Y9287187D01*
X18867809Y9271672D01*
X18867793Y9271662D01*
X18863224Y9269189D01*
X18859113Y9265990D01*
X18859111Y9265988D01*
X18689678Y9134112D01*
X18689672Y9134107D01*
X18685560Y9130906D01*
X18682037Y9127081D01*
X18682027Y9127070D01*
X18536606Y8969101D01*
X18536602Y8969098D01*
X18533078Y8965268D01*
X18530230Y8960910D01*
X18530227Y8960905D01*
X18412792Y8781157D01*
X18409940Y8776791D01*
X18407848Y8772022D01*
X18407846Y8772018D01*
X18321599Y8575394D01*
X18321596Y8575386D01*
X18319504Y8570616D01*
X18318223Y8565560D01*
X18318222Y8565555D01*
X18280739Y8417538D01*
X18264236Y8352368D01*
X18263806Y8347180D01*
X18263805Y8347173D01*
X18259596Y8296373D01*
X18245644Y8128000D01*
X18246074Y8122811D01*
X18249423Y8082389D01*
X18264236Y7903632D01*
X18319504Y7685384D01*
X18321597Y7680611D01*
X18321599Y7680607D01*
X18385315Y7535349D01*
X18409940Y7479209D01*
X18533078Y7290732D01*
X18544527Y7278295D01*
X18682027Y7128931D01*
X18682031Y7128927D01*
X18685560Y7125094D01*
X18863224Y6986811D01*
X18867802Y6984334D01*
X18867809Y6984329D01*
X18896480Y6968813D01*
X18944751Y6922497D01*
X18962510Y6858000D01*
X18944751Y6793503D01*
X18896480Y6747187D01*
X18867809Y6731672D01*
X18867793Y6731662D01*
X18863224Y6729189D01*
X18859113Y6725990D01*
X18859111Y6725988D01*
X18689678Y6594112D01*
X18689672Y6594107D01*
X18685560Y6590906D01*
X18682037Y6587081D01*
X18682027Y6587070D01*
X18536606Y6429101D01*
X18536602Y6429098D01*
X18533078Y6425268D01*
X18530230Y6420910D01*
X18530227Y6420905D01*
X18454426Y6304882D01*
X18409940Y6236791D01*
X18407848Y6232022D01*
X18407846Y6232018D01*
X18321599Y6035394D01*
X18321596Y6035386D01*
X18319504Y6030616D01*
X18318223Y6025560D01*
X18318222Y6025555D01*
X18287016Y5902324D01*
X18264236Y5812368D01*
X18263806Y5807180D01*
X18263805Y5807173D01*
X18258592Y5744260D01*
X18245644Y5588000D01*
X18264236Y5363632D01*
X18265517Y5358574D01*
X18312895Y5171480D01*
X18319504Y5145384D01*
X18321597Y5140611D01*
X18321599Y5140607D01*
X18344148Y5089200D01*
X18409940Y4939209D01*
X18533078Y4750732D01*
X18583094Y4696401D01*
X18682027Y4588931D01*
X18682031Y4588927D01*
X18685560Y4585094D01*
X18863224Y4446811D01*
X19061226Y4339658D01*
X19066155Y4337966D01*
X19066157Y4337965D01*
X19167695Y4303107D01*
X19274165Y4266556D01*
X19496231Y4229500D01*
X19716158Y4229500D01*
X19721369Y4229500D01*
X19943435Y4266556D01*
X20156374Y4339658D01*
X20354376Y4446811D01*
X20532040Y4585094D01*
X20684522Y4750732D01*
X20807660Y4939209D01*
X20898096Y5145384D01*
X20953364Y5363632D01*
X20971956Y5588000D01*
X20953364Y5812368D01*
X20898096Y6030616D01*
X20807660Y6236791D01*
X20684522Y6425268D01*
X20617831Y6497713D01*
X20535572Y6587070D01*
X20535567Y6587075D01*
X20532040Y6590906D01*
X20354376Y6729189D01*
X20349802Y6731664D01*
X20349795Y6731669D01*
X20321120Y6747186D01*
X20272848Y6793502D01*
X20255089Y6858000D01*
X20272848Y6922498D01*
X20321120Y6968814D01*
X20349790Y6984329D01*
X20354376Y6986811D01*
X20532040Y7125094D01*
X20684522Y7290732D01*
X20807660Y7479209D01*
X20898096Y7685384D01*
X20953364Y7903632D01*
X20971956Y8128000D01*
X20953364Y8352368D01*
X20898096Y8570616D01*
X20807660Y8776791D01*
X20684522Y8965268D01*
X20592349Y9065394D01*
X20535572Y9127070D01*
X20535567Y9127075D01*
X20532040Y9130906D01*
X20354376Y9269189D01*
X20349802Y9271664D01*
X20349795Y9271669D01*
X20321120Y9287186D01*
X20272848Y9333502D01*
X20255089Y9398000D01*
X20272848Y9462498D01*
X20321120Y9508814D01*
X20323059Y9509863D01*
X20354376Y9526811D01*
X20532040Y9665094D01*
X20684522Y9830732D01*
X20807660Y10019209D01*
X20898096Y10225384D01*
X20953364Y10443632D01*
X20971956Y10668000D01*
X20953364Y10892368D01*
X20955027Y10892506D01*
X20957344Y10936987D01*
X20982682Y10984954D01*
X21025838Y11017822D01*
X21078813Y11029500D01*
X21170884Y11029500D01*
X21177487Y11029500D01*
X21364288Y11069206D01*
X21538752Y11146882D01*
X21693253Y11259134D01*
X21821040Y11401056D01*
X21916527Y11566444D01*
X21975542Y11748072D01*
X21995504Y11938000D01*
X21975542Y12127928D01*
X21916527Y12309556D01*
X21821040Y12474944D01*
X21693253Y12616866D01*
X21687911Y12620747D01*
X21687908Y12620750D01*
X21565331Y12709807D01*
X21538752Y12729118D01*
X21364288Y12806794D01*
X21357835Y12808166D01*
X21357831Y12808167D01*
X21183943Y12845128D01*
X21183940Y12845129D01*
X21177487Y12846500D01*
X21068510Y12846500D01*
X21004760Y12863817D01*
X20958534Y12911009D01*
X20954551Y12926967D01*
X20954345Y12926871D01*
X20943069Y12951199D01*
X20930960Y12954000D01*
X18286640Y12954000D01*
X18275551Y12951435D01*
X18275786Y12940057D01*
X18318700Y12770592D01*
X18322068Y12760782D01*
X18327625Y12748115D01*
X18337808Y12687096D01*
X18317721Y12628585D01*
X18272208Y12586686D01*
X18212238Y12571500D01*
X16842767Y12571500D01*
X16831583Y12572028D01*
X16824091Y12573702D01*
X16816165Y12573453D01*
X16756014Y12571562D01*
X16752055Y12571500D01*
X16724144Y12571500D01*
X16720218Y12571005D01*
X16720200Y12571003D01*
X16720108Y12570991D01*
X16708303Y12570063D01*
X16672030Y12568923D01*
X16672022Y12568922D01*
X16664110Y12568673D01*
X16656503Y12566464D01*
X16656502Y12566463D01*
X16644655Y12563021D01*
X16625306Y12559014D01*
X16622752Y12558692D01*
X16616166Y12557860D01*
X16553490Y12565910D01*
X16502604Y12603379D01*
X16476309Y12660841D01*
X16480457Y12714088D01*
X16478496Y12714584D01*
X16481194Y12725237D01*
X16533764Y12932832D01*
X16552356Y13157200D01*
X16533764Y13381568D01*
X16506017Y13491138D01*
X16506682Y13555517D01*
X16539064Y13611162D01*
X16735499Y13807596D01*
X16776377Y13834909D01*
X16824595Y13844500D01*
X18212238Y13844500D01*
X18272208Y13829314D01*
X18317721Y13787415D01*
X18337808Y13728904D01*
X18327625Y13667885D01*
X18322068Y13655219D01*
X18318700Y13645409D01*
X18275786Y13475944D01*
X18275551Y13464566D01*
X18286640Y13462000D01*
X20930960Y13462000D01*
X20942048Y13464566D01*
X20941813Y13475944D01*
X20898899Y13645409D01*
X20895531Y13655219D01*
X20880807Y13688785D01*
X20870219Y13741899D01*
X20882906Y13794552D01*
X20916524Y13837015D01*
X20960961Y13859472D01*
X20961397Y13859526D01*
X21002515Y13875807D01*
X21013717Y13879643D01*
X21056193Y13891982D01*
X21073639Y13902301D01*
X21091369Y13910987D01*
X21110217Y13918448D01*
X21145987Y13944439D01*
X21155898Y13950949D01*
X21193962Y13973458D01*
X21208288Y13987785D01*
X21223317Y14000622D01*
X21239707Y14012528D01*
X21267894Y14046603D01*
X21275872Y14055370D01*
X21746459Y14525957D01*
X21754733Y14533486D01*
X21761218Y14537600D01*
X21807876Y14587288D01*
X21810568Y14590066D01*
X21830334Y14609830D01*
X21832801Y14613012D01*
X21840510Y14622039D01*
X21870786Y14654279D01*
X21880545Y14672033D01*
X21891399Y14688557D01*
X21903813Y14704559D01*
X21921367Y14745125D01*
X21926592Y14755792D01*
X21944075Y14787592D01*
X21944074Y14787592D01*
X21947895Y14794540D01*
X21952932Y14814158D01*
X21959338Y14832870D01*
X21964232Y14844179D01*
X21967381Y14851455D01*
X21974296Y14895123D01*
X21976704Y14906747D01*
X21985729Y14941895D01*
X21987700Y14949570D01*
X21987700Y14969824D01*
X21989251Y14989535D01*
X21991180Y15001715D01*
X21992420Y15009543D01*
X21988258Y15053562D01*
X21987700Y15065419D01*
X21987700Y36783837D01*
X21988227Y36795021D01*
X21989901Y36802509D01*
X21987761Y36870568D01*
X21987700Y36874525D01*
X21987700Y36898500D01*
X21987700Y36902456D01*
X21987193Y36906466D01*
X21986261Y36918306D01*
X21986029Y36925700D01*
X21984873Y36962490D01*
X21979220Y36981944D01*
X21975212Y37001303D01*
X21972674Y37021397D01*
X21956397Y37062507D01*
X21952551Y37073740D01*
X21942429Y37108581D01*
X21940218Y37116193D01*
X21929907Y37133627D01*
X21921208Y37151385D01*
X21916669Y37162849D01*
X21913752Y37170217D01*
X21887761Y37205990D01*
X21881250Y37215902D01*
X21877228Y37222703D01*
X21858742Y37253963D01*
X21844417Y37268288D01*
X21831576Y37283323D01*
X21824334Y37293291D01*
X21824331Y37293294D01*
X21819672Y37299707D01*
X21808610Y37308858D01*
X21785605Y37327890D01*
X21776826Y37335879D01*
X20958666Y38154039D01*
X20926282Y38209686D01*
X20925617Y38274064D01*
X20953364Y38383632D01*
X20971956Y38608000D01*
X20953364Y38832368D01*
X20898096Y39050616D01*
X20807660Y39256791D01*
X20684522Y39445268D01*
X20541325Y39600820D01*
X20512088Y39654424D01*
X20511485Y39715480D01*
X20539659Y39769650D01*
X20589991Y39804214D01*
X20705004Y39847111D01*
X20822061Y39934739D01*
X20909689Y40051796D01*
X20960789Y40188799D01*
X20967300Y40249362D01*
X20967300Y42046638D01*
X20960789Y42107201D01*
X20909689Y42244204D01*
X20822061Y42361261D01*
X20769250Y42400795D01*
X20712217Y42443490D01*
X20712214Y42443492D01*
X20705004Y42448889D01*
X20696566Y42452036D01*
X20696563Y42452038D01*
X20575380Y42497237D01*
X20575378Y42497238D01*
X20568001Y42499989D01*
X20560173Y42500831D01*
X20560167Y42500832D01*
X20510788Y42506140D01*
X20510785Y42506141D01*
X20507438Y42506500D01*
X18710162Y42506500D01*
X18706815Y42506141D01*
X18706811Y42506140D01*
X18657432Y42500832D01*
X18657425Y42500831D01*
X18649599Y42499989D01*
X18642223Y42497239D01*
X18642219Y42497237D01*
X18521036Y42452038D01*
X18521030Y42452035D01*
X18512596Y42448889D01*
X18505388Y42443494D01*
X18505382Y42443490D01*
X18402750Y42366660D01*
X18402746Y42366657D01*
X18395539Y42361261D01*
X18390143Y42354054D01*
X18390140Y42354050D01*
X18313310Y42251418D01*
X18313306Y42251412D01*
X18307911Y42244204D01*
X18304765Y42235770D01*
X18304762Y42235764D01*
X18259563Y42114581D01*
X18259561Y42114577D01*
X18256811Y42107201D01*
X18255969Y42099375D01*
X18255968Y42099368D01*
X18252132Y42063679D01*
X18250300Y42046638D01*
X18250300Y40249362D01*
X18250659Y40246015D01*
X18250660Y40246012D01*
X18255968Y40196633D01*
X18255969Y40196627D01*
X18256811Y40188799D01*
X18259562Y40181422D01*
X18259563Y40181420D01*
X18304762Y40060237D01*
X18304764Y40060234D01*
X18307911Y40051796D01*
X18313308Y40044586D01*
X18313310Y40044583D01*
X18389589Y39942687D01*
X18395539Y39934739D01*
X18402750Y39929341D01*
X18474795Y39875408D01*
X18512596Y39847111D01*
X18521035Y39843964D01*
X18521036Y39843963D01*
X18627606Y39804214D01*
X18677940Y39769650D01*
X18706114Y39715480D01*
X18705511Y39654424D01*
X18676274Y39600820D01*
X18536606Y39449101D01*
X18536602Y39449098D01*
X18533078Y39445268D01*
X18530230Y39440910D01*
X18530227Y39440905D01*
X18412792Y39261157D01*
X18409940Y39256791D01*
X18407848Y39252022D01*
X18407846Y39252018D01*
X18321599Y39055394D01*
X18321596Y39055386D01*
X18319504Y39050616D01*
X18318223Y39045560D01*
X18318222Y39045555D01*
X18265517Y38837427D01*
X18264236Y38832368D01*
X18263806Y38827180D01*
X18263805Y38827173D01*
X18252661Y38692687D01*
X18245644Y38608000D01*
X18246074Y38602811D01*
X18263805Y38388828D01*
X18263805Y38388823D01*
X18264236Y38383632D01*
X18319504Y38165384D01*
X18321597Y38160611D01*
X18321599Y38160607D01*
X18343882Y38109807D01*
X18409940Y37959209D01*
X18533078Y37770732D01*
X18553784Y37748240D01*
X18682027Y37608931D01*
X18682031Y37608927D01*
X18685560Y37605094D01*
X18863224Y37466811D01*
X18867800Y37464335D01*
X18867804Y37464332D01*
X18878382Y37458608D01*
X18897005Y37448530D01*
X18945276Y37402216D01*
X18963037Y37337719D01*
X18945279Y37273221D01*
X18897009Y37226904D01*
X18868085Y37211251D01*
X18859388Y37205569D01*
X18690015Y37073740D01*
X18682367Y37066701D01*
X18537010Y36908800D01*
X18530622Y36900594D01*
X18413231Y36720914D01*
X18408288Y36711779D01*
X18322070Y36515224D01*
X18318700Y36505409D01*
X18275786Y36335944D01*
X18275551Y36324566D01*
X18286640Y36322000D01*
X19736800Y36322000D01*
X19799800Y36305119D01*
X19845919Y36259000D01*
X19862800Y36196000D01*
X19862800Y35940000D01*
X19845919Y35877000D01*
X19799800Y35830881D01*
X19736800Y35814000D01*
X18286640Y35814000D01*
X18275551Y35811435D01*
X18275786Y35800057D01*
X18318700Y35630592D01*
X18322070Y35620777D01*
X18408288Y35424222D01*
X18413231Y35415087D01*
X18530622Y35235407D01*
X18537010Y35227201D01*
X18682367Y35069300D01*
X18690011Y35062263D01*
X18859388Y34930432D01*
X18868081Y34924753D01*
X18897006Y34909099D01*
X18945278Y34862783D01*
X18963037Y34798285D01*
X18945278Y34733788D01*
X18897007Y34687472D01*
X18888196Y34682703D01*
X18867800Y34671666D01*
X18867794Y34671663D01*
X18863224Y34669189D01*
X18859113Y34665990D01*
X18859111Y34665988D01*
X18689678Y34534112D01*
X18689672Y34534107D01*
X18685560Y34530906D01*
X18682037Y34527081D01*
X18682027Y34527070D01*
X18536606Y34369101D01*
X18536602Y34369098D01*
X18533078Y34365268D01*
X18530230Y34360910D01*
X18530227Y34360905D01*
X18452299Y34241627D01*
X18409940Y34176791D01*
X18407848Y34172022D01*
X18407846Y34172018D01*
X18321599Y33975394D01*
X18321596Y33975386D01*
X18319504Y33970616D01*
X18318223Y33965560D01*
X18318222Y33965555D01*
X18305358Y33914755D01*
X18264236Y33752368D01*
X18263806Y33747180D01*
X18263805Y33747173D01*
X18256629Y33660565D01*
X18245644Y33528000D01*
X18246074Y33522811D01*
X18249423Y33482389D01*
X18264236Y33303632D01*
X18277100Y33252832D01*
X18291982Y33194065D01*
X18291316Y33129686D01*
X18258933Y33074040D01*
X18062500Y32877605D01*
X18021622Y32850291D01*
X17973404Y32840700D01*
X16586308Y32840700D01*
X16526338Y32855886D01*
X16480825Y32897785D01*
X16460738Y32956296D01*
X16470921Y33017315D01*
X16476400Y33029806D01*
X16478496Y33034584D01*
X16533764Y33252832D01*
X16552356Y33477200D01*
X16533764Y33701568D01*
X16478496Y33919816D01*
X16388060Y34125991D01*
X16264922Y34314468D01*
X16199348Y34385700D01*
X16115972Y34476270D01*
X16115967Y34476275D01*
X16112440Y34480106D01*
X15934776Y34618389D01*
X15930202Y34620864D01*
X15930195Y34620869D01*
X15901520Y34636386D01*
X15853248Y34682702D01*
X15835489Y34747200D01*
X15853248Y34811698D01*
X15901520Y34858014D01*
X15910333Y34862783D01*
X15934776Y34876011D01*
X16112440Y35014294D01*
X16264922Y35179932D01*
X16388060Y35368409D01*
X16478496Y35574584D01*
X16533764Y35792832D01*
X16552356Y36017200D01*
X16533764Y36241568D01*
X16478496Y36459816D01*
X16388060Y36665991D01*
X16264922Y36854468D01*
X16199348Y36925700D01*
X16115972Y37016270D01*
X16115967Y37016275D01*
X16112440Y37020106D01*
X15934776Y37158389D01*
X15930202Y37160864D01*
X15930195Y37160869D01*
X15901520Y37176386D01*
X15853248Y37222702D01*
X15835489Y37287200D01*
X15853248Y37351698D01*
X15901520Y37398014D01*
X15930190Y37413529D01*
X15934776Y37416011D01*
X16112440Y37554294D01*
X16264922Y37719932D01*
X16388060Y37908409D01*
X16478496Y38114584D01*
X16533764Y38332832D01*
X16552356Y38557200D01*
X16533764Y38781568D01*
X16478496Y38999816D01*
X16388060Y39205991D01*
X16264922Y39394468D01*
X16121358Y39550419D01*
X16092122Y39604022D01*
X16091519Y39665078D01*
X16119694Y39719248D01*
X16170028Y39753812D01*
X16276720Y39793606D01*
X16292375Y39802155D01*
X16394892Y39878898D01*
X16407502Y39891508D01*
X16484245Y39994025D01*
X16492794Y40009681D01*
X16537940Y40130722D01*
X16541537Y40145943D01*
X16546840Y40195262D01*
X16547200Y40201977D01*
X16547200Y40826610D01*
X16543693Y40839694D01*
X16530610Y40843200D01*
X13847790Y40843200D01*
X13834706Y40839694D01*
X13831200Y40826610D01*
X13831200Y40201977D01*
X13831559Y40195262D01*
X13836862Y40145943D01*
X13840459Y40130722D01*
X13885605Y40009681D01*
X13894154Y39994025D01*
X13970897Y39891508D01*
X13983507Y39878898D01*
X14086024Y39802155D01*
X14101680Y39793606D01*
X14208371Y39753812D01*
X14258705Y39719248D01*
X14286880Y39665078D01*
X14286277Y39604022D01*
X14257040Y39550419D01*
X14117011Y39398308D01*
X14117000Y39398294D01*
X14113478Y39394468D01*
X14110630Y39390110D01*
X14110627Y39390105D01*
X13998334Y39218227D01*
X13990340Y39205991D01*
X13988248Y39201222D01*
X13988246Y39201218D01*
X13901999Y39004594D01*
X13901996Y39004586D01*
X13899904Y38999816D01*
X13844636Y38781568D01*
X13844206Y38776380D01*
X13844205Y38776373D01*
X13827109Y38570053D01*
X13826044Y38557200D01*
X13826474Y38552011D01*
X13840845Y38378574D01*
X13844636Y38332832D01*
X13899904Y38114584D01*
X13990340Y37908409D01*
X14113478Y37719932D01*
X14138228Y37693047D01*
X14262427Y37558131D01*
X14262431Y37558127D01*
X14265960Y37554294D01*
X14443624Y37416011D01*
X14448202Y37413534D01*
X14448209Y37413529D01*
X14476880Y37398013D01*
X14525151Y37351697D01*
X14542910Y37287200D01*
X14525151Y37222703D01*
X14476880Y37176387D01*
X14448209Y37160872D01*
X14448193Y37160862D01*
X14443624Y37158389D01*
X14439513Y37155190D01*
X14439511Y37155188D01*
X14270078Y37023312D01*
X14270072Y37023307D01*
X14265960Y37020106D01*
X14262437Y37016281D01*
X14262427Y37016270D01*
X14117006Y36858301D01*
X14117002Y36858298D01*
X14113478Y36854468D01*
X14110630Y36850110D01*
X14110627Y36850105D01*
X13993536Y36670883D01*
X13990340Y36665991D01*
X13988248Y36661222D01*
X13988246Y36661218D01*
X13901999Y36464594D01*
X13901996Y36464586D01*
X13899904Y36459816D01*
X13898623Y36454760D01*
X13898622Y36454755D01*
X13849050Y36259000D01*
X13844636Y36241568D01*
X13844206Y36236380D01*
X13844205Y36236373D01*
X13842302Y36213406D01*
X13826044Y36017200D01*
X13826474Y36012011D01*
X13837661Y35877000D01*
X13844636Y35792832D01*
X13899904Y35574584D01*
X13901997Y35569811D01*
X13901999Y35569807D01*
X13938771Y35485975D01*
X13990340Y35368409D01*
X14113478Y35179932D01*
X14142500Y35148406D01*
X14262427Y35018131D01*
X14262431Y35018127D01*
X14265960Y35014294D01*
X14443624Y34876011D01*
X14448202Y34873534D01*
X14448209Y34873529D01*
X14476880Y34858013D01*
X14525151Y34811697D01*
X14542910Y34747200D01*
X14525151Y34682703D01*
X14476880Y34636387D01*
X14448209Y34620872D01*
X14448193Y34620862D01*
X14443624Y34618389D01*
X14439513Y34615190D01*
X14439511Y34615188D01*
X14270078Y34483312D01*
X14270072Y34483307D01*
X14265960Y34480106D01*
X14262437Y34476281D01*
X14262427Y34476270D01*
X14117006Y34318301D01*
X14117002Y34318298D01*
X14113478Y34314468D01*
X14110630Y34310110D01*
X14110627Y34310105D01*
X14006781Y34151156D01*
X13990340Y34125991D01*
X13988248Y34121222D01*
X13988246Y34121218D01*
X13901999Y33924594D01*
X13901996Y33924586D01*
X13899904Y33919816D01*
X13844636Y33701568D01*
X13844206Y33696380D01*
X13844205Y33696373D01*
X13827400Y33493569D01*
X13826044Y33477200D01*
X13826474Y33472011D01*
X13840426Y33303632D01*
X13844636Y33252832D01*
X13899904Y33034584D01*
X13901999Y33029808D01*
X13902001Y33029802D01*
X13926854Y32973141D01*
X13935979Y32903230D01*
X13906119Y32839361D01*
X13846622Y32801534D01*
X13818007Y32793219D01*
X13811187Y32789187D01*
X13811185Y32789185D01*
X13800563Y32782903D01*
X13782814Y32774209D01*
X13771360Y32769674D01*
X13771352Y32769671D01*
X13763983Y32766752D01*
X13757568Y32762093D01*
X13757567Y32762091D01*
X13728213Y32740765D01*
X13718299Y32734253D01*
X13687060Y32715777D01*
X13687058Y32715776D01*
X13680238Y32711742D01*
X13674639Y32706145D01*
X13674632Y32706138D01*
X13665908Y32697414D01*
X13650887Y32684585D01*
X13640907Y32677334D01*
X13640898Y32677327D01*
X13634493Y32672672D01*
X13629445Y32666572D01*
X13629436Y32666562D01*
X13606305Y32638602D01*
X13598318Y32629824D01*
X13044338Y32075845D01*
X13036058Y32068311D01*
X13029582Y32064200D01*
X13024161Y32058427D01*
X12982970Y32014564D01*
X12980221Y32011728D01*
X12963267Y31994773D01*
X12963260Y31994766D01*
X12960465Y31991970D01*
X12958042Y31988848D01*
X12958026Y31988829D01*
X12957965Y31988749D01*
X12950290Y31979765D01*
X12925438Y31953298D01*
X12925435Y31953296D01*
X12920014Y31947521D01*
X12916200Y31940586D01*
X12916192Y31940573D01*
X12910250Y31929764D01*
X12899403Y31913251D01*
X12891843Y31903505D01*
X12891837Y31903496D01*
X12886986Y31897241D01*
X12883842Y31889977D01*
X12883838Y31889969D01*
X12869424Y31856660D01*
X12864204Y31846005D01*
X12846725Y31814211D01*
X12846721Y31814203D01*
X12842905Y31807260D01*
X12840933Y31799584D01*
X12840931Y31799576D01*
X12837866Y31787638D01*
X12831465Y31768941D01*
X12826568Y31757624D01*
X12826566Y31757619D01*
X12823419Y31750345D01*
X12822179Y31742520D01*
X12822177Y31742511D01*
X12816501Y31706676D01*
X12814095Y31695056D01*
X12805071Y31659911D01*
X12805069Y31659903D01*
X12803100Y31652230D01*
X12803100Y31644301D01*
X12803100Y31631976D01*
X12801549Y31612265D01*
X12799619Y31600086D01*
X12799618Y31600079D01*
X12798380Y31592257D01*
X8984560Y31592257D01*
X8920460Y31738391D01*
X8797322Y31926868D01*
X8670898Y32064200D01*
X8654125Y32082420D01*
X8624888Y32136024D01*
X8624285Y32197080D01*
X8652459Y32251250D01*
X8702791Y32285814D01*
X8817804Y32328711D01*
X8934861Y32416339D01*
X9022489Y32533396D01*
X9073589Y32670399D01*
X9080100Y32730962D01*
X9080100Y33627006D01*
X9093833Y33684209D01*
X9132039Y33728942D01*
X9186389Y33751455D01*
X9245036Y33746839D01*
X9295195Y33716101D01*
X9482877Y33528419D01*
X9507508Y33493569D01*
X9519092Y33452495D01*
X9535269Y33298582D01*
X9536458Y33287272D01*
X9538495Y33281000D01*
X9538497Y33280995D01*
X9593430Y33111929D01*
X9593433Y33111922D01*
X9595473Y33105644D01*
X9690960Y32940256D01*
X9766927Y32855886D01*
X9810750Y32807215D01*
X9818747Y32798334D01*
X9824089Y32794453D01*
X9824091Y32794451D01*
X9851952Y32774209D01*
X9973248Y32686082D01*
X10147712Y32608406D01*
X10334513Y32568700D01*
X10518884Y32568700D01*
X10525487Y32568700D01*
X10712288Y32608406D01*
X10886752Y32686082D01*
X11041253Y32798334D01*
X11169040Y32940256D01*
X11264527Y33105644D01*
X11323542Y33287272D01*
X11343504Y33477200D01*
X11323542Y33667128D01*
X11264527Y33848756D01*
X11169040Y34014144D01*
X11041253Y34156066D01*
X11035911Y34159947D01*
X11035908Y34159950D01*
X10936928Y34231863D01*
X10886752Y34268318D01*
X10712288Y34345994D01*
X10705835Y34347366D01*
X10705831Y34347367D01*
X10531943Y34384328D01*
X10531940Y34384329D01*
X10525487Y34385700D01*
X10518884Y34385700D01*
X10469595Y34385700D01*
X10421377Y34395291D01*
X10380500Y34422605D01*
X9656362Y35146743D01*
X9641220Y35172194D01*
X9616488Y35186617D01*
X7063646Y37739459D01*
X7056112Y37747738D01*
X7052000Y37754218D01*
X7047721Y37758237D01*
X7020168Y37821909D01*
X7031167Y37891349D01*
X7077661Y37944086D01*
X7145175Y37963700D01*
X7535406Y37963700D01*
X7583624Y37954109D01*
X7624501Y37926795D01*
X9482877Y36068418D01*
X9507508Y36033568D01*
X9519092Y35992494D01*
X9531231Y35877000D01*
X9536458Y35827272D01*
X9538495Y35821000D01*
X9538497Y35820995D01*
X9593430Y35651929D01*
X9593433Y35651922D01*
X9595473Y35645644D01*
X9609830Y35620777D01*
X9677793Y35503061D01*
X9690960Y35480256D01*
X9757529Y35406324D01*
X9799219Y35360022D01*
X9808391Y35342214D01*
X9819517Y35337775D01*
X9973248Y35226082D01*
X10147712Y35148406D01*
X10334513Y35108700D01*
X10518884Y35108700D01*
X10525487Y35108700D01*
X10712288Y35148406D01*
X10886752Y35226082D01*
X11041253Y35338334D01*
X11169040Y35480256D01*
X11264527Y35645644D01*
X11323542Y35827272D01*
X11343504Y36017200D01*
X11323542Y36207128D01*
X11264527Y36388756D01*
X11169040Y36554144D01*
X11041253Y36696066D01*
X11035911Y36699947D01*
X11035908Y36699950D01*
X10920447Y36783837D01*
X10886752Y36808318D01*
X10712288Y36885994D01*
X10705835Y36887366D01*
X10705831Y36887367D01*
X10531943Y36924328D01*
X10531940Y36924329D01*
X10525487Y36925700D01*
X10518884Y36925700D01*
X10469594Y36925700D01*
X10421376Y36935291D01*
X10380499Y36962605D01*
X9379404Y37963700D01*
X8353646Y38989459D01*
X8346112Y38997737D01*
X8342000Y39004218D01*
X8292348Y39050844D01*
X8289506Y39053599D01*
X8272574Y39070531D01*
X8269770Y39073335D01*
X8266575Y39075814D01*
X8257554Y39083518D01*
X8231097Y39108362D01*
X8225321Y39113786D01*
X8218377Y39117604D01*
X8218371Y39117608D01*
X8207566Y39123548D01*
X8191047Y39134399D01*
X8175041Y39146814D01*
X8167766Y39149962D01*
X8167763Y39149964D01*
X8134466Y39164372D01*
X8123804Y39169595D01*
X8092007Y39187076D01*
X8092005Y39187077D01*
X8085060Y39190895D01*
X8077383Y39192866D01*
X8077381Y39192867D01*
X8065438Y39195933D01*
X8046734Y39202337D01*
X8035420Y39207233D01*
X8035418Y39207234D01*
X8028145Y39210381D01*
X8020319Y39211621D01*
X8020318Y39211621D01*
X7984475Y39217298D01*
X7972859Y39219704D01*
X7930030Y39230700D01*
X7922101Y39230700D01*
X7909776Y39230700D01*
X7890065Y39232251D01*
X7877885Y39234181D01*
X7877878Y39234182D01*
X7870057Y39235420D01*
X7862173Y39234675D01*
X7862165Y39234675D01*
X7826039Y39231259D01*
X7814181Y39230700D01*
X4770817Y39230700D01*
X4710695Y39245969D01*
X4665145Y39288075D01*
X4645205Y39346814D01*
X4655710Y39407949D01*
X4674032Y39449101D01*
X4725594Y39564912D01*
X4765300Y39751713D01*
X4765300Y39942687D01*
X4725594Y40129488D01*
X4647918Y40303952D01*
X4644038Y40309292D01*
X4644036Y40309296D01*
X4630252Y40328267D01*
X4609728Y40372668D01*
X4607660Y40421538D01*
X4624359Y40467514D01*
X4703225Y40597975D01*
X4709432Y40611766D01*
X4756335Y40762282D01*
X4758921Y40775279D01*
X4763893Y40829995D01*
X4761293Y40839694D01*
X4748210Y40843200D01*
X2465391Y40843200D01*
X2452307Y40839694D01*
X2449707Y40829995D01*
X2454678Y40775288D01*
X2457266Y40762274D01*
X2504167Y40611766D01*
X2510373Y40597977D01*
X2589241Y40467513D01*
X2605939Y40421539D01*
X2603871Y40372669D01*
X2583349Y40328270D01*
X2569565Y40309298D01*
X2569560Y40309291D01*
X2565682Y40303952D01*
X2562998Y40297925D01*
X2562997Y40297922D01*
X2495332Y40145943D01*
X2488006Y40129488D01*
X2486635Y40123039D01*
X2486633Y40123032D01*
X2462540Y40009681D01*
X2448300Y39942687D01*
X2448300Y39751713D01*
X2449671Y39745260D01*
X2449672Y39745257D01*
X2486633Y39571369D01*
X2486634Y39571365D01*
X2488006Y39564912D01*
X2565682Y39390448D01*
X2584468Y39364592D01*
X2634113Y39296261D01*
X2655424Y39248397D01*
X2655424Y39196003D01*
X2634113Y39148139D01*
X2579765Y39073335D01*
X2565682Y39053952D01*
X2562998Y39047925D01*
X2562997Y39047922D01*
X2543539Y39004218D01*
X2488006Y38879488D01*
X2486635Y38873039D01*
X2486633Y38873032D01*
X2467192Y38781568D01*
X2448300Y38692687D01*
X2448300Y38501713D01*
X2449671Y38495260D01*
X2449672Y38495257D01*
X2486633Y38321369D01*
X2486634Y38321365D01*
X2488006Y38314912D01*
X2565682Y38140448D01*
X2587944Y38109807D01*
X2634113Y38046261D01*
X2655424Y37998397D01*
X2655424Y37946003D01*
X2634113Y37898139D01*
X2578729Y37821909D01*
X2565682Y37803952D01*
X2562998Y37797925D01*
X2562994Y37797917D01*
X2533152Y37730892D01*
X2507141Y37693047D01*
X1639747Y36825653D01*
X1631460Y36818112D01*
X1624982Y36814000D01*
X1619562Y36808229D01*
X1619559Y36808226D01*
X1578370Y36764364D01*
X1575621Y36761528D01*
X1558667Y36744573D01*
X1558660Y36744566D01*
X1555865Y36741770D01*
X1553442Y36738648D01*
X1553426Y36738629D01*
X1553365Y36738549D01*
X1545690Y36729565D01*
X1520838Y36703098D01*
X1520835Y36703096D01*
X1515414Y36697321D01*
X1511600Y36690386D01*
X1511592Y36690373D01*
X1505650Y36679564D01*
X1494803Y36663051D01*
X1487243Y36653305D01*
X1487237Y36653296D01*
X1482386Y36647041D01*
X1479242Y36639777D01*
X1479238Y36639769D01*
X1464824Y36606460D01*
X1459604Y36595805D01*
X1442125Y36564011D01*
X1442121Y36564003D01*
X1438305Y36557060D01*
X1436333Y36549384D01*
X1436331Y36549376D01*
X1433266Y36537438D01*
X1426865Y36518741D01*
X1421968Y36507424D01*
X1421966Y36507419D01*
X1418819Y36500145D01*
X1417579Y36492320D01*
X1417577Y36492311D01*
X1411901Y36456476D01*
X1409495Y36444856D01*
X1400471Y36409711D01*
X1400469Y36409703D01*
X1398500Y36402030D01*
X1398500Y36394101D01*
X1398500Y36381776D01*
X1396949Y36362065D01*
X1395019Y36349886D01*
X1395018Y36349879D01*
X1393780Y36342057D01*
X558800Y36342057D01*
X558800Y41364406D01*
X2449706Y41364406D01*
X2452306Y41354707D01*
X2465390Y41351200D01*
X3336210Y41351200D01*
X3349293Y41354707D01*
X3352800Y41367790D01*
X3860800Y41367790D01*
X3864306Y41354707D01*
X3877390Y41351200D01*
X4748209Y41351200D01*
X4761292Y41354707D01*
X4763892Y41364406D01*
X4763585Y41367790D01*
X13831200Y41367790D01*
X13834706Y41354707D01*
X13847790Y41351200D01*
X14918610Y41351200D01*
X14931693Y41354707D01*
X14935200Y41367790D01*
X15443200Y41367790D01*
X15446706Y41354707D01*
X15459790Y41351200D01*
X16530610Y41351200D01*
X16543693Y41354707D01*
X16547200Y41367790D01*
X16547200Y41992423D01*
X16546840Y41999139D01*
X16541537Y42048458D01*
X16537940Y42063679D01*
X16492794Y42184720D01*
X16484245Y42200376D01*
X16407502Y42302893D01*
X16394892Y42315503D01*
X16292375Y42392246D01*
X16276719Y42400795D01*
X16155678Y42445941D01*
X16140457Y42449538D01*
X16091138Y42454841D01*
X16084423Y42455200D01*
X15459790Y42455200D01*
X15446706Y42451694D01*
X15443200Y42438610D01*
X15443200Y41367790D01*
X14935200Y41367790D01*
X14935200Y42438610D01*
X14931693Y42451694D01*
X14918610Y42455200D01*
X14293977Y42455200D01*
X14287261Y42454841D01*
X14237942Y42449538D01*
X14222721Y42445941D01*
X14101680Y42400795D01*
X14086024Y42392246D01*
X13983507Y42315503D01*
X13970897Y42302893D01*
X13894154Y42200376D01*
X13885605Y42184720D01*
X13840459Y42063679D01*
X13836862Y42048458D01*
X13831559Y41999139D01*
X13831200Y41992423D01*
X13831200Y41367790D01*
X4763585Y41367790D01*
X4758921Y41419113D01*
X4756333Y41432127D01*
X4709432Y41582635D01*
X4703225Y41596426D01*
X4622162Y41730521D01*
X4612826Y41742437D01*
X4502036Y41853227D01*
X4490120Y41862563D01*
X4356025Y41943626D01*
X4342234Y41949833D01*
X4191718Y41996736D01*
X4178721Y41999322D01*
X4116874Y42004942D01*
X4111163Y42005200D01*
X3877390Y42005200D01*
X3864306Y42001694D01*
X3860800Y41988610D01*
X3860800Y41367790D01*
X3352800Y41367790D01*
X3352800Y41988609D01*
X3349293Y42001693D01*
X3336210Y42005199D01*
X3102439Y42005199D01*
X3096722Y42004940D01*
X3034887Y41999322D01*
X3021873Y41996734D01*
X2871365Y41949833D01*
X2857574Y41943626D01*
X2723479Y41862563D01*
X2711563Y41853227D01*
X2600773Y41742437D01*
X2591437Y41730521D01*
X2510374Y41596426D01*
X2504167Y41582635D01*
X2457264Y41432119D01*
X2454678Y41419122D01*
X2449706Y41364406D01*
X558800Y41364406D01*
X558800Y44809405D01*
X576636Y44874031D01*
X625093Y44920360D01*
X690454Y44935278D01*
X754214Y44914560D01*
X797205Y44865353D01*
X798211Y44862478D01*
X894184Y44709738D01*
X1021738Y44582184D01*
X1174478Y44486211D01*
X1344745Y44426632D01*
X1524000Y44406435D01*
X1703255Y44426632D01*
X1873522Y44486211D01*
X2026262Y44582184D01*
X2153816Y44709738D01*
X2249789Y44862478D01*
X2309368Y45032745D01*
X2329565Y45212000D01*
X2309368Y45391255D01*
X2249789Y45561522D01*
X2153816Y45714262D01*
X2026262Y45841816D01*
X2020268Y45845582D01*
X2020266Y45845584D01*
X1879513Y45934025D01*
X1879510Y45934027D01*
X1873522Y45937789D01*
X1866846Y45940125D01*
X1866842Y45940127D01*
X1744113Y45983071D01*
X1687217Y46023440D01*
X1660520Y46087892D01*
X1672206Y46156669D01*
X1718692Y46208687D01*
X1785728Y46228000D01*
X21074272Y46228000D01*
X21141308Y46208687D01*
G37*
%TD.AperFunction*%
%TD*%
M02*
