%TF.GenerationSoftware,KiCad,Pcbnew,7.0.1*%
%TF.CreationDate,2023-03-26T20:19:22+09:00*%
%TF.ProjectId,joystick_gpio_input,6a6f7973-7469-4636-9b5f-6770696f5f69,2*%
%TF.SameCoordinates,PX78649acPY7936aa0*%
%TF.FileFunction,Copper,L2,Bot*%
%TF.FilePolarity,Positive*%
%FSLAX46Y46*%
G04 Gerber Fmt 4.6, Leading zero omitted, Abs format (unit mm)*
G04 Created by KiCad (PCBNEW 7.0.1) date 2023-03-26 20:19:22*
%MOMM*%
%LPD*%
G01*
G04 APERTURE LIST*
G04 Aperture macros list*
%AMRoundRect*
0 Rectangle with rounded corners*
0 $1 Rounding radius*
0 $2 $3 $4 $5 $6 $7 $8 $9 X,Y pos of 4 corners*
0 Add a 4 corners polygon primitive as box body*
4,1,4,$2,$3,$4,$5,$6,$7,$8,$9,$2,$3,0*
0 Add four circle primitives for the rounded corners*
1,1,$1+$1,$2,$3*
1,1,$1+$1,$4,$5*
1,1,$1+$1,$6,$7*
1,1,$1+$1,$8,$9*
0 Add four rect primitives between the rounded corners*
20,1,$1+$1,$2,$3,$4,$5,0*
20,1,$1+$1,$4,$5,$6,$7,0*
20,1,$1+$1,$6,$7,$8,$9,0*
20,1,$1+$1,$8,$9,$2,$3,0*%
G04 Aperture macros list end*
%TA.AperFunction,ComponentPad*%
%ADD10RoundRect,0.200000X-0.450000X0.200000X-0.450000X-0.200000X0.450000X-0.200000X0.450000X0.200000X0*%
%TD*%
%TA.AperFunction,ComponentPad*%
%ADD11O,1.300000X0.800000*%
%TD*%
%TA.AperFunction,ComponentPad*%
%ADD12R,1.700000X1.700000*%
%TD*%
%TA.AperFunction,ComponentPad*%
%ADD13O,1.700000X1.700000*%
%TD*%
%TA.AperFunction,ViaPad*%
%ADD14C,0.800000*%
%TD*%
%TA.AperFunction,Conductor*%
%ADD15C,0.250000*%
%TD*%
G04 APERTURE END LIST*
D10*
%TO.P,J5,1,Pin_1*%
%TO.N,/C_UP*%
X24850004Y31981800D03*
D11*
%TO.P,J5,2,Pin_2*%
%TO.N,/C_TL*%
X24850004Y30731800D03*
%TO.P,J5,3,Pin_3*%
%TO.N,/C_X*%
X24850004Y29481800D03*
%TO.P,J5,4,Pin_4*%
%TO.N,/C_DOWN*%
X24850004Y28231800D03*
%TO.P,J5,5,Pin_5*%
%TO.N,/C_Y*%
X24850004Y26981800D03*
%TO.P,J5,6,Pin_6*%
%TO.N,/C_LEFT*%
X24850004Y25731800D03*
%TO.P,J5,7,Pin_7*%
%TO.N,/C_RIGHT*%
X24850004Y24481800D03*
%TO.P,J5,8,Pin_8*%
%TO.N,/C_TR*%
X24850004Y23231800D03*
%TO.P,J5,9,Pin_9*%
%TO.N,/C_B*%
X24850004Y21981800D03*
%TO.P,J5,10,Pin_10*%
%TO.N,/C_START*%
X24850004Y20731800D03*
%TO.P,J5,11,Pin_11*%
%TO.N,/C_SELECT*%
X24850004Y19481800D03*
%TO.P,J5,12,Pin_12*%
%TO.N,/C_A*%
X24850004Y18231800D03*
%TO.P,J5,13,Pin_13*%
%TO.N,/GND*%
X24850004Y16981800D03*
%TO.P,J5,14,Pin_14*%
%TO.N,/C_HK*%
X24850004Y15731800D03*
%TD*%
D12*
%TO.P,JP3,1,Pin_1*%
%TO.N,/HK*%
X8009804Y15773400D03*
D13*
%TO.P,JP3,2,Pin_2*%
%TO.N,/HK_T*%
X8009804Y13233400D03*
%TO.P,JP3,3,Pin_3*%
%TO.N,/GND*%
X8009804Y10693400D03*
%TD*%
D10*
%TO.P,J1,1,Pin_1*%
%TO.N,/GND*%
X3615604Y41529000D03*
D11*
%TO.P,J1,2,Pin_2*%
%TO.N,/UP*%
X3615604Y40279000D03*
%TO.P,J1,3,Pin_3*%
%TO.N,/DOWN*%
X3615604Y39029000D03*
%TO.P,J1,4,Pin_4*%
%TO.N,/LEFT*%
X3615604Y37779000D03*
%TO.P,J1,5,Pin_5*%
%TO.N,/RIGHT*%
X3615604Y36529000D03*
%TO.P,J1,6,Pin_6*%
%TO.N,/GND*%
X3615604Y35279000D03*
%TD*%
D12*
%TO.P,J12,1,Pin_1*%
%TO.N,/GND*%
X12023004Y41529000D03*
D13*
%TO.P,J12,2,Pin_2*%
%TO.N,/UP*%
X12023004Y38989000D03*
%TO.P,J12,3,Pin_3*%
%TO.N,/DOWN*%
X12023004Y36449000D03*
%TO.P,J12,4,Pin_4*%
%TO.N,/LEFT*%
X12023004Y33909000D03*
%TO.P,J12,5,Pin_5*%
%TO.N,/RIGHT*%
X12023004Y31369000D03*
%TO.P,J12,6,Pin_6*%
%TO.N,/START*%
X12023004Y28829000D03*
%TO.P,J12,7,Pin_7*%
%TO.N,/SELECT*%
X12023004Y26289000D03*
%TO.P,J12,8,Pin_8*%
%TO.N,/A*%
X12023004Y23749000D03*
%TO.P,J12,9,Pin_9*%
%TO.N,/B*%
X12023004Y21209000D03*
%TO.P,J12,10,Pin_10*%
%TO.N,/X*%
X12023004Y18669000D03*
%TO.P,J12,11,Pin_11*%
%TO.N,/Y*%
X12023004Y16129000D03*
%TO.P,J12,12,Pin_12*%
%TO.N,/TL*%
X12023004Y13589000D03*
%TO.P,J12,13,Pin_13*%
%TO.N,/TR*%
X12023004Y11049000D03*
%TO.P,J12,14,Pin_14*%
%TO.N,/HK*%
X12023004Y8509000D03*
%TO.P,J12,15,Pin_15*%
%TO.N,/GND*%
X12023004Y5969000D03*
%TD*%
D10*
%TO.P,J3,1,Pin_1*%
%TO.N,/GND*%
X3641004Y31115000D03*
D11*
%TO.P,J3,2,Pin_2*%
%TO.N,/UP*%
X3641004Y29865000D03*
%TO.P,J3,3,Pin_3*%
%TO.N,/DOWN*%
X3641004Y28615000D03*
%TO.P,J3,4,Pin_4*%
%TO.N,/LEFT*%
X3641004Y27365000D03*
%TO.P,J3,5,Pin_5*%
%TO.N,/RIGHT_T*%
X3641004Y26115000D03*
%TO.P,J3,6,Pin_6*%
%TO.N,/START*%
X3641004Y24865000D03*
%TO.P,J3,7,Pin_7*%
%TO.N,/SELECT_T*%
X3641004Y23615000D03*
%TO.P,J3,8,Pin_8*%
%TO.N,/A*%
X3641004Y22365000D03*
%TO.P,J3,9,Pin_9*%
%TO.N,/B*%
X3641004Y21115000D03*
%TO.P,J3,10,Pin_10*%
%TO.N,/X*%
X3641004Y19865000D03*
%TO.P,J3,11,Pin_11*%
%TO.N,/Y*%
X3641004Y18615000D03*
%TO.P,J3,12,Pin_12*%
%TO.N,/TL*%
X3641004Y17365000D03*
%TO.P,J3,13,Pin_13*%
%TO.N,/TR*%
X3641004Y16115000D03*
%TO.P,J3,14,Pin_14*%
%TO.N,/HK_T*%
X3641004Y14865000D03*
%TO.P,J3,15,Pin_15*%
%TO.N,/GND*%
X3641004Y13615000D03*
%TD*%
D12*
%TO.P,JP1,1,Pin_1*%
%TO.N,/RIGHT*%
X8009804Y34315400D03*
D13*
%TO.P,JP1,2,Pin_2*%
%TO.N,/RIGHT_T*%
X8009804Y31775400D03*
%TO.P,JP1,3,Pin_3*%
%TO.N,/GND*%
X8009804Y29235400D03*
%TD*%
D12*
%TO.P,J4,1,Pin_1*%
%TO.N,/GND*%
X19561155Y41529000D03*
D13*
%TO.P,J4,2,Pin_2*%
%TO.N,/C_UP*%
X19561155Y38989000D03*
%TO.P,J4,3,Pin_3*%
%TO.N,/C_DOWN*%
X19561155Y36449000D03*
%TO.P,J4,4,Pin_4*%
%TO.N,/C_LEFT*%
X19561155Y33909000D03*
%TO.P,J4,5,Pin_5*%
%TO.N,/C_RIGHT*%
X19561155Y31369000D03*
%TO.P,J4,6,Pin_6*%
%TO.N,/C_START*%
X19561155Y28829000D03*
%TO.P,J4,7,Pin_7*%
%TO.N,/C_SELECT*%
X19561155Y26289000D03*
%TO.P,J4,8,Pin_8*%
%TO.N,/C_A*%
X19561155Y23749000D03*
%TO.P,J4,9,Pin_9*%
%TO.N,/C_B*%
X19561155Y21209000D03*
%TO.P,J4,10,Pin_10*%
%TO.N,/C_X*%
X19561155Y18669000D03*
%TO.P,J4,11,Pin_11*%
%TO.N,/C_Y*%
X19561155Y16129000D03*
%TO.P,J4,12,Pin_12*%
%TO.N,/C_TL*%
X19561155Y13589000D03*
%TO.P,J4,13,Pin_13*%
%TO.N,/C_TR*%
X19561155Y11049000D03*
%TO.P,J4,14,Pin_14*%
%TO.N,/C_HK*%
X19561155Y8509000D03*
%TO.P,J4,15,Pin_15*%
%TO.N,/GND*%
X19561155Y5969000D03*
%TD*%
D12*
%TO.P,JP2,1,Pin_1*%
%TO.N,/SELECT*%
X8009804Y25044400D03*
D13*
%TO.P,JP2,2,Pin_2*%
%TO.N,/SELECT_T*%
X8009804Y22504400D03*
%TO.P,JP2,3,Pin_3*%
%TO.N,/GND*%
X8009804Y19964400D03*
%TD*%
D10*
%TO.P,J2,1,Pin_1*%
%TO.N,/GND*%
X3641004Y9525000D03*
D11*
%TO.P,J2,2,Pin_2*%
%TO.N,/START*%
X3641004Y8275000D03*
%TO.P,J2,3,Pin_3*%
%TO.N,/SELECT*%
X3641004Y7025000D03*
%TO.P,J2,4,Pin_4*%
%TO.N,/GND*%
X3641004Y5775000D03*
%TD*%
D10*
%TO.P,J9,1,Pin_1*%
%TO.N,/2P_UP*%
X38071404Y19369800D03*
D11*
%TO.P,J9,2,Pin_2*%
%TO.N,/2P_TL*%
X38071404Y18119800D03*
%TO.P,J9,3,Pin_3*%
%TO.N,/2P_X*%
X38071404Y16869800D03*
%TO.P,J9,4,Pin_4*%
%TO.N,/2P_DOWN*%
X38071404Y15619800D03*
%TO.P,J9,5,Pin_5*%
%TO.N,/2P_Y*%
X38071404Y14369800D03*
%TO.P,J9,6,Pin_6*%
%TO.N,/2P_LEFT*%
X38071404Y13119800D03*
%TO.P,J9,7,Pin_7*%
%TO.N,/2P_RIGHT*%
X38071404Y11869800D03*
%TO.P,J9,8,Pin_8*%
%TO.N,/2P_TR*%
X38071404Y10619800D03*
%TO.P,J9,9,Pin_9*%
%TO.N,/2P_B*%
X38071404Y9369800D03*
%TO.P,J9,10,Pin_10*%
%TO.N,/2P_START*%
X38071404Y8119800D03*
%TO.P,J9,11,Pin_11*%
%TO.N,/2P_SELECT*%
X38071404Y6869800D03*
%TO.P,J9,12,Pin_12*%
%TO.N,/2P_A*%
X38071404Y5619800D03*
%TO.P,J9,13,Pin_13*%
%TO.N,/2P_GND*%
X38071404Y4369800D03*
%TD*%
D10*
%TO.P,J11,1,Pin_1*%
%TO.N,/2P_UP*%
X28063804Y19369800D03*
D11*
%TO.P,J11,2,Pin_2*%
%TO.N,/2P_TL*%
X28063804Y18119800D03*
%TO.P,J11,3,Pin_3*%
%TO.N,/2P_X*%
X28063804Y16869800D03*
%TO.P,J11,4,Pin_4*%
%TO.N,/2P_DOWN*%
X28063804Y15619800D03*
%TO.P,J11,5,Pin_5*%
%TO.N,/2P_Y*%
X28063804Y14369800D03*
%TO.P,J11,6,Pin_6*%
%TO.N,/2P_LEFT*%
X28063804Y13119800D03*
%TO.P,J11,7,Pin_7*%
%TO.N,/2P_RIGHT*%
X28063804Y11869800D03*
%TO.P,J11,8,Pin_8*%
%TO.N,/2P_TR*%
X28063804Y10619800D03*
%TO.P,J11,9,Pin_9*%
%TO.N,/2P_B*%
X28063804Y9369800D03*
%TO.P,J11,10,Pin_10*%
%TO.N,/2P_START*%
X28063804Y8119800D03*
%TO.P,J11,11,Pin_11*%
%TO.N,/2P_SELECT*%
X28063804Y6869800D03*
%TO.P,J11,12,Pin_12*%
%TO.N,/2P_A*%
X28063804Y5619800D03*
%TO.P,J11,13,Pin_13*%
%TO.N,/2P_GND*%
X28063804Y4369800D03*
%TD*%
D12*
%TO.P,J7,1,Pin_1*%
%TO.N,/2P_UP*%
X31818004Y21823600D03*
D13*
%TO.P,J7,2,Pin_2*%
%TO.N,/2P_TL*%
X34358004Y21823600D03*
%TO.P,J7,3,Pin_3*%
%TO.N,/2P_GND*%
X31818004Y19283600D03*
%TO.P,J7,4,Pin_4*%
%TO.N,/2P_X*%
X34358004Y19283600D03*
%TO.P,J7,5,Pin_5*%
%TO.N,unconnected-(J7-Pin_5-Pad5)*%
X31818004Y16743600D03*
%TO.P,J7,6,Pin_6*%
%TO.N,unconnected-(J7-Pin_6-Pad6)*%
X34358004Y16743600D03*
%TO.P,J7,7,Pin_7*%
%TO.N,/2P_DOWN*%
X31818004Y14203600D03*
%TO.P,J7,8,Pin_8*%
%TO.N,/2P_GND*%
X34358004Y14203600D03*
%TO.P,J7,9,Pin_9*%
%TO.N,/2P_LEFT*%
X31818004Y11663600D03*
%TO.P,J7,10,Pin_10*%
%TO.N,/2P_Y*%
X34358004Y11663600D03*
%TO.P,J7,11,Pin_11*%
%TO.N,/2P_RIGHT*%
X31818004Y9123600D03*
%TO.P,J7,12,Pin_12*%
%TO.N,/2P_GND*%
X34358004Y9123600D03*
%TO.P,J7,13,Pin_13*%
%TO.N,/2P_START*%
X31818004Y6583600D03*
%TO.P,J7,14,Pin_14*%
%TO.N,/2P_TR*%
X34358004Y6583600D03*
%TO.P,J7,15,Pin_15*%
%TO.N,/2P_SELECT*%
X31818004Y4043600D03*
%TO.P,J7,16,Pin_16*%
%TO.N,/2P_B*%
X34358004Y4043600D03*
%TO.P,J7,17,Pin_17*%
%TO.N,/2P_GND*%
X31818004Y1503600D03*
%TO.P,J7,18,Pin_18*%
%TO.N,/2P_A*%
X34358004Y1503600D03*
%TD*%
D10*
%TO.P,J8,1,Pin_1*%
%TO.N,/1P_UP*%
X38071404Y44007800D03*
D11*
%TO.P,J8,2,Pin_2*%
%TO.N,/1P_TL*%
X38071404Y42757800D03*
%TO.P,J8,3,Pin_3*%
%TO.N,/1P_X*%
X38071404Y41507800D03*
%TO.P,J8,4,Pin_4*%
%TO.N,/1P_DOWN*%
X38071404Y40257800D03*
%TO.P,J8,5,Pin_5*%
%TO.N,/1P_Y*%
X38071404Y39007800D03*
%TO.P,J8,6,Pin_6*%
%TO.N,/1P_LEFT*%
X38071404Y37757800D03*
%TO.P,J8,7,Pin_7*%
%TO.N,/1P_RIGHT*%
X38071404Y36507800D03*
%TO.P,J8,8,Pin_8*%
%TO.N,/1P_TR*%
X38071404Y35257800D03*
%TO.P,J8,9,Pin_9*%
%TO.N,/1P_B*%
X38071404Y34007800D03*
%TO.P,J8,10,Pin_10*%
%TO.N,/1P_START*%
X38071404Y32757800D03*
%TO.P,J8,11,Pin_11*%
%TO.N,/1P_SELECT*%
X38071404Y31507800D03*
%TO.P,J8,12,Pin_12*%
%TO.N,/1P_A*%
X38071404Y30257800D03*
%TO.P,J8,13,Pin_13*%
%TO.N,/1P_GND*%
X38071404Y29007800D03*
%TO.P,J8,14,Pin_14*%
%TO.N,/1P_HK*%
X38071404Y27757800D03*
%TD*%
D12*
%TO.P,J6,1,Pin_1*%
%TO.N,/1P_UP*%
X31818004Y46055200D03*
D13*
%TO.P,J6,2,Pin_2*%
%TO.N,/1P_TL*%
X34358004Y46055200D03*
%TO.P,J6,3,Pin_3*%
%TO.N,/1P_GND*%
X31818004Y43515200D03*
%TO.P,J6,4,Pin_4*%
%TO.N,/1P_X*%
X34358004Y43515200D03*
%TO.P,J6,5,Pin_5*%
%TO.N,/1P_DOWN*%
X31818004Y40975200D03*
%TO.P,J6,6,Pin_6*%
%TO.N,/1P_Y*%
X34358004Y40975200D03*
%TO.P,J6,7,Pin_7*%
%TO.N,/1P_LEFT*%
X31818004Y38435200D03*
%TO.P,J6,8,Pin_8*%
%TO.N,/1P_GND*%
X34358004Y38435200D03*
%TO.P,J6,9,Pin_9*%
%TO.N,/1P_RIGHT*%
X31818004Y35895200D03*
%TO.P,J6,10,Pin_10*%
%TO.N,/1P_TR*%
X34358004Y35895200D03*
%TO.P,J6,11,Pin_11*%
%TO.N,unconnected-(J6-Pin_11-Pad11)*%
X31818004Y33355200D03*
%TO.P,J6,12,Pin_12*%
%TO.N,/1P_B*%
X34358004Y33355200D03*
%TO.P,J6,13,Pin_13*%
%TO.N,/1P_START*%
X31818004Y30815200D03*
%TO.P,J6,14,Pin_14*%
%TO.N,/1P_GND*%
X34358004Y30815200D03*
%TO.P,J6,15,Pin_15*%
%TO.N,/1P_SELECT*%
X31818004Y28275200D03*
%TO.P,J6,16,Pin_16*%
%TO.N,/1P_A*%
X34358004Y28275200D03*
%TO.P,J6,17,Pin_17*%
%TO.N,/1P_HK*%
X31818004Y25735200D03*
%TO.P,J6,18,Pin_18*%
%TO.N,unconnected-(J6-Pin_18-Pad18)*%
X34358004Y25735200D03*
%TD*%
D10*
%TO.P,J10,1,Pin_1*%
%TO.N,/1P_UP*%
X28089204Y44007800D03*
D11*
%TO.P,J10,2,Pin_2*%
%TO.N,/1P_TL*%
X28089204Y42757800D03*
%TO.P,J10,3,Pin_3*%
%TO.N,/1P_X*%
X28089204Y41507800D03*
%TO.P,J10,4,Pin_4*%
%TO.N,/1P_DOWN*%
X28089204Y40257800D03*
%TO.P,J10,5,Pin_5*%
%TO.N,/1P_Y*%
X28089204Y39007800D03*
%TO.P,J10,6,Pin_6*%
%TO.N,/1P_LEFT*%
X28089204Y37757800D03*
%TO.P,J10,7,Pin_7*%
%TO.N,/1P_RIGHT*%
X28089204Y36507800D03*
%TO.P,J10,8,Pin_8*%
%TO.N,/1P_TR*%
X28089204Y35257800D03*
%TO.P,J10,9,Pin_9*%
%TO.N,/1P_B*%
X28089204Y34007800D03*
%TO.P,J10,10,Pin_10*%
%TO.N,/1P_START*%
X28089204Y32757800D03*
%TO.P,J10,11,Pin_11*%
%TO.N,/1P_SELECT*%
X28089204Y31507800D03*
%TO.P,J10,12,Pin_12*%
%TO.N,/1P_A*%
X28089204Y30257800D03*
%TO.P,J10,13,Pin_13*%
%TO.N,/1P_GND*%
X28089204Y29007800D03*
%TO.P,J10,14,Pin_14*%
%TO.N,/1P_HK*%
X28089204Y27757800D03*
%TD*%
D14*
%TO.N,/C_B*%
X22685355Y16941800D03*
%TO.N,/2P_START*%
X36051504Y7218600D03*
%TD*%
D15*
%TO.N,/GND*%
X6130204Y31115000D02*
X8009804Y29235400D01*
X8009804Y19964400D02*
X9991004Y21945600D01*
X9991004Y27254200D02*
X8009804Y29235400D01*
X9991004Y21945600D02*
X9991004Y27254200D01*
X3641004Y31115000D02*
X6130204Y31115000D01*
%TO.N,/DOWN*%
X11337204Y36422699D02*
X12023004Y36422699D01*
X8730903Y39029000D02*
X11337204Y36422699D01*
X3615604Y39029000D02*
X8730903Y39029000D01*
%TO.N,/LEFT*%
X3615604Y37779000D02*
X8126703Y37779000D01*
X3615604Y37779000D02*
X3345404Y37779000D01*
X2320204Y28422600D02*
X3377804Y27365000D01*
X2320204Y36753800D02*
X2320204Y28422600D01*
X3377804Y27365000D02*
X3641004Y27365000D01*
X3345404Y37779000D02*
X2320204Y36753800D01*
X8126703Y37779000D02*
X12023004Y33882699D01*
%TO.N,/RIGHT*%
X5796204Y36529000D02*
X3615604Y36529000D01*
X8009804Y34315400D02*
X5796204Y36529000D01*
%TO.N,/START*%
X2320204Y9093200D02*
X3138404Y8275000D01*
X3138404Y8275000D02*
X3641004Y8275000D01*
X2320204Y23799800D02*
X2320204Y9093200D01*
X3641004Y24865000D02*
X3385404Y24865000D01*
X3385404Y24865000D02*
X2320204Y23799800D01*
%TO.N,/SELECT*%
X3929355Y7025000D02*
X5444404Y8540049D01*
X10848004Y21140899D02*
X10848004Y25087699D01*
X10848004Y25087699D02*
X12023004Y26262699D01*
X5444404Y8540049D02*
X5444404Y15737299D01*
X5444404Y15737299D02*
X10848004Y21140899D01*
X3666309Y7025000D02*
X3929355Y7025000D01*
%TO.N,/SELECT_T*%
X6899204Y23615000D02*
X8009804Y22504400D01*
X3641004Y23615000D02*
X6899204Y23615000D01*
%TO.N,/HK*%
X8009804Y15773400D02*
X9660804Y14122400D01*
X9660804Y14122400D02*
X9660804Y10871200D01*
X9660804Y10871200D02*
X12023004Y8509000D01*
%TO.N,/C_B*%
X22685355Y16941800D02*
X23523555Y17780000D01*
X24499555Y21981800D02*
X24850004Y21981800D01*
X23523555Y17780000D02*
X23523555Y21005800D01*
X23523555Y21005800D02*
X24499555Y21981800D01*
%TO.N,/C_X*%
X19561155Y18669000D02*
X20069155Y18669000D01*
X21923355Y20523200D02*
X21923355Y26924000D01*
X20069155Y18669000D02*
X21923355Y20523200D01*
X21923355Y26924000D02*
X24481155Y29481800D01*
X24481155Y29481800D02*
X24850004Y29481800D01*
%TO.N,/C_Y*%
X24521155Y26981800D02*
X24850004Y26981800D01*
X22456755Y19024600D02*
X22456755Y24917400D01*
X19561155Y16129000D02*
X22456755Y19024600D01*
X22456755Y24917400D02*
X24521155Y26981800D01*
%TO.N,/C_TL*%
X18773755Y30099000D02*
X23675955Y30099000D01*
X24308755Y30731800D02*
X24850004Y30731800D01*
X18189555Y29514800D02*
X18773755Y30099000D01*
X23675955Y30099000D02*
X24308755Y30731800D01*
X18189555Y14960600D02*
X18189555Y29514800D01*
X19561155Y13589000D02*
X18189555Y14960600D01*
%TO.N,/C_TR*%
X23073555Y18904800D02*
X23073555Y21800400D01*
X21516955Y13004800D02*
X21516955Y17348200D01*
X24504955Y23231800D02*
X24850004Y23231800D01*
X23073555Y21800400D02*
X24504955Y23231800D01*
X21516955Y17348200D02*
X23073555Y18904800D01*
X19561155Y11049000D02*
X21516955Y13004800D01*
%TO.N,/C_HK*%
X19561155Y8509000D02*
X19967555Y8509000D01*
X24850004Y13391449D02*
X24850004Y15731800D01*
X19967555Y8509000D02*
X24850004Y13391449D01*
%TO.N,/1P_UP*%
X33103404Y44769800D02*
X31818004Y46055200D01*
X37578804Y44007800D02*
X36816804Y44769800D01*
X36816804Y44769800D02*
X33103404Y44769800D01*
X38071404Y44007800D02*
X37578804Y44007800D01*
%TO.N,/2P_GND*%
X31818004Y1503600D02*
X31442004Y1503600D01*
X33093004Y15468600D02*
X34358004Y14203600D01*
X34358004Y14203600D02*
X33093004Y12938600D01*
X33093004Y12938600D02*
X33093004Y10388600D01*
X33037204Y2722800D02*
X36424404Y2722800D01*
X31818004Y1503600D02*
X33037204Y2722800D01*
X33093004Y10388600D02*
X34358004Y9123600D01*
X31442004Y1503600D02*
X28575804Y4369800D01*
X33093004Y7858600D02*
X33093004Y2778600D01*
X34358004Y9123600D02*
X33093004Y7858600D01*
X33093004Y18008600D02*
X33093004Y15468600D01*
X31818004Y19283600D02*
X33093004Y18008600D01*
X36424404Y2722800D02*
X38071404Y4369800D01*
X33093004Y2778600D02*
X31818004Y1503600D01*
X28575804Y4369800D02*
X28063804Y4369800D01*
%TO.N,/2P_UP*%
X37553404Y19369800D02*
X36334204Y20589000D01*
X38071404Y19369800D02*
X37553404Y19369800D01*
X36334204Y20589000D02*
X33052604Y20589000D01*
X33052604Y20589000D02*
X31818004Y21823600D01*
%TO.N,/2P_START*%
X36952704Y8119800D02*
X38071404Y8119800D01*
X30281804Y8119800D02*
X31818004Y6583600D01*
X36051504Y7218600D02*
X36952704Y8119800D01*
X28063804Y8119800D02*
X30281804Y8119800D01*
%TO.N,/1P_GND*%
X36165404Y29007800D02*
X38071404Y29007800D01*
X31818004Y43515200D02*
X33093004Y42240200D01*
X33088004Y29545200D02*
X34358004Y30815200D01*
X34358004Y30815200D02*
X36165404Y29007800D01*
X33093004Y42240200D02*
X33093004Y39700200D01*
X28089204Y29007800D02*
X28644004Y29007800D01*
X28644004Y29007800D02*
X29181404Y29545200D01*
X33093004Y32080200D02*
X34358004Y30815200D01*
X33093004Y37170200D02*
X33093004Y32080200D01*
X29181404Y29545200D02*
X33088004Y29545200D01*
X34358004Y38435200D02*
X33093004Y37170200D01*
X33093004Y39700200D02*
X34358004Y38435200D01*
%TD*%
M02*
