%TF.GenerationSoftware,KiCad,Pcbnew,7.0.1*%
%TF.CreationDate,2023-03-26T20:19:22+09:00*%
%TF.ProjectId,joystick_gpio_input,6a6f7973-7469-4636-9b5f-6770696f5f69,2*%
%TF.SameCoordinates,PX78649acPY7936aa0*%
%TF.FileFunction,Copper,L1,Top*%
%TF.FilePolarity,Positive*%
%FSLAX46Y46*%
G04 Gerber Fmt 4.6, Leading zero omitted, Abs format (unit mm)*
G04 Created by KiCad (PCBNEW 7.0.1) date 2023-03-26 20:19:22*
%MOMM*%
%LPD*%
G01*
G04 APERTURE LIST*
G04 Aperture macros list*
%AMRoundRect*
0 Rectangle with rounded corners*
0 $1 Rounding radius*
0 $2 $3 $4 $5 $6 $7 $8 $9 X,Y pos of 4 corners*
0 Add a 4 corners polygon primitive as box body*
4,1,4,$2,$3,$4,$5,$6,$7,$8,$9,$2,$3,0*
0 Add four circle primitives for the rounded corners*
1,1,$1+$1,$2,$3*
1,1,$1+$1,$4,$5*
1,1,$1+$1,$6,$7*
1,1,$1+$1,$8,$9*
0 Add four rect primitives between the rounded corners*
20,1,$1+$1,$2,$3,$4,$5,0*
20,1,$1+$1,$4,$5,$6,$7,0*
20,1,$1+$1,$6,$7,$8,$9,0*
20,1,$1+$1,$8,$9,$2,$3,0*%
G04 Aperture macros list end*
%TA.AperFunction,SMDPad,CuDef*%
%ADD10RoundRect,0.250000X-0.350000X-0.450000X0.350000X-0.450000X0.350000X0.450000X-0.350000X0.450000X0*%
%TD*%
%TA.AperFunction,ComponentPad*%
%ADD11RoundRect,0.200000X-0.450000X0.200000X-0.450000X-0.200000X0.450000X-0.200000X0.450000X0.200000X0*%
%TD*%
%TA.AperFunction,ComponentPad*%
%ADD12O,1.300000X0.800000*%
%TD*%
%TA.AperFunction,ComponentPad*%
%ADD13R,1.700000X1.700000*%
%TD*%
%TA.AperFunction,ComponentPad*%
%ADD14O,1.700000X1.700000*%
%TD*%
%TA.AperFunction,ViaPad*%
%ADD15C,0.800000*%
%TD*%
%TA.AperFunction,Conductor*%
%ADD16C,0.250000*%
%TD*%
G04 APERTURE END LIST*
D10*
%TO.P,R10,1*%
%TO.N,/Y*%
X14801955Y16129000D03*
%TO.P,R10,2*%
%TO.N,/C_Y*%
X16801955Y16129000D03*
%TD*%
%TO.P,R12,1*%
%TO.N,/TR*%
X14801955Y11049000D03*
%TO.P,R12,2*%
%TO.N,/C_TR*%
X16801955Y11049000D03*
%TD*%
D11*
%TO.P,J5,1,Pin_1*%
%TO.N,/C_UP*%
X24850004Y31981800D03*
D12*
%TO.P,J5,2,Pin_2*%
%TO.N,/C_TL*%
X24850004Y30731800D03*
%TO.P,J5,3,Pin_3*%
%TO.N,/C_X*%
X24850004Y29481800D03*
%TO.P,J5,4,Pin_4*%
%TO.N,/C_DOWN*%
X24850004Y28231800D03*
%TO.P,J5,5,Pin_5*%
%TO.N,/C_Y*%
X24850004Y26981800D03*
%TO.P,J5,6,Pin_6*%
%TO.N,/C_LEFT*%
X24850004Y25731800D03*
%TO.P,J5,7,Pin_7*%
%TO.N,/C_RIGHT*%
X24850004Y24481800D03*
%TO.P,J5,8,Pin_8*%
%TO.N,/C_TR*%
X24850004Y23231800D03*
%TO.P,J5,9,Pin_9*%
%TO.N,/C_B*%
X24850004Y21981800D03*
%TO.P,J5,10,Pin_10*%
%TO.N,/C_START*%
X24850004Y20731800D03*
%TO.P,J5,11,Pin_11*%
%TO.N,/C_SELECT*%
X24850004Y19481800D03*
%TO.P,J5,12,Pin_12*%
%TO.N,/C_A*%
X24850004Y18231800D03*
%TO.P,J5,13,Pin_13*%
%TO.N,/GND*%
X24850004Y16981800D03*
%TO.P,J5,14,Pin_14*%
%TO.N,/C_HK*%
X24850004Y15731800D03*
%TD*%
D10*
%TO.P,R13,1*%
%TO.N,/HK*%
X14801955Y8509000D03*
%TO.P,R13,2*%
%TO.N,/C_HK*%
X16801955Y8509000D03*
%TD*%
%TO.P,R11,1*%
%TO.N,/TL*%
X14801955Y13589000D03*
%TO.P,R11,2*%
%TO.N,/C_TL*%
X16801955Y13589000D03*
%TD*%
%TO.P,R4,1*%
%TO.N,/RIGHT*%
X14801955Y31369000D03*
%TO.P,R4,2*%
%TO.N,/C_RIGHT*%
X16801955Y31369000D03*
%TD*%
%TO.P,R9,1*%
%TO.N,/X*%
X14801955Y18669000D03*
%TO.P,R9,2*%
%TO.N,/C_X*%
X16801955Y18669000D03*
%TD*%
%TO.P,R5,1*%
%TO.N,/START*%
X14801955Y28829000D03*
%TO.P,R5,2*%
%TO.N,/C_START*%
X16801955Y28829000D03*
%TD*%
D13*
%TO.P,JP3,1,Pin_1*%
%TO.N,/HK*%
X8009804Y15773400D03*
D14*
%TO.P,JP3,2,Pin_2*%
%TO.N,/HK_T*%
X8009804Y13233400D03*
%TO.P,JP3,3,Pin_3*%
%TO.N,/GND*%
X8009804Y10693400D03*
%TD*%
D10*
%TO.P,R2,1*%
%TO.N,/DOWN*%
X14801955Y36449000D03*
%TO.P,R2,2*%
%TO.N,/C_DOWN*%
X16801955Y36449000D03*
%TD*%
D11*
%TO.P,J1,1,Pin_1*%
%TO.N,/GND*%
X3615604Y41529000D03*
D12*
%TO.P,J1,2,Pin_2*%
%TO.N,/UP*%
X3615604Y40279000D03*
%TO.P,J1,3,Pin_3*%
%TO.N,/DOWN*%
X3615604Y39029000D03*
%TO.P,J1,4,Pin_4*%
%TO.N,/LEFT*%
X3615604Y37779000D03*
%TO.P,J1,5,Pin_5*%
%TO.N,/RIGHT*%
X3615604Y36529000D03*
%TO.P,J1,6,Pin_6*%
%TO.N,/GND*%
X3615604Y35279000D03*
%TD*%
D13*
%TO.P,J12,1,Pin_1*%
%TO.N,/GND*%
X12023004Y41529000D03*
D14*
%TO.P,J12,2,Pin_2*%
%TO.N,/UP*%
X12023004Y38989000D03*
%TO.P,J12,3,Pin_3*%
%TO.N,/DOWN*%
X12023004Y36449000D03*
%TO.P,J12,4,Pin_4*%
%TO.N,/LEFT*%
X12023004Y33909000D03*
%TO.P,J12,5,Pin_5*%
%TO.N,/RIGHT*%
X12023004Y31369000D03*
%TO.P,J12,6,Pin_6*%
%TO.N,/START*%
X12023004Y28829000D03*
%TO.P,J12,7,Pin_7*%
%TO.N,/SELECT*%
X12023004Y26289000D03*
%TO.P,J12,8,Pin_8*%
%TO.N,/A*%
X12023004Y23749000D03*
%TO.P,J12,9,Pin_9*%
%TO.N,/B*%
X12023004Y21209000D03*
%TO.P,J12,10,Pin_10*%
%TO.N,/X*%
X12023004Y18669000D03*
%TO.P,J12,11,Pin_11*%
%TO.N,/Y*%
X12023004Y16129000D03*
%TO.P,J12,12,Pin_12*%
%TO.N,/TL*%
X12023004Y13589000D03*
%TO.P,J12,13,Pin_13*%
%TO.N,/TR*%
X12023004Y11049000D03*
%TO.P,J12,14,Pin_14*%
%TO.N,/HK*%
X12023004Y8509000D03*
%TO.P,J12,15,Pin_15*%
%TO.N,/GND*%
X12023004Y5969000D03*
%TD*%
D10*
%TO.P,R8,1*%
%TO.N,/B*%
X14801955Y21209000D03*
%TO.P,R8,2*%
%TO.N,/C_B*%
X16801955Y21209000D03*
%TD*%
%TO.P,R3,1*%
%TO.N,/LEFT*%
X14801955Y33909000D03*
%TO.P,R3,2*%
%TO.N,/C_LEFT*%
X16801955Y33909000D03*
%TD*%
D11*
%TO.P,J3,1,Pin_1*%
%TO.N,/GND*%
X3641004Y31115000D03*
D12*
%TO.P,J3,2,Pin_2*%
%TO.N,/UP*%
X3641004Y29865000D03*
%TO.P,J3,3,Pin_3*%
%TO.N,/DOWN*%
X3641004Y28615000D03*
%TO.P,J3,4,Pin_4*%
%TO.N,/LEFT*%
X3641004Y27365000D03*
%TO.P,J3,5,Pin_5*%
%TO.N,/RIGHT_T*%
X3641004Y26115000D03*
%TO.P,J3,6,Pin_6*%
%TO.N,/START*%
X3641004Y24865000D03*
%TO.P,J3,7,Pin_7*%
%TO.N,/SELECT_T*%
X3641004Y23615000D03*
%TO.P,J3,8,Pin_8*%
%TO.N,/A*%
X3641004Y22365000D03*
%TO.P,J3,9,Pin_9*%
%TO.N,/B*%
X3641004Y21115000D03*
%TO.P,J3,10,Pin_10*%
%TO.N,/X*%
X3641004Y19865000D03*
%TO.P,J3,11,Pin_11*%
%TO.N,/Y*%
X3641004Y18615000D03*
%TO.P,J3,12,Pin_12*%
%TO.N,/TL*%
X3641004Y17365000D03*
%TO.P,J3,13,Pin_13*%
%TO.N,/TR*%
X3641004Y16115000D03*
%TO.P,J3,14,Pin_14*%
%TO.N,/HK_T*%
X3641004Y14865000D03*
%TO.P,J3,15,Pin_15*%
%TO.N,/GND*%
X3641004Y13615000D03*
%TD*%
D13*
%TO.P,JP1,1,Pin_1*%
%TO.N,/RIGHT*%
X8009804Y34315400D03*
D14*
%TO.P,JP1,2,Pin_2*%
%TO.N,/RIGHT_T*%
X8009804Y31775400D03*
%TO.P,JP1,3,Pin_3*%
%TO.N,/GND*%
X8009804Y29235400D03*
%TD*%
D13*
%TO.P,J4,1,Pin_1*%
%TO.N,/GND*%
X19561155Y41529000D03*
D14*
%TO.P,J4,2,Pin_2*%
%TO.N,/C_UP*%
X19561155Y38989000D03*
%TO.P,J4,3,Pin_3*%
%TO.N,/C_DOWN*%
X19561155Y36449000D03*
%TO.P,J4,4,Pin_4*%
%TO.N,/C_LEFT*%
X19561155Y33909000D03*
%TO.P,J4,5,Pin_5*%
%TO.N,/C_RIGHT*%
X19561155Y31369000D03*
%TO.P,J4,6,Pin_6*%
%TO.N,/C_START*%
X19561155Y28829000D03*
%TO.P,J4,7,Pin_7*%
%TO.N,/C_SELECT*%
X19561155Y26289000D03*
%TO.P,J4,8,Pin_8*%
%TO.N,/C_A*%
X19561155Y23749000D03*
%TO.P,J4,9,Pin_9*%
%TO.N,/C_B*%
X19561155Y21209000D03*
%TO.P,J4,10,Pin_10*%
%TO.N,/C_X*%
X19561155Y18669000D03*
%TO.P,J4,11,Pin_11*%
%TO.N,/C_Y*%
X19561155Y16129000D03*
%TO.P,J4,12,Pin_12*%
%TO.N,/C_TL*%
X19561155Y13589000D03*
%TO.P,J4,13,Pin_13*%
%TO.N,/C_TR*%
X19561155Y11049000D03*
%TO.P,J4,14,Pin_14*%
%TO.N,/C_HK*%
X19561155Y8509000D03*
%TO.P,J4,15,Pin_15*%
%TO.N,/GND*%
X19561155Y5969000D03*
%TD*%
D13*
%TO.P,JP2,1,Pin_1*%
%TO.N,/SELECT*%
X8009804Y25044400D03*
D14*
%TO.P,JP2,2,Pin_2*%
%TO.N,/SELECT_T*%
X8009804Y22504400D03*
%TO.P,JP2,3,Pin_3*%
%TO.N,/GND*%
X8009804Y19964400D03*
%TD*%
D11*
%TO.P,J2,1,Pin_1*%
%TO.N,/GND*%
X3641004Y9525000D03*
D12*
%TO.P,J2,2,Pin_2*%
%TO.N,/START*%
X3641004Y8275000D03*
%TO.P,J2,3,Pin_3*%
%TO.N,/SELECT*%
X3641004Y7025000D03*
%TO.P,J2,4,Pin_4*%
%TO.N,/GND*%
X3641004Y5775000D03*
%TD*%
D10*
%TO.P,R7,1*%
%TO.N,/A*%
X14801955Y23749000D03*
%TO.P,R7,2*%
%TO.N,/C_A*%
X16801955Y23749000D03*
%TD*%
%TO.P,R6,1*%
%TO.N,/SELECT*%
X14801955Y26289000D03*
%TO.P,R6,2*%
%TO.N,/C_SELECT*%
X16801955Y26289000D03*
%TD*%
%TO.P,R1,1*%
%TO.N,/UP*%
X14801955Y38989000D03*
%TO.P,R1,2*%
%TO.N,/C_UP*%
X16801955Y38989000D03*
%TD*%
D11*
%TO.P,J9,1,Pin_1*%
%TO.N,/2P_UP*%
X38071404Y19369800D03*
D12*
%TO.P,J9,2,Pin_2*%
%TO.N,/2P_TL*%
X38071404Y18119800D03*
%TO.P,J9,3,Pin_3*%
%TO.N,/2P_X*%
X38071404Y16869800D03*
%TO.P,J9,4,Pin_4*%
%TO.N,/2P_DOWN*%
X38071404Y15619800D03*
%TO.P,J9,5,Pin_5*%
%TO.N,/2P_Y*%
X38071404Y14369800D03*
%TO.P,J9,6,Pin_6*%
%TO.N,/2P_LEFT*%
X38071404Y13119800D03*
%TO.P,J9,7,Pin_7*%
%TO.N,/2P_RIGHT*%
X38071404Y11869800D03*
%TO.P,J9,8,Pin_8*%
%TO.N,/2P_TR*%
X38071404Y10619800D03*
%TO.P,J9,9,Pin_9*%
%TO.N,/2P_B*%
X38071404Y9369800D03*
%TO.P,J9,10,Pin_10*%
%TO.N,/2P_START*%
X38071404Y8119800D03*
%TO.P,J9,11,Pin_11*%
%TO.N,/2P_SELECT*%
X38071404Y6869800D03*
%TO.P,J9,12,Pin_12*%
%TO.N,/2P_A*%
X38071404Y5619800D03*
%TO.P,J9,13,Pin_13*%
%TO.N,/2P_GND*%
X38071404Y4369800D03*
%TD*%
D11*
%TO.P,J11,1,Pin_1*%
%TO.N,/2P_UP*%
X28063804Y19369800D03*
D12*
%TO.P,J11,2,Pin_2*%
%TO.N,/2P_TL*%
X28063804Y18119800D03*
%TO.P,J11,3,Pin_3*%
%TO.N,/2P_X*%
X28063804Y16869800D03*
%TO.P,J11,4,Pin_4*%
%TO.N,/2P_DOWN*%
X28063804Y15619800D03*
%TO.P,J11,5,Pin_5*%
%TO.N,/2P_Y*%
X28063804Y14369800D03*
%TO.P,J11,6,Pin_6*%
%TO.N,/2P_LEFT*%
X28063804Y13119800D03*
%TO.P,J11,7,Pin_7*%
%TO.N,/2P_RIGHT*%
X28063804Y11869800D03*
%TO.P,J11,8,Pin_8*%
%TO.N,/2P_TR*%
X28063804Y10619800D03*
%TO.P,J11,9,Pin_9*%
%TO.N,/2P_B*%
X28063804Y9369800D03*
%TO.P,J11,10,Pin_10*%
%TO.N,/2P_START*%
X28063804Y8119800D03*
%TO.P,J11,11,Pin_11*%
%TO.N,/2P_SELECT*%
X28063804Y6869800D03*
%TO.P,J11,12,Pin_12*%
%TO.N,/2P_A*%
X28063804Y5619800D03*
%TO.P,J11,13,Pin_13*%
%TO.N,/2P_GND*%
X28063804Y4369800D03*
%TD*%
D13*
%TO.P,J7,1,Pin_1*%
%TO.N,/2P_UP*%
X31818004Y21823600D03*
D14*
%TO.P,J7,2,Pin_2*%
%TO.N,/2P_TL*%
X34358004Y21823600D03*
%TO.P,J7,3,Pin_3*%
%TO.N,/2P_GND*%
X31818004Y19283600D03*
%TO.P,J7,4,Pin_4*%
%TO.N,/2P_X*%
X34358004Y19283600D03*
%TO.P,J7,5,Pin_5*%
%TO.N,unconnected-(J7-Pin_5-Pad5)*%
X31818004Y16743600D03*
%TO.P,J7,6,Pin_6*%
%TO.N,unconnected-(J7-Pin_6-Pad6)*%
X34358004Y16743600D03*
%TO.P,J7,7,Pin_7*%
%TO.N,/2P_DOWN*%
X31818004Y14203600D03*
%TO.P,J7,8,Pin_8*%
%TO.N,/2P_GND*%
X34358004Y14203600D03*
%TO.P,J7,9,Pin_9*%
%TO.N,/2P_LEFT*%
X31818004Y11663600D03*
%TO.P,J7,10,Pin_10*%
%TO.N,/2P_Y*%
X34358004Y11663600D03*
%TO.P,J7,11,Pin_11*%
%TO.N,/2P_RIGHT*%
X31818004Y9123600D03*
%TO.P,J7,12,Pin_12*%
%TO.N,/2P_GND*%
X34358004Y9123600D03*
%TO.P,J7,13,Pin_13*%
%TO.N,/2P_START*%
X31818004Y6583600D03*
%TO.P,J7,14,Pin_14*%
%TO.N,/2P_TR*%
X34358004Y6583600D03*
%TO.P,J7,15,Pin_15*%
%TO.N,/2P_SELECT*%
X31818004Y4043600D03*
%TO.P,J7,16,Pin_16*%
%TO.N,/2P_B*%
X34358004Y4043600D03*
%TO.P,J7,17,Pin_17*%
%TO.N,/2P_GND*%
X31818004Y1503600D03*
%TO.P,J7,18,Pin_18*%
%TO.N,/2P_A*%
X34358004Y1503600D03*
%TD*%
D11*
%TO.P,J8,1,Pin_1*%
%TO.N,/1P_UP*%
X38071404Y44007800D03*
D12*
%TO.P,J8,2,Pin_2*%
%TO.N,/1P_TL*%
X38071404Y42757800D03*
%TO.P,J8,3,Pin_3*%
%TO.N,/1P_X*%
X38071404Y41507800D03*
%TO.P,J8,4,Pin_4*%
%TO.N,/1P_DOWN*%
X38071404Y40257800D03*
%TO.P,J8,5,Pin_5*%
%TO.N,/1P_Y*%
X38071404Y39007800D03*
%TO.P,J8,6,Pin_6*%
%TO.N,/1P_LEFT*%
X38071404Y37757800D03*
%TO.P,J8,7,Pin_7*%
%TO.N,/1P_RIGHT*%
X38071404Y36507800D03*
%TO.P,J8,8,Pin_8*%
%TO.N,/1P_TR*%
X38071404Y35257800D03*
%TO.P,J8,9,Pin_9*%
%TO.N,/1P_B*%
X38071404Y34007800D03*
%TO.P,J8,10,Pin_10*%
%TO.N,/1P_START*%
X38071404Y32757800D03*
%TO.P,J8,11,Pin_11*%
%TO.N,/1P_SELECT*%
X38071404Y31507800D03*
%TO.P,J8,12,Pin_12*%
%TO.N,/1P_A*%
X38071404Y30257800D03*
%TO.P,J8,13,Pin_13*%
%TO.N,/1P_GND*%
X38071404Y29007800D03*
%TO.P,J8,14,Pin_14*%
%TO.N,/1P_HK*%
X38071404Y27757800D03*
%TD*%
D13*
%TO.P,J6,1,Pin_1*%
%TO.N,/1P_UP*%
X31818004Y46055200D03*
D14*
%TO.P,J6,2,Pin_2*%
%TO.N,/1P_TL*%
X34358004Y46055200D03*
%TO.P,J6,3,Pin_3*%
%TO.N,/1P_GND*%
X31818004Y43515200D03*
%TO.P,J6,4,Pin_4*%
%TO.N,/1P_X*%
X34358004Y43515200D03*
%TO.P,J6,5,Pin_5*%
%TO.N,/1P_DOWN*%
X31818004Y40975200D03*
%TO.P,J6,6,Pin_6*%
%TO.N,/1P_Y*%
X34358004Y40975200D03*
%TO.P,J6,7,Pin_7*%
%TO.N,/1P_LEFT*%
X31818004Y38435200D03*
%TO.P,J6,8,Pin_8*%
%TO.N,/1P_GND*%
X34358004Y38435200D03*
%TO.P,J6,9,Pin_9*%
%TO.N,/1P_RIGHT*%
X31818004Y35895200D03*
%TO.P,J6,10,Pin_10*%
%TO.N,/1P_TR*%
X34358004Y35895200D03*
%TO.P,J6,11,Pin_11*%
%TO.N,unconnected-(J6-Pin_11-Pad11)*%
X31818004Y33355200D03*
%TO.P,J6,12,Pin_12*%
%TO.N,/1P_B*%
X34358004Y33355200D03*
%TO.P,J6,13,Pin_13*%
%TO.N,/1P_START*%
X31818004Y30815200D03*
%TO.P,J6,14,Pin_14*%
%TO.N,/1P_GND*%
X34358004Y30815200D03*
%TO.P,J6,15,Pin_15*%
%TO.N,/1P_SELECT*%
X31818004Y28275200D03*
%TO.P,J6,16,Pin_16*%
%TO.N,/1P_A*%
X34358004Y28275200D03*
%TO.P,J6,17,Pin_17*%
%TO.N,/1P_HK*%
X31818004Y25735200D03*
%TO.P,J6,18,Pin_18*%
%TO.N,unconnected-(J6-Pin_18-Pad18)*%
X34358004Y25735200D03*
%TD*%
D11*
%TO.P,J10,1,Pin_1*%
%TO.N,/1P_UP*%
X28089204Y44007800D03*
D12*
%TO.P,J10,2,Pin_2*%
%TO.N,/1P_TL*%
X28089204Y42757800D03*
%TO.P,J10,3,Pin_3*%
%TO.N,/1P_X*%
X28089204Y41507800D03*
%TO.P,J10,4,Pin_4*%
%TO.N,/1P_DOWN*%
X28089204Y40257800D03*
%TO.P,J10,5,Pin_5*%
%TO.N,/1P_Y*%
X28089204Y39007800D03*
%TO.P,J10,6,Pin_6*%
%TO.N,/1P_LEFT*%
X28089204Y37757800D03*
%TO.P,J10,7,Pin_7*%
%TO.N,/1P_RIGHT*%
X28089204Y36507800D03*
%TO.P,J10,8,Pin_8*%
%TO.N,/1P_TR*%
X28089204Y35257800D03*
%TO.P,J10,9,Pin_9*%
%TO.N,/1P_B*%
X28089204Y34007800D03*
%TO.P,J10,10,Pin_10*%
%TO.N,/1P_START*%
X28089204Y32757800D03*
%TO.P,J10,11,Pin_11*%
%TO.N,/1P_SELECT*%
X28089204Y31507800D03*
%TO.P,J10,12,Pin_12*%
%TO.N,/1P_A*%
X28089204Y30257800D03*
%TO.P,J10,13,Pin_13*%
%TO.N,/1P_GND*%
X28089204Y29007800D03*
%TO.P,J10,14,Pin_14*%
%TO.N,/1P_HK*%
X28089204Y27757800D03*
%TD*%
D15*
%TO.N,/C_B*%
X22685355Y16941800D03*
%TO.N,/2P_START*%
X36051504Y7218600D03*
%TD*%
D16*
%TO.N,/GND*%
X2447204Y40689899D02*
X3286305Y41529000D01*
X19561155Y5969000D02*
X23218755Y9626600D01*
X2320204Y30275899D02*
X3159305Y31115000D01*
X3615604Y41529000D02*
X12023004Y41529000D01*
X3641004Y13615000D02*
X3641004Y9525000D01*
X12049305Y5969000D02*
X19561155Y5969000D01*
X8009804Y10693400D02*
X8009804Y9982200D01*
X3615604Y35279000D02*
X3184503Y35279000D01*
X3641004Y5775000D02*
X3224503Y5775000D01*
X2472604Y8863699D02*
X3133905Y9525000D01*
X2472604Y6526899D02*
X2472604Y8863699D01*
X24452555Y16981800D02*
X24850004Y16981800D01*
X23218755Y9626600D02*
X23218755Y15748000D01*
X3641004Y5775000D02*
X11829004Y5775000D01*
X23218755Y15748000D02*
X24452555Y16981800D01*
X3641004Y13615000D02*
X3233103Y13615000D01*
X3615604Y35279000D02*
X3615604Y31140400D01*
X3159305Y31115000D02*
X3641004Y31115000D01*
X12023004Y5969000D02*
X12049305Y5969000D01*
X3286305Y41529000D02*
X3615604Y41529000D01*
X8009804Y9982200D02*
X12023004Y5969000D01*
X11829004Y5775000D02*
X12023004Y5969000D01*
X2447204Y36016299D02*
X2447204Y40689899D01*
X3233103Y13615000D02*
X2320204Y14527899D01*
X2320204Y14527899D02*
X2320204Y30275899D01*
X3615604Y31140400D02*
X3641004Y31115000D01*
X3224503Y5775000D02*
X2472604Y6526899D01*
X3184503Y35279000D02*
X2447204Y36016299D01*
X3133905Y9525000D02*
X3641004Y9525000D01*
X19561155Y41529000D02*
X12023004Y41529000D01*
%TO.N,/UP*%
X5088804Y30810200D02*
X5088804Y38831105D01*
X3615604Y40279000D02*
X10249503Y40279000D01*
X14801955Y38989000D02*
X12023004Y38989000D01*
X5088804Y38831105D02*
X3640909Y40279000D01*
X10249503Y40279000D02*
X11539503Y38989000D01*
X4143604Y29865000D02*
X5088804Y30810200D01*
X3640909Y40279000D02*
X3615604Y40279000D01*
X3641004Y29865000D02*
X4143604Y29865000D01*
X11539503Y38989000D02*
X12023004Y38989000D01*
%TO.N,/DOWN*%
X6842305Y36449000D02*
X12023004Y36449000D01*
X3641004Y28615000D02*
X4138204Y28615000D01*
X4138204Y28615000D02*
X6275404Y30752200D01*
X6275404Y35882099D02*
X6842305Y36449000D01*
X6275404Y30752200D02*
X6275404Y35882099D01*
X12023004Y36449000D02*
X14801955Y36449000D01*
%TO.N,/LEFT*%
X14775654Y33882699D02*
X12049305Y33882699D01*
%TO.N,/RIGHT*%
X14801955Y31369000D02*
X10956204Y31369000D01*
X10956204Y31369000D02*
X8009804Y34315400D01*
%TO.N,/START*%
X14775654Y28802699D02*
X14801955Y28829000D01*
X4147404Y24865000D02*
X6231804Y26949400D01*
X10169705Y26949400D02*
X12023004Y28802699D01*
X12023004Y28802699D02*
X14775654Y28802699D01*
X3641004Y24865000D02*
X4147404Y24865000D01*
X6231805Y26949400D02*
X10169705Y26949400D01*
%TO.N,/SELECT*%
X8009804Y25044400D02*
X10804705Y25044400D01*
X12049305Y26289000D02*
X14801955Y26289000D01*
X10804705Y25044400D02*
X12049305Y26289000D01*
%TO.N,/RIGHT_T*%
X4127404Y26115000D02*
X3641004Y26115000D01*
X5622204Y27609800D02*
X4127404Y26115000D01*
X8009804Y31318200D02*
X5622204Y28930600D01*
X5622204Y28930600D02*
X5622204Y27609800D01*
X8009804Y31775400D02*
X8009804Y31318200D01*
%TO.N,/A*%
X4111204Y22365000D02*
X5495204Y23749000D01*
X3641004Y22365000D02*
X4111204Y22365000D01*
X5495204Y23749000D02*
X14801955Y23749000D01*
%TO.N,/B*%
X3734103Y21208099D02*
X11997604Y21208099D01*
X3641004Y21115000D02*
X3734103Y21208099D01*
X11998505Y21209000D02*
X14801955Y21209000D01*
X3735004Y21209000D02*
X3641004Y21115000D01*
X11997604Y21208099D02*
X11998505Y21209000D01*
%TO.N,/X*%
X12049305Y18669000D02*
X14801955Y18669000D01*
X11819804Y18439499D02*
X12049305Y18669000D01*
X3641004Y19865000D02*
X4045204Y19865000D01*
X4045204Y19865000D02*
X5470705Y18439499D01*
X5470705Y18439499D02*
X11819804Y18439499D01*
%TO.N,/Y*%
X3641004Y18615000D02*
X4101404Y18615000D01*
X10168804Y17956899D02*
X12023004Y16102699D01*
X12023004Y16102699D02*
X14775654Y16102699D01*
X4101404Y18615000D02*
X4759505Y17956899D01*
X14775654Y16102699D02*
X14801955Y16129000D01*
X4759505Y17956899D02*
X10168804Y17956899D01*
%TO.N,/TL*%
X8804903Y17365000D02*
X12023004Y14146899D01*
X12023004Y13589000D02*
X14801955Y13589000D01*
X3641004Y17365000D02*
X8804903Y17365000D01*
X12023004Y14146899D02*
X12023004Y13589000D01*
%TO.N,/TR*%
X8567703Y14478000D02*
X11996703Y11049000D01*
X5698404Y14478000D02*
X8567703Y14478000D01*
X4061404Y16115000D02*
X5698404Y14478000D01*
X3641004Y16115000D02*
X4061404Y16115000D01*
X11996703Y11049000D02*
X14801955Y11049000D01*
%TO.N,/HK_T*%
X4092204Y14865000D02*
X3641004Y14865000D01*
X5723804Y13233400D02*
X4092204Y14865000D01*
X8009804Y13233400D02*
X5723804Y13233400D01*
%TO.N,/HK*%
X12023004Y8509000D02*
X14801955Y8509000D01*
%TO.N,/C_UP*%
X16801955Y38989000D02*
X19561155Y38989000D01*
X24850004Y33700151D02*
X24850004Y31981800D01*
X19561155Y38989000D02*
X24850004Y33700151D01*
%TO.N,/C_DOWN*%
X23235404Y32774751D02*
X23235404Y29421951D01*
X16801955Y36449000D02*
X19561155Y36449000D01*
X23235404Y29421951D02*
X24425555Y28231800D01*
X24425555Y28231800D02*
X24850004Y28231800D01*
X19561155Y36449000D02*
X23235404Y32774751D01*
%TO.N,/C_LEFT*%
X19561155Y33909000D02*
X22785404Y30684751D01*
X22785404Y30684751D02*
X22785404Y27408151D01*
X24461755Y25731800D02*
X24850004Y25731800D01*
X16801955Y33909000D02*
X19561155Y33909000D01*
X22785404Y27408151D02*
X24461755Y25731800D01*
%TO.N,/C_RIGHT*%
X24467155Y24481800D02*
X24850004Y24481800D01*
X22335404Y26613551D02*
X24467155Y24481800D01*
X22335404Y28594751D02*
X22335404Y26613551D01*
X16801955Y31369000D02*
X19561155Y31369000D01*
X19561155Y31369000D02*
X22335404Y28594751D01*
%TO.N,/C_START*%
X21883555Y22010800D02*
X23162555Y20731800D01*
X16801955Y28829000D02*
X19561155Y28829000D01*
X19561155Y27950701D02*
X21883555Y25628301D01*
X19561155Y28829000D02*
X19561155Y27950701D01*
X21883555Y25628301D02*
X21883555Y22010800D01*
X23162555Y20731800D02*
X24850004Y20731800D01*
%TO.N,/C_SELECT*%
X19561155Y26289000D02*
X21433555Y24416600D01*
X23091755Y19481800D02*
X24850004Y19481800D01*
X16801955Y26289000D02*
X19561155Y26289000D01*
X21433555Y24416600D02*
X21433555Y21140000D01*
X21433555Y21140000D02*
X23091755Y19481800D01*
%TO.N,/C_A*%
X20983555Y20523200D02*
X23274955Y18231800D01*
X19561155Y23749000D02*
X20983555Y22326600D01*
X20983555Y22326600D02*
X20983555Y20523200D01*
X23274955Y18231800D02*
X24850004Y18231800D01*
X16801955Y23749000D02*
X19561155Y23749000D01*
%TO.N,/C_B*%
X16801955Y21209000D02*
X19561155Y21209000D01*
X22685355Y16941800D02*
X22685355Y17881600D01*
X19561155Y21005800D02*
X19561155Y21209000D01*
X22685355Y17881600D02*
X19561155Y21005800D01*
%TO.N,/C_X*%
X16801955Y18669000D02*
X19561155Y18669000D01*
%TO.N,/C_Y*%
X16801955Y16129000D02*
X19561155Y16129000D01*
%TO.N,/C_TL*%
X16801955Y13589000D02*
X19561155Y13589000D01*
%TO.N,/C_TR*%
X16801955Y11049000D02*
X19561155Y11049000D01*
%TO.N,/C_HK*%
X16801955Y8509000D02*
X19561155Y8509000D01*
%TO.N,/1P_UP*%
X29066004Y44009400D02*
X31111804Y46055200D01*
X31111804Y46055200D02*
X31818004Y46055200D01*
X28089204Y44009400D02*
X29066004Y44009400D01*
%TO.N,/1P_DOWN*%
X31818004Y40975200D02*
X32305604Y40975200D01*
X31100604Y40257800D02*
X31818004Y40975200D01*
X28089204Y40257800D02*
X31100604Y40257800D01*
X37544204Y40257800D02*
X38071404Y40257800D01*
X33550204Y42219800D02*
X35582204Y42219800D01*
X35582204Y42219800D02*
X37544204Y40257800D01*
X32305604Y40975200D02*
X33550204Y42219800D01*
%TO.N,/1P_LEFT*%
X31818004Y38435200D02*
X32254804Y38435200D01*
X31310004Y37927200D02*
X31818004Y38435200D01*
X37097804Y37757800D02*
X38071404Y37757800D01*
X33524804Y39705200D02*
X35150404Y39705200D01*
X28089204Y37757800D02*
X28258604Y37927200D01*
X28258604Y37927200D02*
X31310004Y37927200D01*
X35150404Y39705200D02*
X37097804Y37757800D01*
X32254804Y38435200D02*
X33524804Y39705200D01*
%TO.N,/1P_RIGHT*%
X31818004Y35895200D02*
X33113404Y37190600D01*
X28089204Y36507800D02*
X28193804Y36403200D01*
X31310004Y36403200D02*
X31818004Y35895200D01*
X33113404Y37190600D02*
X36877604Y37190600D01*
X28193804Y36403200D02*
X31310004Y36403200D01*
X36877604Y37190600D02*
X37560404Y36507800D01*
X37560404Y36507800D02*
X38071404Y36507800D01*
%TO.N,/1P_START*%
X37550204Y32757800D02*
X38071404Y32757800D01*
X30578404Y30815200D02*
X31818004Y30815200D01*
X36877604Y32085200D02*
X37550204Y32757800D01*
X28089204Y32757800D02*
X28635804Y32757800D01*
X31818004Y30815200D02*
X32454400Y30815200D01*
X33724400Y32085200D02*
X36877604Y32085200D01*
X28635804Y32757800D02*
X30578404Y30815200D01*
X32454400Y30815200D02*
X33724400Y32085200D01*
%TO.N,/1P_SELECT*%
X37519404Y31507800D02*
X38071404Y31507800D01*
X33088004Y29545200D02*
X35556804Y29545200D01*
X31818004Y28275200D02*
X33088004Y29545200D01*
X28585404Y31507800D02*
X31818004Y28275200D01*
X35556804Y29545200D02*
X37519404Y31507800D01*
X28089204Y31507800D02*
X28585404Y31507800D01*
%TO.N,/1P_A*%
X33956604Y28275200D02*
X34358004Y28275200D01*
X32686604Y27005200D02*
X33956604Y28275200D01*
X34358004Y28275200D02*
X35683804Y28275200D01*
X35683804Y28275200D02*
X37666404Y30257800D01*
X30019604Y27868800D02*
X30883204Y27005200D01*
X30019604Y28884800D02*
X30019604Y27868800D01*
X37666404Y30257800D02*
X38071404Y30257800D01*
X28646604Y30257800D02*
X30019604Y28884800D01*
X30883204Y27005200D02*
X32686604Y27005200D01*
X28089204Y30257800D02*
X28646604Y30257800D01*
%TO.N,/1P_B*%
X34358004Y33355200D02*
X35010604Y34007800D01*
X35010604Y34007800D02*
X38071404Y34007800D01*
X28605004Y34007800D02*
X29405004Y33207800D01*
X33982004Y33355200D02*
X34358004Y33355200D01*
X30529000Y32085200D02*
X32712004Y32085200D01*
X29406400Y33207800D02*
X30529000Y32085200D01*
X32712004Y32085200D02*
X33982004Y33355200D01*
X28089204Y34007800D02*
X28605004Y34007800D01*
X29405004Y33207800D02*
X29406400Y33207800D01*
%TO.N,/1P_X*%
X34998004Y43515200D02*
X37005404Y41507800D01*
X29333804Y42245200D02*
X32813604Y42245200D01*
X28596404Y41507800D02*
X29333804Y42245200D01*
X32813604Y42245200D02*
X34083604Y43515200D01*
X28089204Y41507800D02*
X28596404Y41507800D01*
X34083604Y43515200D02*
X34358004Y43515200D01*
X37005404Y41507800D02*
X38071404Y41507800D01*
X34358004Y43515200D02*
X34998004Y43515200D01*
%TO.N,/1P_Y*%
X33855004Y40975200D02*
X34358004Y40975200D01*
X34358004Y40975200D02*
X34845604Y40975200D01*
X28089204Y39007800D02*
X28636404Y39007800D01*
X32585004Y39705200D02*
X33855004Y40975200D01*
X29333804Y39705200D02*
X32585004Y39705200D01*
X36813004Y39007800D02*
X38071404Y39007800D01*
X28636404Y39007800D02*
X29333804Y39705200D01*
X34845604Y40975200D02*
X36813004Y39007800D01*
%TO.N,/1P_TL*%
X28089204Y42759400D02*
X28705004Y42759400D01*
X28705004Y42759400D02*
X30730804Y44785200D01*
X37492604Y42757800D02*
X34358004Y45892400D01*
X33088004Y44785200D02*
X34358004Y46055200D01*
X38071404Y42757800D02*
X37492604Y42757800D01*
X30730804Y44785200D02*
X33088004Y44785200D01*
X34358004Y45892400D02*
X34358004Y46055200D01*
%TO.N,/1P_TR*%
X33088004Y34625200D02*
X34358004Y35895200D01*
X34358004Y35895200D02*
X34840604Y35412600D01*
X34840604Y35412600D02*
X37916604Y35412600D01*
X28089204Y35257800D02*
X28625004Y35257800D01*
X28625004Y35257800D02*
X29257604Y34625200D01*
X37916604Y35412600D02*
X38071404Y35257800D01*
X29257604Y34625200D02*
X33088004Y34625200D01*
%TO.N,/1P_HK*%
X37706404Y27757800D02*
X36953804Y27005200D01*
X36953804Y27005200D02*
X33524804Y27005200D01*
X32254804Y25735200D02*
X31818004Y25735200D01*
X33524804Y27005200D02*
X32254804Y25735200D01*
X31162604Y25735200D02*
X31818004Y25735200D01*
X38071404Y27757800D02*
X37706404Y27757800D01*
X29138404Y27759400D02*
X31162604Y25735200D01*
X28089204Y27759400D02*
X29138404Y27759400D01*
%TO.N,/2P_UP*%
X28611204Y19366000D02*
X31068804Y21823600D01*
X31068804Y21823600D02*
X31818004Y21823600D01*
X28063804Y19366000D02*
X28611204Y19366000D01*
%TO.N,/2P_DOWN*%
X30401804Y15619800D02*
X31818004Y14203600D01*
X38071404Y15619800D02*
X38020204Y15568600D01*
X28063804Y15619800D02*
X30401804Y15619800D01*
X33183004Y15568600D02*
X31818004Y14203600D01*
X38020204Y15568600D02*
X33183004Y15568600D01*
%TO.N,/2P_LEFT*%
X28063804Y13119800D02*
X29960404Y13119800D01*
X35074204Y10393600D02*
X33088004Y10393600D01*
X31416604Y11663600D02*
X31818004Y11663600D01*
X29960404Y13119800D02*
X31416604Y11663600D01*
X37800404Y13119800D02*
X35074204Y10393600D01*
X38071404Y13119800D02*
X37800404Y13119800D01*
X33088004Y10393600D02*
X31818004Y11663600D01*
%TO.N,/2P_RIGHT*%
X28063804Y11869800D02*
X29071804Y11869800D01*
X35836204Y8768000D02*
X34921804Y7853600D01*
X29071804Y11869800D02*
X31818004Y9123600D01*
X37541004Y11869800D02*
X35836204Y10165000D01*
X33724400Y7853600D02*
X32454400Y9123600D01*
X34921804Y7853600D02*
X33724400Y7853600D01*
X32454400Y9123600D02*
X31818004Y9123600D01*
X35836204Y10165000D02*
X35836204Y8768000D01*
X38071404Y11869800D02*
X37541004Y11869800D01*
%TO.N,/2P_START*%
X36051504Y7218600D02*
X36051504Y6444696D01*
X34920408Y5313600D02*
X33724400Y5313600D01*
X33724400Y5313600D02*
X32454400Y6583600D01*
X32454400Y6583600D02*
X31818004Y6583600D01*
X36051504Y6444696D02*
X34920408Y5313600D01*
%TO.N,/2P_SELECT*%
X31365804Y4043600D02*
X31818004Y4043600D01*
X34940808Y2722800D02*
X33423204Y2722800D01*
X28063804Y6869800D02*
X28539604Y6869800D01*
X32102404Y4043600D02*
X31818004Y4043600D01*
X33423204Y2722800D02*
X32102404Y4043600D01*
X36014004Y5110400D02*
X36014004Y3795996D01*
X28539604Y6869800D02*
X31365804Y4043600D01*
X38071404Y6869800D02*
X37773404Y6869800D01*
X37773404Y6869800D02*
X36014004Y5110400D01*
X36014004Y3795996D02*
X34940808Y2722800D01*
%TO.N,/2P_A*%
X33905804Y1503600D02*
X34358004Y1503600D01*
X38071404Y5619800D02*
X37590204Y5619800D01*
X36522004Y4551600D02*
X36522004Y3637200D01*
X37590204Y5619800D02*
X36522004Y4551600D01*
X31213404Y2748200D02*
X32661204Y2748200D01*
X36522004Y3637200D02*
X34388404Y1503600D01*
X32661204Y2748200D02*
X33905804Y1503600D01*
X28341804Y5619800D02*
X31213404Y2748200D01*
X28063804Y5619800D02*
X28341804Y5619800D01*
X34388404Y1503600D02*
X34358004Y1503600D01*
%TO.N,/2P_B*%
X30197404Y6405800D02*
X31289604Y5313600D01*
X31289604Y5313600D02*
X33088004Y5313600D01*
X36903004Y8768000D02*
X36903004Y6659800D01*
X30197404Y7261505D02*
X30197404Y6405800D01*
X37504804Y9369800D02*
X36903004Y8768000D01*
X38071404Y9369800D02*
X37504804Y9369800D01*
X28089109Y9369800D02*
X30197404Y7261505D01*
X36903004Y6659800D02*
X34358004Y4114800D01*
X33088004Y5313600D02*
X34358004Y4043600D01*
X34358004Y4114800D02*
X34358004Y4043600D01*
X28063804Y9369800D02*
X28089109Y9369800D01*
%TO.N,/2P_X*%
X29561604Y16869800D02*
X30705404Y18013600D01*
X33088004Y18013600D02*
X34358004Y19283600D01*
X36771804Y16869800D02*
X34358004Y19283600D01*
X28063804Y16869800D02*
X29561604Y16869800D01*
X38071404Y16869800D02*
X36771804Y16869800D01*
X30705404Y18013600D02*
X33088004Y18013600D01*
%TO.N,/2P_Y*%
X34896404Y11663600D02*
X34358004Y11663600D01*
X37602604Y14369800D02*
X34896404Y11663600D01*
X29548604Y14369800D02*
X30984804Y12933600D01*
X33088004Y12933600D02*
X34358004Y11663600D01*
X38071404Y14369800D02*
X37602604Y14369800D01*
X28063804Y14369800D02*
X29548604Y14369800D01*
X30984804Y12933600D02*
X33088004Y12933600D01*
%TO.N,/2P_TL*%
X37492604Y18119800D02*
X34358004Y21254400D01*
X30984804Y20545800D02*
X33080204Y20545800D01*
X28063804Y18116000D02*
X28555004Y18116000D01*
X34358004Y21254400D02*
X34358004Y21823600D01*
X33080204Y20545800D02*
X34358004Y21823600D01*
X28555004Y18116000D02*
X30984804Y20545800D01*
X38071404Y18119800D02*
X37492604Y18119800D01*
%TO.N,/2P_TR*%
X28063804Y10619800D02*
X28089109Y10619800D01*
X30855309Y7853600D02*
X32661204Y7853600D01*
X37535604Y10619800D02*
X36286204Y9370400D01*
X28089109Y10619800D02*
X30855309Y7853600D01*
X38071404Y10619800D02*
X37535604Y10619800D01*
X32661204Y7853600D02*
X33931204Y6583600D01*
X33931204Y6583600D02*
X34358004Y6583600D01*
X34358004Y6629400D02*
X34358004Y6583600D01*
X36286204Y9370400D02*
X36286204Y8557600D01*
X36286204Y8557600D02*
X34358004Y6629400D01*
%TD*%
M02*
