%TF.GenerationSoftware,KiCad,Pcbnew,(6.0.10)*%
%TF.CreationDate,2023-02-13T19:14:31+09:00*%
%TF.ProjectId,joystick_gpio_input,6a6f7973-7469-4636-9b5f-6770696f5f69,1*%
%TF.SameCoordinates,PX7b89fa0PY78dfd90*%
%TF.FileFunction,Profile,NP*%
%FSLAX46Y46*%
G04 Gerber Fmt 4.6, Leading zero omitted, Abs format (unit mm)*
G04 Created by KiCad (PCBNEW (6.0.10)) date 2023-02-13 19:14:31*
%MOMM*%
%LPD*%
G01*
G04 APERTURE LIST*
%TA.AperFunction,Profile*%
%ADD10C,0.100000*%
%TD*%
G04 APERTURE END LIST*
D10*
X25882600Y23622000D02*
X30200600Y23622000D01*
X30200600Y23622000D02*
X30200600Y23114000D01*
X30200600Y23114000D02*
X25882600Y23114000D01*
X25882600Y23114000D02*
X25882600Y23622000D01*
X31742000Y23368000D02*
G75*
G03*
X31742000Y23368000I-250000J0D01*
G01*
X32508000Y23368000D02*
G75*
G03*
X32508000Y23368000I-250000J0D01*
G01*
X30980000Y23368000D02*
G75*
G03*
X30980000Y23368000I-250000J0D01*
G01*
X24884000Y23372000D02*
G75*
G03*
X24884000Y23372000I-250000J0D01*
G01*
X25650000Y23372000D02*
G75*
G03*
X25650000Y23372000I-250000J0D01*
G01*
X24122000Y23372000D02*
G75*
G03*
X24122000Y23372000I-250000J0D01*
G01*
X23364000Y5076000D02*
G75*
G03*
X23364000Y5076000I-250000J0D01*
G01*
X2624000Y1524000D02*
G75*
G03*
X2624000Y1524000I-1100000J0D01*
G01*
X2624000Y45212000D02*
G75*
G03*
X2624000Y45212000I-1100000J0D01*
G01*
X23368000Y508000D02*
G75*
G03*
X23368000Y508000I-250000J0D01*
G01*
X22436000Y1524000D02*
G75*
G03*
X22436000Y1524000I-1100000J0D01*
G01*
X23364000Y5842000D02*
G75*
G03*
X23364000Y5842000I-250000J0D01*
G01*
X23364000Y6604000D02*
G75*
G03*
X23364000Y6604000I-250000J0D01*
G01*
X23368000Y2036000D02*
G75*
G03*
X23368000Y2036000I-250000J0D01*
G01*
X23364000Y39620000D02*
G75*
G03*
X23364000Y39620000I-250000J0D01*
G01*
X23368000Y45470000D02*
G75*
G03*
X23368000Y45470000I-250000J0D01*
G01*
X0Y46736000D02*
X32766000Y46736000D01*
X32766000Y46736000D02*
X32766000Y0D01*
X32766000Y0D02*
X0Y0D01*
X0Y0D02*
X0Y46736000D01*
X23368000Y46232000D02*
G75*
G03*
X23368000Y46232000I-250000J0D01*
G01*
X22436000Y45212000D02*
G75*
G03*
X22436000Y45212000I-1100000J0D01*
G01*
X22860000Y4572000D02*
X23368000Y4572000D01*
X23368000Y4572000D02*
X23368000Y2540000D01*
X23368000Y2540000D02*
X22860000Y2540000D01*
X22860000Y2540000D02*
X22860000Y4572000D01*
X22860000Y44196000D02*
X23368000Y44196000D01*
X23368000Y44196000D02*
X23368000Y41656000D01*
X23368000Y41656000D02*
X22860000Y41656000D01*
X22860000Y41656000D02*
X22860000Y44196000D01*
X23364000Y41148000D02*
G75*
G03*
X23364000Y41148000I-250000J0D01*
G01*
X23364000Y40386000D02*
G75*
G03*
X23364000Y40386000I-250000J0D01*
G01*
X23368000Y1274000D02*
G75*
G03*
X23368000Y1274000I-250000J0D01*
G01*
X22860000Y39116000D02*
X23368000Y39116000D01*
X23368000Y39116000D02*
X23368000Y7112000D01*
X23368000Y7112000D02*
X22860000Y7112000D01*
X22860000Y7112000D02*
X22860000Y39116000D01*
X23368000Y44704000D02*
G75*
G03*
X23368000Y44704000I-250000J0D01*
G01*
M02*
