%TF.GenerationSoftware,KiCad,Pcbnew,(6.0.10)*%
%TF.CreationDate,2023-02-13T19:14:31+09:00*%
%TF.ProjectId,joystick_gpio_input,6a6f7973-7469-4636-9b5f-6770696f5f69,1*%
%TF.SameCoordinates,PX7b89fa0PY78dfd90*%
%TF.FileFunction,Legend,Bot*%
%TF.FilePolarity,Positive*%
%FSLAX46Y46*%
G04 Gerber Fmt 4.6, Leading zero omitted, Abs format (unit mm)*
G04 Created by KiCad (PCBNEW (6.0.10)) date 2023-02-13 19:14:31*
%MOMM*%
%LPD*%
G01*
G04 APERTURE LIST*
G04 Aperture macros list*
%AMRoundRect*
0 Rectangle with rounded corners*
0 $1 Rounding radius*
0 $2 $3 $4 $5 $6 $7 $8 $9 X,Y pos of 4 corners*
0 Add a 4 corners polygon primitive as box body*
4,1,4,$2,$3,$4,$5,$6,$7,$8,$9,$2,$3,0*
0 Add four circle primitives for the rounded corners*
1,1,$1+$1,$2,$3*
1,1,$1+$1,$4,$5*
1,1,$1+$1,$6,$7*
1,1,$1+$1,$8,$9*
0 Add four rect primitives between the rounded corners*
20,1,$1+$1,$2,$3,$4,$5,0*
20,1,$1+$1,$4,$5,$6,$7,0*
20,1,$1+$1,$6,$7,$8,$9,0*
20,1,$1+$1,$8,$9,$2,$3,0*%
G04 Aperture macros list end*
%ADD10C,0.150000*%
%ADD11C,0.120000*%
%ADD12O,1.700000X1.700000*%
%ADD13R,1.700000X1.700000*%
%ADD14O,1.300000X0.800000*%
%ADD15RoundRect,0.200000X-0.450000X0.200000X-0.450000X-0.200000X0.450000X-0.200000X0.450000X0.200000X0*%
G04 APERTURE END LIST*
D10*
X30723833Y19696743D02*
X30723833Y19065315D01*
X30690500Y18991029D01*
X30657166Y18953886D01*
X30590500Y18916743D01*
X30457166Y18916743D01*
X30390500Y18953886D01*
X30357166Y18991029D01*
X30323833Y19065315D01*
X30323833Y19696743D01*
X29990500Y18916743D02*
X29990500Y19696743D01*
X29723833Y19696743D01*
X29657166Y19659600D01*
X29623833Y19622458D01*
X29590500Y19548172D01*
X29590500Y19436743D01*
X29623833Y19362458D01*
X29657166Y19325315D01*
X29723833Y19288172D01*
X29990500Y19288172D01*
X30823833Y18440943D02*
X30423833Y18440943D01*
X30623833Y17660943D02*
X30623833Y18440943D01*
X29857166Y17660943D02*
X30190500Y17660943D01*
X30190500Y18440943D01*
X30357166Y17148000D02*
X30423833Y17185143D01*
X30523833Y17185143D01*
X30623833Y17148000D01*
X30690500Y17073715D01*
X30723833Y16999429D01*
X30757166Y16850858D01*
X30757166Y16739429D01*
X30723833Y16590858D01*
X30690500Y16516572D01*
X30623833Y16442286D01*
X30523833Y16405143D01*
X30457166Y16405143D01*
X30357166Y16442286D01*
X30323833Y16479429D01*
X30323833Y16739429D01*
X30457166Y16739429D01*
X30790500Y15929343D02*
X30323833Y15149343D01*
X30323833Y15929343D02*
X30790500Y15149343D01*
X30723833Y13893543D02*
X30723833Y14673543D01*
X30557166Y14673543D01*
X30457166Y14636400D01*
X30390500Y14562115D01*
X30357166Y14487829D01*
X30323833Y14339258D01*
X30323833Y14227829D01*
X30357166Y14079258D01*
X30390500Y14004972D01*
X30457166Y13930686D01*
X30557166Y13893543D01*
X30723833Y13893543D01*
X30023833Y13893543D02*
X30023833Y14673543D01*
X29623833Y13893543D01*
X29623833Y14673543D01*
X30590500Y13009172D02*
X30590500Y12637743D01*
X30823833Y13417743D02*
X30590500Y13009172D01*
X30357166Y13417743D01*
X30390500Y11381943D02*
X30723833Y11381943D01*
X30723833Y12161943D01*
X30323833Y10126143D02*
X30557166Y10497572D01*
X30723833Y10126143D02*
X30723833Y10906143D01*
X30457166Y10906143D01*
X30390500Y10869000D01*
X30357166Y10831858D01*
X30323833Y10757572D01*
X30323833Y10646143D01*
X30357166Y10571858D01*
X30390500Y10534715D01*
X30457166Y10497572D01*
X30723833Y10497572D01*
X30823833Y9650343D02*
X30423833Y9650343D01*
X30623833Y8870343D02*
X30623833Y9650343D01*
X29790500Y8870343D02*
X30023833Y9241772D01*
X30190500Y8870343D02*
X30190500Y9650343D01*
X29923833Y9650343D01*
X29857166Y9613200D01*
X29823833Y9576058D01*
X29790500Y9501772D01*
X29790500Y9390343D01*
X29823833Y9316058D01*
X29857166Y9278915D01*
X29923833Y9241772D01*
X30190500Y9241772D01*
X30490500Y8023115D02*
X30390500Y7985972D01*
X30357166Y7948829D01*
X30323833Y7874543D01*
X30323833Y7763115D01*
X30357166Y7688829D01*
X30390500Y7651686D01*
X30457166Y7614543D01*
X30723833Y7614543D01*
X30723833Y8394543D01*
X30490500Y8394543D01*
X30423833Y8357400D01*
X30390500Y8320258D01*
X30357166Y8245972D01*
X30357166Y8171686D01*
X30390500Y8097400D01*
X30423833Y8060258D01*
X30490500Y8023115D01*
X30723833Y8023115D01*
X30757166Y6395886D02*
X30657166Y6358743D01*
X30490500Y6358743D01*
X30423833Y6395886D01*
X30390500Y6433029D01*
X30357166Y6507315D01*
X30357166Y6581600D01*
X30390500Y6655886D01*
X30423833Y6693029D01*
X30490500Y6730172D01*
X30623833Y6767315D01*
X30690500Y6804458D01*
X30723833Y6841600D01*
X30757166Y6915886D01*
X30757166Y6990172D01*
X30723833Y7064458D01*
X30690500Y7101600D01*
X30623833Y7138743D01*
X30457166Y7138743D01*
X30357166Y7101600D01*
X30157166Y7138743D02*
X29757166Y7138743D01*
X29957166Y6358743D02*
X29957166Y7138743D01*
X30757166Y5140086D02*
X30657166Y5102943D01*
X30490500Y5102943D01*
X30423833Y5140086D01*
X30390500Y5177229D01*
X30357166Y5251515D01*
X30357166Y5325800D01*
X30390500Y5400086D01*
X30423833Y5437229D01*
X30490500Y5474372D01*
X30623833Y5511515D01*
X30690500Y5548658D01*
X30723833Y5585800D01*
X30757166Y5660086D01*
X30757166Y5734372D01*
X30723833Y5808658D01*
X30690500Y5845800D01*
X30623833Y5882943D01*
X30457166Y5882943D01*
X30357166Y5845800D01*
X29723833Y5102943D02*
X30057166Y5102943D01*
X30057166Y5882943D01*
X30757166Y4070000D02*
X30423833Y4070000D01*
X30823833Y3847143D02*
X30590500Y4627143D01*
X30357166Y3847143D01*
X30723833Y43692643D02*
X30723833Y43061215D01*
X30690500Y42986929D01*
X30657166Y42949786D01*
X30590500Y42912643D01*
X30457166Y42912643D01*
X30390500Y42949786D01*
X30357166Y42986929D01*
X30323833Y43061215D01*
X30323833Y43692643D01*
X29990500Y42912643D02*
X29990500Y43692643D01*
X29723833Y43692643D01*
X29657166Y43655500D01*
X29623833Y43618358D01*
X29590500Y43544072D01*
X29590500Y43432643D01*
X29623833Y43358358D01*
X29657166Y43321215D01*
X29723833Y43284072D01*
X29990500Y43284072D01*
X30823833Y42436843D02*
X30423833Y42436843D01*
X30623833Y41656843D02*
X30623833Y42436843D01*
X29857166Y41656843D02*
X30190500Y41656843D01*
X30190500Y42436843D01*
X30357166Y41143900D02*
X30423833Y41181043D01*
X30523833Y41181043D01*
X30623833Y41143900D01*
X30690500Y41069615D01*
X30723833Y40995329D01*
X30757166Y40846758D01*
X30757166Y40735329D01*
X30723833Y40586758D01*
X30690500Y40512472D01*
X30623833Y40438186D01*
X30523833Y40401043D01*
X30457166Y40401043D01*
X30357166Y40438186D01*
X30323833Y40475329D01*
X30323833Y40735329D01*
X30457166Y40735329D01*
X30790500Y39925243D02*
X30323833Y39145243D01*
X30323833Y39925243D02*
X30790500Y39145243D01*
X30723833Y37889443D02*
X30723833Y38669443D01*
X30557166Y38669443D01*
X30457166Y38632300D01*
X30390500Y38558015D01*
X30357166Y38483729D01*
X30323833Y38335158D01*
X30323833Y38223729D01*
X30357166Y38075158D01*
X30390500Y38000872D01*
X30457166Y37926586D01*
X30557166Y37889443D01*
X30723833Y37889443D01*
X30023833Y37889443D02*
X30023833Y38669443D01*
X29623833Y37889443D01*
X29623833Y38669443D01*
X30590500Y37005072D02*
X30590500Y36633643D01*
X30823833Y37413643D02*
X30590500Y37005072D01*
X30357166Y37413643D01*
X30390500Y35377843D02*
X30723833Y35377843D01*
X30723833Y36157843D01*
X30323833Y34122043D02*
X30557166Y34493472D01*
X30723833Y34122043D02*
X30723833Y34902043D01*
X30457166Y34902043D01*
X30390500Y34864900D01*
X30357166Y34827758D01*
X30323833Y34753472D01*
X30323833Y34642043D01*
X30357166Y34567758D01*
X30390500Y34530615D01*
X30457166Y34493472D01*
X30723833Y34493472D01*
X30823833Y33646243D02*
X30423833Y33646243D01*
X30623833Y32866243D02*
X30623833Y33646243D01*
X29790500Y32866243D02*
X30023833Y33237672D01*
X30190500Y32866243D02*
X30190500Y33646243D01*
X29923833Y33646243D01*
X29857166Y33609100D01*
X29823833Y33571958D01*
X29790500Y33497672D01*
X29790500Y33386243D01*
X29823833Y33311958D01*
X29857166Y33274815D01*
X29923833Y33237672D01*
X30190500Y33237672D01*
X30490500Y32019015D02*
X30390500Y31981872D01*
X30357166Y31944729D01*
X30323833Y31870443D01*
X30323833Y31759015D01*
X30357166Y31684729D01*
X30390500Y31647586D01*
X30457166Y31610443D01*
X30723833Y31610443D01*
X30723833Y32390443D01*
X30490500Y32390443D01*
X30423833Y32353300D01*
X30390500Y32316158D01*
X30357166Y32241872D01*
X30357166Y32167586D01*
X30390500Y32093300D01*
X30423833Y32056158D01*
X30490500Y32019015D01*
X30723833Y32019015D01*
X30757166Y30391786D02*
X30657166Y30354643D01*
X30490500Y30354643D01*
X30423833Y30391786D01*
X30390500Y30428929D01*
X30357166Y30503215D01*
X30357166Y30577500D01*
X30390500Y30651786D01*
X30423833Y30688929D01*
X30490500Y30726072D01*
X30623833Y30763215D01*
X30690500Y30800358D01*
X30723833Y30837500D01*
X30757166Y30911786D01*
X30757166Y30986072D01*
X30723833Y31060358D01*
X30690500Y31097500D01*
X30623833Y31134643D01*
X30457166Y31134643D01*
X30357166Y31097500D01*
X30157166Y31134643D02*
X29757166Y31134643D01*
X29957166Y30354643D02*
X29957166Y31134643D01*
X30757166Y29135986D02*
X30657166Y29098843D01*
X30490500Y29098843D01*
X30423833Y29135986D01*
X30390500Y29173129D01*
X30357166Y29247415D01*
X30357166Y29321700D01*
X30390500Y29395986D01*
X30423833Y29433129D01*
X30490500Y29470272D01*
X30623833Y29507415D01*
X30690500Y29544558D01*
X30723833Y29581700D01*
X30757166Y29655986D01*
X30757166Y29730272D01*
X30723833Y29804558D01*
X30690500Y29841700D01*
X30623833Y29878843D01*
X30457166Y29878843D01*
X30357166Y29841700D01*
X29723833Y29098843D02*
X30057166Y29098843D01*
X30057166Y29878843D01*
X30757166Y28065900D02*
X30423833Y28065900D01*
X30823833Y27843043D02*
X30590500Y28623043D01*
X30357166Y27843043D01*
X30723833Y26587243D02*
X30723833Y27367243D01*
X30723833Y26995815D02*
X30323833Y26995815D01*
X30323833Y26587243D02*
X30323833Y27367243D01*
X29990500Y26587243D02*
X29990500Y27367243D01*
X29590500Y26587243D02*
X29890500Y27032958D01*
X29590500Y27367243D02*
X29990500Y26921529D01*
D11*
%TO.C,J9*%
X24173800Y20437000D02*
X24173800Y57000D01*
X26773800Y20437000D02*
X24173800Y20437000D01*
X29373800Y23037000D02*
X26773800Y23037000D01*
X25503800Y23037000D02*
X24173800Y23037000D01*
X26773800Y23037000D02*
X26773800Y20437000D01*
X29373800Y57000D02*
X24173800Y57000D01*
X29373800Y23037000D02*
X29373800Y57000D01*
X24173800Y23037000D02*
X24173800Y21707000D01*
%TO.C,J8*%
X24173800Y44059000D02*
X24173800Y23679000D01*
X26773800Y44059000D02*
X24173800Y44059000D01*
X29373800Y46659000D02*
X26773800Y46659000D01*
X25503800Y46659000D02*
X24173800Y46659000D01*
X26773800Y46659000D02*
X26773800Y44059000D01*
X29373800Y23679000D02*
X24173800Y23679000D01*
X29373800Y46659000D02*
X29373800Y23679000D01*
X24173800Y46659000D02*
X24173800Y45329000D01*
%TD*%
%LPC*%
D12*
%TO.C,J9*%
X28043800Y1387000D03*
X25503800Y1387000D03*
X28043800Y3927000D03*
X25503800Y3927000D03*
X28043800Y6467000D03*
X25503800Y6467000D03*
X28043800Y9007000D03*
X25503800Y9007000D03*
X28043800Y11547000D03*
X25503800Y11547000D03*
X28043800Y14087000D03*
X25503800Y14087000D03*
X28043800Y16627000D03*
X25503800Y16627000D03*
X28043800Y19167000D03*
X25503800Y19167000D03*
X28043800Y21707000D03*
D13*
X25503800Y21707000D03*
%TD*%
D12*
%TO.C,J8*%
X28043800Y25009000D03*
X25503800Y25009000D03*
X28043800Y27549000D03*
X25503800Y27549000D03*
X28043800Y30089000D03*
X25503800Y30089000D03*
X28043800Y32629000D03*
X25503800Y32629000D03*
X28043800Y35169000D03*
X25503800Y35169000D03*
X28043800Y37709000D03*
X25503800Y37709000D03*
X28043800Y40249000D03*
X25503800Y40249000D03*
X28043800Y42789000D03*
X25503800Y42789000D03*
X28043800Y45329000D03*
D13*
X25503800Y45329000D03*
%TD*%
D14*
%TO.C,J7*%
X31757200Y4253200D03*
X31757200Y5503200D03*
X31757200Y6753200D03*
X31757200Y8003200D03*
X31757200Y9253200D03*
X31757200Y10503200D03*
X31757200Y11753200D03*
X31757200Y13003200D03*
X31757200Y14253200D03*
X31757200Y15503200D03*
X31757200Y16753200D03*
X31757200Y18003200D03*
D15*
X31757200Y19253200D03*
%TD*%
%TO.C,J6*%
X31757200Y43281600D03*
D14*
X31757200Y42031600D03*
X31757200Y40781600D03*
X31757200Y39531600D03*
X31757200Y38281600D03*
X31757200Y37031600D03*
X31757200Y35781600D03*
X31757200Y34531600D03*
X31757200Y33281600D03*
X31757200Y32031600D03*
X31757200Y30781600D03*
X31757200Y29531600D03*
X31757200Y28281600D03*
X31757200Y27031600D03*
%TD*%
D13*
%TO.C,J5*%
X19608800Y41148000D03*
D12*
X19608800Y38608000D03*
X19608800Y36068000D03*
X19608800Y33528000D03*
X19608800Y30988000D03*
X19608800Y28448000D03*
X19608800Y25908000D03*
X19608800Y23368000D03*
X19608800Y20828000D03*
X19608800Y18288000D03*
X19608800Y15748000D03*
X19608800Y13208000D03*
X19608800Y10668000D03*
X19608800Y8128000D03*
X19608800Y5588000D03*
%TD*%
D13*
%TO.C,JP3*%
X7721600Y15595600D03*
D12*
X7721600Y13055600D03*
X7721600Y10515600D03*
%TD*%
D15*
%TO.C,J1*%
X3606800Y41097200D03*
D14*
X3606800Y39847200D03*
X3606800Y38597200D03*
X3606800Y37347200D03*
X3606800Y36097200D03*
X3606800Y34847200D03*
%TD*%
D15*
%TO.C,J3*%
X3606800Y30683200D03*
D14*
X3606800Y29433200D03*
X3606800Y28183200D03*
X3606800Y26933200D03*
X3606800Y25683200D03*
X3606800Y24433200D03*
X3606800Y23183200D03*
X3606800Y21933200D03*
X3606800Y20683200D03*
X3606800Y19433200D03*
X3606800Y18183200D03*
X3606800Y16933200D03*
X3606800Y15683200D03*
X3606800Y14433200D03*
X3606800Y13183200D03*
%TD*%
D13*
%TO.C,JP1*%
X7721600Y33629600D03*
D12*
X7721600Y31089600D03*
X7721600Y28549600D03*
%TD*%
D13*
%TO.C,J4*%
X15189200Y41097200D03*
D12*
X15189200Y38557200D03*
X15189200Y36017200D03*
X15189200Y33477200D03*
X15189200Y30937200D03*
X15189200Y28397200D03*
X15189200Y25857200D03*
X15189200Y23317200D03*
X15189200Y20777200D03*
X15189200Y18237200D03*
X15189200Y15697200D03*
X15189200Y13157200D03*
X15189200Y10617200D03*
X15189200Y8077200D03*
X15189200Y5537200D03*
%TD*%
D13*
%TO.C,JP2*%
X7721600Y24612600D03*
D12*
X7721600Y22072600D03*
X7721600Y19532600D03*
%TD*%
D15*
%TO.C,J2*%
X3606800Y9093200D03*
D14*
X3606800Y7843200D03*
X3606800Y6593200D03*
X3606800Y5343200D03*
%TD*%
M02*
