%TF.GenerationSoftware,KiCad,Pcbnew,(7.0.0)*%
%TF.CreationDate,2023-03-12T00:46:26+09:00*%
%TF.ProjectId,joystick_gpio_input,6a6f7973-7469-4636-9b5f-6770696f5f69,2*%
%TF.SameCoordinates,PX7b89fa0PY78dfd90*%
%TF.FileFunction,Legend,Bot*%
%TF.FilePolarity,Positive*%
%FSLAX46Y46*%
G04 Gerber Fmt 4.6, Leading zero omitted, Abs format (unit mm)*
G04 Created by KiCad (PCBNEW (7.0.0)) date 2023-03-12 00:46:26*
%MOMM*%
%LPD*%
G01*
G04 APERTURE LIST*
G04 Aperture macros list*
%AMRoundRect*
0 Rectangle with rounded corners*
0 $1 Rounding radius*
0 $2 $3 $4 $5 $6 $7 $8 $9 X,Y pos of 4 corners*
0 Add a 4 corners polygon primitive as box body*
4,1,4,$2,$3,$4,$5,$6,$7,$8,$9,$2,$3,0*
0 Add four circle primitives for the rounded corners*
1,1,$1+$1,$2,$3*
1,1,$1+$1,$4,$5*
1,1,$1+$1,$6,$7*
1,1,$1+$1,$8,$9*
0 Add four rect primitives between the rounded corners*
20,1,$1+$1,$2,$3,$4,$5,0*
20,1,$1+$1,$4,$5,$6,$7,0*
20,1,$1+$1,$6,$7,$8,$9,0*
20,1,$1+$1,$8,$9,$2,$3,0*%
G04 Aperture macros list end*
%ADD10C,0.150000*%
%ADD11C,0.120000*%
%ADD12RoundRect,0.200000X-0.450000X0.200000X-0.450000X-0.200000X0.450000X-0.200000X0.450000X0.200000X0*%
%ADD13O,1.300000X0.800000*%
%ADD14R,1.700000X1.700000*%
%ADD15O,1.700000X1.700000*%
%ADD16RoundRect,0.200000X0.450000X-0.200000X0.450000X0.200000X-0.450000X0.200000X-0.450000X-0.200000X0*%
G04 APERTURE END LIST*
D10*
X26427133Y43860443D02*
X26427133Y43229015D01*
X26427133Y43229015D02*
X26393800Y43154729D01*
X26393800Y43154729D02*
X26360466Y43117586D01*
X26360466Y43117586D02*
X26293800Y43080443D01*
X26293800Y43080443D02*
X26160466Y43080443D01*
X26160466Y43080443D02*
X26093800Y43117586D01*
X26093800Y43117586D02*
X26060466Y43154729D01*
X26060466Y43154729D02*
X26027133Y43229015D01*
X26027133Y43229015D02*
X26027133Y43860443D01*
X25693800Y43080443D02*
X25693800Y43860443D01*
X25693800Y43860443D02*
X25427133Y43860443D01*
X25427133Y43860443D02*
X25360467Y43823300D01*
X25360467Y43823300D02*
X25327133Y43786158D01*
X25327133Y43786158D02*
X25293800Y43711872D01*
X25293800Y43711872D02*
X25293800Y43600443D01*
X25293800Y43600443D02*
X25327133Y43526158D01*
X25327133Y43526158D02*
X25360467Y43489015D01*
X25360467Y43489015D02*
X25427133Y43451872D01*
X25427133Y43451872D02*
X25693800Y43451872D01*
X26527133Y42596843D02*
X26127133Y42596843D01*
X26327133Y41816843D02*
X26327133Y42596843D01*
X25560467Y41816843D02*
X25893800Y41816843D01*
X25893800Y41816843D02*
X25893800Y42596843D01*
X26060466Y41296100D02*
X26127133Y41333243D01*
X26127133Y41333243D02*
X26227133Y41333243D01*
X26227133Y41333243D02*
X26327133Y41296100D01*
X26327133Y41296100D02*
X26393800Y41221815D01*
X26393800Y41221815D02*
X26427133Y41147529D01*
X26427133Y41147529D02*
X26460466Y40998958D01*
X26460466Y40998958D02*
X26460466Y40887529D01*
X26460466Y40887529D02*
X26427133Y40738958D01*
X26427133Y40738958D02*
X26393800Y40664672D01*
X26393800Y40664672D02*
X26327133Y40590386D01*
X26327133Y40590386D02*
X26227133Y40553243D01*
X26227133Y40553243D02*
X26160466Y40553243D01*
X26160466Y40553243D02*
X26060466Y40590386D01*
X26060466Y40590386D02*
X26027133Y40627529D01*
X26027133Y40627529D02*
X26027133Y40887529D01*
X26027133Y40887529D02*
X26160466Y40887529D01*
X26493800Y40069643D02*
X26027133Y39289643D01*
X26027133Y40069643D02*
X26493800Y39289643D01*
X26427133Y38026043D02*
X26427133Y38806043D01*
X26427133Y38806043D02*
X26260466Y38806043D01*
X26260466Y38806043D02*
X26160466Y38768900D01*
X26160466Y38768900D02*
X26093800Y38694615D01*
X26093800Y38694615D02*
X26060466Y38620329D01*
X26060466Y38620329D02*
X26027133Y38471758D01*
X26027133Y38471758D02*
X26027133Y38360329D01*
X26027133Y38360329D02*
X26060466Y38211758D01*
X26060466Y38211758D02*
X26093800Y38137472D01*
X26093800Y38137472D02*
X26160466Y38063186D01*
X26160466Y38063186D02*
X26260466Y38026043D01*
X26260466Y38026043D02*
X26427133Y38026043D01*
X25727133Y38026043D02*
X25727133Y38806043D01*
X25727133Y38806043D02*
X25327133Y38026043D01*
X25327133Y38026043D02*
X25327133Y38806043D01*
X26293800Y37133872D02*
X26293800Y36762443D01*
X26527133Y37542443D02*
X26293800Y37133872D01*
X26293800Y37133872D02*
X26060466Y37542443D01*
X26093800Y35498843D02*
X26427133Y35498843D01*
X26427133Y35498843D02*
X26427133Y36278843D01*
X26027133Y34235243D02*
X26260466Y34606672D01*
X26427133Y34235243D02*
X26427133Y35015243D01*
X26427133Y35015243D02*
X26160466Y35015243D01*
X26160466Y35015243D02*
X26093800Y34978100D01*
X26093800Y34978100D02*
X26060466Y34940958D01*
X26060466Y34940958D02*
X26027133Y34866672D01*
X26027133Y34866672D02*
X26027133Y34755243D01*
X26027133Y34755243D02*
X26060466Y34680958D01*
X26060466Y34680958D02*
X26093800Y34643815D01*
X26093800Y34643815D02*
X26160466Y34606672D01*
X26160466Y34606672D02*
X26427133Y34606672D01*
X26527133Y33751643D02*
X26127133Y33751643D01*
X26327133Y32971643D02*
X26327133Y33751643D01*
X25493800Y32971643D02*
X25727133Y33343072D01*
X25893800Y32971643D02*
X25893800Y33751643D01*
X25893800Y33751643D02*
X25627133Y33751643D01*
X25627133Y33751643D02*
X25560467Y33714500D01*
X25560467Y33714500D02*
X25527133Y33677358D01*
X25527133Y33677358D02*
X25493800Y33603072D01*
X25493800Y33603072D02*
X25493800Y33491643D01*
X25493800Y33491643D02*
X25527133Y33417358D01*
X25527133Y33417358D02*
X25560467Y33380215D01*
X25560467Y33380215D02*
X25627133Y33343072D01*
X25627133Y33343072D02*
X25893800Y33343072D01*
X26193800Y32116615D02*
X26093800Y32079472D01*
X26093800Y32079472D02*
X26060466Y32042329D01*
X26060466Y32042329D02*
X26027133Y31968043D01*
X26027133Y31968043D02*
X26027133Y31856615D01*
X26027133Y31856615D02*
X26060466Y31782329D01*
X26060466Y31782329D02*
X26093800Y31745186D01*
X26093800Y31745186D02*
X26160466Y31708043D01*
X26160466Y31708043D02*
X26427133Y31708043D01*
X26427133Y31708043D02*
X26427133Y32488043D01*
X26427133Y32488043D02*
X26193800Y32488043D01*
X26193800Y32488043D02*
X26127133Y32450900D01*
X26127133Y32450900D02*
X26093800Y32413758D01*
X26093800Y32413758D02*
X26060466Y32339472D01*
X26060466Y32339472D02*
X26060466Y32265186D01*
X26060466Y32265186D02*
X26093800Y32190900D01*
X26093800Y32190900D02*
X26127133Y32153758D01*
X26127133Y32153758D02*
X26193800Y32116615D01*
X26193800Y32116615D02*
X26427133Y32116615D01*
X26460466Y30481586D02*
X26360466Y30444443D01*
X26360466Y30444443D02*
X26193800Y30444443D01*
X26193800Y30444443D02*
X26127133Y30481586D01*
X26127133Y30481586D02*
X26093800Y30518729D01*
X26093800Y30518729D02*
X26060466Y30593015D01*
X26060466Y30593015D02*
X26060466Y30667300D01*
X26060466Y30667300D02*
X26093800Y30741586D01*
X26093800Y30741586D02*
X26127133Y30778729D01*
X26127133Y30778729D02*
X26193800Y30815872D01*
X26193800Y30815872D02*
X26327133Y30853015D01*
X26327133Y30853015D02*
X26393800Y30890158D01*
X26393800Y30890158D02*
X26427133Y30927300D01*
X26427133Y30927300D02*
X26460466Y31001586D01*
X26460466Y31001586D02*
X26460466Y31075872D01*
X26460466Y31075872D02*
X26427133Y31150158D01*
X26427133Y31150158D02*
X26393800Y31187300D01*
X26393800Y31187300D02*
X26327133Y31224443D01*
X26327133Y31224443D02*
X26160466Y31224443D01*
X26160466Y31224443D02*
X26060466Y31187300D01*
X25860466Y31224443D02*
X25460466Y31224443D01*
X25660466Y30444443D02*
X25660466Y31224443D01*
X26460466Y29217986D02*
X26360466Y29180843D01*
X26360466Y29180843D02*
X26193800Y29180843D01*
X26193800Y29180843D02*
X26127133Y29217986D01*
X26127133Y29217986D02*
X26093800Y29255129D01*
X26093800Y29255129D02*
X26060466Y29329415D01*
X26060466Y29329415D02*
X26060466Y29403700D01*
X26060466Y29403700D02*
X26093800Y29477986D01*
X26093800Y29477986D02*
X26127133Y29515129D01*
X26127133Y29515129D02*
X26193800Y29552272D01*
X26193800Y29552272D02*
X26327133Y29589415D01*
X26327133Y29589415D02*
X26393800Y29626558D01*
X26393800Y29626558D02*
X26427133Y29663700D01*
X26427133Y29663700D02*
X26460466Y29737986D01*
X26460466Y29737986D02*
X26460466Y29812272D01*
X26460466Y29812272D02*
X26427133Y29886558D01*
X26427133Y29886558D02*
X26393800Y29923700D01*
X26393800Y29923700D02*
X26327133Y29960843D01*
X26327133Y29960843D02*
X26160466Y29960843D01*
X26160466Y29960843D02*
X26060466Y29923700D01*
X25427133Y29180843D02*
X25760466Y29180843D01*
X25760466Y29180843D02*
X25760466Y29960843D01*
X26460466Y28140100D02*
X26127133Y28140100D01*
X26527133Y27917243D02*
X26293800Y28697243D01*
X26293800Y28697243D02*
X26060466Y27917243D01*
X26427133Y26653643D02*
X26427133Y27433643D01*
X26427133Y27062215D02*
X26027133Y27062215D01*
X26027133Y26653643D02*
X26027133Y27433643D01*
X25693800Y26653643D02*
X25693800Y27433643D01*
X25293800Y26653643D02*
X25593800Y27099358D01*
X25293800Y27433643D02*
X25693800Y26987929D01*
X33404933Y19853043D02*
X33404933Y19221615D01*
X33404933Y19221615D02*
X33371600Y19147329D01*
X33371600Y19147329D02*
X33338266Y19110186D01*
X33338266Y19110186D02*
X33271600Y19073043D01*
X33271600Y19073043D02*
X33138266Y19073043D01*
X33138266Y19073043D02*
X33071600Y19110186D01*
X33071600Y19110186D02*
X33038266Y19147329D01*
X33038266Y19147329D02*
X33004933Y19221615D01*
X33004933Y19221615D02*
X33004933Y19853043D01*
X32671600Y19073043D02*
X32671600Y19853043D01*
X32671600Y19853043D02*
X32404933Y19853043D01*
X32404933Y19853043D02*
X32338267Y19815900D01*
X32338267Y19815900D02*
X32304933Y19778758D01*
X32304933Y19778758D02*
X32271600Y19704472D01*
X32271600Y19704472D02*
X32271600Y19593043D01*
X32271600Y19593043D02*
X32304933Y19518758D01*
X32304933Y19518758D02*
X32338267Y19481615D01*
X32338267Y19481615D02*
X32404933Y19444472D01*
X32404933Y19444472D02*
X32671600Y19444472D01*
X33504933Y18589443D02*
X33104933Y18589443D01*
X33304933Y17809443D02*
X33304933Y18589443D01*
X32538267Y17809443D02*
X32871600Y17809443D01*
X32871600Y17809443D02*
X32871600Y18589443D01*
X33038266Y17288700D02*
X33104933Y17325843D01*
X33104933Y17325843D02*
X33204933Y17325843D01*
X33204933Y17325843D02*
X33304933Y17288700D01*
X33304933Y17288700D02*
X33371600Y17214415D01*
X33371600Y17214415D02*
X33404933Y17140129D01*
X33404933Y17140129D02*
X33438266Y16991558D01*
X33438266Y16991558D02*
X33438266Y16880129D01*
X33438266Y16880129D02*
X33404933Y16731558D01*
X33404933Y16731558D02*
X33371600Y16657272D01*
X33371600Y16657272D02*
X33304933Y16582986D01*
X33304933Y16582986D02*
X33204933Y16545843D01*
X33204933Y16545843D02*
X33138266Y16545843D01*
X33138266Y16545843D02*
X33038266Y16582986D01*
X33038266Y16582986D02*
X33004933Y16620129D01*
X33004933Y16620129D02*
X33004933Y16880129D01*
X33004933Y16880129D02*
X33138266Y16880129D01*
X33471600Y16062243D02*
X33004933Y15282243D01*
X33004933Y16062243D02*
X33471600Y15282243D01*
X33404933Y14018643D02*
X33404933Y14798643D01*
X33404933Y14798643D02*
X33238266Y14798643D01*
X33238266Y14798643D02*
X33138266Y14761500D01*
X33138266Y14761500D02*
X33071600Y14687215D01*
X33071600Y14687215D02*
X33038266Y14612929D01*
X33038266Y14612929D02*
X33004933Y14464358D01*
X33004933Y14464358D02*
X33004933Y14352929D01*
X33004933Y14352929D02*
X33038266Y14204358D01*
X33038266Y14204358D02*
X33071600Y14130072D01*
X33071600Y14130072D02*
X33138266Y14055786D01*
X33138266Y14055786D02*
X33238266Y14018643D01*
X33238266Y14018643D02*
X33404933Y14018643D01*
X32704933Y14018643D02*
X32704933Y14798643D01*
X32704933Y14798643D02*
X32304933Y14018643D01*
X32304933Y14018643D02*
X32304933Y14798643D01*
X33271600Y13126472D02*
X33271600Y12755043D01*
X33504933Y13535043D02*
X33271600Y13126472D01*
X33271600Y13126472D02*
X33038266Y13535043D01*
X33071600Y11491443D02*
X33404933Y11491443D01*
X33404933Y11491443D02*
X33404933Y12271443D01*
X33004933Y10227843D02*
X33238266Y10599272D01*
X33404933Y10227843D02*
X33404933Y11007843D01*
X33404933Y11007843D02*
X33138266Y11007843D01*
X33138266Y11007843D02*
X33071600Y10970700D01*
X33071600Y10970700D02*
X33038266Y10933558D01*
X33038266Y10933558D02*
X33004933Y10859272D01*
X33004933Y10859272D02*
X33004933Y10747843D01*
X33004933Y10747843D02*
X33038266Y10673558D01*
X33038266Y10673558D02*
X33071600Y10636415D01*
X33071600Y10636415D02*
X33138266Y10599272D01*
X33138266Y10599272D02*
X33404933Y10599272D01*
X33504933Y9744243D02*
X33104933Y9744243D01*
X33304933Y8964243D02*
X33304933Y9744243D01*
X32471600Y8964243D02*
X32704933Y9335672D01*
X32871600Y8964243D02*
X32871600Y9744243D01*
X32871600Y9744243D02*
X32604933Y9744243D01*
X32604933Y9744243D02*
X32538267Y9707100D01*
X32538267Y9707100D02*
X32504933Y9669958D01*
X32504933Y9669958D02*
X32471600Y9595672D01*
X32471600Y9595672D02*
X32471600Y9484243D01*
X32471600Y9484243D02*
X32504933Y9409958D01*
X32504933Y9409958D02*
X32538267Y9372815D01*
X32538267Y9372815D02*
X32604933Y9335672D01*
X32604933Y9335672D02*
X32871600Y9335672D01*
X33171600Y8109215D02*
X33071600Y8072072D01*
X33071600Y8072072D02*
X33038266Y8034929D01*
X33038266Y8034929D02*
X33004933Y7960643D01*
X33004933Y7960643D02*
X33004933Y7849215D01*
X33004933Y7849215D02*
X33038266Y7774929D01*
X33038266Y7774929D02*
X33071600Y7737786D01*
X33071600Y7737786D02*
X33138266Y7700643D01*
X33138266Y7700643D02*
X33404933Y7700643D01*
X33404933Y7700643D02*
X33404933Y8480643D01*
X33404933Y8480643D02*
X33171600Y8480643D01*
X33171600Y8480643D02*
X33104933Y8443500D01*
X33104933Y8443500D02*
X33071600Y8406358D01*
X33071600Y8406358D02*
X33038266Y8332072D01*
X33038266Y8332072D02*
X33038266Y8257786D01*
X33038266Y8257786D02*
X33071600Y8183500D01*
X33071600Y8183500D02*
X33104933Y8146358D01*
X33104933Y8146358D02*
X33171600Y8109215D01*
X33171600Y8109215D02*
X33404933Y8109215D01*
X33438266Y6474186D02*
X33338266Y6437043D01*
X33338266Y6437043D02*
X33171600Y6437043D01*
X33171600Y6437043D02*
X33104933Y6474186D01*
X33104933Y6474186D02*
X33071600Y6511329D01*
X33071600Y6511329D02*
X33038266Y6585615D01*
X33038266Y6585615D02*
X33038266Y6659900D01*
X33038266Y6659900D02*
X33071600Y6734186D01*
X33071600Y6734186D02*
X33104933Y6771329D01*
X33104933Y6771329D02*
X33171600Y6808472D01*
X33171600Y6808472D02*
X33304933Y6845615D01*
X33304933Y6845615D02*
X33371600Y6882758D01*
X33371600Y6882758D02*
X33404933Y6919900D01*
X33404933Y6919900D02*
X33438266Y6994186D01*
X33438266Y6994186D02*
X33438266Y7068472D01*
X33438266Y7068472D02*
X33404933Y7142758D01*
X33404933Y7142758D02*
X33371600Y7179900D01*
X33371600Y7179900D02*
X33304933Y7217043D01*
X33304933Y7217043D02*
X33138266Y7217043D01*
X33138266Y7217043D02*
X33038266Y7179900D01*
X32838266Y7217043D02*
X32438266Y7217043D01*
X32638266Y6437043D02*
X32638266Y7217043D01*
X33438266Y5210586D02*
X33338266Y5173443D01*
X33338266Y5173443D02*
X33171600Y5173443D01*
X33171600Y5173443D02*
X33104933Y5210586D01*
X33104933Y5210586D02*
X33071600Y5247729D01*
X33071600Y5247729D02*
X33038266Y5322015D01*
X33038266Y5322015D02*
X33038266Y5396300D01*
X33038266Y5396300D02*
X33071600Y5470586D01*
X33071600Y5470586D02*
X33104933Y5507729D01*
X33104933Y5507729D02*
X33171600Y5544872D01*
X33171600Y5544872D02*
X33304933Y5582015D01*
X33304933Y5582015D02*
X33371600Y5619158D01*
X33371600Y5619158D02*
X33404933Y5656300D01*
X33404933Y5656300D02*
X33438266Y5730586D01*
X33438266Y5730586D02*
X33438266Y5804872D01*
X33438266Y5804872D02*
X33404933Y5879158D01*
X33404933Y5879158D02*
X33371600Y5916300D01*
X33371600Y5916300D02*
X33304933Y5953443D01*
X33304933Y5953443D02*
X33138266Y5953443D01*
X33138266Y5953443D02*
X33038266Y5916300D01*
X32404933Y5173443D02*
X32738266Y5173443D01*
X32738266Y5173443D02*
X32738266Y5953443D01*
X33438266Y4132700D02*
X33104933Y4132700D01*
X33504933Y3909843D02*
X33271600Y4689843D01*
X33271600Y4689843D02*
X33038266Y3909843D01*
X33404933Y43852843D02*
X33404933Y43221415D01*
X33404933Y43221415D02*
X33371600Y43147129D01*
X33371600Y43147129D02*
X33338266Y43109986D01*
X33338266Y43109986D02*
X33271600Y43072843D01*
X33271600Y43072843D02*
X33138266Y43072843D01*
X33138266Y43072843D02*
X33071600Y43109986D01*
X33071600Y43109986D02*
X33038266Y43147129D01*
X33038266Y43147129D02*
X33004933Y43221415D01*
X33004933Y43221415D02*
X33004933Y43852843D01*
X32671600Y43072843D02*
X32671600Y43852843D01*
X32671600Y43852843D02*
X32404933Y43852843D01*
X32404933Y43852843D02*
X32338267Y43815700D01*
X32338267Y43815700D02*
X32304933Y43778558D01*
X32304933Y43778558D02*
X32271600Y43704272D01*
X32271600Y43704272D02*
X32271600Y43592843D01*
X32271600Y43592843D02*
X32304933Y43518558D01*
X32304933Y43518558D02*
X32338267Y43481415D01*
X32338267Y43481415D02*
X32404933Y43444272D01*
X32404933Y43444272D02*
X32671600Y43444272D01*
X33504933Y42589243D02*
X33104933Y42589243D01*
X33304933Y41809243D02*
X33304933Y42589243D01*
X32538267Y41809243D02*
X32871600Y41809243D01*
X32871600Y41809243D02*
X32871600Y42589243D01*
X33038266Y41288500D02*
X33104933Y41325643D01*
X33104933Y41325643D02*
X33204933Y41325643D01*
X33204933Y41325643D02*
X33304933Y41288500D01*
X33304933Y41288500D02*
X33371600Y41214215D01*
X33371600Y41214215D02*
X33404933Y41139929D01*
X33404933Y41139929D02*
X33438266Y40991358D01*
X33438266Y40991358D02*
X33438266Y40879929D01*
X33438266Y40879929D02*
X33404933Y40731358D01*
X33404933Y40731358D02*
X33371600Y40657072D01*
X33371600Y40657072D02*
X33304933Y40582786D01*
X33304933Y40582786D02*
X33204933Y40545643D01*
X33204933Y40545643D02*
X33138266Y40545643D01*
X33138266Y40545643D02*
X33038266Y40582786D01*
X33038266Y40582786D02*
X33004933Y40619929D01*
X33004933Y40619929D02*
X33004933Y40879929D01*
X33004933Y40879929D02*
X33138266Y40879929D01*
X33471600Y40062043D02*
X33004933Y39282043D01*
X33004933Y40062043D02*
X33471600Y39282043D01*
X33404933Y38018443D02*
X33404933Y38798443D01*
X33404933Y38798443D02*
X33238266Y38798443D01*
X33238266Y38798443D02*
X33138266Y38761300D01*
X33138266Y38761300D02*
X33071600Y38687015D01*
X33071600Y38687015D02*
X33038266Y38612729D01*
X33038266Y38612729D02*
X33004933Y38464158D01*
X33004933Y38464158D02*
X33004933Y38352729D01*
X33004933Y38352729D02*
X33038266Y38204158D01*
X33038266Y38204158D02*
X33071600Y38129872D01*
X33071600Y38129872D02*
X33138266Y38055586D01*
X33138266Y38055586D02*
X33238266Y38018443D01*
X33238266Y38018443D02*
X33404933Y38018443D01*
X32704933Y38018443D02*
X32704933Y38798443D01*
X32704933Y38798443D02*
X32304933Y38018443D01*
X32304933Y38018443D02*
X32304933Y38798443D01*
X33271600Y37126272D02*
X33271600Y36754843D01*
X33504933Y37534843D02*
X33271600Y37126272D01*
X33271600Y37126272D02*
X33038266Y37534843D01*
X33071600Y35491243D02*
X33404933Y35491243D01*
X33404933Y35491243D02*
X33404933Y36271243D01*
X33004933Y34227643D02*
X33238266Y34599072D01*
X33404933Y34227643D02*
X33404933Y35007643D01*
X33404933Y35007643D02*
X33138266Y35007643D01*
X33138266Y35007643D02*
X33071600Y34970500D01*
X33071600Y34970500D02*
X33038266Y34933358D01*
X33038266Y34933358D02*
X33004933Y34859072D01*
X33004933Y34859072D02*
X33004933Y34747643D01*
X33004933Y34747643D02*
X33038266Y34673358D01*
X33038266Y34673358D02*
X33071600Y34636215D01*
X33071600Y34636215D02*
X33138266Y34599072D01*
X33138266Y34599072D02*
X33404933Y34599072D01*
X33504933Y33744043D02*
X33104933Y33744043D01*
X33304933Y32964043D02*
X33304933Y33744043D01*
X32471600Y32964043D02*
X32704933Y33335472D01*
X32871600Y32964043D02*
X32871600Y33744043D01*
X32871600Y33744043D02*
X32604933Y33744043D01*
X32604933Y33744043D02*
X32538267Y33706900D01*
X32538267Y33706900D02*
X32504933Y33669758D01*
X32504933Y33669758D02*
X32471600Y33595472D01*
X32471600Y33595472D02*
X32471600Y33484043D01*
X32471600Y33484043D02*
X32504933Y33409758D01*
X32504933Y33409758D02*
X32538267Y33372615D01*
X32538267Y33372615D02*
X32604933Y33335472D01*
X32604933Y33335472D02*
X32871600Y33335472D01*
X33171600Y32109015D02*
X33071600Y32071872D01*
X33071600Y32071872D02*
X33038266Y32034729D01*
X33038266Y32034729D02*
X33004933Y31960443D01*
X33004933Y31960443D02*
X33004933Y31849015D01*
X33004933Y31849015D02*
X33038266Y31774729D01*
X33038266Y31774729D02*
X33071600Y31737586D01*
X33071600Y31737586D02*
X33138266Y31700443D01*
X33138266Y31700443D02*
X33404933Y31700443D01*
X33404933Y31700443D02*
X33404933Y32480443D01*
X33404933Y32480443D02*
X33171600Y32480443D01*
X33171600Y32480443D02*
X33104933Y32443300D01*
X33104933Y32443300D02*
X33071600Y32406158D01*
X33071600Y32406158D02*
X33038266Y32331872D01*
X33038266Y32331872D02*
X33038266Y32257586D01*
X33038266Y32257586D02*
X33071600Y32183300D01*
X33071600Y32183300D02*
X33104933Y32146158D01*
X33104933Y32146158D02*
X33171600Y32109015D01*
X33171600Y32109015D02*
X33404933Y32109015D01*
X33438266Y30473986D02*
X33338266Y30436843D01*
X33338266Y30436843D02*
X33171600Y30436843D01*
X33171600Y30436843D02*
X33104933Y30473986D01*
X33104933Y30473986D02*
X33071600Y30511129D01*
X33071600Y30511129D02*
X33038266Y30585415D01*
X33038266Y30585415D02*
X33038266Y30659700D01*
X33038266Y30659700D02*
X33071600Y30733986D01*
X33071600Y30733986D02*
X33104933Y30771129D01*
X33104933Y30771129D02*
X33171600Y30808272D01*
X33171600Y30808272D02*
X33304933Y30845415D01*
X33304933Y30845415D02*
X33371600Y30882558D01*
X33371600Y30882558D02*
X33404933Y30919700D01*
X33404933Y30919700D02*
X33438266Y30993986D01*
X33438266Y30993986D02*
X33438266Y31068272D01*
X33438266Y31068272D02*
X33404933Y31142558D01*
X33404933Y31142558D02*
X33371600Y31179700D01*
X33371600Y31179700D02*
X33304933Y31216843D01*
X33304933Y31216843D02*
X33138266Y31216843D01*
X33138266Y31216843D02*
X33038266Y31179700D01*
X32838266Y31216843D02*
X32438266Y31216843D01*
X32638266Y30436843D02*
X32638266Y31216843D01*
X33438266Y29210386D02*
X33338266Y29173243D01*
X33338266Y29173243D02*
X33171600Y29173243D01*
X33171600Y29173243D02*
X33104933Y29210386D01*
X33104933Y29210386D02*
X33071600Y29247529D01*
X33071600Y29247529D02*
X33038266Y29321815D01*
X33038266Y29321815D02*
X33038266Y29396100D01*
X33038266Y29396100D02*
X33071600Y29470386D01*
X33071600Y29470386D02*
X33104933Y29507529D01*
X33104933Y29507529D02*
X33171600Y29544672D01*
X33171600Y29544672D02*
X33304933Y29581815D01*
X33304933Y29581815D02*
X33371600Y29618958D01*
X33371600Y29618958D02*
X33404933Y29656100D01*
X33404933Y29656100D02*
X33438266Y29730386D01*
X33438266Y29730386D02*
X33438266Y29804672D01*
X33438266Y29804672D02*
X33404933Y29878958D01*
X33404933Y29878958D02*
X33371600Y29916100D01*
X33371600Y29916100D02*
X33304933Y29953243D01*
X33304933Y29953243D02*
X33138266Y29953243D01*
X33138266Y29953243D02*
X33038266Y29916100D01*
X32404933Y29173243D02*
X32738266Y29173243D01*
X32738266Y29173243D02*
X32738266Y29953243D01*
X33438266Y28132500D02*
X33104933Y28132500D01*
X33504933Y27909643D02*
X33271600Y28689643D01*
X33271600Y28689643D02*
X33038266Y27909643D01*
X33404933Y26646043D02*
X33404933Y27426043D01*
X33404933Y27054615D02*
X33004933Y27054615D01*
X33004933Y26646043D02*
X33004933Y27426043D01*
X32671600Y26646043D02*
X32671600Y27426043D01*
X32271600Y26646043D02*
X32571600Y27091758D01*
X32271600Y27426043D02*
X32671600Y26980329D01*
X26376333Y19860643D02*
X26376333Y19229215D01*
X26376333Y19229215D02*
X26343000Y19154929D01*
X26343000Y19154929D02*
X26309666Y19117786D01*
X26309666Y19117786D02*
X26243000Y19080643D01*
X26243000Y19080643D02*
X26109666Y19080643D01*
X26109666Y19080643D02*
X26043000Y19117786D01*
X26043000Y19117786D02*
X26009666Y19154929D01*
X26009666Y19154929D02*
X25976333Y19229215D01*
X25976333Y19229215D02*
X25976333Y19860643D01*
X25643000Y19080643D02*
X25643000Y19860643D01*
X25643000Y19860643D02*
X25376333Y19860643D01*
X25376333Y19860643D02*
X25309667Y19823500D01*
X25309667Y19823500D02*
X25276333Y19786358D01*
X25276333Y19786358D02*
X25243000Y19712072D01*
X25243000Y19712072D02*
X25243000Y19600643D01*
X25243000Y19600643D02*
X25276333Y19526358D01*
X25276333Y19526358D02*
X25309667Y19489215D01*
X25309667Y19489215D02*
X25376333Y19452072D01*
X25376333Y19452072D02*
X25643000Y19452072D01*
X26476333Y18597043D02*
X26076333Y18597043D01*
X26276333Y17817043D02*
X26276333Y18597043D01*
X25509667Y17817043D02*
X25843000Y17817043D01*
X25843000Y17817043D02*
X25843000Y18597043D01*
X26009666Y17296300D02*
X26076333Y17333443D01*
X26076333Y17333443D02*
X26176333Y17333443D01*
X26176333Y17333443D02*
X26276333Y17296300D01*
X26276333Y17296300D02*
X26343000Y17222015D01*
X26343000Y17222015D02*
X26376333Y17147729D01*
X26376333Y17147729D02*
X26409666Y16999158D01*
X26409666Y16999158D02*
X26409666Y16887729D01*
X26409666Y16887729D02*
X26376333Y16739158D01*
X26376333Y16739158D02*
X26343000Y16664872D01*
X26343000Y16664872D02*
X26276333Y16590586D01*
X26276333Y16590586D02*
X26176333Y16553443D01*
X26176333Y16553443D02*
X26109666Y16553443D01*
X26109666Y16553443D02*
X26009666Y16590586D01*
X26009666Y16590586D02*
X25976333Y16627729D01*
X25976333Y16627729D02*
X25976333Y16887729D01*
X25976333Y16887729D02*
X26109666Y16887729D01*
X26443000Y16069843D02*
X25976333Y15289843D01*
X25976333Y16069843D02*
X26443000Y15289843D01*
X26376333Y14026243D02*
X26376333Y14806243D01*
X26376333Y14806243D02*
X26209666Y14806243D01*
X26209666Y14806243D02*
X26109666Y14769100D01*
X26109666Y14769100D02*
X26043000Y14694815D01*
X26043000Y14694815D02*
X26009666Y14620529D01*
X26009666Y14620529D02*
X25976333Y14471958D01*
X25976333Y14471958D02*
X25976333Y14360529D01*
X25976333Y14360529D02*
X26009666Y14211958D01*
X26009666Y14211958D02*
X26043000Y14137672D01*
X26043000Y14137672D02*
X26109666Y14063386D01*
X26109666Y14063386D02*
X26209666Y14026243D01*
X26209666Y14026243D02*
X26376333Y14026243D01*
X25676333Y14026243D02*
X25676333Y14806243D01*
X25676333Y14806243D02*
X25276333Y14026243D01*
X25276333Y14026243D02*
X25276333Y14806243D01*
X26243000Y13134072D02*
X26243000Y12762643D01*
X26476333Y13542643D02*
X26243000Y13134072D01*
X26243000Y13134072D02*
X26009666Y13542643D01*
X26043000Y11499043D02*
X26376333Y11499043D01*
X26376333Y11499043D02*
X26376333Y12279043D01*
X25976333Y10235443D02*
X26209666Y10606872D01*
X26376333Y10235443D02*
X26376333Y11015443D01*
X26376333Y11015443D02*
X26109666Y11015443D01*
X26109666Y11015443D02*
X26043000Y10978300D01*
X26043000Y10978300D02*
X26009666Y10941158D01*
X26009666Y10941158D02*
X25976333Y10866872D01*
X25976333Y10866872D02*
X25976333Y10755443D01*
X25976333Y10755443D02*
X26009666Y10681158D01*
X26009666Y10681158D02*
X26043000Y10644015D01*
X26043000Y10644015D02*
X26109666Y10606872D01*
X26109666Y10606872D02*
X26376333Y10606872D01*
X26476333Y9751843D02*
X26076333Y9751843D01*
X26276333Y8971843D02*
X26276333Y9751843D01*
X25443000Y8971843D02*
X25676333Y9343272D01*
X25843000Y8971843D02*
X25843000Y9751843D01*
X25843000Y9751843D02*
X25576333Y9751843D01*
X25576333Y9751843D02*
X25509667Y9714700D01*
X25509667Y9714700D02*
X25476333Y9677558D01*
X25476333Y9677558D02*
X25443000Y9603272D01*
X25443000Y9603272D02*
X25443000Y9491843D01*
X25443000Y9491843D02*
X25476333Y9417558D01*
X25476333Y9417558D02*
X25509667Y9380415D01*
X25509667Y9380415D02*
X25576333Y9343272D01*
X25576333Y9343272D02*
X25843000Y9343272D01*
X26143000Y8116815D02*
X26043000Y8079672D01*
X26043000Y8079672D02*
X26009666Y8042529D01*
X26009666Y8042529D02*
X25976333Y7968243D01*
X25976333Y7968243D02*
X25976333Y7856815D01*
X25976333Y7856815D02*
X26009666Y7782529D01*
X26009666Y7782529D02*
X26043000Y7745386D01*
X26043000Y7745386D02*
X26109666Y7708243D01*
X26109666Y7708243D02*
X26376333Y7708243D01*
X26376333Y7708243D02*
X26376333Y8488243D01*
X26376333Y8488243D02*
X26143000Y8488243D01*
X26143000Y8488243D02*
X26076333Y8451100D01*
X26076333Y8451100D02*
X26043000Y8413958D01*
X26043000Y8413958D02*
X26009666Y8339672D01*
X26009666Y8339672D02*
X26009666Y8265386D01*
X26009666Y8265386D02*
X26043000Y8191100D01*
X26043000Y8191100D02*
X26076333Y8153958D01*
X26076333Y8153958D02*
X26143000Y8116815D01*
X26143000Y8116815D02*
X26376333Y8116815D01*
X26409666Y6481786D02*
X26309666Y6444643D01*
X26309666Y6444643D02*
X26143000Y6444643D01*
X26143000Y6444643D02*
X26076333Y6481786D01*
X26076333Y6481786D02*
X26043000Y6518929D01*
X26043000Y6518929D02*
X26009666Y6593215D01*
X26009666Y6593215D02*
X26009666Y6667500D01*
X26009666Y6667500D02*
X26043000Y6741786D01*
X26043000Y6741786D02*
X26076333Y6778929D01*
X26076333Y6778929D02*
X26143000Y6816072D01*
X26143000Y6816072D02*
X26276333Y6853215D01*
X26276333Y6853215D02*
X26343000Y6890358D01*
X26343000Y6890358D02*
X26376333Y6927500D01*
X26376333Y6927500D02*
X26409666Y7001786D01*
X26409666Y7001786D02*
X26409666Y7076072D01*
X26409666Y7076072D02*
X26376333Y7150358D01*
X26376333Y7150358D02*
X26343000Y7187500D01*
X26343000Y7187500D02*
X26276333Y7224643D01*
X26276333Y7224643D02*
X26109666Y7224643D01*
X26109666Y7224643D02*
X26009666Y7187500D01*
X25809666Y7224643D02*
X25409666Y7224643D01*
X25609666Y6444643D02*
X25609666Y7224643D01*
X26409666Y5218186D02*
X26309666Y5181043D01*
X26309666Y5181043D02*
X26143000Y5181043D01*
X26143000Y5181043D02*
X26076333Y5218186D01*
X26076333Y5218186D02*
X26043000Y5255329D01*
X26043000Y5255329D02*
X26009666Y5329615D01*
X26009666Y5329615D02*
X26009666Y5403900D01*
X26009666Y5403900D02*
X26043000Y5478186D01*
X26043000Y5478186D02*
X26076333Y5515329D01*
X26076333Y5515329D02*
X26143000Y5552472D01*
X26143000Y5552472D02*
X26276333Y5589615D01*
X26276333Y5589615D02*
X26343000Y5626758D01*
X26343000Y5626758D02*
X26376333Y5663900D01*
X26376333Y5663900D02*
X26409666Y5738186D01*
X26409666Y5738186D02*
X26409666Y5812472D01*
X26409666Y5812472D02*
X26376333Y5886758D01*
X26376333Y5886758D02*
X26343000Y5923900D01*
X26343000Y5923900D02*
X26276333Y5961043D01*
X26276333Y5961043D02*
X26109666Y5961043D01*
X26109666Y5961043D02*
X26009666Y5923900D01*
X25376333Y5181043D02*
X25709666Y5181043D01*
X25709666Y5181043D02*
X25709666Y5961043D01*
X26409666Y4140300D02*
X26076333Y4140300D01*
X26476333Y3917443D02*
X26243000Y4697443D01*
X26243000Y4697443D02*
X26009666Y3917443D01*
D11*
%TO.C,J7*%
X31957400Y100200D02*
X26757400Y100200D01*
X31957400Y23080200D02*
X31957400Y100200D01*
X31957400Y23080200D02*
X29357400Y23080200D01*
X29357400Y20480200D02*
X26757400Y20480200D01*
X29357400Y23080200D02*
X29357400Y20480200D01*
X28087400Y23080200D02*
X26757400Y23080200D01*
X26757400Y20480200D02*
X26757400Y100200D01*
X26757400Y23080200D02*
X26757400Y21750200D01*
%TO.C,J6*%
X31957400Y23722200D02*
X26757400Y23722200D01*
X31957400Y46702200D02*
X31957400Y23722200D01*
X31957400Y46702200D02*
X29357400Y46702200D01*
X29357400Y44102200D02*
X26757400Y44102200D01*
X29357400Y46702200D02*
X29357400Y44102200D01*
X28087400Y46702200D02*
X26757400Y46702200D01*
X26757400Y44102200D02*
X26757400Y23722200D01*
X26757400Y46702200D02*
X26757400Y45372200D01*
%TD*%
%LPC*%
D12*
%TO.C,J9*%
X34340800Y19296400D03*
D13*
X34340799Y18046399D03*
X34340799Y16796399D03*
X34340799Y15546399D03*
X34340799Y14296399D03*
X34340799Y13046399D03*
X34340799Y11796399D03*
X34340799Y10546399D03*
X34340799Y9296399D03*
X34340799Y8046399D03*
X34340799Y6796399D03*
X34340799Y5546399D03*
X34340799Y4296399D03*
%TD*%
D14*
%TO.C,J5*%
X19608799Y41147999D03*
D15*
X19608799Y38607999D03*
X19608799Y36067999D03*
X19608799Y33527999D03*
X19608799Y30987999D03*
X19608799Y28447999D03*
X19608799Y25907999D03*
X19608799Y23367999D03*
X19608799Y20827999D03*
X19608799Y18287999D03*
X19608799Y15747999D03*
X19608799Y13207999D03*
X19608799Y10667999D03*
X19608799Y8127999D03*
X19608799Y5587999D03*
%TD*%
D16*
%TO.C,J11*%
X24333200Y4292600D03*
D13*
X24333199Y5542599D03*
X24333199Y6792599D03*
X24333199Y8042599D03*
X24333199Y9292599D03*
X24333199Y10542599D03*
X24333199Y11792599D03*
X24333199Y13042599D03*
X24333199Y14292599D03*
X24333199Y15542599D03*
X24333199Y16792599D03*
X24333199Y18042599D03*
X24333199Y19292599D03*
%TD*%
D14*
%TO.C,JP3*%
X7721599Y15595599D03*
D15*
X7721599Y13055599D03*
X7721599Y10515599D03*
%TD*%
D12*
%TO.C,J1*%
X3606800Y41097200D03*
D13*
X3606799Y39847199D03*
X3606799Y38597199D03*
X3606799Y37347199D03*
X3606799Y36097199D03*
X3606799Y34847199D03*
%TD*%
D12*
%TO.C,J8*%
X34340800Y43324800D03*
D13*
X34340799Y42074799D03*
X34340799Y40824799D03*
X34340799Y39574799D03*
X34340799Y38324799D03*
X34340799Y37074799D03*
X34340799Y35824799D03*
X34340799Y34574799D03*
X34340799Y33324799D03*
X34340799Y32074799D03*
X34340799Y30824799D03*
X34340799Y29574799D03*
X34340799Y28324799D03*
X34340799Y27074799D03*
%TD*%
D12*
%TO.C,J3*%
X3606800Y30683200D03*
D13*
X3606799Y29433199D03*
X3606799Y28183199D03*
X3606799Y26933199D03*
X3606799Y25683199D03*
X3606799Y24433199D03*
X3606799Y23183199D03*
X3606799Y21933199D03*
X3606799Y20683199D03*
X3606799Y19433199D03*
X3606799Y18183199D03*
X3606799Y16933199D03*
X3606799Y15683199D03*
X3606799Y14433199D03*
X3606799Y13183199D03*
%TD*%
D14*
%TO.C,JP1*%
X7721599Y33629599D03*
D15*
X7721599Y31089599D03*
X7721599Y28549599D03*
%TD*%
D14*
%TO.C,J4*%
X15189199Y41097199D03*
D15*
X15189199Y38557199D03*
X15189199Y36017199D03*
X15189199Y33477199D03*
X15189199Y30937199D03*
X15189199Y28397199D03*
X15189199Y25857199D03*
X15189199Y23317199D03*
X15189199Y20777199D03*
X15189199Y18237199D03*
X15189199Y15697199D03*
X15189199Y13157199D03*
X15189199Y10617199D03*
X15189199Y8077199D03*
X15189199Y5537199D03*
%TD*%
D14*
%TO.C,JP2*%
X7721599Y24612599D03*
D15*
X7721599Y22072599D03*
X7721599Y19532599D03*
%TD*%
D12*
%TO.C,J2*%
X3606800Y9093200D03*
D13*
X3606799Y7843199D03*
X3606799Y6593199D03*
X3606799Y5343199D03*
%TD*%
D16*
%TO.C,J10*%
X24358600Y27076400D03*
D13*
X24358599Y28326399D03*
X24358599Y29576399D03*
X24358599Y30826399D03*
X24358599Y32076399D03*
X24358599Y33326399D03*
X24358599Y34576399D03*
X24358599Y35826399D03*
X24358599Y37076399D03*
X24358599Y38326399D03*
X24358599Y39576399D03*
X24358599Y40826399D03*
X24358599Y42076399D03*
X24358599Y43326399D03*
%TD*%
D14*
%TO.C,J7*%
X28087399Y21750199D03*
D15*
X30627399Y21750199D03*
X28087399Y19210199D03*
X30627399Y19210199D03*
X28087399Y16670199D03*
X30627399Y16670199D03*
X28087399Y14130199D03*
X30627399Y14130199D03*
X28087399Y11590199D03*
X30627399Y11590199D03*
X28087399Y9050199D03*
X30627399Y9050199D03*
X28087399Y6510199D03*
X30627399Y6510199D03*
X28087399Y3970199D03*
X30627399Y3970199D03*
X28087399Y1430199D03*
X30627399Y1430199D03*
%TD*%
D14*
%TO.C,J6*%
X28087399Y45372199D03*
D15*
X30627399Y45372199D03*
X28087399Y42832199D03*
X30627399Y42832199D03*
X28087399Y40292199D03*
X30627399Y40292199D03*
X28087399Y37752199D03*
X30627399Y37752199D03*
X28087399Y35212199D03*
X30627399Y35212199D03*
X28087399Y32672199D03*
X30627399Y32672199D03*
X28087399Y30132199D03*
X30627399Y30132199D03*
X28087399Y27592199D03*
X30627399Y27592199D03*
X28087399Y25052199D03*
X30627399Y25052199D03*
%TD*%
M02*
