%TF.GenerationSoftware,KiCad,Pcbnew,(6.0.10)*%
%TF.CreationDate,2023-02-13T19:14:31+09:00*%
%TF.ProjectId,joystick_gpio_input,6a6f7973-7469-4636-9b5f-6770696f5f69,1*%
%TF.SameCoordinates,PX7b89fa0PY78dfd90*%
%TF.FileFunction,Legend,Top*%
%TF.FilePolarity,Positive*%
%FSLAX46Y46*%
G04 Gerber Fmt 4.6, Leading zero omitted, Abs format (unit mm)*
G04 Created by KiCad (PCBNEW (6.0.10)) date 2023-02-13 19:14:31*
%MOMM*%
%LPD*%
G01*
G04 APERTURE LIST*
G04 Aperture macros list*
%AMRoundRect*
0 Rectangle with rounded corners*
0 $1 Rounding radius*
0 $2 $3 $4 $5 $6 $7 $8 $9 X,Y pos of 4 corners*
0 Add a 4 corners polygon primitive as box body*
4,1,4,$2,$3,$4,$5,$6,$7,$8,$9,$2,$3,0*
0 Add four circle primitives for the rounded corners*
1,1,$1+$1,$2,$3*
1,1,$1+$1,$4,$5*
1,1,$1+$1,$6,$7*
1,1,$1+$1,$8,$9*
0 Add four rect primitives between the rounded corners*
20,1,$1+$1,$2,$3,$4,$5,0*
20,1,$1+$1,$4,$5,$6,$7,0*
20,1,$1+$1,$6,$7,$8,$9,0*
20,1,$1+$1,$8,$9,$2,$3,0*%
G04 Aperture macros list end*
%ADD10C,0.150000*%
%ADD11C,0.120000*%
%ADD12O,1.700000X1.700000*%
%ADD13R,1.700000X1.700000*%
%ADD14O,1.300000X0.800000*%
%ADD15RoundRect,0.200000X-0.450000X0.200000X-0.450000X-0.200000X0.450000X-0.200000X0.450000X0.200000X0*%
%ADD16RoundRect,0.250000X-0.350000X-0.450000X0.350000X-0.450000X0.350000X0.450000X-0.350000X0.450000X0*%
G04 APERTURE END LIST*
D10*
X30920685Y1265181D02*
X30968304Y1312800D01*
X31063542Y1360420D01*
X31301638Y1360420D01*
X31396876Y1312800D01*
X31444495Y1265181D01*
X31492114Y1169943D01*
X31492114Y1074705D01*
X31444495Y931848D01*
X30873066Y360420D01*
X31492114Y360420D01*
X31920685Y360420D02*
X31920685Y1360420D01*
X32301638Y1360420D01*
X32396876Y1312800D01*
X32444495Y1265181D01*
X32492114Y1169943D01*
X32492114Y1027086D01*
X32444495Y931848D01*
X32396876Y884229D01*
X32301638Y836610D01*
X31920685Y836610D01*
X31492114Y45420020D02*
X30920685Y45420020D01*
X31206400Y45420020D02*
X31206400Y46420020D01*
X31111161Y46277162D01*
X31015923Y46181924D01*
X30920685Y46134305D01*
X31920685Y45420020D02*
X31920685Y46420020D01*
X32301638Y46420020D01*
X32396876Y46372400D01*
X32444495Y46324781D01*
X32492114Y46229543D01*
X32492114Y46086686D01*
X32444495Y45991448D01*
X32396876Y45943829D01*
X32301638Y45896210D01*
X31920685Y45896210D01*
X24268133Y26948667D02*
X24301466Y27048667D01*
X24301466Y27215334D01*
X24268133Y27282000D01*
X24234800Y27315334D01*
X24168133Y27348667D01*
X24101466Y27348667D01*
X24034800Y27315334D01*
X24001466Y27282000D01*
X23968133Y27215334D01*
X23934800Y27082000D01*
X23901466Y27015334D01*
X23868133Y26982000D01*
X23801466Y26948667D01*
X23734800Y26948667D01*
X23668133Y26982000D01*
X23634800Y27015334D01*
X23601466Y27082000D01*
X23601466Y27248667D01*
X23634800Y27348667D01*
X24301466Y27982000D02*
X24301466Y27648667D01*
X23601466Y27648667D01*
X29622800Y3861600D02*
X29589466Y3761600D01*
X29556133Y3728267D01*
X29489466Y3694934D01*
X29389466Y3694934D01*
X29322800Y3728267D01*
X29289466Y3761600D01*
X29256133Y3828267D01*
X29256133Y4094934D01*
X29956133Y4094934D01*
X29956133Y3861600D01*
X29922800Y3794934D01*
X29889466Y3761600D01*
X29822800Y3728267D01*
X29756133Y3728267D01*
X29689466Y3761600D01*
X29656133Y3794934D01*
X29622800Y3861600D01*
X29622800Y4094934D01*
X2021833Y9436500D02*
X1955166Y9473643D01*
X1855166Y9473643D01*
X1755166Y9436500D01*
X1688500Y9362215D01*
X1655166Y9287929D01*
X1621833Y9139358D01*
X1621833Y9027929D01*
X1655166Y8879358D01*
X1688500Y8805072D01*
X1755166Y8730786D01*
X1855166Y8693643D01*
X1921833Y8693643D01*
X2021833Y8730786D01*
X2055166Y8767929D01*
X2055166Y9027929D01*
X1921833Y9027929D01*
X1121833Y7474986D02*
X1221833Y7437843D01*
X1388500Y7437843D01*
X1455166Y7474986D01*
X1488500Y7512129D01*
X1521833Y7586415D01*
X1521833Y7660700D01*
X1488500Y7734986D01*
X1455166Y7772129D01*
X1388500Y7809272D01*
X1255166Y7846415D01*
X1188500Y7883558D01*
X1155166Y7920700D01*
X1121833Y7994986D01*
X1121833Y8069272D01*
X1155166Y8143558D01*
X1188500Y8180700D01*
X1255166Y8217843D01*
X1421833Y8217843D01*
X1521833Y8180700D01*
X1721833Y8217843D02*
X2121833Y8217843D01*
X1921833Y7437843D02*
X1921833Y8217843D01*
X1088500Y6219186D02*
X1188500Y6182043D01*
X1355166Y6182043D01*
X1421833Y6219186D01*
X1455166Y6256329D01*
X1488500Y6330615D01*
X1488500Y6404900D01*
X1455166Y6479186D01*
X1421833Y6516329D01*
X1355166Y6553472D01*
X1221833Y6590615D01*
X1155166Y6627758D01*
X1121833Y6664900D01*
X1088500Y6739186D01*
X1088500Y6813472D01*
X1121833Y6887758D01*
X1155166Y6924900D01*
X1221833Y6962043D01*
X1388500Y6962043D01*
X1488500Y6924900D01*
X2121833Y6182043D02*
X1788500Y6182043D01*
X1788500Y6962043D01*
X2021833Y5669100D02*
X1955166Y5706243D01*
X1855166Y5706243D01*
X1755166Y5669100D01*
X1688500Y5594815D01*
X1655166Y5520529D01*
X1621833Y5371958D01*
X1621833Y5260529D01*
X1655166Y5111958D01*
X1688500Y5037672D01*
X1755166Y4963386D01*
X1855166Y4926243D01*
X1921833Y4926243D01*
X2021833Y4963386D01*
X2055166Y5000529D01*
X2055166Y5260529D01*
X1921833Y5260529D01*
X24301466Y13674000D02*
X23601466Y13674000D01*
X23601466Y13840667D01*
X23634800Y13940667D01*
X23701466Y14007334D01*
X23768133Y14040667D01*
X23901466Y14074000D01*
X24001466Y14074000D01*
X24134800Y14040667D01*
X24201466Y14007334D01*
X24268133Y13940667D01*
X24301466Y13840667D01*
X24301466Y13674000D01*
X24301466Y14374000D02*
X23601466Y14374000D01*
X24301466Y14774000D01*
X23601466Y14774000D01*
X24301466Y11900667D02*
X24301466Y11567334D01*
X23601466Y11567334D01*
X7956990Y2314096D02*
X7690323Y2695048D01*
X7499847Y2314096D02*
X7499847Y3114096D01*
X7804609Y3114096D01*
X7880800Y3076000D01*
X7918895Y3037905D01*
X7956990Y2961715D01*
X7956990Y2847429D01*
X7918895Y2771239D01*
X7880800Y2733143D01*
X7804609Y2695048D01*
X7499847Y2695048D01*
X8414133Y3114096D02*
X8414133Y2923620D01*
X8223657Y2999810D02*
X8414133Y2923620D01*
X8604609Y2999810D01*
X8299847Y2771239D02*
X8414133Y2923620D01*
X8528419Y2771239D01*
X9480800Y3152191D02*
X8795085Y2123620D01*
X9709371Y2352191D02*
X9823657Y2314096D01*
X10014133Y2314096D01*
X10090323Y2352191D01*
X10128419Y2390286D01*
X10166514Y2466477D01*
X10166514Y2542667D01*
X10128419Y2618858D01*
X10090323Y2656953D01*
X10014133Y2695048D01*
X9861752Y2733143D01*
X9785561Y2771239D01*
X9747466Y2809334D01*
X9709371Y2885524D01*
X9709371Y2961715D01*
X9747466Y3037905D01*
X9785561Y3076000D01*
X9861752Y3114096D01*
X10052228Y3114096D01*
X10166514Y3076000D01*
X10890323Y2314096D02*
X10509371Y2314096D01*
X10509371Y3114096D01*
X11271276Y3114096D02*
X11271276Y2923620D01*
X11080800Y2999810D02*
X11271276Y2923620D01*
X11461752Y2999810D01*
X11156990Y2771239D02*
X11271276Y2923620D01*
X11385561Y2771239D01*
X12337942Y3152191D02*
X11652228Y2123620D01*
X12604609Y2314096D02*
X12604609Y3114096D01*
X12604609Y2733143D02*
X13061752Y2733143D01*
X13061752Y2314096D02*
X13061752Y3114096D01*
X13442704Y2314096D02*
X13442704Y3114096D01*
X13899847Y2314096D02*
X13556990Y2771239D01*
X13899847Y3114096D02*
X13442704Y2656953D01*
X14356990Y3114096D02*
X14356990Y2923620D01*
X14166514Y2999810D02*
X14356990Y2923620D01*
X14547466Y2999810D01*
X14242704Y2771239D02*
X14356990Y2923620D01*
X14471276Y2771239D01*
X15461752Y2390286D02*
X15499847Y2352191D01*
X15461752Y2314096D01*
X15423657Y2352191D01*
X15461752Y2390286D01*
X15461752Y2314096D01*
X15461752Y2809334D02*
X15499847Y2771239D01*
X15461752Y2733143D01*
X15423657Y2771239D01*
X15461752Y2809334D01*
X15461752Y2733143D01*
X6242704Y1026096D02*
X5785561Y1026096D01*
X6014133Y1026096D02*
X6014133Y1826096D01*
X5937942Y1711810D01*
X5861752Y1635620D01*
X5785561Y1597524D01*
X6585561Y1330858D02*
X7195085Y1330858D01*
X7537942Y1749905D02*
X7576038Y1788000D01*
X7652228Y1826096D01*
X7842704Y1826096D01*
X7918895Y1788000D01*
X7956990Y1749905D01*
X7995085Y1673715D01*
X7995085Y1597524D01*
X7956990Y1483239D01*
X7499847Y1026096D01*
X7995085Y1026096D01*
X8337942Y1102286D02*
X8376038Y1064191D01*
X8337942Y1026096D01*
X8299847Y1064191D01*
X8337942Y1102286D01*
X8337942Y1026096D01*
X8337942Y1521334D02*
X8376038Y1483239D01*
X8337942Y1445143D01*
X8299847Y1483239D01*
X8337942Y1521334D01*
X8337942Y1445143D01*
X9176038Y1102286D02*
X9137942Y1064191D01*
X9023657Y1026096D01*
X8947466Y1026096D01*
X8833180Y1064191D01*
X8756990Y1140381D01*
X8718895Y1216572D01*
X8680800Y1368953D01*
X8680800Y1483239D01*
X8718895Y1635620D01*
X8756990Y1711810D01*
X8833180Y1788000D01*
X8947466Y1826096D01*
X9023657Y1826096D01*
X9137942Y1788000D01*
X9176038Y1749905D01*
X9671276Y1826096D02*
X9823657Y1826096D01*
X9899847Y1788000D01*
X9976038Y1711810D01*
X10014133Y1559429D01*
X10014133Y1292762D01*
X9976038Y1140381D01*
X9899847Y1064191D01*
X9823657Y1026096D01*
X9671276Y1026096D01*
X9595085Y1064191D01*
X9518895Y1140381D01*
X9480800Y1292762D01*
X9480800Y1559429D01*
X9518895Y1711810D01*
X9595085Y1788000D01*
X9671276Y1826096D01*
X10356990Y1026096D02*
X10356990Y1826096D01*
X10814133Y1026096D01*
X10814133Y1826096D01*
X11233180Y1064191D02*
X11233180Y1026096D01*
X11195085Y949905D01*
X11156990Y911810D01*
X12147466Y1749905D02*
X12185561Y1788000D01*
X12261752Y1826096D01*
X12452228Y1826096D01*
X12528419Y1788000D01*
X12566514Y1749905D01*
X12604609Y1673715D01*
X12604609Y1597524D01*
X12566514Y1483239D01*
X12109371Y1026096D01*
X12604609Y1026096D01*
X12947466Y1330858D02*
X13556990Y1330858D01*
X13861752Y1826096D02*
X14356990Y1826096D01*
X14090323Y1521334D01*
X14204609Y1521334D01*
X14280800Y1483239D01*
X14318895Y1445143D01*
X14356990Y1368953D01*
X14356990Y1178477D01*
X14318895Y1102286D01*
X14280800Y1064191D01*
X14204609Y1026096D01*
X13976038Y1026096D01*
X13899847Y1064191D01*
X13861752Y1102286D01*
X14699847Y1102286D02*
X14737942Y1064191D01*
X14699847Y1026096D01*
X14661752Y1064191D01*
X14699847Y1102286D01*
X14699847Y1026096D01*
X14699847Y1521334D02*
X14737942Y1483239D01*
X14699847Y1445143D01*
X14661752Y1483239D01*
X14699847Y1521334D01*
X14699847Y1445143D01*
X15499847Y1788000D02*
X15423657Y1826096D01*
X15309371Y1826096D01*
X15195085Y1788000D01*
X15118895Y1711810D01*
X15080800Y1635620D01*
X15042704Y1483239D01*
X15042704Y1368953D01*
X15080800Y1216572D01*
X15118895Y1140381D01*
X15195085Y1064191D01*
X15309371Y1026096D01*
X15385561Y1026096D01*
X15499847Y1064191D01*
X15537942Y1102286D01*
X15537942Y1368953D01*
X15385561Y1368953D01*
X15880800Y1026096D02*
X15880800Y1826096D01*
X16337942Y1026096D01*
X16337942Y1826096D01*
X16718895Y1026096D02*
X16718895Y1826096D01*
X16909371Y1826096D01*
X17023657Y1788000D01*
X17099847Y1711810D01*
X17137942Y1635620D01*
X17176038Y1483239D01*
X17176038Y1368953D01*
X17137942Y1216572D01*
X17099847Y1140381D01*
X17023657Y1064191D01*
X16909371Y1026096D01*
X16718895Y1026096D01*
X29956133Y45746134D02*
X29956133Y45346134D01*
X29256133Y45546134D02*
X29956133Y45546134D01*
X29256133Y44779467D02*
X29256133Y45112800D01*
X29956133Y45112800D01*
X2072633Y31024600D02*
X2005966Y31061743D01*
X1905966Y31061743D01*
X1805966Y31024600D01*
X1739300Y30950315D01*
X1705966Y30876029D01*
X1672633Y30727458D01*
X1672633Y30616029D01*
X1705966Y30467458D01*
X1739300Y30393172D01*
X1805966Y30318886D01*
X1905966Y30281743D01*
X1972633Y30281743D01*
X2072633Y30318886D01*
X2105966Y30356029D01*
X2105966Y30616029D01*
X1972633Y30616029D01*
X972633Y29805943D02*
X972633Y29174515D01*
X1005966Y29100229D01*
X1039300Y29063086D01*
X1105966Y29025943D01*
X1239300Y29025943D01*
X1305966Y29063086D01*
X1339300Y29100229D01*
X1372633Y29174515D01*
X1372633Y29805943D01*
X1705966Y29025943D02*
X1705966Y29805943D01*
X1972633Y29805943D01*
X2039300Y29768800D01*
X2072633Y29731658D01*
X2105966Y29657372D01*
X2105966Y29545943D01*
X2072633Y29471658D01*
X2039300Y29434515D01*
X1972633Y29397372D01*
X1705966Y29397372D01*
X972633Y27770143D02*
X972633Y28550143D01*
X1139300Y28550143D01*
X1239300Y28513000D01*
X1305966Y28438715D01*
X1339300Y28364429D01*
X1372633Y28215858D01*
X1372633Y28104429D01*
X1339300Y27955858D01*
X1305966Y27881572D01*
X1239300Y27807286D01*
X1139300Y27770143D01*
X972633Y27770143D01*
X1672633Y27770143D02*
X1672633Y28550143D01*
X2072633Y27770143D01*
X2072633Y28550143D01*
X2172633Y26514343D02*
X1839300Y26514343D01*
X1839300Y27294343D01*
X1572633Y25258543D02*
X1339300Y25629972D01*
X1172633Y25258543D02*
X1172633Y26038543D01*
X1439300Y26038543D01*
X1505966Y26001400D01*
X1539300Y25964258D01*
X1572633Y25889972D01*
X1572633Y25778543D01*
X1539300Y25704258D01*
X1505966Y25667115D01*
X1439300Y25629972D01*
X1172633Y25629972D01*
X1972633Y26038543D02*
X1972633Y25852829D01*
X1805966Y25927115D02*
X1972633Y25852829D01*
X2139300Y25927115D01*
X1872633Y25704258D02*
X1972633Y25852829D01*
X2072633Y25704258D01*
X1172633Y24039886D02*
X1272633Y24002743D01*
X1439300Y24002743D01*
X1505966Y24039886D01*
X1539300Y24077029D01*
X1572633Y24151315D01*
X1572633Y24225600D01*
X1539300Y24299886D01*
X1505966Y24337029D01*
X1439300Y24374172D01*
X1305966Y24411315D01*
X1239300Y24448458D01*
X1205966Y24485600D01*
X1172633Y24559886D01*
X1172633Y24634172D01*
X1205966Y24708458D01*
X1239300Y24745600D01*
X1305966Y24782743D01*
X1472633Y24782743D01*
X1572633Y24745600D01*
X1772633Y24782743D02*
X2172633Y24782743D01*
X1972633Y24002743D02*
X1972633Y24782743D01*
X605966Y22784086D02*
X705966Y22746943D01*
X872633Y22746943D01*
X939300Y22784086D01*
X972633Y22821229D01*
X1005966Y22895515D01*
X1005966Y22969800D01*
X972633Y23044086D01*
X939300Y23081229D01*
X872633Y23118372D01*
X739300Y23155515D01*
X672633Y23192658D01*
X639300Y23229800D01*
X605966Y23304086D01*
X605966Y23378372D01*
X639300Y23452658D01*
X672633Y23489800D01*
X739300Y23526943D01*
X905966Y23526943D01*
X1005966Y23489800D01*
X1639300Y22746943D02*
X1305966Y22746943D01*
X1305966Y23526943D01*
X1972633Y23526943D02*
X1972633Y23341229D01*
X1805966Y23415515D02*
X1972633Y23341229D01*
X2139300Y23415515D01*
X1872633Y23192658D02*
X1972633Y23341229D01*
X2072633Y23192658D01*
X1772633Y21714000D02*
X2105966Y21714000D01*
X1705966Y21491143D02*
X1939300Y22271143D01*
X2172633Y21491143D01*
X1939300Y20643915D02*
X2039300Y20606772D01*
X2072633Y20569629D01*
X2105966Y20495343D01*
X2105966Y20383915D01*
X2072633Y20309629D01*
X2039300Y20272486D01*
X1972633Y20235343D01*
X1705966Y20235343D01*
X1705966Y21015343D01*
X1939300Y21015343D01*
X2005966Y20978200D01*
X2039300Y20941058D01*
X2072633Y20866772D01*
X2072633Y20792486D01*
X2039300Y20718200D01*
X2005966Y20681058D01*
X1939300Y20643915D01*
X1705966Y20643915D01*
X1672633Y19759543D02*
X2139300Y18979543D01*
X2139300Y19759543D02*
X1672633Y18979543D01*
X1939300Y18095172D02*
X1939300Y17723743D01*
X1705966Y18503743D02*
X1939300Y18095172D01*
X2172633Y18503743D01*
X1205966Y17247943D02*
X1605966Y17247943D01*
X1405966Y16467943D02*
X1405966Y17247943D01*
X2172633Y16467943D02*
X1839300Y16467943D01*
X1839300Y17247943D01*
X1072633Y15992143D02*
X1472633Y15992143D01*
X1272633Y15212143D02*
X1272633Y15992143D01*
X2105966Y15212143D02*
X1872633Y15583572D01*
X1705966Y15212143D02*
X1705966Y15992143D01*
X1972633Y15992143D01*
X2039300Y15955000D01*
X2072633Y15917858D01*
X2105966Y15843572D01*
X2105966Y15732143D01*
X2072633Y15657858D01*
X2039300Y15620715D01*
X1972633Y15583572D01*
X1705966Y15583572D01*
X439300Y13956343D02*
X439300Y14736343D01*
X439300Y14364915D02*
X839300Y14364915D01*
X839300Y13956343D02*
X839300Y14736343D01*
X1172633Y13956343D02*
X1172633Y14736343D01*
X1572633Y13956343D02*
X1272633Y14402058D01*
X1572633Y14736343D02*
X1172633Y14290629D01*
X1972633Y14736343D02*
X1972633Y14550629D01*
X1805966Y14624915D02*
X1972633Y14550629D01*
X2139300Y14624915D01*
X1872633Y14402058D02*
X1972633Y14550629D01*
X2072633Y14402058D01*
X2072633Y13443400D02*
X2005966Y13480543D01*
X1905966Y13480543D01*
X1805966Y13443400D01*
X1739300Y13369115D01*
X1705966Y13294829D01*
X1672633Y13146258D01*
X1672633Y13034829D01*
X1705966Y12886258D01*
X1739300Y12811972D01*
X1805966Y12737686D01*
X1905966Y12700543D01*
X1972633Y12700543D01*
X2072633Y12737686D01*
X2105966Y12774829D01*
X2105966Y13034829D01*
X1972633Y13034829D01*
X2082633Y41502500D02*
X2015966Y41539643D01*
X1915966Y41539643D01*
X1815966Y41502500D01*
X1749300Y41428215D01*
X1715966Y41353929D01*
X1682633Y41205358D01*
X1682633Y41093929D01*
X1715966Y40945358D01*
X1749300Y40871072D01*
X1815966Y40796786D01*
X1915966Y40759643D01*
X1982633Y40759643D01*
X2082633Y40796786D01*
X2115966Y40833929D01*
X2115966Y41093929D01*
X1982633Y41093929D01*
X982633Y40283843D02*
X982633Y39652415D01*
X1015966Y39578129D01*
X1049300Y39540986D01*
X1115966Y39503843D01*
X1249300Y39503843D01*
X1315966Y39540986D01*
X1349300Y39578129D01*
X1382633Y39652415D01*
X1382633Y40283843D01*
X1715966Y39503843D02*
X1715966Y40283843D01*
X1982633Y40283843D01*
X2049300Y40246700D01*
X2082633Y40209558D01*
X2115966Y40135272D01*
X2115966Y40023843D01*
X2082633Y39949558D01*
X2049300Y39912415D01*
X1982633Y39875272D01*
X1715966Y39875272D01*
X982633Y38248043D02*
X982633Y39028043D01*
X1149300Y39028043D01*
X1249300Y38990900D01*
X1315966Y38916615D01*
X1349300Y38842329D01*
X1382633Y38693758D01*
X1382633Y38582329D01*
X1349300Y38433758D01*
X1315966Y38359472D01*
X1249300Y38285186D01*
X1149300Y38248043D01*
X982633Y38248043D01*
X1682633Y38248043D02*
X1682633Y39028043D01*
X2082633Y38248043D01*
X2082633Y39028043D01*
X2182633Y36992243D02*
X1849300Y36992243D01*
X1849300Y37772243D01*
X2115966Y35736443D02*
X1882633Y36107872D01*
X1715966Y35736443D02*
X1715966Y36516443D01*
X1982633Y36516443D01*
X2049300Y36479300D01*
X2082633Y36442158D01*
X2115966Y36367872D01*
X2115966Y36256443D01*
X2082633Y36182158D01*
X2049300Y36145015D01*
X1982633Y36107872D01*
X1715966Y36107872D01*
X2082633Y35223500D02*
X2015966Y35260643D01*
X1915966Y35260643D01*
X1815966Y35223500D01*
X1749300Y35149215D01*
X1715966Y35074929D01*
X1682633Y34926358D01*
X1682633Y34814929D01*
X1715966Y34666358D01*
X1749300Y34592072D01*
X1815966Y34517786D01*
X1915966Y34480643D01*
X1982633Y34480643D01*
X2082633Y34517786D01*
X2115966Y34554929D01*
X2115966Y34814929D01*
X1982633Y34814929D01*
X24301466Y9360667D02*
X23968133Y9127334D01*
X24301466Y8960667D02*
X23601466Y8960667D01*
X23601466Y9227334D01*
X23634800Y9294000D01*
X23668133Y9327334D01*
X23734800Y9360667D01*
X23834800Y9360667D01*
X23901466Y9327334D01*
X23934800Y9294000D01*
X23968133Y9227334D01*
X23968133Y8960667D01*
X29589466Y40182800D02*
X29256133Y40182800D01*
X29956133Y40416134D02*
X29589466Y40182800D01*
X29956133Y39949467D01*
X23601466Y44662000D02*
X24168133Y44662000D01*
X24234800Y44695334D01*
X24268133Y44728667D01*
X24301466Y44795334D01*
X24301466Y44928667D01*
X24268133Y44995334D01*
X24234800Y45028667D01*
X24168133Y45062000D01*
X23601466Y45062000D01*
X24301466Y45395334D02*
X23601466Y45395334D01*
X23601466Y45662000D01*
X23634800Y45728667D01*
X23668133Y45762000D01*
X23734800Y45795334D01*
X23834800Y45795334D01*
X23901466Y45762000D01*
X23934800Y45728667D01*
X23968133Y45662000D01*
X23968133Y45395334D01*
X29956133Y19384934D02*
X29256133Y18918267D01*
X29956133Y18918267D02*
X29256133Y19384934D01*
X21244566Y41581820D02*
X21244566Y40942296D01*
X21277900Y40867058D01*
X21311233Y40829439D01*
X21377900Y40791820D01*
X21511233Y40791820D01*
X21577900Y40829439D01*
X21611233Y40867058D01*
X21644566Y40942296D01*
X21644566Y41581820D01*
X21977900Y40791820D02*
X21977900Y41581820D01*
X22244566Y41581820D01*
X22311233Y41544200D01*
X22344566Y41506581D01*
X22377900Y41431343D01*
X22377900Y41318486D01*
X22344566Y41243248D01*
X22311233Y41205629D01*
X22244566Y41168010D01*
X21977900Y41168010D01*
X21144566Y39038020D02*
X21544566Y39038020D01*
X21344566Y38248020D02*
X21344566Y39038020D01*
X22111233Y38248020D02*
X21777900Y38248020D01*
X21777900Y39038020D01*
X21611233Y36456600D02*
X21544566Y36494220D01*
X21444566Y36494220D01*
X21344566Y36456600D01*
X21277900Y36381362D01*
X21244566Y36306124D01*
X21211233Y36155648D01*
X21211233Y36042791D01*
X21244566Y35892315D01*
X21277900Y35817077D01*
X21344566Y35741839D01*
X21444566Y35704220D01*
X21511233Y35704220D01*
X21611233Y35741839D01*
X21644566Y35779458D01*
X21644566Y36042791D01*
X21511233Y36042791D01*
X21177900Y33950420D02*
X21644566Y33160420D01*
X21644566Y33950420D02*
X21177900Y33160420D01*
X21244566Y30616620D02*
X21244566Y31406620D01*
X21411233Y31406620D01*
X21511233Y31369000D01*
X21577900Y31293762D01*
X21611233Y31218524D01*
X21644566Y31068048D01*
X21644566Y30955191D01*
X21611233Y30804715D01*
X21577900Y30729477D01*
X21511233Y30654239D01*
X21411233Y30616620D01*
X21244566Y30616620D01*
X21944566Y30616620D02*
X21944566Y31406620D01*
X22344566Y30616620D01*
X22344566Y31406620D01*
X21377900Y28449010D02*
X21377900Y28072820D01*
X21144566Y28862820D02*
X21377900Y28449010D01*
X21611233Y28862820D01*
X21577900Y25529020D02*
X21244566Y25529020D01*
X21244566Y26319020D01*
X21644566Y22985220D02*
X21411233Y23361410D01*
X21244566Y22985220D02*
X21244566Y23775220D01*
X21511233Y23775220D01*
X21577900Y23737600D01*
X21611233Y23699981D01*
X21644566Y23624743D01*
X21644566Y23511886D01*
X21611233Y23436648D01*
X21577900Y23399029D01*
X21511233Y23361410D01*
X21244566Y23361410D01*
X21144566Y21231420D02*
X21544566Y21231420D01*
X21344566Y20441420D02*
X21344566Y21231420D01*
X22177900Y20441420D02*
X21944566Y20817610D01*
X21777900Y20441420D02*
X21777900Y21231420D01*
X22044566Y21231420D01*
X22111233Y21193800D01*
X22144566Y21156181D01*
X22177900Y21080943D01*
X22177900Y20968086D01*
X22144566Y20892848D01*
X22111233Y20855229D01*
X22044566Y20817610D01*
X21777900Y20817610D01*
X21477900Y18311429D02*
X21577900Y18273810D01*
X21611233Y18236191D01*
X21644566Y18160953D01*
X21644566Y18048096D01*
X21611233Y17972858D01*
X21577900Y17935239D01*
X21511233Y17897620D01*
X21244566Y17897620D01*
X21244566Y18687620D01*
X21477900Y18687620D01*
X21544566Y18650000D01*
X21577900Y18612381D01*
X21611233Y18537143D01*
X21611233Y18461905D01*
X21577900Y18386667D01*
X21544566Y18349048D01*
X21477900Y18311429D01*
X21244566Y18311429D01*
X21211233Y15391439D02*
X21311233Y15353820D01*
X21477900Y15353820D01*
X21544566Y15391439D01*
X21577900Y15429058D01*
X21611233Y15504296D01*
X21611233Y15579534D01*
X21577900Y15654772D01*
X21544566Y15692391D01*
X21477900Y15730010D01*
X21344566Y15767629D01*
X21277900Y15805248D01*
X21244566Y15842867D01*
X21211233Y15918105D01*
X21211233Y15993343D01*
X21244566Y16068581D01*
X21277900Y16106200D01*
X21344566Y16143820D01*
X21511233Y16143820D01*
X21611233Y16106200D01*
X21811233Y16143820D02*
X22211233Y16143820D01*
X22011233Y15353820D02*
X22011233Y16143820D01*
X21611233Y13562400D02*
X21544566Y13600020D01*
X21444566Y13600020D01*
X21344566Y13562400D01*
X21277900Y13487162D01*
X21244566Y13411924D01*
X21211233Y13261448D01*
X21211233Y13148591D01*
X21244566Y12998115D01*
X21277900Y12922877D01*
X21344566Y12847639D01*
X21444566Y12810020D01*
X21511233Y12810020D01*
X21611233Y12847639D01*
X21644566Y12885258D01*
X21644566Y13148591D01*
X21511233Y13148591D01*
X21211233Y10303839D02*
X21311233Y10266220D01*
X21477900Y10266220D01*
X21544566Y10303839D01*
X21577900Y10341458D01*
X21611233Y10416696D01*
X21611233Y10491934D01*
X21577900Y10567172D01*
X21544566Y10604791D01*
X21477900Y10642410D01*
X21344566Y10680029D01*
X21277900Y10717648D01*
X21244566Y10755267D01*
X21211233Y10830505D01*
X21211233Y10905743D01*
X21244566Y10980981D01*
X21277900Y11018600D01*
X21344566Y11056220D01*
X21511233Y11056220D01*
X21611233Y11018600D01*
X22244566Y10266220D02*
X21911233Y10266220D01*
X21911233Y11056220D01*
X21211233Y7948134D02*
X21544566Y7948134D01*
X21144566Y7722420D02*
X21377900Y8512420D01*
X21611233Y7722420D01*
X21244566Y5178620D02*
X21244566Y5968620D01*
X21244566Y5592429D02*
X21644566Y5592429D01*
X21644566Y5178620D02*
X21644566Y5968620D01*
X21977900Y5178620D02*
X21977900Y5968620D01*
X22377900Y5178620D02*
X22077900Y5630048D01*
X22377900Y5968620D02*
X21977900Y5517191D01*
X29456133Y1538267D02*
X29456133Y1204934D01*
X29256133Y1604934D02*
X29956133Y1371600D01*
X29256133Y1138267D01*
X29956133Y35652800D02*
X29956133Y35252800D01*
X29256133Y35452800D02*
X29956133Y35452800D01*
X29256133Y34619467D02*
X29589466Y34852800D01*
X29256133Y35019467D02*
X29956133Y35019467D01*
X29956133Y34752800D01*
X29922800Y34686134D01*
X29889466Y34652800D01*
X29822800Y34619467D01*
X29722800Y34619467D01*
X29656133Y34652800D01*
X29622800Y34686134D01*
X29589466Y34752800D01*
X29589466Y35019467D01*
X7668028Y26279915D02*
X7418028Y26637058D01*
X7239457Y26279915D02*
X7239457Y27029915D01*
X7525171Y27029915D01*
X7596600Y26994200D01*
X7632314Y26958486D01*
X7668028Y26887058D01*
X7668028Y26779915D01*
X7632314Y26708486D01*
X7596600Y26672772D01*
X7525171Y26637058D01*
X7239457Y26637058D01*
X8096600Y27029915D02*
X8096600Y26851343D01*
X7918028Y26922772D02*
X8096600Y26851343D01*
X8275171Y26922772D01*
X7989457Y26708486D02*
X8096600Y26851343D01*
X8203742Y26708486D01*
X4777647Y45712000D02*
X4682409Y45759620D01*
X4539552Y45759620D01*
X4396695Y45712000D01*
X4301457Y45616762D01*
X4253838Y45521524D01*
X4206219Y45331048D01*
X4206219Y45188191D01*
X4253838Y44997715D01*
X4301457Y44902477D01*
X4396695Y44807239D01*
X4539552Y44759620D01*
X4634790Y44759620D01*
X4777647Y44807239D01*
X4825266Y44854858D01*
X4825266Y45188191D01*
X4634790Y45188191D01*
X5253838Y44759620D02*
X5253838Y45759620D01*
X5634790Y45759620D01*
X5730028Y45712000D01*
X5777647Y45664381D01*
X5825266Y45569143D01*
X5825266Y45426286D01*
X5777647Y45331048D01*
X5730028Y45283429D01*
X5634790Y45235810D01*
X5253838Y45235810D01*
X6253838Y44759620D02*
X6253838Y45759620D01*
X6920504Y45759620D02*
X7110980Y45759620D01*
X7206219Y45712000D01*
X7301457Y45616762D01*
X7349076Y45426286D01*
X7349076Y45092953D01*
X7301457Y44902477D01*
X7206219Y44807239D01*
X7110980Y44759620D01*
X6920504Y44759620D01*
X6825266Y44807239D01*
X6730028Y44902477D01*
X6682409Y45092953D01*
X6682409Y45426286D01*
X6730028Y45616762D01*
X6825266Y45712000D01*
X6920504Y45759620D01*
X8539552Y44759620D02*
X8539552Y45759620D01*
X9015742Y45426286D02*
X9015742Y44759620D01*
X9015742Y45331048D02*
X9063361Y45378667D01*
X9158600Y45426286D01*
X9301457Y45426286D01*
X9396695Y45378667D01*
X9444314Y45283429D01*
X9444314Y44759620D01*
X9920504Y45426286D02*
X9920504Y44426286D01*
X9920504Y45378667D02*
X10015742Y45426286D01*
X10206219Y45426286D01*
X10301457Y45378667D01*
X10349076Y45331048D01*
X10396695Y45235810D01*
X10396695Y44950096D01*
X10349076Y44854858D01*
X10301457Y44807239D01*
X10206219Y44759620D01*
X10015742Y44759620D01*
X9920504Y44807239D01*
X11253838Y45426286D02*
X11253838Y44759620D01*
X10825266Y45426286D02*
X10825266Y44902477D01*
X10872885Y44807239D01*
X10968123Y44759620D01*
X11110980Y44759620D01*
X11206219Y44807239D01*
X11253838Y44854858D01*
X11587171Y45426286D02*
X11968123Y45426286D01*
X11730028Y45759620D02*
X11730028Y44902477D01*
X11777647Y44807239D01*
X11872885Y44759620D01*
X11968123Y44759620D01*
X12920504Y45426286D02*
X13301457Y45426286D01*
X13063361Y44759620D02*
X13063361Y45616762D01*
X13110980Y45712000D01*
X13206219Y45759620D01*
X13301457Y45759620D01*
X13777647Y44759620D02*
X13682409Y44807239D01*
X13634790Y44854858D01*
X13587171Y44950096D01*
X13587171Y45235810D01*
X13634790Y45331048D01*
X13682409Y45378667D01*
X13777647Y45426286D01*
X13920504Y45426286D01*
X14015742Y45378667D01*
X14063361Y45331048D01*
X14110980Y45235810D01*
X14110980Y44950096D01*
X14063361Y44854858D01*
X14015742Y44807239D01*
X13920504Y44759620D01*
X13777647Y44759620D01*
X14539552Y44759620D02*
X14539552Y45426286D01*
X14539552Y45235810D02*
X14587171Y45331048D01*
X14634790Y45378667D01*
X14730028Y45426286D01*
X14825266Y45426286D01*
X16491933Y44759620D02*
X16158600Y45235810D01*
X15920504Y44759620D02*
X15920504Y45759620D01*
X16301457Y45759620D01*
X16396695Y45712000D01*
X16444314Y45664381D01*
X16491933Y45569143D01*
X16491933Y45426286D01*
X16444314Y45331048D01*
X16396695Y45283429D01*
X16301457Y45235810D01*
X15920504Y45235810D01*
X17349076Y44759620D02*
X17349076Y45283429D01*
X17301457Y45378667D01*
X17206219Y45426286D01*
X17015742Y45426286D01*
X16920504Y45378667D01*
X17349076Y44807239D02*
X17253838Y44759620D01*
X17015742Y44759620D01*
X16920504Y44807239D01*
X16872885Y44902477D01*
X16872885Y44997715D01*
X16920504Y45092953D01*
X17015742Y45140572D01*
X17253838Y45140572D01*
X17349076Y45188191D01*
X17777647Y44807239D02*
X17872885Y44759620D01*
X18063361Y44759620D01*
X18158600Y44807239D01*
X18206219Y44902477D01*
X18206219Y44950096D01*
X18158600Y45045334D01*
X18063361Y45092953D01*
X17920504Y45092953D01*
X17825266Y45140572D01*
X17777647Y45235810D01*
X17777647Y45283429D01*
X17825266Y45378667D01*
X17920504Y45426286D01*
X18063361Y45426286D01*
X18158600Y45378667D01*
X18634790Y45426286D02*
X18634790Y44426286D01*
X18634790Y45378667D02*
X18730028Y45426286D01*
X18920504Y45426286D01*
X19015742Y45378667D01*
X19063361Y45331048D01*
X19110980Y45235810D01*
X19110980Y44950096D01*
X19063361Y44854858D01*
X19015742Y44807239D01*
X18920504Y44759620D01*
X18730028Y44759620D01*
X18634790Y44807239D01*
X24301466Y24342000D02*
X23601466Y24342000D01*
X23934800Y24342000D02*
X23934800Y24742000D01*
X24301466Y24742000D02*
X23601466Y24742000D01*
X24301466Y25075334D02*
X23601466Y25075334D01*
X24301466Y25475334D02*
X23901466Y25175334D01*
X23601466Y25475334D02*
X24001466Y25075334D01*
X23601466Y21294000D02*
X24168133Y21294000D01*
X24234800Y21327334D01*
X24268133Y21360667D01*
X24301466Y21427334D01*
X24301466Y21560667D01*
X24268133Y21627334D01*
X24234800Y21660667D01*
X24168133Y21694000D01*
X23601466Y21694000D01*
X24301466Y22027334D02*
X23601466Y22027334D01*
X23601466Y22294000D01*
X23634800Y22360667D01*
X23668133Y22394000D01*
X23734800Y22427334D01*
X23834800Y22427334D01*
X23901466Y22394000D01*
X23934800Y22360667D01*
X23968133Y22294000D01*
X23968133Y22027334D01*
X24268133Y6137334D02*
X24301466Y6237334D01*
X24301466Y6404000D01*
X24268133Y6470667D01*
X24234800Y6504000D01*
X24168133Y6537334D01*
X24101466Y6537334D01*
X24034800Y6504000D01*
X24001466Y6470667D01*
X23968133Y6404000D01*
X23934800Y6270667D01*
X23901466Y6204000D01*
X23868133Y6170667D01*
X23801466Y6137334D01*
X23734800Y6137334D01*
X23668133Y6170667D01*
X23634800Y6204000D01*
X23601466Y6270667D01*
X23601466Y6437334D01*
X23634800Y6537334D01*
X23601466Y6737334D02*
X23601466Y7137334D01*
X24301466Y6937334D02*
X23601466Y6937334D01*
X29589466Y11531600D02*
X29256133Y11531600D01*
X29956133Y11764934D02*
X29589466Y11531600D01*
X29956133Y11298267D01*
X24268133Y3580667D02*
X24301466Y3680667D01*
X24301466Y3847334D01*
X24268133Y3914000D01*
X24234800Y3947334D01*
X24168133Y3980667D01*
X24101466Y3980667D01*
X24034800Y3947334D01*
X24001466Y3914000D01*
X23968133Y3847334D01*
X23934800Y3714000D01*
X23901466Y3647334D01*
X23868133Y3614000D01*
X23801466Y3580667D01*
X23734800Y3580667D01*
X23668133Y3614000D01*
X23634800Y3647334D01*
X23601466Y3714000D01*
X23601466Y3880667D01*
X23634800Y3980667D01*
X24301466Y4614000D02*
X24301466Y4280667D01*
X23601466Y4280667D01*
X24301466Y39582000D02*
X23601466Y39582000D01*
X23601466Y39748667D01*
X23634800Y39848667D01*
X23701466Y39915334D01*
X23768133Y39948667D01*
X23901466Y39982000D01*
X24001466Y39982000D01*
X24134800Y39948667D01*
X24201466Y39915334D01*
X24268133Y39848667D01*
X24301466Y39748667D01*
X24301466Y39582000D01*
X24301466Y40282000D02*
X23601466Y40282000D01*
X24301466Y40682000D01*
X23601466Y40682000D01*
X29456133Y27649467D02*
X29456133Y27316134D01*
X29256133Y27716134D02*
X29956133Y27482800D01*
X29256133Y27249467D01*
X29956133Y42956134D02*
X29256133Y42489467D01*
X29956133Y42489467D02*
X29256133Y42956134D01*
X24301466Y35268667D02*
X23968133Y35035334D01*
X24301466Y34868667D02*
X23601466Y34868667D01*
X23601466Y35135334D01*
X23634800Y35202000D01*
X23668133Y35235334D01*
X23734800Y35268667D01*
X23834800Y35268667D01*
X23901466Y35235334D01*
X23934800Y35202000D01*
X23968133Y35135334D01*
X23968133Y34868667D01*
X6788266Y8223296D02*
X6788266Y9023296D01*
X6788266Y8642343D02*
X7245409Y8642343D01*
X7245409Y8223296D02*
X7245409Y9023296D01*
X7626361Y8223296D02*
X7626361Y9023296D01*
X8083504Y8223296D02*
X7740647Y8680439D01*
X8083504Y9023296D02*
X7626361Y8566153D01*
X8540647Y9023296D02*
X8540647Y8832820D01*
X8350171Y8909010D02*
X8540647Y8832820D01*
X8731123Y8909010D01*
X8426361Y8680439D02*
X8540647Y8832820D01*
X8654933Y8680439D01*
X6864457Y17252991D02*
X6978742Y17214896D01*
X7169219Y17214896D01*
X7245409Y17252991D01*
X7283504Y17291086D01*
X7321600Y17367277D01*
X7321600Y17443467D01*
X7283504Y17519658D01*
X7245409Y17557753D01*
X7169219Y17595848D01*
X7016838Y17633943D01*
X6940647Y17672039D01*
X6902552Y17710134D01*
X6864457Y17786324D01*
X6864457Y17862515D01*
X6902552Y17938705D01*
X6940647Y17976800D01*
X7016838Y18014896D01*
X7207314Y18014896D01*
X7321600Y17976800D01*
X8045409Y17214896D02*
X7664457Y17214896D01*
X7664457Y18014896D01*
X8426361Y18014896D02*
X8426361Y17824420D01*
X8235885Y17900610D02*
X8426361Y17824420D01*
X8616838Y17900610D01*
X8312076Y17672039D02*
X8426361Y17824420D01*
X8540647Y17672039D01*
X15538571Y43326096D02*
X15271904Y43707048D01*
X15081428Y43326096D02*
X15081428Y44126096D01*
X15386190Y44126096D01*
X15462380Y44088000D01*
X15500476Y44049905D01*
X15538571Y43973715D01*
X15538571Y43859429D01*
X15500476Y43783239D01*
X15462380Y43745143D01*
X15386190Y43707048D01*
X15081428Y43707048D01*
X16186190Y43364191D02*
X16110000Y43326096D01*
X15957619Y43326096D01*
X15881428Y43364191D01*
X15843333Y43440381D01*
X15843333Y43745143D01*
X15881428Y43821334D01*
X15957619Y43859429D01*
X16110000Y43859429D01*
X16186190Y43821334D01*
X16224285Y43745143D01*
X16224285Y43668953D01*
X15843333Y43592762D01*
X16490952Y43859429D02*
X16681428Y43326096D01*
X16871904Y43859429D01*
X17176666Y43402286D02*
X17214761Y43364191D01*
X17176666Y43326096D01*
X17138571Y43364191D01*
X17176666Y43402286D01*
X17176666Y43326096D01*
X17976666Y43326096D02*
X17519523Y43326096D01*
X17748095Y43326096D02*
X17748095Y44126096D01*
X17671904Y44011810D01*
X17595714Y43935620D01*
X17519523Y43897524D01*
X29956133Y7001600D02*
X29956133Y6601600D01*
X29256133Y6801600D02*
X29956133Y6801600D01*
X29256133Y5968267D02*
X29589466Y6201600D01*
X29256133Y6368267D02*
X29956133Y6368267D01*
X29956133Y6101600D01*
X29922800Y6034934D01*
X29889466Y6001600D01*
X29822800Y5968267D01*
X29722800Y5968267D01*
X29656133Y6001600D01*
X29622800Y6034934D01*
X29589466Y6101600D01*
X29589466Y6368267D01*
X24301466Y37808667D02*
X24301466Y37475334D01*
X23601466Y37475334D01*
X29622800Y32512800D02*
X29589466Y32412800D01*
X29556133Y32379467D01*
X29489466Y32346134D01*
X29389466Y32346134D01*
X29322800Y32379467D01*
X29289466Y32412800D01*
X29256133Y32479467D01*
X29256133Y32746134D01*
X29956133Y32746134D01*
X29956133Y32512800D01*
X29922800Y32446134D01*
X29889466Y32412800D01*
X29822800Y32379467D01*
X29756133Y32379467D01*
X29689466Y32412800D01*
X29656133Y32446134D01*
X29622800Y32512800D01*
X29622800Y32746134D01*
X24268133Y29505334D02*
X24301466Y29605334D01*
X24301466Y29772000D01*
X24268133Y29838667D01*
X24234800Y29872000D01*
X24168133Y29905334D01*
X24101466Y29905334D01*
X24034800Y29872000D01*
X24001466Y29838667D01*
X23968133Y29772000D01*
X23934800Y29638667D01*
X23901466Y29572000D01*
X23868133Y29538667D01*
X23801466Y29505334D01*
X23734800Y29505334D01*
X23668133Y29538667D01*
X23634800Y29572000D01*
X23601466Y29638667D01*
X23601466Y29805334D01*
X23634800Y29905334D01*
X23601466Y30105334D02*
X23601466Y30505334D01*
X24301466Y30305334D02*
X23601466Y30305334D01*
X29956133Y22174934D02*
X29956133Y21774934D01*
X29256133Y21974934D02*
X29956133Y21974934D01*
X29256133Y21208267D02*
X29256133Y21541600D01*
X29956133Y21541600D01*
X17140833Y41544200D02*
X17074166Y41581820D01*
X16974166Y41581820D01*
X16874166Y41544200D01*
X16807500Y41468962D01*
X16774166Y41393724D01*
X16740833Y41243248D01*
X16740833Y41130391D01*
X16774166Y40979915D01*
X16807500Y40904677D01*
X16874166Y40829439D01*
X16974166Y40791820D01*
X17040833Y40791820D01*
X17140833Y40829439D01*
X17174166Y40867058D01*
X17174166Y41130391D01*
X17040833Y41130391D01*
X16774166Y39038020D02*
X16774166Y38398496D01*
X16807500Y38323258D01*
X16840833Y38285639D01*
X16907500Y38248020D01*
X17040833Y38248020D01*
X17107500Y38285639D01*
X17140833Y38323258D01*
X17174166Y38398496D01*
X17174166Y39038020D01*
X17507500Y38248020D02*
X17507500Y39038020D01*
X17774166Y39038020D01*
X17840833Y39000400D01*
X17874166Y38962781D01*
X17907500Y38887543D01*
X17907500Y38774686D01*
X17874166Y38699448D01*
X17840833Y38661829D01*
X17774166Y38624210D01*
X17507500Y38624210D01*
X16774166Y35704220D02*
X16774166Y36494220D01*
X16940833Y36494220D01*
X17040833Y36456600D01*
X17107500Y36381362D01*
X17140833Y36306124D01*
X17174166Y36155648D01*
X17174166Y36042791D01*
X17140833Y35892315D01*
X17107500Y35817077D01*
X17040833Y35741839D01*
X16940833Y35704220D01*
X16774166Y35704220D01*
X17474166Y35704220D02*
X17474166Y36494220D01*
X17874166Y35704220D01*
X17874166Y36494220D01*
X17107500Y33160420D02*
X16774166Y33160420D01*
X16774166Y33950420D01*
X17174166Y30616620D02*
X16940833Y30992810D01*
X16774166Y30616620D02*
X16774166Y31406620D01*
X17040833Y31406620D01*
X17107500Y31369000D01*
X17140833Y31331381D01*
X17174166Y31256143D01*
X17174166Y31143286D01*
X17140833Y31068048D01*
X17107500Y31030429D01*
X17040833Y30992810D01*
X16774166Y30992810D01*
X16740833Y28110439D02*
X16840833Y28072820D01*
X17007500Y28072820D01*
X17074166Y28110439D01*
X17107500Y28148058D01*
X17140833Y28223296D01*
X17140833Y28298534D01*
X17107500Y28373772D01*
X17074166Y28411391D01*
X17007500Y28449010D01*
X16874166Y28486629D01*
X16807500Y28524248D01*
X16774166Y28561867D01*
X16740833Y28637105D01*
X16740833Y28712343D01*
X16774166Y28787581D01*
X16807500Y28825200D01*
X16874166Y28862820D01*
X17040833Y28862820D01*
X17140833Y28825200D01*
X17340833Y28862820D02*
X17740833Y28862820D01*
X17540833Y28072820D02*
X17540833Y28862820D01*
X16740833Y25566639D02*
X16840833Y25529020D01*
X17007500Y25529020D01*
X17074166Y25566639D01*
X17107500Y25604258D01*
X17140833Y25679496D01*
X17140833Y25754734D01*
X17107500Y25829972D01*
X17074166Y25867591D01*
X17007500Y25905210D01*
X16874166Y25942829D01*
X16807500Y25980448D01*
X16774166Y26018067D01*
X16740833Y26093305D01*
X16740833Y26168543D01*
X16774166Y26243781D01*
X16807500Y26281400D01*
X16874166Y26319020D01*
X17040833Y26319020D01*
X17140833Y26281400D01*
X17774166Y25529020D02*
X17440833Y25529020D01*
X17440833Y26319020D01*
X16740833Y23210934D02*
X17074166Y23210934D01*
X16674166Y22985220D02*
X16907500Y23775220D01*
X17140833Y22985220D01*
X17007500Y20855229D02*
X17107500Y20817610D01*
X17140833Y20779991D01*
X17174166Y20704753D01*
X17174166Y20591896D01*
X17140833Y20516658D01*
X17107500Y20479039D01*
X17040833Y20441420D01*
X16774166Y20441420D01*
X16774166Y21231420D01*
X17007500Y21231420D01*
X17074166Y21193800D01*
X17107500Y21156181D01*
X17140833Y21080943D01*
X17140833Y21005705D01*
X17107500Y20930467D01*
X17074166Y20892848D01*
X17007500Y20855229D01*
X16774166Y20855229D01*
X16707500Y18687620D02*
X17174166Y17897620D01*
X17174166Y18687620D02*
X16707500Y17897620D01*
X16907500Y15730010D02*
X16907500Y15353820D01*
X16674166Y16143820D02*
X16907500Y15730010D01*
X17140833Y16143820D01*
X16674166Y13600020D02*
X17074166Y13600020D01*
X16874166Y12810020D02*
X16874166Y13600020D01*
X17640833Y12810020D02*
X17307500Y12810020D01*
X17307500Y13600020D01*
X16674166Y11056220D02*
X17074166Y11056220D01*
X16874166Y10266220D02*
X16874166Y11056220D01*
X17707500Y10266220D02*
X17474166Y10642410D01*
X17307500Y10266220D02*
X17307500Y11056220D01*
X17574166Y11056220D01*
X17640833Y11018600D01*
X17674166Y10980981D01*
X17707500Y10905743D01*
X17707500Y10792886D01*
X17674166Y10717648D01*
X17640833Y10680029D01*
X17574166Y10642410D01*
X17307500Y10642410D01*
X16774166Y7722420D02*
X16774166Y8512420D01*
X16774166Y8136229D02*
X17174166Y8136229D01*
X17174166Y7722420D02*
X17174166Y8512420D01*
X17507500Y7722420D02*
X17507500Y8512420D01*
X17907500Y7722420D02*
X17607500Y8173848D01*
X17907500Y8512420D02*
X17507500Y8060991D01*
X17140833Y5931000D02*
X17074166Y5968620D01*
X16974166Y5968620D01*
X16874166Y5931000D01*
X16807500Y5855762D01*
X16774166Y5780524D01*
X16740833Y5630048D01*
X16740833Y5517191D01*
X16774166Y5366715D01*
X16807500Y5291477D01*
X16874166Y5216239D01*
X16974166Y5178620D01*
X17040833Y5178620D01*
X17140833Y5216239D01*
X17174166Y5253858D01*
X17174166Y5517191D01*
X17040833Y5517191D01*
%TO.C,R13*%
X10801428Y7042096D02*
X10649047Y7042096D01*
X10572857Y7004000D01*
X10534761Y6965905D01*
X10458571Y6851620D01*
X10420476Y6699239D01*
X10420476Y6394477D01*
X10458571Y6318286D01*
X10496666Y6280191D01*
X10572857Y6242096D01*
X10725238Y6242096D01*
X10801428Y6280191D01*
X10839523Y6318286D01*
X10877619Y6394477D01*
X10877619Y6584953D01*
X10839523Y6661143D01*
X10801428Y6699239D01*
X10725238Y6737334D01*
X10572857Y6737334D01*
X10496666Y6699239D01*
X10458571Y6661143D01*
X10420476Y6584953D01*
X11220476Y6242096D02*
X11220476Y7042096D01*
X11677619Y6242096D02*
X11334761Y6699239D01*
X11677619Y7042096D02*
X11220476Y6584953D01*
X12134761Y6699239D02*
X12058571Y6737334D01*
X12020476Y6775429D01*
X11982380Y6851620D01*
X11982380Y6889715D01*
X12020476Y6965905D01*
X12058571Y7004000D01*
X12134761Y7042096D01*
X12287142Y7042096D01*
X12363333Y7004000D01*
X12401428Y6965905D01*
X12439523Y6889715D01*
X12439523Y6851620D01*
X12401428Y6775429D01*
X12363333Y6737334D01*
X12287142Y6699239D01*
X12134761Y6699239D01*
X12058571Y6661143D01*
X12020476Y6623048D01*
X11982380Y6546858D01*
X11982380Y6394477D01*
X12020476Y6318286D01*
X12058571Y6280191D01*
X12134761Y6242096D01*
X12287142Y6242096D01*
X12363333Y6280191D01*
X12401428Y6318286D01*
X12439523Y6394477D01*
X12439523Y6546858D01*
X12401428Y6623048D01*
X12363333Y6661143D01*
X12287142Y6699239D01*
D11*
%TO.C,J7*%
X30497200Y20863200D02*
X30497200Y2643200D01*
X33917200Y20863200D02*
X30497200Y20863200D01*
X31007200Y3153200D02*
X31757200Y3153200D01*
X31007200Y11753200D02*
X31007200Y20353200D01*
X30207200Y21153200D02*
X30207200Y20153200D01*
X31757200Y20353200D02*
X31757200Y20553200D01*
X31757200Y2953200D02*
X32557200Y2953200D01*
X33407200Y20353200D02*
X33407200Y11753200D01*
X33407200Y3153200D02*
X33407200Y11753200D01*
X31007200Y11753200D02*
X31007200Y3153200D01*
X32557200Y3153200D02*
X33407200Y3153200D01*
X32557200Y20553200D02*
X32557200Y20353200D01*
X30497200Y2643200D02*
X33917200Y2643200D01*
X32557200Y20353200D02*
X33407200Y20353200D01*
X30207200Y21153200D02*
X31207200Y21153200D01*
X31757200Y3153200D02*
X31757200Y2953200D01*
X33917200Y2643200D02*
X33917200Y20863200D01*
X32557200Y2953200D02*
X32557200Y3153200D01*
X31007200Y20353200D02*
X31757200Y20353200D01*
X31757200Y20553200D02*
X32557200Y20553200D01*
%TO.C,J6*%
X32557200Y25731600D02*
X32557200Y25931600D01*
X31757200Y44581600D02*
X32557200Y44581600D01*
X30497200Y44891600D02*
X30497200Y25421600D01*
X33917200Y44891600D02*
X30497200Y44891600D01*
X33407200Y44381600D02*
X33407200Y35156600D01*
X31007200Y35156600D02*
X31007200Y44381600D01*
X32557200Y44381600D02*
X33407200Y44381600D01*
X33917200Y25421600D02*
X33917200Y44891600D01*
X31007200Y35156600D02*
X31007200Y25931600D01*
X31757200Y44381600D02*
X31757200Y44581600D01*
X31757200Y25731600D02*
X32557200Y25731600D01*
X32557200Y25931600D02*
X33407200Y25931600D01*
X33407200Y25931600D02*
X33407200Y35156600D01*
X31007200Y25931600D02*
X31757200Y25931600D01*
X31007200Y44381600D02*
X31757200Y44381600D01*
X31757200Y25931600D02*
X31757200Y25731600D01*
X30497200Y25421600D02*
X33917200Y25421600D01*
X30207200Y45181600D02*
X31207200Y45181600D01*
X30207200Y45181600D02*
X30207200Y44181600D01*
X32557200Y44581600D02*
X32557200Y44381600D01*
%TO.C,R10*%
X11202936Y16432200D02*
X11657064Y16432200D01*
X11202936Y14962200D02*
X11657064Y14962200D01*
%TO.C,R12*%
X11202936Y11352200D02*
X11657064Y11352200D01*
X11202936Y9882200D02*
X11657064Y9882200D01*
%TO.C,J5*%
X18278800Y39878000D02*
X18278800Y4258000D01*
X18278800Y4258000D02*
X20938800Y4258000D01*
X18278800Y42478000D02*
X19608800Y42478000D01*
X20938800Y39878000D02*
X20938800Y4258000D01*
X18278800Y41148000D02*
X18278800Y42478000D01*
X18278800Y39878000D02*
X20938800Y39878000D01*
%TO.C,R13*%
X11202936Y7342200D02*
X11657064Y7342200D01*
X11202936Y8812200D02*
X11657064Y8812200D01*
%TO.C,R11*%
X11202936Y12422200D02*
X11657064Y12422200D01*
X11202936Y13892200D02*
X11657064Y13892200D01*
%TO.C,R4*%
X11202936Y31672200D02*
X11657064Y31672200D01*
X11202936Y30202200D02*
X11657064Y30202200D01*
%TO.C,R9*%
X11202936Y18972200D02*
X11657064Y18972200D01*
X11202936Y17502200D02*
X11657064Y17502200D01*
%TO.C,R5*%
X11202936Y29132200D02*
X11657064Y29132200D01*
X11202936Y27662200D02*
X11657064Y27662200D01*
%TO.C,JP3*%
X6391600Y15595600D02*
X6391600Y16925600D01*
X6391600Y14325600D02*
X9051600Y14325600D01*
X6391600Y14325600D02*
X6391600Y9185600D01*
X9051600Y14325600D02*
X9051600Y9185600D01*
X6391600Y9185600D02*
X9051600Y9185600D01*
X6391600Y16925600D02*
X7721600Y16925600D01*
%TO.C,R2*%
X11202936Y36752200D02*
X11657064Y36752200D01*
X11202936Y35282200D02*
X11657064Y35282200D01*
%TO.C,J1*%
X4406800Y33747200D02*
X5256800Y33747200D01*
X5256800Y42197200D02*
X5256800Y37972200D01*
X2056800Y42997200D02*
X2056800Y41997200D01*
X5766800Y33237200D02*
X5766800Y42707200D01*
X4406800Y42197200D02*
X5256800Y42197200D01*
X2056800Y42997200D02*
X3056800Y42997200D01*
X2856800Y37972200D02*
X2856800Y33747200D01*
X2856800Y42197200D02*
X3606800Y42197200D01*
X2346800Y33237200D02*
X5766800Y33237200D01*
X5256800Y33747200D02*
X5256800Y37972200D01*
X2856800Y37972200D02*
X2856800Y42197200D01*
X4406800Y42397200D02*
X4406800Y42197200D01*
X3606800Y42197200D02*
X3606800Y42397200D01*
X3606800Y33547200D02*
X4406800Y33547200D01*
X5766800Y42707200D02*
X2346800Y42707200D01*
X2856800Y33747200D02*
X3606800Y33747200D01*
X3606800Y33747200D02*
X3606800Y33547200D01*
X2346800Y42707200D02*
X2346800Y33237200D01*
X4406800Y33547200D02*
X4406800Y33747200D01*
X3606800Y42397200D02*
X4406800Y42397200D01*
%TO.C,R8*%
X11202936Y21512200D02*
X11657064Y21512200D01*
X11202936Y20042200D02*
X11657064Y20042200D01*
%TO.C,R3*%
X11202936Y32742200D02*
X11657064Y32742200D01*
X11202936Y34212200D02*
X11657064Y34212200D01*
%TO.C,J3*%
X2346800Y11573200D02*
X5766800Y11573200D01*
X3606800Y31983200D02*
X4406800Y31983200D01*
X5256800Y12083200D02*
X5256800Y21933200D01*
X2856800Y21933200D02*
X2856800Y12083200D01*
X3606800Y11883200D02*
X4406800Y11883200D01*
X2856800Y21933200D02*
X2856800Y31783200D01*
X3606800Y12083200D02*
X3606800Y11883200D01*
X2056800Y32583200D02*
X2056800Y31583200D01*
X2056800Y32583200D02*
X3056800Y32583200D01*
X4406800Y31983200D02*
X4406800Y31783200D01*
X2856800Y31783200D02*
X3606800Y31783200D01*
X2856800Y12083200D02*
X3606800Y12083200D01*
X5256800Y31783200D02*
X5256800Y21933200D01*
X4406800Y12083200D02*
X5256800Y12083200D01*
X4406800Y11883200D02*
X4406800Y12083200D01*
X3606800Y31783200D02*
X3606800Y31983200D01*
X5766800Y32293200D02*
X2346800Y32293200D01*
X4406800Y31783200D02*
X5256800Y31783200D01*
X2346800Y32293200D02*
X2346800Y11573200D01*
X5766800Y11573200D02*
X5766800Y32293200D01*
%TO.C,JP1*%
X6391600Y32359600D02*
X9051600Y32359600D01*
X9051600Y32359600D02*
X9051600Y27219600D01*
X6391600Y34959600D02*
X7721600Y34959600D01*
X6391600Y32359600D02*
X6391600Y27219600D01*
X6391600Y27219600D02*
X9051600Y27219600D01*
X6391600Y33629600D02*
X6391600Y34959600D01*
%TO.C,J4*%
X13859200Y42427200D02*
X15189200Y42427200D01*
X13859200Y41097200D02*
X13859200Y42427200D01*
X13859200Y4207200D02*
X16519200Y4207200D01*
X13859200Y39827200D02*
X13859200Y4207200D01*
X13859200Y39827200D02*
X16519200Y39827200D01*
X16519200Y39827200D02*
X16519200Y4207200D01*
%TO.C,JP2*%
X6391600Y23342600D02*
X6391600Y18202600D01*
X6391600Y18202600D02*
X9051600Y18202600D01*
X6391600Y25942600D02*
X7721600Y25942600D01*
X6391600Y24612600D02*
X6391600Y25942600D01*
X9051600Y23342600D02*
X9051600Y18202600D01*
X6391600Y23342600D02*
X9051600Y23342600D01*
%TO.C,J2*%
X5766800Y3733200D02*
X5766800Y10703200D01*
X5256800Y10193200D02*
X5256800Y7218200D01*
X4406800Y4243200D02*
X5256800Y4243200D01*
X2056800Y10993200D02*
X2056800Y9993200D01*
X2346800Y10703200D02*
X2346800Y3733200D01*
X3606800Y10393200D02*
X4406800Y10393200D01*
X3606800Y10193200D02*
X3606800Y10393200D01*
X2856800Y4243200D02*
X3606800Y4243200D01*
X3606800Y4043200D02*
X4406800Y4043200D01*
X2856800Y10193200D02*
X3606800Y10193200D01*
X5766800Y10703200D02*
X2346800Y10703200D01*
X2856800Y7218200D02*
X2856800Y4243200D01*
X3606800Y4243200D02*
X3606800Y4043200D01*
X2856800Y7218200D02*
X2856800Y10193200D01*
X4406800Y4043200D02*
X4406800Y4243200D01*
X4406800Y10393200D02*
X4406800Y10193200D01*
X2346800Y3733200D02*
X5766800Y3733200D01*
X4406800Y10193200D02*
X5256800Y10193200D01*
X2056800Y10993200D02*
X3056800Y10993200D01*
X5256800Y4243200D02*
X5256800Y7218200D01*
%TO.C,R7*%
X11202936Y24052200D02*
X11657064Y24052200D01*
X11202936Y22582200D02*
X11657064Y22582200D01*
%TO.C,R6*%
X11202936Y26592200D02*
X11657064Y26592200D01*
X11202936Y25122200D02*
X11657064Y25122200D01*
%TO.C,R1*%
X11202936Y37822200D02*
X11657064Y37822200D01*
X11202936Y39292200D02*
X11657064Y39292200D01*
%TD*%
%LPC*%
D12*
%TO.C,J9*%
X28043800Y1387000D03*
X25503800Y1387000D03*
X28043800Y3927000D03*
X25503800Y3927000D03*
X28043800Y6467000D03*
X25503800Y6467000D03*
X28043800Y9007000D03*
X25503800Y9007000D03*
X28043800Y11547000D03*
X25503800Y11547000D03*
X28043800Y14087000D03*
X25503800Y14087000D03*
X28043800Y16627000D03*
X25503800Y16627000D03*
X28043800Y19167000D03*
X25503800Y19167000D03*
X28043800Y21707000D03*
D13*
X25503800Y21707000D03*
%TD*%
D12*
%TO.C,J8*%
X28043800Y25009000D03*
X25503800Y25009000D03*
X28043800Y27549000D03*
X25503800Y27549000D03*
X28043800Y30089000D03*
X25503800Y30089000D03*
X28043800Y32629000D03*
X25503800Y32629000D03*
X28043800Y35169000D03*
X25503800Y35169000D03*
X28043800Y37709000D03*
X25503800Y37709000D03*
X28043800Y40249000D03*
X25503800Y40249000D03*
X28043800Y42789000D03*
X25503800Y42789000D03*
X28043800Y45329000D03*
D13*
X25503800Y45329000D03*
%TD*%
D14*
%TO.C,J7*%
X31757200Y4253200D03*
X31757200Y5503200D03*
X31757200Y6753200D03*
X31757200Y8003200D03*
X31757200Y9253200D03*
X31757200Y10503200D03*
X31757200Y11753200D03*
X31757200Y13003200D03*
X31757200Y14253200D03*
X31757200Y15503200D03*
X31757200Y16753200D03*
X31757200Y18003200D03*
D15*
X31757200Y19253200D03*
%TD*%
%TO.C,J6*%
X31757200Y43281600D03*
D14*
X31757200Y42031600D03*
X31757200Y40781600D03*
X31757200Y39531600D03*
X31757200Y38281600D03*
X31757200Y37031600D03*
X31757200Y35781600D03*
X31757200Y34531600D03*
X31757200Y33281600D03*
X31757200Y32031600D03*
X31757200Y30781600D03*
X31757200Y29531600D03*
X31757200Y28281600D03*
X31757200Y27031600D03*
%TD*%
D16*
%TO.C,R10*%
X10430000Y15697200D03*
X12430000Y15697200D03*
%TD*%
%TO.C,R12*%
X10430000Y10617200D03*
X12430000Y10617200D03*
%TD*%
D13*
%TO.C,J5*%
X19608800Y41148000D03*
D12*
X19608800Y38608000D03*
X19608800Y36068000D03*
X19608800Y33528000D03*
X19608800Y30988000D03*
X19608800Y28448000D03*
X19608800Y25908000D03*
X19608800Y23368000D03*
X19608800Y20828000D03*
X19608800Y18288000D03*
X19608800Y15748000D03*
X19608800Y13208000D03*
X19608800Y10668000D03*
X19608800Y8128000D03*
X19608800Y5588000D03*
%TD*%
D16*
%TO.C,R13*%
X10430000Y8077200D03*
X12430000Y8077200D03*
%TD*%
%TO.C,R11*%
X10430000Y13157200D03*
X12430000Y13157200D03*
%TD*%
%TO.C,R4*%
X10430000Y30937200D03*
X12430000Y30937200D03*
%TD*%
%TO.C,R9*%
X10430000Y18237200D03*
X12430000Y18237200D03*
%TD*%
%TO.C,R5*%
X10430000Y28397200D03*
X12430000Y28397200D03*
%TD*%
D13*
%TO.C,JP3*%
X7721600Y15595600D03*
D12*
X7721600Y13055600D03*
X7721600Y10515600D03*
%TD*%
D16*
%TO.C,R2*%
X10430000Y36017200D03*
X12430000Y36017200D03*
%TD*%
D15*
%TO.C,J1*%
X3606800Y41097200D03*
D14*
X3606800Y39847200D03*
X3606800Y38597200D03*
X3606800Y37347200D03*
X3606800Y36097200D03*
X3606800Y34847200D03*
%TD*%
D16*
%TO.C,R8*%
X10430000Y20777200D03*
X12430000Y20777200D03*
%TD*%
%TO.C,R3*%
X10430000Y33477200D03*
X12430000Y33477200D03*
%TD*%
D15*
%TO.C,J3*%
X3606800Y30683200D03*
D14*
X3606800Y29433200D03*
X3606800Y28183200D03*
X3606800Y26933200D03*
X3606800Y25683200D03*
X3606800Y24433200D03*
X3606800Y23183200D03*
X3606800Y21933200D03*
X3606800Y20683200D03*
X3606800Y19433200D03*
X3606800Y18183200D03*
X3606800Y16933200D03*
X3606800Y15683200D03*
X3606800Y14433200D03*
X3606800Y13183200D03*
%TD*%
D13*
%TO.C,JP1*%
X7721600Y33629600D03*
D12*
X7721600Y31089600D03*
X7721600Y28549600D03*
%TD*%
D13*
%TO.C,J4*%
X15189200Y41097200D03*
D12*
X15189200Y38557200D03*
X15189200Y36017200D03*
X15189200Y33477200D03*
X15189200Y30937200D03*
X15189200Y28397200D03*
X15189200Y25857200D03*
X15189200Y23317200D03*
X15189200Y20777200D03*
X15189200Y18237200D03*
X15189200Y15697200D03*
X15189200Y13157200D03*
X15189200Y10617200D03*
X15189200Y8077200D03*
X15189200Y5537200D03*
%TD*%
D13*
%TO.C,JP2*%
X7721600Y24612600D03*
D12*
X7721600Y22072600D03*
X7721600Y19532600D03*
%TD*%
D15*
%TO.C,J2*%
X3606800Y9093200D03*
D14*
X3606800Y7843200D03*
X3606800Y6593200D03*
X3606800Y5343200D03*
%TD*%
D16*
%TO.C,R7*%
X10430000Y23317200D03*
X12430000Y23317200D03*
%TD*%
%TO.C,R6*%
X10430000Y25857200D03*
X12430000Y25857200D03*
%TD*%
%TO.C,R1*%
X10430000Y38557200D03*
X12430000Y38557200D03*
%TD*%
M02*
