%TF.GenerationSoftware,KiCad,Pcbnew,7.0.1*%
%TF.CreationDate,2023-03-26T20:19:22+09:00*%
%TF.ProjectId,joystick_gpio_input,6a6f7973-7469-4636-9b5f-6770696f5f69,2*%
%TF.SameCoordinates,PX78649acPY7936aa0*%
%TF.FileFunction,Legend,Top*%
%TF.FilePolarity,Positive*%
%FSLAX46Y46*%
G04 Gerber Fmt 4.6, Leading zero omitted, Abs format (unit mm)*
G04 Created by KiCad (PCBNEW 7.0.1) date 2023-03-26 20:19:22*
%MOMM*%
%LPD*%
G01*
G04 APERTURE LIST*
G04 Aperture macros list*
%AMRoundRect*
0 Rectangle with rounded corners*
0 $1 Rounding radius*
0 $2 $3 $4 $5 $6 $7 $8 $9 X,Y pos of 4 corners*
0 Add a 4 corners polygon primitive as box body*
4,1,4,$2,$3,$4,$5,$6,$7,$8,$9,$2,$3,0*
0 Add four circle primitives for the rounded corners*
1,1,$1+$1,$2,$3*
1,1,$1+$1,$4,$5*
1,1,$1+$1,$6,$7*
1,1,$1+$1,$8,$9*
0 Add four rect primitives between the rounded corners*
20,1,$1+$1,$2,$3,$4,$5,0*
20,1,$1+$1,$4,$5,$6,$7,0*
20,1,$1+$1,$6,$7,$8,$9,0*
20,1,$1+$1,$8,$9,$2,$3,0*%
G04 Aperture macros list end*
%ADD10C,0.150000*%
%ADD11C,0.100000*%
%ADD12C,0.120000*%
%ADD13RoundRect,0.250000X-0.350000X-0.450000X0.350000X-0.450000X0.350000X0.450000X-0.350000X0.450000X0*%
%ADD14RoundRect,0.200000X-0.450000X0.200000X-0.450000X-0.200000X0.450000X-0.200000X0.450000X0.200000X0*%
%ADD15O,1.300000X0.800000*%
%ADD16R,1.700000X1.700000*%
%ADD17O,1.700000X1.700000*%
G04 APERTURE END LIST*
D10*
X36304213Y38200277D02*
X36342308Y38276467D01*
X36342308Y38276467D02*
X36342308Y38390753D01*
X36342308Y38390753D02*
X36304213Y38505039D01*
X36304213Y38505039D02*
X36228023Y38581229D01*
X36228023Y38581229D02*
X36151832Y38619324D01*
X36151832Y38619324D02*
X35999451Y38657420D01*
X35999451Y38657420D02*
X35885165Y38657420D01*
X35885165Y38657420D02*
X35732784Y38619324D01*
X35732784Y38619324D02*
X35656594Y38581229D01*
X35656594Y38581229D02*
X35580404Y38505039D01*
X35580404Y38505039D02*
X35542308Y38390753D01*
X35542308Y38390753D02*
X35542308Y38314562D01*
X35542308Y38314562D02*
X35580404Y38200277D01*
X35580404Y38200277D02*
X35618499Y38162181D01*
X35618499Y38162181D02*
X35885165Y38162181D01*
X35885165Y38162181D02*
X35885165Y38314562D01*
X30631004Y27605819D02*
X30669099Y27720105D01*
X30669099Y27720105D02*
X30669099Y27910581D01*
X30669099Y27910581D02*
X30631004Y27986772D01*
X30631004Y27986772D02*
X30592908Y28024867D01*
X30592908Y28024867D02*
X30516718Y28062962D01*
X30516718Y28062962D02*
X30440527Y28062962D01*
X30440527Y28062962D02*
X30364337Y28024867D01*
X30364337Y28024867D02*
X30326242Y27986772D01*
X30326242Y27986772D02*
X30288146Y27910581D01*
X30288146Y27910581D02*
X30250051Y27758200D01*
X30250051Y27758200D02*
X30211956Y27682010D01*
X30211956Y27682010D02*
X30173861Y27643915D01*
X30173861Y27643915D02*
X30097670Y27605819D01*
X30097670Y27605819D02*
X30021480Y27605819D01*
X30021480Y27605819D02*
X29945289Y27643915D01*
X29945289Y27643915D02*
X29907194Y27682010D01*
X29907194Y27682010D02*
X29869099Y27758200D01*
X29869099Y27758200D02*
X29869099Y27948677D01*
X29869099Y27948677D02*
X29907194Y28062962D01*
X30669099Y28786772D02*
X30669099Y28405820D01*
X30669099Y28405820D02*
X29869099Y28405820D01*
X35935956Y3971058D02*
X35897861Y3856772D01*
X35897861Y3856772D02*
X35859765Y3818677D01*
X35859765Y3818677D02*
X35783575Y3780581D01*
X35783575Y3780581D02*
X35669289Y3780581D01*
X35669289Y3780581D02*
X35593099Y3818677D01*
X35593099Y3818677D02*
X35555004Y3856772D01*
X35555004Y3856772D02*
X35516908Y3932962D01*
X35516908Y3932962D02*
X35516908Y4237724D01*
X35516908Y4237724D02*
X36316908Y4237724D01*
X36316908Y4237724D02*
X36316908Y3971058D01*
X36316908Y3971058D02*
X36278813Y3894867D01*
X36278813Y3894867D02*
X36240718Y3856772D01*
X36240718Y3856772D02*
X36164527Y3818677D01*
X36164527Y3818677D02*
X36088337Y3818677D01*
X36088337Y3818677D02*
X36012146Y3856772D01*
X36012146Y3856772D02*
X35974051Y3894867D01*
X35974051Y3894867D02*
X35935956Y3971058D01*
X35935956Y3971058D02*
X35935956Y4237724D01*
X2078927Y9930410D02*
X2002737Y9968505D01*
X2002737Y9968505D02*
X1888451Y9968505D01*
X1888451Y9968505D02*
X1774165Y9930410D01*
X1774165Y9930410D02*
X1697975Y9854220D01*
X1697975Y9854220D02*
X1659880Y9778029D01*
X1659880Y9778029D02*
X1621784Y9625648D01*
X1621784Y9625648D02*
X1621784Y9511362D01*
X1621784Y9511362D02*
X1659880Y9358981D01*
X1659880Y9358981D02*
X1697975Y9282791D01*
X1697975Y9282791D02*
X1774165Y9206600D01*
X1774165Y9206600D02*
X1888451Y9168505D01*
X1888451Y9168505D02*
X1964642Y9168505D01*
X1964642Y9168505D02*
X2078927Y9206600D01*
X2078927Y9206600D02*
X2117023Y9244696D01*
X2117023Y9244696D02*
X2117023Y9511362D01*
X2117023Y9511362D02*
X1964642Y9511362D01*
X1050355Y7910600D02*
X1164641Y7872505D01*
X1164641Y7872505D02*
X1355117Y7872505D01*
X1355117Y7872505D02*
X1431308Y7910600D01*
X1431308Y7910600D02*
X1469403Y7948696D01*
X1469403Y7948696D02*
X1507498Y8024886D01*
X1507498Y8024886D02*
X1507498Y8101077D01*
X1507498Y8101077D02*
X1469403Y8177267D01*
X1469403Y8177267D02*
X1431308Y8215362D01*
X1431308Y8215362D02*
X1355117Y8253458D01*
X1355117Y8253458D02*
X1202736Y8291553D01*
X1202736Y8291553D02*
X1126546Y8329648D01*
X1126546Y8329648D02*
X1088451Y8367743D01*
X1088451Y8367743D02*
X1050355Y8443934D01*
X1050355Y8443934D02*
X1050355Y8520124D01*
X1050355Y8520124D02*
X1088451Y8596315D01*
X1088451Y8596315D02*
X1126546Y8634410D01*
X1126546Y8634410D02*
X1202736Y8672505D01*
X1202736Y8672505D02*
X1393213Y8672505D01*
X1393213Y8672505D02*
X1507498Y8634410D01*
X1736070Y8672505D02*
X2193213Y8672505D01*
X1964641Y7872505D02*
X1964641Y8672505D01*
X1012260Y6614600D02*
X1126546Y6576505D01*
X1126546Y6576505D02*
X1317022Y6576505D01*
X1317022Y6576505D02*
X1393213Y6614600D01*
X1393213Y6614600D02*
X1431308Y6652696D01*
X1431308Y6652696D02*
X1469403Y6728886D01*
X1469403Y6728886D02*
X1469403Y6805077D01*
X1469403Y6805077D02*
X1431308Y6881267D01*
X1431308Y6881267D02*
X1393213Y6919362D01*
X1393213Y6919362D02*
X1317022Y6957458D01*
X1317022Y6957458D02*
X1164641Y6995553D01*
X1164641Y6995553D02*
X1088451Y7033648D01*
X1088451Y7033648D02*
X1050356Y7071743D01*
X1050356Y7071743D02*
X1012260Y7147934D01*
X1012260Y7147934D02*
X1012260Y7224124D01*
X1012260Y7224124D02*
X1050356Y7300315D01*
X1050356Y7300315D02*
X1088451Y7338410D01*
X1088451Y7338410D02*
X1164641Y7376505D01*
X1164641Y7376505D02*
X1355118Y7376505D01*
X1355118Y7376505D02*
X1469403Y7338410D01*
X2193213Y6576505D02*
X1812261Y6576505D01*
X1812261Y6576505D02*
X1812261Y7376505D01*
X2078927Y6042410D02*
X2002737Y6080505D01*
X2002737Y6080505D02*
X1888451Y6080505D01*
X1888451Y6080505D02*
X1774165Y6042410D01*
X1774165Y6042410D02*
X1697975Y5966220D01*
X1697975Y5966220D02*
X1659880Y5890029D01*
X1659880Y5890029D02*
X1621784Y5737648D01*
X1621784Y5737648D02*
X1621784Y5623362D01*
X1621784Y5623362D02*
X1659880Y5470981D01*
X1659880Y5470981D02*
X1697975Y5394791D01*
X1697975Y5394791D02*
X1774165Y5318600D01*
X1774165Y5318600D02*
X1888451Y5280505D01*
X1888451Y5280505D02*
X1964642Y5280505D01*
X1964642Y5280505D02*
X2078927Y5318600D01*
X2078927Y5318600D02*
X2117023Y5356696D01*
X2117023Y5356696D02*
X2117023Y5623362D01*
X2117023Y5623362D02*
X1964642Y5623362D01*
X30669099Y13712030D02*
X29869099Y13712030D01*
X29869099Y13712030D02*
X29869099Y13902506D01*
X29869099Y13902506D02*
X29907194Y14016792D01*
X29907194Y14016792D02*
X29983384Y14092982D01*
X29983384Y14092982D02*
X30059575Y14131077D01*
X30059575Y14131077D02*
X30211956Y14169173D01*
X30211956Y14169173D02*
X30326242Y14169173D01*
X30326242Y14169173D02*
X30478623Y14131077D01*
X30478623Y14131077D02*
X30554813Y14092982D01*
X30554813Y14092982D02*
X30631004Y14016792D01*
X30631004Y14016792D02*
X30669099Y13902506D01*
X30669099Y13902506D02*
X30669099Y13712030D01*
X30669099Y14512030D02*
X29869099Y14512030D01*
X29869099Y14512030D02*
X30669099Y14969173D01*
X30669099Y14969173D02*
X29869099Y14969173D01*
X37806318Y46252981D02*
X37234890Y46252981D01*
X37520604Y46252981D02*
X37520604Y47252981D01*
X37520604Y47252981D02*
X37425366Y47110124D01*
X37425366Y47110124D02*
X37330128Y47014886D01*
X37330128Y47014886D02*
X37234890Y46967267D01*
X38234890Y46252981D02*
X38234890Y47252981D01*
X38234890Y47252981D02*
X38615842Y47252981D01*
X38615842Y47252981D02*
X38711080Y47205362D01*
X38711080Y47205362D02*
X38758699Y47157743D01*
X38758699Y47157743D02*
X38806318Y47062505D01*
X38806318Y47062505D02*
X38806318Y46919648D01*
X38806318Y46919648D02*
X38758699Y46824410D01*
X38758699Y46824410D02*
X38711080Y46776791D01*
X38711080Y46776791D02*
X38615842Y46729172D01*
X38615842Y46729172D02*
X38234890Y46729172D01*
X30669099Y12048220D02*
X30669099Y11667268D01*
X30669099Y11667268D02*
X29869099Y11667268D01*
X11668546Y1979705D02*
X11401879Y2360658D01*
X11211403Y1979705D02*
X11211403Y2779705D01*
X11211403Y2779705D02*
X11516165Y2779705D01*
X11516165Y2779705D02*
X11592355Y2741610D01*
X11592355Y2741610D02*
X11630450Y2703515D01*
X11630450Y2703515D02*
X11668546Y2627324D01*
X11668546Y2627324D02*
X11668546Y2513039D01*
X11668546Y2513039D02*
X11630450Y2436848D01*
X11630450Y2436848D02*
X11592355Y2398753D01*
X11592355Y2398753D02*
X11516165Y2360658D01*
X11516165Y2360658D02*
X11211403Y2360658D01*
X12125688Y2779705D02*
X12125688Y2589229D01*
X11935212Y2665420D02*
X12125688Y2589229D01*
X12125688Y2589229D02*
X12316165Y2665420D01*
X12011403Y2436848D02*
X12125688Y2589229D01*
X12125688Y2589229D02*
X12239974Y2436848D01*
X13192355Y2817800D02*
X12506641Y1789229D01*
X13420926Y2017800D02*
X13535212Y1979705D01*
X13535212Y1979705D02*
X13725688Y1979705D01*
X13725688Y1979705D02*
X13801879Y2017800D01*
X13801879Y2017800D02*
X13839974Y2055896D01*
X13839974Y2055896D02*
X13878069Y2132086D01*
X13878069Y2132086D02*
X13878069Y2208277D01*
X13878069Y2208277D02*
X13839974Y2284467D01*
X13839974Y2284467D02*
X13801879Y2322562D01*
X13801879Y2322562D02*
X13725688Y2360658D01*
X13725688Y2360658D02*
X13573307Y2398753D01*
X13573307Y2398753D02*
X13497117Y2436848D01*
X13497117Y2436848D02*
X13459022Y2474943D01*
X13459022Y2474943D02*
X13420926Y2551134D01*
X13420926Y2551134D02*
X13420926Y2627324D01*
X13420926Y2627324D02*
X13459022Y2703515D01*
X13459022Y2703515D02*
X13497117Y2741610D01*
X13497117Y2741610D02*
X13573307Y2779705D01*
X13573307Y2779705D02*
X13763784Y2779705D01*
X13763784Y2779705D02*
X13878069Y2741610D01*
X14601879Y1979705D02*
X14220927Y1979705D01*
X14220927Y1979705D02*
X14220927Y2779705D01*
X14982831Y2779705D02*
X14982831Y2589229D01*
X14792355Y2665420D02*
X14982831Y2589229D01*
X14982831Y2589229D02*
X15173308Y2665420D01*
X14868546Y2436848D02*
X14982831Y2589229D01*
X14982831Y2589229D02*
X15097117Y2436848D01*
X16049498Y2817800D02*
X15363784Y1789229D01*
X16316165Y1979705D02*
X16316165Y2779705D01*
X16316165Y2398753D02*
X16773308Y2398753D01*
X16773308Y1979705D02*
X16773308Y2779705D01*
X17154260Y1979705D02*
X17154260Y2779705D01*
X17611403Y1979705D02*
X17268545Y2436848D01*
X17611403Y2779705D02*
X17154260Y2322562D01*
X18068545Y2779705D02*
X18068545Y2589229D01*
X17878069Y2665420D02*
X18068545Y2589229D01*
X18068545Y2589229D02*
X18259022Y2665420D01*
X17954260Y2436848D02*
X18068545Y2589229D01*
X18068545Y2589229D02*
X18182831Y2436848D01*
X19173308Y2055896D02*
X19211403Y2017800D01*
X19211403Y2017800D02*
X19173308Y1979705D01*
X19173308Y1979705D02*
X19135212Y2017800D01*
X19135212Y2017800D02*
X19173308Y2055896D01*
X19173308Y2055896D02*
X19173308Y1979705D01*
X19173308Y2474943D02*
X19211403Y2436848D01*
X19211403Y2436848D02*
X19173308Y2398753D01*
X19173308Y2398753D02*
X19135212Y2436848D01*
X19135212Y2436848D02*
X19173308Y2474943D01*
X19173308Y2474943D02*
X19173308Y2398753D01*
X9954260Y683705D02*
X9497117Y683705D01*
X9725689Y683705D02*
X9725689Y1483705D01*
X9725689Y1483705D02*
X9649498Y1369420D01*
X9649498Y1369420D02*
X9573308Y1293229D01*
X9573308Y1293229D02*
X9497117Y1255134D01*
X10297118Y988467D02*
X10906642Y988467D01*
X11249498Y1407515D02*
X11287594Y1445610D01*
X11287594Y1445610D02*
X11363784Y1483705D01*
X11363784Y1483705D02*
X11554260Y1483705D01*
X11554260Y1483705D02*
X11630451Y1445610D01*
X11630451Y1445610D02*
X11668546Y1407515D01*
X11668546Y1407515D02*
X11706641Y1331324D01*
X11706641Y1331324D02*
X11706641Y1255134D01*
X11706641Y1255134D02*
X11668546Y1140848D01*
X11668546Y1140848D02*
X11211403Y683705D01*
X11211403Y683705D02*
X11706641Y683705D01*
X12049499Y759896D02*
X12087594Y721800D01*
X12087594Y721800D02*
X12049499Y683705D01*
X12049499Y683705D02*
X12011403Y721800D01*
X12011403Y721800D02*
X12049499Y759896D01*
X12049499Y759896D02*
X12049499Y683705D01*
X12049499Y1178943D02*
X12087594Y1140848D01*
X12087594Y1140848D02*
X12049499Y1102753D01*
X12049499Y1102753D02*
X12011403Y1140848D01*
X12011403Y1140848D02*
X12049499Y1178943D01*
X12049499Y1178943D02*
X12049499Y1102753D01*
X12887594Y759896D02*
X12849498Y721800D01*
X12849498Y721800D02*
X12735213Y683705D01*
X12735213Y683705D02*
X12659022Y683705D01*
X12659022Y683705D02*
X12544736Y721800D01*
X12544736Y721800D02*
X12468546Y797991D01*
X12468546Y797991D02*
X12430451Y874181D01*
X12430451Y874181D02*
X12392355Y1026562D01*
X12392355Y1026562D02*
X12392355Y1140848D01*
X12392355Y1140848D02*
X12430451Y1293229D01*
X12430451Y1293229D02*
X12468546Y1369420D01*
X12468546Y1369420D02*
X12544736Y1445610D01*
X12544736Y1445610D02*
X12659022Y1483705D01*
X12659022Y1483705D02*
X12735213Y1483705D01*
X12735213Y1483705D02*
X12849498Y1445610D01*
X12849498Y1445610D02*
X12887594Y1407515D01*
X13382832Y1483705D02*
X13535213Y1483705D01*
X13535213Y1483705D02*
X13611403Y1445610D01*
X13611403Y1445610D02*
X13687594Y1369420D01*
X13687594Y1369420D02*
X13725689Y1217039D01*
X13725689Y1217039D02*
X13725689Y950372D01*
X13725689Y950372D02*
X13687594Y797991D01*
X13687594Y797991D02*
X13611403Y721800D01*
X13611403Y721800D02*
X13535213Y683705D01*
X13535213Y683705D02*
X13382832Y683705D01*
X13382832Y683705D02*
X13306641Y721800D01*
X13306641Y721800D02*
X13230451Y797991D01*
X13230451Y797991D02*
X13192355Y950372D01*
X13192355Y950372D02*
X13192355Y1217039D01*
X13192355Y1217039D02*
X13230451Y1369420D01*
X13230451Y1369420D02*
X13306641Y1445610D01*
X13306641Y1445610D02*
X13382832Y1483705D01*
X14068546Y683705D02*
X14068546Y1483705D01*
X14068546Y1483705D02*
X14525689Y683705D01*
X14525689Y683705D02*
X14525689Y1483705D01*
X14944736Y721800D02*
X14944736Y683705D01*
X14944736Y683705D02*
X14906641Y607515D01*
X14906641Y607515D02*
X14868545Y569420D01*
X15859021Y1407515D02*
X15897117Y1445610D01*
X15897117Y1445610D02*
X15973307Y1483705D01*
X15973307Y1483705D02*
X16163783Y1483705D01*
X16163783Y1483705D02*
X16239974Y1445610D01*
X16239974Y1445610D02*
X16278069Y1407515D01*
X16278069Y1407515D02*
X16316164Y1331324D01*
X16316164Y1331324D02*
X16316164Y1255134D01*
X16316164Y1255134D02*
X16278069Y1140848D01*
X16278069Y1140848D02*
X15820926Y683705D01*
X15820926Y683705D02*
X16316164Y683705D01*
X16659022Y988467D02*
X17268546Y988467D01*
X17573307Y1483705D02*
X18068545Y1483705D01*
X18068545Y1483705D02*
X17801879Y1178943D01*
X17801879Y1178943D02*
X17916164Y1178943D01*
X17916164Y1178943D02*
X17992355Y1140848D01*
X17992355Y1140848D02*
X18030450Y1102753D01*
X18030450Y1102753D02*
X18068545Y1026562D01*
X18068545Y1026562D02*
X18068545Y836086D01*
X18068545Y836086D02*
X18030450Y759896D01*
X18030450Y759896D02*
X17992355Y721800D01*
X17992355Y721800D02*
X17916164Y683705D01*
X17916164Y683705D02*
X17687593Y683705D01*
X17687593Y683705D02*
X17611402Y721800D01*
X17611402Y721800D02*
X17573307Y759896D01*
X18411403Y759896D02*
X18449498Y721800D01*
X18449498Y721800D02*
X18411403Y683705D01*
X18411403Y683705D02*
X18373307Y721800D01*
X18373307Y721800D02*
X18411403Y759896D01*
X18411403Y759896D02*
X18411403Y683705D01*
X18411403Y1178943D02*
X18449498Y1140848D01*
X18449498Y1140848D02*
X18411403Y1102753D01*
X18411403Y1102753D02*
X18373307Y1140848D01*
X18373307Y1140848D02*
X18411403Y1178943D01*
X18411403Y1178943D02*
X18411403Y1102753D01*
X19211402Y1445610D02*
X19135212Y1483705D01*
X19135212Y1483705D02*
X19020926Y1483705D01*
X19020926Y1483705D02*
X18906640Y1445610D01*
X18906640Y1445610D02*
X18830450Y1369420D01*
X18830450Y1369420D02*
X18792355Y1293229D01*
X18792355Y1293229D02*
X18754259Y1140848D01*
X18754259Y1140848D02*
X18754259Y1026562D01*
X18754259Y1026562D02*
X18792355Y874181D01*
X18792355Y874181D02*
X18830450Y797991D01*
X18830450Y797991D02*
X18906640Y721800D01*
X18906640Y721800D02*
X19020926Y683705D01*
X19020926Y683705D02*
X19097117Y683705D01*
X19097117Y683705D02*
X19211402Y721800D01*
X19211402Y721800D02*
X19249498Y759896D01*
X19249498Y759896D02*
X19249498Y1026562D01*
X19249498Y1026562D02*
X19097117Y1026562D01*
X19592355Y683705D02*
X19592355Y1483705D01*
X19592355Y1483705D02*
X20049498Y683705D01*
X20049498Y683705D02*
X20049498Y1483705D01*
X20430450Y683705D02*
X20430450Y1483705D01*
X20430450Y1483705D02*
X20620926Y1483705D01*
X20620926Y1483705D02*
X20735212Y1445610D01*
X20735212Y1445610D02*
X20811402Y1369420D01*
X20811402Y1369420D02*
X20849497Y1293229D01*
X20849497Y1293229D02*
X20887593Y1140848D01*
X20887593Y1140848D02*
X20887593Y1026562D01*
X20887593Y1026562D02*
X20849497Y874181D01*
X20849497Y874181D02*
X20811402Y797991D01*
X20811402Y797991D02*
X20735212Y721800D01*
X20735212Y721800D02*
X20620926Y683705D01*
X20620926Y683705D02*
X20430450Y683705D01*
X36316908Y46541381D02*
X36316908Y46084238D01*
X35516908Y46312810D02*
X36316908Y46312810D01*
X35516908Y45436619D02*
X35516908Y45817571D01*
X35516908Y45817571D02*
X36316908Y45817571D01*
X29881794Y43724724D02*
X29843699Y43648534D01*
X29843699Y43648534D02*
X29843699Y43534248D01*
X29843699Y43534248D02*
X29881794Y43419962D01*
X29881794Y43419962D02*
X29957984Y43343772D01*
X29957984Y43343772D02*
X30034175Y43305677D01*
X30034175Y43305677D02*
X30186556Y43267581D01*
X30186556Y43267581D02*
X30300842Y43267581D01*
X30300842Y43267581D02*
X30453223Y43305677D01*
X30453223Y43305677D02*
X30529413Y43343772D01*
X30529413Y43343772D02*
X30605604Y43419962D01*
X30605604Y43419962D02*
X30643699Y43534248D01*
X30643699Y43534248D02*
X30643699Y43610439D01*
X30643699Y43610439D02*
X30605604Y43724724D01*
X30605604Y43724724D02*
X30567508Y43762820D01*
X30567508Y43762820D02*
X30300842Y43762820D01*
X30300842Y43762820D02*
X30300842Y43610439D01*
X2088727Y31828810D02*
X2012537Y31866905D01*
X2012537Y31866905D02*
X1898251Y31866905D01*
X1898251Y31866905D02*
X1783965Y31828810D01*
X1783965Y31828810D02*
X1707775Y31752620D01*
X1707775Y31752620D02*
X1669680Y31676429D01*
X1669680Y31676429D02*
X1631584Y31524048D01*
X1631584Y31524048D02*
X1631584Y31409762D01*
X1631584Y31409762D02*
X1669680Y31257381D01*
X1669680Y31257381D02*
X1707775Y31181191D01*
X1707775Y31181191D02*
X1783965Y31105000D01*
X1783965Y31105000D02*
X1898251Y31066905D01*
X1898251Y31066905D02*
X1974442Y31066905D01*
X1974442Y31066905D02*
X2088727Y31105000D01*
X2088727Y31105000D02*
X2126823Y31143096D01*
X2126823Y31143096D02*
X2126823Y31409762D01*
X2126823Y31409762D02*
X1974442Y31409762D01*
X831585Y30570905D02*
X831585Y29923286D01*
X831585Y29923286D02*
X869680Y29847096D01*
X869680Y29847096D02*
X907775Y29809000D01*
X907775Y29809000D02*
X983966Y29770905D01*
X983966Y29770905D02*
X1136347Y29770905D01*
X1136347Y29770905D02*
X1212537Y29809000D01*
X1212537Y29809000D02*
X1250632Y29847096D01*
X1250632Y29847096D02*
X1288728Y29923286D01*
X1288728Y29923286D02*
X1288728Y30570905D01*
X1669680Y29770905D02*
X1669680Y30570905D01*
X1669680Y30570905D02*
X1974442Y30570905D01*
X1974442Y30570905D02*
X2050632Y30532810D01*
X2050632Y30532810D02*
X2088727Y30494715D01*
X2088727Y30494715D02*
X2126823Y30418524D01*
X2126823Y30418524D02*
X2126823Y30304239D01*
X2126823Y30304239D02*
X2088727Y30228048D01*
X2088727Y30228048D02*
X2050632Y30189953D01*
X2050632Y30189953D02*
X1974442Y30151858D01*
X1974442Y30151858D02*
X1669680Y30151858D01*
X831585Y28474905D02*
X831585Y29274905D01*
X831585Y29274905D02*
X1022061Y29274905D01*
X1022061Y29274905D02*
X1136347Y29236810D01*
X1136347Y29236810D02*
X1212537Y29160620D01*
X1212537Y29160620D02*
X1250632Y29084429D01*
X1250632Y29084429D02*
X1288728Y28932048D01*
X1288728Y28932048D02*
X1288728Y28817762D01*
X1288728Y28817762D02*
X1250632Y28665381D01*
X1250632Y28665381D02*
X1212537Y28589191D01*
X1212537Y28589191D02*
X1136347Y28513000D01*
X1136347Y28513000D02*
X1022061Y28474905D01*
X1022061Y28474905D02*
X831585Y28474905D01*
X1631585Y28474905D02*
X1631585Y29274905D01*
X1631585Y29274905D02*
X2088728Y28474905D01*
X2088728Y28474905D02*
X2088728Y29274905D01*
X2203013Y27178905D02*
X1822061Y27178905D01*
X1822061Y27178905D02*
X1822061Y27978905D01*
X1517299Y25882905D02*
X1250632Y26263858D01*
X1060156Y25882905D02*
X1060156Y26682905D01*
X1060156Y26682905D02*
X1364918Y26682905D01*
X1364918Y26682905D02*
X1441108Y26644810D01*
X1441108Y26644810D02*
X1479203Y26606715D01*
X1479203Y26606715D02*
X1517299Y26530524D01*
X1517299Y26530524D02*
X1517299Y26416239D01*
X1517299Y26416239D02*
X1479203Y26340048D01*
X1479203Y26340048D02*
X1441108Y26301953D01*
X1441108Y26301953D02*
X1364918Y26263858D01*
X1364918Y26263858D02*
X1060156Y26263858D01*
X1974441Y26682905D02*
X1974441Y26492429D01*
X1783965Y26568620D02*
X1974441Y26492429D01*
X1974441Y26492429D02*
X2164918Y26568620D01*
X1860156Y26340048D02*
X1974441Y26492429D01*
X1974441Y26492429D02*
X2088727Y26340048D01*
X1060155Y24625000D02*
X1174441Y24586905D01*
X1174441Y24586905D02*
X1364917Y24586905D01*
X1364917Y24586905D02*
X1441108Y24625000D01*
X1441108Y24625000D02*
X1479203Y24663096D01*
X1479203Y24663096D02*
X1517298Y24739286D01*
X1517298Y24739286D02*
X1517298Y24815477D01*
X1517298Y24815477D02*
X1479203Y24891667D01*
X1479203Y24891667D02*
X1441108Y24929762D01*
X1441108Y24929762D02*
X1364917Y24967858D01*
X1364917Y24967858D02*
X1212536Y25005953D01*
X1212536Y25005953D02*
X1136346Y25044048D01*
X1136346Y25044048D02*
X1098251Y25082143D01*
X1098251Y25082143D02*
X1060155Y25158334D01*
X1060155Y25158334D02*
X1060155Y25234524D01*
X1060155Y25234524D02*
X1098251Y25310715D01*
X1098251Y25310715D02*
X1136346Y25348810D01*
X1136346Y25348810D02*
X1212536Y25386905D01*
X1212536Y25386905D02*
X1403013Y25386905D01*
X1403013Y25386905D02*
X1517298Y25348810D01*
X1745870Y25386905D02*
X2203013Y25386905D01*
X1974441Y24586905D02*
X1974441Y25386905D01*
X412536Y23329000D02*
X526822Y23290905D01*
X526822Y23290905D02*
X717298Y23290905D01*
X717298Y23290905D02*
X793489Y23329000D01*
X793489Y23329000D02*
X831584Y23367096D01*
X831584Y23367096D02*
X869679Y23443286D01*
X869679Y23443286D02*
X869679Y23519477D01*
X869679Y23519477D02*
X831584Y23595667D01*
X831584Y23595667D02*
X793489Y23633762D01*
X793489Y23633762D02*
X717298Y23671858D01*
X717298Y23671858D02*
X564917Y23709953D01*
X564917Y23709953D02*
X488727Y23748048D01*
X488727Y23748048D02*
X450632Y23786143D01*
X450632Y23786143D02*
X412536Y23862334D01*
X412536Y23862334D02*
X412536Y23938524D01*
X412536Y23938524D02*
X450632Y24014715D01*
X450632Y24014715D02*
X488727Y24052810D01*
X488727Y24052810D02*
X564917Y24090905D01*
X564917Y24090905D02*
X755394Y24090905D01*
X755394Y24090905D02*
X869679Y24052810D01*
X1593489Y23290905D02*
X1212537Y23290905D01*
X1212537Y23290905D02*
X1212537Y24090905D01*
X1974441Y24090905D02*
X1974441Y23900429D01*
X1783965Y23976620D02*
X1974441Y23900429D01*
X1974441Y23900429D02*
X2164918Y23976620D01*
X1860156Y23748048D02*
X1974441Y23900429D01*
X1974441Y23900429D02*
X2088727Y23748048D01*
X1745870Y22223477D02*
X2126823Y22223477D01*
X1669680Y21994905D02*
X1936347Y22794905D01*
X1936347Y22794905D02*
X2203013Y21994905D01*
X1936346Y21117953D02*
X2050632Y21079858D01*
X2050632Y21079858D02*
X2088727Y21041762D01*
X2088727Y21041762D02*
X2126823Y20965572D01*
X2126823Y20965572D02*
X2126823Y20851286D01*
X2126823Y20851286D02*
X2088727Y20775096D01*
X2088727Y20775096D02*
X2050632Y20737000D01*
X2050632Y20737000D02*
X1974442Y20698905D01*
X1974442Y20698905D02*
X1669680Y20698905D01*
X1669680Y20698905D02*
X1669680Y21498905D01*
X1669680Y21498905D02*
X1936346Y21498905D01*
X1936346Y21498905D02*
X2012537Y21460810D01*
X2012537Y21460810D02*
X2050632Y21422715D01*
X2050632Y21422715D02*
X2088727Y21346524D01*
X2088727Y21346524D02*
X2088727Y21270334D01*
X2088727Y21270334D02*
X2050632Y21194143D01*
X2050632Y21194143D02*
X2012537Y21156048D01*
X2012537Y21156048D02*
X1936346Y21117953D01*
X1936346Y21117953D02*
X1669680Y21117953D01*
X1631584Y20202905D02*
X2164918Y19402905D01*
X2164918Y20202905D02*
X1631584Y19402905D01*
X1936347Y18487858D02*
X1936347Y18106905D01*
X1669680Y18906905D02*
X1936347Y18487858D01*
X1936347Y18487858D02*
X2203013Y18906905D01*
X1098251Y17610905D02*
X1555394Y17610905D01*
X1326822Y16810905D02*
X1326822Y17610905D01*
X2203013Y16810905D02*
X1822061Y16810905D01*
X1822061Y16810905D02*
X1822061Y17610905D01*
X945870Y16314905D02*
X1403013Y16314905D01*
X1174441Y15514905D02*
X1174441Y16314905D01*
X2126823Y15514905D02*
X1860156Y15895858D01*
X1669680Y15514905D02*
X1669680Y16314905D01*
X1669680Y16314905D02*
X1974442Y16314905D01*
X1974442Y16314905D02*
X2050632Y16276810D01*
X2050632Y16276810D02*
X2088727Y16238715D01*
X2088727Y16238715D02*
X2126823Y16162524D01*
X2126823Y16162524D02*
X2126823Y16048239D01*
X2126823Y16048239D02*
X2088727Y15972048D01*
X2088727Y15972048D02*
X2050632Y15933953D01*
X2050632Y15933953D02*
X1974442Y15895858D01*
X1974442Y15895858D02*
X1669680Y15895858D01*
X222061Y14218905D02*
X222061Y15018905D01*
X222061Y14637953D02*
X679204Y14637953D01*
X679204Y14218905D02*
X679204Y15018905D01*
X1060156Y14218905D02*
X1060156Y15018905D01*
X1517299Y14218905D02*
X1174441Y14676048D01*
X1517299Y15018905D02*
X1060156Y14561762D01*
X1974441Y15018905D02*
X1974441Y14828429D01*
X1783965Y14904620D02*
X1974441Y14828429D01*
X1974441Y14828429D02*
X2164918Y14904620D01*
X1860156Y14676048D02*
X1974441Y14828429D01*
X1974441Y14828429D02*
X2088727Y14676048D01*
X2088727Y13684810D02*
X2012537Y13722905D01*
X2012537Y13722905D02*
X1898251Y13722905D01*
X1898251Y13722905D02*
X1783965Y13684810D01*
X1783965Y13684810D02*
X1707775Y13608620D01*
X1707775Y13608620D02*
X1669680Y13532429D01*
X1669680Y13532429D02*
X1631584Y13380048D01*
X1631584Y13380048D02*
X1631584Y13265762D01*
X1631584Y13265762D02*
X1669680Y13113381D01*
X1669680Y13113381D02*
X1707775Y13037191D01*
X1707775Y13037191D02*
X1783965Y12961000D01*
X1783965Y12961000D02*
X1898251Y12922905D01*
X1898251Y12922905D02*
X1974442Y12922905D01*
X1974442Y12922905D02*
X2088727Y12961000D01*
X2088727Y12961000D02*
X2126823Y12999096D01*
X2126823Y12999096D02*
X2126823Y13265762D01*
X2126823Y13265762D02*
X1974442Y13265762D01*
X2053527Y41960410D02*
X1977337Y41998505D01*
X1977337Y41998505D02*
X1863051Y41998505D01*
X1863051Y41998505D02*
X1748765Y41960410D01*
X1748765Y41960410D02*
X1672575Y41884220D01*
X1672575Y41884220D02*
X1634480Y41808029D01*
X1634480Y41808029D02*
X1596384Y41655648D01*
X1596384Y41655648D02*
X1596384Y41541362D01*
X1596384Y41541362D02*
X1634480Y41388981D01*
X1634480Y41388981D02*
X1672575Y41312791D01*
X1672575Y41312791D02*
X1748765Y41236600D01*
X1748765Y41236600D02*
X1863051Y41198505D01*
X1863051Y41198505D02*
X1939242Y41198505D01*
X1939242Y41198505D02*
X2053527Y41236600D01*
X2053527Y41236600D02*
X2091623Y41274696D01*
X2091623Y41274696D02*
X2091623Y41541362D01*
X2091623Y41541362D02*
X1939242Y41541362D01*
X796385Y40702505D02*
X796385Y40054886D01*
X796385Y40054886D02*
X834480Y39978696D01*
X834480Y39978696D02*
X872575Y39940600D01*
X872575Y39940600D02*
X948766Y39902505D01*
X948766Y39902505D02*
X1101147Y39902505D01*
X1101147Y39902505D02*
X1177337Y39940600D01*
X1177337Y39940600D02*
X1215432Y39978696D01*
X1215432Y39978696D02*
X1253528Y40054886D01*
X1253528Y40054886D02*
X1253528Y40702505D01*
X1634480Y39902505D02*
X1634480Y40702505D01*
X1634480Y40702505D02*
X1939242Y40702505D01*
X1939242Y40702505D02*
X2015432Y40664410D01*
X2015432Y40664410D02*
X2053527Y40626315D01*
X2053527Y40626315D02*
X2091623Y40550124D01*
X2091623Y40550124D02*
X2091623Y40435839D01*
X2091623Y40435839D02*
X2053527Y40359648D01*
X2053527Y40359648D02*
X2015432Y40321553D01*
X2015432Y40321553D02*
X1939242Y40283458D01*
X1939242Y40283458D02*
X1634480Y40283458D01*
X796385Y38606505D02*
X796385Y39406505D01*
X796385Y39406505D02*
X986861Y39406505D01*
X986861Y39406505D02*
X1101147Y39368410D01*
X1101147Y39368410D02*
X1177337Y39292220D01*
X1177337Y39292220D02*
X1215432Y39216029D01*
X1215432Y39216029D02*
X1253528Y39063648D01*
X1253528Y39063648D02*
X1253528Y38949362D01*
X1253528Y38949362D02*
X1215432Y38796981D01*
X1215432Y38796981D02*
X1177337Y38720791D01*
X1177337Y38720791D02*
X1101147Y38644600D01*
X1101147Y38644600D02*
X986861Y38606505D01*
X986861Y38606505D02*
X796385Y38606505D01*
X1596385Y38606505D02*
X1596385Y39406505D01*
X1596385Y39406505D02*
X2053528Y38606505D01*
X2053528Y38606505D02*
X2053528Y39406505D01*
X2167813Y37310505D02*
X1786861Y37310505D01*
X1786861Y37310505D02*
X1786861Y38110505D01*
X2091623Y36014505D02*
X1824956Y36395458D01*
X1634480Y36014505D02*
X1634480Y36814505D01*
X1634480Y36814505D02*
X1939242Y36814505D01*
X1939242Y36814505D02*
X2015432Y36776410D01*
X2015432Y36776410D02*
X2053527Y36738315D01*
X2053527Y36738315D02*
X2091623Y36662124D01*
X2091623Y36662124D02*
X2091623Y36547839D01*
X2091623Y36547839D02*
X2053527Y36471648D01*
X2053527Y36471648D02*
X2015432Y36433553D01*
X2015432Y36433553D02*
X1939242Y36395458D01*
X1939242Y36395458D02*
X1634480Y36395458D01*
X2053527Y35480410D02*
X1977337Y35518505D01*
X1977337Y35518505D02*
X1863051Y35518505D01*
X1863051Y35518505D02*
X1748765Y35480410D01*
X1748765Y35480410D02*
X1672575Y35404220D01*
X1672575Y35404220D02*
X1634480Y35328029D01*
X1634480Y35328029D02*
X1596384Y35175648D01*
X1596384Y35175648D02*
X1596384Y35061362D01*
X1596384Y35061362D02*
X1634480Y34908981D01*
X1634480Y34908981D02*
X1672575Y34832791D01*
X1672575Y34832791D02*
X1748765Y34756600D01*
X1748765Y34756600D02*
X1863051Y34718505D01*
X1863051Y34718505D02*
X1939242Y34718505D01*
X1939242Y34718505D02*
X2053527Y34756600D01*
X2053527Y34756600D02*
X2091623Y34794696D01*
X2091623Y34794696D02*
X2091623Y35061362D01*
X2091623Y35061362D02*
X1939242Y35061362D01*
X30669099Y9508220D02*
X30288146Y9241553D01*
X30669099Y9051077D02*
X29869099Y9051077D01*
X29869099Y9051077D02*
X29869099Y9355839D01*
X29869099Y9355839D02*
X29907194Y9432029D01*
X29907194Y9432029D02*
X29945289Y9470124D01*
X29945289Y9470124D02*
X30021480Y9508220D01*
X30021480Y9508220D02*
X30135765Y9508220D01*
X30135765Y9508220D02*
X30211956Y9470124D01*
X30211956Y9470124D02*
X30250051Y9432029D01*
X30250051Y9432029D02*
X30288146Y9355839D01*
X30288146Y9355839D02*
X30288146Y9051077D01*
X35897861Y40909000D02*
X35516908Y40909000D01*
X36316908Y41175667D02*
X35897861Y40909000D01*
X35897861Y40909000D02*
X36316908Y40642334D01*
X29869099Y45309630D02*
X30516718Y45309630D01*
X30516718Y45309630D02*
X30592908Y45347725D01*
X30592908Y45347725D02*
X30631004Y45385820D01*
X30631004Y45385820D02*
X30669099Y45462011D01*
X30669099Y45462011D02*
X30669099Y45614392D01*
X30669099Y45614392D02*
X30631004Y45690582D01*
X30631004Y45690582D02*
X30592908Y45728677D01*
X30592908Y45728677D02*
X30516718Y45766773D01*
X30516718Y45766773D02*
X29869099Y45766773D01*
X30669099Y46147725D02*
X29869099Y46147725D01*
X29869099Y46147725D02*
X29869099Y46452487D01*
X29869099Y46452487D02*
X29907194Y46528677D01*
X29907194Y46528677D02*
X29945289Y46566772D01*
X29945289Y46566772D02*
X30021480Y46604868D01*
X30021480Y46604868D02*
X30135765Y46604868D01*
X30135765Y46604868D02*
X30211956Y46566772D01*
X30211956Y46566772D02*
X30250051Y46528677D01*
X30250051Y46528677D02*
X30288146Y46452487D01*
X30288146Y46452487D02*
X30288146Y46147725D01*
X36329613Y13994077D02*
X36367708Y14070267D01*
X36367708Y14070267D02*
X36367708Y14184553D01*
X36367708Y14184553D02*
X36329613Y14298839D01*
X36329613Y14298839D02*
X36253423Y14375029D01*
X36253423Y14375029D02*
X36177232Y14413124D01*
X36177232Y14413124D02*
X36024851Y14451220D01*
X36024851Y14451220D02*
X35910565Y14451220D01*
X35910565Y14451220D02*
X35758184Y14413124D01*
X35758184Y14413124D02*
X35681994Y14375029D01*
X35681994Y14375029D02*
X35605804Y14298839D01*
X35605804Y14298839D02*
X35567708Y14184553D01*
X35567708Y14184553D02*
X35567708Y14108362D01*
X35567708Y14108362D02*
X35605804Y13994077D01*
X35605804Y13994077D02*
X35643899Y13955981D01*
X35643899Y13955981D02*
X35910565Y13955981D01*
X35910565Y13955981D02*
X35910565Y14108362D01*
X36316908Y19534867D02*
X35516908Y19001533D01*
X36316908Y19001533D02*
X35516908Y19534867D01*
X35745480Y1678677D02*
X35745480Y1297724D01*
X35516908Y1754867D02*
X36316908Y1488200D01*
X36316908Y1488200D02*
X35516908Y1221534D01*
X36316908Y36457572D02*
X36316908Y36000429D01*
X35516908Y36229001D02*
X36316908Y36229001D01*
X35516908Y35276619D02*
X35897861Y35543286D01*
X35516908Y35733762D02*
X36316908Y35733762D01*
X36316908Y35733762D02*
X36316908Y35429000D01*
X36316908Y35429000D02*
X36278813Y35352810D01*
X36278813Y35352810D02*
X36240718Y35314715D01*
X36240718Y35314715D02*
X36164527Y35276619D01*
X36164527Y35276619D02*
X36050242Y35276619D01*
X36050242Y35276619D02*
X35974051Y35314715D01*
X35974051Y35314715D02*
X35935956Y35352810D01*
X35935956Y35352810D02*
X35897861Y35429000D01*
X35897861Y35429000D02*
X35897861Y35733762D01*
X37209490Y22824543D02*
X37257109Y22872162D01*
X37257109Y22872162D02*
X37352347Y22919781D01*
X37352347Y22919781D02*
X37590442Y22919781D01*
X37590442Y22919781D02*
X37685680Y22872162D01*
X37685680Y22872162D02*
X37733299Y22824543D01*
X37733299Y22824543D02*
X37780918Y22729305D01*
X37780918Y22729305D02*
X37780918Y22634067D01*
X37780918Y22634067D02*
X37733299Y22491210D01*
X37733299Y22491210D02*
X37161871Y21919781D01*
X37161871Y21919781D02*
X37780918Y21919781D01*
X38209490Y21919781D02*
X38209490Y22919781D01*
X38209490Y22919781D02*
X38590442Y22919781D01*
X38590442Y22919781D02*
X38685680Y22872162D01*
X38685680Y22872162D02*
X38733299Y22824543D01*
X38733299Y22824543D02*
X38780918Y22729305D01*
X38780918Y22729305D02*
X38780918Y22586448D01*
X38780918Y22586448D02*
X38733299Y22491210D01*
X38733299Y22491210D02*
X38685680Y22443591D01*
X38685680Y22443591D02*
X38590442Y22395972D01*
X38590442Y22395972D02*
X38209490Y22395972D01*
X7952661Y26909505D02*
X7685994Y27290458D01*
X7495518Y26909505D02*
X7495518Y27709505D01*
X7495518Y27709505D02*
X7800280Y27709505D01*
X7800280Y27709505D02*
X7876470Y27671410D01*
X7876470Y27671410D02*
X7914565Y27633315D01*
X7914565Y27633315D02*
X7952661Y27557124D01*
X7952661Y27557124D02*
X7952661Y27442839D01*
X7952661Y27442839D02*
X7914565Y27366648D01*
X7914565Y27366648D02*
X7876470Y27328553D01*
X7876470Y27328553D02*
X7800280Y27290458D01*
X7800280Y27290458D02*
X7495518Y27290458D01*
X8409803Y27709505D02*
X8409803Y27519029D01*
X8219327Y27595220D02*
X8409803Y27519029D01*
X8409803Y27519029D02*
X8600280Y27595220D01*
X8295518Y27366648D02*
X8409803Y27519029D01*
X8409803Y27519029D02*
X8524089Y27366648D01*
X6349250Y46717762D02*
X6254012Y46765381D01*
X6254012Y46765381D02*
X6111155Y46765381D01*
X6111155Y46765381D02*
X5968298Y46717762D01*
X5968298Y46717762D02*
X5873060Y46622524D01*
X5873060Y46622524D02*
X5825441Y46527286D01*
X5825441Y46527286D02*
X5777822Y46336810D01*
X5777822Y46336810D02*
X5777822Y46193953D01*
X5777822Y46193953D02*
X5825441Y46003477D01*
X5825441Y46003477D02*
X5873060Y45908239D01*
X5873060Y45908239D02*
X5968298Y45813000D01*
X5968298Y45813000D02*
X6111155Y45765381D01*
X6111155Y45765381D02*
X6206393Y45765381D01*
X6206393Y45765381D02*
X6349250Y45813000D01*
X6349250Y45813000D02*
X6396869Y45860620D01*
X6396869Y45860620D02*
X6396869Y46193953D01*
X6396869Y46193953D02*
X6206393Y46193953D01*
X6825441Y45765381D02*
X6825441Y46765381D01*
X6825441Y46765381D02*
X7206393Y46765381D01*
X7206393Y46765381D02*
X7301631Y46717762D01*
X7301631Y46717762D02*
X7349250Y46670143D01*
X7349250Y46670143D02*
X7396869Y46574905D01*
X7396869Y46574905D02*
X7396869Y46432048D01*
X7396869Y46432048D02*
X7349250Y46336810D01*
X7349250Y46336810D02*
X7301631Y46289191D01*
X7301631Y46289191D02*
X7206393Y46241572D01*
X7206393Y46241572D02*
X6825441Y46241572D01*
X7825441Y45765381D02*
X7825441Y46765381D01*
X8492107Y46765381D02*
X8682583Y46765381D01*
X8682583Y46765381D02*
X8777821Y46717762D01*
X8777821Y46717762D02*
X8873059Y46622524D01*
X8873059Y46622524D02*
X8920678Y46432048D01*
X8920678Y46432048D02*
X8920678Y46098715D01*
X8920678Y46098715D02*
X8873059Y45908239D01*
X8873059Y45908239D02*
X8777821Y45813000D01*
X8777821Y45813000D02*
X8682583Y45765381D01*
X8682583Y45765381D02*
X8492107Y45765381D01*
X8492107Y45765381D02*
X8396869Y45813000D01*
X8396869Y45813000D02*
X8301631Y45908239D01*
X8301631Y45908239D02*
X8254012Y46098715D01*
X8254012Y46098715D02*
X8254012Y46432048D01*
X8254012Y46432048D02*
X8301631Y46622524D01*
X8301631Y46622524D02*
X8396869Y46717762D01*
X8396869Y46717762D02*
X8492107Y46765381D01*
X10111155Y45765381D02*
X10111155Y46765381D01*
X10587345Y46432048D02*
X10587345Y45765381D01*
X10587345Y46336810D02*
X10634964Y46384429D01*
X10634964Y46384429D02*
X10730202Y46432048D01*
X10730202Y46432048D02*
X10873059Y46432048D01*
X10873059Y46432048D02*
X10968297Y46384429D01*
X10968297Y46384429D02*
X11015916Y46289191D01*
X11015916Y46289191D02*
X11015916Y45765381D01*
X11492107Y46432048D02*
X11492107Y45432048D01*
X11492107Y46384429D02*
X11587345Y46432048D01*
X11587345Y46432048D02*
X11777821Y46432048D01*
X11777821Y46432048D02*
X11873059Y46384429D01*
X11873059Y46384429D02*
X11920678Y46336810D01*
X11920678Y46336810D02*
X11968297Y46241572D01*
X11968297Y46241572D02*
X11968297Y45955858D01*
X11968297Y45955858D02*
X11920678Y45860620D01*
X11920678Y45860620D02*
X11873059Y45813000D01*
X11873059Y45813000D02*
X11777821Y45765381D01*
X11777821Y45765381D02*
X11587345Y45765381D01*
X11587345Y45765381D02*
X11492107Y45813000D01*
X12825440Y46432048D02*
X12825440Y45765381D01*
X12396869Y46432048D02*
X12396869Y45908239D01*
X12396869Y45908239D02*
X12444488Y45813000D01*
X12444488Y45813000D02*
X12539726Y45765381D01*
X12539726Y45765381D02*
X12682583Y45765381D01*
X12682583Y45765381D02*
X12777821Y45813000D01*
X12777821Y45813000D02*
X12825440Y45860620D01*
X13158774Y46432048D02*
X13539726Y46432048D01*
X13301631Y46765381D02*
X13301631Y45908239D01*
X13301631Y45908239D02*
X13349250Y45813000D01*
X13349250Y45813000D02*
X13444488Y45765381D01*
X13444488Y45765381D02*
X13539726Y45765381D01*
X14492108Y46432048D02*
X14873060Y46432048D01*
X14634965Y45765381D02*
X14634965Y46622524D01*
X14634965Y46622524D02*
X14682584Y46717762D01*
X14682584Y46717762D02*
X14777822Y46765381D01*
X14777822Y46765381D02*
X14873060Y46765381D01*
X15349251Y45765381D02*
X15254013Y45813000D01*
X15254013Y45813000D02*
X15206394Y45860620D01*
X15206394Y45860620D02*
X15158775Y45955858D01*
X15158775Y45955858D02*
X15158775Y46241572D01*
X15158775Y46241572D02*
X15206394Y46336810D01*
X15206394Y46336810D02*
X15254013Y46384429D01*
X15254013Y46384429D02*
X15349251Y46432048D01*
X15349251Y46432048D02*
X15492108Y46432048D01*
X15492108Y46432048D02*
X15587346Y46384429D01*
X15587346Y46384429D02*
X15634965Y46336810D01*
X15634965Y46336810D02*
X15682584Y46241572D01*
X15682584Y46241572D02*
X15682584Y45955858D01*
X15682584Y45955858D02*
X15634965Y45860620D01*
X15634965Y45860620D02*
X15587346Y45813000D01*
X15587346Y45813000D02*
X15492108Y45765381D01*
X15492108Y45765381D02*
X15349251Y45765381D01*
X16111156Y45765381D02*
X16111156Y46432048D01*
X16111156Y46241572D02*
X16158775Y46336810D01*
X16158775Y46336810D02*
X16206394Y46384429D01*
X16206394Y46384429D02*
X16301632Y46432048D01*
X16301632Y46432048D02*
X16396870Y46432048D01*
X18063537Y45765381D02*
X17730204Y46241572D01*
X17492109Y45765381D02*
X17492109Y46765381D01*
X17492109Y46765381D02*
X17873061Y46765381D01*
X17873061Y46765381D02*
X17968299Y46717762D01*
X17968299Y46717762D02*
X18015918Y46670143D01*
X18015918Y46670143D02*
X18063537Y46574905D01*
X18063537Y46574905D02*
X18063537Y46432048D01*
X18063537Y46432048D02*
X18015918Y46336810D01*
X18015918Y46336810D02*
X17968299Y46289191D01*
X17968299Y46289191D02*
X17873061Y46241572D01*
X17873061Y46241572D02*
X17492109Y46241572D01*
X18920680Y45765381D02*
X18920680Y46289191D01*
X18920680Y46289191D02*
X18873061Y46384429D01*
X18873061Y46384429D02*
X18777823Y46432048D01*
X18777823Y46432048D02*
X18587347Y46432048D01*
X18587347Y46432048D02*
X18492109Y46384429D01*
X18920680Y45813000D02*
X18825442Y45765381D01*
X18825442Y45765381D02*
X18587347Y45765381D01*
X18587347Y45765381D02*
X18492109Y45813000D01*
X18492109Y45813000D02*
X18444490Y45908239D01*
X18444490Y45908239D02*
X18444490Y46003477D01*
X18444490Y46003477D02*
X18492109Y46098715D01*
X18492109Y46098715D02*
X18587347Y46146334D01*
X18587347Y46146334D02*
X18825442Y46146334D01*
X18825442Y46146334D02*
X18920680Y46193953D01*
X19349252Y45813000D02*
X19444490Y45765381D01*
X19444490Y45765381D02*
X19634966Y45765381D01*
X19634966Y45765381D02*
X19730204Y45813000D01*
X19730204Y45813000D02*
X19777823Y45908239D01*
X19777823Y45908239D02*
X19777823Y45955858D01*
X19777823Y45955858D02*
X19730204Y46051096D01*
X19730204Y46051096D02*
X19634966Y46098715D01*
X19634966Y46098715D02*
X19492109Y46098715D01*
X19492109Y46098715D02*
X19396871Y46146334D01*
X19396871Y46146334D02*
X19349252Y46241572D01*
X19349252Y46241572D02*
X19349252Y46289191D01*
X19349252Y46289191D02*
X19396871Y46384429D01*
X19396871Y46384429D02*
X19492109Y46432048D01*
X19492109Y46432048D02*
X19634966Y46432048D01*
X19634966Y46432048D02*
X19730204Y46384429D01*
X20206395Y46432048D02*
X20206395Y45432048D01*
X20206395Y46384429D02*
X20301633Y46432048D01*
X20301633Y46432048D02*
X20492109Y46432048D01*
X20492109Y46432048D02*
X20587347Y46384429D01*
X20587347Y46384429D02*
X20634966Y46336810D01*
X20634966Y46336810D02*
X20682585Y46241572D01*
X20682585Y46241572D02*
X20682585Y45955858D01*
X20682585Y45955858D02*
X20634966Y45860620D01*
X20634966Y45860620D02*
X20587347Y45813000D01*
X20587347Y45813000D02*
X20492109Y45765381D01*
X20492109Y45765381D02*
X20301633Y45765381D01*
X20301633Y45765381D02*
X20206395Y45813000D01*
X30669099Y24989630D02*
X29869099Y24989630D01*
X30250051Y24989630D02*
X30250051Y25446773D01*
X30669099Y25446773D02*
X29869099Y25446773D01*
X30669099Y25827725D02*
X29869099Y25827725D01*
X30669099Y26284868D02*
X30211956Y25942010D01*
X29869099Y26284868D02*
X30326242Y25827725D01*
X29869099Y21437430D02*
X30516718Y21437430D01*
X30516718Y21437430D02*
X30592908Y21475525D01*
X30592908Y21475525D02*
X30631004Y21513620D01*
X30631004Y21513620D02*
X30669099Y21589811D01*
X30669099Y21589811D02*
X30669099Y21742192D01*
X30669099Y21742192D02*
X30631004Y21818382D01*
X30631004Y21818382D02*
X30592908Y21856477D01*
X30592908Y21856477D02*
X30516718Y21894573D01*
X30516718Y21894573D02*
X29869099Y21894573D01*
X30669099Y22275525D02*
X29869099Y22275525D01*
X29869099Y22275525D02*
X29869099Y22580287D01*
X29869099Y22580287D02*
X29907194Y22656477D01*
X29907194Y22656477D02*
X29945289Y22694572D01*
X29945289Y22694572D02*
X30021480Y22732668D01*
X30021480Y22732668D02*
X30135765Y22732668D01*
X30135765Y22732668D02*
X30211956Y22694572D01*
X30211956Y22694572D02*
X30250051Y22656477D01*
X30250051Y22656477D02*
X30288146Y22580287D01*
X30288146Y22580287D02*
X30288146Y22275525D01*
X29907194Y1708124D02*
X29869099Y1631934D01*
X29869099Y1631934D02*
X29869099Y1517648D01*
X29869099Y1517648D02*
X29907194Y1403362D01*
X29907194Y1403362D02*
X29983384Y1327172D01*
X29983384Y1327172D02*
X30059575Y1289077D01*
X30059575Y1289077D02*
X30211956Y1250981D01*
X30211956Y1250981D02*
X30326242Y1250981D01*
X30326242Y1250981D02*
X30478623Y1289077D01*
X30478623Y1289077D02*
X30554813Y1327172D01*
X30554813Y1327172D02*
X30631004Y1403362D01*
X30631004Y1403362D02*
X30669099Y1517648D01*
X30669099Y1517648D02*
X30669099Y1593839D01*
X30669099Y1593839D02*
X30631004Y1708124D01*
X30631004Y1708124D02*
X30592908Y1746220D01*
X30592908Y1746220D02*
X30326242Y1746220D01*
X30326242Y1746220D02*
X30326242Y1593839D01*
X30631004Y6187267D02*
X30669099Y6301553D01*
X30669099Y6301553D02*
X30669099Y6492029D01*
X30669099Y6492029D02*
X30631004Y6568220D01*
X30631004Y6568220D02*
X30592908Y6606315D01*
X30592908Y6606315D02*
X30516718Y6644410D01*
X30516718Y6644410D02*
X30440527Y6644410D01*
X30440527Y6644410D02*
X30364337Y6606315D01*
X30364337Y6606315D02*
X30326242Y6568220D01*
X30326242Y6568220D02*
X30288146Y6492029D01*
X30288146Y6492029D02*
X30250051Y6339648D01*
X30250051Y6339648D02*
X30211956Y6263458D01*
X30211956Y6263458D02*
X30173861Y6225363D01*
X30173861Y6225363D02*
X30097670Y6187267D01*
X30097670Y6187267D02*
X30021480Y6187267D01*
X30021480Y6187267D02*
X29945289Y6225363D01*
X29945289Y6225363D02*
X29907194Y6263458D01*
X29907194Y6263458D02*
X29869099Y6339648D01*
X29869099Y6339648D02*
X29869099Y6530125D01*
X29869099Y6530125D02*
X29907194Y6644410D01*
X29869099Y6872982D02*
X29869099Y7330125D01*
X30669099Y7101553D02*
X29869099Y7101553D01*
X35897861Y11648200D02*
X35516908Y11648200D01*
X36316908Y11914867D02*
X35897861Y11648200D01*
X35897861Y11648200D02*
X36316908Y11381534D01*
X30631004Y3628219D02*
X30669099Y3742505D01*
X30669099Y3742505D02*
X30669099Y3932981D01*
X30669099Y3932981D02*
X30631004Y4009172D01*
X30631004Y4009172D02*
X30592908Y4047267D01*
X30592908Y4047267D02*
X30516718Y4085362D01*
X30516718Y4085362D02*
X30440527Y4085362D01*
X30440527Y4085362D02*
X30364337Y4047267D01*
X30364337Y4047267D02*
X30326242Y4009172D01*
X30326242Y4009172D02*
X30288146Y3932981D01*
X30288146Y3932981D02*
X30250051Y3780600D01*
X30250051Y3780600D02*
X30211956Y3704410D01*
X30211956Y3704410D02*
X30173861Y3666315D01*
X30173861Y3666315D02*
X30097670Y3628219D01*
X30097670Y3628219D02*
X30021480Y3628219D01*
X30021480Y3628219D02*
X29945289Y3666315D01*
X29945289Y3666315D02*
X29907194Y3704410D01*
X29907194Y3704410D02*
X29869099Y3780600D01*
X29869099Y3780600D02*
X29869099Y3971077D01*
X29869099Y3971077D02*
X29907194Y4085362D01*
X30669099Y4809172D02*
X30669099Y4428220D01*
X30669099Y4428220D02*
X29869099Y4428220D01*
X30669099Y40229630D02*
X29869099Y40229630D01*
X29869099Y40229630D02*
X29869099Y40420106D01*
X29869099Y40420106D02*
X29907194Y40534392D01*
X29907194Y40534392D02*
X29983384Y40610582D01*
X29983384Y40610582D02*
X30059575Y40648677D01*
X30059575Y40648677D02*
X30211956Y40686773D01*
X30211956Y40686773D02*
X30326242Y40686773D01*
X30326242Y40686773D02*
X30478623Y40648677D01*
X30478623Y40648677D02*
X30554813Y40610582D01*
X30554813Y40610582D02*
X30631004Y40534392D01*
X30631004Y40534392D02*
X30669099Y40420106D01*
X30669099Y40420106D02*
X30669099Y40229630D01*
X30669099Y41029630D02*
X29869099Y41029630D01*
X29869099Y41029630D02*
X30669099Y41486773D01*
X30669099Y41486773D02*
X29869099Y41486773D01*
X35745480Y28399477D02*
X35745480Y28018524D01*
X35516908Y28475667D02*
X36316908Y28209000D01*
X36316908Y28209000D02*
X35516908Y27942334D01*
X36316908Y43715667D02*
X35516908Y43182333D01*
X36316908Y43182333D02*
X35516908Y43715667D01*
X30669099Y36025820D02*
X30288146Y35759153D01*
X30669099Y35568677D02*
X29869099Y35568677D01*
X29869099Y35568677D02*
X29869099Y35873439D01*
X29869099Y35873439D02*
X29907194Y35949629D01*
X29907194Y35949629D02*
X29945289Y35987724D01*
X29945289Y35987724D02*
X30021480Y36025820D01*
X30021480Y36025820D02*
X30135765Y36025820D01*
X30135765Y36025820D02*
X30211956Y35987724D01*
X30211956Y35987724D02*
X30250051Y35949629D01*
X30250051Y35949629D02*
X30288146Y35873439D01*
X30288146Y35873439D02*
X30288146Y35568677D01*
X7076471Y8342105D02*
X7076471Y9142105D01*
X7076471Y8761153D02*
X7533614Y8761153D01*
X7533614Y8342105D02*
X7533614Y9142105D01*
X7914566Y8342105D02*
X7914566Y9142105D01*
X8371709Y8342105D02*
X8028851Y8799248D01*
X8371709Y9142105D02*
X7914566Y8684962D01*
X8828851Y9142105D02*
X8828851Y8951629D01*
X8638375Y9027820D02*
X8828851Y8951629D01*
X8828851Y8951629D02*
X9019328Y9027820D01*
X8714566Y8799248D02*
X8828851Y8951629D01*
X8828851Y8951629D02*
X8943137Y8799248D01*
X7152660Y17645800D02*
X7266946Y17607705D01*
X7266946Y17607705D02*
X7457422Y17607705D01*
X7457422Y17607705D02*
X7533613Y17645800D01*
X7533613Y17645800D02*
X7571708Y17683896D01*
X7571708Y17683896D02*
X7609803Y17760086D01*
X7609803Y17760086D02*
X7609803Y17836277D01*
X7609803Y17836277D02*
X7571708Y17912467D01*
X7571708Y17912467D02*
X7533613Y17950562D01*
X7533613Y17950562D02*
X7457422Y17988658D01*
X7457422Y17988658D02*
X7305041Y18026753D01*
X7305041Y18026753D02*
X7228851Y18064848D01*
X7228851Y18064848D02*
X7190756Y18102943D01*
X7190756Y18102943D02*
X7152660Y18179134D01*
X7152660Y18179134D02*
X7152660Y18255324D01*
X7152660Y18255324D02*
X7190756Y18331515D01*
X7190756Y18331515D02*
X7228851Y18369610D01*
X7228851Y18369610D02*
X7305041Y18407705D01*
X7305041Y18407705D02*
X7495518Y18407705D01*
X7495518Y18407705D02*
X7609803Y18369610D01*
X8333613Y17607705D02*
X7952661Y17607705D01*
X7952661Y17607705D02*
X7952661Y18407705D01*
X8714565Y18407705D02*
X8714565Y18217229D01*
X8524089Y18293420D02*
X8714565Y18217229D01*
X8714565Y18217229D02*
X8905042Y18293420D01*
X8600280Y18064848D02*
X8714565Y18217229D01*
X8714565Y18217229D02*
X8828851Y18064848D01*
X36329613Y8914077D02*
X36367708Y8990267D01*
X36367708Y8990267D02*
X36367708Y9104553D01*
X36367708Y9104553D02*
X36329613Y9218839D01*
X36329613Y9218839D02*
X36253423Y9295029D01*
X36253423Y9295029D02*
X36177232Y9333124D01*
X36177232Y9333124D02*
X36024851Y9371220D01*
X36024851Y9371220D02*
X35910565Y9371220D01*
X35910565Y9371220D02*
X35758184Y9333124D01*
X35758184Y9333124D02*
X35681994Y9295029D01*
X35681994Y9295029D02*
X35605804Y9218839D01*
X35605804Y9218839D02*
X35567708Y9104553D01*
X35567708Y9104553D02*
X35567708Y9028362D01*
X35567708Y9028362D02*
X35605804Y8914077D01*
X35605804Y8914077D02*
X35643899Y8875981D01*
X35643899Y8875981D02*
X35910565Y8875981D01*
X35910565Y8875981D02*
X35910565Y9028362D01*
X36304213Y30605677D02*
X36342308Y30681867D01*
X36342308Y30681867D02*
X36342308Y30796153D01*
X36342308Y30796153D02*
X36304213Y30910439D01*
X36304213Y30910439D02*
X36228023Y30986629D01*
X36228023Y30986629D02*
X36151832Y31024724D01*
X36151832Y31024724D02*
X35999451Y31062820D01*
X35999451Y31062820D02*
X35885165Y31062820D01*
X35885165Y31062820D02*
X35732784Y31024724D01*
X35732784Y31024724D02*
X35656594Y30986629D01*
X35656594Y30986629D02*
X35580404Y30910439D01*
X35580404Y30910439D02*
X35542308Y30796153D01*
X35542308Y30796153D02*
X35542308Y30719962D01*
X35542308Y30719962D02*
X35580404Y30605677D01*
X35580404Y30605677D02*
X35618499Y30567581D01*
X35618499Y30567581D02*
X35885165Y30567581D01*
X35885165Y30567581D02*
X35885165Y30719962D01*
X19497776Y44079905D02*
X19231109Y44460858D01*
X19040633Y44079905D02*
X19040633Y44879905D01*
X19040633Y44879905D02*
X19345395Y44879905D01*
X19345395Y44879905D02*
X19421585Y44841810D01*
X19421585Y44841810D02*
X19459680Y44803715D01*
X19459680Y44803715D02*
X19497776Y44727524D01*
X19497776Y44727524D02*
X19497776Y44613239D01*
X19497776Y44613239D02*
X19459680Y44537048D01*
X19459680Y44537048D02*
X19421585Y44498953D01*
X19421585Y44498953D02*
X19345395Y44460858D01*
X19345395Y44460858D02*
X19040633Y44460858D01*
X20145395Y44118000D02*
X20069204Y44079905D01*
X20069204Y44079905D02*
X19916823Y44079905D01*
X19916823Y44079905D02*
X19840633Y44118000D01*
X19840633Y44118000D02*
X19802537Y44194191D01*
X19802537Y44194191D02*
X19802537Y44498953D01*
X19802537Y44498953D02*
X19840633Y44575143D01*
X19840633Y44575143D02*
X19916823Y44613239D01*
X19916823Y44613239D02*
X20069204Y44613239D01*
X20069204Y44613239D02*
X20145395Y44575143D01*
X20145395Y44575143D02*
X20183490Y44498953D01*
X20183490Y44498953D02*
X20183490Y44422762D01*
X20183490Y44422762D02*
X19802537Y44346572D01*
X20450156Y44613239D02*
X20640632Y44079905D01*
X20640632Y44079905D02*
X20831109Y44613239D01*
X21135871Y44156096D02*
X21173966Y44118000D01*
X21173966Y44118000D02*
X21135871Y44079905D01*
X21135871Y44079905D02*
X21097775Y44118000D01*
X21097775Y44118000D02*
X21135871Y44156096D01*
X21135871Y44156096D02*
X21135871Y44079905D01*
X21478727Y44803715D02*
X21516823Y44841810D01*
X21516823Y44841810D02*
X21593013Y44879905D01*
X21593013Y44879905D02*
X21783489Y44879905D01*
X21783489Y44879905D02*
X21859680Y44841810D01*
X21859680Y44841810D02*
X21897775Y44803715D01*
X21897775Y44803715D02*
X21935870Y44727524D01*
X21935870Y44727524D02*
X21935870Y44651334D01*
X21935870Y44651334D02*
X21897775Y44537048D01*
X21897775Y44537048D02*
X21440632Y44079905D01*
X21440632Y44079905D02*
X21935870Y44079905D01*
X36316908Y7196772D02*
X36316908Y6739629D01*
X35516908Y6968201D02*
X36316908Y6968201D01*
X35516908Y6015819D02*
X35897861Y6282486D01*
X35516908Y6472962D02*
X36316908Y6472962D01*
X36316908Y6472962D02*
X36316908Y6168200D01*
X36316908Y6168200D02*
X36278813Y6092010D01*
X36278813Y6092010D02*
X36240718Y6053915D01*
X36240718Y6053915D02*
X36164527Y6015819D01*
X36164527Y6015819D02*
X36050242Y6015819D01*
X36050242Y6015819D02*
X35974051Y6053915D01*
X35974051Y6053915D02*
X35935956Y6092010D01*
X35935956Y6092010D02*
X35897861Y6168200D01*
X35897861Y6168200D02*
X35897861Y6472962D01*
X30669099Y38565820D02*
X30669099Y38184868D01*
X30669099Y38184868D02*
X29869099Y38184868D01*
X29907194Y19493124D02*
X29869099Y19416934D01*
X29869099Y19416934D02*
X29869099Y19302648D01*
X29869099Y19302648D02*
X29907194Y19188362D01*
X29907194Y19188362D02*
X29983384Y19112172D01*
X29983384Y19112172D02*
X30059575Y19074077D01*
X30059575Y19074077D02*
X30211956Y19035981D01*
X30211956Y19035981D02*
X30326242Y19035981D01*
X30326242Y19035981D02*
X30478623Y19074077D01*
X30478623Y19074077D02*
X30554813Y19112172D01*
X30554813Y19112172D02*
X30631004Y19188362D01*
X30631004Y19188362D02*
X30669099Y19302648D01*
X30669099Y19302648D02*
X30669099Y19378839D01*
X30669099Y19378839D02*
X30631004Y19493124D01*
X30631004Y19493124D02*
X30592908Y19531220D01*
X30592908Y19531220D02*
X30326242Y19531220D01*
X30326242Y19531220D02*
X30326242Y19378839D01*
X35935956Y33231858D02*
X35897861Y33117572D01*
X35897861Y33117572D02*
X35859765Y33079477D01*
X35859765Y33079477D02*
X35783575Y33041381D01*
X35783575Y33041381D02*
X35669289Y33041381D01*
X35669289Y33041381D02*
X35593099Y33079477D01*
X35593099Y33079477D02*
X35555004Y33117572D01*
X35555004Y33117572D02*
X35516908Y33193762D01*
X35516908Y33193762D02*
X35516908Y33498524D01*
X35516908Y33498524D02*
X36316908Y33498524D01*
X36316908Y33498524D02*
X36316908Y33231858D01*
X36316908Y33231858D02*
X36278813Y33155667D01*
X36278813Y33155667D02*
X36240718Y33117572D01*
X36240718Y33117572D02*
X36164527Y33079477D01*
X36164527Y33079477D02*
X36088337Y33079477D01*
X36088337Y33079477D02*
X36012146Y33117572D01*
X36012146Y33117572D02*
X35974051Y33155667D01*
X35974051Y33155667D02*
X35935956Y33231858D01*
X35935956Y33231858D02*
X35935956Y33498524D01*
X30631004Y30164867D02*
X30669099Y30279153D01*
X30669099Y30279153D02*
X30669099Y30469629D01*
X30669099Y30469629D02*
X30631004Y30545820D01*
X30631004Y30545820D02*
X30592908Y30583915D01*
X30592908Y30583915D02*
X30516718Y30622010D01*
X30516718Y30622010D02*
X30440527Y30622010D01*
X30440527Y30622010D02*
X30364337Y30583915D01*
X30364337Y30583915D02*
X30326242Y30545820D01*
X30326242Y30545820D02*
X30288146Y30469629D01*
X30288146Y30469629D02*
X30250051Y30317248D01*
X30250051Y30317248D02*
X30211956Y30241058D01*
X30211956Y30241058D02*
X30173861Y30202963D01*
X30173861Y30202963D02*
X30097670Y30164867D01*
X30097670Y30164867D02*
X30021480Y30164867D01*
X30021480Y30164867D02*
X29945289Y30202963D01*
X29945289Y30202963D02*
X29907194Y30241058D01*
X29907194Y30241058D02*
X29869099Y30317248D01*
X29869099Y30317248D02*
X29869099Y30507725D01*
X29869099Y30507725D02*
X29907194Y30622010D01*
X29869099Y30850582D02*
X29869099Y31307725D01*
X30669099Y31079153D02*
X29869099Y31079153D01*
X36316908Y22360581D02*
X36316908Y21903438D01*
X35516908Y22132010D02*
X36316908Y22132010D01*
X35516908Y21255819D02*
X35516908Y21636771D01*
X35516908Y21636771D02*
X36316908Y21636771D01*
X21618478Y42284810D02*
X21542288Y42322905D01*
X21542288Y42322905D02*
X21428002Y42322905D01*
X21428002Y42322905D02*
X21313716Y42284810D01*
X21313716Y42284810D02*
X21237526Y42208620D01*
X21237526Y42208620D02*
X21199431Y42132429D01*
X21199431Y42132429D02*
X21161335Y41980048D01*
X21161335Y41980048D02*
X21161335Y41865762D01*
X21161335Y41865762D02*
X21199431Y41713381D01*
X21199431Y41713381D02*
X21237526Y41637191D01*
X21237526Y41637191D02*
X21313716Y41561000D01*
X21313716Y41561000D02*
X21428002Y41522905D01*
X21428002Y41522905D02*
X21504193Y41522905D01*
X21504193Y41522905D02*
X21618478Y41561000D01*
X21618478Y41561000D02*
X21656574Y41599096D01*
X21656574Y41599096D02*
X21656574Y41865762D01*
X21656574Y41865762D02*
X21504193Y41865762D01*
X21199431Y39730905D02*
X21199431Y39083286D01*
X21199431Y39083286D02*
X21237526Y39007096D01*
X21237526Y39007096D02*
X21275621Y38969000D01*
X21275621Y38969000D02*
X21351812Y38930905D01*
X21351812Y38930905D02*
X21504193Y38930905D01*
X21504193Y38930905D02*
X21580383Y38969000D01*
X21580383Y38969000D02*
X21618478Y39007096D01*
X21618478Y39007096D02*
X21656574Y39083286D01*
X21656574Y39083286D02*
X21656574Y39730905D01*
X22037526Y38930905D02*
X22037526Y39730905D01*
X22037526Y39730905D02*
X22342288Y39730905D01*
X22342288Y39730905D02*
X22418478Y39692810D01*
X22418478Y39692810D02*
X22456573Y39654715D01*
X22456573Y39654715D02*
X22494669Y39578524D01*
X22494669Y39578524D02*
X22494669Y39464239D01*
X22494669Y39464239D02*
X22456573Y39388048D01*
X22456573Y39388048D02*
X22418478Y39349953D01*
X22418478Y39349953D02*
X22342288Y39311858D01*
X22342288Y39311858D02*
X22037526Y39311858D01*
X21199431Y36338905D02*
X21199431Y37138905D01*
X21199431Y37138905D02*
X21389907Y37138905D01*
X21389907Y37138905D02*
X21504193Y37100810D01*
X21504193Y37100810D02*
X21580383Y37024620D01*
X21580383Y37024620D02*
X21618478Y36948429D01*
X21618478Y36948429D02*
X21656574Y36796048D01*
X21656574Y36796048D02*
X21656574Y36681762D01*
X21656574Y36681762D02*
X21618478Y36529381D01*
X21618478Y36529381D02*
X21580383Y36453191D01*
X21580383Y36453191D02*
X21504193Y36377000D01*
X21504193Y36377000D02*
X21389907Y36338905D01*
X21389907Y36338905D02*
X21199431Y36338905D01*
X21999431Y36338905D02*
X21999431Y37138905D01*
X21999431Y37138905D02*
X22456574Y36338905D01*
X22456574Y36338905D02*
X22456574Y37138905D01*
X21580383Y33746905D02*
X21199431Y33746905D01*
X21199431Y33746905D02*
X21199431Y34546905D01*
X21656574Y31154905D02*
X21389907Y31535858D01*
X21199431Y31154905D02*
X21199431Y31954905D01*
X21199431Y31954905D02*
X21504193Y31954905D01*
X21504193Y31954905D02*
X21580383Y31916810D01*
X21580383Y31916810D02*
X21618478Y31878715D01*
X21618478Y31878715D02*
X21656574Y31802524D01*
X21656574Y31802524D02*
X21656574Y31688239D01*
X21656574Y31688239D02*
X21618478Y31612048D01*
X21618478Y31612048D02*
X21580383Y31573953D01*
X21580383Y31573953D02*
X21504193Y31535858D01*
X21504193Y31535858D02*
X21199431Y31535858D01*
X21161335Y28601000D02*
X21275621Y28562905D01*
X21275621Y28562905D02*
X21466097Y28562905D01*
X21466097Y28562905D02*
X21542288Y28601000D01*
X21542288Y28601000D02*
X21580383Y28639096D01*
X21580383Y28639096D02*
X21618478Y28715286D01*
X21618478Y28715286D02*
X21618478Y28791477D01*
X21618478Y28791477D02*
X21580383Y28867667D01*
X21580383Y28867667D02*
X21542288Y28905762D01*
X21542288Y28905762D02*
X21466097Y28943858D01*
X21466097Y28943858D02*
X21313716Y28981953D01*
X21313716Y28981953D02*
X21237526Y29020048D01*
X21237526Y29020048D02*
X21199431Y29058143D01*
X21199431Y29058143D02*
X21161335Y29134334D01*
X21161335Y29134334D02*
X21161335Y29210524D01*
X21161335Y29210524D02*
X21199431Y29286715D01*
X21199431Y29286715D02*
X21237526Y29324810D01*
X21237526Y29324810D02*
X21313716Y29362905D01*
X21313716Y29362905D02*
X21504193Y29362905D01*
X21504193Y29362905D02*
X21618478Y29324810D01*
X21847050Y29362905D02*
X22304193Y29362905D01*
X22075621Y28562905D02*
X22075621Y29362905D01*
X21161335Y26009000D02*
X21275621Y25970905D01*
X21275621Y25970905D02*
X21466097Y25970905D01*
X21466097Y25970905D02*
X21542288Y26009000D01*
X21542288Y26009000D02*
X21580383Y26047096D01*
X21580383Y26047096D02*
X21618478Y26123286D01*
X21618478Y26123286D02*
X21618478Y26199477D01*
X21618478Y26199477D02*
X21580383Y26275667D01*
X21580383Y26275667D02*
X21542288Y26313762D01*
X21542288Y26313762D02*
X21466097Y26351858D01*
X21466097Y26351858D02*
X21313716Y26389953D01*
X21313716Y26389953D02*
X21237526Y26428048D01*
X21237526Y26428048D02*
X21199431Y26466143D01*
X21199431Y26466143D02*
X21161335Y26542334D01*
X21161335Y26542334D02*
X21161335Y26618524D01*
X21161335Y26618524D02*
X21199431Y26694715D01*
X21199431Y26694715D02*
X21237526Y26732810D01*
X21237526Y26732810D02*
X21313716Y26770905D01*
X21313716Y26770905D02*
X21504193Y26770905D01*
X21504193Y26770905D02*
X21618478Y26732810D01*
X22342288Y25970905D02*
X21961336Y25970905D01*
X21961336Y25970905D02*
X21961336Y26770905D01*
X21161335Y23607477D02*
X21542288Y23607477D01*
X21085145Y23378905D02*
X21351812Y24178905D01*
X21351812Y24178905D02*
X21618478Y23378905D01*
X21466097Y21205953D02*
X21580383Y21167858D01*
X21580383Y21167858D02*
X21618478Y21129762D01*
X21618478Y21129762D02*
X21656574Y21053572D01*
X21656574Y21053572D02*
X21656574Y20939286D01*
X21656574Y20939286D02*
X21618478Y20863096D01*
X21618478Y20863096D02*
X21580383Y20825000D01*
X21580383Y20825000D02*
X21504193Y20786905D01*
X21504193Y20786905D02*
X21199431Y20786905D01*
X21199431Y20786905D02*
X21199431Y21586905D01*
X21199431Y21586905D02*
X21466097Y21586905D01*
X21466097Y21586905D02*
X21542288Y21548810D01*
X21542288Y21548810D02*
X21580383Y21510715D01*
X21580383Y21510715D02*
X21618478Y21434524D01*
X21618478Y21434524D02*
X21618478Y21358334D01*
X21618478Y21358334D02*
X21580383Y21282143D01*
X21580383Y21282143D02*
X21542288Y21244048D01*
X21542288Y21244048D02*
X21466097Y21205953D01*
X21466097Y21205953D02*
X21199431Y21205953D01*
X21123240Y18994905D02*
X21656574Y18194905D01*
X21656574Y18994905D02*
X21123240Y18194905D01*
X21351812Y15983858D02*
X21351812Y15602905D01*
X21085145Y16402905D02*
X21351812Y15983858D01*
X21351812Y15983858D02*
X21618478Y16402905D01*
X21085145Y13810905D02*
X21542288Y13810905D01*
X21313716Y13010905D02*
X21313716Y13810905D01*
X22189907Y13010905D02*
X21808955Y13010905D01*
X21808955Y13010905D02*
X21808955Y13810905D01*
X21085145Y11218905D02*
X21542288Y11218905D01*
X21313716Y10418905D02*
X21313716Y11218905D01*
X22266098Y10418905D02*
X21999431Y10799858D01*
X21808955Y10418905D02*
X21808955Y11218905D01*
X21808955Y11218905D02*
X22113717Y11218905D01*
X22113717Y11218905D02*
X22189907Y11180810D01*
X22189907Y11180810D02*
X22228002Y11142715D01*
X22228002Y11142715D02*
X22266098Y11066524D01*
X22266098Y11066524D02*
X22266098Y10952239D01*
X22266098Y10952239D02*
X22228002Y10876048D01*
X22228002Y10876048D02*
X22189907Y10837953D01*
X22189907Y10837953D02*
X22113717Y10799858D01*
X22113717Y10799858D02*
X21808955Y10799858D01*
X21199431Y7826905D02*
X21199431Y8626905D01*
X21199431Y8245953D02*
X21656574Y8245953D01*
X21656574Y7826905D02*
X21656574Y8626905D01*
X22037526Y7826905D02*
X22037526Y8626905D01*
X22494669Y7826905D02*
X22151811Y8284048D01*
X22494669Y8626905D02*
X22037526Y8169762D01*
X21618478Y5996810D02*
X21542288Y6034905D01*
X21542288Y6034905D02*
X21428002Y6034905D01*
X21428002Y6034905D02*
X21313716Y5996810D01*
X21313716Y5996810D02*
X21237526Y5920620D01*
X21237526Y5920620D02*
X21199431Y5844429D01*
X21199431Y5844429D02*
X21161335Y5692048D01*
X21161335Y5692048D02*
X21161335Y5577762D01*
X21161335Y5577762D02*
X21199431Y5425381D01*
X21199431Y5425381D02*
X21237526Y5349191D01*
X21237526Y5349191D02*
X21313716Y5273000D01*
X21313716Y5273000D02*
X21428002Y5234905D01*
X21428002Y5234905D02*
X21504193Y5234905D01*
X21504193Y5234905D02*
X21618478Y5273000D01*
X21618478Y5273000D02*
X21656574Y5311096D01*
X21656574Y5311096D02*
X21656574Y5577762D01*
X21656574Y5577762D02*
X21504193Y5577762D01*
D11*
%TO.C,J5*%
X22856251Y31167105D02*
X23313394Y31167105D01*
X23084822Y30367105D02*
X23084822Y31167105D01*
X23961013Y30367105D02*
X23580061Y30367105D01*
X23580061Y30367105D02*
X23580061Y31167105D01*
X22589585Y32411705D02*
X22589585Y31764086D01*
X22589585Y31764086D02*
X22627680Y31687896D01*
X22627680Y31687896D02*
X22665775Y31649800D01*
X22665775Y31649800D02*
X22741966Y31611705D01*
X22741966Y31611705D02*
X22894347Y31611705D01*
X22894347Y31611705D02*
X22970537Y31649800D01*
X22970537Y31649800D02*
X23008632Y31687896D01*
X23008632Y31687896D02*
X23046728Y31764086D01*
X23046728Y31764086D02*
X23046728Y32411705D01*
X23427680Y31611705D02*
X23427680Y32411705D01*
X23427680Y32411705D02*
X23732442Y32411705D01*
X23732442Y32411705D02*
X23808632Y32373610D01*
X23808632Y32373610D02*
X23846727Y32335515D01*
X23846727Y32335515D02*
X23884823Y32259324D01*
X23884823Y32259324D02*
X23884823Y32145039D01*
X23884823Y32145039D02*
X23846727Y32068848D01*
X23846727Y32068848D02*
X23808632Y32030753D01*
X23808632Y32030753D02*
X23732442Y31992658D01*
X23732442Y31992658D02*
X23427680Y31992658D01*
X23884823Y24093305D02*
X23618156Y24474258D01*
X23427680Y24093305D02*
X23427680Y24893305D01*
X23427680Y24893305D02*
X23732442Y24893305D01*
X23732442Y24893305D02*
X23808632Y24855210D01*
X23808632Y24855210D02*
X23846727Y24817115D01*
X23846727Y24817115D02*
X23884823Y24740924D01*
X23884823Y24740924D02*
X23884823Y24626639D01*
X23884823Y24626639D02*
X23846727Y24550448D01*
X23846727Y24550448D02*
X23808632Y24512353D01*
X23808632Y24512353D02*
X23732442Y24474258D01*
X23732442Y24474258D02*
X23427680Y24474258D01*
X23694347Y26988858D02*
X23694347Y26607905D01*
X23427680Y27407905D02*
X23694347Y26988858D01*
X23694347Y26988858D02*
X23961013Y27407905D01*
X23694346Y22023153D02*
X23808632Y21985058D01*
X23808632Y21985058D02*
X23846727Y21946962D01*
X23846727Y21946962D02*
X23884823Y21870772D01*
X23884823Y21870772D02*
X23884823Y21756486D01*
X23884823Y21756486D02*
X23846727Y21680296D01*
X23846727Y21680296D02*
X23808632Y21642200D01*
X23808632Y21642200D02*
X23732442Y21604105D01*
X23732442Y21604105D02*
X23427680Y21604105D01*
X23427680Y21604105D02*
X23427680Y22404105D01*
X23427680Y22404105D02*
X23694346Y22404105D01*
X23694346Y22404105D02*
X23770537Y22366010D01*
X23770537Y22366010D02*
X23808632Y22327915D01*
X23808632Y22327915D02*
X23846727Y22251724D01*
X23846727Y22251724D02*
X23846727Y22175534D01*
X23846727Y22175534D02*
X23808632Y22099343D01*
X23808632Y22099343D02*
X23770537Y22061248D01*
X23770537Y22061248D02*
X23694346Y22023153D01*
X23694346Y22023153D02*
X23427680Y22023153D01*
X23846727Y17362210D02*
X23770537Y17400305D01*
X23770537Y17400305D02*
X23656251Y17400305D01*
X23656251Y17400305D02*
X23541965Y17362210D01*
X23541965Y17362210D02*
X23465775Y17286020D01*
X23465775Y17286020D02*
X23427680Y17209829D01*
X23427680Y17209829D02*
X23389584Y17057448D01*
X23389584Y17057448D02*
X23389584Y16943162D01*
X23389584Y16943162D02*
X23427680Y16790781D01*
X23427680Y16790781D02*
X23465775Y16714591D01*
X23465775Y16714591D02*
X23541965Y16638400D01*
X23541965Y16638400D02*
X23656251Y16600305D01*
X23656251Y16600305D02*
X23732442Y16600305D01*
X23732442Y16600305D02*
X23846727Y16638400D01*
X23846727Y16638400D02*
X23884823Y16676496D01*
X23884823Y16676496D02*
X23884823Y16943162D01*
X23884823Y16943162D02*
X23732442Y16943162D01*
X23389584Y29897105D02*
X23922918Y29097105D01*
X23922918Y29897105D02*
X23389584Y29097105D01*
X23961013Y25337905D02*
X23580061Y25337905D01*
X23580061Y25337905D02*
X23580061Y26137905D01*
X22589585Y15355705D02*
X22589585Y16155705D01*
X22589585Y15774753D02*
X23046728Y15774753D01*
X23046728Y15355705D02*
X23046728Y16155705D01*
X23427680Y15355705D02*
X23427680Y16155705D01*
X23884823Y15355705D02*
X23541965Y15812848D01*
X23884823Y16155705D02*
X23427680Y15698562D01*
X22818155Y20397600D02*
X22932441Y20359505D01*
X22932441Y20359505D02*
X23122917Y20359505D01*
X23122917Y20359505D02*
X23199108Y20397600D01*
X23199108Y20397600D02*
X23237203Y20435696D01*
X23237203Y20435696D02*
X23275298Y20511886D01*
X23275298Y20511886D02*
X23275298Y20588077D01*
X23275298Y20588077D02*
X23237203Y20664267D01*
X23237203Y20664267D02*
X23199108Y20702362D01*
X23199108Y20702362D02*
X23122917Y20740458D01*
X23122917Y20740458D02*
X22970536Y20778553D01*
X22970536Y20778553D02*
X22894346Y20816648D01*
X22894346Y20816648D02*
X22856251Y20854743D01*
X22856251Y20854743D02*
X22818155Y20930934D01*
X22818155Y20930934D02*
X22818155Y21007124D01*
X22818155Y21007124D02*
X22856251Y21083315D01*
X22856251Y21083315D02*
X22894346Y21121410D01*
X22894346Y21121410D02*
X22970536Y21159505D01*
X22970536Y21159505D02*
X23161013Y21159505D01*
X23161013Y21159505D02*
X23275298Y21121410D01*
X23503870Y21159505D02*
X23961013Y21159505D01*
X23732441Y20359505D02*
X23732441Y21159505D01*
X22703870Y23648705D02*
X23161013Y23648705D01*
X22932441Y22848705D02*
X22932441Y23648705D01*
X23884823Y22848705D02*
X23618156Y23229658D01*
X23427680Y22848705D02*
X23427680Y23648705D01*
X23427680Y23648705D02*
X23732442Y23648705D01*
X23732442Y23648705D02*
X23808632Y23610610D01*
X23808632Y23610610D02*
X23846727Y23572515D01*
X23846727Y23572515D02*
X23884823Y23496324D01*
X23884823Y23496324D02*
X23884823Y23382039D01*
X23884823Y23382039D02*
X23846727Y23305848D01*
X23846727Y23305848D02*
X23808632Y23267753D01*
X23808632Y23267753D02*
X23732442Y23229658D01*
X23732442Y23229658D02*
X23427680Y23229658D01*
X22589585Y27852505D02*
X22589585Y28652505D01*
X22589585Y28652505D02*
X22780061Y28652505D01*
X22780061Y28652505D02*
X22894347Y28614410D01*
X22894347Y28614410D02*
X22970537Y28538220D01*
X22970537Y28538220D02*
X23008632Y28462029D01*
X23008632Y28462029D02*
X23046728Y28309648D01*
X23046728Y28309648D02*
X23046728Y28195362D01*
X23046728Y28195362D02*
X23008632Y28042981D01*
X23008632Y28042981D02*
X22970537Y27966791D01*
X22970537Y27966791D02*
X22894347Y27890600D01*
X22894347Y27890600D02*
X22780061Y27852505D01*
X22780061Y27852505D02*
X22589585Y27852505D01*
X23389585Y27852505D02*
X23389585Y28652505D01*
X23389585Y28652505D02*
X23846728Y27852505D01*
X23846728Y27852505D02*
X23846728Y28652505D01*
X22780060Y19127600D02*
X22894346Y19089505D01*
X22894346Y19089505D02*
X23084822Y19089505D01*
X23084822Y19089505D02*
X23161013Y19127600D01*
X23161013Y19127600D02*
X23199108Y19165696D01*
X23199108Y19165696D02*
X23237203Y19241886D01*
X23237203Y19241886D02*
X23237203Y19318077D01*
X23237203Y19318077D02*
X23199108Y19394267D01*
X23199108Y19394267D02*
X23161013Y19432362D01*
X23161013Y19432362D02*
X23084822Y19470458D01*
X23084822Y19470458D02*
X22932441Y19508553D01*
X22932441Y19508553D02*
X22856251Y19546648D01*
X22856251Y19546648D02*
X22818156Y19584743D01*
X22818156Y19584743D02*
X22780060Y19660934D01*
X22780060Y19660934D02*
X22780060Y19737124D01*
X22780060Y19737124D02*
X22818156Y19813315D01*
X22818156Y19813315D02*
X22856251Y19851410D01*
X22856251Y19851410D02*
X22932441Y19889505D01*
X22932441Y19889505D02*
X23122918Y19889505D01*
X23122918Y19889505D02*
X23237203Y19851410D01*
X23961013Y19089505D02*
X23580061Y19089505D01*
X23580061Y19089505D02*
X23580061Y19889505D01*
X23503870Y18073477D02*
X23884823Y18073477D01*
X23427680Y17844905D02*
X23694347Y18644905D01*
X23694347Y18644905D02*
X23961013Y17844905D01*
D10*
%TO.C,R13*%
X15173383Y7465705D02*
X15021002Y7465705D01*
X15021002Y7465705D02*
X14944811Y7427610D01*
X14944811Y7427610D02*
X14906716Y7389515D01*
X14906716Y7389515D02*
X14830526Y7275229D01*
X14830526Y7275229D02*
X14792430Y7122848D01*
X14792430Y7122848D02*
X14792430Y6818086D01*
X14792430Y6818086D02*
X14830526Y6741896D01*
X14830526Y6741896D02*
X14868621Y6703800D01*
X14868621Y6703800D02*
X14944811Y6665705D01*
X14944811Y6665705D02*
X15097192Y6665705D01*
X15097192Y6665705D02*
X15173383Y6703800D01*
X15173383Y6703800D02*
X15211478Y6741896D01*
X15211478Y6741896D02*
X15249573Y6818086D01*
X15249573Y6818086D02*
X15249573Y7008562D01*
X15249573Y7008562D02*
X15211478Y7084753D01*
X15211478Y7084753D02*
X15173383Y7122848D01*
X15173383Y7122848D02*
X15097192Y7160943D01*
X15097192Y7160943D02*
X14944811Y7160943D01*
X14944811Y7160943D02*
X14868621Y7122848D01*
X14868621Y7122848D02*
X14830526Y7084753D01*
X14830526Y7084753D02*
X14792430Y7008562D01*
X15592431Y6665705D02*
X15592431Y7465705D01*
X16049574Y6665705D02*
X15706716Y7122848D01*
X16049574Y7465705D02*
X15592431Y7008562D01*
X16506716Y7122848D02*
X16430526Y7160943D01*
X16430526Y7160943D02*
X16392431Y7199039D01*
X16392431Y7199039D02*
X16354335Y7275229D01*
X16354335Y7275229D02*
X16354335Y7313324D01*
X16354335Y7313324D02*
X16392431Y7389515D01*
X16392431Y7389515D02*
X16430526Y7427610D01*
X16430526Y7427610D02*
X16506716Y7465705D01*
X16506716Y7465705D02*
X16659097Y7465705D01*
X16659097Y7465705D02*
X16735288Y7427610D01*
X16735288Y7427610D02*
X16773383Y7389515D01*
X16773383Y7389515D02*
X16811478Y7313324D01*
X16811478Y7313324D02*
X16811478Y7275229D01*
X16811478Y7275229D02*
X16773383Y7199039D01*
X16773383Y7199039D02*
X16735288Y7160943D01*
X16735288Y7160943D02*
X16659097Y7122848D01*
X16659097Y7122848D02*
X16506716Y7122848D01*
X16506716Y7122848D02*
X16430526Y7084753D01*
X16430526Y7084753D02*
X16392431Y7046658D01*
X16392431Y7046658D02*
X16354335Y6970467D01*
X16354335Y6970467D02*
X16354335Y6818086D01*
X16354335Y6818086D02*
X16392431Y6741896D01*
X16392431Y6741896D02*
X16430526Y6703800D01*
X16430526Y6703800D02*
X16506716Y6665705D01*
X16506716Y6665705D02*
X16659097Y6665705D01*
X16659097Y6665705D02*
X16735288Y6703800D01*
X16735288Y6703800D02*
X16773383Y6741896D01*
X16773383Y6741896D02*
X16811478Y6818086D01*
X16811478Y6818086D02*
X16811478Y6970467D01*
X16811478Y6970467D02*
X16773383Y7046658D01*
X16773383Y7046658D02*
X16735288Y7084753D01*
X16735288Y7084753D02*
X16659097Y7122848D01*
D12*
%TO.C,R10*%
X15574891Y16864000D02*
X16029019Y16864000D01*
X15574891Y15394000D02*
X16029019Y15394000D01*
%TO.C,R12*%
X15574891Y11784000D02*
X16029019Y11784000D01*
X15574891Y10314000D02*
X16029019Y10314000D01*
%TO.C,J5*%
X25612004Y32489800D02*
X25612004Y15217800D01*
X24088004Y32489800D02*
X25612004Y32489800D01*
X24088004Y15217800D02*
X24088004Y32489800D01*
X24088004Y15217800D02*
X25612004Y15217800D01*
%TO.C,R13*%
X15574891Y9244000D02*
X16029019Y9244000D01*
X15574891Y7774000D02*
X16029019Y7774000D01*
%TO.C,R11*%
X15574891Y14324000D02*
X16029019Y14324000D01*
X15574891Y12854000D02*
X16029019Y12854000D01*
%TO.C,R4*%
X15574891Y32104000D02*
X16029019Y32104000D01*
X15574891Y30634000D02*
X16029019Y30634000D01*
%TO.C,R9*%
X15574891Y19404000D02*
X16029019Y19404000D01*
X15574891Y17934000D02*
X16029019Y17934000D01*
%TO.C,R5*%
X15574891Y29564000D02*
X16029019Y29564000D01*
X15574891Y28094000D02*
X16029019Y28094000D01*
%TO.C,JP3*%
X6679804Y17103400D02*
X8009804Y17103400D01*
X6679804Y15773400D02*
X6679804Y17103400D01*
X6679804Y14503400D02*
X6679804Y9363400D01*
X6679804Y14503400D02*
X9339804Y14503400D01*
X6679804Y9363400D02*
X9339804Y9363400D01*
X9339804Y14503400D02*
X9339804Y9363400D01*
%TO.C,R2*%
X15574891Y37184000D02*
X16029019Y37184000D01*
X15574891Y35714000D02*
X16029019Y35714000D01*
%TO.C,J1*%
X2065604Y43429000D02*
X3065604Y43429000D01*
X2065604Y43429000D02*
X2065604Y42429000D01*
X5775604Y43139000D02*
X2355604Y43139000D01*
X2355604Y43139000D02*
X2355604Y33669000D01*
X4415604Y42829000D02*
X4415604Y42629000D01*
X3615604Y42829000D02*
X4415604Y42829000D01*
X5265604Y42629000D02*
X5265604Y38404000D01*
X4415604Y42629000D02*
X5265604Y42629000D01*
X3615604Y42629000D02*
X3615604Y42829000D01*
X2865604Y42629000D02*
X3615604Y42629000D01*
X2865604Y38404000D02*
X2865604Y42629000D01*
X2865604Y38404000D02*
X2865604Y34179000D01*
X5265604Y34179000D02*
X5265604Y38404000D01*
X4415604Y34179000D02*
X5265604Y34179000D01*
X3615604Y34179000D02*
X3615604Y33979000D01*
X2865604Y34179000D02*
X3615604Y34179000D01*
X4415604Y33979000D02*
X4415604Y34179000D01*
X3615604Y33979000D02*
X4415604Y33979000D01*
X5775604Y33669000D02*
X5775604Y43139000D01*
X2355604Y33669000D02*
X5775604Y33669000D01*
%TO.C,J12*%
X10693004Y42859000D02*
X12023004Y42859000D01*
X10693004Y41529000D02*
X10693004Y42859000D01*
X10693004Y40259000D02*
X10693004Y4639000D01*
X10693004Y40259000D02*
X13353004Y40259000D01*
X10693004Y4639000D02*
X13353004Y4639000D01*
X13353004Y40259000D02*
X13353004Y4639000D01*
%TO.C,R8*%
X15574891Y21944000D02*
X16029019Y21944000D01*
X15574891Y20474000D02*
X16029019Y20474000D01*
%TO.C,R3*%
X15574891Y34644000D02*
X16029019Y34644000D01*
X15574891Y33174000D02*
X16029019Y33174000D01*
%TO.C,J3*%
X2091004Y33015000D02*
X3091004Y33015000D01*
X2091004Y33015000D02*
X2091004Y32015000D01*
X5801004Y32725000D02*
X2381004Y32725000D01*
X2381004Y32725000D02*
X2381004Y12005000D01*
X4441004Y32415000D02*
X4441004Y32215000D01*
X3641004Y32415000D02*
X4441004Y32415000D01*
X5291004Y32215000D02*
X5291004Y22365000D01*
X4441004Y32215000D02*
X5291004Y32215000D01*
X3641004Y32215000D02*
X3641004Y32415000D01*
X2891004Y32215000D02*
X3641004Y32215000D01*
X2891004Y22365000D02*
X2891004Y32215000D01*
X2891004Y22365000D02*
X2891004Y12515000D01*
X5291004Y12515000D02*
X5291004Y22365000D01*
X4441004Y12515000D02*
X5291004Y12515000D01*
X3641004Y12515000D02*
X3641004Y12315000D01*
X2891004Y12515000D02*
X3641004Y12515000D01*
X4441004Y12315000D02*
X4441004Y12515000D01*
X3641004Y12315000D02*
X4441004Y12315000D01*
X5801004Y12005000D02*
X5801004Y32725000D01*
X2381004Y12005000D02*
X5801004Y12005000D01*
%TO.C,JP1*%
X6679804Y35645400D02*
X8009804Y35645400D01*
X6679804Y34315400D02*
X6679804Y35645400D01*
X6679804Y33045400D02*
X6679804Y27905400D01*
X6679804Y33045400D02*
X9339804Y33045400D01*
X6679804Y27905400D02*
X9339804Y27905400D01*
X9339804Y33045400D02*
X9339804Y27905400D01*
%TO.C,J4*%
X18231155Y42859000D02*
X19561155Y42859000D01*
X18231155Y41529000D02*
X18231155Y42859000D01*
X18231155Y40259000D02*
X18231155Y4639000D01*
X18231155Y40259000D02*
X20891155Y40259000D01*
X18231155Y4639000D02*
X20891155Y4639000D01*
X20891155Y40259000D02*
X20891155Y4639000D01*
%TO.C,JP2*%
X6679804Y26374400D02*
X8009804Y26374400D01*
X6679804Y25044400D02*
X6679804Y26374400D01*
X6679804Y23774400D02*
X6679804Y18634400D01*
X6679804Y23774400D02*
X9339804Y23774400D01*
X6679804Y18634400D02*
X9339804Y18634400D01*
X9339804Y23774400D02*
X9339804Y18634400D01*
%TO.C,J2*%
X2091004Y11425000D02*
X3091004Y11425000D01*
X2091004Y11425000D02*
X2091004Y10425000D01*
X5801004Y11135000D02*
X2381004Y11135000D01*
X2381004Y11135000D02*
X2381004Y4165000D01*
X4441004Y10825000D02*
X4441004Y10625000D01*
X3641004Y10825000D02*
X4441004Y10825000D01*
X5291004Y10625000D02*
X5291004Y7650000D01*
X4441004Y10625000D02*
X5291004Y10625000D01*
X3641004Y10625000D02*
X3641004Y10825000D01*
X2891004Y10625000D02*
X3641004Y10625000D01*
X2891004Y7650000D02*
X2891004Y10625000D01*
X2891004Y7650000D02*
X2891004Y4675000D01*
X5291004Y4675000D02*
X5291004Y7650000D01*
X4441004Y4675000D02*
X5291004Y4675000D01*
X3641004Y4675000D02*
X3641004Y4475000D01*
X2891004Y4675000D02*
X3641004Y4675000D01*
X4441004Y4475000D02*
X4441004Y4675000D01*
X3641004Y4475000D02*
X4441004Y4475000D01*
X5801004Y4165000D02*
X5801004Y11135000D01*
X2381004Y4165000D02*
X5801004Y4165000D01*
%TO.C,R7*%
X15574891Y24484000D02*
X16029019Y24484000D01*
X15574891Y23014000D02*
X16029019Y23014000D01*
%TO.C,R6*%
X15574891Y27024000D02*
X16029019Y27024000D01*
X15574891Y25554000D02*
X16029019Y25554000D01*
%TO.C,R1*%
X15574891Y39724000D02*
X16029019Y39724000D01*
X15574891Y38254000D02*
X16029019Y38254000D01*
%TD*%
%LPC*%
D13*
%TO.C,R10*%
X14801955Y16129000D03*
X16801955Y16129000D03*
%TD*%
%TO.C,R12*%
X14801955Y11049000D03*
X16801955Y11049000D03*
%TD*%
D14*
%TO.C,J5*%
X24850004Y31981800D03*
D15*
X24850004Y30731800D03*
X24850004Y29481800D03*
X24850004Y28231800D03*
X24850004Y26981800D03*
X24850004Y25731800D03*
X24850004Y24481800D03*
X24850004Y23231800D03*
X24850004Y21981800D03*
X24850004Y20731800D03*
X24850004Y19481800D03*
X24850004Y18231800D03*
X24850004Y16981800D03*
X24850004Y15731800D03*
%TD*%
D13*
%TO.C,R13*%
X14801955Y8509000D03*
X16801955Y8509000D03*
%TD*%
%TO.C,R11*%
X14801955Y13589000D03*
X16801955Y13589000D03*
%TD*%
%TO.C,R4*%
X14801955Y31369000D03*
X16801955Y31369000D03*
%TD*%
%TO.C,R9*%
X14801955Y18669000D03*
X16801955Y18669000D03*
%TD*%
%TO.C,R5*%
X14801955Y28829000D03*
X16801955Y28829000D03*
%TD*%
D16*
%TO.C,JP3*%
X8009804Y15773400D03*
D17*
X8009804Y13233400D03*
X8009804Y10693400D03*
%TD*%
D13*
%TO.C,R2*%
X14801955Y36449000D03*
X16801955Y36449000D03*
%TD*%
D14*
%TO.C,J1*%
X3615604Y41529000D03*
D15*
X3615604Y40279000D03*
X3615604Y39029000D03*
X3615604Y37779000D03*
X3615604Y36529000D03*
X3615604Y35279000D03*
%TD*%
D16*
%TO.C,J12*%
X12023004Y41529000D03*
D17*
X12023004Y38989000D03*
X12023004Y36449000D03*
X12023004Y33909000D03*
X12023004Y31369000D03*
X12023004Y28829000D03*
X12023004Y26289000D03*
X12023004Y23749000D03*
X12023004Y21209000D03*
X12023004Y18669000D03*
X12023004Y16129000D03*
X12023004Y13589000D03*
X12023004Y11049000D03*
X12023004Y8509000D03*
X12023004Y5969000D03*
%TD*%
D13*
%TO.C,R8*%
X14801955Y21209000D03*
X16801955Y21209000D03*
%TD*%
%TO.C,R3*%
X14801955Y33909000D03*
X16801955Y33909000D03*
%TD*%
D14*
%TO.C,J3*%
X3641004Y31115000D03*
D15*
X3641004Y29865000D03*
X3641004Y28615000D03*
X3641004Y27365000D03*
X3641004Y26115000D03*
X3641004Y24865000D03*
X3641004Y23615000D03*
X3641004Y22365000D03*
X3641004Y21115000D03*
X3641004Y19865000D03*
X3641004Y18615000D03*
X3641004Y17365000D03*
X3641004Y16115000D03*
X3641004Y14865000D03*
X3641004Y13615000D03*
%TD*%
D16*
%TO.C,JP1*%
X8009804Y34315400D03*
D17*
X8009804Y31775400D03*
X8009804Y29235400D03*
%TD*%
D16*
%TO.C,J4*%
X19561155Y41529000D03*
D17*
X19561155Y38989000D03*
X19561155Y36449000D03*
X19561155Y33909000D03*
X19561155Y31369000D03*
X19561155Y28829000D03*
X19561155Y26289000D03*
X19561155Y23749000D03*
X19561155Y21209000D03*
X19561155Y18669000D03*
X19561155Y16129000D03*
X19561155Y13589000D03*
X19561155Y11049000D03*
X19561155Y8509000D03*
X19561155Y5969000D03*
%TD*%
D16*
%TO.C,JP2*%
X8009804Y25044400D03*
D17*
X8009804Y22504400D03*
X8009804Y19964400D03*
%TD*%
D14*
%TO.C,J2*%
X3641004Y9525000D03*
D15*
X3641004Y8275000D03*
X3641004Y7025000D03*
X3641004Y5775000D03*
%TD*%
D13*
%TO.C,R7*%
X14801955Y23749000D03*
X16801955Y23749000D03*
%TD*%
%TO.C,R6*%
X14801955Y26289000D03*
X16801955Y26289000D03*
%TD*%
%TO.C,R1*%
X14801955Y38989000D03*
X16801955Y38989000D03*
%TD*%
D14*
%TO.C,J9*%
X38071404Y19369800D03*
D15*
X38071404Y18119800D03*
X38071404Y16869800D03*
X38071404Y15619800D03*
X38071404Y14369800D03*
X38071404Y13119800D03*
X38071404Y11869800D03*
X38071404Y10619800D03*
X38071404Y9369800D03*
X38071404Y8119800D03*
X38071404Y6869800D03*
X38071404Y5619800D03*
X38071404Y4369800D03*
%TD*%
D14*
%TO.C,J11*%
X28063804Y19369800D03*
D15*
X28063804Y18119800D03*
X28063804Y16869800D03*
X28063804Y15619800D03*
X28063804Y14369800D03*
X28063804Y13119800D03*
X28063804Y11869800D03*
X28063804Y10619800D03*
X28063804Y9369800D03*
X28063804Y8119800D03*
X28063804Y6869800D03*
X28063804Y5619800D03*
X28063804Y4369800D03*
%TD*%
D16*
%TO.C,J7*%
X31818004Y21823600D03*
D17*
X34358004Y21823600D03*
X31818004Y19283600D03*
X34358004Y19283600D03*
X31818004Y16743600D03*
X34358004Y16743600D03*
X31818004Y14203600D03*
X34358004Y14203600D03*
X31818004Y11663600D03*
X34358004Y11663600D03*
X31818004Y9123600D03*
X34358004Y9123600D03*
X31818004Y6583600D03*
X34358004Y6583600D03*
X31818004Y4043600D03*
X34358004Y4043600D03*
X31818004Y1503600D03*
X34358004Y1503600D03*
%TD*%
D14*
%TO.C,J8*%
X38071404Y44007800D03*
D15*
X38071404Y42757800D03*
X38071404Y41507800D03*
X38071404Y40257800D03*
X38071404Y39007800D03*
X38071404Y37757800D03*
X38071404Y36507800D03*
X38071404Y35257800D03*
X38071404Y34007800D03*
X38071404Y32757800D03*
X38071404Y31507800D03*
X38071404Y30257800D03*
X38071404Y29007800D03*
X38071404Y27757800D03*
%TD*%
D16*
%TO.C,J6*%
X31818004Y46055200D03*
D17*
X34358004Y46055200D03*
X31818004Y43515200D03*
X34358004Y43515200D03*
X31818004Y40975200D03*
X34358004Y40975200D03*
X31818004Y38435200D03*
X34358004Y38435200D03*
X31818004Y35895200D03*
X34358004Y35895200D03*
X31818004Y33355200D03*
X34358004Y33355200D03*
X31818004Y30815200D03*
X34358004Y30815200D03*
X31818004Y28275200D03*
X34358004Y28275200D03*
X31818004Y25735200D03*
X34358004Y25735200D03*
%TD*%
D14*
%TO.C,J10*%
X28089204Y44007800D03*
D15*
X28089204Y42757800D03*
X28089204Y41507800D03*
X28089204Y40257800D03*
X28089204Y39007800D03*
X28089204Y37757800D03*
X28089204Y36507800D03*
X28089204Y35257800D03*
X28089204Y34007800D03*
X28089204Y32757800D03*
X28089204Y31507800D03*
X28089204Y30257800D03*
X28089204Y29007800D03*
X28089204Y27757800D03*
%TD*%
M02*
