M48
; DRILL file {KiCad 7.0.1} date Sun Mar 26 20:19:24 2023
; FORMAT={-:-/ absolute / inch / decimal}
; #@! TF.CreationDate,2023-03-26T20:19:24+09:00
; #@! TF.GenerationSoftware,Kicad,Pcbnew,7.0.1
; #@! TF.FileFunction,Plated,1,2,PTH
FMAT,2
INCH
; #@! TA.AperFunction,Plated,PTH,ViaDrill
T1C0.0157
; #@! TA.AperFunction,Plated,PTH,ComponentDrill
T2C0.0197
; #@! TA.AperFunction,Plated,PTH,ComponentDrill
T3C0.0394
%
G90
G05
T1
X0.8931Y0.667
X1.4194Y0.2842
T2
X0.1423Y1.635
X0.1423Y1.5858
X0.1423Y1.5366
X0.1423Y1.4874
X0.1423Y1.4381
X0.1423Y1.3889
X0.1433Y1.225
X0.1433Y1.1758
X0.1433Y1.1266
X0.1433Y1.0774
X0.1433Y1.0281
X0.1433Y0.9789
X0.1433Y0.9297
X0.1433Y0.8805
X0.1433Y0.8313
X0.1433Y0.7821
X0.1433Y0.7329
X0.1433Y0.6837
X0.1433Y0.6344
X0.1433Y0.5852
X0.1433Y0.536
X0.1433Y0.375
X0.1433Y0.3258
X0.1433Y0.2766
X0.1433Y0.2274
X0.9783Y1.2591
X0.9783Y1.2099
X0.9783Y1.1607
X0.9783Y1.1115
X0.9783Y1.0623
X0.9783Y1.0131
X0.9783Y0.9639
X0.9783Y0.9146
X0.9783Y0.8654
X0.9783Y0.8162
X0.9783Y0.767
X0.9783Y0.7178
X0.9783Y0.6686
X0.9783Y0.6194
X1.1049Y0.7626
X1.1049Y0.7134
X1.1049Y0.6642
X1.1049Y0.615
X1.1049Y0.5657
X1.1049Y0.5165
X1.1049Y0.4673
X1.1049Y0.4181
X1.1049Y0.3689
X1.1049Y0.3197
X1.1049Y0.2705
X1.1049Y0.2213
X1.1049Y0.172
X1.1059Y1.7326
X1.1059Y1.6834
X1.1059Y1.6342
X1.1059Y1.585
X1.1059Y1.5357
X1.1059Y1.4865
X1.1059Y1.4373
X1.1059Y1.3881
X1.1059Y1.3389
X1.1059Y1.2897
X1.1059Y1.2405
X1.1059Y1.1913
X1.1059Y1.142
X1.1059Y1.0928
X1.4989Y1.7326
X1.4989Y1.6834
X1.4989Y1.6342
X1.4989Y1.585
X1.4989Y1.5357
X1.4989Y1.4865
X1.4989Y1.4373
X1.4989Y1.3881
X1.4989Y1.3389
X1.4989Y1.2897
X1.4989Y1.2405
X1.4989Y1.1913
X1.4989Y1.142
X1.4989Y1.0928
X1.4989Y0.7626
X1.4989Y0.7134
X1.4989Y0.6642
X1.4989Y0.615
X1.4989Y0.5657
X1.4989Y0.5165
X1.4989Y0.4673
X1.4989Y0.4181
X1.4989Y0.3689
X1.4989Y0.3197
X1.4989Y0.2705
X1.4989Y0.2213
X1.4989Y0.172
T3
X0.3153Y1.351
X0.3153Y1.251
X0.3153Y1.151
X0.3153Y0.986
X0.3153Y0.886
X0.3153Y0.786
X0.3153Y0.621
X0.3153Y0.521
X0.3153Y0.421
X0.4733Y1.635
X0.4733Y1.535
X0.4733Y1.435
X0.4733Y1.335
X0.4733Y1.235
X0.4733Y1.135
X0.4733Y1.035
X0.4733Y0.935
X0.4733Y0.835
X0.4733Y0.735
X0.4733Y0.635
X0.4733Y0.535
X0.4733Y0.435
X0.4733Y0.335
X0.4733Y0.235
X0.7701Y1.635
X0.7701Y1.535
X0.7701Y1.435
X0.7701Y1.335
X0.7701Y1.235
X0.7701Y1.135
X0.7701Y1.035
X0.7701Y0.935
X0.7701Y0.835
X0.7701Y0.735
X0.7701Y0.635
X0.7701Y0.535
X0.7701Y0.435
X0.7701Y0.335
X0.7701Y0.235
X1.2527Y1.8132
X1.2527Y1.7132
X1.2527Y1.6132
X1.2527Y1.5132
X1.2527Y1.4132
X1.2527Y1.3132
X1.2527Y1.2132
X1.2527Y1.1132
X1.2527Y1.0132
X1.2527Y0.8592
X1.2527Y0.7592
X1.2527Y0.6592
X1.2527Y0.5592
X1.2527Y0.4592
X1.2527Y0.3592
X1.2527Y0.2592
X1.2527Y0.1592
X1.2527Y0.0592
X1.3527Y1.8132
X1.3527Y1.7132
X1.3527Y1.6132
X1.3527Y1.5132
X1.3527Y1.4132
X1.3527Y1.3132
X1.3527Y1.2132
X1.3527Y1.1132
X1.3527Y1.0132
X1.3527Y0.8592
X1.3527Y0.7592
X1.3527Y0.6592
X1.3527Y0.5592
X1.3527Y0.4592
X1.3527Y0.3592
X1.3527Y0.2592
X1.3527Y0.1592
X1.3527Y0.0592
T0
M30
