%TF.GenerationSoftware,KiCad,Pcbnew,(6.0.10)*%
%TF.CreationDate,2023-02-12T21:50:31+09:00*%
%TF.ProjectId,joystick_gpio_input,6a6f7973-7469-4636-9b5f-6770696f5f69,1*%
%TF.SameCoordinates,PX7baf2f0PY78dfd90*%
%TF.FileFunction,Legend,Top*%
%TF.FilePolarity,Positive*%
%FSLAX46Y46*%
G04 Gerber Fmt 4.6, Leading zero omitted, Abs format (unit mm)*
G04 Created by KiCad (PCBNEW (6.0.10)) date 2023-02-12 21:50:31*
%MOMM*%
%LPD*%
G01*
G04 APERTURE LIST*
G04 Aperture macros list*
%AMRoundRect*
0 Rectangle with rounded corners*
0 $1 Rounding radius*
0 $2 $3 $4 $5 $6 $7 $8 $9 X,Y pos of 4 corners*
0 Add a 4 corners polygon primitive as box body*
4,1,4,$2,$3,$4,$5,$6,$7,$8,$9,$2,$3,0*
0 Add four circle primitives for the rounded corners*
1,1,$1+$1,$2,$3*
1,1,$1+$1,$4,$5*
1,1,$1+$1,$6,$7*
1,1,$1+$1,$8,$9*
0 Add four rect primitives between the rounded corners*
20,1,$1+$1,$2,$3,$4,$5,0*
20,1,$1+$1,$4,$5,$6,$7,0*
20,1,$1+$1,$6,$7,$8,$9,0*
20,1,$1+$1,$8,$9,$2,$3,0*%
G04 Aperture macros list end*
%ADD10C,0.150000*%
%ADD11C,0.120000*%
%ADD12RoundRect,0.250000X-0.350000X-0.450000X0.350000X-0.450000X0.350000X0.450000X-0.350000X0.450000X0*%
%ADD13R,1.700000X1.700000*%
%ADD14O,1.700000X1.700000*%
%ADD15RoundRect,0.200000X-0.450000X0.200000X-0.450000X-0.200000X0.450000X-0.200000X0.450000X0.200000X0*%
%ADD16O,1.300000X0.800000*%
G04 APERTURE END LIST*
D10*
X1845623Y9436500D02*
X1769433Y9473643D01*
X1655147Y9473643D01*
X1540861Y9436500D01*
X1464671Y9362215D01*
X1426576Y9287929D01*
X1388480Y9139358D01*
X1388480Y9027929D01*
X1426576Y8879358D01*
X1464671Y8805072D01*
X1540861Y8730786D01*
X1655147Y8693643D01*
X1731338Y8693643D01*
X1845623Y8730786D01*
X1883719Y8767929D01*
X1883719Y9027929D01*
X1731338Y9027929D01*
X817052Y7474986D02*
X931338Y7437843D01*
X1121814Y7437843D01*
X1198004Y7474986D01*
X1236100Y7512129D01*
X1274195Y7586415D01*
X1274195Y7660700D01*
X1236100Y7734986D01*
X1198004Y7772129D01*
X1121814Y7809272D01*
X969433Y7846415D01*
X893242Y7883558D01*
X855147Y7920700D01*
X817052Y7994986D01*
X817052Y8069272D01*
X855147Y8143558D01*
X893242Y8180700D01*
X969433Y8217843D01*
X1159909Y8217843D01*
X1274195Y8180700D01*
X1502766Y8217843D02*
X1959909Y8217843D01*
X1731338Y7437843D02*
X1731338Y8217843D01*
X778957Y6219186D02*
X893242Y6182043D01*
X1083719Y6182043D01*
X1159909Y6219186D01*
X1198004Y6256329D01*
X1236100Y6330615D01*
X1236100Y6404900D01*
X1198004Y6479186D01*
X1159909Y6516329D01*
X1083719Y6553472D01*
X931338Y6590615D01*
X855147Y6627758D01*
X817052Y6664900D01*
X778957Y6739186D01*
X778957Y6813472D01*
X817052Y6887758D01*
X855147Y6924900D01*
X931338Y6962043D01*
X1121814Y6962043D01*
X1236100Y6924900D01*
X1959909Y6182043D02*
X1578957Y6182043D01*
X1578957Y6962043D01*
X1845623Y5669100D02*
X1769433Y5706243D01*
X1655147Y5706243D01*
X1540861Y5669100D01*
X1464671Y5594815D01*
X1426576Y5520529D01*
X1388480Y5371958D01*
X1388480Y5260529D01*
X1426576Y5111958D01*
X1464671Y5037672D01*
X1540861Y4963386D01*
X1655147Y4926243D01*
X1731338Y4926243D01*
X1845623Y4963386D01*
X1883719Y5000529D01*
X1883719Y5260529D01*
X1731338Y5260529D01*
X1896423Y31024600D02*
X1820233Y31061743D01*
X1705947Y31061743D01*
X1591661Y31024600D01*
X1515471Y30950315D01*
X1477376Y30876029D01*
X1439280Y30727458D01*
X1439280Y30616029D01*
X1477376Y30467458D01*
X1515471Y30393172D01*
X1591661Y30318886D01*
X1705947Y30281743D01*
X1782138Y30281743D01*
X1896423Y30318886D01*
X1934519Y30356029D01*
X1934519Y30616029D01*
X1782138Y30616029D01*
X639280Y29805943D02*
X639280Y29174515D01*
X677376Y29100229D01*
X715471Y29063086D01*
X791661Y29025943D01*
X944042Y29025943D01*
X1020233Y29063086D01*
X1058328Y29100229D01*
X1096423Y29174515D01*
X1096423Y29805943D01*
X1477376Y29025943D02*
X1477376Y29805943D01*
X1782138Y29805943D01*
X1858328Y29768800D01*
X1896423Y29731658D01*
X1934519Y29657372D01*
X1934519Y29545943D01*
X1896423Y29471658D01*
X1858328Y29434515D01*
X1782138Y29397372D01*
X1477376Y29397372D01*
X639280Y27770143D02*
X639280Y28550143D01*
X829757Y28550143D01*
X944042Y28513000D01*
X1020233Y28438715D01*
X1058328Y28364429D01*
X1096423Y28215858D01*
X1096423Y28104429D01*
X1058328Y27955858D01*
X1020233Y27881572D01*
X944042Y27807286D01*
X829757Y27770143D01*
X639280Y27770143D01*
X1439280Y27770143D02*
X1439280Y28550143D01*
X1896423Y27770143D01*
X1896423Y28550143D01*
X2010709Y26514343D02*
X1629757Y26514343D01*
X1629757Y27294343D01*
X1324995Y25258543D02*
X1058328Y25629972D01*
X867852Y25258543D02*
X867852Y26038543D01*
X1172614Y26038543D01*
X1248804Y26001400D01*
X1286900Y25964258D01*
X1324995Y25889972D01*
X1324995Y25778543D01*
X1286900Y25704258D01*
X1248804Y25667115D01*
X1172614Y25629972D01*
X867852Y25629972D01*
X1782138Y26038543D02*
X1782138Y25852829D01*
X1591661Y25927115D02*
X1782138Y25852829D01*
X1972614Y25927115D01*
X1667852Y25704258D02*
X1782138Y25852829D01*
X1896423Y25704258D01*
X867852Y24039886D02*
X982138Y24002743D01*
X1172614Y24002743D01*
X1248804Y24039886D01*
X1286900Y24077029D01*
X1324995Y24151315D01*
X1324995Y24225600D01*
X1286900Y24299886D01*
X1248804Y24337029D01*
X1172614Y24374172D01*
X1020233Y24411315D01*
X944042Y24448458D01*
X905947Y24485600D01*
X867852Y24559886D01*
X867852Y24634172D01*
X905947Y24708458D01*
X944042Y24745600D01*
X1020233Y24782743D01*
X1210709Y24782743D01*
X1324995Y24745600D01*
X1553566Y24782743D02*
X2010709Y24782743D01*
X1782138Y24002743D02*
X1782138Y24782743D01*
X220233Y22784086D02*
X334519Y22746943D01*
X524995Y22746943D01*
X601185Y22784086D01*
X639280Y22821229D01*
X677376Y22895515D01*
X677376Y22969800D01*
X639280Y23044086D01*
X601185Y23081229D01*
X524995Y23118372D01*
X372614Y23155515D01*
X296423Y23192658D01*
X258328Y23229800D01*
X220233Y23304086D01*
X220233Y23378372D01*
X258328Y23452658D01*
X296423Y23489800D01*
X372614Y23526943D01*
X563090Y23526943D01*
X677376Y23489800D01*
X1401185Y22746943D02*
X1020233Y22746943D01*
X1020233Y23526943D01*
X1782138Y23526943D02*
X1782138Y23341229D01*
X1591661Y23415515D02*
X1782138Y23341229D01*
X1972614Y23415515D01*
X1667852Y23192658D02*
X1782138Y23341229D01*
X1896423Y23192658D01*
X1553566Y21714000D02*
X1934519Y21714000D01*
X1477376Y21491143D02*
X1744042Y22271143D01*
X2010709Y21491143D01*
X1744042Y20643915D02*
X1858328Y20606772D01*
X1896423Y20569629D01*
X1934519Y20495343D01*
X1934519Y20383915D01*
X1896423Y20309629D01*
X1858328Y20272486D01*
X1782138Y20235343D01*
X1477376Y20235343D01*
X1477376Y21015343D01*
X1744042Y21015343D01*
X1820233Y20978200D01*
X1858328Y20941058D01*
X1896423Y20866772D01*
X1896423Y20792486D01*
X1858328Y20718200D01*
X1820233Y20681058D01*
X1744042Y20643915D01*
X1477376Y20643915D01*
X1439280Y19759543D02*
X1972614Y18979543D01*
X1972614Y19759543D02*
X1439280Y18979543D01*
X1744042Y18095172D02*
X1744042Y17723743D01*
X1477376Y18503743D02*
X1744042Y18095172D01*
X2010709Y18503743D01*
X905947Y17247943D02*
X1363090Y17247943D01*
X1134519Y16467943D02*
X1134519Y17247943D01*
X2010709Y16467943D02*
X1629757Y16467943D01*
X1629757Y17247943D01*
X753566Y15992143D02*
X1210709Y15992143D01*
X982138Y15212143D02*
X982138Y15992143D01*
X1934519Y15212143D02*
X1667852Y15583572D01*
X1477376Y15212143D02*
X1477376Y15992143D01*
X1782138Y15992143D01*
X1858328Y15955000D01*
X1896423Y15917858D01*
X1934519Y15843572D01*
X1934519Y15732143D01*
X1896423Y15657858D01*
X1858328Y15620715D01*
X1782138Y15583572D01*
X1477376Y15583572D01*
X29757Y13956343D02*
X29757Y14736343D01*
X29757Y14364915D02*
X486900Y14364915D01*
X486900Y13956343D02*
X486900Y14736343D01*
X867852Y13956343D02*
X867852Y14736343D01*
X1324995Y13956343D02*
X982138Y14402058D01*
X1324995Y14736343D02*
X867852Y14290629D01*
X1782138Y14736343D02*
X1782138Y14550629D01*
X1591661Y14624915D02*
X1782138Y14550629D01*
X1972614Y14624915D01*
X1667852Y14402058D02*
X1782138Y14550629D01*
X1896423Y14402058D01*
X1896423Y13443400D02*
X1820233Y13480543D01*
X1705947Y13480543D01*
X1591661Y13443400D01*
X1515471Y13369115D01*
X1477376Y13294829D01*
X1439280Y13146258D01*
X1439280Y13034829D01*
X1477376Y12886258D01*
X1515471Y12811972D01*
X1591661Y12737686D01*
X1705947Y12700543D01*
X1782138Y12700543D01*
X1896423Y12737686D01*
X1934519Y12774829D01*
X1934519Y13034829D01*
X1782138Y13034829D01*
X1906423Y41502500D02*
X1830233Y41539643D01*
X1715947Y41539643D01*
X1601661Y41502500D01*
X1525471Y41428215D01*
X1487376Y41353929D01*
X1449280Y41205358D01*
X1449280Y41093929D01*
X1487376Y40945358D01*
X1525471Y40871072D01*
X1601661Y40796786D01*
X1715947Y40759643D01*
X1792138Y40759643D01*
X1906423Y40796786D01*
X1944519Y40833929D01*
X1944519Y41093929D01*
X1792138Y41093929D01*
X649280Y40283843D02*
X649280Y39652415D01*
X687376Y39578129D01*
X725471Y39540986D01*
X801661Y39503843D01*
X954042Y39503843D01*
X1030233Y39540986D01*
X1068328Y39578129D01*
X1106423Y39652415D01*
X1106423Y40283843D01*
X1487376Y39503843D02*
X1487376Y40283843D01*
X1792138Y40283843D01*
X1868328Y40246700D01*
X1906423Y40209558D01*
X1944519Y40135272D01*
X1944519Y40023843D01*
X1906423Y39949558D01*
X1868328Y39912415D01*
X1792138Y39875272D01*
X1487376Y39875272D01*
X649280Y38248043D02*
X649280Y39028043D01*
X839757Y39028043D01*
X954042Y38990900D01*
X1030233Y38916615D01*
X1068328Y38842329D01*
X1106423Y38693758D01*
X1106423Y38582329D01*
X1068328Y38433758D01*
X1030233Y38359472D01*
X954042Y38285186D01*
X839757Y38248043D01*
X649280Y38248043D01*
X1449280Y38248043D02*
X1449280Y39028043D01*
X1906423Y38248043D01*
X1906423Y39028043D01*
X2020709Y36992243D02*
X1639757Y36992243D01*
X1639757Y37772243D01*
X1944519Y35736443D02*
X1677852Y36107872D01*
X1487376Y35736443D02*
X1487376Y36516443D01*
X1792138Y36516443D01*
X1868328Y36479300D01*
X1906423Y36442158D01*
X1944519Y36367872D01*
X1944519Y36256443D01*
X1906423Y36182158D01*
X1868328Y36145015D01*
X1792138Y36107872D01*
X1487376Y36107872D01*
X1906423Y35223500D02*
X1830233Y35260643D01*
X1715947Y35260643D01*
X1601661Y35223500D01*
X1525471Y35149215D01*
X1487376Y35074929D01*
X1449280Y34926358D01*
X1449280Y34814929D01*
X1487376Y34666358D01*
X1525471Y34592072D01*
X1601661Y34517786D01*
X1715947Y34480643D01*
X1792138Y34480643D01*
X1906423Y34517786D01*
X1944519Y34554929D01*
X1944519Y34814929D01*
X1792138Y34814929D01*
X21065176Y41581820D02*
X21065176Y40942296D01*
X21103271Y40867058D01*
X21141366Y40829439D01*
X21217557Y40791820D01*
X21369938Y40791820D01*
X21446128Y40829439D01*
X21484223Y40867058D01*
X21522319Y40942296D01*
X21522319Y41581820D01*
X21903271Y40791820D02*
X21903271Y41581820D01*
X22208033Y41581820D01*
X22284223Y41544200D01*
X22322319Y41506581D01*
X22360414Y41431343D01*
X22360414Y41318486D01*
X22322319Y41243248D01*
X22284223Y41205629D01*
X22208033Y41168010D01*
X21903271Y41168010D01*
X20950890Y39038020D02*
X21408033Y39038020D01*
X21179461Y38248020D02*
X21179461Y39038020D01*
X22055652Y38248020D02*
X21674700Y38248020D01*
X21674700Y39038020D01*
X21484223Y36456600D02*
X21408033Y36494220D01*
X21293747Y36494220D01*
X21179461Y36456600D01*
X21103271Y36381362D01*
X21065176Y36306124D01*
X21027080Y36155648D01*
X21027080Y36042791D01*
X21065176Y35892315D01*
X21103271Y35817077D01*
X21179461Y35741839D01*
X21293747Y35704220D01*
X21369938Y35704220D01*
X21484223Y35741839D01*
X21522319Y35779458D01*
X21522319Y36042791D01*
X21369938Y36042791D01*
X20988985Y33950420D02*
X21522319Y33160420D01*
X21522319Y33950420D02*
X20988985Y33160420D01*
X21065176Y30616620D02*
X21065176Y31406620D01*
X21255652Y31406620D01*
X21369938Y31369000D01*
X21446128Y31293762D01*
X21484223Y31218524D01*
X21522319Y31068048D01*
X21522319Y30955191D01*
X21484223Y30804715D01*
X21446128Y30729477D01*
X21369938Y30654239D01*
X21255652Y30616620D01*
X21065176Y30616620D01*
X21865176Y30616620D02*
X21865176Y31406620D01*
X22322319Y30616620D01*
X22322319Y31406620D01*
X21217557Y28449010D02*
X21217557Y28072820D01*
X20950890Y28862820D02*
X21217557Y28449010D01*
X21484223Y28862820D01*
X21446128Y25529020D02*
X21065176Y25529020D01*
X21065176Y26319020D01*
X21522319Y22985220D02*
X21255652Y23361410D01*
X21065176Y22985220D02*
X21065176Y23775220D01*
X21369938Y23775220D01*
X21446128Y23737600D01*
X21484223Y23699981D01*
X21522319Y23624743D01*
X21522319Y23511886D01*
X21484223Y23436648D01*
X21446128Y23399029D01*
X21369938Y23361410D01*
X21065176Y23361410D01*
X20950890Y21231420D02*
X21408033Y21231420D01*
X21179461Y20441420D02*
X21179461Y21231420D01*
X22131842Y20441420D02*
X21865176Y20817610D01*
X21674700Y20441420D02*
X21674700Y21231420D01*
X21979461Y21231420D01*
X22055652Y21193800D01*
X22093747Y21156181D01*
X22131842Y21080943D01*
X22131842Y20968086D01*
X22093747Y20892848D01*
X22055652Y20855229D01*
X21979461Y20817610D01*
X21674700Y20817610D01*
X21331842Y18311429D02*
X21446128Y18273810D01*
X21484223Y18236191D01*
X21522319Y18160953D01*
X21522319Y18048096D01*
X21484223Y17972858D01*
X21446128Y17935239D01*
X21369938Y17897620D01*
X21065176Y17897620D01*
X21065176Y18687620D01*
X21331842Y18687620D01*
X21408033Y18650000D01*
X21446128Y18612381D01*
X21484223Y18537143D01*
X21484223Y18461905D01*
X21446128Y18386667D01*
X21408033Y18349048D01*
X21331842Y18311429D01*
X21065176Y18311429D01*
X21027080Y15391439D02*
X21141366Y15353820D01*
X21331842Y15353820D01*
X21408033Y15391439D01*
X21446128Y15429058D01*
X21484223Y15504296D01*
X21484223Y15579534D01*
X21446128Y15654772D01*
X21408033Y15692391D01*
X21331842Y15730010D01*
X21179461Y15767629D01*
X21103271Y15805248D01*
X21065176Y15842867D01*
X21027080Y15918105D01*
X21027080Y15993343D01*
X21065176Y16068581D01*
X21103271Y16106200D01*
X21179461Y16143820D01*
X21369938Y16143820D01*
X21484223Y16106200D01*
X21712795Y16143820D02*
X22169938Y16143820D01*
X21941366Y15353820D02*
X21941366Y16143820D01*
X21027080Y12847639D02*
X21141366Y12810020D01*
X21331842Y12810020D01*
X21408033Y12847639D01*
X21446128Y12885258D01*
X21484223Y12960496D01*
X21484223Y13035734D01*
X21446128Y13110972D01*
X21408033Y13148591D01*
X21331842Y13186210D01*
X21179461Y13223829D01*
X21103271Y13261448D01*
X21065176Y13299067D01*
X21027080Y13374305D01*
X21027080Y13449543D01*
X21065176Y13524781D01*
X21103271Y13562400D01*
X21179461Y13600020D01*
X21369938Y13600020D01*
X21484223Y13562400D01*
X22208033Y12810020D02*
X21827080Y12810020D01*
X21827080Y13600020D01*
X21027080Y10491934D02*
X21408033Y10491934D01*
X20950890Y10266220D02*
X21217557Y11056220D01*
X21484223Y10266220D01*
X21065176Y7722420D02*
X21065176Y8512420D01*
X21065176Y8136229D02*
X21522319Y8136229D01*
X21522319Y7722420D02*
X21522319Y8512420D01*
X21903271Y7722420D02*
X21903271Y8512420D01*
X22360414Y7722420D02*
X22017557Y8173848D01*
X22360414Y8512420D02*
X21903271Y8060991D01*
X21484223Y5931000D02*
X21408033Y5968620D01*
X21293747Y5968620D01*
X21179461Y5931000D01*
X21103271Y5855762D01*
X21065176Y5780524D01*
X21027080Y5630048D01*
X21027080Y5517191D01*
X21065176Y5366715D01*
X21103271Y5291477D01*
X21179461Y5216239D01*
X21293747Y5178620D01*
X21369938Y5178620D01*
X21484223Y5216239D01*
X21522319Y5253858D01*
X21522319Y5517191D01*
X21369938Y5517191D01*
X7515628Y26279915D02*
X7265628Y26637058D01*
X7087057Y26279915D02*
X7087057Y27029915D01*
X7372771Y27029915D01*
X7444200Y26994200D01*
X7479914Y26958486D01*
X7515628Y26887058D01*
X7515628Y26779915D01*
X7479914Y26708486D01*
X7444200Y26672772D01*
X7372771Y26637058D01*
X7087057Y26637058D01*
X7944200Y27029915D02*
X7944200Y26851343D01*
X7765628Y26922772D02*
X7944200Y26851343D01*
X8122771Y26922772D01*
X7837057Y26708486D02*
X7944200Y26851343D01*
X8051342Y26708486D01*
X5339533Y45197734D02*
X5815723Y45197734D01*
X5244295Y44912020D02*
X5577628Y45912020D01*
X5910961Y44912020D01*
X6244295Y44912020D02*
X6244295Y45578686D01*
X6244295Y45483448D02*
X6291914Y45531067D01*
X6387152Y45578686D01*
X6530009Y45578686D01*
X6625247Y45531067D01*
X6672866Y45435829D01*
X6672866Y44912020D01*
X6672866Y45435829D02*
X6720485Y45531067D01*
X6815723Y45578686D01*
X6958580Y45578686D01*
X7053819Y45531067D01*
X7101438Y45435829D01*
X7101438Y44912020D01*
X7720485Y44912020D02*
X7625247Y44959639D01*
X7577628Y45007258D01*
X7530009Y45102496D01*
X7530009Y45388210D01*
X7577628Y45483448D01*
X7625247Y45531067D01*
X7720485Y45578686D01*
X7863342Y45578686D01*
X7958580Y45531067D01*
X8006200Y45483448D01*
X8053819Y45388210D01*
X8053819Y45102496D01*
X8006200Y45007258D01*
X7958580Y44959639D01*
X7863342Y44912020D01*
X7720485Y44912020D01*
X8434771Y44959639D02*
X8530009Y44912020D01*
X8720485Y44912020D01*
X8815723Y44959639D01*
X8863342Y45054877D01*
X8863342Y45102496D01*
X8815723Y45197734D01*
X8720485Y45245353D01*
X8577628Y45245353D01*
X8482390Y45292972D01*
X8434771Y45388210D01*
X8434771Y45435829D01*
X8482390Y45531067D01*
X8577628Y45578686D01*
X8720485Y45578686D01*
X8815723Y45531067D01*
X10577628Y45864400D02*
X10482390Y45912020D01*
X10339533Y45912020D01*
X10196676Y45864400D01*
X10101438Y45769162D01*
X10053819Y45673924D01*
X10006200Y45483448D01*
X10006200Y45340591D01*
X10053819Y45150115D01*
X10101438Y45054877D01*
X10196676Y44959639D01*
X10339533Y44912020D01*
X10434771Y44912020D01*
X10577628Y44959639D01*
X10625247Y45007258D01*
X10625247Y45340591D01*
X10434771Y45340591D01*
X11053819Y44912020D02*
X11053819Y45912020D01*
X11434771Y45912020D01*
X11530009Y45864400D01*
X11577628Y45816781D01*
X11625247Y45721543D01*
X11625247Y45578686D01*
X11577628Y45483448D01*
X11530009Y45435829D01*
X11434771Y45388210D01*
X11053819Y45388210D01*
X12053819Y44912020D02*
X12053819Y45912020D01*
X12720485Y45912020D02*
X12910961Y45912020D01*
X13006200Y45864400D01*
X13101438Y45769162D01*
X13149057Y45578686D01*
X13149057Y45245353D01*
X13101438Y45054877D01*
X13006200Y44959639D01*
X12910961Y44912020D01*
X12720485Y44912020D01*
X12625247Y44959639D01*
X12530009Y45054877D01*
X12482390Y45245353D01*
X12482390Y45578686D01*
X12530009Y45769162D01*
X12625247Y45864400D01*
X12720485Y45912020D01*
X14339533Y44912020D02*
X14339533Y45912020D01*
X14815723Y45578686D02*
X14815723Y44912020D01*
X14815723Y45483448D02*
X14863342Y45531067D01*
X14958580Y45578686D01*
X15101438Y45578686D01*
X15196676Y45531067D01*
X15244295Y45435829D01*
X15244295Y44912020D01*
X15720485Y45578686D02*
X15720485Y44578686D01*
X15720485Y45531067D02*
X15815723Y45578686D01*
X16006200Y45578686D01*
X16101438Y45531067D01*
X16149057Y45483448D01*
X16196676Y45388210D01*
X16196676Y45102496D01*
X16149057Y45007258D01*
X16101438Y44959639D01*
X16006200Y44912020D01*
X15815723Y44912020D01*
X15720485Y44959639D01*
X17053819Y45578686D02*
X17053819Y44912020D01*
X16625247Y45578686D02*
X16625247Y45054877D01*
X16672866Y44959639D01*
X16768104Y44912020D01*
X16910961Y44912020D01*
X17006200Y44959639D01*
X17053819Y45007258D01*
X17387152Y45578686D02*
X17768104Y45578686D01*
X17530009Y45912020D02*
X17530009Y45054877D01*
X17577628Y44959639D01*
X17672866Y44912020D01*
X17768104Y44912020D01*
X6635866Y8223296D02*
X6635866Y9023296D01*
X6635866Y8642343D02*
X7093009Y8642343D01*
X7093009Y8223296D02*
X7093009Y9023296D01*
X7473961Y8223296D02*
X7473961Y9023296D01*
X7931104Y8223296D02*
X7588247Y8680439D01*
X7931104Y9023296D02*
X7473961Y8566153D01*
X8388247Y9023296D02*
X8388247Y8832820D01*
X8197771Y8909010D02*
X8388247Y8832820D01*
X8578723Y8909010D01*
X8273961Y8680439D02*
X8388247Y8832820D01*
X8502533Y8680439D01*
X8700076Y2711429D02*
X9004838Y2711429D01*
X8814361Y2178096D02*
X8814361Y2863810D01*
X8852457Y2940000D01*
X8928647Y2978096D01*
X9004838Y2978096D01*
X9385790Y2178096D02*
X9309600Y2216191D01*
X9271504Y2254286D01*
X9233409Y2330477D01*
X9233409Y2559048D01*
X9271504Y2635239D01*
X9309600Y2673334D01*
X9385790Y2711429D01*
X9500076Y2711429D01*
X9576266Y2673334D01*
X9614361Y2635239D01*
X9652457Y2559048D01*
X9652457Y2330477D01*
X9614361Y2254286D01*
X9576266Y2216191D01*
X9500076Y2178096D01*
X9385790Y2178096D01*
X9995314Y2178096D02*
X9995314Y2711429D01*
X9995314Y2559048D02*
X10033409Y2635239D01*
X10071504Y2673334D01*
X10147695Y2711429D01*
X10223885Y2711429D01*
X11557219Y2178096D02*
X11290552Y2559048D01*
X11100076Y2178096D02*
X11100076Y2978096D01*
X11404838Y2978096D01*
X11481028Y2940000D01*
X11519123Y2901905D01*
X11557219Y2825715D01*
X11557219Y2711429D01*
X11519123Y2635239D01*
X11481028Y2597143D01*
X11404838Y2559048D01*
X11100076Y2559048D01*
X12242933Y2178096D02*
X12242933Y2597143D01*
X12204838Y2673334D01*
X12128647Y2711429D01*
X11976266Y2711429D01*
X11900076Y2673334D01*
X12242933Y2216191D02*
X12166742Y2178096D01*
X11976266Y2178096D01*
X11900076Y2216191D01*
X11861980Y2292381D01*
X11861980Y2368572D01*
X11900076Y2444762D01*
X11976266Y2482858D01*
X12166742Y2482858D01*
X12242933Y2520953D01*
X12585790Y2216191D02*
X12661980Y2178096D01*
X12814361Y2178096D01*
X12890552Y2216191D01*
X12928647Y2292381D01*
X12928647Y2330477D01*
X12890552Y2406667D01*
X12814361Y2444762D01*
X12700076Y2444762D01*
X12623885Y2482858D01*
X12585790Y2559048D01*
X12585790Y2597143D01*
X12623885Y2673334D01*
X12700076Y2711429D01*
X12814361Y2711429D01*
X12890552Y2673334D01*
X13271504Y2711429D02*
X13271504Y1911429D01*
X13271504Y2673334D02*
X13347695Y2711429D01*
X13500076Y2711429D01*
X13576266Y2673334D01*
X13614361Y2635239D01*
X13652457Y2559048D01*
X13652457Y2330477D01*
X13614361Y2254286D01*
X13576266Y2216191D01*
X13500076Y2178096D01*
X13347695Y2178096D01*
X13271504Y2216191D01*
X13995314Y2178096D02*
X13995314Y2978096D01*
X13995314Y2673334D02*
X14071504Y2711429D01*
X14223885Y2711429D01*
X14300076Y2673334D01*
X14338171Y2635239D01*
X14376266Y2559048D01*
X14376266Y2330477D01*
X14338171Y2254286D01*
X14300076Y2216191D01*
X14223885Y2178096D01*
X14071504Y2178096D01*
X13995314Y2216191D01*
X15023885Y2216191D02*
X14947695Y2178096D01*
X14795314Y2178096D01*
X14719123Y2216191D01*
X14681028Y2292381D01*
X14681028Y2597143D01*
X14719123Y2673334D01*
X14795314Y2711429D01*
X14947695Y2711429D01*
X15023885Y2673334D01*
X15061980Y2597143D01*
X15061980Y2520953D01*
X14681028Y2444762D01*
X15404838Y2178096D02*
X15404838Y2711429D01*
X15404838Y2559048D02*
X15442933Y2635239D01*
X15481028Y2673334D01*
X15557219Y2711429D01*
X15633409Y2711429D01*
X15900076Y2178096D02*
X15900076Y2711429D01*
X15900076Y2559048D02*
X15938171Y2635239D01*
X15976266Y2673334D01*
X16052457Y2711429D01*
X16128647Y2711429D01*
X16319123Y2711429D02*
X16509600Y2178096D01*
X16700076Y2711429D02*
X16509600Y2178096D01*
X16433409Y1987620D01*
X16395314Y1949524D01*
X16319123Y1911429D01*
X17004838Y2178096D02*
X17004838Y2978096D01*
X17309600Y2978096D01*
X17385790Y2940000D01*
X17423885Y2901905D01*
X17461980Y2825715D01*
X17461980Y2711429D01*
X17423885Y2635239D01*
X17385790Y2597143D01*
X17309600Y2559048D01*
X17004838Y2559048D01*
X17804838Y2178096D02*
X17804838Y2711429D01*
X17804838Y2978096D02*
X17766742Y2940000D01*
X17804838Y2901905D01*
X17842933Y2940000D01*
X17804838Y2978096D01*
X17804838Y2901905D01*
X6712057Y17252991D02*
X6826342Y17214896D01*
X7016819Y17214896D01*
X7093009Y17252991D01*
X7131104Y17291086D01*
X7169200Y17367277D01*
X7169200Y17443467D01*
X7131104Y17519658D01*
X7093009Y17557753D01*
X7016819Y17595848D01*
X6864438Y17633943D01*
X6788247Y17672039D01*
X6750152Y17710134D01*
X6712057Y17786324D01*
X6712057Y17862515D01*
X6750152Y17938705D01*
X6788247Y17976800D01*
X6864438Y18014896D01*
X7054914Y18014896D01*
X7169200Y17976800D01*
X7893009Y17214896D02*
X7512057Y17214896D01*
X7512057Y18014896D01*
X8273961Y18014896D02*
X8273961Y17824420D01*
X8083485Y17900610D02*
X8273961Y17824420D01*
X8464438Y17900610D01*
X8159676Y17672039D02*
X8273961Y17824420D01*
X8388247Y17672039D01*
X15259171Y43326096D02*
X14992504Y43707048D01*
X14802028Y43326096D02*
X14802028Y44126096D01*
X15106790Y44126096D01*
X15182980Y44088000D01*
X15221076Y44049905D01*
X15259171Y43973715D01*
X15259171Y43859429D01*
X15221076Y43783239D01*
X15182980Y43745143D01*
X15106790Y43707048D01*
X14802028Y43707048D01*
X15906790Y43364191D02*
X15830600Y43326096D01*
X15678219Y43326096D01*
X15602028Y43364191D01*
X15563933Y43440381D01*
X15563933Y43745143D01*
X15602028Y43821334D01*
X15678219Y43859429D01*
X15830600Y43859429D01*
X15906790Y43821334D01*
X15944885Y43745143D01*
X15944885Y43668953D01*
X15563933Y43592762D01*
X16211552Y43859429D02*
X16402028Y43326096D01*
X16592504Y43859429D01*
X16897266Y43402286D02*
X16935361Y43364191D01*
X16897266Y43326096D01*
X16859171Y43364191D01*
X16897266Y43402286D01*
X16897266Y43326096D01*
X17697266Y43326096D02*
X17240123Y43326096D01*
X17468695Y43326096D02*
X17468695Y44126096D01*
X17392504Y44011810D01*
X17316314Y43935620D01*
X17240123Y43897524D01*
X17064623Y41544200D02*
X16988433Y41581820D01*
X16874147Y41581820D01*
X16759861Y41544200D01*
X16683671Y41468962D01*
X16645576Y41393724D01*
X16607480Y41243248D01*
X16607480Y41130391D01*
X16645576Y40979915D01*
X16683671Y40904677D01*
X16759861Y40829439D01*
X16874147Y40791820D01*
X16950338Y40791820D01*
X17064623Y40829439D01*
X17102719Y40867058D01*
X17102719Y41130391D01*
X16950338Y41130391D01*
X16645576Y39038020D02*
X16645576Y38398496D01*
X16683671Y38323258D01*
X16721766Y38285639D01*
X16797957Y38248020D01*
X16950338Y38248020D01*
X17026528Y38285639D01*
X17064623Y38323258D01*
X17102719Y38398496D01*
X17102719Y39038020D01*
X17483671Y38248020D02*
X17483671Y39038020D01*
X17788433Y39038020D01*
X17864623Y39000400D01*
X17902719Y38962781D01*
X17940814Y38887543D01*
X17940814Y38774686D01*
X17902719Y38699448D01*
X17864623Y38661829D01*
X17788433Y38624210D01*
X17483671Y38624210D01*
X16645576Y35704220D02*
X16645576Y36494220D01*
X16836052Y36494220D01*
X16950338Y36456600D01*
X17026528Y36381362D01*
X17064623Y36306124D01*
X17102719Y36155648D01*
X17102719Y36042791D01*
X17064623Y35892315D01*
X17026528Y35817077D01*
X16950338Y35741839D01*
X16836052Y35704220D01*
X16645576Y35704220D01*
X17445576Y35704220D02*
X17445576Y36494220D01*
X17902719Y35704220D01*
X17902719Y36494220D01*
X17026528Y33160420D02*
X16645576Y33160420D01*
X16645576Y33950420D01*
X17102719Y30616620D02*
X16836052Y30992810D01*
X16645576Y30616620D02*
X16645576Y31406620D01*
X16950338Y31406620D01*
X17026528Y31369000D01*
X17064623Y31331381D01*
X17102719Y31256143D01*
X17102719Y31143286D01*
X17064623Y31068048D01*
X17026528Y31030429D01*
X16950338Y30992810D01*
X16645576Y30992810D01*
X16607480Y28110439D02*
X16721766Y28072820D01*
X16912242Y28072820D01*
X16988433Y28110439D01*
X17026528Y28148058D01*
X17064623Y28223296D01*
X17064623Y28298534D01*
X17026528Y28373772D01*
X16988433Y28411391D01*
X16912242Y28449010D01*
X16759861Y28486629D01*
X16683671Y28524248D01*
X16645576Y28561867D01*
X16607480Y28637105D01*
X16607480Y28712343D01*
X16645576Y28787581D01*
X16683671Y28825200D01*
X16759861Y28862820D01*
X16950338Y28862820D01*
X17064623Y28825200D01*
X17293195Y28862820D02*
X17750338Y28862820D01*
X17521766Y28072820D02*
X17521766Y28862820D01*
X16607480Y25566639D02*
X16721766Y25529020D01*
X16912242Y25529020D01*
X16988433Y25566639D01*
X17026528Y25604258D01*
X17064623Y25679496D01*
X17064623Y25754734D01*
X17026528Y25829972D01*
X16988433Y25867591D01*
X16912242Y25905210D01*
X16759861Y25942829D01*
X16683671Y25980448D01*
X16645576Y26018067D01*
X16607480Y26093305D01*
X16607480Y26168543D01*
X16645576Y26243781D01*
X16683671Y26281400D01*
X16759861Y26319020D01*
X16950338Y26319020D01*
X17064623Y26281400D01*
X17788433Y25529020D02*
X17407480Y25529020D01*
X17407480Y26319020D01*
X16607480Y23210934D02*
X16988433Y23210934D01*
X16531290Y22985220D02*
X16797957Y23775220D01*
X17064623Y22985220D01*
X16912242Y20855229D02*
X17026528Y20817610D01*
X17064623Y20779991D01*
X17102719Y20704753D01*
X17102719Y20591896D01*
X17064623Y20516658D01*
X17026528Y20479039D01*
X16950338Y20441420D01*
X16645576Y20441420D01*
X16645576Y21231420D01*
X16912242Y21231420D01*
X16988433Y21193800D01*
X17026528Y21156181D01*
X17064623Y21080943D01*
X17064623Y21005705D01*
X17026528Y20930467D01*
X16988433Y20892848D01*
X16912242Y20855229D01*
X16645576Y20855229D01*
X16569385Y18687620D02*
X17102719Y17897620D01*
X17102719Y18687620D02*
X16569385Y17897620D01*
X16797957Y15730010D02*
X16797957Y15353820D01*
X16531290Y16143820D02*
X16797957Y15730010D01*
X17064623Y16143820D01*
X16531290Y13600020D02*
X16988433Y13600020D01*
X16759861Y12810020D02*
X16759861Y13600020D01*
X17636052Y12810020D02*
X17255100Y12810020D01*
X17255100Y13600020D01*
X16531290Y11056220D02*
X16988433Y11056220D01*
X16759861Y10266220D02*
X16759861Y11056220D01*
X17712242Y10266220D02*
X17445576Y10642410D01*
X17255100Y10266220D02*
X17255100Y11056220D01*
X17559861Y11056220D01*
X17636052Y11018600D01*
X17674147Y10980981D01*
X17712242Y10905743D01*
X17712242Y10792886D01*
X17674147Y10717648D01*
X17636052Y10680029D01*
X17559861Y10642410D01*
X17255100Y10642410D01*
X16645576Y7722420D02*
X16645576Y8512420D01*
X16645576Y8136229D02*
X17102719Y8136229D01*
X17102719Y7722420D02*
X17102719Y8512420D01*
X17483671Y7722420D02*
X17483671Y8512420D01*
X17940814Y7722420D02*
X17597957Y8173848D01*
X17940814Y8512420D02*
X17483671Y8060991D01*
X17064623Y5931000D02*
X16988433Y5968620D01*
X16874147Y5968620D01*
X16759861Y5931000D01*
X16683671Y5855762D01*
X16645576Y5780524D01*
X16607480Y5630048D01*
X16607480Y5517191D01*
X16645576Y5366715D01*
X16683671Y5291477D01*
X16759861Y5216239D01*
X16874147Y5178620D01*
X16950338Y5178620D01*
X17064623Y5216239D01*
X17102719Y5253858D01*
X17102719Y5517191D01*
X16950338Y5517191D01*
%TO.C,R13*%
X10649028Y6865296D02*
X10496647Y6865296D01*
X10420457Y6827200D01*
X10382361Y6789105D01*
X10306171Y6674820D01*
X10268076Y6522439D01*
X10268076Y6217677D01*
X10306171Y6141486D01*
X10344266Y6103391D01*
X10420457Y6065296D01*
X10572838Y6065296D01*
X10649028Y6103391D01*
X10687123Y6141486D01*
X10725219Y6217677D01*
X10725219Y6408153D01*
X10687123Y6484343D01*
X10649028Y6522439D01*
X10572838Y6560534D01*
X10420457Y6560534D01*
X10344266Y6522439D01*
X10306171Y6484343D01*
X10268076Y6408153D01*
X11068076Y6065296D02*
X11068076Y6865296D01*
X11525219Y6065296D02*
X11182361Y6522439D01*
X11525219Y6865296D02*
X11068076Y6408153D01*
X11982361Y6522439D02*
X11906171Y6560534D01*
X11868076Y6598629D01*
X11829980Y6674820D01*
X11829980Y6712915D01*
X11868076Y6789105D01*
X11906171Y6827200D01*
X11982361Y6865296D01*
X12134742Y6865296D01*
X12210933Y6827200D01*
X12249028Y6789105D01*
X12287123Y6712915D01*
X12287123Y6674820D01*
X12249028Y6598629D01*
X12210933Y6560534D01*
X12134742Y6522439D01*
X11982361Y6522439D01*
X11906171Y6484343D01*
X11868076Y6446248D01*
X11829980Y6370058D01*
X11829980Y6217677D01*
X11868076Y6141486D01*
X11906171Y6103391D01*
X11982361Y6065296D01*
X12134742Y6065296D01*
X12210933Y6103391D01*
X12249028Y6141486D01*
X12287123Y6217677D01*
X12287123Y6370058D01*
X12249028Y6446248D01*
X12210933Y6484343D01*
X12134742Y6522439D01*
D11*
%TO.C,R10*%
X11050536Y16432200D02*
X11504664Y16432200D01*
X11050536Y14962200D02*
X11504664Y14962200D01*
%TO.C,R12*%
X11050536Y11352200D02*
X11504664Y11352200D01*
X11050536Y9882200D02*
X11504664Y9882200D01*
%TO.C,J5*%
X18075600Y39878000D02*
X18075600Y4258000D01*
X18075600Y4258000D02*
X20735600Y4258000D01*
X18075600Y42478000D02*
X19405600Y42478000D01*
X20735600Y39878000D02*
X20735600Y4258000D01*
X18075600Y41148000D02*
X18075600Y42478000D01*
X18075600Y39878000D02*
X20735600Y39878000D01*
%TO.C,R13*%
X11050536Y7342200D02*
X11504664Y7342200D01*
X11050536Y8812200D02*
X11504664Y8812200D01*
%TO.C,R11*%
X11050536Y12422200D02*
X11504664Y12422200D01*
X11050536Y13892200D02*
X11504664Y13892200D01*
%TO.C,R4*%
X11050536Y31672200D02*
X11504664Y31672200D01*
X11050536Y30202200D02*
X11504664Y30202200D01*
%TO.C,R9*%
X11050536Y18972200D02*
X11504664Y18972200D01*
X11050536Y17502200D02*
X11504664Y17502200D01*
%TO.C,R5*%
X11050536Y29132200D02*
X11504664Y29132200D01*
X11050536Y27662200D02*
X11504664Y27662200D01*
%TO.C,JP3*%
X6239200Y15595600D02*
X6239200Y16925600D01*
X6239200Y14325600D02*
X8899200Y14325600D01*
X6239200Y14325600D02*
X6239200Y9185600D01*
X8899200Y14325600D02*
X8899200Y9185600D01*
X6239200Y9185600D02*
X8899200Y9185600D01*
X6239200Y16925600D02*
X7569200Y16925600D01*
%TO.C,R2*%
X11050536Y36752200D02*
X11504664Y36752200D01*
X11050536Y35282200D02*
X11504664Y35282200D01*
%TO.C,J1*%
X4254400Y33747200D02*
X5104400Y33747200D01*
X5104400Y42197200D02*
X5104400Y37972200D01*
X1904400Y42997200D02*
X1904400Y41997200D01*
X5614400Y33237200D02*
X5614400Y42707200D01*
X4254400Y42197200D02*
X5104400Y42197200D01*
X1904400Y42997200D02*
X2904400Y42997200D01*
X2704400Y37972200D02*
X2704400Y33747200D01*
X2704400Y42197200D02*
X3454400Y42197200D01*
X2194400Y33237200D02*
X5614400Y33237200D01*
X5104400Y33747200D02*
X5104400Y37972200D01*
X2704400Y37972200D02*
X2704400Y42197200D01*
X4254400Y42397200D02*
X4254400Y42197200D01*
X3454400Y42197200D02*
X3454400Y42397200D01*
X3454400Y33547200D02*
X4254400Y33547200D01*
X5614400Y42707200D02*
X2194400Y42707200D01*
X2704400Y33747200D02*
X3454400Y33747200D01*
X3454400Y33747200D02*
X3454400Y33547200D01*
X2194400Y42707200D02*
X2194400Y33237200D01*
X4254400Y33547200D02*
X4254400Y33747200D01*
X3454400Y42397200D02*
X4254400Y42397200D01*
%TO.C,R8*%
X11050536Y21512200D02*
X11504664Y21512200D01*
X11050536Y20042200D02*
X11504664Y20042200D01*
%TO.C,R3*%
X11050536Y32742200D02*
X11504664Y32742200D01*
X11050536Y34212200D02*
X11504664Y34212200D01*
%TO.C,J3*%
X2194400Y11573200D02*
X5614400Y11573200D01*
X3454400Y31983200D02*
X4254400Y31983200D01*
X5104400Y12083200D02*
X5104400Y21933200D01*
X2704400Y21933200D02*
X2704400Y12083200D01*
X3454400Y11883200D02*
X4254400Y11883200D01*
X2704400Y21933200D02*
X2704400Y31783200D01*
X3454400Y12083200D02*
X3454400Y11883200D01*
X1904400Y32583200D02*
X1904400Y31583200D01*
X1904400Y32583200D02*
X2904400Y32583200D01*
X4254400Y31983200D02*
X4254400Y31783200D01*
X2704400Y31783200D02*
X3454400Y31783200D01*
X2704400Y12083200D02*
X3454400Y12083200D01*
X5104400Y31783200D02*
X5104400Y21933200D01*
X4254400Y12083200D02*
X5104400Y12083200D01*
X4254400Y11883200D02*
X4254400Y12083200D01*
X3454400Y31783200D02*
X3454400Y31983200D01*
X5614400Y32293200D02*
X2194400Y32293200D01*
X4254400Y31783200D02*
X5104400Y31783200D01*
X2194400Y32293200D02*
X2194400Y11573200D01*
X5614400Y11573200D02*
X5614400Y32293200D01*
%TO.C,JP1*%
X6239200Y32359600D02*
X8899200Y32359600D01*
X8899200Y32359600D02*
X8899200Y27219600D01*
X6239200Y34959600D02*
X7569200Y34959600D01*
X6239200Y32359600D02*
X6239200Y27219600D01*
X6239200Y27219600D02*
X8899200Y27219600D01*
X6239200Y33629600D02*
X6239200Y34959600D01*
%TO.C,J4*%
X13706800Y42427200D02*
X15036800Y42427200D01*
X13706800Y41097200D02*
X13706800Y42427200D01*
X13706800Y4207200D02*
X16366800Y4207200D01*
X13706800Y39827200D02*
X13706800Y4207200D01*
X13706800Y39827200D02*
X16366800Y39827200D01*
X16366800Y39827200D02*
X16366800Y4207200D01*
%TO.C,JP2*%
X6239200Y23342600D02*
X6239200Y18202600D01*
X6239200Y18202600D02*
X8899200Y18202600D01*
X6239200Y25942600D02*
X7569200Y25942600D01*
X6239200Y24612600D02*
X6239200Y25942600D01*
X8899200Y23342600D02*
X8899200Y18202600D01*
X6239200Y23342600D02*
X8899200Y23342600D01*
%TO.C,J2*%
X5614400Y3733200D02*
X5614400Y10703200D01*
X5104400Y10193200D02*
X5104400Y7218200D01*
X4254400Y4243200D02*
X5104400Y4243200D01*
X1904400Y10993200D02*
X1904400Y9993200D01*
X2194400Y10703200D02*
X2194400Y3733200D01*
X3454400Y10393200D02*
X4254400Y10393200D01*
X3454400Y10193200D02*
X3454400Y10393200D01*
X2704400Y4243200D02*
X3454400Y4243200D01*
X3454400Y4043200D02*
X4254400Y4043200D01*
X2704400Y10193200D02*
X3454400Y10193200D01*
X5614400Y10703200D02*
X2194400Y10703200D01*
X2704400Y7218200D02*
X2704400Y4243200D01*
X3454400Y4243200D02*
X3454400Y4043200D01*
X2704400Y7218200D02*
X2704400Y10193200D01*
X4254400Y4043200D02*
X4254400Y4243200D01*
X4254400Y10393200D02*
X4254400Y10193200D01*
X2194400Y3733200D02*
X5614400Y3733200D01*
X4254400Y10193200D02*
X5104400Y10193200D01*
X1904400Y10993200D02*
X2904400Y10993200D01*
X5104400Y4243200D02*
X5104400Y7218200D01*
%TO.C,R7*%
X11050536Y24052200D02*
X11504664Y24052200D01*
X11050536Y22582200D02*
X11504664Y22582200D01*
%TO.C,R6*%
X11050536Y25122200D02*
X11504664Y25122200D01*
X11050536Y26592200D02*
X11504664Y26592200D01*
%TO.C,R1*%
X11050536Y37822200D02*
X11504664Y37822200D01*
X11050536Y39292200D02*
X11504664Y39292200D01*
%TD*%
%LPC*%
D12*
%TO.C,R10*%
X10277600Y15697200D03*
X12277600Y15697200D03*
%TD*%
%TO.C,R12*%
X10277600Y10617200D03*
X12277600Y10617200D03*
%TD*%
D13*
%TO.C,J5*%
X19405600Y41148000D03*
D14*
X19405600Y38608000D03*
X19405600Y36068000D03*
X19405600Y33528000D03*
X19405600Y30988000D03*
X19405600Y28448000D03*
X19405600Y25908000D03*
X19405600Y23368000D03*
X19405600Y20828000D03*
X19405600Y18288000D03*
X19405600Y15748000D03*
X19405600Y13208000D03*
X19405600Y10668000D03*
X19405600Y8128000D03*
X19405600Y5588000D03*
%TD*%
D12*
%TO.C,R13*%
X10277600Y8077200D03*
X12277600Y8077200D03*
%TD*%
%TO.C,R11*%
X10277600Y13157200D03*
X12277600Y13157200D03*
%TD*%
%TO.C,R4*%
X10277600Y30937200D03*
X12277600Y30937200D03*
%TD*%
%TO.C,R9*%
X10277600Y18237200D03*
X12277600Y18237200D03*
%TD*%
%TO.C,R5*%
X10277600Y28397200D03*
X12277600Y28397200D03*
%TD*%
D13*
%TO.C,JP3*%
X7569200Y15595600D03*
D14*
X7569200Y13055600D03*
X7569200Y10515600D03*
%TD*%
D12*
%TO.C,R2*%
X10277600Y36017200D03*
X12277600Y36017200D03*
%TD*%
D15*
%TO.C,J1*%
X3454400Y41097200D03*
D16*
X3454400Y39847200D03*
X3454400Y38597200D03*
X3454400Y37347200D03*
X3454400Y36097200D03*
X3454400Y34847200D03*
%TD*%
D12*
%TO.C,R8*%
X10277600Y20777200D03*
X12277600Y20777200D03*
%TD*%
%TO.C,R3*%
X10277600Y33477200D03*
X12277600Y33477200D03*
%TD*%
D15*
%TO.C,J3*%
X3454400Y30683200D03*
D16*
X3454400Y29433200D03*
X3454400Y28183200D03*
X3454400Y26933200D03*
X3454400Y25683200D03*
X3454400Y24433200D03*
X3454400Y23183200D03*
X3454400Y21933200D03*
X3454400Y20683200D03*
X3454400Y19433200D03*
X3454400Y18183200D03*
X3454400Y16933200D03*
X3454400Y15683200D03*
X3454400Y14433200D03*
X3454400Y13183200D03*
%TD*%
D13*
%TO.C,JP1*%
X7569200Y33629600D03*
D14*
X7569200Y31089600D03*
X7569200Y28549600D03*
%TD*%
D13*
%TO.C,J4*%
X15036800Y41097200D03*
D14*
X15036800Y38557200D03*
X15036800Y36017200D03*
X15036800Y33477200D03*
X15036800Y30937200D03*
X15036800Y28397200D03*
X15036800Y25857200D03*
X15036800Y23317200D03*
X15036800Y20777200D03*
X15036800Y18237200D03*
X15036800Y15697200D03*
X15036800Y13157200D03*
X15036800Y10617200D03*
X15036800Y8077200D03*
X15036800Y5537200D03*
%TD*%
D13*
%TO.C,JP2*%
X7569200Y24612600D03*
D14*
X7569200Y22072600D03*
X7569200Y19532600D03*
%TD*%
D15*
%TO.C,J2*%
X3454400Y9093200D03*
D16*
X3454400Y7843200D03*
X3454400Y6593200D03*
X3454400Y5343200D03*
%TD*%
D12*
%TO.C,R7*%
X10277600Y23317200D03*
X12277600Y23317200D03*
%TD*%
%TO.C,R6*%
X12277600Y25857200D03*
X10277600Y25857200D03*
%TD*%
%TO.C,R1*%
X10277600Y38557200D03*
X12277600Y38557200D03*
%TD*%
M02*
