M48
; DRILL file {KiCad (6.0.10)} date Mon Feb 13 19:14:34 2023
; FORMAT={-:-/ absolute / inch / decimal}
; #@! TF.CreationDate,2023-02-13T19:14:34+09:00
; #@! TF.GenerationSoftware,Kicad,Pcbnew,(6.0.10)
; #@! TF.FileFunction,Plated,1,2,PTH
FMAT,2
INCH
; #@! TA.AperFunction,Plated,PTH,ViaDrill
T1C0.0157
; #@! TA.AperFunction,Plated,PTH,ComponentDrill
T2C0.0197
; #@! TA.AperFunction,Plated,PTH,ComponentDrill
T3C0.0394
%
G90
G05
T1
X0.4106Y1.418
X0.4106Y1.318
X0.4106Y0.318
X0.83Y0.47
T2
X0.142Y1.618
X0.142Y1.5688
X0.142Y1.5196
X0.142Y1.4704
X0.142Y1.4211
X0.142Y1.3719
X0.142Y1.208
X0.142Y1.1588
X0.142Y1.1096
X0.142Y1.0604
X0.142Y1.0111
X0.142Y0.9619
X0.142Y0.9127
X0.142Y0.8635
X0.142Y0.8143
X0.142Y0.7651
X0.142Y0.7159
X0.142Y0.6667
X0.142Y0.6174
X0.142Y0.5682
X0.142Y0.519
X0.142Y0.358
X0.142Y0.3088
X0.142Y0.2596
X0.142Y0.2104
X1.2503Y1.704
X1.2503Y1.6548
X1.2503Y1.6056
X1.2503Y1.5564
X1.2503Y1.5071
X1.2503Y1.4579
X1.2503Y1.4087
X1.2503Y1.3595
X1.2503Y1.3103
X1.2503Y1.2611
X1.2503Y1.2119
X1.2503Y1.1627
X1.2503Y1.1134
X1.2503Y1.0642
X1.2503Y0.758
X1.2503Y0.7088
X1.2503Y0.6596
X1.2503Y0.6104
X1.2503Y0.5611
X1.2503Y0.5119
X1.2503Y0.4627
X1.2503Y0.4135
X1.2503Y0.3643
X1.2503Y0.3151
X1.2503Y0.2659
X1.2503Y0.2167
X1.2503Y0.1674
T3
X0.304Y1.324
X0.304Y1.224
X0.304Y1.124
X0.304Y0.969
X0.304Y0.869
X0.304Y0.769
X0.304Y0.614
X0.304Y0.514
X0.304Y0.414
X0.598Y1.618
X0.598Y1.518
X0.598Y1.418
X0.598Y1.318
X0.598Y1.218
X0.598Y1.118
X0.598Y1.018
X0.598Y0.918
X0.598Y0.818
X0.598Y0.718
X0.598Y0.618
X0.598Y0.518
X0.598Y0.418
X0.598Y0.318
X0.598Y0.218
X0.772Y1.62
X0.772Y1.52
X0.772Y1.42
X0.772Y1.32
X0.772Y1.22
X0.772Y1.12
X0.772Y1.02
X0.772Y0.92
X0.772Y0.82
X0.772Y0.72
X0.772Y0.62
X0.772Y0.52
X0.772Y0.42
X0.772Y0.32
X0.772Y0.22
X1.0041Y1.7846
X1.0041Y1.6846
X1.0041Y1.5846
X1.0041Y1.4846
X1.0041Y1.3846
X1.0041Y1.2846
X1.0041Y1.1846
X1.0041Y1.0846
X1.0041Y0.9846
X1.0041Y0.8546
X1.0041Y0.7546
X1.0041Y0.6546
X1.0041Y0.5546
X1.0041Y0.4546
X1.0041Y0.3546
X1.0041Y0.2546
X1.0041Y0.1546
X1.0041Y0.0546
X1.1041Y1.7846
X1.1041Y1.6846
X1.1041Y1.5846
X1.1041Y1.4846
X1.1041Y1.3846
X1.1041Y1.2846
X1.1041Y1.1846
X1.1041Y1.0846
X1.1041Y0.9846
X1.1041Y0.8546
X1.1041Y0.7546
X1.1041Y0.6546
X1.1041Y0.5546
X1.1041Y0.4546
X1.1041Y0.3546
X1.1041Y0.2546
X1.1041Y0.1546
X1.1041Y0.0546
T0
M30
