%TF.GenerationSoftware,KiCad,Pcbnew,(7.0.0)*%
%TF.CreationDate,2023-03-12T00:46:26+09:00*%
%TF.ProjectId,joystick_gpio_input,6a6f7973-7469-4636-9b5f-6770696f5f69,2*%
%TF.SameCoordinates,PX7b89fa0PY78dfd90*%
%TF.FileFunction,Copper,L1,Top*%
%TF.FilePolarity,Positive*%
%FSLAX46Y46*%
G04 Gerber Fmt 4.6, Leading zero omitted, Abs format (unit mm)*
G04 Created by KiCad (PCBNEW (7.0.0)) date 2023-03-12 00:46:26*
%MOMM*%
%LPD*%
G01*
G04 APERTURE LIST*
G04 Aperture macros list*
%AMRoundRect*
0 Rectangle with rounded corners*
0 $1 Rounding radius*
0 $2 $3 $4 $5 $6 $7 $8 $9 X,Y pos of 4 corners*
0 Add a 4 corners polygon primitive as box body*
4,1,4,$2,$3,$4,$5,$6,$7,$8,$9,$2,$3,0*
0 Add four circle primitives for the rounded corners*
1,1,$1+$1,$2,$3*
1,1,$1+$1,$4,$5*
1,1,$1+$1,$6,$7*
1,1,$1+$1,$8,$9*
0 Add four rect primitives between the rounded corners*
20,1,$1+$1,$2,$3,$4,$5,0*
20,1,$1+$1,$4,$5,$6,$7,0*
20,1,$1+$1,$6,$7,$8,$9,0*
20,1,$1+$1,$8,$9,$2,$3,0*%
G04 Aperture macros list end*
%TA.AperFunction,SMDPad,CuDef*%
%ADD10RoundRect,0.250000X-0.350000X-0.450000X0.350000X-0.450000X0.350000X0.450000X-0.350000X0.450000X0*%
%TD*%
%TA.AperFunction,ComponentPad*%
%ADD11RoundRect,0.200000X-0.450000X0.200000X-0.450000X-0.200000X0.450000X-0.200000X0.450000X0.200000X0*%
%TD*%
%TA.AperFunction,ComponentPad*%
%ADD12O,1.300000X0.800000*%
%TD*%
%TA.AperFunction,ComponentPad*%
%ADD13R,1.700000X1.700000*%
%TD*%
%TA.AperFunction,ComponentPad*%
%ADD14O,1.700000X1.700000*%
%TD*%
%TA.AperFunction,ComponentPad*%
%ADD15RoundRect,0.200000X0.450000X-0.200000X0.450000X0.200000X-0.450000X0.200000X-0.450000X-0.200000X0*%
%TD*%
%TA.AperFunction,ViaPad*%
%ADD16C,0.800000*%
%TD*%
%TA.AperFunction,Conductor*%
%ADD17C,0.250000*%
%TD*%
G04 APERTURE END LIST*
D10*
%TO.P,R10,1*%
%TO.N,/Y*%
X10430000Y15697200D03*
%TO.P,R10,2*%
%TO.N,/C_Y*%
X12430000Y15697200D03*
%TD*%
D11*
%TO.P,J9,1,Pin_1*%
%TO.N,/2P_UP*%
X34340800Y19296400D03*
D12*
%TO.P,J9,2,Pin_2*%
%TO.N,/2P_TL*%
X34340799Y18046399D03*
%TO.P,J9,3,Pin_3*%
%TO.N,/2P_GND*%
X34340799Y16796399D03*
%TO.P,J9,4,Pin_4*%
%TO.N,/2P_X*%
X34340799Y15546399D03*
%TO.P,J9,5,Pin_5*%
%TO.N,/2P_DOWN*%
X34340799Y14296399D03*
%TO.P,J9,6,Pin_6*%
%TO.N,/2P_Y*%
X34340799Y13046399D03*
%TO.P,J9,7,Pin_7*%
%TO.N,/2P_LEFT*%
X34340799Y11796399D03*
%TO.P,J9,8,Pin_8*%
%TO.N,/2P_RIGHT*%
X34340799Y10546399D03*
%TO.P,J9,9,Pin_9*%
%TO.N,/2P_TR*%
X34340799Y9296399D03*
%TO.P,J9,10,Pin_10*%
%TO.N,/2P_B*%
X34340799Y8046399D03*
%TO.P,J9,11,Pin_11*%
%TO.N,/2P_START*%
X34340799Y6796399D03*
%TO.P,J9,12,Pin_12*%
%TO.N,/2P_SELECT*%
X34340799Y5546399D03*
%TO.P,J9,13,Pin_13*%
%TO.N,/2P_A*%
X34340799Y4296399D03*
%TD*%
D10*
%TO.P,R12,1*%
%TO.N,/TR*%
X10430000Y10617200D03*
%TO.P,R12,2*%
%TO.N,/C_TR*%
X12430000Y10617200D03*
%TD*%
D13*
%TO.P,J5,1,Pin_1*%
%TO.N,/C_UP*%
X19608799Y41147999D03*
D14*
%TO.P,J5,2,Pin_2*%
%TO.N,/C_TL*%
X19608799Y38607999D03*
%TO.P,J5,3,Pin_3*%
%TO.N,/GND*%
X19608799Y36067999D03*
%TO.P,J5,4,Pin_4*%
%TO.N,/C_X*%
X19608799Y33527999D03*
%TO.P,J5,5,Pin_5*%
%TO.N,/C_DOWN*%
X19608799Y30987999D03*
%TO.P,J5,6,Pin_6*%
%TO.N,/C_Y*%
X19608799Y28447999D03*
%TO.P,J5,7,Pin_7*%
%TO.N,/C_LEFT*%
X19608799Y25907999D03*
%TO.P,J5,8,Pin_8*%
%TO.N,/C_RIGHT*%
X19608799Y23367999D03*
%TO.P,J5,9,Pin_9*%
%TO.N,/C_TR*%
X19608799Y20827999D03*
%TO.P,J5,10,Pin_10*%
%TO.N,/C_B*%
X19608799Y18287999D03*
%TO.P,J5,11,Pin_11*%
%TO.N,/C_START*%
X19608799Y15747999D03*
%TO.P,J5,12,Pin_12*%
%TO.N,/GND*%
X19608799Y13207999D03*
%TO.P,J5,13,Pin_13*%
%TO.N,/C_SELECT*%
X19608799Y10667999D03*
%TO.P,J5,14,Pin_14*%
%TO.N,/C_A*%
X19608799Y8127999D03*
%TO.P,J5,15,Pin_15*%
%TO.N,/C_HK*%
X19608799Y5587999D03*
%TD*%
D15*
%TO.P,J11,1,Pin_1*%
%TO.N,/2P_A*%
X24333200Y4292600D03*
D12*
%TO.P,J11,2,Pin_2*%
%TO.N,/2P_SELECT*%
X24333199Y5542599D03*
%TO.P,J11,3,Pin_3*%
%TO.N,/2P_START*%
X24333199Y6792599D03*
%TO.P,J11,4,Pin_4*%
%TO.N,/2P_B*%
X24333199Y8042599D03*
%TO.P,J11,5,Pin_5*%
%TO.N,/2P_TR*%
X24333199Y9292599D03*
%TO.P,J11,6,Pin_6*%
%TO.N,/2P_RIGHT*%
X24333199Y10542599D03*
%TO.P,J11,7,Pin_7*%
%TO.N,/2P_LEFT*%
X24333199Y11792599D03*
%TO.P,J11,8,Pin_8*%
%TO.N,/2P_Y*%
X24333199Y13042599D03*
%TO.P,J11,9,Pin_9*%
%TO.N,/2P_DOWN*%
X24333199Y14292599D03*
%TO.P,J11,10,Pin_10*%
%TO.N,/2P_X*%
X24333199Y15542599D03*
%TO.P,J11,11,Pin_11*%
%TO.N,/2P_GND*%
X24333199Y16792599D03*
%TO.P,J11,12,Pin_12*%
%TO.N,/2P_TL*%
X24333199Y18042599D03*
%TO.P,J11,13,Pin_13*%
%TO.N,/2P_UP*%
X24333199Y19292599D03*
%TD*%
D10*
%TO.P,R13,1*%
%TO.N,/HK*%
X10430000Y8077200D03*
%TO.P,R13,2*%
%TO.N,/C_HK*%
X12430000Y8077200D03*
%TD*%
%TO.P,R11,1*%
%TO.N,/TL*%
X10430000Y13157200D03*
%TO.P,R11,2*%
%TO.N,/C_TL*%
X12430000Y13157200D03*
%TD*%
%TO.P,R4,1*%
%TO.N,/RIGHT*%
X10430000Y30937200D03*
%TO.P,R4,2*%
%TO.N,/C_RIGHT*%
X12430000Y30937200D03*
%TD*%
%TO.P,R9,1*%
%TO.N,/X*%
X10430000Y18237200D03*
%TO.P,R9,2*%
%TO.N,/C_X*%
X12430000Y18237200D03*
%TD*%
%TO.P,R5,1*%
%TO.N,/START*%
X10430000Y28397200D03*
%TO.P,R5,2*%
%TO.N,/C_START*%
X12430000Y28397200D03*
%TD*%
D13*
%TO.P,JP3,1,Pin_1*%
%TO.N,/HK*%
X7721599Y15595599D03*
D14*
%TO.P,JP3,2,Pin_2*%
%TO.N,/HK_T*%
X7721599Y13055599D03*
%TO.P,JP3,3,Pin_3*%
%TO.N,/GND*%
X7721599Y10515599D03*
%TD*%
D10*
%TO.P,R2,1*%
%TO.N,/DOWN*%
X10430000Y36017200D03*
%TO.P,R2,2*%
%TO.N,/C_DOWN*%
X12430000Y36017200D03*
%TD*%
D11*
%TO.P,J1,1,Pin_1*%
%TO.N,/GND*%
X3606800Y41097200D03*
D12*
%TO.P,J1,2,Pin_2*%
%TO.N,/UP*%
X3606799Y39847199D03*
%TO.P,J1,3,Pin_3*%
%TO.N,/DOWN*%
X3606799Y38597199D03*
%TO.P,J1,4,Pin_4*%
%TO.N,/LEFT*%
X3606799Y37347199D03*
%TO.P,J1,5,Pin_5*%
%TO.N,/RIGHT*%
X3606799Y36097199D03*
%TO.P,J1,6,Pin_6*%
%TO.N,/GND*%
X3606799Y34847199D03*
%TD*%
D10*
%TO.P,R8,1*%
%TO.N,/B*%
X10430000Y20777200D03*
%TO.P,R8,2*%
%TO.N,/C_B*%
X12430000Y20777200D03*
%TD*%
%TO.P,R3,1*%
%TO.N,/LEFT*%
X10430000Y33477200D03*
%TO.P,R3,2*%
%TO.N,/C_LEFT*%
X12430000Y33477200D03*
%TD*%
D11*
%TO.P,J8,1,Pin_1*%
%TO.N,/1P_UP*%
X34340800Y43324800D03*
D12*
%TO.P,J8,2,Pin_2*%
%TO.N,/1P_TL*%
X34340799Y42074799D03*
%TO.P,J8,3,Pin_3*%
%TO.N,/1P_GND*%
X34340799Y40824799D03*
%TO.P,J8,4,Pin_4*%
%TO.N,/1P_X*%
X34340799Y39574799D03*
%TO.P,J8,5,Pin_5*%
%TO.N,/1P_DOWN*%
X34340799Y38324799D03*
%TO.P,J8,6,Pin_6*%
%TO.N,/1P_Y*%
X34340799Y37074799D03*
%TO.P,J8,7,Pin_7*%
%TO.N,/1P_LEFT*%
X34340799Y35824799D03*
%TO.P,J8,8,Pin_8*%
%TO.N,/1P_RIGHT*%
X34340799Y34574799D03*
%TO.P,J8,9,Pin_9*%
%TO.N,/1P_TR*%
X34340799Y33324799D03*
%TO.P,J8,10,Pin_10*%
%TO.N,/1P_B*%
X34340799Y32074799D03*
%TO.P,J8,11,Pin_11*%
%TO.N,/1P_START*%
X34340799Y30824799D03*
%TO.P,J8,12,Pin_12*%
%TO.N,/1P_SELECT*%
X34340799Y29574799D03*
%TO.P,J8,13,Pin_13*%
%TO.N,/1P_A*%
X34340799Y28324799D03*
%TO.P,J8,14,Pin_14*%
%TO.N,/1P_HK*%
X34340799Y27074799D03*
%TD*%
D11*
%TO.P,J3,1,Pin_1*%
%TO.N,/GND*%
X3606800Y30683200D03*
D12*
%TO.P,J3,2,Pin_2*%
%TO.N,/UP*%
X3606799Y29433199D03*
%TO.P,J3,3,Pin_3*%
%TO.N,/DOWN*%
X3606799Y28183199D03*
%TO.P,J3,4,Pin_4*%
%TO.N,/LEFT*%
X3606799Y26933199D03*
%TO.P,J3,5,Pin_5*%
%TO.N,/RIGHT_T*%
X3606799Y25683199D03*
%TO.P,J3,6,Pin_6*%
%TO.N,/START*%
X3606799Y24433199D03*
%TO.P,J3,7,Pin_7*%
%TO.N,/SELECT_T*%
X3606799Y23183199D03*
%TO.P,J3,8,Pin_8*%
%TO.N,/A*%
X3606799Y21933199D03*
%TO.P,J3,9,Pin_9*%
%TO.N,/B*%
X3606799Y20683199D03*
%TO.P,J3,10,Pin_10*%
%TO.N,/X*%
X3606799Y19433199D03*
%TO.P,J3,11,Pin_11*%
%TO.N,/Y*%
X3606799Y18183199D03*
%TO.P,J3,12,Pin_12*%
%TO.N,/TL*%
X3606799Y16933199D03*
%TO.P,J3,13,Pin_13*%
%TO.N,/TR*%
X3606799Y15683199D03*
%TO.P,J3,14,Pin_14*%
%TO.N,/HK_T*%
X3606799Y14433199D03*
%TO.P,J3,15,Pin_15*%
%TO.N,/GND*%
X3606799Y13183199D03*
%TD*%
D13*
%TO.P,JP1,1,Pin_1*%
%TO.N,/RIGHT*%
X7721599Y33629599D03*
D14*
%TO.P,JP1,2,Pin_2*%
%TO.N,/RIGHT_T*%
X7721599Y31089599D03*
%TO.P,JP1,3,Pin_3*%
%TO.N,/GND*%
X7721599Y28549599D03*
%TD*%
D13*
%TO.P,J4,1,Pin_1*%
%TO.N,/GND*%
X15189199Y41097199D03*
D14*
%TO.P,J4,2,Pin_2*%
%TO.N,/C_UP*%
X15189199Y38557199D03*
%TO.P,J4,3,Pin_3*%
%TO.N,/C_DOWN*%
X15189199Y36017199D03*
%TO.P,J4,4,Pin_4*%
%TO.N,/C_LEFT*%
X15189199Y33477199D03*
%TO.P,J4,5,Pin_5*%
%TO.N,/C_RIGHT*%
X15189199Y30937199D03*
%TO.P,J4,6,Pin_6*%
%TO.N,/C_START*%
X15189199Y28397199D03*
%TO.P,J4,7,Pin_7*%
%TO.N,/C_SELECT*%
X15189199Y25857199D03*
%TO.P,J4,8,Pin_8*%
%TO.N,/C_A*%
X15189199Y23317199D03*
%TO.P,J4,9,Pin_9*%
%TO.N,/C_B*%
X15189199Y20777199D03*
%TO.P,J4,10,Pin_10*%
%TO.N,/C_X*%
X15189199Y18237199D03*
%TO.P,J4,11,Pin_11*%
%TO.N,/C_Y*%
X15189199Y15697199D03*
%TO.P,J4,12,Pin_12*%
%TO.N,/C_TL*%
X15189199Y13157199D03*
%TO.P,J4,13,Pin_13*%
%TO.N,/C_TR*%
X15189199Y10617199D03*
%TO.P,J4,14,Pin_14*%
%TO.N,/C_HK*%
X15189199Y8077199D03*
%TO.P,J4,15,Pin_15*%
%TO.N,/GND*%
X15189199Y5537199D03*
%TD*%
D13*
%TO.P,JP2,1,Pin_1*%
%TO.N,/SELECT*%
X7721599Y24612599D03*
D14*
%TO.P,JP2,2,Pin_2*%
%TO.N,/SELECT_T*%
X7721599Y22072599D03*
%TO.P,JP2,3,Pin_3*%
%TO.N,/GND*%
X7721599Y19532599D03*
%TD*%
D11*
%TO.P,J2,1,Pin_1*%
%TO.N,/GND*%
X3606800Y9093200D03*
D12*
%TO.P,J2,2,Pin_2*%
%TO.N,/START*%
X3606799Y7843199D03*
%TO.P,J2,3,Pin_3*%
%TO.N,/SELECT*%
X3606799Y6593199D03*
%TO.P,J2,4,Pin_4*%
%TO.N,/GND*%
X3606799Y5343199D03*
%TD*%
D10*
%TO.P,R7,1*%
%TO.N,/A*%
X10430000Y23317200D03*
%TO.P,R7,2*%
%TO.N,/C_A*%
X12430000Y23317200D03*
%TD*%
%TO.P,R6,1*%
%TO.N,/SELECT*%
X10430000Y25857200D03*
%TO.P,R6,2*%
%TO.N,/C_SELECT*%
X12430000Y25857200D03*
%TD*%
D15*
%TO.P,J10,1,Pin_1*%
%TO.N,/1P_HK*%
X24358600Y27076400D03*
D12*
%TO.P,J10,2,Pin_2*%
%TO.N,/1P_A*%
X24358599Y28326399D03*
%TO.P,J10,3,Pin_3*%
%TO.N,/1P_SELECT*%
X24358599Y29576399D03*
%TO.P,J10,4,Pin_4*%
%TO.N,/1P_START*%
X24358599Y30826399D03*
%TO.P,J10,5,Pin_5*%
%TO.N,/1P_B*%
X24358599Y32076399D03*
%TO.P,J10,6,Pin_6*%
%TO.N,/1P_TR*%
X24358599Y33326399D03*
%TO.P,J10,7,Pin_7*%
%TO.N,/1P_RIGHT*%
X24358599Y34576399D03*
%TO.P,J10,8,Pin_8*%
%TO.N,/1P_LEFT*%
X24358599Y35826399D03*
%TO.P,J10,9,Pin_9*%
%TO.N,/1P_Y*%
X24358599Y37076399D03*
%TO.P,J10,10,Pin_10*%
%TO.N,/1P_DOWN*%
X24358599Y38326399D03*
%TO.P,J10,11,Pin_11*%
%TO.N,/1P_X*%
X24358599Y39576399D03*
%TO.P,J10,12,Pin_12*%
%TO.N,/1P_GND*%
X24358599Y40826399D03*
%TO.P,J10,13,Pin_13*%
%TO.N,/1P_TL*%
X24358599Y42076399D03*
%TO.P,J10,14,Pin_14*%
%TO.N,/1P_UP*%
X24358599Y43326399D03*
%TD*%
D10*
%TO.P,R1,1*%
%TO.N,/UP*%
X10430000Y38557200D03*
%TO.P,R1,2*%
%TO.N,/C_UP*%
X12430000Y38557200D03*
%TD*%
D13*
%TO.P,J7,1,Pin_1*%
%TO.N,/2P_UP*%
X28087399Y21750199D03*
D14*
%TO.P,J7,2,Pin_2*%
%TO.N,/2P_TL*%
X30627399Y21750199D03*
%TO.P,J7,3,Pin_3*%
%TO.N,/2P_GND*%
X28087399Y19210199D03*
%TO.P,J7,4,Pin_4*%
%TO.N,/2P_X*%
X30627399Y19210199D03*
%TO.P,J7,5,Pin_5*%
%TO.N,unconnected-(J7-Pin_5-Pad5)*%
X28087399Y16670199D03*
%TO.P,J7,6,Pin_6*%
%TO.N,unconnected-(J7-Pin_6-Pad6)*%
X30627399Y16670199D03*
%TO.P,J7,7,Pin_7*%
%TO.N,/2P_DOWN*%
X28087399Y14130199D03*
%TO.P,J7,8,Pin_8*%
%TO.N,unconnected-(J7-Pin_8-Pad8)*%
X30627399Y14130199D03*
%TO.P,J7,9,Pin_9*%
%TO.N,/2P_LEFT*%
X28087399Y11590199D03*
%TO.P,J7,10,Pin_10*%
%TO.N,/2P_Y*%
X30627399Y11590199D03*
%TO.P,J7,11,Pin_11*%
%TO.N,/2P_RIGHT*%
X28087399Y9050199D03*
%TO.P,J7,12,Pin_12*%
%TO.N,unconnected-(J7-Pin_12-Pad12)*%
X30627399Y9050199D03*
%TO.P,J7,13,Pin_13*%
%TO.N,/2P_START*%
X28087399Y6510199D03*
%TO.P,J7,14,Pin_14*%
%TO.N,/2P_TR*%
X30627399Y6510199D03*
%TO.P,J7,15,Pin_15*%
%TO.N,/2P_SELECT*%
X28087399Y3970199D03*
%TO.P,J7,16,Pin_16*%
%TO.N,/2P_B*%
X30627399Y3970199D03*
%TO.P,J7,17,Pin_17*%
%TO.N,unconnected-(J7-Pin_17-Pad17)*%
X28087399Y1430199D03*
%TO.P,J7,18,Pin_18*%
%TO.N,/2P_A*%
X30627399Y1430199D03*
%TD*%
D13*
%TO.P,J6,1,Pin_1*%
%TO.N,/1P_UP*%
X28087399Y45372199D03*
D14*
%TO.P,J6,2,Pin_2*%
%TO.N,/1P_TL*%
X30627399Y45372199D03*
%TO.P,J6,3,Pin_3*%
%TO.N,/1P_GND*%
X28087399Y42832199D03*
%TO.P,J6,4,Pin_4*%
%TO.N,/1P_X*%
X30627399Y42832199D03*
%TO.P,J6,5,Pin_5*%
%TO.N,/1P_DOWN*%
X28087399Y40292199D03*
%TO.P,J6,6,Pin_6*%
%TO.N,/1P_Y*%
X30627399Y40292199D03*
%TO.P,J6,7,Pin_7*%
%TO.N,/1P_LEFT*%
X28087399Y37752199D03*
%TO.P,J6,8,Pin_8*%
%TO.N,unconnected-(J6-Pin_8-Pad8)*%
X30627399Y37752199D03*
%TO.P,J6,9,Pin_9*%
%TO.N,/1P_RIGHT*%
X28087399Y35212199D03*
%TO.P,J6,10,Pin_10*%
%TO.N,/1P_TR*%
X30627399Y35212199D03*
%TO.P,J6,11,Pin_11*%
%TO.N,unconnected-(J6-Pin_11-Pad11)*%
X28087399Y32672199D03*
%TO.P,J6,12,Pin_12*%
%TO.N,/1P_B*%
X30627399Y32672199D03*
%TO.P,J6,13,Pin_13*%
%TO.N,/1P_START*%
X28087399Y30132199D03*
%TO.P,J6,14,Pin_14*%
%TO.N,unconnected-(J6-Pin_14-Pad14)*%
X30627399Y30132199D03*
%TO.P,J6,15,Pin_15*%
%TO.N,/1P_SELECT*%
X28087399Y27592199D03*
%TO.P,J6,16,Pin_16*%
%TO.N,/1P_A*%
X30627399Y27592199D03*
%TO.P,J6,17,Pin_17*%
%TO.N,/1P_HK*%
X28087399Y25052199D03*
%TO.P,J6,18,Pin_18*%
%TO.N,unconnected-(J6-Pin_18-Pad18)*%
X30627399Y25052199D03*
%TD*%
D16*
%TO.N,/DOWN*%
X10430000Y36017200D03*
%TO.N,/LEFT*%
X10430000Y33477200D03*
%TO.N,/HK*%
X10430000Y8077200D03*
%TO.N,/C_TR*%
X21082000Y11938000D03*
%TD*%
D17*
%TO.N,/UP*%
X5537200Y35814000D02*
X8280400Y38557200D01*
X5537200Y30835600D02*
X5537200Y35814000D01*
X8280400Y38557200D02*
X10430000Y38557200D01*
X4134800Y29433200D02*
X5537200Y30835600D01*
X9140000Y39847200D02*
X3606800Y39847200D01*
X3606800Y29433200D02*
X4134800Y29433200D01*
X10430000Y38557200D02*
X9140000Y39847200D01*
%TO.N,/DOWN*%
X4154800Y28183200D02*
X5987200Y30015600D01*
X5987200Y30015600D02*
X5987200Y35349600D01*
X2057400Y37566600D02*
X2057400Y29184600D01*
X2057400Y29184600D02*
X3058800Y28183200D01*
X3606800Y28183200D02*
X4154800Y28183200D01*
X6654800Y36017200D02*
X10430000Y36017200D01*
X5987200Y35349600D02*
X6654800Y36017200D01*
X3088000Y38597200D02*
X2057400Y37566600D01*
X3058800Y28183200D02*
X3606800Y28183200D01*
X3606800Y38597200D02*
X3088000Y38597200D01*
%TO.N,/RIGHT*%
X7737600Y33629600D02*
X10430000Y30937200D01*
X7721600Y33629600D02*
X7737600Y33629600D01*
%TO.N,/START*%
X6248400Y26517600D02*
X8550400Y26517600D01*
X3606800Y24433200D02*
X4164000Y24433200D01*
X3078800Y7843200D02*
X3606800Y7843200D01*
X2032000Y8890000D02*
X3078800Y7843200D01*
X3097200Y24433200D02*
X2032000Y23368000D01*
X2032000Y23368000D02*
X2032000Y8890000D01*
X8550400Y26517600D02*
X10430000Y28397200D01*
X3606800Y24433200D02*
X3097200Y24433200D01*
X4164000Y24433200D02*
X6248400Y26517600D01*
%TO.N,/SELECT*%
X7721600Y24612600D02*
X9185400Y24612600D01*
X9185400Y24612600D02*
X10430000Y25857200D01*
%TO.N,/RIGHT_T*%
X5334000Y28694500D02*
X5334000Y26822400D01*
X7721600Y31082100D02*
X5334000Y28694500D01*
X5334000Y26822400D02*
X4194800Y25683200D01*
X4194800Y25683200D02*
X3606800Y25683200D01*
X7721600Y31089600D02*
X7721600Y31082100D01*
%TO.N,/A*%
X4153200Y21933200D02*
X5537200Y23317200D01*
X3606800Y21933200D02*
X4153200Y21933200D01*
X5537200Y23317200D02*
X10430000Y23317200D01*
%TO.N,/B*%
X3700800Y20777200D02*
X3606800Y20683200D01*
X10430000Y20777200D02*
X3700800Y20777200D01*
%TO.N,/X*%
X4188800Y19433200D02*
X5384800Y18237200D01*
X5384800Y18237200D02*
X10430000Y18237200D01*
X3606800Y19433200D02*
X4188800Y19433200D01*
%TO.N,/Y*%
X3606800Y18183200D02*
X4168800Y18183200D01*
X10430000Y16036800D02*
X10430000Y15697200D01*
X4168800Y18183200D02*
X4673600Y17678400D01*
X4673600Y17678400D02*
X8788400Y17678400D01*
X8788400Y17678400D02*
X10430000Y16036800D01*
%TO.N,/TL*%
X3606800Y16933200D02*
X8759400Y16933200D01*
X9347200Y16345400D02*
X9347200Y14240000D01*
X8759400Y16933200D02*
X9347200Y16345400D01*
X9347200Y14240000D02*
X10430000Y13157200D01*
%TO.N,/TR*%
X4179600Y15683200D02*
X5537200Y14325600D01*
X9296400Y11750800D02*
X10430000Y10617200D01*
X9296400Y13360400D02*
X9296400Y11750800D01*
X8331200Y14325600D02*
X9296400Y13360400D01*
X5537200Y14325600D02*
X8331200Y14325600D01*
X3606800Y15683200D02*
X4179600Y15683200D01*
%TO.N,/HK_T*%
X5537200Y13055600D02*
X4159600Y14433200D01*
X4159600Y14433200D02*
X3606800Y14433200D01*
X7721600Y13055600D02*
X5537200Y13055600D01*
%TO.N,/C_UP*%
X12430000Y38557200D02*
X15189200Y38557200D01*
X15189200Y38557200D02*
X16967200Y38557200D01*
X19558000Y41148000D02*
X19608800Y41148000D01*
X16967200Y38557200D02*
X19558000Y41148000D01*
%TO.N,/C_DOWN*%
X15189200Y35610800D02*
X19608800Y31191200D01*
X12430000Y36017200D02*
X15189200Y36017200D01*
X19608800Y31191200D02*
X19608800Y30988000D01*
X15189200Y36017200D02*
X15189200Y35610800D01*
%TO.N,/C_LEFT*%
X17399000Y28067000D02*
X19558000Y25908000D01*
X19558000Y25908000D02*
X19608800Y25908000D01*
X17399000Y31267400D02*
X17399000Y28067000D01*
X12430000Y33477200D02*
X15189200Y33477200D01*
X15189200Y33477200D02*
X17399000Y31267400D01*
%TO.N,/C_RIGHT*%
X12430000Y30937200D02*
X15189200Y30937200D01*
%TO.N,/C_START*%
X17348200Y26339800D02*
X17983200Y25704800D01*
X19608800Y16002000D02*
X19608800Y15748000D01*
X15189200Y28397200D02*
X15265400Y28397200D01*
X12430000Y28397200D02*
X15189200Y28397200D01*
X17322800Y26339800D02*
X17348200Y26339800D01*
X15265400Y28397200D02*
X17322800Y26339800D01*
X17983200Y17627600D02*
X19608800Y16002000D01*
X17983200Y25704800D02*
X17983200Y17627600D01*
%TO.N,/C_SELECT*%
X19608800Y10668000D02*
X17373600Y12903200D01*
X17373600Y12903200D02*
X17373600Y23469600D01*
X17373600Y23469600D02*
X15189200Y25654000D01*
X12430000Y25857200D02*
X15189200Y25857200D01*
X15189200Y25654000D02*
X15189200Y25857200D01*
%TO.N,/C_A*%
X15189200Y23317200D02*
X16764000Y21742400D01*
X16764000Y21742400D02*
X16764000Y10972800D01*
X16764000Y10972800D02*
X19608800Y8128000D01*
X12430000Y23317200D02*
X15189200Y23317200D01*
%TO.N,/C_B*%
X12430000Y20777200D02*
X15189200Y20777200D01*
%TO.N,/C_X*%
X12430000Y18237200D02*
X15189200Y18237200D01*
%TO.N,/C_Y*%
X12430000Y15697200D02*
X15189200Y15697200D01*
%TO.N,/C_TL*%
X12430000Y13157200D02*
X15189200Y13157200D01*
%TO.N,/C_TR*%
X21082000Y11938000D02*
X21361400Y12217400D01*
X21361400Y19329400D02*
X19862800Y20828000D01*
X12430000Y10617200D02*
X15189200Y10617200D01*
X21361400Y12217400D02*
X21361400Y19329400D01*
X19862800Y20828000D02*
X19608800Y20828000D01*
%TO.N,/C_HK*%
X19608800Y5588000D02*
X17678400Y5588000D01*
X17678400Y5588000D02*
X15189200Y8077200D01*
X12430000Y8077200D02*
X15189200Y8077200D01*
%TO.N,/1P_UP*%
X27439800Y45372200D02*
X28087400Y45372200D01*
X25394000Y43326400D02*
X27439800Y45372200D01*
X24358600Y43326400D02*
X25394000Y43326400D01*
%TO.N,/1P_DOWN*%
X24358600Y38326400D02*
X25728000Y38326400D01*
X27693800Y40292200D02*
X28087400Y40292200D01*
X25728000Y38326400D02*
X27693800Y40292200D01*
%TO.N,/1P_LEFT*%
X26161600Y35826400D02*
X28087400Y37752200D01*
X24358600Y35826400D02*
X26161600Y35826400D01*
%TO.N,/1P_RIGHT*%
X34340800Y34574800D02*
X33794400Y34574800D01*
X31851600Y36517600D02*
X29392800Y36517600D01*
X29392800Y36517600D02*
X28087400Y35212200D01*
X27451600Y34576400D02*
X28087400Y35212200D01*
X24358600Y34576400D02*
X27451600Y34576400D01*
X33794400Y34574800D02*
X31851600Y36517600D01*
%TO.N,/1P_START*%
X24358600Y30826400D02*
X27393200Y30826400D01*
X33223200Y31386800D02*
X29342000Y31386800D01*
X34340800Y30824800D02*
X33785200Y30824800D01*
X29342000Y31386800D02*
X28087400Y30132200D01*
X33785200Y30824800D02*
X33223200Y31386800D01*
X27393200Y30826400D02*
X28087400Y30132200D01*
%TO.N,/1P_SELECT*%
X26103200Y29576400D02*
X28087400Y27592200D01*
X34340800Y29574800D02*
X33798800Y29574800D01*
X33070800Y28846800D02*
X29342000Y28846800D01*
X33798800Y29574800D02*
X33070800Y28846800D01*
X24358600Y29576400D02*
X26103200Y29576400D01*
X29342000Y28846800D02*
X28087400Y27592200D01*
%TO.N,/1P_A*%
X31156800Y28121600D02*
X30627400Y27592200D01*
X34340800Y28324800D02*
X34137600Y28121600D01*
X34137600Y28121600D02*
X31156800Y28121600D01*
%TO.N,/1P_B*%
X24845000Y32076400D02*
X25501600Y31419800D01*
X25501600Y31419800D02*
X28727400Y31419800D01*
X29979800Y32672200D02*
X30627400Y32672200D01*
X28727400Y31419800D02*
X29979800Y32672200D01*
X31174000Y32125600D02*
X30627400Y32672200D01*
X34340800Y32074800D02*
X34290000Y32125600D01*
X24358600Y32076400D02*
X24845000Y32076400D01*
X34290000Y32125600D02*
X31174000Y32125600D01*
%TO.N,/1P_X*%
X25467996Y39576400D02*
X27445996Y41554400D01*
X34340800Y39574800D02*
X34230000Y39574800D01*
X34230000Y39574800D02*
X30972600Y42832200D01*
X30972600Y42832200D02*
X30627400Y42832200D01*
X24358600Y39576400D02*
X25467996Y39576400D01*
X29349600Y41554400D02*
X30627400Y42832200D01*
X27445996Y41554400D02*
X29349600Y41554400D01*
%TO.N,/1P_Y*%
X24358600Y37076400D02*
X25570200Y37076400D01*
X33783600Y37074800D02*
X30627400Y40231000D01*
X29349600Y39014400D02*
X30627400Y40292200D01*
X27508200Y39014400D02*
X29349600Y39014400D01*
X30627400Y40231000D02*
X30627400Y40292200D01*
X34340800Y37074800D02*
X33783600Y37074800D01*
X25570200Y37076400D02*
X27508200Y39014400D01*
%TO.N,/1P_TL*%
X33762000Y42074800D02*
X30627400Y45209400D01*
X24358600Y42076400D02*
X25439400Y42076400D01*
X25439400Y42076400D02*
X27432000Y44069000D01*
X27432000Y44069000D02*
X29324200Y44069000D01*
X34340800Y42074800D02*
X33762000Y42074800D01*
X29324200Y44069000D02*
X30627400Y45372200D01*
X30627400Y45209400D02*
X30627400Y45372200D01*
%TO.N,/1P_TR*%
X24842800Y33326400D02*
X25476200Y33959800D01*
X24358600Y33326400D02*
X24842800Y33326400D01*
X29375000Y33959800D02*
X30627400Y35212200D01*
X25476200Y33959800D02*
X29375000Y33959800D01*
X32514800Y33324800D02*
X30627400Y35212200D01*
X34340800Y33324800D02*
X32514800Y33324800D01*
%TO.N,/1P_HK*%
X24358600Y27076400D02*
X26063200Y27076400D01*
X29342000Y26306800D02*
X28087400Y25052200D01*
X34340800Y27074800D02*
X33572800Y26306800D01*
X33572800Y26306800D02*
X29342000Y26306800D01*
X26063200Y27076400D02*
X28087400Y25052200D01*
%TO.N,/2P_GND*%
X25047600Y16792600D02*
X27465200Y19210200D01*
X27465200Y19210200D02*
X28087400Y19210200D01*
X24333200Y16792600D02*
X25047600Y16792600D01*
%TO.N,/2P_UP*%
X24880600Y19292600D02*
X27338200Y21750200D01*
X27338200Y21750200D02*
X28087400Y21750200D01*
X24333200Y19292600D02*
X24880600Y19292600D01*
%TO.N,/2P_DOWN*%
X27925000Y14292600D02*
X28087400Y14130200D01*
X24333200Y14292600D02*
X27925000Y14292600D01*
X29371200Y15414000D02*
X28087400Y14130200D01*
X34340800Y14296400D02*
X33803600Y14296400D01*
X33803600Y14296400D02*
X32686000Y15414000D01*
X32686000Y15414000D02*
X29371200Y15414000D01*
%TO.N,/2P_LEFT*%
X27885000Y11792600D02*
X28087400Y11590200D01*
X24333200Y11792600D02*
X27885000Y11792600D01*
%TO.N,/2P_RIGHT*%
X24333200Y10542600D02*
X26595000Y10542600D01*
X34099200Y10304800D02*
X29342000Y10304800D01*
X29342000Y10304800D02*
X28087400Y9050200D01*
X34340800Y10546400D02*
X34099200Y10304800D01*
X26595000Y10542600D02*
X28087400Y9050200D01*
%TO.N,/2P_SELECT*%
X24810400Y5542600D02*
X26382800Y3970200D01*
X26382800Y3970200D02*
X28087400Y3970200D01*
X24333200Y5542600D02*
X24810400Y5542600D01*
%TO.N,/2P_A*%
X24333200Y4292600D02*
X25933400Y2692400D01*
X33493600Y4296400D02*
X30627400Y1430200D01*
X34340800Y4296400D02*
X33493600Y4296400D01*
X25933400Y2692400D02*
X29365200Y2692400D01*
X29365200Y2692400D02*
X30627400Y1430200D01*
%TO.N,/2P_B*%
X24627900Y8042600D02*
X27438100Y5232400D01*
X24333200Y8042600D02*
X24627900Y8042600D01*
X34165200Y8046400D02*
X30627400Y4508600D01*
X29365200Y5232400D02*
X30627400Y3970200D01*
X34340800Y8046400D02*
X34165200Y8046400D01*
X30627400Y4508600D02*
X30627400Y3970200D01*
X27438100Y5232400D02*
X29365200Y5232400D01*
%TO.N,/2P_X*%
X34340800Y15546400D02*
X33874400Y15546400D01*
X29349600Y17932400D02*
X30627400Y19210200D01*
X24333200Y15542600D02*
X24762800Y15542600D01*
X30627400Y18793400D02*
X30627400Y19210200D01*
X33874400Y15546400D02*
X30627400Y18793400D01*
X24762800Y15542600D02*
X27152600Y17932400D01*
X27152600Y17932400D02*
X29349600Y17932400D01*
%TO.N,/2P_Y*%
X29339800Y12877800D02*
X30627400Y11590200D01*
X34340800Y13046400D02*
X32083600Y13046400D01*
X32083600Y13046400D02*
X30627400Y11590200D01*
X24333200Y13042600D02*
X24498000Y12877800D01*
X24498000Y12877800D02*
X29339800Y12877800D01*
%TO.N,/2P_TL*%
X33762000Y18046400D02*
X30627400Y21181000D01*
X27254200Y20472400D02*
X29349600Y20472400D01*
X24333200Y18042600D02*
X24824400Y18042600D01*
X30627400Y21181000D02*
X30627400Y21750200D01*
X29349600Y20472400D02*
X30627400Y21750200D01*
X24824400Y18042600D02*
X27254200Y20472400D01*
X34340800Y18046400D02*
X33762000Y18046400D01*
%TO.N,/2P_TR*%
X29452400Y7685200D02*
X30627400Y6510200D01*
X24333200Y9292600D02*
X24583200Y9292600D01*
X34340800Y9296400D02*
X33413600Y9296400D01*
X33413600Y9296400D02*
X30627400Y6510200D01*
X26190600Y7685200D02*
X29452400Y7685200D01*
X24583200Y9292600D02*
X26190600Y7685200D01*
%TO.N,/1P_GND*%
X25434000Y40826400D02*
X27439800Y42832200D01*
X27439800Y42832200D02*
X28087400Y42832200D01*
X24358600Y40826400D02*
X25434000Y40826400D01*
%TD*%
%TA.AperFunction,Conductor*%
%TO.N,/GND*%
G36*
X6372324Y20129728D02*
G01*
X6417203Y20090912D01*
X6439341Y20035860D01*
X6433826Y19976780D01*
X6431499Y19970006D01*
X6388586Y19800544D01*
X6388351Y19789166D01*
X6399440Y19786600D01*
X9043760Y19786600D01*
X9054848Y19789166D01*
X9054613Y19800544D01*
X9011700Y19970006D01*
X9009374Y19976780D01*
X9003859Y20035860D01*
X9025997Y20090912D01*
X9070876Y20129728D01*
X9128544Y20143700D01*
X9250761Y20143700D01*
X9301787Y20132906D01*
X9344070Y20102373D01*
X9370366Y20057332D01*
X9374633Y20044453D01*
X9387885Y20004462D01*
X9391732Y19998224D01*
X9391735Y19998219D01*
X9477116Y19859796D01*
X9480970Y19853548D01*
X9606348Y19728170D01*
X9612596Y19724317D01*
X9612595Y19724317D01*
X9751018Y19638936D01*
X9751020Y19638935D01*
X9757262Y19635085D01*
X9769515Y19631025D01*
X9782251Y19626804D01*
X9834768Y19593131D01*
X9864695Y19538393D01*
X9864695Y19476007D01*
X9834768Y19421269D01*
X9782251Y19387596D01*
X9764228Y19381624D01*
X9764222Y19381622D01*
X9757262Y19379315D01*
X9751026Y19375470D01*
X9751018Y19375465D01*
X9612595Y19290084D01*
X9612590Y19290081D01*
X9606348Y19286230D01*
X9601158Y19281041D01*
X9601154Y19281037D01*
X9486163Y19166046D01*
X9486159Y19166042D01*
X9480970Y19160852D01*
X9477119Y19154610D01*
X9477116Y19154605D01*
X9391735Y19016182D01*
X9391730Y19016174D01*
X9387885Y19009938D01*
X9385579Y19002981D01*
X9385577Y19002975D01*
X9370366Y18957068D01*
X9344070Y18912027D01*
X9301787Y18881494D01*
X9250761Y18870700D01*
X9107021Y18870700D01*
X9047052Y18885886D01*
X9001538Y18927784D01*
X8981451Y18986294D01*
X8991633Y19047313D01*
X9008331Y19085383D01*
X9011699Y19095192D01*
X9054613Y19264657D01*
X9054848Y19276035D01*
X9043760Y19278600D01*
X6399440Y19278600D01*
X6388351Y19276035D01*
X6388586Y19264657D01*
X6431500Y19095192D01*
X6434868Y19085383D01*
X6451567Y19047313D01*
X6461749Y18986294D01*
X6441662Y18927784D01*
X6396148Y18885886D01*
X6336179Y18870700D01*
X5699395Y18870700D01*
X5651177Y18880291D01*
X5610300Y18907605D01*
X4692448Y19825457D01*
X4684911Y19833740D01*
X4680800Y19840218D01*
X4675023Y19845643D01*
X4670043Y19851664D01*
X4652028Y19880721D01*
X4647918Y19889952D01*
X4608912Y19943639D01*
X4585236Y20007814D01*
X4598581Y20074903D01*
X4645013Y20125133D01*
X4710848Y20143700D01*
X6314656Y20143700D01*
X6372324Y20129728D01*
G37*
%TD.AperFunction*%
%TA.AperFunction,Conductor*%
G36*
X7912600Y28786719D02*
G01*
X7958719Y28740600D01*
X7975600Y28677600D01*
X7975600Y28421600D01*
X7958719Y28358600D01*
X7912600Y28312481D01*
X7849600Y28295600D01*
X6399440Y28295600D01*
X6388351Y28293035D01*
X6388586Y28281657D01*
X6431500Y28112192D01*
X6434870Y28102377D01*
X6521088Y27905822D01*
X6526031Y27896687D01*
X6643422Y27717007D01*
X6649810Y27708801D01*
X6795167Y27550900D01*
X6802811Y27543863D01*
X6972188Y27412032D01*
X6980881Y27406353D01*
X7014952Y27387914D01*
X7062687Y27342490D01*
X7080966Y27279183D01*
X7064790Y27215307D01*
X7018583Y27168330D01*
X6954983Y27151100D01*
X6327168Y27151100D01*
X6315984Y27151628D01*
X6308492Y27153302D01*
X6300566Y27153053D01*
X6240402Y27151162D01*
X6236444Y27151100D01*
X6208544Y27151100D01*
X6204619Y27150605D01*
X6204598Y27150603D01*
X6204524Y27150593D01*
X6192713Y27149664D01*
X6156434Y27148524D01*
X6156426Y27148523D01*
X6148511Y27148274D01*
X6140900Y27146064D01*
X6140893Y27146062D01*
X6129048Y27142621D01*
X6110027Y27138656D01*
X6109624Y27138604D01*
X6040054Y27149465D01*
X5987175Y27195960D01*
X5967500Y27263568D01*
X5967500Y28379905D01*
X5977091Y28428123D01*
X6004404Y28469000D01*
X6149153Y28613749D01*
X6302100Y28766697D01*
X6342976Y28794009D01*
X6391194Y28803600D01*
X7849600Y28803600D01*
X7912600Y28786719D01*
G37*
%TD.AperFunction*%
%TA.AperFunction,Conductor*%
G36*
X3797800Y35084319D02*
G01*
X3843919Y35038200D01*
X3860800Y34975200D01*
X3860800Y33955790D01*
X3864306Y33942707D01*
X3877390Y33939200D01*
X3901102Y33939200D01*
X3907662Y33939544D01*
X4040060Y33953460D01*
X4052901Y33956189D01*
X4221866Y34011089D01*
X4233873Y34016436D01*
X4387726Y34105263D01*
X4398357Y34112986D01*
X4530384Y34231863D01*
X4539175Y34241627D01*
X4643601Y34385358D01*
X4650170Y34396734D01*
X4662594Y34424637D01*
X4705791Y34476852D01*
X4769789Y34499138D01*
X4836076Y34485048D01*
X4885476Y34438658D01*
X4903700Y34373387D01*
X4903700Y31302784D01*
X4887072Y31240224D01*
X4841577Y31194176D01*
X4779222Y31176793D01*
X4716466Y31192664D01*
X4669871Y31237600D01*
X4622161Y31316523D01*
X4612826Y31328437D01*
X4502036Y31439227D01*
X4490120Y31448563D01*
X4356025Y31529626D01*
X4342234Y31535833D01*
X4191718Y31582736D01*
X4178721Y31585322D01*
X4116874Y31590942D01*
X4111163Y31591200D01*
X3877390Y31591200D01*
X3864306Y31587694D01*
X3860800Y31574610D01*
X3860800Y30555200D01*
X3843919Y30492200D01*
X3797800Y30446081D01*
X3734800Y30429200D01*
X3478800Y30429200D01*
X3415800Y30446081D01*
X3369681Y30492200D01*
X3352800Y30555200D01*
X3352800Y31574609D01*
X3349293Y31587693D01*
X3336210Y31591199D01*
X3102439Y31591199D01*
X3096722Y31590940D01*
X3034887Y31585322D01*
X3021873Y31582734D01*
X2871364Y31535833D01*
X2868610Y31534593D01*
X2865809Y31534102D01*
X2864094Y31533567D01*
X2864024Y31533789D01*
X2807392Y31523852D01*
X2748487Y31543683D01*
X2706229Y31589260D01*
X2690900Y31649493D01*
X2690900Y33964951D01*
X2707781Y34027951D01*
X2753900Y34074070D01*
X2816900Y34090951D01*
X2879900Y34074070D01*
X2979726Y34016436D01*
X2991733Y34011089D01*
X3160698Y33956189D01*
X3173539Y33953460D01*
X3305937Y33939544D01*
X3312498Y33939200D01*
X3336210Y33939200D01*
X3349293Y33942707D01*
X3352800Y33955790D01*
X3352800Y34975200D01*
X3369681Y35038200D01*
X3415800Y35084319D01*
X3478800Y35101200D01*
X3734800Y35101200D01*
X3797800Y35084319D01*
G37*
%TD.AperFunction*%
%TA.AperFunction,Conductor*%
G36*
X21141308Y46208687D02*
G01*
X21187794Y46156669D01*
X21199480Y46087892D01*
X21172783Y46023440D01*
X21115887Y45983071D01*
X20993157Y45940127D01*
X20993150Y45940124D01*
X20986478Y45937789D01*
X20980492Y45934029D01*
X20980486Y45934025D01*
X20839733Y45845584D01*
X20839726Y45845579D01*
X20833738Y45841816D01*
X20828733Y45836812D01*
X20828729Y45836808D01*
X20711192Y45719271D01*
X20711188Y45719267D01*
X20706184Y45714262D01*
X20702421Y45708274D01*
X20702416Y45708267D01*
X20613975Y45567514D01*
X20613971Y45567508D01*
X20610211Y45561522D01*
X20607876Y45554850D01*
X20607873Y45554843D01*
X20552968Y45397933D01*
X20552966Y45397927D01*
X20550632Y45391255D01*
X20549840Y45384231D01*
X20549840Y45384228D01*
X20545817Y45348520D01*
X20530435Y45212000D01*
X20550632Y45032745D01*
X20552967Y45026072D01*
X20552968Y45026068D01*
X20607873Y44869158D01*
X20607875Y44869154D01*
X20610211Y44862478D01*
X20706184Y44709738D01*
X20833738Y44582184D01*
X20986478Y44486211D01*
X21156745Y44426632D01*
X21336000Y44406435D01*
X21515255Y44426632D01*
X21685522Y44486211D01*
X21838262Y44582184D01*
X21965816Y44709738D01*
X22061789Y44862478D01*
X22107071Y44991888D01*
X22147440Y45048783D01*
X22211892Y45075480D01*
X22280669Y45063794D01*
X22332687Y45017308D01*
X22352000Y44950272D01*
X22352000Y1785728D01*
X22332687Y1718692D01*
X22280669Y1672206D01*
X22211892Y1660520D01*
X22147440Y1687217D01*
X22107071Y1744113D01*
X22065831Y1861969D01*
X22061789Y1873522D01*
X21965816Y2026262D01*
X21838262Y2153816D01*
X21832268Y2157582D01*
X21832266Y2157584D01*
X21691513Y2246025D01*
X21691510Y2246027D01*
X21685522Y2249789D01*
X21678846Y2252125D01*
X21678842Y2252127D01*
X21521932Y2307032D01*
X21521928Y2307033D01*
X21515255Y2309368D01*
X21508228Y2310160D01*
X21508227Y2310160D01*
X21343029Y2328773D01*
X21336000Y2329565D01*
X21328971Y2328773D01*
X21163772Y2310160D01*
X21163769Y2310160D01*
X21156745Y2309368D01*
X21150073Y2307034D01*
X21150067Y2307032D01*
X20993157Y2252127D01*
X20993150Y2252124D01*
X20986478Y2249789D01*
X20980492Y2246029D01*
X20980486Y2246025D01*
X20839733Y2157584D01*
X20839726Y2157579D01*
X20833738Y2153816D01*
X20828733Y2148812D01*
X20828729Y2148808D01*
X20711192Y2031271D01*
X20711188Y2031267D01*
X20706184Y2026262D01*
X20702421Y2020274D01*
X20702416Y2020267D01*
X20613975Y1879514D01*
X20613971Y1879508D01*
X20610211Y1873522D01*
X20607876Y1866850D01*
X20607873Y1866843D01*
X20552968Y1709933D01*
X20552966Y1709927D01*
X20550632Y1703255D01*
X20549840Y1696231D01*
X20549840Y1696228D01*
X20545817Y1660520D01*
X20530435Y1524000D01*
X20550632Y1344745D01*
X20552967Y1338072D01*
X20552968Y1338068D01*
X20607873Y1181158D01*
X20607875Y1181154D01*
X20610211Y1174478D01*
X20706184Y1021738D01*
X20833738Y894184D01*
X20986478Y798211D01*
X20993157Y795874D01*
X21115887Y752929D01*
X21172783Y712560D01*
X21199480Y648108D01*
X21187794Y579331D01*
X21141308Y527313D01*
X21074272Y508000D01*
X1785728Y508000D01*
X1718692Y527313D01*
X1672206Y579331D01*
X1660520Y648108D01*
X1687217Y712560D01*
X1744113Y752929D01*
X1873522Y798211D01*
X2026262Y894184D01*
X2153816Y1021738D01*
X2249789Y1174478D01*
X2309368Y1344745D01*
X2329565Y1524000D01*
X2309368Y1703255D01*
X2249789Y1873522D01*
X2153816Y2026262D01*
X2026262Y2153816D01*
X2020268Y2157582D01*
X2020266Y2157584D01*
X1879513Y2246025D01*
X1879510Y2246027D01*
X1873522Y2249789D01*
X1866846Y2252125D01*
X1866842Y2252127D01*
X1709932Y2307032D01*
X1709928Y2307033D01*
X1703255Y2309368D01*
X1696228Y2310160D01*
X1696227Y2310160D01*
X1531029Y2328773D01*
X1524000Y2329565D01*
X1516971Y2328773D01*
X1351772Y2310160D01*
X1351769Y2310160D01*
X1344745Y2309368D01*
X1338073Y2307034D01*
X1338067Y2307032D01*
X1181157Y2252127D01*
X1181150Y2252124D01*
X1174478Y2249789D01*
X1168492Y2246029D01*
X1168486Y2246025D01*
X1027733Y2157584D01*
X1027726Y2157579D01*
X1021738Y2153816D01*
X1016733Y2148812D01*
X1016729Y2148808D01*
X899192Y2031271D01*
X899188Y2031267D01*
X894184Y2026262D01*
X890421Y2020274D01*
X890416Y2020267D01*
X801978Y1879518D01*
X801976Y1879515D01*
X798211Y1873522D01*
X797205Y1870648D01*
X754214Y1821440D01*
X690454Y1800722D01*
X625093Y1815640D01*
X576636Y1861969D01*
X558800Y1926595D01*
X558800Y5075430D01*
X2485429Y5075430D01*
X2487110Y5067526D01*
X2491166Y5055040D01*
X2563432Y4892730D01*
X2569998Y4881358D01*
X2674424Y4737627D01*
X2683215Y4727863D01*
X2815242Y4608986D01*
X2825873Y4601263D01*
X2979726Y4512436D01*
X2991733Y4507089D01*
X3160698Y4452189D01*
X3173539Y4449460D01*
X3305937Y4435544D01*
X3312498Y4435200D01*
X3336210Y4435200D01*
X3349293Y4438707D01*
X3352800Y4451790D01*
X3860800Y4451790D01*
X3864306Y4438707D01*
X3877390Y4435200D01*
X3901102Y4435200D01*
X3907662Y4435544D01*
X4040060Y4449460D01*
X4052901Y4452189D01*
X4221866Y4507089D01*
X4233873Y4512436D01*
X4387726Y4601263D01*
X4398357Y4608986D01*
X4530384Y4727863D01*
X4539175Y4737627D01*
X4643601Y4881358D01*
X4650167Y4892730D01*
X4722433Y5055040D01*
X4726489Y5067526D01*
X4728170Y5075430D01*
X4728022Y5086711D01*
X4717021Y5089200D01*
X3877390Y5089200D01*
X3864306Y5085694D01*
X3860800Y5072610D01*
X3860800Y4451790D01*
X3352800Y4451790D01*
X3352800Y5072610D01*
X3349293Y5085694D01*
X3336210Y5089200D01*
X2496579Y5089200D01*
X2485577Y5086711D01*
X2485429Y5075430D01*
X558800Y5075430D01*
X558800Y5280635D01*
X13855951Y5280635D01*
X13856186Y5269257D01*
X13899100Y5099792D01*
X13902470Y5089977D01*
X13988688Y4893422D01*
X13993631Y4884287D01*
X14111022Y4704607D01*
X14117410Y4696401D01*
X14262767Y4538500D01*
X14270411Y4531463D01*
X14439788Y4399632D01*
X14448481Y4393953D01*
X14637242Y4291800D01*
X14646759Y4287625D01*
X14849757Y4217936D01*
X14859827Y4215386D01*
X14921661Y4205068D01*
X14932798Y4205644D01*
X14935200Y4216536D01*
X15443200Y4216536D01*
X15445601Y4205644D01*
X15456738Y4205068D01*
X15518572Y4215386D01*
X15528642Y4217936D01*
X15731640Y4287625D01*
X15741157Y4291800D01*
X15929918Y4393953D01*
X15938611Y4399632D01*
X16107988Y4531463D01*
X16115632Y4538500D01*
X16260989Y4696401D01*
X16267377Y4704607D01*
X16384768Y4884287D01*
X16389711Y4893422D01*
X16475929Y5089977D01*
X16479299Y5099792D01*
X16522213Y5269257D01*
X16522448Y5280635D01*
X16511360Y5283200D01*
X15459790Y5283200D01*
X15446706Y5279694D01*
X15443200Y5266610D01*
X15443200Y4216536D01*
X14935200Y4216536D01*
X14935200Y5266610D01*
X14931693Y5279694D01*
X14918610Y5283200D01*
X13867040Y5283200D01*
X13855951Y5280635D01*
X558800Y5280635D01*
X558800Y23388057D01*
X1393780Y23388057D01*
X1394525Y23380174D01*
X1394525Y23380166D01*
X1397941Y23344039D01*
X1398500Y23332181D01*
X1398500Y8968767D01*
X1397972Y8957584D01*
X1396298Y8950091D01*
X1396547Y8942167D01*
X1396547Y8942165D01*
X1398438Y8882014D01*
X1398500Y8878055D01*
X1398500Y8850144D01*
X1398995Y8846226D01*
X1398997Y8846194D01*
X1399008Y8846112D01*
X1399937Y8834303D01*
X1401077Y8798031D01*
X1401078Y8798024D01*
X1401327Y8790111D01*
X1403537Y8782502D01*
X1403538Y8782500D01*
X1406978Y8770658D01*
X1410986Y8751307D01*
X1413526Y8731203D01*
X1416444Y8723831D01*
X1416445Y8723830D01*
X1429800Y8690099D01*
X1433645Y8678870D01*
X1443771Y8644014D01*
X1443773Y8644008D01*
X1445982Y8636407D01*
X1450014Y8629589D01*
X1450015Y8629587D01*
X1456293Y8618971D01*
X1464990Y8601218D01*
X1472448Y8582383D01*
X1477107Y8575970D01*
X1477108Y8575969D01*
X1498432Y8546619D01*
X1504948Y8536699D01*
X1523422Y8505462D01*
X1527458Y8498638D01*
X1533062Y8493034D01*
X1533063Y8493033D01*
X1541778Y8484318D01*
X1554618Y8469285D01*
X1559957Y8461936D01*
X1566528Y8452893D01*
X1572635Y8447841D01*
X1572636Y8447840D01*
X1600592Y8424713D01*
X1609373Y8416723D01*
X2489809Y7536286D01*
X2515820Y7498440D01*
X2565682Y7386448D01*
X2586836Y7357332D01*
X2634113Y7292261D01*
X2655424Y7244397D01*
X2655424Y7192003D01*
X2634113Y7144139D01*
X2583368Y7074294D01*
X2565682Y7049952D01*
X2562998Y7043925D01*
X2562997Y7043922D01*
X2506814Y6917731D01*
X2488006Y6875488D01*
X2486635Y6869039D01*
X2486633Y6869032D01*
X2449672Y6695144D01*
X2448300Y6688687D01*
X2448300Y6497713D01*
X2449671Y6491260D01*
X2449672Y6491257D01*
X2486633Y6317369D01*
X2486634Y6317365D01*
X2488006Y6310912D01*
X2565682Y6136448D01*
X2598339Y6091500D01*
X2634421Y6041837D01*
X2655732Y5993973D01*
X2655732Y5941580D01*
X2634422Y5893716D01*
X2569997Y5805042D01*
X2563432Y5793671D01*
X2491166Y5631361D01*
X2487110Y5618875D01*
X2485429Y5610971D01*
X2485577Y5599690D01*
X2496579Y5597200D01*
X4717021Y5597200D01*
X4728022Y5599690D01*
X4728170Y5610971D01*
X4726489Y5618875D01*
X4722433Y5631361D01*
X4650167Y5793671D01*
X4643601Y5805043D01*
X4579178Y5893715D01*
X4557867Y5941580D01*
X4557868Y5993974D01*
X4579175Y6041833D01*
X4647918Y6136448D01*
X4725594Y6310912D01*
X4765300Y6497713D01*
X4765300Y6688687D01*
X4725594Y6875488D01*
X4647918Y7049952D01*
X4579483Y7144144D01*
X4558175Y7192003D01*
X4558175Y7244397D01*
X4579483Y7292257D01*
X4647918Y7386448D01*
X4725594Y7560912D01*
X4765300Y7747713D01*
X4765300Y7938687D01*
X4725594Y8125488D01*
X4647918Y8299952D01*
X4644038Y8305292D01*
X4644036Y8305296D01*
X4630252Y8324267D01*
X4609728Y8368668D01*
X4607660Y8417538D01*
X4624359Y8463514D01*
X4703225Y8593975D01*
X4709432Y8607766D01*
X4756335Y8758282D01*
X4758921Y8771279D01*
X4763893Y8825995D01*
X4761293Y8835694D01*
X4748210Y8839200D01*
X3478800Y8839200D01*
X3415800Y8856081D01*
X3369681Y8902200D01*
X3352800Y8965200D01*
X3352800Y9363790D01*
X3860800Y9363790D01*
X3864306Y9350707D01*
X3877390Y9347200D01*
X4748209Y9347200D01*
X4761292Y9350707D01*
X4763892Y9360406D01*
X4758921Y9415113D01*
X4756333Y9428127D01*
X4709432Y9578635D01*
X4703225Y9592426D01*
X4622162Y9726521D01*
X4612826Y9738437D01*
X4502036Y9849227D01*
X4490120Y9858563D01*
X4356025Y9939626D01*
X4342234Y9945833D01*
X4191718Y9992736D01*
X4178721Y9995322D01*
X4116874Y10000942D01*
X4111163Y10001200D01*
X3877390Y10001200D01*
X3864306Y9997694D01*
X3860800Y9984610D01*
X3860800Y9363790D01*
X3352800Y9363790D01*
X3352800Y9984609D01*
X3349293Y9997693D01*
X3336210Y10001199D01*
X3102439Y10001199D01*
X3096722Y10000940D01*
X3034887Y9995322D01*
X3021873Y9992734D01*
X2871365Y9945833D01*
X2857578Y9939628D01*
X2856686Y9939088D01*
X2855840Y9938846D01*
X2850623Y9936497D01*
X2850283Y9937251D01*
X2793404Y9920930D01*
X2729602Y9937168D01*
X2682700Y9983367D01*
X2665500Y10046916D01*
X2665500Y10259035D01*
X6388351Y10259035D01*
X6388586Y10247657D01*
X6431500Y10078192D01*
X6434870Y10068377D01*
X6521088Y9871822D01*
X6526031Y9862687D01*
X6643422Y9683007D01*
X6649810Y9674801D01*
X6795167Y9516900D01*
X6802811Y9509863D01*
X6972188Y9378032D01*
X6980881Y9372353D01*
X7169642Y9270200D01*
X7179159Y9266025D01*
X7382157Y9196336D01*
X7392227Y9193786D01*
X7454061Y9183468D01*
X7465198Y9184044D01*
X7467600Y9194936D01*
X7467600Y10245010D01*
X7464093Y10258094D01*
X7451010Y10261600D01*
X6399440Y10261600D01*
X6388351Y10259035D01*
X2665500Y10259035D01*
X2665500Y12315616D01*
X2682381Y12378616D01*
X2728500Y12424735D01*
X2791500Y12441616D01*
X2854500Y12424735D01*
X2979726Y12352436D01*
X2991733Y12347089D01*
X3160698Y12292189D01*
X3173539Y12289460D01*
X3305937Y12275544D01*
X3312498Y12275200D01*
X3336210Y12275200D01*
X3349293Y12278707D01*
X3352800Y12291790D01*
X3352800Y13311200D01*
X3369681Y13374200D01*
X3415800Y13420319D01*
X3478800Y13437200D01*
X3734800Y13437200D01*
X3797800Y13420319D01*
X3843919Y13374200D01*
X3860800Y13311200D01*
X3860800Y12291790D01*
X3864306Y12278707D01*
X3877390Y12275200D01*
X3901102Y12275200D01*
X3907662Y12275544D01*
X4040060Y12289460D01*
X4052901Y12292189D01*
X4221866Y12347089D01*
X4233873Y12352436D01*
X4387726Y12441263D01*
X4398357Y12448986D01*
X4530384Y12567863D01*
X4539175Y12577627D01*
X4643601Y12721358D01*
X4650171Y12732736D01*
X4672333Y12782513D01*
X4709433Y12830215D01*
X4764478Y12855156D01*
X4824804Y12851599D01*
X4876535Y12820361D01*
X5033542Y12663354D01*
X5041084Y12655067D01*
X5045200Y12648582D01*
X5050979Y12643156D01*
X5050980Y12643154D01*
X5094867Y12601942D01*
X5097709Y12599187D01*
X5117431Y12579465D01*
X5120559Y12577039D01*
X5120560Y12577038D01*
X5120614Y12576996D01*
X5129646Y12569283D01*
X5161879Y12539014D01*
X5168824Y12535196D01*
X5179630Y12529255D01*
X5196156Y12518399D01*
X5205890Y12510849D01*
X5205892Y12510848D01*
X5212160Y12505986D01*
X5252730Y12488430D01*
X5263386Y12483210D01*
X5295193Y12465724D01*
X5302140Y12461905D01*
X5321766Y12456866D01*
X5340459Y12450466D01*
X5359055Y12442419D01*
X5366886Y12441179D01*
X5366889Y12441178D01*
X5383328Y12438575D01*
X5402725Y12435503D01*
X5414325Y12433102D01*
X5457170Y12422100D01*
X5477424Y12422100D01*
X5497134Y12420550D01*
X5517143Y12417380D01*
X5561161Y12421542D01*
X5573019Y12422100D01*
X6444562Y12422100D01*
X6504531Y12406914D01*
X6550044Y12365017D01*
X6645878Y12218332D01*
X6672406Y12189515D01*
X6794827Y12056531D01*
X6794831Y12056527D01*
X6798360Y12052694D01*
X6976024Y11914411D01*
X6980600Y11911935D01*
X6980604Y11911932D01*
X6986285Y11908858D01*
X7009805Y11896130D01*
X7058076Y11849816D01*
X7075837Y11785319D01*
X7058079Y11720821D01*
X7009809Y11674504D01*
X6980885Y11658851D01*
X6972188Y11653169D01*
X6802811Y11521338D01*
X6795167Y11514301D01*
X6649810Y11356400D01*
X6643422Y11348194D01*
X6526031Y11168514D01*
X6521088Y11159379D01*
X6434870Y10962824D01*
X6431500Y10953009D01*
X6388586Y10783544D01*
X6388351Y10772166D01*
X6399440Y10769600D01*
X7849600Y10769600D01*
X7912600Y10752719D01*
X7958719Y10706600D01*
X7975600Y10643600D01*
X7975600Y9194936D01*
X7978001Y9184044D01*
X7989138Y9183468D01*
X8050972Y9193786D01*
X8061042Y9196336D01*
X8264040Y9266025D01*
X8273557Y9270200D01*
X8462318Y9372353D01*
X8471011Y9378032D01*
X8640388Y9509863D01*
X8648032Y9516900D01*
X8793389Y9674801D01*
X8799777Y9683007D01*
X8917168Y9862687D01*
X8922111Y9871822D01*
X9008329Y10068377D01*
X9011699Y10078193D01*
X9064390Y10286265D01*
X9066099Y10296509D01*
X9069930Y10342744D01*
X9090976Y10402702D01*
X9138606Y10444764D01*
X9200706Y10458233D01*
X9261482Y10439683D01*
X9305477Y10393832D01*
X9321500Y10332342D01*
X9321500Y10119863D01*
X9321500Y10119844D01*
X9321501Y10116656D01*
X9321825Y10113479D01*
X9321826Y10113471D01*
X9330967Y10023983D01*
X9332113Y10012774D01*
X9334272Y10006257D01*
X9334274Y10006250D01*
X9378819Y9871822D01*
X9387885Y9844462D01*
X9391732Y9838224D01*
X9391735Y9838219D01*
X9429999Y9776184D01*
X9480970Y9693548D01*
X9606348Y9568170D01*
X9612596Y9564317D01*
X9612595Y9564317D01*
X9751018Y9478936D01*
X9751020Y9478935D01*
X9757262Y9475085D01*
X9782248Y9466806D01*
X9834765Y9433136D01*
X9864694Y9378398D01*
X9864696Y9316013D01*
X9834771Y9261273D01*
X9782255Y9227598D01*
X9764228Y9221624D01*
X9764222Y9221622D01*
X9757262Y9219315D01*
X9751026Y9215470D01*
X9751018Y9215465D01*
X9612595Y9130084D01*
X9612590Y9130081D01*
X9606348Y9126230D01*
X9601158Y9121041D01*
X9601154Y9121037D01*
X9486163Y9006046D01*
X9486159Y9006042D01*
X9480970Y9000852D01*
X9477119Y8994610D01*
X9477116Y8994605D01*
X9391735Y8856182D01*
X9391730Y8856174D01*
X9387885Y8849938D01*
X9385579Y8842981D01*
X9385577Y8842975D01*
X9334275Y8688152D01*
X9332113Y8681626D01*
X9331414Y8674792D01*
X9331414Y8674788D01*
X9321825Y8580930D01*
X9321500Y8577745D01*
X9321500Y8574541D01*
X9321500Y8574540D01*
X9321500Y7579862D01*
X9321500Y7579843D01*
X9321501Y7576656D01*
X9321825Y7573479D01*
X9321826Y7573471D01*
X9330967Y7483983D01*
X9332113Y7472774D01*
X9334272Y7466257D01*
X9334274Y7466250D01*
X9385577Y7311426D01*
X9387885Y7304462D01*
X9391732Y7298224D01*
X9391735Y7298219D01*
X9477116Y7159796D01*
X9480970Y7153548D01*
X9606348Y7028170D01*
X9612596Y7024317D01*
X9612595Y7024317D01*
X9751018Y6938936D01*
X9751020Y6938935D01*
X9757262Y6935085D01*
X9925574Y6879313D01*
X10029455Y6868700D01*
X10830544Y6868701D01*
X10934426Y6879313D01*
X11102738Y6935085D01*
X11253652Y7028170D01*
X11340905Y7115423D01*
X11397389Y7148035D01*
X11462611Y7148035D01*
X11519095Y7115423D01*
X11606348Y7028170D01*
X11612596Y7024317D01*
X11612595Y7024317D01*
X11751018Y6938936D01*
X11751020Y6938935D01*
X11757262Y6935085D01*
X11925574Y6879313D01*
X12029455Y6868700D01*
X12830544Y6868701D01*
X12934426Y6879313D01*
X13102738Y6935085D01*
X13253652Y7028170D01*
X13379030Y7153548D01*
X13472115Y7304462D01*
X13489634Y7357333D01*
X13515930Y7402373D01*
X13558213Y7432906D01*
X13609239Y7443700D01*
X13912162Y7443700D01*
X13972131Y7428514D01*
X14017644Y7386617D01*
X14113478Y7239932D01*
X14117006Y7236100D01*
X14262427Y7078131D01*
X14262431Y7078127D01*
X14265960Y7074294D01*
X14443624Y6936011D01*
X14448200Y6933535D01*
X14448204Y6933532D01*
X14458782Y6927808D01*
X14477405Y6917730D01*
X14525676Y6871416D01*
X14543437Y6806919D01*
X14525679Y6742421D01*
X14477409Y6696104D01*
X14448485Y6680451D01*
X14439788Y6674769D01*
X14270411Y6542938D01*
X14262767Y6535901D01*
X14117410Y6378000D01*
X14111022Y6369794D01*
X13993631Y6190114D01*
X13988688Y6180979D01*
X13902470Y5984424D01*
X13899100Y5974609D01*
X13856186Y5805144D01*
X13855951Y5793766D01*
X13867040Y5791200D01*
X16525744Y5791200D01*
X16525744Y5787507D01*
X16561546Y5786585D01*
X16615945Y5754551D01*
X17174742Y5195754D01*
X17182284Y5187467D01*
X17186400Y5180982D01*
X17192179Y5175556D01*
X17192180Y5175554D01*
X17236067Y5134342D01*
X17238908Y5131588D01*
X17258630Y5111866D01*
X17261814Y5109396D01*
X17270837Y5101691D01*
X17303079Y5071414D01*
X17310028Y5067594D01*
X17320829Y5061656D01*
X17337359Y5050798D01*
X17347094Y5043246D01*
X17347097Y5043244D01*
X17353359Y5038387D01*
X17393936Y5020828D01*
X17404571Y5015619D01*
X17443340Y4994305D01*
X17462966Y4989266D01*
X17481659Y4982866D01*
X17500255Y4974819D01*
X17543918Y4967905D01*
X17555529Y4965500D01*
X17598370Y4954500D01*
X17618631Y4954500D01*
X17638339Y4952950D01*
X17658343Y4949781D01*
X17666235Y4950527D01*
X17671462Y4951021D01*
X17702354Y4953942D01*
X17714211Y4954500D01*
X18331762Y4954500D01*
X18391731Y4939314D01*
X18437244Y4897417D01*
X18533078Y4750732D01*
X18583094Y4696401D01*
X18682027Y4588931D01*
X18682031Y4588927D01*
X18685560Y4585094D01*
X18863224Y4446811D01*
X19061226Y4339658D01*
X19066155Y4337966D01*
X19066157Y4337965D01*
X19167695Y4303107D01*
X19274165Y4266556D01*
X19496231Y4229500D01*
X19716158Y4229500D01*
X19721369Y4229500D01*
X19943435Y4266556D01*
X20156374Y4339658D01*
X20354376Y4446811D01*
X20532040Y4585094D01*
X20684522Y4750732D01*
X20807660Y4939209D01*
X20898096Y5145384D01*
X20953364Y5363632D01*
X20971956Y5588000D01*
X20953364Y5812368D01*
X20898096Y6030616D01*
X20807660Y6236791D01*
X20684522Y6425268D01*
X20617831Y6497713D01*
X20535572Y6587070D01*
X20535567Y6587075D01*
X20532040Y6590906D01*
X20354376Y6729189D01*
X20349802Y6731664D01*
X20349795Y6731669D01*
X20321120Y6747186D01*
X20272848Y6793502D01*
X20255089Y6858000D01*
X20272848Y6922498D01*
X20321120Y6968814D01*
X20349790Y6984329D01*
X20354376Y6986811D01*
X20532040Y7125094D01*
X20684522Y7290732D01*
X20807660Y7479209D01*
X20898096Y7685384D01*
X20953364Y7903632D01*
X20971956Y8128000D01*
X20953364Y8352368D01*
X20898096Y8570616D01*
X20807660Y8776791D01*
X20684522Y8965268D01*
X20616667Y9038977D01*
X20535572Y9127070D01*
X20535567Y9127075D01*
X20532040Y9130906D01*
X20354376Y9269189D01*
X20349802Y9271664D01*
X20349795Y9271669D01*
X20321120Y9287186D01*
X20272848Y9333502D01*
X20255089Y9398000D01*
X20272848Y9462498D01*
X20321120Y9508814D01*
X20323059Y9509863D01*
X20354376Y9526811D01*
X20532040Y9665094D01*
X20684522Y9830732D01*
X20807660Y10019209D01*
X20898096Y10225384D01*
X20953364Y10443632D01*
X20971956Y10668000D01*
X20953364Y10892368D01*
X20955027Y10892506D01*
X20957344Y10936987D01*
X20982682Y10984954D01*
X21025838Y11017822D01*
X21078813Y11029500D01*
X21170884Y11029500D01*
X21177487Y11029500D01*
X21364288Y11069206D01*
X21538752Y11146882D01*
X21693253Y11259134D01*
X21821040Y11401056D01*
X21916527Y11566444D01*
X21975542Y11748072D01*
X21995504Y11938000D01*
X21982829Y12058587D01*
X21986099Y12103095D01*
X21988736Y12113364D01*
X21994900Y12137370D01*
X21994900Y12157624D01*
X21996451Y12177335D01*
X21998380Y12189515D01*
X21999620Y12197343D01*
X21995458Y12241362D01*
X21994900Y12253219D01*
X21994900Y19250637D01*
X21995427Y19261821D01*
X21997101Y19269309D01*
X21994961Y19337368D01*
X21994900Y19341325D01*
X21994900Y19365300D01*
X21994900Y19369256D01*
X21994393Y19373266D01*
X21993461Y19385106D01*
X21993326Y19389402D01*
X21992073Y19429290D01*
X21986420Y19448744D01*
X21982412Y19468103D01*
X21979874Y19488197D01*
X21963597Y19529308D01*
X21959758Y19540518D01*
X21947418Y19582994D01*
X21937103Y19600434D01*
X21928410Y19618179D01*
X21920952Y19637017D01*
X21894964Y19672786D01*
X21888446Y19682710D01*
X21869978Y19713938D01*
X21865942Y19720763D01*
X21851618Y19735087D01*
X21838776Y19750123D01*
X21831534Y19760091D01*
X21831531Y19760094D01*
X21826872Y19766507D01*
X21792805Y19794690D01*
X21784026Y19802679D01*
X20996934Y20589771D01*
X20967727Y20635500D01*
X20960459Y20689267D01*
X20971956Y20828000D01*
X20953364Y21052368D01*
X20898096Y21270616D01*
X20807660Y21476791D01*
X20684522Y21665268D01*
X20600900Y21756105D01*
X20535572Y21827070D01*
X20535567Y21827075D01*
X20532040Y21830906D01*
X20354376Y21969189D01*
X20349802Y21971664D01*
X20349795Y21971669D01*
X20321120Y21987186D01*
X20272848Y22033502D01*
X20255089Y22098000D01*
X20272848Y22162498D01*
X20321120Y22208814D01*
X20349795Y22224332D01*
X20349794Y22224332D01*
X20354376Y22226811D01*
X20532040Y22365094D01*
X20684522Y22530732D01*
X20807660Y22719209D01*
X20898096Y22925384D01*
X20953364Y23143632D01*
X20971956Y23368000D01*
X20953364Y23592368D01*
X20898096Y23810616D01*
X20807660Y24016791D01*
X20684522Y24205268D01*
X20600900Y24296105D01*
X20535572Y24367070D01*
X20535567Y24367075D01*
X20532040Y24370906D01*
X20354376Y24509189D01*
X20349797Y24511667D01*
X20349794Y24511669D01*
X20321118Y24527188D01*
X20272847Y24573506D01*
X20255089Y24638004D01*
X20272850Y24702501D01*
X20321121Y24748815D01*
X20354376Y24766811D01*
X20532040Y24905094D01*
X20684522Y25070732D01*
X20807660Y25259209D01*
X20898096Y25465384D01*
X20953364Y25683632D01*
X20971956Y25908000D01*
X20953364Y26132368D01*
X20898096Y26350616D01*
X20807660Y26556791D01*
X20684522Y26745268D01*
X20593341Y26844316D01*
X20535572Y26907070D01*
X20535567Y26907075D01*
X20532040Y26910906D01*
X20354376Y27049189D01*
X20349802Y27051664D01*
X20349795Y27051669D01*
X20321120Y27067186D01*
X20272848Y27113502D01*
X20255089Y27178000D01*
X20272848Y27242498D01*
X20321120Y27288814D01*
X20349795Y27304332D01*
X20349794Y27304332D01*
X20354376Y27306811D01*
X20532040Y27445094D01*
X20684522Y27610732D01*
X20807660Y27799209D01*
X20898096Y28005384D01*
X20953364Y28223632D01*
X20971956Y28448000D01*
X20953364Y28672368D01*
X20898096Y28890616D01*
X20807660Y29096791D01*
X20684522Y29285268D01*
X20616667Y29358977D01*
X20535572Y29447070D01*
X20535567Y29447075D01*
X20532040Y29450906D01*
X20354376Y29589189D01*
X20349802Y29591664D01*
X20349795Y29591669D01*
X20321120Y29607186D01*
X20272848Y29653502D01*
X20255089Y29718000D01*
X20272848Y29782498D01*
X20321120Y29828814D01*
X20349790Y29844329D01*
X20354376Y29846811D01*
X20532040Y29985094D01*
X20684522Y30150732D01*
X20807660Y30339209D01*
X20898096Y30545384D01*
X20953364Y30763632D01*
X20971956Y30988000D01*
X20953364Y31212368D01*
X20898096Y31430616D01*
X20807660Y31636791D01*
X20684522Y31825268D01*
X20590992Y31926868D01*
X20535572Y31987070D01*
X20535567Y31987075D01*
X20532040Y31990906D01*
X20354376Y32129189D01*
X20349802Y32131664D01*
X20349795Y32131669D01*
X20321120Y32147186D01*
X20272848Y32193502D01*
X20255089Y32258000D01*
X20272848Y32322498D01*
X20321120Y32368814D01*
X20349795Y32384332D01*
X20349794Y32384332D01*
X20354376Y32386811D01*
X20532040Y32525094D01*
X20684522Y32690732D01*
X20807660Y32879209D01*
X20898096Y33085384D01*
X20953364Y33303632D01*
X20971956Y33528000D01*
X20953364Y33752368D01*
X20898096Y33970616D01*
X20807660Y34176791D01*
X20684522Y34365268D01*
X20616667Y34438977D01*
X20535572Y34527070D01*
X20535567Y34527075D01*
X20532040Y34530906D01*
X20354376Y34669189D01*
X20349800Y34671666D01*
X20349790Y34671672D01*
X20320594Y34687471D01*
X20272321Y34733787D01*
X20254562Y34798285D01*
X20272322Y34862783D01*
X20320594Y34909100D01*
X20349523Y34924756D01*
X20358211Y34930432D01*
X20527588Y35062263D01*
X20535232Y35069300D01*
X20680589Y35227201D01*
X20686977Y35235407D01*
X20804368Y35415087D01*
X20809311Y35424222D01*
X20895529Y35620777D01*
X20898899Y35630592D01*
X20941813Y35800057D01*
X20942048Y35811435D01*
X20930960Y35814000D01*
X18286640Y35814000D01*
X18275551Y35811435D01*
X18275786Y35800057D01*
X18318700Y35630592D01*
X18322070Y35620777D01*
X18408288Y35424222D01*
X18413231Y35415087D01*
X18530622Y35235407D01*
X18537010Y35227201D01*
X18682367Y35069300D01*
X18690011Y35062263D01*
X18859388Y34930432D01*
X18868081Y34924753D01*
X18897006Y34909099D01*
X18945278Y34862783D01*
X18963037Y34798285D01*
X18945278Y34733788D01*
X18897007Y34687472D01*
X18893734Y34685700D01*
X18867800Y34671666D01*
X18867794Y34671663D01*
X18863224Y34669189D01*
X18859113Y34665990D01*
X18859111Y34665988D01*
X18689678Y34534112D01*
X18689672Y34534107D01*
X18685560Y34530906D01*
X18682037Y34527081D01*
X18682027Y34527070D01*
X18536606Y34369101D01*
X18536602Y34369098D01*
X18533078Y34365268D01*
X18530230Y34360910D01*
X18530227Y34360905D01*
X18412792Y34181157D01*
X18409940Y34176791D01*
X18407848Y34172022D01*
X18407846Y34172018D01*
X18321599Y33975394D01*
X18321596Y33975386D01*
X18319504Y33970616D01*
X18318223Y33965560D01*
X18318222Y33965555D01*
X18312436Y33942707D01*
X18264236Y33752368D01*
X18263806Y33747182D01*
X18263803Y33747162D01*
X18262142Y33727114D01*
X18236798Y33661161D01*
X18179938Y33619219D01*
X18109442Y33614478D01*
X18047478Y33648427D01*
X16430467Y35265438D01*
X16402824Y35307118D01*
X16393574Y35356269D01*
X16404174Y35405146D01*
X16478496Y35574584D01*
X16533764Y35792832D01*
X16552356Y36017200D01*
X16533764Y36241568D01*
X16478496Y36459816D01*
X16388060Y36665991D01*
X16264922Y36854468D01*
X16180324Y36946365D01*
X16115972Y37016270D01*
X16115967Y37016275D01*
X16112440Y37020106D01*
X15934776Y37158389D01*
X15930202Y37160864D01*
X15930195Y37160869D01*
X15901520Y37176386D01*
X15853248Y37222702D01*
X15835489Y37287200D01*
X15853248Y37351698D01*
X15901520Y37398014D01*
X15930190Y37413529D01*
X15934776Y37416011D01*
X16112440Y37554294D01*
X16264922Y37719932D01*
X16360755Y37866617D01*
X16406269Y37908514D01*
X16466238Y37923700D01*
X16888433Y37923700D01*
X16899616Y37923173D01*
X16907109Y37921498D01*
X16975185Y37923638D01*
X16979145Y37923700D01*
X17003094Y37923700D01*
X17007056Y37923700D01*
X17011056Y37924206D01*
X17022899Y37925139D01*
X17067089Y37926527D01*
X17086533Y37932177D01*
X17105902Y37936188D01*
X17125997Y37938726D01*
X17167115Y37955007D01*
X17178317Y37958843D01*
X17220793Y37971182D01*
X17238239Y37981501D01*
X17255969Y37990187D01*
X17274817Y37997648D01*
X17310587Y38023639D01*
X17320498Y38030149D01*
X17358562Y38052658D01*
X17372888Y38066985D01*
X17387917Y38079822D01*
X17404307Y38091728D01*
X17432494Y38125803D01*
X17440472Y38134570D01*
X18032569Y38726667D01*
X18084712Y38758030D01*
X18145477Y38761299D01*
X18200686Y38735709D01*
X18237464Y38687228D01*
X18247232Y38627165D01*
X18245644Y38608000D01*
X18264236Y38383632D01*
X18319504Y38165384D01*
X18321597Y38160611D01*
X18321599Y38160607D01*
X18359591Y38073994D01*
X18409940Y37959209D01*
X18533078Y37770732D01*
X18536606Y37766900D01*
X18682027Y37608931D01*
X18682031Y37608927D01*
X18685560Y37605094D01*
X18863224Y37466811D01*
X18867800Y37464335D01*
X18867804Y37464332D01*
X18878382Y37458608D01*
X18897005Y37448530D01*
X18945276Y37402216D01*
X18963037Y37337719D01*
X18945279Y37273221D01*
X18897009Y37226904D01*
X18868085Y37211251D01*
X18859388Y37205569D01*
X18690011Y37073738D01*
X18682367Y37066701D01*
X18537010Y36908800D01*
X18530622Y36900594D01*
X18413231Y36720914D01*
X18408288Y36711779D01*
X18322070Y36515224D01*
X18318700Y36505409D01*
X18275786Y36335944D01*
X18275551Y36324566D01*
X18286640Y36322000D01*
X20930960Y36322000D01*
X20942048Y36324566D01*
X20941813Y36335944D01*
X20898899Y36505409D01*
X20895529Y36515224D01*
X20809311Y36711779D01*
X20804368Y36720914D01*
X20686977Y36900594D01*
X20680589Y36908800D01*
X20535232Y37066701D01*
X20527588Y37073738D01*
X20358211Y37205569D01*
X20349513Y37211251D01*
X20320592Y37226903D01*
X20272320Y37273220D01*
X20254562Y37337719D01*
X20272323Y37402216D01*
X20320591Y37448528D01*
X20354376Y37466811D01*
X20532040Y37605094D01*
X20684522Y37770732D01*
X20807660Y37959209D01*
X20898096Y38165384D01*
X20953364Y38383632D01*
X20971956Y38608000D01*
X20953364Y38832368D01*
X20898096Y39050616D01*
X20807660Y39256791D01*
X20684522Y39445268D01*
X20541325Y39600820D01*
X20512088Y39654424D01*
X20511485Y39715480D01*
X20539659Y39769650D01*
X20589991Y39804214D01*
X20705004Y39847111D01*
X20822061Y39934739D01*
X20909689Y40051796D01*
X20960789Y40188799D01*
X20967300Y40249362D01*
X20967300Y42046638D01*
X20960789Y42107201D01*
X20909689Y42244204D01*
X20822061Y42361261D01*
X20769250Y42400795D01*
X20712217Y42443490D01*
X20712214Y42443492D01*
X20705004Y42448889D01*
X20696566Y42452036D01*
X20696563Y42452038D01*
X20575380Y42497237D01*
X20575378Y42497238D01*
X20568001Y42499989D01*
X20560173Y42500831D01*
X20560167Y42500832D01*
X20510788Y42506140D01*
X20510785Y42506141D01*
X20507438Y42506500D01*
X18710162Y42506500D01*
X18706815Y42506141D01*
X18706811Y42506140D01*
X18657432Y42500832D01*
X18657425Y42500831D01*
X18649599Y42499989D01*
X18642223Y42497239D01*
X18642219Y42497237D01*
X18521036Y42452038D01*
X18521030Y42452035D01*
X18512596Y42448889D01*
X18505388Y42443494D01*
X18505382Y42443490D01*
X18402750Y42366660D01*
X18402746Y42366657D01*
X18395539Y42361261D01*
X18390143Y42354054D01*
X18390140Y42354050D01*
X18313310Y42251418D01*
X18313306Y42251412D01*
X18307911Y42244204D01*
X18304765Y42235770D01*
X18304762Y42235764D01*
X18259563Y42114581D01*
X18259561Y42114577D01*
X18256811Y42107201D01*
X18255969Y42099375D01*
X18255968Y42099368D01*
X18252132Y42063679D01*
X18250300Y42046638D01*
X18250300Y42043269D01*
X18250300Y40788395D01*
X18240709Y40740177D01*
X18213395Y40699300D01*
X16741700Y39227605D01*
X16700823Y39200291D01*
X16652605Y39190700D01*
X16466238Y39190700D01*
X16406269Y39205886D01*
X16360755Y39247784D01*
X16357989Y39252018D01*
X16264922Y39394468D01*
X16180324Y39486365D01*
X16121359Y39550418D01*
X16092122Y39604022D01*
X16091519Y39665078D01*
X16119694Y39719248D01*
X16170028Y39753812D01*
X16276720Y39793606D01*
X16292375Y39802155D01*
X16394892Y39878898D01*
X16407502Y39891508D01*
X16484245Y39994025D01*
X16492794Y40009681D01*
X16537940Y40130722D01*
X16541537Y40145943D01*
X16546840Y40195262D01*
X16547200Y40201977D01*
X16547200Y40826610D01*
X16543693Y40839694D01*
X16530610Y40843200D01*
X13847790Y40843200D01*
X13834706Y40839694D01*
X13831200Y40826610D01*
X13831200Y40201977D01*
X13831559Y40195262D01*
X13836862Y40145943D01*
X13840459Y40130722D01*
X13885605Y40009681D01*
X13894154Y39994025D01*
X13970897Y39891508D01*
X13983507Y39878898D01*
X14086024Y39802155D01*
X14101680Y39793606D01*
X14208371Y39753812D01*
X14258705Y39719248D01*
X14286880Y39665078D01*
X14286277Y39604022D01*
X14257040Y39550419D01*
X14117011Y39398308D01*
X14117000Y39398294D01*
X14113478Y39394468D01*
X14023530Y39256791D01*
X14017645Y39247784D01*
X13972131Y39205886D01*
X13912162Y39190700D01*
X13609239Y39190700D01*
X13558213Y39201494D01*
X13515930Y39232027D01*
X13489634Y39277068D01*
X13474422Y39322975D01*
X13472115Y39329938D01*
X13435000Y39390110D01*
X13414002Y39424154D01*
X13379030Y39480852D01*
X13253652Y39606230D01*
X13246071Y39610906D01*
X13108981Y39695465D01*
X13108976Y39695468D01*
X13102738Y39699315D01*
X13095776Y39701622D01*
X13095774Y39701623D01*
X12940951Y39752925D01*
X12940949Y39752926D01*
X12934426Y39755087D01*
X12927589Y39755786D01*
X12927587Y39755786D01*
X12833729Y39765375D01*
X12833723Y39765376D01*
X12830545Y39765700D01*
X12827339Y39765700D01*
X12032661Y39765700D01*
X12032641Y39765700D01*
X12029456Y39765699D01*
X12026279Y39765375D01*
X12026270Y39765374D01*
X11932411Y39755786D01*
X11932405Y39755785D01*
X11925574Y39755087D01*
X11919058Y39752929D01*
X11919049Y39752926D01*
X11764225Y39701623D01*
X11764219Y39701621D01*
X11757262Y39699315D01*
X11751026Y39695470D01*
X11751018Y39695465D01*
X11612595Y39610084D01*
X11612590Y39610081D01*
X11606348Y39606230D01*
X11601158Y39601041D01*
X11601154Y39601037D01*
X11519095Y39518977D01*
X11462611Y39486365D01*
X11397389Y39486365D01*
X11340905Y39518977D01*
X11258845Y39601037D01*
X11253652Y39606230D01*
X11246071Y39610906D01*
X11108981Y39695465D01*
X11108976Y39695468D01*
X11102738Y39699315D01*
X11095776Y39701622D01*
X11095774Y39701623D01*
X10940951Y39752925D01*
X10940949Y39752926D01*
X10934426Y39755087D01*
X10927589Y39755786D01*
X10927587Y39755786D01*
X10833729Y39765375D01*
X10833723Y39765376D01*
X10830545Y39765700D01*
X10827340Y39765700D01*
X10169595Y39765700D01*
X10121377Y39775291D01*
X10080500Y39802605D01*
X9643646Y40239459D01*
X9636112Y40247737D01*
X9632000Y40254218D01*
X9582348Y40300844D01*
X9579506Y40303599D01*
X9562574Y40320531D01*
X9562573Y40320532D01*
X9559770Y40323335D01*
X9556575Y40325814D01*
X9547554Y40333518D01*
X9521097Y40358362D01*
X9515321Y40363786D01*
X9508377Y40367604D01*
X9508371Y40367608D01*
X9497566Y40373548D01*
X9481047Y40384399D01*
X9465041Y40396814D01*
X9457766Y40399962D01*
X9457763Y40399964D01*
X9424466Y40414372D01*
X9413804Y40419595D01*
X9382007Y40437076D01*
X9382005Y40437077D01*
X9375060Y40440895D01*
X9367383Y40442866D01*
X9367381Y40442867D01*
X9355438Y40445933D01*
X9336734Y40452337D01*
X9325420Y40457233D01*
X9325418Y40457234D01*
X9318145Y40460381D01*
X9310319Y40461621D01*
X9310318Y40461621D01*
X9274475Y40467298D01*
X9262859Y40469704D01*
X9220030Y40480700D01*
X9212101Y40480700D01*
X9199776Y40480700D01*
X9180065Y40482251D01*
X9167885Y40484181D01*
X9167878Y40484182D01*
X9160057Y40485420D01*
X9152173Y40484675D01*
X9152165Y40484675D01*
X9116039Y40481259D01*
X9104181Y40480700D01*
X4839831Y40480700D01*
X4782968Y40494261D01*
X4738344Y40532025D01*
X4715566Y40585862D01*
X4719536Y40644185D01*
X4756335Y40762279D01*
X4758921Y40775279D01*
X4763893Y40829995D01*
X4761293Y40839694D01*
X4748210Y40843200D01*
X2465391Y40843200D01*
X2452307Y40839694D01*
X2449707Y40829995D01*
X2454678Y40775288D01*
X2457266Y40762274D01*
X2504167Y40611766D01*
X2510373Y40597977D01*
X2589241Y40467513D01*
X2605939Y40421539D01*
X2603871Y40372669D01*
X2583349Y40328270D01*
X2569565Y40309298D01*
X2569560Y40309291D01*
X2565682Y40303952D01*
X2562998Y40297925D01*
X2562997Y40297922D01*
X2495332Y40145943D01*
X2488006Y40129488D01*
X2486635Y40123039D01*
X2486633Y40123032D01*
X2462540Y40009681D01*
X2448300Y39942687D01*
X2448300Y39751713D01*
X2449671Y39745260D01*
X2449672Y39745257D01*
X2486633Y39571369D01*
X2486634Y39571365D01*
X2488006Y39564912D01*
X2565682Y39390448D01*
X2584468Y39364592D01*
X2634113Y39296261D01*
X2655424Y39248397D01*
X2655424Y39196003D01*
X2634113Y39148139D01*
X2578726Y39071905D01*
X2565682Y39053952D01*
X2563000Y39047930D01*
X2562994Y39047918D01*
X2508434Y38925375D01*
X2482423Y38887530D01*
X1665142Y38070249D01*
X1656859Y38062712D01*
X1650382Y38058600D01*
X1644963Y38052831D01*
X1644955Y38052823D01*
X1603770Y38008965D01*
X1601021Y38006128D01*
X1584067Y37989173D01*
X1584060Y37989166D01*
X1581265Y37986370D01*
X1578842Y37983248D01*
X1578826Y37983229D01*
X1578765Y37983149D01*
X1571090Y37974165D01*
X1546238Y37947698D01*
X1546235Y37947696D01*
X1540814Y37941921D01*
X1537000Y37934986D01*
X1536992Y37934973D01*
X1531050Y37924164D01*
X1520203Y37907651D01*
X1512643Y37897905D01*
X1512637Y37897896D01*
X1507786Y37891641D01*
X1504642Y37884377D01*
X1504638Y37884369D01*
X1490224Y37851060D01*
X1485004Y37840405D01*
X1467525Y37808611D01*
X1467521Y37808603D01*
X1463705Y37801660D01*
X1461733Y37793984D01*
X1461731Y37793976D01*
X1458666Y37782038D01*
X1452265Y37763341D01*
X1447368Y37752024D01*
X1447366Y37752019D01*
X1444219Y37744745D01*
X1442979Y37736920D01*
X1442977Y37736911D01*
X1437301Y37701076D01*
X1434895Y37689456D01*
X1425871Y37654311D01*
X1425869Y37654303D01*
X1423900Y37646630D01*
X1423900Y37638701D01*
X1423900Y37626376D01*
X1422349Y37606665D01*
X1420419Y37594486D01*
X1420418Y37594479D01*
X1419180Y37586657D01*
X1419925Y37578774D01*
X1419925Y37578766D01*
X1423341Y37542639D01*
X1423900Y37530781D01*
X1423900Y29263367D01*
X1423372Y29252184D01*
X1421698Y29244691D01*
X1421947Y29236767D01*
X1421947Y29236765D01*
X1423838Y29176614D01*
X1423900Y29172655D01*
X1423900Y29144744D01*
X1424395Y29140826D01*
X1424397Y29140794D01*
X1424408Y29140712D01*
X1425337Y29128903D01*
X1426477Y29092631D01*
X1426478Y29092624D01*
X1426727Y29084711D01*
X1428937Y29077102D01*
X1428938Y29077100D01*
X1432378Y29065258D01*
X1436386Y29045907D01*
X1436978Y29041218D01*
X1438926Y29025803D01*
X1441844Y29018431D01*
X1441845Y29018430D01*
X1455200Y28984699D01*
X1459045Y28973470D01*
X1469171Y28938614D01*
X1469173Y28938608D01*
X1471382Y28931007D01*
X1475414Y28924189D01*
X1475415Y28924187D01*
X1481693Y28913571D01*
X1490390Y28895818D01*
X1494453Y28885555D01*
X1497848Y28876983D01*
X1502507Y28870570D01*
X1502508Y28870569D01*
X1523832Y28841219D01*
X1530348Y28831299D01*
X1546730Y28803600D01*
X1552858Y28793238D01*
X1558462Y28787634D01*
X1558463Y28787633D01*
X1567178Y28778918D01*
X1580018Y28763885D01*
X1591928Y28747493D01*
X1598035Y28742441D01*
X1598036Y28742440D01*
X1625998Y28719308D01*
X1634778Y28711318D01*
X2505857Y27840239D01*
X2531869Y27802393D01*
X2565682Y27726448D01*
X2634115Y27632259D01*
X2655423Y27584399D01*
X2655424Y27532005D01*
X2634113Y27484140D01*
X2569563Y27395295D01*
X2569559Y27395289D01*
X2565682Y27389952D01*
X2562998Y27383925D01*
X2562997Y27383922D01*
X2498035Y27238013D01*
X2488006Y27215488D01*
X2486635Y27209039D01*
X2486633Y27209032D01*
X2451977Y27045988D01*
X2448300Y27028687D01*
X2448300Y26837713D01*
X2449671Y26831260D01*
X2449672Y26831257D01*
X2486633Y26657369D01*
X2486634Y26657365D01*
X2488006Y26650912D01*
X2565682Y26476448D01*
X2634115Y26382259D01*
X2655423Y26334399D01*
X2655424Y26282005D01*
X2634113Y26234140D01*
X2569563Y26145295D01*
X2569559Y26145289D01*
X2565682Y26139952D01*
X2562998Y26133925D01*
X2562997Y26133922D01*
X2504955Y26003557D01*
X2488006Y25965488D01*
X2486635Y25959039D01*
X2486633Y25959032D01*
X2450744Y25790187D01*
X2448300Y25778687D01*
X2448300Y25587713D01*
X2449671Y25581260D01*
X2449672Y25581257D01*
X2486633Y25407369D01*
X2486634Y25407365D01*
X2488006Y25400912D01*
X2565682Y25226448D01*
X2634115Y25132259D01*
X2655423Y25084399D01*
X2655424Y25032005D01*
X2634113Y24984140D01*
X2569563Y24895295D01*
X2569559Y24895289D01*
X2565682Y24889952D01*
X2563000Y24883930D01*
X2562994Y24883918D01*
X2501051Y24744792D01*
X2475040Y24706947D01*
X1639742Y23871649D01*
X1631459Y23864112D01*
X1624982Y23860000D01*
X1619563Y23854231D01*
X1619555Y23854223D01*
X1578370Y23810365D01*
X1575621Y23807528D01*
X1558667Y23790573D01*
X1558660Y23790566D01*
X1555865Y23787770D01*
X1553442Y23784648D01*
X1553426Y23784629D01*
X1553365Y23784549D01*
X1545690Y23775565D01*
X1520838Y23749098D01*
X1520835Y23749096D01*
X1515414Y23743321D01*
X1511600Y23736386D01*
X1511592Y23736373D01*
X1505650Y23725564D01*
X1494803Y23709051D01*
X1487243Y23699305D01*
X1487237Y23699296D01*
X1482386Y23693041D01*
X1479242Y23685777D01*
X1479238Y23685769D01*
X1464824Y23652460D01*
X1459604Y23641805D01*
X1442125Y23610011D01*
X1442121Y23610003D01*
X1438305Y23603060D01*
X1436333Y23595384D01*
X1436331Y23595376D01*
X1433266Y23583438D01*
X1426865Y23564741D01*
X1421968Y23553424D01*
X1421966Y23553419D01*
X1418819Y23546145D01*
X1417579Y23538320D01*
X1417577Y23538311D01*
X1411901Y23502476D01*
X1409495Y23490856D01*
X1400471Y23455711D01*
X1400469Y23455703D01*
X1398500Y23448030D01*
X1398500Y23440101D01*
X1398500Y23427776D01*
X1396949Y23408065D01*
X1395019Y23395886D01*
X1395018Y23395879D01*
X1393780Y23388057D01*
X558800Y23388057D01*
X558800Y41364406D01*
X2449706Y41364406D01*
X2452306Y41354707D01*
X2465390Y41351200D01*
X3336210Y41351200D01*
X3349293Y41354707D01*
X3352800Y41367790D01*
X3860800Y41367790D01*
X3864306Y41354707D01*
X3877390Y41351200D01*
X4748209Y41351200D01*
X4761292Y41354707D01*
X4763892Y41364406D01*
X4763585Y41367790D01*
X13831200Y41367790D01*
X13834706Y41354707D01*
X13847790Y41351200D01*
X14918610Y41351200D01*
X14931693Y41354707D01*
X14935200Y41367790D01*
X15443200Y41367790D01*
X15446706Y41354707D01*
X15459790Y41351200D01*
X16530610Y41351200D01*
X16543693Y41354707D01*
X16547200Y41367790D01*
X16547200Y41992423D01*
X16546840Y41999139D01*
X16541537Y42048458D01*
X16537940Y42063679D01*
X16492794Y42184720D01*
X16484245Y42200376D01*
X16407502Y42302893D01*
X16394892Y42315503D01*
X16292375Y42392246D01*
X16276719Y42400795D01*
X16155678Y42445941D01*
X16140457Y42449538D01*
X16091138Y42454841D01*
X16084423Y42455200D01*
X15459790Y42455200D01*
X15446706Y42451694D01*
X15443200Y42438610D01*
X15443200Y41367790D01*
X14935200Y41367790D01*
X14935200Y42438610D01*
X14931693Y42451694D01*
X14918610Y42455200D01*
X14293977Y42455200D01*
X14287261Y42454841D01*
X14237942Y42449538D01*
X14222721Y42445941D01*
X14101680Y42400795D01*
X14086024Y42392246D01*
X13983507Y42315503D01*
X13970897Y42302893D01*
X13894154Y42200376D01*
X13885605Y42184720D01*
X13840459Y42063679D01*
X13836862Y42048458D01*
X13831559Y41999139D01*
X13831200Y41992423D01*
X13831200Y41367790D01*
X4763585Y41367790D01*
X4758921Y41419113D01*
X4756333Y41432127D01*
X4709432Y41582635D01*
X4703225Y41596426D01*
X4622162Y41730521D01*
X4612826Y41742437D01*
X4502036Y41853227D01*
X4490120Y41862563D01*
X4356025Y41943626D01*
X4342234Y41949833D01*
X4191718Y41996736D01*
X4178721Y41999322D01*
X4116874Y42004942D01*
X4111163Y42005200D01*
X3877390Y42005200D01*
X3864306Y42001694D01*
X3860800Y41988610D01*
X3860800Y41367790D01*
X3352800Y41367790D01*
X3352800Y41988609D01*
X3349293Y42001693D01*
X3336210Y42005199D01*
X3102439Y42005199D01*
X3096722Y42004940D01*
X3034887Y41999322D01*
X3021873Y41996734D01*
X2871365Y41949833D01*
X2857574Y41943626D01*
X2723479Y41862563D01*
X2711563Y41853227D01*
X2600773Y41742437D01*
X2591437Y41730521D01*
X2510374Y41596426D01*
X2504167Y41582635D01*
X2457264Y41432119D01*
X2454678Y41419122D01*
X2449706Y41364406D01*
X558800Y41364406D01*
X558800Y44809405D01*
X576636Y44874031D01*
X625093Y44920360D01*
X690454Y44935278D01*
X754214Y44914560D01*
X797205Y44865353D01*
X798211Y44862478D01*
X894184Y44709738D01*
X1021738Y44582184D01*
X1174478Y44486211D01*
X1344745Y44426632D01*
X1524000Y44406435D01*
X1703255Y44426632D01*
X1873522Y44486211D01*
X2026262Y44582184D01*
X2153816Y44709738D01*
X2249789Y44862478D01*
X2309368Y45032745D01*
X2329565Y45212000D01*
X2309368Y45391255D01*
X2249789Y45561522D01*
X2153816Y45714262D01*
X2026262Y45841816D01*
X2020268Y45845582D01*
X2020266Y45845584D01*
X1879513Y45934025D01*
X1879510Y45934027D01*
X1873522Y45937789D01*
X1866846Y45940125D01*
X1866842Y45940127D01*
X1744113Y45983071D01*
X1687217Y46023440D01*
X1660520Y46087892D01*
X1672206Y46156669D01*
X1718692Y46208687D01*
X1785728Y46228000D01*
X21074272Y46228000D01*
X21141308Y46208687D01*
G37*
%TD.AperFunction*%
%TD*%
M02*
