%TF.GenerationSoftware,KiCad,Pcbnew,(7.0.0)*%
%TF.CreationDate,2023-03-12T00:46:26+09:00*%
%TF.ProjectId,joystick_gpio_input,6a6f7973-7469-4636-9b5f-6770696f5f69,2*%
%TF.SameCoordinates,PX7b89fa0PY78dfd90*%
%TF.FileFunction,Profile,NP*%
%FSLAX46Y46*%
G04 Gerber Fmt 4.6, Leading zero omitted, Abs format (unit mm)*
G04 Created by KiCad (PCBNEW (7.0.0)) date 2023-03-12 00:46:26*
%MOMM*%
%LPD*%
G01*
G04 APERTURE LIST*
%TA.AperFunction,Profile*%
%ADD10C,0.100000*%
%TD*%
G04 APERTURE END LIST*
D10*
X23364000Y5076000D02*
G75*
G03*
X23364000Y5076000I-250000J0D01*
G01*
X22860000Y41656000D02*
X23368000Y41656000D01*
X23368000Y46736000D01*
X35306000Y46736000D01*
X35306000Y23647400D01*
X30505400Y23647400D01*
X30505400Y23139400D01*
X35306000Y23139400D01*
X35306000Y0D01*
X23368000Y0D01*
X23368000Y4572000D01*
X22860000Y4572000D01*
X22860000Y0D01*
X0Y0D01*
X0Y46736000D01*
X22860000Y46736000D01*
X22860000Y41656000D01*
X2324000Y1524000D02*
G75*
G03*
X2324000Y1524000I-800000J0D01*
G01*
X2324000Y45212000D02*
G75*
G03*
X2324000Y45212000I-800000J0D01*
G01*
X30323600Y23414800D02*
G75*
G03*
X30323600Y23414800I-250000J0D01*
G01*
X22136000Y1524000D02*
G75*
G03*
X22136000Y1524000I-800000J0D01*
G01*
X23368000Y23647400D02*
X28117800Y23647400D01*
X28117800Y23139400D01*
X23368000Y23139400D01*
X23368000Y7112000D01*
X22860000Y7112000D01*
X22860000Y39116000D01*
X23368000Y39116000D01*
X23368000Y23647400D01*
X23364000Y5842000D02*
G75*
G03*
X23364000Y5842000I-250000J0D01*
G01*
X23364000Y6604000D02*
G75*
G03*
X23364000Y6604000I-250000J0D01*
G01*
X23364000Y39620000D02*
G75*
G03*
X23364000Y39620000I-250000J0D01*
G01*
X22136000Y45212000D02*
G75*
G03*
X22136000Y45212000I-800000J0D01*
G01*
X23364000Y41148000D02*
G75*
G03*
X23364000Y41148000I-250000J0D01*
G01*
X23364000Y40386000D02*
G75*
G03*
X23364000Y40386000I-250000J0D01*
G01*
X28795600Y23414800D02*
G75*
G03*
X28795600Y23414800I-250000J0D01*
G01*
X29557600Y23414800D02*
G75*
G03*
X29557600Y23414800I-250000J0D01*
G01*
M02*
