%TF.GenerationSoftware,KiCad,Pcbnew,(7.0.0)*%
%TF.CreationDate,2023-03-12T00:46:26+09:00*%
%TF.ProjectId,joystick_gpio_input,6a6f7973-7469-4636-9b5f-6770696f5f69,2*%
%TF.SameCoordinates,PX7b89fa0PY78dfd90*%
%TF.FileFunction,Legend,Top*%
%TF.FilePolarity,Positive*%
%FSLAX46Y46*%
G04 Gerber Fmt 4.6, Leading zero omitted, Abs format (unit mm)*
G04 Created by KiCad (PCBNEW (7.0.0)) date 2023-03-12 00:46:26*
%MOMM*%
%LPD*%
G01*
G04 APERTURE LIST*
G04 Aperture macros list*
%AMRoundRect*
0 Rectangle with rounded corners*
0 $1 Rounding radius*
0 $2 $3 $4 $5 $6 $7 $8 $9 X,Y pos of 4 corners*
0 Add a 4 corners polygon primitive as box body*
4,1,4,$2,$3,$4,$5,$6,$7,$8,$9,$2,$3,0*
0 Add four circle primitives for the rounded corners*
1,1,$1+$1,$2,$3*
1,1,$1+$1,$4,$5*
1,1,$1+$1,$6,$7*
1,1,$1+$1,$8,$9*
0 Add four rect primitives between the rounded corners*
20,1,$1+$1,$2,$3,$4,$5,0*
20,1,$1+$1,$4,$5,$6,$7,0*
20,1,$1+$1,$6,$7,$8,$9,0*
20,1,$1+$1,$8,$9,$2,$3,0*%
G04 Aperture macros list end*
%ADD10C,0.150000*%
%ADD11C,0.120000*%
%ADD12RoundRect,0.250000X-0.350000X-0.450000X0.350000X-0.450000X0.350000X0.450000X-0.350000X0.450000X0*%
%ADD13RoundRect,0.200000X-0.450000X0.200000X-0.450000X-0.200000X0.450000X-0.200000X0.450000X0.200000X0*%
%ADD14O,1.300000X0.800000*%
%ADD15R,1.700000X1.700000*%
%ADD16O,1.700000X1.700000*%
%ADD17RoundRect,0.200000X0.450000X-0.200000X0.450000X0.200000X-0.450000X0.200000X-0.450000X-0.200000X0*%
G04 APERTURE END LIST*
D10*
X26824209Y26922819D02*
X26862304Y27037105D01*
X26862304Y27037105D02*
X26862304Y27227581D01*
X26862304Y27227581D02*
X26824209Y27303772D01*
X26824209Y27303772D02*
X26786114Y27341867D01*
X26786114Y27341867D02*
X26709923Y27379962D01*
X26709923Y27379962D02*
X26633733Y27379962D01*
X26633733Y27379962D02*
X26557542Y27341867D01*
X26557542Y27341867D02*
X26519447Y27303772D01*
X26519447Y27303772D02*
X26481352Y27227581D01*
X26481352Y27227581D02*
X26443257Y27075200D01*
X26443257Y27075200D02*
X26405161Y26999010D01*
X26405161Y26999010D02*
X26367066Y26960915D01*
X26367066Y26960915D02*
X26290876Y26922819D01*
X26290876Y26922819D02*
X26214685Y26922819D01*
X26214685Y26922819D02*
X26138495Y26960915D01*
X26138495Y26960915D02*
X26100400Y26999010D01*
X26100400Y26999010D02*
X26062304Y27075200D01*
X26062304Y27075200D02*
X26062304Y27265677D01*
X26062304Y27265677D02*
X26100400Y27379962D01*
X26862304Y28103772D02*
X26862304Y27722820D01*
X26862304Y27722820D02*
X26062304Y27722820D01*
X32281542Y3897658D02*
X32243447Y3783372D01*
X32243447Y3783372D02*
X32205352Y3745277D01*
X32205352Y3745277D02*
X32129161Y3707181D01*
X32129161Y3707181D02*
X32014876Y3707181D01*
X32014876Y3707181D02*
X31938685Y3745277D01*
X31938685Y3745277D02*
X31900590Y3783372D01*
X31900590Y3783372D02*
X31862495Y3859562D01*
X31862495Y3859562D02*
X31862495Y4164324D01*
X31862495Y4164324D02*
X32662495Y4164324D01*
X32662495Y4164324D02*
X32662495Y3897658D01*
X32662495Y3897658D02*
X32624400Y3821467D01*
X32624400Y3821467D02*
X32586304Y3783372D01*
X32586304Y3783372D02*
X32510114Y3745277D01*
X32510114Y3745277D02*
X32433923Y3745277D01*
X32433923Y3745277D02*
X32357733Y3783372D01*
X32357733Y3783372D02*
X32319638Y3821467D01*
X32319638Y3821467D02*
X32281542Y3897658D01*
X32281542Y3897658D02*
X32281542Y4164324D01*
X2043333Y9514500D02*
X1976666Y9551643D01*
X1976666Y9551643D02*
X1876666Y9551643D01*
X1876666Y9551643D02*
X1776666Y9514500D01*
X1776666Y9514500D02*
X1710000Y9440215D01*
X1710000Y9440215D02*
X1676666Y9365929D01*
X1676666Y9365929D02*
X1643333Y9217358D01*
X1643333Y9217358D02*
X1643333Y9105929D01*
X1643333Y9105929D02*
X1676666Y8957358D01*
X1676666Y8957358D02*
X1710000Y8883072D01*
X1710000Y8883072D02*
X1776666Y8808786D01*
X1776666Y8808786D02*
X1876666Y8771643D01*
X1876666Y8771643D02*
X1943333Y8771643D01*
X1943333Y8771643D02*
X2043333Y8808786D01*
X2043333Y8808786D02*
X2076666Y8845929D01*
X2076666Y8845929D02*
X2076666Y9105929D01*
X2076666Y9105929D02*
X1943333Y9105929D01*
X1143333Y7545186D02*
X1243333Y7508043D01*
X1243333Y7508043D02*
X1410000Y7508043D01*
X1410000Y7508043D02*
X1476666Y7545186D01*
X1476666Y7545186D02*
X1510000Y7582329D01*
X1510000Y7582329D02*
X1543333Y7656615D01*
X1543333Y7656615D02*
X1543333Y7730900D01*
X1543333Y7730900D02*
X1510000Y7805186D01*
X1510000Y7805186D02*
X1476666Y7842329D01*
X1476666Y7842329D02*
X1410000Y7879472D01*
X1410000Y7879472D02*
X1276666Y7916615D01*
X1276666Y7916615D02*
X1210000Y7953758D01*
X1210000Y7953758D02*
X1176666Y7990900D01*
X1176666Y7990900D02*
X1143333Y8065186D01*
X1143333Y8065186D02*
X1143333Y8139472D01*
X1143333Y8139472D02*
X1176666Y8213758D01*
X1176666Y8213758D02*
X1210000Y8250900D01*
X1210000Y8250900D02*
X1276666Y8288043D01*
X1276666Y8288043D02*
X1443333Y8288043D01*
X1443333Y8288043D02*
X1543333Y8250900D01*
X1743333Y8288043D02*
X2143333Y8288043D01*
X1943333Y7508043D02*
X1943333Y8288043D01*
X1109999Y6281586D02*
X1209999Y6244443D01*
X1209999Y6244443D02*
X1376666Y6244443D01*
X1376666Y6244443D02*
X1443332Y6281586D01*
X1443332Y6281586D02*
X1476666Y6318729D01*
X1476666Y6318729D02*
X1509999Y6393015D01*
X1509999Y6393015D02*
X1509999Y6467300D01*
X1509999Y6467300D02*
X1476666Y6541586D01*
X1476666Y6541586D02*
X1443332Y6578729D01*
X1443332Y6578729D02*
X1376666Y6615872D01*
X1376666Y6615872D02*
X1243332Y6653015D01*
X1243332Y6653015D02*
X1176666Y6690158D01*
X1176666Y6690158D02*
X1143332Y6727300D01*
X1143332Y6727300D02*
X1109999Y6801586D01*
X1109999Y6801586D02*
X1109999Y6875872D01*
X1109999Y6875872D02*
X1143332Y6950158D01*
X1143332Y6950158D02*
X1176666Y6987300D01*
X1176666Y6987300D02*
X1243332Y7024443D01*
X1243332Y7024443D02*
X1409999Y7024443D01*
X1409999Y7024443D02*
X1509999Y6987300D01*
X2143333Y6244443D02*
X1809999Y6244443D01*
X1809999Y6244443D02*
X1809999Y7024443D01*
X2043333Y5723700D02*
X1976666Y5760843D01*
X1976666Y5760843D02*
X1876666Y5760843D01*
X1876666Y5760843D02*
X1776666Y5723700D01*
X1776666Y5723700D02*
X1710000Y5649415D01*
X1710000Y5649415D02*
X1676666Y5575129D01*
X1676666Y5575129D02*
X1643333Y5426558D01*
X1643333Y5426558D02*
X1643333Y5315129D01*
X1643333Y5315129D02*
X1676666Y5166558D01*
X1676666Y5166558D02*
X1710000Y5092272D01*
X1710000Y5092272D02*
X1776666Y5017986D01*
X1776666Y5017986D02*
X1876666Y4980843D01*
X1876666Y4980843D02*
X1943333Y4980843D01*
X1943333Y4980843D02*
X2043333Y5017986D01*
X2043333Y5017986D02*
X2076666Y5055129D01*
X2076666Y5055129D02*
X2076666Y5315129D01*
X2076666Y5315129D02*
X1943333Y5315129D01*
X26862304Y13638630D02*
X26062304Y13638630D01*
X26062304Y13638630D02*
X26062304Y13829106D01*
X26062304Y13829106D02*
X26100400Y13943392D01*
X26100400Y13943392D02*
X26176590Y14019582D01*
X26176590Y14019582D02*
X26252780Y14057677D01*
X26252780Y14057677D02*
X26405161Y14095773D01*
X26405161Y14095773D02*
X26519447Y14095773D01*
X26519447Y14095773D02*
X26671828Y14057677D01*
X26671828Y14057677D02*
X26748019Y14019582D01*
X26748019Y14019582D02*
X26824209Y13943392D01*
X26824209Y13943392D02*
X26862304Y13829106D01*
X26862304Y13829106D02*
X26862304Y13638630D01*
X26862304Y14438630D02*
X26062304Y14438630D01*
X26062304Y14438630D02*
X26862304Y14895773D01*
X26862304Y14895773D02*
X26062304Y14895773D01*
X34075714Y45548220D02*
X33504286Y45548220D01*
X33790000Y45548220D02*
X33790000Y46548220D01*
X33790000Y46548220D02*
X33694762Y46405362D01*
X33694762Y46405362D02*
X33599524Y46310124D01*
X33599524Y46310124D02*
X33504286Y46262505D01*
X34504286Y45548220D02*
X34504286Y46548220D01*
X34504286Y46548220D02*
X34885238Y46548220D01*
X34885238Y46548220D02*
X34980476Y46500600D01*
X34980476Y46500600D02*
X35028095Y46452981D01*
X35028095Y46452981D02*
X35075714Y46357743D01*
X35075714Y46357743D02*
X35075714Y46214886D01*
X35075714Y46214886D02*
X35028095Y46119648D01*
X35028095Y46119648D02*
X34980476Y46072029D01*
X34980476Y46072029D02*
X34885238Y46024410D01*
X34885238Y46024410D02*
X34504286Y46024410D01*
X26862304Y11974820D02*
X26862304Y11593868D01*
X26862304Y11593868D02*
X26062304Y11593868D01*
X8021753Y2386096D02*
X7755086Y2767048D01*
X7564610Y2386096D02*
X7564610Y3186096D01*
X7564610Y3186096D02*
X7869372Y3186096D01*
X7869372Y3186096D02*
X7945562Y3148000D01*
X7945562Y3148000D02*
X7983657Y3109905D01*
X7983657Y3109905D02*
X8021753Y3033715D01*
X8021753Y3033715D02*
X8021753Y2919429D01*
X8021753Y2919429D02*
X7983657Y2843239D01*
X7983657Y2843239D02*
X7945562Y2805143D01*
X7945562Y2805143D02*
X7869372Y2767048D01*
X7869372Y2767048D02*
X7564610Y2767048D01*
X8478895Y3186096D02*
X8478895Y2995620D01*
X8288419Y3071810D02*
X8478895Y2995620D01*
X8478895Y2995620D02*
X8669372Y3071810D01*
X8364610Y2843239D02*
X8478895Y2995620D01*
X8478895Y2995620D02*
X8593181Y2843239D01*
X9545562Y3224191D02*
X8859848Y2195620D01*
X9774133Y2424191D02*
X9888419Y2386096D01*
X9888419Y2386096D02*
X10078895Y2386096D01*
X10078895Y2386096D02*
X10155086Y2424191D01*
X10155086Y2424191D02*
X10193181Y2462286D01*
X10193181Y2462286D02*
X10231276Y2538477D01*
X10231276Y2538477D02*
X10231276Y2614667D01*
X10231276Y2614667D02*
X10193181Y2690858D01*
X10193181Y2690858D02*
X10155086Y2728953D01*
X10155086Y2728953D02*
X10078895Y2767048D01*
X10078895Y2767048D02*
X9926514Y2805143D01*
X9926514Y2805143D02*
X9850324Y2843239D01*
X9850324Y2843239D02*
X9812229Y2881334D01*
X9812229Y2881334D02*
X9774133Y2957524D01*
X9774133Y2957524D02*
X9774133Y3033715D01*
X9774133Y3033715D02*
X9812229Y3109905D01*
X9812229Y3109905D02*
X9850324Y3148000D01*
X9850324Y3148000D02*
X9926514Y3186096D01*
X9926514Y3186096D02*
X10116991Y3186096D01*
X10116991Y3186096D02*
X10231276Y3148000D01*
X10955086Y2386096D02*
X10574134Y2386096D01*
X10574134Y2386096D02*
X10574134Y3186096D01*
X11336038Y3186096D02*
X11336038Y2995620D01*
X11145562Y3071810D02*
X11336038Y2995620D01*
X11336038Y2995620D02*
X11526515Y3071810D01*
X11221753Y2843239D02*
X11336038Y2995620D01*
X11336038Y2995620D02*
X11450324Y2843239D01*
X12402705Y3224191D02*
X11716991Y2195620D01*
X12669372Y2386096D02*
X12669372Y3186096D01*
X12669372Y2805143D02*
X13126515Y2805143D01*
X13126515Y2386096D02*
X13126515Y3186096D01*
X13507467Y2386096D02*
X13507467Y3186096D01*
X13964610Y2386096D02*
X13621752Y2843239D01*
X13964610Y3186096D02*
X13507467Y2728953D01*
X14421752Y3186096D02*
X14421752Y2995620D01*
X14231276Y3071810D02*
X14421752Y2995620D01*
X14421752Y2995620D02*
X14612229Y3071810D01*
X14307467Y2843239D02*
X14421752Y2995620D01*
X14421752Y2995620D02*
X14536038Y2843239D01*
X15396991Y2462286D02*
X15435086Y2424191D01*
X15435086Y2424191D02*
X15396991Y2386096D01*
X15396991Y2386096D02*
X15358895Y2424191D01*
X15358895Y2424191D02*
X15396991Y2462286D01*
X15396991Y2462286D02*
X15396991Y2386096D01*
X15396991Y2881334D02*
X15435086Y2843239D01*
X15435086Y2843239D02*
X15396991Y2805143D01*
X15396991Y2805143D02*
X15358895Y2843239D01*
X15358895Y2843239D02*
X15396991Y2881334D01*
X15396991Y2881334D02*
X15396991Y2805143D01*
X6307467Y1090096D02*
X5850324Y1090096D01*
X6078896Y1090096D02*
X6078896Y1890096D01*
X6078896Y1890096D02*
X6002705Y1775810D01*
X6002705Y1775810D02*
X5926515Y1699620D01*
X5926515Y1699620D02*
X5850324Y1661524D01*
X6650325Y1394858D02*
X7259849Y1394858D01*
X7602705Y1813905D02*
X7640801Y1852000D01*
X7640801Y1852000D02*
X7716991Y1890096D01*
X7716991Y1890096D02*
X7907467Y1890096D01*
X7907467Y1890096D02*
X7983658Y1852000D01*
X7983658Y1852000D02*
X8021753Y1813905D01*
X8021753Y1813905D02*
X8059848Y1737715D01*
X8059848Y1737715D02*
X8059848Y1661524D01*
X8059848Y1661524D02*
X8021753Y1547239D01*
X8021753Y1547239D02*
X7564610Y1090096D01*
X7564610Y1090096D02*
X8059848Y1090096D01*
X8402706Y1166286D02*
X8440801Y1128191D01*
X8440801Y1128191D02*
X8402706Y1090096D01*
X8402706Y1090096D02*
X8364610Y1128191D01*
X8364610Y1128191D02*
X8402706Y1166286D01*
X8402706Y1166286D02*
X8402706Y1090096D01*
X8402706Y1585334D02*
X8440801Y1547239D01*
X8440801Y1547239D02*
X8402706Y1509143D01*
X8402706Y1509143D02*
X8364610Y1547239D01*
X8364610Y1547239D02*
X8402706Y1585334D01*
X8402706Y1585334D02*
X8402706Y1509143D01*
X9240801Y1166286D02*
X9202705Y1128191D01*
X9202705Y1128191D02*
X9088420Y1090096D01*
X9088420Y1090096D02*
X9012229Y1090096D01*
X9012229Y1090096D02*
X8897943Y1128191D01*
X8897943Y1128191D02*
X8821753Y1204381D01*
X8821753Y1204381D02*
X8783658Y1280572D01*
X8783658Y1280572D02*
X8745562Y1432953D01*
X8745562Y1432953D02*
X8745562Y1547239D01*
X8745562Y1547239D02*
X8783658Y1699620D01*
X8783658Y1699620D02*
X8821753Y1775810D01*
X8821753Y1775810D02*
X8897943Y1852000D01*
X8897943Y1852000D02*
X9012229Y1890096D01*
X9012229Y1890096D02*
X9088420Y1890096D01*
X9088420Y1890096D02*
X9202705Y1852000D01*
X9202705Y1852000D02*
X9240801Y1813905D01*
X9736039Y1890096D02*
X9888420Y1890096D01*
X9888420Y1890096D02*
X9964610Y1852000D01*
X9964610Y1852000D02*
X10040801Y1775810D01*
X10040801Y1775810D02*
X10078896Y1623429D01*
X10078896Y1623429D02*
X10078896Y1356762D01*
X10078896Y1356762D02*
X10040801Y1204381D01*
X10040801Y1204381D02*
X9964610Y1128191D01*
X9964610Y1128191D02*
X9888420Y1090096D01*
X9888420Y1090096D02*
X9736039Y1090096D01*
X9736039Y1090096D02*
X9659848Y1128191D01*
X9659848Y1128191D02*
X9583658Y1204381D01*
X9583658Y1204381D02*
X9545562Y1356762D01*
X9545562Y1356762D02*
X9545562Y1623429D01*
X9545562Y1623429D02*
X9583658Y1775810D01*
X9583658Y1775810D02*
X9659848Y1852000D01*
X9659848Y1852000D02*
X9736039Y1890096D01*
X10421753Y1090096D02*
X10421753Y1890096D01*
X10421753Y1890096D02*
X10878896Y1090096D01*
X10878896Y1090096D02*
X10878896Y1890096D01*
X11297943Y1128191D02*
X11297943Y1090096D01*
X11297943Y1090096D02*
X11259848Y1013905D01*
X11259848Y1013905D02*
X11221752Y975810D01*
X12082704Y1813905D02*
X12120800Y1852000D01*
X12120800Y1852000D02*
X12196990Y1890096D01*
X12196990Y1890096D02*
X12387466Y1890096D01*
X12387466Y1890096D02*
X12463657Y1852000D01*
X12463657Y1852000D02*
X12501752Y1813905D01*
X12501752Y1813905D02*
X12539847Y1737715D01*
X12539847Y1737715D02*
X12539847Y1661524D01*
X12539847Y1661524D02*
X12501752Y1547239D01*
X12501752Y1547239D02*
X12044609Y1090096D01*
X12044609Y1090096D02*
X12539847Y1090096D01*
X12882705Y1394858D02*
X13492229Y1394858D01*
X13796990Y1890096D02*
X14292228Y1890096D01*
X14292228Y1890096D02*
X14025562Y1585334D01*
X14025562Y1585334D02*
X14139847Y1585334D01*
X14139847Y1585334D02*
X14216038Y1547239D01*
X14216038Y1547239D02*
X14254133Y1509143D01*
X14254133Y1509143D02*
X14292228Y1432953D01*
X14292228Y1432953D02*
X14292228Y1242477D01*
X14292228Y1242477D02*
X14254133Y1166286D01*
X14254133Y1166286D02*
X14216038Y1128191D01*
X14216038Y1128191D02*
X14139847Y1090096D01*
X14139847Y1090096D02*
X13911276Y1090096D01*
X13911276Y1090096D02*
X13835085Y1128191D01*
X13835085Y1128191D02*
X13796990Y1166286D01*
X14635086Y1166286D02*
X14673181Y1128191D01*
X14673181Y1128191D02*
X14635086Y1090096D01*
X14635086Y1090096D02*
X14596990Y1128191D01*
X14596990Y1128191D02*
X14635086Y1166286D01*
X14635086Y1166286D02*
X14635086Y1090096D01*
X14635086Y1585334D02*
X14673181Y1547239D01*
X14673181Y1547239D02*
X14635086Y1509143D01*
X14635086Y1509143D02*
X14596990Y1547239D01*
X14596990Y1547239D02*
X14635086Y1585334D01*
X14635086Y1585334D02*
X14635086Y1509143D01*
X15435085Y1852000D02*
X15358895Y1890096D01*
X15358895Y1890096D02*
X15244609Y1890096D01*
X15244609Y1890096D02*
X15130323Y1852000D01*
X15130323Y1852000D02*
X15054133Y1775810D01*
X15054133Y1775810D02*
X15016038Y1699620D01*
X15016038Y1699620D02*
X14977942Y1547239D01*
X14977942Y1547239D02*
X14977942Y1432953D01*
X14977942Y1432953D02*
X15016038Y1280572D01*
X15016038Y1280572D02*
X15054133Y1204381D01*
X15054133Y1204381D02*
X15130323Y1128191D01*
X15130323Y1128191D02*
X15244609Y1090096D01*
X15244609Y1090096D02*
X15320800Y1090096D01*
X15320800Y1090096D02*
X15435085Y1128191D01*
X15435085Y1128191D02*
X15473181Y1166286D01*
X15473181Y1166286D02*
X15473181Y1432953D01*
X15473181Y1432953D02*
X15320800Y1432953D01*
X15816038Y1090096D02*
X15816038Y1890096D01*
X15816038Y1890096D02*
X16273181Y1090096D01*
X16273181Y1090096D02*
X16273181Y1890096D01*
X16654133Y1090096D02*
X16654133Y1890096D01*
X16654133Y1890096D02*
X16844609Y1890096D01*
X16844609Y1890096D02*
X16958895Y1852000D01*
X16958895Y1852000D02*
X17035085Y1775810D01*
X17035085Y1775810D02*
X17073180Y1699620D01*
X17073180Y1699620D02*
X17111276Y1547239D01*
X17111276Y1547239D02*
X17111276Y1432953D01*
X17111276Y1432953D02*
X17073180Y1280572D01*
X17073180Y1280572D02*
X17035085Y1204381D01*
X17035085Y1204381D02*
X16958895Y1128191D01*
X16958895Y1128191D02*
X16844609Y1090096D01*
X16844609Y1090096D02*
X16654133Y1090096D01*
X32662495Y45858381D02*
X32662495Y45401238D01*
X31862495Y45629810D02*
X32662495Y45629810D01*
X31862495Y44753619D02*
X31862495Y45134571D01*
X31862495Y45134571D02*
X32662495Y45134571D01*
X2043333Y31145500D02*
X1976666Y31182643D01*
X1976666Y31182643D02*
X1876666Y31182643D01*
X1876666Y31182643D02*
X1776666Y31145500D01*
X1776666Y31145500D02*
X1710000Y31071215D01*
X1710000Y31071215D02*
X1676666Y30996929D01*
X1676666Y30996929D02*
X1643333Y30848358D01*
X1643333Y30848358D02*
X1643333Y30736929D01*
X1643333Y30736929D02*
X1676666Y30588358D01*
X1676666Y30588358D02*
X1710000Y30514072D01*
X1710000Y30514072D02*
X1776666Y30439786D01*
X1776666Y30439786D02*
X1876666Y30402643D01*
X1876666Y30402643D02*
X1943333Y30402643D01*
X1943333Y30402643D02*
X2043333Y30439786D01*
X2043333Y30439786D02*
X2076666Y30476929D01*
X2076666Y30476929D02*
X2076666Y30736929D01*
X2076666Y30736929D02*
X1943333Y30736929D01*
X943333Y29919043D02*
X943333Y29287615D01*
X943333Y29287615D02*
X976667Y29213329D01*
X976667Y29213329D02*
X1010000Y29176186D01*
X1010000Y29176186D02*
X1076667Y29139043D01*
X1076667Y29139043D02*
X1210000Y29139043D01*
X1210000Y29139043D02*
X1276667Y29176186D01*
X1276667Y29176186D02*
X1310000Y29213329D01*
X1310000Y29213329D02*
X1343333Y29287615D01*
X1343333Y29287615D02*
X1343333Y29919043D01*
X1676666Y29139043D02*
X1676666Y29919043D01*
X1676666Y29919043D02*
X1943333Y29919043D01*
X1943333Y29919043D02*
X2010000Y29881900D01*
X2010000Y29881900D02*
X2043333Y29844758D01*
X2043333Y29844758D02*
X2076666Y29770472D01*
X2076666Y29770472D02*
X2076666Y29659043D01*
X2076666Y29659043D02*
X2043333Y29584758D01*
X2043333Y29584758D02*
X2010000Y29547615D01*
X2010000Y29547615D02*
X1943333Y29510472D01*
X1943333Y29510472D02*
X1676666Y29510472D01*
X943333Y27875443D02*
X943333Y28655443D01*
X943333Y28655443D02*
X1110000Y28655443D01*
X1110000Y28655443D02*
X1210000Y28618300D01*
X1210000Y28618300D02*
X1276667Y28544015D01*
X1276667Y28544015D02*
X1310000Y28469729D01*
X1310000Y28469729D02*
X1343333Y28321158D01*
X1343333Y28321158D02*
X1343333Y28209729D01*
X1343333Y28209729D02*
X1310000Y28061158D01*
X1310000Y28061158D02*
X1276667Y27986872D01*
X1276667Y27986872D02*
X1210000Y27912586D01*
X1210000Y27912586D02*
X1110000Y27875443D01*
X1110000Y27875443D02*
X943333Y27875443D01*
X1643333Y27875443D02*
X1643333Y28655443D01*
X1643333Y28655443D02*
X2043333Y27875443D01*
X2043333Y27875443D02*
X2043333Y28655443D01*
X2143333Y26611843D02*
X1809999Y26611843D01*
X1809999Y26611843D02*
X1809999Y27391843D01*
X1543333Y25348243D02*
X1310000Y25719672D01*
X1143333Y25348243D02*
X1143333Y26128243D01*
X1143333Y26128243D02*
X1410000Y26128243D01*
X1410000Y26128243D02*
X1476667Y26091100D01*
X1476667Y26091100D02*
X1510000Y26053958D01*
X1510000Y26053958D02*
X1543333Y25979672D01*
X1543333Y25979672D02*
X1543333Y25868243D01*
X1543333Y25868243D02*
X1510000Y25793958D01*
X1510000Y25793958D02*
X1476667Y25756815D01*
X1476667Y25756815D02*
X1410000Y25719672D01*
X1410000Y25719672D02*
X1143333Y25719672D01*
X1943333Y26128243D02*
X1943333Y25942529D01*
X1776667Y26016815D02*
X1943333Y25942529D01*
X1943333Y25942529D02*
X2110000Y26016815D01*
X1843333Y25793958D02*
X1943333Y25942529D01*
X1943333Y25942529D02*
X2043333Y25793958D01*
X1143333Y24121786D02*
X1243333Y24084643D01*
X1243333Y24084643D02*
X1410000Y24084643D01*
X1410000Y24084643D02*
X1476666Y24121786D01*
X1476666Y24121786D02*
X1510000Y24158929D01*
X1510000Y24158929D02*
X1543333Y24233215D01*
X1543333Y24233215D02*
X1543333Y24307500D01*
X1543333Y24307500D02*
X1510000Y24381786D01*
X1510000Y24381786D02*
X1476666Y24418929D01*
X1476666Y24418929D02*
X1410000Y24456072D01*
X1410000Y24456072D02*
X1276666Y24493215D01*
X1276666Y24493215D02*
X1210000Y24530358D01*
X1210000Y24530358D02*
X1176666Y24567500D01*
X1176666Y24567500D02*
X1143333Y24641786D01*
X1143333Y24641786D02*
X1143333Y24716072D01*
X1143333Y24716072D02*
X1176666Y24790358D01*
X1176666Y24790358D02*
X1210000Y24827500D01*
X1210000Y24827500D02*
X1276666Y24864643D01*
X1276666Y24864643D02*
X1443333Y24864643D01*
X1443333Y24864643D02*
X1543333Y24827500D01*
X1743333Y24864643D02*
X2143333Y24864643D01*
X1943333Y24084643D02*
X1943333Y24864643D01*
X576666Y22858186D02*
X676666Y22821043D01*
X676666Y22821043D02*
X843333Y22821043D01*
X843333Y22821043D02*
X909999Y22858186D01*
X909999Y22858186D02*
X943333Y22895329D01*
X943333Y22895329D02*
X976666Y22969615D01*
X976666Y22969615D02*
X976666Y23043900D01*
X976666Y23043900D02*
X943333Y23118186D01*
X943333Y23118186D02*
X909999Y23155329D01*
X909999Y23155329D02*
X843333Y23192472D01*
X843333Y23192472D02*
X709999Y23229615D01*
X709999Y23229615D02*
X643333Y23266758D01*
X643333Y23266758D02*
X609999Y23303900D01*
X609999Y23303900D02*
X576666Y23378186D01*
X576666Y23378186D02*
X576666Y23452472D01*
X576666Y23452472D02*
X609999Y23526758D01*
X609999Y23526758D02*
X643333Y23563900D01*
X643333Y23563900D02*
X709999Y23601043D01*
X709999Y23601043D02*
X876666Y23601043D01*
X876666Y23601043D02*
X976666Y23563900D01*
X1610000Y22821043D02*
X1276666Y22821043D01*
X1276666Y22821043D02*
X1276666Y23601043D01*
X1943333Y23601043D02*
X1943333Y23415329D01*
X1776667Y23489615D02*
X1943333Y23415329D01*
X1943333Y23415329D02*
X2110000Y23489615D01*
X1843333Y23266758D02*
X1943333Y23415329D01*
X1943333Y23415329D02*
X2043333Y23266758D01*
X1743333Y21780300D02*
X2076666Y21780300D01*
X1676666Y21557443D02*
X1910000Y22337443D01*
X1910000Y22337443D02*
X2143333Y21557443D01*
X1910000Y20702415D02*
X2010000Y20665272D01*
X2010000Y20665272D02*
X2043333Y20628129D01*
X2043333Y20628129D02*
X2076666Y20553843D01*
X2076666Y20553843D02*
X2076666Y20442415D01*
X2076666Y20442415D02*
X2043333Y20368129D01*
X2043333Y20368129D02*
X2010000Y20330986D01*
X2010000Y20330986D02*
X1943333Y20293843D01*
X1943333Y20293843D02*
X1676666Y20293843D01*
X1676666Y20293843D02*
X1676666Y21073843D01*
X1676666Y21073843D02*
X1910000Y21073843D01*
X1910000Y21073843D02*
X1976666Y21036700D01*
X1976666Y21036700D02*
X2010000Y20999558D01*
X2010000Y20999558D02*
X2043333Y20925272D01*
X2043333Y20925272D02*
X2043333Y20850986D01*
X2043333Y20850986D02*
X2010000Y20776700D01*
X2010000Y20776700D02*
X1976666Y20739558D01*
X1976666Y20739558D02*
X1910000Y20702415D01*
X1910000Y20702415D02*
X1676666Y20702415D01*
X1643333Y19810243D02*
X2109999Y19030243D01*
X2109999Y19810243D02*
X1643333Y19030243D01*
X1910000Y18138072D02*
X1910000Y17766643D01*
X1676666Y18546643D02*
X1910000Y18138072D01*
X1910000Y18138072D02*
X2143333Y18546643D01*
X1176666Y17283043D02*
X1576666Y17283043D01*
X1376666Y16503043D02*
X1376666Y17283043D01*
X2143333Y16503043D02*
X1809999Y16503043D01*
X1809999Y16503043D02*
X1809999Y17283043D01*
X1043333Y16019443D02*
X1443333Y16019443D01*
X1243333Y15239443D02*
X1243333Y16019443D01*
X2076666Y15239443D02*
X1843333Y15610872D01*
X1676666Y15239443D02*
X1676666Y16019443D01*
X1676666Y16019443D02*
X1943333Y16019443D01*
X1943333Y16019443D02*
X2010000Y15982300D01*
X2010000Y15982300D02*
X2043333Y15945158D01*
X2043333Y15945158D02*
X2076666Y15870872D01*
X2076666Y15870872D02*
X2076666Y15759443D01*
X2076666Y15759443D02*
X2043333Y15685158D01*
X2043333Y15685158D02*
X2010000Y15648015D01*
X2010000Y15648015D02*
X1943333Y15610872D01*
X1943333Y15610872D02*
X1676666Y15610872D01*
X410000Y13975843D02*
X410000Y14755843D01*
X410000Y14384415D02*
X810000Y14384415D01*
X810000Y13975843D02*
X810000Y14755843D01*
X1143333Y13975843D02*
X1143333Y14755843D01*
X1543333Y13975843D02*
X1243333Y14421558D01*
X1543333Y14755843D02*
X1143333Y14310129D01*
X1943333Y14755843D02*
X1943333Y14570129D01*
X1776667Y14644415D02*
X1943333Y14570129D01*
X1943333Y14570129D02*
X2110000Y14644415D01*
X1843333Y14421558D02*
X1943333Y14570129D01*
X1943333Y14570129D02*
X2043333Y14421558D01*
X2043333Y13455100D02*
X1976666Y13492243D01*
X1976666Y13492243D02*
X1876666Y13492243D01*
X1876666Y13492243D02*
X1776666Y13455100D01*
X1776666Y13455100D02*
X1710000Y13380815D01*
X1710000Y13380815D02*
X1676666Y13306529D01*
X1676666Y13306529D02*
X1643333Y13157958D01*
X1643333Y13157958D02*
X1643333Y13046529D01*
X1643333Y13046529D02*
X1676666Y12897958D01*
X1676666Y12897958D02*
X1710000Y12823672D01*
X1710000Y12823672D02*
X1776666Y12749386D01*
X1776666Y12749386D02*
X1876666Y12712243D01*
X1876666Y12712243D02*
X1943333Y12712243D01*
X1943333Y12712243D02*
X2043333Y12749386D01*
X2043333Y12749386D02*
X2076666Y12786529D01*
X2076666Y12786529D02*
X2076666Y13046529D01*
X2076666Y13046529D02*
X1943333Y13046529D01*
X2043333Y41587500D02*
X1976666Y41624643D01*
X1976666Y41624643D02*
X1876666Y41624643D01*
X1876666Y41624643D02*
X1776666Y41587500D01*
X1776666Y41587500D02*
X1710000Y41513215D01*
X1710000Y41513215D02*
X1676666Y41438929D01*
X1676666Y41438929D02*
X1643333Y41290358D01*
X1643333Y41290358D02*
X1643333Y41178929D01*
X1643333Y41178929D02*
X1676666Y41030358D01*
X1676666Y41030358D02*
X1710000Y40956072D01*
X1710000Y40956072D02*
X1776666Y40881786D01*
X1776666Y40881786D02*
X1876666Y40844643D01*
X1876666Y40844643D02*
X1943333Y40844643D01*
X1943333Y40844643D02*
X2043333Y40881786D01*
X2043333Y40881786D02*
X2076666Y40918929D01*
X2076666Y40918929D02*
X2076666Y41178929D01*
X2076666Y41178929D02*
X1943333Y41178929D01*
X943333Y40361043D02*
X943333Y39729615D01*
X943333Y39729615D02*
X976667Y39655329D01*
X976667Y39655329D02*
X1010000Y39618186D01*
X1010000Y39618186D02*
X1076667Y39581043D01*
X1076667Y39581043D02*
X1210000Y39581043D01*
X1210000Y39581043D02*
X1276667Y39618186D01*
X1276667Y39618186D02*
X1310000Y39655329D01*
X1310000Y39655329D02*
X1343333Y39729615D01*
X1343333Y39729615D02*
X1343333Y40361043D01*
X1676666Y39581043D02*
X1676666Y40361043D01*
X1676666Y40361043D02*
X1943333Y40361043D01*
X1943333Y40361043D02*
X2010000Y40323900D01*
X2010000Y40323900D02*
X2043333Y40286758D01*
X2043333Y40286758D02*
X2076666Y40212472D01*
X2076666Y40212472D02*
X2076666Y40101043D01*
X2076666Y40101043D02*
X2043333Y40026758D01*
X2043333Y40026758D02*
X2010000Y39989615D01*
X2010000Y39989615D02*
X1943333Y39952472D01*
X1943333Y39952472D02*
X1676666Y39952472D01*
X943333Y38317443D02*
X943333Y39097443D01*
X943333Y39097443D02*
X1110000Y39097443D01*
X1110000Y39097443D02*
X1210000Y39060300D01*
X1210000Y39060300D02*
X1276667Y38986015D01*
X1276667Y38986015D02*
X1310000Y38911729D01*
X1310000Y38911729D02*
X1343333Y38763158D01*
X1343333Y38763158D02*
X1343333Y38651729D01*
X1343333Y38651729D02*
X1310000Y38503158D01*
X1310000Y38503158D02*
X1276667Y38428872D01*
X1276667Y38428872D02*
X1210000Y38354586D01*
X1210000Y38354586D02*
X1110000Y38317443D01*
X1110000Y38317443D02*
X943333Y38317443D01*
X1643333Y38317443D02*
X1643333Y39097443D01*
X1643333Y39097443D02*
X2043333Y38317443D01*
X2043333Y38317443D02*
X2043333Y39097443D01*
X2143333Y37053843D02*
X1809999Y37053843D01*
X1809999Y37053843D02*
X1809999Y37833843D01*
X2076666Y35790243D02*
X1843333Y36161672D01*
X1676666Y35790243D02*
X1676666Y36570243D01*
X1676666Y36570243D02*
X1943333Y36570243D01*
X1943333Y36570243D02*
X2010000Y36533100D01*
X2010000Y36533100D02*
X2043333Y36495958D01*
X2043333Y36495958D02*
X2076666Y36421672D01*
X2076666Y36421672D02*
X2076666Y36310243D01*
X2076666Y36310243D02*
X2043333Y36235958D01*
X2043333Y36235958D02*
X2010000Y36198815D01*
X2010000Y36198815D02*
X1943333Y36161672D01*
X1943333Y36161672D02*
X1676666Y36161672D01*
X2043333Y35269500D02*
X1976666Y35306643D01*
X1976666Y35306643D02*
X1876666Y35306643D01*
X1876666Y35306643D02*
X1776666Y35269500D01*
X1776666Y35269500D02*
X1710000Y35195215D01*
X1710000Y35195215D02*
X1676666Y35120929D01*
X1676666Y35120929D02*
X1643333Y34972358D01*
X1643333Y34972358D02*
X1643333Y34860929D01*
X1643333Y34860929D02*
X1676666Y34712358D01*
X1676666Y34712358D02*
X1710000Y34638072D01*
X1710000Y34638072D02*
X1776666Y34563786D01*
X1776666Y34563786D02*
X1876666Y34526643D01*
X1876666Y34526643D02*
X1943333Y34526643D01*
X1943333Y34526643D02*
X2043333Y34563786D01*
X2043333Y34563786D02*
X2076666Y34600929D01*
X2076666Y34600929D02*
X2076666Y34860929D01*
X2076666Y34860929D02*
X1943333Y34860929D01*
X26862304Y9434820D02*
X26481352Y9168153D01*
X26862304Y8977677D02*
X26062304Y8977677D01*
X26062304Y8977677D02*
X26062304Y9282439D01*
X26062304Y9282439D02*
X26100400Y9358629D01*
X26100400Y9358629D02*
X26138495Y9396724D01*
X26138495Y9396724D02*
X26214685Y9434820D01*
X26214685Y9434820D02*
X26328971Y9434820D01*
X26328971Y9434820D02*
X26405161Y9396724D01*
X26405161Y9396724D02*
X26443257Y9358629D01*
X26443257Y9358629D02*
X26481352Y9282439D01*
X26481352Y9282439D02*
X26481352Y8977677D01*
X32243447Y40226000D02*
X31862495Y40226000D01*
X32662495Y40492667D02*
X32243447Y40226000D01*
X32243447Y40226000D02*
X32662495Y39959334D01*
X26062304Y44626630D02*
X26709923Y44626630D01*
X26709923Y44626630D02*
X26786114Y44664725D01*
X26786114Y44664725D02*
X26824209Y44702820D01*
X26824209Y44702820D02*
X26862304Y44779011D01*
X26862304Y44779011D02*
X26862304Y44931392D01*
X26862304Y44931392D02*
X26824209Y45007582D01*
X26824209Y45007582D02*
X26786114Y45045677D01*
X26786114Y45045677D02*
X26709923Y45083773D01*
X26709923Y45083773D02*
X26062304Y45083773D01*
X26862304Y45464725D02*
X26062304Y45464725D01*
X26062304Y45464725D02*
X26062304Y45769487D01*
X26062304Y45769487D02*
X26100400Y45845677D01*
X26100400Y45845677D02*
X26138495Y45883772D01*
X26138495Y45883772D02*
X26214685Y45921868D01*
X26214685Y45921868D02*
X26328971Y45921868D01*
X26328971Y45921868D02*
X26405161Y45883772D01*
X26405161Y45883772D02*
X26443257Y45845677D01*
X26443257Y45845677D02*
X26481352Y45769487D01*
X26481352Y45769487D02*
X26481352Y45464725D01*
X32662495Y19461467D02*
X31862495Y18928133D01*
X32662495Y18928133D02*
X31862495Y19461467D01*
X21188571Y41759570D02*
X21188571Y41120046D01*
X21188571Y41120046D02*
X21224285Y41044808D01*
X21224285Y41044808D02*
X21260000Y41007189D01*
X21260000Y41007189D02*
X21331428Y40969570D01*
X21331428Y40969570D02*
X21474285Y40969570D01*
X21474285Y40969570D02*
X21545714Y41007189D01*
X21545714Y41007189D02*
X21581428Y41044808D01*
X21581428Y41044808D02*
X21617142Y41120046D01*
X21617142Y41120046D02*
X21617142Y41759570D01*
X21974285Y40969570D02*
X21974285Y41759570D01*
X21974285Y41759570D02*
X22259999Y41759570D01*
X22259999Y41759570D02*
X22331428Y41721950D01*
X22331428Y41721950D02*
X22367142Y41684331D01*
X22367142Y41684331D02*
X22402856Y41609093D01*
X22402856Y41609093D02*
X22402856Y41496236D01*
X22402856Y41496236D02*
X22367142Y41420998D01*
X22367142Y41420998D02*
X22331428Y41383379D01*
X22331428Y41383379D02*
X22259999Y41345760D01*
X22259999Y41345760D02*
X21974285Y41345760D01*
X21081428Y39199970D02*
X21510000Y39199970D01*
X21295714Y38409970D02*
X21295714Y39199970D01*
X22117143Y38409970D02*
X21760000Y38409970D01*
X21760000Y38409970D02*
X21760000Y39199970D01*
X21581428Y36602750D02*
X21510000Y36640370D01*
X21510000Y36640370D02*
X21402857Y36640370D01*
X21402857Y36640370D02*
X21295714Y36602750D01*
X21295714Y36602750D02*
X21224285Y36527512D01*
X21224285Y36527512D02*
X21188571Y36452274D01*
X21188571Y36452274D02*
X21152857Y36301798D01*
X21152857Y36301798D02*
X21152857Y36188941D01*
X21152857Y36188941D02*
X21188571Y36038465D01*
X21188571Y36038465D02*
X21224285Y35963227D01*
X21224285Y35963227D02*
X21295714Y35887989D01*
X21295714Y35887989D02*
X21402857Y35850370D01*
X21402857Y35850370D02*
X21474285Y35850370D01*
X21474285Y35850370D02*
X21581428Y35887989D01*
X21581428Y35887989D02*
X21617142Y35925608D01*
X21617142Y35925608D02*
X21617142Y36188941D01*
X21617142Y36188941D02*
X21474285Y36188941D01*
X21117142Y34080770D02*
X21617142Y33290770D01*
X21617142Y34080770D02*
X21117142Y33290770D01*
X21188571Y30731170D02*
X21188571Y31521170D01*
X21188571Y31521170D02*
X21367142Y31521170D01*
X21367142Y31521170D02*
X21474285Y31483550D01*
X21474285Y31483550D02*
X21545714Y31408312D01*
X21545714Y31408312D02*
X21581428Y31333074D01*
X21581428Y31333074D02*
X21617142Y31182598D01*
X21617142Y31182598D02*
X21617142Y31069741D01*
X21617142Y31069741D02*
X21581428Y30919265D01*
X21581428Y30919265D02*
X21545714Y30844027D01*
X21545714Y30844027D02*
X21474285Y30768789D01*
X21474285Y30768789D02*
X21367142Y30731170D01*
X21367142Y30731170D02*
X21188571Y30731170D01*
X21938571Y30731170D02*
X21938571Y31521170D01*
X21938571Y31521170D02*
X22367142Y30731170D01*
X22367142Y30731170D02*
X22367142Y31521170D01*
X21331428Y28547760D02*
X21331428Y28171570D01*
X21081428Y28961570D02*
X21331428Y28547760D01*
X21331428Y28547760D02*
X21581428Y28961570D01*
X21545714Y25611970D02*
X21188571Y25611970D01*
X21188571Y25611970D02*
X21188571Y26401970D01*
X21617142Y23052370D02*
X21367142Y23428560D01*
X21188571Y23052370D02*
X21188571Y23842370D01*
X21188571Y23842370D02*
X21474285Y23842370D01*
X21474285Y23842370D02*
X21545714Y23804750D01*
X21545714Y23804750D02*
X21581428Y23767131D01*
X21581428Y23767131D02*
X21617142Y23691893D01*
X21617142Y23691893D02*
X21617142Y23579036D01*
X21617142Y23579036D02*
X21581428Y23503798D01*
X21581428Y23503798D02*
X21545714Y23466179D01*
X21545714Y23466179D02*
X21474285Y23428560D01*
X21474285Y23428560D02*
X21188571Y23428560D01*
X21081428Y21282770D02*
X21510000Y21282770D01*
X21295714Y20492770D02*
X21295714Y21282770D01*
X22188571Y20492770D02*
X21938571Y20868960D01*
X21760000Y20492770D02*
X21760000Y21282770D01*
X21760000Y21282770D02*
X22045714Y21282770D01*
X22045714Y21282770D02*
X22117143Y21245150D01*
X22117143Y21245150D02*
X22152857Y21207531D01*
X22152857Y21207531D02*
X22188571Y21132293D01*
X22188571Y21132293D02*
X22188571Y21019436D01*
X22188571Y21019436D02*
X22152857Y20944198D01*
X22152857Y20944198D02*
X22117143Y20906579D01*
X22117143Y20906579D02*
X22045714Y20868960D01*
X22045714Y20868960D02*
X21760000Y20868960D01*
X21438571Y18346979D02*
X21545714Y18309360D01*
X21545714Y18309360D02*
X21581428Y18271741D01*
X21581428Y18271741D02*
X21617142Y18196503D01*
X21617142Y18196503D02*
X21617142Y18083646D01*
X21617142Y18083646D02*
X21581428Y18008408D01*
X21581428Y18008408D02*
X21545714Y17970789D01*
X21545714Y17970789D02*
X21474285Y17933170D01*
X21474285Y17933170D02*
X21188571Y17933170D01*
X21188571Y17933170D02*
X21188571Y18723170D01*
X21188571Y18723170D02*
X21438571Y18723170D01*
X21438571Y18723170D02*
X21510000Y18685550D01*
X21510000Y18685550D02*
X21545714Y18647931D01*
X21545714Y18647931D02*
X21581428Y18572693D01*
X21581428Y18572693D02*
X21581428Y18497455D01*
X21581428Y18497455D02*
X21545714Y18422217D01*
X21545714Y18422217D02*
X21510000Y18384598D01*
X21510000Y18384598D02*
X21438571Y18346979D01*
X21438571Y18346979D02*
X21188571Y18346979D01*
X21152857Y15411189D02*
X21260000Y15373570D01*
X21260000Y15373570D02*
X21438571Y15373570D01*
X21438571Y15373570D02*
X21510000Y15411189D01*
X21510000Y15411189D02*
X21545714Y15448808D01*
X21545714Y15448808D02*
X21581428Y15524046D01*
X21581428Y15524046D02*
X21581428Y15599284D01*
X21581428Y15599284D02*
X21545714Y15674522D01*
X21545714Y15674522D02*
X21510000Y15712141D01*
X21510000Y15712141D02*
X21438571Y15749760D01*
X21438571Y15749760D02*
X21295714Y15787379D01*
X21295714Y15787379D02*
X21224285Y15824998D01*
X21224285Y15824998D02*
X21188571Y15862617D01*
X21188571Y15862617D02*
X21152857Y15937855D01*
X21152857Y15937855D02*
X21152857Y16013093D01*
X21152857Y16013093D02*
X21188571Y16088331D01*
X21188571Y16088331D02*
X21224285Y16125950D01*
X21224285Y16125950D02*
X21295714Y16163570D01*
X21295714Y16163570D02*
X21474285Y16163570D01*
X21474285Y16163570D02*
X21581428Y16125950D01*
X21795714Y16163570D02*
X22224286Y16163570D01*
X22010000Y15373570D02*
X22010000Y16163570D01*
X21581428Y13566350D02*
X21510000Y13603970D01*
X21510000Y13603970D02*
X21402857Y13603970D01*
X21402857Y13603970D02*
X21295714Y13566350D01*
X21295714Y13566350D02*
X21224285Y13491112D01*
X21224285Y13491112D02*
X21188571Y13415874D01*
X21188571Y13415874D02*
X21152857Y13265398D01*
X21152857Y13265398D02*
X21152857Y13152541D01*
X21152857Y13152541D02*
X21188571Y13002065D01*
X21188571Y13002065D02*
X21224285Y12926827D01*
X21224285Y12926827D02*
X21295714Y12851589D01*
X21295714Y12851589D02*
X21402857Y12813970D01*
X21402857Y12813970D02*
X21474285Y12813970D01*
X21474285Y12813970D02*
X21581428Y12851589D01*
X21581428Y12851589D02*
X21617142Y12889208D01*
X21617142Y12889208D02*
X21617142Y13152541D01*
X21617142Y13152541D02*
X21474285Y13152541D01*
X21152857Y10291989D02*
X21260000Y10254370D01*
X21260000Y10254370D02*
X21438571Y10254370D01*
X21438571Y10254370D02*
X21510000Y10291989D01*
X21510000Y10291989D02*
X21545714Y10329608D01*
X21545714Y10329608D02*
X21581428Y10404846D01*
X21581428Y10404846D02*
X21581428Y10480084D01*
X21581428Y10480084D02*
X21545714Y10555322D01*
X21545714Y10555322D02*
X21510000Y10592941D01*
X21510000Y10592941D02*
X21438571Y10630560D01*
X21438571Y10630560D02*
X21295714Y10668179D01*
X21295714Y10668179D02*
X21224285Y10705798D01*
X21224285Y10705798D02*
X21188571Y10743417D01*
X21188571Y10743417D02*
X21152857Y10818655D01*
X21152857Y10818655D02*
X21152857Y10893893D01*
X21152857Y10893893D02*
X21188571Y10969131D01*
X21188571Y10969131D02*
X21224285Y11006750D01*
X21224285Y11006750D02*
X21295714Y11044370D01*
X21295714Y11044370D02*
X21474285Y11044370D01*
X21474285Y11044370D02*
X21581428Y11006750D01*
X22260000Y10254370D02*
X21902857Y10254370D01*
X21902857Y10254370D02*
X21902857Y11044370D01*
X21152857Y7920484D02*
X21510000Y7920484D01*
X21081428Y7694770D02*
X21331428Y8484770D01*
X21331428Y8484770D02*
X21581428Y7694770D01*
X21188571Y5135170D02*
X21188571Y5925170D01*
X21188571Y5548979D02*
X21617142Y5548979D01*
X21617142Y5135170D02*
X21617142Y5925170D01*
X21974285Y5135170D02*
X21974285Y5925170D01*
X22402856Y5135170D02*
X22081428Y5586598D01*
X22402856Y5925170D02*
X21974285Y5473741D01*
X32091066Y1605277D02*
X32091066Y1224324D01*
X31862495Y1681467D02*
X32662495Y1414800D01*
X32662495Y1414800D02*
X31862495Y1148134D01*
X32662495Y35774572D02*
X32662495Y35317429D01*
X31862495Y35546001D02*
X32662495Y35546001D01*
X31862495Y34593619D02*
X32243447Y34860286D01*
X31862495Y35050762D02*
X32662495Y35050762D01*
X32662495Y35050762D02*
X32662495Y34746000D01*
X32662495Y34746000D02*
X32624400Y34669810D01*
X32624400Y34669810D02*
X32586304Y34631715D01*
X32586304Y34631715D02*
X32510114Y34593619D01*
X32510114Y34593619D02*
X32395828Y34593619D01*
X32395828Y34593619D02*
X32319638Y34631715D01*
X32319638Y34631715D02*
X32281542Y34669810D01*
X32281542Y34669810D02*
X32243447Y34746000D01*
X32243447Y34746000D02*
X32243447Y35050762D01*
X33504286Y1393381D02*
X33551905Y1441000D01*
X33551905Y1441000D02*
X33647143Y1488620D01*
X33647143Y1488620D02*
X33885238Y1488620D01*
X33885238Y1488620D02*
X33980476Y1441000D01*
X33980476Y1441000D02*
X34028095Y1393381D01*
X34028095Y1393381D02*
X34075714Y1298143D01*
X34075714Y1298143D02*
X34075714Y1202905D01*
X34075714Y1202905D02*
X34028095Y1060048D01*
X34028095Y1060048D02*
X33456667Y488620D01*
X33456667Y488620D02*
X34075714Y488620D01*
X34504286Y488620D02*
X34504286Y1488620D01*
X34504286Y1488620D02*
X34885238Y1488620D01*
X34885238Y1488620D02*
X34980476Y1441000D01*
X34980476Y1441000D02*
X35028095Y1393381D01*
X35028095Y1393381D02*
X35075714Y1298143D01*
X35075714Y1298143D02*
X35075714Y1155286D01*
X35075714Y1155286D02*
X35028095Y1060048D01*
X35028095Y1060048D02*
X34980476Y1012429D01*
X34980476Y1012429D02*
X34885238Y964810D01*
X34885238Y964810D02*
X34504286Y964810D01*
X7668028Y26320465D02*
X7418028Y26677608D01*
X7239457Y26320465D02*
X7239457Y27070465D01*
X7239457Y27070465D02*
X7525171Y27070465D01*
X7525171Y27070465D02*
X7596600Y27034750D01*
X7596600Y27034750D02*
X7632314Y26999036D01*
X7632314Y26999036D02*
X7668028Y26927608D01*
X7668028Y26927608D02*
X7668028Y26820465D01*
X7668028Y26820465D02*
X7632314Y26749036D01*
X7632314Y26749036D02*
X7596600Y26713322D01*
X7596600Y26713322D02*
X7525171Y26677608D01*
X7525171Y26677608D02*
X7239457Y26677608D01*
X8096600Y27070465D02*
X8096600Y26891893D01*
X7918028Y26963322D02*
X8096600Y26891893D01*
X8096600Y26891893D02*
X8275171Y26963322D01*
X7989457Y26749036D02*
X8096600Y26891893D01*
X8096600Y26891893D02*
X8203743Y26749036D01*
X5020504Y45797000D02*
X4925266Y45844620D01*
X4925266Y45844620D02*
X4782409Y45844620D01*
X4782409Y45844620D02*
X4639552Y45797000D01*
X4639552Y45797000D02*
X4544314Y45701762D01*
X4544314Y45701762D02*
X4496695Y45606524D01*
X4496695Y45606524D02*
X4449076Y45416048D01*
X4449076Y45416048D02*
X4449076Y45273191D01*
X4449076Y45273191D02*
X4496695Y45082715D01*
X4496695Y45082715D02*
X4544314Y44987477D01*
X4544314Y44987477D02*
X4639552Y44892239D01*
X4639552Y44892239D02*
X4782409Y44844620D01*
X4782409Y44844620D02*
X4877647Y44844620D01*
X4877647Y44844620D02*
X5020504Y44892239D01*
X5020504Y44892239D02*
X5068123Y44939858D01*
X5068123Y44939858D02*
X5068123Y45273191D01*
X5068123Y45273191D02*
X4877647Y45273191D01*
X5496695Y44844620D02*
X5496695Y45844620D01*
X5496695Y45844620D02*
X5877647Y45844620D01*
X5877647Y45844620D02*
X5972885Y45797000D01*
X5972885Y45797000D02*
X6020504Y45749381D01*
X6020504Y45749381D02*
X6068123Y45654143D01*
X6068123Y45654143D02*
X6068123Y45511286D01*
X6068123Y45511286D02*
X6020504Y45416048D01*
X6020504Y45416048D02*
X5972885Y45368429D01*
X5972885Y45368429D02*
X5877647Y45320810D01*
X5877647Y45320810D02*
X5496695Y45320810D01*
X6496695Y44844620D02*
X6496695Y45844620D01*
X7163361Y45844620D02*
X7353837Y45844620D01*
X7353837Y45844620D02*
X7449075Y45797000D01*
X7449075Y45797000D02*
X7544313Y45701762D01*
X7544313Y45701762D02*
X7591932Y45511286D01*
X7591932Y45511286D02*
X7591932Y45177953D01*
X7591932Y45177953D02*
X7544313Y44987477D01*
X7544313Y44987477D02*
X7449075Y44892239D01*
X7449075Y44892239D02*
X7353837Y44844620D01*
X7353837Y44844620D02*
X7163361Y44844620D01*
X7163361Y44844620D02*
X7068123Y44892239D01*
X7068123Y44892239D02*
X6972885Y44987477D01*
X6972885Y44987477D02*
X6925266Y45177953D01*
X6925266Y45177953D02*
X6925266Y45511286D01*
X6925266Y45511286D02*
X6972885Y45701762D01*
X6972885Y45701762D02*
X7068123Y45797000D01*
X7068123Y45797000D02*
X7163361Y45844620D01*
X8620504Y44844620D02*
X8620504Y45844620D01*
X9096694Y45511286D02*
X9096694Y44844620D01*
X9096694Y45416048D02*
X9144313Y45463667D01*
X9144313Y45463667D02*
X9239551Y45511286D01*
X9239551Y45511286D02*
X9382408Y45511286D01*
X9382408Y45511286D02*
X9477646Y45463667D01*
X9477646Y45463667D02*
X9525265Y45368429D01*
X9525265Y45368429D02*
X9525265Y44844620D01*
X10001456Y45511286D02*
X10001456Y44511286D01*
X10001456Y45463667D02*
X10096694Y45511286D01*
X10096694Y45511286D02*
X10287170Y45511286D01*
X10287170Y45511286D02*
X10382408Y45463667D01*
X10382408Y45463667D02*
X10430027Y45416048D01*
X10430027Y45416048D02*
X10477646Y45320810D01*
X10477646Y45320810D02*
X10477646Y45035096D01*
X10477646Y45035096D02*
X10430027Y44939858D01*
X10430027Y44939858D02*
X10382408Y44892239D01*
X10382408Y44892239D02*
X10287170Y44844620D01*
X10287170Y44844620D02*
X10096694Y44844620D01*
X10096694Y44844620D02*
X10001456Y44892239D01*
X11334789Y45511286D02*
X11334789Y44844620D01*
X10906218Y45511286D02*
X10906218Y44987477D01*
X10906218Y44987477D02*
X10953837Y44892239D01*
X10953837Y44892239D02*
X11049075Y44844620D01*
X11049075Y44844620D02*
X11191932Y44844620D01*
X11191932Y44844620D02*
X11287170Y44892239D01*
X11287170Y44892239D02*
X11334789Y44939858D01*
X11668123Y45511286D02*
X12049075Y45511286D01*
X11810980Y45844620D02*
X11810980Y44987477D01*
X11810980Y44987477D02*
X11858599Y44892239D01*
X11858599Y44892239D02*
X11953837Y44844620D01*
X11953837Y44844620D02*
X12049075Y44844620D01*
X12839552Y45511286D02*
X13220504Y45511286D01*
X12982409Y44844620D02*
X12982409Y45701762D01*
X12982409Y45701762D02*
X13030028Y45797000D01*
X13030028Y45797000D02*
X13125266Y45844620D01*
X13125266Y45844620D02*
X13220504Y45844620D01*
X13696695Y44844620D02*
X13601457Y44892239D01*
X13601457Y44892239D02*
X13553838Y44939858D01*
X13553838Y44939858D02*
X13506219Y45035096D01*
X13506219Y45035096D02*
X13506219Y45320810D01*
X13506219Y45320810D02*
X13553838Y45416048D01*
X13553838Y45416048D02*
X13601457Y45463667D01*
X13601457Y45463667D02*
X13696695Y45511286D01*
X13696695Y45511286D02*
X13839552Y45511286D01*
X13839552Y45511286D02*
X13934790Y45463667D01*
X13934790Y45463667D02*
X13982409Y45416048D01*
X13982409Y45416048D02*
X14030028Y45320810D01*
X14030028Y45320810D02*
X14030028Y45035096D01*
X14030028Y45035096D02*
X13982409Y44939858D01*
X13982409Y44939858D02*
X13934790Y44892239D01*
X13934790Y44892239D02*
X13839552Y44844620D01*
X13839552Y44844620D02*
X13696695Y44844620D01*
X14458600Y44844620D02*
X14458600Y45511286D01*
X14458600Y45320810D02*
X14506219Y45416048D01*
X14506219Y45416048D02*
X14553838Y45463667D01*
X14553838Y45463667D02*
X14649076Y45511286D01*
X14649076Y45511286D02*
X14744314Y45511286D01*
X16249076Y44844620D02*
X15915743Y45320810D01*
X15677648Y44844620D02*
X15677648Y45844620D01*
X15677648Y45844620D02*
X16058600Y45844620D01*
X16058600Y45844620D02*
X16153838Y45797000D01*
X16153838Y45797000D02*
X16201457Y45749381D01*
X16201457Y45749381D02*
X16249076Y45654143D01*
X16249076Y45654143D02*
X16249076Y45511286D01*
X16249076Y45511286D02*
X16201457Y45416048D01*
X16201457Y45416048D02*
X16153838Y45368429D01*
X16153838Y45368429D02*
X16058600Y45320810D01*
X16058600Y45320810D02*
X15677648Y45320810D01*
X17106219Y44844620D02*
X17106219Y45368429D01*
X17106219Y45368429D02*
X17058600Y45463667D01*
X17058600Y45463667D02*
X16963362Y45511286D01*
X16963362Y45511286D02*
X16772886Y45511286D01*
X16772886Y45511286D02*
X16677648Y45463667D01*
X17106219Y44892239D02*
X17010981Y44844620D01*
X17010981Y44844620D02*
X16772886Y44844620D01*
X16772886Y44844620D02*
X16677648Y44892239D01*
X16677648Y44892239D02*
X16630029Y44987477D01*
X16630029Y44987477D02*
X16630029Y45082715D01*
X16630029Y45082715D02*
X16677648Y45177953D01*
X16677648Y45177953D02*
X16772886Y45225572D01*
X16772886Y45225572D02*
X17010981Y45225572D01*
X17010981Y45225572D02*
X17106219Y45273191D01*
X17534791Y44892239D02*
X17630029Y44844620D01*
X17630029Y44844620D02*
X17820505Y44844620D01*
X17820505Y44844620D02*
X17915743Y44892239D01*
X17915743Y44892239D02*
X17963362Y44987477D01*
X17963362Y44987477D02*
X17963362Y45035096D01*
X17963362Y45035096D02*
X17915743Y45130334D01*
X17915743Y45130334D02*
X17820505Y45177953D01*
X17820505Y45177953D02*
X17677648Y45177953D01*
X17677648Y45177953D02*
X17582410Y45225572D01*
X17582410Y45225572D02*
X17534791Y45320810D01*
X17534791Y45320810D02*
X17534791Y45368429D01*
X17534791Y45368429D02*
X17582410Y45463667D01*
X17582410Y45463667D02*
X17677648Y45511286D01*
X17677648Y45511286D02*
X17820505Y45511286D01*
X17820505Y45511286D02*
X17915743Y45463667D01*
X18391934Y45511286D02*
X18391934Y44511286D01*
X18391934Y45463667D02*
X18487172Y45511286D01*
X18487172Y45511286D02*
X18677648Y45511286D01*
X18677648Y45511286D02*
X18772886Y45463667D01*
X18772886Y45463667D02*
X18820505Y45416048D01*
X18820505Y45416048D02*
X18868124Y45320810D01*
X18868124Y45320810D02*
X18868124Y45035096D01*
X18868124Y45035096D02*
X18820505Y44939858D01*
X18820505Y44939858D02*
X18772886Y44892239D01*
X18772886Y44892239D02*
X18677648Y44844620D01*
X18677648Y44844620D02*
X18487172Y44844620D01*
X18487172Y44844620D02*
X18391934Y44892239D01*
X26862304Y24306630D02*
X26062304Y24306630D01*
X26443257Y24306630D02*
X26443257Y24763773D01*
X26862304Y24763773D02*
X26062304Y24763773D01*
X26862304Y25144725D02*
X26062304Y25144725D01*
X26862304Y25601868D02*
X26405161Y25259010D01*
X26062304Y25601868D02*
X26519447Y25144725D01*
X26062304Y21258630D02*
X26709923Y21258630D01*
X26709923Y21258630D02*
X26786114Y21296725D01*
X26786114Y21296725D02*
X26824209Y21334820D01*
X26824209Y21334820D02*
X26862304Y21411011D01*
X26862304Y21411011D02*
X26862304Y21563392D01*
X26862304Y21563392D02*
X26824209Y21639582D01*
X26824209Y21639582D02*
X26786114Y21677677D01*
X26786114Y21677677D02*
X26709923Y21715773D01*
X26709923Y21715773D02*
X26062304Y21715773D01*
X26862304Y22096725D02*
X26062304Y22096725D01*
X26062304Y22096725D02*
X26062304Y22401487D01*
X26062304Y22401487D02*
X26100400Y22477677D01*
X26100400Y22477677D02*
X26138495Y22515772D01*
X26138495Y22515772D02*
X26214685Y22553868D01*
X26214685Y22553868D02*
X26328971Y22553868D01*
X26328971Y22553868D02*
X26405161Y22515772D01*
X26405161Y22515772D02*
X26443257Y22477677D01*
X26443257Y22477677D02*
X26481352Y22401487D01*
X26481352Y22401487D02*
X26481352Y22096725D01*
X26824209Y6113867D02*
X26862304Y6228153D01*
X26862304Y6228153D02*
X26862304Y6418629D01*
X26862304Y6418629D02*
X26824209Y6494820D01*
X26824209Y6494820D02*
X26786114Y6532915D01*
X26786114Y6532915D02*
X26709923Y6571010D01*
X26709923Y6571010D02*
X26633733Y6571010D01*
X26633733Y6571010D02*
X26557542Y6532915D01*
X26557542Y6532915D02*
X26519447Y6494820D01*
X26519447Y6494820D02*
X26481352Y6418629D01*
X26481352Y6418629D02*
X26443257Y6266248D01*
X26443257Y6266248D02*
X26405161Y6190058D01*
X26405161Y6190058D02*
X26367066Y6151963D01*
X26367066Y6151963D02*
X26290876Y6113867D01*
X26290876Y6113867D02*
X26214685Y6113867D01*
X26214685Y6113867D02*
X26138495Y6151963D01*
X26138495Y6151963D02*
X26100400Y6190058D01*
X26100400Y6190058D02*
X26062304Y6266248D01*
X26062304Y6266248D02*
X26062304Y6456725D01*
X26062304Y6456725D02*
X26100400Y6571010D01*
X26062304Y6799582D02*
X26062304Y7256725D01*
X26862304Y7028153D02*
X26062304Y7028153D01*
X32243447Y11574800D02*
X31862495Y11574800D01*
X32662495Y11841467D02*
X32243447Y11574800D01*
X32243447Y11574800D02*
X32662495Y11308134D01*
X26824209Y3554819D02*
X26862304Y3669105D01*
X26862304Y3669105D02*
X26862304Y3859581D01*
X26862304Y3859581D02*
X26824209Y3935772D01*
X26824209Y3935772D02*
X26786114Y3973867D01*
X26786114Y3973867D02*
X26709923Y4011962D01*
X26709923Y4011962D02*
X26633733Y4011962D01*
X26633733Y4011962D02*
X26557542Y3973867D01*
X26557542Y3973867D02*
X26519447Y3935772D01*
X26519447Y3935772D02*
X26481352Y3859581D01*
X26481352Y3859581D02*
X26443257Y3707200D01*
X26443257Y3707200D02*
X26405161Y3631010D01*
X26405161Y3631010D02*
X26367066Y3592915D01*
X26367066Y3592915D02*
X26290876Y3554819D01*
X26290876Y3554819D02*
X26214685Y3554819D01*
X26214685Y3554819D02*
X26138495Y3592915D01*
X26138495Y3592915D02*
X26100400Y3631010D01*
X26100400Y3631010D02*
X26062304Y3707200D01*
X26062304Y3707200D02*
X26062304Y3897677D01*
X26062304Y3897677D02*
X26100400Y4011962D01*
X26862304Y4735772D02*
X26862304Y4354820D01*
X26862304Y4354820D02*
X26062304Y4354820D01*
X26862304Y39546630D02*
X26062304Y39546630D01*
X26062304Y39546630D02*
X26062304Y39737106D01*
X26062304Y39737106D02*
X26100400Y39851392D01*
X26100400Y39851392D02*
X26176590Y39927582D01*
X26176590Y39927582D02*
X26252780Y39965677D01*
X26252780Y39965677D02*
X26405161Y40003773D01*
X26405161Y40003773D02*
X26519447Y40003773D01*
X26519447Y40003773D02*
X26671828Y39965677D01*
X26671828Y39965677D02*
X26748019Y39927582D01*
X26748019Y39927582D02*
X26824209Y39851392D01*
X26824209Y39851392D02*
X26862304Y39737106D01*
X26862304Y39737106D02*
X26862304Y39546630D01*
X26862304Y40346630D02*
X26062304Y40346630D01*
X26062304Y40346630D02*
X26862304Y40803773D01*
X26862304Y40803773D02*
X26062304Y40803773D01*
X32091066Y27716477D02*
X32091066Y27335524D01*
X31862495Y27792667D02*
X32662495Y27526000D01*
X32662495Y27526000D02*
X31862495Y27259334D01*
X32662495Y43032667D02*
X31862495Y42499333D01*
X32662495Y42499333D02*
X31862495Y43032667D01*
X26862304Y35342820D02*
X26481352Y35076153D01*
X26862304Y34885677D02*
X26062304Y34885677D01*
X26062304Y34885677D02*
X26062304Y35190439D01*
X26062304Y35190439D02*
X26100400Y35266629D01*
X26100400Y35266629D02*
X26138495Y35304724D01*
X26138495Y35304724D02*
X26214685Y35342820D01*
X26214685Y35342820D02*
X26328971Y35342820D01*
X26328971Y35342820D02*
X26405161Y35304724D01*
X26405161Y35304724D02*
X26443257Y35266629D01*
X26443257Y35266629D02*
X26481352Y35190439D01*
X26481352Y35190439D02*
X26481352Y34885677D01*
X6788267Y8202096D02*
X6788267Y9002096D01*
X6788267Y8621143D02*
X7245410Y8621143D01*
X7245410Y8202096D02*
X7245410Y9002096D01*
X7626362Y8202096D02*
X7626362Y9002096D01*
X8083505Y8202096D02*
X7740647Y8659239D01*
X8083505Y9002096D02*
X7626362Y8544953D01*
X8540647Y9002096D02*
X8540647Y8811620D01*
X8350171Y8887810D02*
X8540647Y8811620D01*
X8540647Y8811620D02*
X8731124Y8887810D01*
X8426362Y8659239D02*
X8540647Y8811620D01*
X8540647Y8811620D02*
X8654933Y8659239D01*
X6864456Y17290191D02*
X6978742Y17252096D01*
X6978742Y17252096D02*
X7169218Y17252096D01*
X7169218Y17252096D02*
X7245409Y17290191D01*
X7245409Y17290191D02*
X7283504Y17328286D01*
X7283504Y17328286D02*
X7321599Y17404477D01*
X7321599Y17404477D02*
X7321599Y17480667D01*
X7321599Y17480667D02*
X7283504Y17556858D01*
X7283504Y17556858D02*
X7245409Y17594953D01*
X7245409Y17594953D02*
X7169218Y17633048D01*
X7169218Y17633048D02*
X7016837Y17671143D01*
X7016837Y17671143D02*
X6940647Y17709239D01*
X6940647Y17709239D02*
X6902552Y17747334D01*
X6902552Y17747334D02*
X6864456Y17823524D01*
X6864456Y17823524D02*
X6864456Y17899715D01*
X6864456Y17899715D02*
X6902552Y17975905D01*
X6902552Y17975905D02*
X6940647Y18014000D01*
X6940647Y18014000D02*
X7016837Y18052096D01*
X7016837Y18052096D02*
X7207314Y18052096D01*
X7207314Y18052096D02*
X7321599Y18014000D01*
X8045409Y17252096D02*
X7664457Y17252096D01*
X7664457Y17252096D02*
X7664457Y18052096D01*
X8426361Y18052096D02*
X8426361Y17861620D01*
X8235885Y17937810D02*
X8426361Y17861620D01*
X8426361Y17861620D02*
X8616838Y17937810D01*
X8312076Y17709239D02*
X8426361Y17861620D01*
X8426361Y17861620D02*
X8540647Y17709239D01*
X15538572Y43394096D02*
X15271905Y43775048D01*
X15081429Y43394096D02*
X15081429Y44194096D01*
X15081429Y44194096D02*
X15386191Y44194096D01*
X15386191Y44194096D02*
X15462381Y44156000D01*
X15462381Y44156000D02*
X15500476Y44117905D01*
X15500476Y44117905D02*
X15538572Y44041715D01*
X15538572Y44041715D02*
X15538572Y43927429D01*
X15538572Y43927429D02*
X15500476Y43851239D01*
X15500476Y43851239D02*
X15462381Y43813143D01*
X15462381Y43813143D02*
X15386191Y43775048D01*
X15386191Y43775048D02*
X15081429Y43775048D01*
X16186191Y43432191D02*
X16110000Y43394096D01*
X16110000Y43394096D02*
X15957619Y43394096D01*
X15957619Y43394096D02*
X15881429Y43432191D01*
X15881429Y43432191D02*
X15843333Y43508381D01*
X15843333Y43508381D02*
X15843333Y43813143D01*
X15843333Y43813143D02*
X15881429Y43889334D01*
X15881429Y43889334D02*
X15957619Y43927429D01*
X15957619Y43927429D02*
X16110000Y43927429D01*
X16110000Y43927429D02*
X16186191Y43889334D01*
X16186191Y43889334D02*
X16224286Y43813143D01*
X16224286Y43813143D02*
X16224286Y43736953D01*
X16224286Y43736953D02*
X15843333Y43660762D01*
X16490952Y43927429D02*
X16681428Y43394096D01*
X16681428Y43394096D02*
X16871905Y43927429D01*
X17176667Y43470286D02*
X17214762Y43432191D01*
X17214762Y43432191D02*
X17176667Y43394096D01*
X17176667Y43394096D02*
X17138571Y43432191D01*
X17138571Y43432191D02*
X17176667Y43470286D01*
X17176667Y43470286D02*
X17176667Y43394096D01*
X17519523Y44117905D02*
X17557619Y44156000D01*
X17557619Y44156000D02*
X17633809Y44194096D01*
X17633809Y44194096D02*
X17824285Y44194096D01*
X17824285Y44194096D02*
X17900476Y44156000D01*
X17900476Y44156000D02*
X17938571Y44117905D01*
X17938571Y44117905D02*
X17976666Y44041715D01*
X17976666Y44041715D02*
X17976666Y43965524D01*
X17976666Y43965524D02*
X17938571Y43851239D01*
X17938571Y43851239D02*
X17481428Y43394096D01*
X17481428Y43394096D02*
X17976666Y43394096D01*
X32662495Y7123372D02*
X32662495Y6666229D01*
X31862495Y6894801D02*
X32662495Y6894801D01*
X31862495Y5942419D02*
X32243447Y6209086D01*
X31862495Y6399562D02*
X32662495Y6399562D01*
X32662495Y6399562D02*
X32662495Y6094800D01*
X32662495Y6094800D02*
X32624400Y6018610D01*
X32624400Y6018610D02*
X32586304Y5980515D01*
X32586304Y5980515D02*
X32510114Y5942419D01*
X32510114Y5942419D02*
X32395828Y5942419D01*
X32395828Y5942419D02*
X32319638Y5980515D01*
X32319638Y5980515D02*
X32281542Y6018610D01*
X32281542Y6018610D02*
X32243447Y6094800D01*
X32243447Y6094800D02*
X32243447Y6399562D01*
X26862304Y37882820D02*
X26862304Y37501868D01*
X26862304Y37501868D02*
X26062304Y37501868D01*
X32281542Y32548858D02*
X32243447Y32434572D01*
X32243447Y32434572D02*
X32205352Y32396477D01*
X32205352Y32396477D02*
X32129161Y32358381D01*
X32129161Y32358381D02*
X32014876Y32358381D01*
X32014876Y32358381D02*
X31938685Y32396477D01*
X31938685Y32396477D02*
X31900590Y32434572D01*
X31900590Y32434572D02*
X31862495Y32510762D01*
X31862495Y32510762D02*
X31862495Y32815524D01*
X31862495Y32815524D02*
X32662495Y32815524D01*
X32662495Y32815524D02*
X32662495Y32548858D01*
X32662495Y32548858D02*
X32624400Y32472667D01*
X32624400Y32472667D02*
X32586304Y32434572D01*
X32586304Y32434572D02*
X32510114Y32396477D01*
X32510114Y32396477D02*
X32433923Y32396477D01*
X32433923Y32396477D02*
X32357733Y32434572D01*
X32357733Y32434572D02*
X32319638Y32472667D01*
X32319638Y32472667D02*
X32281542Y32548858D01*
X32281542Y32548858D02*
X32281542Y32815524D01*
X26824209Y29481867D02*
X26862304Y29596153D01*
X26862304Y29596153D02*
X26862304Y29786629D01*
X26862304Y29786629D02*
X26824209Y29862820D01*
X26824209Y29862820D02*
X26786114Y29900915D01*
X26786114Y29900915D02*
X26709923Y29939010D01*
X26709923Y29939010D02*
X26633733Y29939010D01*
X26633733Y29939010D02*
X26557542Y29900915D01*
X26557542Y29900915D02*
X26519447Y29862820D01*
X26519447Y29862820D02*
X26481352Y29786629D01*
X26481352Y29786629D02*
X26443257Y29634248D01*
X26443257Y29634248D02*
X26405161Y29558058D01*
X26405161Y29558058D02*
X26367066Y29519963D01*
X26367066Y29519963D02*
X26290876Y29481867D01*
X26290876Y29481867D02*
X26214685Y29481867D01*
X26214685Y29481867D02*
X26138495Y29519963D01*
X26138495Y29519963D02*
X26100400Y29558058D01*
X26100400Y29558058D02*
X26062304Y29634248D01*
X26062304Y29634248D02*
X26062304Y29824725D01*
X26062304Y29824725D02*
X26100400Y29939010D01*
X26062304Y30167582D02*
X26062304Y30624725D01*
X26862304Y30396153D02*
X26062304Y30396153D01*
X32662495Y22287181D02*
X32662495Y21830038D01*
X31862495Y22058610D02*
X32662495Y22058610D01*
X31862495Y21182419D02*
X31862495Y21563371D01*
X31862495Y21563371D02*
X32662495Y21563371D01*
X17131428Y41721950D02*
X17060000Y41759570D01*
X17060000Y41759570D02*
X16952857Y41759570D01*
X16952857Y41759570D02*
X16845714Y41721950D01*
X16845714Y41721950D02*
X16774285Y41646712D01*
X16774285Y41646712D02*
X16738571Y41571474D01*
X16738571Y41571474D02*
X16702857Y41420998D01*
X16702857Y41420998D02*
X16702857Y41308141D01*
X16702857Y41308141D02*
X16738571Y41157665D01*
X16738571Y41157665D02*
X16774285Y41082427D01*
X16774285Y41082427D02*
X16845714Y41007189D01*
X16845714Y41007189D02*
X16952857Y40969570D01*
X16952857Y40969570D02*
X17024285Y40969570D01*
X17024285Y40969570D02*
X17131428Y41007189D01*
X17131428Y41007189D02*
X17167142Y41044808D01*
X17167142Y41044808D02*
X17167142Y41308141D01*
X17167142Y41308141D02*
X17024285Y41308141D01*
X16738571Y39199970D02*
X16738571Y38560446D01*
X16738571Y38560446D02*
X16774285Y38485208D01*
X16774285Y38485208D02*
X16810000Y38447589D01*
X16810000Y38447589D02*
X16881428Y38409970D01*
X16881428Y38409970D02*
X17024285Y38409970D01*
X17024285Y38409970D02*
X17095714Y38447589D01*
X17095714Y38447589D02*
X17131428Y38485208D01*
X17131428Y38485208D02*
X17167142Y38560446D01*
X17167142Y38560446D02*
X17167142Y39199970D01*
X17524285Y38409970D02*
X17524285Y39199970D01*
X17524285Y39199970D02*
X17809999Y39199970D01*
X17809999Y39199970D02*
X17881428Y39162350D01*
X17881428Y39162350D02*
X17917142Y39124731D01*
X17917142Y39124731D02*
X17952856Y39049493D01*
X17952856Y39049493D02*
X17952856Y38936636D01*
X17952856Y38936636D02*
X17917142Y38861398D01*
X17917142Y38861398D02*
X17881428Y38823779D01*
X17881428Y38823779D02*
X17809999Y38786160D01*
X17809999Y38786160D02*
X17524285Y38786160D01*
X16738571Y35850370D02*
X16738571Y36640370D01*
X16738571Y36640370D02*
X16917142Y36640370D01*
X16917142Y36640370D02*
X17024285Y36602750D01*
X17024285Y36602750D02*
X17095714Y36527512D01*
X17095714Y36527512D02*
X17131428Y36452274D01*
X17131428Y36452274D02*
X17167142Y36301798D01*
X17167142Y36301798D02*
X17167142Y36188941D01*
X17167142Y36188941D02*
X17131428Y36038465D01*
X17131428Y36038465D02*
X17095714Y35963227D01*
X17095714Y35963227D02*
X17024285Y35887989D01*
X17024285Y35887989D02*
X16917142Y35850370D01*
X16917142Y35850370D02*
X16738571Y35850370D01*
X17488571Y35850370D02*
X17488571Y36640370D01*
X17488571Y36640370D02*
X17917142Y35850370D01*
X17917142Y35850370D02*
X17917142Y36640370D01*
X17095714Y33290770D02*
X16738571Y33290770D01*
X16738571Y33290770D02*
X16738571Y34080770D01*
X17167142Y30731170D02*
X16917142Y31107360D01*
X16738571Y30731170D02*
X16738571Y31521170D01*
X16738571Y31521170D02*
X17024285Y31521170D01*
X17024285Y31521170D02*
X17095714Y31483550D01*
X17095714Y31483550D02*
X17131428Y31445931D01*
X17131428Y31445931D02*
X17167142Y31370693D01*
X17167142Y31370693D02*
X17167142Y31257836D01*
X17167142Y31257836D02*
X17131428Y31182598D01*
X17131428Y31182598D02*
X17095714Y31144979D01*
X17095714Y31144979D02*
X17024285Y31107360D01*
X17024285Y31107360D02*
X16738571Y31107360D01*
X16702857Y28209189D02*
X16810000Y28171570D01*
X16810000Y28171570D02*
X16988571Y28171570D01*
X16988571Y28171570D02*
X17060000Y28209189D01*
X17060000Y28209189D02*
X17095714Y28246808D01*
X17095714Y28246808D02*
X17131428Y28322046D01*
X17131428Y28322046D02*
X17131428Y28397284D01*
X17131428Y28397284D02*
X17095714Y28472522D01*
X17095714Y28472522D02*
X17060000Y28510141D01*
X17060000Y28510141D02*
X16988571Y28547760D01*
X16988571Y28547760D02*
X16845714Y28585379D01*
X16845714Y28585379D02*
X16774285Y28622998D01*
X16774285Y28622998D02*
X16738571Y28660617D01*
X16738571Y28660617D02*
X16702857Y28735855D01*
X16702857Y28735855D02*
X16702857Y28811093D01*
X16702857Y28811093D02*
X16738571Y28886331D01*
X16738571Y28886331D02*
X16774285Y28923950D01*
X16774285Y28923950D02*
X16845714Y28961570D01*
X16845714Y28961570D02*
X17024285Y28961570D01*
X17024285Y28961570D02*
X17131428Y28923950D01*
X17345714Y28961570D02*
X17774286Y28961570D01*
X17560000Y28171570D02*
X17560000Y28961570D01*
X16702857Y25649589D02*
X16810000Y25611970D01*
X16810000Y25611970D02*
X16988571Y25611970D01*
X16988571Y25611970D02*
X17060000Y25649589D01*
X17060000Y25649589D02*
X17095714Y25687208D01*
X17095714Y25687208D02*
X17131428Y25762446D01*
X17131428Y25762446D02*
X17131428Y25837684D01*
X17131428Y25837684D02*
X17095714Y25912922D01*
X17095714Y25912922D02*
X17060000Y25950541D01*
X17060000Y25950541D02*
X16988571Y25988160D01*
X16988571Y25988160D02*
X16845714Y26025779D01*
X16845714Y26025779D02*
X16774285Y26063398D01*
X16774285Y26063398D02*
X16738571Y26101017D01*
X16738571Y26101017D02*
X16702857Y26176255D01*
X16702857Y26176255D02*
X16702857Y26251493D01*
X16702857Y26251493D02*
X16738571Y26326731D01*
X16738571Y26326731D02*
X16774285Y26364350D01*
X16774285Y26364350D02*
X16845714Y26401970D01*
X16845714Y26401970D02*
X17024285Y26401970D01*
X17024285Y26401970D02*
X17131428Y26364350D01*
X17810000Y25611970D02*
X17452857Y25611970D01*
X17452857Y25611970D02*
X17452857Y26401970D01*
X16702857Y23278084D02*
X17060000Y23278084D01*
X16631428Y23052370D02*
X16881428Y23842370D01*
X16881428Y23842370D02*
X17131428Y23052370D01*
X16988571Y20906579D02*
X17095714Y20868960D01*
X17095714Y20868960D02*
X17131428Y20831341D01*
X17131428Y20831341D02*
X17167142Y20756103D01*
X17167142Y20756103D02*
X17167142Y20643246D01*
X17167142Y20643246D02*
X17131428Y20568008D01*
X17131428Y20568008D02*
X17095714Y20530389D01*
X17095714Y20530389D02*
X17024285Y20492770D01*
X17024285Y20492770D02*
X16738571Y20492770D01*
X16738571Y20492770D02*
X16738571Y21282770D01*
X16738571Y21282770D02*
X16988571Y21282770D01*
X16988571Y21282770D02*
X17060000Y21245150D01*
X17060000Y21245150D02*
X17095714Y21207531D01*
X17095714Y21207531D02*
X17131428Y21132293D01*
X17131428Y21132293D02*
X17131428Y21057055D01*
X17131428Y21057055D02*
X17095714Y20981817D01*
X17095714Y20981817D02*
X17060000Y20944198D01*
X17060000Y20944198D02*
X16988571Y20906579D01*
X16988571Y20906579D02*
X16738571Y20906579D01*
X16667142Y18723170D02*
X17167142Y17933170D01*
X17167142Y18723170D02*
X16667142Y17933170D01*
X16881428Y15749760D02*
X16881428Y15373570D01*
X16631428Y16163570D02*
X16881428Y15749760D01*
X16881428Y15749760D02*
X17131428Y16163570D01*
X16631428Y13603970D02*
X17060000Y13603970D01*
X16845714Y12813970D02*
X16845714Y13603970D01*
X17667143Y12813970D02*
X17310000Y12813970D01*
X17310000Y12813970D02*
X17310000Y13603970D01*
X16631428Y11044370D02*
X17060000Y11044370D01*
X16845714Y10254370D02*
X16845714Y11044370D01*
X17738571Y10254370D02*
X17488571Y10630560D01*
X17310000Y10254370D02*
X17310000Y11044370D01*
X17310000Y11044370D02*
X17595714Y11044370D01*
X17595714Y11044370D02*
X17667143Y11006750D01*
X17667143Y11006750D02*
X17702857Y10969131D01*
X17702857Y10969131D02*
X17738571Y10893893D01*
X17738571Y10893893D02*
X17738571Y10781036D01*
X17738571Y10781036D02*
X17702857Y10705798D01*
X17702857Y10705798D02*
X17667143Y10668179D01*
X17667143Y10668179D02*
X17595714Y10630560D01*
X17595714Y10630560D02*
X17310000Y10630560D01*
X16738571Y7694770D02*
X16738571Y8484770D01*
X16738571Y8108579D02*
X17167142Y8108579D01*
X17167142Y7694770D02*
X17167142Y8484770D01*
X17524285Y7694770D02*
X17524285Y8484770D01*
X17952856Y7694770D02*
X17631428Y8146198D01*
X17952856Y8484770D02*
X17524285Y8033341D01*
X17131428Y5887550D02*
X17060000Y5925170D01*
X17060000Y5925170D02*
X16952857Y5925170D01*
X16952857Y5925170D02*
X16845714Y5887550D01*
X16845714Y5887550D02*
X16774285Y5812312D01*
X16774285Y5812312D02*
X16738571Y5737074D01*
X16738571Y5737074D02*
X16702857Y5586598D01*
X16702857Y5586598D02*
X16702857Y5473741D01*
X16702857Y5473741D02*
X16738571Y5323265D01*
X16738571Y5323265D02*
X16774285Y5248027D01*
X16774285Y5248027D02*
X16845714Y5172789D01*
X16845714Y5172789D02*
X16952857Y5135170D01*
X16952857Y5135170D02*
X17024285Y5135170D01*
X17024285Y5135170D02*
X17131428Y5172789D01*
X17131428Y5172789D02*
X17167142Y5210408D01*
X17167142Y5210408D02*
X17167142Y5473741D01*
X17167142Y5473741D02*
X17024285Y5473741D01*
%TO.C,R13*%
X10801428Y7110096D02*
X10649047Y7110096D01*
X10649047Y7110096D02*
X10572856Y7072000D01*
X10572856Y7072000D02*
X10534761Y7033905D01*
X10534761Y7033905D02*
X10458571Y6919620D01*
X10458571Y6919620D02*
X10420475Y6767239D01*
X10420475Y6767239D02*
X10420475Y6462477D01*
X10420475Y6462477D02*
X10458571Y6386286D01*
X10458571Y6386286D02*
X10496666Y6348191D01*
X10496666Y6348191D02*
X10572856Y6310096D01*
X10572856Y6310096D02*
X10725237Y6310096D01*
X10725237Y6310096D02*
X10801428Y6348191D01*
X10801428Y6348191D02*
X10839523Y6386286D01*
X10839523Y6386286D02*
X10877618Y6462477D01*
X10877618Y6462477D02*
X10877618Y6652953D01*
X10877618Y6652953D02*
X10839523Y6729143D01*
X10839523Y6729143D02*
X10801428Y6767239D01*
X10801428Y6767239D02*
X10725237Y6805334D01*
X10725237Y6805334D02*
X10572856Y6805334D01*
X10572856Y6805334D02*
X10496666Y6767239D01*
X10496666Y6767239D02*
X10458571Y6729143D01*
X10458571Y6729143D02*
X10420475Y6652953D01*
X11220476Y6310096D02*
X11220476Y7110096D01*
X11677619Y6310096D02*
X11334761Y6767239D01*
X11677619Y7110096D02*
X11220476Y6652953D01*
X12134761Y6767239D02*
X12058571Y6805334D01*
X12058571Y6805334D02*
X12020476Y6843429D01*
X12020476Y6843429D02*
X11982380Y6919620D01*
X11982380Y6919620D02*
X11982380Y6957715D01*
X11982380Y6957715D02*
X12020476Y7033905D01*
X12020476Y7033905D02*
X12058571Y7072000D01*
X12058571Y7072000D02*
X12134761Y7110096D01*
X12134761Y7110096D02*
X12287142Y7110096D01*
X12287142Y7110096D02*
X12363333Y7072000D01*
X12363333Y7072000D02*
X12401428Y7033905D01*
X12401428Y7033905D02*
X12439523Y6957715D01*
X12439523Y6957715D02*
X12439523Y6919620D01*
X12439523Y6919620D02*
X12401428Y6843429D01*
X12401428Y6843429D02*
X12363333Y6805334D01*
X12363333Y6805334D02*
X12287142Y6767239D01*
X12287142Y6767239D02*
X12134761Y6767239D01*
X12134761Y6767239D02*
X12058571Y6729143D01*
X12058571Y6729143D02*
X12020476Y6691048D01*
X12020476Y6691048D02*
X11982380Y6614858D01*
X11982380Y6614858D02*
X11982380Y6462477D01*
X11982380Y6462477D02*
X12020476Y6386286D01*
X12020476Y6386286D02*
X12058571Y6348191D01*
X12058571Y6348191D02*
X12134761Y6310096D01*
X12134761Y6310096D02*
X12287142Y6310096D01*
X12287142Y6310096D02*
X12363333Y6348191D01*
X12363333Y6348191D02*
X12401428Y6386286D01*
X12401428Y6386286D02*
X12439523Y6462477D01*
X12439523Y6462477D02*
X12439523Y6614858D01*
X12439523Y6614858D02*
X12401428Y6691048D01*
X12401428Y6691048D02*
X12363333Y6729143D01*
X12363333Y6729143D02*
X12287142Y6767239D01*
D11*
%TO.C,R10*%
X11202936Y16432200D02*
X11657064Y16432200D01*
X11202936Y14962200D02*
X11657064Y14962200D01*
%TO.C,J9*%
X33434400Y19956800D02*
X34434400Y19956800D01*
X33426400Y19948800D02*
X33426400Y18948800D01*
X35102800Y19804400D02*
X35102800Y3802400D01*
X33578800Y19804400D02*
X35102800Y19804400D01*
X33578800Y3802400D02*
X33578800Y19804400D01*
X33578800Y3802400D02*
X35102800Y3802400D01*
%TO.C,R12*%
X11202936Y11352200D02*
X11657064Y11352200D01*
X11202936Y9882200D02*
X11657064Y9882200D01*
%TO.C,J5*%
X18278800Y42478000D02*
X19608800Y42478000D01*
X18278800Y41148000D02*
X18278800Y42478000D01*
X18278800Y39878000D02*
X18278800Y4258000D01*
X18278800Y39878000D02*
X20938800Y39878000D01*
X18278800Y4258000D02*
X20938800Y4258000D01*
X20938800Y39878000D02*
X20938800Y4258000D01*
%TO.C,J11*%
X25239600Y3632200D02*
X24239600Y3632200D01*
X25247600Y3640200D02*
X25247600Y4640200D01*
X23571200Y3784600D02*
X23571200Y19786600D01*
X25095200Y3784600D02*
X23571200Y3784600D01*
X25095200Y19786600D02*
X25095200Y3784600D01*
X25095200Y19786600D02*
X23571200Y19786600D01*
%TO.C,R13*%
X11202936Y8812200D02*
X11657064Y8812200D01*
X11202936Y7342200D02*
X11657064Y7342200D01*
%TO.C,R11*%
X11202936Y13892200D02*
X11657064Y13892200D01*
X11202936Y12422200D02*
X11657064Y12422200D01*
%TO.C,R4*%
X11202936Y31672200D02*
X11657064Y31672200D01*
X11202936Y30202200D02*
X11657064Y30202200D01*
%TO.C,R9*%
X11202936Y18972200D02*
X11657064Y18972200D01*
X11202936Y17502200D02*
X11657064Y17502200D01*
%TO.C,R5*%
X11202936Y29132200D02*
X11657064Y29132200D01*
X11202936Y27662200D02*
X11657064Y27662200D01*
%TO.C,JP3*%
X6391600Y16925600D02*
X7721600Y16925600D01*
X6391600Y15595600D02*
X6391600Y16925600D01*
X6391600Y14325600D02*
X6391600Y9185600D01*
X6391600Y14325600D02*
X9051600Y14325600D01*
X6391600Y9185600D02*
X9051600Y9185600D01*
X9051600Y14325600D02*
X9051600Y9185600D01*
%TO.C,R2*%
X11202936Y36752200D02*
X11657064Y36752200D01*
X11202936Y35282200D02*
X11657064Y35282200D01*
%TO.C,J1*%
X2056800Y42997200D02*
X3056800Y42997200D01*
X2056800Y42997200D02*
X2056800Y41997200D01*
X5766800Y42707200D02*
X2346800Y42707200D01*
X2346800Y42707200D02*
X2346800Y33237200D01*
X4406800Y42397200D02*
X4406800Y42197200D01*
X3606800Y42397200D02*
X4406800Y42397200D01*
X5256800Y42197200D02*
X5256800Y37972200D01*
X4406800Y42197200D02*
X5256800Y42197200D01*
X3606800Y42197200D02*
X3606800Y42397200D01*
X2856800Y42197200D02*
X3606800Y42197200D01*
X2856800Y37972200D02*
X2856800Y42197200D01*
X2856800Y37972200D02*
X2856800Y33747200D01*
X5256800Y33747200D02*
X5256800Y37972200D01*
X4406800Y33747200D02*
X5256800Y33747200D01*
X3606800Y33747200D02*
X3606800Y33547200D01*
X2856800Y33747200D02*
X3606800Y33747200D01*
X4406800Y33547200D02*
X4406800Y33747200D01*
X3606800Y33547200D02*
X4406800Y33547200D01*
X5766800Y33237200D02*
X5766800Y42707200D01*
X2346800Y33237200D02*
X5766800Y33237200D01*
%TO.C,R8*%
X11202936Y21512200D02*
X11657064Y21512200D01*
X11202936Y20042200D02*
X11657064Y20042200D01*
%TO.C,R3*%
X11202936Y34212200D02*
X11657064Y34212200D01*
X11202936Y32742200D02*
X11657064Y32742200D01*
%TO.C,J8*%
X33426400Y43985200D02*
X34434400Y43985200D01*
X33426400Y43985200D02*
X33426400Y43020000D01*
X35102800Y43832800D02*
X35102800Y26560800D01*
X33578800Y43832800D02*
X35102800Y43832800D01*
X33578800Y26560800D02*
X33578800Y43832800D01*
X33578800Y26560800D02*
X35102800Y26560800D01*
%TO.C,J3*%
X2056800Y32583200D02*
X3056800Y32583200D01*
X2056800Y32583200D02*
X2056800Y31583200D01*
X5766800Y32293200D02*
X2346800Y32293200D01*
X2346800Y32293200D02*
X2346800Y11573200D01*
X4406800Y31983200D02*
X4406800Y31783200D01*
X3606800Y31983200D02*
X4406800Y31983200D01*
X5256800Y31783200D02*
X5256800Y21933200D01*
X4406800Y31783200D02*
X5256800Y31783200D01*
X3606800Y31783200D02*
X3606800Y31983200D01*
X2856800Y31783200D02*
X3606800Y31783200D01*
X2856800Y21933200D02*
X2856800Y31783200D01*
X2856800Y21933200D02*
X2856800Y12083200D01*
X5256800Y12083200D02*
X5256800Y21933200D01*
X4406800Y12083200D02*
X5256800Y12083200D01*
X3606800Y12083200D02*
X3606800Y11883200D01*
X2856800Y12083200D02*
X3606800Y12083200D01*
X4406800Y11883200D02*
X4406800Y12083200D01*
X3606800Y11883200D02*
X4406800Y11883200D01*
X5766800Y11573200D02*
X5766800Y32293200D01*
X2346800Y11573200D02*
X5766800Y11573200D01*
%TO.C,JP1*%
X6391600Y34959600D02*
X7721600Y34959600D01*
X6391600Y33629600D02*
X6391600Y34959600D01*
X6391600Y32359600D02*
X6391600Y27219600D01*
X6391600Y32359600D02*
X9051600Y32359600D01*
X6391600Y27219600D02*
X9051600Y27219600D01*
X9051600Y32359600D02*
X9051600Y27219600D01*
%TO.C,J4*%
X13859200Y42427200D02*
X15189200Y42427200D01*
X13859200Y41097200D02*
X13859200Y42427200D01*
X13859200Y39827200D02*
X13859200Y4207200D01*
X13859200Y39827200D02*
X16519200Y39827200D01*
X13859200Y4207200D02*
X16519200Y4207200D01*
X16519200Y39827200D02*
X16519200Y4207200D01*
%TO.C,JP2*%
X6391600Y25942600D02*
X7721600Y25942600D01*
X6391600Y24612600D02*
X6391600Y25942600D01*
X6391600Y23342600D02*
X6391600Y18202600D01*
X6391600Y23342600D02*
X9051600Y23342600D01*
X6391600Y18202600D02*
X9051600Y18202600D01*
X9051600Y23342600D02*
X9051600Y18202600D01*
%TO.C,J2*%
X2056800Y10993200D02*
X3056800Y10993200D01*
X2056800Y10993200D02*
X2056800Y9993200D01*
X5766800Y10703200D02*
X2346800Y10703200D01*
X2346800Y10703200D02*
X2346800Y3733200D01*
X4406800Y10393200D02*
X4406800Y10193200D01*
X3606800Y10393200D02*
X4406800Y10393200D01*
X5256800Y10193200D02*
X5256800Y7218200D01*
X4406800Y10193200D02*
X5256800Y10193200D01*
X3606800Y10193200D02*
X3606800Y10393200D01*
X2856800Y10193200D02*
X3606800Y10193200D01*
X2856800Y7218200D02*
X2856800Y10193200D01*
X2856800Y7218200D02*
X2856800Y4243200D01*
X5256800Y4243200D02*
X5256800Y7218200D01*
X4406800Y4243200D02*
X5256800Y4243200D01*
X3606800Y4243200D02*
X3606800Y4043200D01*
X2856800Y4243200D02*
X3606800Y4243200D01*
X4406800Y4043200D02*
X4406800Y4243200D01*
X3606800Y4043200D02*
X4406800Y4043200D01*
X5766800Y3733200D02*
X5766800Y10703200D01*
X2346800Y3733200D02*
X5766800Y3733200D01*
%TO.C,R7*%
X11202936Y24052200D02*
X11657064Y24052200D01*
X11202936Y22582200D02*
X11657064Y22582200D01*
%TO.C,R6*%
X11202936Y26592200D02*
X11657064Y26592200D01*
X11202936Y25122200D02*
X11657064Y25122200D01*
%TO.C,J10*%
X25273000Y26416000D02*
X24265000Y26416000D01*
X25273000Y26416000D02*
X25273000Y27381200D01*
X23596600Y26568400D02*
X23596600Y43840400D01*
X25120600Y26568400D02*
X23596600Y26568400D01*
X25120600Y43840400D02*
X25120600Y26568400D01*
X25120600Y43840400D02*
X23596600Y43840400D01*
%TO.C,R1*%
X11202936Y39292200D02*
X11657064Y39292200D01*
X11202936Y37822200D02*
X11657064Y37822200D01*
%TD*%
%LPC*%
D12*
%TO.C,R10*%
X10430000Y15697200D03*
X12430000Y15697200D03*
%TD*%
D13*
%TO.C,J9*%
X34340800Y19296400D03*
D14*
X34340799Y18046399D03*
X34340799Y16796399D03*
X34340799Y15546399D03*
X34340799Y14296399D03*
X34340799Y13046399D03*
X34340799Y11796399D03*
X34340799Y10546399D03*
X34340799Y9296399D03*
X34340799Y8046399D03*
X34340799Y6796399D03*
X34340799Y5546399D03*
X34340799Y4296399D03*
%TD*%
D12*
%TO.C,R12*%
X10430000Y10617200D03*
X12430000Y10617200D03*
%TD*%
D15*
%TO.C,J5*%
X19608799Y41147999D03*
D16*
X19608799Y38607999D03*
X19608799Y36067999D03*
X19608799Y33527999D03*
X19608799Y30987999D03*
X19608799Y28447999D03*
X19608799Y25907999D03*
X19608799Y23367999D03*
X19608799Y20827999D03*
X19608799Y18287999D03*
X19608799Y15747999D03*
X19608799Y13207999D03*
X19608799Y10667999D03*
X19608799Y8127999D03*
X19608799Y5587999D03*
%TD*%
D17*
%TO.C,J11*%
X24333200Y4292600D03*
D14*
X24333199Y5542599D03*
X24333199Y6792599D03*
X24333199Y8042599D03*
X24333199Y9292599D03*
X24333199Y10542599D03*
X24333199Y11792599D03*
X24333199Y13042599D03*
X24333199Y14292599D03*
X24333199Y15542599D03*
X24333199Y16792599D03*
X24333199Y18042599D03*
X24333199Y19292599D03*
%TD*%
D12*
%TO.C,R13*%
X10430000Y8077200D03*
X12430000Y8077200D03*
%TD*%
%TO.C,R11*%
X10430000Y13157200D03*
X12430000Y13157200D03*
%TD*%
%TO.C,R4*%
X10430000Y30937200D03*
X12430000Y30937200D03*
%TD*%
%TO.C,R9*%
X10430000Y18237200D03*
X12430000Y18237200D03*
%TD*%
%TO.C,R5*%
X10430000Y28397200D03*
X12430000Y28397200D03*
%TD*%
D15*
%TO.C,JP3*%
X7721599Y15595599D03*
D16*
X7721599Y13055599D03*
X7721599Y10515599D03*
%TD*%
D12*
%TO.C,R2*%
X10430000Y36017200D03*
X12430000Y36017200D03*
%TD*%
D13*
%TO.C,J1*%
X3606800Y41097200D03*
D14*
X3606799Y39847199D03*
X3606799Y38597199D03*
X3606799Y37347199D03*
X3606799Y36097199D03*
X3606799Y34847199D03*
%TD*%
D12*
%TO.C,R8*%
X10430000Y20777200D03*
X12430000Y20777200D03*
%TD*%
%TO.C,R3*%
X10430000Y33477200D03*
X12430000Y33477200D03*
%TD*%
D13*
%TO.C,J8*%
X34340800Y43324800D03*
D14*
X34340799Y42074799D03*
X34340799Y40824799D03*
X34340799Y39574799D03*
X34340799Y38324799D03*
X34340799Y37074799D03*
X34340799Y35824799D03*
X34340799Y34574799D03*
X34340799Y33324799D03*
X34340799Y32074799D03*
X34340799Y30824799D03*
X34340799Y29574799D03*
X34340799Y28324799D03*
X34340799Y27074799D03*
%TD*%
D13*
%TO.C,J3*%
X3606800Y30683200D03*
D14*
X3606799Y29433199D03*
X3606799Y28183199D03*
X3606799Y26933199D03*
X3606799Y25683199D03*
X3606799Y24433199D03*
X3606799Y23183199D03*
X3606799Y21933199D03*
X3606799Y20683199D03*
X3606799Y19433199D03*
X3606799Y18183199D03*
X3606799Y16933199D03*
X3606799Y15683199D03*
X3606799Y14433199D03*
X3606799Y13183199D03*
%TD*%
D15*
%TO.C,JP1*%
X7721599Y33629599D03*
D16*
X7721599Y31089599D03*
X7721599Y28549599D03*
%TD*%
D15*
%TO.C,J4*%
X15189199Y41097199D03*
D16*
X15189199Y38557199D03*
X15189199Y36017199D03*
X15189199Y33477199D03*
X15189199Y30937199D03*
X15189199Y28397199D03*
X15189199Y25857199D03*
X15189199Y23317199D03*
X15189199Y20777199D03*
X15189199Y18237199D03*
X15189199Y15697199D03*
X15189199Y13157199D03*
X15189199Y10617199D03*
X15189199Y8077199D03*
X15189199Y5537199D03*
%TD*%
D15*
%TO.C,JP2*%
X7721599Y24612599D03*
D16*
X7721599Y22072599D03*
X7721599Y19532599D03*
%TD*%
D13*
%TO.C,J2*%
X3606800Y9093200D03*
D14*
X3606799Y7843199D03*
X3606799Y6593199D03*
X3606799Y5343199D03*
%TD*%
D12*
%TO.C,R7*%
X10430000Y23317200D03*
X12430000Y23317200D03*
%TD*%
%TO.C,R6*%
X10430000Y25857200D03*
X12430000Y25857200D03*
%TD*%
D17*
%TO.C,J10*%
X24358600Y27076400D03*
D14*
X24358599Y28326399D03*
X24358599Y29576399D03*
X24358599Y30826399D03*
X24358599Y32076399D03*
X24358599Y33326399D03*
X24358599Y34576399D03*
X24358599Y35826399D03*
X24358599Y37076399D03*
X24358599Y38326399D03*
X24358599Y39576399D03*
X24358599Y40826399D03*
X24358599Y42076399D03*
X24358599Y43326399D03*
%TD*%
D12*
%TO.C,R1*%
X10430000Y38557200D03*
X12430000Y38557200D03*
%TD*%
D15*
%TO.C,J7*%
X28087399Y21750199D03*
D16*
X30627399Y21750199D03*
X28087399Y19210199D03*
X30627399Y19210199D03*
X28087399Y16670199D03*
X30627399Y16670199D03*
X28087399Y14130199D03*
X30627399Y14130199D03*
X28087399Y11590199D03*
X30627399Y11590199D03*
X28087399Y9050199D03*
X30627399Y9050199D03*
X28087399Y6510199D03*
X30627399Y6510199D03*
X28087399Y3970199D03*
X30627399Y3970199D03*
X28087399Y1430199D03*
X30627399Y1430199D03*
%TD*%
D15*
%TO.C,J6*%
X28087399Y45372199D03*
D16*
X30627399Y45372199D03*
X28087399Y42832199D03*
X30627399Y42832199D03*
X28087399Y40292199D03*
X30627399Y40292199D03*
X28087399Y37752199D03*
X30627399Y37752199D03*
X28087399Y35212199D03*
X30627399Y35212199D03*
X28087399Y32672199D03*
X30627399Y32672199D03*
X28087399Y30132199D03*
X30627399Y30132199D03*
X28087399Y27592199D03*
X30627399Y27592199D03*
X28087399Y25052199D03*
X30627399Y25052199D03*
%TD*%
M02*
