M48
; DRILL file {KiCad 7.0.9} date Sun Dec 10 20:46:51 2023
; FORMAT={-:-/ absolute / inch / decimal}
; #@! TF.CreationDate,2023-12-10T20:46:51+09:00
; #@! TF.GenerationSoftware,Kicad,Pcbnew,7.0.9
; #@! TF.FileFunction,Plated,1,2,PTH
FMAT,2
INCH
; #@! TA.AperFunction,Plated,PTH,ViaDrill
T1C0.0157
; #@! TA.AperFunction,Plated,PTH,ComponentDrill
T2C0.0197
; #@! TA.AperFunction,Plated,PTH,ComponentDrill
T3C0.0394
%
G90
G05
T1
X1.325Y0.8
X1.405Y3.565
X1.425Y0.8
X1.525Y0.645
X1.535Y0.795
X1.6044Y2.0141
X1.7175Y3.5425
X1.725Y0.6
X1.81Y0.76
X1.825Y0.6
X2.125Y0.6
X2.6825Y3.9185
X2.775Y0.52
X4.245Y1.575
X4.245Y1.48
X4.2475Y1.6725
T2
X1.1821Y0.106
X1.2313Y0.106
X1.255Y3.975
X1.2805Y0.106
X1.3042Y3.975
X1.3297Y0.106
X1.3534Y3.975
X1.3789Y0.106
X1.4026Y3.975
X1.4281Y0.106
X1.4519Y3.975
X1.4774Y0.106
X1.5011Y3.975
X1.5266Y0.106
X1.5503Y3.975
X1.5758Y0.106
X1.5995Y3.975
X1.625Y0.106
X1.6487Y3.975
X1.6742Y0.106
X1.6979Y3.975
X1.7234Y0.106
X1.7471Y3.975
X1.7726Y0.106
X1.7963Y3.975
X1.8219Y0.106
X1.8456Y3.975
X1.8711Y0.106
X1.8948Y3.975
X1.944Y3.975
T3
X0.749Y0.767
X0.75Y2.265
X0.825Y0.28
X0.849Y0.767
X0.85Y2.265
X0.915Y3.8
X0.925Y0.28
X1.015Y3.8
X1.025Y0.28
X1.115Y3.8
X1.125Y0.28
X1.215Y3.8
X1.225Y0.28
X1.315Y3.8
X1.325Y0.28
X1.415Y3.8
X1.425Y0.28
X1.515Y3.8
X1.525Y0.28
X1.615Y3.8
X1.625Y0.28
X1.715Y3.8
X1.725Y0.28
X1.815Y3.8
X1.825Y0.28
X1.915Y3.8
X1.925Y0.28
X2.015Y3.8
X2.025Y0.28
X2.115Y3.8
X2.125Y0.28
X2.215Y3.8
X2.225Y0.28
X2.247Y2.265
X2.247Y0.767
X2.315Y3.8
X2.347Y2.265
X2.347Y0.767
X2.825Y3.975
X2.925Y3.975
X2.975Y3.775
X3.075Y3.775
X3.075Y1.649
X3.075Y0.15
X3.135Y3.975
X3.175Y1.649
X3.175Y0.15
X3.235Y3.975
X4.43Y1.675
X4.43Y1.575
X4.43Y1.475
X4.43Y1.375
X4.43Y1.275
T0
M30
