%TF.GenerationSoftware,KiCad,Pcbnew,7.0.9*%
%TF.CreationDate,2023-12-22T18:19:36+09:00*%
%TF.ProjectId,arcade_input_panel_support,61726361-6465-45f6-996e-7075745f7061,2*%
%TF.SameCoordinates,PX2246a88PY7fa82d0*%
%TF.FileFunction,Legend,Top*%
%TF.FilePolarity,Positive*%
%FSLAX46Y46*%
G04 Gerber Fmt 4.6, Leading zero omitted, Abs format (unit mm)*
G04 Created by KiCad (PCBNEW 7.0.9) date 2023-12-22 18:19:36*
%MOMM*%
%LPD*%
G01*
G04 APERTURE LIST*
G04 Aperture macros list*
%AMRoundRect*
0 Rectangle with rounded corners*
0 $1 Rounding radius*
0 $2 $3 $4 $5 $6 $7 $8 $9 X,Y pos of 4 corners*
0 Add a 4 corners polygon primitive as box body*
4,1,4,$2,$3,$4,$5,$6,$7,$8,$9,$2,$3,0*
0 Add four circle primitives for the rounded corners*
1,1,$1+$1,$2,$3*
1,1,$1+$1,$4,$5*
1,1,$1+$1,$6,$7*
1,1,$1+$1,$8,$9*
0 Add four rect primitives between the rounded corners*
20,1,$1+$1,$2,$3,$4,$5,0*
20,1,$1+$1,$4,$5,$6,$7,0*
20,1,$1+$1,$6,$7,$8,$9,0*
20,1,$1+$1,$8,$9,$2,$3,0*%
G04 Aperture macros list end*
%ADD10C,0.150000*%
%ADD11C,0.300000*%
%ADD12C,0.120000*%
%ADD13O,1.700000X1.700000*%
%ADD14R,1.700000X1.700000*%
%ADD15RoundRect,0.200000X-0.200000X-0.450000X0.200000X-0.450000X0.200000X0.450000X-0.200000X0.450000X0*%
%ADD16O,0.800000X1.300000*%
%ADD17RoundRect,0.200000X0.200000X0.450000X-0.200000X0.450000X-0.200000X-0.450000X0.200000X-0.450000X0*%
G04 APERTURE END LIST*
D10*
G36*
X20123836Y99188010D02*
G01*
X20197949Y99113897D01*
X20236442Y99036910D01*
X20279826Y98863376D01*
X20279826Y98738987D01*
X20236442Y98565453D01*
X20197948Y98488466D01*
X20123836Y98414353D01*
X20009323Y98376181D01*
X19858398Y98376181D01*
X19858398Y99226181D01*
X20009323Y99226181D01*
X20123836Y99188010D01*
G37*
G36*
X20572683Y98083324D02*
G01*
X17470303Y98083324D01*
X17470303Y98729753D01*
X17613160Y98729753D01*
X17614345Y98726496D01*
X17615399Y98711563D01*
X17663018Y98521087D01*
X17665006Y98518143D01*
X17668697Y98505736D01*
X17716316Y98410498D01*
X17717502Y98409375D01*
X17730365Y98391006D01*
X17825603Y98295767D01*
X17829667Y98293872D01*
X17832014Y98290052D01*
X17854919Y98277649D01*
X17997775Y98230030D01*
X17999410Y98230075D01*
X18021493Y98226181D01*
X18116731Y98226181D01*
X18118269Y98226742D01*
X18140448Y98230030D01*
X18283305Y98277649D01*
X18286816Y98280437D01*
X18291285Y98280827D01*
X18312622Y98295768D01*
X18318035Y98301181D01*
X18660779Y98301181D01*
X18678326Y98252972D01*
X18722755Y98227320D01*
X18773279Y98236229D01*
X18806256Y98275529D01*
X18810779Y98301181D01*
X18810779Y99018765D01*
X19242089Y98263970D01*
X19247382Y98259489D01*
X19249754Y98252972D01*
X19266491Y98243309D01*
X19281242Y98230819D01*
X19288176Y98230789D01*
X19294183Y98227320D01*
X19313216Y98230677D01*
X19332544Y98230590D01*
X19337877Y98235025D01*
X19344707Y98236229D01*
X19357131Y98251036D01*
X19371991Y98263392D01*
X19373225Y98270216D01*
X19377684Y98275529D01*
X19382207Y98301181D01*
X19708398Y98301181D01*
X19715061Y98282873D01*
X19718446Y98263681D01*
X19723630Y98259331D01*
X19725945Y98252972D01*
X19742818Y98243230D01*
X19757746Y98230704D01*
X19767488Y98228987D01*
X19770374Y98227320D01*
X19773656Y98227899D01*
X19783398Y98226181D01*
X20021493Y98226181D01*
X20023031Y98226742D01*
X20045210Y98230030D01*
X20188067Y98277649D01*
X20191579Y98280437D01*
X20196046Y98280827D01*
X20217383Y98295767D01*
X20312622Y98391007D01*
X20313313Y98392490D01*
X20326670Y98410498D01*
X20374289Y98505736D01*
X20374695Y98509265D01*
X20379968Y98521087D01*
X20427587Y98711563D01*
X20427226Y98715012D01*
X20429826Y98729753D01*
X20429826Y98872610D01*
X20428640Y98875868D01*
X20427587Y98890800D01*
X20379968Y99081276D01*
X20377979Y99084221D01*
X20374289Y99096627D01*
X20326670Y99191865D01*
X20325483Y99192989D01*
X20312621Y99211357D01*
X20217383Y99306595D01*
X20213319Y99308490D01*
X20210972Y99312311D01*
X20188067Y99324713D01*
X20045210Y99372332D01*
X20043575Y99372288D01*
X20021493Y99376181D01*
X19783398Y99376181D01*
X19765089Y99369518D01*
X19745898Y99366133D01*
X19741547Y99360949D01*
X19735189Y99358634D01*
X19725446Y99341761D01*
X19712921Y99326833D01*
X19711203Y99317091D01*
X19709537Y99314205D01*
X19710115Y99310923D01*
X19708398Y99301181D01*
X19708398Y98301181D01*
X19382207Y98301181D01*
X19382207Y99301181D01*
X19364660Y99349390D01*
X19320231Y99375042D01*
X19269707Y99366133D01*
X19236730Y99326833D01*
X19232207Y99301181D01*
X19232207Y98583598D01*
X18800897Y99338391D01*
X18795604Y99342873D01*
X18793232Y99349390D01*
X18776492Y99359055D01*
X18761744Y99371543D01*
X18754809Y99371574D01*
X18748803Y99375042D01*
X18729769Y99371686D01*
X18710442Y99371772D01*
X18705108Y99367338D01*
X18698279Y99366133D01*
X18685854Y99351327D01*
X18670995Y99338970D01*
X18669760Y99332147D01*
X18665302Y99326833D01*
X18660779Y99301181D01*
X18660779Y98301181D01*
X18318035Y98301181D01*
X18360240Y98343387D01*
X18367158Y98358225D01*
X18377684Y98370768D01*
X18380527Y98386896D01*
X18381921Y98389884D01*
X18381398Y98391835D01*
X18382207Y98396420D01*
X18382207Y98729753D01*
X18375543Y98748062D01*
X18372159Y98767253D01*
X18366974Y98771604D01*
X18364660Y98777962D01*
X18347786Y98787705D01*
X18332859Y98800230D01*
X18323116Y98801948D01*
X18320231Y98803614D01*
X18316948Y98803036D01*
X18307207Y98804753D01*
X18116731Y98804753D01*
X18068522Y98787206D01*
X18042870Y98742777D01*
X18051779Y98692253D01*
X18091079Y98659276D01*
X18116731Y98654753D01*
X18232207Y98654753D01*
X18232207Y98427486D01*
X18219074Y98414353D01*
X18104561Y98376181D01*
X18033663Y98376181D01*
X17919150Y98414352D01*
X17845037Y98488466D01*
X17806543Y98565453D01*
X17763160Y98738987D01*
X17763160Y98863376D01*
X17806543Y99036910D01*
X17845037Y99113897D01*
X17919150Y99188010D01*
X18033663Y99226181D01*
X18146645Y99226181D01*
X18226047Y99186480D01*
X18277013Y99180615D01*
X18319826Y99208881D01*
X18334453Y99258056D01*
X18314050Y99305127D01*
X18293129Y99320644D01*
X18197891Y99368263D01*
X18193437Y99368776D01*
X18190002Y99371658D01*
X18164350Y99376181D01*
X18021493Y99376181D01*
X18019955Y99375622D01*
X17997775Y99372332D01*
X17854919Y99324713D01*
X17851408Y99321927D01*
X17846940Y99321536D01*
X17825603Y99306595D01*
X17730365Y99211357D01*
X17729674Y99209876D01*
X17716316Y99191865D01*
X17668697Y99096627D01*
X17668290Y99093099D01*
X17663018Y99081276D01*
X17615399Y98890800D01*
X17615759Y98887352D01*
X17613160Y98872610D01*
X17613160Y98729753D01*
X17470303Y98729753D01*
X17470303Y99519038D01*
X20572683Y99519038D01*
X20572683Y98083324D01*
G37*
X10449160Y98348800D02*
X10592017Y98301181D01*
X10592017Y98301181D02*
X10830112Y98301181D01*
X10830112Y98301181D02*
X10925350Y98348800D01*
X10925350Y98348800D02*
X10972969Y98396420D01*
X10972969Y98396420D02*
X11020588Y98491658D01*
X11020588Y98491658D02*
X11020588Y98586896D01*
X11020588Y98586896D02*
X10972969Y98682134D01*
X10972969Y98682134D02*
X10925350Y98729753D01*
X10925350Y98729753D02*
X10830112Y98777372D01*
X10830112Y98777372D02*
X10639636Y98824991D01*
X10639636Y98824991D02*
X10544398Y98872610D01*
X10544398Y98872610D02*
X10496779Y98920229D01*
X10496779Y98920229D02*
X10449160Y99015467D01*
X10449160Y99015467D02*
X10449160Y99110705D01*
X10449160Y99110705D02*
X10496779Y99205943D01*
X10496779Y99205943D02*
X10544398Y99253562D01*
X10544398Y99253562D02*
X10639636Y99301181D01*
X10639636Y99301181D02*
X10877731Y99301181D01*
X10877731Y99301181D02*
X11020588Y99253562D01*
X11306303Y99301181D02*
X11877731Y99301181D01*
X11592017Y98301181D02*
X11592017Y99301181D01*
X12925351Y98348800D02*
X13068208Y98301181D01*
X13068208Y98301181D02*
X13306303Y98301181D01*
X13306303Y98301181D02*
X13401541Y98348800D01*
X13401541Y98348800D02*
X13449160Y98396420D01*
X13449160Y98396420D02*
X13496779Y98491658D01*
X13496779Y98491658D02*
X13496779Y98586896D01*
X13496779Y98586896D02*
X13449160Y98682134D01*
X13449160Y98682134D02*
X13401541Y98729753D01*
X13401541Y98729753D02*
X13306303Y98777372D01*
X13306303Y98777372D02*
X13115827Y98824991D01*
X13115827Y98824991D02*
X13020589Y98872610D01*
X13020589Y98872610D02*
X12972970Y98920229D01*
X12972970Y98920229D02*
X12925351Y99015467D01*
X12925351Y99015467D02*
X12925351Y99110705D01*
X12925351Y99110705D02*
X12972970Y99205943D01*
X12972970Y99205943D02*
X13020589Y99253562D01*
X13020589Y99253562D02*
X13115827Y99301181D01*
X13115827Y99301181D02*
X13353922Y99301181D01*
X13353922Y99301181D02*
X13496779Y99253562D01*
X14401541Y98301181D02*
X13925351Y98301181D01*
X13925351Y98301181D02*
X13925351Y99301181D01*
X15496780Y98301181D02*
X15496780Y99301181D01*
X15496780Y98824991D02*
X16068208Y98824991D01*
X16068208Y98301181D02*
X16068208Y99301181D01*
X16544399Y98301181D02*
X16544399Y99301181D01*
X17115827Y98301181D02*
X16687256Y98872610D01*
X17115827Y99301181D02*
X16544399Y98729753D01*
G36*
X83168064Y41314324D02*
G01*
X82113303Y41314324D01*
X82113303Y41960753D01*
X82256160Y41960753D01*
X82257345Y41957496D01*
X82258399Y41942563D01*
X82306018Y41752087D01*
X82308006Y41749143D01*
X82311697Y41736736D01*
X82359316Y41641498D01*
X82360502Y41640375D01*
X82373365Y41622006D01*
X82468603Y41526767D01*
X82472667Y41524872D01*
X82475014Y41521052D01*
X82497919Y41508649D01*
X82640775Y41461030D01*
X82642410Y41461075D01*
X82664493Y41457181D01*
X82759731Y41457181D01*
X82761269Y41457742D01*
X82783448Y41461030D01*
X82926305Y41508649D01*
X82929816Y41511437D01*
X82934285Y41511827D01*
X82955622Y41526768D01*
X83003240Y41574387D01*
X83010158Y41589225D01*
X83020684Y41601768D01*
X83023527Y41617896D01*
X83024921Y41620884D01*
X83024398Y41622835D01*
X83025207Y41627420D01*
X83025207Y41960753D01*
X83018543Y41979062D01*
X83015159Y41998253D01*
X83009974Y42002604D01*
X83007660Y42008962D01*
X82990786Y42018705D01*
X82975859Y42031230D01*
X82966116Y42032948D01*
X82963231Y42034614D01*
X82959948Y42034036D01*
X82950207Y42035753D01*
X82759731Y42035753D01*
X82711522Y42018206D01*
X82685870Y41973777D01*
X82694779Y41923253D01*
X82734079Y41890276D01*
X82759731Y41885753D01*
X82875207Y41885753D01*
X82875207Y41658486D01*
X82862074Y41645353D01*
X82747561Y41607181D01*
X82676663Y41607181D01*
X82562150Y41645352D01*
X82488037Y41719466D01*
X82449543Y41796453D01*
X82406160Y41969987D01*
X82406160Y42094376D01*
X82449543Y42267910D01*
X82488037Y42344897D01*
X82562150Y42419010D01*
X82676663Y42457181D01*
X82789645Y42457181D01*
X82869047Y42417480D01*
X82920013Y42411615D01*
X82962826Y42439881D01*
X82977453Y42489056D01*
X82957050Y42536127D01*
X82936129Y42551644D01*
X82840891Y42599263D01*
X82836437Y42599776D01*
X82833002Y42602658D01*
X82807350Y42607181D01*
X82664493Y42607181D01*
X82662955Y42606622D01*
X82640775Y42603332D01*
X82497919Y42555713D01*
X82494408Y42552927D01*
X82489940Y42552536D01*
X82468603Y42537595D01*
X82373365Y42442357D01*
X82372674Y42440876D01*
X82359316Y42422865D01*
X82311697Y42327627D01*
X82311290Y42324099D01*
X82306018Y42312276D01*
X82258399Y42121800D01*
X82258759Y42118352D01*
X82256160Y42103610D01*
X82256160Y41960753D01*
X82113303Y41960753D01*
X82113303Y42750038D01*
X83168064Y42750038D01*
X83168064Y41314324D01*
G37*
D11*
X23724082Y13327743D02*
X24438368Y13327743D01*
X23581225Y12899172D02*
X24081225Y14399172D01*
X24081225Y14399172D02*
X24581225Y12899172D01*
X25081224Y12899172D02*
X25081224Y13899172D01*
X25081224Y13756315D02*
X25152653Y13827743D01*
X25152653Y13827743D02*
X25295510Y13899172D01*
X25295510Y13899172D02*
X25509796Y13899172D01*
X25509796Y13899172D02*
X25652653Y13827743D01*
X25652653Y13827743D02*
X25724082Y13684886D01*
X25724082Y13684886D02*
X25724082Y12899172D01*
X25724082Y13684886D02*
X25795510Y13827743D01*
X25795510Y13827743D02*
X25938367Y13899172D01*
X25938367Y13899172D02*
X26152653Y13899172D01*
X26152653Y13899172D02*
X26295510Y13827743D01*
X26295510Y13827743D02*
X26366939Y13684886D01*
X26366939Y13684886D02*
X26366939Y12899172D01*
X27295510Y12899172D02*
X27152653Y12970600D01*
X27152653Y12970600D02*
X27081224Y13042029D01*
X27081224Y13042029D02*
X27009796Y13184886D01*
X27009796Y13184886D02*
X27009796Y13613458D01*
X27009796Y13613458D02*
X27081224Y13756315D01*
X27081224Y13756315D02*
X27152653Y13827743D01*
X27152653Y13827743D02*
X27295510Y13899172D01*
X27295510Y13899172D02*
X27509796Y13899172D01*
X27509796Y13899172D02*
X27652653Y13827743D01*
X27652653Y13827743D02*
X27724082Y13756315D01*
X27724082Y13756315D02*
X27795510Y13613458D01*
X27795510Y13613458D02*
X27795510Y13184886D01*
X27795510Y13184886D02*
X27724082Y13042029D01*
X27724082Y13042029D02*
X27652653Y12970600D01*
X27652653Y12970600D02*
X27509796Y12899172D01*
X27509796Y12899172D02*
X27295510Y12899172D01*
X28366939Y12970600D02*
X28509796Y12899172D01*
X28509796Y12899172D02*
X28795510Y12899172D01*
X28795510Y12899172D02*
X28938367Y12970600D01*
X28938367Y12970600D02*
X29009796Y13113458D01*
X29009796Y13113458D02*
X29009796Y13184886D01*
X29009796Y13184886D02*
X28938367Y13327743D01*
X28938367Y13327743D02*
X28795510Y13399172D01*
X28795510Y13399172D02*
X28581225Y13399172D01*
X28581225Y13399172D02*
X28438367Y13470600D01*
X28438367Y13470600D02*
X28366939Y13613458D01*
X28366939Y13613458D02*
X28366939Y13684886D01*
X28366939Y13684886D02*
X28438367Y13827743D01*
X28438367Y13827743D02*
X28581225Y13899172D01*
X28581225Y13899172D02*
X28795510Y13899172D01*
X28795510Y13899172D02*
X28938367Y13827743D01*
X30795510Y12899172D02*
X30795510Y14399172D01*
X31509796Y13899172D02*
X31509796Y12899172D01*
X31509796Y13756315D02*
X31581225Y13827743D01*
X31581225Y13827743D02*
X31724082Y13899172D01*
X31724082Y13899172D02*
X31938368Y13899172D01*
X31938368Y13899172D02*
X32081225Y13827743D01*
X32081225Y13827743D02*
X32152654Y13684886D01*
X32152654Y13684886D02*
X32152654Y12899172D01*
X32866939Y13899172D02*
X32866939Y12399172D01*
X32866939Y13827743D02*
X33009797Y13899172D01*
X33009797Y13899172D02*
X33295511Y13899172D01*
X33295511Y13899172D02*
X33438368Y13827743D01*
X33438368Y13827743D02*
X33509797Y13756315D01*
X33509797Y13756315D02*
X33581225Y13613458D01*
X33581225Y13613458D02*
X33581225Y13184886D01*
X33581225Y13184886D02*
X33509797Y13042029D01*
X33509797Y13042029D02*
X33438368Y12970600D01*
X33438368Y12970600D02*
X33295511Y12899172D01*
X33295511Y12899172D02*
X33009797Y12899172D01*
X33009797Y12899172D02*
X32866939Y12970600D01*
X34866940Y13899172D02*
X34866940Y12899172D01*
X34224082Y13899172D02*
X34224082Y13113458D01*
X34224082Y13113458D02*
X34295511Y12970600D01*
X34295511Y12970600D02*
X34438368Y12899172D01*
X34438368Y12899172D02*
X34652654Y12899172D01*
X34652654Y12899172D02*
X34795511Y12970600D01*
X34795511Y12970600D02*
X34866940Y13042029D01*
X35366940Y13899172D02*
X35938368Y13899172D01*
X35581225Y14399172D02*
X35581225Y13113458D01*
X35581225Y13113458D02*
X35652654Y12970600D01*
X35652654Y12970600D02*
X35795511Y12899172D01*
X35795511Y12899172D02*
X35938368Y12899172D01*
X37581225Y12899172D02*
X37581225Y14399172D01*
X37581225Y14399172D02*
X38152654Y14399172D01*
X38152654Y14399172D02*
X38295511Y14327743D01*
X38295511Y14327743D02*
X38366940Y14256315D01*
X38366940Y14256315D02*
X38438368Y14113458D01*
X38438368Y14113458D02*
X38438368Y13899172D01*
X38438368Y13899172D02*
X38366940Y13756315D01*
X38366940Y13756315D02*
X38295511Y13684886D01*
X38295511Y13684886D02*
X38152654Y13613458D01*
X38152654Y13613458D02*
X37581225Y13613458D01*
X39724083Y12899172D02*
X39724083Y13684886D01*
X39724083Y13684886D02*
X39652654Y13827743D01*
X39652654Y13827743D02*
X39509797Y13899172D01*
X39509797Y13899172D02*
X39224083Y13899172D01*
X39224083Y13899172D02*
X39081225Y13827743D01*
X39724083Y12970600D02*
X39581225Y12899172D01*
X39581225Y12899172D02*
X39224083Y12899172D01*
X39224083Y12899172D02*
X39081225Y12970600D01*
X39081225Y12970600D02*
X39009797Y13113458D01*
X39009797Y13113458D02*
X39009797Y13256315D01*
X39009797Y13256315D02*
X39081225Y13399172D01*
X39081225Y13399172D02*
X39224083Y13470600D01*
X39224083Y13470600D02*
X39581225Y13470600D01*
X39581225Y13470600D02*
X39724083Y13542029D01*
X40438368Y13899172D02*
X40438368Y12899172D01*
X40438368Y13756315D02*
X40509797Y13827743D01*
X40509797Y13827743D02*
X40652654Y13899172D01*
X40652654Y13899172D02*
X40866940Y13899172D01*
X40866940Y13899172D02*
X41009797Y13827743D01*
X41009797Y13827743D02*
X41081226Y13684886D01*
X41081226Y13684886D02*
X41081226Y12899172D01*
X42366940Y12970600D02*
X42224083Y12899172D01*
X42224083Y12899172D02*
X41938369Y12899172D01*
X41938369Y12899172D02*
X41795511Y12970600D01*
X41795511Y12970600D02*
X41724083Y13113458D01*
X41724083Y13113458D02*
X41724083Y13684886D01*
X41724083Y13684886D02*
X41795511Y13827743D01*
X41795511Y13827743D02*
X41938369Y13899172D01*
X41938369Y13899172D02*
X42224083Y13899172D01*
X42224083Y13899172D02*
X42366940Y13827743D01*
X42366940Y13827743D02*
X42438369Y13684886D01*
X42438369Y13684886D02*
X42438369Y13542029D01*
X42438369Y13542029D02*
X41724083Y13399172D01*
X43295511Y12899172D02*
X43152654Y12970600D01*
X43152654Y12970600D02*
X43081225Y13113458D01*
X43081225Y13113458D02*
X43081225Y14399172D01*
X44938368Y12970600D02*
X45152654Y12899172D01*
X45152654Y12899172D02*
X45509796Y12899172D01*
X45509796Y12899172D02*
X45652654Y12970600D01*
X45652654Y12970600D02*
X45724082Y13042029D01*
X45724082Y13042029D02*
X45795511Y13184886D01*
X45795511Y13184886D02*
X45795511Y13327743D01*
X45795511Y13327743D02*
X45724082Y13470600D01*
X45724082Y13470600D02*
X45652654Y13542029D01*
X45652654Y13542029D02*
X45509796Y13613458D01*
X45509796Y13613458D02*
X45224082Y13684886D01*
X45224082Y13684886D02*
X45081225Y13756315D01*
X45081225Y13756315D02*
X45009796Y13827743D01*
X45009796Y13827743D02*
X44938368Y13970600D01*
X44938368Y13970600D02*
X44938368Y14113458D01*
X44938368Y14113458D02*
X45009796Y14256315D01*
X45009796Y14256315D02*
X45081225Y14327743D01*
X45081225Y14327743D02*
X45224082Y14399172D01*
X45224082Y14399172D02*
X45581225Y14399172D01*
X45581225Y14399172D02*
X45795511Y14327743D01*
X47081225Y13899172D02*
X47081225Y12899172D01*
X46438367Y13899172D02*
X46438367Y13113458D01*
X46438367Y13113458D02*
X46509796Y12970600D01*
X46509796Y12970600D02*
X46652653Y12899172D01*
X46652653Y12899172D02*
X46866939Y12899172D01*
X46866939Y12899172D02*
X47009796Y12970600D01*
X47009796Y12970600D02*
X47081225Y13042029D01*
X47795510Y13899172D02*
X47795510Y12399172D01*
X47795510Y13827743D02*
X47938368Y13899172D01*
X47938368Y13899172D02*
X48224082Y13899172D01*
X48224082Y13899172D02*
X48366939Y13827743D01*
X48366939Y13827743D02*
X48438368Y13756315D01*
X48438368Y13756315D02*
X48509796Y13613458D01*
X48509796Y13613458D02*
X48509796Y13184886D01*
X48509796Y13184886D02*
X48438368Y13042029D01*
X48438368Y13042029D02*
X48366939Y12970600D01*
X48366939Y12970600D02*
X48224082Y12899172D01*
X48224082Y12899172D02*
X47938368Y12899172D01*
X47938368Y12899172D02*
X47795510Y12970600D01*
X49152653Y13899172D02*
X49152653Y12399172D01*
X49152653Y13827743D02*
X49295511Y13899172D01*
X49295511Y13899172D02*
X49581225Y13899172D01*
X49581225Y13899172D02*
X49724082Y13827743D01*
X49724082Y13827743D02*
X49795511Y13756315D01*
X49795511Y13756315D02*
X49866939Y13613458D01*
X49866939Y13613458D02*
X49866939Y13184886D01*
X49866939Y13184886D02*
X49795511Y13042029D01*
X49795511Y13042029D02*
X49724082Y12970600D01*
X49724082Y12970600D02*
X49581225Y12899172D01*
X49581225Y12899172D02*
X49295511Y12899172D01*
X49295511Y12899172D02*
X49152653Y12970600D01*
X50724082Y12899172D02*
X50581225Y12970600D01*
X50581225Y12970600D02*
X50509796Y13042029D01*
X50509796Y13042029D02*
X50438368Y13184886D01*
X50438368Y13184886D02*
X50438368Y13613458D01*
X50438368Y13613458D02*
X50509796Y13756315D01*
X50509796Y13756315D02*
X50581225Y13827743D01*
X50581225Y13827743D02*
X50724082Y13899172D01*
X50724082Y13899172D02*
X50938368Y13899172D01*
X50938368Y13899172D02*
X51081225Y13827743D01*
X51081225Y13827743D02*
X51152654Y13756315D01*
X51152654Y13756315D02*
X51224082Y13613458D01*
X51224082Y13613458D02*
X51224082Y13184886D01*
X51224082Y13184886D02*
X51152654Y13042029D01*
X51152654Y13042029D02*
X51081225Y12970600D01*
X51081225Y12970600D02*
X50938368Y12899172D01*
X50938368Y12899172D02*
X50724082Y12899172D01*
X51866939Y12899172D02*
X51866939Y13899172D01*
X51866939Y13613458D02*
X51938368Y13756315D01*
X51938368Y13756315D02*
X52009797Y13827743D01*
X52009797Y13827743D02*
X52152654Y13899172D01*
X52152654Y13899172D02*
X52295511Y13899172D01*
X52581225Y13899172D02*
X53152653Y13899172D01*
X52795510Y14399172D02*
X52795510Y13113458D01*
X52795510Y13113458D02*
X52866939Y12970600D01*
X52866939Y12970600D02*
X53009796Y12899172D01*
X53009796Y12899172D02*
X53152653Y12899172D01*
D10*
X115176180Y42982126D02*
X114366657Y42982126D01*
X114366657Y42982126D02*
X114271419Y42936888D01*
X114271419Y42936888D02*
X114223800Y42891650D01*
X114223800Y42891650D02*
X114176180Y42801174D01*
X114176180Y42801174D02*
X114176180Y42620221D01*
X114176180Y42620221D02*
X114223800Y42529745D01*
X114223800Y42529745D02*
X114271419Y42484507D01*
X114271419Y42484507D02*
X114366657Y42439269D01*
X114366657Y42439269D02*
X115176180Y42439269D01*
X114176180Y41986888D02*
X115176180Y41986888D01*
X115176180Y41986888D02*
X115176180Y41624983D01*
X115176180Y41624983D02*
X115128561Y41534507D01*
X115128561Y41534507D02*
X115080942Y41489269D01*
X115080942Y41489269D02*
X114985704Y41444031D01*
X114985704Y41444031D02*
X114842847Y41444031D01*
X114842847Y41444031D02*
X114747609Y41489269D01*
X114747609Y41489269D02*
X114699990Y41534507D01*
X114699990Y41534507D02*
X114652371Y41624983D01*
X114652371Y41624983D02*
X114652371Y41986888D01*
X114176180Y40313078D02*
X115176180Y40313078D01*
X115176180Y40313078D02*
X115176180Y40086888D01*
X115176180Y40086888D02*
X115128561Y39951173D01*
X115128561Y39951173D02*
X115033323Y39860697D01*
X115033323Y39860697D02*
X114938085Y39815459D01*
X114938085Y39815459D02*
X114747609Y39770221D01*
X114747609Y39770221D02*
X114604752Y39770221D01*
X114604752Y39770221D02*
X114414276Y39815459D01*
X114414276Y39815459D02*
X114319038Y39860697D01*
X114319038Y39860697D02*
X114223800Y39951173D01*
X114223800Y39951173D02*
X114176180Y40086888D01*
X114176180Y40086888D02*
X114176180Y40313078D01*
X114176180Y39363078D02*
X115176180Y39363078D01*
X115176180Y39363078D02*
X114176180Y38820221D01*
X114176180Y38820221D02*
X115176180Y38820221D01*
X114176180Y37191649D02*
X114176180Y37644030D01*
X114176180Y37644030D02*
X115176180Y37644030D01*
X114699990Y36558315D02*
X114699990Y36874982D01*
X114176180Y36874982D02*
X115176180Y36874982D01*
X115176180Y36874982D02*
X115176180Y36422601D01*
X114176180Y34794029D02*
X114652371Y35110696D01*
X114176180Y35336886D02*
X115176180Y35336886D01*
X115176180Y35336886D02*
X115176180Y34974981D01*
X115176180Y34974981D02*
X115128561Y34884505D01*
X115128561Y34884505D02*
X115080942Y34839267D01*
X115080942Y34839267D02*
X114985704Y34794029D01*
X114985704Y34794029D02*
X114842847Y34794029D01*
X114842847Y34794029D02*
X114747609Y34839267D01*
X114747609Y34839267D02*
X114699990Y34884505D01*
X114699990Y34884505D02*
X114652371Y34974981D01*
X114652371Y34974981D02*
X114652371Y35336886D01*
X115176180Y34522600D02*
X115176180Y33979743D01*
X114176180Y34251172D02*
X115176180Y34251172D01*
G36*
X21901836Y9907010D02*
G01*
X21975949Y9832897D01*
X22014442Y9755910D01*
X22057826Y9582376D01*
X22057826Y9457987D01*
X22014442Y9284453D01*
X21975948Y9207466D01*
X21901836Y9133353D01*
X21787323Y9095181D01*
X21636398Y9095181D01*
X21636398Y9945181D01*
X21787323Y9945181D01*
X21901836Y9907010D01*
G37*
G36*
X22350683Y8802324D02*
G01*
X19248303Y8802324D01*
X19248303Y9448753D01*
X19391160Y9448753D01*
X19392345Y9445496D01*
X19393399Y9430563D01*
X19441018Y9240087D01*
X19443006Y9237143D01*
X19446697Y9224736D01*
X19494316Y9129498D01*
X19495502Y9128375D01*
X19508365Y9110006D01*
X19603603Y9014767D01*
X19607667Y9012872D01*
X19610014Y9009052D01*
X19632919Y8996649D01*
X19775775Y8949030D01*
X19777410Y8949075D01*
X19799493Y8945181D01*
X19894731Y8945181D01*
X19896269Y8945742D01*
X19918448Y8949030D01*
X20061305Y8996649D01*
X20064816Y8999437D01*
X20069285Y8999827D01*
X20090622Y9014768D01*
X20096035Y9020181D01*
X20438779Y9020181D01*
X20456326Y8971972D01*
X20500755Y8946320D01*
X20551279Y8955229D01*
X20584256Y8994529D01*
X20588779Y9020181D01*
X20588779Y9737765D01*
X21020089Y8982970D01*
X21025382Y8978489D01*
X21027754Y8971972D01*
X21044491Y8962309D01*
X21059242Y8949819D01*
X21066176Y8949789D01*
X21072183Y8946320D01*
X21091216Y8949677D01*
X21110544Y8949590D01*
X21115877Y8954025D01*
X21122707Y8955229D01*
X21135131Y8970036D01*
X21149991Y8982392D01*
X21151225Y8989216D01*
X21155684Y8994529D01*
X21160207Y9020181D01*
X21486398Y9020181D01*
X21493061Y9001873D01*
X21496446Y8982681D01*
X21501630Y8978331D01*
X21503945Y8971972D01*
X21520818Y8962230D01*
X21535746Y8949704D01*
X21545488Y8947987D01*
X21548374Y8946320D01*
X21551656Y8946899D01*
X21561398Y8945181D01*
X21799493Y8945181D01*
X21801031Y8945742D01*
X21823210Y8949030D01*
X21966067Y8996649D01*
X21969579Y8999437D01*
X21974046Y8999827D01*
X21995383Y9014767D01*
X22090622Y9110007D01*
X22091313Y9111490D01*
X22104670Y9129498D01*
X22152289Y9224736D01*
X22152695Y9228265D01*
X22157968Y9240087D01*
X22205587Y9430563D01*
X22205226Y9434012D01*
X22207826Y9448753D01*
X22207826Y9591610D01*
X22206640Y9594868D01*
X22205587Y9609800D01*
X22157968Y9800276D01*
X22155979Y9803221D01*
X22152289Y9815627D01*
X22104670Y9910865D01*
X22103483Y9911989D01*
X22090621Y9930357D01*
X21995383Y10025595D01*
X21991319Y10027490D01*
X21988972Y10031311D01*
X21966067Y10043713D01*
X21823210Y10091332D01*
X21821575Y10091288D01*
X21799493Y10095181D01*
X21561398Y10095181D01*
X21543089Y10088518D01*
X21523898Y10085133D01*
X21519547Y10079949D01*
X21513189Y10077634D01*
X21503446Y10060761D01*
X21490921Y10045833D01*
X21489203Y10036091D01*
X21487537Y10033205D01*
X21488115Y10029923D01*
X21486398Y10020181D01*
X21486398Y9020181D01*
X21160207Y9020181D01*
X21160207Y10020181D01*
X21142660Y10068390D01*
X21098231Y10094042D01*
X21047707Y10085133D01*
X21014730Y10045833D01*
X21010207Y10020181D01*
X21010207Y9302598D01*
X20578897Y10057391D01*
X20573604Y10061873D01*
X20571232Y10068390D01*
X20554492Y10078055D01*
X20539744Y10090543D01*
X20532809Y10090574D01*
X20526803Y10094042D01*
X20507769Y10090686D01*
X20488442Y10090772D01*
X20483108Y10086338D01*
X20476279Y10085133D01*
X20463854Y10070327D01*
X20448995Y10057970D01*
X20447760Y10051147D01*
X20443302Y10045833D01*
X20438779Y10020181D01*
X20438779Y9020181D01*
X20096035Y9020181D01*
X20138240Y9062387D01*
X20145158Y9077225D01*
X20155684Y9089768D01*
X20158527Y9105896D01*
X20159921Y9108884D01*
X20159398Y9110835D01*
X20160207Y9115420D01*
X20160207Y9448753D01*
X20153543Y9467062D01*
X20150159Y9486253D01*
X20144974Y9490604D01*
X20142660Y9496962D01*
X20125786Y9506705D01*
X20110859Y9519230D01*
X20101116Y9520948D01*
X20098231Y9522614D01*
X20094948Y9522036D01*
X20085207Y9523753D01*
X19894731Y9523753D01*
X19846522Y9506206D01*
X19820870Y9461777D01*
X19829779Y9411253D01*
X19869079Y9378276D01*
X19894731Y9373753D01*
X20010207Y9373753D01*
X20010207Y9146486D01*
X19997074Y9133353D01*
X19882561Y9095181D01*
X19811663Y9095181D01*
X19697150Y9133352D01*
X19623037Y9207466D01*
X19584543Y9284453D01*
X19541160Y9457987D01*
X19541160Y9582376D01*
X19584543Y9755910D01*
X19623037Y9832897D01*
X19697150Y9907010D01*
X19811663Y9945181D01*
X19924645Y9945181D01*
X20004047Y9905480D01*
X20055013Y9899615D01*
X20097826Y9927881D01*
X20112453Y9977056D01*
X20092050Y10024127D01*
X20071129Y10039644D01*
X19975891Y10087263D01*
X19971437Y10087776D01*
X19968002Y10090658D01*
X19942350Y10095181D01*
X19799493Y10095181D01*
X19797955Y10094622D01*
X19775775Y10091332D01*
X19632919Y10043713D01*
X19629408Y10040927D01*
X19624940Y10040536D01*
X19603603Y10025595D01*
X19508365Y9930357D01*
X19507674Y9928876D01*
X19494316Y9910865D01*
X19446697Y9815627D01*
X19446290Y9812099D01*
X19441018Y9800276D01*
X19393399Y9609800D01*
X19393759Y9606352D01*
X19391160Y9591610D01*
X19391160Y9448753D01*
X19248303Y9448753D01*
X19248303Y10238038D01*
X22350683Y10238038D01*
X22350683Y8802324D01*
G37*
G36*
X83168064Y3214324D02*
G01*
X82113303Y3214324D01*
X82113303Y3860753D01*
X82256160Y3860753D01*
X82257345Y3857496D01*
X82258399Y3842563D01*
X82306018Y3652087D01*
X82308006Y3649143D01*
X82311697Y3636736D01*
X82359316Y3541498D01*
X82360502Y3540375D01*
X82373365Y3522006D01*
X82468603Y3426767D01*
X82472667Y3424872D01*
X82475014Y3421052D01*
X82497919Y3408649D01*
X82640775Y3361030D01*
X82642410Y3361075D01*
X82664493Y3357181D01*
X82759731Y3357181D01*
X82761269Y3357742D01*
X82783448Y3361030D01*
X82926305Y3408649D01*
X82929816Y3411437D01*
X82934285Y3411827D01*
X82955622Y3426768D01*
X83003240Y3474387D01*
X83010158Y3489225D01*
X83020684Y3501768D01*
X83023527Y3517896D01*
X83024921Y3520884D01*
X83024398Y3522835D01*
X83025207Y3527420D01*
X83025207Y3860753D01*
X83018543Y3879062D01*
X83015159Y3898253D01*
X83009974Y3902604D01*
X83007660Y3908962D01*
X82990786Y3918705D01*
X82975859Y3931230D01*
X82966116Y3932948D01*
X82963231Y3934614D01*
X82959948Y3934036D01*
X82950207Y3935753D01*
X82759731Y3935753D01*
X82711522Y3918206D01*
X82685870Y3873777D01*
X82694779Y3823253D01*
X82734079Y3790276D01*
X82759731Y3785753D01*
X82875207Y3785753D01*
X82875207Y3558486D01*
X82862074Y3545353D01*
X82747561Y3507181D01*
X82676663Y3507181D01*
X82562150Y3545352D01*
X82488037Y3619466D01*
X82449543Y3696453D01*
X82406160Y3869987D01*
X82406160Y3994376D01*
X82449543Y4167910D01*
X82488037Y4244897D01*
X82562150Y4319010D01*
X82676663Y4357181D01*
X82789645Y4357181D01*
X82869047Y4317480D01*
X82920013Y4311615D01*
X82962826Y4339881D01*
X82977453Y4389056D01*
X82957050Y4436127D01*
X82936129Y4451644D01*
X82840891Y4499263D01*
X82836437Y4499776D01*
X82833002Y4502658D01*
X82807350Y4507181D01*
X82664493Y4507181D01*
X82662955Y4506622D01*
X82640775Y4503332D01*
X82497919Y4455713D01*
X82494408Y4452927D01*
X82489940Y4452536D01*
X82468603Y4437595D01*
X82373365Y4342357D01*
X82372674Y4340876D01*
X82359316Y4322865D01*
X82311697Y4227627D01*
X82311290Y4224099D01*
X82306018Y4212276D01*
X82258399Y4021800D01*
X82258759Y4018352D01*
X82256160Y4003610D01*
X82256160Y3860753D01*
X82113303Y3860753D01*
X82113303Y4650038D01*
X83168064Y4650038D01*
X83168064Y3214324D01*
G37*
X22815779Y10020181D02*
X22815779Y9210658D01*
X22815779Y9210658D02*
X22863398Y9115420D01*
X22863398Y9115420D02*
X22911017Y9067800D01*
X22911017Y9067800D02*
X23006255Y9020181D01*
X23006255Y9020181D02*
X23196731Y9020181D01*
X23196731Y9020181D02*
X23291969Y9067800D01*
X23291969Y9067800D02*
X23339588Y9115420D01*
X23339588Y9115420D02*
X23387207Y9210658D01*
X23387207Y9210658D02*
X23387207Y10020181D01*
X23863398Y9020181D02*
X23863398Y10020181D01*
X23863398Y10020181D02*
X24244350Y10020181D01*
X24244350Y10020181D02*
X24339588Y9972562D01*
X24339588Y9972562D02*
X24387207Y9924943D01*
X24387207Y9924943D02*
X24434826Y9829705D01*
X24434826Y9829705D02*
X24434826Y9686848D01*
X24434826Y9686848D02*
X24387207Y9591610D01*
X24387207Y9591610D02*
X24339588Y9543991D01*
X24339588Y9543991D02*
X24244350Y9496372D01*
X24244350Y9496372D02*
X23863398Y9496372D01*
X25625303Y9020181D02*
X25625303Y10020181D01*
X25625303Y10020181D02*
X25863398Y10020181D01*
X25863398Y10020181D02*
X26006255Y9972562D01*
X26006255Y9972562D02*
X26101493Y9877324D01*
X26101493Y9877324D02*
X26149112Y9782086D01*
X26149112Y9782086D02*
X26196731Y9591610D01*
X26196731Y9591610D02*
X26196731Y9448753D01*
X26196731Y9448753D02*
X26149112Y9258277D01*
X26149112Y9258277D02*
X26101493Y9163039D01*
X26101493Y9163039D02*
X26006255Y9067800D01*
X26006255Y9067800D02*
X25863398Y9020181D01*
X25863398Y9020181D02*
X25625303Y9020181D01*
X26625303Y9020181D02*
X26625303Y10020181D01*
X26625303Y10020181D02*
X27196731Y9020181D01*
X27196731Y9020181D02*
X27196731Y10020181D01*
X28911017Y9020181D02*
X28434827Y9020181D01*
X28434827Y9020181D02*
X28434827Y10020181D01*
X29577684Y9543991D02*
X29244351Y9543991D01*
X29244351Y9020181D02*
X29244351Y10020181D01*
X29244351Y10020181D02*
X29720541Y10020181D01*
X31434827Y9020181D02*
X31101494Y9496372D01*
X30863399Y9020181D02*
X30863399Y10020181D01*
X30863399Y10020181D02*
X31244351Y10020181D01*
X31244351Y10020181D02*
X31339589Y9972562D01*
X31339589Y9972562D02*
X31387208Y9924943D01*
X31387208Y9924943D02*
X31434827Y9829705D01*
X31434827Y9829705D02*
X31434827Y9686848D01*
X31434827Y9686848D02*
X31387208Y9591610D01*
X31387208Y9591610D02*
X31339589Y9543991D01*
X31339589Y9543991D02*
X31244351Y9496372D01*
X31244351Y9496372D02*
X30863399Y9496372D01*
X31720542Y10020181D02*
X32291970Y10020181D01*
X32006256Y9020181D02*
X32006256Y10020181D01*
X33339590Y9067800D02*
X33482447Y9020181D01*
X33482447Y9020181D02*
X33720542Y9020181D01*
X33720542Y9020181D02*
X33815780Y9067800D01*
X33815780Y9067800D02*
X33863399Y9115420D01*
X33863399Y9115420D02*
X33911018Y9210658D01*
X33911018Y9210658D02*
X33911018Y9305896D01*
X33911018Y9305896D02*
X33863399Y9401134D01*
X33863399Y9401134D02*
X33815780Y9448753D01*
X33815780Y9448753D02*
X33720542Y9496372D01*
X33720542Y9496372D02*
X33530066Y9543991D01*
X33530066Y9543991D02*
X33434828Y9591610D01*
X33434828Y9591610D02*
X33387209Y9639229D01*
X33387209Y9639229D02*
X33339590Y9734467D01*
X33339590Y9734467D02*
X33339590Y9829705D01*
X33339590Y9829705D02*
X33387209Y9924943D01*
X33387209Y9924943D02*
X33434828Y9972562D01*
X33434828Y9972562D02*
X33530066Y10020181D01*
X33530066Y10020181D02*
X33768161Y10020181D01*
X33768161Y10020181D02*
X33911018Y9972562D01*
X34196733Y10020181D02*
X34768161Y10020181D01*
X34482447Y9020181D02*
X34482447Y10020181D01*
X35815781Y9067800D02*
X35958638Y9020181D01*
X35958638Y9020181D02*
X36196733Y9020181D01*
X36196733Y9020181D02*
X36291971Y9067800D01*
X36291971Y9067800D02*
X36339590Y9115420D01*
X36339590Y9115420D02*
X36387209Y9210658D01*
X36387209Y9210658D02*
X36387209Y9305896D01*
X36387209Y9305896D02*
X36339590Y9401134D01*
X36339590Y9401134D02*
X36291971Y9448753D01*
X36291971Y9448753D02*
X36196733Y9496372D01*
X36196733Y9496372D02*
X36006257Y9543991D01*
X36006257Y9543991D02*
X35911019Y9591610D01*
X35911019Y9591610D02*
X35863400Y9639229D01*
X35863400Y9639229D02*
X35815781Y9734467D01*
X35815781Y9734467D02*
X35815781Y9829705D01*
X35815781Y9829705D02*
X35863400Y9924943D01*
X35863400Y9924943D02*
X35911019Y9972562D01*
X35911019Y9972562D02*
X36006257Y10020181D01*
X36006257Y10020181D02*
X36244352Y10020181D01*
X36244352Y10020181D02*
X36387209Y9972562D01*
X37291971Y9020181D02*
X36815781Y9020181D01*
X36815781Y9020181D02*
X36815781Y10020181D01*
X38339591Y9305896D02*
X38815781Y9305896D01*
X38244353Y9020181D02*
X38577686Y10020181D01*
X38577686Y10020181D02*
X38911019Y9020181D01*
X41101496Y9543991D02*
X41244353Y9496372D01*
X41244353Y9496372D02*
X41291972Y9448753D01*
X41291972Y9448753D02*
X41339591Y9353515D01*
X41339591Y9353515D02*
X41339591Y9210658D01*
X41339591Y9210658D02*
X41291972Y9115420D01*
X41291972Y9115420D02*
X41244353Y9067800D01*
X41244353Y9067800D02*
X41149115Y9020181D01*
X41149115Y9020181D02*
X40768163Y9020181D01*
X40768163Y9020181D02*
X40768163Y10020181D01*
X40768163Y10020181D02*
X41101496Y10020181D01*
X41101496Y10020181D02*
X41196734Y9972562D01*
X41196734Y9972562D02*
X41244353Y9924943D01*
X41244353Y9924943D02*
X41291972Y9829705D01*
X41291972Y9829705D02*
X41291972Y9734467D01*
X41291972Y9734467D02*
X41244353Y9639229D01*
X41244353Y9639229D02*
X41196734Y9591610D01*
X41196734Y9591610D02*
X41101496Y9543991D01*
X41101496Y9543991D02*
X40768163Y9543991D01*
X43196735Y10020181D02*
X43863401Y9020181D01*
X43863401Y10020181D02*
X43196735Y9020181D01*
X45958640Y9496372D02*
X45958640Y9020181D01*
X45625307Y10020181D02*
X45958640Y9496372D01*
X45958640Y9496372D02*
X46291973Y10020181D01*
X48006260Y10020181D02*
X48577688Y10020181D01*
X48291974Y9020181D02*
X48291974Y10020181D01*
X49387212Y9020181D02*
X48911022Y9020181D01*
X48911022Y9020181D02*
X48911022Y10020181D01*
X50339594Y10020181D02*
X50911022Y10020181D01*
X50625308Y9020181D02*
X50625308Y10020181D01*
X51815784Y9020181D02*
X51482451Y9496372D01*
X51244356Y9020181D02*
X51244356Y10020181D01*
X51244356Y10020181D02*
X51625308Y10020181D01*
X51625308Y10020181D02*
X51720546Y9972562D01*
X51720546Y9972562D02*
X51768165Y9924943D01*
X51768165Y9924943D02*
X51815784Y9829705D01*
X51815784Y9829705D02*
X51815784Y9686848D01*
X51815784Y9686848D02*
X51768165Y9591610D01*
X51768165Y9591610D02*
X51720546Y9543991D01*
X51720546Y9543991D02*
X51625308Y9496372D01*
X51625308Y9496372D02*
X51244356Y9496372D01*
X53006261Y9020181D02*
X53006261Y10020181D01*
X53006261Y9543991D02*
X53577689Y9543991D01*
X53577689Y9020181D02*
X53577689Y10020181D01*
X54053880Y9020181D02*
X54053880Y10020181D01*
X54625308Y9020181D02*
X54196737Y9591610D01*
X54625308Y10020181D02*
X54053880Y9448753D01*
G36*
X80628064Y95162324D02*
G01*
X79573303Y95162324D01*
X79573303Y95808753D01*
X79716160Y95808753D01*
X79717345Y95805496D01*
X79718399Y95790563D01*
X79766018Y95600087D01*
X79768006Y95597143D01*
X79771697Y95584736D01*
X79819316Y95489498D01*
X79820502Y95488375D01*
X79833365Y95470006D01*
X79928603Y95374767D01*
X79932667Y95372872D01*
X79935014Y95369052D01*
X79957919Y95356649D01*
X80100775Y95309030D01*
X80102410Y95309075D01*
X80124493Y95305181D01*
X80219731Y95305181D01*
X80221269Y95305742D01*
X80243448Y95309030D01*
X80386305Y95356649D01*
X80389816Y95359437D01*
X80394285Y95359827D01*
X80415622Y95374768D01*
X80463240Y95422387D01*
X80470158Y95437225D01*
X80480684Y95449768D01*
X80483527Y95465896D01*
X80484921Y95468884D01*
X80484398Y95470835D01*
X80485207Y95475420D01*
X80485207Y95808753D01*
X80478543Y95827062D01*
X80475159Y95846253D01*
X80469974Y95850604D01*
X80467660Y95856962D01*
X80450786Y95866705D01*
X80435859Y95879230D01*
X80426116Y95880948D01*
X80423231Y95882614D01*
X80419948Y95882036D01*
X80410207Y95883753D01*
X80219731Y95883753D01*
X80171522Y95866206D01*
X80145870Y95821777D01*
X80154779Y95771253D01*
X80194079Y95738276D01*
X80219731Y95733753D01*
X80335207Y95733753D01*
X80335207Y95506486D01*
X80322074Y95493353D01*
X80207561Y95455181D01*
X80136663Y95455181D01*
X80022150Y95493352D01*
X79948037Y95567466D01*
X79909543Y95644453D01*
X79866160Y95817987D01*
X79866160Y95942376D01*
X79909543Y96115910D01*
X79948037Y96192897D01*
X80022150Y96267010D01*
X80136663Y96305181D01*
X80249645Y96305181D01*
X80329047Y96265480D01*
X80380013Y96259615D01*
X80422826Y96287881D01*
X80437453Y96337056D01*
X80417050Y96384127D01*
X80396129Y96399644D01*
X80300891Y96447263D01*
X80296437Y96447776D01*
X80293002Y96450658D01*
X80267350Y96455181D01*
X80124493Y96455181D01*
X80122955Y96454622D01*
X80100775Y96451332D01*
X79957919Y96403713D01*
X79954408Y96400927D01*
X79949940Y96400536D01*
X79928603Y96385595D01*
X79833365Y96290357D01*
X79832674Y96288876D01*
X79819316Y96270865D01*
X79771697Y96175627D01*
X79771290Y96172099D01*
X79766018Y96160276D01*
X79718399Y95969800D01*
X79718759Y95966352D01*
X79716160Y95951610D01*
X79716160Y95808753D01*
X79573303Y95808753D01*
X79573303Y96598038D01*
X80628064Y96598038D01*
X80628064Y95162324D01*
G37*
G36*
X12302064Y22137324D02*
G01*
X11247303Y22137324D01*
X11247303Y22783753D01*
X11390160Y22783753D01*
X11391345Y22780496D01*
X11392399Y22765563D01*
X11440018Y22575087D01*
X11442006Y22572143D01*
X11445697Y22559736D01*
X11493316Y22464498D01*
X11494502Y22463375D01*
X11507365Y22445006D01*
X11602603Y22349767D01*
X11606667Y22347872D01*
X11609014Y22344052D01*
X11631919Y22331649D01*
X11774775Y22284030D01*
X11776410Y22284075D01*
X11798493Y22280181D01*
X11893731Y22280181D01*
X11895269Y22280742D01*
X11917448Y22284030D01*
X12060305Y22331649D01*
X12063816Y22334437D01*
X12068285Y22334827D01*
X12089622Y22349768D01*
X12137240Y22397387D01*
X12144158Y22412225D01*
X12154684Y22424768D01*
X12157527Y22440896D01*
X12158921Y22443884D01*
X12158398Y22445835D01*
X12159207Y22450420D01*
X12159207Y22783753D01*
X12152543Y22802062D01*
X12149159Y22821253D01*
X12143974Y22825604D01*
X12141660Y22831962D01*
X12124786Y22841705D01*
X12109859Y22854230D01*
X12100116Y22855948D01*
X12097231Y22857614D01*
X12093948Y22857036D01*
X12084207Y22858753D01*
X11893731Y22858753D01*
X11845522Y22841206D01*
X11819870Y22796777D01*
X11828779Y22746253D01*
X11868079Y22713276D01*
X11893731Y22708753D01*
X12009207Y22708753D01*
X12009207Y22481486D01*
X11996074Y22468353D01*
X11881561Y22430181D01*
X11810663Y22430181D01*
X11696150Y22468352D01*
X11622037Y22542466D01*
X11583543Y22619453D01*
X11540160Y22792987D01*
X11540160Y22917376D01*
X11583543Y23090910D01*
X11622037Y23167897D01*
X11696150Y23242010D01*
X11810663Y23280181D01*
X11923645Y23280181D01*
X12003047Y23240480D01*
X12054013Y23234615D01*
X12096826Y23262881D01*
X12111453Y23312056D01*
X12091050Y23359127D01*
X12070129Y23374644D01*
X11974891Y23422263D01*
X11970437Y23422776D01*
X11967002Y23425658D01*
X11941350Y23430181D01*
X11798493Y23430181D01*
X11796955Y23429622D01*
X11774775Y23426332D01*
X11631919Y23378713D01*
X11628408Y23375927D01*
X11623940Y23375536D01*
X11602603Y23360595D01*
X11507365Y23265357D01*
X11506674Y23263876D01*
X11493316Y23245865D01*
X11445697Y23150627D01*
X11445290Y23147099D01*
X11440018Y23135276D01*
X11392399Y22944800D01*
X11392759Y22941352D01*
X11390160Y22926610D01*
X11390160Y22783753D01*
X11247303Y22783753D01*
X11247303Y23573038D01*
X12302064Y23573038D01*
X12302064Y22137324D01*
G37*
X78629122Y2273181D02*
X79200550Y2273181D01*
X78914836Y1273181D02*
X78914836Y2273181D01*
X80105312Y1273181D02*
X79771979Y1749372D01*
X79533884Y1273181D02*
X79533884Y2273181D01*
X79533884Y2273181D02*
X79914836Y2273181D01*
X79914836Y2273181D02*
X80010074Y2225562D01*
X80010074Y2225562D02*
X80057693Y2177943D01*
X80057693Y2177943D02*
X80105312Y2082705D01*
X80105312Y2082705D02*
X80105312Y1939848D01*
X80105312Y1939848D02*
X80057693Y1844610D01*
X80057693Y1844610D02*
X80010074Y1796991D01*
X80010074Y1796991D02*
X79914836Y1749372D01*
X79914836Y1749372D02*
X79533884Y1749372D01*
X78679922Y40373181D02*
X79251350Y40373181D01*
X78965636Y39373181D02*
X78965636Y40373181D01*
X80060874Y39373181D02*
X79584684Y39373181D01*
X79584684Y39373181D02*
X79584684Y40373181D01*
X46644112Y20719991D02*
X46786969Y20672372D01*
X46786969Y20672372D02*
X46834588Y20624753D01*
X46834588Y20624753D02*
X46882207Y20529515D01*
X46882207Y20529515D02*
X46882207Y20386658D01*
X46882207Y20386658D02*
X46834588Y20291420D01*
X46834588Y20291420D02*
X46786969Y20243800D01*
X46786969Y20243800D02*
X46691731Y20196181D01*
X46691731Y20196181D02*
X46310779Y20196181D01*
X46310779Y20196181D02*
X46310779Y21196181D01*
X46310779Y21196181D02*
X46644112Y21196181D01*
X46644112Y21196181D02*
X46739350Y21148562D01*
X46739350Y21148562D02*
X46786969Y21100943D01*
X46786969Y21100943D02*
X46834588Y21005705D01*
X46834588Y21005705D02*
X46834588Y20910467D01*
X46834588Y20910467D02*
X46786969Y20815229D01*
X46786969Y20815229D02*
X46739350Y20767610D01*
X46739350Y20767610D02*
X46644112Y20719991D01*
X46644112Y20719991D02*
X46310779Y20719991D01*
G36*
X12302064Y60237324D02*
G01*
X11247303Y60237324D01*
X11247303Y60883753D01*
X11390160Y60883753D01*
X11391345Y60880496D01*
X11392399Y60865563D01*
X11440018Y60675087D01*
X11442006Y60672143D01*
X11445697Y60659736D01*
X11493316Y60564498D01*
X11494502Y60563375D01*
X11507365Y60545006D01*
X11602603Y60449767D01*
X11606667Y60447872D01*
X11609014Y60444052D01*
X11631919Y60431649D01*
X11774775Y60384030D01*
X11776410Y60384075D01*
X11798493Y60380181D01*
X11893731Y60380181D01*
X11895269Y60380742D01*
X11917448Y60384030D01*
X12060305Y60431649D01*
X12063816Y60434437D01*
X12068285Y60434827D01*
X12089622Y60449768D01*
X12137240Y60497387D01*
X12144158Y60512225D01*
X12154684Y60524768D01*
X12157527Y60540896D01*
X12158921Y60543884D01*
X12158398Y60545835D01*
X12159207Y60550420D01*
X12159207Y60883753D01*
X12152543Y60902062D01*
X12149159Y60921253D01*
X12143974Y60925604D01*
X12141660Y60931962D01*
X12124786Y60941705D01*
X12109859Y60954230D01*
X12100116Y60955948D01*
X12097231Y60957614D01*
X12093948Y60957036D01*
X12084207Y60958753D01*
X11893731Y60958753D01*
X11845522Y60941206D01*
X11819870Y60896777D01*
X11828779Y60846253D01*
X11868079Y60813276D01*
X11893731Y60808753D01*
X12009207Y60808753D01*
X12009207Y60581486D01*
X11996074Y60568353D01*
X11881561Y60530181D01*
X11810663Y60530181D01*
X11696150Y60568352D01*
X11622037Y60642466D01*
X11583543Y60719453D01*
X11540160Y60892987D01*
X11540160Y61017376D01*
X11583543Y61190910D01*
X11622037Y61267897D01*
X11696150Y61342010D01*
X11810663Y61380181D01*
X11923645Y61380181D01*
X12003047Y61340480D01*
X12054013Y61334615D01*
X12096826Y61362881D01*
X12111453Y61412056D01*
X12091050Y61459127D01*
X12070129Y61474644D01*
X11974891Y61522263D01*
X11970437Y61522776D01*
X11967002Y61525658D01*
X11941350Y61530181D01*
X11798493Y61530181D01*
X11796955Y61529622D01*
X11774775Y61526332D01*
X11631919Y61478713D01*
X11628408Y61475927D01*
X11623940Y61475536D01*
X11602603Y61460595D01*
X11507365Y61365357D01*
X11506674Y61363876D01*
X11493316Y61345865D01*
X11445697Y61250627D01*
X11445290Y61247099D01*
X11440018Y61235276D01*
X11392399Y61044800D01*
X11392759Y61041352D01*
X11390160Y61026610D01*
X11390160Y60883753D01*
X11247303Y60883753D01*
X11247303Y61673038D01*
X12302064Y61673038D01*
X12302064Y60237324D01*
G37*
X74250779Y93221181D02*
X74250779Y94221181D01*
X74250779Y93744991D02*
X74822207Y93744991D01*
X74822207Y93221181D02*
X74822207Y94221181D01*
X75488874Y94221181D02*
X75679350Y94221181D01*
X75679350Y94221181D02*
X75774588Y94173562D01*
X75774588Y94173562D02*
X75869826Y94078324D01*
X75869826Y94078324D02*
X75917445Y93887848D01*
X75917445Y93887848D02*
X75917445Y93554515D01*
X75917445Y93554515D02*
X75869826Y93364039D01*
X75869826Y93364039D02*
X75774588Y93268800D01*
X75774588Y93268800D02*
X75679350Y93221181D01*
X75679350Y93221181D02*
X75488874Y93221181D01*
X75488874Y93221181D02*
X75393636Y93268800D01*
X75393636Y93268800D02*
X75298398Y93364039D01*
X75298398Y93364039D02*
X75250779Y93554515D01*
X75250779Y93554515D02*
X75250779Y93887848D01*
X75250779Y93887848D02*
X75298398Y94078324D01*
X75298398Y94078324D02*
X75393636Y94173562D01*
X75393636Y94173562D02*
X75488874Y94221181D01*
X76203160Y94221181D02*
X76774588Y94221181D01*
X76488874Y93221181D02*
X76488874Y94221181D01*
X77107922Y93221181D02*
X77107922Y94221181D01*
X77679350Y93221181D02*
X77250779Y93792610D01*
X77679350Y94221181D02*
X77107922Y93649753D01*
X78107922Y93744991D02*
X78441255Y93744991D01*
X78584112Y93221181D02*
X78107922Y93221181D01*
X78107922Y93221181D02*
X78107922Y94221181D01*
X78107922Y94221181D02*
X78584112Y94221181D01*
X79203160Y93697372D02*
X79203160Y93221181D01*
X78869827Y94221181D02*
X79203160Y93697372D01*
X79203160Y93697372D02*
X79536493Y94221181D01*
X71175809Y98221800D02*
X71318666Y98174181D01*
X71318666Y98174181D02*
X71556761Y98174181D01*
X71556761Y98174181D02*
X71651999Y98221800D01*
X71651999Y98221800D02*
X71699618Y98269420D01*
X71699618Y98269420D02*
X71747237Y98364658D01*
X71747237Y98364658D02*
X71747237Y98459896D01*
X71747237Y98459896D02*
X71699618Y98555134D01*
X71699618Y98555134D02*
X71651999Y98602753D01*
X71651999Y98602753D02*
X71556761Y98650372D01*
X71556761Y98650372D02*
X71366285Y98697991D01*
X71366285Y98697991D02*
X71271047Y98745610D01*
X71271047Y98745610D02*
X71223428Y98793229D01*
X71223428Y98793229D02*
X71175809Y98888467D01*
X71175809Y98888467D02*
X71175809Y98983705D01*
X71175809Y98983705D02*
X71223428Y99078943D01*
X71223428Y99078943D02*
X71271047Y99126562D01*
X71271047Y99126562D02*
X71366285Y99174181D01*
X71366285Y99174181D02*
X71604380Y99174181D01*
X71604380Y99174181D02*
X71747237Y99126562D01*
X72032952Y99174181D02*
X72604380Y99174181D01*
X72318666Y98174181D02*
X72318666Y99174181D01*
X72890095Y98459896D02*
X73366285Y98459896D01*
X72794857Y98174181D02*
X73128190Y99174181D01*
X73128190Y99174181D02*
X73461523Y98174181D01*
X74366285Y98174181D02*
X74032952Y98650372D01*
X73794857Y98174181D02*
X73794857Y99174181D01*
X73794857Y99174181D02*
X74175809Y99174181D01*
X74175809Y99174181D02*
X74271047Y99126562D01*
X74271047Y99126562D02*
X74318666Y99078943D01*
X74318666Y99078943D02*
X74366285Y98983705D01*
X74366285Y98983705D02*
X74366285Y98840848D01*
X74366285Y98840848D02*
X74318666Y98745610D01*
X74318666Y98745610D02*
X74271047Y98697991D01*
X74271047Y98697991D02*
X74175809Y98650372D01*
X74175809Y98650372D02*
X73794857Y98650372D01*
X74652000Y99174181D02*
X75223428Y99174181D01*
X74937714Y98174181D02*
X74937714Y99174181D01*
X57194220Y93865820D02*
X57194220Y94675343D01*
X57194220Y94675343D02*
X57146601Y94770581D01*
X57146601Y94770581D02*
X57098982Y94818200D01*
X57098982Y94818200D02*
X57003744Y94865820D01*
X57003744Y94865820D02*
X56813268Y94865820D01*
X56813268Y94865820D02*
X56718030Y94818200D01*
X56718030Y94818200D02*
X56670411Y94770581D01*
X56670411Y94770581D02*
X56622792Y94675343D01*
X56622792Y94675343D02*
X56622792Y93865820D01*
X56146601Y94865820D02*
X56146601Y93865820D01*
X56146601Y93865820D02*
X55765649Y93865820D01*
X55765649Y93865820D02*
X55670411Y93913439D01*
X55670411Y93913439D02*
X55622792Y93961058D01*
X55622792Y93961058D02*
X55575173Y94056296D01*
X55575173Y94056296D02*
X55575173Y94199153D01*
X55575173Y94199153D02*
X55622792Y94294391D01*
X55622792Y94294391D02*
X55670411Y94342010D01*
X55670411Y94342010D02*
X55765649Y94389629D01*
X55765649Y94389629D02*
X56146601Y94389629D01*
X54384696Y94865820D02*
X54384696Y93865820D01*
X54384696Y93865820D02*
X54146601Y93865820D01*
X54146601Y93865820D02*
X54003744Y93913439D01*
X54003744Y93913439D02*
X53908506Y94008677D01*
X53908506Y94008677D02*
X53860887Y94103915D01*
X53860887Y94103915D02*
X53813268Y94294391D01*
X53813268Y94294391D02*
X53813268Y94437248D01*
X53813268Y94437248D02*
X53860887Y94627724D01*
X53860887Y94627724D02*
X53908506Y94722962D01*
X53908506Y94722962D02*
X54003744Y94818200D01*
X54003744Y94818200D02*
X54146601Y94865820D01*
X54146601Y94865820D02*
X54384696Y94865820D01*
X53384696Y94865820D02*
X53384696Y93865820D01*
X53384696Y93865820D02*
X52813268Y94865820D01*
X52813268Y94865820D02*
X52813268Y93865820D01*
X51098982Y94865820D02*
X51575172Y94865820D01*
X51575172Y94865820D02*
X51575172Y93865820D01*
X50432315Y94342010D02*
X50765648Y94342010D01*
X50765648Y94865820D02*
X50765648Y93865820D01*
X50765648Y93865820D02*
X50289458Y93865820D01*
X48575172Y94865820D02*
X48908505Y94389629D01*
X49146600Y94865820D02*
X49146600Y93865820D01*
X49146600Y93865820D02*
X48765648Y93865820D01*
X48765648Y93865820D02*
X48670410Y93913439D01*
X48670410Y93913439D02*
X48622791Y93961058D01*
X48622791Y93961058D02*
X48575172Y94056296D01*
X48575172Y94056296D02*
X48575172Y94199153D01*
X48575172Y94199153D02*
X48622791Y94294391D01*
X48622791Y94294391D02*
X48670410Y94342010D01*
X48670410Y94342010D02*
X48765648Y94389629D01*
X48765648Y94389629D02*
X49146600Y94389629D01*
X48289457Y93865820D02*
X47718029Y93865820D01*
X48003743Y94865820D02*
X48003743Y93865820D01*
X46670409Y94818200D02*
X46527552Y94865820D01*
X46527552Y94865820D02*
X46289457Y94865820D01*
X46289457Y94865820D02*
X46194219Y94818200D01*
X46194219Y94818200D02*
X46146600Y94770581D01*
X46146600Y94770581D02*
X46098981Y94675343D01*
X46098981Y94675343D02*
X46098981Y94580105D01*
X46098981Y94580105D02*
X46146600Y94484867D01*
X46146600Y94484867D02*
X46194219Y94437248D01*
X46194219Y94437248D02*
X46289457Y94389629D01*
X46289457Y94389629D02*
X46479933Y94342010D01*
X46479933Y94342010D02*
X46575171Y94294391D01*
X46575171Y94294391D02*
X46622790Y94246772D01*
X46622790Y94246772D02*
X46670409Y94151534D01*
X46670409Y94151534D02*
X46670409Y94056296D01*
X46670409Y94056296D02*
X46622790Y93961058D01*
X46622790Y93961058D02*
X46575171Y93913439D01*
X46575171Y93913439D02*
X46479933Y93865820D01*
X46479933Y93865820D02*
X46241838Y93865820D01*
X46241838Y93865820D02*
X46098981Y93913439D01*
X45813266Y93865820D02*
X45241838Y93865820D01*
X45527552Y94865820D02*
X45527552Y93865820D01*
X44194218Y94818200D02*
X44051361Y94865820D01*
X44051361Y94865820D02*
X43813266Y94865820D01*
X43813266Y94865820D02*
X43718028Y94818200D01*
X43718028Y94818200D02*
X43670409Y94770581D01*
X43670409Y94770581D02*
X43622790Y94675343D01*
X43622790Y94675343D02*
X43622790Y94580105D01*
X43622790Y94580105D02*
X43670409Y94484867D01*
X43670409Y94484867D02*
X43718028Y94437248D01*
X43718028Y94437248D02*
X43813266Y94389629D01*
X43813266Y94389629D02*
X44003742Y94342010D01*
X44003742Y94342010D02*
X44098980Y94294391D01*
X44098980Y94294391D02*
X44146599Y94246772D01*
X44146599Y94246772D02*
X44194218Y94151534D01*
X44194218Y94151534D02*
X44194218Y94056296D01*
X44194218Y94056296D02*
X44146599Y93961058D01*
X44146599Y93961058D02*
X44098980Y93913439D01*
X44098980Y93913439D02*
X44003742Y93865820D01*
X44003742Y93865820D02*
X43765647Y93865820D01*
X43765647Y93865820D02*
X43622790Y93913439D01*
X42718028Y94865820D02*
X43194218Y94865820D01*
X43194218Y94865820D02*
X43194218Y93865820D01*
X40908503Y94580105D02*
X40432313Y94580105D01*
X41003741Y94865820D02*
X40670408Y93865820D01*
X40670408Y93865820D02*
X40337075Y94865820D01*
X38146598Y94342010D02*
X38003741Y94389629D01*
X38003741Y94389629D02*
X37956122Y94437248D01*
X37956122Y94437248D02*
X37908503Y94532486D01*
X37908503Y94532486D02*
X37908503Y94675343D01*
X37908503Y94675343D02*
X37956122Y94770581D01*
X37956122Y94770581D02*
X38003741Y94818200D01*
X38003741Y94818200D02*
X38098979Y94865820D01*
X38098979Y94865820D02*
X38479931Y94865820D01*
X38479931Y94865820D02*
X38479931Y93865820D01*
X38479931Y93865820D02*
X38146598Y93865820D01*
X38146598Y93865820D02*
X38051360Y93913439D01*
X38051360Y93913439D02*
X38003741Y93961058D01*
X38003741Y93961058D02*
X37956122Y94056296D01*
X37956122Y94056296D02*
X37956122Y94151534D01*
X37956122Y94151534D02*
X38003741Y94246772D01*
X38003741Y94246772D02*
X38051360Y94294391D01*
X38051360Y94294391D02*
X38146598Y94342010D01*
X38146598Y94342010D02*
X38479931Y94342010D01*
X36051359Y93865820D02*
X35384693Y94865820D01*
X35384693Y93865820D02*
X36051359Y94865820D01*
X33289454Y94389629D02*
X33289454Y94865820D01*
X33622787Y93865820D02*
X33289454Y94389629D01*
X33289454Y94389629D02*
X32956121Y93865820D01*
X31241834Y93865820D02*
X30670406Y93865820D01*
X30956120Y94865820D02*
X30956120Y93865820D01*
X29860882Y94865820D02*
X30337072Y94865820D01*
X30337072Y94865820D02*
X30337072Y93865820D01*
X28908500Y93865820D02*
X28337072Y93865820D01*
X28622786Y94865820D02*
X28622786Y93865820D01*
X27432310Y94865820D02*
X27765643Y94389629D01*
X28003738Y94865820D02*
X28003738Y93865820D01*
X28003738Y93865820D02*
X27622786Y93865820D01*
X27622786Y93865820D02*
X27527548Y93913439D01*
X27527548Y93913439D02*
X27479929Y93961058D01*
X27479929Y93961058D02*
X27432310Y94056296D01*
X27432310Y94056296D02*
X27432310Y94199153D01*
X27432310Y94199153D02*
X27479929Y94294391D01*
X27479929Y94294391D02*
X27527548Y94342010D01*
X27527548Y94342010D02*
X27622786Y94389629D01*
X27622786Y94389629D02*
X28003738Y94389629D01*
X26241833Y94865820D02*
X26241833Y93865820D01*
X26241833Y94342010D02*
X25670405Y94342010D01*
X25670405Y94865820D02*
X25670405Y93865820D01*
X25194214Y94865820D02*
X25194214Y93865820D01*
X24622786Y94865820D02*
X25051357Y94294391D01*
X24622786Y93865820D02*
X25194214Y94437248D01*
X78422809Y98221800D02*
X78565666Y98174181D01*
X78565666Y98174181D02*
X78803761Y98174181D01*
X78803761Y98174181D02*
X78898999Y98221800D01*
X78898999Y98221800D02*
X78946618Y98269420D01*
X78946618Y98269420D02*
X78994237Y98364658D01*
X78994237Y98364658D02*
X78994237Y98459896D01*
X78994237Y98459896D02*
X78946618Y98555134D01*
X78946618Y98555134D02*
X78898999Y98602753D01*
X78898999Y98602753D02*
X78803761Y98650372D01*
X78803761Y98650372D02*
X78613285Y98697991D01*
X78613285Y98697991D02*
X78518047Y98745610D01*
X78518047Y98745610D02*
X78470428Y98793229D01*
X78470428Y98793229D02*
X78422809Y98888467D01*
X78422809Y98888467D02*
X78422809Y98983705D01*
X78422809Y98983705D02*
X78470428Y99078943D01*
X78470428Y99078943D02*
X78518047Y99126562D01*
X78518047Y99126562D02*
X78613285Y99174181D01*
X78613285Y99174181D02*
X78851380Y99174181D01*
X78851380Y99174181D02*
X78994237Y99126562D01*
X79422809Y98697991D02*
X79756142Y98697991D01*
X79898999Y98174181D02*
X79422809Y98174181D01*
X79422809Y98174181D02*
X79422809Y99174181D01*
X79422809Y99174181D02*
X79898999Y99174181D01*
X80803761Y98174181D02*
X80327571Y98174181D01*
X80327571Y98174181D02*
X80327571Y99174181D01*
X81137095Y98697991D02*
X81470428Y98697991D01*
X81613285Y98174181D02*
X81137095Y98174181D01*
X81137095Y98174181D02*
X81137095Y99174181D01*
X81137095Y99174181D02*
X81613285Y99174181D01*
X82613285Y98269420D02*
X82565666Y98221800D01*
X82565666Y98221800D02*
X82422809Y98174181D01*
X82422809Y98174181D02*
X82327571Y98174181D01*
X82327571Y98174181D02*
X82184714Y98221800D01*
X82184714Y98221800D02*
X82089476Y98317039D01*
X82089476Y98317039D02*
X82041857Y98412277D01*
X82041857Y98412277D02*
X81994238Y98602753D01*
X81994238Y98602753D02*
X81994238Y98745610D01*
X81994238Y98745610D02*
X82041857Y98936086D01*
X82041857Y98936086D02*
X82089476Y99031324D01*
X82089476Y99031324D02*
X82184714Y99126562D01*
X82184714Y99126562D02*
X82327571Y99174181D01*
X82327571Y99174181D02*
X82422809Y99174181D01*
X82422809Y99174181D02*
X82565666Y99126562D01*
X82565666Y99126562D02*
X82613285Y99078943D01*
X82899000Y99174181D02*
X83470428Y99174181D01*
X83184714Y98174181D02*
X83184714Y99174181D01*
G36*
X22051601Y93940820D02*
G01*
X21900676Y93940820D01*
X21786163Y93978991D01*
X21712050Y94053104D01*
X21673556Y94130091D01*
X21630173Y94303625D01*
X21630173Y94428014D01*
X21673556Y94601548D01*
X21712050Y94678535D01*
X21786162Y94752648D01*
X21900677Y94790820D01*
X22051601Y94790820D01*
X22051601Y93940820D01*
G37*
G36*
X24439696Y93647963D02*
G01*
X21337316Y93647963D01*
X21337316Y94294391D01*
X21480173Y94294391D01*
X21481358Y94291134D01*
X21482412Y94276201D01*
X21530031Y94085725D01*
X21532019Y94082781D01*
X21535710Y94070374D01*
X21583329Y93975136D01*
X21584518Y93974011D01*
X21597378Y93955644D01*
X21692616Y93860406D01*
X21696680Y93858511D01*
X21699027Y93854691D01*
X21721932Y93842288D01*
X21864788Y93794669D01*
X21866423Y93794714D01*
X21888506Y93790820D01*
X22126601Y93790820D01*
X22144909Y93797484D01*
X22164101Y93800868D01*
X22168451Y93806053D01*
X22174810Y93808367D01*
X22184552Y93825241D01*
X22197078Y93840168D01*
X22198795Y93849911D01*
X22200462Y93852796D01*
X22199883Y93856079D01*
X22201601Y93865820D01*
X22527792Y93865820D01*
X22545339Y93817611D01*
X22589768Y93791959D01*
X22640292Y93800868D01*
X22673269Y93840168D01*
X22677792Y93865820D01*
X22677792Y94583404D01*
X23109102Y93828609D01*
X23114395Y93824128D01*
X23116767Y93817611D01*
X23133504Y93807948D01*
X23148255Y93795458D01*
X23155189Y93795428D01*
X23161196Y93791959D01*
X23180229Y93795316D01*
X23199557Y93795229D01*
X23204890Y93799664D01*
X23211720Y93800868D01*
X23224144Y93815675D01*
X23239004Y93828031D01*
X23240238Y93834855D01*
X23244697Y93840168D01*
X23249220Y93865820D01*
X23249220Y94437248D01*
X23527792Y94437248D01*
X23534455Y94418940D01*
X23537840Y94399748D01*
X23543024Y94395398D01*
X23545339Y94389039D01*
X23562212Y94379297D01*
X23577140Y94366771D01*
X23586882Y94365054D01*
X23589768Y94363387D01*
X23593050Y94363966D01*
X23602792Y94362248D01*
X23793268Y94362248D01*
X23841477Y94379795D01*
X23867129Y94424224D01*
X23858220Y94474748D01*
X23818920Y94507725D01*
X23793268Y94512248D01*
X23677792Y94512248D01*
X23677792Y94739515D01*
X23690924Y94752648D01*
X23805439Y94790820D01*
X23876335Y94790820D01*
X23990848Y94752649D01*
X24064962Y94678535D01*
X24103455Y94601548D01*
X24146839Y94428014D01*
X24146839Y94303625D01*
X24103455Y94130091D01*
X24064962Y94053104D01*
X23990849Y93978992D01*
X23876336Y93940820D01*
X23763354Y93940820D01*
X23683952Y93980521D01*
X23632985Y93986386D01*
X23590172Y93958120D01*
X23575546Y93908945D01*
X23595949Y93861874D01*
X23616870Y93846357D01*
X23712108Y93798738D01*
X23716561Y93798226D01*
X23719997Y93795343D01*
X23745649Y93790820D01*
X23888506Y93790820D01*
X23890044Y93791381D01*
X23912223Y93794669D01*
X24055080Y93842288D01*
X24058592Y93845076D01*
X24063059Y93845466D01*
X24084396Y93860406D01*
X24179634Y93955644D01*
X24180324Y93957126D01*
X24193683Y93975136D01*
X24241302Y94070374D01*
X24241708Y94073903D01*
X24246981Y94085725D01*
X24294600Y94276201D01*
X24294239Y94279650D01*
X24296839Y94294391D01*
X24296839Y94437248D01*
X24295653Y94440506D01*
X24294600Y94455438D01*
X24246981Y94645914D01*
X24244992Y94648859D01*
X24241302Y94661265D01*
X24193683Y94756503D01*
X24192496Y94757627D01*
X24179634Y94775995D01*
X24084396Y94871233D01*
X24080333Y94873128D01*
X24077986Y94876948D01*
X24055081Y94889351D01*
X23912224Y94936971D01*
X23910588Y94936927D01*
X23888506Y94940820D01*
X23793268Y94940820D01*
X23791729Y94940260D01*
X23769551Y94936971D01*
X23626693Y94889351D01*
X23623180Y94886564D01*
X23618715Y94886173D01*
X23597378Y94871233D01*
X23549759Y94823614D01*
X23542840Y94808777D01*
X23532315Y94796233D01*
X23529471Y94780106D01*
X23528078Y94777117D01*
X23528600Y94775167D01*
X23527792Y94770581D01*
X23527792Y94437248D01*
X23249220Y94437248D01*
X23249220Y94865820D01*
X23231673Y94914029D01*
X23187244Y94939681D01*
X23136720Y94930772D01*
X23103743Y94891472D01*
X23099220Y94865820D01*
X23099220Y94148237D01*
X22667910Y94903030D01*
X22662617Y94907512D01*
X22660245Y94914029D01*
X22643505Y94923694D01*
X22628757Y94936182D01*
X22621822Y94936213D01*
X22615816Y94939681D01*
X22596782Y94936325D01*
X22577455Y94936411D01*
X22572121Y94931977D01*
X22565292Y94930772D01*
X22552867Y94915966D01*
X22538008Y94903609D01*
X22536773Y94896786D01*
X22532315Y94891472D01*
X22527792Y94865820D01*
X22527792Y93865820D01*
X22201601Y93865820D01*
X22201601Y94865820D01*
X22194937Y94884129D01*
X22191553Y94903320D01*
X22186368Y94907671D01*
X22184054Y94914029D01*
X22167180Y94923772D01*
X22152253Y94936297D01*
X22142510Y94938015D01*
X22139625Y94939681D01*
X22136342Y94939103D01*
X22126601Y94940820D01*
X21888506Y94940820D01*
X21886967Y94940260D01*
X21864789Y94936971D01*
X21721931Y94889351D01*
X21718420Y94886565D01*
X21713953Y94886174D01*
X21692616Y94871233D01*
X21597378Y94775995D01*
X21596687Y94774514D01*
X21583329Y94756503D01*
X21535710Y94661265D01*
X21535303Y94657737D01*
X21530031Y94645914D01*
X21482412Y94455438D01*
X21482772Y94451990D01*
X21480173Y94437248D01*
X21480173Y94294391D01*
X21337316Y94294391D01*
X21337316Y95083677D01*
X24439696Y95083677D01*
X24439696Y93647963D01*
G37*
X46374255Y58772372D02*
X46374255Y58296181D01*
X46040922Y59296181D02*
X46374255Y58772372D01*
X46374255Y58772372D02*
X46707588Y59296181D01*
X55518207Y12830181D02*
X55184874Y13306372D01*
X54946779Y12830181D02*
X54946779Y13830181D01*
X54946779Y13830181D02*
X55327731Y13830181D01*
X55327731Y13830181D02*
X55422969Y13782562D01*
X55422969Y13782562D02*
X55470588Y13734943D01*
X55470588Y13734943D02*
X55518207Y13639705D01*
X55518207Y13639705D02*
X55518207Y13496848D01*
X55518207Y13496848D02*
X55470588Y13401610D01*
X55470588Y13401610D02*
X55422969Y13353991D01*
X55422969Y13353991D02*
X55327731Y13306372D01*
X55327731Y13306372D02*
X54946779Y13306372D01*
X56327731Y12877800D02*
X56232493Y12830181D01*
X56232493Y12830181D02*
X56042017Y12830181D01*
X56042017Y12830181D02*
X55946779Y12877800D01*
X55946779Y12877800D02*
X55899160Y12973039D01*
X55899160Y12973039D02*
X55899160Y13353991D01*
X55899160Y13353991D02*
X55946779Y13449229D01*
X55946779Y13449229D02*
X56042017Y13496848D01*
X56042017Y13496848D02*
X56232493Y13496848D01*
X56232493Y13496848D02*
X56327731Y13449229D01*
X56327731Y13449229D02*
X56375350Y13353991D01*
X56375350Y13353991D02*
X56375350Y13258753D01*
X56375350Y13258753D02*
X55899160Y13163515D01*
X56708684Y13496848D02*
X56946779Y12830181D01*
X56946779Y12830181D02*
X57184874Y13496848D01*
X57565827Y12925420D02*
X57613446Y12877800D01*
X57613446Y12877800D02*
X57565827Y12830181D01*
X57565827Y12830181D02*
X57518208Y12877800D01*
X57518208Y12877800D02*
X57565827Y12925420D01*
X57565827Y12925420D02*
X57565827Y12830181D01*
X57994398Y13734943D02*
X58042017Y13782562D01*
X58042017Y13782562D02*
X58137255Y13830181D01*
X58137255Y13830181D02*
X58375350Y13830181D01*
X58375350Y13830181D02*
X58470588Y13782562D01*
X58470588Y13782562D02*
X58518207Y13734943D01*
X58518207Y13734943D02*
X58565826Y13639705D01*
X58565826Y13639705D02*
X58565826Y13544467D01*
X58565826Y13544467D02*
X58518207Y13401610D01*
X58518207Y13401610D02*
X57946779Y12830181D01*
X57946779Y12830181D02*
X58565826Y12830181D01*
G36*
X76818064Y100242324D02*
G01*
X75763303Y100242324D01*
X75763303Y100888753D01*
X75906160Y100888753D01*
X75907345Y100885496D01*
X75908399Y100870563D01*
X75956018Y100680087D01*
X75958006Y100677143D01*
X75961697Y100664736D01*
X76009316Y100569498D01*
X76010502Y100568375D01*
X76023365Y100550006D01*
X76118603Y100454767D01*
X76122667Y100452872D01*
X76125014Y100449052D01*
X76147919Y100436649D01*
X76290775Y100389030D01*
X76292410Y100389075D01*
X76314493Y100385181D01*
X76409731Y100385181D01*
X76411269Y100385742D01*
X76433448Y100389030D01*
X76576305Y100436649D01*
X76579816Y100439437D01*
X76584285Y100439827D01*
X76605622Y100454768D01*
X76653240Y100502387D01*
X76660158Y100517225D01*
X76670684Y100529768D01*
X76673527Y100545896D01*
X76674921Y100548884D01*
X76674398Y100550835D01*
X76675207Y100555420D01*
X76675207Y100888753D01*
X76668543Y100907062D01*
X76665159Y100926253D01*
X76659974Y100930604D01*
X76657660Y100936962D01*
X76640786Y100946705D01*
X76625859Y100959230D01*
X76616116Y100960948D01*
X76613231Y100962614D01*
X76609948Y100962036D01*
X76600207Y100963753D01*
X76409731Y100963753D01*
X76361522Y100946206D01*
X76335870Y100901777D01*
X76344779Y100851253D01*
X76384079Y100818276D01*
X76409731Y100813753D01*
X76525207Y100813753D01*
X76525207Y100586486D01*
X76512074Y100573353D01*
X76397561Y100535181D01*
X76326663Y100535181D01*
X76212150Y100573352D01*
X76138037Y100647466D01*
X76099543Y100724453D01*
X76056160Y100897987D01*
X76056160Y101022376D01*
X76099543Y101195910D01*
X76138037Y101272897D01*
X76212150Y101347010D01*
X76326663Y101385181D01*
X76439645Y101385181D01*
X76519047Y101345480D01*
X76570013Y101339615D01*
X76612826Y101367881D01*
X76627453Y101417056D01*
X76607050Y101464127D01*
X76586129Y101479644D01*
X76490891Y101527263D01*
X76486437Y101527776D01*
X76483002Y101530658D01*
X76457350Y101535181D01*
X76314493Y101535181D01*
X76312955Y101534622D01*
X76290775Y101531332D01*
X76147919Y101483713D01*
X76144408Y101480927D01*
X76139940Y101480536D01*
X76118603Y101465595D01*
X76023365Y101370357D01*
X76022674Y101368876D01*
X76009316Y101350865D01*
X75961697Y101255627D01*
X75961290Y101252099D01*
X75956018Y101240276D01*
X75908399Y101049800D01*
X75908759Y101046352D01*
X75906160Y101031610D01*
X75906160Y100888753D01*
X75763303Y100888753D01*
X75763303Y101678038D01*
X76818064Y101678038D01*
X76818064Y100242324D01*
G37*
G36*
X58373601Y93940820D02*
G01*
X58222676Y93940820D01*
X58108163Y93978991D01*
X58034050Y94053104D01*
X57995556Y94130091D01*
X57952173Y94303625D01*
X57952173Y94428014D01*
X57995556Y94601548D01*
X58034050Y94678535D01*
X58108162Y94752648D01*
X58222677Y94790820D01*
X58373601Y94790820D01*
X58373601Y93940820D01*
G37*
G36*
X60761696Y93647963D02*
G01*
X57659316Y93647963D01*
X57659316Y94294391D01*
X57802173Y94294391D01*
X57803358Y94291134D01*
X57804412Y94276201D01*
X57852031Y94085725D01*
X57854019Y94082781D01*
X57857710Y94070374D01*
X57905329Y93975136D01*
X57906518Y93974011D01*
X57919378Y93955644D01*
X58014616Y93860406D01*
X58018680Y93858511D01*
X58021027Y93854691D01*
X58043932Y93842288D01*
X58186788Y93794669D01*
X58188423Y93794714D01*
X58210506Y93790820D01*
X58448601Y93790820D01*
X58466909Y93797484D01*
X58486101Y93800868D01*
X58490451Y93806053D01*
X58496810Y93808367D01*
X58506552Y93825241D01*
X58519078Y93840168D01*
X58520795Y93849911D01*
X58522462Y93852796D01*
X58521883Y93856079D01*
X58523601Y93865820D01*
X58849792Y93865820D01*
X58867339Y93817611D01*
X58911768Y93791959D01*
X58962292Y93800868D01*
X58995269Y93840168D01*
X58999792Y93865820D01*
X58999792Y94583404D01*
X59431102Y93828609D01*
X59436395Y93824128D01*
X59438767Y93817611D01*
X59455504Y93807948D01*
X59470255Y93795458D01*
X59477189Y93795428D01*
X59483196Y93791959D01*
X59502229Y93795316D01*
X59521557Y93795229D01*
X59526890Y93799664D01*
X59533720Y93800868D01*
X59546144Y93815675D01*
X59561004Y93828031D01*
X59562238Y93834855D01*
X59566697Y93840168D01*
X59571220Y93865820D01*
X59571220Y94437248D01*
X59849792Y94437248D01*
X59856455Y94418940D01*
X59859840Y94399748D01*
X59865024Y94395398D01*
X59867339Y94389039D01*
X59884212Y94379297D01*
X59899140Y94366771D01*
X59908882Y94365054D01*
X59911768Y94363387D01*
X59915050Y94363966D01*
X59924792Y94362248D01*
X60115268Y94362248D01*
X60163477Y94379795D01*
X60189129Y94424224D01*
X60180220Y94474748D01*
X60140920Y94507725D01*
X60115268Y94512248D01*
X59999792Y94512248D01*
X59999792Y94739515D01*
X60012924Y94752648D01*
X60127439Y94790820D01*
X60198335Y94790820D01*
X60312848Y94752649D01*
X60386962Y94678535D01*
X60425455Y94601548D01*
X60468839Y94428014D01*
X60468839Y94303625D01*
X60425455Y94130091D01*
X60386962Y94053104D01*
X60312849Y93978992D01*
X60198336Y93940820D01*
X60085354Y93940820D01*
X60005952Y93980521D01*
X59954985Y93986386D01*
X59912172Y93958120D01*
X59897546Y93908945D01*
X59917949Y93861874D01*
X59938870Y93846357D01*
X60034108Y93798738D01*
X60038561Y93798226D01*
X60041997Y93795343D01*
X60067649Y93790820D01*
X60210506Y93790820D01*
X60212044Y93791381D01*
X60234223Y93794669D01*
X60377080Y93842288D01*
X60380592Y93845076D01*
X60385059Y93845466D01*
X60406396Y93860406D01*
X60501634Y93955644D01*
X60502324Y93957126D01*
X60515683Y93975136D01*
X60563302Y94070374D01*
X60563708Y94073903D01*
X60568981Y94085725D01*
X60616600Y94276201D01*
X60616239Y94279650D01*
X60618839Y94294391D01*
X60618839Y94437248D01*
X60617653Y94440506D01*
X60616600Y94455438D01*
X60568981Y94645914D01*
X60566992Y94648859D01*
X60563302Y94661265D01*
X60515683Y94756503D01*
X60514496Y94757627D01*
X60501634Y94775995D01*
X60406396Y94871233D01*
X60402333Y94873128D01*
X60399986Y94876948D01*
X60377081Y94889351D01*
X60234224Y94936971D01*
X60232588Y94936927D01*
X60210506Y94940820D01*
X60115268Y94940820D01*
X60113729Y94940260D01*
X60091551Y94936971D01*
X59948693Y94889351D01*
X59945180Y94886564D01*
X59940715Y94886173D01*
X59919378Y94871233D01*
X59871759Y94823614D01*
X59864840Y94808777D01*
X59854315Y94796233D01*
X59851471Y94780106D01*
X59850078Y94777117D01*
X59850600Y94775167D01*
X59849792Y94770581D01*
X59849792Y94437248D01*
X59571220Y94437248D01*
X59571220Y94865820D01*
X59553673Y94914029D01*
X59509244Y94939681D01*
X59458720Y94930772D01*
X59425743Y94891472D01*
X59421220Y94865820D01*
X59421220Y94148237D01*
X58989910Y94903030D01*
X58984617Y94907512D01*
X58982245Y94914029D01*
X58965505Y94923694D01*
X58950757Y94936182D01*
X58943822Y94936213D01*
X58937816Y94939681D01*
X58918782Y94936325D01*
X58899455Y94936411D01*
X58894121Y94931977D01*
X58887292Y94930772D01*
X58874867Y94915966D01*
X58860008Y94903609D01*
X58858773Y94896786D01*
X58854315Y94891472D01*
X58849792Y94865820D01*
X58849792Y93865820D01*
X58523601Y93865820D01*
X58523601Y94865820D01*
X58516937Y94884129D01*
X58513553Y94903320D01*
X58508368Y94907671D01*
X58506054Y94914029D01*
X58489180Y94923772D01*
X58474253Y94936297D01*
X58464510Y94938015D01*
X58461625Y94939681D01*
X58458342Y94939103D01*
X58448601Y94940820D01*
X58210506Y94940820D01*
X58208967Y94940260D01*
X58186789Y94936971D01*
X58043931Y94889351D01*
X58040420Y94886565D01*
X58035953Y94886174D01*
X58014616Y94871233D01*
X57919378Y94775995D01*
X57918687Y94774514D01*
X57905329Y94756503D01*
X57857710Y94661265D01*
X57857303Y94657737D01*
X57852031Y94645914D01*
X57804412Y94455438D01*
X57804772Y94451990D01*
X57802173Y94437248D01*
X57802173Y94294391D01*
X57659316Y94294391D01*
X57659316Y95083677D01*
X60761696Y95083677D01*
X60761696Y93647963D01*
G37*
X8264760Y20354896D02*
X8740950Y20354896D01*
X8169522Y20069181D02*
X8502855Y21069181D01*
X8502855Y21069181D02*
X8836188Y20069181D01*
G36*
X57715836Y9907010D02*
G01*
X57789949Y9832897D01*
X57828442Y9755910D01*
X57871826Y9582376D01*
X57871826Y9457987D01*
X57828442Y9284453D01*
X57789948Y9207466D01*
X57715836Y9133353D01*
X57601323Y9095181D01*
X57450398Y9095181D01*
X57450398Y9945181D01*
X57601323Y9945181D01*
X57715836Y9907010D01*
G37*
G36*
X58164683Y8802324D02*
G01*
X55062303Y8802324D01*
X55062303Y9448753D01*
X55205160Y9448753D01*
X55206345Y9445496D01*
X55207399Y9430563D01*
X55255018Y9240087D01*
X55257006Y9237143D01*
X55260697Y9224736D01*
X55308316Y9129498D01*
X55309502Y9128375D01*
X55322365Y9110006D01*
X55417603Y9014767D01*
X55421667Y9012872D01*
X55424014Y9009052D01*
X55446919Y8996649D01*
X55589775Y8949030D01*
X55591410Y8949075D01*
X55613493Y8945181D01*
X55708731Y8945181D01*
X55710269Y8945742D01*
X55732448Y8949030D01*
X55875305Y8996649D01*
X55878816Y8999437D01*
X55883285Y8999827D01*
X55904622Y9014768D01*
X55910035Y9020181D01*
X56252779Y9020181D01*
X56270326Y8971972D01*
X56314755Y8946320D01*
X56365279Y8955229D01*
X56398256Y8994529D01*
X56402779Y9020181D01*
X56402779Y9737765D01*
X56834089Y8982970D01*
X56839382Y8978489D01*
X56841754Y8971972D01*
X56858491Y8962309D01*
X56873242Y8949819D01*
X56880176Y8949789D01*
X56886183Y8946320D01*
X56905216Y8949677D01*
X56924544Y8949590D01*
X56929877Y8954025D01*
X56936707Y8955229D01*
X56949131Y8970036D01*
X56963991Y8982392D01*
X56965225Y8989216D01*
X56969684Y8994529D01*
X56974207Y9020181D01*
X57300398Y9020181D01*
X57307061Y9001873D01*
X57310446Y8982681D01*
X57315630Y8978331D01*
X57317945Y8971972D01*
X57334818Y8962230D01*
X57349746Y8949704D01*
X57359488Y8947987D01*
X57362374Y8946320D01*
X57365656Y8946899D01*
X57375398Y8945181D01*
X57613493Y8945181D01*
X57615031Y8945742D01*
X57637210Y8949030D01*
X57780067Y8996649D01*
X57783579Y8999437D01*
X57788046Y8999827D01*
X57809383Y9014767D01*
X57904622Y9110007D01*
X57905313Y9111490D01*
X57918670Y9129498D01*
X57966289Y9224736D01*
X57966695Y9228265D01*
X57971968Y9240087D01*
X58019587Y9430563D01*
X58019226Y9434012D01*
X58021826Y9448753D01*
X58021826Y9591610D01*
X58020640Y9594868D01*
X58019587Y9609800D01*
X57971968Y9800276D01*
X57969979Y9803221D01*
X57966289Y9815627D01*
X57918670Y9910865D01*
X57917483Y9911989D01*
X57904621Y9930357D01*
X57809383Y10025595D01*
X57805319Y10027490D01*
X57802972Y10031311D01*
X57780067Y10043713D01*
X57637210Y10091332D01*
X57635575Y10091288D01*
X57613493Y10095181D01*
X57375398Y10095181D01*
X57357089Y10088518D01*
X57337898Y10085133D01*
X57333547Y10079949D01*
X57327189Y10077634D01*
X57317446Y10060761D01*
X57304921Y10045833D01*
X57303203Y10036091D01*
X57301537Y10033205D01*
X57302115Y10029923D01*
X57300398Y10020181D01*
X57300398Y9020181D01*
X56974207Y9020181D01*
X56974207Y10020181D01*
X56956660Y10068390D01*
X56912231Y10094042D01*
X56861707Y10085133D01*
X56828730Y10045833D01*
X56824207Y10020181D01*
X56824207Y9302598D01*
X56392897Y10057391D01*
X56387604Y10061873D01*
X56385232Y10068390D01*
X56368492Y10078055D01*
X56353744Y10090543D01*
X56346809Y10090574D01*
X56340803Y10094042D01*
X56321769Y10090686D01*
X56302442Y10090772D01*
X56297108Y10086338D01*
X56290279Y10085133D01*
X56277854Y10070327D01*
X56262995Y10057970D01*
X56261760Y10051147D01*
X56257302Y10045833D01*
X56252779Y10020181D01*
X56252779Y9020181D01*
X55910035Y9020181D01*
X55952240Y9062387D01*
X55959158Y9077225D01*
X55969684Y9089768D01*
X55972527Y9105896D01*
X55973921Y9108884D01*
X55973398Y9110835D01*
X55974207Y9115420D01*
X55974207Y9448753D01*
X55967543Y9467062D01*
X55964159Y9486253D01*
X55958974Y9490604D01*
X55956660Y9496962D01*
X55939786Y9506705D01*
X55924859Y9519230D01*
X55915116Y9520948D01*
X55912231Y9522614D01*
X55908948Y9522036D01*
X55899207Y9523753D01*
X55708731Y9523753D01*
X55660522Y9506206D01*
X55634870Y9461777D01*
X55643779Y9411253D01*
X55683079Y9378276D01*
X55708731Y9373753D01*
X55824207Y9373753D01*
X55824207Y9146486D01*
X55811074Y9133353D01*
X55696561Y9095181D01*
X55625663Y9095181D01*
X55511150Y9133352D01*
X55437037Y9207466D01*
X55398543Y9284453D01*
X55355160Y9457987D01*
X55355160Y9582376D01*
X55398543Y9755910D01*
X55437037Y9832897D01*
X55511150Y9907010D01*
X55625663Y9945181D01*
X55738645Y9945181D01*
X55818047Y9905480D01*
X55869013Y9899615D01*
X55911826Y9927881D01*
X55926453Y9977056D01*
X55906050Y10024127D01*
X55885129Y10039644D01*
X55789891Y10087263D01*
X55785437Y10087776D01*
X55782002Y10090658D01*
X55756350Y10095181D01*
X55613493Y10095181D01*
X55611955Y10094622D01*
X55589775Y10091332D01*
X55446919Y10043713D01*
X55443408Y10040927D01*
X55438940Y10040536D01*
X55417603Y10025595D01*
X55322365Y9930357D01*
X55321674Y9928876D01*
X55308316Y9910865D01*
X55260697Y9815627D01*
X55260290Y9812099D01*
X55255018Y9800276D01*
X55207399Y9609800D01*
X55207759Y9606352D01*
X55205160Y9591610D01*
X55205160Y9448753D01*
X55062303Y9448753D01*
X55062303Y10238038D01*
X58164683Y10238038D01*
X58164683Y8802324D01*
G37*
G36*
X50275064Y60237324D02*
G01*
X49220303Y60237324D01*
X49220303Y60883753D01*
X49363160Y60883753D01*
X49364345Y60880496D01*
X49365399Y60865563D01*
X49413018Y60675087D01*
X49415006Y60672143D01*
X49418697Y60659736D01*
X49466316Y60564498D01*
X49467502Y60563375D01*
X49480365Y60545006D01*
X49575603Y60449767D01*
X49579667Y60447872D01*
X49582014Y60444052D01*
X49604919Y60431649D01*
X49747775Y60384030D01*
X49749410Y60384075D01*
X49771493Y60380181D01*
X49866731Y60380181D01*
X49868269Y60380742D01*
X49890448Y60384030D01*
X50033305Y60431649D01*
X50036816Y60434437D01*
X50041285Y60434827D01*
X50062622Y60449768D01*
X50110240Y60497387D01*
X50117158Y60512225D01*
X50127684Y60524768D01*
X50130527Y60540896D01*
X50131921Y60543884D01*
X50131398Y60545835D01*
X50132207Y60550420D01*
X50132207Y60883753D01*
X50125543Y60902062D01*
X50122159Y60921253D01*
X50116974Y60925604D01*
X50114660Y60931962D01*
X50097786Y60941705D01*
X50082859Y60954230D01*
X50073116Y60955948D01*
X50070231Y60957614D01*
X50066948Y60957036D01*
X50057207Y60958753D01*
X49866731Y60958753D01*
X49818522Y60941206D01*
X49792870Y60896777D01*
X49801779Y60846253D01*
X49841079Y60813276D01*
X49866731Y60808753D01*
X49982207Y60808753D01*
X49982207Y60581486D01*
X49969074Y60568353D01*
X49854561Y60530181D01*
X49783663Y60530181D01*
X49669150Y60568352D01*
X49595037Y60642466D01*
X49556543Y60719453D01*
X49513160Y60892987D01*
X49513160Y61017376D01*
X49556543Y61190910D01*
X49595037Y61267897D01*
X49669150Y61342010D01*
X49783663Y61380181D01*
X49896645Y61380181D01*
X49976047Y61340480D01*
X50027013Y61334615D01*
X50069826Y61362881D01*
X50084453Y61412056D01*
X50064050Y61459127D01*
X50043129Y61474644D01*
X49947891Y61522263D01*
X49943437Y61522776D01*
X49940002Y61525658D01*
X49914350Y61530181D01*
X49771493Y61530181D01*
X49769955Y61529622D01*
X49747775Y61526332D01*
X49604919Y61478713D01*
X49601408Y61475927D01*
X49596940Y61475536D01*
X49575603Y61460595D01*
X49480365Y61365357D01*
X49479674Y61363876D01*
X49466316Y61345865D01*
X49418697Y61250627D01*
X49418290Y61247099D01*
X49413018Y61235276D01*
X49365399Y61044800D01*
X49365759Y61041352D01*
X49363160Y61026610D01*
X49363160Y60883753D01*
X49220303Y60883753D01*
X49220303Y61673038D01*
X50275064Y61673038D01*
X50275064Y60237324D01*
G37*
X8115541Y59296181D02*
X8782207Y58296181D01*
X8782207Y59296181D02*
X8115541Y58296181D01*
G36*
X50275064Y22264324D02*
G01*
X49220303Y22264324D01*
X49220303Y22910753D01*
X49363160Y22910753D01*
X49364345Y22907496D01*
X49365399Y22892563D01*
X49413018Y22702087D01*
X49415006Y22699143D01*
X49418697Y22686736D01*
X49466316Y22591498D01*
X49467502Y22590375D01*
X49480365Y22572006D01*
X49575603Y22476767D01*
X49579667Y22474872D01*
X49582014Y22471052D01*
X49604919Y22458649D01*
X49747775Y22411030D01*
X49749410Y22411075D01*
X49771493Y22407181D01*
X49866731Y22407181D01*
X49868269Y22407742D01*
X49890448Y22411030D01*
X50033305Y22458649D01*
X50036816Y22461437D01*
X50041285Y22461827D01*
X50062622Y22476768D01*
X50110240Y22524387D01*
X50117158Y22539225D01*
X50127684Y22551768D01*
X50130527Y22567896D01*
X50131921Y22570884D01*
X50131398Y22572835D01*
X50132207Y22577420D01*
X50132207Y22910753D01*
X50125543Y22929062D01*
X50122159Y22948253D01*
X50116974Y22952604D01*
X50114660Y22958962D01*
X50097786Y22968705D01*
X50082859Y22981230D01*
X50073116Y22982948D01*
X50070231Y22984614D01*
X50066948Y22984036D01*
X50057207Y22985753D01*
X49866731Y22985753D01*
X49818522Y22968206D01*
X49792870Y22923777D01*
X49801779Y22873253D01*
X49841079Y22840276D01*
X49866731Y22835753D01*
X49982207Y22835753D01*
X49982207Y22608486D01*
X49969074Y22595353D01*
X49854561Y22557181D01*
X49783663Y22557181D01*
X49669150Y22595352D01*
X49595037Y22669466D01*
X49556543Y22746453D01*
X49513160Y22919987D01*
X49513160Y23044376D01*
X49556543Y23217910D01*
X49595037Y23294897D01*
X49669150Y23369010D01*
X49783663Y23407181D01*
X49896645Y23407181D01*
X49976047Y23367480D01*
X50027013Y23361615D01*
X50069826Y23389881D01*
X50084453Y23439056D01*
X50064050Y23486127D01*
X50043129Y23501644D01*
X49947891Y23549263D01*
X49943437Y23549776D01*
X49940002Y23552658D01*
X49914350Y23557181D01*
X49771493Y23557181D01*
X49769955Y23556622D01*
X49747775Y23553332D01*
X49604919Y23505713D01*
X49601408Y23502927D01*
X49596940Y23502536D01*
X49575603Y23487595D01*
X49480365Y23392357D01*
X49479674Y23390876D01*
X49466316Y23372865D01*
X49418697Y23277627D01*
X49418290Y23274099D01*
X49413018Y23262276D01*
X49365399Y23071800D01*
X49365759Y23068352D01*
X49363160Y23053610D01*
X49363160Y22910753D01*
X49220303Y22910753D01*
X49220303Y23700038D01*
X50275064Y23700038D01*
X50275064Y22264324D01*
G37*
G36*
X115101180Y31044677D02*
G01*
X115063009Y30930164D01*
X114988896Y30856051D01*
X114911909Y30817558D01*
X114738375Y30774174D01*
X114613986Y30774174D01*
X114440452Y30817558D01*
X114363465Y30856051D01*
X114289351Y30930165D01*
X114251180Y31044679D01*
X114251180Y31195602D01*
X115101180Y31195602D01*
X115101180Y31044677D01*
G37*
G36*
X115394037Y30481317D02*
G01*
X113958323Y30481317D01*
X113958323Y31032507D01*
X114101180Y31032507D01*
X114101739Y31030970D01*
X114105029Y31008789D01*
X114152649Y30865932D01*
X114155436Y30862420D01*
X114155827Y30857954D01*
X114170767Y30836617D01*
X114266005Y30741379D01*
X114267486Y30740689D01*
X114285497Y30727330D01*
X114380735Y30679711D01*
X114384263Y30679305D01*
X114396086Y30674032D01*
X114586562Y30626413D01*
X114590010Y30626774D01*
X114604752Y30624174D01*
X114747609Y30624174D01*
X114750866Y30625360D01*
X114765799Y30626413D01*
X114956275Y30674032D01*
X114959219Y30676021D01*
X114971626Y30679711D01*
X115066864Y30727330D01*
X115067989Y30728520D01*
X115086356Y30741379D01*
X115181594Y30836617D01*
X115183489Y30840682D01*
X115187309Y30843028D01*
X115199712Y30865933D01*
X115247331Y31008789D01*
X115247286Y31010425D01*
X115251180Y31032507D01*
X115251180Y31270602D01*
X115244516Y31288911D01*
X115241132Y31308102D01*
X115235947Y31312453D01*
X115233633Y31318811D01*
X115216759Y31328554D01*
X115201832Y31341079D01*
X115192089Y31342797D01*
X115189204Y31344463D01*
X115185921Y31343885D01*
X115176180Y31345602D01*
X114176180Y31345602D01*
X114157871Y31338939D01*
X114138680Y31335554D01*
X114134329Y31330370D01*
X114127971Y31328055D01*
X114118228Y31311182D01*
X114105703Y31296254D01*
X114103985Y31286512D01*
X114102319Y31283626D01*
X114102897Y31280344D01*
X114101180Y31270602D01*
X114101180Y31032507D01*
X113958323Y31032507D01*
X113958323Y31759817D01*
X114102319Y31759817D01*
X114105675Y31740784D01*
X114105589Y31721456D01*
X114110023Y31716123D01*
X114111228Y31709293D01*
X114126034Y31696869D01*
X114138391Y31682009D01*
X114145214Y31680775D01*
X114150528Y31676316D01*
X114176180Y31671793D01*
X115176180Y31671793D01*
X115224389Y31689340D01*
X115250041Y31733769D01*
X115241132Y31784293D01*
X115201832Y31817270D01*
X115176180Y31821793D01*
X114458597Y31821793D01*
X115213391Y32253103D01*
X115217872Y32258397D01*
X115224389Y32260768D01*
X115234052Y32277506D01*
X115246542Y32292256D01*
X115246572Y32299191D01*
X115250041Y32305197D01*
X115246684Y32324231D01*
X115246771Y32343558D01*
X115242336Y32348892D01*
X115241132Y32355721D01*
X115226325Y32368146D01*
X115213969Y32383005D01*
X115207145Y32384240D01*
X115201832Y32388698D01*
X115176180Y32393221D01*
X114176180Y32393221D01*
X114127971Y32375674D01*
X114102319Y32331245D01*
X114111228Y32280721D01*
X114150528Y32247744D01*
X114176180Y32243221D01*
X114893763Y32243221D01*
X114138970Y31811911D01*
X114134488Y31806619D01*
X114127971Y31804246D01*
X114118306Y31787507D01*
X114105818Y31772758D01*
X114105787Y31765824D01*
X114102319Y31759817D01*
X113958323Y31759817D01*
X113958323Y32937269D01*
X114101180Y32937269D01*
X114101739Y32935732D01*
X114105029Y32913551D01*
X114152649Y32770694D01*
X114155436Y32767182D01*
X114155827Y32762716D01*
X114170767Y32741379D01*
X114218386Y32693760D01*
X114233223Y32686842D01*
X114245767Y32676316D01*
X114261893Y32673473D01*
X114264882Y32672079D01*
X114266832Y32672602D01*
X114271419Y32671793D01*
X114604752Y32671793D01*
X114623060Y32678457D01*
X114642252Y32681841D01*
X114646602Y32687026D01*
X114652961Y32689340D01*
X114662703Y32706214D01*
X114675229Y32721141D01*
X114676946Y32730884D01*
X114678613Y32733769D01*
X114678034Y32737052D01*
X114679752Y32746793D01*
X114679752Y32937269D01*
X114662205Y32985478D01*
X114617776Y33011130D01*
X114567252Y33002221D01*
X114534275Y32962921D01*
X114529752Y32937269D01*
X114529752Y32821793D01*
X114302485Y32821793D01*
X114289351Y32834927D01*
X114251180Y32949441D01*
X114251180Y33020336D01*
X114289351Y33134850D01*
X114363465Y33208963D01*
X114440452Y33247457D01*
X114613986Y33290840D01*
X114738375Y33290840D01*
X114911909Y33247457D01*
X114988896Y33208963D01*
X115063009Y33134850D01*
X115101180Y33020337D01*
X115101180Y32907355D01*
X115061479Y32827953D01*
X115055614Y32776986D01*
X115083880Y32734173D01*
X115133055Y32719547D01*
X115180126Y32739950D01*
X115195643Y32760871D01*
X115243262Y32856109D01*
X115243774Y32860563D01*
X115246657Y32863998D01*
X115251180Y32889650D01*
X115251180Y33032507D01*
X115250620Y33034045D01*
X115247331Y33056225D01*
X115199712Y33199081D01*
X115196925Y33202592D01*
X115196535Y33207060D01*
X115181594Y33228397D01*
X115086356Y33323635D01*
X115084874Y33324326D01*
X115066864Y33337684D01*
X114971626Y33385303D01*
X114968097Y33385710D01*
X114956275Y33390982D01*
X114765799Y33438601D01*
X114762350Y33438241D01*
X114747609Y33440840D01*
X114604752Y33440840D01*
X114601494Y33439655D01*
X114586562Y33438601D01*
X114396086Y33390982D01*
X114393141Y33388994D01*
X114380735Y33385303D01*
X114285497Y33337684D01*
X114284373Y33336498D01*
X114266005Y33323635D01*
X114170767Y33228397D01*
X114168872Y33224335D01*
X114165052Y33221987D01*
X114152649Y33199082D01*
X114105029Y33056225D01*
X114105073Y33054590D01*
X114101180Y33032507D01*
X114101180Y32937269D01*
X113958323Y32937269D01*
X113958323Y33583697D01*
X115394037Y33583697D01*
X115394037Y30481317D01*
G37*
G36*
X84692064Y100242324D02*
G01*
X83637303Y100242324D01*
X83637303Y100888753D01*
X83780160Y100888753D01*
X83781345Y100885496D01*
X83782399Y100870563D01*
X83830018Y100680087D01*
X83832006Y100677143D01*
X83835697Y100664736D01*
X83883316Y100569498D01*
X83884502Y100568375D01*
X83897365Y100550006D01*
X83992603Y100454767D01*
X83996667Y100452872D01*
X83999014Y100449052D01*
X84021919Y100436649D01*
X84164775Y100389030D01*
X84166410Y100389075D01*
X84188493Y100385181D01*
X84283731Y100385181D01*
X84285269Y100385742D01*
X84307448Y100389030D01*
X84450305Y100436649D01*
X84453816Y100439437D01*
X84458285Y100439827D01*
X84479622Y100454768D01*
X84527240Y100502387D01*
X84534158Y100517225D01*
X84544684Y100529768D01*
X84547527Y100545896D01*
X84548921Y100548884D01*
X84548398Y100550835D01*
X84549207Y100555420D01*
X84549207Y100888753D01*
X84542543Y100907062D01*
X84539159Y100926253D01*
X84533974Y100930604D01*
X84531660Y100936962D01*
X84514786Y100946705D01*
X84499859Y100959230D01*
X84490116Y100960948D01*
X84487231Y100962614D01*
X84483948Y100962036D01*
X84474207Y100963753D01*
X84283731Y100963753D01*
X84235522Y100946206D01*
X84209870Y100901777D01*
X84218779Y100851253D01*
X84258079Y100818276D01*
X84283731Y100813753D01*
X84399207Y100813753D01*
X84399207Y100586486D01*
X84386074Y100573353D01*
X84271561Y100535181D01*
X84200663Y100535181D01*
X84086150Y100573352D01*
X84012037Y100647466D01*
X83973543Y100724453D01*
X83930160Y100897987D01*
X83930160Y101022376D01*
X83973543Y101195910D01*
X84012037Y101272897D01*
X84086150Y101347010D01*
X84200663Y101385181D01*
X84313645Y101385181D01*
X84393047Y101345480D01*
X84444013Y101339615D01*
X84486826Y101367881D01*
X84501453Y101417056D01*
X84481050Y101464127D01*
X84460129Y101479644D01*
X84364891Y101527263D01*
X84360437Y101527776D01*
X84357002Y101530658D01*
X84331350Y101535181D01*
X84188493Y101535181D01*
X84186955Y101534622D01*
X84164775Y101531332D01*
X84021919Y101483713D01*
X84018408Y101480927D01*
X84013940Y101480536D01*
X83992603Y101465595D01*
X83897365Y101370357D01*
X83896674Y101368876D01*
X83883316Y101350865D01*
X83835697Y101255627D01*
X83835290Y101252099D01*
X83830018Y101240276D01*
X83782399Y101049800D01*
X83782759Y101046352D01*
X83780160Y101031610D01*
X83780160Y100888753D01*
X83637303Y100888753D01*
X83637303Y101678038D01*
X84692064Y101678038D01*
X84692064Y100242324D01*
G37*
D12*
%TO.C,J15*%
X12446000Y99635000D02*
X20126000Y99635000D01*
X9846000Y99635000D02*
X9846000Y100965000D01*
X12446000Y99635000D02*
X12446000Y102295000D01*
X20126000Y99635000D02*
X20126000Y102295000D01*
X11176000Y99635000D02*
X9846000Y99635000D01*
X12446000Y102295000D02*
X20126000Y102295000D01*
%TO.C,J4*%
X19625000Y5782000D02*
X19625000Y7112000D01*
X20955000Y5782000D02*
X19625000Y5782000D01*
X22225000Y5782000D02*
X57845000Y5782000D01*
X22225000Y5782000D02*
X22225000Y8442000D01*
X57845000Y5782000D02*
X57845000Y8442000D01*
X22225000Y8442000D02*
X57845000Y8442000D01*
%TO.C,J12*%
X76775000Y40707000D02*
X76775000Y42037000D01*
X78105000Y40707000D02*
X76775000Y40707000D01*
X79375000Y40707000D02*
X81975000Y40707000D01*
X79375000Y40707000D02*
X79375000Y43367000D01*
X81975000Y40707000D02*
X81975000Y43367000D01*
X79375000Y43367000D02*
X81975000Y43367000D01*
%TO.C,J14*%
X74235000Y94555000D02*
X74235000Y95885000D01*
X75565000Y94555000D02*
X74235000Y94555000D01*
X76835000Y94555000D02*
X79435000Y94555000D01*
X76835000Y94555000D02*
X76835000Y97215000D01*
X79435000Y94555000D02*
X79435000Y97215000D01*
X76835000Y97215000D02*
X79435000Y97215000D01*
%TO.C,J3*%
X60131000Y97850000D02*
X60131000Y96520000D01*
X58801000Y97850000D02*
X60131000Y97850000D01*
X57531000Y97850000D02*
X21911000Y97850000D01*
X57531000Y97850000D02*
X57531000Y95190000D01*
X21911000Y97850000D02*
X21911000Y95190000D01*
X57531000Y95190000D02*
X21911000Y95190000D01*
%TO.C,J10*%
X5909000Y59630000D02*
X5909000Y60960000D01*
X7239000Y59630000D02*
X5909000Y59630000D01*
X8509000Y59630000D02*
X11109000Y59630000D01*
X8509000Y59630000D02*
X8509000Y62290000D01*
X11109000Y59630000D02*
X11109000Y62290000D01*
X8509000Y62290000D02*
X11109000Y62290000D01*
%TO.C,J8*%
X5909000Y21530000D02*
X5909000Y22860000D01*
X7239000Y21530000D02*
X5909000Y21530000D01*
X8509000Y21530000D02*
X11109000Y21530000D01*
X8509000Y21530000D02*
X8509000Y24190000D01*
X11109000Y21530000D02*
X11109000Y24190000D01*
X8509000Y24190000D02*
X11109000Y24190000D01*
%TO.C,J11*%
X43882000Y59630000D02*
X43882000Y60960000D01*
X45212000Y59630000D02*
X43882000Y59630000D01*
X46482000Y59630000D02*
X49082000Y59630000D01*
X46482000Y59630000D02*
X46482000Y62290000D01*
X49082000Y59630000D02*
X49082000Y62290000D01*
X46482000Y62290000D02*
X49082000Y62290000D01*
%TO.C,J2*%
X28125000Y1142400D02*
X28125000Y2142400D01*
X28125000Y1142400D02*
X29125000Y1142400D01*
X28415000Y4852400D02*
X28415000Y1432400D01*
X28415000Y1432400D02*
X49135000Y1432400D01*
X28725000Y3492400D02*
X28925000Y3492400D01*
X28725000Y2692400D02*
X28725000Y3492400D01*
X28925000Y4342400D02*
X38775000Y4342400D01*
X28925000Y3492400D02*
X28925000Y4342400D01*
X28925000Y2692400D02*
X28725000Y2692400D01*
X28925000Y1942400D02*
X28925000Y2692400D01*
X38775000Y1942400D02*
X28925000Y1942400D01*
X38775000Y1942400D02*
X48625000Y1942400D01*
X48625000Y4342400D02*
X38775000Y4342400D01*
X48625000Y3492400D02*
X48625000Y4342400D01*
X48625000Y2692400D02*
X48825000Y2692400D01*
X48625000Y1942400D02*
X48625000Y2692400D01*
X48825000Y3492400D02*
X48625000Y3492400D01*
X48825000Y2692400D02*
X48825000Y3492400D01*
X49135000Y4852400D02*
X28415000Y4852400D01*
X49135000Y1432400D02*
X49135000Y4852400D01*
%TO.C,J1*%
X51277000Y102515000D02*
X51277000Y101515000D01*
X51277000Y102515000D02*
X50277000Y102515000D01*
X50987000Y98805000D02*
X50987000Y102225000D01*
X50987000Y102225000D02*
X30267000Y102225000D01*
X50677000Y100165000D02*
X50477000Y100165000D01*
X50677000Y100965000D02*
X50677000Y100165000D01*
X50477000Y99315000D02*
X40627000Y99315000D01*
X50477000Y100165000D02*
X50477000Y99315000D01*
X50477000Y100965000D02*
X50677000Y100965000D01*
X50477000Y101715000D02*
X50477000Y100965000D01*
X40627000Y101715000D02*
X50477000Y101715000D01*
X40627000Y101715000D02*
X30777000Y101715000D01*
X30777000Y99315000D02*
X40627000Y99315000D01*
X30777000Y100165000D02*
X30777000Y99315000D01*
X30777000Y100965000D02*
X30577000Y100965000D01*
X30777000Y101715000D02*
X30777000Y100965000D01*
X30577000Y100165000D02*
X30777000Y100165000D01*
X30577000Y100965000D02*
X30577000Y100165000D01*
X30267000Y98805000D02*
X50987000Y98805000D01*
X30267000Y102225000D02*
X30267000Y98805000D01*
%TO.C,J13*%
X76775000Y2607000D02*
X76775000Y3937000D01*
X78105000Y2607000D02*
X76775000Y2607000D01*
X79375000Y2607000D02*
X81975000Y2607000D01*
X79375000Y2607000D02*
X79375000Y5267000D01*
X81975000Y2607000D02*
X81975000Y5267000D01*
X79375000Y5267000D02*
X81975000Y5267000D01*
%TO.C,J7*%
X78299000Y99635000D02*
X78299000Y100965000D01*
X79629000Y99635000D02*
X78299000Y99635000D01*
X80899000Y99635000D02*
X83499000Y99635000D01*
X80899000Y99635000D02*
X80899000Y102295000D01*
X83499000Y99635000D02*
X83499000Y102295000D01*
X80899000Y102295000D02*
X83499000Y102295000D01*
%TO.C,J6*%
X70425000Y99635000D02*
X70425000Y100965000D01*
X71755000Y99635000D02*
X70425000Y99635000D01*
X73025000Y99635000D02*
X75625000Y99635000D01*
X73025000Y99635000D02*
X73025000Y102295000D01*
X75625000Y99635000D02*
X75625000Y102295000D01*
X73025000Y102295000D02*
X75625000Y102295000D01*
%TO.C,J5*%
X111192000Y43875000D02*
X112522000Y43875000D01*
X111192000Y42545000D02*
X111192000Y43875000D01*
X111192000Y41275000D02*
X111192000Y31055000D01*
X111192000Y41275000D02*
X113852000Y41275000D01*
X111192000Y31055000D02*
X113852000Y31055000D01*
X113852000Y41275000D02*
X113852000Y31055000D01*
%TO.C,J9*%
X43882000Y21657000D02*
X43882000Y22987000D01*
X45212000Y21657000D02*
X43882000Y21657000D01*
X46482000Y21657000D02*
X49082000Y21657000D01*
X46482000Y21657000D02*
X46482000Y24317000D01*
X49082000Y21657000D02*
X49082000Y24317000D01*
X46482000Y24317000D02*
X49082000Y24317000D01*
%TD*%
%LPC*%
D13*
%TO.C,J15*%
X18796000Y100965000D03*
X16256000Y100965000D03*
X13716000Y100965000D03*
D14*
X11176000Y100965000D03*
%TD*%
%TO.C,J4*%
X20955000Y7112000D03*
D13*
X23495000Y7112000D03*
X26035000Y7112000D03*
X28575000Y7112000D03*
X31115000Y7112000D03*
X33655000Y7112000D03*
X36195000Y7112000D03*
X38735000Y7112000D03*
X41275000Y7112000D03*
X43815000Y7112000D03*
X46355000Y7112000D03*
X48895000Y7112000D03*
X51435000Y7112000D03*
X53975000Y7112000D03*
X56515000Y7112000D03*
%TD*%
D14*
%TO.C,J12*%
X78105000Y42037000D03*
D13*
X80645000Y42037000D03*
%TD*%
D14*
%TO.C,J14*%
X75565000Y95885000D03*
D13*
X78105000Y95885000D03*
%TD*%
D14*
%TO.C,J3*%
X58801000Y96520000D03*
D13*
X56261000Y96520000D03*
X53721000Y96520000D03*
X51181000Y96520000D03*
X48641000Y96520000D03*
X46101000Y96520000D03*
X43561000Y96520000D03*
X41021000Y96520000D03*
X38481000Y96520000D03*
X35941000Y96520000D03*
X33401000Y96520000D03*
X30861000Y96520000D03*
X28321000Y96520000D03*
X25781000Y96520000D03*
X23241000Y96520000D03*
%TD*%
D14*
%TO.C,J10*%
X7239000Y60960000D03*
D13*
X9779000Y60960000D03*
%TD*%
D14*
%TO.C,J8*%
X7239000Y22860000D03*
D13*
X9779000Y22860000D03*
%TD*%
D14*
%TO.C,J11*%
X45212000Y60960000D03*
D13*
X47752000Y60960000D03*
%TD*%
D15*
%TO.C,J2*%
X30025000Y2692400D03*
D16*
X31275000Y2692400D03*
X32525000Y2692400D03*
X33775000Y2692400D03*
X35025000Y2692400D03*
X36275000Y2692400D03*
X37525000Y2692400D03*
X38775000Y2692400D03*
X40025000Y2692400D03*
X41275000Y2692400D03*
X42525000Y2692400D03*
X43775000Y2692400D03*
X45025000Y2692400D03*
X46275000Y2692400D03*
X47525000Y2692400D03*
%TD*%
D17*
%TO.C,J1*%
X49377000Y100965000D03*
D16*
X48127000Y100965000D03*
X46877000Y100965000D03*
X45627000Y100965000D03*
X44377000Y100965000D03*
X43127000Y100965000D03*
X41877000Y100965000D03*
X40627000Y100965000D03*
X39377000Y100965000D03*
X38127000Y100965000D03*
X36877000Y100965000D03*
X35627000Y100965000D03*
X34377000Y100965000D03*
X33127000Y100965000D03*
X31877000Y100965000D03*
%TD*%
D14*
%TO.C,J13*%
X78105000Y3937000D03*
D13*
X80645000Y3937000D03*
%TD*%
D14*
%TO.C,J7*%
X79629000Y100965000D03*
D13*
X82169000Y100965000D03*
%TD*%
D14*
%TO.C,J6*%
X71755000Y100965000D03*
D13*
X74295000Y100965000D03*
%TD*%
D14*
%TO.C,J5*%
X112522000Y42545000D03*
D13*
X112522000Y40005000D03*
X112522000Y37465000D03*
X112522000Y34925000D03*
X112522000Y32385000D03*
%TD*%
D14*
%TO.C,J9*%
X45212000Y22987000D03*
D13*
X47752000Y22987000D03*
%TD*%
%LPD*%
M02*
