%TF.GenerationSoftware,KiCad,Pcbnew,7.0.9*%
%TF.CreationDate,2023-12-28T17:43:22+09:00*%
%TF.ProjectId,arcade_input_panel_support,61726361-6465-45f6-996e-7075745f7061,2*%
%TF.SameCoordinates,PX2246a88PY7fa82d0*%
%TF.FileFunction,Legend,Bot*%
%TF.FilePolarity,Positive*%
%FSLAX46Y46*%
G04 Gerber Fmt 4.6, Leading zero omitted, Abs format (unit mm)*
G04 Created by KiCad (PCBNEW 7.0.9) date 2023-12-28 17:43:22*
%MOMM*%
%LPD*%
G01*
G04 APERTURE LIST*
G04 Aperture macros list*
%AMRoundRect*
0 Rectangle with rounded corners*
0 $1 Rounding radius*
0 $2 $3 $4 $5 $6 $7 $8 $9 X,Y pos of 4 corners*
0 Add a 4 corners polygon primitive as box body*
4,1,4,$2,$3,$4,$5,$6,$7,$8,$9,$2,$3,0*
0 Add four circle primitives for the rounded corners*
1,1,$1+$1,$2,$3*
1,1,$1+$1,$4,$5*
1,1,$1+$1,$6,$7*
1,1,$1+$1,$8,$9*
0 Add four rect primitives between the rounded corners*
20,1,$1+$1,$2,$3,$4,$5,0*
20,1,$1+$1,$4,$5,$6,$7,0*
20,1,$1+$1,$6,$7,$8,$9,0*
20,1,$1+$1,$8,$9,$2,$3,0*%
G04 Aperture macros list end*
%ADD10R,1.700000X1.700000*%
%ADD11O,1.700000X1.700000*%
%ADD12RoundRect,0.200000X-0.200000X-0.450000X0.200000X-0.450000X0.200000X0.450000X-0.200000X0.450000X0*%
%ADD13O,0.800000X1.300000*%
%ADD14RoundRect,0.200000X0.200000X0.450000X-0.200000X0.450000X-0.200000X-0.450000X0.200000X-0.450000X0*%
G04 APERTURE END LIST*
%LPC*%
D10*
%TO.C,J4*%
X20955000Y7493000D03*
D11*
X23495000Y7493000D03*
X26035000Y7493000D03*
X28575000Y7493000D03*
X31115000Y7493000D03*
X33655000Y7493000D03*
X36195000Y7493000D03*
X38735000Y7493000D03*
X41275000Y7493000D03*
X43815000Y7493000D03*
X46355000Y7493000D03*
X48895000Y7493000D03*
X51435000Y7493000D03*
X53975000Y7493000D03*
X56515000Y7493000D03*
%TD*%
D10*
%TO.C,J12*%
X77978000Y41910000D03*
D11*
X80518000Y41910000D03*
%TD*%
D10*
%TO.C,J14*%
X11176000Y98425000D03*
D11*
X11176000Y100965000D03*
X13716000Y98425000D03*
X13716000Y100965000D03*
X16256000Y98425000D03*
X16256000Y100965000D03*
X18796000Y98425000D03*
X18796000Y100965000D03*
%TD*%
D10*
%TO.C,J15*%
X74549000Y98298000D03*
D11*
X74549000Y100838000D03*
X77089000Y98298000D03*
X77089000Y100838000D03*
X79629000Y98298000D03*
X79629000Y100838000D03*
X82169000Y98298000D03*
X82169000Y100838000D03*
%TD*%
D10*
%TO.C,J3*%
X58801000Y96266000D03*
D11*
X56261000Y96266000D03*
X53721000Y96266000D03*
X51181000Y96266000D03*
X48641000Y96266000D03*
X46101000Y96266000D03*
X43561000Y96266000D03*
X41021000Y96266000D03*
X38481000Y96266000D03*
X35941000Y96266000D03*
X33401000Y96266000D03*
X30861000Y96266000D03*
X28321000Y96266000D03*
X25781000Y96266000D03*
X23241000Y96266000D03*
%TD*%
D10*
%TO.C,J10*%
X7112000Y60833000D03*
D11*
X9652000Y60833000D03*
%TD*%
D10*
%TO.C,J8*%
X7112000Y22733000D03*
D11*
X9652000Y22733000D03*
%TD*%
D10*
%TO.C,J11*%
X45085000Y60833000D03*
D11*
X47625000Y60833000D03*
%TD*%
D12*
%TO.C,J2*%
X30025000Y2692400D03*
D13*
X31275000Y2692400D03*
X32525000Y2692400D03*
X33775000Y2692400D03*
X35025000Y2692400D03*
X36275000Y2692400D03*
X37525000Y2692400D03*
X38775000Y2692400D03*
X40025000Y2692400D03*
X41275000Y2692400D03*
X42525000Y2692400D03*
X43775000Y2692400D03*
X45025000Y2692400D03*
X46275000Y2692400D03*
X47525000Y2692400D03*
%TD*%
D14*
%TO.C,J1*%
X49784000Y101092000D03*
D13*
X48534000Y101092000D03*
X47284000Y101092000D03*
X46034000Y101092000D03*
X44784000Y101092000D03*
X43534000Y101092000D03*
X42284000Y101092000D03*
X41034000Y101092000D03*
X39784000Y101092000D03*
X38534000Y101092000D03*
X37284000Y101092000D03*
X36034000Y101092000D03*
X34784000Y101092000D03*
X33534000Y101092000D03*
X32284000Y101092000D03*
%TD*%
D10*
%TO.C,J13*%
X77978000Y3810000D03*
D11*
X80518000Y3810000D03*
%TD*%
D10*
%TO.C,J7*%
X112141000Y42545000D03*
D11*
X114681000Y42545000D03*
X112141000Y40005000D03*
X114681000Y40005000D03*
X112141000Y37465000D03*
X114681000Y37465000D03*
X112141000Y34925000D03*
X114681000Y34925000D03*
X112141000Y32385000D03*
X114681000Y32385000D03*
%TD*%
D10*
%TO.C,J9*%
X45085000Y22860000D03*
D11*
X47625000Y22860000D03*
%TD*%
%LPD*%
M02*
