%TF.GenerationSoftware,KiCad,Pcbnew,7.0.9*%
%TF.CreationDate,2023-12-22T18:19:35+09:00*%
%TF.ProjectId,arcade_input_panel_support,61726361-6465-45f6-996e-7075745f7061,2*%
%TF.SameCoordinates,PX2246a88PY7fa82d0*%
%TF.FileFunction,Copper,L2,Bot*%
%TF.FilePolarity,Positive*%
%FSLAX46Y46*%
G04 Gerber Fmt 4.6, Leading zero omitted, Abs format (unit mm)*
G04 Created by KiCad (PCBNEW 7.0.9) date 2023-12-22 18:19:35*
%MOMM*%
%LPD*%
G01*
G04 APERTURE LIST*
G04 Aperture macros list*
%AMRoundRect*
0 Rectangle with rounded corners*
0 $1 Rounding radius*
0 $2 $3 $4 $5 $6 $7 $8 $9 X,Y pos of 4 corners*
0 Add a 4 corners polygon primitive as box body*
4,1,4,$2,$3,$4,$5,$6,$7,$8,$9,$2,$3,0*
0 Add four circle primitives for the rounded corners*
1,1,$1+$1,$2,$3*
1,1,$1+$1,$4,$5*
1,1,$1+$1,$6,$7*
1,1,$1+$1,$8,$9*
0 Add four rect primitives between the rounded corners*
20,1,$1+$1,$2,$3,$4,$5,0*
20,1,$1+$1,$4,$5,$6,$7,0*
20,1,$1+$1,$6,$7,$8,$9,0*
20,1,$1+$1,$8,$9,$2,$3,0*%
G04 Aperture macros list end*
%TA.AperFunction,ComponentPad*%
%ADD10O,1.700000X1.700000*%
%TD*%
%TA.AperFunction,ComponentPad*%
%ADD11R,1.700000X1.700000*%
%TD*%
%TA.AperFunction,ComponentPad*%
%ADD12RoundRect,0.200000X-0.200000X-0.450000X0.200000X-0.450000X0.200000X0.450000X-0.200000X0.450000X0*%
%TD*%
%TA.AperFunction,ComponentPad*%
%ADD13O,0.800000X1.300000*%
%TD*%
%TA.AperFunction,ComponentPad*%
%ADD14RoundRect,0.200000X0.200000X0.450000X-0.200000X0.450000X-0.200000X-0.450000X0.200000X-0.450000X0*%
%TD*%
%TA.AperFunction,ViaPad*%
%ADD15C,0.800000*%
%TD*%
%TA.AperFunction,Conductor*%
%ADD16C,0.250000*%
%TD*%
G04 APERTURE END LIST*
D10*
%TO.P,J15,4,Pin_4*%
%TO.N,GND*%
X18796000Y100965000D03*
%TO.P,J15,3,Pin_3*%
%TO.N,/HOTKEY*%
X16256000Y100965000D03*
%TO.P,J15,2,Pin_2*%
%TO.N,/SELECT*%
X13716000Y100965000D03*
D11*
%TO.P,J15,1,Pin_1*%
%TO.N,/START*%
X11176000Y100965000D03*
%TD*%
%TO.P,J4,1,Pin_1*%
%TO.N,GND*%
X20955000Y7112000D03*
D10*
%TO.P,J4,2,Pin_2*%
%TO.N,/UP*%
X23495000Y7112000D03*
%TO.P,J4,3,Pin_3*%
%TO.N,/DOWN*%
X26035000Y7112000D03*
%TO.P,J4,4,Pin_4*%
%TO.N,/LEFT*%
X28575000Y7112000D03*
%TO.P,J4,5,Pin_5*%
%TO.N,/RIGHT*%
X31115000Y7112000D03*
%TO.P,J4,6,Pin_6*%
%TO.N,/START*%
X33655000Y7112000D03*
%TO.P,J4,7,Pin_7*%
%TO.N,/SELECT*%
X36195000Y7112000D03*
%TO.P,J4,8,Pin_8*%
%TO.N,/A*%
X38735000Y7112000D03*
%TO.P,J4,9,Pin_9*%
%TO.N,/B*%
X41275000Y7112000D03*
%TO.P,J4,10,Pin_10*%
%TO.N,/X*%
X43815000Y7112000D03*
%TO.P,J4,11,Pin_11*%
%TO.N,/Y*%
X46355000Y7112000D03*
%TO.P,J4,12,Pin_12*%
%TO.N,/TL*%
X48895000Y7112000D03*
%TO.P,J4,13,Pin_13*%
%TO.N,/TR*%
X51435000Y7112000D03*
%TO.P,J4,14,Pin_14*%
%TO.N,/HOTKEY*%
X53975000Y7112000D03*
%TO.P,J4,15,Pin_15*%
%TO.N,GND*%
X56515000Y7112000D03*
%TD*%
D11*
%TO.P,J12,1,Pin_1*%
%TO.N,/TL*%
X78105000Y42037000D03*
D10*
%TO.P,J12,2,Pin_2*%
%TO.N,GND*%
X80645000Y42037000D03*
%TD*%
D11*
%TO.P,J14,1,Pin_1*%
%TO.N,/HOTKEY*%
X75565000Y95885000D03*
D10*
%TO.P,J14,2,Pin_2*%
%TO.N,GND*%
X78105000Y95885000D03*
%TD*%
D11*
%TO.P,J3,1,Pin_1*%
%TO.N,GND*%
X58801000Y96520000D03*
D10*
%TO.P,J3,2,Pin_2*%
%TO.N,/UP*%
X56261000Y96520000D03*
%TO.P,J3,3,Pin_3*%
%TO.N,/DOWN*%
X53721000Y96520000D03*
%TO.P,J3,4,Pin_4*%
%TO.N,/LEFT*%
X51181000Y96520000D03*
%TO.P,J3,5,Pin_5*%
%TO.N,/RIGHT*%
X48641000Y96520000D03*
%TO.P,J3,6,Pin_6*%
%TO.N,/START*%
X46101000Y96520000D03*
%TO.P,J3,7,Pin_7*%
%TO.N,/SELECT*%
X43561000Y96520000D03*
%TO.P,J3,8,Pin_8*%
%TO.N,/A*%
X41021000Y96520000D03*
%TO.P,J3,9,Pin_9*%
%TO.N,/B*%
X38481000Y96520000D03*
%TO.P,J3,10,Pin_10*%
%TO.N,/X*%
X35941000Y96520000D03*
%TO.P,J3,11,Pin_11*%
%TO.N,/Y*%
X33401000Y96520000D03*
%TO.P,J3,12,Pin_12*%
%TO.N,/TL*%
X30861000Y96520000D03*
%TO.P,J3,13,Pin_13*%
%TO.N,/TR*%
X28321000Y96520000D03*
%TO.P,J3,14,Pin_14*%
%TO.N,/HOTKEY*%
X25781000Y96520000D03*
%TO.P,J3,15,Pin_15*%
%TO.N,GND*%
X23241000Y96520000D03*
%TD*%
D11*
%TO.P,J10,1,Pin_1*%
%TO.N,/X*%
X7239000Y60960000D03*
D10*
%TO.P,J10,2,Pin_2*%
%TO.N,GND*%
X9779000Y60960000D03*
%TD*%
D11*
%TO.P,J8,1,Pin_1*%
%TO.N,/A*%
X7239000Y22860000D03*
D10*
%TO.P,J8,2,Pin_2*%
%TO.N,GND*%
X9779000Y22860000D03*
%TD*%
D11*
%TO.P,J11,1,Pin_1*%
%TO.N,/Y*%
X45212000Y60960000D03*
D10*
%TO.P,J11,2,Pin_2*%
%TO.N,GND*%
X47752000Y60960000D03*
%TD*%
D12*
%TO.P,J2,1,Pin_1*%
%TO.N,GND*%
X30025000Y2692400D03*
D13*
%TO.P,J2,2,Pin_2*%
%TO.N,/UP*%
X31275000Y2692400D03*
%TO.P,J2,3,Pin_3*%
%TO.N,/DOWN*%
X32525000Y2692400D03*
%TO.P,J2,4,Pin_4*%
%TO.N,/LEFT*%
X33775000Y2692400D03*
%TO.P,J2,5,Pin_5*%
%TO.N,/RIGHT*%
X35025000Y2692400D03*
%TO.P,J2,6,Pin_6*%
%TO.N,/START*%
X36275000Y2692400D03*
%TO.P,J2,7,Pin_7*%
%TO.N,/SELECT*%
X37525000Y2692400D03*
%TO.P,J2,8,Pin_8*%
%TO.N,/A*%
X38775000Y2692400D03*
%TO.P,J2,9,Pin_9*%
%TO.N,/B*%
X40025000Y2692400D03*
%TO.P,J2,10,Pin_10*%
%TO.N,/X*%
X41275000Y2692400D03*
%TO.P,J2,11,Pin_11*%
%TO.N,/Y*%
X42525000Y2692400D03*
%TO.P,J2,12,Pin_12*%
%TO.N,/TL*%
X43775000Y2692400D03*
%TO.P,J2,13,Pin_13*%
%TO.N,/TR*%
X45025000Y2692400D03*
%TO.P,J2,14,Pin_14*%
%TO.N,/HOTKEY*%
X46275000Y2692400D03*
%TO.P,J2,15,Pin_15*%
%TO.N,GND*%
X47525000Y2692400D03*
%TD*%
D14*
%TO.P,J1,1,Pin_1*%
%TO.N,GND*%
X49377000Y100965000D03*
D13*
%TO.P,J1,2,Pin_2*%
%TO.N,/UP*%
X48127000Y100965000D03*
%TO.P,J1,3,Pin_3*%
%TO.N,/DOWN*%
X46877000Y100965000D03*
%TO.P,J1,4,Pin_4*%
%TO.N,/LEFT*%
X45627000Y100965000D03*
%TO.P,J1,5,Pin_5*%
%TO.N,/RIGHT*%
X44377000Y100965000D03*
%TO.P,J1,6,Pin_6*%
%TO.N,/START*%
X43127000Y100965000D03*
%TO.P,J1,7,Pin_7*%
%TO.N,/SELECT*%
X41877000Y100965000D03*
%TO.P,J1,8,Pin_8*%
%TO.N,/A*%
X40627000Y100965000D03*
%TO.P,J1,9,Pin_9*%
%TO.N,/B*%
X39377000Y100965000D03*
%TO.P,J1,10,Pin_10*%
%TO.N,/X*%
X38127000Y100965000D03*
%TO.P,J1,11,Pin_11*%
%TO.N,/Y*%
X36877000Y100965000D03*
%TO.P,J1,12,Pin_12*%
%TO.N,/TL*%
X35627000Y100965000D03*
%TO.P,J1,13,Pin_13*%
%TO.N,/TR*%
X34377000Y100965000D03*
%TO.P,J1,14,Pin_14*%
%TO.N,/HOTKEY*%
X33127000Y100965000D03*
%TO.P,J1,15,Pin_15*%
%TO.N,GND*%
X31877000Y100965000D03*
%TD*%
D11*
%TO.P,J13,1,Pin_1*%
%TO.N,/TR*%
X78105000Y3937000D03*
D10*
%TO.P,J13,2,Pin_2*%
%TO.N,GND*%
X80645000Y3937000D03*
%TD*%
D11*
%TO.P,J7,1,Pin_1*%
%TO.N,/SELECT*%
X79629000Y100965000D03*
D10*
%TO.P,J7,2,Pin_2*%
%TO.N,GND*%
X82169000Y100965000D03*
%TD*%
D11*
%TO.P,J6,1,Pin_1*%
%TO.N,/START*%
X71755000Y100965000D03*
D10*
%TO.P,J6,2,Pin_2*%
%TO.N,GND*%
X74295000Y100965000D03*
%TD*%
D11*
%TO.P,J5,1,Pin_1*%
%TO.N,/UP*%
X112522000Y42545000D03*
D10*
%TO.P,J5,2,Pin_2*%
%TO.N,/DOWN*%
X112522000Y40005000D03*
%TO.P,J5,3,Pin_3*%
%TO.N,/LEFT*%
X112522000Y37465000D03*
%TO.P,J5,4,Pin_4*%
%TO.N,/RIGHT*%
X112522000Y34925000D03*
%TO.P,J5,5,Pin_5*%
%TO.N,GND*%
X112522000Y32385000D03*
%TD*%
D11*
%TO.P,J9,1,Pin_1*%
%TO.N,/B*%
X45212000Y22987000D03*
D10*
%TO.P,J9,2,Pin_2*%
%TO.N,GND*%
X47752000Y22987000D03*
%TD*%
D15*
%TO.N,/UP*%
X107886500Y42481500D03*
%TO.N,/DOWN*%
X107823000Y40005000D03*
%TO.N,/LEFT*%
X107823000Y37592000D03*
%TO.N,/START*%
X33655000Y20955000D03*
%TO.N,/SELECT*%
X43624500Y89979500D03*
X36195000Y20955000D03*
%TO.N,/A*%
X38735000Y16383000D03*
%TO.N,/B*%
X45059600Y17881600D03*
%TO.N,/X*%
X38216000Y20966000D03*
X43815000Y15367000D03*
%TO.N,/Y*%
X46228000Y15367000D03*
X40894000Y56896000D03*
X40513000Y65151000D03*
%TO.N,/TL*%
X70485000Y13208000D03*
X40386000Y59944000D03*
%TO.N,/HOTKEY*%
X32512000Y93675200D03*
%TD*%
D16*
%TO.N,/TR*%
X51435000Y7112000D02*
X54737000Y3810000D01*
X54737000Y3810000D02*
X77978000Y3810000D01*
X77978000Y3810000D02*
X78105000Y3937000D01*
%TO.N,/B*%
X45135800Y22987000D02*
X45212000Y22987000D01*
X39624000Y57912000D02*
X39624000Y28498800D01*
X40328000Y68384000D02*
X41402000Y67310000D01*
X41402000Y59690000D02*
X39624000Y57912000D01*
X38481000Y96520000D02*
X40328000Y94673000D01*
X40328000Y94673000D02*
X40328000Y68384000D01*
X41402000Y67310000D02*
X41402000Y59690000D01*
X39624000Y28498800D02*
X45135800Y22987000D01*
%TO.N,/TL*%
X70485000Y24003000D02*
X78105000Y31623000D01*
X70485000Y13208000D02*
X70485000Y24003000D01*
X78105000Y31623000D02*
X78105000Y42037000D01*
%TO.N,/Y*%
X44958000Y60960000D02*
X45212000Y60960000D01*
X40894000Y56896000D02*
X44958000Y60960000D01*
%TO.N,/X*%
X38216000Y20966000D02*
X38216000Y53478000D01*
X38216000Y53478000D02*
X34544000Y57150000D01*
X34544000Y57150000D02*
X10414000Y57150000D01*
X10414000Y57150000D02*
X7239000Y60325000D01*
X7239000Y60325000D02*
X7239000Y60960000D01*
%TO.N,/START*%
X12573000Y102362000D02*
X11176000Y100965000D01*
X14478000Y102362000D02*
X12573000Y102362000D01*
X14986000Y101854000D02*
X14478000Y102362000D01*
X41599396Y99118000D02*
X15944000Y99118000D01*
X42557396Y98160000D02*
X41599396Y99118000D01*
X15944000Y99118000D02*
X14986000Y100076000D01*
X44461000Y98160000D02*
X42557396Y98160000D01*
X14986000Y100076000D02*
X14986000Y101854000D01*
X46101000Y96520000D02*
X44461000Y98160000D01*
%TO.N,/SELECT*%
X15748000Y98552000D02*
X41529000Y98552000D01*
X41529000Y98552000D02*
X43561000Y96520000D01*
X13716000Y100584000D02*
X15748000Y98552000D01*
%TO.N,/HOTKEY*%
X41910000Y99568000D02*
X34036000Y99568000D01*
X34036000Y99568000D02*
X33127000Y100477000D01*
X33127000Y100477000D02*
X33127000Y100965000D01*
X42868000Y98610000D02*
X41910000Y99568000D01*
X72840000Y98610000D02*
X42868000Y98610000D01*
X75565000Y95885000D02*
X72840000Y98610000D01*
%TO.N,/SELECT*%
X41877000Y100617000D02*
X41877000Y100965000D01*
X43434000Y99060000D02*
X41877000Y100617000D01*
X77724000Y99060000D02*
X43434000Y99060000D01*
X79629000Y100965000D02*
X77724000Y99060000D01*
%TO.N,/UP*%
X107950000Y42545000D02*
X112522000Y42545000D01*
X107886500Y42481500D02*
X107950000Y42545000D01*
%TO.N,/DOWN*%
X107823000Y40005000D02*
X112522000Y40005000D01*
%TO.N,/LEFT*%
X107823000Y37592000D02*
X112395000Y37592000D01*
X112395000Y37592000D02*
X112522000Y37465000D01*
%TO.N,/RIGHT*%
X48641000Y96520000D02*
X48260000Y96520000D01*
%TO.N,/START*%
X33655000Y20955000D02*
X33655000Y7112000D01*
X70358000Y99568000D02*
X43942000Y99568000D01*
X43942000Y99568000D02*
X43127000Y100383000D01*
X43127000Y100383000D02*
X43127000Y100965000D01*
X71755000Y100965000D02*
X70358000Y99568000D01*
%TO.N,/SELECT*%
X36195000Y20955000D02*
X36195000Y7112000D01*
X43561000Y90043000D02*
X43561000Y96520000D01*
X43624500Y89979500D02*
X43561000Y90043000D01*
X43180000Y96520000D02*
X43561000Y96520000D01*
%TO.N,/A*%
X38735000Y16383000D02*
X38735000Y7112000D01*
%TO.N,/B*%
X45059600Y17881600D02*
X41275000Y14097000D01*
X41275000Y14097000D02*
X41275000Y7112000D01*
%TO.N,/X*%
X43815000Y15367000D02*
X43815000Y7112000D01*
%TO.N,/Y*%
X46355000Y15113000D02*
X46355000Y7112000D01*
X40513000Y65151000D02*
X39878000Y65786000D01*
X39878000Y65786000D02*
X39878000Y90043000D01*
X39878000Y90043000D02*
X33401000Y96520000D01*
X46228000Y15240000D02*
X46355000Y15113000D01*
%TO.N,/TL*%
X30861000Y96520000D02*
X39254000Y88127000D01*
X30861000Y96520000D02*
X30480000Y96520000D01*
X39254000Y88127000D02*
X39254000Y61076000D01*
X39254000Y61076000D02*
X40386000Y59944000D01*
%TO.N,/TR*%
X38666000Y60137208D02*
X38666000Y25351305D01*
X51435000Y12582305D02*
X51435000Y7112000D01*
X28321000Y96520000D02*
X28321000Y95885000D01*
X38354000Y85852000D02*
X38354000Y60449208D01*
X28321000Y95885000D02*
X38354000Y85852000D01*
X38666000Y25351305D02*
X51435000Y12582305D01*
X38354000Y60449208D02*
X38666000Y60137208D01*
%TO.N,/HOTKEY*%
X53975000Y11303000D02*
X53975000Y7112000D01*
X53848000Y11430000D02*
X53975000Y11303000D01*
X53844700Y11430000D02*
X53848000Y11430000D01*
X38804000Y87383200D02*
X38804000Y60635604D01*
X32512000Y93675200D02*
X38804000Y87383200D01*
X39116000Y26158700D02*
X53844700Y11430000D01*
X38804000Y60635604D02*
X39116000Y60323604D01*
X39116000Y60323604D02*
X39116000Y26158700D01*
%TD*%
%TA.AperFunction,Conductor*%
%TO.N,GND*%
G36*
X11841272Y102738815D02*
G01*
X11887027Y102686011D01*
X11896971Y102616853D01*
X11867946Y102553297D01*
X11861914Y102546819D01*
X11674914Y102359819D01*
X11613591Y102326334D01*
X11587233Y102323500D01*
X10277345Y102323500D01*
X10216797Y102316989D01*
X10216795Y102316989D01*
X10079795Y102265889D01*
X9962739Y102178261D01*
X9875111Y102061205D01*
X9824011Y101924205D01*
X9824011Y101924203D01*
X9817500Y101863655D01*
X9817500Y100066346D01*
X9824011Y100005798D01*
X9824011Y100005796D01*
X9862779Y99901858D01*
X9875111Y99868796D01*
X9962739Y99751739D01*
X10079796Y99664111D01*
X10216799Y99613011D01*
X10244050Y99610082D01*
X10277345Y99606501D01*
X10277362Y99606500D01*
X12074638Y99606500D01*
X12074654Y99606501D01*
X12101692Y99609409D01*
X12135201Y99613011D01*
X12272204Y99664111D01*
X12389261Y99751739D01*
X12476889Y99868796D01*
X12522138Y99990113D01*
X12564009Y100046044D01*
X12629474Y100070461D01*
X12697746Y100055609D01*
X12729545Y100030764D01*
X12792760Y99962094D01*
X12970424Y99823811D01*
X12970425Y99823811D01*
X12970427Y99823809D01*
X13077270Y99765989D01*
X13168426Y99716658D01*
X13381365Y99643556D01*
X13603431Y99606500D01*
X13746234Y99606500D01*
X13813273Y99586815D01*
X13833915Y99570181D01*
X15240912Y98163183D01*
X15250819Y98150817D01*
X15251029Y98150990D01*
X15255996Y98144985D01*
X15307079Y98097016D01*
X15328224Y98075870D01*
X15333813Y98071534D01*
X15338245Y98067748D01*
X15370159Y98037780D01*
X15372680Y98035413D01*
X15390562Y98025583D01*
X15406829Y98014898D01*
X15422960Y98002385D01*
X15444838Y97992919D01*
X15466307Y97983629D01*
X15471533Y97981069D01*
X15512940Y97958305D01*
X15532716Y97953228D01*
X15551124Y97946925D01*
X15569850Y97938821D01*
X15569852Y97938820D01*
X15569853Y97938820D01*
X15569855Y97938819D01*
X15610784Y97932337D01*
X15616503Y97931431D01*
X15622212Y97930249D01*
X15667970Y97918500D01*
X15688384Y97918500D01*
X15707783Y97916973D01*
X15727943Y97913780D01*
X15774966Y97918225D01*
X15780804Y97918500D01*
X22491335Y97918500D01*
X22558374Y97898815D01*
X22604129Y97846011D01*
X22614073Y97776853D01*
X22585048Y97713297D01*
X22562458Y97692925D01*
X22369926Y97558114D01*
X22369920Y97558109D01*
X22202891Y97391080D01*
X22202886Y97391074D01*
X22067400Y97197580D01*
X22067399Y97197578D01*
X21967570Y96983493D01*
X21967567Y96983487D01*
X21910364Y96770001D01*
X21910364Y96770000D01*
X22807314Y96770000D01*
X22781507Y96729844D01*
X22741000Y96591889D01*
X22741000Y96448111D01*
X22781507Y96310156D01*
X22807314Y96270000D01*
X21910364Y96270000D01*
X21967567Y96056514D01*
X21967570Y96056508D01*
X22067399Y95842422D01*
X22202894Y95648918D01*
X22369917Y95481895D01*
X22563421Y95346400D01*
X22777507Y95246571D01*
X22777516Y95246567D01*
X22991000Y95189366D01*
X22991000Y96084499D01*
X23098685Y96035320D01*
X23205237Y96020000D01*
X23276763Y96020000D01*
X23383315Y96035320D01*
X23491000Y96084499D01*
X23491000Y95189367D01*
X23704483Y95246567D01*
X23704492Y95246571D01*
X23918578Y95346400D01*
X24112082Y95481895D01*
X24279105Y95648918D01*
X24405868Y95829952D01*
X24460445Y95873577D01*
X24529944Y95880769D01*
X24592298Y95849247D01*
X24611251Y95826650D01*
X24705276Y95682735D01*
X24705284Y95682724D01*
X24823599Y95554202D01*
X24857760Y95517094D01*
X25035424Y95378811D01*
X25035425Y95378811D01*
X25035427Y95378809D01*
X25082516Y95353326D01*
X25233426Y95271658D01*
X25446365Y95198556D01*
X25668431Y95161500D01*
X25893569Y95161500D01*
X26115635Y95198556D01*
X26328574Y95271658D01*
X26526576Y95378811D01*
X26704240Y95517094D01*
X26856722Y95682732D01*
X26947193Y95821210D01*
X27000338Y95866563D01*
X27069569Y95875987D01*
X27132905Y95846485D01*
X27154804Y95821213D01*
X27245278Y95682732D01*
X27245283Y95682727D01*
X27245284Y95682724D01*
X27363599Y95554202D01*
X27397760Y95517094D01*
X27575424Y95378811D01*
X27575425Y95378811D01*
X27575427Y95378809D01*
X27622516Y95353326D01*
X27773426Y95271658D01*
X27986365Y95198556D01*
X28097428Y95180024D01*
X28160313Y95149574D01*
X28164700Y95145396D01*
X37684181Y85625915D01*
X37717666Y85564592D01*
X37720500Y85538234D01*
X37720500Y60532842D01*
X37718761Y60517095D01*
X37719032Y60517069D01*
X37718298Y60509303D01*
X37720500Y60439251D01*
X37720500Y60409349D01*
X37721384Y60402352D01*
X37721842Y60396529D01*
X37723326Y60349319D01*
X37723327Y60349317D01*
X37729022Y60329713D01*
X37732967Y60310666D01*
X37735526Y60290411D01*
X37735527Y60290408D01*
X37735528Y60290405D01*
X37752914Y60246492D01*
X37754806Y60240964D01*
X37767981Y60195616D01*
X37778372Y60178046D01*
X37786932Y60160573D01*
X37794447Y60141591D01*
X37822209Y60103381D01*
X37825418Y60098496D01*
X37848846Y60058880D01*
X37849458Y60057846D01*
X37849462Y60057842D01*
X37863889Y60043415D01*
X37876526Y60028620D01*
X37888528Y60012101D01*
X37924931Y59981986D01*
X37929231Y59978073D01*
X37985409Y59921895D01*
X37996181Y59911123D01*
X38029666Y59849800D01*
X38032500Y59823442D01*
X38032500Y54856767D01*
X38012815Y54789728D01*
X37960011Y54743973D01*
X37890853Y54734029D01*
X37827297Y54763054D01*
X37820819Y54769086D01*
X35051088Y57538817D01*
X35041187Y57551177D01*
X35040977Y57551002D01*
X35036002Y57557014D01*
X35036000Y57557018D01*
X35009658Y57581755D01*
X34984922Y57604984D01*
X34963768Y57626137D01*
X34961792Y57627669D01*
X34958183Y57630469D01*
X34953750Y57634256D01*
X34919321Y57666586D01*
X34919319Y57666588D01*
X34901431Y57676422D01*
X34885170Y57687103D01*
X34869039Y57699616D01*
X34825693Y57718373D01*
X34820445Y57720944D01*
X34793251Y57735894D01*
X34779060Y57743695D01*
X34775660Y57744568D01*
X34759287Y57748772D01*
X34740881Y57755074D01*
X34722144Y57763182D01*
X34722146Y57763182D01*
X34675496Y57770570D01*
X34669781Y57771754D01*
X34649612Y57776932D01*
X34624032Y57783500D01*
X34624030Y57783500D01*
X34603616Y57783500D01*
X34584217Y57785027D01*
X34564058Y57788220D01*
X34564057Y57788220D01*
X34517034Y57783775D01*
X34511196Y57783500D01*
X10727766Y57783500D01*
X10660727Y57803185D01*
X10640085Y57819819D01*
X8611511Y59848394D01*
X8578026Y59909717D01*
X8583008Y59979405D01*
X8588222Y59993381D01*
X8630091Y60049313D01*
X8695555Y60073731D01*
X8763828Y60058880D01*
X8792084Y60037728D01*
X8907917Y59921895D01*
X9101421Y59786400D01*
X9315507Y59686571D01*
X9315516Y59686567D01*
X9529000Y59629366D01*
X9529000Y60524499D01*
X9636685Y60475320D01*
X9743237Y60460000D01*
X9814763Y60460000D01*
X9921315Y60475320D01*
X10029000Y60524499D01*
X10029000Y59629367D01*
X10242483Y59686567D01*
X10242492Y59686571D01*
X10456578Y59786400D01*
X10650082Y59921895D01*
X10817105Y60088918D01*
X10952600Y60282422D01*
X11052429Y60496508D01*
X11052432Y60496514D01*
X11109636Y60710000D01*
X10212686Y60710000D01*
X10238493Y60750156D01*
X10279000Y60888111D01*
X10279000Y61031889D01*
X10238493Y61169844D01*
X10212686Y61210000D01*
X11109636Y61210000D01*
X11109635Y61210001D01*
X11052432Y61423487D01*
X11052429Y61423493D01*
X10952601Y61637576D01*
X10836874Y61802851D01*
X10814547Y61869058D01*
X10831557Y61936825D01*
X10882505Y61984638D01*
X10951215Y61997316D01*
X11006402Y61977697D01*
X11084365Y61926620D01*
X11347232Y61754403D01*
X11347243Y61754397D01*
X11347250Y61754392D01*
X11847797Y61460000D01*
X12055626Y61337767D01*
X12375577Y61169844D01*
X12783323Y60955842D01*
X12783322Y60955843D01*
X13528626Y60609519D01*
X14020261Y60409349D01*
X14289779Y60299614D01*
X15065022Y60026842D01*
X15852539Y59791843D01*
X16650489Y59595165D01*
X17457010Y59437270D01*
X18270218Y59318524D01*
X18270224Y59318524D01*
X18270234Y59318522D01*
X19088213Y59239206D01*
X19088212Y59239206D01*
X19909076Y59199500D01*
X19909084Y59199500D01*
X20730924Y59199500D01*
X21551788Y59239206D01*
X21551787Y59239206D01*
X22369766Y59318522D01*
X22369775Y59318524D01*
X22369782Y59318524D01*
X23182990Y59437270D01*
X23989511Y59595165D01*
X24787461Y59791843D01*
X25574978Y60026842D01*
X26350221Y60299614D01*
X26619739Y60409349D01*
X27111374Y60609519D01*
X27856678Y60955843D01*
X27856677Y60955842D01*
X28264423Y61169844D01*
X28584374Y61337767D01*
X28792203Y61460000D01*
X29292750Y61754392D01*
X29292756Y61754397D01*
X29292768Y61754403D01*
X29980205Y62204777D01*
X29980207Y62204779D01*
X29980207Y62204778D01*
X30645087Y62687841D01*
X30645086Y62687841D01*
X31285853Y63202465D01*
X31900985Y63747425D01*
X32489085Y64321481D01*
X32489086Y64321484D01*
X32489093Y64321489D01*
X32796900Y64652462D01*
X33048772Y64923289D01*
X33578734Y65551441D01*
X34077711Y66204439D01*
X34077711Y66204440D01*
X34544559Y66880785D01*
X34544564Y66880792D01*
X34807806Y67304596D01*
X34978188Y67578900D01*
X34978189Y67578901D01*
X35088462Y67777210D01*
X35377591Y68297166D01*
X35741820Y69033878D01*
X36044000Y69727569D01*
X36070029Y69787322D01*
X36070030Y69787322D01*
X36361458Y70555759D01*
X36615416Y71337361D01*
X36697388Y71638430D01*
X36831317Y72130326D01*
X37008655Y72932796D01*
X37147016Y73742897D01*
X37211686Y74275500D01*
X37246077Y74558731D01*
X37305607Y75378414D01*
X37325465Y76200000D01*
X37305607Y77021586D01*
X37246077Y77841269D01*
X37147016Y78657102D01*
X37008656Y79467199D01*
X36831316Y80269679D01*
X36615416Y81062639D01*
X36361456Y81844247D01*
X36224031Y82206608D01*
X36070030Y82612678D01*
X36070029Y82612678D01*
X35741820Y83366122D01*
X35377596Y84102824D01*
X35377595Y84102825D01*
X35377591Y84102834D01*
X34978195Y84821088D01*
X34978189Y84821099D01*
X34978188Y84821100D01*
X34800261Y85107551D01*
X34544564Y85519208D01*
X34077710Y86195562D01*
X33578734Y86848559D01*
X33048772Y87476711D01*
X32709791Y87841203D01*
X32489093Y88078511D01*
X32344385Y88219763D01*
X31900985Y88652575D01*
X31285853Y89197535D01*
X31118718Y89331767D01*
X30645086Y89712159D01*
X30645087Y89712159D01*
X29980207Y90195222D01*
X29980205Y90195223D01*
X29292768Y90645597D01*
X29292756Y90645604D01*
X29292750Y90645608D01*
X28584379Y91062230D01*
X28584374Y91062233D01*
X27899339Y91421767D01*
X27856677Y91444158D01*
X27856678Y91444157D01*
X27111374Y91790481D01*
X26350233Y92100381D01*
X26350235Y92100381D01*
X26350221Y92100386D01*
X25574978Y92373158D01*
X24787461Y92608157D01*
X23989511Y92804835D01*
X23182990Y92962730D01*
X22369782Y93081476D01*
X22369775Y93081477D01*
X22369766Y93081478D01*
X21551787Y93160794D01*
X21551788Y93160794D01*
X20730924Y93200500D01*
X20730916Y93200500D01*
X19909084Y93200500D01*
X19909076Y93200500D01*
X19088212Y93160794D01*
X19088213Y93160794D01*
X18270234Y93081478D01*
X18270224Y93081477D01*
X18270218Y93081476D01*
X17457010Y92962730D01*
X16650489Y92804835D01*
X15852539Y92608157D01*
X15065022Y92373158D01*
X14289779Y92100386D01*
X14289767Y92100381D01*
X13528626Y91790481D01*
X12783322Y91444157D01*
X12783323Y91444158D01*
X12740661Y91421767D01*
X12055626Y91062233D01*
X12055621Y91062230D01*
X11347250Y90645608D01*
X11347243Y90645604D01*
X11347232Y90645597D01*
X10659795Y90195223D01*
X10659793Y90195222D01*
X9994913Y89712159D01*
X9994914Y89712159D01*
X9521282Y89331767D01*
X9354147Y89197535D01*
X8739015Y88652575D01*
X8295615Y88219763D01*
X8150907Y88078511D01*
X7930208Y87841203D01*
X7591228Y87476711D01*
X7061266Y86848559D01*
X6562290Y86195562D01*
X6095436Y85519208D01*
X5839738Y85107551D01*
X5661812Y84821100D01*
X5661811Y84821099D01*
X5661805Y84821088D01*
X5262409Y84102834D01*
X5262404Y84102825D01*
X5262404Y84102824D01*
X4898180Y83366122D01*
X4569971Y82612678D01*
X4569970Y82612678D01*
X4415969Y82206608D01*
X4278544Y81844247D01*
X4024584Y81062639D01*
X3808684Y80269679D01*
X3631344Y79467199D01*
X3492984Y78657102D01*
X3393923Y77841269D01*
X3334393Y77021586D01*
X3314535Y76200000D01*
X3334393Y75378414D01*
X3393923Y74558731D01*
X3428314Y74275500D01*
X3492984Y73742897D01*
X3631345Y72932796D01*
X3808683Y72130326D01*
X3942612Y71638430D01*
X4024584Y71337361D01*
X4278542Y70555759D01*
X4569970Y69787322D01*
X4569971Y69787322D01*
X4596000Y69727569D01*
X4898180Y69033878D01*
X5262409Y68297166D01*
X5551538Y67777210D01*
X5661811Y67578901D01*
X5661812Y67578900D01*
X5832194Y67304596D01*
X6095436Y66880792D01*
X6095441Y66880785D01*
X6562289Y66204440D01*
X6562289Y66204439D01*
X7061266Y65551441D01*
X7591228Y64923289D01*
X7843100Y64652462D01*
X8150907Y64321489D01*
X8150913Y64321484D01*
X8150915Y64321481D01*
X8739015Y63747425D01*
X9354147Y63202465D01*
X9994914Y62687841D01*
X9994913Y62687841D01*
X10299866Y62466280D01*
X10342532Y62410950D01*
X10348511Y62341337D01*
X10315905Y62279542D01*
X10255067Y62245185D01*
X10194888Y62246187D01*
X10029000Y62290637D01*
X10029000Y61395502D01*
X9921315Y61444680D01*
X9814763Y61460000D01*
X9743237Y61460000D01*
X9636685Y61444680D01*
X9529000Y61395502D01*
X9529000Y62290636D01*
X9528999Y62290636D01*
X9315513Y62233433D01*
X9315507Y62233430D01*
X9101422Y62133601D01*
X9101420Y62133600D01*
X8907926Y61998114D01*
X8792084Y61882272D01*
X8730761Y61848788D01*
X8661069Y61853772D01*
X8605136Y61895644D01*
X8588223Y61926616D01*
X8539889Y62056204D01*
X8452261Y62173261D01*
X8335204Y62260889D01*
X8198203Y62311989D01*
X8137654Y62318500D01*
X8137638Y62318500D01*
X6340362Y62318500D01*
X6340345Y62318500D01*
X6279797Y62311989D01*
X6279795Y62311989D01*
X6142795Y62260889D01*
X6025739Y62173261D01*
X5938111Y62056205D01*
X5887011Y61919205D01*
X5887011Y61919203D01*
X5880500Y61858655D01*
X5880500Y60061346D01*
X5887011Y60000798D01*
X5887011Y60000796D01*
X5920983Y59909717D01*
X5938111Y59863796D01*
X6025739Y59746739D01*
X6142796Y59659111D01*
X6279799Y59608011D01*
X6307050Y59605082D01*
X6340345Y59601501D01*
X6340362Y59601500D01*
X7015234Y59601500D01*
X7082273Y59581815D01*
X7102915Y59565181D01*
X9906912Y56761183D01*
X9916816Y56748822D01*
X9917026Y56748995D01*
X9922001Y56742981D01*
X9973078Y56695016D01*
X9994224Y56673870D01*
X9999813Y56669534D01*
X10004245Y56665748D01*
X10036159Y56635780D01*
X10038680Y56633413D01*
X10056562Y56623583D01*
X10072829Y56612898D01*
X10088960Y56600385D01*
X10110838Y56590919D01*
X10132307Y56581629D01*
X10137533Y56579069D01*
X10178940Y56556305D01*
X10198716Y56551228D01*
X10217124Y56544925D01*
X10235850Y56536821D01*
X10235852Y56536820D01*
X10235853Y56536820D01*
X10235855Y56536819D01*
X10276784Y56530337D01*
X10282503Y56529431D01*
X10288212Y56528249D01*
X10333970Y56516500D01*
X10354384Y56516500D01*
X10373783Y56514973D01*
X10393943Y56511780D01*
X10440966Y56516225D01*
X10446804Y56516500D01*
X34230234Y56516500D01*
X34297273Y56496815D01*
X34317915Y56480181D01*
X37546181Y53251915D01*
X37579666Y53190592D01*
X37582500Y53164234D01*
X37582500Y21667759D01*
X37562815Y21600720D01*
X37550650Y21584787D01*
X37476963Y21502950D01*
X37476958Y21502943D01*
X37381473Y21337557D01*
X37381471Y21337553D01*
X37321643Y21153422D01*
X37282205Y21095747D01*
X37217846Y21068549D01*
X37149000Y21080464D01*
X37097524Y21127708D01*
X37085783Y21153418D01*
X37047734Y21270519D01*
X37029529Y21326551D01*
X37029526Y21326557D01*
X36934040Y21491944D01*
X36806253Y21633866D01*
X36651752Y21746118D01*
X36477288Y21823794D01*
X36477286Y21823795D01*
X36290487Y21863500D01*
X36099513Y21863500D01*
X35912714Y21823795D01*
X35738246Y21746117D01*
X35583745Y21633865D01*
X35455959Y21491943D01*
X35360473Y21326557D01*
X35360470Y21326550D01*
X35305033Y21155932D01*
X35301458Y21144928D01*
X35281496Y20955000D01*
X35301458Y20765072D01*
X35301459Y20765069D01*
X35360470Y20583451D01*
X35360473Y20583444D01*
X35455960Y20418056D01*
X35529649Y20336216D01*
X35559880Y20273225D01*
X35561500Y20253244D01*
X35561500Y8387731D01*
X35541815Y8320692D01*
X35496520Y8278677D01*
X35449422Y8253189D01*
X35449422Y8253188D01*
X35271761Y8114908D01*
X35271756Y8114903D01*
X35119284Y7949277D01*
X35119276Y7949266D01*
X35028808Y7810794D01*
X34975662Y7765438D01*
X34906431Y7756014D01*
X34843095Y7785516D01*
X34821192Y7810794D01*
X34730723Y7949266D01*
X34730715Y7949277D01*
X34578243Y8114903D01*
X34578238Y8114908D01*
X34400577Y8253188D01*
X34400577Y8253189D01*
X34353480Y8278677D01*
X34303891Y8327898D01*
X34288500Y8387731D01*
X34288500Y20253244D01*
X34308185Y20320283D01*
X34320346Y20336212D01*
X34394040Y20418056D01*
X34489527Y20583444D01*
X34548542Y20765072D01*
X34568504Y20955000D01*
X34548542Y21144928D01*
X34489527Y21326556D01*
X34394040Y21491944D01*
X34266253Y21633866D01*
X34111752Y21746118D01*
X33937288Y21823794D01*
X33937286Y21823795D01*
X33750487Y21863500D01*
X33559513Y21863500D01*
X33372714Y21823795D01*
X33198246Y21746117D01*
X33043745Y21633865D01*
X32915959Y21491943D01*
X32820473Y21326557D01*
X32820470Y21326550D01*
X32765033Y21155932D01*
X32761458Y21144928D01*
X32741496Y20955000D01*
X32761458Y20765072D01*
X32761459Y20765069D01*
X32820470Y20583451D01*
X32820473Y20583444D01*
X32915960Y20418056D01*
X32989649Y20336216D01*
X33019880Y20273225D01*
X33021500Y20253244D01*
X33021500Y8387731D01*
X33001815Y8320692D01*
X32956520Y8278677D01*
X32909422Y8253189D01*
X32909422Y8253188D01*
X32731761Y8114908D01*
X32731756Y8114903D01*
X32579284Y7949277D01*
X32579276Y7949266D01*
X32488808Y7810794D01*
X32435662Y7765438D01*
X32366431Y7756014D01*
X32303095Y7785516D01*
X32281192Y7810794D01*
X32190723Y7949266D01*
X32190715Y7949277D01*
X32038243Y8114903D01*
X32038238Y8114908D01*
X31860577Y8253188D01*
X31860572Y8253192D01*
X31662580Y8360339D01*
X31662577Y8360341D01*
X31662574Y8360342D01*
X31662571Y8360343D01*
X31662569Y8360344D01*
X31449637Y8433444D01*
X31227569Y8470500D01*
X31002431Y8470500D01*
X30780362Y8433444D01*
X30567430Y8360344D01*
X30567419Y8360339D01*
X30369427Y8253192D01*
X30369422Y8253188D01*
X30191761Y8114908D01*
X30191756Y8114903D01*
X30039284Y7949277D01*
X30039276Y7949266D01*
X29948808Y7810794D01*
X29895662Y7765438D01*
X29826431Y7756014D01*
X29763095Y7785516D01*
X29741192Y7810794D01*
X29650723Y7949266D01*
X29650715Y7949277D01*
X29498243Y8114903D01*
X29498238Y8114908D01*
X29320577Y8253188D01*
X29320572Y8253192D01*
X29122580Y8360339D01*
X29122577Y8360341D01*
X29122574Y8360342D01*
X29122571Y8360343D01*
X29122569Y8360344D01*
X28909637Y8433444D01*
X28687569Y8470500D01*
X28462431Y8470500D01*
X28240362Y8433444D01*
X28027430Y8360344D01*
X28027419Y8360339D01*
X27829427Y8253192D01*
X27829422Y8253188D01*
X27651761Y8114908D01*
X27651756Y8114903D01*
X27499284Y7949277D01*
X27499276Y7949266D01*
X27408808Y7810794D01*
X27355662Y7765438D01*
X27286431Y7756014D01*
X27223095Y7785516D01*
X27201192Y7810794D01*
X27110723Y7949266D01*
X27110715Y7949277D01*
X26958243Y8114903D01*
X26958238Y8114908D01*
X26780577Y8253188D01*
X26780572Y8253192D01*
X26582580Y8360339D01*
X26582577Y8360341D01*
X26582574Y8360342D01*
X26582571Y8360343D01*
X26582569Y8360344D01*
X26369637Y8433444D01*
X26147569Y8470500D01*
X25922431Y8470500D01*
X25700362Y8433444D01*
X25487430Y8360344D01*
X25487419Y8360339D01*
X25289427Y8253192D01*
X25289422Y8253188D01*
X25111761Y8114908D01*
X25111756Y8114903D01*
X24959284Y7949277D01*
X24959276Y7949266D01*
X24868808Y7810794D01*
X24815662Y7765438D01*
X24746431Y7756014D01*
X24683095Y7785516D01*
X24661192Y7810794D01*
X24570723Y7949266D01*
X24570715Y7949277D01*
X24418243Y8114903D01*
X24418238Y8114908D01*
X24240577Y8253188D01*
X24240572Y8253192D01*
X24042580Y8360339D01*
X24042577Y8360341D01*
X24042574Y8360342D01*
X24042571Y8360343D01*
X24042569Y8360344D01*
X23829637Y8433444D01*
X23607569Y8470500D01*
X23382431Y8470500D01*
X23160362Y8433444D01*
X22947430Y8360344D01*
X22947419Y8360339D01*
X22749427Y8253192D01*
X22749422Y8253188D01*
X22571761Y8114908D01*
X22502092Y8039227D01*
X22442205Y8003237D01*
X22372367Y8005338D01*
X22314751Y8044863D01*
X22294681Y8079878D01*
X22248354Y8204087D01*
X22248350Y8204094D01*
X22162190Y8319188D01*
X22162187Y8319191D01*
X22047093Y8405351D01*
X22047086Y8405355D01*
X21912379Y8455597D01*
X21912372Y8455599D01*
X21852844Y8462000D01*
X21205000Y8462000D01*
X21205000Y7547502D01*
X21097315Y7596680D01*
X20990763Y7612000D01*
X20919237Y7612000D01*
X20812685Y7596680D01*
X20705000Y7547502D01*
X20705000Y8462000D01*
X20057155Y8462000D01*
X19997627Y8455599D01*
X19997620Y8455597D01*
X19862913Y8405355D01*
X19862906Y8405351D01*
X19747812Y8319191D01*
X19747809Y8319188D01*
X19661649Y8204094D01*
X19661645Y8204087D01*
X19611403Y8069380D01*
X19611401Y8069373D01*
X19605000Y8009845D01*
X19605000Y7362000D01*
X20521314Y7362000D01*
X20495507Y7321844D01*
X20455000Y7183889D01*
X20455000Y7040111D01*
X20495507Y6902156D01*
X20521314Y6862000D01*
X19605000Y6862000D01*
X19605000Y6214156D01*
X19611401Y6154628D01*
X19611403Y6154621D01*
X19661645Y6019914D01*
X19661649Y6019907D01*
X19747809Y5904813D01*
X19747812Y5904810D01*
X19862906Y5818650D01*
X19862913Y5818646D01*
X19997620Y5768404D01*
X19997627Y5768402D01*
X20057155Y5762001D01*
X20057172Y5762000D01*
X20705000Y5762000D01*
X20705000Y6676499D01*
X20812685Y6627320D01*
X20919237Y6612000D01*
X20990763Y6612000D01*
X21097315Y6627320D01*
X21205000Y6676499D01*
X21205000Y5762000D01*
X21852828Y5762000D01*
X21852844Y5762001D01*
X21912372Y5768402D01*
X21912379Y5768404D01*
X22047086Y5818646D01*
X22047093Y5818650D01*
X22162187Y5904810D01*
X22162190Y5904813D01*
X22248350Y6019907D01*
X22248354Y6019914D01*
X22294681Y6144123D01*
X22336552Y6200057D01*
X22402016Y6224474D01*
X22470289Y6209623D01*
X22502089Y6184777D01*
X22571760Y6109094D01*
X22749424Y5970811D01*
X22749425Y5970811D01*
X22749427Y5970809D01*
X22809314Y5938400D01*
X22947426Y5863658D01*
X23160365Y5790556D01*
X23382431Y5753500D01*
X23607569Y5753500D01*
X23829635Y5790556D01*
X24042574Y5863658D01*
X24240576Y5970811D01*
X24418240Y6109094D01*
X24539594Y6240918D01*
X24570715Y6274724D01*
X24570715Y6274725D01*
X24570722Y6274732D01*
X24661193Y6413210D01*
X24714338Y6458563D01*
X24783569Y6467987D01*
X24846905Y6438485D01*
X24868804Y6413213D01*
X24959278Y6274732D01*
X24959283Y6274727D01*
X24959284Y6274724D01*
X25079513Y6144123D01*
X25111760Y6109094D01*
X25289424Y5970811D01*
X25289425Y5970811D01*
X25289427Y5970809D01*
X25349314Y5938400D01*
X25487426Y5863658D01*
X25700365Y5790556D01*
X25922431Y5753500D01*
X26147569Y5753500D01*
X26369635Y5790556D01*
X26582574Y5863658D01*
X26780576Y5970811D01*
X26958240Y6109094D01*
X27079594Y6240918D01*
X27110715Y6274724D01*
X27110715Y6274725D01*
X27110722Y6274732D01*
X27201193Y6413210D01*
X27254338Y6458563D01*
X27323569Y6467987D01*
X27386905Y6438485D01*
X27408804Y6413213D01*
X27499278Y6274732D01*
X27499283Y6274727D01*
X27499284Y6274724D01*
X27619513Y6144123D01*
X27651760Y6109094D01*
X27829424Y5970811D01*
X27829425Y5970811D01*
X27829427Y5970809D01*
X27889314Y5938400D01*
X28027426Y5863658D01*
X28240365Y5790556D01*
X28462431Y5753500D01*
X28687569Y5753500D01*
X28909635Y5790556D01*
X29122574Y5863658D01*
X29320576Y5970811D01*
X29498240Y6109094D01*
X29619594Y6240918D01*
X29650715Y6274724D01*
X29650715Y6274725D01*
X29650722Y6274732D01*
X29741193Y6413210D01*
X29794338Y6458563D01*
X29863569Y6467987D01*
X29926905Y6438485D01*
X29948804Y6413213D01*
X30039278Y6274732D01*
X30039283Y6274727D01*
X30039284Y6274724D01*
X30159513Y6144123D01*
X30191760Y6109094D01*
X30369424Y5970811D01*
X30369425Y5970811D01*
X30369427Y5970809D01*
X30429314Y5938400D01*
X30567426Y5863658D01*
X30780365Y5790556D01*
X31002431Y5753500D01*
X31227569Y5753500D01*
X31449635Y5790556D01*
X31662574Y5863658D01*
X31860576Y5970811D01*
X32038240Y6109094D01*
X32159594Y6240918D01*
X32190715Y6274724D01*
X32190715Y6274725D01*
X32190722Y6274732D01*
X32281193Y6413210D01*
X32334338Y6458563D01*
X32403569Y6467987D01*
X32466905Y6438485D01*
X32488804Y6413213D01*
X32579278Y6274732D01*
X32579283Y6274727D01*
X32579284Y6274724D01*
X32699513Y6144123D01*
X32731760Y6109094D01*
X32909424Y5970811D01*
X32909425Y5970811D01*
X32909427Y5970809D01*
X32969314Y5938400D01*
X33107426Y5863658D01*
X33320365Y5790556D01*
X33542431Y5753500D01*
X33767569Y5753500D01*
X33989635Y5790556D01*
X34202574Y5863658D01*
X34400576Y5970811D01*
X34578240Y6109094D01*
X34699594Y6240918D01*
X34730715Y6274724D01*
X34730715Y6274725D01*
X34730722Y6274732D01*
X34821193Y6413210D01*
X34874338Y6458563D01*
X34943569Y6467987D01*
X35006905Y6438485D01*
X35028804Y6413213D01*
X35119278Y6274732D01*
X35119283Y6274727D01*
X35119284Y6274724D01*
X35239513Y6144123D01*
X35271760Y6109094D01*
X35449424Y5970811D01*
X35449425Y5970811D01*
X35449427Y5970809D01*
X35509314Y5938400D01*
X35647426Y5863658D01*
X35860365Y5790556D01*
X36082431Y5753500D01*
X36307569Y5753500D01*
X36529635Y5790556D01*
X36742574Y5863658D01*
X36940576Y5970811D01*
X37118240Y6109094D01*
X37239594Y6240918D01*
X37270715Y6274724D01*
X37270715Y6274725D01*
X37270722Y6274732D01*
X37361193Y6413210D01*
X37414338Y6458563D01*
X37483569Y6467987D01*
X37546905Y6438485D01*
X37568804Y6413213D01*
X37659278Y6274732D01*
X37659283Y6274727D01*
X37659284Y6274724D01*
X37779513Y6144123D01*
X37811760Y6109094D01*
X37989424Y5970811D01*
X37989425Y5970811D01*
X37989427Y5970809D01*
X38049314Y5938400D01*
X38187426Y5863658D01*
X38400365Y5790556D01*
X38622431Y5753500D01*
X38847569Y5753500D01*
X39069635Y5790556D01*
X39282574Y5863658D01*
X39480576Y5970811D01*
X39658240Y6109094D01*
X39779594Y6240918D01*
X39810715Y6274724D01*
X39810715Y6274725D01*
X39810722Y6274732D01*
X39901193Y6413210D01*
X39954338Y6458563D01*
X40023569Y6467987D01*
X40086905Y6438485D01*
X40108804Y6413213D01*
X40199278Y6274732D01*
X40199283Y6274727D01*
X40199284Y6274724D01*
X40319513Y6144123D01*
X40351760Y6109094D01*
X40529424Y5970811D01*
X40529425Y5970811D01*
X40529427Y5970809D01*
X40589314Y5938400D01*
X40727426Y5863658D01*
X40940365Y5790556D01*
X41162431Y5753500D01*
X41387569Y5753500D01*
X41609635Y5790556D01*
X41822574Y5863658D01*
X42020576Y5970811D01*
X42198240Y6109094D01*
X42319594Y6240918D01*
X42350715Y6274724D01*
X42350715Y6274725D01*
X42350722Y6274732D01*
X42441193Y6413210D01*
X42494338Y6458563D01*
X42563569Y6467987D01*
X42626905Y6438485D01*
X42648804Y6413213D01*
X42739278Y6274732D01*
X42739283Y6274727D01*
X42739284Y6274724D01*
X42859513Y6144123D01*
X42891760Y6109094D01*
X43069424Y5970811D01*
X43069425Y5970811D01*
X43069427Y5970809D01*
X43129314Y5938400D01*
X43267426Y5863658D01*
X43480365Y5790556D01*
X43702431Y5753500D01*
X43927569Y5753500D01*
X44149635Y5790556D01*
X44362574Y5863658D01*
X44560576Y5970811D01*
X44738240Y6109094D01*
X44859594Y6240918D01*
X44890715Y6274724D01*
X44890715Y6274725D01*
X44890722Y6274732D01*
X44981193Y6413210D01*
X45034338Y6458563D01*
X45103569Y6467987D01*
X45166905Y6438485D01*
X45188804Y6413213D01*
X45279278Y6274732D01*
X45279283Y6274727D01*
X45279284Y6274724D01*
X45399513Y6144123D01*
X45431760Y6109094D01*
X45609424Y5970811D01*
X45609425Y5970811D01*
X45609427Y5970809D01*
X45669314Y5938400D01*
X45807426Y5863658D01*
X46020365Y5790556D01*
X46242431Y5753500D01*
X46467569Y5753500D01*
X46689635Y5790556D01*
X46902574Y5863658D01*
X47100576Y5970811D01*
X47278240Y6109094D01*
X47399594Y6240918D01*
X47430715Y6274724D01*
X47430715Y6274725D01*
X47430722Y6274732D01*
X47521193Y6413210D01*
X47574338Y6458563D01*
X47643569Y6467987D01*
X47706905Y6438485D01*
X47728804Y6413213D01*
X47819278Y6274732D01*
X47819283Y6274727D01*
X47819284Y6274724D01*
X47939513Y6144123D01*
X47971760Y6109094D01*
X48149424Y5970811D01*
X48149425Y5970811D01*
X48149427Y5970809D01*
X48209314Y5938400D01*
X48347426Y5863658D01*
X48560365Y5790556D01*
X48782431Y5753500D01*
X49007569Y5753500D01*
X49229635Y5790556D01*
X49442574Y5863658D01*
X49640576Y5970811D01*
X49818240Y6109094D01*
X49939594Y6240918D01*
X49970715Y6274724D01*
X49970715Y6274725D01*
X49970722Y6274732D01*
X50061193Y6413210D01*
X50114338Y6458563D01*
X50183569Y6467987D01*
X50246905Y6438485D01*
X50268804Y6413213D01*
X50359278Y6274732D01*
X50359283Y6274727D01*
X50359284Y6274724D01*
X50479513Y6144123D01*
X50511760Y6109094D01*
X50689424Y5970811D01*
X50689425Y5970811D01*
X50689427Y5970809D01*
X50749314Y5938400D01*
X50887426Y5863658D01*
X51100365Y5790556D01*
X51322431Y5753500D01*
X51547569Y5753500D01*
X51769630Y5790555D01*
X51769631Y5790556D01*
X51769635Y5790556D01*
X51769637Y5790558D01*
X51773849Y5791624D01*
X51843669Y5789012D01*
X51891991Y5759105D01*
X54229910Y3421186D01*
X54239816Y3408822D01*
X54240026Y3408995D01*
X54245001Y3402981D01*
X54296094Y3355001D01*
X54317225Y3333871D01*
X54317230Y3333866D01*
X54322802Y3329544D01*
X54327242Y3325751D01*
X54361678Y3293414D01*
X54379567Y3283580D01*
X54395833Y3272896D01*
X54411959Y3260387D01*
X54455298Y3241633D01*
X54460545Y3239063D01*
X54501940Y3216305D01*
X54521718Y3211227D01*
X54540119Y3204927D01*
X54558855Y3196819D01*
X54603362Y3189771D01*
X54605503Y3189431D01*
X54611212Y3188249D01*
X54656970Y3176500D01*
X54677384Y3176500D01*
X54696783Y3174973D01*
X54716943Y3171780D01*
X54763966Y3176225D01*
X54769804Y3176500D01*
X76622500Y3176500D01*
X76689539Y3156815D01*
X76735294Y3104011D01*
X76746500Y3052500D01*
X76746500Y3038346D01*
X76753011Y2977798D01*
X76753011Y2977796D01*
X76799453Y2853284D01*
X76804111Y2840796D01*
X76891739Y2723739D01*
X77008796Y2636111D01*
X77145799Y2585011D01*
X77173050Y2582082D01*
X77206345Y2578501D01*
X77206362Y2578500D01*
X79003638Y2578500D01*
X79003654Y2578501D01*
X79030692Y2581409D01*
X79064201Y2585011D01*
X79201204Y2636111D01*
X79318261Y2723739D01*
X79405889Y2840796D01*
X79454223Y2970385D01*
X79496093Y3026314D01*
X79561557Y3050731D01*
X79629830Y3035879D01*
X79658084Y3014728D01*
X79773917Y2898895D01*
X79967421Y2763400D01*
X80181507Y2663571D01*
X80181516Y2663567D01*
X80395000Y2606366D01*
X80395000Y3501499D01*
X80502685Y3452320D01*
X80609237Y3437000D01*
X80680763Y3437000D01*
X80787315Y3452320D01*
X80895000Y3501499D01*
X80895000Y2606367D01*
X81108483Y2663567D01*
X81108492Y2663571D01*
X81322578Y2763400D01*
X81516082Y2898895D01*
X81683105Y3065918D01*
X81818600Y3259422D01*
X81918429Y3473508D01*
X81918432Y3473514D01*
X81975636Y3687000D01*
X81078686Y3687000D01*
X81104493Y3727156D01*
X81145000Y3865111D01*
X81145000Y4008889D01*
X81104493Y4146844D01*
X81078686Y4187000D01*
X81975636Y4187000D01*
X81975635Y4187001D01*
X81918432Y4400487D01*
X81918429Y4400493D01*
X81818600Y4614578D01*
X81818599Y4614580D01*
X81683113Y4808074D01*
X81683108Y4808080D01*
X81597920Y4893268D01*
X81564435Y4954591D01*
X81569419Y5024283D01*
X81611291Y5080216D01*
X81676755Y5104633D01*
X81745028Y5089781D01*
X81753545Y5084677D01*
X82215232Y4782203D01*
X82215243Y4782197D01*
X82215250Y4782192D01*
X82791119Y4443500D01*
X82923626Y4365567D01*
X83202578Y4219162D01*
X83651323Y3983642D01*
X83651322Y3983643D01*
X84396626Y3637319D01*
X84879996Y3440514D01*
X85157779Y3327414D01*
X85933022Y3054642D01*
X86720539Y2819643D01*
X87518489Y2622965D01*
X88325010Y2465070D01*
X89138218Y2346324D01*
X89138224Y2346324D01*
X89138234Y2346322D01*
X89956213Y2267006D01*
X89956212Y2267006D01*
X90777076Y2227300D01*
X90777084Y2227300D01*
X91598924Y2227300D01*
X92419788Y2267006D01*
X92419787Y2267006D01*
X93237766Y2346322D01*
X93237775Y2346324D01*
X93237782Y2346324D01*
X94050990Y2465070D01*
X94857511Y2622965D01*
X95655461Y2819643D01*
X96442978Y3054642D01*
X97218221Y3327414D01*
X97496004Y3440514D01*
X97979374Y3637319D01*
X98724678Y3983643D01*
X98724677Y3983642D01*
X98877786Y4064000D01*
X110678747Y4064000D01*
X110697741Y3749977D01*
X110697741Y3749972D01*
X110697742Y3749971D01*
X110754451Y3440522D01*
X110754452Y3440518D01*
X110754453Y3440514D01*
X110848039Y3140184D01*
X110848043Y3140173D01*
X110848044Y3140170D01*
X110848046Y3140165D01*
X110977163Y2853279D01*
X111133386Y2594855D01*
X111139924Y2584040D01*
X111333942Y2336395D01*
X111556394Y2113943D01*
X111804039Y1919925D01*
X111804044Y1919922D01*
X111804048Y1919919D01*
X112073279Y1757163D01*
X112360165Y1628046D01*
X112360175Y1628043D01*
X112360183Y1628040D01*
X112452154Y1599381D01*
X112660522Y1534451D01*
X112969971Y1477742D01*
X113284000Y1458747D01*
X113598029Y1477742D01*
X113907478Y1534451D01*
X114207835Y1628046D01*
X114494721Y1757163D01*
X114763952Y1919919D01*
X115011602Y2113940D01*
X115234060Y2336398D01*
X115371760Y2512160D01*
X115428075Y2584040D01*
X115428075Y2584042D01*
X115428081Y2584048D01*
X115590837Y2853279D01*
X115719954Y3140165D01*
X115813549Y3440522D01*
X115870258Y3749971D01*
X115889253Y4064000D01*
X115870258Y4378029D01*
X115813549Y4687478D01*
X115768897Y4830772D01*
X115719960Y4987817D01*
X115719956Y4987828D01*
X115719954Y4987835D01*
X115590837Y5274721D01*
X115428081Y5543952D01*
X115428078Y5543956D01*
X115428075Y5543961D01*
X115234057Y5791606D01*
X115011605Y6014058D01*
X114763960Y6208076D01*
X114761401Y6209623D01*
X114494721Y6370837D01*
X114207835Y6499954D01*
X114207830Y6499956D01*
X114207827Y6499957D01*
X114207816Y6499961D01*
X113907486Y6593547D01*
X113907482Y6593548D01*
X113907478Y6593549D01*
X113598029Y6650258D01*
X113598028Y6650259D01*
X113598023Y6650259D01*
X113284000Y6669253D01*
X112969976Y6650259D01*
X112910340Y6639331D01*
X112660522Y6593549D01*
X112660519Y6593549D01*
X112660513Y6593547D01*
X112360183Y6499961D01*
X112360172Y6499957D01*
X112073283Y6370839D01*
X112073281Y6370838D01*
X111804039Y6208076D01*
X111556394Y6014058D01*
X111333942Y5791606D01*
X111139924Y5543961D01*
X111041902Y5381812D01*
X110989725Y5295500D01*
X110977162Y5274719D01*
X110977161Y5274717D01*
X110848043Y4987828D01*
X110848039Y4987817D01*
X110754453Y4687487D01*
X110754451Y4687481D01*
X110754451Y4687478D01*
X110735338Y4583182D01*
X110697741Y4378024D01*
X110678747Y4064000D01*
X98877786Y4064000D01*
X99173422Y4219162D01*
X99452374Y4365567D01*
X99584881Y4443500D01*
X100160750Y4782192D01*
X100160756Y4782197D01*
X100160768Y4782203D01*
X100848205Y5232577D01*
X100848207Y5232579D01*
X100848207Y5232578D01*
X101513087Y5715641D01*
X101513086Y5715641D01*
X101697383Y5863657D01*
X102153842Y6230256D01*
X102153843Y6230258D01*
X102153853Y6230265D01*
X102768985Y6775225D01*
X103357085Y7349281D01*
X103357086Y7349284D01*
X103357093Y7349289D01*
X103601416Y7612000D01*
X103916772Y7951089D01*
X104331483Y8442636D01*
X104446725Y8579230D01*
X104446727Y8579234D01*
X104446734Y8579241D01*
X104945711Y9232239D01*
X104945711Y9232240D01*
X105412559Y9908585D01*
X105412564Y9908592D01*
X105846188Y10606700D01*
X105846189Y10606701D01*
X106071724Y11012292D01*
X106245591Y11324966D01*
X106284117Y11402890D01*
X106609820Y12061678D01*
X106938029Y12815122D01*
X106938030Y12815122D01*
X107227940Y13579556D01*
X107229456Y13583553D01*
X107422289Y14177030D01*
X107483416Y14365161D01*
X107512592Y14472319D01*
X107699317Y15158126D01*
X107876655Y15960596D01*
X107891219Y16045865D01*
X108015016Y16770698D01*
X108114077Y17586531D01*
X108173607Y18406214D01*
X108193465Y19227800D01*
X108173607Y20049386D01*
X108114077Y20869069D01*
X108015016Y21684902D01*
X108014809Y21686112D01*
X107910647Y22295979D01*
X107876656Y22494999D01*
X107870522Y22522754D01*
X107699317Y23297474D01*
X107483416Y24090439D01*
X107402657Y24338989D01*
X107229458Y24872041D01*
X106938030Y25640478D01*
X106938029Y25640478D01*
X106609820Y26393922D01*
X106245596Y27130624D01*
X106245595Y27130625D01*
X106245591Y27130634D01*
X105846195Y27848888D01*
X105846189Y27848899D01*
X105846188Y27848900D01*
X105583229Y28272248D01*
X105412564Y28547008D01*
X104945710Y29223362D01*
X104747180Y29483173D01*
X104446734Y29876359D01*
X103916772Y30504511D01*
X103405401Y31054367D01*
X103357093Y31106311D01*
X103351708Y31111567D01*
X102768985Y31680375D01*
X102153853Y32225335D01*
X101513086Y32739959D01*
X101513087Y32739959D01*
X100848207Y33223022D01*
X100848205Y33223023D01*
X100160768Y33673397D01*
X100160756Y33673404D01*
X100160750Y33673408D01*
X99452379Y34090030D01*
X99452374Y34090033D01*
X99097645Y34276209D01*
X98724677Y34471958D01*
X98724678Y34471957D01*
X97979374Y34818281D01*
X97218233Y35128181D01*
X97218235Y35128181D01*
X97218221Y35128186D01*
X96442978Y35400958D01*
X95655461Y35635957D01*
X94857511Y35832635D01*
X94050990Y35990530D01*
X93237782Y36109276D01*
X93237775Y36109277D01*
X93237766Y36109278D01*
X92419787Y36188594D01*
X92419788Y36188594D01*
X91598924Y36228300D01*
X91598916Y36228300D01*
X90777084Y36228300D01*
X90777076Y36228300D01*
X89956212Y36188594D01*
X89956213Y36188594D01*
X89138234Y36109278D01*
X89138224Y36109277D01*
X89138218Y36109276D01*
X88325010Y35990530D01*
X87518489Y35832635D01*
X86720539Y35635957D01*
X85933022Y35400958D01*
X85157779Y35128186D01*
X85157767Y35128181D01*
X84396626Y34818281D01*
X83651322Y34471957D01*
X83651323Y34471958D01*
X83278355Y34276209D01*
X82923626Y34090033D01*
X82923621Y34090030D01*
X82215250Y33673408D01*
X82215243Y33673404D01*
X82215232Y33673397D01*
X81527795Y33223023D01*
X81527793Y33223022D01*
X80862913Y32739959D01*
X80862914Y32739959D01*
X80222147Y32225335D01*
X79607015Y31680375D01*
X79024292Y31111567D01*
X79018907Y31106311D01*
X78970599Y31054367D01*
X78459228Y30504511D01*
X77929266Y29876359D01*
X77628820Y29483173D01*
X77430290Y29223362D01*
X76963436Y28547008D01*
X76792771Y28272248D01*
X76529812Y27848900D01*
X76529811Y27848899D01*
X76529805Y27848888D01*
X76130409Y27130634D01*
X76130404Y27130625D01*
X76130404Y27130624D01*
X75766180Y26393922D01*
X75437971Y25640478D01*
X75437970Y25640478D01*
X75146542Y24872041D01*
X74973343Y24338989D01*
X74892584Y24090439D01*
X74676683Y23297474D01*
X74505478Y22522754D01*
X74499344Y22494999D01*
X74465353Y22295979D01*
X74361191Y21686112D01*
X74360984Y21684902D01*
X74261923Y20869069D01*
X74202393Y20049386D01*
X74182535Y19227800D01*
X74202393Y18406214D01*
X74261923Y17586531D01*
X74360984Y16770698D01*
X74484781Y16045865D01*
X74499345Y15960596D01*
X74676683Y15158126D01*
X74863408Y14472319D01*
X74892584Y14365161D01*
X74953711Y14177030D01*
X75146544Y13583553D01*
X75148060Y13579556D01*
X75437970Y12815122D01*
X75437971Y12815122D01*
X75766180Y12061678D01*
X76091883Y11402890D01*
X76130409Y11324966D01*
X76304276Y11012292D01*
X76529811Y10606701D01*
X76529812Y10606700D01*
X76963436Y9908592D01*
X76963441Y9908585D01*
X77430289Y9232240D01*
X77430289Y9232239D01*
X77929266Y8579241D01*
X77929272Y8579234D01*
X77929275Y8579230D01*
X78044517Y8442636D01*
X78459228Y7951089D01*
X78774584Y7612000D01*
X79018907Y7349289D01*
X79018913Y7349284D01*
X79018915Y7349281D01*
X79607015Y6775225D01*
X80222147Y6230265D01*
X80222156Y6230258D01*
X80222158Y6230256D01*
X80678617Y5863657D01*
X80862914Y5715641D01*
X80862913Y5715641D01*
X81322390Y5381812D01*
X81365056Y5326482D01*
X81371035Y5256869D01*
X81338429Y5195074D01*
X81277591Y5160717D01*
X81207835Y5164705D01*
X81197101Y5169112D01*
X81108497Y5210429D01*
X81108486Y5210433D01*
X80895000Y5267636D01*
X80895000Y4372502D01*
X80787315Y4421680D01*
X80680763Y4437000D01*
X80609237Y4437000D01*
X80502685Y4421680D01*
X80395000Y4372502D01*
X80395000Y5267636D01*
X80394999Y5267636D01*
X80181513Y5210433D01*
X80181507Y5210430D01*
X79967422Y5110601D01*
X79967420Y5110600D01*
X79773926Y4975114D01*
X79658084Y4859272D01*
X79596761Y4825788D01*
X79527069Y4830772D01*
X79471136Y4872644D01*
X79454223Y4903616D01*
X79405889Y5033204D01*
X79318261Y5150261D01*
X79201204Y5237889D01*
X79064203Y5288989D01*
X79003654Y5295500D01*
X79003638Y5295500D01*
X77206362Y5295500D01*
X77206345Y5295500D01*
X77145797Y5288989D01*
X77145795Y5288989D01*
X77008795Y5237889D01*
X76891739Y5150261D01*
X76804111Y5033205D01*
X76753011Y4896205D01*
X76753011Y4896203D01*
X76746500Y4835655D01*
X76746500Y4567500D01*
X76726815Y4500461D01*
X76674011Y4454706D01*
X76622500Y4443500D01*
X55050767Y4443500D01*
X54983728Y4463185D01*
X54963086Y4479819D01*
X53901086Y5541819D01*
X53867601Y5603142D01*
X53872585Y5672834D01*
X53914457Y5728767D01*
X53979921Y5753184D01*
X53988767Y5753500D01*
X54087569Y5753500D01*
X54309635Y5790556D01*
X54522574Y5863658D01*
X54720576Y5970811D01*
X54898240Y6109094D01*
X55019594Y6240918D01*
X55050715Y6274724D01*
X55050715Y6274725D01*
X55050722Y6274732D01*
X55144749Y6418653D01*
X55197894Y6464006D01*
X55267125Y6473430D01*
X55330461Y6443928D01*
X55350130Y6421952D01*
X55476890Y6240922D01*
X55643917Y6073895D01*
X55837421Y5938400D01*
X56051507Y5838571D01*
X56051516Y5838567D01*
X56265000Y5781366D01*
X56265000Y6676499D01*
X56372685Y6627320D01*
X56479237Y6612000D01*
X56550763Y6612000D01*
X56657315Y6627320D01*
X56765000Y6676499D01*
X56765000Y5781367D01*
X56978483Y5838567D01*
X56978492Y5838571D01*
X57192578Y5938400D01*
X57386082Y6073895D01*
X57553105Y6240918D01*
X57688600Y6434422D01*
X57788429Y6648508D01*
X57788432Y6648514D01*
X57845636Y6862000D01*
X56948686Y6862000D01*
X56974493Y6902156D01*
X57015000Y7040111D01*
X57015000Y7183889D01*
X56974493Y7321844D01*
X56948686Y7362000D01*
X57845636Y7362000D01*
X57845635Y7362001D01*
X57788432Y7575487D01*
X57788429Y7575493D01*
X57688600Y7789578D01*
X57688599Y7789580D01*
X57553113Y7983074D01*
X57553108Y7983080D01*
X57386082Y8150106D01*
X57192578Y8285601D01*
X56978492Y8385430D01*
X56978486Y8385433D01*
X56765000Y8442636D01*
X56765000Y7547502D01*
X56657315Y7596680D01*
X56550763Y7612000D01*
X56479237Y7612000D01*
X56372685Y7596680D01*
X56265000Y7547502D01*
X56265000Y8442636D01*
X56264999Y8442636D01*
X56051513Y8385433D01*
X56051507Y8385430D01*
X55837422Y8285601D01*
X55837420Y8285600D01*
X55643926Y8150114D01*
X55643920Y8150109D01*
X55476891Y7983080D01*
X55476890Y7983078D01*
X55350131Y7802048D01*
X55295554Y7758423D01*
X55226055Y7751231D01*
X55163701Y7782753D01*
X55144752Y7805344D01*
X55050722Y7949268D01*
X55050715Y7949275D01*
X55050715Y7949277D01*
X54898243Y8114903D01*
X54898238Y8114908D01*
X54720577Y8253188D01*
X54720577Y8253189D01*
X54673480Y8278677D01*
X54623891Y8327898D01*
X54608500Y8387731D01*
X54608500Y11219369D01*
X54610238Y11235119D01*
X54609968Y11235144D01*
X54610701Y11242906D01*
X54610702Y11242909D01*
X54608500Y11312959D01*
X54608500Y11342856D01*
X54607614Y11349864D01*
X54607156Y11355686D01*
X54605673Y11402890D01*
X54605672Y11402892D01*
X54599979Y11422486D01*
X54596032Y11441543D01*
X54593474Y11461797D01*
X54589100Y11472844D01*
X54576086Y11505714D01*
X54574193Y11511243D01*
X54571135Y11521767D01*
X54561018Y11556593D01*
X54550622Y11574171D01*
X54542066Y11591638D01*
X54534552Y11610617D01*
X54506794Y11648821D01*
X54503587Y11653704D01*
X54493873Y11670129D01*
X54479542Y11694362D01*
X54465108Y11708796D01*
X54452471Y11723591D01*
X54440472Y11740107D01*
X54440471Y11740108D01*
X54440467Y11740112D01*
X54404076Y11770218D01*
X54399754Y11774151D01*
X54355087Y11818818D01*
X54345180Y11831184D01*
X54344971Y11831010D01*
X54340003Y11837016D01*
X54288920Y11884985D01*
X54267768Y11906137D01*
X54262188Y11910466D01*
X54257750Y11914257D01*
X54234774Y11935832D01*
X52962606Y13208000D01*
X69571496Y13208000D01*
X69591458Y13018072D01*
X69591459Y13018069D01*
X69650470Y12836451D01*
X69650473Y12836444D01*
X69745960Y12671056D01*
X69873747Y12529134D01*
X70028248Y12416882D01*
X70202712Y12339206D01*
X70389513Y12299500D01*
X70580487Y12299500D01*
X70767288Y12339206D01*
X70941752Y12416882D01*
X71096253Y12529134D01*
X71224040Y12671056D01*
X71319527Y12836444D01*
X71378542Y13018072D01*
X71398504Y13208000D01*
X71378542Y13397928D01*
X71319527Y13579556D01*
X71224040Y13744944D01*
X71224036Y13744950D01*
X71150350Y13826787D01*
X71120120Y13889779D01*
X71118500Y13909759D01*
X71118500Y23689235D01*
X71138185Y23756274D01*
X71154814Y23776911D01*
X78493815Y31115913D01*
X78506180Y31125817D01*
X78506006Y31126027D01*
X78512012Y31130997D01*
X78512018Y31131000D01*
X78559999Y31182096D01*
X78581134Y31203230D01*
X78585463Y31208813D01*
X78589242Y31213237D01*
X78621586Y31247679D01*
X78631423Y31265576D01*
X78642097Y31281826D01*
X78654613Y31297959D01*
X78673372Y31341311D01*
X78675933Y31346538D01*
X78698695Y31387940D01*
X78703774Y31407726D01*
X78710072Y31426118D01*
X78718181Y31444855D01*
X78725568Y31491499D01*
X78726748Y31497206D01*
X78738500Y31542970D01*
X78738500Y31563391D01*
X78740027Y31582791D01*
X78743219Y31602943D01*
X78738775Y31649960D01*
X78738500Y31655797D01*
X78738500Y37592000D01*
X106909496Y37592000D01*
X106929458Y37402072D01*
X106929459Y37402069D01*
X106988470Y37220451D01*
X106988473Y37220444D01*
X107083960Y37055056D01*
X107211747Y36913134D01*
X107366248Y36800882D01*
X107540712Y36723206D01*
X107727513Y36683500D01*
X107918487Y36683500D01*
X108105288Y36723206D01*
X108279752Y36800882D01*
X108434253Y36913134D01*
X108438160Y36917473D01*
X108497646Y36954121D01*
X108530309Y36958500D01*
X111179712Y36958500D01*
X111246751Y36938815D01*
X111292506Y36886011D01*
X111293268Y36884310D01*
X111323140Y36816208D01*
X111446276Y36627735D01*
X111446284Y36627724D01*
X111533549Y36532931D01*
X111598760Y36462094D01*
X111776424Y36323811D01*
X111776429Y36323809D01*
X111776431Y36323807D01*
X111812930Y36304054D01*
X111862520Y36254835D01*
X111877628Y36186618D01*
X111853457Y36121063D01*
X111812930Y36085946D01*
X111776431Y36066194D01*
X111776422Y36066188D01*
X111598761Y35927908D01*
X111598756Y35927903D01*
X111446284Y35762277D01*
X111446276Y35762266D01*
X111323140Y35573793D01*
X111232703Y35367615D01*
X111177436Y35149372D01*
X111177434Y35149360D01*
X111158844Y34925006D01*
X111158844Y34924995D01*
X111177434Y34700641D01*
X111177436Y34700629D01*
X111232703Y34482386D01*
X111323140Y34276208D01*
X111446276Y34087735D01*
X111446284Y34087724D01*
X111598756Y33922098D01*
X111598760Y33922094D01*
X111776424Y33783811D01*
X111819693Y33760395D01*
X111819695Y33760394D01*
X111869286Y33711175D01*
X111884394Y33642958D01*
X111860224Y33577403D01*
X111831802Y33549764D01*
X111650922Y33423110D01*
X111650920Y33423109D01*
X111483891Y33256080D01*
X111483886Y33256074D01*
X111348400Y33062580D01*
X111348399Y33062578D01*
X111248570Y32848493D01*
X111248567Y32848487D01*
X111191364Y32635001D01*
X111191364Y32635000D01*
X112088314Y32635000D01*
X112062507Y32594844D01*
X112022000Y32456889D01*
X112022000Y32313111D01*
X112062507Y32175156D01*
X112088314Y32135000D01*
X111191364Y32135000D01*
X111248567Y31921514D01*
X111248570Y31921508D01*
X111348399Y31707422D01*
X111483894Y31513918D01*
X111650917Y31346895D01*
X111844421Y31211400D01*
X112058507Y31111571D01*
X112058516Y31111567D01*
X112272000Y31054366D01*
X112272000Y31949499D01*
X112379685Y31900320D01*
X112486237Y31885000D01*
X112557763Y31885000D01*
X112664315Y31900320D01*
X112772000Y31949499D01*
X112772000Y31054367D01*
X112985483Y31111567D01*
X112985492Y31111571D01*
X113199578Y31211400D01*
X113393082Y31346895D01*
X113560105Y31513918D01*
X113695600Y31707422D01*
X113795429Y31921508D01*
X113795432Y31921514D01*
X113852636Y32135000D01*
X112955686Y32135000D01*
X112981493Y32175156D01*
X113022000Y32313111D01*
X113022000Y32456889D01*
X112981493Y32594844D01*
X112955686Y32635000D01*
X113852636Y32635000D01*
X113852635Y32635001D01*
X113795432Y32848487D01*
X113795429Y32848493D01*
X113695600Y33062578D01*
X113695599Y33062580D01*
X113560113Y33256074D01*
X113560108Y33256080D01*
X113393082Y33423106D01*
X113212197Y33549764D01*
X113168572Y33604341D01*
X113161380Y33673840D01*
X113192902Y33736194D01*
X113224300Y33760392D01*
X113267576Y33783811D01*
X113445240Y33922094D01*
X113597722Y34087732D01*
X113720860Y34276209D01*
X113811296Y34482384D01*
X113866564Y34700632D01*
X113876313Y34818281D01*
X113885156Y34924995D01*
X113885156Y34925006D01*
X113866565Y35149360D01*
X113866563Y35149372D01*
X113811296Y35367615D01*
X113720859Y35573793D01*
X113659291Y35668030D01*
X113597722Y35762268D01*
X113597719Y35762271D01*
X113597715Y35762277D01*
X113445243Y35927903D01*
X113445238Y35927908D01*
X113267577Y36066188D01*
X113267578Y36066188D01*
X113267576Y36066189D01*
X113231070Y36085945D01*
X113181479Y36135164D01*
X113166371Y36203381D01*
X113190541Y36268936D01*
X113231070Y36304055D01*
X113231084Y36304064D01*
X113267576Y36323811D01*
X113445240Y36462094D01*
X113597722Y36627732D01*
X113720860Y36816209D01*
X113811296Y37022384D01*
X113866564Y37240632D01*
X113875843Y37352609D01*
X113885156Y37464995D01*
X113885156Y37465006D01*
X113866565Y37689360D01*
X113866563Y37689372D01*
X113863876Y37699982D01*
X113811296Y37907616D01*
X113720860Y38113791D01*
X113597722Y38302268D01*
X113597719Y38302271D01*
X113597715Y38302277D01*
X113445243Y38467903D01*
X113445238Y38467908D01*
X113267577Y38606188D01*
X113267578Y38606188D01*
X113267576Y38606189D01*
X113231070Y38625945D01*
X113181479Y38675164D01*
X113166371Y38743381D01*
X113190541Y38808936D01*
X113231070Y38844055D01*
X113231084Y38844064D01*
X113267576Y38863811D01*
X113445240Y39002094D01*
X113597722Y39167732D01*
X113720860Y39356209D01*
X113811296Y39562384D01*
X113866564Y39780632D01*
X113869418Y39815072D01*
X113885156Y40004995D01*
X113885156Y40005006D01*
X113866565Y40229360D01*
X113866563Y40229372D01*
X113829291Y40376556D01*
X113811296Y40447616D01*
X113720860Y40653791D01*
X113717989Y40658185D01*
X113627873Y40796118D01*
X113597722Y40842268D01*
X113597719Y40842271D01*
X113597715Y40842277D01*
X113452510Y41000009D01*
X113421587Y41062663D01*
X113429447Y41132089D01*
X113473594Y41186245D01*
X113500405Y41200173D01*
X113580584Y41230080D01*
X113618204Y41244111D01*
X113735261Y41331739D01*
X113822889Y41448796D01*
X113873989Y41585799D01*
X113877591Y41619308D01*
X113880499Y41646346D01*
X113880500Y41646363D01*
X113880500Y43443638D01*
X113880499Y43443655D01*
X113877157Y43474730D01*
X113873989Y43504201D01*
X113870747Y43512892D01*
X113851522Y43564436D01*
X113822889Y43641204D01*
X113735261Y43758261D01*
X113618204Y43845889D01*
X113481203Y43896989D01*
X113420654Y43903500D01*
X113420638Y43903500D01*
X111623362Y43903500D01*
X111623345Y43903500D01*
X111562797Y43896989D01*
X111562795Y43896989D01*
X111425795Y43845889D01*
X111308739Y43758261D01*
X111221111Y43641205D01*
X111170011Y43504205D01*
X111170011Y43504203D01*
X111163500Y43443655D01*
X111163500Y43302500D01*
X111143815Y43235461D01*
X111091011Y43189706D01*
X111039500Y43178500D01*
X108513084Y43178500D01*
X108446045Y43198185D01*
X108440208Y43202176D01*
X108343252Y43272618D01*
X108168788Y43350294D01*
X108168786Y43350295D01*
X107981987Y43390000D01*
X107791013Y43390000D01*
X107604214Y43350295D01*
X107604212Y43350294D01*
X107445828Y43279777D01*
X107429746Y43272617D01*
X107275245Y43160365D01*
X107147459Y43018443D01*
X107051973Y42853057D01*
X107051970Y42853050D01*
X107013864Y42735770D01*
X106992958Y42671428D01*
X106972996Y42481500D01*
X106992958Y42291572D01*
X106992959Y42291569D01*
X107051970Y42109951D01*
X107051973Y42109944D01*
X107147460Y41944556D01*
X107275247Y41802634D01*
X107429748Y41690382D01*
X107604212Y41612706D01*
X107791013Y41573000D01*
X107981987Y41573000D01*
X108168788Y41612706D01*
X108343252Y41690382D01*
X108497753Y41802634D01*
X108558834Y41870473D01*
X108618320Y41907121D01*
X108650984Y41911500D01*
X111039500Y41911500D01*
X111106539Y41891815D01*
X111152294Y41839011D01*
X111163500Y41787500D01*
X111163500Y41646346D01*
X111170011Y41585798D01*
X111170011Y41585796D01*
X111188212Y41537000D01*
X111221111Y41448796D01*
X111308739Y41331739D01*
X111425796Y41244111D01*
X111477737Y41224738D01*
X111543595Y41200173D01*
X111599528Y41158301D01*
X111623944Y41092837D01*
X111609092Y41024564D01*
X111591490Y41000009D01*
X111446279Y40842270D01*
X111446276Y40842266D01*
X111349852Y40694678D01*
X111296706Y40649321D01*
X111246044Y40638500D01*
X108530309Y40638500D01*
X108463270Y40658185D01*
X108438160Y40679527D01*
X108434254Y40683865D01*
X108432676Y40685012D01*
X108279752Y40796118D01*
X108105288Y40873794D01*
X108105286Y40873795D01*
X107918487Y40913500D01*
X107727513Y40913500D01*
X107540714Y40873795D01*
X107366246Y40796117D01*
X107211745Y40683865D01*
X107083959Y40541943D01*
X106988473Y40376557D01*
X106988470Y40376550D01*
X106929459Y40194932D01*
X106929458Y40194928D01*
X106909496Y40005000D01*
X106929458Y39815072D01*
X106929459Y39815069D01*
X106988470Y39633451D01*
X106988473Y39633444D01*
X107083960Y39468056D01*
X107211747Y39326134D01*
X107366248Y39213882D01*
X107540712Y39136206D01*
X107727513Y39096500D01*
X107918487Y39096500D01*
X108105288Y39136206D01*
X108279752Y39213882D01*
X108434253Y39326134D01*
X108438160Y39330473D01*
X108497646Y39367121D01*
X108530309Y39371500D01*
X111246044Y39371500D01*
X111313083Y39351815D01*
X111349852Y39315322D01*
X111446276Y39167735D01*
X111446284Y39167724D01*
X111598756Y39002098D01*
X111598760Y39002094D01*
X111776424Y38863811D01*
X111776429Y38863809D01*
X111776431Y38863807D01*
X111812930Y38844054D01*
X111862520Y38794835D01*
X111877628Y38726618D01*
X111853457Y38661063D01*
X111812930Y38625946D01*
X111776431Y38606194D01*
X111776422Y38606188D01*
X111598761Y38467908D01*
X111598756Y38467903D01*
X111446284Y38302277D01*
X111446276Y38302266D01*
X111432826Y38281678D01*
X111379680Y38236321D01*
X111329018Y38225500D01*
X108530309Y38225500D01*
X108463270Y38245185D01*
X108438160Y38266527D01*
X108434254Y38270865D01*
X108419372Y38281678D01*
X108279752Y38383118D01*
X108105288Y38460794D01*
X108105286Y38460795D01*
X107918487Y38500500D01*
X107727513Y38500500D01*
X107540714Y38460795D01*
X107366246Y38383117D01*
X107211745Y38270865D01*
X107083959Y38128943D01*
X106988473Y37963557D01*
X106988470Y37963550D01*
X106929459Y37781932D01*
X106929458Y37781928D01*
X106909496Y37592000D01*
X78738500Y37592000D01*
X78738500Y40554500D01*
X78758185Y40621539D01*
X78810989Y40667294D01*
X78862500Y40678500D01*
X79003638Y40678500D01*
X79003654Y40678501D01*
X79030692Y40681409D01*
X79064201Y40685011D01*
X79201204Y40736111D01*
X79318261Y40823739D01*
X79405889Y40940796D01*
X79454223Y41070385D01*
X79496093Y41126314D01*
X79561557Y41150731D01*
X79629830Y41135879D01*
X79658084Y41114728D01*
X79773917Y40998895D01*
X79967421Y40863400D01*
X80181507Y40763571D01*
X80181516Y40763567D01*
X80395000Y40706366D01*
X80395000Y41601499D01*
X80502685Y41552320D01*
X80609237Y41537000D01*
X80680763Y41537000D01*
X80787315Y41552320D01*
X80895000Y41601499D01*
X80895000Y40706367D01*
X81108483Y40763567D01*
X81108492Y40763571D01*
X81322578Y40863400D01*
X81516082Y40998895D01*
X81683105Y41165918D01*
X81818600Y41359422D01*
X81918429Y41573508D01*
X81918432Y41573514D01*
X81975636Y41787000D01*
X81078686Y41787000D01*
X81104493Y41827156D01*
X81145000Y41965111D01*
X81145000Y42108889D01*
X81104493Y42246844D01*
X81078686Y42287000D01*
X81975636Y42287000D01*
X81975635Y42287001D01*
X81918432Y42500487D01*
X81918429Y42500493D01*
X81818600Y42714578D01*
X81818599Y42714580D01*
X81683113Y42908074D01*
X81683108Y42908080D01*
X81658320Y42932868D01*
X81624835Y42994191D01*
X81629819Y43063883D01*
X81671691Y43119816D01*
X81737155Y43144233D01*
X81805428Y43129381D01*
X81813949Y43124275D01*
X82264032Y42829403D01*
X82264043Y42829397D01*
X82264050Y42829392D01*
X82532625Y42671432D01*
X82972426Y42412767D01*
X83288566Y42246844D01*
X83700123Y42030842D01*
X83700122Y42030843D01*
X84445426Y41684519D01*
X85024382Y41448796D01*
X85206579Y41374614D01*
X85981822Y41101842D01*
X86769339Y40866843D01*
X87567289Y40670165D01*
X88373810Y40512270D01*
X89187018Y40393524D01*
X89187024Y40393524D01*
X89187034Y40393522D01*
X90005013Y40314206D01*
X90005012Y40314206D01*
X90825876Y40274500D01*
X90825884Y40274500D01*
X91647724Y40274500D01*
X92468588Y40314206D01*
X92468587Y40314206D01*
X93286566Y40393522D01*
X93286575Y40393524D01*
X93286582Y40393524D01*
X94099790Y40512270D01*
X94906311Y40670165D01*
X95704261Y40866843D01*
X96491778Y41101842D01*
X97267021Y41374614D01*
X97449218Y41448796D01*
X98028174Y41684519D01*
X98773478Y42030843D01*
X98773477Y42030842D01*
X99185034Y42246844D01*
X99501174Y42412767D01*
X99940975Y42671432D01*
X100209550Y42829392D01*
X100209556Y42829397D01*
X100209568Y42829403D01*
X100897005Y43279777D01*
X100897007Y43279779D01*
X100897007Y43279778D01*
X101561887Y43762841D01*
X101561886Y43762841D01*
X101617362Y43807397D01*
X102202642Y44277456D01*
X102202643Y44277458D01*
X102202653Y44277465D01*
X102817785Y44822425D01*
X103405885Y45396481D01*
X103405886Y45396484D01*
X103405893Y45396489D01*
X103626591Y45633798D01*
X103965572Y45998289D01*
X104495534Y46626441D01*
X104994511Y47279439D01*
X104994511Y47279440D01*
X105461359Y47955785D01*
X105461364Y47955792D01*
X105851553Y48583973D01*
X105894988Y48653900D01*
X105894989Y48653901D01*
X105988891Y48822770D01*
X106294391Y49372166D01*
X106658620Y50108878D01*
X106986829Y50862322D01*
X106986830Y50862322D01*
X107278258Y51630759D01*
X107532216Y52412361D01*
X107673338Y52930677D01*
X107748117Y53205326D01*
X107925455Y54007796D01*
X107936863Y54074586D01*
X108055479Y54769086D01*
X108063816Y54817897D01*
X108107140Y55174700D01*
X108162877Y55633731D01*
X108222407Y56453414D01*
X108242265Y57275000D01*
X108222407Y58096586D01*
X108162877Y58916269D01*
X108063816Y59732102D01*
X108053612Y59791844D01*
X107966887Y60299619D01*
X107925456Y60542199D01*
X107748116Y61344679D01*
X107532216Y62137639D01*
X107278256Y62919247D01*
X107118417Y63340709D01*
X106986830Y63687678D01*
X106986829Y63687678D01*
X106658620Y64441122D01*
X106294396Y65177824D01*
X106294395Y65177825D01*
X106294391Y65177834D01*
X105894995Y65896088D01*
X105894989Y65896099D01*
X105894988Y65896100D01*
X105703466Y66204438D01*
X105461364Y66594208D01*
X104994510Y67270562D01*
X104495534Y67923559D01*
X103965572Y68551711D01*
X103626591Y68916203D01*
X103405893Y69153511D01*
X102817791Y69727569D01*
X102817785Y69727575D01*
X102202653Y70272535D01*
X101561886Y70787159D01*
X101561887Y70787159D01*
X100897007Y71270222D01*
X100897005Y71270223D01*
X100209568Y71720597D01*
X100209556Y71720604D01*
X100209550Y71720608D01*
X99501179Y72137230D01*
X99501174Y72137233D01*
X99038504Y72380061D01*
X98773477Y72519158D01*
X98773478Y72519157D01*
X98028174Y72865481D01*
X97267033Y73175381D01*
X97267035Y73175381D01*
X97267021Y73175386D01*
X96491778Y73448158D01*
X95704261Y73683157D01*
X94906311Y73879835D01*
X94099790Y74037730D01*
X93286582Y74156476D01*
X93286575Y74156477D01*
X93286566Y74156478D01*
X92468587Y74235794D01*
X92468588Y74235794D01*
X91647724Y74275500D01*
X91647716Y74275500D01*
X90825884Y74275500D01*
X90825876Y74275500D01*
X90005012Y74235794D01*
X90005013Y74235794D01*
X89187034Y74156478D01*
X89187024Y74156477D01*
X89187018Y74156476D01*
X88373810Y74037730D01*
X87567289Y73879835D01*
X86769339Y73683157D01*
X85981822Y73448158D01*
X85206579Y73175386D01*
X85206567Y73175381D01*
X84445426Y72865481D01*
X83700122Y72519157D01*
X83700123Y72519158D01*
X83435096Y72380061D01*
X82972426Y72137233D01*
X82972421Y72137230D01*
X82264050Y71720608D01*
X82264043Y71720604D01*
X82264032Y71720597D01*
X81576595Y71270223D01*
X81576593Y71270222D01*
X80911713Y70787159D01*
X80911714Y70787159D01*
X80270947Y70272535D01*
X79655815Y69727575D01*
X79655809Y69727569D01*
X79067707Y69153511D01*
X78847008Y68916203D01*
X78508028Y68551711D01*
X77978066Y67923559D01*
X77479090Y67270562D01*
X77012236Y66594208D01*
X76770134Y66204438D01*
X76578612Y65896100D01*
X76578611Y65896099D01*
X76578605Y65896088D01*
X76179209Y65177834D01*
X76179204Y65177825D01*
X76179204Y65177824D01*
X75814980Y64441122D01*
X75486771Y63687678D01*
X75486770Y63687678D01*
X75355183Y63340709D01*
X75195344Y62919247D01*
X74941384Y62137639D01*
X74725484Y61344679D01*
X74548144Y60542199D01*
X74506713Y60299619D01*
X74419988Y59791844D01*
X74409784Y59732102D01*
X74310723Y58916269D01*
X74251193Y58096586D01*
X74231335Y57275000D01*
X74251193Y56453414D01*
X74310723Y55633731D01*
X74366460Y55174700D01*
X74409784Y54817897D01*
X74418121Y54769086D01*
X74536737Y54074586D01*
X74548145Y54007796D01*
X74725483Y53205326D01*
X74800262Y52930677D01*
X74941384Y52412361D01*
X75195342Y51630759D01*
X75486770Y50862322D01*
X75486771Y50862322D01*
X75814980Y50108878D01*
X76179209Y49372166D01*
X76484709Y48822770D01*
X76578611Y48653901D01*
X76578612Y48653900D01*
X76622047Y48583973D01*
X77012236Y47955792D01*
X77012241Y47955785D01*
X77479089Y47279440D01*
X77479089Y47279439D01*
X77978066Y46626441D01*
X78508028Y45998289D01*
X78847008Y45633798D01*
X79067707Y45396489D01*
X79067713Y45396484D01*
X79067715Y45396481D01*
X79655815Y44822425D01*
X80270947Y44277465D01*
X80270956Y44277458D01*
X80270958Y44277456D01*
X80856237Y43807397D01*
X80911714Y43762841D01*
X80911713Y43762841D01*
X81255739Y43512892D01*
X81298405Y43457562D01*
X81304384Y43387949D01*
X81271778Y43326154D01*
X81210940Y43291797D01*
X81141184Y43295785D01*
X81130451Y43300191D01*
X81108492Y43310430D01*
X81108486Y43310433D01*
X80895000Y43367636D01*
X80895000Y42472502D01*
X80787315Y42521680D01*
X80680763Y42537000D01*
X80609237Y42537000D01*
X80502685Y42521680D01*
X80395000Y42472502D01*
X80395000Y43367636D01*
X80394999Y43367636D01*
X80181513Y43310433D01*
X80181507Y43310430D01*
X79967422Y43210601D01*
X79967420Y43210600D01*
X79773926Y43075114D01*
X79658084Y42959272D01*
X79596761Y42925788D01*
X79527069Y42930772D01*
X79471136Y42972644D01*
X79454223Y43003616D01*
X79405889Y43133204D01*
X79318261Y43250261D01*
X79201204Y43337889D01*
X79064203Y43388989D01*
X79003654Y43395500D01*
X79003638Y43395500D01*
X77206362Y43395500D01*
X77206345Y43395500D01*
X77145797Y43388989D01*
X77145795Y43388989D01*
X77008795Y43337889D01*
X76891739Y43250261D01*
X76804111Y43133205D01*
X76753011Y42996205D01*
X76753011Y42996203D01*
X76746500Y42935655D01*
X76746500Y41138346D01*
X76753011Y41077798D01*
X76753011Y41077796D01*
X76804111Y40940796D01*
X76891739Y40823739D01*
X77008796Y40736111D01*
X77145799Y40685011D01*
X77173050Y40682082D01*
X77206345Y40678501D01*
X77206362Y40678500D01*
X77347500Y40678500D01*
X77414539Y40658815D01*
X77460294Y40606011D01*
X77471500Y40554500D01*
X77471500Y31936768D01*
X77451815Y31869729D01*
X77435181Y31849087D01*
X70096179Y24510086D01*
X70083820Y24500182D01*
X70083993Y24499973D01*
X70077983Y24495001D01*
X70030016Y24443922D01*
X70008872Y24422778D01*
X70008857Y24422761D01*
X70004531Y24417186D01*
X70000747Y24412756D01*
X69968419Y24378329D01*
X69968412Y24378319D01*
X69958579Y24360433D01*
X69947903Y24344180D01*
X69935386Y24328043D01*
X69935385Y24328041D01*
X69916625Y24284690D01*
X69914055Y24279444D01*
X69891303Y24238059D01*
X69891303Y24238058D01*
X69886225Y24218280D01*
X69879925Y24199878D01*
X69871818Y24181143D01*
X69864431Y24134505D01*
X69863246Y24128784D01*
X69851500Y24083035D01*
X69851500Y24062616D01*
X69849973Y24043217D01*
X69846780Y24023059D01*
X69846780Y24023058D01*
X69851225Y23976034D01*
X69851500Y23970196D01*
X69851500Y13909759D01*
X69831815Y13842720D01*
X69819650Y13826787D01*
X69745963Y13744950D01*
X69745958Y13744943D01*
X69650473Y13579557D01*
X69650470Y13579550D01*
X69591459Y13397932D01*
X69591458Y13397928D01*
X69571496Y13208000D01*
X52962606Y13208000D01*
X44753786Y21416819D01*
X44720301Y21478142D01*
X44725285Y21547834D01*
X44767157Y21603767D01*
X44832621Y21628184D01*
X44841467Y21628500D01*
X46110638Y21628500D01*
X46110654Y21628501D01*
X46137692Y21631409D01*
X46171201Y21635011D01*
X46308204Y21686111D01*
X46425261Y21773739D01*
X46512889Y21890796D01*
X46561223Y22020385D01*
X46603093Y22076314D01*
X46668557Y22100731D01*
X46736830Y22085879D01*
X46765084Y22064728D01*
X46880917Y21948895D01*
X47074421Y21813400D01*
X47288507Y21713571D01*
X47288516Y21713567D01*
X47502000Y21656366D01*
X47502000Y22551499D01*
X47609685Y22502320D01*
X47716237Y22487000D01*
X47787763Y22487000D01*
X47894315Y22502320D01*
X48002000Y22551499D01*
X48002000Y21656367D01*
X48215483Y21713567D01*
X48215492Y21713571D01*
X48429578Y21813400D01*
X48623082Y21948895D01*
X48790105Y22115918D01*
X48925600Y22309422D01*
X49025429Y22523508D01*
X49025432Y22523514D01*
X49082636Y22737000D01*
X48185686Y22737000D01*
X48211493Y22777156D01*
X48252000Y22915111D01*
X48252000Y23058889D01*
X48211493Y23196844D01*
X48185686Y23237000D01*
X49082636Y23237000D01*
X49082635Y23237001D01*
X49025432Y23450487D01*
X49025429Y23450493D01*
X48925600Y23664578D01*
X48925599Y23664580D01*
X48841401Y23784827D01*
X48819074Y23851033D01*
X48836084Y23918800D01*
X48887032Y23966613D01*
X48955742Y23979291D01*
X49010928Y23959673D01*
X49363626Y23728603D01*
X49363637Y23728597D01*
X49363644Y23728592D01*
X49836488Y23450493D01*
X50072020Y23311967D01*
X50393381Y23143304D01*
X50799717Y22930042D01*
X50799716Y22930043D01*
X51545020Y22583719D01*
X52056866Y22375320D01*
X52306173Y22273814D01*
X53081416Y22001042D01*
X53868933Y21766043D01*
X54666883Y21569365D01*
X55473404Y21411470D01*
X56286612Y21292724D01*
X56286618Y21292724D01*
X56286628Y21292722D01*
X57104607Y21213406D01*
X57104606Y21213406D01*
X57925470Y21173700D01*
X57925478Y21173700D01*
X58747318Y21173700D01*
X59568182Y21213406D01*
X59568181Y21213406D01*
X60386160Y21292722D01*
X60386169Y21292724D01*
X60386176Y21292724D01*
X61199384Y21411470D01*
X62005905Y21569365D01*
X62803855Y21766043D01*
X63591372Y22001042D01*
X64366615Y22273814D01*
X64615922Y22375320D01*
X65127768Y22583719D01*
X65873072Y22930043D01*
X65873071Y22930042D01*
X66279406Y23143304D01*
X66600768Y23311967D01*
X66836300Y23450493D01*
X67309144Y23728592D01*
X67309150Y23728597D01*
X67309162Y23728603D01*
X67996599Y24178977D01*
X67996601Y24178979D01*
X67996601Y24178978D01*
X68661481Y24662041D01*
X68661480Y24662041D01*
X69302247Y25176665D01*
X69917379Y25721625D01*
X70505479Y26295681D01*
X70505480Y26295684D01*
X70505487Y26295689D01*
X70803169Y26615775D01*
X71065166Y26897489D01*
X71441521Y27343576D01*
X71595119Y27525630D01*
X71595121Y27525634D01*
X71595128Y27525641D01*
X72094105Y28178639D01*
X72094105Y28178640D01*
X72341210Y28536632D01*
X72560958Y28854992D01*
X72994582Y29553100D01*
X72994583Y29553101D01*
X73174335Y29876359D01*
X73393985Y30271366D01*
X73758214Y31008078D01*
X73877468Y31281841D01*
X74086423Y31761522D01*
X74086424Y31761522D01*
X74309332Y32349287D01*
X74377850Y32529953D01*
X74631810Y33311561D01*
X74847711Y34104526D01*
X75025049Y34906996D01*
X75066444Y35149360D01*
X75138934Y35573793D01*
X75163410Y35717097D01*
X75196611Y35990530D01*
X75262471Y36532931D01*
X75322001Y37352614D01*
X75341859Y38174200D01*
X75322001Y38995786D01*
X75262471Y39815469D01*
X75166481Y40606011D01*
X75163410Y40631303D01*
X75058746Y41244111D01*
X75025050Y41441399D01*
X74847710Y42243879D01*
X74631810Y43036839D01*
X74479954Y43504203D01*
X74377852Y43818441D01*
X74367442Y43845889D01*
X74240425Y44180808D01*
X74086424Y44586878D01*
X74086423Y44586878D01*
X73758214Y45340322D01*
X73393990Y46077024D01*
X73393989Y46077025D01*
X73393985Y46077034D01*
X72994589Y46795288D01*
X72994583Y46795299D01*
X72994582Y46795300D01*
X72816655Y47081751D01*
X72560958Y47493408D01*
X72094104Y48169762D01*
X71777592Y48583973D01*
X71595128Y48822759D01*
X71065166Y49450911D01*
X70659576Y49887025D01*
X70505487Y50052711D01*
X69917385Y50626769D01*
X69917379Y50626775D01*
X69302247Y51171735D01*
X68730708Y51630759D01*
X68661480Y51686359D01*
X68661481Y51686359D01*
X67996601Y52169422D01*
X67996599Y52169423D01*
X67309162Y52619797D01*
X67309150Y52619804D01*
X67309144Y52619808D01*
X66600773Y53036430D01*
X66600768Y53036433D01*
X66190201Y53251915D01*
X65873071Y53418358D01*
X65873072Y53418357D01*
X65127768Y53764681D01*
X64366627Y54074581D01*
X64366629Y54074581D01*
X64366615Y54074586D01*
X63591372Y54347358D01*
X62803855Y54582357D01*
X62005905Y54779035D01*
X61199384Y54936930D01*
X60386176Y55055676D01*
X60386169Y55055677D01*
X60386160Y55055678D01*
X59568181Y55134994D01*
X59568182Y55134994D01*
X58747318Y55174700D01*
X58747310Y55174700D01*
X57925478Y55174700D01*
X57925470Y55174700D01*
X57104606Y55134994D01*
X57104607Y55134994D01*
X56286628Y55055678D01*
X56286618Y55055677D01*
X56286612Y55055676D01*
X55473404Y54936930D01*
X54666883Y54779035D01*
X53868933Y54582357D01*
X53081416Y54347358D01*
X52306173Y54074586D01*
X52306161Y54074581D01*
X51545020Y53764681D01*
X50799716Y53418357D01*
X50799717Y53418358D01*
X50482587Y53251915D01*
X50072020Y53036433D01*
X50072015Y53036430D01*
X49363644Y52619808D01*
X49363637Y52619804D01*
X49363626Y52619797D01*
X48676189Y52169423D01*
X48676187Y52169422D01*
X48011307Y51686359D01*
X48011308Y51686359D01*
X47942080Y51630759D01*
X47370541Y51171735D01*
X46755409Y50626775D01*
X46755403Y50626769D01*
X46167301Y50052711D01*
X46013212Y49887025D01*
X45607622Y49450911D01*
X45077660Y48822759D01*
X44895196Y48583973D01*
X44578684Y48169762D01*
X44111830Y47493408D01*
X43856132Y47081751D01*
X43678206Y46795300D01*
X43678205Y46795299D01*
X43678199Y46795288D01*
X43278803Y46077034D01*
X43278798Y46077025D01*
X43278798Y46077024D01*
X42914574Y45340322D01*
X42586365Y44586878D01*
X42586364Y44586878D01*
X42432363Y44180808D01*
X42305346Y43845889D01*
X42294936Y43818441D01*
X42192834Y43504203D01*
X42040978Y43036839D01*
X41825078Y42243879D01*
X41647738Y41441399D01*
X41614042Y41244111D01*
X41509378Y40631303D01*
X41506307Y40606011D01*
X41410317Y39815469D01*
X41350787Y38995786D01*
X41330929Y38174200D01*
X41350787Y37352614D01*
X41410317Y36532931D01*
X41476177Y35990530D01*
X41509378Y35717097D01*
X41533854Y35573793D01*
X41606344Y35149360D01*
X41647739Y34906996D01*
X41825077Y34104526D01*
X42040978Y33311561D01*
X42294938Y32529953D01*
X42363455Y32349287D01*
X42586364Y31761522D01*
X42586365Y31761522D01*
X42795320Y31281841D01*
X42914574Y31008078D01*
X43278803Y30271366D01*
X43498453Y29876359D01*
X43678205Y29553101D01*
X43678206Y29553100D01*
X44111830Y28854992D01*
X44331578Y28536632D01*
X44578683Y28178640D01*
X44578683Y28178639D01*
X45077660Y27525641D01*
X45077666Y27525634D01*
X45077669Y27525630D01*
X45231266Y27343576D01*
X45607622Y26897489D01*
X45869619Y26615775D01*
X46167301Y26295689D01*
X46167307Y26295684D01*
X46167309Y26295681D01*
X46755409Y25721625D01*
X47370541Y25176665D01*
X48011308Y24662041D01*
X48011307Y24662041D01*
X48226480Y24505709D01*
X48269146Y24450379D01*
X48275125Y24380766D01*
X48242519Y24318971D01*
X48181681Y24284614D01*
X48121502Y24285616D01*
X48002000Y24317637D01*
X48002000Y23422502D01*
X47894315Y23471680D01*
X47787763Y23487000D01*
X47716237Y23487000D01*
X47609685Y23471680D01*
X47502000Y23422502D01*
X47502000Y24317636D01*
X47501999Y24317636D01*
X47288513Y24260433D01*
X47288507Y24260430D01*
X47074422Y24160601D01*
X47074420Y24160600D01*
X46880926Y24025114D01*
X46765084Y23909272D01*
X46703761Y23875788D01*
X46634069Y23880772D01*
X46578136Y23922644D01*
X46561223Y23953616D01*
X46512889Y24083204D01*
X46425261Y24200261D01*
X46308204Y24287889D01*
X46279613Y24298553D01*
X46171203Y24338989D01*
X46110654Y24345500D01*
X46110638Y24345500D01*
X44724567Y24345500D01*
X44657528Y24365185D01*
X44636886Y24381819D01*
X40293819Y28724886D01*
X40260334Y28786209D01*
X40257500Y28812567D01*
X40257500Y55993969D01*
X40277185Y56061008D01*
X40329989Y56106763D01*
X40399147Y56116707D01*
X40431936Y56107248D01*
X40437244Y56104885D01*
X40437248Y56104882D01*
X40611712Y56027206D01*
X40798513Y55987500D01*
X40989487Y55987500D01*
X41176288Y56027206D01*
X41350752Y56104882D01*
X41505253Y56217134D01*
X41633040Y56359056D01*
X41728527Y56524444D01*
X41787542Y56706072D01*
X41804981Y56872003D01*
X41831564Y56936613D01*
X41840611Y56946709D01*
X44459086Y59565181D01*
X44520409Y59598666D01*
X44546767Y59601500D01*
X46110638Y59601500D01*
X46110654Y59601501D01*
X46137692Y59604409D01*
X46171201Y59608011D01*
X46308204Y59659111D01*
X46425261Y59746739D01*
X46512889Y59863796D01*
X46561223Y59993385D01*
X46603093Y60049314D01*
X46668557Y60073731D01*
X46736830Y60058879D01*
X46765084Y60037728D01*
X46880917Y59921895D01*
X47074421Y59786400D01*
X47288507Y59686571D01*
X47288516Y59686567D01*
X47502000Y59629366D01*
X47502000Y60524499D01*
X47609685Y60475320D01*
X47716237Y60460000D01*
X47787763Y60460000D01*
X47894315Y60475320D01*
X48002000Y60524499D01*
X48002000Y59629367D01*
X48215483Y59686567D01*
X48215492Y59686571D01*
X48429578Y59786400D01*
X48623082Y59921895D01*
X48790105Y60088918D01*
X48925600Y60282422D01*
X49025429Y60496508D01*
X49025432Y60496514D01*
X49082636Y60710000D01*
X48185686Y60710000D01*
X48211493Y60750156D01*
X48252000Y60888111D01*
X48252000Y61031889D01*
X48211493Y61169844D01*
X48185686Y61210000D01*
X49082636Y61210000D01*
X49082635Y61210001D01*
X49025432Y61423487D01*
X49025429Y61423493D01*
X48925600Y61637578D01*
X48925599Y61637580D01*
X48790113Y61831074D01*
X48790108Y61831080D01*
X48773590Y61847598D01*
X48740105Y61908921D01*
X48745089Y61978613D01*
X48786961Y62034546D01*
X48852425Y62058963D01*
X48920698Y62044111D01*
X48929217Y62039006D01*
X49363626Y61754403D01*
X49363637Y61754397D01*
X49363644Y61754392D01*
X49864191Y61460000D01*
X50072020Y61337767D01*
X50391971Y61169844D01*
X50799717Y60955842D01*
X50799716Y60955843D01*
X51545020Y60609519D01*
X52036655Y60409349D01*
X52306173Y60299614D01*
X53081416Y60026842D01*
X53868933Y59791843D01*
X54666883Y59595165D01*
X55473404Y59437270D01*
X56286612Y59318524D01*
X56286618Y59318524D01*
X56286628Y59318522D01*
X57104607Y59239206D01*
X57104606Y59239206D01*
X57925470Y59199500D01*
X57925478Y59199500D01*
X58747318Y59199500D01*
X59568182Y59239206D01*
X59568181Y59239206D01*
X60386160Y59318522D01*
X60386169Y59318524D01*
X60386176Y59318524D01*
X61199384Y59437270D01*
X62005905Y59595165D01*
X62803855Y59791843D01*
X63591372Y60026842D01*
X64366615Y60299614D01*
X64636133Y60409349D01*
X65127768Y60609519D01*
X65873072Y60955843D01*
X65873071Y60955842D01*
X66280817Y61169844D01*
X66600768Y61337767D01*
X66808597Y61460000D01*
X67309144Y61754392D01*
X67309150Y61754397D01*
X67309162Y61754403D01*
X67996599Y62204777D01*
X67996601Y62204779D01*
X67996601Y62204778D01*
X68661481Y62687841D01*
X68661480Y62687841D01*
X69302247Y63202465D01*
X69917379Y63747425D01*
X70505479Y64321481D01*
X70505480Y64321484D01*
X70505487Y64321489D01*
X70813294Y64652462D01*
X71065166Y64923289D01*
X71595128Y65551441D01*
X72094105Y66204439D01*
X72094105Y66204440D01*
X72560953Y66880785D01*
X72560958Y66880792D01*
X72824200Y67304596D01*
X72994582Y67578900D01*
X72994583Y67578901D01*
X73104856Y67777210D01*
X73393985Y68297166D01*
X73758214Y69033878D01*
X74060394Y69727569D01*
X74086423Y69787322D01*
X74086424Y69787322D01*
X74377852Y70555759D01*
X74631810Y71337361D01*
X74713782Y71638430D01*
X74847711Y72130326D01*
X75025049Y72932796D01*
X75163410Y73742897D01*
X75228080Y74275500D01*
X75262471Y74558731D01*
X75322001Y75378414D01*
X75341859Y76200000D01*
X75322001Y77021586D01*
X75262471Y77841269D01*
X75163410Y78657102D01*
X75025050Y79467199D01*
X74847710Y80269679D01*
X74631810Y81062639D01*
X74377850Y81844247D01*
X74240425Y82206608D01*
X74086424Y82612678D01*
X74086423Y82612678D01*
X73758214Y83366122D01*
X73393990Y84102824D01*
X73393989Y84102825D01*
X73393985Y84102834D01*
X72994589Y84821088D01*
X72994583Y84821099D01*
X72994582Y84821100D01*
X72816655Y85107551D01*
X72560958Y85519208D01*
X72094104Y86195562D01*
X71595128Y86848559D01*
X71065166Y87476711D01*
X70726185Y87841203D01*
X70505487Y88078511D01*
X70360779Y88219763D01*
X69917379Y88652575D01*
X69302247Y89197535D01*
X69135112Y89331767D01*
X68661480Y89712159D01*
X68661481Y89712159D01*
X67996601Y90195222D01*
X67996599Y90195223D01*
X67309162Y90645597D01*
X67309150Y90645604D01*
X67309144Y90645608D01*
X66600773Y91062230D01*
X66600768Y91062233D01*
X65915733Y91421767D01*
X65873071Y91444158D01*
X65873072Y91444157D01*
X65127768Y91790481D01*
X64366627Y92100381D01*
X64366629Y92100381D01*
X64366615Y92100386D01*
X63591372Y92373158D01*
X62803855Y92608157D01*
X62005905Y92804835D01*
X61199384Y92962730D01*
X60386176Y93081476D01*
X60386169Y93081477D01*
X60386160Y93081478D01*
X59568181Y93160794D01*
X59568182Y93160794D01*
X58747318Y93200500D01*
X58747310Y93200500D01*
X57925478Y93200500D01*
X57925470Y93200500D01*
X57104606Y93160794D01*
X57104607Y93160794D01*
X56286628Y93081478D01*
X56286618Y93081477D01*
X56286612Y93081476D01*
X55473404Y92962730D01*
X54666883Y92804835D01*
X53868933Y92608157D01*
X53081416Y92373158D01*
X52306173Y92100386D01*
X52306161Y92100381D01*
X51545020Y91790481D01*
X50799716Y91444157D01*
X50799717Y91444158D01*
X50757055Y91421767D01*
X50072020Y91062233D01*
X50072015Y91062230D01*
X49363644Y90645608D01*
X49363637Y90645604D01*
X49363626Y90645597D01*
X48676189Y90195223D01*
X48676187Y90195222D01*
X48011307Y89712159D01*
X48011308Y89712159D01*
X47537676Y89331767D01*
X47370541Y89197535D01*
X46755409Y88652575D01*
X46312009Y88219763D01*
X46167301Y88078511D01*
X45946602Y87841203D01*
X45607622Y87476711D01*
X45077660Y86848559D01*
X44578684Y86195562D01*
X44111830Y85519208D01*
X43856132Y85107551D01*
X43678206Y84821100D01*
X43678205Y84821099D01*
X43678199Y84821088D01*
X43278803Y84102834D01*
X43278798Y84102825D01*
X43278798Y84102824D01*
X42914574Y83366122D01*
X42586365Y82612678D01*
X42586364Y82612678D01*
X42432363Y82206608D01*
X42294938Y81844247D01*
X42040978Y81062639D01*
X41825078Y80269679D01*
X41647738Y79467199D01*
X41509378Y78657102D01*
X41410317Y77841269D01*
X41350787Y77021586D01*
X41330929Y76200000D01*
X41350787Y75378414D01*
X41410317Y74558731D01*
X41444708Y74275500D01*
X41509378Y73742897D01*
X41647739Y72932796D01*
X41825077Y72130326D01*
X41959006Y71638430D01*
X42040978Y71337361D01*
X42294936Y70555759D01*
X42586364Y69787322D01*
X42586365Y69787322D01*
X42612394Y69727569D01*
X42914574Y69033878D01*
X43278803Y68297166D01*
X43567932Y67777210D01*
X43678205Y67578901D01*
X43678206Y67578900D01*
X43848588Y67304596D01*
X44111830Y66880792D01*
X44111835Y66880785D01*
X44578683Y66204440D01*
X44578683Y66204439D01*
X45077660Y65551441D01*
X45607622Y64923289D01*
X45859494Y64652462D01*
X46167301Y64321489D01*
X46167307Y64321484D01*
X46167309Y64321481D01*
X46755409Y63747425D01*
X47370541Y63202465D01*
X48011308Y62687841D01*
X48011307Y62687841D01*
X48011313Y62687837D01*
X48316260Y62466280D01*
X48349748Y62441950D01*
X48392414Y62386620D01*
X48398393Y62317007D01*
X48365787Y62255212D01*
X48304949Y62220855D01*
X48235193Y62224843D01*
X48224462Y62229248D01*
X48215493Y62233430D01*
X48215486Y62233433D01*
X48002000Y62290636D01*
X48002000Y61395502D01*
X47894315Y61444680D01*
X47787763Y61460000D01*
X47716237Y61460000D01*
X47609685Y61444680D01*
X47502000Y61395502D01*
X47502000Y62290636D01*
X47501999Y62290636D01*
X47288513Y62233433D01*
X47288507Y62233430D01*
X47074422Y62133601D01*
X47074420Y62133600D01*
X46880926Y61998114D01*
X46765084Y61882272D01*
X46703761Y61848788D01*
X46634069Y61853772D01*
X46578136Y61895644D01*
X46561223Y61926616D01*
X46512889Y62056204D01*
X46425261Y62173261D01*
X46308204Y62260889D01*
X46171203Y62311989D01*
X46110654Y62318500D01*
X46110638Y62318500D01*
X44313362Y62318500D01*
X44313345Y62318500D01*
X44252797Y62311989D01*
X44252795Y62311989D01*
X44115795Y62260889D01*
X43998739Y62173261D01*
X43911111Y62056205D01*
X43860011Y61919205D01*
X43860011Y61919203D01*
X43853500Y61858655D01*
X43853500Y60802767D01*
X43833815Y60735728D01*
X43817181Y60715086D01*
X40942914Y57840819D01*
X40881591Y57807334D01*
X40855233Y57804500D01*
X40798513Y57804500D01*
X40717648Y57787312D01*
X40647980Y57792628D01*
X40592247Y57834765D01*
X40568142Y57900345D01*
X40583319Y57968547D01*
X40604183Y57996280D01*
X41790815Y59182913D01*
X41803180Y59192817D01*
X41803006Y59193027D01*
X41809012Y59197997D01*
X41809018Y59198000D01*
X41856999Y59249096D01*
X41878135Y59270231D01*
X41882458Y59275805D01*
X41886257Y59280253D01*
X41898391Y59293174D01*
X41918586Y59314679D01*
X41928420Y59332571D01*
X41939103Y59348833D01*
X41951614Y59364959D01*
X41970371Y59408309D01*
X41972941Y59413553D01*
X41995693Y59454936D01*
X41995693Y59454937D01*
X41995695Y59454940D01*
X42000774Y59474727D01*
X42007070Y59493115D01*
X42015181Y59511855D01*
X42022569Y59558503D01*
X42023751Y59564214D01*
X42035500Y59609970D01*
X42035500Y59630385D01*
X42037027Y59649786D01*
X42038504Y59659112D01*
X42040220Y59669943D01*
X42035775Y59716967D01*
X42035500Y59722805D01*
X42035500Y67226374D01*
X42037238Y67242119D01*
X42036967Y67242144D01*
X42037701Y67249907D01*
X42035500Y67319941D01*
X42035500Y67349850D01*
X42035500Y67349856D01*
X42034615Y67356860D01*
X42034156Y67362689D01*
X42032673Y67409891D01*
X42026979Y67429486D01*
X42023032Y67448543D01*
X42020474Y67468797D01*
X42003084Y67512716D01*
X42001193Y67518243D01*
X41988018Y67563592D01*
X41988018Y67563593D01*
X41977624Y67581168D01*
X41969064Y67598644D01*
X41961554Y67617612D01*
X41961554Y67617613D01*
X41961553Y67617615D01*
X41961552Y67617617D01*
X41933789Y67655829D01*
X41930587Y67660703D01*
X41906542Y67701363D01*
X41892106Y67715799D01*
X41879469Y67730594D01*
X41867471Y67747108D01*
X41831084Y67777210D01*
X41826762Y67781143D01*
X40997819Y68610086D01*
X40964334Y68671409D01*
X40961500Y68697767D01*
X40961500Y94589374D01*
X40963238Y94605119D01*
X40962967Y94605144D01*
X40963701Y94612907D01*
X40961500Y94682941D01*
X40961500Y94712850D01*
X40961500Y94712856D01*
X40960615Y94719860D01*
X40960156Y94725689D01*
X40958673Y94772891D01*
X40954052Y94788794D01*
X40952977Y94792492D01*
X40949032Y94811543D01*
X40946474Y94831797D01*
X40929088Y94875709D01*
X40927196Y94881236D01*
X40916404Y94918381D01*
X40914018Y94926594D01*
X40903625Y94944167D01*
X40895063Y94961645D01*
X40884680Y94987871D01*
X40886712Y94988676D01*
X40874075Y95045998D01*
X40898307Y95111531D01*
X40954123Y95153559D01*
X40997783Y95161500D01*
X41133569Y95161500D01*
X41355635Y95198556D01*
X41568574Y95271658D01*
X41766576Y95378811D01*
X41944240Y95517094D01*
X42096722Y95682732D01*
X42187193Y95821210D01*
X42240338Y95866563D01*
X42309569Y95875987D01*
X42372905Y95846485D01*
X42394804Y95821213D01*
X42485278Y95682732D01*
X42485283Y95682727D01*
X42485284Y95682724D01*
X42603599Y95554202D01*
X42637760Y95517094D01*
X42815424Y95378811D01*
X42815426Y95378810D01*
X42815433Y95378805D01*
X42862516Y95353326D01*
X42912107Y95304108D01*
X42927500Y95244271D01*
X42927500Y90610734D01*
X42907815Y90543695D01*
X42895652Y90527764D01*
X42885461Y90516446D01*
X42885457Y90516441D01*
X42789973Y90351057D01*
X42789970Y90351050D01*
X42730959Y90169432D01*
X42730958Y90169428D01*
X42710996Y89979500D01*
X42730958Y89789572D01*
X42730959Y89789569D01*
X42789970Y89607951D01*
X42789973Y89607944D01*
X42885460Y89442556D01*
X43013247Y89300634D01*
X43167748Y89188382D01*
X43342212Y89110706D01*
X43529013Y89071000D01*
X43719987Y89071000D01*
X43906788Y89110706D01*
X44081252Y89188382D01*
X44235753Y89300634D01*
X44363540Y89442556D01*
X44459027Y89607944D01*
X44518042Y89789572D01*
X44538004Y89979500D01*
X44518042Y90169428D01*
X44459027Y90351056D01*
X44363540Y90516444D01*
X44235753Y90658366D01*
X44235523Y90658573D01*
X44235428Y90658727D01*
X44231405Y90663195D01*
X44232222Y90663932D01*
X44198878Y90718062D01*
X44194500Y90750719D01*
X44194500Y95244271D01*
X44214185Y95311310D01*
X44259484Y95353326D01*
X44306566Y95378805D01*
X44306572Y95378809D01*
X44306576Y95378811D01*
X44484240Y95517094D01*
X44636722Y95682732D01*
X44727193Y95821210D01*
X44780338Y95866563D01*
X44849569Y95875987D01*
X44912905Y95846485D01*
X44934804Y95821213D01*
X45025278Y95682732D01*
X45025283Y95682727D01*
X45025284Y95682724D01*
X45143599Y95554202D01*
X45177760Y95517094D01*
X45355424Y95378811D01*
X45355425Y95378811D01*
X45355427Y95378809D01*
X45402516Y95353326D01*
X45553426Y95271658D01*
X45766365Y95198556D01*
X45988431Y95161500D01*
X46213569Y95161500D01*
X46435635Y95198556D01*
X46648574Y95271658D01*
X46846576Y95378811D01*
X47024240Y95517094D01*
X47176722Y95682732D01*
X47267193Y95821210D01*
X47320338Y95866563D01*
X47389569Y95875987D01*
X47452905Y95846485D01*
X47474804Y95821213D01*
X47565278Y95682732D01*
X47565283Y95682727D01*
X47565284Y95682724D01*
X47683599Y95554202D01*
X47717760Y95517094D01*
X47895424Y95378811D01*
X47895425Y95378811D01*
X47895427Y95378809D01*
X47942516Y95353326D01*
X48093426Y95271658D01*
X48306365Y95198556D01*
X48528431Y95161500D01*
X48753569Y95161500D01*
X48975635Y95198556D01*
X49188574Y95271658D01*
X49386576Y95378811D01*
X49564240Y95517094D01*
X49716722Y95682732D01*
X49807193Y95821210D01*
X49860338Y95866563D01*
X49929569Y95875987D01*
X49992905Y95846485D01*
X50014804Y95821213D01*
X50105278Y95682732D01*
X50105283Y95682727D01*
X50105284Y95682724D01*
X50223599Y95554202D01*
X50257760Y95517094D01*
X50435424Y95378811D01*
X50435425Y95378811D01*
X50435427Y95378809D01*
X50482516Y95353326D01*
X50633426Y95271658D01*
X50846365Y95198556D01*
X51068431Y95161500D01*
X51293569Y95161500D01*
X51515635Y95198556D01*
X51728574Y95271658D01*
X51926576Y95378811D01*
X52104240Y95517094D01*
X52256722Y95682732D01*
X52347193Y95821210D01*
X52400338Y95866563D01*
X52469569Y95875987D01*
X52532905Y95846485D01*
X52554804Y95821213D01*
X52645278Y95682732D01*
X52645283Y95682727D01*
X52645284Y95682724D01*
X52763599Y95554202D01*
X52797760Y95517094D01*
X52975424Y95378811D01*
X52975425Y95378811D01*
X52975427Y95378809D01*
X53022516Y95353326D01*
X53173426Y95271658D01*
X53386365Y95198556D01*
X53608431Y95161500D01*
X53833569Y95161500D01*
X54055635Y95198556D01*
X54268574Y95271658D01*
X54466576Y95378811D01*
X54644240Y95517094D01*
X54796722Y95682732D01*
X54887193Y95821210D01*
X54940338Y95866563D01*
X55009569Y95875987D01*
X55072905Y95846485D01*
X55094804Y95821213D01*
X55185278Y95682732D01*
X55185283Y95682727D01*
X55185284Y95682724D01*
X55303599Y95554202D01*
X55337760Y95517094D01*
X55515424Y95378811D01*
X55515425Y95378811D01*
X55515427Y95378809D01*
X55562516Y95353326D01*
X55713426Y95271658D01*
X55926365Y95198556D01*
X56148431Y95161500D01*
X56373569Y95161500D01*
X56595635Y95198556D01*
X56808574Y95271658D01*
X57006576Y95378811D01*
X57184240Y95517094D01*
X57253908Y95592774D01*
X57313793Y95628763D01*
X57383631Y95626663D01*
X57441247Y95587140D01*
X57461318Y95552123D01*
X57507645Y95427914D01*
X57507649Y95427907D01*
X57593809Y95312813D01*
X57593812Y95312810D01*
X57708906Y95226650D01*
X57708913Y95226646D01*
X57843620Y95176404D01*
X57843627Y95176402D01*
X57903155Y95170001D01*
X57903172Y95170000D01*
X58551000Y95170000D01*
X58551000Y96084499D01*
X58658685Y96035320D01*
X58765237Y96020000D01*
X58836763Y96020000D01*
X58943315Y96035320D01*
X59051000Y96084499D01*
X59051000Y95170000D01*
X59698828Y95170000D01*
X59698844Y95170001D01*
X59758372Y95176402D01*
X59758379Y95176404D01*
X59893086Y95226646D01*
X59893093Y95226650D01*
X60008187Y95312810D01*
X60008190Y95312813D01*
X60094350Y95427907D01*
X60094354Y95427914D01*
X60144596Y95562621D01*
X60144598Y95562628D01*
X60150999Y95622156D01*
X60151000Y95622173D01*
X60151000Y96270000D01*
X59234686Y96270000D01*
X59260493Y96310156D01*
X59301000Y96448111D01*
X59301000Y96591889D01*
X59260493Y96729844D01*
X59234686Y96770000D01*
X60151000Y96770000D01*
X60151000Y97417828D01*
X60150999Y97417845D01*
X60144598Y97477373D01*
X60144596Y97477380D01*
X60094354Y97612087D01*
X60094350Y97612094D01*
X60008190Y97727187D01*
X59973398Y97753233D01*
X59931527Y97809167D01*
X59926543Y97878859D01*
X59960028Y97940182D01*
X60021352Y97973666D01*
X60047709Y97976500D01*
X72526234Y97976500D01*
X72593273Y97956815D01*
X72613915Y97940181D01*
X74170181Y96383915D01*
X74203666Y96322592D01*
X74206500Y96296234D01*
X74206500Y94986346D01*
X74213011Y94925798D01*
X74213011Y94925796D01*
X74248072Y94831798D01*
X74264111Y94788796D01*
X74351739Y94671739D01*
X74468796Y94584111D01*
X74605799Y94533011D01*
X74633050Y94530082D01*
X74666345Y94526501D01*
X74666362Y94526500D01*
X76463638Y94526500D01*
X76463654Y94526501D01*
X76490692Y94529409D01*
X76524201Y94533011D01*
X76661204Y94584111D01*
X76778261Y94671739D01*
X76865889Y94788796D01*
X76914223Y94918385D01*
X76956093Y94974314D01*
X77021557Y94998731D01*
X77089830Y94983879D01*
X77118084Y94962728D01*
X77233917Y94846895D01*
X77427421Y94711400D01*
X77641507Y94611571D01*
X77641516Y94611567D01*
X77855000Y94554366D01*
X77855000Y95449499D01*
X77962685Y95400320D01*
X78069237Y95385000D01*
X78140763Y95385000D01*
X78247315Y95400320D01*
X78355000Y95449499D01*
X78355000Y94554367D01*
X78568483Y94611567D01*
X78568492Y94611571D01*
X78782578Y94711400D01*
X78976082Y94846895D01*
X79143105Y95013918D01*
X79278600Y95207422D01*
X79378429Y95421508D01*
X79378432Y95421514D01*
X79435636Y95635000D01*
X78538686Y95635000D01*
X78564493Y95675156D01*
X78605000Y95813111D01*
X78605000Y95956889D01*
X78564493Y96094844D01*
X78538686Y96135000D01*
X79435636Y96135000D01*
X79435635Y96135001D01*
X79378432Y96348487D01*
X79378429Y96348493D01*
X79278600Y96562578D01*
X79278599Y96562580D01*
X79143113Y96756074D01*
X79143108Y96756080D01*
X78976082Y96923106D01*
X78782578Y97058601D01*
X78568492Y97158430D01*
X78568486Y97158433D01*
X78355000Y97215636D01*
X78355000Y96320502D01*
X78247315Y96369680D01*
X78140763Y96385000D01*
X78069237Y96385000D01*
X77962685Y96369680D01*
X77855000Y96320502D01*
X77855000Y97215636D01*
X77854999Y97215636D01*
X77641513Y97158433D01*
X77641507Y97158430D01*
X77427422Y97058601D01*
X77427420Y97058600D01*
X77233926Y96923114D01*
X77118084Y96807272D01*
X77056761Y96773788D01*
X76987069Y96778772D01*
X76931136Y96820644D01*
X76914223Y96851616D01*
X76865889Y96981204D01*
X76864175Y96983493D01*
X76848315Y97004680D01*
X76778261Y97098261D01*
X76661204Y97185889D01*
X76655351Y97188072D01*
X76524203Y97236989D01*
X76463654Y97243500D01*
X76463638Y97243500D01*
X75153766Y97243500D01*
X75086727Y97263185D01*
X75066085Y97279819D01*
X74131086Y98214819D01*
X74097601Y98276142D01*
X74102585Y98345834D01*
X74144457Y98401767D01*
X74209921Y98426184D01*
X74218767Y98426500D01*
X77640366Y98426500D01*
X77656113Y98424762D01*
X77656139Y98425032D01*
X77663905Y98424299D01*
X77663909Y98424298D01*
X77733958Y98426500D01*
X77763856Y98426500D01*
X77763857Y98426500D01*
X77765222Y98426673D01*
X77770862Y98427386D01*
X77776685Y98427844D01*
X77802708Y98428662D01*
X77823890Y98429327D01*
X77833681Y98432173D01*
X77843481Y98435020D01*
X77862538Y98438968D01*
X77882797Y98441526D01*
X77926721Y98458918D01*
X77932221Y98460801D01*
X77977593Y98473982D01*
X77995165Y98484375D01*
X78012632Y98492932D01*
X78031617Y98500448D01*
X78069826Y98528210D01*
X78074704Y98531415D01*
X78115362Y98555458D01*
X78129802Y98569900D01*
X78144592Y98582530D01*
X78161107Y98594528D01*
X78191222Y98630933D01*
X78195126Y98635224D01*
X79130086Y99570181D01*
X79191409Y99603666D01*
X79217767Y99606500D01*
X80527638Y99606500D01*
X80527654Y99606501D01*
X80554692Y99609409D01*
X80588201Y99613011D01*
X80725204Y99664111D01*
X80842261Y99751739D01*
X80929889Y99868796D01*
X80978223Y99998385D01*
X81020093Y100054314D01*
X81085557Y100078731D01*
X81153830Y100063879D01*
X81182084Y100042728D01*
X81297917Y99926895D01*
X81491421Y99791400D01*
X81705507Y99691571D01*
X81705516Y99691567D01*
X81919000Y99634366D01*
X81919000Y100529499D01*
X82026685Y100480320D01*
X82133237Y100465000D01*
X82204763Y100465000D01*
X82311315Y100480320D01*
X82419000Y100529499D01*
X82419000Y99634367D01*
X82626635Y99690000D01*
X86421747Y99690000D01*
X86440741Y99375977D01*
X86440741Y99375972D01*
X86440742Y99375971D01*
X86497451Y99066522D01*
X86497452Y99066518D01*
X86497453Y99066514D01*
X86591039Y98766184D01*
X86591043Y98766173D01*
X86591044Y98766170D01*
X86591046Y98766165D01*
X86720163Y98479279D01*
X86879901Y98215040D01*
X86882924Y98210040D01*
X87076942Y97962395D01*
X87299394Y97739943D01*
X87547039Y97545925D01*
X87547044Y97545922D01*
X87547048Y97545919D01*
X87816279Y97383163D01*
X88103165Y97254046D01*
X88103175Y97254043D01*
X88103183Y97254040D01*
X88226427Y97215636D01*
X88403522Y97160451D01*
X88712971Y97103742D01*
X89027000Y97084747D01*
X89341029Y97103742D01*
X89650478Y97160451D01*
X89950835Y97254046D01*
X90237721Y97383163D01*
X90506952Y97545919D01*
X90522512Y97558109D01*
X90654082Y97661188D01*
X90754602Y97739940D01*
X90977060Y97962398D01*
X91120105Y98144982D01*
X91171075Y98210040D01*
X91171075Y98210042D01*
X91171081Y98210048D01*
X91333837Y98479279D01*
X91462954Y98766165D01*
X91556549Y99066522D01*
X91613258Y99375971D01*
X91632253Y99690000D01*
X91613258Y100004029D01*
X91556549Y100313478D01*
X91509333Y100465000D01*
X91462960Y100613817D01*
X91462956Y100613828D01*
X91462954Y100613835D01*
X91333837Y100900721D01*
X91171081Y101169952D01*
X91171078Y101169956D01*
X91171075Y101169961D01*
X90977057Y101417606D01*
X90754605Y101640058D01*
X90506960Y101834076D01*
X90503655Y101836074D01*
X90237721Y101996837D01*
X89950835Y102125954D01*
X89950830Y102125956D01*
X89950827Y102125957D01*
X89950816Y102125961D01*
X89650486Y102219547D01*
X89650482Y102219548D01*
X89650478Y102219549D01*
X89341029Y102276258D01*
X89341028Y102276259D01*
X89341023Y102276259D01*
X89027000Y102295253D01*
X88712976Y102276259D01*
X88712971Y102276258D01*
X88403522Y102219549D01*
X88403519Y102219549D01*
X88403513Y102219547D01*
X88103183Y102125961D01*
X88103172Y102125957D01*
X88103166Y102125955D01*
X88103165Y102125954D01*
X88078826Y102115000D01*
X87820450Y101998714D01*
X87816279Y101996837D01*
X87753580Y101958934D01*
X87547039Y101834076D01*
X87299394Y101640058D01*
X87076942Y101417606D01*
X86882924Y101169961D01*
X86772528Y100987344D01*
X86723185Y100905719D01*
X86720162Y100900719D01*
X86720161Y100900717D01*
X86669201Y100787489D01*
X86600213Y100634202D01*
X86591043Y100613828D01*
X86591039Y100613817D01*
X86497453Y100313487D01*
X86497451Y100313481D01*
X86497451Y100313478D01*
X86473555Y100183082D01*
X86440741Y100004024D01*
X86421747Y99690000D01*
X82626635Y99690000D01*
X82632483Y99691567D01*
X82632492Y99691571D01*
X82846578Y99791400D01*
X83040082Y99926895D01*
X83207105Y100093918D01*
X83342600Y100287422D01*
X83442429Y100501508D01*
X83442432Y100501514D01*
X83499636Y100715000D01*
X82602686Y100715000D01*
X82628493Y100755156D01*
X82669000Y100893111D01*
X82669000Y101036889D01*
X82628493Y101174844D01*
X82602686Y101215000D01*
X83499636Y101215000D01*
X83499635Y101215001D01*
X83442432Y101428487D01*
X83442429Y101428493D01*
X83342600Y101642578D01*
X83342599Y101642580D01*
X83207113Y101836074D01*
X83207108Y101836080D01*
X83040082Y102003106D01*
X82846578Y102138601D01*
X82632492Y102238430D01*
X82632486Y102238433D01*
X82419000Y102295636D01*
X82419000Y101400502D01*
X82311315Y101449680D01*
X82204763Y101465000D01*
X82133237Y101465000D01*
X82026685Y101449680D01*
X81919000Y101400502D01*
X81919000Y102295636D01*
X81918999Y102295636D01*
X81705513Y102238433D01*
X81705507Y102238430D01*
X81491422Y102138601D01*
X81491420Y102138600D01*
X81297926Y102003114D01*
X81182084Y101887272D01*
X81120761Y101853788D01*
X81051069Y101858772D01*
X80995136Y101900644D01*
X80978223Y101931616D01*
X80929889Y102061204D01*
X80842261Y102178261D01*
X80725204Y102265889D01*
X80723024Y102266702D01*
X80588203Y102316989D01*
X80527654Y102323500D01*
X80527638Y102323500D01*
X78730362Y102323500D01*
X78730345Y102323500D01*
X78669797Y102316989D01*
X78669795Y102316989D01*
X78532795Y102265889D01*
X78415739Y102178261D01*
X78328111Y102061205D01*
X78277011Y101924205D01*
X78277011Y101924203D01*
X78270500Y101863655D01*
X78270500Y100553767D01*
X78250815Y100486728D01*
X78234181Y100466086D01*
X77497914Y99729819D01*
X77436591Y99696334D01*
X77410233Y99693500D01*
X75226039Y99693500D01*
X75159000Y99713185D01*
X75113245Y99765989D01*
X75103301Y99835147D01*
X75132326Y99898703D01*
X75154916Y99919075D01*
X75166080Y99926893D01*
X75333105Y100093918D01*
X75468600Y100287422D01*
X75568429Y100501508D01*
X75568432Y100501514D01*
X75625636Y100715000D01*
X74728686Y100715000D01*
X74754493Y100755156D01*
X74795000Y100893111D01*
X74795000Y101036889D01*
X74754493Y101174844D01*
X74728686Y101215000D01*
X75625636Y101215000D01*
X75625635Y101215001D01*
X75568432Y101428487D01*
X75568429Y101428493D01*
X75468600Y101642578D01*
X75468599Y101642580D01*
X75333113Y101836074D01*
X75333108Y101836080D01*
X75166082Y102003106D01*
X74972578Y102138601D01*
X74758492Y102238430D01*
X74758486Y102238433D01*
X74545000Y102295636D01*
X74545000Y101400502D01*
X74437315Y101449680D01*
X74330763Y101465000D01*
X74259237Y101465000D01*
X74152685Y101449680D01*
X74045000Y101400502D01*
X74045000Y102295636D01*
X74044999Y102295636D01*
X73831513Y102238433D01*
X73831507Y102238430D01*
X73617422Y102138601D01*
X73617420Y102138600D01*
X73423926Y102003114D01*
X73308084Y101887272D01*
X73246761Y101853788D01*
X73177069Y101858772D01*
X73121136Y101900644D01*
X73104223Y101931616D01*
X73055889Y102061204D01*
X72968261Y102178261D01*
X72851204Y102265889D01*
X72849024Y102266702D01*
X72714203Y102316989D01*
X72653654Y102323500D01*
X72653638Y102323500D01*
X70856362Y102323500D01*
X70856345Y102323500D01*
X70795797Y102316989D01*
X70795795Y102316989D01*
X70658795Y102265889D01*
X70541739Y102178261D01*
X70454111Y102061205D01*
X70403011Y101924205D01*
X70403011Y101924203D01*
X70396500Y101863655D01*
X70396500Y100553767D01*
X70376815Y100486728D01*
X70360181Y100466086D01*
X70131914Y100237819D01*
X70070591Y100204334D01*
X70044233Y100201500D01*
X50381028Y100201500D01*
X50313989Y100221185D01*
X50268234Y100273989D01*
X50258290Y100343147D01*
X50262643Y100362392D01*
X50270591Y100387898D01*
X50277000Y100458428D01*
X50277000Y100715000D01*
X49401624Y100715000D01*
X49474545Y100729505D01*
X49557240Y100784760D01*
X49612495Y100867455D01*
X49631898Y100965000D01*
X49612495Y101062545D01*
X49557240Y101145240D01*
X49474545Y101200495D01*
X49401624Y101215000D01*
X49352376Y101215000D01*
X49279455Y101200495D01*
X49196760Y101145240D01*
X49141505Y101062545D01*
X49127000Y100989624D01*
X49127000Y102115000D01*
X49627000Y102115000D01*
X49627000Y101215000D01*
X50276999Y101215000D01*
X50276999Y101471583D01*
X50270591Y101542103D01*
X50270590Y101542108D01*
X50220018Y101704397D01*
X50132072Y101849878D01*
X50011877Y101970073D01*
X49866395Y102058020D01*
X49866396Y102058020D01*
X49704105Y102108591D01*
X49704106Y102108591D01*
X49633572Y102115000D01*
X49627000Y102115000D01*
X49127000Y102115000D01*
X49126999Y102115001D01*
X49120436Y102115000D01*
X49120417Y102114999D01*
X49049897Y102108592D01*
X49049892Y102108591D01*
X48887602Y102058019D01*
X48753200Y101976770D01*
X48685645Y101958934D01*
X48619171Y101980452D01*
X48616164Y101982569D01*
X48596526Y101996837D01*
X48583752Y102006118D01*
X48409288Y102083794D01*
X48409286Y102083795D01*
X48222487Y102123500D01*
X48031513Y102123500D01*
X47844714Y102083795D01*
X47670246Y102006117D01*
X47574886Y101936833D01*
X47509079Y101913353D01*
X47441025Y101929178D01*
X47429114Y101936833D01*
X47346526Y101996837D01*
X47333752Y102006118D01*
X47159288Y102083794D01*
X47159286Y102083795D01*
X46972487Y102123500D01*
X46781513Y102123500D01*
X46594714Y102083795D01*
X46420246Y102006117D01*
X46324886Y101936833D01*
X46259079Y101913353D01*
X46191025Y101929178D01*
X46179114Y101936833D01*
X46096526Y101996837D01*
X46083752Y102006118D01*
X45909288Y102083794D01*
X45909286Y102083795D01*
X45722487Y102123500D01*
X45531513Y102123500D01*
X45344714Y102083795D01*
X45170246Y102006117D01*
X45074886Y101936833D01*
X45009079Y101913353D01*
X44941025Y101929178D01*
X44929114Y101936833D01*
X44846526Y101996837D01*
X44833752Y102006118D01*
X44659288Y102083794D01*
X44659286Y102083795D01*
X44472487Y102123500D01*
X44281513Y102123500D01*
X44094714Y102083795D01*
X43920246Y102006117D01*
X43824886Y101936833D01*
X43759079Y101913353D01*
X43691025Y101929178D01*
X43679114Y101936833D01*
X43596526Y101996837D01*
X43583752Y102006118D01*
X43409288Y102083794D01*
X43409286Y102083795D01*
X43222487Y102123500D01*
X43031513Y102123500D01*
X42844714Y102083795D01*
X42670246Y102006117D01*
X42574886Y101936833D01*
X42509079Y101913353D01*
X42441025Y101929178D01*
X42429114Y101936833D01*
X42346526Y101996837D01*
X42333752Y102006118D01*
X42159288Y102083794D01*
X42159286Y102083795D01*
X41972487Y102123500D01*
X41781513Y102123500D01*
X41594714Y102083795D01*
X41420246Y102006117D01*
X41324886Y101936833D01*
X41259079Y101913353D01*
X41191025Y101929178D01*
X41179114Y101936833D01*
X41096526Y101996837D01*
X41083752Y102006118D01*
X40909288Y102083794D01*
X40909286Y102083795D01*
X40722487Y102123500D01*
X40531513Y102123500D01*
X40344714Y102083795D01*
X40170246Y102006117D01*
X40074886Y101936833D01*
X40009079Y101913353D01*
X39941025Y101929178D01*
X39929114Y101936833D01*
X39846526Y101996837D01*
X39833752Y102006118D01*
X39659288Y102083794D01*
X39659286Y102083795D01*
X39472487Y102123500D01*
X39281513Y102123500D01*
X39094714Y102083795D01*
X38920246Y102006117D01*
X38824886Y101936833D01*
X38759079Y101913353D01*
X38691025Y101929178D01*
X38679114Y101936833D01*
X38596526Y101996837D01*
X38583752Y102006118D01*
X38409288Y102083794D01*
X38409286Y102083795D01*
X38222487Y102123500D01*
X38031513Y102123500D01*
X37844714Y102083795D01*
X37670246Y102006117D01*
X37574886Y101936833D01*
X37509079Y101913353D01*
X37441025Y101929178D01*
X37429114Y101936833D01*
X37346526Y101996837D01*
X37333752Y102006118D01*
X37159288Y102083794D01*
X37159286Y102083795D01*
X36972487Y102123500D01*
X36781513Y102123500D01*
X36594714Y102083795D01*
X36420246Y102006117D01*
X36324886Y101936833D01*
X36259079Y101913353D01*
X36191025Y101929178D01*
X36179114Y101936833D01*
X36096526Y101996837D01*
X36083752Y102006118D01*
X35909288Y102083794D01*
X35909286Y102083795D01*
X35722487Y102123500D01*
X35531513Y102123500D01*
X35344714Y102083795D01*
X35170246Y102006117D01*
X35074886Y101936833D01*
X35009079Y101913353D01*
X34941025Y101929178D01*
X34929114Y101936833D01*
X34846526Y101996837D01*
X34833752Y102006118D01*
X34659288Y102083794D01*
X34659286Y102083795D01*
X34472487Y102123500D01*
X34281513Y102123500D01*
X34094714Y102083795D01*
X33920246Y102006117D01*
X33824886Y101936833D01*
X33759079Y101913353D01*
X33691025Y101929178D01*
X33679114Y101936833D01*
X33596526Y101996837D01*
X33583752Y102006118D01*
X33409288Y102083794D01*
X33409286Y102083795D01*
X33222487Y102123500D01*
X33031513Y102123500D01*
X32844714Y102083795D01*
X32670243Y102006116D01*
X32567654Y101931580D01*
X32501848Y101908100D01*
X32433794Y101923926D01*
X32421883Y101931580D01*
X32329477Y101998718D01*
X32156648Y102075665D01*
X32127000Y102081968D01*
X32127000Y100989624D01*
X32112495Y101062545D01*
X32057240Y101145240D01*
X31974545Y101200495D01*
X31901624Y101215000D01*
X31852376Y101215000D01*
X31779455Y101200495D01*
X31696760Y101145240D01*
X31641505Y101062545D01*
X31622102Y100965000D01*
X31641505Y100867455D01*
X31696760Y100784760D01*
X31779455Y100729505D01*
X31852376Y100715000D01*
X30977000Y100715000D01*
X30977000Y100667841D01*
X30991819Y100526846D01*
X31050278Y100346928D01*
X31050283Y100346916D01*
X31144870Y100183085D01*
X31144872Y100183082D01*
X31271460Y100042491D01*
X31271463Y100042489D01*
X31363226Y99975818D01*
X31405891Y99920487D01*
X31411870Y99850874D01*
X31379264Y99789079D01*
X31318425Y99754722D01*
X31290340Y99751500D01*
X19791050Y99751500D01*
X19724011Y99771185D01*
X19678256Y99823989D01*
X19668312Y99893147D01*
X19697337Y99956703D01*
X19703369Y99963181D01*
X19834105Y100093918D01*
X19969600Y100287422D01*
X20069429Y100501508D01*
X20069432Y100501514D01*
X20126636Y100715000D01*
X19229686Y100715000D01*
X19255493Y100755156D01*
X19296000Y100893111D01*
X19296000Y101036889D01*
X19255493Y101174844D01*
X19229686Y101215000D01*
X20126636Y101215000D01*
X30977000Y101215000D01*
X31627000Y101215000D01*
X31627000Y102081968D01*
X31597354Y102075666D01*
X31424518Y101998714D01*
X31271464Y101887513D01*
X31144872Y101746919D01*
X31144870Y101746916D01*
X31050283Y101583085D01*
X31050278Y101583073D01*
X30991819Y101403155D01*
X30977000Y101262160D01*
X30977000Y101215000D01*
X20126636Y101215000D01*
X20126635Y101215001D01*
X20069432Y101428487D01*
X20069429Y101428493D01*
X19969600Y101642578D01*
X19969599Y101642580D01*
X19834113Y101836074D01*
X19834108Y101836080D01*
X19667082Y102003106D01*
X19473578Y102138601D01*
X19259492Y102238430D01*
X19259486Y102238433D01*
X19046000Y102295636D01*
X19046000Y101400502D01*
X18938315Y101449680D01*
X18831763Y101465000D01*
X18760237Y101465000D01*
X18653685Y101449680D01*
X18546000Y101400502D01*
X18546000Y102295636D01*
X18545999Y102295636D01*
X18332513Y102238433D01*
X18332507Y102238430D01*
X18118422Y102138601D01*
X18118420Y102138600D01*
X17924926Y102003114D01*
X17924920Y102003109D01*
X17757891Y101836080D01*
X17757890Y101836078D01*
X17631131Y101655048D01*
X17576554Y101611423D01*
X17507055Y101604231D01*
X17444701Y101635753D01*
X17425752Y101658344D01*
X17331722Y101802268D01*
X17331715Y101802275D01*
X17331715Y101802277D01*
X17179243Y101967903D01*
X17179238Y101967908D01*
X17040793Y102075665D01*
X17001576Y102106189D01*
X17001575Y102106190D01*
X17001572Y102106192D01*
X16803580Y102213339D01*
X16803577Y102213341D01*
X16803574Y102213342D01*
X16803571Y102213343D01*
X16803569Y102213344D01*
X16590637Y102286444D01*
X16368569Y102323500D01*
X16143431Y102323500D01*
X15921362Y102286444D01*
X15708430Y102213344D01*
X15708422Y102213341D01*
X15662696Y102188595D01*
X15594367Y102174001D01*
X15528996Y102198665D01*
X15496949Y102234529D01*
X15490542Y102245363D01*
X15476108Y102259797D01*
X15463469Y102274594D01*
X15462260Y102276258D01*
X15451472Y102291107D01*
X15446460Y102295253D01*
X15415084Y102321210D01*
X15410762Y102325143D01*
X15189086Y102546819D01*
X15155601Y102608142D01*
X15160585Y102677834D01*
X15202457Y102733767D01*
X15267921Y102758184D01*
X15276767Y102758500D01*
X92093500Y102758500D01*
X92160539Y102738815D01*
X92206294Y102686011D01*
X92217500Y102634500D01*
X92217500Y88915326D01*
X92214857Y88828889D01*
X92214857Y88828883D01*
X92225839Y88765708D01*
X92226437Y88761363D01*
X92232925Y88697567D01*
X92232927Y88697558D01*
X92242374Y88667445D01*
X92244301Y88659500D01*
X92246868Y88644740D01*
X92249707Y88628413D01*
X92273182Y88568734D01*
X92274642Y88564600D01*
X92293841Y88503411D01*
X92309153Y88475824D01*
X92312643Y88468425D01*
X92324196Y88439058D01*
X92359208Y88385322D01*
X92361472Y88381563D01*
X92392590Y88325499D01*
X92413145Y88301556D01*
X92418054Y88295010D01*
X92435281Y88268571D01*
X92480398Y88222980D01*
X92483351Y88219776D01*
X92503321Y88196513D01*
X92525128Y88171111D01*
X92525131Y88171109D01*
X92525134Y88171105D01*
X92550094Y88151784D01*
X92556207Y88146372D01*
X116311639Y64140883D01*
X116344803Y64079386D01*
X116347500Y64053663D01*
X116347500Y1124500D01*
X116327815Y1057461D01*
X116275011Y1011706D01*
X116223500Y1000500D01*
X1124500Y1000500D01*
X1057461Y1020185D01*
X1011706Y1072989D01*
X1000500Y1124500D01*
X1000500Y4064000D01*
X1331747Y4064000D01*
X1350741Y3749977D01*
X1350741Y3749972D01*
X1350742Y3749971D01*
X1407451Y3440522D01*
X1407452Y3440518D01*
X1407453Y3440514D01*
X1501039Y3140184D01*
X1501043Y3140173D01*
X1501044Y3140170D01*
X1501046Y3140165D01*
X1630163Y2853279D01*
X1786386Y2594855D01*
X1792924Y2584040D01*
X1986942Y2336395D01*
X2209394Y2113943D01*
X2457039Y1919925D01*
X2457044Y1919922D01*
X2457048Y1919919D01*
X2726279Y1757163D01*
X3013165Y1628046D01*
X3013175Y1628043D01*
X3013183Y1628040D01*
X3105154Y1599381D01*
X3313522Y1534451D01*
X3622971Y1477742D01*
X3937000Y1458747D01*
X4251029Y1477742D01*
X4560478Y1534451D01*
X4860835Y1628046D01*
X5147721Y1757163D01*
X5416952Y1919919D01*
X5664602Y2113940D01*
X5887060Y2336398D01*
X5970107Y2442400D01*
X29125001Y2442400D01*
X29125001Y2185818D01*
X29131408Y2115298D01*
X29131409Y2115293D01*
X29181981Y1953004D01*
X29269927Y1807523D01*
X29390122Y1687328D01*
X29535604Y1599381D01*
X29535603Y1599381D01*
X29697894Y1548810D01*
X29697893Y1548810D01*
X29768408Y1542402D01*
X29768426Y1542401D01*
X29774999Y1542402D01*
X29775000Y1542402D01*
X29775000Y2442400D01*
X29125001Y2442400D01*
X5970107Y2442400D01*
X6024760Y2512160D01*
X6081075Y2584040D01*
X6081075Y2584042D01*
X6081081Y2584048D01*
X6146582Y2692400D01*
X29770102Y2692400D01*
X29789505Y2594855D01*
X29844760Y2512160D01*
X29927455Y2456905D01*
X30000376Y2442400D01*
X30049624Y2442400D01*
X30122545Y2456905D01*
X30205240Y2512160D01*
X30260495Y2594855D01*
X30275000Y2667777D01*
X30275000Y1542401D01*
X30281581Y1542401D01*
X30352102Y1548809D01*
X30352107Y1548810D01*
X30514396Y1599382D01*
X30648799Y1680631D01*
X30716353Y1698467D01*
X30782827Y1676950D01*
X30785813Y1674848D01*
X30818248Y1651282D01*
X30992712Y1573606D01*
X31179513Y1533900D01*
X31370487Y1533900D01*
X31557288Y1573606D01*
X31731752Y1651282D01*
X31827114Y1720568D01*
X31892920Y1744048D01*
X31960974Y1728223D01*
X31972886Y1720567D01*
X32068242Y1651286D01*
X32068243Y1651285D01*
X32068245Y1651284D01*
X32068248Y1651282D01*
X32242712Y1573606D01*
X32429513Y1533900D01*
X32620487Y1533900D01*
X32807288Y1573606D01*
X32981752Y1651282D01*
X33077114Y1720568D01*
X33142920Y1744048D01*
X33210974Y1728223D01*
X33222886Y1720567D01*
X33318242Y1651286D01*
X33318243Y1651285D01*
X33318245Y1651284D01*
X33318248Y1651282D01*
X33492712Y1573606D01*
X33679513Y1533900D01*
X33870487Y1533900D01*
X34057288Y1573606D01*
X34231752Y1651282D01*
X34327114Y1720568D01*
X34392920Y1744048D01*
X34460974Y1728223D01*
X34472886Y1720567D01*
X34568242Y1651286D01*
X34568243Y1651285D01*
X34568245Y1651284D01*
X34568248Y1651282D01*
X34742712Y1573606D01*
X34929513Y1533900D01*
X35120487Y1533900D01*
X35307288Y1573606D01*
X35481752Y1651282D01*
X35577114Y1720568D01*
X35642920Y1744048D01*
X35710974Y1728223D01*
X35722886Y1720567D01*
X35818242Y1651286D01*
X35818243Y1651285D01*
X35818245Y1651284D01*
X35818248Y1651282D01*
X35992712Y1573606D01*
X36179513Y1533900D01*
X36370487Y1533900D01*
X36557288Y1573606D01*
X36731752Y1651282D01*
X36827114Y1720568D01*
X36892920Y1744048D01*
X36960974Y1728223D01*
X36972886Y1720567D01*
X37068242Y1651286D01*
X37068243Y1651285D01*
X37068245Y1651284D01*
X37068248Y1651282D01*
X37242712Y1573606D01*
X37429513Y1533900D01*
X37620487Y1533900D01*
X37807288Y1573606D01*
X37981752Y1651282D01*
X38077114Y1720568D01*
X38142920Y1744048D01*
X38210974Y1728223D01*
X38222886Y1720567D01*
X38318242Y1651286D01*
X38318243Y1651285D01*
X38318245Y1651284D01*
X38318248Y1651282D01*
X38492712Y1573606D01*
X38679513Y1533900D01*
X38870487Y1533900D01*
X39057288Y1573606D01*
X39231752Y1651282D01*
X39327114Y1720568D01*
X39392920Y1744048D01*
X39460974Y1728223D01*
X39472886Y1720567D01*
X39568242Y1651286D01*
X39568243Y1651285D01*
X39568245Y1651284D01*
X39568248Y1651282D01*
X39742712Y1573606D01*
X39929513Y1533900D01*
X40120487Y1533900D01*
X40307288Y1573606D01*
X40481752Y1651282D01*
X40577114Y1720568D01*
X40642920Y1744048D01*
X40710974Y1728223D01*
X40722886Y1720567D01*
X40818242Y1651286D01*
X40818243Y1651285D01*
X40818245Y1651284D01*
X40818248Y1651282D01*
X40992712Y1573606D01*
X41179513Y1533900D01*
X41370487Y1533900D01*
X41557288Y1573606D01*
X41731752Y1651282D01*
X41827114Y1720568D01*
X41892920Y1744048D01*
X41960974Y1728223D01*
X41972886Y1720567D01*
X42068242Y1651286D01*
X42068243Y1651285D01*
X42068245Y1651284D01*
X42068248Y1651282D01*
X42242712Y1573606D01*
X42429513Y1533900D01*
X42620487Y1533900D01*
X42807288Y1573606D01*
X42981752Y1651282D01*
X43077114Y1720568D01*
X43142920Y1744048D01*
X43210974Y1728223D01*
X43222886Y1720567D01*
X43318242Y1651286D01*
X43318243Y1651285D01*
X43318245Y1651284D01*
X43318248Y1651282D01*
X43492712Y1573606D01*
X43679513Y1533900D01*
X43870487Y1533900D01*
X44057288Y1573606D01*
X44231752Y1651282D01*
X44327114Y1720568D01*
X44392920Y1744048D01*
X44460974Y1728223D01*
X44472886Y1720567D01*
X44568242Y1651286D01*
X44568243Y1651285D01*
X44568245Y1651284D01*
X44568248Y1651282D01*
X44742712Y1573606D01*
X44929513Y1533900D01*
X45120487Y1533900D01*
X45307288Y1573606D01*
X45481752Y1651282D01*
X45577114Y1720568D01*
X45642920Y1744048D01*
X45710974Y1728223D01*
X45722886Y1720567D01*
X45818242Y1651286D01*
X45818243Y1651285D01*
X45818245Y1651284D01*
X45818248Y1651282D01*
X45992712Y1573606D01*
X46179513Y1533900D01*
X46370487Y1533900D01*
X46557288Y1573606D01*
X46731752Y1651282D01*
X46834344Y1725821D01*
X46900150Y1749301D01*
X46968204Y1733476D01*
X46980116Y1725821D01*
X47072522Y1658683D01*
X47245356Y1581734D01*
X47274999Y1575434D01*
X47275000Y1575434D01*
X47275000Y2667777D01*
X47289505Y2594855D01*
X47344760Y2512160D01*
X47427455Y2456905D01*
X47500376Y2442400D01*
X47549624Y2442400D01*
X47775000Y2442400D01*
X47775000Y1575434D01*
X47804643Y1581734D01*
X47977479Y1658686D01*
X48130535Y1769888D01*
X48257127Y1910482D01*
X48257129Y1910485D01*
X48351716Y2074316D01*
X48351721Y2074328D01*
X48410180Y2254246D01*
X48425000Y2395241D01*
X48425000Y2442400D01*
X47775000Y2442400D01*
X47549624Y2442400D01*
X47622545Y2456905D01*
X47705240Y2512160D01*
X47760495Y2594855D01*
X47779898Y2692400D01*
X47760495Y2789945D01*
X47705240Y2872640D01*
X47622545Y2927895D01*
X47549624Y2942400D01*
X47500376Y2942400D01*
X47427455Y2927895D01*
X47344760Y2872640D01*
X47289505Y2789945D01*
X47275000Y2717024D01*
X47275000Y3809368D01*
X47775000Y3809368D01*
X47775000Y2942400D01*
X48425000Y2942400D01*
X48425000Y2989560D01*
X48410180Y3130555D01*
X48351721Y3310473D01*
X48351716Y3310485D01*
X48257129Y3474316D01*
X48257127Y3474319D01*
X48130539Y3614910D01*
X48130536Y3614912D01*
X47977477Y3726118D01*
X47804648Y3803065D01*
X47775000Y3809368D01*
X47275000Y3809368D01*
X47245354Y3803066D01*
X47072519Y3726114D01*
X46980115Y3658979D01*
X46914308Y3635500D01*
X46846254Y3651326D01*
X46834344Y3658980D01*
X46827114Y3664233D01*
X46731752Y3733518D01*
X46557288Y3811194D01*
X46557286Y3811195D01*
X46370487Y3850900D01*
X46179513Y3850900D01*
X45992714Y3811195D01*
X45818246Y3733517D01*
X45722886Y3664233D01*
X45657079Y3640753D01*
X45589025Y3656578D01*
X45577114Y3664233D01*
X45481752Y3733518D01*
X45307288Y3811194D01*
X45307286Y3811195D01*
X45120487Y3850900D01*
X44929513Y3850900D01*
X44742714Y3811195D01*
X44568246Y3733517D01*
X44472886Y3664233D01*
X44407079Y3640753D01*
X44339025Y3656578D01*
X44327114Y3664233D01*
X44231752Y3733518D01*
X44057288Y3811194D01*
X44057286Y3811195D01*
X43870487Y3850900D01*
X43679513Y3850900D01*
X43492714Y3811195D01*
X43318246Y3733517D01*
X43222886Y3664233D01*
X43157079Y3640753D01*
X43089025Y3656578D01*
X43077114Y3664233D01*
X42981752Y3733518D01*
X42807288Y3811194D01*
X42807286Y3811195D01*
X42620487Y3850900D01*
X42429513Y3850900D01*
X42242714Y3811195D01*
X42068246Y3733517D01*
X41972886Y3664233D01*
X41907079Y3640753D01*
X41839025Y3656578D01*
X41827114Y3664233D01*
X41731752Y3733518D01*
X41557288Y3811194D01*
X41557286Y3811195D01*
X41370487Y3850900D01*
X41179513Y3850900D01*
X40992714Y3811195D01*
X40818246Y3733517D01*
X40722886Y3664233D01*
X40657079Y3640753D01*
X40589025Y3656578D01*
X40577114Y3664233D01*
X40481752Y3733518D01*
X40307288Y3811194D01*
X40307286Y3811195D01*
X40120487Y3850900D01*
X39929513Y3850900D01*
X39742714Y3811195D01*
X39568246Y3733517D01*
X39472886Y3664233D01*
X39407079Y3640753D01*
X39339025Y3656578D01*
X39327114Y3664233D01*
X39231752Y3733518D01*
X39057288Y3811194D01*
X39057286Y3811195D01*
X38870487Y3850900D01*
X38679513Y3850900D01*
X38492714Y3811195D01*
X38318246Y3733517D01*
X38222886Y3664233D01*
X38157079Y3640753D01*
X38089025Y3656578D01*
X38077114Y3664233D01*
X37981752Y3733518D01*
X37807288Y3811194D01*
X37807286Y3811195D01*
X37620487Y3850900D01*
X37429513Y3850900D01*
X37242714Y3811195D01*
X37068246Y3733517D01*
X36972886Y3664233D01*
X36907079Y3640753D01*
X36839025Y3656578D01*
X36827114Y3664233D01*
X36731752Y3733518D01*
X36557288Y3811194D01*
X36557286Y3811195D01*
X36370487Y3850900D01*
X36179513Y3850900D01*
X35992714Y3811195D01*
X35818246Y3733517D01*
X35722886Y3664233D01*
X35657079Y3640753D01*
X35589025Y3656578D01*
X35577114Y3664233D01*
X35481752Y3733518D01*
X35307288Y3811194D01*
X35307286Y3811195D01*
X35120487Y3850900D01*
X34929513Y3850900D01*
X34742714Y3811195D01*
X34568246Y3733517D01*
X34472886Y3664233D01*
X34407079Y3640753D01*
X34339025Y3656578D01*
X34327114Y3664233D01*
X34231752Y3733518D01*
X34057288Y3811194D01*
X34057286Y3811195D01*
X33870487Y3850900D01*
X33679513Y3850900D01*
X33492714Y3811195D01*
X33318246Y3733517D01*
X33222886Y3664233D01*
X33157079Y3640753D01*
X33089025Y3656578D01*
X33077114Y3664233D01*
X32981752Y3733518D01*
X32807288Y3811194D01*
X32807286Y3811195D01*
X32620487Y3850900D01*
X32429513Y3850900D01*
X32242714Y3811195D01*
X32068246Y3733517D01*
X31972886Y3664233D01*
X31907079Y3640753D01*
X31839025Y3656578D01*
X31827114Y3664233D01*
X31731752Y3733518D01*
X31557288Y3811194D01*
X31557286Y3811195D01*
X31370487Y3850900D01*
X31179513Y3850900D01*
X30992714Y3811195D01*
X30818247Y3733519D01*
X30785833Y3709968D01*
X30720027Y3686489D01*
X30651973Y3702315D01*
X30648799Y3704170D01*
X30514395Y3785420D01*
X30514396Y3785420D01*
X30352105Y3835991D01*
X30352106Y3835991D01*
X30281572Y3842400D01*
X30275000Y3842400D01*
X30275000Y2717024D01*
X30260495Y2789945D01*
X30205240Y2872640D01*
X30122545Y2927895D01*
X30049624Y2942400D01*
X30000376Y2942400D01*
X29927455Y2927895D01*
X29844760Y2872640D01*
X29789505Y2789945D01*
X29770102Y2692400D01*
X6146582Y2692400D01*
X6243837Y2853279D01*
X6283947Y2942400D01*
X29125000Y2942400D01*
X29775000Y2942400D01*
X29775000Y3842400D01*
X29774999Y3842401D01*
X29768436Y3842400D01*
X29768417Y3842399D01*
X29697897Y3835992D01*
X29697892Y3835991D01*
X29535603Y3785419D01*
X29390122Y3697473D01*
X29269927Y3577278D01*
X29181980Y3431796D01*
X29131409Y3269507D01*
X29125000Y3198973D01*
X29125000Y2942400D01*
X6283947Y2942400D01*
X6372954Y3140165D01*
X6466549Y3440522D01*
X6523258Y3749971D01*
X6542253Y4064000D01*
X6523258Y4378029D01*
X6466549Y4687478D01*
X6421897Y4830772D01*
X6372960Y4987817D01*
X6372956Y4987828D01*
X6372954Y4987835D01*
X6243837Y5274721D01*
X6081081Y5543952D01*
X6081078Y5543956D01*
X6081075Y5543961D01*
X5887057Y5791606D01*
X5664605Y6014058D01*
X5416960Y6208076D01*
X5414401Y6209623D01*
X5147721Y6370837D01*
X4860835Y6499954D01*
X4860830Y6499956D01*
X4860827Y6499957D01*
X4860816Y6499961D01*
X4560486Y6593547D01*
X4560482Y6593548D01*
X4560478Y6593549D01*
X4251029Y6650258D01*
X4251028Y6650259D01*
X4251023Y6650259D01*
X3937000Y6669253D01*
X3622976Y6650259D01*
X3563340Y6639331D01*
X3313522Y6593549D01*
X3313519Y6593549D01*
X3313513Y6593547D01*
X3013183Y6499961D01*
X3013172Y6499957D01*
X2726283Y6370839D01*
X2726281Y6370838D01*
X2457039Y6208076D01*
X2209394Y6014058D01*
X1986942Y5791606D01*
X1792924Y5543961D01*
X1694902Y5381812D01*
X1642725Y5295500D01*
X1630162Y5274719D01*
X1630161Y5274717D01*
X1501043Y4987828D01*
X1501039Y4987817D01*
X1407453Y4687487D01*
X1407451Y4687481D01*
X1407451Y4687478D01*
X1388338Y4583182D01*
X1350741Y4378024D01*
X1331747Y4064000D01*
X1000500Y4064000D01*
X1000500Y38174200D01*
X3289135Y38174200D01*
X3308993Y37352614D01*
X3368523Y36532931D01*
X3434383Y35990530D01*
X3467584Y35717097D01*
X3492060Y35573793D01*
X3564550Y35149360D01*
X3605945Y34906996D01*
X3783283Y34104526D01*
X3999184Y33311561D01*
X4253144Y32529953D01*
X4321661Y32349287D01*
X4544570Y31761522D01*
X4544571Y31761522D01*
X4753526Y31281841D01*
X4872780Y31008078D01*
X5237009Y30271366D01*
X5456659Y29876359D01*
X5636411Y29553101D01*
X5636412Y29553100D01*
X6070036Y28854992D01*
X6289784Y28536632D01*
X6536889Y28178640D01*
X6536889Y28178639D01*
X7035866Y27525641D01*
X7035872Y27525634D01*
X7035875Y27525630D01*
X7189472Y27343576D01*
X7565828Y26897489D01*
X7827825Y26615775D01*
X8125507Y26295689D01*
X8125513Y26295684D01*
X8125515Y26295681D01*
X8713615Y25721625D01*
X9328747Y25176665D01*
X9969514Y24662041D01*
X9969513Y24662041D01*
X10469812Y24298553D01*
X10512478Y24243223D01*
X10518457Y24173610D01*
X10485851Y24111815D01*
X10425013Y24077458D01*
X10355257Y24081446D01*
X10344522Y24085853D01*
X10242492Y24133430D01*
X10242486Y24133433D01*
X10029000Y24190636D01*
X10029000Y23295502D01*
X9921315Y23344680D01*
X9814763Y23360000D01*
X9743237Y23360000D01*
X9636685Y23344680D01*
X9529000Y23295502D01*
X9529000Y24190636D01*
X9528999Y24190636D01*
X9315513Y24133433D01*
X9315507Y24133430D01*
X9101422Y24033601D01*
X9101420Y24033600D01*
X8907926Y23898114D01*
X8792084Y23782272D01*
X8730761Y23748788D01*
X8661069Y23753772D01*
X8605136Y23795644D01*
X8588223Y23826616D01*
X8539889Y23956204D01*
X8534739Y23963083D01*
X8489843Y24023057D01*
X8452261Y24073261D01*
X8335204Y24160889D01*
X8198203Y24211989D01*
X8137654Y24218500D01*
X8137638Y24218500D01*
X6340362Y24218500D01*
X6340345Y24218500D01*
X6279797Y24211989D01*
X6279795Y24211989D01*
X6142795Y24160889D01*
X6025739Y24073261D01*
X5938111Y23956205D01*
X5887011Y23819205D01*
X5887011Y23819203D01*
X5880500Y23758655D01*
X5880500Y21961346D01*
X5887011Y21900798D01*
X5887011Y21900796D01*
X5919609Y21813400D01*
X5938111Y21763796D01*
X6025739Y21646739D01*
X6142796Y21559111D01*
X6279799Y21508011D01*
X6307050Y21505082D01*
X6340345Y21501501D01*
X6340362Y21501500D01*
X8137638Y21501500D01*
X8137654Y21501501D01*
X8164692Y21504409D01*
X8198201Y21508011D01*
X8335204Y21559111D01*
X8452261Y21646739D01*
X8539889Y21763796D01*
X8588223Y21893385D01*
X8630093Y21949314D01*
X8695557Y21973731D01*
X8763830Y21958879D01*
X8792084Y21937728D01*
X8907917Y21821895D01*
X9101421Y21686400D01*
X9315507Y21586571D01*
X9315516Y21586567D01*
X9529000Y21529366D01*
X9529000Y22424499D01*
X9636685Y22375320D01*
X9743237Y22360000D01*
X9814763Y22360000D01*
X9921315Y22375320D01*
X10029000Y22424499D01*
X10029000Y21529367D01*
X10242483Y21586567D01*
X10242492Y21586571D01*
X10456578Y21686400D01*
X10650082Y21821895D01*
X10817105Y21988918D01*
X10952600Y22182422D01*
X11052429Y22396508D01*
X11052432Y22396514D01*
X11109636Y22610000D01*
X10212686Y22610000D01*
X10238493Y22650156D01*
X10279000Y22788111D01*
X10279000Y22931889D01*
X10238493Y23069844D01*
X10212686Y23110000D01*
X11109636Y23110000D01*
X11109635Y23110001D01*
X11052432Y23323487D01*
X11052429Y23323493D01*
X10952600Y23537578D01*
X10952599Y23537580D01*
X10817113Y23731074D01*
X10817108Y23731080D01*
X10716120Y23832068D01*
X10682635Y23893391D01*
X10687619Y23963083D01*
X10729491Y24019016D01*
X10794955Y24043433D01*
X10863228Y24028581D01*
X10871749Y24023475D01*
X11321832Y23728603D01*
X11321843Y23728597D01*
X11321850Y23728592D01*
X11794694Y23450493D01*
X12030226Y23311967D01*
X12351587Y23143304D01*
X12757923Y22930042D01*
X12757922Y22930043D01*
X13503226Y22583719D01*
X14015072Y22375320D01*
X14264379Y22273814D01*
X15039622Y22001042D01*
X15827139Y21766043D01*
X16625089Y21569365D01*
X17431610Y21411470D01*
X18244818Y21292724D01*
X18244824Y21292724D01*
X18244834Y21292722D01*
X19062813Y21213406D01*
X19062812Y21213406D01*
X19883676Y21173700D01*
X19883684Y21173700D01*
X20705524Y21173700D01*
X21526388Y21213406D01*
X21526387Y21213406D01*
X22344366Y21292722D01*
X22344375Y21292724D01*
X22344382Y21292724D01*
X23157590Y21411470D01*
X23964111Y21569365D01*
X24762061Y21766043D01*
X25549578Y22001042D01*
X26324821Y22273814D01*
X26574128Y22375320D01*
X27085974Y22583719D01*
X27831278Y22930043D01*
X27831277Y22930042D01*
X28237612Y23143304D01*
X28558974Y23311967D01*
X28794506Y23450493D01*
X29267350Y23728592D01*
X29267356Y23728597D01*
X29267368Y23728603D01*
X29954805Y24178977D01*
X29954807Y24178979D01*
X29954807Y24178978D01*
X30619687Y24662041D01*
X30619686Y24662041D01*
X31260453Y25176665D01*
X31875585Y25721625D01*
X32463685Y26295681D01*
X32463686Y26295684D01*
X32463693Y26295689D01*
X32761375Y26615775D01*
X33023372Y26897489D01*
X33399727Y27343576D01*
X33553325Y27525630D01*
X33553327Y27525634D01*
X33553334Y27525641D01*
X34052311Y28178639D01*
X34052311Y28178640D01*
X34299416Y28536632D01*
X34519164Y28854992D01*
X34952788Y29553100D01*
X34952789Y29553101D01*
X35132541Y29876359D01*
X35352191Y30271366D01*
X35716420Y31008078D01*
X35835674Y31281841D01*
X36044629Y31761522D01*
X36044630Y31761522D01*
X36267538Y32349287D01*
X36336056Y32529953D01*
X36590016Y33311561D01*
X36805917Y34104526D01*
X36983255Y34906996D01*
X37024650Y35149360D01*
X37097140Y35573793D01*
X37121616Y35717097D01*
X37154817Y35990530D01*
X37220677Y36532931D01*
X37280207Y37352614D01*
X37300065Y38174200D01*
X37280207Y38995786D01*
X37220677Y39815469D01*
X37124687Y40606011D01*
X37121616Y40631303D01*
X37016952Y41244111D01*
X36983256Y41441399D01*
X36805916Y42243879D01*
X36590016Y43036839D01*
X36438160Y43504203D01*
X36336058Y43818441D01*
X36325648Y43845889D01*
X36198631Y44180808D01*
X36044630Y44586878D01*
X36044629Y44586878D01*
X35716420Y45340322D01*
X35352196Y46077024D01*
X35352195Y46077025D01*
X35352191Y46077034D01*
X34952795Y46795288D01*
X34952789Y46795299D01*
X34952788Y46795300D01*
X34774861Y47081751D01*
X34519164Y47493408D01*
X34052310Y48169762D01*
X33735798Y48583973D01*
X33553334Y48822759D01*
X33023372Y49450911D01*
X32617782Y49887025D01*
X32463693Y50052711D01*
X31875591Y50626769D01*
X31875585Y50626775D01*
X31260453Y51171735D01*
X30688914Y51630759D01*
X30619686Y51686359D01*
X30619687Y51686359D01*
X29954807Y52169422D01*
X29954805Y52169423D01*
X29267368Y52619797D01*
X29267356Y52619804D01*
X29267350Y52619808D01*
X28558979Y53036430D01*
X28558974Y53036433D01*
X28148407Y53251915D01*
X27831277Y53418358D01*
X27831278Y53418357D01*
X27085974Y53764681D01*
X26324833Y54074581D01*
X26324835Y54074581D01*
X26324821Y54074586D01*
X25549578Y54347358D01*
X24762061Y54582357D01*
X23964111Y54779035D01*
X23157590Y54936930D01*
X22344382Y55055676D01*
X22344375Y55055677D01*
X22344366Y55055678D01*
X21526387Y55134994D01*
X21526388Y55134994D01*
X20705524Y55174700D01*
X20705516Y55174700D01*
X19883684Y55174700D01*
X19883676Y55174700D01*
X19062812Y55134994D01*
X19062813Y55134994D01*
X18244834Y55055678D01*
X18244824Y55055677D01*
X18244818Y55055676D01*
X17431610Y54936930D01*
X16625089Y54779035D01*
X15827139Y54582357D01*
X15039622Y54347358D01*
X14264379Y54074586D01*
X14264367Y54074581D01*
X13503226Y53764681D01*
X12757922Y53418357D01*
X12757923Y53418358D01*
X12440793Y53251915D01*
X12030226Y53036433D01*
X12030221Y53036430D01*
X11321850Y52619808D01*
X11321843Y52619804D01*
X11321832Y52619797D01*
X10634395Y52169423D01*
X10634393Y52169422D01*
X9969513Y51686359D01*
X9969514Y51686359D01*
X9900286Y51630759D01*
X9328747Y51171735D01*
X8713615Y50626775D01*
X8713609Y50626769D01*
X8125507Y50052711D01*
X7971418Y49887025D01*
X7565828Y49450911D01*
X7035866Y48822759D01*
X6853402Y48583973D01*
X6536890Y48169762D01*
X6070036Y47493408D01*
X5814338Y47081751D01*
X5636412Y46795300D01*
X5636411Y46795299D01*
X5636405Y46795288D01*
X5237009Y46077034D01*
X5237004Y46077025D01*
X5237004Y46077024D01*
X4872780Y45340322D01*
X4544571Y44586878D01*
X4544570Y44586878D01*
X4390569Y44180808D01*
X4263552Y43845889D01*
X4253142Y43818441D01*
X4151040Y43504203D01*
X3999184Y43036839D01*
X3783284Y42243879D01*
X3605944Y41441399D01*
X3572248Y41244111D01*
X3467584Y40631303D01*
X3464513Y40606011D01*
X3368523Y39815469D01*
X3308993Y38995786D01*
X3289135Y38174200D01*
X1000500Y38174200D01*
X1000500Y99695000D01*
X1331747Y99695000D01*
X1350741Y99380977D01*
X1350741Y99380972D01*
X1350742Y99380971D01*
X1407451Y99071522D01*
X1407452Y99071518D01*
X1407453Y99071514D01*
X1501039Y98771184D01*
X1501043Y98771173D01*
X1501044Y98771170D01*
X1501046Y98771165D01*
X1630163Y98484279D01*
X1792919Y98215048D01*
X1792924Y98215040D01*
X1986942Y97967395D01*
X2209394Y97744943D01*
X2457039Y97550925D01*
X2457044Y97550922D01*
X2457048Y97550919D01*
X2726279Y97388163D01*
X3013165Y97259046D01*
X3013175Y97259043D01*
X3013183Y97259040D01*
X3170402Y97210049D01*
X3313522Y97165451D01*
X3622971Y97108742D01*
X3937000Y97089747D01*
X4251029Y97108742D01*
X4560478Y97165451D01*
X4844783Y97254044D01*
X4860816Y97259040D01*
X4860817Y97259041D01*
X4860835Y97259046D01*
X5147721Y97388163D01*
X5416952Y97550919D01*
X5426130Y97558109D01*
X5557700Y97661188D01*
X5664602Y97744940D01*
X5887060Y97967398D01*
X6032863Y98153502D01*
X6081075Y98215040D01*
X6081075Y98215042D01*
X6081081Y98215048D01*
X6243837Y98484279D01*
X6372954Y98771165D01*
X6466549Y99071522D01*
X6523258Y99380971D01*
X6542253Y99695000D01*
X6523258Y100009029D01*
X6466549Y100318478D01*
X6420891Y100465000D01*
X6372960Y100618817D01*
X6372956Y100618828D01*
X6372954Y100618835D01*
X6243837Y100905721D01*
X6081081Y101174952D01*
X6081078Y101174956D01*
X6081075Y101174961D01*
X5887057Y101422606D01*
X5664605Y101645058D01*
X5416960Y101839076D01*
X5416952Y101839081D01*
X5147721Y102001837D01*
X4860835Y102130954D01*
X4860830Y102130956D01*
X4860827Y102130957D01*
X4860816Y102130961D01*
X4560486Y102224547D01*
X4560482Y102224548D01*
X4560478Y102224549D01*
X4251029Y102281258D01*
X4251028Y102281259D01*
X4251023Y102281259D01*
X3937000Y102300253D01*
X3622976Y102281259D01*
X3595687Y102276258D01*
X3313522Y102224549D01*
X3313519Y102224549D01*
X3313513Y102224547D01*
X3013183Y102130961D01*
X3013172Y102130957D01*
X3013166Y102130955D01*
X3013165Y102130954D01*
X2958137Y102106188D01*
X2729099Y102003106D01*
X2726279Y102001837D01*
X2718010Y101996838D01*
X2457039Y101839076D01*
X2209394Y101645058D01*
X1986942Y101422606D01*
X1792924Y101174961D01*
X1709457Y101036889D01*
X1665999Y100965000D01*
X1630162Y100905719D01*
X1630161Y100905717D01*
X1501043Y100618828D01*
X1501039Y100618817D01*
X1407453Y100318487D01*
X1407451Y100318481D01*
X1407451Y100318478D01*
X1366299Y100093922D01*
X1350741Y100009024D01*
X1331747Y99695000D01*
X1000500Y99695000D01*
X1000500Y102634500D01*
X1020185Y102701539D01*
X1072989Y102747294D01*
X1124500Y102758500D01*
X11774233Y102758500D01*
X11841272Y102738815D01*
G37*
%TD.AperFunction*%
%TA.AperFunction,Conductor*%
G36*
X32127000Y100839000D02*
G01*
X32107315Y100771961D01*
X32054511Y100726206D01*
X32003000Y100715000D01*
X31901624Y100715000D01*
X31974545Y100729505D01*
X32057240Y100784760D01*
X32112495Y100867455D01*
X32127000Y100940377D01*
X32127000Y100839000D01*
G37*
%TD.AperFunction*%
%TA.AperFunction,Conductor*%
G36*
X49141505Y100867455D02*
G01*
X49196760Y100784760D01*
X49279455Y100729505D01*
X49352376Y100715000D01*
X49251000Y100715000D01*
X49183961Y100734685D01*
X49138206Y100787489D01*
X49127000Y100839000D01*
X49127000Y100940377D01*
X49141505Y100867455D01*
G37*
%TD.AperFunction*%
%TD*%
M02*
