M48
; DRILL file {KiCad 7.0.9} date Fri Dec 22 18:19:38 2023
; FORMAT={-:-/ absolute / inch / decimal}
; #@! TF.CreationDate,2023-12-22T18:19:38+09:00
; #@! TF.GenerationSoftware,Kicad,Pcbnew,7.0.9
; #@! TF.FileFunction,Plated,1,2,PTH
FMAT,2
INCH
; #@! TA.AperFunction,Plated,PTH,ViaDrill
T1C0.0157
; #@! TA.AperFunction,Plated,PTH,ComponentDrill
T2C0.0197
; #@! TA.AperFunction,Plated,PTH,ComponentDrill
T3C0.0394
%
G90
G05
T1
X1.28Y3.688
X1.325Y0.825
X1.425Y0.825
X1.5046Y0.8254
X1.525Y0.645
X1.59Y2.36
X1.595Y2.565
X1.61Y2.24
X1.7175Y3.5425
X1.725Y0.605
X1.774Y0.704
X1.82Y0.605
X2.775Y0.52
X4.245Y1.575
X4.245Y1.48
X4.2475Y1.6725
T2
X1.1821Y0.106
X1.2313Y0.106
X1.255Y3.975
X1.2805Y0.106
X1.3042Y3.975
X1.3297Y0.106
X1.3534Y3.975
X1.3789Y0.106
X1.4026Y3.975
X1.4281Y0.106
X1.4519Y3.975
X1.4774Y0.106
X1.5011Y3.975
X1.5266Y0.106
X1.5503Y3.975
X1.5758Y0.106
X1.5995Y3.975
X1.625Y0.106
X1.6487Y3.975
X1.6742Y0.106
X1.6979Y3.975
X1.7234Y0.106
X1.7471Y3.975
X1.7726Y0.106
X1.7963Y3.975
X1.8219Y0.106
X1.8456Y3.975
X1.8711Y0.106
X1.8948Y3.975
X1.944Y3.975
T3
X0.285Y2.4
X0.285Y0.9
X0.385Y2.4
X0.385Y0.9
X0.44Y3.975
X0.54Y3.975
X0.64Y3.975
X0.74Y3.975
X0.825Y0.28
X0.915Y3.8
X0.925Y0.28
X1.015Y3.8
X1.025Y0.28
X1.115Y3.8
X1.125Y0.28
X1.215Y3.8
X1.225Y0.28
X1.315Y3.8
X1.325Y0.28
X1.415Y3.8
X1.425Y0.28
X1.515Y3.8
X1.525Y0.28
X1.615Y3.8
X1.625Y0.28
X1.715Y3.8
X1.725Y0.28
X1.78Y2.4
X1.78Y0.905
X1.815Y3.8
X1.825Y0.28
X1.88Y2.4
X1.88Y0.905
X1.915Y3.8
X1.925Y0.28
X2.015Y3.8
X2.025Y0.28
X2.115Y3.8
X2.125Y0.28
X2.215Y3.8
X2.225Y0.28
X2.315Y3.8
X2.825Y3.975
X2.925Y3.975
X2.975Y3.775
X3.075Y3.775
X3.075Y1.655
X3.075Y0.155
X3.135Y3.975
X3.175Y1.655
X3.175Y0.155
X3.235Y3.975
X4.43Y1.675
X4.43Y1.575
X4.43Y1.475
X4.43Y1.375
X4.43Y1.275
T0
M30
