%TF.GenerationSoftware,KiCad,Pcbnew,7.0.7*%
%TF.CreationDate,2023-12-08T18:01:47+09:00*%
%TF.ProjectId,arcade_input_panel_support,61726361-6465-45f6-996e-7075745f7061,1*%
%TF.SameCoordinates,PX25c9d40PY7f6a2a0*%
%TF.FileFunction,Legend,Top*%
%TF.FilePolarity,Positive*%
%FSLAX46Y46*%
G04 Gerber Fmt 4.6, Leading zero omitted, Abs format (unit mm)*
G04 Created by KiCad (PCBNEW 7.0.7) date 2023-12-08 18:01:47*
%MOMM*%
%LPD*%
G01*
G04 APERTURE LIST*
G04 Aperture macros list*
%AMRoundRect*
0 Rectangle with rounded corners*
0 $1 Rounding radius*
0 $2 $3 $4 $5 $6 $7 $8 $9 X,Y pos of 4 corners*
0 Add a 4 corners polygon primitive as box body*
4,1,4,$2,$3,$4,$5,$6,$7,$8,$9,$2,$3,0*
0 Add four circle primitives for the rounded corners*
1,1,$1+$1,$2,$3*
1,1,$1+$1,$4,$5*
1,1,$1+$1,$6,$7*
1,1,$1+$1,$8,$9*
0 Add four rect primitives between the rounded corners*
20,1,$1+$1,$2,$3,$4,$5,0*
20,1,$1+$1,$4,$5,$6,$7,0*
20,1,$1+$1,$6,$7,$8,$9,0*
20,1,$1+$1,$8,$9,$2,$3,0*%
G04 Aperture macros list end*
%ADD10C,0.150000*%
%ADD11C,0.300000*%
%ADD12C,0.120000*%
%ADD13R,1.700000X1.700000*%
%ADD14O,1.700000X1.700000*%
%ADD15RoundRect,0.200000X-0.200000X-0.450000X0.200000X-0.450000X0.200000X0.450000X-0.200000X0.450000X0*%
%ADD16O,0.800000X1.300000*%
%ADD17RoundRect,0.200000X0.200000X0.450000X-0.200000X0.450000X-0.200000X-0.450000X0.200000X-0.450000X0*%
G04 APERTURE END LIST*
D10*
G36*
X91550064Y36996324D02*
G01*
X90495303Y36996324D01*
X90495303Y37642753D01*
X90638160Y37642753D01*
X90639345Y37639496D01*
X90640399Y37624563D01*
X90688018Y37434087D01*
X90690006Y37431143D01*
X90693697Y37418736D01*
X90741316Y37323498D01*
X90742502Y37322375D01*
X90755365Y37304006D01*
X90850603Y37208767D01*
X90854667Y37206872D01*
X90857014Y37203052D01*
X90879919Y37190649D01*
X91022775Y37143030D01*
X91024410Y37143075D01*
X91046493Y37139181D01*
X91141731Y37139181D01*
X91143269Y37139742D01*
X91165448Y37143030D01*
X91308305Y37190649D01*
X91311816Y37193437D01*
X91316285Y37193827D01*
X91337622Y37208768D01*
X91385240Y37256387D01*
X91392158Y37271225D01*
X91402684Y37283768D01*
X91405527Y37299896D01*
X91406921Y37302884D01*
X91406398Y37304835D01*
X91407207Y37309420D01*
X91407207Y37642753D01*
X91400543Y37661062D01*
X91397159Y37680253D01*
X91391974Y37684604D01*
X91389660Y37690962D01*
X91372786Y37700705D01*
X91357859Y37713230D01*
X91348116Y37714948D01*
X91345231Y37716614D01*
X91341948Y37716036D01*
X91332207Y37717753D01*
X91141731Y37717753D01*
X91093522Y37700206D01*
X91067870Y37655777D01*
X91076779Y37605253D01*
X91116079Y37572276D01*
X91141731Y37567753D01*
X91257207Y37567753D01*
X91257207Y37340486D01*
X91244074Y37327353D01*
X91129561Y37289181D01*
X91058663Y37289181D01*
X90944150Y37327352D01*
X90870037Y37401466D01*
X90831543Y37478454D01*
X90788160Y37651988D01*
X90788160Y37776376D01*
X90831543Y37949911D01*
X90870037Y38026897D01*
X90944150Y38101010D01*
X91058663Y38139181D01*
X91171645Y38139181D01*
X91251047Y38099480D01*
X91302013Y38093615D01*
X91344826Y38121881D01*
X91359453Y38171056D01*
X91339050Y38218127D01*
X91318129Y38233644D01*
X91222891Y38281263D01*
X91218437Y38281776D01*
X91215002Y38284658D01*
X91189350Y38289181D01*
X91046493Y38289181D01*
X91044955Y38288622D01*
X91022775Y38285332D01*
X90879919Y38237713D01*
X90876408Y38234927D01*
X90871940Y38234536D01*
X90850603Y38219595D01*
X90755365Y38124357D01*
X90754674Y38122876D01*
X90741316Y38104865D01*
X90693697Y38009627D01*
X90693290Y38006099D01*
X90688018Y37994276D01*
X90640399Y37803800D01*
X90640759Y37800352D01*
X90638160Y37785610D01*
X90638160Y37642753D01*
X90495303Y37642753D01*
X90495303Y38432038D01*
X91550064Y38432038D01*
X91550064Y36996324D01*
G37*
D11*
X20041082Y14343743D02*
X20755368Y14343743D01*
X19898225Y13915172D02*
X20398225Y15415172D01*
X20398225Y15415172D02*
X20898225Y13915172D01*
X21398224Y13915172D02*
X21398224Y14915172D01*
X21398224Y14772315D02*
X21469653Y14843743D01*
X21469653Y14843743D02*
X21612510Y14915172D01*
X21612510Y14915172D02*
X21826796Y14915172D01*
X21826796Y14915172D02*
X21969653Y14843743D01*
X21969653Y14843743D02*
X22041082Y14700886D01*
X22041082Y14700886D02*
X22041082Y13915172D01*
X22041082Y14700886D02*
X22112510Y14843743D01*
X22112510Y14843743D02*
X22255367Y14915172D01*
X22255367Y14915172D02*
X22469653Y14915172D01*
X22469653Y14915172D02*
X22612510Y14843743D01*
X22612510Y14843743D02*
X22683939Y14700886D01*
X22683939Y14700886D02*
X22683939Y13915172D01*
X23612510Y13915172D02*
X23469653Y13986600D01*
X23469653Y13986600D02*
X23398224Y14058029D01*
X23398224Y14058029D02*
X23326796Y14200886D01*
X23326796Y14200886D02*
X23326796Y14629458D01*
X23326796Y14629458D02*
X23398224Y14772315D01*
X23398224Y14772315D02*
X23469653Y14843743D01*
X23469653Y14843743D02*
X23612510Y14915172D01*
X23612510Y14915172D02*
X23826796Y14915172D01*
X23826796Y14915172D02*
X23969653Y14843743D01*
X23969653Y14843743D02*
X24041082Y14772315D01*
X24041082Y14772315D02*
X24112510Y14629458D01*
X24112510Y14629458D02*
X24112510Y14200886D01*
X24112510Y14200886D02*
X24041082Y14058029D01*
X24041082Y14058029D02*
X23969653Y13986600D01*
X23969653Y13986600D02*
X23826796Y13915172D01*
X23826796Y13915172D02*
X23612510Y13915172D01*
X24683939Y13986600D02*
X24826796Y13915172D01*
X24826796Y13915172D02*
X25112510Y13915172D01*
X25112510Y13915172D02*
X25255367Y13986600D01*
X25255367Y13986600D02*
X25326796Y14129458D01*
X25326796Y14129458D02*
X25326796Y14200886D01*
X25326796Y14200886D02*
X25255367Y14343743D01*
X25255367Y14343743D02*
X25112510Y14415172D01*
X25112510Y14415172D02*
X24898225Y14415172D01*
X24898225Y14415172D02*
X24755367Y14486600D01*
X24755367Y14486600D02*
X24683939Y14629458D01*
X24683939Y14629458D02*
X24683939Y14700886D01*
X24683939Y14700886D02*
X24755367Y14843743D01*
X24755367Y14843743D02*
X24898225Y14915172D01*
X24898225Y14915172D02*
X25112510Y14915172D01*
X25112510Y14915172D02*
X25255367Y14843743D01*
X27112510Y13915172D02*
X27112510Y15415172D01*
X27826796Y14915172D02*
X27826796Y13915172D01*
X27826796Y14772315D02*
X27898225Y14843743D01*
X27898225Y14843743D02*
X28041082Y14915172D01*
X28041082Y14915172D02*
X28255368Y14915172D01*
X28255368Y14915172D02*
X28398225Y14843743D01*
X28398225Y14843743D02*
X28469654Y14700886D01*
X28469654Y14700886D02*
X28469654Y13915172D01*
X29183939Y14915172D02*
X29183939Y13415172D01*
X29183939Y14843743D02*
X29326797Y14915172D01*
X29326797Y14915172D02*
X29612511Y14915172D01*
X29612511Y14915172D02*
X29755368Y14843743D01*
X29755368Y14843743D02*
X29826797Y14772315D01*
X29826797Y14772315D02*
X29898225Y14629458D01*
X29898225Y14629458D02*
X29898225Y14200886D01*
X29898225Y14200886D02*
X29826797Y14058029D01*
X29826797Y14058029D02*
X29755368Y13986600D01*
X29755368Y13986600D02*
X29612511Y13915172D01*
X29612511Y13915172D02*
X29326797Y13915172D01*
X29326797Y13915172D02*
X29183939Y13986600D01*
X31183940Y14915172D02*
X31183940Y13915172D01*
X30541082Y14915172D02*
X30541082Y14129458D01*
X30541082Y14129458D02*
X30612511Y13986600D01*
X30612511Y13986600D02*
X30755368Y13915172D01*
X30755368Y13915172D02*
X30969654Y13915172D01*
X30969654Y13915172D02*
X31112511Y13986600D01*
X31112511Y13986600D02*
X31183940Y14058029D01*
X31683940Y14915172D02*
X32255368Y14915172D01*
X31898225Y15415172D02*
X31898225Y14129458D01*
X31898225Y14129458D02*
X31969654Y13986600D01*
X31969654Y13986600D02*
X32112511Y13915172D01*
X32112511Y13915172D02*
X32255368Y13915172D01*
X33898225Y13915172D02*
X33898225Y15415172D01*
X33898225Y15415172D02*
X34469654Y15415172D01*
X34469654Y15415172D02*
X34612511Y15343743D01*
X34612511Y15343743D02*
X34683940Y15272315D01*
X34683940Y15272315D02*
X34755368Y15129458D01*
X34755368Y15129458D02*
X34755368Y14915172D01*
X34755368Y14915172D02*
X34683940Y14772315D01*
X34683940Y14772315D02*
X34612511Y14700886D01*
X34612511Y14700886D02*
X34469654Y14629458D01*
X34469654Y14629458D02*
X33898225Y14629458D01*
X36041083Y13915172D02*
X36041083Y14700886D01*
X36041083Y14700886D02*
X35969654Y14843743D01*
X35969654Y14843743D02*
X35826797Y14915172D01*
X35826797Y14915172D02*
X35541083Y14915172D01*
X35541083Y14915172D02*
X35398225Y14843743D01*
X36041083Y13986600D02*
X35898225Y13915172D01*
X35898225Y13915172D02*
X35541083Y13915172D01*
X35541083Y13915172D02*
X35398225Y13986600D01*
X35398225Y13986600D02*
X35326797Y14129458D01*
X35326797Y14129458D02*
X35326797Y14272315D01*
X35326797Y14272315D02*
X35398225Y14415172D01*
X35398225Y14415172D02*
X35541083Y14486600D01*
X35541083Y14486600D02*
X35898225Y14486600D01*
X35898225Y14486600D02*
X36041083Y14558029D01*
X36755368Y14915172D02*
X36755368Y13915172D01*
X36755368Y14772315D02*
X36826797Y14843743D01*
X36826797Y14843743D02*
X36969654Y14915172D01*
X36969654Y14915172D02*
X37183940Y14915172D01*
X37183940Y14915172D02*
X37326797Y14843743D01*
X37326797Y14843743D02*
X37398226Y14700886D01*
X37398226Y14700886D02*
X37398226Y13915172D01*
X38683940Y13986600D02*
X38541083Y13915172D01*
X38541083Y13915172D02*
X38255369Y13915172D01*
X38255369Y13915172D02*
X38112511Y13986600D01*
X38112511Y13986600D02*
X38041083Y14129458D01*
X38041083Y14129458D02*
X38041083Y14700886D01*
X38041083Y14700886D02*
X38112511Y14843743D01*
X38112511Y14843743D02*
X38255369Y14915172D01*
X38255369Y14915172D02*
X38541083Y14915172D01*
X38541083Y14915172D02*
X38683940Y14843743D01*
X38683940Y14843743D02*
X38755369Y14700886D01*
X38755369Y14700886D02*
X38755369Y14558029D01*
X38755369Y14558029D02*
X38041083Y14415172D01*
X39612511Y13915172D02*
X39469654Y13986600D01*
X39469654Y13986600D02*
X39398225Y14129458D01*
X39398225Y14129458D02*
X39398225Y15415172D01*
X41255368Y13986600D02*
X41469654Y13915172D01*
X41469654Y13915172D02*
X41826796Y13915172D01*
X41826796Y13915172D02*
X41969654Y13986600D01*
X41969654Y13986600D02*
X42041082Y14058029D01*
X42041082Y14058029D02*
X42112511Y14200886D01*
X42112511Y14200886D02*
X42112511Y14343743D01*
X42112511Y14343743D02*
X42041082Y14486600D01*
X42041082Y14486600D02*
X41969654Y14558029D01*
X41969654Y14558029D02*
X41826796Y14629458D01*
X41826796Y14629458D02*
X41541082Y14700886D01*
X41541082Y14700886D02*
X41398225Y14772315D01*
X41398225Y14772315D02*
X41326796Y14843743D01*
X41326796Y14843743D02*
X41255368Y14986600D01*
X41255368Y14986600D02*
X41255368Y15129458D01*
X41255368Y15129458D02*
X41326796Y15272315D01*
X41326796Y15272315D02*
X41398225Y15343743D01*
X41398225Y15343743D02*
X41541082Y15415172D01*
X41541082Y15415172D02*
X41898225Y15415172D01*
X41898225Y15415172D02*
X42112511Y15343743D01*
X43398225Y14915172D02*
X43398225Y13915172D01*
X42755367Y14915172D02*
X42755367Y14129458D01*
X42755367Y14129458D02*
X42826796Y13986600D01*
X42826796Y13986600D02*
X42969653Y13915172D01*
X42969653Y13915172D02*
X43183939Y13915172D01*
X43183939Y13915172D02*
X43326796Y13986600D01*
X43326796Y13986600D02*
X43398225Y14058029D01*
X44112510Y14915172D02*
X44112510Y13415172D01*
X44112510Y14843743D02*
X44255368Y14915172D01*
X44255368Y14915172D02*
X44541082Y14915172D01*
X44541082Y14915172D02*
X44683939Y14843743D01*
X44683939Y14843743D02*
X44755368Y14772315D01*
X44755368Y14772315D02*
X44826796Y14629458D01*
X44826796Y14629458D02*
X44826796Y14200886D01*
X44826796Y14200886D02*
X44755368Y14058029D01*
X44755368Y14058029D02*
X44683939Y13986600D01*
X44683939Y13986600D02*
X44541082Y13915172D01*
X44541082Y13915172D02*
X44255368Y13915172D01*
X44255368Y13915172D02*
X44112510Y13986600D01*
X45469653Y14915172D02*
X45469653Y13415172D01*
X45469653Y14843743D02*
X45612511Y14915172D01*
X45612511Y14915172D02*
X45898225Y14915172D01*
X45898225Y14915172D02*
X46041082Y14843743D01*
X46041082Y14843743D02*
X46112511Y14772315D01*
X46112511Y14772315D02*
X46183939Y14629458D01*
X46183939Y14629458D02*
X46183939Y14200886D01*
X46183939Y14200886D02*
X46112511Y14058029D01*
X46112511Y14058029D02*
X46041082Y13986600D01*
X46041082Y13986600D02*
X45898225Y13915172D01*
X45898225Y13915172D02*
X45612511Y13915172D01*
X45612511Y13915172D02*
X45469653Y13986600D01*
X47041082Y13915172D02*
X46898225Y13986600D01*
X46898225Y13986600D02*
X46826796Y14058029D01*
X46826796Y14058029D02*
X46755368Y14200886D01*
X46755368Y14200886D02*
X46755368Y14629458D01*
X46755368Y14629458D02*
X46826796Y14772315D01*
X46826796Y14772315D02*
X46898225Y14843743D01*
X46898225Y14843743D02*
X47041082Y14915172D01*
X47041082Y14915172D02*
X47255368Y14915172D01*
X47255368Y14915172D02*
X47398225Y14843743D01*
X47398225Y14843743D02*
X47469654Y14772315D01*
X47469654Y14772315D02*
X47541082Y14629458D01*
X47541082Y14629458D02*
X47541082Y14200886D01*
X47541082Y14200886D02*
X47469654Y14058029D01*
X47469654Y14058029D02*
X47398225Y13986600D01*
X47398225Y13986600D02*
X47255368Y13915172D01*
X47255368Y13915172D02*
X47041082Y13915172D01*
X48183939Y13915172D02*
X48183939Y14915172D01*
X48183939Y14629458D02*
X48255368Y14772315D01*
X48255368Y14772315D02*
X48326797Y14843743D01*
X48326797Y14843743D02*
X48469654Y14915172D01*
X48469654Y14915172D02*
X48612511Y14915172D01*
X48898225Y14915172D02*
X49469653Y14915172D01*
X49112510Y15415172D02*
X49112510Y14129458D01*
X49112510Y14129458D02*
X49183939Y13986600D01*
X49183939Y13986600D02*
X49326796Y13915172D01*
X49326796Y13915172D02*
X49469653Y13915172D01*
D10*
X107835819Y31324780D02*
X108645342Y31324780D01*
X108645342Y31324780D02*
X108740580Y31372399D01*
X108740580Y31372399D02*
X108788200Y31420018D01*
X108788200Y31420018D02*
X108835819Y31515256D01*
X108835819Y31515256D02*
X108835819Y31705732D01*
X108835819Y31705732D02*
X108788200Y31800970D01*
X108788200Y31800970D02*
X108740580Y31848589D01*
X108740580Y31848589D02*
X108645342Y31896208D01*
X108645342Y31896208D02*
X107835819Y31896208D01*
X108835819Y32372399D02*
X107835819Y32372399D01*
X107835819Y32372399D02*
X107835819Y32753351D01*
X107835819Y32753351D02*
X107883438Y32848589D01*
X107883438Y32848589D02*
X107931057Y32896208D01*
X107931057Y32896208D02*
X108026295Y32943827D01*
X108026295Y32943827D02*
X108169152Y32943827D01*
X108169152Y32943827D02*
X108264390Y32896208D01*
X108264390Y32896208D02*
X108312009Y32848589D01*
X108312009Y32848589D02*
X108359628Y32753351D01*
X108359628Y32753351D02*
X108359628Y32372399D01*
X108835819Y34134304D02*
X107835819Y34134304D01*
X107835819Y34134304D02*
X107835819Y34372399D01*
X107835819Y34372399D02*
X107883438Y34515256D01*
X107883438Y34515256D02*
X107978676Y34610494D01*
X107978676Y34610494D02*
X108073914Y34658113D01*
X108073914Y34658113D02*
X108264390Y34705732D01*
X108264390Y34705732D02*
X108407247Y34705732D01*
X108407247Y34705732D02*
X108597723Y34658113D01*
X108597723Y34658113D02*
X108692961Y34610494D01*
X108692961Y34610494D02*
X108788200Y34515256D01*
X108788200Y34515256D02*
X108835819Y34372399D01*
X108835819Y34372399D02*
X108835819Y34134304D01*
X108835819Y35134304D02*
X107835819Y35134304D01*
X107835819Y35134304D02*
X108835819Y35705732D01*
X108835819Y35705732D02*
X107835819Y35705732D01*
X108835819Y37420018D02*
X108835819Y36943828D01*
X108835819Y36943828D02*
X107835819Y36943828D01*
X108312009Y38086685D02*
X108312009Y37753352D01*
X108835819Y37753352D02*
X107835819Y37753352D01*
X107835819Y37753352D02*
X107835819Y38229542D01*
X108835819Y39943828D02*
X108359628Y39610495D01*
X108835819Y39372400D02*
X107835819Y39372400D01*
X107835819Y39372400D02*
X107835819Y39753352D01*
X107835819Y39753352D02*
X107883438Y39848590D01*
X107883438Y39848590D02*
X107931057Y39896209D01*
X107931057Y39896209D02*
X108026295Y39943828D01*
X108026295Y39943828D02*
X108169152Y39943828D01*
X108169152Y39943828D02*
X108264390Y39896209D01*
X108264390Y39896209D02*
X108312009Y39848590D01*
X108312009Y39848590D02*
X108359628Y39753352D01*
X108359628Y39753352D02*
X108359628Y39372400D01*
X107835819Y40229543D02*
X107835819Y40800971D01*
X108835819Y40515257D02*
X107835819Y40515257D01*
G36*
X18218836Y9653010D02*
G01*
X18292948Y9578897D01*
X18331442Y9501910D01*
X18374826Y9328376D01*
X18374826Y9203988D01*
X18331442Y9030454D01*
X18292948Y8953466D01*
X18218836Y8879353D01*
X18104323Y8841181D01*
X17953398Y8841181D01*
X17953398Y9691181D01*
X18104323Y9691181D01*
X18218836Y9653010D01*
G37*
G36*
X18667683Y8548324D02*
G01*
X15565303Y8548324D01*
X15565303Y9194753D01*
X15708160Y9194753D01*
X15709345Y9191496D01*
X15710399Y9176563D01*
X15758018Y8986087D01*
X15760006Y8983143D01*
X15763697Y8970736D01*
X15811316Y8875498D01*
X15812502Y8874375D01*
X15825365Y8856006D01*
X15920603Y8760767D01*
X15924667Y8758872D01*
X15927014Y8755052D01*
X15949919Y8742649D01*
X16092775Y8695030D01*
X16094410Y8695075D01*
X16116493Y8691181D01*
X16211731Y8691181D01*
X16213269Y8691742D01*
X16235448Y8695030D01*
X16378305Y8742649D01*
X16381816Y8745437D01*
X16386285Y8745827D01*
X16407622Y8760768D01*
X16413035Y8766181D01*
X16755779Y8766181D01*
X16773326Y8717972D01*
X16817755Y8692320D01*
X16868279Y8701229D01*
X16901256Y8740529D01*
X16905779Y8766181D01*
X16905779Y9483765D01*
X17337089Y8728970D01*
X17342382Y8724489D01*
X17344754Y8717972D01*
X17361491Y8708309D01*
X17376242Y8695819D01*
X17383176Y8695789D01*
X17389183Y8692320D01*
X17408216Y8695677D01*
X17427544Y8695590D01*
X17432877Y8700025D01*
X17439707Y8701229D01*
X17452131Y8716036D01*
X17466991Y8728392D01*
X17468225Y8735216D01*
X17472684Y8740529D01*
X17477207Y8766181D01*
X17803398Y8766181D01*
X17810061Y8747873D01*
X17813446Y8728681D01*
X17818630Y8724331D01*
X17820945Y8717972D01*
X17837818Y8708230D01*
X17852746Y8695704D01*
X17862488Y8693987D01*
X17865374Y8692320D01*
X17868656Y8692899D01*
X17878398Y8691181D01*
X18116493Y8691181D01*
X18118031Y8691742D01*
X18140210Y8695030D01*
X18283067Y8742649D01*
X18286579Y8745437D01*
X18291046Y8745827D01*
X18312383Y8760767D01*
X18407622Y8856007D01*
X18408313Y8857490D01*
X18421670Y8875498D01*
X18469289Y8970736D01*
X18469695Y8974265D01*
X18474968Y8986087D01*
X18522587Y9176563D01*
X18522226Y9180012D01*
X18524826Y9194753D01*
X18524826Y9337610D01*
X18523640Y9340868D01*
X18522587Y9355800D01*
X18474968Y9546276D01*
X18472979Y9549221D01*
X18469289Y9561627D01*
X18421670Y9656865D01*
X18420483Y9657989D01*
X18407621Y9676357D01*
X18312383Y9771595D01*
X18308319Y9773490D01*
X18305972Y9777311D01*
X18283067Y9789713D01*
X18140210Y9837332D01*
X18138575Y9837288D01*
X18116493Y9841181D01*
X17878398Y9841181D01*
X17860089Y9834518D01*
X17840898Y9831133D01*
X17836547Y9825949D01*
X17830189Y9823634D01*
X17820446Y9806761D01*
X17807921Y9791833D01*
X17806203Y9782091D01*
X17804537Y9779205D01*
X17805115Y9775923D01*
X17803398Y9766181D01*
X17803398Y8766181D01*
X17477207Y8766181D01*
X17477207Y9766181D01*
X17459660Y9814390D01*
X17415231Y9840042D01*
X17364707Y9831133D01*
X17331730Y9791833D01*
X17327207Y9766181D01*
X17327207Y9048598D01*
X16895897Y9803391D01*
X16890604Y9807873D01*
X16888232Y9814390D01*
X16871492Y9824055D01*
X16856744Y9836543D01*
X16849809Y9836574D01*
X16843803Y9840042D01*
X16824769Y9836686D01*
X16805442Y9836772D01*
X16800108Y9832338D01*
X16793279Y9831133D01*
X16780854Y9816327D01*
X16765995Y9803970D01*
X16764760Y9797147D01*
X16760302Y9791833D01*
X16755779Y9766181D01*
X16755779Y8766181D01*
X16413035Y8766181D01*
X16455240Y8808387D01*
X16462158Y8823225D01*
X16472684Y8835768D01*
X16475527Y8851896D01*
X16476921Y8854884D01*
X16476398Y8856835D01*
X16477207Y8861420D01*
X16477207Y9194753D01*
X16470543Y9213062D01*
X16467159Y9232253D01*
X16461974Y9236604D01*
X16459660Y9242962D01*
X16442786Y9252705D01*
X16427859Y9265230D01*
X16418116Y9266948D01*
X16415231Y9268614D01*
X16411948Y9268036D01*
X16402207Y9269753D01*
X16211731Y9269753D01*
X16163522Y9252206D01*
X16137870Y9207777D01*
X16146779Y9157253D01*
X16186079Y9124276D01*
X16211731Y9119753D01*
X16327207Y9119753D01*
X16327207Y8892486D01*
X16314074Y8879353D01*
X16199561Y8841181D01*
X16128663Y8841181D01*
X16014150Y8879352D01*
X15940037Y8953466D01*
X15901543Y9030453D01*
X15858160Y9203988D01*
X15858160Y9328377D01*
X15901543Y9501910D01*
X15940037Y9578897D01*
X16014150Y9653011D01*
X16128663Y9691181D01*
X16241645Y9691181D01*
X16321047Y9651480D01*
X16372013Y9645615D01*
X16414826Y9673881D01*
X16429453Y9723056D01*
X16409050Y9770127D01*
X16388129Y9785644D01*
X16292891Y9833263D01*
X16288437Y9833776D01*
X16285002Y9836658D01*
X16259350Y9841181D01*
X16116493Y9841181D01*
X16114955Y9840622D01*
X16092775Y9837332D01*
X15949919Y9789713D01*
X15946408Y9786927D01*
X15941940Y9786536D01*
X15920603Y9771595D01*
X15825365Y9676357D01*
X15824674Y9674876D01*
X15811316Y9656865D01*
X15763697Y9561627D01*
X15763290Y9558099D01*
X15758018Y9546276D01*
X15710399Y9355800D01*
X15710759Y9352352D01*
X15708160Y9337610D01*
X15708160Y9194753D01*
X15565303Y9194753D01*
X15565303Y9984038D01*
X18667683Y9984038D01*
X18667683Y8548324D01*
G37*
G36*
X81440864Y1512524D02*
G01*
X80386103Y1512524D01*
X80386103Y2158953D01*
X80528960Y2158953D01*
X80530145Y2155696D01*
X80531199Y2140763D01*
X80578818Y1950287D01*
X80580806Y1947343D01*
X80584497Y1934936D01*
X80632116Y1839698D01*
X80633302Y1838575D01*
X80646165Y1820206D01*
X80741403Y1724967D01*
X80745467Y1723072D01*
X80747814Y1719252D01*
X80770719Y1706849D01*
X80913575Y1659230D01*
X80915210Y1659275D01*
X80937293Y1655381D01*
X81032531Y1655381D01*
X81034069Y1655942D01*
X81056248Y1659230D01*
X81199105Y1706849D01*
X81202616Y1709637D01*
X81207085Y1710027D01*
X81228422Y1724968D01*
X81276040Y1772587D01*
X81282958Y1787425D01*
X81293484Y1799968D01*
X81296327Y1816096D01*
X81297721Y1819084D01*
X81297198Y1821035D01*
X81298007Y1825620D01*
X81298007Y2158953D01*
X81291343Y2177262D01*
X81287959Y2196453D01*
X81282774Y2200804D01*
X81280460Y2207162D01*
X81263586Y2216905D01*
X81248659Y2229430D01*
X81238916Y2231148D01*
X81236031Y2232814D01*
X81232748Y2232236D01*
X81223007Y2233953D01*
X81032531Y2233953D01*
X80984322Y2216406D01*
X80958670Y2171977D01*
X80967579Y2121453D01*
X81006879Y2088476D01*
X81032531Y2083953D01*
X81148007Y2083953D01*
X81148007Y1856686D01*
X81134874Y1843553D01*
X81020361Y1805381D01*
X80949463Y1805381D01*
X80834950Y1843552D01*
X80760837Y1917666D01*
X80722343Y1994653D01*
X80678960Y2168187D01*
X80678960Y2292576D01*
X80722343Y2466111D01*
X80760836Y2543097D01*
X80834950Y2617210D01*
X80949463Y2655381D01*
X81062445Y2655381D01*
X81141847Y2615680D01*
X81192813Y2609815D01*
X81235626Y2638081D01*
X81250253Y2687256D01*
X81229850Y2734327D01*
X81208929Y2749844D01*
X81113691Y2797463D01*
X81109237Y2797976D01*
X81105802Y2800858D01*
X81080150Y2805381D01*
X80937293Y2805381D01*
X80935755Y2804822D01*
X80913575Y2801532D01*
X80770719Y2753913D01*
X80767208Y2751127D01*
X80762740Y2750736D01*
X80741403Y2735795D01*
X80646165Y2640557D01*
X80645474Y2639076D01*
X80632116Y2621065D01*
X80584497Y2525827D01*
X80584090Y2522299D01*
X80578818Y2510476D01*
X80531199Y2320000D01*
X80531559Y2316552D01*
X80528960Y2301810D01*
X80528960Y2158953D01*
X80386103Y2158953D01*
X80386103Y2948238D01*
X81440864Y2948238D01*
X81440864Y1512524D01*
G37*
X19132779Y9766181D02*
X19132779Y8956658D01*
X19132779Y8956658D02*
X19180398Y8861420D01*
X19180398Y8861420D02*
X19228017Y8813800D01*
X19228017Y8813800D02*
X19323255Y8766181D01*
X19323255Y8766181D02*
X19513731Y8766181D01*
X19513731Y8766181D02*
X19608969Y8813800D01*
X19608969Y8813800D02*
X19656588Y8861420D01*
X19656588Y8861420D02*
X19704207Y8956658D01*
X19704207Y8956658D02*
X19704207Y9766181D01*
X20180398Y8766181D02*
X20180398Y9766181D01*
X20180398Y9766181D02*
X20561350Y9766181D01*
X20561350Y9766181D02*
X20656588Y9718562D01*
X20656588Y9718562D02*
X20704207Y9670943D01*
X20704207Y9670943D02*
X20751826Y9575705D01*
X20751826Y9575705D02*
X20751826Y9432848D01*
X20751826Y9432848D02*
X20704207Y9337610D01*
X20704207Y9337610D02*
X20656588Y9289991D01*
X20656588Y9289991D02*
X20561350Y9242372D01*
X20561350Y9242372D02*
X20180398Y9242372D01*
X21942303Y8766181D02*
X21942303Y9766181D01*
X21942303Y9766181D02*
X22180398Y9766181D01*
X22180398Y9766181D02*
X22323255Y9718562D01*
X22323255Y9718562D02*
X22418493Y9623324D01*
X22418493Y9623324D02*
X22466112Y9528086D01*
X22466112Y9528086D02*
X22513731Y9337610D01*
X22513731Y9337610D02*
X22513731Y9194753D01*
X22513731Y9194753D02*
X22466112Y9004277D01*
X22466112Y9004277D02*
X22418493Y8909039D01*
X22418493Y8909039D02*
X22323255Y8813800D01*
X22323255Y8813800D02*
X22180398Y8766181D01*
X22180398Y8766181D02*
X21942303Y8766181D01*
X22942303Y8766181D02*
X22942303Y9766181D01*
X22942303Y9766181D02*
X23513731Y8766181D01*
X23513731Y8766181D02*
X23513731Y9766181D01*
X25228017Y8766181D02*
X24751827Y8766181D01*
X24751827Y8766181D02*
X24751827Y9766181D01*
X25894684Y9289991D02*
X25561351Y9289991D01*
X25561351Y8766181D02*
X25561351Y9766181D01*
X25561351Y9766181D02*
X26037541Y9766181D01*
X27751827Y8766181D02*
X27418494Y9242372D01*
X27180399Y8766181D02*
X27180399Y9766181D01*
X27180399Y9766181D02*
X27561351Y9766181D01*
X27561351Y9766181D02*
X27656589Y9718562D01*
X27656589Y9718562D02*
X27704208Y9670943D01*
X27704208Y9670943D02*
X27751827Y9575705D01*
X27751827Y9575705D02*
X27751827Y9432848D01*
X27751827Y9432848D02*
X27704208Y9337610D01*
X27704208Y9337610D02*
X27656589Y9289991D01*
X27656589Y9289991D02*
X27561351Y9242372D01*
X27561351Y9242372D02*
X27180399Y9242372D01*
X28037542Y9766181D02*
X28608970Y9766181D01*
X28323256Y8766181D02*
X28323256Y9766181D01*
X29656590Y8813800D02*
X29799447Y8766181D01*
X29799447Y8766181D02*
X30037542Y8766181D01*
X30037542Y8766181D02*
X30132780Y8813800D01*
X30132780Y8813800D02*
X30180399Y8861420D01*
X30180399Y8861420D02*
X30228018Y8956658D01*
X30228018Y8956658D02*
X30228018Y9051896D01*
X30228018Y9051896D02*
X30180399Y9147134D01*
X30180399Y9147134D02*
X30132780Y9194753D01*
X30132780Y9194753D02*
X30037542Y9242372D01*
X30037542Y9242372D02*
X29847066Y9289991D01*
X29847066Y9289991D02*
X29751828Y9337610D01*
X29751828Y9337610D02*
X29704209Y9385229D01*
X29704209Y9385229D02*
X29656590Y9480467D01*
X29656590Y9480467D02*
X29656590Y9575705D01*
X29656590Y9575705D02*
X29704209Y9670943D01*
X29704209Y9670943D02*
X29751828Y9718562D01*
X29751828Y9718562D02*
X29847066Y9766181D01*
X29847066Y9766181D02*
X30085161Y9766181D01*
X30085161Y9766181D02*
X30228018Y9718562D01*
X30513733Y9766181D02*
X31085161Y9766181D01*
X30799447Y8766181D02*
X30799447Y9766181D01*
X32132781Y8813800D02*
X32275638Y8766181D01*
X32275638Y8766181D02*
X32513733Y8766181D01*
X32513733Y8766181D02*
X32608971Y8813800D01*
X32608971Y8813800D02*
X32656590Y8861420D01*
X32656590Y8861420D02*
X32704209Y8956658D01*
X32704209Y8956658D02*
X32704209Y9051896D01*
X32704209Y9051896D02*
X32656590Y9147134D01*
X32656590Y9147134D02*
X32608971Y9194753D01*
X32608971Y9194753D02*
X32513733Y9242372D01*
X32513733Y9242372D02*
X32323257Y9289991D01*
X32323257Y9289991D02*
X32228019Y9337610D01*
X32228019Y9337610D02*
X32180400Y9385229D01*
X32180400Y9385229D02*
X32132781Y9480467D01*
X32132781Y9480467D02*
X32132781Y9575705D01*
X32132781Y9575705D02*
X32180400Y9670943D01*
X32180400Y9670943D02*
X32228019Y9718562D01*
X32228019Y9718562D02*
X32323257Y9766181D01*
X32323257Y9766181D02*
X32561352Y9766181D01*
X32561352Y9766181D02*
X32704209Y9718562D01*
X33608971Y8766181D02*
X33132781Y8766181D01*
X33132781Y8766181D02*
X33132781Y9766181D01*
X34656591Y9051896D02*
X35132781Y9051896D01*
X34561353Y8766181D02*
X34894686Y9766181D01*
X34894686Y9766181D02*
X35228019Y8766181D01*
X37418496Y9289991D02*
X37561353Y9242372D01*
X37561353Y9242372D02*
X37608972Y9194753D01*
X37608972Y9194753D02*
X37656591Y9099515D01*
X37656591Y9099515D02*
X37656591Y8956658D01*
X37656591Y8956658D02*
X37608972Y8861420D01*
X37608972Y8861420D02*
X37561353Y8813800D01*
X37561353Y8813800D02*
X37466115Y8766181D01*
X37466115Y8766181D02*
X37085163Y8766181D01*
X37085163Y8766181D02*
X37085163Y9766181D01*
X37085163Y9766181D02*
X37418496Y9766181D01*
X37418496Y9766181D02*
X37513734Y9718562D01*
X37513734Y9718562D02*
X37561353Y9670943D01*
X37561353Y9670943D02*
X37608972Y9575705D01*
X37608972Y9575705D02*
X37608972Y9480467D01*
X37608972Y9480467D02*
X37561353Y9385229D01*
X37561353Y9385229D02*
X37513734Y9337610D01*
X37513734Y9337610D02*
X37418496Y9289991D01*
X37418496Y9289991D02*
X37085163Y9289991D01*
X39513735Y9766181D02*
X40180401Y8766181D01*
X40180401Y9766181D02*
X39513735Y8766181D01*
X42275640Y9242372D02*
X42275640Y8766181D01*
X41942307Y9766181D02*
X42275640Y9242372D01*
X42275640Y9242372D02*
X42608973Y9766181D01*
X44323260Y9766181D02*
X44894688Y9766181D01*
X44608974Y8766181D02*
X44608974Y9766181D01*
X45704212Y8766181D02*
X45228022Y8766181D01*
X45228022Y8766181D02*
X45228022Y9766181D01*
X46656594Y9766181D02*
X47228022Y9766181D01*
X46942308Y8766181D02*
X46942308Y9766181D01*
X48132784Y8766181D02*
X47799451Y9242372D01*
X47561356Y8766181D02*
X47561356Y9766181D01*
X47561356Y9766181D02*
X47942308Y9766181D01*
X47942308Y9766181D02*
X48037546Y9718562D01*
X48037546Y9718562D02*
X48085165Y9670943D01*
X48085165Y9670943D02*
X48132784Y9575705D01*
X48132784Y9575705D02*
X48132784Y9432848D01*
X48132784Y9432848D02*
X48085165Y9337610D01*
X48085165Y9337610D02*
X48037546Y9289991D01*
X48037546Y9289991D02*
X47942308Y9242372D01*
X47942308Y9242372D02*
X47561356Y9242372D01*
X49323261Y8766181D02*
X49323261Y9766181D01*
X49323261Y9289991D02*
X49894689Y9289991D01*
X49894689Y8766181D02*
X49894689Y9766181D01*
X50370880Y8766181D02*
X50370880Y9766181D01*
X50942308Y8766181D02*
X50513737Y9337610D01*
X50942308Y9766181D02*
X50370880Y9194753D01*
G36*
X76818064Y95162324D02*
G01*
X75763303Y95162324D01*
X75763303Y95808753D01*
X75906160Y95808753D01*
X75907345Y95805496D01*
X75908399Y95790563D01*
X75956018Y95600087D01*
X75958006Y95597143D01*
X75961697Y95584736D01*
X76009316Y95489498D01*
X76010502Y95488375D01*
X76023365Y95470006D01*
X76118603Y95374767D01*
X76122667Y95372872D01*
X76125014Y95369052D01*
X76147919Y95356649D01*
X76290775Y95309030D01*
X76292410Y95309075D01*
X76314493Y95305181D01*
X76409731Y95305181D01*
X76411269Y95305742D01*
X76433448Y95309030D01*
X76576305Y95356649D01*
X76579816Y95359437D01*
X76584285Y95359827D01*
X76605622Y95374768D01*
X76653240Y95422387D01*
X76660158Y95437225D01*
X76670684Y95449768D01*
X76673527Y95465896D01*
X76674921Y95468884D01*
X76674398Y95470835D01*
X76675207Y95475420D01*
X76675207Y95808753D01*
X76668543Y95827062D01*
X76665159Y95846253D01*
X76659974Y95850604D01*
X76657660Y95856962D01*
X76640786Y95866705D01*
X76625859Y95879230D01*
X76616116Y95880948D01*
X76613231Y95882614D01*
X76609948Y95882036D01*
X76600207Y95883753D01*
X76409731Y95883753D01*
X76361522Y95866206D01*
X76335870Y95821777D01*
X76344779Y95771253D01*
X76384079Y95738276D01*
X76409731Y95733753D01*
X76525207Y95733753D01*
X76525207Y95506486D01*
X76512074Y95493353D01*
X76397561Y95455181D01*
X76326663Y95455181D01*
X76212150Y95493352D01*
X76138037Y95567466D01*
X76099543Y95644453D01*
X76056160Y95817987D01*
X76056160Y95942377D01*
X76099543Y96115910D01*
X76138037Y96192898D01*
X76212150Y96267011D01*
X76326663Y96305181D01*
X76439645Y96305181D01*
X76519047Y96265480D01*
X76570013Y96259615D01*
X76612826Y96287881D01*
X76627453Y96337056D01*
X76607050Y96384127D01*
X76586129Y96399644D01*
X76490891Y96447263D01*
X76486437Y96447776D01*
X76483002Y96450658D01*
X76457350Y96455181D01*
X76314493Y96455181D01*
X76312955Y96454622D01*
X76290775Y96451332D01*
X76147919Y96403713D01*
X76144408Y96400927D01*
X76139940Y96400536D01*
X76118603Y96385595D01*
X76023365Y96290357D01*
X76022674Y96288876D01*
X76009316Y96270865D01*
X75961697Y96175627D01*
X75961290Y96172099D01*
X75956018Y96160276D01*
X75908399Y95969800D01*
X75908759Y95966352D01*
X75906160Y95951610D01*
X75906160Y95808753D01*
X75763303Y95808753D01*
X75763303Y96598038D01*
X76818064Y96598038D01*
X76818064Y95162324D01*
G37*
G36*
X20176064Y18454324D02*
G01*
X19121303Y18454324D01*
X19121303Y19100753D01*
X19264160Y19100753D01*
X19265345Y19097496D01*
X19266399Y19082563D01*
X19314018Y18892087D01*
X19316006Y18889143D01*
X19319697Y18876736D01*
X19367316Y18781498D01*
X19368502Y18780375D01*
X19381365Y18762006D01*
X19476603Y18666767D01*
X19480667Y18664872D01*
X19483014Y18661052D01*
X19505919Y18648649D01*
X19648775Y18601030D01*
X19650410Y18601075D01*
X19672493Y18597181D01*
X19767731Y18597181D01*
X19769269Y18597742D01*
X19791448Y18601030D01*
X19934305Y18648649D01*
X19937816Y18651437D01*
X19942285Y18651827D01*
X19963622Y18666768D01*
X20011240Y18714387D01*
X20018158Y18729225D01*
X20028684Y18741768D01*
X20031527Y18757896D01*
X20032921Y18760884D01*
X20032398Y18762835D01*
X20033207Y18767420D01*
X20033207Y19100753D01*
X20026543Y19119062D01*
X20023159Y19138253D01*
X20017974Y19142604D01*
X20015660Y19148962D01*
X19998786Y19158705D01*
X19983859Y19171230D01*
X19974116Y19172948D01*
X19971231Y19174614D01*
X19967948Y19174036D01*
X19958207Y19175753D01*
X19767731Y19175753D01*
X19719522Y19158206D01*
X19693870Y19113777D01*
X19702779Y19063253D01*
X19742079Y19030276D01*
X19767731Y19025753D01*
X19883207Y19025753D01*
X19883207Y18798486D01*
X19870074Y18785353D01*
X19755561Y18747181D01*
X19684663Y18747181D01*
X19570150Y18785352D01*
X19496037Y18859466D01*
X19457543Y18936453D01*
X19414160Y19109987D01*
X19414160Y19234376D01*
X19457543Y19407911D01*
X19496036Y19484897D01*
X19570150Y19559010D01*
X19684663Y19597181D01*
X19797645Y19597181D01*
X19877047Y19557480D01*
X19928013Y19551615D01*
X19970826Y19579881D01*
X19985453Y19629056D01*
X19965050Y19676127D01*
X19944129Y19691644D01*
X19848891Y19739263D01*
X19844437Y19739776D01*
X19841002Y19742658D01*
X19815350Y19747181D01*
X19672493Y19747181D01*
X19670955Y19746622D01*
X19648775Y19743332D01*
X19505919Y19695713D01*
X19502408Y19692927D01*
X19497940Y19692536D01*
X19476603Y19677595D01*
X19381365Y19582357D01*
X19380674Y19580876D01*
X19367316Y19562865D01*
X19319697Y19467627D01*
X19319290Y19464099D01*
X19314018Y19452276D01*
X19266399Y19261800D01*
X19266759Y19258352D01*
X19264160Y19243610D01*
X19264160Y19100753D01*
X19121303Y19100753D01*
X19121303Y19890038D01*
X20176064Y19890038D01*
X20176064Y18454324D01*
G37*
X73345922Y2908181D02*
X73917350Y2908181D01*
X73631636Y1908181D02*
X73631636Y2908181D01*
X74822112Y1908181D02*
X74488779Y2384372D01*
X74250684Y1908181D02*
X74250684Y2908181D01*
X74250684Y2908181D02*
X74631636Y2908181D01*
X74631636Y2908181D02*
X74726874Y2860562D01*
X74726874Y2860562D02*
X74774493Y2812943D01*
X74774493Y2812943D02*
X74822112Y2717705D01*
X74822112Y2717705D02*
X74822112Y2574848D01*
X74822112Y2574848D02*
X74774493Y2479610D01*
X74774493Y2479610D02*
X74726874Y2431991D01*
X74726874Y2431991D02*
X74631636Y2384372D01*
X74631636Y2384372D02*
X74250684Y2384372D01*
X83632922Y38341181D02*
X84204350Y38341181D01*
X83918636Y37341181D02*
X83918636Y38341181D01*
X85013874Y37341181D02*
X84537684Y37341181D01*
X84537684Y37341181D02*
X84537684Y38341181D01*
X51343112Y18941991D02*
X51485969Y18894372D01*
X51485969Y18894372D02*
X51533588Y18846753D01*
X51533588Y18846753D02*
X51581207Y18751515D01*
X51581207Y18751515D02*
X51581207Y18608658D01*
X51581207Y18608658D02*
X51533588Y18513420D01*
X51533588Y18513420D02*
X51485969Y18465800D01*
X51485969Y18465800D02*
X51390731Y18418181D01*
X51390731Y18418181D02*
X51009779Y18418181D01*
X51009779Y18418181D02*
X51009779Y19418181D01*
X51009779Y19418181D02*
X51343112Y19418181D01*
X51343112Y19418181D02*
X51438350Y19370562D01*
X51438350Y19370562D02*
X51485969Y19322943D01*
X51485969Y19322943D02*
X51533588Y19227705D01*
X51533588Y19227705D02*
X51533588Y19132467D01*
X51533588Y19132467D02*
X51485969Y19037229D01*
X51485969Y19037229D02*
X51438350Y18989610D01*
X51438350Y18989610D02*
X51343112Y18941991D01*
X51343112Y18941991D02*
X51009779Y18941991D01*
G36*
X20176064Y56300324D02*
G01*
X19121303Y56300324D01*
X19121303Y56946753D01*
X19264160Y56946753D01*
X19265345Y56943496D01*
X19266399Y56928563D01*
X19314018Y56738087D01*
X19316006Y56735143D01*
X19319697Y56722736D01*
X19367316Y56627498D01*
X19368502Y56626375D01*
X19381365Y56608006D01*
X19476603Y56512767D01*
X19480667Y56510872D01*
X19483014Y56507052D01*
X19505919Y56494649D01*
X19648775Y56447030D01*
X19650410Y56447075D01*
X19672493Y56443181D01*
X19767731Y56443181D01*
X19769269Y56443742D01*
X19791448Y56447030D01*
X19934305Y56494649D01*
X19937816Y56497437D01*
X19942285Y56497827D01*
X19963622Y56512768D01*
X20011240Y56560387D01*
X20018158Y56575225D01*
X20028684Y56587768D01*
X20031527Y56603896D01*
X20032921Y56606884D01*
X20032398Y56608835D01*
X20033207Y56613420D01*
X20033207Y56946753D01*
X20026543Y56965062D01*
X20023159Y56984253D01*
X20017974Y56988604D01*
X20015660Y56994962D01*
X19998786Y57004705D01*
X19983859Y57017230D01*
X19974116Y57018948D01*
X19971231Y57020614D01*
X19967948Y57020036D01*
X19958207Y57021753D01*
X19767731Y57021753D01*
X19719522Y57004206D01*
X19693870Y56959777D01*
X19702779Y56909253D01*
X19742079Y56876276D01*
X19767731Y56871753D01*
X19883207Y56871753D01*
X19883207Y56644486D01*
X19870074Y56631353D01*
X19755561Y56593181D01*
X19684663Y56593181D01*
X19570150Y56631352D01*
X19496037Y56705466D01*
X19457543Y56782453D01*
X19414160Y56955987D01*
X19414160Y57080376D01*
X19457543Y57253910D01*
X19496037Y57330898D01*
X19570149Y57405010D01*
X19684663Y57443181D01*
X19797645Y57443181D01*
X19877047Y57403480D01*
X19928013Y57397615D01*
X19970826Y57425881D01*
X19985453Y57475056D01*
X19965050Y57522127D01*
X19944129Y57537644D01*
X19848891Y57585263D01*
X19844437Y57585776D01*
X19841002Y57588658D01*
X19815350Y57593181D01*
X19672493Y57593181D01*
X19670955Y57592622D01*
X19648775Y57589332D01*
X19505919Y57541713D01*
X19502408Y57538927D01*
X19497940Y57538536D01*
X19476603Y57523595D01*
X19381365Y57428357D01*
X19380674Y57426876D01*
X19367316Y57408865D01*
X19319697Y57313627D01*
X19319290Y57310099D01*
X19314018Y57298276D01*
X19266399Y57107800D01*
X19266759Y57104352D01*
X19264160Y57089610D01*
X19264160Y56946753D01*
X19121303Y56946753D01*
X19121303Y57736038D01*
X20176064Y57736038D01*
X20176064Y56300324D01*
G37*
X70694779Y93348181D02*
X70694779Y94348181D01*
X70694779Y93871991D02*
X71266207Y93871991D01*
X71266207Y93348181D02*
X71266207Y94348181D01*
X71932874Y94348181D02*
X72123350Y94348181D01*
X72123350Y94348181D02*
X72218588Y94300562D01*
X72218588Y94300562D02*
X72313826Y94205324D01*
X72313826Y94205324D02*
X72361445Y94014848D01*
X72361445Y94014848D02*
X72361445Y93681515D01*
X72361445Y93681515D02*
X72313826Y93491039D01*
X72313826Y93491039D02*
X72218588Y93395800D01*
X72218588Y93395800D02*
X72123350Y93348181D01*
X72123350Y93348181D02*
X71932874Y93348181D01*
X71932874Y93348181D02*
X71837636Y93395800D01*
X71837636Y93395800D02*
X71742398Y93491039D01*
X71742398Y93491039D02*
X71694779Y93681515D01*
X71694779Y93681515D02*
X71694779Y94014848D01*
X71694779Y94014848D02*
X71742398Y94205324D01*
X71742398Y94205324D02*
X71837636Y94300562D01*
X71837636Y94300562D02*
X71932874Y94348181D01*
X72647160Y94348181D02*
X73218588Y94348181D01*
X72932874Y93348181D02*
X72932874Y94348181D01*
X73551922Y93348181D02*
X73551922Y94348181D01*
X74123350Y93348181D02*
X73694779Y93919610D01*
X74123350Y94348181D02*
X73551922Y93776753D01*
X74551922Y93871991D02*
X74885255Y93871991D01*
X75028112Y93348181D02*
X74551922Y93348181D01*
X74551922Y93348181D02*
X74551922Y94348181D01*
X74551922Y94348181D02*
X75028112Y94348181D01*
X75647160Y93824372D02*
X75647160Y93348181D01*
X75313827Y94348181D02*
X75647160Y93824372D01*
X75647160Y93824372D02*
X75980493Y94348181D01*
X66837160Y98094800D02*
X66980017Y98047181D01*
X66980017Y98047181D02*
X67218112Y98047181D01*
X67218112Y98047181D02*
X67313350Y98094800D01*
X67313350Y98094800D02*
X67360969Y98142420D01*
X67360969Y98142420D02*
X67408588Y98237658D01*
X67408588Y98237658D02*
X67408588Y98332896D01*
X67408588Y98332896D02*
X67360969Y98428134D01*
X67360969Y98428134D02*
X67313350Y98475753D01*
X67313350Y98475753D02*
X67218112Y98523372D01*
X67218112Y98523372D02*
X67027636Y98570991D01*
X67027636Y98570991D02*
X66932398Y98618610D01*
X66932398Y98618610D02*
X66884779Y98666229D01*
X66884779Y98666229D02*
X66837160Y98761467D01*
X66837160Y98761467D02*
X66837160Y98856705D01*
X66837160Y98856705D02*
X66884779Y98951943D01*
X66884779Y98951943D02*
X66932398Y98999562D01*
X66932398Y98999562D02*
X67027636Y99047181D01*
X67027636Y99047181D02*
X67265731Y99047181D01*
X67265731Y99047181D02*
X67408588Y98999562D01*
X67837160Y98570991D02*
X68170493Y98570991D01*
X68313350Y98047181D02*
X67837160Y98047181D01*
X67837160Y98047181D02*
X67837160Y99047181D01*
X67837160Y99047181D02*
X68313350Y99047181D01*
X69218112Y98047181D02*
X68741922Y98047181D01*
X68741922Y98047181D02*
X68741922Y99047181D01*
X69551446Y98570991D02*
X69884779Y98570991D01*
X70027636Y98047181D02*
X69551446Y98047181D01*
X69551446Y98047181D02*
X69551446Y99047181D01*
X69551446Y99047181D02*
X70027636Y99047181D01*
X71027636Y98142420D02*
X70980017Y98094800D01*
X70980017Y98094800D02*
X70837160Y98047181D01*
X70837160Y98047181D02*
X70741922Y98047181D01*
X70741922Y98047181D02*
X70599065Y98094800D01*
X70599065Y98094800D02*
X70503827Y98190039D01*
X70503827Y98190039D02*
X70456208Y98285277D01*
X70456208Y98285277D02*
X70408589Y98475753D01*
X70408589Y98475753D02*
X70408589Y98618610D01*
X70408589Y98618610D02*
X70456208Y98809086D01*
X70456208Y98809086D02*
X70503827Y98904324D01*
X70503827Y98904324D02*
X70599065Y98999562D01*
X70599065Y98999562D02*
X70741922Y99047181D01*
X70741922Y99047181D02*
X70837160Y99047181D01*
X70837160Y99047181D02*
X70980017Y98999562D01*
X70980017Y98999562D02*
X71027636Y98951943D01*
X71313351Y99047181D02*
X71884779Y99047181D01*
X71599065Y98047181D02*
X71599065Y99047181D01*
X53511220Y93611820D02*
X53511220Y94421343D01*
X53511220Y94421343D02*
X53463601Y94516581D01*
X53463601Y94516581D02*
X53415982Y94564200D01*
X53415982Y94564200D02*
X53320744Y94611820D01*
X53320744Y94611820D02*
X53130268Y94611820D01*
X53130268Y94611820D02*
X53035030Y94564200D01*
X53035030Y94564200D02*
X52987411Y94516581D01*
X52987411Y94516581D02*
X52939792Y94421343D01*
X52939792Y94421343D02*
X52939792Y93611820D01*
X52463601Y94611820D02*
X52463601Y93611820D01*
X52463601Y93611820D02*
X52082649Y93611820D01*
X52082649Y93611820D02*
X51987411Y93659439D01*
X51987411Y93659439D02*
X51939792Y93707058D01*
X51939792Y93707058D02*
X51892173Y93802296D01*
X51892173Y93802296D02*
X51892173Y93945153D01*
X51892173Y93945153D02*
X51939792Y94040391D01*
X51939792Y94040391D02*
X51987411Y94088010D01*
X51987411Y94088010D02*
X52082649Y94135629D01*
X52082649Y94135629D02*
X52463601Y94135629D01*
X50701696Y94611820D02*
X50701696Y93611820D01*
X50701696Y93611820D02*
X50463601Y93611820D01*
X50463601Y93611820D02*
X50320744Y93659439D01*
X50320744Y93659439D02*
X50225506Y93754677D01*
X50225506Y93754677D02*
X50177887Y93849915D01*
X50177887Y93849915D02*
X50130268Y94040391D01*
X50130268Y94040391D02*
X50130268Y94183248D01*
X50130268Y94183248D02*
X50177887Y94373724D01*
X50177887Y94373724D02*
X50225506Y94468962D01*
X50225506Y94468962D02*
X50320744Y94564200D01*
X50320744Y94564200D02*
X50463601Y94611820D01*
X50463601Y94611820D02*
X50701696Y94611820D01*
X49701696Y94611820D02*
X49701696Y93611820D01*
X49701696Y93611820D02*
X49130268Y94611820D01*
X49130268Y94611820D02*
X49130268Y93611820D01*
X47415982Y94611820D02*
X47892172Y94611820D01*
X47892172Y94611820D02*
X47892172Y93611820D01*
X46749315Y94088010D02*
X47082648Y94088010D01*
X47082648Y94611820D02*
X47082648Y93611820D01*
X47082648Y93611820D02*
X46606458Y93611820D01*
X44892172Y94611820D02*
X45225505Y94135629D01*
X45463600Y94611820D02*
X45463600Y93611820D01*
X45463600Y93611820D02*
X45082648Y93611820D01*
X45082648Y93611820D02*
X44987410Y93659439D01*
X44987410Y93659439D02*
X44939791Y93707058D01*
X44939791Y93707058D02*
X44892172Y93802296D01*
X44892172Y93802296D02*
X44892172Y93945153D01*
X44892172Y93945153D02*
X44939791Y94040391D01*
X44939791Y94040391D02*
X44987410Y94088010D01*
X44987410Y94088010D02*
X45082648Y94135629D01*
X45082648Y94135629D02*
X45463600Y94135629D01*
X44606457Y93611820D02*
X44035029Y93611820D01*
X44320743Y94611820D02*
X44320743Y93611820D01*
X42987409Y94564200D02*
X42844552Y94611820D01*
X42844552Y94611820D02*
X42606457Y94611820D01*
X42606457Y94611820D02*
X42511219Y94564200D01*
X42511219Y94564200D02*
X42463600Y94516581D01*
X42463600Y94516581D02*
X42415981Y94421343D01*
X42415981Y94421343D02*
X42415981Y94326105D01*
X42415981Y94326105D02*
X42463600Y94230867D01*
X42463600Y94230867D02*
X42511219Y94183248D01*
X42511219Y94183248D02*
X42606457Y94135629D01*
X42606457Y94135629D02*
X42796933Y94088010D01*
X42796933Y94088010D02*
X42892171Y94040391D01*
X42892171Y94040391D02*
X42939790Y93992772D01*
X42939790Y93992772D02*
X42987409Y93897534D01*
X42987409Y93897534D02*
X42987409Y93802296D01*
X42987409Y93802296D02*
X42939790Y93707058D01*
X42939790Y93707058D02*
X42892171Y93659439D01*
X42892171Y93659439D02*
X42796933Y93611820D01*
X42796933Y93611820D02*
X42558838Y93611820D01*
X42558838Y93611820D02*
X42415981Y93659439D01*
X42130266Y93611820D02*
X41558838Y93611820D01*
X41844552Y94611820D02*
X41844552Y93611820D01*
X40511218Y94564200D02*
X40368361Y94611820D01*
X40368361Y94611820D02*
X40130266Y94611820D01*
X40130266Y94611820D02*
X40035028Y94564200D01*
X40035028Y94564200D02*
X39987409Y94516581D01*
X39987409Y94516581D02*
X39939790Y94421343D01*
X39939790Y94421343D02*
X39939790Y94326105D01*
X39939790Y94326105D02*
X39987409Y94230867D01*
X39987409Y94230867D02*
X40035028Y94183248D01*
X40035028Y94183248D02*
X40130266Y94135629D01*
X40130266Y94135629D02*
X40320742Y94088010D01*
X40320742Y94088010D02*
X40415980Y94040391D01*
X40415980Y94040391D02*
X40463599Y93992772D01*
X40463599Y93992772D02*
X40511218Y93897534D01*
X40511218Y93897534D02*
X40511218Y93802296D01*
X40511218Y93802296D02*
X40463599Y93707058D01*
X40463599Y93707058D02*
X40415980Y93659439D01*
X40415980Y93659439D02*
X40320742Y93611820D01*
X40320742Y93611820D02*
X40082647Y93611820D01*
X40082647Y93611820D02*
X39939790Y93659439D01*
X39035028Y94611820D02*
X39511218Y94611820D01*
X39511218Y94611820D02*
X39511218Y93611820D01*
X37225503Y94326105D02*
X36749313Y94326105D01*
X37320741Y94611820D02*
X36987408Y93611820D01*
X36987408Y93611820D02*
X36654075Y94611820D01*
X34463598Y94088010D02*
X34320741Y94135629D01*
X34320741Y94135629D02*
X34273122Y94183248D01*
X34273122Y94183248D02*
X34225503Y94278486D01*
X34225503Y94278486D02*
X34225503Y94421343D01*
X34225503Y94421343D02*
X34273122Y94516581D01*
X34273122Y94516581D02*
X34320741Y94564200D01*
X34320741Y94564200D02*
X34415979Y94611820D01*
X34415979Y94611820D02*
X34796931Y94611820D01*
X34796931Y94611820D02*
X34796931Y93611820D01*
X34796931Y93611820D02*
X34463598Y93611820D01*
X34463598Y93611820D02*
X34368360Y93659439D01*
X34368360Y93659439D02*
X34320741Y93707058D01*
X34320741Y93707058D02*
X34273122Y93802296D01*
X34273122Y93802296D02*
X34273122Y93897534D01*
X34273122Y93897534D02*
X34320741Y93992772D01*
X34320741Y93992772D02*
X34368360Y94040391D01*
X34368360Y94040391D02*
X34463598Y94088010D01*
X34463598Y94088010D02*
X34796931Y94088010D01*
X32368359Y93611820D02*
X31701693Y94611820D01*
X31701693Y93611820D02*
X32368359Y94611820D01*
X29606454Y94135629D02*
X29606454Y94611820D01*
X29939787Y93611820D02*
X29606454Y94135629D01*
X29606454Y94135629D02*
X29273121Y93611820D01*
X27558834Y93611820D02*
X26987406Y93611820D01*
X27273120Y94611820D02*
X27273120Y93611820D01*
X26177882Y94611820D02*
X26654072Y94611820D01*
X26654072Y94611820D02*
X26654072Y93611820D01*
X25225500Y93611820D02*
X24654072Y93611820D01*
X24939786Y94611820D02*
X24939786Y93611820D01*
X23749310Y94611820D02*
X24082643Y94135629D01*
X24320738Y94611820D02*
X24320738Y93611820D01*
X24320738Y93611820D02*
X23939786Y93611820D01*
X23939786Y93611820D02*
X23844548Y93659439D01*
X23844548Y93659439D02*
X23796929Y93707058D01*
X23796929Y93707058D02*
X23749310Y93802296D01*
X23749310Y93802296D02*
X23749310Y93945153D01*
X23749310Y93945153D02*
X23796929Y94040391D01*
X23796929Y94040391D02*
X23844548Y94088010D01*
X23844548Y94088010D02*
X23939786Y94135629D01*
X23939786Y94135629D02*
X24320738Y94135629D01*
X22558833Y94611820D02*
X22558833Y93611820D01*
X22558833Y94088010D02*
X21987405Y94088010D01*
X21987405Y94611820D02*
X21987405Y93611820D01*
X21511214Y94611820D02*
X21511214Y93611820D01*
X20939786Y94611820D02*
X21368357Y94040391D01*
X20939786Y93611820D02*
X21511214Y94183248D01*
X75219160Y98094800D02*
X75362017Y98047181D01*
X75362017Y98047181D02*
X75600112Y98047181D01*
X75600112Y98047181D02*
X75695350Y98094800D01*
X75695350Y98094800D02*
X75742969Y98142420D01*
X75742969Y98142420D02*
X75790588Y98237658D01*
X75790588Y98237658D02*
X75790588Y98332896D01*
X75790588Y98332896D02*
X75742969Y98428134D01*
X75742969Y98428134D02*
X75695350Y98475753D01*
X75695350Y98475753D02*
X75600112Y98523372D01*
X75600112Y98523372D02*
X75409636Y98570991D01*
X75409636Y98570991D02*
X75314398Y98618610D01*
X75314398Y98618610D02*
X75266779Y98666229D01*
X75266779Y98666229D02*
X75219160Y98761467D01*
X75219160Y98761467D02*
X75219160Y98856705D01*
X75219160Y98856705D02*
X75266779Y98951943D01*
X75266779Y98951943D02*
X75314398Y98999562D01*
X75314398Y98999562D02*
X75409636Y99047181D01*
X75409636Y99047181D02*
X75647731Y99047181D01*
X75647731Y99047181D02*
X75790588Y98999562D01*
X76076303Y99047181D02*
X76647731Y99047181D01*
X76362017Y98047181D02*
X76362017Y99047181D01*
X76933446Y98332896D02*
X77409636Y98332896D01*
X76838208Y98047181D02*
X77171541Y99047181D01*
X77171541Y99047181D02*
X77504874Y98047181D01*
X78409636Y98047181D02*
X78076303Y98523372D01*
X77838208Y98047181D02*
X77838208Y99047181D01*
X77838208Y99047181D02*
X78219160Y99047181D01*
X78219160Y99047181D02*
X78314398Y98999562D01*
X78314398Y98999562D02*
X78362017Y98951943D01*
X78362017Y98951943D02*
X78409636Y98856705D01*
X78409636Y98856705D02*
X78409636Y98713848D01*
X78409636Y98713848D02*
X78362017Y98618610D01*
X78362017Y98618610D02*
X78314398Y98570991D01*
X78314398Y98570991D02*
X78219160Y98523372D01*
X78219160Y98523372D02*
X77838208Y98523372D01*
X78695351Y99047181D02*
X79266779Y99047181D01*
X78981065Y98047181D02*
X78981065Y99047181D01*
G36*
X18368601Y93686820D02*
G01*
X18217676Y93686820D01*
X18103163Y93724992D01*
X18029050Y93799104D01*
X17990556Y93876092D01*
X17947173Y94049625D01*
X17947173Y94174015D01*
X17990556Y94347548D01*
X18029050Y94424536D01*
X18103162Y94498648D01*
X18217677Y94536820D01*
X18368601Y94536820D01*
X18368601Y93686820D01*
G37*
G36*
X20756696Y93393963D02*
G01*
X17654316Y93393963D01*
X17654316Y94040391D01*
X17797173Y94040391D01*
X17798358Y94037134D01*
X17799412Y94022201D01*
X17847031Y93831725D01*
X17849019Y93828781D01*
X17852710Y93816374D01*
X17900329Y93721136D01*
X17901518Y93720011D01*
X17914378Y93701644D01*
X18009616Y93606406D01*
X18013680Y93604511D01*
X18016027Y93600691D01*
X18038932Y93588288D01*
X18181788Y93540669D01*
X18183423Y93540714D01*
X18205506Y93536820D01*
X18443601Y93536820D01*
X18461909Y93543484D01*
X18481101Y93546868D01*
X18485451Y93552053D01*
X18491810Y93554367D01*
X18501552Y93571241D01*
X18514078Y93586168D01*
X18515795Y93595911D01*
X18517462Y93598796D01*
X18516883Y93602079D01*
X18518601Y93611820D01*
X18844792Y93611820D01*
X18862339Y93563611D01*
X18906768Y93537959D01*
X18957292Y93546868D01*
X18990269Y93586168D01*
X18994792Y93611820D01*
X18994792Y94329404D01*
X19426102Y93574609D01*
X19431395Y93570128D01*
X19433767Y93563611D01*
X19450504Y93553948D01*
X19465255Y93541458D01*
X19472189Y93541428D01*
X19478196Y93537959D01*
X19497229Y93541316D01*
X19516557Y93541229D01*
X19521890Y93545664D01*
X19528720Y93546868D01*
X19541144Y93561675D01*
X19556004Y93574031D01*
X19557238Y93580855D01*
X19561697Y93586168D01*
X19566220Y93611820D01*
X19566220Y94183248D01*
X19844792Y94183248D01*
X19851455Y94164940D01*
X19854840Y94145748D01*
X19860024Y94141398D01*
X19862339Y94135039D01*
X19879212Y94125297D01*
X19894140Y94112771D01*
X19903882Y94111054D01*
X19906768Y94109387D01*
X19910050Y94109966D01*
X19919792Y94108248D01*
X20110268Y94108248D01*
X20158477Y94125795D01*
X20184129Y94170224D01*
X20175220Y94220748D01*
X20135920Y94253725D01*
X20110268Y94258248D01*
X19994792Y94258248D01*
X19994792Y94485515D01*
X20007924Y94498648D01*
X20122439Y94536820D01*
X20193335Y94536820D01*
X20307848Y94498649D01*
X20381962Y94424535D01*
X20420455Y94347548D01*
X20463839Y94174015D01*
X20463839Y94049625D01*
X20420455Y93876092D01*
X20381961Y93799104D01*
X20307849Y93724992D01*
X20193336Y93686820D01*
X20080354Y93686820D01*
X20000952Y93726521D01*
X19949985Y93732386D01*
X19907172Y93704120D01*
X19892546Y93654945D01*
X19912949Y93607874D01*
X19933870Y93592357D01*
X20029108Y93544738D01*
X20033561Y93544226D01*
X20036997Y93541343D01*
X20062649Y93536820D01*
X20205506Y93536820D01*
X20207044Y93537381D01*
X20229223Y93540669D01*
X20372080Y93588288D01*
X20375592Y93591076D01*
X20380059Y93591466D01*
X20401396Y93606406D01*
X20496634Y93701644D01*
X20497324Y93703126D01*
X20510683Y93721136D01*
X20558302Y93816374D01*
X20558708Y93819903D01*
X20563981Y93831725D01*
X20611600Y94022201D01*
X20611239Y94025650D01*
X20613839Y94040391D01*
X20613839Y94183248D01*
X20612653Y94186506D01*
X20611600Y94201438D01*
X20563981Y94391914D01*
X20561992Y94394859D01*
X20558302Y94407265D01*
X20510683Y94502503D01*
X20509496Y94503627D01*
X20496634Y94521995D01*
X20401396Y94617233D01*
X20397333Y94619128D01*
X20394986Y94622948D01*
X20372081Y94635351D01*
X20229224Y94682971D01*
X20227588Y94682927D01*
X20205506Y94686820D01*
X20110268Y94686820D01*
X20108729Y94686260D01*
X20086551Y94682971D01*
X19943693Y94635351D01*
X19940180Y94632564D01*
X19935715Y94632173D01*
X19914378Y94617233D01*
X19866759Y94569614D01*
X19859840Y94554777D01*
X19849315Y94542233D01*
X19846471Y94526106D01*
X19845078Y94523117D01*
X19845600Y94521167D01*
X19844792Y94516581D01*
X19844792Y94183248D01*
X19566220Y94183248D01*
X19566220Y94611820D01*
X19548673Y94660029D01*
X19504244Y94685681D01*
X19453720Y94676772D01*
X19420743Y94637472D01*
X19416220Y94611820D01*
X19416220Y93894237D01*
X18984910Y94649030D01*
X18979617Y94653512D01*
X18977245Y94660029D01*
X18960505Y94669694D01*
X18945757Y94682182D01*
X18938822Y94682213D01*
X18932816Y94685681D01*
X18913782Y94682325D01*
X18894455Y94682411D01*
X18889121Y94677977D01*
X18882292Y94676772D01*
X18869867Y94661966D01*
X18855008Y94649609D01*
X18853773Y94642786D01*
X18849315Y94637472D01*
X18844792Y94611820D01*
X18844792Y93611820D01*
X18518601Y93611820D01*
X18518601Y94611820D01*
X18511937Y94630129D01*
X18508553Y94649320D01*
X18503368Y94653671D01*
X18501054Y94660029D01*
X18484180Y94669772D01*
X18469253Y94682297D01*
X18459510Y94684015D01*
X18456625Y94685681D01*
X18453342Y94685103D01*
X18443601Y94686820D01*
X18205506Y94686820D01*
X18203967Y94686260D01*
X18181789Y94682971D01*
X18038931Y94635351D01*
X18035420Y94632565D01*
X18030953Y94632174D01*
X18009616Y94617233D01*
X17914378Y94521995D01*
X17913687Y94520514D01*
X17900329Y94502503D01*
X17852710Y94407265D01*
X17852303Y94403737D01*
X17847031Y94391914D01*
X17799412Y94201438D01*
X17799772Y94197990D01*
X17797173Y94183248D01*
X17797173Y94040391D01*
X17654316Y94040391D01*
X17654316Y94829677D01*
X20756696Y94829677D01*
X20756696Y93393963D01*
G37*
X51581255Y57121372D02*
X51581255Y56645181D01*
X51247922Y57645181D02*
X51581255Y57121372D01*
X51581255Y57121372D02*
X51914588Y57645181D01*
X49422207Y12068181D02*
X49088874Y12544372D01*
X48850779Y12068181D02*
X48850779Y13068181D01*
X48850779Y13068181D02*
X49231731Y13068181D01*
X49231731Y13068181D02*
X49326969Y13020562D01*
X49326969Y13020562D02*
X49374588Y12972943D01*
X49374588Y12972943D02*
X49422207Y12877705D01*
X49422207Y12877705D02*
X49422207Y12734848D01*
X49422207Y12734848D02*
X49374588Y12639610D01*
X49374588Y12639610D02*
X49326969Y12591991D01*
X49326969Y12591991D02*
X49231731Y12544372D01*
X49231731Y12544372D02*
X48850779Y12544372D01*
X50231731Y12115800D02*
X50136493Y12068181D01*
X50136493Y12068181D02*
X49946017Y12068181D01*
X49946017Y12068181D02*
X49850779Y12115800D01*
X49850779Y12115800D02*
X49803160Y12211039D01*
X49803160Y12211039D02*
X49803160Y12591991D01*
X49803160Y12591991D02*
X49850779Y12687229D01*
X49850779Y12687229D02*
X49946017Y12734848D01*
X49946017Y12734848D02*
X50136493Y12734848D01*
X50136493Y12734848D02*
X50231731Y12687229D01*
X50231731Y12687229D02*
X50279350Y12591991D01*
X50279350Y12591991D02*
X50279350Y12496753D01*
X50279350Y12496753D02*
X49803160Y12401515D01*
X50612684Y12734848D02*
X50850779Y12068181D01*
X50850779Y12068181D02*
X51088874Y12734848D01*
X51469827Y12163420D02*
X51517446Y12115800D01*
X51517446Y12115800D02*
X51469827Y12068181D01*
X51469827Y12068181D02*
X51422208Y12115800D01*
X51422208Y12115800D02*
X51469827Y12163420D01*
X51469827Y12163420D02*
X51469827Y12068181D01*
X52469826Y12068181D02*
X51898398Y12068181D01*
X52184112Y12068181D02*
X52184112Y13068181D01*
X52184112Y13068181D02*
X52088874Y12925324D01*
X52088874Y12925324D02*
X51993636Y12830086D01*
X51993636Y12830086D02*
X51898398Y12782467D01*
G36*
X73008064Y99988324D02*
G01*
X71953303Y99988324D01*
X71953303Y100634753D01*
X72096160Y100634753D01*
X72097345Y100631496D01*
X72098399Y100616563D01*
X72146018Y100426087D01*
X72148006Y100423143D01*
X72151697Y100410736D01*
X72199316Y100315498D01*
X72200502Y100314375D01*
X72213365Y100296006D01*
X72308603Y100200767D01*
X72312667Y100198872D01*
X72315014Y100195052D01*
X72337919Y100182649D01*
X72480775Y100135030D01*
X72482410Y100135075D01*
X72504493Y100131181D01*
X72599731Y100131181D01*
X72601269Y100131742D01*
X72623448Y100135030D01*
X72766305Y100182649D01*
X72769816Y100185437D01*
X72774285Y100185827D01*
X72795622Y100200768D01*
X72843240Y100248387D01*
X72850158Y100263225D01*
X72860684Y100275768D01*
X72863527Y100291896D01*
X72864921Y100294884D01*
X72864398Y100296835D01*
X72865207Y100301420D01*
X72865207Y100634753D01*
X72858543Y100653062D01*
X72855159Y100672253D01*
X72849974Y100676604D01*
X72847660Y100682962D01*
X72830786Y100692705D01*
X72815859Y100705230D01*
X72806116Y100706948D01*
X72803231Y100708614D01*
X72799948Y100708036D01*
X72790207Y100709753D01*
X72599731Y100709753D01*
X72551522Y100692206D01*
X72525870Y100647777D01*
X72534779Y100597253D01*
X72574079Y100564276D01*
X72599731Y100559753D01*
X72715207Y100559753D01*
X72715207Y100332486D01*
X72702074Y100319353D01*
X72587561Y100281181D01*
X72516663Y100281181D01*
X72402150Y100319352D01*
X72328037Y100393466D01*
X72289543Y100470453D01*
X72246160Y100643987D01*
X72246160Y100768377D01*
X72289543Y100941911D01*
X72328037Y101018898D01*
X72402150Y101093010D01*
X72516663Y101131181D01*
X72629645Y101131181D01*
X72709047Y101091480D01*
X72760013Y101085615D01*
X72802826Y101113881D01*
X72817453Y101163056D01*
X72797050Y101210127D01*
X72776129Y101225644D01*
X72680891Y101273263D01*
X72676437Y101273776D01*
X72673002Y101276658D01*
X72647350Y101281181D01*
X72504493Y101281181D01*
X72502955Y101280622D01*
X72480775Y101277332D01*
X72337919Y101229713D01*
X72334408Y101226927D01*
X72329940Y101226536D01*
X72308603Y101211595D01*
X72213365Y101116357D01*
X72212674Y101114876D01*
X72199316Y101096865D01*
X72151697Y101001627D01*
X72151290Y100998099D01*
X72146018Y100986276D01*
X72098399Y100795800D01*
X72098759Y100792352D01*
X72096160Y100777610D01*
X72096160Y100634753D01*
X71953303Y100634753D01*
X71953303Y101424038D01*
X73008064Y101424038D01*
X73008064Y99988324D01*
G37*
G36*
X54690601Y93686820D02*
G01*
X54539676Y93686820D01*
X54425163Y93724991D01*
X54351049Y93799105D01*
X54312556Y93876091D01*
X54269173Y94049626D01*
X54269173Y94174014D01*
X54312556Y94347549D01*
X54351049Y94424535D01*
X54425162Y94498648D01*
X54539677Y94536820D01*
X54690601Y94536820D01*
X54690601Y93686820D01*
G37*
G36*
X57078696Y93393963D02*
G01*
X53976316Y93393963D01*
X53976316Y94040391D01*
X54119173Y94040391D01*
X54120358Y94037134D01*
X54121412Y94022201D01*
X54169031Y93831725D01*
X54171019Y93828781D01*
X54174710Y93816374D01*
X54222329Y93721136D01*
X54223518Y93720011D01*
X54236378Y93701644D01*
X54331616Y93606406D01*
X54335680Y93604511D01*
X54338027Y93600691D01*
X54360932Y93588288D01*
X54503788Y93540669D01*
X54505423Y93540714D01*
X54527506Y93536820D01*
X54765601Y93536820D01*
X54783909Y93543484D01*
X54803101Y93546868D01*
X54807451Y93552053D01*
X54813810Y93554367D01*
X54823552Y93571241D01*
X54836078Y93586168D01*
X54837795Y93595911D01*
X54839462Y93598796D01*
X54838883Y93602079D01*
X54840601Y93611820D01*
X55166792Y93611820D01*
X55184339Y93563611D01*
X55228768Y93537959D01*
X55279292Y93546868D01*
X55312269Y93586168D01*
X55316792Y93611820D01*
X55316792Y94329404D01*
X55748102Y93574609D01*
X55753395Y93570128D01*
X55755767Y93563611D01*
X55772504Y93553948D01*
X55787255Y93541458D01*
X55794189Y93541428D01*
X55800196Y93537959D01*
X55819229Y93541316D01*
X55838557Y93541229D01*
X55843890Y93545664D01*
X55850720Y93546868D01*
X55863144Y93561675D01*
X55878004Y93574031D01*
X55879238Y93580855D01*
X55883697Y93586168D01*
X55888220Y93611820D01*
X55888220Y94183248D01*
X56166792Y94183248D01*
X56173455Y94164940D01*
X56176840Y94145748D01*
X56182024Y94141398D01*
X56184339Y94135039D01*
X56201212Y94125297D01*
X56216140Y94112771D01*
X56225882Y94111054D01*
X56228768Y94109387D01*
X56232050Y94109966D01*
X56241792Y94108248D01*
X56432268Y94108248D01*
X56480477Y94125795D01*
X56506129Y94170224D01*
X56497220Y94220748D01*
X56457920Y94253725D01*
X56432268Y94258248D01*
X56316792Y94258248D01*
X56316792Y94485515D01*
X56329924Y94498648D01*
X56444439Y94536820D01*
X56515335Y94536820D01*
X56629848Y94498649D01*
X56703962Y94424536D01*
X56742455Y94347549D01*
X56785838Y94174015D01*
X56785838Y94049625D01*
X56742455Y93876091D01*
X56703962Y93799105D01*
X56629849Y93724992D01*
X56515336Y93686820D01*
X56402354Y93686820D01*
X56322952Y93726521D01*
X56271985Y93732386D01*
X56229172Y93704120D01*
X56214546Y93654945D01*
X56234949Y93607874D01*
X56255870Y93592357D01*
X56351108Y93544738D01*
X56355561Y93544226D01*
X56358997Y93541343D01*
X56384649Y93536820D01*
X56527506Y93536820D01*
X56529044Y93537381D01*
X56551223Y93540669D01*
X56694080Y93588288D01*
X56697592Y93591076D01*
X56702059Y93591466D01*
X56723396Y93606406D01*
X56818634Y93701644D01*
X56819324Y93703126D01*
X56832683Y93721136D01*
X56880302Y93816374D01*
X56880708Y93819903D01*
X56885981Y93831725D01*
X56933600Y94022201D01*
X56933239Y94025650D01*
X56935839Y94040391D01*
X56935839Y94183248D01*
X56934653Y94186506D01*
X56933600Y94201438D01*
X56885981Y94391914D01*
X56883992Y94394859D01*
X56880302Y94407265D01*
X56832683Y94502503D01*
X56831496Y94503627D01*
X56818634Y94521995D01*
X56723396Y94617233D01*
X56719333Y94619128D01*
X56716986Y94622948D01*
X56694081Y94635351D01*
X56551224Y94682971D01*
X56549588Y94682927D01*
X56527506Y94686820D01*
X56432268Y94686820D01*
X56430729Y94686260D01*
X56408551Y94682971D01*
X56265693Y94635351D01*
X56262180Y94632564D01*
X56257715Y94632173D01*
X56236378Y94617233D01*
X56188759Y94569614D01*
X56181840Y94554777D01*
X56171315Y94542233D01*
X56168471Y94526106D01*
X56167078Y94523117D01*
X56167600Y94521167D01*
X56166792Y94516581D01*
X56166792Y94183248D01*
X55888220Y94183248D01*
X55888220Y94611820D01*
X55870673Y94660029D01*
X55826244Y94685681D01*
X55775720Y94676772D01*
X55742743Y94637472D01*
X55738220Y94611820D01*
X55738220Y93894237D01*
X55306910Y94649030D01*
X55301617Y94653512D01*
X55299245Y94660029D01*
X55282505Y94669694D01*
X55267757Y94682182D01*
X55260822Y94682213D01*
X55254816Y94685681D01*
X55235782Y94682325D01*
X55216455Y94682411D01*
X55211121Y94677977D01*
X55204292Y94676772D01*
X55191867Y94661966D01*
X55177008Y94649609D01*
X55175773Y94642786D01*
X55171315Y94637472D01*
X55166792Y94611820D01*
X55166792Y93611820D01*
X54840601Y93611820D01*
X54840601Y94611820D01*
X54833937Y94630129D01*
X54830553Y94649320D01*
X54825368Y94653671D01*
X54823054Y94660029D01*
X54806180Y94669772D01*
X54791253Y94682297D01*
X54781510Y94684015D01*
X54778625Y94685681D01*
X54775342Y94685103D01*
X54765601Y94686820D01*
X54527506Y94686820D01*
X54525967Y94686260D01*
X54503789Y94682971D01*
X54360931Y94635351D01*
X54357420Y94632565D01*
X54352953Y94632174D01*
X54331616Y94617233D01*
X54236378Y94521995D01*
X54235687Y94520514D01*
X54222329Y94502503D01*
X54174710Y94407265D01*
X54174303Y94403737D01*
X54169031Y94391914D01*
X54121412Y94201438D01*
X54121772Y94197990D01*
X54119173Y94183248D01*
X54119173Y94040391D01*
X53976316Y94040391D01*
X53976316Y94829677D01*
X57078696Y94829677D01*
X57078696Y93393963D01*
G37*
X12862160Y18957896D02*
X13338350Y18957896D01*
X12766922Y18672181D02*
X13100255Y19672181D01*
X13100255Y19672181D02*
X13433588Y18672181D01*
G36*
X54032836Y9653010D02*
G01*
X54106949Y9578897D01*
X54145442Y9501910D01*
X54188826Y9328376D01*
X54188826Y9203987D01*
X54145442Y9030454D01*
X54106948Y8953466D01*
X54032836Y8879353D01*
X53918323Y8841181D01*
X53767398Y8841181D01*
X53767398Y9691181D01*
X53918323Y9691181D01*
X54032836Y9653010D01*
G37*
G36*
X54481683Y8548324D02*
G01*
X51379303Y8548324D01*
X51379303Y9194753D01*
X51522160Y9194753D01*
X51523345Y9191496D01*
X51524399Y9176563D01*
X51572018Y8986087D01*
X51574006Y8983143D01*
X51577697Y8970736D01*
X51625316Y8875498D01*
X51626502Y8874375D01*
X51639365Y8856006D01*
X51734603Y8760767D01*
X51738667Y8758872D01*
X51741014Y8755052D01*
X51763919Y8742649D01*
X51906775Y8695030D01*
X51908410Y8695075D01*
X51930493Y8691181D01*
X52025731Y8691181D01*
X52027269Y8691742D01*
X52049448Y8695030D01*
X52192305Y8742649D01*
X52195816Y8745437D01*
X52200285Y8745827D01*
X52221622Y8760768D01*
X52227035Y8766181D01*
X52569779Y8766181D01*
X52587326Y8717972D01*
X52631755Y8692320D01*
X52682279Y8701229D01*
X52715256Y8740529D01*
X52719779Y8766181D01*
X52719779Y9483765D01*
X53151089Y8728970D01*
X53156382Y8724489D01*
X53158754Y8717972D01*
X53175491Y8708309D01*
X53190242Y8695819D01*
X53197176Y8695789D01*
X53203183Y8692320D01*
X53222216Y8695677D01*
X53241544Y8695590D01*
X53246877Y8700025D01*
X53253707Y8701229D01*
X53266131Y8716036D01*
X53280991Y8728392D01*
X53282225Y8735216D01*
X53286684Y8740529D01*
X53291207Y8766181D01*
X53617398Y8766181D01*
X53624061Y8747873D01*
X53627446Y8728681D01*
X53632630Y8724331D01*
X53634945Y8717972D01*
X53651818Y8708230D01*
X53666746Y8695704D01*
X53676488Y8693987D01*
X53679374Y8692320D01*
X53682656Y8692899D01*
X53692398Y8691181D01*
X53930493Y8691181D01*
X53932031Y8691742D01*
X53954210Y8695030D01*
X54097067Y8742649D01*
X54100579Y8745437D01*
X54105046Y8745827D01*
X54126383Y8760767D01*
X54221622Y8856007D01*
X54222313Y8857490D01*
X54235670Y8875498D01*
X54283289Y8970736D01*
X54283695Y8974265D01*
X54288968Y8986087D01*
X54336587Y9176563D01*
X54336226Y9180012D01*
X54338826Y9194753D01*
X54338826Y9337610D01*
X54337640Y9340868D01*
X54336587Y9355800D01*
X54288968Y9546276D01*
X54286979Y9549221D01*
X54283289Y9561627D01*
X54235670Y9656865D01*
X54234483Y9657989D01*
X54221621Y9676357D01*
X54126383Y9771595D01*
X54122319Y9773490D01*
X54119972Y9777311D01*
X54097067Y9789713D01*
X53954210Y9837332D01*
X53952575Y9837288D01*
X53930493Y9841181D01*
X53692398Y9841181D01*
X53674089Y9834518D01*
X53654898Y9831133D01*
X53650547Y9825949D01*
X53644189Y9823634D01*
X53634446Y9806761D01*
X53621921Y9791833D01*
X53620203Y9782091D01*
X53618537Y9779205D01*
X53619115Y9775923D01*
X53617398Y9766181D01*
X53617398Y8766181D01*
X53291207Y8766181D01*
X53291207Y9766181D01*
X53273660Y9814390D01*
X53229231Y9840042D01*
X53178707Y9831133D01*
X53145730Y9791833D01*
X53141207Y9766181D01*
X53141207Y9048598D01*
X52709897Y9803391D01*
X52704604Y9807873D01*
X52702232Y9814390D01*
X52685492Y9824055D01*
X52670744Y9836543D01*
X52663809Y9836574D01*
X52657803Y9840042D01*
X52638769Y9836686D01*
X52619442Y9836772D01*
X52614108Y9832338D01*
X52607279Y9831133D01*
X52594854Y9816327D01*
X52579995Y9803970D01*
X52578760Y9797147D01*
X52574302Y9791833D01*
X52569779Y9766181D01*
X52569779Y8766181D01*
X52227035Y8766181D01*
X52269240Y8808387D01*
X52276158Y8823225D01*
X52286684Y8835768D01*
X52289527Y8851896D01*
X52290921Y8854884D01*
X52290398Y8856835D01*
X52291207Y8861420D01*
X52291207Y9194753D01*
X52284543Y9213062D01*
X52281159Y9232253D01*
X52275974Y9236604D01*
X52273660Y9242962D01*
X52256786Y9252705D01*
X52241859Y9265230D01*
X52232116Y9266948D01*
X52229231Y9268614D01*
X52225948Y9268036D01*
X52216207Y9269753D01*
X52025731Y9269753D01*
X51977522Y9252206D01*
X51951870Y9207777D01*
X51960779Y9157253D01*
X52000079Y9124276D01*
X52025731Y9119753D01*
X52141207Y9119753D01*
X52141207Y8892486D01*
X52128074Y8879353D01*
X52013561Y8841181D01*
X51942663Y8841181D01*
X51828150Y8879352D01*
X51754037Y8953466D01*
X51715543Y9030453D01*
X51672160Y9203987D01*
X51672160Y9328377D01*
X51715543Y9501910D01*
X51754037Y9578897D01*
X51828150Y9653011D01*
X51942663Y9691181D01*
X52055645Y9691181D01*
X52135047Y9651480D01*
X52186013Y9645615D01*
X52228826Y9673881D01*
X52243453Y9723056D01*
X52223050Y9770127D01*
X52202129Y9785644D01*
X52106891Y9833263D01*
X52102437Y9833776D01*
X52099002Y9836658D01*
X52073350Y9841181D01*
X51930493Y9841181D01*
X51928955Y9840622D01*
X51906775Y9837332D01*
X51763919Y9789713D01*
X51760408Y9786927D01*
X51755940Y9786536D01*
X51734603Y9771595D01*
X51639365Y9676357D01*
X51638674Y9674876D01*
X51625316Y9656865D01*
X51577697Y9561627D01*
X51577290Y9558099D01*
X51572018Y9546276D01*
X51524399Y9355800D01*
X51524759Y9352352D01*
X51522160Y9337610D01*
X51522160Y9194753D01*
X51379303Y9194753D01*
X51379303Y9984038D01*
X54481683Y9984038D01*
X54481683Y8548324D01*
G37*
G36*
X58530064Y56300324D02*
G01*
X57475303Y56300324D01*
X57475303Y56946753D01*
X57618160Y56946753D01*
X57619345Y56943496D01*
X57620399Y56928563D01*
X57668018Y56738087D01*
X57670006Y56735143D01*
X57673697Y56722736D01*
X57721316Y56627498D01*
X57722502Y56626375D01*
X57735365Y56608006D01*
X57830603Y56512767D01*
X57834667Y56510872D01*
X57837014Y56507052D01*
X57859919Y56494649D01*
X58002775Y56447030D01*
X58004410Y56447075D01*
X58026493Y56443181D01*
X58121731Y56443181D01*
X58123269Y56443742D01*
X58145448Y56447030D01*
X58288305Y56494649D01*
X58291816Y56497437D01*
X58296285Y56497827D01*
X58317622Y56512768D01*
X58365240Y56560387D01*
X58372158Y56575225D01*
X58382684Y56587768D01*
X58385527Y56603896D01*
X58386921Y56606884D01*
X58386398Y56608835D01*
X58387207Y56613420D01*
X58387207Y56946753D01*
X58380543Y56965062D01*
X58377159Y56984253D01*
X58371974Y56988604D01*
X58369660Y56994962D01*
X58352786Y57004705D01*
X58337859Y57017230D01*
X58328116Y57018948D01*
X58325231Y57020614D01*
X58321948Y57020036D01*
X58312207Y57021753D01*
X58121731Y57021753D01*
X58073522Y57004206D01*
X58047870Y56959777D01*
X58056779Y56909253D01*
X58096079Y56876276D01*
X58121731Y56871753D01*
X58237207Y56871753D01*
X58237207Y56644486D01*
X58224074Y56631353D01*
X58109561Y56593181D01*
X58038663Y56593181D01*
X57924150Y56631352D01*
X57850037Y56705466D01*
X57811543Y56782453D01*
X57768160Y56955987D01*
X57768160Y57080377D01*
X57811543Y57253910D01*
X57850036Y57330897D01*
X57924150Y57405010D01*
X58038663Y57443181D01*
X58151645Y57443181D01*
X58231047Y57403480D01*
X58282013Y57397615D01*
X58324826Y57425881D01*
X58339453Y57475056D01*
X58319050Y57522127D01*
X58298129Y57537644D01*
X58202891Y57585263D01*
X58198437Y57585776D01*
X58195002Y57588658D01*
X58169350Y57593181D01*
X58026493Y57593181D01*
X58024955Y57592622D01*
X58002775Y57589332D01*
X57859919Y57541713D01*
X57856408Y57538927D01*
X57851940Y57538536D01*
X57830603Y57523595D01*
X57735365Y57428357D01*
X57734674Y57426876D01*
X57721316Y57408865D01*
X57673697Y57313627D01*
X57673290Y57310099D01*
X57668018Y57298276D01*
X57620399Y57107800D01*
X57620759Y57104352D01*
X57618160Y57089610D01*
X57618160Y56946753D01*
X57475303Y56946753D01*
X57475303Y57736038D01*
X58530064Y57736038D01*
X58530064Y56300324D01*
G37*
X12941541Y57645181D02*
X13608207Y56645181D01*
X13608207Y57645181D02*
X12941541Y56645181D01*
G36*
X58276064Y18200324D02*
G01*
X57221303Y18200324D01*
X57221303Y18846753D01*
X57364160Y18846753D01*
X57365345Y18843496D01*
X57366399Y18828563D01*
X57414018Y18638087D01*
X57416006Y18635143D01*
X57419697Y18622736D01*
X57467316Y18527498D01*
X57468502Y18526375D01*
X57481365Y18508006D01*
X57576603Y18412767D01*
X57580667Y18410872D01*
X57583014Y18407052D01*
X57605919Y18394649D01*
X57748775Y18347030D01*
X57750410Y18347075D01*
X57772493Y18343181D01*
X57867731Y18343181D01*
X57869269Y18343742D01*
X57891448Y18347030D01*
X58034305Y18394649D01*
X58037816Y18397437D01*
X58042285Y18397827D01*
X58063622Y18412768D01*
X58111240Y18460387D01*
X58118158Y18475225D01*
X58128684Y18487768D01*
X58131527Y18503896D01*
X58132921Y18506884D01*
X58132398Y18508835D01*
X58133207Y18513420D01*
X58133207Y18846753D01*
X58126543Y18865062D01*
X58123159Y18884253D01*
X58117974Y18888604D01*
X58115660Y18894962D01*
X58098786Y18904705D01*
X58083859Y18917230D01*
X58074116Y18918948D01*
X58071231Y18920614D01*
X58067948Y18920036D01*
X58058207Y18921753D01*
X57867731Y18921753D01*
X57819522Y18904206D01*
X57793870Y18859777D01*
X57802779Y18809253D01*
X57842079Y18776276D01*
X57867731Y18771753D01*
X57983207Y18771753D01*
X57983207Y18544486D01*
X57970074Y18531353D01*
X57855561Y18493181D01*
X57784663Y18493181D01*
X57670150Y18531352D01*
X57596037Y18605466D01*
X57557543Y18682453D01*
X57514160Y18855987D01*
X57514160Y18980377D01*
X57557543Y19153910D01*
X57596037Y19230898D01*
X57670150Y19305010D01*
X57784663Y19343181D01*
X57897645Y19343181D01*
X57977047Y19303480D01*
X58028013Y19297615D01*
X58070826Y19325881D01*
X58085453Y19375056D01*
X58065050Y19422127D01*
X58044129Y19437644D01*
X57948891Y19485263D01*
X57944437Y19485776D01*
X57941002Y19488658D01*
X57915350Y19493181D01*
X57772493Y19493181D01*
X57770955Y19492622D01*
X57748775Y19489332D01*
X57605919Y19441713D01*
X57602408Y19438927D01*
X57597940Y19438536D01*
X57576603Y19423595D01*
X57481365Y19328357D01*
X57480674Y19326876D01*
X57467316Y19308865D01*
X57419697Y19213627D01*
X57419290Y19210099D01*
X57414018Y19198276D01*
X57366399Y19007800D01*
X57366759Y19004352D01*
X57364160Y18989610D01*
X57364160Y18846753D01*
X57221303Y18846753D01*
X57221303Y19636038D01*
X58276064Y19636038D01*
X58276064Y18200324D01*
G37*
G36*
X108571547Y44112444D02*
G01*
X108648534Y44073950D01*
X108722648Y43999837D01*
X108760819Y43885324D01*
X108760819Y43734399D01*
X107910819Y43734399D01*
X107910819Y43885324D01*
X107948990Y43999838D01*
X108023103Y44073951D01*
X108100090Y44112444D01*
X108273624Y44155827D01*
X108398013Y44155827D01*
X108571547Y44112444D01*
G37*
G36*
X109053676Y41346304D02*
G01*
X107617962Y41346304D01*
X107617962Y41897494D01*
X107760819Y41897494D01*
X107761379Y41895956D01*
X107764668Y41873777D01*
X107812287Y41730920D01*
X107815074Y41727408D01*
X107815465Y41722941D01*
X107830405Y41701604D01*
X107925643Y41606366D01*
X107927124Y41605676D01*
X107945135Y41592317D01*
X108040373Y41544698D01*
X108043901Y41544292D01*
X108055724Y41539019D01*
X108246200Y41491400D01*
X108249648Y41491761D01*
X108264390Y41489161D01*
X108407247Y41489161D01*
X108410504Y41490347D01*
X108425437Y41491400D01*
X108615913Y41539019D01*
X108618857Y41541008D01*
X108631264Y41544698D01*
X108726502Y41592317D01*
X108727625Y41593504D01*
X108745994Y41606366D01*
X108841233Y41701604D01*
X108843128Y41705669D01*
X108846948Y41708015D01*
X108859351Y41730920D01*
X108906970Y41873776D01*
X108906925Y41875412D01*
X108910819Y41897494D01*
X108910819Y41992732D01*
X108910259Y41994270D01*
X108906970Y42016450D01*
X108859351Y42159306D01*
X108856563Y42162818D01*
X108856173Y42167286D01*
X108841232Y42188623D01*
X108793612Y42236242D01*
X108778774Y42243161D01*
X108766232Y42253685D01*
X108750104Y42256529D01*
X108747116Y42257922D01*
X108745165Y42257400D01*
X108740580Y42258208D01*
X108407247Y42258208D01*
X108388938Y42251545D01*
X108369747Y42248160D01*
X108365396Y42242976D01*
X108359038Y42240661D01*
X108349295Y42223788D01*
X108336770Y42208860D01*
X108335052Y42199118D01*
X108333386Y42196232D01*
X108333964Y42192950D01*
X108332247Y42183208D01*
X108332247Y41992732D01*
X108349794Y41944523D01*
X108394223Y41918871D01*
X108444747Y41927780D01*
X108477724Y41967080D01*
X108482247Y41992732D01*
X108482247Y42108208D01*
X108709514Y42108208D01*
X108722648Y42095075D01*
X108760819Y41980562D01*
X108760819Y41909665D01*
X108722648Y41795152D01*
X108648534Y41721039D01*
X108571547Y41682545D01*
X108398013Y41639161D01*
X108273624Y41639161D01*
X108100090Y41682545D01*
X108023103Y41721038D01*
X107948990Y41795151D01*
X107910819Y41909665D01*
X107910819Y42022647D01*
X107950520Y42102048D01*
X107956385Y42153014D01*
X107928119Y42195827D01*
X107878944Y42210454D01*
X107831873Y42190051D01*
X107816356Y42169130D01*
X107768737Y42073892D01*
X107768224Y42069439D01*
X107765342Y42066003D01*
X107760819Y42040351D01*
X107760819Y41897494D01*
X107617962Y41897494D01*
X107617962Y42624804D01*
X107761958Y42624804D01*
X107765314Y42605771D01*
X107765228Y42586443D01*
X107769662Y42581110D01*
X107770867Y42574280D01*
X107785673Y42561856D01*
X107798030Y42546996D01*
X107804853Y42545762D01*
X107810167Y42541303D01*
X107835819Y42536780D01*
X108835819Y42536780D01*
X108884028Y42554327D01*
X108909680Y42598756D01*
X108900771Y42649280D01*
X108861471Y42682257D01*
X108835819Y42686780D01*
X108118236Y42686780D01*
X108873030Y43118090D01*
X108877511Y43123384D01*
X108884028Y43125755D01*
X108893691Y43142493D01*
X108906181Y43157243D01*
X108906211Y43164178D01*
X108909680Y43170184D01*
X108906323Y43189218D01*
X108906410Y43208545D01*
X108901975Y43213879D01*
X108900771Y43220708D01*
X108885964Y43233133D01*
X108873608Y43247992D01*
X108866784Y43249227D01*
X108861471Y43253685D01*
X108835819Y43258208D01*
X107835819Y43258208D01*
X107787610Y43240661D01*
X107761958Y43196232D01*
X107770867Y43145708D01*
X107810167Y43112731D01*
X107835819Y43108208D01*
X108553402Y43108208D01*
X107798609Y42676898D01*
X107794127Y42671606D01*
X107787610Y42669233D01*
X107777945Y42652494D01*
X107765457Y42637745D01*
X107765426Y42630811D01*
X107761958Y42624804D01*
X107617962Y42624804D01*
X107617962Y43659399D01*
X107760819Y43659399D01*
X107767482Y43641091D01*
X107770867Y43621899D01*
X107776051Y43617549D01*
X107778366Y43611190D01*
X107795239Y43601448D01*
X107810167Y43588922D01*
X107819909Y43587205D01*
X107822795Y43585538D01*
X107826077Y43586117D01*
X107835819Y43584399D01*
X108835819Y43584399D01*
X108854127Y43591063D01*
X108873319Y43594447D01*
X108877669Y43599632D01*
X108884028Y43601946D01*
X108893770Y43618820D01*
X108906296Y43633747D01*
X108908013Y43643490D01*
X108909680Y43646375D01*
X108909101Y43649658D01*
X108910819Y43659399D01*
X108910819Y43897494D01*
X108910259Y43899032D01*
X108906970Y43921212D01*
X108859351Y44064068D01*
X108856564Y44067579D01*
X108856174Y44072047D01*
X108841233Y44093384D01*
X108745994Y44188622D01*
X108744512Y44189313D01*
X108726502Y44202671D01*
X108631264Y44250290D01*
X108627735Y44250697D01*
X108615913Y44255969D01*
X108425437Y44303588D01*
X108421988Y44303228D01*
X108407247Y44305827D01*
X108264390Y44305827D01*
X108261132Y44304642D01*
X108246200Y44303588D01*
X108055724Y44255969D01*
X108052779Y44253981D01*
X108040373Y44250290D01*
X107945135Y44202671D01*
X107944011Y44201485D01*
X107925643Y44188622D01*
X107830405Y44093384D01*
X107828510Y44089321D01*
X107824689Y44086973D01*
X107812287Y44064068D01*
X107764668Y43921211D01*
X107764712Y43919577D01*
X107760819Y43897494D01*
X107760819Y43659399D01*
X107617962Y43659399D01*
X107617962Y44448684D01*
X109053676Y44448684D01*
X109053676Y41346304D01*
G37*
G36*
X80882064Y99988324D02*
G01*
X79827303Y99988324D01*
X79827303Y100634753D01*
X79970160Y100634753D01*
X79971345Y100631496D01*
X79972399Y100616563D01*
X80020018Y100426087D01*
X80022006Y100423143D01*
X80025697Y100410736D01*
X80073316Y100315498D01*
X80074502Y100314375D01*
X80087365Y100296006D01*
X80182603Y100200767D01*
X80186667Y100198872D01*
X80189014Y100195052D01*
X80211919Y100182649D01*
X80354775Y100135030D01*
X80356410Y100135075D01*
X80378493Y100131181D01*
X80473731Y100131181D01*
X80475269Y100131742D01*
X80497448Y100135030D01*
X80640305Y100182649D01*
X80643816Y100185437D01*
X80648285Y100185827D01*
X80669622Y100200768D01*
X80717240Y100248387D01*
X80724158Y100263225D01*
X80734684Y100275768D01*
X80737527Y100291896D01*
X80738921Y100294884D01*
X80738398Y100296835D01*
X80739207Y100301420D01*
X80739207Y100634753D01*
X80732543Y100653062D01*
X80729159Y100672253D01*
X80723974Y100676604D01*
X80721660Y100682962D01*
X80704786Y100692705D01*
X80689859Y100705230D01*
X80680116Y100706948D01*
X80677231Y100708614D01*
X80673948Y100708036D01*
X80664207Y100709753D01*
X80473731Y100709753D01*
X80425522Y100692206D01*
X80399870Y100647777D01*
X80408779Y100597253D01*
X80448079Y100564276D01*
X80473731Y100559753D01*
X80589207Y100559753D01*
X80589207Y100332486D01*
X80576074Y100319353D01*
X80461561Y100281181D01*
X80390663Y100281181D01*
X80276150Y100319352D01*
X80202037Y100393466D01*
X80163543Y100470454D01*
X80120160Y100643987D01*
X80120160Y100768377D01*
X80163543Y100941910D01*
X80202037Y101018898D01*
X80276150Y101093011D01*
X80390663Y101131181D01*
X80503645Y101131181D01*
X80583047Y101091480D01*
X80634013Y101085615D01*
X80676826Y101113881D01*
X80691453Y101163056D01*
X80671050Y101210127D01*
X80650129Y101225644D01*
X80554891Y101273263D01*
X80550437Y101273776D01*
X80547002Y101276658D01*
X80521350Y101281181D01*
X80378493Y101281181D01*
X80376955Y101280622D01*
X80354775Y101277332D01*
X80211919Y101229713D01*
X80208408Y101226927D01*
X80203940Y101226536D01*
X80182603Y101211595D01*
X80087365Y101116357D01*
X80086674Y101114876D01*
X80073316Y101096865D01*
X80025697Y101001627D01*
X80025290Y100998099D01*
X80020018Y100986276D01*
X79972399Y100795800D01*
X79972759Y100792352D01*
X79970160Y100777610D01*
X79970160Y100634753D01*
X79827303Y100634753D01*
X79827303Y101424038D01*
X80882064Y101424038D01*
X80882064Y99988324D01*
G37*
D12*
%TO.C,J4*%
X15942000Y5528000D02*
X15942000Y6858000D01*
X17272000Y5528000D02*
X15942000Y5528000D01*
X18542000Y5528000D02*
X54162000Y5528000D01*
X18542000Y5528000D02*
X18542000Y8188000D01*
X54162000Y5528000D02*
X54162000Y8188000D01*
X18542000Y8188000D02*
X54162000Y8188000D01*
%TO.C,J12*%
X85284000Y36516000D02*
X85284000Y37846000D01*
X86614000Y36516000D02*
X85284000Y36516000D01*
X87884000Y36516000D02*
X90484000Y36516000D01*
X87884000Y36516000D02*
X87884000Y39176000D01*
X90484000Y36516000D02*
X90484000Y39176000D01*
X87884000Y39176000D02*
X90484000Y39176000D01*
%TO.C,J14*%
X70552000Y94682000D02*
X70552000Y96012000D01*
X71882000Y94682000D02*
X70552000Y94682000D01*
X73152000Y94682000D02*
X75752000Y94682000D01*
X73152000Y94682000D02*
X73152000Y97342000D01*
X75752000Y94682000D02*
X75752000Y97342000D01*
X73152000Y97342000D02*
X75752000Y97342000D01*
%TO.C,J3*%
X56448000Y97596000D02*
X56448000Y96266000D01*
X55118000Y97596000D02*
X56448000Y97596000D01*
X53848000Y97596000D02*
X18228000Y97596000D01*
X53848000Y97596000D02*
X53848000Y94936000D01*
X18228000Y97596000D02*
X18228000Y94936000D01*
X53848000Y94936000D02*
X18228000Y94936000D01*
%TO.C,J10*%
X13930000Y55820000D02*
X13930000Y57150000D01*
X15260000Y55820000D02*
X13930000Y55820000D01*
X16530000Y55820000D02*
X19130000Y55820000D01*
X16530000Y55820000D02*
X16530000Y58480000D01*
X19130000Y55820000D02*
X19130000Y58480000D01*
X16530000Y58480000D02*
X19130000Y58480000D01*
%TO.C,J8*%
X13905000Y17720000D02*
X13905000Y19050000D01*
X15235000Y17720000D02*
X13905000Y17720000D01*
X16505000Y17720000D02*
X19105000Y17720000D01*
X16505000Y17720000D02*
X16505000Y20380000D01*
X19105000Y17720000D02*
X19105000Y20380000D01*
X16505000Y20380000D02*
X19105000Y20380000D01*
%TO.C,J11*%
X52264000Y55820000D02*
X52264000Y57150000D01*
X53594000Y55820000D02*
X52264000Y55820000D01*
X54864000Y55820000D02*
X57464000Y55820000D01*
X54864000Y55820000D02*
X54864000Y58480000D01*
X57464000Y55820000D02*
X57464000Y58480000D01*
X54864000Y58480000D02*
X57464000Y58480000D01*
%TO.C,J2*%
X24442000Y888400D02*
X24442000Y1888400D01*
X24442000Y888400D02*
X25442000Y888400D01*
X24732000Y4598400D02*
X24732000Y1178400D01*
X24732000Y1178400D02*
X45452000Y1178400D01*
X25042000Y3238400D02*
X25242000Y3238400D01*
X25042000Y2438400D02*
X25042000Y3238400D01*
X25242000Y4088400D02*
X35092000Y4088400D01*
X25242000Y3238400D02*
X25242000Y4088400D01*
X25242000Y2438400D02*
X25042000Y2438400D01*
X25242000Y1688400D02*
X25242000Y2438400D01*
X35092000Y1688400D02*
X25242000Y1688400D01*
X35092000Y1688400D02*
X44942000Y1688400D01*
X44942000Y4088400D02*
X35092000Y4088400D01*
X44942000Y3238400D02*
X44942000Y4088400D01*
X44942000Y2438400D02*
X45142000Y2438400D01*
X44942000Y1688400D02*
X44942000Y2438400D01*
X45142000Y3238400D02*
X44942000Y3238400D01*
X45142000Y2438400D02*
X45142000Y3238400D01*
X45452000Y4598400D02*
X24732000Y4598400D01*
X45452000Y1178400D02*
X45452000Y4598400D01*
%TO.C,J1*%
X47594000Y102261000D02*
X47594000Y101261000D01*
X47594000Y102261000D02*
X46594000Y102261000D01*
X47304000Y98551000D02*
X47304000Y101971000D01*
X47304000Y101971000D02*
X26584000Y101971000D01*
X46994000Y99911000D02*
X46794000Y99911000D01*
X46994000Y100711000D02*
X46994000Y99911000D01*
X46794000Y99061000D02*
X36944000Y99061000D01*
X46794000Y99911000D02*
X46794000Y99061000D01*
X46794000Y100711000D02*
X46994000Y100711000D01*
X46794000Y101461000D02*
X46794000Y100711000D01*
X36944000Y101461000D02*
X46794000Y101461000D01*
X36944000Y101461000D02*
X27094000Y101461000D01*
X27094000Y99061000D02*
X36944000Y99061000D01*
X27094000Y99911000D02*
X27094000Y99061000D01*
X27094000Y100711000D02*
X26894000Y100711000D01*
X27094000Y101461000D02*
X27094000Y100711000D01*
X26894000Y99911000D02*
X27094000Y99911000D01*
X26894000Y100711000D02*
X26894000Y99911000D01*
X26584000Y98551000D02*
X47304000Y98551000D01*
X26584000Y101971000D02*
X26584000Y98551000D01*
%TO.C,J13*%
X75124000Y956000D02*
X75124000Y2286000D01*
X76454000Y956000D02*
X75124000Y956000D01*
X77724000Y956000D02*
X80324000Y956000D01*
X77724000Y956000D02*
X77724000Y3616000D01*
X80324000Y956000D02*
X80324000Y3616000D01*
X77724000Y3616000D02*
X80324000Y3616000D01*
%TO.C,J7*%
X66742000Y99381000D02*
X66742000Y100711000D01*
X68072000Y99381000D02*
X66742000Y99381000D01*
X69342000Y99381000D02*
X71942000Y99381000D01*
X69342000Y99381000D02*
X69342000Y102041000D01*
X71942000Y99381000D02*
X71942000Y102041000D01*
X69342000Y102041000D02*
X71942000Y102041000D01*
%TO.C,J6*%
X74616000Y99381000D02*
X74616000Y100711000D01*
X75946000Y99381000D02*
X74616000Y99381000D01*
X77216000Y99381000D02*
X79816000Y99381000D01*
X77216000Y99381000D02*
X77216000Y102041000D01*
X79816000Y99381000D02*
X79816000Y102041000D01*
X77216000Y102041000D02*
X79816000Y102041000D01*
%TO.C,J5*%
X111947000Y30801000D02*
X110617000Y30801000D01*
X111947000Y32131000D02*
X111947000Y30801000D01*
X111947000Y33401000D02*
X111947000Y43621000D01*
X111947000Y33401000D02*
X109287000Y33401000D01*
X111947000Y43621000D02*
X109287000Y43621000D01*
X109287000Y33401000D02*
X109287000Y43621000D01*
%TO.C,J9*%
X52005000Y17720000D02*
X52005000Y19050000D01*
X53335000Y17720000D02*
X52005000Y17720000D01*
X54605000Y17720000D02*
X57205000Y17720000D01*
X54605000Y17720000D02*
X54605000Y20380000D01*
X57205000Y17720000D02*
X57205000Y20380000D01*
X54605000Y20380000D02*
X57205000Y20380000D01*
%TD*%
%LPC*%
D13*
%TO.C,J4*%
X17272000Y6858000D03*
D14*
X19812000Y6858000D03*
X22352000Y6858000D03*
X24892000Y6858000D03*
X27432000Y6858000D03*
X29972000Y6858000D03*
X32512000Y6858000D03*
X35052000Y6858000D03*
X37592000Y6858000D03*
X40132000Y6858000D03*
X42672000Y6858000D03*
X45212000Y6858000D03*
X47752000Y6858000D03*
X50292000Y6858000D03*
X52832000Y6858000D03*
%TD*%
D13*
%TO.C,J12*%
X86614000Y37846000D03*
D14*
X89154000Y37846000D03*
%TD*%
D13*
%TO.C,J14*%
X71882000Y96012000D03*
D14*
X74422000Y96012000D03*
%TD*%
D13*
%TO.C,J3*%
X55118000Y96266000D03*
D14*
X52578000Y96266000D03*
X50038000Y96266000D03*
X47498000Y96266000D03*
X44958000Y96266000D03*
X42418000Y96266000D03*
X39878000Y96266000D03*
X37338000Y96266000D03*
X34798000Y96266000D03*
X32258000Y96266000D03*
X29718000Y96266000D03*
X27178000Y96266000D03*
X24638000Y96266000D03*
X22098000Y96266000D03*
X19558000Y96266000D03*
%TD*%
D13*
%TO.C,J10*%
X15260000Y57150000D03*
D14*
X17800000Y57150000D03*
%TD*%
D13*
%TO.C,J8*%
X15235000Y19050000D03*
D14*
X17775000Y19050000D03*
%TD*%
D13*
%TO.C,J11*%
X53594000Y57150000D03*
D14*
X56134000Y57150000D03*
%TD*%
D15*
%TO.C,J2*%
X26342000Y2438400D03*
D16*
X27592000Y2438400D03*
X28842000Y2438400D03*
X30092000Y2438400D03*
X31342000Y2438400D03*
X32592000Y2438400D03*
X33842000Y2438400D03*
X35092000Y2438400D03*
X36342000Y2438400D03*
X37592000Y2438400D03*
X38842000Y2438400D03*
X40092000Y2438400D03*
X41342000Y2438400D03*
X42592000Y2438400D03*
X43842000Y2438400D03*
%TD*%
D17*
%TO.C,J1*%
X45694000Y100711000D03*
D16*
X44444000Y100711000D03*
X43194000Y100711000D03*
X41944000Y100711000D03*
X40694000Y100711000D03*
X39444000Y100711000D03*
X38194000Y100711000D03*
X36944000Y100711000D03*
X35694000Y100711000D03*
X34444000Y100711000D03*
X33194000Y100711000D03*
X31944000Y100711000D03*
X30694000Y100711000D03*
X29444000Y100711000D03*
X28194000Y100711000D03*
%TD*%
D13*
%TO.C,J13*%
X76454000Y2286000D03*
D14*
X78994000Y2286000D03*
%TD*%
D13*
%TO.C,J7*%
X68072000Y100711000D03*
D14*
X70612000Y100711000D03*
%TD*%
D13*
%TO.C,J6*%
X75946000Y100711000D03*
D14*
X78486000Y100711000D03*
%TD*%
D13*
%TO.C,J5*%
X110617000Y32131000D03*
D14*
X110617000Y34671000D03*
X110617000Y37211000D03*
X110617000Y39751000D03*
X110617000Y42291000D03*
%TD*%
D13*
%TO.C,J9*%
X53335000Y19050000D03*
D14*
X55875000Y19050000D03*
%TD*%
%LPD*%
M02*
