M48
; DRILL file {KiCad 7.0.7} date Fri Dec  8 18:01:53 2023
; FORMAT={-:-/ absolute / inch / decimal}
; #@! TF.CreationDate,2023-12-08T18:01:53+09:00
; #@! TF.GenerationSoftware,Kicad,Pcbnew,7.0.7
; #@! TF.FileFunction,Plated,1,2,PTH
FMAT,2
INCH
; #@! TA.AperFunction,Plated,PTH,ViaDrill
T1C0.0157
; #@! TA.AperFunction,Plated,PTH,ComponentDrill
T2C0.0197
; #@! TA.AperFunction,Plated,PTH,ComponentDrill
T3C0.0394
%
G90
G05
T1
X1.33Y2.53
X1.38Y2.09
X1.405Y0.565
X1.4643Y0.56
X1.555Y3.715
X1.74Y0.54
X1.77Y0.59
X2.266Y0.626
X2.455Y0.465
X2.53Y0.44
X2.605Y0.415
X2.655Y0.39
X2.68Y0.34
X2.73Y2.265
X2.73Y0.57
X2.963Y1.697
X3.0692Y1.3608
X3.1228Y1.3772
X3.98Y1.465
X4.12Y1.93
X4.15Y1.84
T2
X1.0371Y0.096
X1.0863Y0.096
X1.11Y3.965
X1.1355Y0.096
X1.1592Y3.965
X1.1847Y0.096
X1.2084Y3.965
X1.2339Y0.096
X1.2576Y3.965
X1.2831Y0.096
X1.3069Y3.965
X1.3324Y0.096
X1.3561Y3.965
X1.3816Y0.096
X1.4053Y3.965
X1.4308Y0.096
X1.4545Y3.965
X1.48Y0.096
X1.5037Y3.965
X1.5292Y0.096
X1.5529Y3.965
X1.5784Y0.096
X1.6021Y3.965
X1.6276Y0.096
X1.6513Y3.965
X1.6769Y0.096
X1.7006Y3.965
X1.7261Y0.096
X1.7498Y3.965
X1.799Y3.965
T3
X0.5998Y0.75
X0.6008Y2.25
X0.68Y0.27
X0.6998Y0.75
X0.7008Y2.25
X0.77Y3.79
X0.78Y0.27
X0.87Y3.79
X0.88Y0.27
X0.97Y3.79
X0.98Y0.27
X1.07Y3.79
X1.08Y0.27
X1.17Y3.79
X1.18Y0.27
X1.27Y3.79
X1.28Y0.27
X1.37Y3.79
X1.38Y0.27
X1.47Y3.79
X1.48Y0.27
X1.57Y3.79
X1.58Y0.27
X1.67Y3.79
X1.68Y0.27
X1.77Y3.79
X1.78Y0.27
X1.87Y3.79
X1.88Y0.27
X1.97Y3.79
X1.98Y0.27
X2.07Y3.79
X2.08Y0.27
X2.0998Y0.75
X2.11Y2.25
X2.17Y3.79
X2.1998Y0.75
X2.21Y2.25
X2.68Y3.965
X2.78Y3.965
X2.83Y3.78
X2.93Y3.78
X2.99Y3.965
X3.01Y0.09
X3.09Y3.965
X3.11Y0.09
X3.41Y1.49
X3.51Y1.49
X4.355Y1.665
X4.355Y1.565
X4.355Y1.465
X4.355Y1.365
X4.355Y1.265
T0
M30
