%TF.GenerationSoftware,KiCad,Pcbnew,7.0.7*%
%TF.CreationDate,2023-12-08T18:01:47+09:00*%
%TF.ProjectId,arcade_input_panel_support,61726361-6465-45f6-996e-7075745f7061,1*%
%TF.SameCoordinates,PX25c9d40PY7f6a2a0*%
%TF.FileFunction,Soldermask,Bot*%
%TF.FilePolarity,Negative*%
%FSLAX46Y46*%
G04 Gerber Fmt 4.6, Leading zero omitted, Abs format (unit mm)*
G04 Created by KiCad (PCBNEW 7.0.7) date 2023-12-08 18:01:47*
%MOMM*%
%LPD*%
G01*
G04 APERTURE LIST*
G04 Aperture macros list*
%AMRoundRect*
0 Rectangle with rounded corners*
0 $1 Rounding radius*
0 $2 $3 $4 $5 $6 $7 $8 $9 X,Y pos of 4 corners*
0 Add a 4 corners polygon primitive as box body*
4,1,4,$2,$3,$4,$5,$6,$7,$8,$9,$2,$3,0*
0 Add four circle primitives for the rounded corners*
1,1,$1+$1,$2,$3*
1,1,$1+$1,$4,$5*
1,1,$1+$1,$6,$7*
1,1,$1+$1,$8,$9*
0 Add four rect primitives between the rounded corners*
20,1,$1+$1,$2,$3,$4,$5,0*
20,1,$1+$1,$4,$5,$6,$7,0*
20,1,$1+$1,$6,$7,$8,$9,0*
20,1,$1+$1,$8,$9,$2,$3,0*%
G04 Aperture macros list end*
%ADD10R,1.700000X1.700000*%
%ADD11O,1.700000X1.700000*%
%ADD12RoundRect,0.200000X-0.200000X-0.450000X0.200000X-0.450000X0.200000X0.450000X-0.200000X0.450000X0*%
%ADD13O,0.800000X1.300000*%
%ADD14RoundRect,0.200000X0.200000X0.450000X-0.200000X0.450000X-0.200000X-0.450000X0.200000X-0.450000X0*%
G04 APERTURE END LIST*
D10*
%TO.C,J4*%
X17272000Y6858000D03*
D11*
X19812000Y6858000D03*
X22352000Y6858000D03*
X24892000Y6858000D03*
X27432000Y6858000D03*
X29972000Y6858000D03*
X32512000Y6858000D03*
X35052000Y6858000D03*
X37592000Y6858000D03*
X40132000Y6858000D03*
X42672000Y6858000D03*
X45212000Y6858000D03*
X47752000Y6858000D03*
X50292000Y6858000D03*
X52832000Y6858000D03*
%TD*%
D10*
%TO.C,J12*%
X86614000Y37846000D03*
D11*
X89154000Y37846000D03*
%TD*%
D10*
%TO.C,J14*%
X71882000Y96012000D03*
D11*
X74422000Y96012000D03*
%TD*%
D10*
%TO.C,J3*%
X55118000Y96266000D03*
D11*
X52578000Y96266000D03*
X50038000Y96266000D03*
X47498000Y96266000D03*
X44958000Y96266000D03*
X42418000Y96266000D03*
X39878000Y96266000D03*
X37338000Y96266000D03*
X34798000Y96266000D03*
X32258000Y96266000D03*
X29718000Y96266000D03*
X27178000Y96266000D03*
X24638000Y96266000D03*
X22098000Y96266000D03*
X19558000Y96266000D03*
%TD*%
D10*
%TO.C,J10*%
X15260000Y57150000D03*
D11*
X17800000Y57150000D03*
%TD*%
D10*
%TO.C,J8*%
X15235000Y19050000D03*
D11*
X17775000Y19050000D03*
%TD*%
D10*
%TO.C,J11*%
X53594000Y57150000D03*
D11*
X56134000Y57150000D03*
%TD*%
D12*
%TO.C,J2*%
X26342000Y2438400D03*
D13*
X27592000Y2438400D03*
X28842000Y2438400D03*
X30092000Y2438400D03*
X31342000Y2438400D03*
X32592000Y2438400D03*
X33842000Y2438400D03*
X35092000Y2438400D03*
X36342000Y2438400D03*
X37592000Y2438400D03*
X38842000Y2438400D03*
X40092000Y2438400D03*
X41342000Y2438400D03*
X42592000Y2438400D03*
X43842000Y2438400D03*
%TD*%
D14*
%TO.C,J1*%
X45694000Y100711000D03*
D13*
X44444000Y100711000D03*
X43194000Y100711000D03*
X41944000Y100711000D03*
X40694000Y100711000D03*
X39444000Y100711000D03*
X38194000Y100711000D03*
X36944000Y100711000D03*
X35694000Y100711000D03*
X34444000Y100711000D03*
X33194000Y100711000D03*
X31944000Y100711000D03*
X30694000Y100711000D03*
X29444000Y100711000D03*
X28194000Y100711000D03*
%TD*%
D10*
%TO.C,J13*%
X76454000Y2286000D03*
D11*
X78994000Y2286000D03*
%TD*%
D10*
%TO.C,J7*%
X68072000Y100711000D03*
D11*
X70612000Y100711000D03*
%TD*%
D10*
%TO.C,J6*%
X75946000Y100711000D03*
D11*
X78486000Y100711000D03*
%TD*%
D10*
%TO.C,J5*%
X110617000Y32131000D03*
D11*
X110617000Y34671000D03*
X110617000Y37211000D03*
X110617000Y39751000D03*
X110617000Y42291000D03*
%TD*%
D10*
%TO.C,J9*%
X53335000Y19050000D03*
D11*
X55875000Y19050000D03*
%TD*%
M02*
