%TF.GenerationSoftware,KiCad,Pcbnew,7.0.9*%
%TF.CreationDate,2023-12-22T18:19:36+09:00*%
%TF.ProjectId,arcade_input_panel_support,61726361-6465-45f6-996e-7075745f7061,2*%
%TF.SameCoordinates,PX2246a88PY7fa82d0*%
%TF.FileFunction,Soldermask,Bot*%
%TF.FilePolarity,Negative*%
%FSLAX46Y46*%
G04 Gerber Fmt 4.6, Leading zero omitted, Abs format (unit mm)*
G04 Created by KiCad (PCBNEW 7.0.9) date 2023-12-22 18:19:36*
%MOMM*%
%LPD*%
G01*
G04 APERTURE LIST*
G04 Aperture macros list*
%AMRoundRect*
0 Rectangle with rounded corners*
0 $1 Rounding radius*
0 $2 $3 $4 $5 $6 $7 $8 $9 X,Y pos of 4 corners*
0 Add a 4 corners polygon primitive as box body*
4,1,4,$2,$3,$4,$5,$6,$7,$8,$9,$2,$3,0*
0 Add four circle primitives for the rounded corners*
1,1,$1+$1,$2,$3*
1,1,$1+$1,$4,$5*
1,1,$1+$1,$6,$7*
1,1,$1+$1,$8,$9*
0 Add four rect primitives between the rounded corners*
20,1,$1+$1,$2,$3,$4,$5,0*
20,1,$1+$1,$4,$5,$6,$7,0*
20,1,$1+$1,$6,$7,$8,$9,0*
20,1,$1+$1,$8,$9,$2,$3,0*%
G04 Aperture macros list end*
%ADD10O,1.700000X1.700000*%
%ADD11R,1.700000X1.700000*%
%ADD12RoundRect,0.200000X-0.200000X-0.450000X0.200000X-0.450000X0.200000X0.450000X-0.200000X0.450000X0*%
%ADD13O,0.800000X1.300000*%
%ADD14RoundRect,0.200000X0.200000X0.450000X-0.200000X0.450000X-0.200000X-0.450000X0.200000X-0.450000X0*%
G04 APERTURE END LIST*
D10*
%TO.C,J15*%
X18796000Y100965000D03*
X16256000Y100965000D03*
X13716000Y100965000D03*
D11*
X11176000Y100965000D03*
%TD*%
%TO.C,J4*%
X20955000Y7112000D03*
D10*
X23495000Y7112000D03*
X26035000Y7112000D03*
X28575000Y7112000D03*
X31115000Y7112000D03*
X33655000Y7112000D03*
X36195000Y7112000D03*
X38735000Y7112000D03*
X41275000Y7112000D03*
X43815000Y7112000D03*
X46355000Y7112000D03*
X48895000Y7112000D03*
X51435000Y7112000D03*
X53975000Y7112000D03*
X56515000Y7112000D03*
%TD*%
D11*
%TO.C,J12*%
X78105000Y42037000D03*
D10*
X80645000Y42037000D03*
%TD*%
D11*
%TO.C,J14*%
X75565000Y95885000D03*
D10*
X78105000Y95885000D03*
%TD*%
D11*
%TO.C,J3*%
X58801000Y96520000D03*
D10*
X56261000Y96520000D03*
X53721000Y96520000D03*
X51181000Y96520000D03*
X48641000Y96520000D03*
X46101000Y96520000D03*
X43561000Y96520000D03*
X41021000Y96520000D03*
X38481000Y96520000D03*
X35941000Y96520000D03*
X33401000Y96520000D03*
X30861000Y96520000D03*
X28321000Y96520000D03*
X25781000Y96520000D03*
X23241000Y96520000D03*
%TD*%
D11*
%TO.C,J10*%
X7239000Y60960000D03*
D10*
X9779000Y60960000D03*
%TD*%
D11*
%TO.C,J8*%
X7239000Y22860000D03*
D10*
X9779000Y22860000D03*
%TD*%
D11*
%TO.C,J11*%
X45212000Y60960000D03*
D10*
X47752000Y60960000D03*
%TD*%
D12*
%TO.C,J2*%
X30025000Y2692400D03*
D13*
X31275000Y2692400D03*
X32525000Y2692400D03*
X33775000Y2692400D03*
X35025000Y2692400D03*
X36275000Y2692400D03*
X37525000Y2692400D03*
X38775000Y2692400D03*
X40025000Y2692400D03*
X41275000Y2692400D03*
X42525000Y2692400D03*
X43775000Y2692400D03*
X45025000Y2692400D03*
X46275000Y2692400D03*
X47525000Y2692400D03*
%TD*%
D14*
%TO.C,J1*%
X49377000Y100965000D03*
D13*
X48127000Y100965000D03*
X46877000Y100965000D03*
X45627000Y100965000D03*
X44377000Y100965000D03*
X43127000Y100965000D03*
X41877000Y100965000D03*
X40627000Y100965000D03*
X39377000Y100965000D03*
X38127000Y100965000D03*
X36877000Y100965000D03*
X35627000Y100965000D03*
X34377000Y100965000D03*
X33127000Y100965000D03*
X31877000Y100965000D03*
%TD*%
D11*
%TO.C,J13*%
X78105000Y3937000D03*
D10*
X80645000Y3937000D03*
%TD*%
D11*
%TO.C,J7*%
X79629000Y100965000D03*
D10*
X82169000Y100965000D03*
%TD*%
D11*
%TO.C,J6*%
X71755000Y100965000D03*
D10*
X74295000Y100965000D03*
%TD*%
D11*
%TO.C,J5*%
X112522000Y42545000D03*
D10*
X112522000Y40005000D03*
X112522000Y37465000D03*
X112522000Y34925000D03*
X112522000Y32385000D03*
%TD*%
D11*
%TO.C,J9*%
X45212000Y22987000D03*
D10*
X47752000Y22987000D03*
%TD*%
M02*
