M48
; DRILL file {KiCad 7.0.9} date Thu Dec 28 17:28:52 2023
; FORMAT={-:-/ absolute / inch / decimal}
; #@! TF.CreationDate,2023-12-28T17:28:52+09:00
; #@! TF.GenerationSoftware,Kicad,Pcbnew,7.0.9
; #@! TF.FileFunction,Plated,1,2,PTH
FMAT,2
INCH
; #@! TA.AperFunction,Plated,PTH,ViaDrill
T1C0.0157
; #@! TA.AperFunction,Plated,PTH,ComponentDrill
T2C0.0197
; #@! TA.AperFunction,Plated,PTH,ComponentDrill
T3C0.0394
%
G90
G05
T1
X0.928Y0.42
X1.024Y0.456
X1.124Y0.494
X1.226Y0.536
X1.325Y0.575
X1.43Y0.415
X1.525Y0.448
X1.625Y0.482
X1.725Y0.522
X2.71Y3.915
X2.71Y3.86
X2.71Y3.805
X2.71Y3.755
T2
X1.1821Y0.106
X1.2313Y0.106
X1.271Y3.98
X1.2805Y0.106
X1.3202Y3.98
X1.3297Y0.106
X1.3694Y3.98
X1.3789Y0.106
X1.4187Y3.98
X1.4281Y0.106
X1.4679Y3.98
X1.4774Y0.106
X1.5171Y3.98
X1.5266Y0.106
X1.5663Y3.98
X1.5758Y0.106
X1.6155Y3.98
X1.625Y0.106
X1.6647Y3.98
X1.6742Y0.106
X1.7139Y3.98
X1.7234Y0.106
X1.7631Y3.98
X1.7726Y0.106
X1.8124Y3.98
X1.8219Y0.106
X1.8616Y3.98
X1.8711Y0.106
X1.9108Y3.98
X1.96Y3.98
T3
X0.28Y2.395
X0.28Y0.895
X0.38Y2.395
X0.38Y0.895
X0.44Y3.975
X0.44Y3.875
X0.54Y3.975
X0.54Y3.875
X0.64Y3.975
X0.64Y3.875
X0.74Y3.975
X0.74Y3.875
X0.825Y0.295
X0.915Y3.79
X0.925Y0.295
X1.015Y3.79
X1.025Y0.295
X1.115Y3.79
X1.125Y0.295
X1.215Y3.79
X1.225Y0.295
X1.315Y3.79
X1.325Y0.295
X1.415Y3.79
X1.425Y0.295
X1.515Y3.79
X1.525Y0.295
X1.615Y3.79
X1.625Y0.295
X1.715Y3.79
X1.725Y0.295
X1.775Y2.395
X1.775Y0.9
X1.815Y3.79
X1.825Y0.295
X1.875Y2.395
X1.875Y0.9
X1.915Y3.79
X1.925Y0.295
X2.015Y3.79
X2.025Y0.295
X2.115Y3.79
X2.125Y0.295
X2.215Y3.79
X2.225Y0.295
X2.315Y3.79
X2.935Y3.97
X2.935Y3.87
X3.035Y3.97
X3.035Y3.87
X3.07Y1.65
X3.07Y0.15
X3.135Y3.97
X3.135Y3.87
X3.17Y1.65
X3.17Y0.15
X3.235Y3.97
X3.235Y3.87
X4.415Y1.675
X4.415Y1.575
X4.415Y1.475
X4.415Y1.375
X4.415Y1.275
X4.515Y1.675
X4.515Y1.575
X4.515Y1.475
X4.515Y1.375
X4.515Y1.275
T0
M30
