%TF.GenerationSoftware,KiCad,Pcbnew,7.0.9*%
%TF.CreationDate,2023-12-28T17:28:50+09:00*%
%TF.ProjectId,arcade_input_panel_support,61726361-6465-45f6-996e-7075745f7061,2*%
%TF.SameCoordinates,PX2246a88PY7fa82d0*%
%TF.FileFunction,Legend,Top*%
%TF.FilePolarity,Positive*%
%FSLAX46Y46*%
G04 Gerber Fmt 4.6, Leading zero omitted, Abs format (unit mm)*
G04 Created by KiCad (PCBNEW 7.0.9) date 2023-12-28 17:28:50*
%MOMM*%
%LPD*%
G01*
G04 APERTURE LIST*
G04 Aperture macros list*
%AMRoundRect*
0 Rectangle with rounded corners*
0 $1 Rounding radius*
0 $2 $3 $4 $5 $6 $7 $8 $9 X,Y pos of 4 corners*
0 Add a 4 corners polygon primitive as box body*
4,1,4,$2,$3,$4,$5,$6,$7,$8,$9,$2,$3,0*
0 Add four circle primitives for the rounded corners*
1,1,$1+$1,$2,$3*
1,1,$1+$1,$4,$5*
1,1,$1+$1,$6,$7*
1,1,$1+$1,$8,$9*
0 Add four rect primitives between the rounded corners*
20,1,$1+$1,$2,$3,$4,$5,0*
20,1,$1+$1,$4,$5,$6,$7,0*
20,1,$1+$1,$6,$7,$8,$9,0*
20,1,$1+$1,$8,$9,$2,$3,0*%
G04 Aperture macros list end*
%ADD10C,0.187500*%
%ADD11C,0.150000*%
%ADD12C,0.300000*%
%ADD13C,0.120000*%
%ADD14R,1.700000X1.700000*%
%ADD15O,1.700000X1.700000*%
%ADD16RoundRect,0.200000X-0.200000X-0.450000X0.200000X-0.450000X0.200000X0.450000X-0.200000X0.450000X0*%
%ADD17O,0.800000X1.300000*%
%ADD18RoundRect,0.200000X0.200000X0.450000X-0.200000X0.450000X-0.200000X-0.450000X0.200000X-0.450000X0*%
G04 APERTURE END LIST*
D10*
X43315983Y22855541D02*
X43458840Y22807922D01*
X43458840Y22807922D02*
X43506459Y22760303D01*
X43506459Y22760303D02*
X43554078Y22665065D01*
X43554078Y22665065D02*
X43554078Y22522208D01*
X43554078Y22522208D02*
X43506459Y22426970D01*
X43506459Y22426970D02*
X43458840Y22379350D01*
X43458840Y22379350D02*
X43363602Y22331731D01*
X43363602Y22331731D02*
X42982650Y22331731D01*
X42982650Y22331731D02*
X42982650Y23331731D01*
X42982650Y23331731D02*
X43315983Y23331731D01*
X43315983Y23331731D02*
X43411221Y23284112D01*
X43411221Y23284112D02*
X43458840Y23236493D01*
X43458840Y23236493D02*
X43506459Y23141255D01*
X43506459Y23141255D02*
X43506459Y23046017D01*
X43506459Y23046017D02*
X43458840Y22950779D01*
X43458840Y22950779D02*
X43411221Y22903160D01*
X43411221Y22903160D02*
X43315983Y22855541D01*
X43315983Y22855541D02*
X42982650Y22855541D01*
D11*
G36*
X115394037Y44085936D02*
G01*
X113958323Y44085936D01*
X113958323Y44494269D01*
X114101180Y44494269D01*
X114101739Y44492732D01*
X114105029Y44470551D01*
X114152649Y44327694D01*
X114155436Y44324182D01*
X114155827Y44319716D01*
X114170767Y44298379D01*
X114218386Y44250760D01*
X114233223Y44243842D01*
X114245767Y44233316D01*
X114261893Y44230473D01*
X114264882Y44229079D01*
X114266832Y44229602D01*
X114271419Y44228793D01*
X114604752Y44228793D01*
X114623060Y44235457D01*
X114642252Y44238841D01*
X114646602Y44244026D01*
X114652961Y44246340D01*
X114662703Y44263214D01*
X114675229Y44278141D01*
X114676946Y44287884D01*
X114678613Y44290769D01*
X114678034Y44294052D01*
X114679752Y44303793D01*
X114679752Y44494269D01*
X114662205Y44542478D01*
X114617776Y44568130D01*
X114567252Y44559221D01*
X114534275Y44519921D01*
X114529752Y44494269D01*
X114529752Y44378793D01*
X114302485Y44378793D01*
X114289351Y44391927D01*
X114251180Y44506441D01*
X114251180Y44577336D01*
X114289351Y44691850D01*
X114363465Y44765963D01*
X114440452Y44804457D01*
X114613986Y44847840D01*
X114738375Y44847840D01*
X114911909Y44804457D01*
X114988896Y44765963D01*
X115063009Y44691850D01*
X115101180Y44577337D01*
X115101180Y44464355D01*
X115061479Y44384953D01*
X115055614Y44333986D01*
X115083880Y44291173D01*
X115133055Y44276547D01*
X115180126Y44296950D01*
X115195643Y44317871D01*
X115243262Y44413109D01*
X115243774Y44417563D01*
X115246657Y44420998D01*
X115251180Y44446650D01*
X115251180Y44589507D01*
X115250620Y44591045D01*
X115247331Y44613225D01*
X115199712Y44756081D01*
X115196925Y44759592D01*
X115196535Y44764060D01*
X115181594Y44785397D01*
X115086356Y44880635D01*
X115084874Y44881326D01*
X115066864Y44894684D01*
X114971626Y44942303D01*
X114968097Y44942710D01*
X114956275Y44947982D01*
X114765799Y44995601D01*
X114762350Y44995241D01*
X114747609Y44997840D01*
X114604752Y44997840D01*
X114601494Y44996655D01*
X114586562Y44995601D01*
X114396086Y44947982D01*
X114393141Y44945994D01*
X114380735Y44942303D01*
X114285497Y44894684D01*
X114284373Y44893498D01*
X114266005Y44880635D01*
X114170767Y44785397D01*
X114168872Y44781335D01*
X114165052Y44778987D01*
X114152649Y44756082D01*
X114105029Y44613225D01*
X114105073Y44611590D01*
X114101180Y44589507D01*
X114101180Y44494269D01*
X113958323Y44494269D01*
X113958323Y45140697D01*
X115394037Y45140697D01*
X115394037Y44085936D01*
G37*
G36*
X115394037Y29861936D02*
G01*
X113958323Y29861936D01*
X113958323Y30270269D01*
X114101180Y30270269D01*
X114101739Y30268732D01*
X114105029Y30246551D01*
X114152649Y30103694D01*
X114155436Y30100182D01*
X114155827Y30095716D01*
X114170767Y30074379D01*
X114218386Y30026760D01*
X114233223Y30019842D01*
X114245767Y30009316D01*
X114261893Y30006473D01*
X114264882Y30005079D01*
X114266832Y30005602D01*
X114271419Y30004793D01*
X114604752Y30004793D01*
X114623060Y30011457D01*
X114642252Y30014841D01*
X114646602Y30020026D01*
X114652961Y30022340D01*
X114662703Y30039214D01*
X114675229Y30054141D01*
X114676946Y30063884D01*
X114678613Y30066769D01*
X114678034Y30070052D01*
X114679752Y30079793D01*
X114679752Y30270269D01*
X114662205Y30318478D01*
X114617776Y30344130D01*
X114567252Y30335221D01*
X114534275Y30295921D01*
X114529752Y30270269D01*
X114529752Y30154793D01*
X114302485Y30154793D01*
X114289351Y30167927D01*
X114251180Y30282441D01*
X114251180Y30353336D01*
X114289351Y30467850D01*
X114363465Y30541963D01*
X114440452Y30580457D01*
X114613986Y30623840D01*
X114738375Y30623840D01*
X114911909Y30580457D01*
X114988896Y30541963D01*
X115063009Y30467850D01*
X115101180Y30353337D01*
X115101180Y30240355D01*
X115061479Y30160953D01*
X115055614Y30109986D01*
X115083880Y30067173D01*
X115133055Y30052547D01*
X115180126Y30072950D01*
X115195643Y30093871D01*
X115243262Y30189109D01*
X115243774Y30193563D01*
X115246657Y30196998D01*
X115251180Y30222650D01*
X115251180Y30365507D01*
X115250620Y30367045D01*
X115247331Y30389225D01*
X115199712Y30532081D01*
X115196925Y30535592D01*
X115196535Y30540060D01*
X115181594Y30561397D01*
X115086356Y30656635D01*
X115084874Y30657326D01*
X115066864Y30670684D01*
X114971626Y30718303D01*
X114968097Y30718710D01*
X114956275Y30723982D01*
X114765799Y30771601D01*
X114762350Y30771241D01*
X114747609Y30773840D01*
X114604752Y30773840D01*
X114601494Y30772655D01*
X114586562Y30771601D01*
X114396086Y30723982D01*
X114393141Y30721994D01*
X114380735Y30718303D01*
X114285497Y30670684D01*
X114284373Y30669498D01*
X114266005Y30656635D01*
X114170767Y30561397D01*
X114168872Y30557335D01*
X114165052Y30554987D01*
X114152649Y30532082D01*
X114105029Y30389225D01*
X114105073Y30387590D01*
X114101180Y30365507D01*
X114101180Y30270269D01*
X113958323Y30270269D01*
X113958323Y30916697D01*
X115394037Y30916697D01*
X115394037Y29861936D01*
G37*
G36*
X84702980Y100039124D02*
G01*
X83648219Y100039124D01*
X83648219Y100685553D01*
X83791076Y100685553D01*
X83792261Y100682296D01*
X83793315Y100667363D01*
X83840934Y100476887D01*
X83842922Y100473943D01*
X83846613Y100461536D01*
X83894232Y100366298D01*
X83895418Y100365175D01*
X83908281Y100346806D01*
X84003519Y100251567D01*
X84007583Y100249672D01*
X84009930Y100245852D01*
X84032835Y100233449D01*
X84175691Y100185830D01*
X84177326Y100185875D01*
X84199409Y100181981D01*
X84294647Y100181981D01*
X84296185Y100182542D01*
X84318364Y100185830D01*
X84461221Y100233449D01*
X84464732Y100236237D01*
X84469201Y100236627D01*
X84490538Y100251568D01*
X84538156Y100299187D01*
X84545074Y100314025D01*
X84555600Y100326568D01*
X84558443Y100342696D01*
X84559837Y100345684D01*
X84559314Y100347635D01*
X84560123Y100352220D01*
X84560123Y100685553D01*
X84553459Y100703862D01*
X84550075Y100723053D01*
X84544890Y100727404D01*
X84542576Y100733762D01*
X84525702Y100743505D01*
X84510775Y100756030D01*
X84501032Y100757748D01*
X84498147Y100759414D01*
X84494864Y100758836D01*
X84485123Y100760553D01*
X84294647Y100760553D01*
X84246438Y100743006D01*
X84220786Y100698577D01*
X84229695Y100648053D01*
X84268995Y100615076D01*
X84294647Y100610553D01*
X84410123Y100610553D01*
X84410123Y100383286D01*
X84396990Y100370153D01*
X84282477Y100331981D01*
X84211579Y100331981D01*
X84097066Y100370152D01*
X84022953Y100444266D01*
X83984459Y100521253D01*
X83941076Y100694787D01*
X83941076Y100819176D01*
X83984459Y100992710D01*
X84022953Y101069697D01*
X84097066Y101143810D01*
X84211579Y101181981D01*
X84324561Y101181981D01*
X84403963Y101142280D01*
X84454929Y101136415D01*
X84497742Y101164681D01*
X84512369Y101213856D01*
X84491966Y101260927D01*
X84471045Y101276444D01*
X84375807Y101324063D01*
X84371353Y101324576D01*
X84367918Y101327458D01*
X84342266Y101331981D01*
X84199409Y101331981D01*
X84197871Y101331422D01*
X84175691Y101328132D01*
X84032835Y101280513D01*
X84029324Y101277727D01*
X84024856Y101277336D01*
X84003519Y101262395D01*
X83908281Y101167157D01*
X83907590Y101165676D01*
X83894232Y101147665D01*
X83846613Y101052427D01*
X83846206Y101048899D01*
X83840934Y101037076D01*
X83793315Y100846600D01*
X83793675Y100843152D01*
X83791076Y100828410D01*
X83791076Y100685553D01*
X83648219Y100685553D01*
X83648219Y101474838D01*
X84702980Y101474838D01*
X84702980Y100039124D01*
G37*
G36*
X21319064Y100242324D02*
G01*
X20264303Y100242324D01*
X20264303Y100888753D01*
X20407160Y100888753D01*
X20408345Y100885496D01*
X20409399Y100870563D01*
X20457018Y100680087D01*
X20459006Y100677143D01*
X20462697Y100664736D01*
X20510316Y100569498D01*
X20511502Y100568375D01*
X20524365Y100550006D01*
X20619603Y100454767D01*
X20623667Y100452872D01*
X20626014Y100449052D01*
X20648919Y100436649D01*
X20791775Y100389030D01*
X20793410Y100389075D01*
X20815493Y100385181D01*
X20910731Y100385181D01*
X20912269Y100385742D01*
X20934448Y100389030D01*
X21077305Y100436649D01*
X21080816Y100439437D01*
X21085285Y100439827D01*
X21106622Y100454768D01*
X21154240Y100502387D01*
X21161158Y100517225D01*
X21171684Y100529768D01*
X21174527Y100545896D01*
X21175921Y100548884D01*
X21175398Y100550835D01*
X21176207Y100555420D01*
X21176207Y100888753D01*
X21169543Y100907062D01*
X21166159Y100926253D01*
X21160974Y100930604D01*
X21158660Y100936962D01*
X21141786Y100946705D01*
X21126859Y100959230D01*
X21117116Y100960948D01*
X21114231Y100962614D01*
X21110948Y100962036D01*
X21101207Y100963753D01*
X20910731Y100963753D01*
X20862522Y100946206D01*
X20836870Y100901777D01*
X20845779Y100851253D01*
X20885079Y100818276D01*
X20910731Y100813753D01*
X21026207Y100813753D01*
X21026207Y100586486D01*
X21013074Y100573353D01*
X20898561Y100535181D01*
X20827663Y100535181D01*
X20713150Y100573352D01*
X20639037Y100647466D01*
X20600543Y100724453D01*
X20557160Y100897987D01*
X20557160Y101022376D01*
X20600543Y101195910D01*
X20639037Y101272897D01*
X20713150Y101347010D01*
X20827663Y101385181D01*
X20940645Y101385181D01*
X21020047Y101345480D01*
X21071013Y101339615D01*
X21113826Y101367881D01*
X21128453Y101417056D01*
X21108050Y101464127D01*
X21087129Y101479644D01*
X20991891Y101527263D01*
X20987437Y101527776D01*
X20984002Y101530658D01*
X20958350Y101535181D01*
X20815493Y101535181D01*
X20813955Y101534622D01*
X20791775Y101531332D01*
X20648919Y101483713D01*
X20645408Y101480927D01*
X20640940Y101480536D01*
X20619603Y101465595D01*
X20524365Y101370357D01*
X20523674Y101368876D01*
X20510316Y101350865D01*
X20462697Y101255627D01*
X20462290Y101252099D01*
X20457018Y101240276D01*
X20409399Y101049800D01*
X20409759Y101046352D01*
X20407160Y101031610D01*
X20407160Y100888753D01*
X20264303Y100888753D01*
X20264303Y101678038D01*
X21319064Y101678038D01*
X21319064Y100242324D01*
G37*
G36*
X9635064Y100242324D02*
G01*
X8580303Y100242324D01*
X8580303Y100888753D01*
X8723160Y100888753D01*
X8724345Y100885496D01*
X8725399Y100870563D01*
X8773018Y100680087D01*
X8775006Y100677143D01*
X8778697Y100664736D01*
X8826316Y100569498D01*
X8827502Y100568375D01*
X8840365Y100550006D01*
X8935603Y100454767D01*
X8939667Y100452872D01*
X8942014Y100449052D01*
X8964919Y100436649D01*
X9107775Y100389030D01*
X9109410Y100389075D01*
X9131493Y100385181D01*
X9226731Y100385181D01*
X9228269Y100385742D01*
X9250448Y100389030D01*
X9393305Y100436649D01*
X9396816Y100439437D01*
X9401285Y100439827D01*
X9422622Y100454768D01*
X9470240Y100502387D01*
X9477158Y100517225D01*
X9487684Y100529768D01*
X9490527Y100545896D01*
X9491921Y100548884D01*
X9491398Y100550835D01*
X9492207Y100555420D01*
X9492207Y100888753D01*
X9485543Y100907062D01*
X9482159Y100926253D01*
X9476974Y100930604D01*
X9474660Y100936962D01*
X9457786Y100946705D01*
X9442859Y100959230D01*
X9433116Y100960948D01*
X9430231Y100962614D01*
X9426948Y100962036D01*
X9417207Y100963753D01*
X9226731Y100963753D01*
X9178522Y100946206D01*
X9152870Y100901777D01*
X9161779Y100851253D01*
X9201079Y100818276D01*
X9226731Y100813753D01*
X9342207Y100813753D01*
X9342207Y100586486D01*
X9329074Y100573353D01*
X9214561Y100535181D01*
X9143663Y100535181D01*
X9029150Y100573352D01*
X8955037Y100647466D01*
X8916543Y100724453D01*
X8873160Y100897987D01*
X8873160Y101022376D01*
X8916543Y101195910D01*
X8955037Y101272897D01*
X9029150Y101347010D01*
X9143663Y101385181D01*
X9256645Y101385181D01*
X9336047Y101345480D01*
X9387013Y101339615D01*
X9429826Y101367881D01*
X9444453Y101417056D01*
X9424050Y101464127D01*
X9403129Y101479644D01*
X9307891Y101527263D01*
X9303437Y101527776D01*
X9300002Y101530658D01*
X9274350Y101535181D01*
X9131493Y101535181D01*
X9129955Y101534622D01*
X9107775Y101531332D01*
X8964919Y101483713D01*
X8961408Y101480927D01*
X8956940Y101480536D01*
X8935603Y101465595D01*
X8840365Y101370357D01*
X8839674Y101368876D01*
X8826316Y101350865D01*
X8778697Y101255627D01*
X8778290Y101252099D01*
X8773018Y101240276D01*
X8725399Y101049800D01*
X8725759Y101046352D01*
X8723160Y101031610D01*
X8723160Y100888753D01*
X8580303Y100888753D01*
X8580303Y101678038D01*
X9635064Y101678038D01*
X9635064Y100242324D01*
G37*
X73755666Y95681800D02*
X73898523Y95634181D01*
X73898523Y95634181D02*
X74136618Y95634181D01*
X74136618Y95634181D02*
X74231856Y95681800D01*
X74231856Y95681800D02*
X74279475Y95729420D01*
X74279475Y95729420D02*
X74327094Y95824658D01*
X74327094Y95824658D02*
X74327094Y95919896D01*
X74327094Y95919896D02*
X74279475Y96015134D01*
X74279475Y96015134D02*
X74231856Y96062753D01*
X74231856Y96062753D02*
X74136618Y96110372D01*
X74136618Y96110372D02*
X73946142Y96157991D01*
X73946142Y96157991D02*
X73850904Y96205610D01*
X73850904Y96205610D02*
X73803285Y96253229D01*
X73803285Y96253229D02*
X73755666Y96348467D01*
X73755666Y96348467D02*
X73755666Y96443705D01*
X73755666Y96443705D02*
X73803285Y96538943D01*
X73803285Y96538943D02*
X73850904Y96586562D01*
X73850904Y96586562D02*
X73946142Y96634181D01*
X73946142Y96634181D02*
X74184237Y96634181D01*
X74184237Y96634181D02*
X74327094Y96586562D01*
X74612809Y96634181D02*
X75184237Y96634181D01*
X74898523Y95634181D02*
X74898523Y96634181D01*
X76231857Y95681800D02*
X76374714Y95634181D01*
X76374714Y95634181D02*
X76612809Y95634181D01*
X76612809Y95634181D02*
X76708047Y95681800D01*
X76708047Y95681800D02*
X76755666Y95729420D01*
X76755666Y95729420D02*
X76803285Y95824658D01*
X76803285Y95824658D02*
X76803285Y95919896D01*
X76803285Y95919896D02*
X76755666Y96015134D01*
X76755666Y96015134D02*
X76708047Y96062753D01*
X76708047Y96062753D02*
X76612809Y96110372D01*
X76612809Y96110372D02*
X76422333Y96157991D01*
X76422333Y96157991D02*
X76327095Y96205610D01*
X76327095Y96205610D02*
X76279476Y96253229D01*
X76279476Y96253229D02*
X76231857Y96348467D01*
X76231857Y96348467D02*
X76231857Y96443705D01*
X76231857Y96443705D02*
X76279476Y96538943D01*
X76279476Y96538943D02*
X76327095Y96586562D01*
X76327095Y96586562D02*
X76422333Y96634181D01*
X76422333Y96634181D02*
X76660428Y96634181D01*
X76660428Y96634181D02*
X76803285Y96586562D01*
X77708047Y95634181D02*
X77231857Y95634181D01*
X77231857Y95634181D02*
X77231857Y96634181D01*
X78803286Y95634181D02*
X78803286Y96634181D01*
X78803286Y96157991D02*
X79374714Y96157991D01*
X79374714Y95634181D02*
X79374714Y96634181D01*
X79850905Y95634181D02*
X79850905Y96634181D01*
X80422333Y95634181D02*
X79993762Y96205610D01*
X80422333Y96634181D02*
X79850905Y96062753D01*
X10509666Y95834200D02*
X10652523Y95786581D01*
X10652523Y95786581D02*
X10890618Y95786581D01*
X10890618Y95786581D02*
X10985856Y95834200D01*
X10985856Y95834200D02*
X11033475Y95881820D01*
X11033475Y95881820D02*
X11081094Y95977058D01*
X11081094Y95977058D02*
X11081094Y96072296D01*
X11081094Y96072296D02*
X11033475Y96167534D01*
X11033475Y96167534D02*
X10985856Y96215153D01*
X10985856Y96215153D02*
X10890618Y96262772D01*
X10890618Y96262772D02*
X10700142Y96310391D01*
X10700142Y96310391D02*
X10604904Y96358010D01*
X10604904Y96358010D02*
X10557285Y96405629D01*
X10557285Y96405629D02*
X10509666Y96500867D01*
X10509666Y96500867D02*
X10509666Y96596105D01*
X10509666Y96596105D02*
X10557285Y96691343D01*
X10557285Y96691343D02*
X10604904Y96738962D01*
X10604904Y96738962D02*
X10700142Y96786581D01*
X10700142Y96786581D02*
X10938237Y96786581D01*
X10938237Y96786581D02*
X11081094Y96738962D01*
X11366809Y96786581D02*
X11938237Y96786581D01*
X11652523Y95786581D02*
X11652523Y96786581D01*
X12985857Y95834200D02*
X13128714Y95786581D01*
X13128714Y95786581D02*
X13366809Y95786581D01*
X13366809Y95786581D02*
X13462047Y95834200D01*
X13462047Y95834200D02*
X13509666Y95881820D01*
X13509666Y95881820D02*
X13557285Y95977058D01*
X13557285Y95977058D02*
X13557285Y96072296D01*
X13557285Y96072296D02*
X13509666Y96167534D01*
X13509666Y96167534D02*
X13462047Y96215153D01*
X13462047Y96215153D02*
X13366809Y96262772D01*
X13366809Y96262772D02*
X13176333Y96310391D01*
X13176333Y96310391D02*
X13081095Y96358010D01*
X13081095Y96358010D02*
X13033476Y96405629D01*
X13033476Y96405629D02*
X12985857Y96500867D01*
X12985857Y96500867D02*
X12985857Y96596105D01*
X12985857Y96596105D02*
X13033476Y96691343D01*
X13033476Y96691343D02*
X13081095Y96738962D01*
X13081095Y96738962D02*
X13176333Y96786581D01*
X13176333Y96786581D02*
X13414428Y96786581D01*
X13414428Y96786581D02*
X13557285Y96738962D01*
X14462047Y95786581D02*
X13985857Y95786581D01*
X13985857Y95786581D02*
X13985857Y96786581D01*
X15557286Y95786581D02*
X15557286Y96786581D01*
X15557286Y96310391D02*
X16128714Y96310391D01*
X16128714Y95786581D02*
X16128714Y96786581D01*
X16604905Y95786581D02*
X16604905Y96786581D01*
X17176333Y95786581D02*
X16747762Y96358010D01*
X17176333Y96786581D02*
X16604905Y96215153D01*
G36*
X19323380Y95568724D02*
G01*
X18268619Y95568724D01*
X18268619Y96215153D01*
X18411476Y96215153D01*
X18412661Y96211896D01*
X18413715Y96196963D01*
X18461334Y96006487D01*
X18463322Y96003543D01*
X18467013Y95991136D01*
X18514632Y95895898D01*
X18515818Y95894775D01*
X18528681Y95876406D01*
X18623919Y95781167D01*
X18627983Y95779272D01*
X18630330Y95775452D01*
X18653235Y95763049D01*
X18796091Y95715430D01*
X18797726Y95715475D01*
X18819809Y95711581D01*
X18915047Y95711581D01*
X18916585Y95712142D01*
X18938764Y95715430D01*
X19081621Y95763049D01*
X19085132Y95765837D01*
X19089601Y95766227D01*
X19110938Y95781168D01*
X19158556Y95828787D01*
X19165474Y95843625D01*
X19176000Y95856168D01*
X19178843Y95872296D01*
X19180237Y95875284D01*
X19179714Y95877235D01*
X19180523Y95881820D01*
X19180523Y96215153D01*
X19173859Y96233462D01*
X19170475Y96252653D01*
X19165290Y96257004D01*
X19162976Y96263362D01*
X19146102Y96273105D01*
X19131175Y96285630D01*
X19121432Y96287348D01*
X19118547Y96289014D01*
X19115264Y96288436D01*
X19105523Y96290153D01*
X18915047Y96290153D01*
X18866838Y96272606D01*
X18841186Y96228177D01*
X18850095Y96177653D01*
X18889395Y96144676D01*
X18915047Y96140153D01*
X19030523Y96140153D01*
X19030523Y95912886D01*
X19017390Y95899753D01*
X18902877Y95861581D01*
X18831979Y95861581D01*
X18717466Y95899752D01*
X18643353Y95973866D01*
X18604859Y96050853D01*
X18561476Y96224387D01*
X18561476Y96348776D01*
X18604859Y96522310D01*
X18643353Y96599297D01*
X18717466Y96673410D01*
X18831979Y96711581D01*
X18944961Y96711581D01*
X19024363Y96671880D01*
X19075329Y96666015D01*
X19118142Y96694281D01*
X19132769Y96743456D01*
X19112366Y96790527D01*
X19091445Y96806044D01*
X18996207Y96853663D01*
X18991753Y96854176D01*
X18988318Y96857058D01*
X18962666Y96861581D01*
X18819809Y96861581D01*
X18818271Y96861022D01*
X18796091Y96857732D01*
X18653235Y96810113D01*
X18649724Y96807327D01*
X18645256Y96806936D01*
X18623919Y96791995D01*
X18528681Y96696757D01*
X18527990Y96695276D01*
X18514632Y96677265D01*
X18467013Y96582027D01*
X18466606Y96578499D01*
X18461334Y96566676D01*
X18413715Y96376200D01*
X18414075Y96372752D01*
X18411476Y96358010D01*
X18411476Y96215153D01*
X18268619Y96215153D01*
X18268619Y97004438D01*
X19323380Y97004438D01*
X19323380Y95568724D01*
G37*
G36*
X82670980Y95416324D02*
G01*
X81616219Y95416324D01*
X81616219Y96062753D01*
X81759076Y96062753D01*
X81760261Y96059496D01*
X81761315Y96044563D01*
X81808934Y95854087D01*
X81810922Y95851143D01*
X81814613Y95838736D01*
X81862232Y95743498D01*
X81863418Y95742375D01*
X81876281Y95724006D01*
X81971519Y95628767D01*
X81975583Y95626872D01*
X81977930Y95623052D01*
X82000835Y95610649D01*
X82143691Y95563030D01*
X82145326Y95563075D01*
X82167409Y95559181D01*
X82262647Y95559181D01*
X82264185Y95559742D01*
X82286364Y95563030D01*
X82429221Y95610649D01*
X82432732Y95613437D01*
X82437201Y95613827D01*
X82458538Y95628768D01*
X82506156Y95676387D01*
X82513074Y95691225D01*
X82523600Y95703768D01*
X82526443Y95719896D01*
X82527837Y95722884D01*
X82527314Y95724835D01*
X82528123Y95729420D01*
X82528123Y96062753D01*
X82521459Y96081062D01*
X82518075Y96100253D01*
X82512890Y96104604D01*
X82510576Y96110962D01*
X82493702Y96120705D01*
X82478775Y96133230D01*
X82469032Y96134948D01*
X82466147Y96136614D01*
X82462864Y96136036D01*
X82453123Y96137753D01*
X82262647Y96137753D01*
X82214438Y96120206D01*
X82188786Y96075777D01*
X82197695Y96025253D01*
X82236995Y95992276D01*
X82262647Y95987753D01*
X82378123Y95987753D01*
X82378123Y95760486D01*
X82364990Y95747353D01*
X82250477Y95709181D01*
X82179579Y95709181D01*
X82065066Y95747352D01*
X81990953Y95821466D01*
X81952459Y95898453D01*
X81909076Y96071987D01*
X81909076Y96196376D01*
X81952459Y96369910D01*
X81990953Y96446897D01*
X82065066Y96521010D01*
X82179579Y96559181D01*
X82292561Y96559181D01*
X82371963Y96519480D01*
X82422929Y96513615D01*
X82465742Y96541881D01*
X82480369Y96591056D01*
X82459966Y96638127D01*
X82439045Y96653644D01*
X82343807Y96701263D01*
X82339353Y96701776D01*
X82335918Y96704658D01*
X82310266Y96709181D01*
X82167409Y96709181D01*
X82165871Y96708622D01*
X82143691Y96705332D01*
X82000835Y96657713D01*
X81997324Y96654927D01*
X81992856Y96654536D01*
X81971519Y96639595D01*
X81876281Y96544357D01*
X81875590Y96542876D01*
X81862232Y96524865D01*
X81814613Y96429627D01*
X81814206Y96426099D01*
X81808934Y96414276D01*
X81761315Y96223800D01*
X81761675Y96220352D01*
X81759076Y96205610D01*
X81759076Y96062753D01*
X81616219Y96062753D01*
X81616219Y96852038D01*
X82670980Y96852038D01*
X82670980Y95416324D01*
G37*
X54654220Y9182220D02*
X54654220Y9991743D01*
X54654220Y9991743D02*
X54606601Y10086981D01*
X54606601Y10086981D02*
X54558982Y10134600D01*
X54558982Y10134600D02*
X54463744Y10182220D01*
X54463744Y10182220D02*
X54273268Y10182220D01*
X54273268Y10182220D02*
X54178030Y10134600D01*
X54178030Y10134600D02*
X54130411Y10086981D01*
X54130411Y10086981D02*
X54082792Y9991743D01*
X54082792Y9991743D02*
X54082792Y9182220D01*
X53606601Y10182220D02*
X53606601Y9182220D01*
X53606601Y9182220D02*
X53225649Y9182220D01*
X53225649Y9182220D02*
X53130411Y9229839D01*
X53130411Y9229839D02*
X53082792Y9277458D01*
X53082792Y9277458D02*
X53035173Y9372696D01*
X53035173Y9372696D02*
X53035173Y9515553D01*
X53035173Y9515553D02*
X53082792Y9610791D01*
X53082792Y9610791D02*
X53130411Y9658410D01*
X53130411Y9658410D02*
X53225649Y9706029D01*
X53225649Y9706029D02*
X53606601Y9706029D01*
X51844696Y10182220D02*
X51844696Y9182220D01*
X51844696Y9182220D02*
X51606601Y9182220D01*
X51606601Y9182220D02*
X51463744Y9229839D01*
X51463744Y9229839D02*
X51368506Y9325077D01*
X51368506Y9325077D02*
X51320887Y9420315D01*
X51320887Y9420315D02*
X51273268Y9610791D01*
X51273268Y9610791D02*
X51273268Y9753648D01*
X51273268Y9753648D02*
X51320887Y9944124D01*
X51320887Y9944124D02*
X51368506Y10039362D01*
X51368506Y10039362D02*
X51463744Y10134600D01*
X51463744Y10134600D02*
X51606601Y10182220D01*
X51606601Y10182220D02*
X51844696Y10182220D01*
X50844696Y10182220D02*
X50844696Y9182220D01*
X50844696Y9182220D02*
X50273268Y10182220D01*
X50273268Y10182220D02*
X50273268Y9182220D01*
X48558982Y10182220D02*
X49035172Y10182220D01*
X49035172Y10182220D02*
X49035172Y9182220D01*
X47892315Y9658410D02*
X48225648Y9658410D01*
X48225648Y10182220D02*
X48225648Y9182220D01*
X48225648Y9182220D02*
X47749458Y9182220D01*
X46035172Y10182220D02*
X46368505Y9706029D01*
X46606600Y10182220D02*
X46606600Y9182220D01*
X46606600Y9182220D02*
X46225648Y9182220D01*
X46225648Y9182220D02*
X46130410Y9229839D01*
X46130410Y9229839D02*
X46082791Y9277458D01*
X46082791Y9277458D02*
X46035172Y9372696D01*
X46035172Y9372696D02*
X46035172Y9515553D01*
X46035172Y9515553D02*
X46082791Y9610791D01*
X46082791Y9610791D02*
X46130410Y9658410D01*
X46130410Y9658410D02*
X46225648Y9706029D01*
X46225648Y9706029D02*
X46606600Y9706029D01*
X45749457Y9182220D02*
X45178029Y9182220D01*
X45463743Y10182220D02*
X45463743Y9182220D01*
X44130409Y10134600D02*
X43987552Y10182220D01*
X43987552Y10182220D02*
X43749457Y10182220D01*
X43749457Y10182220D02*
X43654219Y10134600D01*
X43654219Y10134600D02*
X43606600Y10086981D01*
X43606600Y10086981D02*
X43558981Y9991743D01*
X43558981Y9991743D02*
X43558981Y9896505D01*
X43558981Y9896505D02*
X43606600Y9801267D01*
X43606600Y9801267D02*
X43654219Y9753648D01*
X43654219Y9753648D02*
X43749457Y9706029D01*
X43749457Y9706029D02*
X43939933Y9658410D01*
X43939933Y9658410D02*
X44035171Y9610791D01*
X44035171Y9610791D02*
X44082790Y9563172D01*
X44082790Y9563172D02*
X44130409Y9467934D01*
X44130409Y9467934D02*
X44130409Y9372696D01*
X44130409Y9372696D02*
X44082790Y9277458D01*
X44082790Y9277458D02*
X44035171Y9229839D01*
X44035171Y9229839D02*
X43939933Y9182220D01*
X43939933Y9182220D02*
X43701838Y9182220D01*
X43701838Y9182220D02*
X43558981Y9229839D01*
X43273266Y9182220D02*
X42701838Y9182220D01*
X42987552Y10182220D02*
X42987552Y9182220D01*
X41654218Y10134600D02*
X41511361Y10182220D01*
X41511361Y10182220D02*
X41273266Y10182220D01*
X41273266Y10182220D02*
X41178028Y10134600D01*
X41178028Y10134600D02*
X41130409Y10086981D01*
X41130409Y10086981D02*
X41082790Y9991743D01*
X41082790Y9991743D02*
X41082790Y9896505D01*
X41082790Y9896505D02*
X41130409Y9801267D01*
X41130409Y9801267D02*
X41178028Y9753648D01*
X41178028Y9753648D02*
X41273266Y9706029D01*
X41273266Y9706029D02*
X41463742Y9658410D01*
X41463742Y9658410D02*
X41558980Y9610791D01*
X41558980Y9610791D02*
X41606599Y9563172D01*
X41606599Y9563172D02*
X41654218Y9467934D01*
X41654218Y9467934D02*
X41654218Y9372696D01*
X41654218Y9372696D02*
X41606599Y9277458D01*
X41606599Y9277458D02*
X41558980Y9229839D01*
X41558980Y9229839D02*
X41463742Y9182220D01*
X41463742Y9182220D02*
X41225647Y9182220D01*
X41225647Y9182220D02*
X41082790Y9229839D01*
X40178028Y10182220D02*
X40654218Y10182220D01*
X40654218Y10182220D02*
X40654218Y9182220D01*
X39130408Y9896505D02*
X38654218Y9896505D01*
X39225646Y10182220D02*
X38892313Y9182220D01*
X38892313Y9182220D02*
X38558980Y10182220D01*
X36368503Y9658410D02*
X36225646Y9706029D01*
X36225646Y9706029D02*
X36178027Y9753648D01*
X36178027Y9753648D02*
X36130408Y9848886D01*
X36130408Y9848886D02*
X36130408Y9991743D01*
X36130408Y9991743D02*
X36178027Y10086981D01*
X36178027Y10086981D02*
X36225646Y10134600D01*
X36225646Y10134600D02*
X36320884Y10182220D01*
X36320884Y10182220D02*
X36701836Y10182220D01*
X36701836Y10182220D02*
X36701836Y9182220D01*
X36701836Y9182220D02*
X36368503Y9182220D01*
X36368503Y9182220D02*
X36273265Y9229839D01*
X36273265Y9229839D02*
X36225646Y9277458D01*
X36225646Y9277458D02*
X36178027Y9372696D01*
X36178027Y9372696D02*
X36178027Y9467934D01*
X36178027Y9467934D02*
X36225646Y9563172D01*
X36225646Y9563172D02*
X36273265Y9610791D01*
X36273265Y9610791D02*
X36368503Y9658410D01*
X36368503Y9658410D02*
X36701836Y9658410D01*
X34273264Y9182220D02*
X33606598Y10182220D01*
X33606598Y9182220D02*
X34273264Y10182220D01*
X31511359Y9706029D02*
X31511359Y10182220D01*
X31844692Y9182220D02*
X31511359Y9706029D01*
X31511359Y9706029D02*
X31178026Y9182220D01*
X29463739Y9182220D02*
X28892311Y9182220D01*
X29178025Y10182220D02*
X29178025Y9182220D01*
X28082787Y10182220D02*
X28558977Y10182220D01*
X28558977Y10182220D02*
X28558977Y9182220D01*
X27130405Y9182220D02*
X26558977Y9182220D01*
X26844691Y10182220D02*
X26844691Y9182220D01*
X25654215Y10182220D02*
X25987548Y9706029D01*
X26225643Y10182220D02*
X26225643Y9182220D01*
X26225643Y9182220D02*
X25844691Y9182220D01*
X25844691Y9182220D02*
X25749453Y9229839D01*
X25749453Y9229839D02*
X25701834Y9277458D01*
X25701834Y9277458D02*
X25654215Y9372696D01*
X25654215Y9372696D02*
X25654215Y9515553D01*
X25654215Y9515553D02*
X25701834Y9610791D01*
X25701834Y9610791D02*
X25749453Y9658410D01*
X25749453Y9658410D02*
X25844691Y9706029D01*
X25844691Y9706029D02*
X26225643Y9706029D01*
X24463738Y10182220D02*
X24463738Y9182220D01*
X24463738Y9658410D02*
X23892310Y9658410D01*
X23892310Y10182220D02*
X23892310Y9182220D01*
X23416119Y10182220D02*
X23416119Y9182220D01*
X22844691Y10182220D02*
X23273262Y9610791D01*
X22844691Y9182220D02*
X23416119Y9753648D01*
G36*
X83168064Y41187324D02*
G01*
X82113303Y41187324D01*
X82113303Y41833753D01*
X82256160Y41833753D01*
X82257345Y41830496D01*
X82258399Y41815563D01*
X82306018Y41625087D01*
X82308006Y41622143D01*
X82311697Y41609736D01*
X82359316Y41514498D01*
X82360502Y41513375D01*
X82373365Y41495006D01*
X82468603Y41399767D01*
X82472667Y41397872D01*
X82475014Y41394052D01*
X82497919Y41381649D01*
X82640775Y41334030D01*
X82642410Y41334075D01*
X82664493Y41330181D01*
X82759731Y41330181D01*
X82761269Y41330742D01*
X82783448Y41334030D01*
X82926305Y41381649D01*
X82929816Y41384437D01*
X82934285Y41384827D01*
X82955622Y41399768D01*
X83003240Y41447387D01*
X83010158Y41462225D01*
X83020684Y41474768D01*
X83023527Y41490896D01*
X83024921Y41493884D01*
X83024398Y41495835D01*
X83025207Y41500420D01*
X83025207Y41833753D01*
X83018543Y41852062D01*
X83015159Y41871253D01*
X83009974Y41875604D01*
X83007660Y41881962D01*
X82990786Y41891705D01*
X82975859Y41904230D01*
X82966116Y41905948D01*
X82963231Y41907614D01*
X82959948Y41907036D01*
X82950207Y41908753D01*
X82759731Y41908753D01*
X82711522Y41891206D01*
X82685870Y41846777D01*
X82694779Y41796253D01*
X82734079Y41763276D01*
X82759731Y41758753D01*
X82875207Y41758753D01*
X82875207Y41531486D01*
X82862074Y41518353D01*
X82747561Y41480181D01*
X82676663Y41480181D01*
X82562150Y41518352D01*
X82488037Y41592466D01*
X82449543Y41669453D01*
X82406160Y41842987D01*
X82406160Y41967376D01*
X82449543Y42140910D01*
X82488037Y42217897D01*
X82562150Y42292010D01*
X82676663Y42330181D01*
X82789645Y42330181D01*
X82869047Y42290480D01*
X82920013Y42284615D01*
X82962826Y42312881D01*
X82977453Y42362056D01*
X82957050Y42409127D01*
X82936129Y42424644D01*
X82840891Y42472263D01*
X82836437Y42472776D01*
X82833002Y42475658D01*
X82807350Y42480181D01*
X82664493Y42480181D01*
X82662955Y42479622D01*
X82640775Y42476332D01*
X82497919Y42428713D01*
X82494408Y42425927D01*
X82489940Y42425536D01*
X82468603Y42410595D01*
X82373365Y42315357D01*
X82372674Y42313876D01*
X82359316Y42295865D01*
X82311697Y42200627D01*
X82311290Y42197099D01*
X82306018Y42185276D01*
X82258399Y41994800D01*
X82258759Y41991352D01*
X82256160Y41976610D01*
X82256160Y41833753D01*
X82113303Y41833753D01*
X82113303Y42623038D01*
X83168064Y42623038D01*
X83168064Y41187324D01*
G37*
D12*
X23241482Y16477343D02*
X23955768Y16477343D01*
X23098625Y16048772D02*
X23598625Y17548772D01*
X23598625Y17548772D02*
X24098625Y16048772D01*
X24598624Y16048772D02*
X24598624Y17048772D01*
X24598624Y16905915D02*
X24670053Y16977343D01*
X24670053Y16977343D02*
X24812910Y17048772D01*
X24812910Y17048772D02*
X25027196Y17048772D01*
X25027196Y17048772D02*
X25170053Y16977343D01*
X25170053Y16977343D02*
X25241482Y16834486D01*
X25241482Y16834486D02*
X25241482Y16048772D01*
X25241482Y16834486D02*
X25312910Y16977343D01*
X25312910Y16977343D02*
X25455767Y17048772D01*
X25455767Y17048772D02*
X25670053Y17048772D01*
X25670053Y17048772D02*
X25812910Y16977343D01*
X25812910Y16977343D02*
X25884339Y16834486D01*
X25884339Y16834486D02*
X25884339Y16048772D01*
X26812910Y16048772D02*
X26670053Y16120200D01*
X26670053Y16120200D02*
X26598624Y16191629D01*
X26598624Y16191629D02*
X26527196Y16334486D01*
X26527196Y16334486D02*
X26527196Y16763058D01*
X26527196Y16763058D02*
X26598624Y16905915D01*
X26598624Y16905915D02*
X26670053Y16977343D01*
X26670053Y16977343D02*
X26812910Y17048772D01*
X26812910Y17048772D02*
X27027196Y17048772D01*
X27027196Y17048772D02*
X27170053Y16977343D01*
X27170053Y16977343D02*
X27241482Y16905915D01*
X27241482Y16905915D02*
X27312910Y16763058D01*
X27312910Y16763058D02*
X27312910Y16334486D01*
X27312910Y16334486D02*
X27241482Y16191629D01*
X27241482Y16191629D02*
X27170053Y16120200D01*
X27170053Y16120200D02*
X27027196Y16048772D01*
X27027196Y16048772D02*
X26812910Y16048772D01*
X27884339Y16120200D02*
X28027196Y16048772D01*
X28027196Y16048772D02*
X28312910Y16048772D01*
X28312910Y16048772D02*
X28455767Y16120200D01*
X28455767Y16120200D02*
X28527196Y16263058D01*
X28527196Y16263058D02*
X28527196Y16334486D01*
X28527196Y16334486D02*
X28455767Y16477343D01*
X28455767Y16477343D02*
X28312910Y16548772D01*
X28312910Y16548772D02*
X28098625Y16548772D01*
X28098625Y16548772D02*
X27955767Y16620200D01*
X27955767Y16620200D02*
X27884339Y16763058D01*
X27884339Y16763058D02*
X27884339Y16834486D01*
X27884339Y16834486D02*
X27955767Y16977343D01*
X27955767Y16977343D02*
X28098625Y17048772D01*
X28098625Y17048772D02*
X28312910Y17048772D01*
X28312910Y17048772D02*
X28455767Y16977343D01*
X30312910Y16048772D02*
X30312910Y17548772D01*
X31027196Y17048772D02*
X31027196Y16048772D01*
X31027196Y16905915D02*
X31098625Y16977343D01*
X31098625Y16977343D02*
X31241482Y17048772D01*
X31241482Y17048772D02*
X31455768Y17048772D01*
X31455768Y17048772D02*
X31598625Y16977343D01*
X31598625Y16977343D02*
X31670054Y16834486D01*
X31670054Y16834486D02*
X31670054Y16048772D01*
X32384339Y17048772D02*
X32384339Y15548772D01*
X32384339Y16977343D02*
X32527197Y17048772D01*
X32527197Y17048772D02*
X32812911Y17048772D01*
X32812911Y17048772D02*
X32955768Y16977343D01*
X32955768Y16977343D02*
X33027197Y16905915D01*
X33027197Y16905915D02*
X33098625Y16763058D01*
X33098625Y16763058D02*
X33098625Y16334486D01*
X33098625Y16334486D02*
X33027197Y16191629D01*
X33027197Y16191629D02*
X32955768Y16120200D01*
X32955768Y16120200D02*
X32812911Y16048772D01*
X32812911Y16048772D02*
X32527197Y16048772D01*
X32527197Y16048772D02*
X32384339Y16120200D01*
X34384340Y17048772D02*
X34384340Y16048772D01*
X33741482Y17048772D02*
X33741482Y16263058D01*
X33741482Y16263058D02*
X33812911Y16120200D01*
X33812911Y16120200D02*
X33955768Y16048772D01*
X33955768Y16048772D02*
X34170054Y16048772D01*
X34170054Y16048772D02*
X34312911Y16120200D01*
X34312911Y16120200D02*
X34384340Y16191629D01*
X34884340Y17048772D02*
X35455768Y17048772D01*
X35098625Y17548772D02*
X35098625Y16263058D01*
X35098625Y16263058D02*
X35170054Y16120200D01*
X35170054Y16120200D02*
X35312911Y16048772D01*
X35312911Y16048772D02*
X35455768Y16048772D01*
X37098625Y16048772D02*
X37098625Y17548772D01*
X37098625Y17548772D02*
X37670054Y17548772D01*
X37670054Y17548772D02*
X37812911Y17477343D01*
X37812911Y17477343D02*
X37884340Y17405915D01*
X37884340Y17405915D02*
X37955768Y17263058D01*
X37955768Y17263058D02*
X37955768Y17048772D01*
X37955768Y17048772D02*
X37884340Y16905915D01*
X37884340Y16905915D02*
X37812911Y16834486D01*
X37812911Y16834486D02*
X37670054Y16763058D01*
X37670054Y16763058D02*
X37098625Y16763058D01*
X39241483Y16048772D02*
X39241483Y16834486D01*
X39241483Y16834486D02*
X39170054Y16977343D01*
X39170054Y16977343D02*
X39027197Y17048772D01*
X39027197Y17048772D02*
X38741483Y17048772D01*
X38741483Y17048772D02*
X38598625Y16977343D01*
X39241483Y16120200D02*
X39098625Y16048772D01*
X39098625Y16048772D02*
X38741483Y16048772D01*
X38741483Y16048772D02*
X38598625Y16120200D01*
X38598625Y16120200D02*
X38527197Y16263058D01*
X38527197Y16263058D02*
X38527197Y16405915D01*
X38527197Y16405915D02*
X38598625Y16548772D01*
X38598625Y16548772D02*
X38741483Y16620200D01*
X38741483Y16620200D02*
X39098625Y16620200D01*
X39098625Y16620200D02*
X39241483Y16691629D01*
X39955768Y17048772D02*
X39955768Y16048772D01*
X39955768Y16905915D02*
X40027197Y16977343D01*
X40027197Y16977343D02*
X40170054Y17048772D01*
X40170054Y17048772D02*
X40384340Y17048772D01*
X40384340Y17048772D02*
X40527197Y16977343D01*
X40527197Y16977343D02*
X40598626Y16834486D01*
X40598626Y16834486D02*
X40598626Y16048772D01*
X41884340Y16120200D02*
X41741483Y16048772D01*
X41741483Y16048772D02*
X41455769Y16048772D01*
X41455769Y16048772D02*
X41312911Y16120200D01*
X41312911Y16120200D02*
X41241483Y16263058D01*
X41241483Y16263058D02*
X41241483Y16834486D01*
X41241483Y16834486D02*
X41312911Y16977343D01*
X41312911Y16977343D02*
X41455769Y17048772D01*
X41455769Y17048772D02*
X41741483Y17048772D01*
X41741483Y17048772D02*
X41884340Y16977343D01*
X41884340Y16977343D02*
X41955769Y16834486D01*
X41955769Y16834486D02*
X41955769Y16691629D01*
X41955769Y16691629D02*
X41241483Y16548772D01*
X42812911Y16048772D02*
X42670054Y16120200D01*
X42670054Y16120200D02*
X42598625Y16263058D01*
X42598625Y16263058D02*
X42598625Y17548772D01*
X44455768Y16120200D02*
X44670054Y16048772D01*
X44670054Y16048772D02*
X45027196Y16048772D01*
X45027196Y16048772D02*
X45170054Y16120200D01*
X45170054Y16120200D02*
X45241482Y16191629D01*
X45241482Y16191629D02*
X45312911Y16334486D01*
X45312911Y16334486D02*
X45312911Y16477343D01*
X45312911Y16477343D02*
X45241482Y16620200D01*
X45241482Y16620200D02*
X45170054Y16691629D01*
X45170054Y16691629D02*
X45027196Y16763058D01*
X45027196Y16763058D02*
X44741482Y16834486D01*
X44741482Y16834486D02*
X44598625Y16905915D01*
X44598625Y16905915D02*
X44527196Y16977343D01*
X44527196Y16977343D02*
X44455768Y17120200D01*
X44455768Y17120200D02*
X44455768Y17263058D01*
X44455768Y17263058D02*
X44527196Y17405915D01*
X44527196Y17405915D02*
X44598625Y17477343D01*
X44598625Y17477343D02*
X44741482Y17548772D01*
X44741482Y17548772D02*
X45098625Y17548772D01*
X45098625Y17548772D02*
X45312911Y17477343D01*
X46598625Y17048772D02*
X46598625Y16048772D01*
X45955767Y17048772D02*
X45955767Y16263058D01*
X45955767Y16263058D02*
X46027196Y16120200D01*
X46027196Y16120200D02*
X46170053Y16048772D01*
X46170053Y16048772D02*
X46384339Y16048772D01*
X46384339Y16048772D02*
X46527196Y16120200D01*
X46527196Y16120200D02*
X46598625Y16191629D01*
X47312910Y17048772D02*
X47312910Y15548772D01*
X47312910Y16977343D02*
X47455768Y17048772D01*
X47455768Y17048772D02*
X47741482Y17048772D01*
X47741482Y17048772D02*
X47884339Y16977343D01*
X47884339Y16977343D02*
X47955768Y16905915D01*
X47955768Y16905915D02*
X48027196Y16763058D01*
X48027196Y16763058D02*
X48027196Y16334486D01*
X48027196Y16334486D02*
X47955768Y16191629D01*
X47955768Y16191629D02*
X47884339Y16120200D01*
X47884339Y16120200D02*
X47741482Y16048772D01*
X47741482Y16048772D02*
X47455768Y16048772D01*
X47455768Y16048772D02*
X47312910Y16120200D01*
X48670053Y17048772D02*
X48670053Y15548772D01*
X48670053Y16977343D02*
X48812911Y17048772D01*
X48812911Y17048772D02*
X49098625Y17048772D01*
X49098625Y17048772D02*
X49241482Y16977343D01*
X49241482Y16977343D02*
X49312911Y16905915D01*
X49312911Y16905915D02*
X49384339Y16763058D01*
X49384339Y16763058D02*
X49384339Y16334486D01*
X49384339Y16334486D02*
X49312911Y16191629D01*
X49312911Y16191629D02*
X49241482Y16120200D01*
X49241482Y16120200D02*
X49098625Y16048772D01*
X49098625Y16048772D02*
X48812911Y16048772D01*
X48812911Y16048772D02*
X48670053Y16120200D01*
X50241482Y16048772D02*
X50098625Y16120200D01*
X50098625Y16120200D02*
X50027196Y16191629D01*
X50027196Y16191629D02*
X49955768Y16334486D01*
X49955768Y16334486D02*
X49955768Y16763058D01*
X49955768Y16763058D02*
X50027196Y16905915D01*
X50027196Y16905915D02*
X50098625Y16977343D01*
X50098625Y16977343D02*
X50241482Y17048772D01*
X50241482Y17048772D02*
X50455768Y17048772D01*
X50455768Y17048772D02*
X50598625Y16977343D01*
X50598625Y16977343D02*
X50670054Y16905915D01*
X50670054Y16905915D02*
X50741482Y16763058D01*
X50741482Y16763058D02*
X50741482Y16334486D01*
X50741482Y16334486D02*
X50670054Y16191629D01*
X50670054Y16191629D02*
X50598625Y16120200D01*
X50598625Y16120200D02*
X50455768Y16048772D01*
X50455768Y16048772D02*
X50241482Y16048772D01*
X51384339Y16048772D02*
X51384339Y17048772D01*
X51384339Y16763058D02*
X51455768Y16905915D01*
X51455768Y16905915D02*
X51527197Y16977343D01*
X51527197Y16977343D02*
X51670054Y17048772D01*
X51670054Y17048772D02*
X51812911Y17048772D01*
X52098625Y17048772D02*
X52670053Y17048772D01*
X52312910Y17548772D02*
X52312910Y16263058D01*
X52312910Y16263058D02*
X52384339Y16120200D01*
X52384339Y16120200D02*
X52527196Y16048772D01*
X52527196Y16048772D02*
X52670053Y16048772D01*
D11*
X110477180Y43109126D02*
X109667657Y43109126D01*
X109667657Y43109126D02*
X109572419Y43063888D01*
X109572419Y43063888D02*
X109524800Y43018650D01*
X109524800Y43018650D02*
X109477180Y42928174D01*
X109477180Y42928174D02*
X109477180Y42747221D01*
X109477180Y42747221D02*
X109524800Y42656745D01*
X109524800Y42656745D02*
X109572419Y42611507D01*
X109572419Y42611507D02*
X109667657Y42566269D01*
X109667657Y42566269D02*
X110477180Y42566269D01*
X109477180Y42113888D02*
X110477180Y42113888D01*
X110477180Y42113888D02*
X110477180Y41751983D01*
X110477180Y41751983D02*
X110429561Y41661507D01*
X110429561Y41661507D02*
X110381942Y41616269D01*
X110381942Y41616269D02*
X110286704Y41571031D01*
X110286704Y41571031D02*
X110143847Y41571031D01*
X110143847Y41571031D02*
X110048609Y41616269D01*
X110048609Y41616269D02*
X110000990Y41661507D01*
X110000990Y41661507D02*
X109953371Y41751983D01*
X109953371Y41751983D02*
X109953371Y42113888D01*
X109477180Y40440078D02*
X110477180Y40440078D01*
X110477180Y40440078D02*
X110477180Y40213888D01*
X110477180Y40213888D02*
X110429561Y40078173D01*
X110429561Y40078173D02*
X110334323Y39987697D01*
X110334323Y39987697D02*
X110239085Y39942459D01*
X110239085Y39942459D02*
X110048609Y39897221D01*
X110048609Y39897221D02*
X109905752Y39897221D01*
X109905752Y39897221D02*
X109715276Y39942459D01*
X109715276Y39942459D02*
X109620038Y39987697D01*
X109620038Y39987697D02*
X109524800Y40078173D01*
X109524800Y40078173D02*
X109477180Y40213888D01*
X109477180Y40213888D02*
X109477180Y40440078D01*
X109477180Y39490078D02*
X110477180Y39490078D01*
X110477180Y39490078D02*
X109477180Y38947221D01*
X109477180Y38947221D02*
X110477180Y38947221D01*
X109477180Y37318649D02*
X109477180Y37771030D01*
X109477180Y37771030D02*
X110477180Y37771030D01*
X110000990Y36685315D02*
X110000990Y37001982D01*
X109477180Y37001982D02*
X110477180Y37001982D01*
X110477180Y37001982D02*
X110477180Y36549601D01*
X109477180Y34921029D02*
X109953371Y35237696D01*
X109477180Y35463886D02*
X110477180Y35463886D01*
X110477180Y35463886D02*
X110477180Y35101981D01*
X110477180Y35101981D02*
X110429561Y35011505D01*
X110429561Y35011505D02*
X110381942Y34966267D01*
X110381942Y34966267D02*
X110286704Y34921029D01*
X110286704Y34921029D02*
X110143847Y34921029D01*
X110143847Y34921029D02*
X110048609Y34966267D01*
X110048609Y34966267D02*
X110000990Y35011505D01*
X110000990Y35011505D02*
X109953371Y35101981D01*
X109953371Y35101981D02*
X109953371Y35463886D01*
X110477180Y34649600D02*
X110477180Y34106743D01*
X109477180Y34378172D02*
X110477180Y34378172D01*
G36*
X20146601Y9257220D02*
G01*
X19995676Y9257220D01*
X19881163Y9295391D01*
X19807050Y9369504D01*
X19768556Y9446491D01*
X19725173Y9620025D01*
X19725173Y9744414D01*
X19768556Y9917948D01*
X19807050Y9994935D01*
X19881162Y10069048D01*
X19995677Y10107220D01*
X20146601Y10107220D01*
X20146601Y9257220D01*
G37*
G36*
X22534696Y8964363D02*
G01*
X19432316Y8964363D01*
X19432316Y9610791D01*
X19575173Y9610791D01*
X19576358Y9607534D01*
X19577412Y9592601D01*
X19625031Y9402125D01*
X19627019Y9399181D01*
X19630710Y9386774D01*
X19678329Y9291536D01*
X19679518Y9290411D01*
X19692378Y9272044D01*
X19787616Y9176806D01*
X19791680Y9174911D01*
X19794027Y9171091D01*
X19816932Y9158688D01*
X19959788Y9111069D01*
X19961423Y9111114D01*
X19983506Y9107220D01*
X20221601Y9107220D01*
X20239909Y9113884D01*
X20259101Y9117268D01*
X20263451Y9122453D01*
X20269810Y9124767D01*
X20279552Y9141641D01*
X20292078Y9156568D01*
X20293795Y9166311D01*
X20295462Y9169196D01*
X20294883Y9172479D01*
X20296601Y9182220D01*
X20622792Y9182220D01*
X20640339Y9134011D01*
X20684768Y9108359D01*
X20735292Y9117268D01*
X20768269Y9156568D01*
X20772792Y9182220D01*
X20772792Y9899804D01*
X21204102Y9145009D01*
X21209395Y9140528D01*
X21211767Y9134011D01*
X21228504Y9124348D01*
X21243255Y9111858D01*
X21250189Y9111828D01*
X21256196Y9108359D01*
X21275229Y9111716D01*
X21294557Y9111629D01*
X21299890Y9116064D01*
X21306720Y9117268D01*
X21319144Y9132075D01*
X21334004Y9144431D01*
X21335238Y9151255D01*
X21339697Y9156568D01*
X21344220Y9182220D01*
X21344220Y9753648D01*
X21622792Y9753648D01*
X21629455Y9735340D01*
X21632840Y9716148D01*
X21638024Y9711798D01*
X21640339Y9705439D01*
X21657212Y9695697D01*
X21672140Y9683171D01*
X21681882Y9681454D01*
X21684768Y9679787D01*
X21688050Y9680366D01*
X21697792Y9678648D01*
X21888268Y9678648D01*
X21936477Y9696195D01*
X21962129Y9740624D01*
X21953220Y9791148D01*
X21913920Y9824125D01*
X21888268Y9828648D01*
X21772792Y9828648D01*
X21772792Y10055915D01*
X21785924Y10069048D01*
X21900439Y10107220D01*
X21971335Y10107220D01*
X22085848Y10069049D01*
X22159962Y9994935D01*
X22198455Y9917948D01*
X22241839Y9744414D01*
X22241839Y9620025D01*
X22198455Y9446491D01*
X22159962Y9369504D01*
X22085849Y9295392D01*
X21971336Y9257220D01*
X21858354Y9257220D01*
X21778952Y9296921D01*
X21727985Y9302786D01*
X21685172Y9274520D01*
X21670546Y9225345D01*
X21690949Y9178274D01*
X21711870Y9162757D01*
X21807108Y9115138D01*
X21811561Y9114626D01*
X21814997Y9111743D01*
X21840649Y9107220D01*
X21983506Y9107220D01*
X21985044Y9107781D01*
X22007223Y9111069D01*
X22150080Y9158688D01*
X22153592Y9161476D01*
X22158059Y9161866D01*
X22179396Y9176806D01*
X22274634Y9272044D01*
X22275324Y9273526D01*
X22288683Y9291536D01*
X22336302Y9386774D01*
X22336708Y9390303D01*
X22341981Y9402125D01*
X22389600Y9592601D01*
X22389239Y9596050D01*
X22391839Y9610791D01*
X22391839Y9753648D01*
X22390653Y9756906D01*
X22389600Y9771838D01*
X22341981Y9962314D01*
X22339992Y9965259D01*
X22336302Y9977665D01*
X22288683Y10072903D01*
X22287496Y10074027D01*
X22274634Y10092395D01*
X22179396Y10187633D01*
X22175333Y10189528D01*
X22172986Y10193348D01*
X22150081Y10205751D01*
X22007224Y10253371D01*
X22005588Y10253327D01*
X21983506Y10257220D01*
X21888268Y10257220D01*
X21886729Y10256660D01*
X21864551Y10253371D01*
X21721693Y10205751D01*
X21718180Y10202964D01*
X21713715Y10202573D01*
X21692378Y10187633D01*
X21644759Y10140014D01*
X21637840Y10125177D01*
X21627315Y10112633D01*
X21624471Y10096506D01*
X21623078Y10093517D01*
X21623600Y10091567D01*
X21622792Y10086981D01*
X21622792Y9753648D01*
X21344220Y9753648D01*
X21344220Y10182220D01*
X21326673Y10230429D01*
X21282244Y10256081D01*
X21231720Y10247172D01*
X21198743Y10207872D01*
X21194220Y10182220D01*
X21194220Y9464637D01*
X20762910Y10219430D01*
X20757617Y10223912D01*
X20755245Y10230429D01*
X20738505Y10240094D01*
X20723757Y10252582D01*
X20716822Y10252613D01*
X20710816Y10256081D01*
X20691782Y10252725D01*
X20672455Y10252811D01*
X20667121Y10248377D01*
X20660292Y10247172D01*
X20647867Y10232366D01*
X20633008Y10220009D01*
X20631773Y10213186D01*
X20627315Y10207872D01*
X20622792Y10182220D01*
X20622792Y9182220D01*
X20296601Y9182220D01*
X20296601Y10182220D01*
X20289937Y10200529D01*
X20286553Y10219720D01*
X20281368Y10224071D01*
X20279054Y10230429D01*
X20262180Y10240172D01*
X20247253Y10252697D01*
X20237510Y10254415D01*
X20234625Y10256081D01*
X20231342Y10255503D01*
X20221601Y10257220D01*
X19983506Y10257220D01*
X19981967Y10256660D01*
X19959789Y10253371D01*
X19816931Y10205751D01*
X19813420Y10202965D01*
X19808953Y10202574D01*
X19787616Y10187633D01*
X19692378Y10092395D01*
X19691687Y10090914D01*
X19678329Y10072903D01*
X19630710Y9977665D01*
X19630303Y9974137D01*
X19625031Y9962314D01*
X19577412Y9771838D01*
X19577772Y9768390D01*
X19575173Y9753648D01*
X19575173Y9610791D01*
X19432316Y9610791D01*
X19432316Y10400077D01*
X22534696Y10400077D01*
X22534696Y8964363D01*
G37*
G36*
X83168064Y3214324D02*
G01*
X82113303Y3214324D01*
X82113303Y3860753D01*
X82256160Y3860753D01*
X82257345Y3857496D01*
X82258399Y3842563D01*
X82306018Y3652087D01*
X82308006Y3649143D01*
X82311697Y3636736D01*
X82359316Y3541498D01*
X82360502Y3540375D01*
X82373365Y3522006D01*
X82468603Y3426767D01*
X82472667Y3424872D01*
X82475014Y3421052D01*
X82497919Y3408649D01*
X82640775Y3361030D01*
X82642410Y3361075D01*
X82664493Y3357181D01*
X82759731Y3357181D01*
X82761269Y3357742D01*
X82783448Y3361030D01*
X82926305Y3408649D01*
X82929816Y3411437D01*
X82934285Y3411827D01*
X82955622Y3426768D01*
X83003240Y3474387D01*
X83010158Y3489225D01*
X83020684Y3501768D01*
X83023527Y3517896D01*
X83024921Y3520884D01*
X83024398Y3522835D01*
X83025207Y3527420D01*
X83025207Y3860753D01*
X83018543Y3879062D01*
X83015159Y3898253D01*
X83009974Y3902604D01*
X83007660Y3908962D01*
X82990786Y3918705D01*
X82975859Y3931230D01*
X82966116Y3932948D01*
X82963231Y3934614D01*
X82959948Y3934036D01*
X82950207Y3935753D01*
X82759731Y3935753D01*
X82711522Y3918206D01*
X82685870Y3873777D01*
X82694779Y3823253D01*
X82734079Y3790276D01*
X82759731Y3785753D01*
X82875207Y3785753D01*
X82875207Y3558486D01*
X82862074Y3545353D01*
X82747561Y3507181D01*
X82676663Y3507181D01*
X82562150Y3545352D01*
X82488037Y3619466D01*
X82449543Y3696453D01*
X82406160Y3869987D01*
X82406160Y3994376D01*
X82449543Y4167910D01*
X82488037Y4244897D01*
X82562150Y4319010D01*
X82676663Y4357181D01*
X82789645Y4357181D01*
X82869047Y4317480D01*
X82920013Y4311615D01*
X82962826Y4339881D01*
X82977453Y4389056D01*
X82957050Y4436127D01*
X82936129Y4451644D01*
X82840891Y4499263D01*
X82836437Y4499776D01*
X82833002Y4502658D01*
X82807350Y4507181D01*
X82664493Y4507181D01*
X82662955Y4506622D01*
X82640775Y4503332D01*
X82497919Y4455713D01*
X82494408Y4452927D01*
X82489940Y4452536D01*
X82468603Y4437595D01*
X82373365Y4342357D01*
X82372674Y4340876D01*
X82359316Y4322865D01*
X82311697Y4227627D01*
X82311290Y4224099D01*
X82306018Y4212276D01*
X82258399Y4021800D01*
X82258759Y4018352D01*
X82256160Y4003610D01*
X82256160Y3860753D01*
X82113303Y3860753D01*
X82113303Y4650038D01*
X83168064Y4650038D01*
X83168064Y3214324D01*
G37*
X25228779Y94602181D02*
X25228779Y93792658D01*
X25228779Y93792658D02*
X25276398Y93697420D01*
X25276398Y93697420D02*
X25324017Y93649800D01*
X25324017Y93649800D02*
X25419255Y93602181D01*
X25419255Y93602181D02*
X25609731Y93602181D01*
X25609731Y93602181D02*
X25704969Y93649800D01*
X25704969Y93649800D02*
X25752588Y93697420D01*
X25752588Y93697420D02*
X25800207Y93792658D01*
X25800207Y93792658D02*
X25800207Y94602181D01*
X26276398Y93602181D02*
X26276398Y94602181D01*
X26276398Y94602181D02*
X26657350Y94602181D01*
X26657350Y94602181D02*
X26752588Y94554562D01*
X26752588Y94554562D02*
X26800207Y94506943D01*
X26800207Y94506943D02*
X26847826Y94411705D01*
X26847826Y94411705D02*
X26847826Y94268848D01*
X26847826Y94268848D02*
X26800207Y94173610D01*
X26800207Y94173610D02*
X26752588Y94125991D01*
X26752588Y94125991D02*
X26657350Y94078372D01*
X26657350Y94078372D02*
X26276398Y94078372D01*
X28038303Y93602181D02*
X28038303Y94602181D01*
X28038303Y94602181D02*
X28276398Y94602181D01*
X28276398Y94602181D02*
X28419255Y94554562D01*
X28419255Y94554562D02*
X28514493Y94459324D01*
X28514493Y94459324D02*
X28562112Y94364086D01*
X28562112Y94364086D02*
X28609731Y94173610D01*
X28609731Y94173610D02*
X28609731Y94030753D01*
X28609731Y94030753D02*
X28562112Y93840277D01*
X28562112Y93840277D02*
X28514493Y93745039D01*
X28514493Y93745039D02*
X28419255Y93649800D01*
X28419255Y93649800D02*
X28276398Y93602181D01*
X28276398Y93602181D02*
X28038303Y93602181D01*
X29038303Y93602181D02*
X29038303Y94602181D01*
X29038303Y94602181D02*
X29609731Y93602181D01*
X29609731Y93602181D02*
X29609731Y94602181D01*
X31324017Y93602181D02*
X30847827Y93602181D01*
X30847827Y93602181D02*
X30847827Y94602181D01*
X31990684Y94125991D02*
X31657351Y94125991D01*
X31657351Y93602181D02*
X31657351Y94602181D01*
X31657351Y94602181D02*
X32133541Y94602181D01*
X33847827Y93602181D02*
X33514494Y94078372D01*
X33276399Y93602181D02*
X33276399Y94602181D01*
X33276399Y94602181D02*
X33657351Y94602181D01*
X33657351Y94602181D02*
X33752589Y94554562D01*
X33752589Y94554562D02*
X33800208Y94506943D01*
X33800208Y94506943D02*
X33847827Y94411705D01*
X33847827Y94411705D02*
X33847827Y94268848D01*
X33847827Y94268848D02*
X33800208Y94173610D01*
X33800208Y94173610D02*
X33752589Y94125991D01*
X33752589Y94125991D02*
X33657351Y94078372D01*
X33657351Y94078372D02*
X33276399Y94078372D01*
X34133542Y94602181D02*
X34704970Y94602181D01*
X34419256Y93602181D02*
X34419256Y94602181D01*
X35752590Y93649800D02*
X35895447Y93602181D01*
X35895447Y93602181D02*
X36133542Y93602181D01*
X36133542Y93602181D02*
X36228780Y93649800D01*
X36228780Y93649800D02*
X36276399Y93697420D01*
X36276399Y93697420D02*
X36324018Y93792658D01*
X36324018Y93792658D02*
X36324018Y93887896D01*
X36324018Y93887896D02*
X36276399Y93983134D01*
X36276399Y93983134D02*
X36228780Y94030753D01*
X36228780Y94030753D02*
X36133542Y94078372D01*
X36133542Y94078372D02*
X35943066Y94125991D01*
X35943066Y94125991D02*
X35847828Y94173610D01*
X35847828Y94173610D02*
X35800209Y94221229D01*
X35800209Y94221229D02*
X35752590Y94316467D01*
X35752590Y94316467D02*
X35752590Y94411705D01*
X35752590Y94411705D02*
X35800209Y94506943D01*
X35800209Y94506943D02*
X35847828Y94554562D01*
X35847828Y94554562D02*
X35943066Y94602181D01*
X35943066Y94602181D02*
X36181161Y94602181D01*
X36181161Y94602181D02*
X36324018Y94554562D01*
X36609733Y94602181D02*
X37181161Y94602181D01*
X36895447Y93602181D02*
X36895447Y94602181D01*
X38228781Y93649800D02*
X38371638Y93602181D01*
X38371638Y93602181D02*
X38609733Y93602181D01*
X38609733Y93602181D02*
X38704971Y93649800D01*
X38704971Y93649800D02*
X38752590Y93697420D01*
X38752590Y93697420D02*
X38800209Y93792658D01*
X38800209Y93792658D02*
X38800209Y93887896D01*
X38800209Y93887896D02*
X38752590Y93983134D01*
X38752590Y93983134D02*
X38704971Y94030753D01*
X38704971Y94030753D02*
X38609733Y94078372D01*
X38609733Y94078372D02*
X38419257Y94125991D01*
X38419257Y94125991D02*
X38324019Y94173610D01*
X38324019Y94173610D02*
X38276400Y94221229D01*
X38276400Y94221229D02*
X38228781Y94316467D01*
X38228781Y94316467D02*
X38228781Y94411705D01*
X38228781Y94411705D02*
X38276400Y94506943D01*
X38276400Y94506943D02*
X38324019Y94554562D01*
X38324019Y94554562D02*
X38419257Y94602181D01*
X38419257Y94602181D02*
X38657352Y94602181D01*
X38657352Y94602181D02*
X38800209Y94554562D01*
X39704971Y93602181D02*
X39228781Y93602181D01*
X39228781Y93602181D02*
X39228781Y94602181D01*
X40752591Y93887896D02*
X41228781Y93887896D01*
X40657353Y93602181D02*
X40990686Y94602181D01*
X40990686Y94602181D02*
X41324019Y93602181D01*
X43514496Y94125991D02*
X43657353Y94078372D01*
X43657353Y94078372D02*
X43704972Y94030753D01*
X43704972Y94030753D02*
X43752591Y93935515D01*
X43752591Y93935515D02*
X43752591Y93792658D01*
X43752591Y93792658D02*
X43704972Y93697420D01*
X43704972Y93697420D02*
X43657353Y93649800D01*
X43657353Y93649800D02*
X43562115Y93602181D01*
X43562115Y93602181D02*
X43181163Y93602181D01*
X43181163Y93602181D02*
X43181163Y94602181D01*
X43181163Y94602181D02*
X43514496Y94602181D01*
X43514496Y94602181D02*
X43609734Y94554562D01*
X43609734Y94554562D02*
X43657353Y94506943D01*
X43657353Y94506943D02*
X43704972Y94411705D01*
X43704972Y94411705D02*
X43704972Y94316467D01*
X43704972Y94316467D02*
X43657353Y94221229D01*
X43657353Y94221229D02*
X43609734Y94173610D01*
X43609734Y94173610D02*
X43514496Y94125991D01*
X43514496Y94125991D02*
X43181163Y94125991D01*
X45609735Y94602181D02*
X46276401Y93602181D01*
X46276401Y94602181D02*
X45609735Y93602181D01*
X48371640Y94078372D02*
X48371640Y93602181D01*
X48038307Y94602181D02*
X48371640Y94078372D01*
X48371640Y94078372D02*
X48704973Y94602181D01*
X50419260Y94602181D02*
X50990688Y94602181D01*
X50704974Y93602181D02*
X50704974Y94602181D01*
X51800212Y93602181D02*
X51324022Y93602181D01*
X51324022Y93602181D02*
X51324022Y94602181D01*
X52752594Y94602181D02*
X53324022Y94602181D01*
X53038308Y93602181D02*
X53038308Y94602181D01*
X54228784Y93602181D02*
X53895451Y94078372D01*
X53657356Y93602181D02*
X53657356Y94602181D01*
X53657356Y94602181D02*
X54038308Y94602181D01*
X54038308Y94602181D02*
X54133546Y94554562D01*
X54133546Y94554562D02*
X54181165Y94506943D01*
X54181165Y94506943D02*
X54228784Y94411705D01*
X54228784Y94411705D02*
X54228784Y94268848D01*
X54228784Y94268848D02*
X54181165Y94173610D01*
X54181165Y94173610D02*
X54133546Y94125991D01*
X54133546Y94125991D02*
X54038308Y94078372D01*
X54038308Y94078372D02*
X53657356Y94078372D01*
X55419261Y93602181D02*
X55419261Y94602181D01*
X55419261Y94125991D02*
X55990689Y94125991D01*
X55990689Y93602181D02*
X55990689Y94602181D01*
X56466880Y93602181D02*
X56466880Y94602181D01*
X57038308Y93602181D02*
X56609737Y94173610D01*
X57038308Y94602181D02*
X56466880Y94030753D01*
G36*
X12302064Y22010324D02*
G01*
X11247303Y22010324D01*
X11247303Y22656753D01*
X11390160Y22656753D01*
X11391345Y22653496D01*
X11392399Y22638563D01*
X11440018Y22448087D01*
X11442006Y22445143D01*
X11445697Y22432736D01*
X11493316Y22337498D01*
X11494502Y22336375D01*
X11507365Y22318006D01*
X11602603Y22222767D01*
X11606667Y22220872D01*
X11609014Y22217052D01*
X11631919Y22204649D01*
X11774775Y22157030D01*
X11776410Y22157075D01*
X11798493Y22153181D01*
X11893731Y22153181D01*
X11895269Y22153742D01*
X11917448Y22157030D01*
X12060305Y22204649D01*
X12063816Y22207437D01*
X12068285Y22207827D01*
X12089622Y22222768D01*
X12137240Y22270387D01*
X12144158Y22285225D01*
X12154684Y22297768D01*
X12157527Y22313896D01*
X12158921Y22316884D01*
X12158398Y22318835D01*
X12159207Y22323420D01*
X12159207Y22656753D01*
X12152543Y22675062D01*
X12149159Y22694253D01*
X12143974Y22698604D01*
X12141660Y22704962D01*
X12124786Y22714705D01*
X12109859Y22727230D01*
X12100116Y22728948D01*
X12097231Y22730614D01*
X12093948Y22730036D01*
X12084207Y22731753D01*
X11893731Y22731753D01*
X11845522Y22714206D01*
X11819870Y22669777D01*
X11828779Y22619253D01*
X11868079Y22586276D01*
X11893731Y22581753D01*
X12009207Y22581753D01*
X12009207Y22354486D01*
X11996074Y22341353D01*
X11881561Y22303181D01*
X11810663Y22303181D01*
X11696150Y22341352D01*
X11622037Y22415466D01*
X11583543Y22492453D01*
X11540160Y22665987D01*
X11540160Y22790376D01*
X11583543Y22963910D01*
X11622037Y23040897D01*
X11696150Y23115010D01*
X11810663Y23153181D01*
X11923645Y23153181D01*
X12003047Y23113480D01*
X12054013Y23107615D01*
X12096826Y23135881D01*
X12111453Y23185056D01*
X12091050Y23232127D01*
X12070129Y23247644D01*
X11974891Y23295263D01*
X11970437Y23295776D01*
X11967002Y23298658D01*
X11941350Y23303181D01*
X11798493Y23303181D01*
X11796955Y23302622D01*
X11774775Y23299332D01*
X11631919Y23251713D01*
X11628408Y23248927D01*
X11623940Y23248536D01*
X11602603Y23233595D01*
X11507365Y23138357D01*
X11506674Y23136876D01*
X11493316Y23118865D01*
X11445697Y23023627D01*
X11445290Y23020099D01*
X11440018Y23008276D01*
X11392399Y22817800D01*
X11392759Y22814352D01*
X11390160Y22799610D01*
X11390160Y22656753D01*
X11247303Y22656753D01*
X11247303Y23446038D01*
X12302064Y23446038D01*
X12302064Y22010324D01*
G37*
D10*
X74945393Y4281731D02*
X75516821Y4281731D01*
X75231107Y3281731D02*
X75231107Y4281731D01*
X76421583Y3281731D02*
X76088250Y3757922D01*
X75850155Y3281731D02*
X75850155Y4281731D01*
X75850155Y4281731D02*
X76231107Y4281731D01*
X76231107Y4281731D02*
X76326345Y4234112D01*
X76326345Y4234112D02*
X76373964Y4186493D01*
X76373964Y4186493D02*
X76421583Y4091255D01*
X76421583Y4091255D02*
X76421583Y3948398D01*
X76421583Y3948398D02*
X76373964Y3853160D01*
X76373964Y3853160D02*
X76326345Y3805541D01*
X76326345Y3805541D02*
X76231107Y3757922D01*
X76231107Y3757922D02*
X75850155Y3757922D01*
X75097793Y42381731D02*
X75669221Y42381731D01*
X75383507Y41381731D02*
X75383507Y42381731D01*
X76478745Y41381731D02*
X76002555Y41381731D01*
X76002555Y41381731D02*
X76002555Y42381731D01*
D11*
G36*
X12302064Y60110324D02*
G01*
X11247303Y60110324D01*
X11247303Y60756753D01*
X11390160Y60756753D01*
X11391345Y60753496D01*
X11392399Y60738563D01*
X11440018Y60548087D01*
X11442006Y60545143D01*
X11445697Y60532736D01*
X11493316Y60437498D01*
X11494502Y60436375D01*
X11507365Y60418006D01*
X11602603Y60322767D01*
X11606667Y60320872D01*
X11609014Y60317052D01*
X11631919Y60304649D01*
X11774775Y60257030D01*
X11776410Y60257075D01*
X11798493Y60253181D01*
X11893731Y60253181D01*
X11895269Y60253742D01*
X11917448Y60257030D01*
X12060305Y60304649D01*
X12063816Y60307437D01*
X12068285Y60307827D01*
X12089622Y60322768D01*
X12137240Y60370387D01*
X12144158Y60385225D01*
X12154684Y60397768D01*
X12157527Y60413896D01*
X12158921Y60416884D01*
X12158398Y60418835D01*
X12159207Y60423420D01*
X12159207Y60756753D01*
X12152543Y60775062D01*
X12149159Y60794253D01*
X12143974Y60798604D01*
X12141660Y60804962D01*
X12124786Y60814705D01*
X12109859Y60827230D01*
X12100116Y60828948D01*
X12097231Y60830614D01*
X12093948Y60830036D01*
X12084207Y60831753D01*
X11893731Y60831753D01*
X11845522Y60814206D01*
X11819870Y60769777D01*
X11828779Y60719253D01*
X11868079Y60686276D01*
X11893731Y60681753D01*
X12009207Y60681753D01*
X12009207Y60454486D01*
X11996074Y60441353D01*
X11881561Y60403181D01*
X11810663Y60403181D01*
X11696150Y60441352D01*
X11622037Y60515466D01*
X11583543Y60592453D01*
X11540160Y60765987D01*
X11540160Y60890376D01*
X11583543Y61063910D01*
X11622037Y61140897D01*
X11696150Y61215010D01*
X11810663Y61253181D01*
X11923645Y61253181D01*
X12003047Y61213480D01*
X12054013Y61207615D01*
X12096826Y61235881D01*
X12111453Y61285056D01*
X12091050Y61332127D01*
X12070129Y61347644D01*
X11974891Y61395263D01*
X11970437Y61395776D01*
X11967002Y61398658D01*
X11941350Y61403181D01*
X11798493Y61403181D01*
X11796955Y61402622D01*
X11774775Y61399332D01*
X11631919Y61351713D01*
X11628408Y61348927D01*
X11623940Y61348536D01*
X11602603Y61333595D01*
X11507365Y61238357D01*
X11506674Y61236876D01*
X11493316Y61218865D01*
X11445697Y61123627D01*
X11445290Y61120099D01*
X11440018Y61108276D01*
X11392399Y60917800D01*
X11392759Y60914352D01*
X11390160Y60899610D01*
X11390160Y60756753D01*
X11247303Y60756753D01*
X11247303Y61546038D01*
X12302064Y61546038D01*
X12302064Y60110324D01*
G37*
G36*
X24314836Y94489010D02*
G01*
X24388949Y94414897D01*
X24427442Y94337910D01*
X24470826Y94164376D01*
X24470826Y94039987D01*
X24427442Y93866453D01*
X24388948Y93789466D01*
X24314836Y93715353D01*
X24200323Y93677181D01*
X24049398Y93677181D01*
X24049398Y94527181D01*
X24200323Y94527181D01*
X24314836Y94489010D01*
G37*
G36*
X24763683Y93384324D02*
G01*
X21661303Y93384324D01*
X21661303Y94030753D01*
X21804160Y94030753D01*
X21805345Y94027496D01*
X21806399Y94012563D01*
X21854018Y93822087D01*
X21856006Y93819143D01*
X21859697Y93806736D01*
X21907316Y93711498D01*
X21908502Y93710375D01*
X21921365Y93692006D01*
X22016603Y93596767D01*
X22020667Y93594872D01*
X22023014Y93591052D01*
X22045919Y93578649D01*
X22188775Y93531030D01*
X22190410Y93531075D01*
X22212493Y93527181D01*
X22307731Y93527181D01*
X22309269Y93527742D01*
X22331448Y93531030D01*
X22474305Y93578649D01*
X22477816Y93581437D01*
X22482285Y93581827D01*
X22503622Y93596768D01*
X22509035Y93602181D01*
X22851779Y93602181D01*
X22869326Y93553972D01*
X22913755Y93528320D01*
X22964279Y93537229D01*
X22997256Y93576529D01*
X23001779Y93602181D01*
X23001779Y94319765D01*
X23433089Y93564970D01*
X23438382Y93560489D01*
X23440754Y93553972D01*
X23457491Y93544309D01*
X23472242Y93531819D01*
X23479176Y93531789D01*
X23485183Y93528320D01*
X23504216Y93531677D01*
X23523544Y93531590D01*
X23528877Y93536025D01*
X23535707Y93537229D01*
X23548131Y93552036D01*
X23562991Y93564392D01*
X23564225Y93571216D01*
X23568684Y93576529D01*
X23573207Y93602181D01*
X23899398Y93602181D01*
X23906061Y93583873D01*
X23909446Y93564681D01*
X23914630Y93560331D01*
X23916945Y93553972D01*
X23933818Y93544230D01*
X23948746Y93531704D01*
X23958488Y93529987D01*
X23961374Y93528320D01*
X23964656Y93528899D01*
X23974398Y93527181D01*
X24212493Y93527181D01*
X24214031Y93527742D01*
X24236210Y93531030D01*
X24379067Y93578649D01*
X24382579Y93581437D01*
X24387046Y93581827D01*
X24408383Y93596767D01*
X24503622Y93692007D01*
X24504313Y93693490D01*
X24517670Y93711498D01*
X24565289Y93806736D01*
X24565695Y93810265D01*
X24570968Y93822087D01*
X24618587Y94012563D01*
X24618226Y94016012D01*
X24620826Y94030753D01*
X24620826Y94173610D01*
X24619640Y94176868D01*
X24618587Y94191800D01*
X24570968Y94382276D01*
X24568979Y94385221D01*
X24565289Y94397627D01*
X24517670Y94492865D01*
X24516483Y94493989D01*
X24503621Y94512357D01*
X24408383Y94607595D01*
X24404319Y94609490D01*
X24401972Y94613311D01*
X24379067Y94625713D01*
X24236210Y94673332D01*
X24234575Y94673288D01*
X24212493Y94677181D01*
X23974398Y94677181D01*
X23956089Y94670518D01*
X23936898Y94667133D01*
X23932547Y94661949D01*
X23926189Y94659634D01*
X23916446Y94642761D01*
X23903921Y94627833D01*
X23902203Y94618091D01*
X23900537Y94615205D01*
X23901115Y94611923D01*
X23899398Y94602181D01*
X23899398Y93602181D01*
X23573207Y93602181D01*
X23573207Y94602181D01*
X23555660Y94650390D01*
X23511231Y94676042D01*
X23460707Y94667133D01*
X23427730Y94627833D01*
X23423207Y94602181D01*
X23423207Y93884598D01*
X22991897Y94639391D01*
X22986604Y94643873D01*
X22984232Y94650390D01*
X22967492Y94660055D01*
X22952744Y94672543D01*
X22945809Y94672574D01*
X22939803Y94676042D01*
X22920769Y94672686D01*
X22901442Y94672772D01*
X22896108Y94668338D01*
X22889279Y94667133D01*
X22876854Y94652327D01*
X22861995Y94639970D01*
X22860760Y94633147D01*
X22856302Y94627833D01*
X22851779Y94602181D01*
X22851779Y93602181D01*
X22509035Y93602181D01*
X22551240Y93644387D01*
X22558158Y93659225D01*
X22568684Y93671768D01*
X22571527Y93687896D01*
X22572921Y93690884D01*
X22572398Y93692835D01*
X22573207Y93697420D01*
X22573207Y94030753D01*
X22566543Y94049062D01*
X22563159Y94068253D01*
X22557974Y94072604D01*
X22555660Y94078962D01*
X22538786Y94088705D01*
X22523859Y94101230D01*
X22514116Y94102948D01*
X22511231Y94104614D01*
X22507948Y94104036D01*
X22498207Y94105753D01*
X22307731Y94105753D01*
X22259522Y94088206D01*
X22233870Y94043777D01*
X22242779Y93993253D01*
X22282079Y93960276D01*
X22307731Y93955753D01*
X22423207Y93955753D01*
X22423207Y93728486D01*
X22410074Y93715353D01*
X22295561Y93677181D01*
X22224663Y93677181D01*
X22110150Y93715352D01*
X22036037Y93789466D01*
X21997543Y93866453D01*
X21954160Y94039987D01*
X21954160Y94164376D01*
X21997543Y94337910D01*
X22036037Y94414897D01*
X22110150Y94489010D01*
X22224663Y94527181D01*
X22337645Y94527181D01*
X22417047Y94487480D01*
X22468013Y94481615D01*
X22510826Y94509881D01*
X22525453Y94559056D01*
X22505050Y94606127D01*
X22484129Y94621644D01*
X22388891Y94669263D01*
X22384437Y94669776D01*
X22381002Y94672658D01*
X22355350Y94677181D01*
X22212493Y94677181D01*
X22210955Y94676622D01*
X22188775Y94673332D01*
X22045919Y94625713D01*
X22042408Y94622927D01*
X22037940Y94622536D01*
X22016603Y94607595D01*
X21921365Y94512357D01*
X21920674Y94510876D01*
X21907316Y94492865D01*
X21859697Y94397627D01*
X21859290Y94394099D01*
X21854018Y94382276D01*
X21806399Y94191800D01*
X21806759Y94188352D01*
X21804160Y94173610D01*
X21804160Y94030753D01*
X21661303Y94030753D01*
X21661303Y94820038D01*
X24763683Y94820038D01*
X24763683Y93384324D01*
G37*
D10*
X43223926Y60755522D02*
X43223926Y60279331D01*
X42890593Y61279331D02*
X43223926Y60755522D01*
X43223926Y60755522D02*
X43557259Y61279331D01*
D11*
X52978207Y13846181D02*
X52644874Y14322372D01*
X52406779Y13846181D02*
X52406779Y14846181D01*
X52406779Y14846181D02*
X52787731Y14846181D01*
X52787731Y14846181D02*
X52882969Y14798562D01*
X52882969Y14798562D02*
X52930588Y14750943D01*
X52930588Y14750943D02*
X52978207Y14655705D01*
X52978207Y14655705D02*
X52978207Y14512848D01*
X52978207Y14512848D02*
X52930588Y14417610D01*
X52930588Y14417610D02*
X52882969Y14369991D01*
X52882969Y14369991D02*
X52787731Y14322372D01*
X52787731Y14322372D02*
X52406779Y14322372D01*
X53787731Y13893800D02*
X53692493Y13846181D01*
X53692493Y13846181D02*
X53502017Y13846181D01*
X53502017Y13846181D02*
X53406779Y13893800D01*
X53406779Y13893800D02*
X53359160Y13989039D01*
X53359160Y13989039D02*
X53359160Y14369991D01*
X53359160Y14369991D02*
X53406779Y14465229D01*
X53406779Y14465229D02*
X53502017Y14512848D01*
X53502017Y14512848D02*
X53692493Y14512848D01*
X53692493Y14512848D02*
X53787731Y14465229D01*
X53787731Y14465229D02*
X53835350Y14369991D01*
X53835350Y14369991D02*
X53835350Y14274753D01*
X53835350Y14274753D02*
X53359160Y14179515D01*
X54168684Y14512848D02*
X54406779Y13846181D01*
X54406779Y13846181D02*
X54644874Y14512848D01*
X55025827Y13941420D02*
X55073446Y13893800D01*
X55073446Y13893800D02*
X55025827Y13846181D01*
X55025827Y13846181D02*
X54978208Y13893800D01*
X54978208Y13893800D02*
X55025827Y13941420D01*
X55025827Y13941420D02*
X55025827Y13846181D01*
X55454398Y14750943D02*
X55502017Y14798562D01*
X55502017Y14798562D02*
X55597255Y14846181D01*
X55597255Y14846181D02*
X55835350Y14846181D01*
X55835350Y14846181D02*
X55930588Y14798562D01*
X55930588Y14798562D02*
X55978207Y14750943D01*
X55978207Y14750943D02*
X56025826Y14655705D01*
X56025826Y14655705D02*
X56025826Y14560467D01*
X56025826Y14560467D02*
X55978207Y14417610D01*
X55978207Y14417610D02*
X55406779Y13846181D01*
X55406779Y13846181D02*
X56025826Y13846181D01*
G36*
X73069780Y100039124D02*
G01*
X72015019Y100039124D01*
X72015019Y100685553D01*
X72157876Y100685553D01*
X72159061Y100682296D01*
X72160115Y100667363D01*
X72207734Y100476887D01*
X72209722Y100473943D01*
X72213413Y100461536D01*
X72261032Y100366298D01*
X72262218Y100365175D01*
X72275081Y100346806D01*
X72370319Y100251567D01*
X72374383Y100249672D01*
X72376730Y100245852D01*
X72399635Y100233449D01*
X72542491Y100185830D01*
X72544126Y100185875D01*
X72566209Y100181981D01*
X72661447Y100181981D01*
X72662985Y100182542D01*
X72685164Y100185830D01*
X72828021Y100233449D01*
X72831532Y100236237D01*
X72836001Y100236627D01*
X72857338Y100251568D01*
X72904956Y100299187D01*
X72911874Y100314025D01*
X72922400Y100326568D01*
X72925243Y100342696D01*
X72926637Y100345684D01*
X72926114Y100347635D01*
X72926923Y100352220D01*
X72926923Y100685553D01*
X72920259Y100703862D01*
X72916875Y100723053D01*
X72911690Y100727404D01*
X72909376Y100733762D01*
X72892502Y100743505D01*
X72877575Y100756030D01*
X72867832Y100757748D01*
X72864947Y100759414D01*
X72861664Y100758836D01*
X72851923Y100760553D01*
X72661447Y100760553D01*
X72613238Y100743006D01*
X72587586Y100698577D01*
X72596495Y100648053D01*
X72635795Y100615076D01*
X72661447Y100610553D01*
X72776923Y100610553D01*
X72776923Y100383286D01*
X72763790Y100370153D01*
X72649277Y100331981D01*
X72578379Y100331981D01*
X72463866Y100370152D01*
X72389753Y100444266D01*
X72351259Y100521253D01*
X72307876Y100694787D01*
X72307876Y100819176D01*
X72351259Y100992710D01*
X72389753Y101069697D01*
X72463866Y101143810D01*
X72578379Y101181981D01*
X72691361Y101181981D01*
X72770763Y101142280D01*
X72821729Y101136415D01*
X72864542Y101164681D01*
X72879169Y101213856D01*
X72858766Y101260927D01*
X72837845Y101276444D01*
X72742607Y101324063D01*
X72738153Y101324576D01*
X72734718Y101327458D01*
X72709066Y101331981D01*
X72566209Y101331981D01*
X72564671Y101331422D01*
X72542491Y101328132D01*
X72399635Y101280513D01*
X72396124Y101277727D01*
X72391656Y101277336D01*
X72370319Y101262395D01*
X72275081Y101167157D01*
X72274390Y101165676D01*
X72261032Y101147665D01*
X72213413Y101052427D01*
X72213006Y101048899D01*
X72207734Y101037076D01*
X72160115Y100846600D01*
X72160475Y100843152D01*
X72157876Y100828410D01*
X72157876Y100685553D01*
X72015019Y100685553D01*
X72015019Y101474838D01*
X73069780Y101474838D01*
X73069780Y100039124D01*
G37*
G36*
X60001836Y94489010D02*
G01*
X60075949Y94414897D01*
X60114442Y94337910D01*
X60157826Y94164376D01*
X60157826Y94039987D01*
X60114442Y93866453D01*
X60075948Y93789466D01*
X60001836Y93715353D01*
X59887323Y93677181D01*
X59736398Y93677181D01*
X59736398Y94527181D01*
X59887323Y94527181D01*
X60001836Y94489010D01*
G37*
G36*
X60450683Y93384324D02*
G01*
X57348303Y93384324D01*
X57348303Y94030753D01*
X57491160Y94030753D01*
X57492345Y94027496D01*
X57493399Y94012563D01*
X57541018Y93822087D01*
X57543006Y93819143D01*
X57546697Y93806736D01*
X57594316Y93711498D01*
X57595502Y93710375D01*
X57608365Y93692006D01*
X57703603Y93596767D01*
X57707667Y93594872D01*
X57710014Y93591052D01*
X57732919Y93578649D01*
X57875775Y93531030D01*
X57877410Y93531075D01*
X57899493Y93527181D01*
X57994731Y93527181D01*
X57996269Y93527742D01*
X58018448Y93531030D01*
X58161305Y93578649D01*
X58164816Y93581437D01*
X58169285Y93581827D01*
X58190622Y93596768D01*
X58196035Y93602181D01*
X58538779Y93602181D01*
X58556326Y93553972D01*
X58600755Y93528320D01*
X58651279Y93537229D01*
X58684256Y93576529D01*
X58688779Y93602181D01*
X58688779Y94319765D01*
X59120089Y93564970D01*
X59125382Y93560489D01*
X59127754Y93553972D01*
X59144491Y93544309D01*
X59159242Y93531819D01*
X59166176Y93531789D01*
X59172183Y93528320D01*
X59191216Y93531677D01*
X59210544Y93531590D01*
X59215877Y93536025D01*
X59222707Y93537229D01*
X59235131Y93552036D01*
X59249991Y93564392D01*
X59251225Y93571216D01*
X59255684Y93576529D01*
X59260207Y93602181D01*
X59586398Y93602181D01*
X59593061Y93583873D01*
X59596446Y93564681D01*
X59601630Y93560331D01*
X59603945Y93553972D01*
X59620818Y93544230D01*
X59635746Y93531704D01*
X59645488Y93529987D01*
X59648374Y93528320D01*
X59651656Y93528899D01*
X59661398Y93527181D01*
X59899493Y93527181D01*
X59901031Y93527742D01*
X59923210Y93531030D01*
X60066067Y93578649D01*
X60069579Y93581437D01*
X60074046Y93581827D01*
X60095383Y93596767D01*
X60190622Y93692007D01*
X60191313Y93693490D01*
X60204670Y93711498D01*
X60252289Y93806736D01*
X60252695Y93810265D01*
X60257968Y93822087D01*
X60305587Y94012563D01*
X60305226Y94016012D01*
X60307826Y94030753D01*
X60307826Y94173610D01*
X60306640Y94176868D01*
X60305587Y94191800D01*
X60257968Y94382276D01*
X60255979Y94385221D01*
X60252289Y94397627D01*
X60204670Y94492865D01*
X60203483Y94493989D01*
X60190621Y94512357D01*
X60095383Y94607595D01*
X60091319Y94609490D01*
X60088972Y94613311D01*
X60066067Y94625713D01*
X59923210Y94673332D01*
X59921575Y94673288D01*
X59899493Y94677181D01*
X59661398Y94677181D01*
X59643089Y94670518D01*
X59623898Y94667133D01*
X59619547Y94661949D01*
X59613189Y94659634D01*
X59603446Y94642761D01*
X59590921Y94627833D01*
X59589203Y94618091D01*
X59587537Y94615205D01*
X59588115Y94611923D01*
X59586398Y94602181D01*
X59586398Y93602181D01*
X59260207Y93602181D01*
X59260207Y94602181D01*
X59242660Y94650390D01*
X59198231Y94676042D01*
X59147707Y94667133D01*
X59114730Y94627833D01*
X59110207Y94602181D01*
X59110207Y93884598D01*
X58678897Y94639391D01*
X58673604Y94643873D01*
X58671232Y94650390D01*
X58654492Y94660055D01*
X58639744Y94672543D01*
X58632809Y94672574D01*
X58626803Y94676042D01*
X58607769Y94672686D01*
X58588442Y94672772D01*
X58583108Y94668338D01*
X58576279Y94667133D01*
X58563854Y94652327D01*
X58548995Y94639970D01*
X58547760Y94633147D01*
X58543302Y94627833D01*
X58538779Y94602181D01*
X58538779Y93602181D01*
X58196035Y93602181D01*
X58238240Y93644387D01*
X58245158Y93659225D01*
X58255684Y93671768D01*
X58258527Y93687896D01*
X58259921Y93690884D01*
X58259398Y93692835D01*
X58260207Y93697420D01*
X58260207Y94030753D01*
X58253543Y94049062D01*
X58250159Y94068253D01*
X58244974Y94072604D01*
X58242660Y94078962D01*
X58225786Y94088705D01*
X58210859Y94101230D01*
X58201116Y94102948D01*
X58198231Y94104614D01*
X58194948Y94104036D01*
X58185207Y94105753D01*
X57994731Y94105753D01*
X57946522Y94088206D01*
X57920870Y94043777D01*
X57929779Y93993253D01*
X57969079Y93960276D01*
X57994731Y93955753D01*
X58110207Y93955753D01*
X58110207Y93728486D01*
X58097074Y93715353D01*
X57982561Y93677181D01*
X57911663Y93677181D01*
X57797150Y93715352D01*
X57723037Y93789466D01*
X57684543Y93866453D01*
X57641160Y94039987D01*
X57641160Y94164376D01*
X57684543Y94337910D01*
X57723037Y94414897D01*
X57797150Y94489010D01*
X57911663Y94527181D01*
X58024645Y94527181D01*
X58104047Y94487480D01*
X58155013Y94481615D01*
X58197826Y94509881D01*
X58212453Y94559056D01*
X58192050Y94606127D01*
X58171129Y94621644D01*
X58075891Y94669263D01*
X58071437Y94669776D01*
X58068002Y94672658D01*
X58042350Y94677181D01*
X57899493Y94677181D01*
X57897955Y94676622D01*
X57875775Y94673332D01*
X57732919Y94625713D01*
X57729408Y94622927D01*
X57724940Y94622536D01*
X57703603Y94607595D01*
X57608365Y94512357D01*
X57607674Y94510876D01*
X57594316Y94492865D01*
X57546697Y94397627D01*
X57546290Y94394099D01*
X57541018Y94382276D01*
X57493399Y94191800D01*
X57493759Y94188352D01*
X57491160Y94173610D01*
X57491160Y94030753D01*
X57348303Y94030753D01*
X57348303Y94820038D01*
X60450683Y94820038D01*
X60450683Y93384324D01*
G37*
D10*
X5038231Y22414246D02*
X5514421Y22414246D01*
X4942993Y22128531D02*
X5276326Y23128531D01*
X5276326Y23128531D02*
X5609659Y22128531D01*
D11*
G36*
X55706601Y9308020D02*
G01*
X55555676Y9308020D01*
X55441163Y9346191D01*
X55367050Y9420304D01*
X55328556Y9497291D01*
X55285173Y9670825D01*
X55285173Y9795214D01*
X55328556Y9968748D01*
X55367050Y10045735D01*
X55441162Y10119848D01*
X55555677Y10158020D01*
X55706601Y10158020D01*
X55706601Y9308020D01*
G37*
G36*
X58094696Y9015163D02*
G01*
X54992316Y9015163D01*
X54992316Y9661591D01*
X55135173Y9661591D01*
X55136358Y9658334D01*
X55137412Y9643401D01*
X55185031Y9452925D01*
X55187019Y9449981D01*
X55190710Y9437574D01*
X55238329Y9342336D01*
X55239518Y9341211D01*
X55252378Y9322844D01*
X55347616Y9227606D01*
X55351680Y9225711D01*
X55354027Y9221891D01*
X55376932Y9209488D01*
X55519788Y9161869D01*
X55521423Y9161914D01*
X55543506Y9158020D01*
X55781601Y9158020D01*
X55799909Y9164684D01*
X55819101Y9168068D01*
X55823451Y9173253D01*
X55829810Y9175567D01*
X55839552Y9192441D01*
X55852078Y9207368D01*
X55853795Y9217111D01*
X55855462Y9219996D01*
X55854883Y9223279D01*
X55856601Y9233020D01*
X56182792Y9233020D01*
X56200339Y9184811D01*
X56244768Y9159159D01*
X56295292Y9168068D01*
X56328269Y9207368D01*
X56332792Y9233020D01*
X56332792Y9950604D01*
X56764102Y9195809D01*
X56769395Y9191328D01*
X56771767Y9184811D01*
X56788504Y9175148D01*
X56803255Y9162658D01*
X56810189Y9162628D01*
X56816196Y9159159D01*
X56835229Y9162516D01*
X56854557Y9162429D01*
X56859890Y9166864D01*
X56866720Y9168068D01*
X56879144Y9182875D01*
X56894004Y9195231D01*
X56895238Y9202055D01*
X56899697Y9207368D01*
X56904220Y9233020D01*
X56904220Y9804448D01*
X57182792Y9804448D01*
X57189455Y9786140D01*
X57192840Y9766948D01*
X57198024Y9762598D01*
X57200339Y9756239D01*
X57217212Y9746497D01*
X57232140Y9733971D01*
X57241882Y9732254D01*
X57244768Y9730587D01*
X57248050Y9731166D01*
X57257792Y9729448D01*
X57448268Y9729448D01*
X57496477Y9746995D01*
X57522129Y9791424D01*
X57513220Y9841948D01*
X57473920Y9874925D01*
X57448268Y9879448D01*
X57332792Y9879448D01*
X57332792Y10106715D01*
X57345924Y10119848D01*
X57460439Y10158020D01*
X57531335Y10158020D01*
X57645848Y10119849D01*
X57719962Y10045735D01*
X57758455Y9968748D01*
X57801839Y9795214D01*
X57801839Y9670825D01*
X57758455Y9497291D01*
X57719962Y9420304D01*
X57645849Y9346192D01*
X57531336Y9308020D01*
X57418354Y9308020D01*
X57338952Y9347721D01*
X57287985Y9353586D01*
X57245172Y9325320D01*
X57230546Y9276145D01*
X57250949Y9229074D01*
X57271870Y9213557D01*
X57367108Y9165938D01*
X57371561Y9165426D01*
X57374997Y9162543D01*
X57400649Y9158020D01*
X57543506Y9158020D01*
X57545044Y9158581D01*
X57567223Y9161869D01*
X57710080Y9209488D01*
X57713592Y9212276D01*
X57718059Y9212666D01*
X57739396Y9227606D01*
X57834634Y9322844D01*
X57835324Y9324326D01*
X57848683Y9342336D01*
X57896302Y9437574D01*
X57896708Y9441103D01*
X57901981Y9452925D01*
X57949600Y9643401D01*
X57949239Y9646850D01*
X57951839Y9661591D01*
X57951839Y9804448D01*
X57950653Y9807706D01*
X57949600Y9822638D01*
X57901981Y10013114D01*
X57899992Y10016059D01*
X57896302Y10028465D01*
X57848683Y10123703D01*
X57847496Y10124827D01*
X57834634Y10143195D01*
X57739396Y10238433D01*
X57735333Y10240328D01*
X57732986Y10244148D01*
X57710081Y10256551D01*
X57567224Y10304171D01*
X57565588Y10304127D01*
X57543506Y10308020D01*
X57448268Y10308020D01*
X57446729Y10307460D01*
X57424551Y10304171D01*
X57281693Y10256551D01*
X57278180Y10253764D01*
X57273715Y10253373D01*
X57252378Y10238433D01*
X57204759Y10190814D01*
X57197840Y10175977D01*
X57187315Y10163433D01*
X57184471Y10147306D01*
X57183078Y10144317D01*
X57183600Y10142367D01*
X57182792Y10137781D01*
X57182792Y9804448D01*
X56904220Y9804448D01*
X56904220Y10233020D01*
X56886673Y10281229D01*
X56842244Y10306881D01*
X56791720Y10297972D01*
X56758743Y10258672D01*
X56754220Y10233020D01*
X56754220Y9515437D01*
X56322910Y10270230D01*
X56317617Y10274712D01*
X56315245Y10281229D01*
X56298505Y10290894D01*
X56283757Y10303382D01*
X56276822Y10303413D01*
X56270816Y10306881D01*
X56251782Y10303525D01*
X56232455Y10303611D01*
X56227121Y10299177D01*
X56220292Y10297972D01*
X56207867Y10283166D01*
X56193008Y10270809D01*
X56191773Y10263986D01*
X56187315Y10258672D01*
X56182792Y10233020D01*
X56182792Y9233020D01*
X55856601Y9233020D01*
X55856601Y10233020D01*
X55849937Y10251329D01*
X55846553Y10270520D01*
X55841368Y10274871D01*
X55839054Y10281229D01*
X55822180Y10290972D01*
X55807253Y10303497D01*
X55797510Y10305215D01*
X55794625Y10306881D01*
X55791342Y10306303D01*
X55781601Y10308020D01*
X55543506Y10308020D01*
X55541967Y10307460D01*
X55519789Y10304171D01*
X55376931Y10256551D01*
X55373420Y10253765D01*
X55368953Y10253374D01*
X55347616Y10238433D01*
X55252378Y10143195D01*
X55251687Y10141714D01*
X55238329Y10123703D01*
X55190710Y10028465D01*
X55190303Y10024937D01*
X55185031Y10013114D01*
X55137412Y9822638D01*
X55137772Y9819190D01*
X55135173Y9804448D01*
X55135173Y9661591D01*
X54992316Y9661591D01*
X54992316Y10450877D01*
X58094696Y10450877D01*
X58094696Y9015163D01*
G37*
G36*
X50275064Y60110324D02*
G01*
X49220303Y60110324D01*
X49220303Y60756753D01*
X49363160Y60756753D01*
X49364345Y60753496D01*
X49365399Y60738563D01*
X49413018Y60548087D01*
X49415006Y60545143D01*
X49418697Y60532736D01*
X49466316Y60437498D01*
X49467502Y60436375D01*
X49480365Y60418006D01*
X49575603Y60322767D01*
X49579667Y60320872D01*
X49582014Y60317052D01*
X49604919Y60304649D01*
X49747775Y60257030D01*
X49749410Y60257075D01*
X49771493Y60253181D01*
X49866731Y60253181D01*
X49868269Y60253742D01*
X49890448Y60257030D01*
X50033305Y60304649D01*
X50036816Y60307437D01*
X50041285Y60307827D01*
X50062622Y60322768D01*
X50110240Y60370387D01*
X50117158Y60385225D01*
X50127684Y60397768D01*
X50130527Y60413896D01*
X50131921Y60416884D01*
X50131398Y60418835D01*
X50132207Y60423420D01*
X50132207Y60756753D01*
X50125543Y60775062D01*
X50122159Y60794253D01*
X50116974Y60798604D01*
X50114660Y60804962D01*
X50097786Y60814705D01*
X50082859Y60827230D01*
X50073116Y60828948D01*
X50070231Y60830614D01*
X50066948Y60830036D01*
X50057207Y60831753D01*
X49866731Y60831753D01*
X49818522Y60814206D01*
X49792870Y60769777D01*
X49801779Y60719253D01*
X49841079Y60686276D01*
X49866731Y60681753D01*
X49982207Y60681753D01*
X49982207Y60454486D01*
X49969074Y60441353D01*
X49854561Y60403181D01*
X49783663Y60403181D01*
X49669150Y60441352D01*
X49595037Y60515466D01*
X49556543Y60592453D01*
X49513160Y60765987D01*
X49513160Y60890376D01*
X49556543Y61063910D01*
X49595037Y61140897D01*
X49669150Y61215010D01*
X49783663Y61253181D01*
X49896645Y61253181D01*
X49976047Y61213480D01*
X50027013Y61207615D01*
X50069826Y61235881D01*
X50084453Y61285056D01*
X50064050Y61332127D01*
X50043129Y61347644D01*
X49947891Y61395263D01*
X49943437Y61395776D01*
X49940002Y61398658D01*
X49914350Y61403181D01*
X49771493Y61403181D01*
X49769955Y61402622D01*
X49747775Y61399332D01*
X49604919Y61351713D01*
X49601408Y61348927D01*
X49596940Y61348536D01*
X49575603Y61333595D01*
X49480365Y61238357D01*
X49479674Y61236876D01*
X49466316Y61218865D01*
X49418697Y61123627D01*
X49418290Y61120099D01*
X49413018Y61108276D01*
X49365399Y60917800D01*
X49365759Y60914352D01*
X49363160Y60899610D01*
X49363160Y60756753D01*
X49220303Y60756753D01*
X49220303Y61546038D01*
X50275064Y61546038D01*
X50275064Y60110324D01*
G37*
D10*
X4889012Y61279331D02*
X5555678Y60279331D01*
X5555678Y61279331D02*
X4889012Y60279331D01*
D11*
G36*
X50275064Y22137324D02*
G01*
X49220303Y22137324D01*
X49220303Y22783753D01*
X49363160Y22783753D01*
X49364345Y22780496D01*
X49365399Y22765563D01*
X49413018Y22575087D01*
X49415006Y22572143D01*
X49418697Y22559736D01*
X49466316Y22464498D01*
X49467502Y22463375D01*
X49480365Y22445006D01*
X49575603Y22349767D01*
X49579667Y22347872D01*
X49582014Y22344052D01*
X49604919Y22331649D01*
X49747775Y22284030D01*
X49749410Y22284075D01*
X49771493Y22280181D01*
X49866731Y22280181D01*
X49868269Y22280742D01*
X49890448Y22284030D01*
X50033305Y22331649D01*
X50036816Y22334437D01*
X50041285Y22334827D01*
X50062622Y22349768D01*
X50110240Y22397387D01*
X50117158Y22412225D01*
X50127684Y22424768D01*
X50130527Y22440896D01*
X50131921Y22443884D01*
X50131398Y22445835D01*
X50132207Y22450420D01*
X50132207Y22783753D01*
X50125543Y22802062D01*
X50122159Y22821253D01*
X50116974Y22825604D01*
X50114660Y22831962D01*
X50097786Y22841705D01*
X50082859Y22854230D01*
X50073116Y22855948D01*
X50070231Y22857614D01*
X50066948Y22857036D01*
X50057207Y22858753D01*
X49866731Y22858753D01*
X49818522Y22841206D01*
X49792870Y22796777D01*
X49801779Y22746253D01*
X49841079Y22713276D01*
X49866731Y22708753D01*
X49982207Y22708753D01*
X49982207Y22481486D01*
X49969074Y22468353D01*
X49854561Y22430181D01*
X49783663Y22430181D01*
X49669150Y22468352D01*
X49595037Y22542466D01*
X49556543Y22619453D01*
X49513160Y22792987D01*
X49513160Y22917376D01*
X49556543Y23090910D01*
X49595037Y23167897D01*
X49669150Y23242010D01*
X49783663Y23280181D01*
X49896645Y23280181D01*
X49976047Y23240480D01*
X50027013Y23234615D01*
X50069826Y23262881D01*
X50084453Y23312056D01*
X50064050Y23359127D01*
X50043129Y23374644D01*
X49947891Y23422263D01*
X49943437Y23422776D01*
X49940002Y23425658D01*
X49914350Y23430181D01*
X49771493Y23430181D01*
X49769955Y23429622D01*
X49747775Y23426332D01*
X49604919Y23378713D01*
X49601408Y23375927D01*
X49596940Y23375536D01*
X49575603Y23360595D01*
X49480365Y23265357D01*
X49479674Y23263876D01*
X49466316Y23245865D01*
X49418697Y23150627D01*
X49418290Y23147099D01*
X49413018Y23135276D01*
X49365399Y22944800D01*
X49365759Y22941352D01*
X49363160Y22926610D01*
X49363160Y22783753D01*
X49220303Y22783753D01*
X49220303Y23573038D01*
X50275064Y23573038D01*
X50275064Y22137324D01*
G37*
G36*
X110695037Y31893936D02*
G01*
X109259323Y31893936D01*
X109259323Y32302269D01*
X109402180Y32302269D01*
X109402739Y32300732D01*
X109406029Y32278551D01*
X109453649Y32135694D01*
X109456436Y32132182D01*
X109456827Y32127716D01*
X109471767Y32106379D01*
X109519386Y32058760D01*
X109534223Y32051842D01*
X109546767Y32041316D01*
X109562893Y32038473D01*
X109565882Y32037079D01*
X109567832Y32037602D01*
X109572419Y32036793D01*
X109905752Y32036793D01*
X109924060Y32043457D01*
X109943252Y32046841D01*
X109947602Y32052026D01*
X109953961Y32054340D01*
X109963703Y32071214D01*
X109976229Y32086141D01*
X109977946Y32095884D01*
X109979613Y32098769D01*
X109979034Y32102052D01*
X109980752Y32111793D01*
X109980752Y32302269D01*
X109963205Y32350478D01*
X109918776Y32376130D01*
X109868252Y32367221D01*
X109835275Y32327921D01*
X109830752Y32302269D01*
X109830752Y32186793D01*
X109603485Y32186793D01*
X109590351Y32199927D01*
X109552180Y32314441D01*
X109552180Y32385336D01*
X109590351Y32499850D01*
X109664465Y32573963D01*
X109741452Y32612457D01*
X109914986Y32655840D01*
X110039375Y32655840D01*
X110212909Y32612457D01*
X110289896Y32573963D01*
X110364009Y32499850D01*
X110402180Y32385337D01*
X110402180Y32272355D01*
X110362479Y32192953D01*
X110356614Y32141986D01*
X110384880Y32099173D01*
X110434055Y32084547D01*
X110481126Y32104950D01*
X110496643Y32125871D01*
X110544262Y32221109D01*
X110544774Y32225563D01*
X110547657Y32228998D01*
X110552180Y32254650D01*
X110552180Y32397507D01*
X110551620Y32399045D01*
X110548331Y32421225D01*
X110500712Y32564081D01*
X110497925Y32567592D01*
X110497535Y32572060D01*
X110482594Y32593397D01*
X110387356Y32688635D01*
X110385874Y32689326D01*
X110367864Y32702684D01*
X110272626Y32750303D01*
X110269097Y32750710D01*
X110257275Y32755982D01*
X110066799Y32803601D01*
X110063350Y32803241D01*
X110048609Y32805840D01*
X109905752Y32805840D01*
X109902494Y32804655D01*
X109887562Y32803601D01*
X109697086Y32755982D01*
X109694141Y32753994D01*
X109681735Y32750303D01*
X109586497Y32702684D01*
X109585373Y32701498D01*
X109567005Y32688635D01*
X109471767Y32593397D01*
X109469872Y32589335D01*
X109466052Y32586987D01*
X109453649Y32564082D01*
X109406029Y32421225D01*
X109406073Y32419590D01*
X109402180Y32397507D01*
X109402180Y32302269D01*
X109259323Y32302269D01*
X109259323Y32948697D01*
X110695037Y32948697D01*
X110695037Y31893936D01*
G37*
D13*
%TO.C,J15*%
X75819000Y99568000D02*
X73219000Y99568000D01*
X74549000Y96968000D02*
X73219000Y96968000D01*
X73219000Y102168000D02*
X83499000Y102168000D01*
X83499000Y96968000D02*
X83499000Y102168000D01*
X75819000Y96968000D02*
X83499000Y96968000D01*
X75819000Y96968000D02*
X75819000Y99568000D01*
X73219000Y96968000D02*
X73219000Y98298000D01*
X73219000Y99568000D02*
X73219000Y102168000D01*
%TO.C,J14*%
X9846000Y99695000D02*
X9846000Y102295000D01*
X9846000Y97095000D02*
X9846000Y98425000D01*
X12446000Y97095000D02*
X12446000Y99695000D01*
X12446000Y97095000D02*
X20126000Y97095000D01*
X20126000Y97095000D02*
X20126000Y102295000D01*
X9846000Y102295000D02*
X20126000Y102295000D01*
X11176000Y97095000D02*
X9846000Y97095000D01*
X12446000Y99695000D02*
X9846000Y99695000D01*
%TO.C,J7*%
X116011000Y43875000D02*
X116011000Y31055000D01*
X110811000Y31055000D02*
X116011000Y31055000D01*
X113411000Y41275000D02*
X113411000Y43875000D01*
X110811000Y43875000D02*
X112141000Y43875000D01*
X110811000Y41275000D02*
X113411000Y41275000D01*
X113411000Y43875000D02*
X116011000Y43875000D01*
X110811000Y41275000D02*
X110811000Y31055000D01*
X110811000Y42545000D02*
X110811000Y43875000D01*
%TO.C,J4*%
X19625000Y6163000D02*
X19625000Y7493000D01*
X20955000Y6163000D02*
X19625000Y6163000D01*
X22225000Y6163000D02*
X57845000Y6163000D01*
X22225000Y6163000D02*
X22225000Y8823000D01*
X57845000Y6163000D02*
X57845000Y8823000D01*
X22225000Y8823000D02*
X57845000Y8823000D01*
%TO.C,J12*%
X76648000Y40580000D02*
X76648000Y41910000D01*
X77978000Y40580000D02*
X76648000Y40580000D01*
X79248000Y40580000D02*
X81848000Y40580000D01*
X79248000Y40580000D02*
X79248000Y43240000D01*
X81848000Y40580000D02*
X81848000Y43240000D01*
X79248000Y43240000D02*
X81848000Y43240000D01*
%TO.C,J3*%
X60131000Y97596000D02*
X60131000Y96266000D01*
X58801000Y97596000D02*
X60131000Y97596000D01*
X57531000Y97596000D02*
X21911000Y97596000D01*
X57531000Y97596000D02*
X57531000Y94936000D01*
X21911000Y97596000D02*
X21911000Y94936000D01*
X57531000Y94936000D02*
X21911000Y94936000D01*
%TO.C,J10*%
X5782000Y59503000D02*
X5782000Y60833000D01*
X7112000Y59503000D02*
X5782000Y59503000D01*
X8382000Y59503000D02*
X10982000Y59503000D01*
X8382000Y59503000D02*
X8382000Y62163000D01*
X10982000Y59503000D02*
X10982000Y62163000D01*
X8382000Y62163000D02*
X10982000Y62163000D01*
%TO.C,J8*%
X5782000Y21403000D02*
X5782000Y22733000D01*
X7112000Y21403000D02*
X5782000Y21403000D01*
X8382000Y21403000D02*
X10982000Y21403000D01*
X8382000Y21403000D02*
X8382000Y24063000D01*
X10982000Y21403000D02*
X10982000Y24063000D01*
X8382000Y24063000D02*
X10982000Y24063000D01*
%TO.C,J11*%
X43755000Y59503000D02*
X43755000Y60833000D01*
X45085000Y59503000D02*
X43755000Y59503000D01*
X46355000Y59503000D02*
X48955000Y59503000D01*
X46355000Y59503000D02*
X46355000Y62163000D01*
X48955000Y59503000D02*
X48955000Y62163000D01*
X46355000Y62163000D02*
X48955000Y62163000D01*
%TO.C,J2*%
X28125000Y1142400D02*
X28125000Y2142400D01*
X28125000Y1142400D02*
X29125000Y1142400D01*
X28415000Y4852400D02*
X28415000Y1432400D01*
X28415000Y1432400D02*
X49135000Y1432400D01*
X28725000Y3492400D02*
X28925000Y3492400D01*
X28725000Y2692400D02*
X28725000Y3492400D01*
X28925000Y4342400D02*
X38775000Y4342400D01*
X28925000Y3492400D02*
X28925000Y4342400D01*
X28925000Y2692400D02*
X28725000Y2692400D01*
X28925000Y1942400D02*
X28925000Y2692400D01*
X38775000Y1942400D02*
X28925000Y1942400D01*
X38775000Y1942400D02*
X48625000Y1942400D01*
X48625000Y4342400D02*
X38775000Y4342400D01*
X48625000Y3492400D02*
X48625000Y4342400D01*
X48625000Y2692400D02*
X48825000Y2692400D01*
X48625000Y1942400D02*
X48625000Y2692400D01*
X48825000Y3492400D02*
X48625000Y3492400D01*
X48825000Y2692400D02*
X48825000Y3492400D01*
X49135000Y4852400D02*
X28415000Y4852400D01*
X49135000Y1432400D02*
X49135000Y4852400D01*
%TO.C,J1*%
X51684000Y102642000D02*
X51684000Y101642000D01*
X51684000Y102642000D02*
X50684000Y102642000D01*
X51394000Y98932000D02*
X51394000Y102352000D01*
X51394000Y102352000D02*
X30674000Y102352000D01*
X51084000Y100292000D02*
X50884000Y100292000D01*
X51084000Y101092000D02*
X51084000Y100292000D01*
X50884000Y99442000D02*
X41034000Y99442000D01*
X50884000Y100292000D02*
X50884000Y99442000D01*
X50884000Y101092000D02*
X51084000Y101092000D01*
X50884000Y101842000D02*
X50884000Y101092000D01*
X41034000Y101842000D02*
X50884000Y101842000D01*
X41034000Y101842000D02*
X31184000Y101842000D01*
X31184000Y99442000D02*
X41034000Y99442000D01*
X31184000Y100292000D02*
X31184000Y99442000D01*
X31184000Y101092000D02*
X30984000Y101092000D01*
X31184000Y101842000D02*
X31184000Y101092000D01*
X30984000Y100292000D02*
X31184000Y100292000D01*
X30984000Y101092000D02*
X30984000Y100292000D01*
X30674000Y98932000D02*
X51394000Y98932000D01*
X30674000Y102352000D02*
X30674000Y98932000D01*
%TO.C,J13*%
X76648000Y2480000D02*
X76648000Y3810000D01*
X77978000Y2480000D02*
X76648000Y2480000D01*
X79248000Y2480000D02*
X81848000Y2480000D01*
X79248000Y2480000D02*
X79248000Y5140000D01*
X81848000Y2480000D02*
X81848000Y5140000D01*
X79248000Y5140000D02*
X81848000Y5140000D01*
%TO.C,J9*%
X43755000Y21530000D02*
X43755000Y22860000D01*
X45085000Y21530000D02*
X43755000Y21530000D01*
X46355000Y21530000D02*
X48955000Y21530000D01*
X46355000Y21530000D02*
X46355000Y24190000D01*
X48955000Y21530000D02*
X48955000Y24190000D01*
X46355000Y24190000D02*
X48955000Y24190000D01*
%TD*%
%LPC*%
D14*
%TO.C,J15*%
X74549000Y98298000D03*
D15*
X74549000Y100838000D03*
X77089000Y98298000D03*
X77089000Y100838000D03*
X79629000Y98298000D03*
X79629000Y100838000D03*
X82169000Y98298000D03*
X82169000Y100838000D03*
%TD*%
%TO.C,J14*%
X18796000Y100965000D03*
X18796000Y98425000D03*
X16256000Y100965000D03*
X16256000Y98425000D03*
X13716000Y100965000D03*
X13716000Y98425000D03*
X11176000Y100965000D03*
D14*
X11176000Y98425000D03*
%TD*%
D15*
%TO.C,J7*%
X114681000Y32385000D03*
X112141000Y32385000D03*
X114681000Y34925000D03*
X112141000Y34925000D03*
X114681000Y37465000D03*
X112141000Y37465000D03*
X114681000Y40005000D03*
X112141000Y40005000D03*
X114681000Y42545000D03*
D14*
X112141000Y42545000D03*
%TD*%
%TO.C,J4*%
X20955000Y7493000D03*
D15*
X23495000Y7493000D03*
X26035000Y7493000D03*
X28575000Y7493000D03*
X31115000Y7493000D03*
X33655000Y7493000D03*
X36195000Y7493000D03*
X38735000Y7493000D03*
X41275000Y7493000D03*
X43815000Y7493000D03*
X46355000Y7493000D03*
X48895000Y7493000D03*
X51435000Y7493000D03*
X53975000Y7493000D03*
X56515000Y7493000D03*
%TD*%
D14*
%TO.C,J12*%
X77978000Y41910000D03*
D15*
X80518000Y41910000D03*
%TD*%
D14*
%TO.C,J3*%
X58801000Y96266000D03*
D15*
X56261000Y96266000D03*
X53721000Y96266000D03*
X51181000Y96266000D03*
X48641000Y96266000D03*
X46101000Y96266000D03*
X43561000Y96266000D03*
X41021000Y96266000D03*
X38481000Y96266000D03*
X35941000Y96266000D03*
X33401000Y96266000D03*
X30861000Y96266000D03*
X28321000Y96266000D03*
X25781000Y96266000D03*
X23241000Y96266000D03*
%TD*%
D14*
%TO.C,J10*%
X7112000Y60833000D03*
D15*
X9652000Y60833000D03*
%TD*%
D14*
%TO.C,J8*%
X7112000Y22733000D03*
D15*
X9652000Y22733000D03*
%TD*%
D14*
%TO.C,J11*%
X45085000Y60833000D03*
D15*
X47625000Y60833000D03*
%TD*%
D16*
%TO.C,J2*%
X30025000Y2692400D03*
D17*
X31275000Y2692400D03*
X32525000Y2692400D03*
X33775000Y2692400D03*
X35025000Y2692400D03*
X36275000Y2692400D03*
X37525000Y2692400D03*
X38775000Y2692400D03*
X40025000Y2692400D03*
X41275000Y2692400D03*
X42525000Y2692400D03*
X43775000Y2692400D03*
X45025000Y2692400D03*
X46275000Y2692400D03*
X47525000Y2692400D03*
%TD*%
D18*
%TO.C,J1*%
X49784000Y101092000D03*
D17*
X48534000Y101092000D03*
X47284000Y101092000D03*
X46034000Y101092000D03*
X44784000Y101092000D03*
X43534000Y101092000D03*
X42284000Y101092000D03*
X41034000Y101092000D03*
X39784000Y101092000D03*
X38534000Y101092000D03*
X37284000Y101092000D03*
X36034000Y101092000D03*
X34784000Y101092000D03*
X33534000Y101092000D03*
X32284000Y101092000D03*
%TD*%
D14*
%TO.C,J13*%
X77978000Y3810000D03*
D15*
X80518000Y3810000D03*
%TD*%
D14*
%TO.C,J9*%
X45085000Y22860000D03*
D15*
X47625000Y22860000D03*
%TD*%
%LPD*%
M02*
