%TF.GenerationSoftware,KiCad,Pcbnew,7.0.9*%
%TF.CreationDate,2023-12-22T18:19:35+09:00*%
%TF.ProjectId,arcade_input_panel_support,61726361-6465-45f6-996e-7075745f7061,2*%
%TF.SameCoordinates,PX2246a88PY7fa82d0*%
%TF.FileFunction,Copper,L1,Top*%
%TF.FilePolarity,Positive*%
%FSLAX46Y46*%
G04 Gerber Fmt 4.6, Leading zero omitted, Abs format (unit mm)*
G04 Created by KiCad (PCBNEW 7.0.9) date 2023-12-22 18:19:35*
%MOMM*%
%LPD*%
G01*
G04 APERTURE LIST*
G04 Aperture macros list*
%AMRoundRect*
0 Rectangle with rounded corners*
0 $1 Rounding radius*
0 $2 $3 $4 $5 $6 $7 $8 $9 X,Y pos of 4 corners*
0 Add a 4 corners polygon primitive as box body*
4,1,4,$2,$3,$4,$5,$6,$7,$8,$9,$2,$3,0*
0 Add four circle primitives for the rounded corners*
1,1,$1+$1,$2,$3*
1,1,$1+$1,$4,$5*
1,1,$1+$1,$6,$7*
1,1,$1+$1,$8,$9*
0 Add four rect primitives between the rounded corners*
20,1,$1+$1,$2,$3,$4,$5,0*
20,1,$1+$1,$4,$5,$6,$7,0*
20,1,$1+$1,$6,$7,$8,$9,0*
20,1,$1+$1,$8,$9,$2,$3,0*%
G04 Aperture macros list end*
%TA.AperFunction,ComponentPad*%
%ADD10O,1.700000X1.700000*%
%TD*%
%TA.AperFunction,ComponentPad*%
%ADD11R,1.700000X1.700000*%
%TD*%
%TA.AperFunction,ComponentPad*%
%ADD12RoundRect,0.200000X-0.200000X-0.450000X0.200000X-0.450000X0.200000X0.450000X-0.200000X0.450000X0*%
%TD*%
%TA.AperFunction,ComponentPad*%
%ADD13O,0.800000X1.300000*%
%TD*%
%TA.AperFunction,ComponentPad*%
%ADD14RoundRect,0.200000X0.200000X0.450000X-0.200000X0.450000X-0.200000X-0.450000X0.200000X-0.450000X0*%
%TD*%
%TA.AperFunction,ViaPad*%
%ADD15C,0.800000*%
%TD*%
%TA.AperFunction,Conductor*%
%ADD16C,0.250000*%
%TD*%
G04 APERTURE END LIST*
D10*
%TO.P,J15,4,Pin_4*%
%TO.N,GND*%
X18796000Y100965000D03*
%TO.P,J15,3,Pin_3*%
%TO.N,/HOTKEY*%
X16256000Y100965000D03*
%TO.P,J15,2,Pin_2*%
%TO.N,/SELECT*%
X13716000Y100965000D03*
D11*
%TO.P,J15,1,Pin_1*%
%TO.N,/START*%
X11176000Y100965000D03*
%TD*%
%TO.P,J4,1,Pin_1*%
%TO.N,GND*%
X20955000Y7112000D03*
D10*
%TO.P,J4,2,Pin_2*%
%TO.N,/UP*%
X23495000Y7112000D03*
%TO.P,J4,3,Pin_3*%
%TO.N,/DOWN*%
X26035000Y7112000D03*
%TO.P,J4,4,Pin_4*%
%TO.N,/LEFT*%
X28575000Y7112000D03*
%TO.P,J4,5,Pin_5*%
%TO.N,/RIGHT*%
X31115000Y7112000D03*
%TO.P,J4,6,Pin_6*%
%TO.N,/START*%
X33655000Y7112000D03*
%TO.P,J4,7,Pin_7*%
%TO.N,/SELECT*%
X36195000Y7112000D03*
%TO.P,J4,8,Pin_8*%
%TO.N,/A*%
X38735000Y7112000D03*
%TO.P,J4,9,Pin_9*%
%TO.N,/B*%
X41275000Y7112000D03*
%TO.P,J4,10,Pin_10*%
%TO.N,/X*%
X43815000Y7112000D03*
%TO.P,J4,11,Pin_11*%
%TO.N,/Y*%
X46355000Y7112000D03*
%TO.P,J4,12,Pin_12*%
%TO.N,/TL*%
X48895000Y7112000D03*
%TO.P,J4,13,Pin_13*%
%TO.N,/TR*%
X51435000Y7112000D03*
%TO.P,J4,14,Pin_14*%
%TO.N,/HOTKEY*%
X53975000Y7112000D03*
%TO.P,J4,15,Pin_15*%
%TO.N,GND*%
X56515000Y7112000D03*
%TD*%
D11*
%TO.P,J12,1,Pin_1*%
%TO.N,/TL*%
X78105000Y42037000D03*
D10*
%TO.P,J12,2,Pin_2*%
%TO.N,GND*%
X80645000Y42037000D03*
%TD*%
D11*
%TO.P,J14,1,Pin_1*%
%TO.N,/HOTKEY*%
X75565000Y95885000D03*
D10*
%TO.P,J14,2,Pin_2*%
%TO.N,GND*%
X78105000Y95885000D03*
%TD*%
D11*
%TO.P,J3,1,Pin_1*%
%TO.N,GND*%
X58801000Y96520000D03*
D10*
%TO.P,J3,2,Pin_2*%
%TO.N,/UP*%
X56261000Y96520000D03*
%TO.P,J3,3,Pin_3*%
%TO.N,/DOWN*%
X53721000Y96520000D03*
%TO.P,J3,4,Pin_4*%
%TO.N,/LEFT*%
X51181000Y96520000D03*
%TO.P,J3,5,Pin_5*%
%TO.N,/RIGHT*%
X48641000Y96520000D03*
%TO.P,J3,6,Pin_6*%
%TO.N,/START*%
X46101000Y96520000D03*
%TO.P,J3,7,Pin_7*%
%TO.N,/SELECT*%
X43561000Y96520000D03*
%TO.P,J3,8,Pin_8*%
%TO.N,/A*%
X41021000Y96520000D03*
%TO.P,J3,9,Pin_9*%
%TO.N,/B*%
X38481000Y96520000D03*
%TO.P,J3,10,Pin_10*%
%TO.N,/X*%
X35941000Y96520000D03*
%TO.P,J3,11,Pin_11*%
%TO.N,/Y*%
X33401000Y96520000D03*
%TO.P,J3,12,Pin_12*%
%TO.N,/TL*%
X30861000Y96520000D03*
%TO.P,J3,13,Pin_13*%
%TO.N,/TR*%
X28321000Y96520000D03*
%TO.P,J3,14,Pin_14*%
%TO.N,/HOTKEY*%
X25781000Y96520000D03*
%TO.P,J3,15,Pin_15*%
%TO.N,GND*%
X23241000Y96520000D03*
%TD*%
D11*
%TO.P,J10,1,Pin_1*%
%TO.N,/X*%
X7239000Y60960000D03*
D10*
%TO.P,J10,2,Pin_2*%
%TO.N,GND*%
X9779000Y60960000D03*
%TD*%
D11*
%TO.P,J8,1,Pin_1*%
%TO.N,/A*%
X7239000Y22860000D03*
D10*
%TO.P,J8,2,Pin_2*%
%TO.N,GND*%
X9779000Y22860000D03*
%TD*%
D11*
%TO.P,J11,1,Pin_1*%
%TO.N,/Y*%
X45212000Y60960000D03*
D10*
%TO.P,J11,2,Pin_2*%
%TO.N,GND*%
X47752000Y60960000D03*
%TD*%
D12*
%TO.P,J2,1,Pin_1*%
%TO.N,GND*%
X30025000Y2692400D03*
D13*
%TO.P,J2,2,Pin_2*%
%TO.N,/UP*%
X31275000Y2692400D03*
%TO.P,J2,3,Pin_3*%
%TO.N,/DOWN*%
X32525000Y2692400D03*
%TO.P,J2,4,Pin_4*%
%TO.N,/LEFT*%
X33775000Y2692400D03*
%TO.P,J2,5,Pin_5*%
%TO.N,/RIGHT*%
X35025000Y2692400D03*
%TO.P,J2,6,Pin_6*%
%TO.N,/START*%
X36275000Y2692400D03*
%TO.P,J2,7,Pin_7*%
%TO.N,/SELECT*%
X37525000Y2692400D03*
%TO.P,J2,8,Pin_8*%
%TO.N,/A*%
X38775000Y2692400D03*
%TO.P,J2,9,Pin_9*%
%TO.N,/B*%
X40025000Y2692400D03*
%TO.P,J2,10,Pin_10*%
%TO.N,/X*%
X41275000Y2692400D03*
%TO.P,J2,11,Pin_11*%
%TO.N,/Y*%
X42525000Y2692400D03*
%TO.P,J2,12,Pin_12*%
%TO.N,/TL*%
X43775000Y2692400D03*
%TO.P,J2,13,Pin_13*%
%TO.N,/TR*%
X45025000Y2692400D03*
%TO.P,J2,14,Pin_14*%
%TO.N,/HOTKEY*%
X46275000Y2692400D03*
%TO.P,J2,15,Pin_15*%
%TO.N,GND*%
X47525000Y2692400D03*
%TD*%
D14*
%TO.P,J1,1,Pin_1*%
%TO.N,GND*%
X49377000Y100965000D03*
D13*
%TO.P,J1,2,Pin_2*%
%TO.N,/UP*%
X48127000Y100965000D03*
%TO.P,J1,3,Pin_3*%
%TO.N,/DOWN*%
X46877000Y100965000D03*
%TO.P,J1,4,Pin_4*%
%TO.N,/LEFT*%
X45627000Y100965000D03*
%TO.P,J1,5,Pin_5*%
%TO.N,/RIGHT*%
X44377000Y100965000D03*
%TO.P,J1,6,Pin_6*%
%TO.N,/START*%
X43127000Y100965000D03*
%TO.P,J1,7,Pin_7*%
%TO.N,/SELECT*%
X41877000Y100965000D03*
%TO.P,J1,8,Pin_8*%
%TO.N,/A*%
X40627000Y100965000D03*
%TO.P,J1,9,Pin_9*%
%TO.N,/B*%
X39377000Y100965000D03*
%TO.P,J1,10,Pin_10*%
%TO.N,/X*%
X38127000Y100965000D03*
%TO.P,J1,11,Pin_11*%
%TO.N,/Y*%
X36877000Y100965000D03*
%TO.P,J1,12,Pin_12*%
%TO.N,/TL*%
X35627000Y100965000D03*
%TO.P,J1,13,Pin_13*%
%TO.N,/TR*%
X34377000Y100965000D03*
%TO.P,J1,14,Pin_14*%
%TO.N,/HOTKEY*%
X33127000Y100965000D03*
%TO.P,J1,15,Pin_15*%
%TO.N,GND*%
X31877000Y100965000D03*
%TD*%
D11*
%TO.P,J13,1,Pin_1*%
%TO.N,/TR*%
X78105000Y3937000D03*
D10*
%TO.P,J13,2,Pin_2*%
%TO.N,GND*%
X80645000Y3937000D03*
%TD*%
D11*
%TO.P,J7,1,Pin_1*%
%TO.N,/SELECT*%
X79629000Y100965000D03*
D10*
%TO.P,J7,2,Pin_2*%
%TO.N,GND*%
X82169000Y100965000D03*
%TD*%
D11*
%TO.P,J6,1,Pin_1*%
%TO.N,/START*%
X71755000Y100965000D03*
D10*
%TO.P,J6,2,Pin_2*%
%TO.N,GND*%
X74295000Y100965000D03*
%TD*%
D11*
%TO.P,J5,1,Pin_1*%
%TO.N,/UP*%
X112522000Y42545000D03*
D10*
%TO.P,J5,2,Pin_2*%
%TO.N,/DOWN*%
X112522000Y40005000D03*
%TO.P,J5,3,Pin_3*%
%TO.N,/LEFT*%
X112522000Y37465000D03*
%TO.P,J5,4,Pin_4*%
%TO.N,/RIGHT*%
X112522000Y34925000D03*
%TO.P,J5,5,Pin_5*%
%TO.N,GND*%
X112522000Y32385000D03*
%TD*%
D11*
%TO.P,J9,1,Pin_1*%
%TO.N,/B*%
X45212000Y22987000D03*
D10*
%TO.P,J9,2,Pin_2*%
%TO.N,GND*%
X47752000Y22987000D03*
%TD*%
D15*
%TO.N,/UP*%
X107886500Y42481500D03*
%TO.N,/DOWN*%
X107823000Y40005000D03*
%TO.N,/LEFT*%
X107823000Y37592000D03*
%TO.N,/START*%
X33655000Y20955000D03*
%TO.N,/SELECT*%
X43624500Y89979500D03*
X36195000Y20955000D03*
%TO.N,/A*%
X38735000Y16383000D03*
%TO.N,/B*%
X45059600Y17881600D03*
%TO.N,/X*%
X38216000Y20966000D03*
X43815000Y15367000D03*
%TO.N,/Y*%
X46228000Y15367000D03*
X40894000Y56896000D03*
X40513000Y65151000D03*
%TO.N,/TL*%
X70485000Y13208000D03*
X40386000Y59944000D03*
%TO.N,/HOTKEY*%
X32512000Y93675200D03*
%TD*%
D16*
%TO.N,/B*%
X45059600Y22834600D02*
X45212000Y22987000D01*
X45059600Y17881600D02*
X45059600Y22834600D01*
%TO.N,/A*%
X13589000Y16383000D02*
X22123400Y16383000D01*
X7239000Y22733000D02*
X13589000Y16383000D01*
X7239000Y22860000D02*
X7239000Y22733000D01*
%TO.N,/TL*%
X78105000Y44323000D02*
X78105000Y42037000D01*
X65024000Y57404000D02*
X78105000Y44323000D01*
X42926000Y57404000D02*
X65024000Y57404000D01*
X40386000Y59944000D02*
X42926000Y57404000D01*
%TO.N,/Y*%
X40513000Y65151000D02*
X44704000Y60960000D01*
X44704000Y60960000D02*
X45212000Y60960000D01*
%TO.N,/X*%
X7239000Y60325000D02*
X10414000Y57150000D01*
X7239000Y60960000D02*
X7239000Y60325000D01*
X10414000Y57150000D02*
X34544000Y57150000D01*
X34544000Y57150000D02*
X38227000Y60833000D01*
X38227000Y60833000D02*
X38227000Y94234000D01*
X38227000Y94234000D02*
X35941000Y96520000D01*
%TO.N,/HOTKEY*%
X18415000Y98806000D02*
X23495000Y98806000D01*
X16256000Y100965000D02*
X18415000Y98806000D01*
X23495000Y98806000D02*
X25781000Y96520000D01*
%TO.N,/UP*%
X111379000Y43688000D02*
X112522000Y42545000D01*
X87884000Y77851000D02*
X99441000Y77851000D01*
X99441000Y77851000D02*
X111379000Y65913000D01*
X57658000Y98552000D02*
X67183000Y98552000D01*
X67183000Y98552000D02*
X87884000Y77851000D01*
X111379000Y65913000D02*
X111379000Y43688000D01*
X56261000Y97155000D02*
X57658000Y98552000D01*
X56261000Y96520000D02*
X56261000Y97155000D01*
%TO.N,/RIGHT*%
X51435000Y93726000D02*
X48641000Y96520000D01*
X87376000Y76073000D02*
X69723000Y93726000D01*
X109474000Y65024000D02*
X98425000Y76073000D01*
X109474000Y37973000D02*
X109474000Y65024000D01*
X112522000Y34925000D02*
X109474000Y37973000D01*
X98425000Y76073000D02*
X87376000Y76073000D01*
X69723000Y93726000D02*
X51435000Y93726000D01*
%TO.N,/LEFT*%
X87503000Y76708000D02*
X98806000Y76708000D01*
X110051000Y39936000D02*
X112522000Y37465000D01*
X53467000Y94234000D02*
X69977000Y94234000D01*
X69977000Y94234000D02*
X87503000Y76708000D01*
X98806000Y76708000D02*
X110051000Y65463000D01*
X110051000Y65463000D02*
X110051000Y39936000D01*
X51181000Y96520000D02*
X53467000Y94234000D01*
%TO.N,/DOWN*%
X46877000Y100443000D02*
X46877000Y100965000D01*
X87697604Y77274000D02*
X70229604Y94742000D01*
X99129000Y77274000D02*
X87697604Y77274000D01*
X55499000Y94742000D02*
X51181000Y99060000D01*
X110744000Y65659000D02*
X99129000Y77274000D01*
X48260000Y99060000D02*
X46877000Y100443000D01*
X70229604Y94742000D02*
X55499000Y94742000D01*
X51181000Y99060000D02*
X48260000Y99060000D01*
X112522000Y40005000D02*
X110744000Y41783000D01*
X110744000Y41783000D02*
X110744000Y65659000D01*
%TO.N,/UP*%
X31215000Y2632400D02*
X31215000Y2540000D01*
X48895000Y99568000D02*
X48127000Y100336000D01*
X65278000Y11938000D02*
X27863800Y11938000D01*
X107886500Y42481500D02*
X103966000Y38561000D01*
X56261000Y96520000D02*
X53213000Y99568000D01*
X103966000Y38561000D02*
X83900000Y38561000D01*
X83900000Y38561000D02*
X67437000Y22098000D01*
X67437000Y22098000D02*
X67437000Y14097000D01*
X31275000Y2692400D02*
X31215000Y2632400D01*
X48127000Y100336000D02*
X48127000Y100965000D01*
X53213000Y99568000D02*
X48895000Y99568000D01*
X31275000Y3142000D02*
X31275000Y2692400D01*
X23495000Y7569200D02*
X23495000Y7112000D01*
X23495000Y7112000D02*
X26441400Y4165600D01*
X30251400Y4165600D02*
X31275000Y3142000D01*
X67437000Y14097000D02*
X65278000Y11938000D01*
X27863800Y11938000D02*
X23495000Y7569200D01*
X26441400Y4165600D02*
X30251400Y4165600D01*
%TO.N,/DOWN*%
X68072000Y13843000D02*
X65569000Y11340000D01*
X30930850Y4699000D02*
X32525000Y3104850D01*
X68072000Y22096604D02*
X68072000Y13843000D01*
X105929000Y38111000D02*
X84086396Y38111000D01*
X107823000Y40005000D02*
X105929000Y38111000D01*
X84086396Y38111000D02*
X68072000Y22096604D01*
X26035000Y7620000D02*
X26035000Y7112000D01*
X29755000Y11340000D02*
X26035000Y7620000D01*
X65569000Y11340000D02*
X29755000Y11340000D01*
X28448000Y4699000D02*
X30930850Y4699000D01*
X26035000Y7112000D02*
X28448000Y4699000D01*
X32525000Y3104850D02*
X32525000Y2692400D01*
%TO.N,/LEFT*%
X31558400Y10705000D02*
X28575000Y7721600D01*
X49276000Y98425000D02*
X47625000Y98425000D01*
X28575000Y7112000D02*
X30480000Y5207000D01*
X28575000Y7721600D02*
X28575000Y7112000D01*
X107754000Y37661000D02*
X84272792Y37661000D01*
X47625000Y98425000D02*
X45627000Y100423000D01*
X68580000Y13462000D02*
X65823000Y10705000D01*
X30480000Y5207000D02*
X31623000Y5207000D01*
X107823000Y37592000D02*
X107754000Y37661000D01*
X51181000Y96520000D02*
X49276000Y98425000D01*
X33715000Y3115000D02*
X33715000Y2540000D01*
X84272792Y37661000D02*
X68580000Y21968208D01*
X68580000Y21968208D02*
X68580000Y13462000D01*
X65823000Y10705000D02*
X31558400Y10705000D01*
X45627000Y100423000D02*
X45627000Y100965000D01*
X31623000Y5207000D02*
X33715000Y3115000D01*
%TO.N,/RIGHT*%
X69215000Y13208000D02*
X66077000Y10070000D01*
X66077000Y10070000D02*
X32295000Y10070000D01*
X106172000Y34925000D02*
X103886000Y37211000D01*
X44377000Y100276000D02*
X44377000Y100965000D01*
X35025000Y3202000D02*
X31115000Y7112000D01*
X69215000Y21966812D02*
X69215000Y13208000D01*
X31115000Y8890000D02*
X31115000Y7112000D01*
X32295000Y10070000D02*
X31115000Y8890000D01*
X112522000Y34925000D02*
X106172000Y34925000D01*
X35025000Y2692400D02*
X35025000Y3202000D01*
X103886000Y37211000D02*
X84459188Y37211000D01*
X48133000Y96520000D02*
X44377000Y100276000D01*
X84459188Y37211000D02*
X69215000Y21966812D01*
X48641000Y96520000D02*
X48133000Y96520000D01*
%TO.N,/START*%
X33655000Y20955000D02*
X39127000Y26427000D01*
X36275000Y3882400D02*
X36275000Y2692400D01*
X33655000Y7112000D02*
X33655000Y6502400D01*
X46101000Y96520000D02*
X43127000Y99494000D01*
X33655000Y6502400D02*
X36275000Y3882400D01*
X39127000Y89546000D02*
X46101000Y96520000D01*
X43127000Y99494000D02*
X43127000Y100965000D01*
X39127000Y26427000D02*
X39127000Y89546000D01*
%TO.N,/SELECT*%
X39577000Y24337000D02*
X39577000Y85932000D01*
X41877000Y98204000D02*
X41877000Y100965000D01*
X37525000Y5782000D02*
X37525000Y2692400D01*
X36195000Y20955000D02*
X39577000Y24337000D01*
X39577000Y85932000D02*
X43624500Y89979500D01*
X36195000Y7112000D02*
X37525000Y5782000D01*
X43561000Y96520000D02*
X41877000Y98204000D01*
%TO.N,/A*%
X22123400Y16383000D02*
X27178000Y16383000D01*
X38735000Y7112000D02*
X38775000Y7072000D01*
X38775000Y7072000D02*
X38775000Y2692400D01*
X27178000Y16383000D02*
X38608000Y27813000D01*
X40627000Y96914000D02*
X40627000Y100965000D01*
X38677000Y58743000D02*
X38677000Y94176000D01*
X38677000Y94176000D02*
X41021000Y96520000D01*
X41021000Y96520000D02*
X40627000Y96914000D01*
X38608000Y58674000D02*
X38677000Y58743000D01*
X38608000Y27813000D02*
X38608000Y58674000D01*
X22123400Y16383000D02*
X38735000Y16383000D01*
%TO.N,/B*%
X41275000Y7112000D02*
X40025000Y5862000D01*
X38481000Y96520000D02*
X39377000Y97416000D01*
X39377000Y97416000D02*
X39377000Y100965000D01*
X40025000Y5862000D02*
X40025000Y2692400D01*
%TO.N,/X*%
X43815000Y15367000D02*
X38216000Y20966000D01*
X38127000Y98706000D02*
X38127000Y100965000D01*
X41275000Y4572000D02*
X43815000Y7112000D01*
X35941000Y96520000D02*
X38127000Y98706000D01*
X41275000Y2692400D02*
X41275000Y4572000D01*
%TO.N,/Y*%
X33401000Y96520000D02*
X36877000Y99996000D01*
X46228000Y15240000D02*
X46228000Y15367000D01*
X40132000Y21463000D02*
X46228000Y15367000D01*
X42525000Y3282000D02*
X42525000Y2692400D01*
X46355000Y7112000D02*
X42525000Y3282000D01*
X36877000Y99996000D02*
X36877000Y100965000D01*
X40132000Y56134000D02*
X40132000Y21463000D01*
X40894000Y56896000D02*
X40132000Y56134000D01*
%TO.N,/TL*%
X32766000Y98425000D02*
X33656396Y98425000D01*
X66675000Y9398000D02*
X50482500Y9398000D01*
X30861000Y96520000D02*
X32766000Y98425000D01*
X48895000Y7810500D02*
X48895000Y7112000D01*
X46990000Y5207000D02*
X48895000Y7112000D01*
X43775000Y2692400D02*
X43775000Y3160400D01*
X45821600Y5207000D02*
X46990000Y5207000D01*
X50482500Y9398000D02*
X48895000Y7810500D01*
X35627000Y100395604D02*
X35627000Y100965000D01*
X70485000Y13208000D02*
X66675000Y9398000D01*
X43775000Y3160400D02*
X45821600Y5207000D01*
X33656396Y98425000D02*
X35627000Y100395604D01*
%TO.N,/TR*%
X34377000Y100965000D02*
X34377000Y100417000D01*
X46482000Y4699000D02*
X49022000Y4699000D01*
X45025000Y3242000D02*
X46482000Y4699000D01*
X44965000Y2540000D02*
X44965000Y2632400D01*
X30861000Y99060000D02*
X28321000Y96520000D01*
X45025000Y2692400D02*
X45025000Y3242000D01*
X33020000Y99060000D02*
X30861000Y99060000D01*
X49022000Y4699000D02*
X51435000Y7112000D01*
X44965000Y2632400D02*
X45025000Y2692400D01*
X34377000Y100417000D02*
X33020000Y99060000D01*
%TO.N,/HOTKEY*%
X28625800Y93675200D02*
X25781000Y96520000D01*
X46275000Y2692400D02*
X46275000Y3095000D01*
X32258000Y99568000D02*
X33127000Y100437000D01*
X47371000Y4191000D02*
X51054000Y4191000D01*
X51054000Y4191000D02*
X53975000Y7112000D01*
X32512000Y93675200D02*
X28625800Y93675200D01*
X46275000Y3095000D02*
X47371000Y4191000D01*
X28829000Y99568000D02*
X32258000Y99568000D01*
X25400000Y96520000D02*
X25781000Y96520000D01*
X33127000Y100437000D02*
X33127000Y100965000D01*
X25781000Y96520000D02*
X28829000Y99568000D01*
%TD*%
%TA.AperFunction,Conductor*%
%TO.N,GND*%
G36*
X30218039Y2922715D02*
G01*
X30263794Y2869911D01*
X30275000Y2818400D01*
X30275000Y2717024D01*
X30260495Y2789945D01*
X30205240Y2872640D01*
X30122545Y2927895D01*
X30049624Y2942400D01*
X30151000Y2942400D01*
X30218039Y2922715D01*
G37*
%TD.AperFunction*%
%TA.AperFunction,Conductor*%
G36*
X47427455Y2927895D02*
G01*
X47344760Y2872640D01*
X47289505Y2789945D01*
X47275000Y2717024D01*
X47275000Y2818400D01*
X47294685Y2885439D01*
X47347489Y2931194D01*
X47399000Y2942400D01*
X47500376Y2942400D01*
X47427455Y2927895D01*
G37*
%TD.AperFunction*%
%TA.AperFunction,Conductor*%
G36*
X69476273Y93072815D02*
G01*
X69496915Y93056181D01*
X86868912Y75684183D01*
X86878816Y75671822D01*
X86879026Y75671995D01*
X86884001Y75665981D01*
X86935078Y75618016D01*
X86956224Y75596870D01*
X86961813Y75592534D01*
X86966245Y75588748D01*
X86998159Y75558780D01*
X87000680Y75556413D01*
X87018562Y75546583D01*
X87034829Y75535898D01*
X87050960Y75523385D01*
X87072838Y75513919D01*
X87094307Y75504629D01*
X87099533Y75502069D01*
X87140940Y75479305D01*
X87160716Y75474228D01*
X87179124Y75467925D01*
X87197850Y75459821D01*
X87197852Y75459820D01*
X87197853Y75459820D01*
X87197855Y75459819D01*
X87238784Y75453337D01*
X87244503Y75452431D01*
X87250212Y75451249D01*
X87295970Y75439500D01*
X87316384Y75439500D01*
X87335783Y75437973D01*
X87355943Y75434780D01*
X87402966Y75439225D01*
X87408804Y75439500D01*
X98111234Y75439500D01*
X98178273Y75419815D01*
X98198915Y75403181D01*
X108804181Y64797915D01*
X108837666Y64736592D01*
X108840500Y64710234D01*
X108840500Y43102738D01*
X108820815Y43035699D01*
X108768011Y42989944D01*
X108698853Y42980000D01*
X108635297Y43009025D01*
X108624350Y43019766D01*
X108497754Y43160365D01*
X108428611Y43210601D01*
X108343252Y43272618D01*
X108168788Y43350294D01*
X108168786Y43350295D01*
X107981987Y43390000D01*
X107791013Y43390000D01*
X107604214Y43350295D01*
X107604212Y43350294D01*
X107445828Y43279777D01*
X107429746Y43272617D01*
X107275245Y43160365D01*
X107147459Y43018443D01*
X107051973Y42853057D01*
X107051970Y42853050D01*
X107013864Y42735770D01*
X106992958Y42671428D01*
X106978829Y42537000D01*
X106975519Y42505505D01*
X106948934Y42440891D01*
X106939879Y42430786D01*
X103739914Y39230819D01*
X103678591Y39197334D01*
X103652233Y39194500D01*
X83983631Y39194500D01*
X83967879Y39196240D01*
X83967854Y39195968D01*
X83960092Y39196702D01*
X83960091Y39196702D01*
X83890028Y39194500D01*
X83860144Y39194500D01*
X83860141Y39194500D01*
X83860129Y39194499D01*
X83853137Y39193616D01*
X83847320Y39193159D01*
X83800114Y39191675D01*
X83800107Y39191674D01*
X83780500Y39185978D01*
X83761461Y39182035D01*
X83741211Y39179476D01*
X83741201Y39179474D01*
X83697291Y39162089D01*
X83691765Y39160197D01*
X83646412Y39147021D01*
X83646407Y39147019D01*
X83628833Y39136626D01*
X83611372Y39128072D01*
X83592386Y39120554D01*
X83592384Y39120553D01*
X83554172Y39092792D01*
X83549290Y39089585D01*
X83508637Y39065543D01*
X83494201Y39051106D01*
X83479415Y39038477D01*
X83462893Y39026472D01*
X83462891Y39026471D01*
X83462891Y39026470D01*
X83462888Y39026468D01*
X83432780Y38990075D01*
X83428849Y38985754D01*
X71650693Y27207599D01*
X71589370Y27174114D01*
X71519678Y27179098D01*
X71463745Y27220970D01*
X71439328Y27286434D01*
X71454180Y27354707D01*
X71468237Y27375240D01*
X71595128Y27525641D01*
X72094105Y28178639D01*
X72094105Y28178640D01*
X72339296Y28533859D01*
X72560958Y28854992D01*
X72994582Y29553100D01*
X72994583Y29553101D01*
X73174335Y29876359D01*
X73393985Y30271366D01*
X73758214Y31008078D01*
X74086423Y31761522D01*
X74086424Y31761522D01*
X74309332Y32349287D01*
X74377850Y32529953D01*
X74631810Y33311561D01*
X74847711Y34104526D01*
X75025049Y34906996D01*
X75066444Y35149360D01*
X75138934Y35573793D01*
X75163410Y35717097D01*
X75196611Y35990530D01*
X75262471Y36532931D01*
X75322001Y37352614D01*
X75341859Y38174200D01*
X75322001Y38995786D01*
X75262471Y39815469D01*
X75163410Y40631302D01*
X75156772Y40670165D01*
X75039051Y41359422D01*
X75025050Y41441399D01*
X74847710Y42243879D01*
X74631810Y43036839D01*
X74479954Y43504203D01*
X74377852Y43818441D01*
X74367442Y43845889D01*
X74218216Y44239368D01*
X74086424Y44586878D01*
X74086423Y44586878D01*
X73758214Y45340322D01*
X73393990Y46077024D01*
X73393989Y46077025D01*
X73393985Y46077034D01*
X72994589Y46795288D01*
X72994583Y46795299D01*
X72994582Y46795300D01*
X72816655Y47081751D01*
X72560958Y47493408D01*
X72094104Y48169762D01*
X71777592Y48583973D01*
X71595128Y48822759D01*
X71065166Y49450911D01*
X70659576Y49887025D01*
X70505487Y50052711D01*
X69917385Y50626769D01*
X69917379Y50626775D01*
X69302247Y51171735D01*
X68730708Y51630759D01*
X68661480Y51686359D01*
X68661481Y51686359D01*
X67996601Y52169422D01*
X67996599Y52169423D01*
X67309162Y52619797D01*
X67309150Y52619804D01*
X67309144Y52619808D01*
X66600773Y53036430D01*
X66600768Y53036433D01*
X66278969Y53205326D01*
X65873071Y53418358D01*
X65873072Y53418357D01*
X65127768Y53764681D01*
X64366627Y54074581D01*
X64366629Y54074581D01*
X64366615Y54074586D01*
X63591372Y54347358D01*
X62803855Y54582357D01*
X62005905Y54779035D01*
X61199384Y54936930D01*
X60386176Y55055676D01*
X60386169Y55055677D01*
X60386160Y55055678D01*
X59568181Y55134994D01*
X59568182Y55134994D01*
X58747318Y55174700D01*
X58747310Y55174700D01*
X57925478Y55174700D01*
X57925470Y55174700D01*
X57104606Y55134994D01*
X57104607Y55134994D01*
X56286628Y55055678D01*
X56286618Y55055677D01*
X56286612Y55055676D01*
X55473404Y54936930D01*
X54666883Y54779035D01*
X53868933Y54582357D01*
X53081416Y54347358D01*
X52306173Y54074586D01*
X52306161Y54074581D01*
X51545020Y53764681D01*
X50799716Y53418357D01*
X50799717Y53418358D01*
X50393819Y53205326D01*
X50072020Y53036433D01*
X50072015Y53036430D01*
X49363644Y52619808D01*
X49363637Y52619804D01*
X49363626Y52619797D01*
X48676189Y52169423D01*
X48676187Y52169422D01*
X48011307Y51686359D01*
X48011308Y51686359D01*
X47942080Y51630759D01*
X47370541Y51171735D01*
X46755409Y50626775D01*
X46755403Y50626769D01*
X46167301Y50052711D01*
X46013212Y49887025D01*
X45607622Y49450911D01*
X45077660Y48822759D01*
X44895196Y48583973D01*
X44578684Y48169762D01*
X44111830Y47493408D01*
X43856132Y47081751D01*
X43678206Y46795300D01*
X43678205Y46795299D01*
X43678199Y46795288D01*
X43278803Y46077034D01*
X43278798Y46077025D01*
X43278798Y46077024D01*
X42914574Y45340322D01*
X42586365Y44586878D01*
X42586364Y44586878D01*
X42454572Y44239368D01*
X42305346Y43845889D01*
X42294936Y43818441D01*
X42192834Y43504203D01*
X42040978Y43036839D01*
X41825078Y42243879D01*
X41647738Y41441399D01*
X41633737Y41359422D01*
X41516016Y40670165D01*
X41509378Y40631302D01*
X41410317Y39815469D01*
X41350787Y38995786D01*
X41330929Y38174200D01*
X41350787Y37352614D01*
X41410317Y36532931D01*
X41476177Y35990530D01*
X41509378Y35717097D01*
X41533854Y35573793D01*
X41606344Y35149360D01*
X41647739Y34906996D01*
X41825077Y34104526D01*
X42040978Y33311561D01*
X42294938Y32529953D01*
X42363455Y32349287D01*
X42586364Y31761522D01*
X42586365Y31761522D01*
X42914574Y31008078D01*
X43278803Y30271366D01*
X43498453Y29876359D01*
X43678205Y29553101D01*
X43678206Y29553100D01*
X44111830Y28854992D01*
X44333492Y28533859D01*
X44578683Y28178640D01*
X44578683Y28178639D01*
X45077660Y27525641D01*
X45607622Y26897489D01*
X45869619Y26615775D01*
X46167301Y26295689D01*
X46167307Y26295684D01*
X46167309Y26295681D01*
X46755409Y25721625D01*
X47370541Y25176665D01*
X47370550Y25176658D01*
X47370552Y25176656D01*
X47660128Y24944087D01*
X48011308Y24662041D01*
X48011307Y24662041D01*
X48226480Y24505709D01*
X48269146Y24450379D01*
X48275125Y24380766D01*
X48242519Y24318971D01*
X48181681Y24284614D01*
X48121502Y24285616D01*
X48002000Y24317637D01*
X48002000Y23422502D01*
X47894315Y23471680D01*
X47787763Y23487000D01*
X47716237Y23487000D01*
X47609685Y23471680D01*
X47502000Y23422502D01*
X47502000Y24317636D01*
X47501999Y24317636D01*
X47288513Y24260433D01*
X47288507Y24260430D01*
X47074422Y24160601D01*
X47074420Y24160600D01*
X46880926Y24025114D01*
X46765084Y23909272D01*
X46703761Y23875788D01*
X46634069Y23880772D01*
X46578136Y23922644D01*
X46561223Y23953616D01*
X46512889Y24083204D01*
X46425261Y24200261D01*
X46308204Y24287889D01*
X46279613Y24298553D01*
X46171203Y24338989D01*
X46110654Y24345500D01*
X46110638Y24345500D01*
X44313362Y24345500D01*
X44313345Y24345500D01*
X44252797Y24338989D01*
X44252795Y24338989D01*
X44115795Y24287889D01*
X43998739Y24200261D01*
X43911111Y24083205D01*
X43860011Y23946205D01*
X43860011Y23946203D01*
X43853500Y23885655D01*
X43853500Y22088346D01*
X43860011Y22027798D01*
X43860011Y22027796D01*
X43909847Y21894185D01*
X43911111Y21890796D01*
X43998739Y21773739D01*
X44115796Y21686111D01*
X44252799Y21635011D01*
X44285229Y21631525D01*
X44315356Y21628285D01*
X44379907Y21601547D01*
X44419755Y21544154D01*
X44426100Y21504996D01*
X44426100Y18583359D01*
X44406415Y18516320D01*
X44394250Y18500387D01*
X44320563Y18418550D01*
X44320558Y18418543D01*
X44310511Y18401140D01*
X44259943Y18352925D01*
X44191336Y18339704D01*
X44126471Y18365673D01*
X44115444Y18375461D01*
X40801819Y21689086D01*
X40768334Y21750409D01*
X40765500Y21776767D01*
X40765500Y55820234D01*
X40785185Y55887273D01*
X40801819Y55907915D01*
X40845085Y55951181D01*
X40906408Y55984666D01*
X40932766Y55987500D01*
X40989487Y55987500D01*
X41176288Y56027206D01*
X41350752Y56104882D01*
X41505253Y56217134D01*
X41633040Y56359056D01*
X41728527Y56524444D01*
X41787542Y56706072D01*
X41807504Y56896000D01*
X41787542Y57085928D01*
X41728527Y57267556D01*
X41633040Y57432944D01*
X41505253Y57574866D01*
X41350752Y57687118D01*
X41176288Y57764794D01*
X41176286Y57764795D01*
X40989487Y57804500D01*
X40798513Y57804500D01*
X40611714Y57764795D01*
X40437243Y57687116D01*
X40407385Y57665422D01*
X40341579Y57641942D01*
X40273525Y57657768D01*
X40224830Y57707874D01*
X40210500Y57765740D01*
X40210500Y58911500D01*
X40230185Y58978539D01*
X40282989Y59024294D01*
X40334500Y59035500D01*
X40347234Y59035500D01*
X40414273Y59015815D01*
X40434915Y58999181D01*
X42418910Y57015186D01*
X42428816Y57002822D01*
X42429026Y57002995D01*
X42434001Y56996981D01*
X42485094Y56949001D01*
X42506225Y56927871D01*
X42506230Y56927866D01*
X42511802Y56923544D01*
X42516242Y56919751D01*
X42550678Y56887414D01*
X42568567Y56877580D01*
X42584833Y56866896D01*
X42600959Y56854387D01*
X42644298Y56835633D01*
X42649545Y56833063D01*
X42690940Y56810305D01*
X42710718Y56805227D01*
X42729121Y56798926D01*
X42747852Y56790820D01*
X42747853Y56790820D01*
X42747855Y56790819D01*
X42775250Y56786481D01*
X42794497Y56783432D01*
X42800213Y56782249D01*
X42845970Y56770500D01*
X42866390Y56770500D01*
X42885789Y56768973D01*
X42905941Y56765782D01*
X42905942Y56765781D01*
X42905942Y56765782D01*
X42905943Y56765781D01*
X42952959Y56770225D01*
X42958796Y56770500D01*
X64710234Y56770500D01*
X64777273Y56750815D01*
X64797915Y56734181D01*
X77435181Y44096915D01*
X77468666Y44035592D01*
X77471500Y44009234D01*
X77471500Y43519500D01*
X77451815Y43452461D01*
X77399011Y43406706D01*
X77347500Y43395500D01*
X77206345Y43395500D01*
X77145797Y43388989D01*
X77145795Y43388989D01*
X77008795Y43337889D01*
X76891739Y43250261D01*
X76804111Y43133205D01*
X76753011Y42996205D01*
X76753011Y42996203D01*
X76746500Y42935655D01*
X76746500Y41138346D01*
X76753011Y41077798D01*
X76753011Y41077796D01*
X76801948Y40946596D01*
X76804111Y40940796D01*
X76891739Y40823739D01*
X77008796Y40736111D01*
X77145799Y40685011D01*
X77173050Y40682082D01*
X77206345Y40678501D01*
X77206362Y40678500D01*
X79003638Y40678500D01*
X79003654Y40678501D01*
X79030692Y40681409D01*
X79064201Y40685011D01*
X79201204Y40736111D01*
X79318261Y40823739D01*
X79405889Y40940796D01*
X79454223Y41070385D01*
X79496093Y41126314D01*
X79561557Y41150731D01*
X79629830Y41135879D01*
X79658084Y41114728D01*
X79773917Y40998895D01*
X79967421Y40863400D01*
X80181507Y40763571D01*
X80181516Y40763567D01*
X80395000Y40706366D01*
X80395000Y41601499D01*
X80502685Y41552320D01*
X80609237Y41537000D01*
X80680763Y41537000D01*
X80787315Y41552320D01*
X80895000Y41601499D01*
X80895000Y40706367D01*
X81108483Y40763567D01*
X81108492Y40763571D01*
X81322578Y40863400D01*
X81516082Y40998895D01*
X81683105Y41165918D01*
X81818600Y41359422D01*
X81918429Y41573508D01*
X81918432Y41573514D01*
X81975636Y41787000D01*
X81078686Y41787000D01*
X81104493Y41827156D01*
X81145000Y41965111D01*
X81145000Y42108889D01*
X81104493Y42246844D01*
X81078686Y42287000D01*
X81975636Y42287000D01*
X81975635Y42287001D01*
X81918432Y42500487D01*
X81918429Y42500493D01*
X81818600Y42714578D01*
X81818599Y42714580D01*
X81683113Y42908074D01*
X81683108Y42908080D01*
X81658320Y42932868D01*
X81624835Y42994191D01*
X81629819Y43063883D01*
X81671691Y43119816D01*
X81737155Y43144233D01*
X81805428Y43129381D01*
X81813949Y43124275D01*
X82264032Y42829403D01*
X82264043Y42829397D01*
X82264050Y42829392D01*
X82532625Y42671432D01*
X82972426Y42412767D01*
X83288566Y42246844D01*
X83700123Y42030842D01*
X83700122Y42030843D01*
X84445426Y41684519D01*
X84808529Y41536681D01*
X85206579Y41374614D01*
X85981822Y41101842D01*
X86769339Y40866843D01*
X87567289Y40670165D01*
X88373810Y40512270D01*
X89187018Y40393524D01*
X89187024Y40393524D01*
X89187034Y40393522D01*
X90005013Y40314206D01*
X90005012Y40314206D01*
X90825876Y40274500D01*
X90825884Y40274500D01*
X91647724Y40274500D01*
X92468588Y40314206D01*
X92468587Y40314206D01*
X93286566Y40393522D01*
X93286575Y40393524D01*
X93286582Y40393524D01*
X94099790Y40512270D01*
X94906311Y40670165D01*
X95704261Y40866843D01*
X96491778Y41101842D01*
X97267021Y41374614D01*
X97665071Y41536681D01*
X98028174Y41684519D01*
X98773478Y42030843D01*
X98773477Y42030842D01*
X99185034Y42246844D01*
X99501174Y42412767D01*
X99940975Y42671432D01*
X100209550Y42829392D01*
X100209556Y42829397D01*
X100209568Y42829403D01*
X100897005Y43279777D01*
X100897007Y43279779D01*
X100897007Y43279778D01*
X101561887Y43762841D01*
X101561886Y43762841D01*
X101617362Y43807397D01*
X102202642Y44277456D01*
X102202643Y44277458D01*
X102202653Y44277465D01*
X102817785Y44822425D01*
X103405885Y45396481D01*
X103405886Y45396484D01*
X103405893Y45396489D01*
X103626591Y45633798D01*
X103965572Y45998289D01*
X104495534Y46626441D01*
X104994511Y47279439D01*
X104994511Y47279440D01*
X105461359Y47955785D01*
X105461364Y47955792D01*
X105851553Y48583973D01*
X105894988Y48653900D01*
X105894989Y48653901D01*
X105988891Y48822770D01*
X106294391Y49372166D01*
X106658620Y50108878D01*
X106986829Y50862322D01*
X106986830Y50862322D01*
X107278258Y51630759D01*
X107532216Y52412361D01*
X107673338Y52930677D01*
X107748117Y53205326D01*
X107925455Y54007796D01*
X107936863Y54074586D01*
X108023587Y54582357D01*
X108063816Y54817897D01*
X108107140Y55174700D01*
X108162877Y55633731D01*
X108222407Y56453414D01*
X108242265Y57275000D01*
X108222407Y58096586D01*
X108162877Y58916269D01*
X108063816Y59732102D01*
X108053612Y59791844D01*
X107939495Y60460000D01*
X107925456Y60542199D01*
X107854510Y60863234D01*
X107811229Y61059086D01*
X107748116Y61344679D01*
X107532216Y62137639D01*
X107278256Y62919247D01*
X107118417Y63340709D01*
X106986830Y63687678D01*
X106986829Y63687678D01*
X106658620Y64441122D01*
X106294396Y65177824D01*
X106294395Y65177825D01*
X106294391Y65177834D01*
X105923323Y65845145D01*
X105894989Y65896099D01*
X105894988Y65896100D01*
X105703466Y66204438D01*
X105461364Y66594208D01*
X104994510Y67270562D01*
X104495534Y67923559D01*
X103965572Y68551711D01*
X103626591Y68916203D01*
X103405893Y69153511D01*
X102817791Y69727569D01*
X102817785Y69727575D01*
X102202653Y70272535D01*
X101561886Y70787159D01*
X101561887Y70787159D01*
X100897007Y71270222D01*
X100897005Y71270223D01*
X100209568Y71720597D01*
X100209556Y71720604D01*
X100209550Y71720608D01*
X99501179Y72137230D01*
X99501174Y72137233D01*
X99038504Y72380061D01*
X98773477Y72519158D01*
X98773478Y72519157D01*
X98028174Y72865481D01*
X97267033Y73175381D01*
X97267035Y73175381D01*
X97267021Y73175386D01*
X96491778Y73448158D01*
X95704261Y73683157D01*
X94906311Y73879835D01*
X94099790Y74037730D01*
X93286582Y74156476D01*
X93286575Y74156477D01*
X93286566Y74156478D01*
X92468587Y74235794D01*
X92468588Y74235794D01*
X91647724Y74275500D01*
X91647716Y74275500D01*
X90825884Y74275500D01*
X90825876Y74275500D01*
X90005012Y74235794D01*
X90005013Y74235794D01*
X89187034Y74156478D01*
X89187024Y74156477D01*
X89187018Y74156476D01*
X88373810Y74037730D01*
X87567289Y73879835D01*
X86769339Y73683157D01*
X85981822Y73448158D01*
X85206579Y73175386D01*
X85206567Y73175381D01*
X84445426Y72865481D01*
X83700122Y72519157D01*
X83700123Y72519158D01*
X83435096Y72380061D01*
X82972426Y72137233D01*
X82972421Y72137230D01*
X82264050Y71720608D01*
X82264043Y71720604D01*
X82264032Y71720597D01*
X81576595Y71270223D01*
X81576593Y71270222D01*
X80911713Y70787159D01*
X80911714Y70787159D01*
X80270947Y70272535D01*
X79655815Y69727575D01*
X79655809Y69727569D01*
X79067707Y69153511D01*
X78847008Y68916203D01*
X78508028Y68551711D01*
X77978066Y67923559D01*
X77479090Y67270562D01*
X77012236Y66594208D01*
X76770134Y66204438D01*
X76578612Y65896100D01*
X76578611Y65896099D01*
X76550277Y65845145D01*
X76179209Y65177834D01*
X76179204Y65177825D01*
X76179204Y65177824D01*
X75814980Y64441122D01*
X75486771Y63687678D01*
X75486770Y63687678D01*
X75355183Y63340709D01*
X75195344Y62919247D01*
X74941384Y62137639D01*
X74725484Y61344679D01*
X74662371Y61059086D01*
X74619090Y60863234D01*
X74548144Y60542199D01*
X74534105Y60460000D01*
X74419988Y59791844D01*
X74409784Y59732102D01*
X74310723Y58916269D01*
X74251193Y58096586D01*
X74231335Y57275000D01*
X74251193Y56453414D01*
X74310723Y55633731D01*
X74366460Y55174700D01*
X74409784Y54817897D01*
X74450013Y54582357D01*
X74536737Y54074586D01*
X74548145Y54007796D01*
X74725483Y53205326D01*
X74800262Y52930677D01*
X74941384Y52412361D01*
X75195342Y51630759D01*
X75486770Y50862322D01*
X75486771Y50862322D01*
X75814980Y50108878D01*
X76179209Y49372166D01*
X76484709Y48822770D01*
X76578611Y48653901D01*
X76578612Y48653900D01*
X76622047Y48583973D01*
X77012236Y47955792D01*
X77012241Y47955785D01*
X77479089Y47279440D01*
X77479089Y47279439D01*
X77978066Y46626441D01*
X78508028Y45998289D01*
X78847008Y45633798D01*
X79067707Y45396489D01*
X79067713Y45396484D01*
X79067715Y45396481D01*
X79655815Y44822425D01*
X80270947Y44277465D01*
X80270956Y44277458D01*
X80270958Y44277456D01*
X80856237Y43807397D01*
X80911714Y43762841D01*
X80911713Y43762841D01*
X81255739Y43512892D01*
X81298405Y43457562D01*
X81304384Y43387949D01*
X81271778Y43326154D01*
X81210940Y43291797D01*
X81141184Y43295785D01*
X81130451Y43300191D01*
X81108492Y43310430D01*
X81108486Y43310433D01*
X80895000Y43367636D01*
X80895000Y42472502D01*
X80787315Y42521680D01*
X80680763Y42537000D01*
X80609237Y42537000D01*
X80502685Y42521680D01*
X80395000Y42472502D01*
X80395000Y43367636D01*
X80394999Y43367636D01*
X80181513Y43310433D01*
X80181507Y43310430D01*
X79967422Y43210601D01*
X79967420Y43210600D01*
X79773926Y43075114D01*
X79658084Y42959272D01*
X79596761Y42925788D01*
X79527069Y42930772D01*
X79471136Y42972644D01*
X79454223Y43003616D01*
X79405889Y43133204D01*
X79318261Y43250261D01*
X79201204Y43337889D01*
X79064203Y43388989D01*
X79003654Y43395500D01*
X79003638Y43395500D01*
X78862500Y43395500D01*
X78795461Y43415185D01*
X78749706Y43467989D01*
X78738500Y43519500D01*
X78738500Y44239368D01*
X78740239Y44255120D01*
X78739968Y44255145D01*
X78740700Y44262901D01*
X78740702Y44262908D01*
X78738500Y44332972D01*
X78738500Y44362856D01*
X78737614Y44369859D01*
X78737157Y44375678D01*
X78735899Y44415709D01*
X78735674Y44422889D01*
X78729974Y44442508D01*
X78726031Y44461554D01*
X78723474Y44481796D01*
X78723474Y44481797D01*
X78706081Y44525726D01*
X78704204Y44531208D01*
X78691019Y44576593D01*
X78680620Y44594176D01*
X78672066Y44611637D01*
X78664552Y44630617D01*
X78636793Y44668824D01*
X78633586Y44673706D01*
X78609544Y44714359D01*
X78609543Y44714360D01*
X78609542Y44714362D01*
X78595108Y44728796D01*
X78582471Y44743591D01*
X78570472Y44760107D01*
X78570470Y44760110D01*
X78534073Y44790219D01*
X78529751Y44794153D01*
X65531088Y57792817D01*
X65521187Y57805177D01*
X65520977Y57805002D01*
X65516002Y57811014D01*
X65516000Y57811018D01*
X65489658Y57835755D01*
X65464922Y57858984D01*
X65443768Y57880137D01*
X65441792Y57881669D01*
X65438183Y57884469D01*
X65433750Y57888256D01*
X65399321Y57920586D01*
X65399319Y57920588D01*
X65381431Y57930422D01*
X65365170Y57941103D01*
X65349039Y57953616D01*
X65305693Y57972373D01*
X65300445Y57974944D01*
X65273251Y57989894D01*
X65259060Y57997695D01*
X65255660Y57998568D01*
X65239287Y58002772D01*
X65220881Y58009074D01*
X65202144Y58017182D01*
X65202146Y58017182D01*
X65155496Y58024570D01*
X65149781Y58025754D01*
X65129612Y58030932D01*
X65104032Y58037500D01*
X65104030Y58037500D01*
X65083616Y58037500D01*
X65064217Y58039027D01*
X65044058Y58042220D01*
X65044057Y58042220D01*
X64997034Y58037775D01*
X64991196Y58037500D01*
X43239767Y58037500D01*
X43172728Y58057185D01*
X43152086Y58073819D01*
X41332620Y59893285D01*
X41299135Y59954608D01*
X41296982Y59967988D01*
X41279542Y60133928D01*
X41220527Y60315556D01*
X41125040Y60480944D01*
X40997253Y60622866D01*
X40842752Y60735118D01*
X40668288Y60812794D01*
X40668286Y60812795D01*
X40481487Y60852500D01*
X40334500Y60852500D01*
X40267461Y60872185D01*
X40221706Y60924989D01*
X40210500Y60976500D01*
X40210500Y64133376D01*
X40230185Y64200415D01*
X40282989Y64246170D01*
X40352147Y64256114D01*
X40360244Y64254673D01*
X40417513Y64242500D01*
X40474234Y64242500D01*
X40541273Y64222815D01*
X40561915Y64206181D01*
X43817181Y60950915D01*
X43850666Y60889592D01*
X43853500Y60863234D01*
X43853500Y60061346D01*
X43860011Y60000798D01*
X43860011Y60000796D01*
X43893983Y59909717D01*
X43911111Y59863796D01*
X43998739Y59746739D01*
X44115796Y59659111D01*
X44252799Y59608011D01*
X44280050Y59605082D01*
X44313345Y59601501D01*
X44313362Y59601500D01*
X46110638Y59601500D01*
X46110654Y59601501D01*
X46137692Y59604409D01*
X46171201Y59608011D01*
X46308204Y59659111D01*
X46425261Y59746739D01*
X46512889Y59863796D01*
X46561223Y59993385D01*
X46603093Y60049314D01*
X46668557Y60073731D01*
X46736830Y60058879D01*
X46765084Y60037728D01*
X46880917Y59921895D01*
X47074421Y59786400D01*
X47288507Y59686571D01*
X47288516Y59686567D01*
X47502000Y59629366D01*
X47502000Y60524499D01*
X47609685Y60475320D01*
X47716237Y60460000D01*
X47787763Y60460000D01*
X47894315Y60475320D01*
X48002000Y60524499D01*
X48002000Y59629367D01*
X48215483Y59686567D01*
X48215492Y59686571D01*
X48429578Y59786400D01*
X48623082Y59921895D01*
X48790105Y60088918D01*
X48925600Y60282422D01*
X49025429Y60496508D01*
X49025432Y60496514D01*
X49082636Y60710000D01*
X48185686Y60710000D01*
X48211493Y60750156D01*
X48252000Y60888111D01*
X48252000Y61031889D01*
X48211493Y61169844D01*
X48185686Y61210000D01*
X49082636Y61210000D01*
X49082635Y61210001D01*
X49025432Y61423487D01*
X49025429Y61423493D01*
X48925600Y61637578D01*
X48925599Y61637580D01*
X48790113Y61831074D01*
X48790108Y61831080D01*
X48773590Y61847598D01*
X48740105Y61908921D01*
X48745089Y61978613D01*
X48786961Y62034546D01*
X48852425Y62058963D01*
X48920698Y62044111D01*
X48929217Y62039006D01*
X49363626Y61754403D01*
X49363637Y61754397D01*
X49363644Y61754392D01*
X49864191Y61460000D01*
X50072020Y61337767D01*
X50391971Y61169844D01*
X50799717Y60955842D01*
X50799716Y60955843D01*
X51545020Y60609519D01*
X52176705Y60352328D01*
X52306173Y60299614D01*
X53081416Y60026842D01*
X53868933Y59791843D01*
X54666883Y59595165D01*
X55473404Y59437270D01*
X56286612Y59318524D01*
X56286618Y59318524D01*
X56286628Y59318522D01*
X57104607Y59239206D01*
X57104606Y59239206D01*
X57925470Y59199500D01*
X57925478Y59199500D01*
X58747318Y59199500D01*
X59568182Y59239206D01*
X59568181Y59239206D01*
X60386160Y59318522D01*
X60386169Y59318524D01*
X60386176Y59318524D01*
X61199384Y59437270D01*
X62005905Y59595165D01*
X62803855Y59791843D01*
X63591372Y60026842D01*
X64366615Y60299614D01*
X64496082Y60352328D01*
X65127768Y60609519D01*
X65873072Y60955843D01*
X65873071Y60955842D01*
X66280817Y61169844D01*
X66600768Y61337767D01*
X66808597Y61460000D01*
X67309144Y61754392D01*
X67309150Y61754397D01*
X67309162Y61754403D01*
X67996599Y62204777D01*
X67996601Y62204779D01*
X67996601Y62204778D01*
X68661481Y62687841D01*
X68661480Y62687841D01*
X69302247Y63202465D01*
X69917379Y63747425D01*
X70505479Y64321481D01*
X70505480Y64321484D01*
X70505487Y64321489D01*
X70813294Y64652462D01*
X71065166Y64923289D01*
X71595128Y65551441D01*
X72094105Y66204439D01*
X72094105Y66204440D01*
X72105272Y66220617D01*
X72560958Y66880792D01*
X72994582Y67578900D01*
X72994583Y67578901D01*
X73186241Y67923570D01*
X73393985Y68297166D01*
X73758214Y69033878D01*
X74060394Y69727569D01*
X74086423Y69787322D01*
X74086424Y69787322D01*
X74377852Y70555759D01*
X74631810Y71337361D01*
X74713782Y71638430D01*
X74847711Y72130326D01*
X75025049Y72932796D01*
X75163410Y73742897D01*
X75228080Y74275500D01*
X75262471Y74558731D01*
X75322001Y75378414D01*
X75341859Y76200000D01*
X75322001Y77021586D01*
X75262471Y77841269D01*
X75163410Y78657102D01*
X75025050Y79467199D01*
X74847710Y80269679D01*
X74631810Y81062639D01*
X74377850Y81844247D01*
X74240425Y82206608D01*
X74086424Y82612678D01*
X74086423Y82612678D01*
X73758214Y83366122D01*
X73393990Y84102824D01*
X73393989Y84102825D01*
X73393985Y84102834D01*
X72994589Y84821088D01*
X72994583Y84821099D01*
X72994582Y84821100D01*
X72816655Y85107551D01*
X72560958Y85519208D01*
X72094104Y86195562D01*
X71595128Y86848559D01*
X71065166Y87476711D01*
X70726185Y87841203D01*
X70505487Y88078511D01*
X70360779Y88219763D01*
X69917379Y88652575D01*
X69302247Y89197535D01*
X69259041Y89232235D01*
X68661480Y89712159D01*
X68661481Y89712159D01*
X67996601Y90195222D01*
X67996599Y90195223D01*
X67309162Y90645597D01*
X67309150Y90645604D01*
X67309144Y90645608D01*
X66600773Y91062230D01*
X66600768Y91062233D01*
X66279406Y91230897D01*
X65873071Y91444158D01*
X65873072Y91444157D01*
X65127768Y91790481D01*
X64366627Y92100381D01*
X64366629Y92100381D01*
X64366615Y92100386D01*
X63591372Y92373158D01*
X62803855Y92608157D01*
X62005905Y92804835D01*
X61791497Y92846811D01*
X61729490Y92879008D01*
X61694732Y92939619D01*
X61698261Y93009399D01*
X61738956Y93066195D01*
X61803897Y93091973D01*
X61815322Y93092500D01*
X69409234Y93092500D01*
X69476273Y93072815D01*
G37*
%TD.AperFunction*%
%TA.AperFunction,Conductor*%
G36*
X47452905Y95846485D02*
G01*
X47474804Y95821213D01*
X47565278Y95682732D01*
X47565283Y95682727D01*
X47565284Y95682724D01*
X47709692Y95525858D01*
X47717760Y95517094D01*
X47895424Y95378811D01*
X47895425Y95378811D01*
X47895427Y95378809D01*
X47900958Y95375816D01*
X48093426Y95271658D01*
X48306365Y95198556D01*
X48528431Y95161500D01*
X48753569Y95161500D01*
X48975630Y95198555D01*
X48975631Y95198556D01*
X48975635Y95198556D01*
X48975637Y95198558D01*
X48979849Y95199624D01*
X49049669Y95197012D01*
X49097991Y95167105D01*
X50927910Y93337186D01*
X50937816Y93324822D01*
X50938026Y93324995D01*
X50943001Y93318981D01*
X50994095Y93271000D01*
X51015224Y93249871D01*
X51015228Y93249868D01*
X51015231Y93249865D01*
X51020805Y93245542D01*
X51025247Y93241748D01*
X51059678Y93209415D01*
X51059681Y93209413D01*
X51077563Y93199583D01*
X51093830Y93188898D01*
X51109959Y93176386D01*
X51153307Y93157629D01*
X51158533Y93155069D01*
X51199940Y93132305D01*
X51219716Y93127228D01*
X51238124Y93120925D01*
X51256850Y93112821D01*
X51256852Y93112820D01*
X51256853Y93112820D01*
X51256855Y93112819D01*
X51294651Y93106833D01*
X51303503Y93105431D01*
X51309212Y93104249D01*
X51354970Y93092500D01*
X51375384Y93092500D01*
X51394783Y93090973D01*
X51414943Y93087780D01*
X51461966Y93092225D01*
X51467804Y93092500D01*
X54857466Y93092500D01*
X54924505Y93072815D01*
X54970260Y93020011D01*
X54980204Y92950853D01*
X54951179Y92887297D01*
X54892401Y92849523D01*
X54881291Y92846811D01*
X54666883Y92804835D01*
X53868933Y92608157D01*
X53081416Y92373158D01*
X52306173Y92100386D01*
X52306161Y92100381D01*
X51545020Y91790481D01*
X50799716Y91444157D01*
X50799717Y91444158D01*
X50393381Y91230897D01*
X50072020Y91062233D01*
X50072015Y91062230D01*
X49363644Y90645608D01*
X49363637Y90645604D01*
X49363626Y90645597D01*
X48676189Y90195223D01*
X48676187Y90195222D01*
X48011307Y89712159D01*
X48011308Y89712159D01*
X47413747Y89232235D01*
X47370541Y89197535D01*
X46755409Y88652575D01*
X46312009Y88219763D01*
X46167301Y88078511D01*
X45946602Y87841203D01*
X45607622Y87476711D01*
X45077660Y86848559D01*
X44578684Y86195562D01*
X44111830Y85519208D01*
X43856132Y85107551D01*
X43678206Y84821100D01*
X43678205Y84821099D01*
X43678199Y84821088D01*
X43278803Y84102834D01*
X43278798Y84102825D01*
X43278798Y84102824D01*
X42914574Y83366122D01*
X42586365Y82612678D01*
X42586364Y82612678D01*
X42432363Y82206608D01*
X42294938Y81844247D01*
X42040978Y81062639D01*
X41825078Y80269679D01*
X41647738Y79467199D01*
X41509378Y78657102D01*
X41410317Y77841269D01*
X41350787Y77021586D01*
X41330929Y76200000D01*
X41350787Y75378414D01*
X41410317Y74558731D01*
X41444708Y74275500D01*
X41509378Y73742897D01*
X41647739Y72932796D01*
X41825077Y72130326D01*
X41959006Y71638430D01*
X42040978Y71337361D01*
X42294936Y70555759D01*
X42586364Y69787322D01*
X42586365Y69787322D01*
X42612394Y69727569D01*
X42914574Y69033878D01*
X43278803Y68297166D01*
X43486547Y67923570D01*
X43678205Y67578901D01*
X43678206Y67578900D01*
X44111830Y66880792D01*
X44567516Y66220617D01*
X44578683Y66204440D01*
X44578683Y66204439D01*
X45077660Y65551441D01*
X45607622Y64923289D01*
X45859494Y64652462D01*
X46167301Y64321489D01*
X46167307Y64321484D01*
X46167309Y64321481D01*
X46755409Y63747425D01*
X47370541Y63202465D01*
X48011308Y62687841D01*
X48011307Y62687841D01*
X48011313Y62687837D01*
X48316260Y62466280D01*
X48349748Y62441950D01*
X48392414Y62386620D01*
X48398393Y62317007D01*
X48365787Y62255212D01*
X48304949Y62220855D01*
X48235193Y62224843D01*
X48224462Y62229248D01*
X48215493Y62233430D01*
X48215486Y62233433D01*
X48002000Y62290636D01*
X48002000Y61395502D01*
X47894315Y61444680D01*
X47787763Y61460000D01*
X47716237Y61460000D01*
X47609685Y61444680D01*
X47502000Y61395502D01*
X47502000Y62290636D01*
X47501999Y62290636D01*
X47288513Y62233433D01*
X47288507Y62233430D01*
X47074422Y62133601D01*
X47074420Y62133600D01*
X46880926Y61998114D01*
X46765084Y61882272D01*
X46703761Y61848788D01*
X46634069Y61853772D01*
X46578136Y61895644D01*
X46561223Y61926616D01*
X46512889Y62056204D01*
X46425261Y62173261D01*
X46308204Y62260889D01*
X46171203Y62311989D01*
X46110654Y62318500D01*
X46110638Y62318500D01*
X44313362Y62318500D01*
X44313355Y62318500D01*
X44307364Y62317856D01*
X44238605Y62330268D01*
X44206438Y62353466D01*
X41459620Y65100285D01*
X41426135Y65161608D01*
X41423982Y65174988D01*
X41406542Y65340928D01*
X41347527Y65522556D01*
X41252040Y65687944D01*
X41124253Y65829866D01*
X40969752Y65942118D01*
X40795288Y66019794D01*
X40795286Y66019795D01*
X40608487Y66059500D01*
X40417513Y66059500D01*
X40360281Y66047335D01*
X40290614Y66052651D01*
X40234880Y66094788D01*
X40210775Y66160368D01*
X40210500Y66168625D01*
X40210500Y85618234D01*
X40230185Y85685273D01*
X40246819Y85705915D01*
X43575585Y89034681D01*
X43636908Y89068166D01*
X43663266Y89071000D01*
X43719987Y89071000D01*
X43906788Y89110706D01*
X44081252Y89188382D01*
X44235753Y89300634D01*
X44363540Y89442556D01*
X44459027Y89607944D01*
X44518042Y89789572D01*
X44538004Y89979500D01*
X44518042Y90169428D01*
X44459027Y90351056D01*
X44363540Y90516444D01*
X44235753Y90658366D01*
X44081252Y90770618D01*
X43906788Y90848294D01*
X43906786Y90848295D01*
X43719987Y90888000D01*
X43529013Y90888000D01*
X43342214Y90848295D01*
X43167746Y90770617D01*
X43013245Y90658365D01*
X42885459Y90516443D01*
X42789973Y90351057D01*
X42789970Y90351050D01*
X42730959Y90169432D01*
X42730958Y90169428D01*
X42723072Y90094396D01*
X42713519Y90003505D01*
X42686934Y89938891D01*
X42677879Y89928786D01*
X39972181Y87223087D01*
X39910858Y87189602D01*
X39841166Y87194586D01*
X39785233Y87236458D01*
X39760816Y87301922D01*
X39760500Y87310768D01*
X39760500Y89232235D01*
X39780185Y89299274D01*
X39796814Y89319911D01*
X45644009Y95167107D01*
X45705330Y95200590D01*
X45762143Y95199626D01*
X45766356Y95198559D01*
X45766365Y95198556D01*
X45988431Y95161500D01*
X46213569Y95161500D01*
X46435635Y95198556D01*
X46648574Y95271658D01*
X46846576Y95378811D01*
X47024240Y95517094D01*
X47176722Y95682732D01*
X47267193Y95821210D01*
X47320338Y95866563D01*
X47389569Y95875987D01*
X47452905Y95846485D01*
G37*
%TD.AperFunction*%
%TA.AperFunction,Conductor*%
G36*
X66936273Y97898815D02*
G01*
X66956915Y97882181D01*
X69251915Y95587181D01*
X69285400Y95525858D01*
X69280416Y95456166D01*
X69238544Y95400233D01*
X69173080Y95375816D01*
X69164234Y95375500D01*
X60253398Y95375500D01*
X60186359Y95395185D01*
X60140604Y95447989D01*
X60130660Y95517147D01*
X60137217Y95542835D01*
X60144596Y95562620D01*
X60144598Y95562628D01*
X60150999Y95622156D01*
X60151000Y95622173D01*
X60151000Y96270000D01*
X59234686Y96270000D01*
X59260493Y96310156D01*
X59301000Y96448111D01*
X59301000Y96591889D01*
X59260493Y96729844D01*
X59234686Y96770000D01*
X60151000Y96770000D01*
X60151000Y97417828D01*
X60150999Y97417845D01*
X60144598Y97477373D01*
X60144596Y97477380D01*
X60094354Y97612087D01*
X60094353Y97612089D01*
X60013429Y97720189D01*
X59989012Y97785653D01*
X60003863Y97853926D01*
X60053268Y97903332D01*
X60112696Y97918500D01*
X66869234Y97918500D01*
X66936273Y97898815D01*
G37*
%TD.AperFunction*%
%TA.AperFunction,Conductor*%
G36*
X32127000Y100839000D02*
G01*
X32107315Y100771961D01*
X32054511Y100726206D01*
X32003000Y100715000D01*
X31901624Y100715000D01*
X31974545Y100729505D01*
X32057240Y100784760D01*
X32112495Y100867455D01*
X32127000Y100940377D01*
X32127000Y100839000D01*
G37*
%TD.AperFunction*%
%TA.AperFunction,Conductor*%
G36*
X49141505Y100867455D02*
G01*
X49196760Y100784760D01*
X49279455Y100729505D01*
X49352376Y100715000D01*
X49251000Y100715000D01*
X49183961Y100734685D01*
X49138206Y100787489D01*
X49127000Y100839000D01*
X49127000Y100940377D01*
X49141505Y100867455D01*
G37*
%TD.AperFunction*%
%TA.AperFunction,Conductor*%
G36*
X92160539Y102738815D02*
G01*
X92206294Y102686011D01*
X92217500Y102634500D01*
X92217500Y88915327D01*
X92214857Y88828889D01*
X92214857Y88828883D01*
X92225839Y88765708D01*
X92226437Y88761363D01*
X92232925Y88697567D01*
X92232927Y88697558D01*
X92242374Y88667445D01*
X92244301Y88659500D01*
X92246868Y88644740D01*
X92249707Y88628413D01*
X92273182Y88568734D01*
X92274642Y88564600D01*
X92293841Y88503411D01*
X92309153Y88475824D01*
X92312643Y88468425D01*
X92324196Y88439058D01*
X92359208Y88385322D01*
X92361472Y88381563D01*
X92392590Y88325499D01*
X92413145Y88301556D01*
X92418054Y88295010D01*
X92435281Y88268571D01*
X92480398Y88222980D01*
X92483351Y88219776D01*
X92503321Y88196513D01*
X92525128Y88171111D01*
X92525131Y88171109D01*
X92525134Y88171105D01*
X92550094Y88151784D01*
X92556207Y88146372D01*
X116311639Y64140883D01*
X116344803Y64079386D01*
X116347500Y64053663D01*
X116347500Y1124500D01*
X116327815Y1057461D01*
X116275011Y1011706D01*
X116223500Y1000500D01*
X1124500Y1000500D01*
X1057461Y1020185D01*
X1011706Y1072989D01*
X1000500Y1124500D01*
X1000500Y4064000D01*
X1331747Y4064000D01*
X1350741Y3749977D01*
X1350741Y3749972D01*
X1350742Y3749971D01*
X1407451Y3440522D01*
X1407452Y3440518D01*
X1407453Y3440514D01*
X1501039Y3140184D01*
X1501043Y3140173D01*
X1501044Y3140170D01*
X1501046Y3140165D01*
X1630163Y2853279D01*
X1786386Y2594855D01*
X1792924Y2584040D01*
X1986942Y2336395D01*
X2209394Y2113943D01*
X2457039Y1919925D01*
X2457044Y1919922D01*
X2457048Y1919919D01*
X2726279Y1757163D01*
X3013165Y1628046D01*
X3013175Y1628043D01*
X3013183Y1628040D01*
X3105154Y1599381D01*
X3313522Y1534451D01*
X3622971Y1477742D01*
X3937000Y1458747D01*
X4251029Y1477742D01*
X4560478Y1534451D01*
X4860835Y1628046D01*
X5147721Y1757163D01*
X5416952Y1919919D01*
X5664602Y2113940D01*
X5887060Y2336398D01*
X5970107Y2442400D01*
X29125001Y2442400D01*
X29125001Y2185818D01*
X29131408Y2115298D01*
X29131409Y2115293D01*
X29181981Y1953004D01*
X29269927Y1807523D01*
X29390122Y1687328D01*
X29535604Y1599381D01*
X29535603Y1599381D01*
X29697894Y1548810D01*
X29697893Y1548810D01*
X29768408Y1542402D01*
X29768426Y1542401D01*
X29774999Y1542402D01*
X29775000Y1542402D01*
X29775000Y2442400D01*
X29125001Y2442400D01*
X5970107Y2442400D01*
X6024760Y2512160D01*
X6081075Y2584040D01*
X6081075Y2584042D01*
X6081081Y2584048D01*
X6243837Y2853279D01*
X6372954Y3140165D01*
X6466549Y3440522D01*
X6523258Y3749971D01*
X6542253Y4064000D01*
X6523258Y4378029D01*
X6466549Y4687478D01*
X6420449Y4835419D01*
X6372960Y4987817D01*
X6372956Y4987828D01*
X6372954Y4987835D01*
X6243837Y5274721D01*
X6081081Y5543952D01*
X6081078Y5543956D01*
X6081075Y5543961D01*
X5887057Y5791606D01*
X5664605Y6014058D01*
X5416960Y6208076D01*
X5414401Y6209623D01*
X5147721Y6370837D01*
X4860835Y6499954D01*
X4860830Y6499956D01*
X4860827Y6499957D01*
X4860816Y6499961D01*
X4560486Y6593547D01*
X4560482Y6593548D01*
X4560478Y6593549D01*
X4251029Y6650258D01*
X4251028Y6650259D01*
X4251023Y6650259D01*
X3937000Y6669253D01*
X3622976Y6650259D01*
X3563340Y6639331D01*
X3313522Y6593549D01*
X3313519Y6593549D01*
X3313513Y6593547D01*
X3013183Y6499961D01*
X3013172Y6499957D01*
X2726283Y6370839D01*
X2726281Y6370838D01*
X2457039Y6208076D01*
X2209394Y6014058D01*
X1986942Y5791606D01*
X1792924Y5543961D01*
X1755986Y5482858D01*
X1642725Y5295500D01*
X1630162Y5274719D01*
X1630161Y5274717D01*
X1601229Y5210433D01*
X1521736Y5033805D01*
X1501043Y4987828D01*
X1501039Y4987817D01*
X1407453Y4687487D01*
X1407451Y4687481D01*
X1407451Y4687478D01*
X1388338Y4583182D01*
X1350741Y4378024D01*
X1331747Y4064000D01*
X1000500Y4064000D01*
X1000500Y38174200D01*
X3289135Y38174200D01*
X3308993Y37352614D01*
X3368523Y36532931D01*
X3434383Y35990530D01*
X3467584Y35717097D01*
X3492060Y35573793D01*
X3564550Y35149360D01*
X3605945Y34906996D01*
X3783283Y34104526D01*
X3999184Y33311561D01*
X4253144Y32529953D01*
X4321661Y32349287D01*
X4544570Y31761522D01*
X4544571Y31761522D01*
X4872780Y31008078D01*
X5237009Y30271366D01*
X5456659Y29876359D01*
X5636411Y29553101D01*
X5636412Y29553100D01*
X6070036Y28854992D01*
X6291698Y28533859D01*
X6536889Y28178640D01*
X6536889Y28178639D01*
X7035866Y27525641D01*
X7565828Y26897489D01*
X7827825Y26615775D01*
X8125507Y26295689D01*
X8125513Y26295684D01*
X8125515Y26295681D01*
X8713615Y25721625D01*
X9328747Y25176665D01*
X9328756Y25176658D01*
X9328758Y25176656D01*
X9618334Y24944087D01*
X9969514Y24662041D01*
X9969513Y24662041D01*
X10469812Y24298553D01*
X10512478Y24243223D01*
X10518457Y24173610D01*
X10485851Y24111815D01*
X10425013Y24077458D01*
X10355257Y24081446D01*
X10344522Y24085853D01*
X10242492Y24133430D01*
X10242486Y24133433D01*
X10029000Y24190636D01*
X10029000Y23295502D01*
X9921315Y23344680D01*
X9814763Y23360000D01*
X9743237Y23360000D01*
X9636685Y23344680D01*
X9529000Y23295502D01*
X9529000Y24190636D01*
X9528999Y24190636D01*
X9315513Y24133433D01*
X9315507Y24133430D01*
X9101422Y24033601D01*
X9101420Y24033600D01*
X8907926Y23898114D01*
X8792084Y23782272D01*
X8730761Y23748788D01*
X8661069Y23753772D01*
X8605136Y23795644D01*
X8588223Y23826616D01*
X8539889Y23956204D01*
X8534739Y23963083D01*
X8485708Y24028581D01*
X8452261Y24073261D01*
X8335204Y24160889D01*
X8198203Y24211989D01*
X8137654Y24218500D01*
X8137638Y24218500D01*
X6340362Y24218500D01*
X6340345Y24218500D01*
X6279797Y24211989D01*
X6279795Y24211989D01*
X6142795Y24160889D01*
X6025739Y24073261D01*
X5938111Y23956205D01*
X5887011Y23819205D01*
X5887011Y23819203D01*
X5880500Y23758655D01*
X5880500Y21961346D01*
X5887011Y21900798D01*
X5887011Y21900796D01*
X5919609Y21813400D01*
X5938111Y21763796D01*
X6025739Y21646739D01*
X6142796Y21559111D01*
X6279799Y21508011D01*
X6307050Y21505082D01*
X6340345Y21501501D01*
X6340362Y21501500D01*
X7523234Y21501500D01*
X7590273Y21481815D01*
X7610915Y21465181D01*
X13081912Y15994183D01*
X13091816Y15981822D01*
X13092026Y15981995D01*
X13097001Y15975981D01*
X13148078Y15928016D01*
X13169224Y15906870D01*
X13169228Y15906867D01*
X13169230Y15906865D01*
X13172997Y15903943D01*
X13174813Y15902534D01*
X13179245Y15898748D01*
X13211159Y15868780D01*
X13213680Y15866413D01*
X13231562Y15856583D01*
X13247829Y15845898D01*
X13263960Y15833385D01*
X13285838Y15823919D01*
X13307307Y15814629D01*
X13312533Y15812069D01*
X13353940Y15789305D01*
X13373716Y15784228D01*
X13392124Y15777925D01*
X13410850Y15769821D01*
X13410852Y15769820D01*
X13410853Y15769820D01*
X13410855Y15769819D01*
X13451784Y15763337D01*
X13457503Y15762431D01*
X13463212Y15761249D01*
X13508970Y15749500D01*
X13529384Y15749500D01*
X13548783Y15747973D01*
X13568943Y15744780D01*
X13615966Y15749225D01*
X13621804Y15749500D01*
X22043370Y15749500D01*
X27094366Y15749500D01*
X27110113Y15747762D01*
X27110139Y15748032D01*
X27117905Y15747299D01*
X27117909Y15747298D01*
X27187958Y15749500D01*
X38027691Y15749500D01*
X38094730Y15729815D01*
X38119840Y15708473D01*
X38123747Y15704134D01*
X38278248Y15591882D01*
X38452712Y15514206D01*
X38639513Y15474500D01*
X38830487Y15474500D01*
X39017288Y15514206D01*
X39191752Y15591882D01*
X39346253Y15704134D01*
X39474040Y15846056D01*
X39569527Y16011444D01*
X39628542Y16193072D01*
X39648504Y16383000D01*
X39628542Y16572928D01*
X39569527Y16754556D01*
X39474040Y16919944D01*
X39346253Y17061866D01*
X39191752Y17174118D01*
X39017288Y17251794D01*
X39017286Y17251795D01*
X38830487Y17291500D01*
X38639513Y17291500D01*
X38452714Y17251795D01*
X38278246Y17174117D01*
X38123745Y17061865D01*
X38119840Y17057527D01*
X38060354Y17020879D01*
X38027691Y17016500D01*
X29006766Y17016500D01*
X28939727Y17036185D01*
X28893972Y17088989D01*
X28884028Y17158147D01*
X28913053Y17221703D01*
X28919085Y17228181D01*
X29762436Y18071532D01*
X32548579Y20857677D01*
X32609900Y20891160D01*
X32679592Y20886176D01*
X32735525Y20844304D01*
X32759578Y20782959D01*
X32761458Y20765072D01*
X32761459Y20765069D01*
X32820470Y20583451D01*
X32820473Y20583444D01*
X32915960Y20418056D01*
X33018290Y20304406D01*
X33033842Y20287134D01*
X33043747Y20276134D01*
X33198248Y20163882D01*
X33372712Y20086206D01*
X33559513Y20046500D01*
X33750487Y20046500D01*
X33937288Y20086206D01*
X34111752Y20163882D01*
X34266253Y20276134D01*
X34394040Y20418056D01*
X34489527Y20583444D01*
X34548542Y20765072D01*
X34565981Y20931003D01*
X34592564Y20995613D01*
X34601611Y21005709D01*
X38731821Y25135918D01*
X38793142Y25169401D01*
X38862834Y25164417D01*
X38918767Y25122545D01*
X38943184Y25057081D01*
X38943500Y25048235D01*
X38943500Y24650767D01*
X38923815Y24583728D01*
X38907181Y24563086D01*
X36243914Y21899819D01*
X36182591Y21866334D01*
X36156233Y21863500D01*
X36099513Y21863500D01*
X35912714Y21823795D01*
X35738246Y21746117D01*
X35583745Y21633865D01*
X35455959Y21491943D01*
X35360473Y21326557D01*
X35360470Y21326550D01*
X35305033Y21155932D01*
X35301458Y21144928D01*
X35281496Y20955000D01*
X35301458Y20765072D01*
X35301459Y20765069D01*
X35360470Y20583451D01*
X35360473Y20583444D01*
X35455960Y20418056D01*
X35558290Y20304406D01*
X35573842Y20287134D01*
X35583747Y20276134D01*
X35738248Y20163882D01*
X35912712Y20086206D01*
X36099513Y20046500D01*
X36290487Y20046500D01*
X36477288Y20086206D01*
X36651752Y20163882D01*
X36806253Y20276134D01*
X36934040Y20418056D01*
X37029527Y20583444D01*
X37088542Y20765072D01*
X37088542Y20765074D01*
X37089356Y20767578D01*
X37128793Y20825254D01*
X37193152Y20852452D01*
X37261998Y20840537D01*
X37313474Y20793293D01*
X37325218Y20767578D01*
X37381470Y20594451D01*
X37381473Y20594444D01*
X37476960Y20429056D01*
X37604747Y20287134D01*
X37759248Y20174882D01*
X37933712Y20097206D01*
X38120513Y20057500D01*
X38177234Y20057500D01*
X38244273Y20037815D01*
X38264915Y20021181D01*
X42868379Y15417716D01*
X42901864Y15356393D01*
X42904018Y15343001D01*
X42921458Y15177072D01*
X42921459Y15177069D01*
X42980470Y14995451D01*
X42980473Y14995444D01*
X43075960Y14830056D01*
X43203747Y14688134D01*
X43358248Y14575882D01*
X43532712Y14498206D01*
X43719513Y14458500D01*
X43910487Y14458500D01*
X44097288Y14498206D01*
X44271752Y14575882D01*
X44426253Y14688134D01*
X44554040Y14830056D01*
X44649527Y14995444D01*
X44708542Y15177072D01*
X44728504Y15367000D01*
X44708542Y15556928D01*
X44659440Y15708045D01*
X44657446Y15777884D01*
X44693526Y15837717D01*
X44756227Y15868545D01*
X44825641Y15860581D01*
X44865053Y15834042D01*
X45281379Y15417716D01*
X45314864Y15356393D01*
X45317018Y15343001D01*
X45334458Y15177072D01*
X45334459Y15177069D01*
X45393470Y14995451D01*
X45393473Y14995444D01*
X45488960Y14830056D01*
X45616747Y14688134D01*
X45771248Y14575882D01*
X45945712Y14498206D01*
X46132513Y14458500D01*
X46323487Y14458500D01*
X46510288Y14498206D01*
X46684752Y14575882D01*
X46839253Y14688134D01*
X46967040Y14830056D01*
X47062527Y14995444D01*
X47121542Y15177072D01*
X47141504Y15367000D01*
X47121542Y15556928D01*
X47062527Y15738556D01*
X46967040Y15903944D01*
X46839253Y16045866D01*
X46684752Y16158118D01*
X46510288Y16235794D01*
X46510286Y16235795D01*
X46323487Y16275500D01*
X46266766Y16275500D01*
X46199727Y16295185D01*
X46179085Y16311819D01*
X45551867Y16939037D01*
X45518382Y17000360D01*
X45523366Y17070052D01*
X45565238Y17125985D01*
X45566592Y17126985D01*
X45670853Y17202734D01*
X45798640Y17344656D01*
X45894127Y17510044D01*
X45953142Y17691672D01*
X45973104Y17881600D01*
X45953142Y18071528D01*
X45894127Y18253156D01*
X45823514Y18375461D01*
X45798641Y18418543D01*
X45798636Y18418550D01*
X45724950Y18500387D01*
X45694720Y18563379D01*
X45693100Y18583359D01*
X45693100Y21504500D01*
X45712785Y21571539D01*
X45765589Y21617294D01*
X45817100Y21628500D01*
X46110638Y21628500D01*
X46110654Y21628501D01*
X46137692Y21631409D01*
X46171201Y21635011D01*
X46308204Y21686111D01*
X46425261Y21773739D01*
X46512889Y21890796D01*
X46561223Y22020385D01*
X46603093Y22076314D01*
X46668557Y22100731D01*
X46736830Y22085879D01*
X46765084Y22064728D01*
X46880917Y21948895D01*
X47074421Y21813400D01*
X47288507Y21713571D01*
X47288516Y21713567D01*
X47502000Y21656366D01*
X47502000Y22551499D01*
X47609685Y22502320D01*
X47716237Y22487000D01*
X47787763Y22487000D01*
X47894315Y22502320D01*
X48002000Y22551499D01*
X48002000Y21656367D01*
X48215483Y21713567D01*
X48215492Y21713571D01*
X48429578Y21813400D01*
X48623082Y21948895D01*
X48790105Y22115918D01*
X48925600Y22309422D01*
X49025429Y22523508D01*
X49025432Y22523514D01*
X49082636Y22737000D01*
X48185686Y22737000D01*
X48211493Y22777156D01*
X48252000Y22915111D01*
X48252000Y23058889D01*
X48211493Y23196844D01*
X48185686Y23237000D01*
X49082636Y23237000D01*
X49082635Y23237001D01*
X49025432Y23450487D01*
X49025429Y23450493D01*
X48925600Y23664578D01*
X48925599Y23664580D01*
X48841401Y23784827D01*
X48819074Y23851033D01*
X48836084Y23918800D01*
X48887032Y23966613D01*
X48955742Y23979291D01*
X49010928Y23959673D01*
X49363626Y23728603D01*
X49363637Y23728597D01*
X49363644Y23728592D01*
X49836488Y23450493D01*
X50072020Y23311967D01*
X50324573Y23179417D01*
X50799717Y22930042D01*
X50799716Y22930043D01*
X51545020Y22583719D01*
X52160665Y22333058D01*
X52306173Y22273814D01*
X53081416Y22001042D01*
X53868933Y21766043D01*
X54666883Y21569365D01*
X55473404Y21411470D01*
X56286612Y21292724D01*
X56286618Y21292724D01*
X56286628Y21292722D01*
X57104607Y21213406D01*
X57104606Y21213406D01*
X57925470Y21173700D01*
X57925478Y21173700D01*
X58747318Y21173700D01*
X59568182Y21213406D01*
X59568181Y21213406D01*
X60386160Y21292722D01*
X60386169Y21292724D01*
X60386176Y21292724D01*
X61199384Y21411470D01*
X62005905Y21569365D01*
X62803855Y21766043D01*
X63591372Y22001042D01*
X64366615Y22273814D01*
X64512123Y22333058D01*
X65127768Y22583719D01*
X65873072Y22930043D01*
X65873071Y22930042D01*
X66348215Y23179417D01*
X66600768Y23311967D01*
X66836300Y23450493D01*
X67309144Y23728592D01*
X67309150Y23728597D01*
X67309162Y23728603D01*
X67996599Y24178977D01*
X67996601Y24178979D01*
X67996601Y24178978D01*
X68661481Y24662041D01*
X68661480Y24662041D01*
X69138802Y25045397D01*
X69203396Y25072028D01*
X69272135Y25059509D01*
X69323194Y25011815D01*
X69340362Y24944087D01*
X69318188Y24877829D01*
X69304129Y24861036D01*
X67048179Y22605086D01*
X67035820Y22595182D01*
X67035993Y22594973D01*
X67029983Y22590001D01*
X67029982Y22590001D01*
X67029982Y22590000D01*
X67024084Y22583719D01*
X66982016Y22538922D01*
X66960872Y22517778D01*
X66960857Y22517761D01*
X66956531Y22512186D01*
X66952747Y22507756D01*
X66920419Y22473329D01*
X66920412Y22473319D01*
X66910579Y22455433D01*
X66899903Y22439180D01*
X66887386Y22423043D01*
X66887385Y22423041D01*
X66868625Y22379690D01*
X66866055Y22374444D01*
X66843303Y22333059D01*
X66843303Y22333058D01*
X66838225Y22313280D01*
X66831925Y22294878D01*
X66823818Y22276143D01*
X66816431Y22229505D01*
X66815246Y22223784D01*
X66803500Y22178035D01*
X66803500Y22157616D01*
X66801973Y22138217D01*
X66798780Y22118059D01*
X66798780Y22118058D01*
X66803225Y22071034D01*
X66803500Y22065196D01*
X66803500Y14410767D01*
X66783815Y14343728D01*
X66767181Y14323086D01*
X65051914Y12607819D01*
X64990591Y12574334D01*
X64964233Y12571500D01*
X27947434Y12571500D01*
X27931686Y12573239D01*
X27931661Y12572968D01*
X27923894Y12573702D01*
X27923891Y12573702D01*
X27853842Y12571500D01*
X27823937Y12571500D01*
X27816943Y12570616D01*
X27811120Y12570158D01*
X27763911Y12568674D01*
X27763908Y12568673D01*
X27744305Y12562978D01*
X27725259Y12559034D01*
X27705003Y12556474D01*
X27705001Y12556474D01*
X27704999Y12556473D01*
X27661082Y12539086D01*
X27655556Y12537194D01*
X27610206Y12524018D01*
X27592633Y12513626D01*
X27575170Y12505071D01*
X27556185Y12497554D01*
X27556183Y12497553D01*
X27517979Y12469796D01*
X27513096Y12466588D01*
X27472437Y12442542D01*
X27457996Y12428102D01*
X27443208Y12415473D01*
X27426697Y12403477D01*
X27426692Y12403472D01*
X27396590Y12367086D01*
X27392658Y12362764D01*
X23536714Y8506819D01*
X23475391Y8473334D01*
X23449033Y8470500D01*
X23382431Y8470500D01*
X23160362Y8433444D01*
X22947430Y8360344D01*
X22947419Y8360339D01*
X22749427Y8253192D01*
X22749422Y8253188D01*
X22571761Y8114908D01*
X22502092Y8039227D01*
X22442205Y8003237D01*
X22372367Y8005338D01*
X22314751Y8044863D01*
X22294681Y8079878D01*
X22248354Y8204087D01*
X22248350Y8204094D01*
X22162190Y8319188D01*
X22162187Y8319191D01*
X22047093Y8405351D01*
X22047086Y8405355D01*
X21912379Y8455597D01*
X21912372Y8455599D01*
X21852844Y8462000D01*
X21205000Y8462000D01*
X21205000Y7547502D01*
X21097315Y7596680D01*
X20990763Y7612000D01*
X20919237Y7612000D01*
X20812685Y7596680D01*
X20705000Y7547502D01*
X20705000Y8462000D01*
X20057155Y8462000D01*
X19997627Y8455599D01*
X19997620Y8455597D01*
X19862913Y8405355D01*
X19862906Y8405351D01*
X19747812Y8319191D01*
X19747809Y8319188D01*
X19661649Y8204094D01*
X19661645Y8204087D01*
X19611403Y8069380D01*
X19611401Y8069373D01*
X19605000Y8009845D01*
X19605000Y7362000D01*
X20521314Y7362000D01*
X20495507Y7321844D01*
X20455000Y7183889D01*
X20455000Y7040111D01*
X20495507Y6902156D01*
X20521314Y6862000D01*
X19605000Y6862000D01*
X19605000Y6214156D01*
X19611401Y6154628D01*
X19611403Y6154621D01*
X19661645Y6019914D01*
X19661649Y6019907D01*
X19747809Y5904813D01*
X19747812Y5904810D01*
X19862906Y5818650D01*
X19862913Y5818646D01*
X19997620Y5768404D01*
X19997627Y5768402D01*
X20057155Y5762001D01*
X20057172Y5762000D01*
X20705000Y5762000D01*
X20705000Y6676499D01*
X20812685Y6627320D01*
X20919237Y6612000D01*
X20990763Y6612000D01*
X21097315Y6627320D01*
X21205000Y6676499D01*
X21205000Y5762000D01*
X21852828Y5762000D01*
X21852844Y5762001D01*
X21912372Y5768402D01*
X21912379Y5768404D01*
X22047086Y5818646D01*
X22047093Y5818650D01*
X22162187Y5904810D01*
X22162190Y5904813D01*
X22248350Y6019907D01*
X22248354Y6019914D01*
X22294681Y6144123D01*
X22336552Y6200057D01*
X22402016Y6224474D01*
X22470289Y6209623D01*
X22502089Y6184777D01*
X22571760Y6109094D01*
X22749424Y5970811D01*
X22749425Y5970811D01*
X22749427Y5970809D01*
X22871378Y5904813D01*
X22947426Y5863658D01*
X23160365Y5790556D01*
X23382431Y5753500D01*
X23607569Y5753500D01*
X23829630Y5790555D01*
X23829631Y5790556D01*
X23829635Y5790556D01*
X23829637Y5790558D01*
X23833849Y5791624D01*
X23903669Y5789012D01*
X23951990Y5759106D01*
X24960950Y4750145D01*
X25934312Y3776783D01*
X25944216Y3764422D01*
X25944426Y3764595D01*
X25949401Y3758581D01*
X26000478Y3710616D01*
X26021624Y3689470D01*
X26027213Y3685134D01*
X26031645Y3681348D01*
X26055222Y3659209D01*
X26066080Y3649013D01*
X26083962Y3639183D01*
X26100229Y3628498D01*
X26116360Y3615985D01*
X26138238Y3606519D01*
X26159707Y3597229D01*
X26164933Y3594669D01*
X26206340Y3571905D01*
X26226116Y3566828D01*
X26244523Y3560526D01*
X26248408Y3558844D01*
X26263250Y3552421D01*
X26263252Y3552420D01*
X26263253Y3552420D01*
X26263255Y3552419D01*
X26304184Y3545937D01*
X26309903Y3545031D01*
X26315612Y3543849D01*
X26361370Y3532100D01*
X26381784Y3532100D01*
X26401183Y3530573D01*
X26421343Y3527380D01*
X26468366Y3531825D01*
X26474204Y3532100D01*
X29044716Y3532100D01*
X29111755Y3512415D01*
X29157510Y3459611D01*
X29167454Y3390453D01*
X29163102Y3371210D01*
X29131408Y3269502D01*
X29125000Y3198973D01*
X29125000Y2942400D01*
X30000376Y2942400D01*
X29927455Y2927895D01*
X29844760Y2872640D01*
X29789505Y2789945D01*
X29770102Y2692400D01*
X29789505Y2594855D01*
X29844760Y2512160D01*
X29927455Y2456905D01*
X30000376Y2442400D01*
X30049624Y2442400D01*
X30122545Y2456905D01*
X30205240Y2512160D01*
X30260495Y2594855D01*
X30275000Y2667777D01*
X30275000Y1542401D01*
X30281581Y1542401D01*
X30352102Y1548809D01*
X30352107Y1548810D01*
X30514396Y1599382D01*
X30648799Y1680631D01*
X30716353Y1698467D01*
X30782827Y1676950D01*
X30785813Y1674848D01*
X30818248Y1651282D01*
X30992712Y1573606D01*
X31179513Y1533900D01*
X31370487Y1533900D01*
X31557288Y1573606D01*
X31731752Y1651282D01*
X31827114Y1720568D01*
X31892920Y1744048D01*
X31960974Y1728223D01*
X31972886Y1720567D01*
X32068242Y1651286D01*
X32068243Y1651285D01*
X32068245Y1651284D01*
X32068248Y1651282D01*
X32242712Y1573606D01*
X32429513Y1533900D01*
X32620487Y1533900D01*
X32807288Y1573606D01*
X32981752Y1651282D01*
X33077114Y1720568D01*
X33142920Y1744048D01*
X33210974Y1728223D01*
X33222886Y1720567D01*
X33318242Y1651286D01*
X33318243Y1651285D01*
X33318245Y1651284D01*
X33318248Y1651282D01*
X33492712Y1573606D01*
X33679513Y1533900D01*
X33870487Y1533900D01*
X34057288Y1573606D01*
X34231752Y1651282D01*
X34327114Y1720568D01*
X34392920Y1744048D01*
X34460974Y1728223D01*
X34472886Y1720567D01*
X34568242Y1651286D01*
X34568243Y1651285D01*
X34568245Y1651284D01*
X34568248Y1651282D01*
X34742712Y1573606D01*
X34929513Y1533900D01*
X35120487Y1533900D01*
X35307288Y1573606D01*
X35481752Y1651282D01*
X35577114Y1720568D01*
X35642920Y1744048D01*
X35710974Y1728223D01*
X35722886Y1720567D01*
X35818242Y1651286D01*
X35818243Y1651285D01*
X35818245Y1651284D01*
X35818248Y1651282D01*
X35992712Y1573606D01*
X36179513Y1533900D01*
X36370487Y1533900D01*
X36557288Y1573606D01*
X36731752Y1651282D01*
X36827114Y1720568D01*
X36892920Y1744048D01*
X36960974Y1728223D01*
X36972886Y1720567D01*
X37068242Y1651286D01*
X37068243Y1651285D01*
X37068245Y1651284D01*
X37068248Y1651282D01*
X37242712Y1573606D01*
X37429513Y1533900D01*
X37620487Y1533900D01*
X37807288Y1573606D01*
X37981752Y1651282D01*
X38077114Y1720568D01*
X38142920Y1744048D01*
X38210974Y1728223D01*
X38222886Y1720567D01*
X38318242Y1651286D01*
X38318243Y1651285D01*
X38318245Y1651284D01*
X38318248Y1651282D01*
X38492712Y1573606D01*
X38679513Y1533900D01*
X38870487Y1533900D01*
X39057288Y1573606D01*
X39231752Y1651282D01*
X39327114Y1720568D01*
X39392920Y1744048D01*
X39460974Y1728223D01*
X39472886Y1720567D01*
X39568242Y1651286D01*
X39568243Y1651285D01*
X39568245Y1651284D01*
X39568248Y1651282D01*
X39742712Y1573606D01*
X39929513Y1533900D01*
X40120487Y1533900D01*
X40307288Y1573606D01*
X40481752Y1651282D01*
X40577114Y1720568D01*
X40642920Y1744048D01*
X40710974Y1728223D01*
X40722886Y1720567D01*
X40818242Y1651286D01*
X40818243Y1651285D01*
X40818245Y1651284D01*
X40818248Y1651282D01*
X40992712Y1573606D01*
X41179513Y1533900D01*
X41370487Y1533900D01*
X41557288Y1573606D01*
X41731752Y1651282D01*
X41827114Y1720568D01*
X41892920Y1744048D01*
X41960974Y1728223D01*
X41972886Y1720567D01*
X42068242Y1651286D01*
X42068243Y1651285D01*
X42068245Y1651284D01*
X42068248Y1651282D01*
X42242712Y1573606D01*
X42429513Y1533900D01*
X42620487Y1533900D01*
X42807288Y1573606D01*
X42981752Y1651282D01*
X43077114Y1720568D01*
X43142920Y1744048D01*
X43210974Y1728223D01*
X43222886Y1720567D01*
X43318242Y1651286D01*
X43318243Y1651285D01*
X43318245Y1651284D01*
X43318248Y1651282D01*
X43492712Y1573606D01*
X43679513Y1533900D01*
X43870487Y1533900D01*
X44057288Y1573606D01*
X44231752Y1651282D01*
X44327114Y1720568D01*
X44392920Y1744048D01*
X44460974Y1728223D01*
X44472886Y1720567D01*
X44568242Y1651286D01*
X44568243Y1651285D01*
X44568245Y1651284D01*
X44568248Y1651282D01*
X44742712Y1573606D01*
X44929513Y1533900D01*
X45120487Y1533900D01*
X45307288Y1573606D01*
X45481752Y1651282D01*
X45577114Y1720568D01*
X45642920Y1744048D01*
X45710974Y1728223D01*
X45722886Y1720567D01*
X45818242Y1651286D01*
X45818243Y1651285D01*
X45818245Y1651284D01*
X45818248Y1651282D01*
X45992712Y1573606D01*
X46179513Y1533900D01*
X46370487Y1533900D01*
X46557288Y1573606D01*
X46731752Y1651282D01*
X46834344Y1725821D01*
X46900150Y1749301D01*
X46968204Y1733476D01*
X46980116Y1725821D01*
X47072522Y1658683D01*
X47245356Y1581734D01*
X47274999Y1575434D01*
X47275000Y1575434D01*
X47275000Y2667777D01*
X47289505Y2594855D01*
X47344760Y2512160D01*
X47427455Y2456905D01*
X47500376Y2442400D01*
X47549624Y2442400D01*
X47775000Y2442400D01*
X47775000Y1575434D01*
X47804643Y1581734D01*
X47977479Y1658686D01*
X48130535Y1769888D01*
X48257127Y1910482D01*
X48257129Y1910485D01*
X48351716Y2074316D01*
X48351721Y2074328D01*
X48410180Y2254246D01*
X48425000Y2395241D01*
X48425000Y2442400D01*
X47775000Y2442400D01*
X47549624Y2442400D01*
X47622545Y2456905D01*
X47705240Y2512160D01*
X47760495Y2594855D01*
X47779898Y2692400D01*
X47760495Y2789945D01*
X47705240Y2872640D01*
X47622545Y2927895D01*
X47549624Y2942400D01*
X48425000Y2942400D01*
X48425000Y2989560D01*
X48410180Y3130555D01*
X48351721Y3310473D01*
X48351719Y3310477D01*
X48316488Y3371501D01*
X48300017Y3439401D01*
X48322869Y3505428D01*
X48377791Y3548618D01*
X48423876Y3557500D01*
X50970366Y3557500D01*
X50986113Y3555762D01*
X50986139Y3556032D01*
X50993905Y3555299D01*
X50993909Y3555298D01*
X51063958Y3557500D01*
X51093856Y3557500D01*
X51093857Y3557500D01*
X51095222Y3557673D01*
X51100862Y3558386D01*
X51106685Y3558844D01*
X51132708Y3559662D01*
X51153890Y3560327D01*
X51163681Y3563173D01*
X51173481Y3566020D01*
X51192538Y3569968D01*
X51212797Y3572526D01*
X51256721Y3589918D01*
X51262221Y3591801D01*
X51307593Y3604982D01*
X51325165Y3615375D01*
X51342632Y3623932D01*
X51361617Y3631448D01*
X51399826Y3659210D01*
X51404704Y3662415D01*
X51445362Y3686458D01*
X51459802Y3700900D01*
X51474592Y3713530D01*
X51491107Y3725528D01*
X51521222Y3761933D01*
X51525126Y3766224D01*
X53518009Y5759106D01*
X53579330Y5792589D01*
X53636128Y5791629D01*
X53640359Y5790558D01*
X53640365Y5790556D01*
X53862431Y5753500D01*
X54087569Y5753500D01*
X54309635Y5790556D01*
X54522574Y5863658D01*
X54720576Y5970811D01*
X54898240Y6109094D01*
X55019594Y6240918D01*
X55050715Y6274724D01*
X55050715Y6274725D01*
X55050722Y6274732D01*
X55144749Y6418653D01*
X55197894Y6464006D01*
X55267125Y6473430D01*
X55330461Y6443928D01*
X55350130Y6421952D01*
X55476890Y6240922D01*
X55643917Y6073895D01*
X55837421Y5938400D01*
X56051507Y5838571D01*
X56051516Y5838567D01*
X56265000Y5781366D01*
X56265000Y6676499D01*
X56372685Y6627320D01*
X56479237Y6612000D01*
X56550763Y6612000D01*
X56657315Y6627320D01*
X56765000Y6676499D01*
X56765000Y5781367D01*
X56978483Y5838567D01*
X56978492Y5838571D01*
X57192578Y5938400D01*
X57386082Y6073895D01*
X57553105Y6240918D01*
X57688600Y6434422D01*
X57788429Y6648508D01*
X57788432Y6648514D01*
X57845636Y6862000D01*
X56948686Y6862000D01*
X56974493Y6902156D01*
X57015000Y7040111D01*
X57015000Y7183889D01*
X56974493Y7321844D01*
X56948686Y7362000D01*
X57845636Y7362000D01*
X57845635Y7362001D01*
X57788432Y7575487D01*
X57788429Y7575493D01*
X57688600Y7789578D01*
X57688599Y7789580D01*
X57553113Y7983074D01*
X57553108Y7983080D01*
X57386082Y8150106D01*
X57192578Y8285601D01*
X56978492Y8385430D01*
X56978486Y8385433D01*
X56765000Y8442636D01*
X56765000Y7547502D01*
X56657315Y7596680D01*
X56550763Y7612000D01*
X56479237Y7612000D01*
X56372685Y7596680D01*
X56265000Y7547502D01*
X56265000Y8442636D01*
X56264999Y8442636D01*
X56051513Y8385433D01*
X56051507Y8385430D01*
X55837422Y8285601D01*
X55837420Y8285600D01*
X55643926Y8150114D01*
X55643920Y8150109D01*
X55476891Y7983080D01*
X55476890Y7983078D01*
X55350131Y7802048D01*
X55295554Y7758423D01*
X55226055Y7751231D01*
X55163701Y7782753D01*
X55144752Y7805344D01*
X55050722Y7949268D01*
X55050715Y7949275D01*
X55050715Y7949277D01*
X54898243Y8114903D01*
X54898238Y8114908D01*
X54720577Y8253188D01*
X54720572Y8253192D01*
X54522580Y8360339D01*
X54522577Y8360341D01*
X54522574Y8360342D01*
X54522571Y8360343D01*
X54522569Y8360344D01*
X54309637Y8433444D01*
X54087569Y8470500D01*
X53862431Y8470500D01*
X53640362Y8433444D01*
X53427430Y8360344D01*
X53427419Y8360339D01*
X53229427Y8253192D01*
X53229422Y8253188D01*
X53051761Y8114908D01*
X53051756Y8114903D01*
X52899284Y7949277D01*
X52899276Y7949266D01*
X52808808Y7810794D01*
X52755662Y7765438D01*
X52686431Y7756014D01*
X52623095Y7785516D01*
X52601192Y7810794D01*
X52510723Y7949266D01*
X52510715Y7949277D01*
X52358243Y8114903D01*
X52358238Y8114908D01*
X52180577Y8253188D01*
X52180572Y8253192D01*
X51982580Y8360339D01*
X51982577Y8360341D01*
X51982574Y8360342D01*
X51982571Y8360343D01*
X51982569Y8360344D01*
X51769637Y8433444D01*
X51547569Y8470500D01*
X51322431Y8470500D01*
X51100362Y8433444D01*
X50887430Y8360344D01*
X50887419Y8360339D01*
X50689427Y8253192D01*
X50689422Y8253188D01*
X50511761Y8114908D01*
X50511756Y8114903D01*
X50359284Y7949277D01*
X50359276Y7949266D01*
X50268808Y7810794D01*
X50215662Y7765438D01*
X50146431Y7756014D01*
X50083095Y7785516D01*
X50061191Y7810795D01*
X50009576Y7889798D01*
X49989389Y7956687D01*
X50008569Y8023873D01*
X50025704Y8045300D01*
X50351987Y8371582D01*
X50708586Y8728181D01*
X50769909Y8761666D01*
X50796267Y8764500D01*
X66591366Y8764500D01*
X66607113Y8762762D01*
X66607139Y8763032D01*
X66614905Y8762299D01*
X66614909Y8762298D01*
X66684958Y8764500D01*
X66714856Y8764500D01*
X66714857Y8764500D01*
X66716222Y8764673D01*
X66721862Y8765386D01*
X66727685Y8765844D01*
X66753708Y8766662D01*
X66774890Y8767327D01*
X66784681Y8770173D01*
X66794481Y8773020D01*
X66813538Y8776968D01*
X66833797Y8779526D01*
X66877721Y8796918D01*
X66883221Y8798801D01*
X66928593Y8811982D01*
X66946165Y8822375D01*
X66963632Y8830932D01*
X66982617Y8838448D01*
X67020826Y8866210D01*
X67025704Y8869415D01*
X67066362Y8893458D01*
X67080802Y8907900D01*
X67095592Y8920530D01*
X67112107Y8932528D01*
X67142222Y8968933D01*
X67146126Y8973224D01*
X70436085Y12263181D01*
X70497408Y12296666D01*
X70523766Y12299500D01*
X70580487Y12299500D01*
X70767288Y12339206D01*
X70941752Y12416882D01*
X71096253Y12529134D01*
X71224040Y12671056D01*
X71319527Y12836444D01*
X71378542Y13018072D01*
X71398504Y13208000D01*
X71378542Y13397928D01*
X71319527Y13579556D01*
X71224040Y13744944D01*
X71096253Y13886866D01*
X70941752Y13999118D01*
X70767288Y14076794D01*
X70767286Y14076795D01*
X70580487Y14116500D01*
X70389513Y14116500D01*
X70202714Y14076795D01*
X70202712Y14076794D01*
X70028248Y13999118D01*
X70028246Y13999117D01*
X70022935Y13996752D01*
X69953685Y13987468D01*
X69890409Y14017096D01*
X69853196Y14076231D01*
X69848500Y14110032D01*
X69848500Y21653047D01*
X69868185Y21720086D01*
X69884814Y21740723D01*
X76649450Y28505360D01*
X76710771Y28538843D01*
X76780463Y28533859D01*
X76836396Y28491987D01*
X76860813Y28426523D01*
X76845961Y28358250D01*
X76842463Y28352250D01*
X76529812Y27848900D01*
X76529811Y27848899D01*
X76529805Y27848888D01*
X76130409Y27130634D01*
X76130404Y27130625D01*
X76130404Y27130624D01*
X75766180Y26393922D01*
X75437971Y25640478D01*
X75437970Y25640478D01*
X75314499Y25314909D01*
X75146544Y24872047D01*
X74892584Y24090439D01*
X74676684Y23297479D01*
X74644295Y23150916D01*
X74505646Y22523514D01*
X74499344Y22494999D01*
X74441721Y22157616D01*
X74360984Y21684903D01*
X74354926Y21635012D01*
X74261923Y20869069D01*
X74202393Y20049386D01*
X74182535Y19227800D01*
X74202393Y18406214D01*
X74261923Y17586531D01*
X74360984Y16770698D01*
X74493608Y15994183D01*
X74499345Y15960596D01*
X74676683Y15158126D01*
X74892584Y14365161D01*
X75146544Y13583553D01*
X75148060Y13579556D01*
X75437970Y12815122D01*
X75437971Y12815122D01*
X75678403Y12263181D01*
X75766180Y12061678D01*
X76130409Y11324966D01*
X76255896Y11099297D01*
X76529811Y10606701D01*
X76529812Y10606700D01*
X76599306Y10494819D01*
X76963436Y9908592D01*
X77314367Y9400181D01*
X77430289Y9232240D01*
X77430289Y9232239D01*
X77929266Y8579241D01*
X77929272Y8579234D01*
X77929275Y8579230D01*
X78041851Y8445797D01*
X78459228Y7951089D01*
X78774584Y7612000D01*
X79018907Y7349289D01*
X79018913Y7349284D01*
X79018915Y7349281D01*
X79607015Y6775225D01*
X80222147Y6230265D01*
X80222156Y6230258D01*
X80222158Y6230256D01*
X80767105Y5792589D01*
X80862914Y5715641D01*
X80862913Y5715641D01*
X81322390Y5381812D01*
X81365056Y5326482D01*
X81371035Y5256869D01*
X81338429Y5195074D01*
X81277591Y5160717D01*
X81207835Y5164705D01*
X81197101Y5169112D01*
X81108497Y5210429D01*
X81108486Y5210433D01*
X80895000Y5267636D01*
X80895000Y4372502D01*
X80787315Y4421680D01*
X80680763Y4437000D01*
X80609237Y4437000D01*
X80502685Y4421680D01*
X80395000Y4372502D01*
X80395000Y5267636D01*
X80394999Y5267636D01*
X80181513Y5210433D01*
X80181507Y5210430D01*
X79967422Y5110601D01*
X79967420Y5110600D01*
X79773926Y4975114D01*
X79658084Y4859272D01*
X79596761Y4825788D01*
X79527069Y4830772D01*
X79471136Y4872644D01*
X79454223Y4903616D01*
X79405889Y5033204D01*
X79403660Y5036181D01*
X79386556Y5059030D01*
X79318261Y5150261D01*
X79201204Y5237889D01*
X79064203Y5288989D01*
X79003654Y5295500D01*
X79003638Y5295500D01*
X77206362Y5295500D01*
X77206345Y5295500D01*
X77145797Y5288989D01*
X77145795Y5288989D01*
X77008795Y5237889D01*
X76891739Y5150261D01*
X76804111Y5033205D01*
X76753011Y4896205D01*
X76753011Y4896203D01*
X76746500Y4835655D01*
X76746500Y3038346D01*
X76753011Y2977798D01*
X76753011Y2977796D01*
X76799453Y2853284D01*
X76804111Y2840796D01*
X76891739Y2723739D01*
X77008796Y2636111D01*
X77145799Y2585011D01*
X77173050Y2582082D01*
X77206345Y2578501D01*
X77206362Y2578500D01*
X79003638Y2578500D01*
X79003654Y2578501D01*
X79030692Y2581409D01*
X79064201Y2585011D01*
X79201204Y2636111D01*
X79318261Y2723739D01*
X79405889Y2840796D01*
X79454223Y2970385D01*
X79496093Y3026314D01*
X79561557Y3050731D01*
X79629830Y3035879D01*
X79658084Y3014728D01*
X79773917Y2898895D01*
X79967421Y2763400D01*
X80181507Y2663571D01*
X80181516Y2663567D01*
X80395000Y2606366D01*
X80395000Y3501499D01*
X80502685Y3452320D01*
X80609237Y3437000D01*
X80680763Y3437000D01*
X80787315Y3452320D01*
X80895000Y3501499D01*
X80895000Y2606367D01*
X81108483Y2663567D01*
X81108492Y2663571D01*
X81322578Y2763400D01*
X81516082Y2898895D01*
X81683105Y3065918D01*
X81818600Y3259422D01*
X81918429Y3473508D01*
X81918432Y3473514D01*
X81975636Y3687000D01*
X81078686Y3687000D01*
X81104493Y3727156D01*
X81145000Y3865111D01*
X81145000Y4008889D01*
X81104493Y4146844D01*
X81078686Y4187000D01*
X81975636Y4187000D01*
X81975635Y4187001D01*
X81918432Y4400487D01*
X81918429Y4400493D01*
X81818600Y4614578D01*
X81818599Y4614580D01*
X81683113Y4808074D01*
X81683108Y4808080D01*
X81597920Y4893268D01*
X81564435Y4954591D01*
X81569419Y5024283D01*
X81611291Y5080216D01*
X81676755Y5104633D01*
X81745028Y5089781D01*
X81753545Y5084677D01*
X82215232Y4782203D01*
X82215243Y4782197D01*
X82215250Y4782192D01*
X82715608Y4487911D01*
X82923626Y4365567D01*
X83202578Y4219162D01*
X83651323Y3983642D01*
X83651322Y3983643D01*
X84396626Y3637319D01*
X84879996Y3440514D01*
X85157779Y3327414D01*
X85933022Y3054642D01*
X86720539Y2819643D01*
X87518489Y2622965D01*
X88325010Y2465070D01*
X89138218Y2346324D01*
X89138224Y2346324D01*
X89138234Y2346322D01*
X89956213Y2267006D01*
X89956212Y2267006D01*
X90777076Y2227300D01*
X90777084Y2227300D01*
X91598924Y2227300D01*
X92419788Y2267006D01*
X92419787Y2267006D01*
X93237766Y2346322D01*
X93237775Y2346324D01*
X93237782Y2346324D01*
X94050990Y2465070D01*
X94857511Y2622965D01*
X95655461Y2819643D01*
X96442978Y3054642D01*
X97218221Y3327414D01*
X97496004Y3440514D01*
X97979374Y3637319D01*
X98724678Y3983643D01*
X98724677Y3983642D01*
X98877786Y4064000D01*
X110678747Y4064000D01*
X110697741Y3749977D01*
X110697741Y3749972D01*
X110697742Y3749971D01*
X110754451Y3440522D01*
X110754452Y3440518D01*
X110754453Y3440514D01*
X110848039Y3140184D01*
X110848043Y3140173D01*
X110848044Y3140170D01*
X110848046Y3140165D01*
X110977163Y2853279D01*
X111133386Y2594855D01*
X111139924Y2584040D01*
X111333942Y2336395D01*
X111556394Y2113943D01*
X111804039Y1919925D01*
X111804044Y1919922D01*
X111804048Y1919919D01*
X112073279Y1757163D01*
X112360165Y1628046D01*
X112360175Y1628043D01*
X112360183Y1628040D01*
X112452154Y1599381D01*
X112660522Y1534451D01*
X112969971Y1477742D01*
X113284000Y1458747D01*
X113598029Y1477742D01*
X113907478Y1534451D01*
X114207835Y1628046D01*
X114494721Y1757163D01*
X114763952Y1919919D01*
X115011602Y2113940D01*
X115234060Y2336398D01*
X115371760Y2512160D01*
X115428075Y2584040D01*
X115428075Y2584042D01*
X115428081Y2584048D01*
X115590837Y2853279D01*
X115719954Y3140165D01*
X115813549Y3440522D01*
X115870258Y3749971D01*
X115889253Y4064000D01*
X115870258Y4378029D01*
X115813549Y4687478D01*
X115767449Y4835419D01*
X115719960Y4987817D01*
X115719956Y4987828D01*
X115719954Y4987835D01*
X115590837Y5274721D01*
X115428081Y5543952D01*
X115428078Y5543956D01*
X115428075Y5543961D01*
X115234057Y5791606D01*
X115011605Y6014058D01*
X114763960Y6208076D01*
X114761401Y6209623D01*
X114494721Y6370837D01*
X114207835Y6499954D01*
X114207830Y6499956D01*
X114207827Y6499957D01*
X114207816Y6499961D01*
X113907486Y6593547D01*
X113907482Y6593548D01*
X113907478Y6593549D01*
X113598029Y6650258D01*
X113598028Y6650259D01*
X113598023Y6650259D01*
X113284000Y6669253D01*
X112969976Y6650259D01*
X112910340Y6639331D01*
X112660522Y6593549D01*
X112660519Y6593549D01*
X112660513Y6593547D01*
X112360183Y6499961D01*
X112360172Y6499957D01*
X112073283Y6370839D01*
X112073281Y6370838D01*
X111804039Y6208076D01*
X111556394Y6014058D01*
X111333942Y5791606D01*
X111139924Y5543961D01*
X111102986Y5482858D01*
X110989725Y5295500D01*
X110977162Y5274719D01*
X110977161Y5274717D01*
X110948229Y5210433D01*
X110868736Y5033805D01*
X110848043Y4987828D01*
X110848039Y4987817D01*
X110754453Y4687487D01*
X110754451Y4687481D01*
X110754451Y4687478D01*
X110735338Y4583182D01*
X110697741Y4378024D01*
X110678747Y4064000D01*
X98877786Y4064000D01*
X99173422Y4219162D01*
X99452374Y4365567D01*
X99660392Y4487911D01*
X100160750Y4782192D01*
X100160756Y4782197D01*
X100160768Y4782203D01*
X100848205Y5232577D01*
X100848207Y5232579D01*
X100848207Y5232578D01*
X101513087Y5715641D01*
X101513086Y5715641D01*
X101608895Y5792589D01*
X102153842Y6230256D01*
X102153843Y6230258D01*
X102153853Y6230265D01*
X102768985Y6775225D01*
X103357085Y7349281D01*
X103357086Y7349284D01*
X103357093Y7349289D01*
X103601416Y7612000D01*
X103916772Y7951089D01*
X104334149Y8445797D01*
X104446725Y8579230D01*
X104446727Y8579234D01*
X104446734Y8579241D01*
X104945711Y9232239D01*
X104945711Y9232240D01*
X105061633Y9400181D01*
X105412564Y9908592D01*
X105776694Y10494819D01*
X105846188Y10606700D01*
X105846189Y10606701D01*
X106120104Y11099297D01*
X106245591Y11324966D01*
X106609820Y12061678D01*
X106697597Y12263181D01*
X106938029Y12815122D01*
X106938030Y12815122D01*
X107227940Y13579556D01*
X107229456Y13583553D01*
X107483416Y14365161D01*
X107699317Y15158126D01*
X107876655Y15960596D01*
X107882392Y15994183D01*
X108015016Y16770698D01*
X108114077Y17586531D01*
X108173607Y18406214D01*
X108193465Y19227800D01*
X108173607Y20049386D01*
X108114077Y20869069D01*
X108021074Y21635012D01*
X108015016Y21684903D01*
X107934279Y22157616D01*
X107876656Y22494999D01*
X107870354Y22523514D01*
X107731705Y23150916D01*
X107699316Y23297479D01*
X107483416Y24090439D01*
X107229456Y24872047D01*
X107061501Y25314909D01*
X106938030Y25640478D01*
X106938029Y25640478D01*
X106609820Y26393922D01*
X106245596Y27130624D01*
X106245595Y27130625D01*
X106245591Y27130634D01*
X105846195Y27848888D01*
X105846189Y27848899D01*
X105846188Y27848900D01*
X105487402Y28426523D01*
X105412564Y28547008D01*
X104945710Y29223362D01*
X104747180Y29483173D01*
X104446734Y29876359D01*
X103916772Y30504511D01*
X103405401Y31054367D01*
X103357093Y31106311D01*
X103351708Y31111567D01*
X102768985Y31680375D01*
X102153853Y32225335D01*
X101513086Y32739959D01*
X101513087Y32739959D01*
X100848207Y33223022D01*
X100848205Y33223023D01*
X100160768Y33673397D01*
X100160756Y33673404D01*
X100160750Y33673408D01*
X99452379Y34090030D01*
X99452374Y34090033D01*
X99069034Y34291225D01*
X98724677Y34471958D01*
X98724678Y34471957D01*
X97979374Y34818281D01*
X97218233Y35128181D01*
X97218235Y35128181D01*
X97218221Y35128186D01*
X96442978Y35400958D01*
X95655461Y35635957D01*
X94857511Y35832635D01*
X94050990Y35990530D01*
X93237782Y36109276D01*
X93237775Y36109277D01*
X93237766Y36109278D01*
X92419787Y36188594D01*
X92419788Y36188594D01*
X91598924Y36228300D01*
X91598916Y36228300D01*
X90777084Y36228300D01*
X90777076Y36228300D01*
X89956212Y36188594D01*
X89956213Y36188594D01*
X89138234Y36109278D01*
X89138224Y36109277D01*
X89138218Y36109276D01*
X88325010Y35990530D01*
X87518489Y35832635D01*
X86720539Y35635957D01*
X85933022Y35400958D01*
X85157779Y35128186D01*
X85157767Y35128181D01*
X84396626Y34818281D01*
X83651322Y34471957D01*
X83651323Y34471958D01*
X83306966Y34291225D01*
X82923626Y34090033D01*
X82923621Y34090030D01*
X82215250Y33673408D01*
X82215243Y33673404D01*
X82215232Y33673397D01*
X82122479Y33612630D01*
X82068192Y33577064D01*
X82001328Y33556792D01*
X81934118Y33575887D01*
X81887901Y33628287D01*
X81877351Y33697355D01*
X81905816Y33761164D01*
X81912542Y33768452D01*
X84685273Y36541181D01*
X84746596Y36574666D01*
X84772954Y36577500D01*
X103572234Y36577500D01*
X103639273Y36557815D01*
X103659915Y36541181D01*
X105664910Y34536186D01*
X105674816Y34523822D01*
X105675026Y34523995D01*
X105680001Y34517981D01*
X105731094Y34470001D01*
X105752225Y34448871D01*
X105752230Y34448866D01*
X105757802Y34444544D01*
X105762242Y34440751D01*
X105796678Y34408414D01*
X105814567Y34398580D01*
X105830833Y34387896D01*
X105846959Y34375387D01*
X105890298Y34356633D01*
X105895545Y34354063D01*
X105936940Y34331305D01*
X105956718Y34326227D01*
X105975119Y34319927D01*
X105993855Y34311819D01*
X106038362Y34304771D01*
X106040503Y34304431D01*
X106046212Y34303249D01*
X106091970Y34291500D01*
X106112384Y34291500D01*
X106131783Y34289973D01*
X106151943Y34286780D01*
X106198966Y34291225D01*
X106204804Y34291500D01*
X111246044Y34291500D01*
X111313083Y34271815D01*
X111349852Y34235322D01*
X111446276Y34087735D01*
X111446284Y34087724D01*
X111598756Y33922098D01*
X111598760Y33922094D01*
X111776424Y33783811D01*
X111818272Y33761164D01*
X111819695Y33760394D01*
X111869286Y33711175D01*
X111884394Y33642958D01*
X111860224Y33577403D01*
X111831802Y33549764D01*
X111650922Y33423110D01*
X111650920Y33423109D01*
X111483891Y33256080D01*
X111483886Y33256074D01*
X111348400Y33062580D01*
X111348399Y33062578D01*
X111248570Y32848493D01*
X111248567Y32848487D01*
X111191364Y32635001D01*
X111191364Y32635000D01*
X112088314Y32635000D01*
X112062507Y32594844D01*
X112022000Y32456889D01*
X112022000Y32313111D01*
X112062507Y32175156D01*
X112088314Y32135000D01*
X111191364Y32135000D01*
X111248567Y31921514D01*
X111248570Y31921508D01*
X111348399Y31707422D01*
X111483894Y31513918D01*
X111650917Y31346895D01*
X111844421Y31211400D01*
X112058507Y31111571D01*
X112058516Y31111567D01*
X112272000Y31054366D01*
X112272000Y31949499D01*
X112379685Y31900320D01*
X112486237Y31885000D01*
X112557763Y31885000D01*
X112664315Y31900320D01*
X112772000Y31949499D01*
X112772000Y31054367D01*
X112985483Y31111567D01*
X112985492Y31111571D01*
X113199578Y31211400D01*
X113393082Y31346895D01*
X113560105Y31513918D01*
X113695600Y31707422D01*
X113795429Y31921508D01*
X113795432Y31921514D01*
X113852636Y32135000D01*
X112955686Y32135000D01*
X112981493Y32175156D01*
X113022000Y32313111D01*
X113022000Y32456889D01*
X112981493Y32594844D01*
X112955686Y32635000D01*
X113852636Y32635000D01*
X113852635Y32635001D01*
X113795432Y32848487D01*
X113795429Y32848493D01*
X113695600Y33062578D01*
X113695599Y33062580D01*
X113560113Y33256074D01*
X113560108Y33256080D01*
X113393082Y33423106D01*
X113212197Y33549764D01*
X113168572Y33604341D01*
X113161380Y33673840D01*
X113192902Y33736194D01*
X113224300Y33760392D01*
X113267576Y33783811D01*
X113445240Y33922094D01*
X113597722Y34087732D01*
X113720860Y34276209D01*
X113811296Y34482384D01*
X113866564Y34700632D01*
X113876313Y34818281D01*
X113885156Y34924995D01*
X113885156Y34925006D01*
X113866565Y35149360D01*
X113866563Y35149372D01*
X113811296Y35367615D01*
X113727428Y35558816D01*
X113720860Y35573791D01*
X113717989Y35578185D01*
X113632616Y35708858D01*
X113597722Y35762268D01*
X113597719Y35762271D01*
X113597715Y35762277D01*
X113445243Y35927903D01*
X113445238Y35927908D01*
X113267577Y36066188D01*
X113267578Y36066188D01*
X113267576Y36066189D01*
X113231070Y36085945D01*
X113181479Y36135164D01*
X113166371Y36203381D01*
X113190541Y36268936D01*
X113231070Y36304055D01*
X113231084Y36304064D01*
X113267576Y36323811D01*
X113445240Y36462094D01*
X113597722Y36627732D01*
X113720860Y36816209D01*
X113811296Y37022384D01*
X113866564Y37240632D01*
X113875843Y37352609D01*
X113885156Y37464995D01*
X113885156Y37465006D01*
X113866565Y37689360D01*
X113866563Y37689372D01*
X113858957Y37719407D01*
X113811296Y37907616D01*
X113720860Y38113791D01*
X113597722Y38302268D01*
X113597719Y38302271D01*
X113597715Y38302277D01*
X113445243Y38467903D01*
X113445238Y38467908D01*
X113267577Y38606188D01*
X113267578Y38606188D01*
X113267576Y38606189D01*
X113231070Y38625945D01*
X113181479Y38675164D01*
X113166371Y38743381D01*
X113190541Y38808936D01*
X113231070Y38844055D01*
X113231084Y38844064D01*
X113267576Y38863811D01*
X113445240Y39002094D01*
X113578656Y39147021D01*
X113597715Y39167724D01*
X113597716Y39167726D01*
X113597722Y39167732D01*
X113720860Y39356209D01*
X113811296Y39562384D01*
X113866564Y39780632D01*
X113869418Y39815072D01*
X113885156Y40004995D01*
X113885156Y40005006D01*
X113866565Y40229360D01*
X113866563Y40229372D01*
X113838538Y40340040D01*
X113811296Y40447616D01*
X113720860Y40653791D01*
X113710162Y40670165D01*
X113627873Y40796118D01*
X113597722Y40842268D01*
X113597719Y40842271D01*
X113597715Y40842277D01*
X113452510Y41000009D01*
X113421587Y41062663D01*
X113429447Y41132089D01*
X113473594Y41186245D01*
X113500405Y41200173D01*
X113580584Y41230080D01*
X113618204Y41244111D01*
X113735261Y41331739D01*
X113822889Y41448796D01*
X113873989Y41585799D01*
X113877591Y41619308D01*
X113880499Y41646346D01*
X113880500Y41646363D01*
X113880500Y43443638D01*
X113880499Y43443655D01*
X113877157Y43474730D01*
X113873989Y43504201D01*
X113870747Y43512892D01*
X113851522Y43564436D01*
X113822889Y43641204D01*
X113735261Y43758261D01*
X113618204Y43845889D01*
X113481203Y43896989D01*
X113420654Y43903500D01*
X113420638Y43903500D01*
X112136500Y43903500D01*
X112069461Y43923185D01*
X112023706Y43975989D01*
X112012500Y44027500D01*
X112012500Y65829368D01*
X112014239Y65845120D01*
X112013968Y65845145D01*
X112014700Y65852901D01*
X112014702Y65852908D01*
X112012500Y65922972D01*
X112012500Y65952856D01*
X112011614Y65959859D01*
X112011157Y65965678D01*
X112009674Y66012887D01*
X112009674Y66012889D01*
X112003974Y66032508D01*
X112000031Y66051554D01*
X111999892Y66052651D01*
X111997474Y66071797D01*
X111980081Y66115726D01*
X111978204Y66121208D01*
X111965019Y66166593D01*
X111954620Y66184176D01*
X111946066Y66201637D01*
X111938552Y66220617D01*
X111910793Y66258824D01*
X111907586Y66263706D01*
X111883544Y66304359D01*
X111883543Y66304360D01*
X111883542Y66304362D01*
X111869108Y66318796D01*
X111856471Y66333591D01*
X111844472Y66350107D01*
X111844470Y66350110D01*
X111808073Y66380219D01*
X111803751Y66384153D01*
X99948088Y78239817D01*
X99938187Y78252177D01*
X99937977Y78252002D01*
X99933002Y78258014D01*
X99933000Y78258018D01*
X99906658Y78282755D01*
X99881922Y78305984D01*
X99860768Y78327137D01*
X99858792Y78328669D01*
X99855183Y78331469D01*
X99850750Y78335256D01*
X99816321Y78367586D01*
X99816319Y78367588D01*
X99798431Y78377422D01*
X99782170Y78388103D01*
X99766039Y78400616D01*
X99722693Y78419373D01*
X99717445Y78421944D01*
X99690251Y78436894D01*
X99676060Y78444695D01*
X99672660Y78445568D01*
X99656287Y78449772D01*
X99637881Y78456074D01*
X99619144Y78464182D01*
X99619146Y78464182D01*
X99572496Y78471570D01*
X99566781Y78472754D01*
X99546612Y78477932D01*
X99521032Y78484500D01*
X99521030Y78484500D01*
X99500616Y78484500D01*
X99481217Y78486027D01*
X99461058Y78489220D01*
X99461057Y78489220D01*
X99414034Y78484775D01*
X99408196Y78484500D01*
X88197766Y78484500D01*
X88130727Y78504185D01*
X88110085Y78520819D01*
X71644559Y94986346D01*
X74206500Y94986346D01*
X74213011Y94925798D01*
X74213011Y94925796D01*
X74264111Y94788796D01*
X74351739Y94671739D01*
X74468796Y94584111D01*
X74605799Y94533011D01*
X74633050Y94530082D01*
X74666345Y94526501D01*
X74666362Y94526500D01*
X76463638Y94526500D01*
X76463654Y94526501D01*
X76490692Y94529409D01*
X76524201Y94533011D01*
X76661204Y94584111D01*
X76778261Y94671739D01*
X76865889Y94788796D01*
X76914223Y94918385D01*
X76956093Y94974314D01*
X77021557Y94998731D01*
X77089830Y94983879D01*
X77118084Y94962728D01*
X77233917Y94846895D01*
X77427421Y94711400D01*
X77641507Y94611571D01*
X77641516Y94611567D01*
X77855000Y94554366D01*
X77855000Y95449499D01*
X77962685Y95400320D01*
X78069237Y95385000D01*
X78140763Y95385000D01*
X78247315Y95400320D01*
X78355000Y95449499D01*
X78355000Y94554367D01*
X78568483Y94611567D01*
X78568492Y94611571D01*
X78782578Y94711400D01*
X78976082Y94846895D01*
X79143105Y95013918D01*
X79278600Y95207422D01*
X79378429Y95421508D01*
X79378432Y95421514D01*
X79435636Y95635000D01*
X78538686Y95635000D01*
X78564493Y95675156D01*
X78605000Y95813111D01*
X78605000Y95956889D01*
X78564493Y96094844D01*
X78538686Y96135000D01*
X79435636Y96135000D01*
X79435635Y96135001D01*
X79378432Y96348487D01*
X79378429Y96348493D01*
X79278600Y96562578D01*
X79278599Y96562580D01*
X79143113Y96756074D01*
X79143108Y96756080D01*
X78976082Y96923106D01*
X78782578Y97058601D01*
X78568492Y97158430D01*
X78568486Y97158433D01*
X78355000Y97215636D01*
X78355000Y96320502D01*
X78247315Y96369680D01*
X78140763Y96385000D01*
X78069237Y96385000D01*
X77962685Y96369680D01*
X77855000Y96320502D01*
X77855000Y97215636D01*
X77854999Y97215636D01*
X77641513Y97158433D01*
X77641507Y97158430D01*
X77427422Y97058601D01*
X77427420Y97058600D01*
X77233926Y96923114D01*
X77118084Y96807272D01*
X77056761Y96773788D01*
X76987069Y96778772D01*
X76931136Y96820644D01*
X76914223Y96851616D01*
X76865889Y96981204D01*
X76864175Y96983493D01*
X76848315Y97004680D01*
X76778261Y97098261D01*
X76661204Y97185889D01*
X76629860Y97197580D01*
X76524203Y97236989D01*
X76463654Y97243500D01*
X76463638Y97243500D01*
X74666362Y97243500D01*
X74666345Y97243500D01*
X74605797Y97236989D01*
X74605795Y97236989D01*
X74468795Y97185889D01*
X74351739Y97098261D01*
X74264111Y96981205D01*
X74213011Y96844205D01*
X74213011Y96844203D01*
X74206500Y96783655D01*
X74206500Y94986346D01*
X71644559Y94986346D01*
X67690088Y98940817D01*
X67680187Y98953177D01*
X67679977Y98953002D01*
X67675002Y98959014D01*
X67675000Y98959018D01*
X67648658Y98983755D01*
X67623922Y99006984D01*
X67602768Y99028137D01*
X67600792Y99029669D01*
X67597183Y99032469D01*
X67592750Y99036256D01*
X67586524Y99042102D01*
X67558321Y99068586D01*
X67558319Y99068588D01*
X67540431Y99078422D01*
X67524170Y99089103D01*
X67508039Y99101616D01*
X67464693Y99120373D01*
X67459445Y99122944D01*
X67432024Y99138018D01*
X67418060Y99145695D01*
X67414660Y99146568D01*
X67398287Y99150772D01*
X67379881Y99157074D01*
X67361144Y99165182D01*
X67361146Y99165182D01*
X67314496Y99172570D01*
X67308781Y99173754D01*
X67288612Y99178932D01*
X67263032Y99185500D01*
X67263030Y99185500D01*
X67242616Y99185500D01*
X67223217Y99187027D01*
X67203058Y99190220D01*
X67203057Y99190220D01*
X67156034Y99185775D01*
X67150196Y99185500D01*
X57741629Y99185500D01*
X57725886Y99187239D01*
X57725861Y99186967D01*
X57718093Y99187702D01*
X57648060Y99185500D01*
X57618142Y99185500D01*
X57611136Y99184616D01*
X57605318Y99184158D01*
X57558111Y99182674D01*
X57558108Y99182673D01*
X57538505Y99176978D01*
X57519459Y99173034D01*
X57499203Y99170474D01*
X57499201Y99170474D01*
X57499199Y99170473D01*
X57455282Y99153086D01*
X57449756Y99151194D01*
X57404406Y99138018D01*
X57386833Y99127626D01*
X57369370Y99119071D01*
X57350385Y99111554D01*
X57350383Y99111553D01*
X57312179Y99083796D01*
X57307296Y99080588D01*
X57266637Y99056542D01*
X57252196Y99042102D01*
X57237408Y99029473D01*
X57220897Y99017477D01*
X57220892Y99017472D01*
X57190790Y98981086D01*
X57186858Y98976764D01*
X56104699Y97894606D01*
X56043376Y97861121D01*
X56037428Y97859978D01*
X55926357Y97841443D01*
X55922119Y97840370D01*
X55852298Y97843001D01*
X55804007Y97872897D01*
X54778723Y98898181D01*
X53720088Y99956817D01*
X53710187Y99969177D01*
X53709977Y99969002D01*
X53705002Y99975014D01*
X53705000Y99975018D01*
X53672225Y100005796D01*
X53653922Y100022984D01*
X53632768Y100044137D01*
X53630309Y100046044D01*
X53627183Y100048469D01*
X53622750Y100052256D01*
X53620558Y100054314D01*
X53607745Y100066346D01*
X70396500Y100066346D01*
X70403011Y100005798D01*
X70403011Y100005796D01*
X70448202Y99884638D01*
X70454111Y99868796D01*
X70541739Y99751739D01*
X70658796Y99664111D01*
X70738542Y99634367D01*
X70775240Y99620679D01*
X70795799Y99613011D01*
X70823050Y99610082D01*
X70856345Y99606501D01*
X70856362Y99606500D01*
X72653638Y99606500D01*
X72653654Y99606501D01*
X72680692Y99609409D01*
X72714201Y99613011D01*
X72851204Y99664111D01*
X72968261Y99751739D01*
X73055889Y99868796D01*
X73104223Y99998385D01*
X73146093Y100054314D01*
X73211557Y100078731D01*
X73279830Y100063879D01*
X73308084Y100042728D01*
X73423917Y99926895D01*
X73617421Y99791400D01*
X73831507Y99691571D01*
X73831516Y99691567D01*
X74045000Y99634366D01*
X74045000Y100529499D01*
X74152685Y100480320D01*
X74259237Y100465000D01*
X74330763Y100465000D01*
X74437315Y100480320D01*
X74545000Y100529499D01*
X74545000Y99634367D01*
X74758483Y99691567D01*
X74758492Y99691571D01*
X74972578Y99791400D01*
X75166082Y99926895D01*
X75305533Y100066346D01*
X78270500Y100066346D01*
X78277011Y100005798D01*
X78277011Y100005796D01*
X78322202Y99884638D01*
X78328111Y99868796D01*
X78415739Y99751739D01*
X78532796Y99664111D01*
X78612542Y99634367D01*
X78649240Y99620679D01*
X78669799Y99613011D01*
X78697050Y99610082D01*
X78730345Y99606501D01*
X78730362Y99606500D01*
X80527638Y99606500D01*
X80527654Y99606501D01*
X80554692Y99609409D01*
X80588201Y99613011D01*
X80725204Y99664111D01*
X80842261Y99751739D01*
X80929889Y99868796D01*
X80978223Y99998385D01*
X81020093Y100054314D01*
X81085557Y100078731D01*
X81153830Y100063879D01*
X81182084Y100042728D01*
X81297917Y99926895D01*
X81491421Y99791400D01*
X81705507Y99691571D01*
X81705516Y99691567D01*
X81919000Y99634366D01*
X81919000Y100529499D01*
X82026685Y100480320D01*
X82133237Y100465000D01*
X82204763Y100465000D01*
X82311315Y100480320D01*
X82419000Y100529499D01*
X82419000Y99634367D01*
X82626635Y99690000D01*
X86421747Y99690000D01*
X86440741Y99375977D01*
X86440741Y99375972D01*
X86440742Y99375971D01*
X86497451Y99066522D01*
X86497452Y99066518D01*
X86497453Y99066514D01*
X86591039Y98766184D01*
X86591043Y98766173D01*
X86591044Y98766170D01*
X86591046Y98766165D01*
X86720163Y98479279D01*
X86879901Y98215040D01*
X86882924Y98210040D01*
X87076942Y97962395D01*
X87299394Y97739943D01*
X87547039Y97545925D01*
X87547044Y97545922D01*
X87547048Y97545919D01*
X87816279Y97383163D01*
X88103165Y97254046D01*
X88103175Y97254043D01*
X88103183Y97254040D01*
X88226427Y97215636D01*
X88403522Y97160451D01*
X88712971Y97103742D01*
X89027000Y97084747D01*
X89341029Y97103742D01*
X89650478Y97160451D01*
X89950835Y97254046D01*
X90237721Y97383163D01*
X90506952Y97545919D01*
X90522512Y97558109D01*
X90649778Y97657816D01*
X90754602Y97739940D01*
X90977060Y97962398D01*
X91141665Y98172501D01*
X91171075Y98210040D01*
X91171075Y98210042D01*
X91171081Y98210048D01*
X91333837Y98479279D01*
X91462954Y98766165D01*
X91556549Y99066522D01*
X91613258Y99375971D01*
X91632253Y99690000D01*
X91613258Y100004029D01*
X91556549Y100313478D01*
X91504559Y100480320D01*
X91462960Y100613817D01*
X91462956Y100613828D01*
X91462954Y100613835D01*
X91333837Y100900721D01*
X91171081Y101169952D01*
X91171078Y101169956D01*
X91171075Y101169961D01*
X90977057Y101417606D01*
X90754605Y101640058D01*
X90506960Y101834076D01*
X90503655Y101836074D01*
X90237721Y101996837D01*
X89950835Y102125954D01*
X89950830Y102125956D01*
X89950827Y102125957D01*
X89950816Y102125961D01*
X89650486Y102219547D01*
X89650482Y102219548D01*
X89650478Y102219549D01*
X89341029Y102276258D01*
X89341028Y102276259D01*
X89341023Y102276259D01*
X89027000Y102295253D01*
X88712976Y102276259D01*
X88712971Y102276258D01*
X88403522Y102219549D01*
X88403519Y102219549D01*
X88403513Y102219547D01*
X88103183Y102125961D01*
X88103172Y102125957D01*
X88103166Y102125955D01*
X88103165Y102125954D01*
X88078826Y102115000D01*
X87820450Y101998714D01*
X87816279Y101996837D01*
X87753580Y101958934D01*
X87547039Y101834076D01*
X87299394Y101640058D01*
X87076942Y101417606D01*
X86882924Y101169961D01*
X86772528Y100987344D01*
X86723185Y100905719D01*
X86720162Y100900719D01*
X86720161Y100900717D01*
X86669201Y100787489D01*
X86600213Y100634202D01*
X86591043Y100613828D01*
X86591039Y100613817D01*
X86497453Y100313487D01*
X86497451Y100313481D01*
X86497451Y100313478D01*
X86468229Y100154021D01*
X86440741Y100004024D01*
X86421747Y99690000D01*
X82626635Y99690000D01*
X82632483Y99691567D01*
X82632492Y99691571D01*
X82846578Y99791400D01*
X83040082Y99926895D01*
X83207105Y100093918D01*
X83342600Y100287422D01*
X83442429Y100501508D01*
X83442432Y100501514D01*
X83499636Y100715000D01*
X82602686Y100715000D01*
X82628493Y100755156D01*
X82669000Y100893111D01*
X82669000Y101036889D01*
X82628493Y101174844D01*
X82602686Y101215000D01*
X83499636Y101215000D01*
X83499635Y101215001D01*
X83442432Y101428487D01*
X83442429Y101428493D01*
X83342600Y101642578D01*
X83342599Y101642580D01*
X83207113Y101836074D01*
X83207108Y101836080D01*
X83040082Y102003106D01*
X82846578Y102138601D01*
X82632492Y102238430D01*
X82632486Y102238433D01*
X82419000Y102295636D01*
X82419000Y101400502D01*
X82311315Y101449680D01*
X82204763Y101465000D01*
X82133237Y101465000D01*
X82026685Y101449680D01*
X81919000Y101400502D01*
X81919000Y102295636D01*
X81918999Y102295636D01*
X81705513Y102238433D01*
X81705507Y102238430D01*
X81491422Y102138601D01*
X81491420Y102138600D01*
X81297926Y102003114D01*
X81182084Y101887272D01*
X81120761Y101853788D01*
X81051069Y101858772D01*
X80995136Y101900644D01*
X80978223Y101931616D01*
X80929889Y102061204D01*
X80842261Y102178261D01*
X80725204Y102265889D01*
X80697404Y102276258D01*
X80588203Y102316989D01*
X80527654Y102323500D01*
X80527638Y102323500D01*
X78730362Y102323500D01*
X78730345Y102323500D01*
X78669797Y102316989D01*
X78669795Y102316989D01*
X78532795Y102265889D01*
X78415739Y102178261D01*
X78328111Y102061205D01*
X78277011Y101924205D01*
X78277011Y101924203D01*
X78270500Y101863655D01*
X78270500Y100066346D01*
X75305533Y100066346D01*
X75333105Y100093918D01*
X75468600Y100287422D01*
X75568429Y100501508D01*
X75568432Y100501514D01*
X75625636Y100715000D01*
X74728686Y100715000D01*
X74754493Y100755156D01*
X74795000Y100893111D01*
X74795000Y101036889D01*
X74754493Y101174844D01*
X74728686Y101215000D01*
X75625636Y101215000D01*
X75625635Y101215001D01*
X75568432Y101428487D01*
X75568429Y101428493D01*
X75468600Y101642578D01*
X75468599Y101642580D01*
X75333113Y101836074D01*
X75333108Y101836080D01*
X75166082Y102003106D01*
X74972578Y102138601D01*
X74758492Y102238430D01*
X74758486Y102238433D01*
X74545000Y102295636D01*
X74545000Y101400502D01*
X74437315Y101449680D01*
X74330763Y101465000D01*
X74259237Y101465000D01*
X74152685Y101449680D01*
X74045000Y101400502D01*
X74045000Y102295636D01*
X74044999Y102295636D01*
X73831513Y102238433D01*
X73831507Y102238430D01*
X73617422Y102138601D01*
X73617420Y102138600D01*
X73423926Y102003114D01*
X73308084Y101887272D01*
X73246761Y101853788D01*
X73177069Y101858772D01*
X73121136Y101900644D01*
X73104223Y101931616D01*
X73055889Y102061204D01*
X72968261Y102178261D01*
X72851204Y102265889D01*
X72823404Y102276258D01*
X72714203Y102316989D01*
X72653654Y102323500D01*
X72653638Y102323500D01*
X70856362Y102323500D01*
X70856345Y102323500D01*
X70795797Y102316989D01*
X70795795Y102316989D01*
X70658795Y102265889D01*
X70541739Y102178261D01*
X70454111Y102061205D01*
X70403011Y101924205D01*
X70403011Y101924203D01*
X70396500Y101863655D01*
X70396500Y100066346D01*
X53607745Y100066346D01*
X53588321Y100084586D01*
X53588319Y100084588D01*
X53570431Y100094422D01*
X53554170Y100105103D01*
X53538039Y100117616D01*
X53494693Y100136373D01*
X53489445Y100138944D01*
X53462019Y100154021D01*
X53448060Y100161695D01*
X53444660Y100162568D01*
X53428287Y100166772D01*
X53409881Y100173074D01*
X53391144Y100181182D01*
X53391146Y100181182D01*
X53344496Y100188570D01*
X53338781Y100189754D01*
X53318612Y100194932D01*
X53293032Y100201500D01*
X53293030Y100201500D01*
X53272616Y100201500D01*
X53253217Y100203027D01*
X53233058Y100206220D01*
X53233057Y100206220D01*
X53186034Y100201775D01*
X53180196Y100201500D01*
X50381028Y100201500D01*
X50313989Y100221185D01*
X50268234Y100273989D01*
X50258290Y100343147D01*
X50262643Y100362392D01*
X50270591Y100387898D01*
X50277000Y100458428D01*
X50277000Y100715000D01*
X49401624Y100715000D01*
X49474545Y100729505D01*
X49557240Y100784760D01*
X49612495Y100867455D01*
X49631898Y100965000D01*
X49612495Y101062545D01*
X49557240Y101145240D01*
X49474545Y101200495D01*
X49401624Y101215000D01*
X49352376Y101215000D01*
X49279455Y101200495D01*
X49196760Y101145240D01*
X49141505Y101062545D01*
X49127000Y100989624D01*
X49127000Y102115000D01*
X49627000Y102115000D01*
X49627000Y101215000D01*
X50276999Y101215000D01*
X50276999Y101471583D01*
X50270591Y101542103D01*
X50270590Y101542108D01*
X50220018Y101704397D01*
X50132072Y101849878D01*
X50011877Y101970073D01*
X49866395Y102058020D01*
X49866396Y102058020D01*
X49704105Y102108591D01*
X49704106Y102108591D01*
X49633572Y102115000D01*
X49627000Y102115000D01*
X49127000Y102115000D01*
X49126999Y102115001D01*
X49120436Y102115000D01*
X49120417Y102114999D01*
X49049897Y102108592D01*
X49049892Y102108591D01*
X48887602Y102058019D01*
X48753200Y101976770D01*
X48685645Y101958934D01*
X48619171Y101980452D01*
X48616164Y101982569D01*
X48596526Y101996837D01*
X48583752Y102006118D01*
X48409288Y102083794D01*
X48409286Y102083795D01*
X48222487Y102123500D01*
X48031513Y102123500D01*
X47844714Y102083795D01*
X47670246Y102006117D01*
X47617657Y101967908D01*
X47579094Y101939890D01*
X47574886Y101936833D01*
X47509079Y101913353D01*
X47441025Y101929178D01*
X47429114Y101936833D01*
X47333752Y102006118D01*
X47159288Y102083794D01*
X47159286Y102083795D01*
X46972487Y102123500D01*
X46781513Y102123500D01*
X46594714Y102083795D01*
X46420246Y102006117D01*
X46367657Y101967908D01*
X46329094Y101939890D01*
X46324886Y101936833D01*
X46259079Y101913353D01*
X46191025Y101929178D01*
X46179114Y101936833D01*
X46083752Y102006118D01*
X45909288Y102083794D01*
X45909286Y102083795D01*
X45722487Y102123500D01*
X45531513Y102123500D01*
X45344714Y102083795D01*
X45170246Y102006117D01*
X45117657Y101967908D01*
X45079094Y101939890D01*
X45074886Y101936833D01*
X45009079Y101913353D01*
X44941025Y101929178D01*
X44929114Y101936833D01*
X44833752Y102006118D01*
X44659288Y102083794D01*
X44659286Y102083795D01*
X44472487Y102123500D01*
X44281513Y102123500D01*
X44094714Y102083795D01*
X43920246Y102006117D01*
X43867657Y101967908D01*
X43829094Y101939890D01*
X43824886Y101936833D01*
X43759079Y101913353D01*
X43691025Y101929178D01*
X43679114Y101936833D01*
X43583752Y102006118D01*
X43409288Y102083794D01*
X43409286Y102083795D01*
X43222487Y102123500D01*
X43031513Y102123500D01*
X42844714Y102083795D01*
X42670246Y102006117D01*
X42617657Y101967908D01*
X42579094Y101939890D01*
X42574886Y101936833D01*
X42509079Y101913353D01*
X42441025Y101929178D01*
X42429114Y101936833D01*
X42333752Y102006118D01*
X42159288Y102083794D01*
X42159286Y102083795D01*
X41972487Y102123500D01*
X41781513Y102123500D01*
X41594714Y102083795D01*
X41420246Y102006117D01*
X41367657Y101967908D01*
X41329094Y101939890D01*
X41324886Y101936833D01*
X41259079Y101913353D01*
X41191025Y101929178D01*
X41179114Y101936833D01*
X41083752Y102006118D01*
X40909288Y102083794D01*
X40909286Y102083795D01*
X40722487Y102123500D01*
X40531513Y102123500D01*
X40344714Y102083795D01*
X40170246Y102006117D01*
X40117657Y101967908D01*
X40079094Y101939890D01*
X40074886Y101936833D01*
X40009079Y101913353D01*
X39941025Y101929178D01*
X39929114Y101936833D01*
X39833752Y102006118D01*
X39659288Y102083794D01*
X39659286Y102083795D01*
X39472487Y102123500D01*
X39281513Y102123500D01*
X39094714Y102083795D01*
X38920246Y102006117D01*
X38867657Y101967908D01*
X38829094Y101939890D01*
X38824886Y101936833D01*
X38759079Y101913353D01*
X38691025Y101929178D01*
X38679114Y101936833D01*
X38583752Y102006118D01*
X38409288Y102083794D01*
X38409286Y102083795D01*
X38222487Y102123500D01*
X38031513Y102123500D01*
X37844714Y102083795D01*
X37670246Y102006117D01*
X37617657Y101967908D01*
X37579094Y101939890D01*
X37574886Y101936833D01*
X37509079Y101913353D01*
X37441025Y101929178D01*
X37429114Y101936833D01*
X37333752Y102006118D01*
X37159288Y102083794D01*
X37159286Y102083795D01*
X36972487Y102123500D01*
X36781513Y102123500D01*
X36594714Y102083795D01*
X36420246Y102006117D01*
X36367657Y101967908D01*
X36329094Y101939890D01*
X36324886Y101936833D01*
X36259079Y101913353D01*
X36191025Y101929178D01*
X36179114Y101936833D01*
X36083752Y102006118D01*
X35909288Y102083794D01*
X35909286Y102083795D01*
X35722487Y102123500D01*
X35531513Y102123500D01*
X35344714Y102083795D01*
X35170246Y102006117D01*
X35117657Y101967908D01*
X35079094Y101939890D01*
X35074886Y101936833D01*
X35009079Y101913353D01*
X34941025Y101929178D01*
X34929114Y101936833D01*
X34833752Y102006118D01*
X34659288Y102083794D01*
X34659286Y102083795D01*
X34472487Y102123500D01*
X34281513Y102123500D01*
X34094714Y102083795D01*
X33920246Y102006117D01*
X33867657Y101967908D01*
X33829094Y101939890D01*
X33824886Y101936833D01*
X33759079Y101913353D01*
X33691025Y101929178D01*
X33679114Y101936833D01*
X33583752Y102006118D01*
X33409288Y102083794D01*
X33409286Y102083795D01*
X33222487Y102123500D01*
X33031513Y102123500D01*
X32844714Y102083795D01*
X32670243Y102006116D01*
X32567654Y101931580D01*
X32501848Y101908100D01*
X32433794Y101923926D01*
X32421883Y101931580D01*
X32329477Y101998718D01*
X32156648Y102075665D01*
X32127000Y102081968D01*
X32127000Y100989624D01*
X32112495Y101062545D01*
X32057240Y101145240D01*
X31974545Y101200495D01*
X31901624Y101215000D01*
X31852376Y101215000D01*
X31779455Y101200495D01*
X31696760Y101145240D01*
X31641505Y101062545D01*
X31622102Y100965000D01*
X31641505Y100867455D01*
X31696760Y100784760D01*
X31779455Y100729505D01*
X31852376Y100715000D01*
X30977000Y100715000D01*
X30977000Y100667841D01*
X30991819Y100526846D01*
X31044790Y100363818D01*
X31046785Y100293977D01*
X31010705Y100234144D01*
X30948004Y100203316D01*
X30926859Y100201500D01*
X28912631Y100201500D01*
X28896879Y100203240D01*
X28896854Y100202968D01*
X28889092Y100203702D01*
X28889091Y100203702D01*
X28819028Y100201500D01*
X28789144Y100201500D01*
X28789141Y100201500D01*
X28789129Y100201499D01*
X28782137Y100200616D01*
X28776320Y100200159D01*
X28729114Y100198675D01*
X28729107Y100198674D01*
X28709500Y100192978D01*
X28690461Y100189035D01*
X28670211Y100186476D01*
X28670201Y100186474D01*
X28626291Y100169089D01*
X28620765Y100167197D01*
X28575412Y100154021D01*
X28575407Y100154019D01*
X28557833Y100143626D01*
X28540372Y100135072D01*
X28521386Y100127554D01*
X28521384Y100127553D01*
X28483172Y100099792D01*
X28478290Y100096585D01*
X28437637Y100072543D01*
X28423201Y100058106D01*
X28408415Y100045477D01*
X28391893Y100033472D01*
X28391891Y100033471D01*
X28391891Y100033470D01*
X28391888Y100033468D01*
X28361780Y99997075D01*
X28357849Y99992754D01*
X26237990Y97872897D01*
X26176667Y97839412D01*
X26119872Y97840372D01*
X26115642Y97841443D01*
X25893569Y97878500D01*
X25668431Y97878500D01*
X25446359Y97841444D01*
X25442120Y97840370D01*
X25372299Y97843001D01*
X25324008Y97872897D01*
X24002088Y99194817D01*
X23992187Y99207177D01*
X23991977Y99207002D01*
X23987002Y99213014D01*
X23987000Y99213018D01*
X23960658Y99237755D01*
X23935922Y99260984D01*
X23914768Y99282137D01*
X23912792Y99283669D01*
X23909183Y99286469D01*
X23904750Y99290256D01*
X23870321Y99322586D01*
X23870319Y99322588D01*
X23852431Y99332422D01*
X23836170Y99343103D01*
X23820039Y99355616D01*
X23776693Y99374373D01*
X23771445Y99376944D01*
X23738145Y99395250D01*
X23730060Y99399695D01*
X23726660Y99400568D01*
X23710287Y99404772D01*
X23691881Y99411074D01*
X23673144Y99419182D01*
X23673146Y99419182D01*
X23626496Y99426570D01*
X23620781Y99427754D01*
X23600612Y99432932D01*
X23575032Y99439500D01*
X23575030Y99439500D01*
X23554616Y99439500D01*
X23535217Y99441027D01*
X23515058Y99444220D01*
X23515057Y99444220D01*
X23468034Y99439775D01*
X23462196Y99439500D01*
X19260632Y99439500D01*
X19193593Y99459185D01*
X19147838Y99511989D01*
X19137894Y99581147D01*
X19166919Y99644703D01*
X19225697Y99682477D01*
X19228538Y99683275D01*
X19259485Y99691568D01*
X19259492Y99691571D01*
X19473578Y99791400D01*
X19667082Y99926895D01*
X19834105Y100093918D01*
X19969600Y100287422D01*
X20069429Y100501508D01*
X20069432Y100501514D01*
X20126636Y100715000D01*
X19229686Y100715000D01*
X19255493Y100755156D01*
X19296000Y100893111D01*
X19296000Y101036889D01*
X19255493Y101174844D01*
X19229686Y101215000D01*
X20126636Y101215000D01*
X30977000Y101215000D01*
X31627000Y101215000D01*
X31627000Y102081968D01*
X31597354Y102075666D01*
X31424518Y101998714D01*
X31271464Y101887513D01*
X31144872Y101746919D01*
X31144870Y101746916D01*
X31050283Y101583085D01*
X31050278Y101583073D01*
X30991819Y101403155D01*
X30977000Y101262160D01*
X30977000Y101215000D01*
X20126636Y101215000D01*
X20126635Y101215001D01*
X20069432Y101428487D01*
X20069429Y101428493D01*
X19969600Y101642578D01*
X19969599Y101642580D01*
X19834113Y101836074D01*
X19834108Y101836080D01*
X19667082Y102003106D01*
X19473578Y102138601D01*
X19259492Y102238430D01*
X19259486Y102238433D01*
X19046000Y102295636D01*
X19046000Y101400502D01*
X18938315Y101449680D01*
X18831763Y101465000D01*
X18760237Y101465000D01*
X18653685Y101449680D01*
X18546000Y101400502D01*
X18546000Y102295636D01*
X18545999Y102295636D01*
X18332513Y102238433D01*
X18332507Y102238430D01*
X18118422Y102138601D01*
X18118420Y102138600D01*
X17924926Y102003114D01*
X17924920Y102003109D01*
X17757891Y101836080D01*
X17757890Y101836078D01*
X17631131Y101655048D01*
X17576554Y101611423D01*
X17507055Y101604231D01*
X17444701Y101635753D01*
X17425752Y101658344D01*
X17331722Y101802268D01*
X17331715Y101802275D01*
X17331715Y101802277D01*
X17179243Y101967903D01*
X17179238Y101967908D01*
X17040793Y102075665D01*
X17001576Y102106189D01*
X17001575Y102106190D01*
X17001572Y102106192D01*
X16803580Y102213339D01*
X16803577Y102213341D01*
X16803574Y102213342D01*
X16803571Y102213343D01*
X16803569Y102213344D01*
X16590637Y102286444D01*
X16368569Y102323500D01*
X16143431Y102323500D01*
X15921362Y102286444D01*
X15708430Y102213344D01*
X15708419Y102213339D01*
X15510427Y102106192D01*
X15510422Y102106188D01*
X15332761Y101967908D01*
X15332756Y101967903D01*
X15180284Y101802277D01*
X15180276Y101802266D01*
X15089808Y101663794D01*
X15036662Y101618438D01*
X14967431Y101609014D01*
X14904095Y101638516D01*
X14882192Y101663794D01*
X14791723Y101802266D01*
X14791715Y101802277D01*
X14639243Y101967903D01*
X14639238Y101967908D01*
X14500793Y102075665D01*
X14461576Y102106189D01*
X14461575Y102106190D01*
X14461572Y102106192D01*
X14263580Y102213339D01*
X14263577Y102213341D01*
X14263574Y102213342D01*
X14263571Y102213343D01*
X14263569Y102213344D01*
X14050637Y102286444D01*
X13828569Y102323500D01*
X13603431Y102323500D01*
X13381362Y102286444D01*
X13168430Y102213344D01*
X13168419Y102213339D01*
X12970427Y102106192D01*
X12970422Y102106188D01*
X12792761Y101967908D01*
X12729548Y101899240D01*
X12669661Y101863250D01*
X12599823Y101865351D01*
X12542207Y101904876D01*
X12522138Y101939890D01*
X12476889Y102061204D01*
X12476887Y102061207D01*
X12389261Y102178261D01*
X12272204Y102265889D01*
X12244404Y102276258D01*
X12135203Y102316989D01*
X12074654Y102323500D01*
X12074638Y102323500D01*
X10277362Y102323500D01*
X10277345Y102323500D01*
X10216797Y102316989D01*
X10216795Y102316989D01*
X10079795Y102265889D01*
X9962739Y102178261D01*
X9875111Y102061205D01*
X9824011Y101924205D01*
X9824011Y101924203D01*
X9817500Y101863655D01*
X9817500Y100066346D01*
X9824011Y100005798D01*
X9824011Y100005796D01*
X9869202Y99884638D01*
X9875111Y99868796D01*
X9962739Y99751739D01*
X10079796Y99664111D01*
X10159542Y99634367D01*
X10196240Y99620679D01*
X10216799Y99613011D01*
X10244050Y99610082D01*
X10277345Y99606501D01*
X10277362Y99606500D01*
X12074638Y99606500D01*
X12074654Y99606501D01*
X12101692Y99609409D01*
X12135201Y99613011D01*
X12272204Y99664111D01*
X12389261Y99751739D01*
X12476889Y99868796D01*
X12522138Y99990113D01*
X12564009Y100046044D01*
X12629474Y100070461D01*
X12697746Y100055609D01*
X12729545Y100030764D01*
X12792760Y99962094D01*
X12970424Y99823811D01*
X12970425Y99823811D01*
X12970427Y99823809D01*
X13030314Y99791400D01*
X13168426Y99716658D01*
X13381365Y99643556D01*
X13603431Y99606500D01*
X13828569Y99606500D01*
X14050635Y99643556D01*
X14263574Y99716658D01*
X14461576Y99823811D01*
X14639240Y99962094D01*
X14764419Y100098073D01*
X14791715Y100127724D01*
X14791715Y100127725D01*
X14791722Y100127732D01*
X14882193Y100266210D01*
X14935338Y100311563D01*
X15004569Y100320987D01*
X15067905Y100291485D01*
X15089804Y100266213D01*
X15180278Y100127732D01*
X15180283Y100127727D01*
X15180284Y100127724D01*
X15328705Y99966499D01*
X15332760Y99962094D01*
X15510424Y99823811D01*
X15510425Y99823811D01*
X15510427Y99823809D01*
X15570314Y99791400D01*
X15708426Y99716658D01*
X15921365Y99643556D01*
X16143431Y99606500D01*
X16368569Y99606500D01*
X16590630Y99643555D01*
X16590631Y99643556D01*
X16590635Y99643556D01*
X16590637Y99643558D01*
X16594849Y99644624D01*
X16664669Y99642012D01*
X16712990Y99612106D01*
X17316148Y99008947D01*
X17907912Y98417183D01*
X17917819Y98404818D01*
X17918029Y98404991D01*
X17923000Y98398982D01*
X17974079Y98351017D01*
X17979262Y98345834D01*
X17995228Y98329866D01*
X17995231Y98329864D01*
X18000818Y98325529D01*
X18005255Y98321739D01*
X18039680Y98289413D01*
X18057562Y98279583D01*
X18073829Y98268898D01*
X18089960Y98256385D01*
X18111838Y98246919D01*
X18133307Y98237629D01*
X18138533Y98235069D01*
X18179940Y98212305D01*
X18199716Y98207228D01*
X18218124Y98200925D01*
X18236850Y98192821D01*
X18236852Y98192820D01*
X18236853Y98192820D01*
X18236855Y98192819D01*
X18277784Y98186337D01*
X18283503Y98185431D01*
X18289212Y98184249D01*
X18334970Y98172500D01*
X18355384Y98172500D01*
X18374783Y98170973D01*
X18394943Y98167780D01*
X18441966Y98172225D01*
X18447804Y98172500D01*
X23181234Y98172500D01*
X23248273Y98152815D01*
X23268915Y98136181D01*
X23454681Y97950415D01*
X23488166Y97889092D01*
X23491000Y97862734D01*
X23491000Y96955502D01*
X23383315Y97004680D01*
X23276763Y97020000D01*
X23205237Y97020000D01*
X23098685Y97004680D01*
X22991000Y96955502D01*
X22991000Y97850636D01*
X22990999Y97850636D01*
X22777513Y97793433D01*
X22777507Y97793430D01*
X22563422Y97693601D01*
X22563420Y97693600D01*
X22369926Y97558114D01*
X22369920Y97558109D01*
X22202891Y97391080D01*
X22202886Y97391074D01*
X22067400Y97197580D01*
X22067399Y97197578D01*
X21967570Y96983493D01*
X21967567Y96983487D01*
X21910364Y96770001D01*
X21910364Y96770000D01*
X22807314Y96770000D01*
X22781507Y96729844D01*
X22741000Y96591889D01*
X22741000Y96448111D01*
X22781507Y96310156D01*
X22807314Y96270000D01*
X21910364Y96270000D01*
X21967567Y96056514D01*
X21967570Y96056508D01*
X22067399Y95842422D01*
X22202894Y95648918D01*
X22369917Y95481895D01*
X22563421Y95346400D01*
X22777507Y95246571D01*
X22777516Y95246567D01*
X22991000Y95189366D01*
X22991000Y96084499D01*
X23098685Y96035320D01*
X23205237Y96020000D01*
X23276763Y96020000D01*
X23383315Y96035320D01*
X23491000Y96084499D01*
X23491000Y95189367D01*
X23704483Y95246567D01*
X23704492Y95246571D01*
X23918578Y95346400D01*
X24112082Y95481895D01*
X24279105Y95648918D01*
X24405868Y95829952D01*
X24460445Y95873577D01*
X24529944Y95880769D01*
X24592298Y95849247D01*
X24611251Y95826650D01*
X24705276Y95682735D01*
X24705284Y95682724D01*
X24849692Y95525858D01*
X24857760Y95517094D01*
X25035424Y95378811D01*
X25035425Y95378811D01*
X25035427Y95378809D01*
X25040958Y95375816D01*
X25233426Y95271658D01*
X25446365Y95198556D01*
X25668431Y95161500D01*
X25893569Y95161500D01*
X26115630Y95198555D01*
X26115631Y95198556D01*
X26115635Y95198556D01*
X26115637Y95198558D01*
X26119849Y95199624D01*
X26189669Y95197012D01*
X26237991Y95167105D01*
X28118712Y93286383D01*
X28128616Y93274022D01*
X28128826Y93274195D01*
X28133801Y93268181D01*
X28184878Y93220216D01*
X28206024Y93199070D01*
X28211613Y93194734D01*
X28216045Y93190948D01*
X28247959Y93160980D01*
X28250480Y93158613D01*
X28268362Y93148783D01*
X28284629Y93138098D01*
X28300760Y93125585D01*
X28311530Y93120925D01*
X28344107Y93106829D01*
X28349333Y93104269D01*
X28390740Y93081505D01*
X28410516Y93076428D01*
X28428924Y93070125D01*
X28447650Y93062021D01*
X28447652Y93062020D01*
X28447653Y93062020D01*
X28447655Y93062019D01*
X28484517Y93056181D01*
X28494303Y93054631D01*
X28500012Y93053449D01*
X28545770Y93041700D01*
X28566184Y93041700D01*
X28585583Y93040173D01*
X28605743Y93036980D01*
X28652766Y93041425D01*
X28658604Y93041700D01*
X31804691Y93041700D01*
X31871730Y93022015D01*
X31896840Y93000673D01*
X31900747Y92996334D01*
X32055248Y92884082D01*
X32229712Y92806406D01*
X32416513Y92766700D01*
X32607487Y92766700D01*
X32794288Y92806406D01*
X32968752Y92884082D01*
X33123253Y92996334D01*
X33251040Y93138256D01*
X33346527Y93303644D01*
X33405542Y93485272D01*
X33425504Y93675200D01*
X33405542Y93865128D01*
X33346527Y94046756D01*
X33251040Y94212144D01*
X33123253Y94354066D01*
X32968752Y94466318D01*
X32794288Y94543994D01*
X32794286Y94543995D01*
X32607487Y94583700D01*
X32416513Y94583700D01*
X32229714Y94543995D01*
X32055246Y94466317D01*
X31900745Y94354065D01*
X31896840Y94349727D01*
X31837354Y94313079D01*
X31804691Y94308700D01*
X28939566Y94308700D01*
X28872527Y94328385D01*
X28851885Y94345019D01*
X28247085Y94949819D01*
X28213600Y95011142D01*
X28218584Y95080834D01*
X28260456Y95136767D01*
X28325920Y95161184D01*
X28334766Y95161500D01*
X28433569Y95161500D01*
X28655635Y95198556D01*
X28868574Y95271658D01*
X29066576Y95378811D01*
X29244240Y95517094D01*
X29396722Y95682732D01*
X29487193Y95821210D01*
X29540338Y95866563D01*
X29609569Y95875987D01*
X29672905Y95846485D01*
X29694804Y95821213D01*
X29785278Y95682732D01*
X29785283Y95682727D01*
X29785284Y95682724D01*
X29929692Y95525858D01*
X29937760Y95517094D01*
X30115424Y95378811D01*
X30115425Y95378811D01*
X30115427Y95378809D01*
X30120958Y95375816D01*
X30313426Y95271658D01*
X30526365Y95198556D01*
X30748431Y95161500D01*
X30973569Y95161500D01*
X31195635Y95198556D01*
X31408574Y95271658D01*
X31606576Y95378811D01*
X31784240Y95517094D01*
X31936722Y95682732D01*
X32027193Y95821210D01*
X32080338Y95866563D01*
X32149569Y95875987D01*
X32212905Y95846485D01*
X32234804Y95821213D01*
X32325278Y95682732D01*
X32325283Y95682727D01*
X32325284Y95682724D01*
X32469692Y95525858D01*
X32477760Y95517094D01*
X32655424Y95378811D01*
X32655425Y95378811D01*
X32655427Y95378809D01*
X32660958Y95375816D01*
X32853426Y95271658D01*
X33066365Y95198556D01*
X33288431Y95161500D01*
X33513569Y95161500D01*
X33735635Y95198556D01*
X33948574Y95271658D01*
X34146576Y95378811D01*
X34324240Y95517094D01*
X34476722Y95682732D01*
X34567193Y95821210D01*
X34620338Y95866563D01*
X34689569Y95875987D01*
X34752905Y95846485D01*
X34774804Y95821213D01*
X34865278Y95682732D01*
X34865283Y95682727D01*
X34865284Y95682724D01*
X35009692Y95525858D01*
X35017760Y95517094D01*
X35195424Y95378811D01*
X35195425Y95378811D01*
X35195427Y95378809D01*
X35200958Y95375816D01*
X35393426Y95271658D01*
X35606365Y95198556D01*
X35828431Y95161500D01*
X36053569Y95161500D01*
X36275630Y95198555D01*
X36275631Y95198556D01*
X36275635Y95198556D01*
X36275637Y95198558D01*
X36279849Y95199624D01*
X36349669Y95197012D01*
X36397991Y95167105D01*
X37557181Y94007915D01*
X37590666Y93946592D01*
X37593500Y93920234D01*
X37593500Y61146767D01*
X37573815Y61079728D01*
X37557181Y61059086D01*
X34317914Y57819819D01*
X34256591Y57786334D01*
X34230233Y57783500D01*
X10727766Y57783500D01*
X10660727Y57803185D01*
X10640085Y57819819D01*
X8611511Y59848394D01*
X8578026Y59909717D01*
X8583008Y59979405D01*
X8588222Y59993381D01*
X8630091Y60049313D01*
X8695555Y60073731D01*
X8763828Y60058880D01*
X8792084Y60037728D01*
X8907917Y59921895D01*
X9101421Y59786400D01*
X9315507Y59686571D01*
X9315516Y59686567D01*
X9529000Y59629366D01*
X9529000Y60524499D01*
X9636685Y60475320D01*
X9743237Y60460000D01*
X9814763Y60460000D01*
X9921315Y60475320D01*
X10029000Y60524499D01*
X10029000Y59629367D01*
X10242483Y59686567D01*
X10242492Y59686571D01*
X10456578Y59786400D01*
X10650082Y59921895D01*
X10817105Y60088918D01*
X10952600Y60282422D01*
X11052429Y60496508D01*
X11052432Y60496514D01*
X11109636Y60710000D01*
X10212686Y60710000D01*
X10238493Y60750156D01*
X10279000Y60888111D01*
X10279000Y61031889D01*
X10238493Y61169844D01*
X10212686Y61210000D01*
X11109636Y61210000D01*
X11109635Y61210001D01*
X11052432Y61423487D01*
X11052429Y61423493D01*
X10952601Y61637576D01*
X10836874Y61802851D01*
X10814547Y61869058D01*
X10831557Y61936825D01*
X10882505Y61984638D01*
X10951215Y61997316D01*
X11006402Y61977697D01*
X11084365Y61926620D01*
X11347232Y61754403D01*
X11347243Y61754397D01*
X11347250Y61754392D01*
X11847797Y61460000D01*
X12055626Y61337767D01*
X12375577Y61169844D01*
X12783323Y60955842D01*
X12783322Y60955843D01*
X13528626Y60609519D01*
X14160311Y60352328D01*
X14289779Y60299614D01*
X15065022Y60026842D01*
X15852539Y59791843D01*
X16650489Y59595165D01*
X17457010Y59437270D01*
X18270218Y59318524D01*
X18270224Y59318524D01*
X18270234Y59318522D01*
X19088213Y59239206D01*
X19088212Y59239206D01*
X19909076Y59199500D01*
X19909084Y59199500D01*
X20730924Y59199500D01*
X21551788Y59239206D01*
X21551787Y59239206D01*
X22369766Y59318522D01*
X22369775Y59318524D01*
X22369782Y59318524D01*
X23182990Y59437270D01*
X23989511Y59595165D01*
X24787461Y59791843D01*
X25574978Y60026842D01*
X26350221Y60299614D01*
X26479688Y60352328D01*
X27111374Y60609519D01*
X27856678Y60955843D01*
X27856677Y60955842D01*
X28264423Y61169844D01*
X28584374Y61337767D01*
X28792203Y61460000D01*
X29292750Y61754392D01*
X29292756Y61754397D01*
X29292768Y61754403D01*
X29980205Y62204777D01*
X29980207Y62204779D01*
X29980207Y62204778D01*
X30645087Y62687841D01*
X30645086Y62687841D01*
X31285853Y63202465D01*
X31900985Y63747425D01*
X32489085Y64321481D01*
X32489086Y64321484D01*
X32489093Y64321489D01*
X32796900Y64652462D01*
X33048772Y64923289D01*
X33578734Y65551441D01*
X34077711Y66204439D01*
X34077711Y66204440D01*
X34088878Y66220617D01*
X34544564Y66880792D01*
X34978188Y67578900D01*
X34978189Y67578901D01*
X35169847Y67923570D01*
X35377591Y68297166D01*
X35741820Y69033878D01*
X36044000Y69727569D01*
X36070029Y69787322D01*
X36070030Y69787322D01*
X36361458Y70555759D01*
X36615416Y71337361D01*
X36697388Y71638430D01*
X36831317Y72130326D01*
X37008655Y72932796D01*
X37147016Y73742897D01*
X37211686Y74275500D01*
X37246077Y74558731D01*
X37305607Y75378414D01*
X37325465Y76200000D01*
X37305607Y77021586D01*
X37246077Y77841269D01*
X37147016Y78657102D01*
X37008656Y79467199D01*
X36831316Y80269679D01*
X36615416Y81062639D01*
X36361456Y81844247D01*
X36224031Y82206608D01*
X36070030Y82612678D01*
X36070029Y82612678D01*
X35741820Y83366122D01*
X35377596Y84102824D01*
X35377595Y84102825D01*
X35377591Y84102834D01*
X34978195Y84821088D01*
X34978189Y84821099D01*
X34978188Y84821100D01*
X34800261Y85107551D01*
X34544564Y85519208D01*
X34077710Y86195562D01*
X33578734Y86848559D01*
X33048772Y87476711D01*
X32709791Y87841203D01*
X32489093Y88078511D01*
X32344385Y88219763D01*
X31900985Y88652575D01*
X31285853Y89197535D01*
X31242647Y89232235D01*
X30645086Y89712159D01*
X30645087Y89712159D01*
X29980207Y90195222D01*
X29980205Y90195223D01*
X29292768Y90645597D01*
X29292756Y90645604D01*
X29292750Y90645608D01*
X28584379Y91062230D01*
X28584374Y91062233D01*
X28263012Y91230897D01*
X27856677Y91444158D01*
X27856678Y91444157D01*
X27111374Y91790481D01*
X26350233Y92100381D01*
X26350235Y92100381D01*
X26350221Y92100386D01*
X25574978Y92373158D01*
X24787461Y92608157D01*
X23989511Y92804835D01*
X23182990Y92962730D01*
X22369782Y93081476D01*
X22369775Y93081477D01*
X22369766Y93081478D01*
X21551787Y93160794D01*
X21551788Y93160794D01*
X20730924Y93200500D01*
X20730916Y93200500D01*
X19909084Y93200500D01*
X19909076Y93200500D01*
X19088212Y93160794D01*
X19088213Y93160794D01*
X18270234Y93081478D01*
X18270224Y93081477D01*
X18270218Y93081476D01*
X17457010Y92962730D01*
X16650489Y92804835D01*
X15852539Y92608157D01*
X15065022Y92373158D01*
X14289779Y92100386D01*
X14289767Y92100381D01*
X13528626Y91790481D01*
X12783322Y91444157D01*
X12783323Y91444158D01*
X12376987Y91230897D01*
X12055626Y91062233D01*
X12055621Y91062230D01*
X11347250Y90645608D01*
X11347243Y90645604D01*
X11347232Y90645597D01*
X10659795Y90195223D01*
X10659793Y90195222D01*
X9994913Y89712159D01*
X9994914Y89712159D01*
X9397353Y89232235D01*
X9354147Y89197535D01*
X8739015Y88652575D01*
X8295615Y88219763D01*
X8150907Y88078511D01*
X7930208Y87841203D01*
X7591228Y87476711D01*
X7061266Y86848559D01*
X6562290Y86195562D01*
X6095436Y85519208D01*
X5839738Y85107551D01*
X5661812Y84821100D01*
X5661811Y84821099D01*
X5661805Y84821088D01*
X5262409Y84102834D01*
X5262404Y84102825D01*
X5262404Y84102824D01*
X4898180Y83366122D01*
X4569971Y82612678D01*
X4569970Y82612678D01*
X4415969Y82206608D01*
X4278544Y81844247D01*
X4024584Y81062639D01*
X3808684Y80269679D01*
X3631344Y79467199D01*
X3492984Y78657102D01*
X3393923Y77841269D01*
X3334393Y77021586D01*
X3314535Y76200000D01*
X3334393Y75378414D01*
X3393923Y74558731D01*
X3428314Y74275500D01*
X3492984Y73742897D01*
X3631345Y72932796D01*
X3808683Y72130326D01*
X3942612Y71638430D01*
X4024584Y71337361D01*
X4278542Y70555759D01*
X4569970Y69787322D01*
X4569971Y69787322D01*
X4596000Y69727569D01*
X4898180Y69033878D01*
X5262409Y68297166D01*
X5470153Y67923570D01*
X5661811Y67578901D01*
X5661812Y67578900D01*
X6095436Y66880792D01*
X6551122Y66220617D01*
X6562289Y66204440D01*
X6562289Y66204439D01*
X7061266Y65551441D01*
X7591228Y64923289D01*
X7843100Y64652462D01*
X8150907Y64321489D01*
X8150913Y64321484D01*
X8150915Y64321481D01*
X8739015Y63747425D01*
X9354147Y63202465D01*
X9994914Y62687841D01*
X9994913Y62687841D01*
X10299866Y62466280D01*
X10342532Y62410950D01*
X10348511Y62341337D01*
X10315905Y62279542D01*
X10255067Y62245185D01*
X10194888Y62246187D01*
X10029000Y62290637D01*
X10029000Y61395502D01*
X9921315Y61444680D01*
X9814763Y61460000D01*
X9743237Y61460000D01*
X9636685Y61444680D01*
X9529000Y61395502D01*
X9529000Y62290636D01*
X9528999Y62290636D01*
X9315513Y62233433D01*
X9315507Y62233430D01*
X9101422Y62133601D01*
X9101420Y62133600D01*
X8907926Y61998114D01*
X8792084Y61882272D01*
X8730761Y61848788D01*
X8661069Y61853772D01*
X8605136Y61895644D01*
X8588223Y61926616D01*
X8539889Y62056204D01*
X8452261Y62173261D01*
X8335204Y62260889D01*
X8198203Y62311989D01*
X8137654Y62318500D01*
X8137638Y62318500D01*
X6340362Y62318500D01*
X6340345Y62318500D01*
X6279797Y62311989D01*
X6279795Y62311989D01*
X6142795Y62260889D01*
X6025739Y62173261D01*
X5938111Y62056205D01*
X5887011Y61919205D01*
X5887011Y61919203D01*
X5880500Y61858655D01*
X5880500Y60061346D01*
X5887011Y60000798D01*
X5887011Y60000796D01*
X5920983Y59909717D01*
X5938111Y59863796D01*
X6025739Y59746739D01*
X6142796Y59659111D01*
X6279799Y59608011D01*
X6307050Y59605082D01*
X6340345Y59601501D01*
X6340362Y59601500D01*
X7015234Y59601500D01*
X7082273Y59581815D01*
X7102915Y59565181D01*
X9906912Y56761183D01*
X9916816Y56748822D01*
X9917026Y56748995D01*
X9922001Y56742981D01*
X9973078Y56695016D01*
X9994224Y56673870D01*
X9999813Y56669534D01*
X10004245Y56665748D01*
X10025853Y56645458D01*
X10038680Y56633413D01*
X10056562Y56623583D01*
X10072829Y56612898D01*
X10088960Y56600385D01*
X10110838Y56590919D01*
X10132307Y56581629D01*
X10137533Y56579069D01*
X10178940Y56556305D01*
X10198716Y56551228D01*
X10217124Y56544925D01*
X10235850Y56536821D01*
X10235852Y56536820D01*
X10235853Y56536820D01*
X10235855Y56536819D01*
X10276784Y56530337D01*
X10282503Y56529431D01*
X10288212Y56528249D01*
X10333970Y56516500D01*
X10354384Y56516500D01*
X10373783Y56514973D01*
X10393943Y56511780D01*
X10440966Y56516225D01*
X10446804Y56516500D01*
X34460366Y56516500D01*
X34476113Y56514762D01*
X34476139Y56515032D01*
X34483905Y56514299D01*
X34483909Y56514298D01*
X34553958Y56516500D01*
X34583856Y56516500D01*
X34583857Y56516500D01*
X34585222Y56516673D01*
X34590862Y56517386D01*
X34596685Y56517844D01*
X34622708Y56518662D01*
X34643890Y56519327D01*
X34653681Y56522173D01*
X34663481Y56525020D01*
X34682538Y56528968D01*
X34702797Y56531526D01*
X34746721Y56548918D01*
X34752221Y56550801D01*
X34797593Y56563982D01*
X34815165Y56574375D01*
X34832632Y56582932D01*
X34851617Y56590448D01*
X34889826Y56618210D01*
X34894704Y56621415D01*
X34935362Y56645458D01*
X34949802Y56659900D01*
X34964592Y56672530D01*
X34981107Y56684528D01*
X35011222Y56720933D01*
X35015126Y56725224D01*
X37831821Y59541918D01*
X37893142Y59575401D01*
X37962834Y59570417D01*
X38018767Y59528545D01*
X38043184Y59463081D01*
X38043500Y59454235D01*
X38043500Y58994004D01*
X38028163Y58934269D01*
X38014303Y58909059D01*
X38014303Y58909058D01*
X38009225Y58889280D01*
X38002925Y58870878D01*
X37994818Y58852143D01*
X37987431Y58805505D01*
X37986246Y58799784D01*
X37974500Y58754035D01*
X37974500Y58733616D01*
X37972973Y58714217D01*
X37969780Y58694059D01*
X37969780Y58694058D01*
X37974225Y58647034D01*
X37974500Y58641196D01*
X37974500Y28126767D01*
X37954815Y28059728D01*
X37938181Y28039086D01*
X26951914Y17052819D01*
X26890591Y17019334D01*
X26864233Y17016500D01*
X13902766Y17016500D01*
X13835727Y17036185D01*
X13815085Y17052819D01*
X9521213Y21346692D01*
X9487728Y21408015D01*
X9492712Y21477707D01*
X9529000Y21526787D01*
X9529000Y22424499D01*
X9636685Y22375320D01*
X9743237Y22360000D01*
X9814763Y22360000D01*
X9921315Y22375320D01*
X10029000Y22424499D01*
X10029000Y21529367D01*
X10242483Y21586567D01*
X10242492Y21586571D01*
X10456578Y21686400D01*
X10650082Y21821895D01*
X10817105Y21988918D01*
X10952600Y22182422D01*
X11052429Y22396508D01*
X11052432Y22396514D01*
X11109636Y22610000D01*
X10212686Y22610000D01*
X10238493Y22650156D01*
X10279000Y22788111D01*
X10279000Y22931889D01*
X10238493Y23069844D01*
X10212686Y23110000D01*
X11109636Y23110000D01*
X11109635Y23110001D01*
X11052432Y23323487D01*
X11052429Y23323493D01*
X10952600Y23537578D01*
X10952599Y23537580D01*
X10817113Y23731074D01*
X10817108Y23731080D01*
X10716120Y23832068D01*
X10682635Y23893391D01*
X10687619Y23963083D01*
X10729491Y24019016D01*
X10794955Y24043433D01*
X10863228Y24028581D01*
X10871749Y24023475D01*
X11321832Y23728603D01*
X11321843Y23728597D01*
X11321850Y23728592D01*
X11794694Y23450493D01*
X12030226Y23311967D01*
X12282779Y23179417D01*
X12757923Y22930042D01*
X12757922Y22930043D01*
X13503226Y22583719D01*
X14118871Y22333058D01*
X14264379Y22273814D01*
X15039622Y22001042D01*
X15827139Y21766043D01*
X16625089Y21569365D01*
X17431610Y21411470D01*
X18244818Y21292724D01*
X18244824Y21292724D01*
X18244834Y21292722D01*
X19062813Y21213406D01*
X19062812Y21213406D01*
X19883676Y21173700D01*
X19883684Y21173700D01*
X20705524Y21173700D01*
X21526388Y21213406D01*
X21526387Y21213406D01*
X22344366Y21292722D01*
X22344375Y21292724D01*
X22344382Y21292724D01*
X23157590Y21411470D01*
X23964111Y21569365D01*
X24762061Y21766043D01*
X25549578Y22001042D01*
X26324821Y22273814D01*
X26470329Y22333058D01*
X27085974Y22583719D01*
X27831278Y22930043D01*
X27831277Y22930042D01*
X28306421Y23179417D01*
X28558974Y23311967D01*
X28794506Y23450493D01*
X29267350Y23728592D01*
X29267356Y23728597D01*
X29267368Y23728603D01*
X29954805Y24178977D01*
X29954807Y24178979D01*
X29954807Y24178978D01*
X30619687Y24662041D01*
X30619686Y24662041D01*
X30970866Y24944087D01*
X31260442Y25176656D01*
X31260443Y25176658D01*
X31260453Y25176665D01*
X31875585Y25721625D01*
X32463685Y26295681D01*
X32463686Y26295684D01*
X32463693Y26295689D01*
X32761375Y26615775D01*
X33023372Y26897489D01*
X33553334Y27525641D01*
X34052311Y28178639D01*
X34052311Y28178640D01*
X34297502Y28533859D01*
X34519164Y28854992D01*
X34952788Y29553100D01*
X34952789Y29553101D01*
X35132541Y29876359D01*
X35352191Y30271366D01*
X35716420Y31008078D01*
X36044629Y31761522D01*
X36044630Y31761522D01*
X36267538Y32349287D01*
X36336056Y32529953D01*
X36590016Y33311561D01*
X36805917Y34104526D01*
X36983255Y34906996D01*
X37024650Y35149360D01*
X37097140Y35573793D01*
X37121616Y35717097D01*
X37154817Y35990530D01*
X37220677Y36532931D01*
X37280207Y37352614D01*
X37300065Y38174200D01*
X37280207Y38995786D01*
X37220677Y39815469D01*
X37121616Y40631302D01*
X37114978Y40670165D01*
X36997257Y41359422D01*
X36983256Y41441399D01*
X36805916Y42243879D01*
X36590016Y43036839D01*
X36438160Y43504203D01*
X36336058Y43818441D01*
X36325648Y43845889D01*
X36176422Y44239368D01*
X36044630Y44586878D01*
X36044629Y44586878D01*
X35716420Y45340322D01*
X35352196Y46077024D01*
X35352195Y46077025D01*
X35352191Y46077034D01*
X34952795Y46795288D01*
X34952789Y46795299D01*
X34952788Y46795300D01*
X34774861Y47081751D01*
X34519164Y47493408D01*
X34052310Y48169762D01*
X33735798Y48583973D01*
X33553334Y48822759D01*
X33023372Y49450911D01*
X32617782Y49887025D01*
X32463693Y50052711D01*
X31875591Y50626769D01*
X31875585Y50626775D01*
X31260453Y51171735D01*
X30688914Y51630759D01*
X30619686Y51686359D01*
X30619687Y51686359D01*
X29954807Y52169422D01*
X29954805Y52169423D01*
X29267368Y52619797D01*
X29267356Y52619804D01*
X29267350Y52619808D01*
X28558979Y53036430D01*
X28558974Y53036433D01*
X28237175Y53205326D01*
X27831277Y53418358D01*
X27831278Y53418357D01*
X27085974Y53764681D01*
X26324833Y54074581D01*
X26324835Y54074581D01*
X26324821Y54074586D01*
X25549578Y54347358D01*
X24762061Y54582357D01*
X23964111Y54779035D01*
X23157590Y54936930D01*
X22344382Y55055676D01*
X22344375Y55055677D01*
X22344366Y55055678D01*
X21526387Y55134994D01*
X21526388Y55134994D01*
X20705524Y55174700D01*
X20705516Y55174700D01*
X19883684Y55174700D01*
X19883676Y55174700D01*
X19062812Y55134994D01*
X19062813Y55134994D01*
X18244834Y55055678D01*
X18244824Y55055677D01*
X18244818Y55055676D01*
X17431610Y54936930D01*
X16625089Y54779035D01*
X15827139Y54582357D01*
X15039622Y54347358D01*
X14264379Y54074586D01*
X14264367Y54074581D01*
X13503226Y53764681D01*
X12757922Y53418357D01*
X12757923Y53418358D01*
X12352025Y53205326D01*
X12030226Y53036433D01*
X12030221Y53036430D01*
X11321850Y52619808D01*
X11321843Y52619804D01*
X11321832Y52619797D01*
X10634395Y52169423D01*
X10634393Y52169422D01*
X9969513Y51686359D01*
X9969514Y51686359D01*
X9900286Y51630759D01*
X9328747Y51171735D01*
X8713615Y50626775D01*
X8713609Y50626769D01*
X8125507Y50052711D01*
X7971418Y49887025D01*
X7565828Y49450911D01*
X7035866Y48822759D01*
X6853402Y48583973D01*
X6536890Y48169762D01*
X6070036Y47493408D01*
X5814338Y47081751D01*
X5636412Y46795300D01*
X5636411Y46795299D01*
X5636405Y46795288D01*
X5237009Y46077034D01*
X5237004Y46077025D01*
X5237004Y46077024D01*
X4872780Y45340322D01*
X4544571Y44586878D01*
X4544570Y44586878D01*
X4412778Y44239368D01*
X4263552Y43845889D01*
X4253142Y43818441D01*
X4151040Y43504203D01*
X3999184Y43036839D01*
X3783284Y42243879D01*
X3605944Y41441399D01*
X3591943Y41359422D01*
X3474222Y40670165D01*
X3467584Y40631302D01*
X3368523Y39815469D01*
X3308993Y38995786D01*
X3289135Y38174200D01*
X1000500Y38174200D01*
X1000500Y99695000D01*
X1331747Y99695000D01*
X1350741Y99380977D01*
X1350741Y99380972D01*
X1350742Y99380971D01*
X1407451Y99071522D01*
X1407452Y99071518D01*
X1407453Y99071514D01*
X1501039Y98771184D01*
X1501043Y98771173D01*
X1501044Y98771170D01*
X1501046Y98771165D01*
X1630163Y98484279D01*
X1792919Y98215048D01*
X1792924Y98215040D01*
X1986942Y97967395D01*
X2209394Y97744943D01*
X2457039Y97550925D01*
X2457044Y97550922D01*
X2457048Y97550919D01*
X2726279Y97388163D01*
X3013165Y97259046D01*
X3013175Y97259043D01*
X3013183Y97259040D01*
X3210416Y97197580D01*
X3313522Y97165451D01*
X3622971Y97108742D01*
X3937000Y97089747D01*
X4251029Y97108742D01*
X4560478Y97165451D01*
X4844783Y97254044D01*
X4860816Y97259040D01*
X4860817Y97259041D01*
X4860835Y97259046D01*
X5147721Y97388163D01*
X5416952Y97550919D01*
X5426130Y97558109D01*
X5553396Y97657816D01*
X5664602Y97744940D01*
X5887060Y97967398D01*
X6063667Y98192821D01*
X6081075Y98215040D01*
X6081075Y98215042D01*
X6081081Y98215048D01*
X6243837Y98484279D01*
X6372954Y98771165D01*
X6466549Y99071522D01*
X6523258Y99380971D01*
X6542253Y99695000D01*
X6523258Y100009029D01*
X6466549Y100318478D01*
X6374518Y100613817D01*
X6372960Y100618817D01*
X6372956Y100618828D01*
X6372954Y100618835D01*
X6243837Y100905721D01*
X6081081Y101174952D01*
X6081078Y101174956D01*
X6081075Y101174961D01*
X5887057Y101422606D01*
X5664605Y101645058D01*
X5416960Y101839076D01*
X5416952Y101839081D01*
X5147721Y102001837D01*
X4860835Y102130954D01*
X4860830Y102130956D01*
X4860827Y102130957D01*
X4860816Y102130961D01*
X4560486Y102224547D01*
X4560482Y102224548D01*
X4560478Y102224549D01*
X4251029Y102281258D01*
X4251028Y102281259D01*
X4251023Y102281259D01*
X3937000Y102300253D01*
X3622976Y102281259D01*
X3595687Y102276258D01*
X3313522Y102224549D01*
X3313519Y102224549D01*
X3313513Y102224547D01*
X3013183Y102130961D01*
X3013172Y102130957D01*
X3013166Y102130955D01*
X3013165Y102130954D01*
X2958137Y102106188D01*
X2729099Y102003106D01*
X2726279Y102001837D01*
X2718010Y101996838D01*
X2457039Y101839076D01*
X2209394Y101645058D01*
X1986942Y101422606D01*
X1792924Y101174961D01*
X1709457Y101036889D01*
X1665999Y100965000D01*
X1630162Y100905719D01*
X1630161Y100905717D01*
X1501043Y100618828D01*
X1501039Y100618817D01*
X1407453Y100318487D01*
X1407451Y100318481D01*
X1407451Y100318478D01*
X1368348Y100105103D01*
X1350741Y100009024D01*
X1331747Y99695000D01*
X1000500Y99695000D01*
X1000500Y102634500D01*
X1020185Y102701539D01*
X1072989Y102747294D01*
X1124500Y102758500D01*
X92093500Y102758500D01*
X92160539Y102738815D01*
G37*
%TD.AperFunction*%
%TD*%
M02*
