%TF.GenerationSoftware,KiCad,Pcbnew,7.0.9*%
%TF.CreationDate,2023-12-28T17:28:50+09:00*%
%TF.ProjectId,arcade_input_panel_support,61726361-6465-45f6-996e-7075745f7061,2*%
%TF.SameCoordinates,PX2246a88PY7fa82d0*%
%TF.FileFunction,Copper,L1,Top*%
%TF.FilePolarity,Positive*%
%FSLAX46Y46*%
G04 Gerber Fmt 4.6, Leading zero omitted, Abs format (unit mm)*
G04 Created by KiCad (PCBNEW 7.0.9) date 2023-12-28 17:28:50*
%MOMM*%
%LPD*%
G01*
G04 APERTURE LIST*
G04 Aperture macros list*
%AMRoundRect*
0 Rectangle with rounded corners*
0 $1 Rounding radius*
0 $2 $3 $4 $5 $6 $7 $8 $9 X,Y pos of 4 corners*
0 Add a 4 corners polygon primitive as box body*
4,1,4,$2,$3,$4,$5,$6,$7,$8,$9,$2,$3,0*
0 Add four circle primitives for the rounded corners*
1,1,$1+$1,$2,$3*
1,1,$1+$1,$4,$5*
1,1,$1+$1,$6,$7*
1,1,$1+$1,$8,$9*
0 Add four rect primitives between the rounded corners*
20,1,$1+$1,$2,$3,$4,$5,0*
20,1,$1+$1,$4,$5,$6,$7,0*
20,1,$1+$1,$6,$7,$8,$9,0*
20,1,$1+$1,$8,$9,$2,$3,0*%
G04 Aperture macros list end*
%TA.AperFunction,ComponentPad*%
%ADD10R,1.700000X1.700000*%
%TD*%
%TA.AperFunction,ComponentPad*%
%ADD11O,1.700000X1.700000*%
%TD*%
%TA.AperFunction,ComponentPad*%
%ADD12RoundRect,0.200000X-0.200000X-0.450000X0.200000X-0.450000X0.200000X0.450000X-0.200000X0.450000X0*%
%TD*%
%TA.AperFunction,ComponentPad*%
%ADD13O,0.800000X1.300000*%
%TD*%
%TA.AperFunction,ComponentPad*%
%ADD14RoundRect,0.200000X0.200000X0.450000X-0.200000X0.450000X-0.200000X-0.450000X0.200000X-0.450000X0*%
%TD*%
%TA.AperFunction,ViaPad*%
%ADD15C,0.800000*%
%TD*%
%TA.AperFunction,Conductor*%
%ADD16C,0.250000*%
%TD*%
G04 APERTURE END LIST*
D10*
%TO.P,J15,1,Pin_1*%
%TO.N,/START*%
X74549000Y98298000D03*
D11*
%TO.P,J15,2,Pin_2*%
%TO.N,GND*%
X74549000Y100838000D03*
%TO.P,J15,3,Pin_3*%
%TO.N,/SELECT*%
X77089000Y98298000D03*
%TO.P,J15,4,Pin_4*%
%TO.N,GND*%
X77089000Y100838000D03*
%TO.P,J15,5,Pin_5*%
%TO.N,/HOTKEY*%
X79629000Y98298000D03*
%TO.P,J15,6,Pin_6*%
%TO.N,GND*%
X79629000Y100838000D03*
%TO.P,J15,7,Pin_7*%
X82169000Y98298000D03*
%TO.P,J15,8,Pin_8*%
X82169000Y100838000D03*
%TD*%
%TO.P,J14,8,Pin_8*%
%TO.N,GND*%
X18796000Y100965000D03*
%TO.P,J14,7,Pin_7*%
X18796000Y98425000D03*
%TO.P,J14,6,Pin_6*%
X16256000Y100965000D03*
%TO.P,J14,5,Pin_5*%
%TO.N,/HOTKEY*%
X16256000Y98425000D03*
%TO.P,J14,4,Pin_4*%
%TO.N,GND*%
X13716000Y100965000D03*
%TO.P,J14,3,Pin_3*%
%TO.N,/SELECT*%
X13716000Y98425000D03*
%TO.P,J14,2,Pin_2*%
%TO.N,GND*%
X11176000Y100965000D03*
D10*
%TO.P,J14,1,Pin_1*%
%TO.N,/START*%
X11176000Y98425000D03*
%TD*%
D11*
%TO.P,J7,10,Pin_10*%
%TO.N,GND*%
X114681000Y32385000D03*
%TO.P,J7,9,Pin_9*%
X112141000Y32385000D03*
%TO.P,J7,8,Pin_8*%
X114681000Y34925000D03*
%TO.P,J7,7,Pin_7*%
%TO.N,/RIGHT*%
X112141000Y34925000D03*
%TO.P,J7,6,Pin_6*%
%TO.N,GND*%
X114681000Y37465000D03*
%TO.P,J7,5,Pin_5*%
%TO.N,/LEFT*%
X112141000Y37465000D03*
%TO.P,J7,4,Pin_4*%
%TO.N,GND*%
X114681000Y40005000D03*
%TO.P,J7,3,Pin_3*%
%TO.N,/DOWN*%
X112141000Y40005000D03*
%TO.P,J7,2,Pin_2*%
%TO.N,GND*%
X114681000Y42545000D03*
D10*
%TO.P,J7,1,Pin_1*%
%TO.N,/UP*%
X112141000Y42545000D03*
%TD*%
%TO.P,J4,1,Pin_1*%
%TO.N,GND*%
X20955000Y7493000D03*
D11*
%TO.P,J4,2,Pin_2*%
%TO.N,/HOTKEY*%
X23495000Y7493000D03*
%TO.P,J4,3,Pin_3*%
%TO.N,/TR*%
X26035000Y7493000D03*
%TO.P,J4,4,Pin_4*%
%TO.N,/TL*%
X28575000Y7493000D03*
%TO.P,J4,5,Pin_5*%
%TO.N,/Y*%
X31115000Y7493000D03*
%TO.P,J4,6,Pin_6*%
%TO.N,/X*%
X33655000Y7493000D03*
%TO.P,J4,7,Pin_7*%
%TO.N,/B*%
X36195000Y7493000D03*
%TO.P,J4,8,Pin_8*%
%TO.N,/A*%
X38735000Y7493000D03*
%TO.P,J4,9,Pin_9*%
%TO.N,/SELECT*%
X41275000Y7493000D03*
%TO.P,J4,10,Pin_10*%
%TO.N,/START*%
X43815000Y7493000D03*
%TO.P,J4,11,Pin_11*%
%TO.N,/RIGHT*%
X46355000Y7493000D03*
%TO.P,J4,12,Pin_12*%
%TO.N,/LEFT*%
X48895000Y7493000D03*
%TO.P,J4,13,Pin_13*%
%TO.N,/DOWN*%
X51435000Y7493000D03*
%TO.P,J4,14,Pin_14*%
%TO.N,/UP*%
X53975000Y7493000D03*
%TO.P,J4,15,Pin_15*%
%TO.N,GND*%
X56515000Y7493000D03*
%TD*%
D10*
%TO.P,J12,1,Pin_1*%
%TO.N,/TL*%
X77978000Y41910000D03*
D11*
%TO.P,J12,2,Pin_2*%
%TO.N,GND*%
X80518000Y41910000D03*
%TD*%
D10*
%TO.P,J3,1,Pin_1*%
%TO.N,GND*%
X58801000Y96266000D03*
D11*
%TO.P,J3,2,Pin_2*%
%TO.N,/HOTKEY*%
X56261000Y96266000D03*
%TO.P,J3,3,Pin_3*%
%TO.N,/TR*%
X53721000Y96266000D03*
%TO.P,J3,4,Pin_4*%
%TO.N,/TL*%
X51181000Y96266000D03*
%TO.P,J3,5,Pin_5*%
%TO.N,/Y*%
X48641000Y96266000D03*
%TO.P,J3,6,Pin_6*%
%TO.N,/X*%
X46101000Y96266000D03*
%TO.P,J3,7,Pin_7*%
%TO.N,/B*%
X43561000Y96266000D03*
%TO.P,J3,8,Pin_8*%
%TO.N,/A*%
X41021000Y96266000D03*
%TO.P,J3,9,Pin_9*%
%TO.N,/SELECT*%
X38481000Y96266000D03*
%TO.P,J3,10,Pin_10*%
%TO.N,/START*%
X35941000Y96266000D03*
%TO.P,J3,11,Pin_11*%
%TO.N,/RIGHT*%
X33401000Y96266000D03*
%TO.P,J3,12,Pin_12*%
%TO.N,/LEFT*%
X30861000Y96266000D03*
%TO.P,J3,13,Pin_13*%
%TO.N,/DOWN*%
X28321000Y96266000D03*
%TO.P,J3,14,Pin_14*%
%TO.N,/UP*%
X25781000Y96266000D03*
%TO.P,J3,15,Pin_15*%
%TO.N,GND*%
X23241000Y96266000D03*
%TD*%
D10*
%TO.P,J10,1,Pin_1*%
%TO.N,/X*%
X7112000Y60833000D03*
D11*
%TO.P,J10,2,Pin_2*%
%TO.N,GND*%
X9652000Y60833000D03*
%TD*%
D10*
%TO.P,J8,1,Pin_1*%
%TO.N,/A*%
X7112000Y22733000D03*
D11*
%TO.P,J8,2,Pin_2*%
%TO.N,GND*%
X9652000Y22733000D03*
%TD*%
D10*
%TO.P,J11,1,Pin_1*%
%TO.N,/Y*%
X45085000Y60833000D03*
D11*
%TO.P,J11,2,Pin_2*%
%TO.N,GND*%
X47625000Y60833000D03*
%TD*%
D12*
%TO.P,J2,1,Pin_1*%
%TO.N,GND*%
X30025000Y2692400D03*
D13*
%TO.P,J2,2,Pin_2*%
%TO.N,/HOTKEY*%
X31275000Y2692400D03*
%TO.P,J2,3,Pin_3*%
%TO.N,/TR*%
X32525000Y2692400D03*
%TO.P,J2,4,Pin_4*%
%TO.N,/TL*%
X33775000Y2692400D03*
%TO.P,J2,5,Pin_5*%
%TO.N,/Y*%
X35025000Y2692400D03*
%TO.P,J2,6,Pin_6*%
%TO.N,/X*%
X36275000Y2692400D03*
%TO.P,J2,7,Pin_7*%
%TO.N,/B*%
X37525000Y2692400D03*
%TO.P,J2,8,Pin_8*%
%TO.N,/A*%
X38775000Y2692400D03*
%TO.P,J2,9,Pin_9*%
%TO.N,/SELECT*%
X40025000Y2692400D03*
%TO.P,J2,10,Pin_10*%
%TO.N,/START*%
X41275000Y2692400D03*
%TO.P,J2,11,Pin_11*%
%TO.N,/RIGHT*%
X42525000Y2692400D03*
%TO.P,J2,12,Pin_12*%
%TO.N,/LEFT*%
X43775000Y2692400D03*
%TO.P,J2,13,Pin_13*%
%TO.N,/DOWN*%
X45025000Y2692400D03*
%TO.P,J2,14,Pin_14*%
%TO.N,/UP*%
X46275000Y2692400D03*
%TO.P,J2,15,Pin_15*%
%TO.N,GND*%
X47525000Y2692400D03*
%TD*%
D14*
%TO.P,J1,1,Pin_1*%
%TO.N,GND*%
X49784000Y101092000D03*
D13*
%TO.P,J1,2,Pin_2*%
%TO.N,/HOTKEY*%
X48534000Y101092000D03*
%TO.P,J1,3,Pin_3*%
%TO.N,/TR*%
X47284000Y101092000D03*
%TO.P,J1,4,Pin_4*%
%TO.N,/TL*%
X46034000Y101092000D03*
%TO.P,J1,5,Pin_5*%
%TO.N,/Y*%
X44784000Y101092000D03*
%TO.P,J1,6,Pin_6*%
%TO.N,/X*%
X43534000Y101092000D03*
%TO.P,J1,7,Pin_7*%
%TO.N,/B*%
X42284000Y101092000D03*
%TO.P,J1,8,Pin_8*%
%TO.N,/A*%
X41034000Y101092000D03*
%TO.P,J1,9,Pin_9*%
%TO.N,/SELECT*%
X39784000Y101092000D03*
%TO.P,J1,10,Pin_10*%
%TO.N,/START*%
X38534000Y101092000D03*
%TO.P,J1,11,Pin_11*%
%TO.N,/RIGHT*%
X37284000Y101092000D03*
%TO.P,J1,12,Pin_12*%
%TO.N,/LEFT*%
X36034000Y101092000D03*
%TO.P,J1,13,Pin_13*%
%TO.N,/DOWN*%
X34784000Y101092000D03*
%TO.P,J1,14,Pin_14*%
%TO.N,/UP*%
X33534000Y101092000D03*
%TO.P,J1,15,Pin_15*%
%TO.N,GND*%
X32284000Y101092000D03*
%TD*%
D10*
%TO.P,J13,1,Pin_1*%
%TO.N,/TR*%
X77978000Y3810000D03*
D11*
%TO.P,J13,2,Pin_2*%
%TO.N,GND*%
X80518000Y3810000D03*
%TD*%
D10*
%TO.P,J9,1,Pin_1*%
%TO.N,/B*%
X45085000Y22860000D03*
D11*
%TO.P,J9,2,Pin_2*%
%TO.N,GND*%
X47625000Y22860000D03*
%TD*%
D15*
%TO.N,/HOTKEY*%
X23571200Y10668000D03*
%TO.N,/TR*%
X26009600Y11582400D03*
%TO.N,/TL*%
X28549600Y12547600D03*
%TO.N,/Y*%
X31140400Y13614400D03*
%TO.N,/X*%
X33655000Y14605000D03*
%TO.N,/B*%
X36322000Y10541000D03*
%TO.N,/A*%
X38735000Y11379200D03*
%TO.N,/SELECT*%
X41275000Y12242800D03*
%TO.N,/START*%
X43815000Y13258800D03*
%TO.N,/LEFT*%
X68834000Y96647000D03*
%TO.N,/DOWN*%
X68834000Y98044000D03*
%TO.N,/UP*%
X68834000Y99441000D03*
%TO.N,/RIGHT*%
X68834000Y95377000D03*
%TD*%
D16*
%TO.N,/HOTKEY*%
X47244000Y93091000D02*
X53086000Y93091000D01*
X40640000Y16256000D02*
X40640000Y86487000D01*
X40640000Y86487000D02*
X47244000Y93091000D01*
X35052000Y10668000D02*
X40640000Y16256000D01*
X23571200Y10668000D02*
X35052000Y10668000D01*
X53086000Y93091000D02*
X56261000Y96266000D01*
%TO.N,/TR*%
X46609000Y93599000D02*
X51054000Y93599000D01*
X51054000Y93599000D02*
X53721000Y96266000D01*
X40005000Y16891000D02*
X40005000Y86995000D01*
X34696400Y11582400D02*
X40005000Y16891000D01*
X40005000Y86995000D02*
X46609000Y93599000D01*
X26009600Y11582400D02*
X34696400Y11582400D01*
%TO.N,/TL*%
X39370000Y17526000D02*
X39370000Y87503000D01*
X45974000Y94107000D02*
X49022000Y94107000D01*
X34391600Y12547600D02*
X39370000Y17526000D01*
X39370000Y87503000D02*
X45974000Y94107000D01*
X49022000Y94107000D02*
X51181000Y96266000D01*
X28549600Y12547600D02*
X34391600Y12547600D01*
%TO.N,/Y*%
X46990000Y94615000D02*
X48641000Y96266000D01*
X45466000Y94615000D02*
X46990000Y94615000D01*
X38735000Y18161000D02*
X38735000Y87884000D01*
X31140400Y13614400D02*
X34188400Y13614400D01*
X38735000Y87884000D02*
X45466000Y94615000D01*
X34188400Y13614400D02*
X38735000Y18161000D01*
%TO.N,/START*%
X43815000Y13258800D02*
X43815000Y7493000D01*
%TO.N,/SELECT*%
X41275000Y12242800D02*
X41275000Y7493000D01*
%TO.N,/A*%
X38735000Y11379200D02*
X38735000Y7493000D01*
%TO.N,/HOTKEY*%
X31275000Y3142000D02*
X31275000Y2692400D01*
X26543000Y4445000D02*
X29972000Y4445000D01*
X29972000Y4445000D02*
X31275000Y3142000D01*
X23495000Y7493000D02*
X26543000Y4445000D01*
%TO.N,/TR*%
X30549850Y5080000D02*
X32525000Y3104850D01*
X28448000Y5080000D02*
X30549850Y5080000D01*
X32525000Y3104850D02*
X32525000Y2692400D01*
X26035000Y7493000D02*
X28448000Y5080000D01*
%TO.N,/TL*%
X33715000Y3115000D02*
X33715000Y2540000D01*
X31242000Y5588000D02*
X33715000Y3115000D01*
X30480000Y5588000D02*
X31242000Y5588000D01*
X28575000Y7493000D02*
X30480000Y5588000D01*
%TO.N,/Y*%
X35025000Y3583000D02*
X31115000Y7493000D01*
X35025000Y2692400D02*
X35025000Y3583000D01*
%TO.N,/X*%
X36275000Y4873000D02*
X36275000Y2692400D01*
X33655000Y7493000D02*
X36275000Y4873000D01*
%TO.N,/UP*%
X50927000Y4445000D02*
X53975000Y7493000D01*
X47625000Y4445000D02*
X50927000Y4445000D01*
X46275000Y3095000D02*
X47625000Y4445000D01*
X46275000Y2692400D02*
X46275000Y3095000D01*
%TO.N,/DOWN*%
X49022000Y5080000D02*
X51435000Y7493000D01*
X46863000Y5080000D02*
X49022000Y5080000D01*
X45025000Y3242000D02*
X46863000Y5080000D01*
X45025000Y2692400D02*
X45025000Y3242000D01*
%TO.N,/LEFT*%
X47117000Y5715000D02*
X48895000Y7493000D01*
X46329600Y5715000D02*
X47117000Y5715000D01*
X43775000Y3160400D02*
X46329600Y5715000D01*
X43775000Y2692400D02*
X43775000Y3160400D01*
%TO.N,/RIGHT*%
X46355000Y7493000D02*
X42525000Y3663000D01*
X42525000Y3663000D02*
X42525000Y2692400D01*
%TO.N,/START*%
X41275000Y4953000D02*
X43815000Y7493000D01*
X41275000Y2692400D02*
X41275000Y4953000D01*
%TO.N,/SELECT*%
X40025000Y6243000D02*
X40025000Y2692400D01*
X41275000Y7493000D02*
X40025000Y6243000D01*
%TO.N,/B*%
X37525000Y6163000D02*
X37525000Y2692400D01*
X36195000Y7493000D02*
X37525000Y6163000D01*
%TO.N,/A*%
X38735000Y7493000D02*
X38775000Y7453000D01*
%TO.N,/B*%
X36195000Y10414000D02*
X36195000Y7493000D01*
X36322000Y10541000D02*
X36195000Y10414000D01*
%TO.N,/A*%
X38775000Y7453000D02*
X38775000Y2692400D01*
%TO.N,/LEFT*%
X36034000Y100550000D02*
X36034000Y101092000D01*
X30861000Y96266000D02*
X33020000Y98425000D01*
X33020000Y98425000D02*
X33909000Y98425000D01*
X33909000Y98425000D02*
X36034000Y100550000D01*
%TO.N,/DOWN*%
X33274000Y99060000D02*
X31115000Y99060000D01*
X34784000Y100570000D02*
X33274000Y99060000D01*
X34784000Y101092000D02*
X34784000Y100570000D01*
X31115000Y99060000D02*
X28321000Y96266000D01*
%TO.N,/UP*%
X33534000Y100717000D02*
X33534000Y101092000D01*
X29083000Y99568000D02*
X32385000Y99568000D01*
X25781000Y96266000D02*
X29083000Y99568000D01*
X32385000Y99568000D02*
X33534000Y100717000D01*
%TO.N,/Y*%
X44784000Y99996000D02*
X44784000Y101092000D01*
X48514000Y96266000D02*
X44784000Y99996000D01*
X48641000Y96266000D02*
X48514000Y96266000D01*
%TO.N,/X*%
X43534000Y99087000D02*
X43534000Y101092000D01*
X46101000Y96520000D02*
X43534000Y99087000D01*
X46101000Y96266000D02*
X46101000Y96520000D01*
%TO.N,/B*%
X42284000Y97543000D02*
X42284000Y101092000D01*
X43561000Y96266000D02*
X42284000Y97543000D01*
%TO.N,/RIGHT*%
X37284000Y100149000D02*
X37284000Y101092000D01*
X33401000Y96266000D02*
X37284000Y100149000D01*
%TO.N,/START*%
X38534000Y98859000D02*
X38534000Y101092000D01*
X35941000Y96266000D02*
X38534000Y98859000D01*
%TO.N,/SELECT*%
X39784000Y97569000D02*
X39784000Y101092000D01*
X38481000Y96266000D02*
X39784000Y97569000D01*
%TO.N,/A*%
X41034000Y96279000D02*
X41034000Y101092000D01*
X41021000Y96266000D02*
X41034000Y96279000D01*
%TO.N,/TR*%
X48445000Y98875000D02*
X47284000Y100036000D01*
X51366000Y98875000D02*
X48445000Y98875000D01*
%TO.N,/HOTKEY*%
X56261000Y96520000D02*
X53213000Y99568000D01*
X53213000Y99568000D02*
X48895000Y99568000D01*
X56261000Y96266000D02*
X56261000Y96520000D01*
%TO.N,/TL*%
X47625000Y98425000D02*
X46034000Y100016000D01*
%TO.N,/HOTKEY*%
X48895000Y99568000D02*
X48534000Y99929000D01*
%TO.N,/TR*%
X53721000Y96266000D02*
X53721000Y96520000D01*
%TO.N,/TL*%
X51181000Y96266000D02*
X49022000Y98425000D01*
X49022000Y98425000D02*
X47625000Y98425000D01*
%TO.N,/TR*%
X47284000Y100036000D02*
X47284000Y101092000D01*
%TO.N,/TL*%
X46034000Y100016000D02*
X46034000Y101092000D01*
%TO.N,/HOTKEY*%
X48534000Y99929000D02*
X48534000Y101092000D01*
%TO.N,/TR*%
X53721000Y96520000D02*
X51366000Y98875000D01*
%TO.N,/B*%
X45212000Y19431000D02*
X45212000Y22733000D01*
X45212000Y22733000D02*
X45085000Y22860000D01*
X36322000Y10541000D02*
X45212000Y19431000D01*
%TO.N,/X*%
X34036000Y57404000D02*
X38100000Y61468000D01*
X7112000Y60833000D02*
X10541000Y57404000D01*
X10541000Y57404000D02*
X34036000Y57404000D01*
%TO.N,/RIGHT*%
X109347000Y65151000D02*
X109347000Y37719000D01*
X97282000Y77216000D02*
X109347000Y65151000D01*
X109347000Y37719000D02*
X112141000Y34925000D01*
X86995000Y77216000D02*
X97282000Y77216000D01*
X68834000Y95377000D02*
X86995000Y77216000D01*
%TO.N,/LEFT*%
X112141000Y37846000D02*
X112141000Y37465000D01*
X87503000Y77978000D02*
X97536000Y77978000D01*
X68834000Y96647000D02*
X87503000Y77978000D01*
X97536000Y77978000D02*
X110109000Y65405000D01*
X110109000Y65405000D02*
X110109000Y39878000D01*
X110109000Y39878000D02*
X112141000Y37846000D01*
%TO.N,/DOWN*%
X110744000Y41402000D02*
X112141000Y40005000D01*
X110744000Y65659000D02*
X110744000Y41402000D01*
X88138000Y78740000D02*
X97663000Y78740000D01*
X97663000Y78740000D02*
X110744000Y65659000D01*
X68834000Y98044000D02*
X88138000Y78740000D01*
%TO.N,/UP*%
X111506000Y65786000D02*
X111506000Y43180000D01*
X97790000Y79502000D02*
X111506000Y65786000D01*
X88773000Y79502000D02*
X97790000Y79502000D01*
X68834000Y99441000D02*
X88773000Y79502000D01*
X111506000Y43180000D02*
X112141000Y42545000D01*
%TO.N,/X*%
X38100000Y59055000D02*
X38100000Y88265000D01*
X38100000Y19050000D02*
X38100000Y59055000D01*
X38100000Y88265000D02*
X46101000Y96266000D01*
X33655000Y14605000D02*
X38100000Y19050000D01*
%TO.N,/UP*%
X25527000Y96520000D02*
X25781000Y96266000D01*
%TO.N,/SELECT*%
X17653000Y94488000D02*
X13716000Y98425000D01*
X36703000Y94488000D02*
X17653000Y94488000D01*
X38481000Y96266000D02*
X36703000Y94488000D01*
%TO.N,/UP*%
X25400000Y96520000D02*
X25527000Y96520000D01*
%TO.N,/HOTKEY*%
X31215000Y2632400D02*
X31215000Y2540000D01*
X31275000Y2692400D02*
X31215000Y2632400D01*
%TO.N,/DOWN*%
X44965000Y2540000D02*
X44965000Y2632400D01*
X44965000Y2632400D02*
X45025000Y2692400D01*
%TD*%
%TA.AperFunction,Conductor*%
%TO.N,GND*%
G36*
X30218039Y2922715D02*
G01*
X30263794Y2869911D01*
X30275000Y2818400D01*
X30275000Y2717024D01*
X30260495Y2789945D01*
X30205240Y2872640D01*
X30122545Y2927895D01*
X30049624Y2942400D01*
X30151000Y2942400D01*
X30218039Y2922715D01*
G37*
%TD.AperFunction*%
%TA.AperFunction,Conductor*%
G36*
X47427455Y2927895D02*
G01*
X47344760Y2872640D01*
X47289505Y2789945D01*
X47275000Y2717024D01*
X47275000Y2818400D01*
X47294685Y2885439D01*
X47347489Y2931194D01*
X47399000Y2942400D01*
X47500376Y2942400D01*
X47427455Y2927895D01*
G37*
%TD.AperFunction*%
%TA.AperFunction,Conductor*%
G36*
X19046000Y98860502D02*
G01*
X18938315Y98909680D01*
X18831763Y98925000D01*
X18760237Y98925000D01*
X18653685Y98909680D01*
X18546000Y98860502D01*
X18546000Y100529499D01*
X18653685Y100480320D01*
X18760237Y100465000D01*
X18831763Y100465000D01*
X18938315Y100480320D01*
X19046000Y100529499D01*
X19046000Y98860502D01*
G37*
%TD.AperFunction*%
%TA.AperFunction,Conductor*%
G36*
X13256507Y101174844D02*
G01*
X13216000Y101036889D01*
X13216000Y100893111D01*
X13256507Y100755156D01*
X13282314Y100715000D01*
X11609686Y100715000D01*
X11635493Y100755156D01*
X11676000Y100893111D01*
X11676000Y101036889D01*
X11635493Y101174844D01*
X11609686Y101215000D01*
X13282314Y101215000D01*
X13256507Y101174844D01*
G37*
%TD.AperFunction*%
%TA.AperFunction,Conductor*%
G36*
X15796507Y101174844D02*
G01*
X15756000Y101036889D01*
X15756000Y100893111D01*
X15796507Y100755156D01*
X15822314Y100715000D01*
X14149686Y100715000D01*
X14175493Y100755156D01*
X14216000Y100893111D01*
X14216000Y101036889D01*
X14175493Y101174844D01*
X14149686Y101215000D01*
X15822314Y101215000D01*
X15796507Y101174844D01*
G37*
%TD.AperFunction*%
%TA.AperFunction,Conductor*%
G36*
X18336507Y101174844D02*
G01*
X18296000Y101036889D01*
X18296000Y100893111D01*
X18336507Y100755156D01*
X18362314Y100715000D01*
X16689686Y100715000D01*
X16715493Y100755156D01*
X16756000Y100893111D01*
X16756000Y101036889D01*
X16715493Y101174844D01*
X16689686Y101215000D01*
X18362314Y101215000D01*
X18336507Y101174844D01*
G37*
%TD.AperFunction*%
%TA.AperFunction,Conductor*%
G36*
X32534000Y100966000D02*
G01*
X32514315Y100898961D01*
X32461511Y100853206D01*
X32410000Y100842000D01*
X32308624Y100842000D01*
X32381545Y100856505D01*
X32464240Y100911760D01*
X32519495Y100994455D01*
X32534000Y101067377D01*
X32534000Y100966000D01*
G37*
%TD.AperFunction*%
%TA.AperFunction,Conductor*%
G36*
X49548505Y100994455D02*
G01*
X49603760Y100911760D01*
X49686455Y100856505D01*
X49759376Y100842000D01*
X49658000Y100842000D01*
X49590961Y100861685D01*
X49545206Y100914489D01*
X49534000Y100966000D01*
X49534000Y101067377D01*
X49548505Y100994455D01*
G37*
%TD.AperFunction*%
%TA.AperFunction,Conductor*%
G36*
X114221507Y32594844D02*
G01*
X114181000Y32456889D01*
X114181000Y32313111D01*
X114221507Y32175156D01*
X114247314Y32135000D01*
X112574686Y32135000D01*
X112600493Y32175156D01*
X112641000Y32313111D01*
X112641000Y32456889D01*
X112600493Y32594844D01*
X112574686Y32635000D01*
X114247314Y32635000D01*
X114221507Y32594844D01*
G37*
%TD.AperFunction*%
%TA.AperFunction,Conductor*%
G36*
X114931000Y32820502D02*
G01*
X114823315Y32869680D01*
X114716763Y32885000D01*
X114645237Y32885000D01*
X114538685Y32869680D01*
X114431000Y32820502D01*
X114431000Y34489499D01*
X114538685Y34440320D01*
X114645237Y34425000D01*
X114716763Y34425000D01*
X114823315Y34440320D01*
X114931000Y34489499D01*
X114931000Y32820502D01*
G37*
%TD.AperFunction*%
%TA.AperFunction,Conductor*%
G36*
X114931000Y35360502D02*
G01*
X114823315Y35409680D01*
X114716763Y35425000D01*
X114645237Y35425000D01*
X114538685Y35409680D01*
X114431000Y35360502D01*
X114431000Y37029499D01*
X114538685Y36980320D01*
X114645237Y36965000D01*
X114716763Y36965000D01*
X114823315Y36980320D01*
X114931000Y37029499D01*
X114931000Y35360502D01*
G37*
%TD.AperFunction*%
%TA.AperFunction,Conductor*%
G36*
X114931000Y37900502D02*
G01*
X114823315Y37949680D01*
X114716763Y37965000D01*
X114645237Y37965000D01*
X114538685Y37949680D01*
X114431000Y37900502D01*
X114431000Y39569499D01*
X114538685Y39520320D01*
X114645237Y39505000D01*
X114716763Y39505000D01*
X114823315Y39520320D01*
X114931000Y39569499D01*
X114931000Y37900502D01*
G37*
%TD.AperFunction*%
%TA.AperFunction,Conductor*%
G36*
X114931000Y40440502D02*
G01*
X114823315Y40489680D01*
X114716763Y40505000D01*
X114645237Y40505000D01*
X114538685Y40489680D01*
X114431000Y40440502D01*
X114431000Y42109499D01*
X114538685Y42060320D01*
X114645237Y42045000D01*
X114716763Y42045000D01*
X114823315Y42060320D01*
X114931000Y42109499D01*
X114931000Y40440502D01*
G37*
%TD.AperFunction*%
%TA.AperFunction,Conductor*%
G36*
X82419000Y98733502D02*
G01*
X82311315Y98782680D01*
X82204763Y98798000D01*
X82133237Y98798000D01*
X82026685Y98782680D01*
X81919000Y98733502D01*
X81919000Y100402499D01*
X82026685Y100353320D01*
X82133237Y100338000D01*
X82204763Y100338000D01*
X82311315Y100353320D01*
X82419000Y100402499D01*
X82419000Y98733502D01*
G37*
%TD.AperFunction*%
%TA.AperFunction,Conductor*%
G36*
X76629507Y101047844D02*
G01*
X76589000Y100909889D01*
X76589000Y100766111D01*
X76629507Y100628156D01*
X76655314Y100588000D01*
X74982686Y100588000D01*
X75008493Y100628156D01*
X75049000Y100766111D01*
X75049000Y100909889D01*
X75008493Y101047844D01*
X74982686Y101088000D01*
X76655314Y101088000D01*
X76629507Y101047844D01*
G37*
%TD.AperFunction*%
%TA.AperFunction,Conductor*%
G36*
X79169507Y101047844D02*
G01*
X79129000Y100909889D01*
X79129000Y100766111D01*
X79169507Y100628156D01*
X79195314Y100588000D01*
X77522686Y100588000D01*
X77548493Y100628156D01*
X77589000Y100766111D01*
X77589000Y100909889D01*
X77548493Y101047844D01*
X77522686Y101088000D01*
X79195314Y101088000D01*
X79169507Y101047844D01*
G37*
%TD.AperFunction*%
%TA.AperFunction,Conductor*%
G36*
X81709507Y101047844D02*
G01*
X81669000Y100909889D01*
X81669000Y100766111D01*
X81709507Y100628156D01*
X81735314Y100588000D01*
X80062686Y100588000D01*
X80088493Y100628156D01*
X80129000Y100766111D01*
X80129000Y100909889D01*
X80088493Y101047844D01*
X80062686Y101088000D01*
X81735314Y101088000D01*
X81709507Y101047844D01*
G37*
%TD.AperFunction*%
%TA.AperFunction,Conductor*%
G36*
X92160539Y102738815D02*
G01*
X92206294Y102686011D01*
X92217500Y102634500D01*
X92217500Y88915326D01*
X92214857Y88828889D01*
X92214857Y88828883D01*
X92225839Y88765708D01*
X92226437Y88761363D01*
X92232925Y88697567D01*
X92232927Y88697558D01*
X92242374Y88667445D01*
X92244301Y88659500D01*
X92246868Y88644740D01*
X92249707Y88628413D01*
X92273182Y88568734D01*
X92274642Y88564600D01*
X92293841Y88503411D01*
X92309153Y88475824D01*
X92312643Y88468425D01*
X92324196Y88439058D01*
X92359208Y88385322D01*
X92361472Y88381563D01*
X92392590Y88325499D01*
X92413145Y88301556D01*
X92418054Y88295010D01*
X92435281Y88268571D01*
X92480398Y88222980D01*
X92483351Y88219776D01*
X92503321Y88196513D01*
X92525128Y88171111D01*
X92525131Y88171109D01*
X92525134Y88171105D01*
X92550094Y88151784D01*
X92556207Y88146372D01*
X116311639Y64140883D01*
X116344803Y64079386D01*
X116347500Y64053663D01*
X116347500Y1124500D01*
X116327815Y1057461D01*
X116275011Y1011706D01*
X116223500Y1000500D01*
X1124500Y1000500D01*
X1057461Y1020185D01*
X1011706Y1072989D01*
X1000500Y1124500D01*
X1000500Y4064000D01*
X1331747Y4064000D01*
X1350741Y3749977D01*
X1350741Y3749972D01*
X1350742Y3749971D01*
X1407451Y3440522D01*
X1407452Y3440518D01*
X1407453Y3440514D01*
X1501039Y3140184D01*
X1501043Y3140173D01*
X1501044Y3140170D01*
X1501046Y3140165D01*
X1630163Y2853279D01*
X1785247Y2596739D01*
X1792924Y2584040D01*
X1986942Y2336395D01*
X2209394Y2113943D01*
X2457039Y1919925D01*
X2457044Y1919922D01*
X2457048Y1919919D01*
X2726279Y1757163D01*
X3013165Y1628046D01*
X3013175Y1628043D01*
X3013183Y1628040D01*
X3105154Y1599381D01*
X3313522Y1534451D01*
X3622971Y1477742D01*
X3937000Y1458747D01*
X4251029Y1477742D01*
X4560478Y1534451D01*
X4860835Y1628046D01*
X5147721Y1757163D01*
X5416952Y1919919D01*
X5664602Y2113940D01*
X5887060Y2336398D01*
X5970107Y2442400D01*
X29125001Y2442400D01*
X29125001Y2185818D01*
X29131408Y2115298D01*
X29131409Y2115293D01*
X29181981Y1953004D01*
X29269927Y1807523D01*
X29390122Y1687328D01*
X29535604Y1599381D01*
X29535603Y1599381D01*
X29697894Y1548810D01*
X29697893Y1548810D01*
X29768408Y1542402D01*
X29768426Y1542401D01*
X29774999Y1542402D01*
X29775000Y1542402D01*
X29775000Y2442400D01*
X29125001Y2442400D01*
X5970107Y2442400D01*
X6081081Y2584048D01*
X6243837Y2853279D01*
X6372954Y3140165D01*
X6466549Y3440522D01*
X6523258Y3749971D01*
X6542253Y4064000D01*
X6523258Y4378029D01*
X6466549Y4687478D01*
X6398391Y4906205D01*
X6372960Y4987817D01*
X6372956Y4987828D01*
X6372954Y4987835D01*
X6243837Y5274721D01*
X6081081Y5543952D01*
X6081078Y5543956D01*
X6081075Y5543961D01*
X5887057Y5791606D01*
X5664605Y6014058D01*
X5416960Y6208076D01*
X5380255Y6230265D01*
X5147721Y6370837D01*
X4860835Y6499954D01*
X4860830Y6499956D01*
X4860827Y6499957D01*
X4860816Y6499961D01*
X4560486Y6593547D01*
X4560482Y6593548D01*
X4560478Y6593549D01*
X4251029Y6650258D01*
X4251028Y6650259D01*
X4251023Y6650259D01*
X3937000Y6669253D01*
X3622976Y6650259D01*
X3622971Y6650258D01*
X3313522Y6593549D01*
X3313519Y6593549D01*
X3313513Y6593547D01*
X3013183Y6499961D01*
X3013172Y6499957D01*
X2793092Y6400907D01*
X2726279Y6370837D01*
X2694806Y6351811D01*
X2457039Y6208076D01*
X2209394Y6014058D01*
X1986942Y5791606D01*
X1792924Y5543961D01*
X1630162Y5274719D01*
X1630161Y5274717D01*
X1501043Y4987828D01*
X1501039Y4987817D01*
X1407453Y4687487D01*
X1407451Y4687481D01*
X1407451Y4687478D01*
X1393362Y4610596D01*
X1350741Y4378024D01*
X1331747Y4064000D01*
X1000500Y4064000D01*
X1000500Y21834346D01*
X5753500Y21834346D01*
X5760011Y21773798D01*
X5760011Y21773796D01*
X5793168Y21684902D01*
X5811111Y21636796D01*
X5898739Y21519739D01*
X6015796Y21432111D01*
X6152799Y21381011D01*
X6180050Y21378082D01*
X6213345Y21374501D01*
X6213362Y21374500D01*
X8010638Y21374500D01*
X8010654Y21374501D01*
X8038543Y21377500D01*
X8071201Y21381011D01*
X8208204Y21432111D01*
X8325261Y21519739D01*
X8412889Y21636796D01*
X8461223Y21766385D01*
X8503093Y21822314D01*
X8568557Y21846731D01*
X8636830Y21831879D01*
X8665084Y21810728D01*
X8780917Y21694895D01*
X8974421Y21559400D01*
X9188507Y21459571D01*
X9188516Y21459567D01*
X9402000Y21402366D01*
X9402000Y22297499D01*
X9509685Y22248320D01*
X9616237Y22233000D01*
X9687763Y22233000D01*
X9794315Y22248320D01*
X9902000Y22297499D01*
X9902000Y21402367D01*
X10115483Y21459567D01*
X10115492Y21459571D01*
X10329578Y21559400D01*
X10523082Y21694895D01*
X10690105Y21861918D01*
X10825600Y22055422D01*
X10925429Y22269508D01*
X10925432Y22269514D01*
X10982636Y22483000D01*
X10085686Y22483000D01*
X10111493Y22523156D01*
X10152000Y22661111D01*
X10152000Y22804889D01*
X10111493Y22942844D01*
X10085686Y22983000D01*
X10982636Y22983000D01*
X10982635Y22983001D01*
X10925432Y23196487D01*
X10925429Y23196493D01*
X10825600Y23410578D01*
X10825599Y23410580D01*
X10690113Y23604074D01*
X10690108Y23604080D01*
X10523082Y23771106D01*
X10329578Y23906601D01*
X10115492Y24006430D01*
X10115486Y24006433D01*
X9902000Y24063636D01*
X9902000Y23168502D01*
X9794315Y23217680D01*
X9687763Y23233000D01*
X9616237Y23233000D01*
X9509685Y23217680D01*
X9402000Y23168502D01*
X9402000Y24063636D01*
X9401999Y24063636D01*
X9188513Y24006433D01*
X9188507Y24006430D01*
X8974422Y23906601D01*
X8974420Y23906600D01*
X8780926Y23771114D01*
X8665084Y23655272D01*
X8603761Y23621788D01*
X8534069Y23626772D01*
X8478136Y23668644D01*
X8461223Y23699616D01*
X8412889Y23829204D01*
X8325261Y23946261D01*
X8208204Y24033889D01*
X8071203Y24084989D01*
X8010654Y24091500D01*
X8010638Y24091500D01*
X6213362Y24091500D01*
X6213345Y24091500D01*
X6152797Y24084989D01*
X6152795Y24084989D01*
X6015795Y24033889D01*
X5898739Y23946261D01*
X5811111Y23829205D01*
X5760011Y23692205D01*
X5760011Y23692203D01*
X5753500Y23631655D01*
X5753500Y21834346D01*
X1000500Y21834346D01*
X1000500Y38174200D01*
X3289135Y38174200D01*
X3308993Y37352614D01*
X3368523Y36532931D01*
X3437713Y35963109D01*
X3467584Y35717097D01*
X3605945Y34906996D01*
X3783283Y34104526D01*
X3968813Y33423109D01*
X3999184Y33311561D01*
X4094193Y33019152D01*
X4253144Y32529953D01*
X4321661Y32349287D01*
X4544570Y31761522D01*
X4544571Y31761522D01*
X4872780Y31008078D01*
X5237009Y30271366D01*
X5456659Y29876359D01*
X5636411Y29553101D01*
X5636412Y29553100D01*
X6070036Y28854992D01*
X6289784Y28536632D01*
X6536889Y28178640D01*
X6536889Y28178639D01*
X7035866Y27525641D01*
X7565828Y26897489D01*
X7827825Y26615775D01*
X8125507Y26295689D01*
X8125513Y26295684D01*
X8125515Y26295681D01*
X8713615Y25721625D01*
X9328747Y25176665D01*
X9969514Y24662041D01*
X9969513Y24662041D01*
X10634393Y24178978D01*
X10634393Y24178979D01*
X10634395Y24178977D01*
X11321832Y23728603D01*
X11321843Y23728597D01*
X11321850Y23728592D01*
X11646626Y23537578D01*
X12030226Y23311967D01*
X12323677Y23157952D01*
X12757923Y22930042D01*
X12757922Y22930043D01*
X13503226Y22583719D01*
X14015072Y22375320D01*
X14264379Y22273814D01*
X15039622Y22001042D01*
X15827139Y21766043D01*
X16625089Y21569365D01*
X17431610Y21411470D01*
X18244818Y21292724D01*
X18244824Y21292724D01*
X18244834Y21292722D01*
X19062813Y21213406D01*
X19062812Y21213406D01*
X19883676Y21173700D01*
X19883684Y21173700D01*
X20705524Y21173700D01*
X21526388Y21213406D01*
X21526387Y21213406D01*
X22344366Y21292722D01*
X22344375Y21292724D01*
X22344382Y21292724D01*
X23157590Y21411470D01*
X23964111Y21569365D01*
X24762061Y21766043D01*
X25549578Y22001042D01*
X26324821Y22273814D01*
X26574128Y22375320D01*
X27085974Y22583719D01*
X27831278Y22930043D01*
X27831277Y22930042D01*
X28265523Y23157952D01*
X28558974Y23311967D01*
X28942574Y23537578D01*
X29267350Y23728592D01*
X29267356Y23728597D01*
X29267368Y23728603D01*
X29954805Y24178977D01*
X29954807Y24178979D01*
X29954807Y24178978D01*
X30619687Y24662041D01*
X30619686Y24662041D01*
X31260453Y25176665D01*
X31875585Y25721625D01*
X32463685Y26295681D01*
X32463686Y26295684D01*
X32463693Y26295689D01*
X32761375Y26615775D01*
X33023372Y26897489D01*
X33553334Y27525641D01*
X34052311Y28178639D01*
X34052311Y28178640D01*
X34299416Y28536632D01*
X34519164Y28854992D01*
X34952788Y29553100D01*
X34952789Y29553101D01*
X35132541Y29876359D01*
X35352191Y30271366D01*
X35716420Y31008078D01*
X36044629Y31761522D01*
X36044630Y31761522D01*
X36267538Y32349287D01*
X36336056Y32529953D01*
X36495007Y33019152D01*
X36590016Y33311561D01*
X36620387Y33423109D01*
X36805917Y34104526D01*
X36983255Y34906996D01*
X37121616Y35717097D01*
X37169235Y36109276D01*
X37219404Y36522450D01*
X37247026Y36586628D01*
X37304960Y36625684D01*
X37374813Y36627219D01*
X37434407Y36590745D01*
X37464821Y36527842D01*
X37466500Y36507503D01*
X37466500Y19363767D01*
X37446815Y19296728D01*
X37430181Y19276086D01*
X33703914Y15549819D01*
X33642591Y15516334D01*
X33616233Y15513500D01*
X33559513Y15513500D01*
X33372714Y15473795D01*
X33372712Y15473794D01*
X33224624Y15407861D01*
X33198246Y15396117D01*
X33043745Y15283865D01*
X32915959Y15141943D01*
X32820473Y14976557D01*
X32820470Y14976550D01*
X32761459Y14794932D01*
X32761458Y14794928D01*
X32741496Y14605000D01*
X32761458Y14415071D01*
X32763036Y14410217D01*
X32765030Y14340375D01*
X32728948Y14280543D01*
X32666247Y14249716D01*
X32645104Y14247900D01*
X31847709Y14247900D01*
X31780670Y14267585D01*
X31755560Y14288927D01*
X31751654Y14293265D01*
X31597153Y14405517D01*
X31597152Y14405518D01*
X31422688Y14483194D01*
X31422686Y14483195D01*
X31235887Y14522900D01*
X31044913Y14522900D01*
X30858114Y14483195D01*
X30858112Y14483194D01*
X30705105Y14415071D01*
X30683646Y14405517D01*
X30529145Y14293265D01*
X30401359Y14151343D01*
X30305873Y13985957D01*
X30305870Y13985950D01*
X30246859Y13804332D01*
X30246858Y13804328D01*
X30226896Y13614400D01*
X30246858Y13424472D01*
X30246859Y13424469D01*
X30273194Y13343418D01*
X30275189Y13273577D01*
X30239109Y13213744D01*
X30176408Y13182916D01*
X30155263Y13181100D01*
X29256909Y13181100D01*
X29189870Y13200785D01*
X29164760Y13222127D01*
X29160854Y13226465D01*
X29138311Y13242844D01*
X29006352Y13338718D01*
X28831888Y13416394D01*
X28831886Y13416395D01*
X28645087Y13456100D01*
X28454113Y13456100D01*
X28267314Y13416395D01*
X28267312Y13416394D01*
X28103405Y13343418D01*
X28092846Y13338717D01*
X27938345Y13226465D01*
X27810559Y13084543D01*
X27715073Y12919157D01*
X27715070Y12919150D01*
X27656059Y12737532D01*
X27656058Y12737528D01*
X27636096Y12547600D01*
X27653459Y12382397D01*
X27656564Y12352861D01*
X27643994Y12284132D01*
X27596262Y12233108D01*
X27533243Y12215900D01*
X26716909Y12215900D01*
X26649870Y12235585D01*
X26624760Y12256927D01*
X26620854Y12261265D01*
X26589381Y12284132D01*
X26466352Y12373518D01*
X26291888Y12451194D01*
X26291886Y12451195D01*
X26105087Y12490900D01*
X25914113Y12490900D01*
X25727314Y12451195D01*
X25552846Y12373517D01*
X25398345Y12261265D01*
X25270559Y12119343D01*
X25175073Y11953957D01*
X25175070Y11953950D01*
X25137989Y11839825D01*
X25116058Y11772328D01*
X25096096Y11582400D01*
X25111224Y11438460D01*
X25098656Y11369732D01*
X25050924Y11318708D01*
X24987904Y11301500D01*
X24278509Y11301500D01*
X24211470Y11321185D01*
X24186360Y11342527D01*
X24182454Y11346865D01*
X24150981Y11369732D01*
X24027952Y11459118D01*
X23853488Y11536794D01*
X23853486Y11536795D01*
X23666687Y11576500D01*
X23475713Y11576500D01*
X23288914Y11536795D01*
X23114446Y11459117D01*
X22959945Y11346865D01*
X22832159Y11204943D01*
X22736673Y11039557D01*
X22736670Y11039550D01*
X22677659Y10857932D01*
X22677658Y10857928D01*
X22657696Y10668000D01*
X22677658Y10478072D01*
X22677659Y10478069D01*
X22736670Y10296451D01*
X22736673Y10296444D01*
X22832160Y10131056D01*
X22959947Y9989134D01*
X23114448Y9876882D01*
X23288912Y9799206D01*
X23475713Y9759500D01*
X23666687Y9759500D01*
X23853488Y9799206D01*
X24027952Y9876882D01*
X24182453Y9989134D01*
X24186360Y9993473D01*
X24245846Y10030121D01*
X24278509Y10034500D01*
X34968366Y10034500D01*
X34984113Y10032762D01*
X34984139Y10033032D01*
X34991905Y10032299D01*
X34991909Y10032298D01*
X35061958Y10034500D01*
X35091856Y10034500D01*
X35091857Y10034500D01*
X35093222Y10034673D01*
X35098862Y10035386D01*
X35104685Y10035844D01*
X35130708Y10036662D01*
X35151890Y10037327D01*
X35165308Y10041226D01*
X35171481Y10043020D01*
X35190538Y10046968D01*
X35210797Y10049526D01*
X35254721Y10066918D01*
X35260221Y10068801D01*
X35305593Y10081982D01*
X35323165Y10092375D01*
X35340632Y10100932D01*
X35359617Y10108448D01*
X35363080Y10110965D01*
X35366255Y10112098D01*
X35366451Y10112205D01*
X35366468Y10112174D01*
X35428884Y10134447D01*
X35496939Y10118626D01*
X35543346Y10072669D01*
X35544877Y10070017D01*
X35561500Y10008001D01*
X35561500Y8768731D01*
X35541815Y8701692D01*
X35496520Y8659677D01*
X35449422Y8634189D01*
X35449422Y8634188D01*
X35271761Y8495908D01*
X35271756Y8495903D01*
X35119284Y8330277D01*
X35119276Y8330266D01*
X35028808Y8191794D01*
X34975662Y8146438D01*
X34906431Y8137014D01*
X34843095Y8166516D01*
X34821192Y8191794D01*
X34730723Y8330266D01*
X34730715Y8330277D01*
X34578243Y8495903D01*
X34578238Y8495908D01*
X34400577Y8634188D01*
X34400572Y8634192D01*
X34202580Y8741339D01*
X34202577Y8741341D01*
X34202574Y8741342D01*
X34202571Y8741343D01*
X34202569Y8741344D01*
X33989637Y8814444D01*
X33767569Y8851500D01*
X33542431Y8851500D01*
X33320362Y8814444D01*
X33107430Y8741344D01*
X33107419Y8741339D01*
X32909427Y8634192D01*
X32909422Y8634188D01*
X32731761Y8495908D01*
X32731756Y8495903D01*
X32579284Y8330277D01*
X32579276Y8330266D01*
X32488808Y8191794D01*
X32435662Y8146438D01*
X32366431Y8137014D01*
X32303095Y8166516D01*
X32281192Y8191794D01*
X32190723Y8330266D01*
X32190715Y8330277D01*
X32038243Y8495903D01*
X32038238Y8495908D01*
X31860577Y8634188D01*
X31860572Y8634192D01*
X31662580Y8741339D01*
X31662577Y8741341D01*
X31662574Y8741342D01*
X31662571Y8741343D01*
X31662569Y8741344D01*
X31449637Y8814444D01*
X31227569Y8851500D01*
X31002431Y8851500D01*
X30780362Y8814444D01*
X30567430Y8741344D01*
X30567419Y8741339D01*
X30369427Y8634192D01*
X30369422Y8634188D01*
X30191761Y8495908D01*
X30191756Y8495903D01*
X30039284Y8330277D01*
X30039276Y8330266D01*
X29948808Y8191794D01*
X29895662Y8146438D01*
X29826431Y8137014D01*
X29763095Y8166516D01*
X29741192Y8191794D01*
X29650723Y8330266D01*
X29650715Y8330277D01*
X29498243Y8495903D01*
X29498238Y8495908D01*
X29320577Y8634188D01*
X29320572Y8634192D01*
X29122580Y8741339D01*
X29122577Y8741341D01*
X29122574Y8741342D01*
X29122571Y8741343D01*
X29122569Y8741344D01*
X28909637Y8814444D01*
X28687569Y8851500D01*
X28462431Y8851500D01*
X28240362Y8814444D01*
X28027430Y8741344D01*
X28027419Y8741339D01*
X27829427Y8634192D01*
X27829422Y8634188D01*
X27651761Y8495908D01*
X27651756Y8495903D01*
X27499284Y8330277D01*
X27499276Y8330266D01*
X27408808Y8191794D01*
X27355662Y8146438D01*
X27286431Y8137014D01*
X27223095Y8166516D01*
X27201192Y8191794D01*
X27110723Y8330266D01*
X27110715Y8330277D01*
X26958243Y8495903D01*
X26958238Y8495908D01*
X26780577Y8634188D01*
X26780572Y8634192D01*
X26582580Y8741339D01*
X26582577Y8741341D01*
X26582574Y8741342D01*
X26582571Y8741343D01*
X26582569Y8741344D01*
X26369637Y8814444D01*
X26147569Y8851500D01*
X25922431Y8851500D01*
X25700362Y8814444D01*
X25487430Y8741344D01*
X25487419Y8741339D01*
X25289427Y8634192D01*
X25289422Y8634188D01*
X25111761Y8495908D01*
X25111756Y8495903D01*
X24959284Y8330277D01*
X24959276Y8330266D01*
X24868808Y8191794D01*
X24815662Y8146438D01*
X24746431Y8137014D01*
X24683095Y8166516D01*
X24661192Y8191794D01*
X24570723Y8330266D01*
X24570715Y8330277D01*
X24418243Y8495903D01*
X24418238Y8495908D01*
X24240577Y8634188D01*
X24240572Y8634192D01*
X24042580Y8741339D01*
X24042577Y8741341D01*
X24042574Y8741342D01*
X24042571Y8741343D01*
X24042569Y8741344D01*
X23829637Y8814444D01*
X23607569Y8851500D01*
X23382431Y8851500D01*
X23160362Y8814444D01*
X22947430Y8741344D01*
X22947419Y8741339D01*
X22749427Y8634192D01*
X22749422Y8634188D01*
X22571761Y8495908D01*
X22502092Y8420227D01*
X22442205Y8384237D01*
X22372367Y8386338D01*
X22314751Y8425863D01*
X22294681Y8460878D01*
X22248354Y8585087D01*
X22248350Y8585094D01*
X22162190Y8700188D01*
X22162187Y8700191D01*
X22047093Y8786351D01*
X22047086Y8786355D01*
X21912379Y8836597D01*
X21912372Y8836599D01*
X21852844Y8843000D01*
X21205000Y8843000D01*
X21205000Y7928502D01*
X21097315Y7977680D01*
X20990763Y7993000D01*
X20919237Y7993000D01*
X20812685Y7977680D01*
X20705000Y7928502D01*
X20705000Y8843000D01*
X20057155Y8843000D01*
X19997627Y8836599D01*
X19997620Y8836597D01*
X19862913Y8786355D01*
X19862906Y8786351D01*
X19747812Y8700191D01*
X19747809Y8700188D01*
X19661649Y8585094D01*
X19661645Y8585087D01*
X19611403Y8450380D01*
X19611401Y8450373D01*
X19605000Y8390845D01*
X19605000Y7743000D01*
X20521314Y7743000D01*
X20495507Y7702844D01*
X20455000Y7564889D01*
X20455000Y7421111D01*
X20495507Y7283156D01*
X20521314Y7243000D01*
X19605000Y7243000D01*
X19605000Y6595156D01*
X19611401Y6535628D01*
X19611403Y6535621D01*
X19661645Y6400914D01*
X19661649Y6400907D01*
X19747809Y6285813D01*
X19747812Y6285810D01*
X19862906Y6199650D01*
X19862913Y6199646D01*
X19997620Y6149404D01*
X19997627Y6149402D01*
X20057155Y6143001D01*
X20057172Y6143000D01*
X20705000Y6143000D01*
X20705000Y7057499D01*
X20812685Y7008320D01*
X20919237Y6993000D01*
X20990763Y6993000D01*
X21097315Y7008320D01*
X21205000Y7057499D01*
X21205000Y6143000D01*
X21852828Y6143000D01*
X21852844Y6143001D01*
X21912372Y6149402D01*
X21912379Y6149404D01*
X22047086Y6199646D01*
X22047093Y6199650D01*
X22162187Y6285810D01*
X22162190Y6285813D01*
X22248350Y6400907D01*
X22248354Y6400914D01*
X22294681Y6525123D01*
X22336552Y6581057D01*
X22402016Y6605474D01*
X22470289Y6590623D01*
X22502089Y6565777D01*
X22571760Y6490094D01*
X22749424Y6351811D01*
X22749425Y6351811D01*
X22749427Y6351809D01*
X22809314Y6319400D01*
X22947426Y6244658D01*
X23160365Y6171556D01*
X23382431Y6134500D01*
X23607569Y6134500D01*
X23829630Y6171555D01*
X23829631Y6171556D01*
X23829635Y6171556D01*
X23829637Y6171558D01*
X23833849Y6172624D01*
X23903669Y6170012D01*
X23951990Y6140106D01*
X25008662Y5083433D01*
X26035912Y4056183D01*
X26045816Y4043822D01*
X26046026Y4043995D01*
X26051001Y4037981D01*
X26102078Y3990016D01*
X26123224Y3968870D01*
X26128813Y3964534D01*
X26133245Y3960748D01*
X26153199Y3942011D01*
X26167680Y3928413D01*
X26185562Y3918583D01*
X26201829Y3907898D01*
X26217960Y3895385D01*
X26239838Y3885919D01*
X26261307Y3876629D01*
X26266533Y3874069D01*
X26307940Y3851305D01*
X26327716Y3846228D01*
X26346124Y3839925D01*
X26364850Y3831821D01*
X26364852Y3831820D01*
X26364853Y3831820D01*
X26364855Y3831819D01*
X26405784Y3825337D01*
X26411503Y3824431D01*
X26417212Y3823249D01*
X26462970Y3811500D01*
X26483384Y3811500D01*
X26502783Y3809973D01*
X26522943Y3806780D01*
X26569966Y3811225D01*
X26575804Y3811500D01*
X29204788Y3811500D01*
X29271827Y3791815D01*
X29317582Y3739011D01*
X29327526Y3669853D01*
X29298501Y3606297D01*
X29292469Y3599819D01*
X29269928Y3577279D01*
X29269927Y3577278D01*
X29181980Y3431796D01*
X29131409Y3269507D01*
X29125000Y3198973D01*
X29125000Y2942400D01*
X30000376Y2942400D01*
X29927455Y2927895D01*
X29844760Y2872640D01*
X29789505Y2789945D01*
X29770102Y2692400D01*
X29789505Y2594855D01*
X29844760Y2512160D01*
X29927455Y2456905D01*
X30000376Y2442400D01*
X30049624Y2442400D01*
X30122545Y2456905D01*
X30205240Y2512160D01*
X30260495Y2594855D01*
X30275000Y2667777D01*
X30275000Y1542401D01*
X30281581Y1542401D01*
X30352102Y1548809D01*
X30352107Y1548810D01*
X30514396Y1599382D01*
X30648799Y1680631D01*
X30716353Y1698467D01*
X30782827Y1676950D01*
X30785813Y1674848D01*
X30818248Y1651282D01*
X30992712Y1573606D01*
X31179513Y1533900D01*
X31370487Y1533900D01*
X31557288Y1573606D01*
X31731752Y1651282D01*
X31827114Y1720568D01*
X31892920Y1744048D01*
X31960974Y1728223D01*
X31972886Y1720567D01*
X32068242Y1651286D01*
X32068243Y1651285D01*
X32068245Y1651284D01*
X32068248Y1651282D01*
X32242712Y1573606D01*
X32429513Y1533900D01*
X32620487Y1533900D01*
X32807288Y1573606D01*
X32981752Y1651282D01*
X33077114Y1720568D01*
X33142920Y1744048D01*
X33210974Y1728223D01*
X33222886Y1720567D01*
X33318242Y1651286D01*
X33318243Y1651285D01*
X33318245Y1651284D01*
X33318248Y1651282D01*
X33492712Y1573606D01*
X33679513Y1533900D01*
X33870487Y1533900D01*
X34057288Y1573606D01*
X34231752Y1651282D01*
X34327114Y1720568D01*
X34392920Y1744048D01*
X34460974Y1728223D01*
X34472886Y1720567D01*
X34568242Y1651286D01*
X34568243Y1651285D01*
X34568245Y1651284D01*
X34568248Y1651282D01*
X34742712Y1573606D01*
X34929513Y1533900D01*
X35120487Y1533900D01*
X35307288Y1573606D01*
X35481752Y1651282D01*
X35577114Y1720568D01*
X35642920Y1744048D01*
X35710974Y1728223D01*
X35722886Y1720567D01*
X35818242Y1651286D01*
X35818243Y1651285D01*
X35818245Y1651284D01*
X35818248Y1651282D01*
X35992712Y1573606D01*
X36179513Y1533900D01*
X36370487Y1533900D01*
X36557288Y1573606D01*
X36731752Y1651282D01*
X36827114Y1720568D01*
X36892920Y1744048D01*
X36960974Y1728223D01*
X36972886Y1720567D01*
X37068242Y1651286D01*
X37068243Y1651285D01*
X37068245Y1651284D01*
X37068248Y1651282D01*
X37242712Y1573606D01*
X37429513Y1533900D01*
X37620487Y1533900D01*
X37807288Y1573606D01*
X37981752Y1651282D01*
X38077114Y1720568D01*
X38142920Y1744048D01*
X38210974Y1728223D01*
X38222886Y1720567D01*
X38318242Y1651286D01*
X38318243Y1651285D01*
X38318245Y1651284D01*
X38318248Y1651282D01*
X38492712Y1573606D01*
X38679513Y1533900D01*
X38870487Y1533900D01*
X39057288Y1573606D01*
X39231752Y1651282D01*
X39327114Y1720568D01*
X39392920Y1744048D01*
X39460974Y1728223D01*
X39472886Y1720567D01*
X39568242Y1651286D01*
X39568243Y1651285D01*
X39568245Y1651284D01*
X39568248Y1651282D01*
X39742712Y1573606D01*
X39929513Y1533900D01*
X40120487Y1533900D01*
X40307288Y1573606D01*
X40481752Y1651282D01*
X40577114Y1720568D01*
X40642920Y1744048D01*
X40710974Y1728223D01*
X40722886Y1720567D01*
X40818242Y1651286D01*
X40818243Y1651285D01*
X40818245Y1651284D01*
X40818248Y1651282D01*
X40992712Y1573606D01*
X41179513Y1533900D01*
X41370487Y1533900D01*
X41557288Y1573606D01*
X41731752Y1651282D01*
X41827114Y1720568D01*
X41892920Y1744048D01*
X41960974Y1728223D01*
X41972886Y1720567D01*
X42068242Y1651286D01*
X42068243Y1651285D01*
X42068245Y1651284D01*
X42068248Y1651282D01*
X42242712Y1573606D01*
X42429513Y1533900D01*
X42620487Y1533900D01*
X42807288Y1573606D01*
X42981752Y1651282D01*
X43077114Y1720568D01*
X43142920Y1744048D01*
X43210974Y1728223D01*
X43222886Y1720567D01*
X43318242Y1651286D01*
X43318243Y1651285D01*
X43318245Y1651284D01*
X43318248Y1651282D01*
X43492712Y1573606D01*
X43679513Y1533900D01*
X43870487Y1533900D01*
X44057288Y1573606D01*
X44231752Y1651282D01*
X44327114Y1720568D01*
X44392920Y1744048D01*
X44460974Y1728223D01*
X44472886Y1720567D01*
X44568242Y1651286D01*
X44568243Y1651285D01*
X44568245Y1651284D01*
X44568248Y1651282D01*
X44742712Y1573606D01*
X44929513Y1533900D01*
X45120487Y1533900D01*
X45307288Y1573606D01*
X45481752Y1651282D01*
X45577114Y1720568D01*
X45642920Y1744048D01*
X45710974Y1728223D01*
X45722886Y1720567D01*
X45818242Y1651286D01*
X45818243Y1651285D01*
X45818245Y1651284D01*
X45818248Y1651282D01*
X45992712Y1573606D01*
X46179513Y1533900D01*
X46370487Y1533900D01*
X46557288Y1573606D01*
X46731752Y1651282D01*
X46834344Y1725821D01*
X46900150Y1749301D01*
X46968204Y1733476D01*
X46980116Y1725821D01*
X47072522Y1658683D01*
X47245356Y1581734D01*
X47274999Y1575434D01*
X47275000Y1575434D01*
X47275000Y2667777D01*
X47289505Y2594855D01*
X47344760Y2512160D01*
X47427455Y2456905D01*
X47500376Y2442400D01*
X47549624Y2442400D01*
X47775000Y2442400D01*
X47775000Y1575434D01*
X47804643Y1581734D01*
X47977479Y1658686D01*
X48130535Y1769888D01*
X48257127Y1910482D01*
X48257129Y1910485D01*
X48351716Y2074316D01*
X48351721Y2074328D01*
X48410180Y2254246D01*
X48425000Y2395241D01*
X48425000Y2442400D01*
X47775000Y2442400D01*
X47549624Y2442400D01*
X47622545Y2456905D01*
X47705240Y2512160D01*
X47760495Y2594855D01*
X47779898Y2692400D01*
X47760495Y2789945D01*
X47705240Y2872640D01*
X47647312Y2911346D01*
X76619500Y2911346D01*
X76626011Y2850798D01*
X76626011Y2850796D01*
X76677111Y2713796D01*
X76764739Y2596739D01*
X76881796Y2509111D01*
X77018799Y2458011D01*
X77046050Y2455082D01*
X77079345Y2451501D01*
X77079362Y2451500D01*
X78876638Y2451500D01*
X78876654Y2451501D01*
X78903692Y2454409D01*
X78937201Y2458011D01*
X79074204Y2509111D01*
X79191261Y2596739D01*
X79278889Y2713796D01*
X79327223Y2843385D01*
X79369093Y2899314D01*
X79434557Y2923731D01*
X79502830Y2908879D01*
X79531084Y2887728D01*
X79646917Y2771895D01*
X79840421Y2636400D01*
X80054507Y2536571D01*
X80054516Y2536567D01*
X80268000Y2479366D01*
X80268000Y3374499D01*
X80375685Y3325320D01*
X80482237Y3310000D01*
X80553763Y3310000D01*
X80660315Y3325320D01*
X80768000Y3374499D01*
X80768000Y2479367D01*
X80981483Y2536567D01*
X80981492Y2536571D01*
X81195578Y2636400D01*
X81389082Y2771895D01*
X81556105Y2938918D01*
X81691600Y3132422D01*
X81791429Y3346508D01*
X81791432Y3346514D01*
X81848636Y3560000D01*
X80951686Y3560000D01*
X80977493Y3600156D01*
X81018000Y3738111D01*
X81018000Y3881889D01*
X80977493Y4019844D01*
X80951686Y4060000D01*
X81848636Y4060000D01*
X81848635Y4060001D01*
X81791432Y4273487D01*
X81791429Y4273493D01*
X81691600Y4487578D01*
X81691599Y4487580D01*
X81556113Y4681074D01*
X81556108Y4681080D01*
X81389082Y4848106D01*
X81195578Y4983601D01*
X80981492Y5083430D01*
X80981486Y5083433D01*
X80768000Y5140636D01*
X80768000Y4245502D01*
X80660315Y4294680D01*
X80553763Y4310000D01*
X80482237Y4310000D01*
X80375685Y4294680D01*
X80268000Y4245502D01*
X80268000Y5140636D01*
X80267999Y5140636D01*
X80054513Y5083433D01*
X80054507Y5083430D01*
X79840422Y4983601D01*
X79840420Y4983600D01*
X79646926Y4848114D01*
X79531084Y4732272D01*
X79469761Y4698788D01*
X79400069Y4703772D01*
X79344136Y4745644D01*
X79327223Y4776616D01*
X79278889Y4906204D01*
X79191261Y5023261D01*
X79074204Y5110889D01*
X78937203Y5161989D01*
X78876654Y5168500D01*
X78876638Y5168500D01*
X77079362Y5168500D01*
X77079345Y5168500D01*
X77018797Y5161989D01*
X77018795Y5161989D01*
X76881795Y5110889D01*
X76764739Y5023261D01*
X76677111Y4906205D01*
X76626011Y4769205D01*
X76626011Y4769203D01*
X76619500Y4708655D01*
X76619500Y2911346D01*
X47647312Y2911346D01*
X47622545Y2927895D01*
X47549624Y2942400D01*
X48425000Y2942400D01*
X48425000Y2989560D01*
X48410180Y3130555D01*
X48351721Y3310473D01*
X48351716Y3310485D01*
X48257129Y3474316D01*
X48257127Y3474319D01*
X48139887Y3604528D01*
X48109657Y3667520D01*
X48118283Y3736855D01*
X48163024Y3790520D01*
X48229677Y3811478D01*
X48232037Y3811500D01*
X50843366Y3811500D01*
X50859113Y3809762D01*
X50859139Y3810032D01*
X50866905Y3809299D01*
X50866909Y3809298D01*
X50936958Y3811500D01*
X50966856Y3811500D01*
X50966857Y3811500D01*
X50968222Y3811673D01*
X50973862Y3812386D01*
X50979685Y3812844D01*
X51005708Y3813662D01*
X51026890Y3814327D01*
X51036681Y3817173D01*
X51046481Y3820020D01*
X51065538Y3823968D01*
X51085797Y3826526D01*
X51129721Y3843918D01*
X51135221Y3845801D01*
X51180593Y3858982D01*
X51198165Y3869375D01*
X51215632Y3877932D01*
X51234617Y3885448D01*
X51272826Y3913210D01*
X51277704Y3916415D01*
X51318362Y3940458D01*
X51332802Y3954900D01*
X51347592Y3967530D01*
X51364107Y3979528D01*
X51394222Y4015933D01*
X51398126Y4020224D01*
X53518009Y6140106D01*
X53579330Y6173589D01*
X53636128Y6172629D01*
X53640359Y6171558D01*
X53640365Y6171556D01*
X53862431Y6134500D01*
X54087569Y6134500D01*
X54309635Y6171556D01*
X54522574Y6244658D01*
X54720576Y6351811D01*
X54898240Y6490094D01*
X55019594Y6621918D01*
X55050715Y6655724D01*
X55050715Y6655725D01*
X55050722Y6655732D01*
X55144749Y6799653D01*
X55197894Y6845006D01*
X55267125Y6854430D01*
X55330461Y6824928D01*
X55350130Y6802952D01*
X55476890Y6621922D01*
X55643917Y6454895D01*
X55837421Y6319400D01*
X56051507Y6219571D01*
X56051516Y6219567D01*
X56265000Y6162366D01*
X56265000Y7057499D01*
X56372685Y7008320D01*
X56479237Y6993000D01*
X56550763Y6993000D01*
X56657315Y7008320D01*
X56765000Y7057499D01*
X56765000Y6162367D01*
X56978483Y6219567D01*
X56978492Y6219571D01*
X57192578Y6319400D01*
X57386082Y6454895D01*
X57553105Y6621918D01*
X57688600Y6815422D01*
X57788429Y7029508D01*
X57788432Y7029514D01*
X57845636Y7243000D01*
X56948686Y7243000D01*
X56974493Y7283156D01*
X57015000Y7421111D01*
X57015000Y7564889D01*
X56974493Y7702844D01*
X56948686Y7743000D01*
X57845636Y7743000D01*
X57845635Y7743001D01*
X57788432Y7956487D01*
X57788429Y7956493D01*
X57688600Y8170578D01*
X57688599Y8170580D01*
X57553113Y8364074D01*
X57553108Y8364080D01*
X57386082Y8531106D01*
X57192578Y8666601D01*
X56978492Y8766430D01*
X56978486Y8766433D01*
X56765000Y8823636D01*
X56765000Y7928502D01*
X56657315Y7977680D01*
X56550763Y7993000D01*
X56479237Y7993000D01*
X56372685Y7977680D01*
X56265000Y7928502D01*
X56265000Y8823636D01*
X56264999Y8823636D01*
X56051513Y8766433D01*
X56051507Y8766430D01*
X55837422Y8666601D01*
X55837420Y8666600D01*
X55643926Y8531114D01*
X55643920Y8531109D01*
X55476891Y8364080D01*
X55476890Y8364078D01*
X55350131Y8183048D01*
X55295554Y8139423D01*
X55226055Y8132231D01*
X55163701Y8163753D01*
X55144752Y8186344D01*
X55050722Y8330268D01*
X55050715Y8330275D01*
X55050715Y8330277D01*
X54898243Y8495903D01*
X54898238Y8495908D01*
X54720577Y8634188D01*
X54720572Y8634192D01*
X54522580Y8741339D01*
X54522577Y8741341D01*
X54522574Y8741342D01*
X54522571Y8741343D01*
X54522569Y8741344D01*
X54309637Y8814444D01*
X54087569Y8851500D01*
X53862431Y8851500D01*
X53640362Y8814444D01*
X53427430Y8741344D01*
X53427419Y8741339D01*
X53229427Y8634192D01*
X53229422Y8634188D01*
X53051761Y8495908D01*
X53051756Y8495903D01*
X52899284Y8330277D01*
X52899276Y8330266D01*
X52808808Y8191794D01*
X52755662Y8146438D01*
X52686431Y8137014D01*
X52623095Y8166516D01*
X52601192Y8191794D01*
X52510723Y8330266D01*
X52510715Y8330277D01*
X52358243Y8495903D01*
X52358238Y8495908D01*
X52180577Y8634188D01*
X52180572Y8634192D01*
X51982580Y8741339D01*
X51982577Y8741341D01*
X51982574Y8741342D01*
X51982571Y8741343D01*
X51982569Y8741344D01*
X51769637Y8814444D01*
X51547569Y8851500D01*
X51322431Y8851500D01*
X51100362Y8814444D01*
X50887430Y8741344D01*
X50887419Y8741339D01*
X50689427Y8634192D01*
X50689422Y8634188D01*
X50511761Y8495908D01*
X50511756Y8495903D01*
X50359284Y8330277D01*
X50359276Y8330266D01*
X50268808Y8191794D01*
X50215662Y8146438D01*
X50146431Y8137014D01*
X50083095Y8166516D01*
X50061192Y8191794D01*
X49970723Y8330266D01*
X49970715Y8330277D01*
X49818243Y8495903D01*
X49818238Y8495908D01*
X49640577Y8634188D01*
X49640572Y8634192D01*
X49442580Y8741339D01*
X49442577Y8741341D01*
X49442574Y8741342D01*
X49442571Y8741343D01*
X49442569Y8741344D01*
X49229637Y8814444D01*
X49007569Y8851500D01*
X48782431Y8851500D01*
X48560362Y8814444D01*
X48347430Y8741344D01*
X48347419Y8741339D01*
X48149427Y8634192D01*
X48149422Y8634188D01*
X47971761Y8495908D01*
X47971756Y8495903D01*
X47819284Y8330277D01*
X47819276Y8330266D01*
X47728808Y8191794D01*
X47675662Y8146438D01*
X47606431Y8137014D01*
X47543095Y8166516D01*
X47521192Y8191794D01*
X47430723Y8330266D01*
X47430715Y8330277D01*
X47278243Y8495903D01*
X47278238Y8495908D01*
X47100577Y8634188D01*
X47100572Y8634192D01*
X46902580Y8741339D01*
X46902577Y8741341D01*
X46902574Y8741342D01*
X46902571Y8741343D01*
X46902569Y8741344D01*
X46689637Y8814444D01*
X46467569Y8851500D01*
X46242431Y8851500D01*
X46020362Y8814444D01*
X45807430Y8741344D01*
X45807419Y8741339D01*
X45609427Y8634192D01*
X45609422Y8634188D01*
X45431761Y8495908D01*
X45431756Y8495903D01*
X45279284Y8330277D01*
X45279276Y8330266D01*
X45188808Y8191794D01*
X45135662Y8146438D01*
X45066431Y8137014D01*
X45003095Y8166516D01*
X44981192Y8191794D01*
X44890723Y8330266D01*
X44890715Y8330277D01*
X44738243Y8495903D01*
X44738238Y8495908D01*
X44560577Y8634188D01*
X44560577Y8634189D01*
X44513480Y8659677D01*
X44463891Y8708898D01*
X44448500Y8768731D01*
X44448500Y12557044D01*
X44468185Y12624083D01*
X44480346Y12640012D01*
X44554040Y12721856D01*
X44649527Y12887244D01*
X44708542Y13068872D01*
X44728504Y13258800D01*
X44708542Y13448728D01*
X44649527Y13630356D01*
X44554040Y13795744D01*
X44426253Y13937666D01*
X44271752Y14049918D01*
X44097288Y14127594D01*
X44097286Y14127595D01*
X43910487Y14167300D01*
X43719513Y14167300D01*
X43532714Y14127595D01*
X43358246Y14049917D01*
X43203745Y13937665D01*
X43075959Y13795743D01*
X42980473Y13630357D01*
X42980470Y13630350D01*
X42923853Y13456100D01*
X42921458Y13448728D01*
X42901496Y13258800D01*
X42921458Y13068872D01*
X42921459Y13068869D01*
X42980470Y12887251D01*
X42980473Y12887244D01*
X43066911Y12737528D01*
X43075960Y12721856D01*
X43149649Y12640016D01*
X43179880Y12577025D01*
X43181500Y12557044D01*
X43181500Y8768731D01*
X43161815Y8701692D01*
X43116520Y8659677D01*
X43069422Y8634189D01*
X43069422Y8634188D01*
X42891761Y8495908D01*
X42891756Y8495903D01*
X42739284Y8330277D01*
X42739276Y8330266D01*
X42648808Y8191794D01*
X42595662Y8146438D01*
X42526431Y8137014D01*
X42463095Y8166516D01*
X42441192Y8191794D01*
X42350723Y8330266D01*
X42350715Y8330277D01*
X42198243Y8495903D01*
X42198238Y8495908D01*
X42020577Y8634188D01*
X42020577Y8634189D01*
X41973480Y8659677D01*
X41923891Y8708898D01*
X41908500Y8768731D01*
X41908500Y11541044D01*
X41928185Y11608083D01*
X41940346Y11624012D01*
X42014040Y11705856D01*
X42109527Y11871244D01*
X42168542Y12052872D01*
X42188504Y12242800D01*
X42168542Y12432728D01*
X42109527Y12614356D01*
X42014040Y12779744D01*
X41886253Y12921666D01*
X41731752Y13033918D01*
X41557288Y13111594D01*
X41557286Y13111595D01*
X41370487Y13151300D01*
X41179513Y13151300D01*
X40992714Y13111595D01*
X40818246Y13033917D01*
X40663745Y12921665D01*
X40535959Y12779743D01*
X40440473Y12614357D01*
X40440470Y12614350D01*
X40400359Y12490900D01*
X40381458Y12432728D01*
X40361496Y12242800D01*
X40381458Y12052872D01*
X40381459Y12052869D01*
X40440470Y11871251D01*
X40440473Y11871244D01*
X40535960Y11705856D01*
X40609649Y11624016D01*
X40639880Y11561025D01*
X40641500Y11541044D01*
X40641500Y8768731D01*
X40621815Y8701692D01*
X40576520Y8659677D01*
X40529422Y8634189D01*
X40529422Y8634188D01*
X40351761Y8495908D01*
X40351756Y8495903D01*
X40199284Y8330277D01*
X40199276Y8330266D01*
X40108808Y8191794D01*
X40055662Y8146438D01*
X39986431Y8137014D01*
X39923095Y8166516D01*
X39901192Y8191794D01*
X39810723Y8330266D01*
X39810715Y8330277D01*
X39658243Y8495903D01*
X39658238Y8495908D01*
X39480577Y8634188D01*
X39480577Y8634189D01*
X39433480Y8659677D01*
X39383891Y8708898D01*
X39368500Y8768731D01*
X39368500Y10677444D01*
X39388185Y10744483D01*
X39400346Y10760412D01*
X39474040Y10842256D01*
X39569527Y11007644D01*
X39628542Y11189272D01*
X39648504Y11379200D01*
X39628542Y11569128D01*
X39569527Y11750756D01*
X39474040Y11916144D01*
X39346253Y12058066D01*
X39191752Y12170318D01*
X39118179Y12203075D01*
X39064944Y12248324D01*
X39044623Y12315173D01*
X39063668Y12382397D01*
X39080932Y12404030D01*
X45600815Y18923913D01*
X45613180Y18933817D01*
X45613006Y18934027D01*
X45619012Y18938997D01*
X45619018Y18939000D01*
X45666999Y18990096D01*
X45688135Y19011231D01*
X45692458Y19016805D01*
X45696257Y19021253D01*
X45728585Y19055678D01*
X45738420Y19073568D01*
X45749098Y19089826D01*
X45761614Y19105960D01*
X45780374Y19149314D01*
X45782935Y19154542D01*
X45805695Y19195940D01*
X45810774Y19215726D01*
X45814909Y19227800D01*
X74182535Y19227800D01*
X74202393Y18406214D01*
X74261923Y17586531D01*
X74342914Y16919518D01*
X74360984Y16770697D01*
X74499345Y15960596D01*
X74676683Y15158126D01*
X74726121Y14976550D01*
X74892584Y14365161D01*
X75074808Y13804332D01*
X75146544Y13583553D01*
X75209939Y13416395D01*
X75437970Y12815122D01*
X75437971Y12815122D01*
X75766180Y12061678D01*
X76064084Y11459118D01*
X76130409Y11324966D01*
X76306857Y11007651D01*
X76529811Y10606701D01*
X76529812Y10606700D01*
X76688595Y10351069D01*
X76963436Y9908592D01*
X77091647Y9722846D01*
X77430289Y9232240D01*
X77430289Y9232239D01*
X77929266Y8579241D01*
X78459228Y7951089D01*
X78690098Y7702844D01*
X79018907Y7349289D01*
X79018913Y7349284D01*
X79018915Y7349281D01*
X79607015Y6775225D01*
X80222147Y6230265D01*
X80222156Y6230258D01*
X80222158Y6230256D01*
X80689213Y5855147D01*
X80862914Y5715641D01*
X80862913Y5715641D01*
X81527793Y5232578D01*
X81527793Y5232579D01*
X81527795Y5232577D01*
X82215232Y4782203D01*
X82215243Y4782197D01*
X82215250Y4782192D01*
X82715608Y4487911D01*
X82923626Y4365567D01*
X83177149Y4232508D01*
X83651323Y3983642D01*
X83651322Y3983643D01*
X84396626Y3637319D01*
X84879996Y3440514D01*
X85157779Y3327414D01*
X85933022Y3054642D01*
X86720539Y2819643D01*
X87518489Y2622965D01*
X88325010Y2465070D01*
X89138218Y2346324D01*
X89138224Y2346324D01*
X89138234Y2346322D01*
X89956213Y2267006D01*
X89956212Y2267006D01*
X90777076Y2227300D01*
X90777084Y2227300D01*
X91598924Y2227300D01*
X92419788Y2267006D01*
X92419787Y2267006D01*
X93237766Y2346322D01*
X93237775Y2346324D01*
X93237782Y2346324D01*
X94050990Y2465070D01*
X94857511Y2622965D01*
X95655461Y2819643D01*
X96442978Y3054642D01*
X97218221Y3327414D01*
X97496004Y3440514D01*
X97979374Y3637319D01*
X98724678Y3983643D01*
X98724677Y3983642D01*
X98877786Y4064000D01*
X110678747Y4064000D01*
X110697741Y3749977D01*
X110697741Y3749972D01*
X110697742Y3749971D01*
X110754451Y3440522D01*
X110754452Y3440518D01*
X110754453Y3440514D01*
X110848039Y3140184D01*
X110848043Y3140173D01*
X110848044Y3140170D01*
X110848046Y3140165D01*
X110977163Y2853279D01*
X111132247Y2596739D01*
X111139924Y2584040D01*
X111333942Y2336395D01*
X111556394Y2113943D01*
X111804039Y1919925D01*
X111804044Y1919922D01*
X111804048Y1919919D01*
X112073279Y1757163D01*
X112360165Y1628046D01*
X112360175Y1628043D01*
X112360183Y1628040D01*
X112452154Y1599381D01*
X112660522Y1534451D01*
X112969971Y1477742D01*
X113284000Y1458747D01*
X113598029Y1477742D01*
X113907478Y1534451D01*
X114207835Y1628046D01*
X114494721Y1757163D01*
X114763952Y1919919D01*
X115011602Y2113940D01*
X115234060Y2336398D01*
X115428081Y2584048D01*
X115590837Y2853279D01*
X115719954Y3140165D01*
X115813549Y3440522D01*
X115870258Y3749971D01*
X115889253Y4064000D01*
X115870258Y4378029D01*
X115813549Y4687478D01*
X115745391Y4906205D01*
X115719960Y4987817D01*
X115719956Y4987828D01*
X115719954Y4987835D01*
X115590837Y5274721D01*
X115428081Y5543952D01*
X115428078Y5543956D01*
X115428075Y5543961D01*
X115234057Y5791606D01*
X115011605Y6014058D01*
X114763960Y6208076D01*
X114727255Y6230265D01*
X114494721Y6370837D01*
X114207835Y6499954D01*
X114207830Y6499956D01*
X114207827Y6499957D01*
X114207816Y6499961D01*
X113907486Y6593547D01*
X113907482Y6593548D01*
X113907478Y6593549D01*
X113598029Y6650258D01*
X113598028Y6650259D01*
X113598023Y6650259D01*
X113284000Y6669253D01*
X112969976Y6650259D01*
X112969971Y6650258D01*
X112660522Y6593549D01*
X112660519Y6593549D01*
X112660513Y6593547D01*
X112360183Y6499961D01*
X112360172Y6499957D01*
X112140092Y6400907D01*
X112073279Y6370837D01*
X112041806Y6351811D01*
X111804039Y6208076D01*
X111556394Y6014058D01*
X111333942Y5791606D01*
X111139924Y5543961D01*
X110977162Y5274719D01*
X110977161Y5274717D01*
X110848043Y4987828D01*
X110848039Y4987817D01*
X110754453Y4687487D01*
X110754451Y4687481D01*
X110754451Y4687478D01*
X110740362Y4610596D01*
X110697741Y4378024D01*
X110678747Y4064000D01*
X98877786Y4064000D01*
X99198851Y4232508D01*
X99452374Y4365567D01*
X99660392Y4487911D01*
X100160750Y4782192D01*
X100160756Y4782197D01*
X100160768Y4782203D01*
X100848205Y5232577D01*
X100848207Y5232579D01*
X100848207Y5232578D01*
X101513087Y5715641D01*
X101513086Y5715641D01*
X101686787Y5855147D01*
X102153842Y6230256D01*
X102153843Y6230258D01*
X102153853Y6230265D01*
X102768985Y6775225D01*
X103357085Y7349281D01*
X103357086Y7349284D01*
X103357093Y7349289D01*
X103685902Y7702844D01*
X103916772Y7951089D01*
X104446734Y8579241D01*
X104945711Y9232239D01*
X104945711Y9232240D01*
X105284353Y9722846D01*
X105412564Y9908592D01*
X105687405Y10351069D01*
X105846188Y10606700D01*
X105846189Y10606701D01*
X106069143Y11007651D01*
X106245591Y11324966D01*
X106311916Y11459118D01*
X106609820Y12061678D01*
X106938029Y12815122D01*
X106938030Y12815122D01*
X107166061Y13416395D01*
X107229456Y13583553D01*
X107301192Y13804332D01*
X107483416Y14365161D01*
X107649879Y14976550D01*
X107699317Y15158126D01*
X107876655Y15960596D01*
X108015016Y16770697D01*
X108033086Y16919518D01*
X108114077Y17586531D01*
X108173607Y18406214D01*
X108193465Y19227800D01*
X108173607Y20049386D01*
X108114077Y20869069D01*
X108026956Y21586571D01*
X108015016Y21684903D01*
X107876655Y22495004D01*
X107699317Y23297474D01*
X107483416Y24090439D01*
X107229456Y24872047D01*
X107061501Y25314909D01*
X106938030Y25640478D01*
X106938029Y25640478D01*
X106609820Y26393922D01*
X106245596Y27130624D01*
X106245595Y27130625D01*
X106245591Y27130634D01*
X105846195Y27848888D01*
X105846189Y27848899D01*
X105846188Y27848900D01*
X105583229Y28272248D01*
X105412564Y28547008D01*
X104945710Y29223362D01*
X104747180Y29483173D01*
X104446734Y29876359D01*
X103916772Y30504511D01*
X103405401Y31054367D01*
X103357093Y31106311D01*
X103351708Y31111567D01*
X102768985Y31680375D01*
X102153853Y32225335D01*
X101513086Y32739959D01*
X101513087Y32739959D01*
X100848207Y33223022D01*
X100848205Y33223023D01*
X100160768Y33673397D01*
X100160756Y33673404D01*
X100160750Y33673408D01*
X99452379Y34090030D01*
X99452374Y34090033D01*
X99096126Y34277006D01*
X98724677Y34471958D01*
X98724678Y34471957D01*
X97979374Y34818281D01*
X97218233Y35128181D01*
X97218235Y35128181D01*
X97218221Y35128186D01*
X96442978Y35400958D01*
X95655461Y35635957D01*
X94857511Y35832635D01*
X94050990Y35990530D01*
X93237782Y36109276D01*
X93237775Y36109277D01*
X93237766Y36109278D01*
X92419787Y36188594D01*
X92419788Y36188594D01*
X91598924Y36228300D01*
X91598916Y36228300D01*
X90777084Y36228300D01*
X90777076Y36228300D01*
X89956212Y36188594D01*
X89956213Y36188594D01*
X89138234Y36109278D01*
X89138224Y36109277D01*
X89138218Y36109276D01*
X88325010Y35990530D01*
X87518489Y35832635D01*
X86720539Y35635957D01*
X85933022Y35400958D01*
X85157779Y35128186D01*
X85157767Y35128181D01*
X84396626Y34818281D01*
X83651322Y34471957D01*
X83651323Y34471958D01*
X83279874Y34277006D01*
X82923626Y34090033D01*
X82923621Y34090030D01*
X82215250Y33673408D01*
X82215243Y33673404D01*
X82215232Y33673397D01*
X81527795Y33223023D01*
X81527793Y33223022D01*
X80862913Y32739959D01*
X80862914Y32739959D01*
X80222147Y32225335D01*
X79607015Y31680375D01*
X79024292Y31111567D01*
X79018907Y31106311D01*
X78970599Y31054367D01*
X78459228Y30504511D01*
X77929266Y29876359D01*
X77628820Y29483173D01*
X77430290Y29223362D01*
X76963436Y28547008D01*
X76792771Y28272248D01*
X76529812Y27848900D01*
X76529811Y27848899D01*
X76529805Y27848888D01*
X76130409Y27130634D01*
X76130404Y27130625D01*
X76130404Y27130624D01*
X75766180Y26393922D01*
X75437971Y25640478D01*
X75437970Y25640478D01*
X75314499Y25314909D01*
X75146544Y24872047D01*
X74892584Y24090439D01*
X74676683Y23297474D01*
X74499345Y22495004D01*
X74360984Y21684903D01*
X74349044Y21586571D01*
X74261923Y20869069D01*
X74202393Y20049386D01*
X74182535Y19227800D01*
X45814909Y19227800D01*
X45817072Y19234118D01*
X45825181Y19252855D01*
X45832569Y19299503D01*
X45833751Y19305214D01*
X45845500Y19350970D01*
X45845500Y19371385D01*
X45847027Y19390786D01*
X45850220Y19410943D01*
X45845775Y19457967D01*
X45845500Y19463805D01*
X45845500Y21377500D01*
X45865185Y21444539D01*
X45917989Y21490294D01*
X45969500Y21501500D01*
X45983638Y21501500D01*
X45983654Y21501501D01*
X46010692Y21504409D01*
X46044201Y21508011D01*
X46181204Y21559111D01*
X46298261Y21646739D01*
X46385889Y21763796D01*
X46434223Y21893385D01*
X46476093Y21949314D01*
X46541557Y21973731D01*
X46609830Y21958879D01*
X46638084Y21937728D01*
X46753917Y21821895D01*
X46947421Y21686400D01*
X47161507Y21586571D01*
X47161516Y21586567D01*
X47375000Y21529366D01*
X47375000Y22424499D01*
X47482685Y22375320D01*
X47589237Y22360000D01*
X47660763Y22360000D01*
X47767315Y22375320D01*
X47875000Y22424499D01*
X47875000Y21529367D01*
X48088483Y21586567D01*
X48088492Y21586571D01*
X48302578Y21686400D01*
X48496082Y21821895D01*
X48663105Y21988918D01*
X48798600Y22182422D01*
X48898429Y22396508D01*
X48898432Y22396514D01*
X48955636Y22610000D01*
X48058686Y22610000D01*
X48084493Y22650156D01*
X48125000Y22788111D01*
X48125000Y22931889D01*
X48084493Y23069844D01*
X48058686Y23110000D01*
X48955636Y23110000D01*
X48955635Y23110001D01*
X48898432Y23323487D01*
X48898429Y23323493D01*
X48798600Y23537578D01*
X48798599Y23537580D01*
X48663113Y23731074D01*
X48663108Y23731080D01*
X48496082Y23898106D01*
X48302578Y24033601D01*
X48088492Y24133430D01*
X48088486Y24133433D01*
X47875000Y24190636D01*
X47875000Y23295502D01*
X47767315Y23344680D01*
X47660763Y23360000D01*
X47589237Y23360000D01*
X47482685Y23344680D01*
X47375000Y23295502D01*
X47375000Y24190636D01*
X47374999Y24190636D01*
X47161513Y24133433D01*
X47161507Y24133430D01*
X46947422Y24033601D01*
X46947420Y24033600D01*
X46753926Y23898114D01*
X46638084Y23782272D01*
X46576761Y23748788D01*
X46507069Y23753772D01*
X46451136Y23795644D01*
X46434223Y23826616D01*
X46385889Y23956204D01*
X46298261Y24073261D01*
X46181204Y24160889D01*
X46132709Y24178977D01*
X46044203Y24211989D01*
X45983654Y24218500D01*
X45983638Y24218500D01*
X44186362Y24218500D01*
X44186345Y24218500D01*
X44125797Y24211989D01*
X44125795Y24211989D01*
X43988795Y24160889D01*
X43871739Y24073261D01*
X43784111Y23956205D01*
X43733011Y23819205D01*
X43733011Y23819203D01*
X43726500Y23758655D01*
X43726500Y21961346D01*
X43733011Y21900798D01*
X43733011Y21900796D01*
X43766606Y21810728D01*
X43784111Y21763796D01*
X43871739Y21646739D01*
X43988796Y21559111D01*
X44125799Y21508011D01*
X44153050Y21505082D01*
X44186345Y21501501D01*
X44186362Y21501500D01*
X44454500Y21501500D01*
X44521539Y21481815D01*
X44567294Y21429011D01*
X44578500Y21377500D01*
X44578500Y19744767D01*
X44558815Y19677728D01*
X44542181Y19657086D01*
X41485181Y16600086D01*
X41423858Y16566601D01*
X41354166Y16571585D01*
X41298233Y16613457D01*
X41273816Y16678921D01*
X41273500Y16687767D01*
X41273500Y35635612D01*
X41293185Y35702651D01*
X41345989Y35748406D01*
X41415147Y35758350D01*
X41478703Y35729325D01*
X41516477Y35670547D01*
X41519728Y35656493D01*
X41647739Y34906996D01*
X41825077Y34104526D01*
X42010607Y33423109D01*
X42040978Y33311561D01*
X42135987Y33019152D01*
X42294938Y32529953D01*
X42363455Y32349287D01*
X42586364Y31761522D01*
X42586365Y31761522D01*
X42914574Y31008078D01*
X43278803Y30271366D01*
X43498453Y29876359D01*
X43678205Y29553101D01*
X43678206Y29553100D01*
X44111830Y28854992D01*
X44331578Y28536632D01*
X44578683Y28178640D01*
X44578683Y28178639D01*
X45077660Y27525641D01*
X45607622Y26897489D01*
X45869619Y26615775D01*
X46167301Y26295689D01*
X46167307Y26295684D01*
X46167309Y26295681D01*
X46755409Y25721625D01*
X47370541Y25176665D01*
X48011308Y24662041D01*
X48011307Y24662041D01*
X48676187Y24178978D01*
X48676187Y24178979D01*
X48676189Y24178977D01*
X49363626Y23728603D01*
X49363637Y23728597D01*
X49363644Y23728592D01*
X49688420Y23537578D01*
X50072020Y23311967D01*
X50365471Y23157952D01*
X50799717Y22930042D01*
X50799716Y22930043D01*
X51545020Y22583719D01*
X52056866Y22375320D01*
X52306173Y22273814D01*
X53081416Y22001042D01*
X53868933Y21766043D01*
X54666883Y21569365D01*
X55473404Y21411470D01*
X56286612Y21292724D01*
X56286618Y21292724D01*
X56286628Y21292722D01*
X57104607Y21213406D01*
X57104606Y21213406D01*
X57925470Y21173700D01*
X57925478Y21173700D01*
X58747318Y21173700D01*
X59568182Y21213406D01*
X59568181Y21213406D01*
X60386160Y21292722D01*
X60386169Y21292724D01*
X60386176Y21292724D01*
X61199384Y21411470D01*
X62005905Y21569365D01*
X62803855Y21766043D01*
X63591372Y22001042D01*
X64366615Y22273814D01*
X64615922Y22375320D01*
X65127768Y22583719D01*
X65873072Y22930043D01*
X65873071Y22930042D01*
X66307317Y23157952D01*
X66600768Y23311967D01*
X66984368Y23537578D01*
X67309144Y23728592D01*
X67309150Y23728597D01*
X67309162Y23728603D01*
X67996599Y24178977D01*
X67996601Y24178979D01*
X67996601Y24178978D01*
X68661481Y24662041D01*
X68661480Y24662041D01*
X69302247Y25176665D01*
X69917379Y25721625D01*
X70505479Y26295681D01*
X70505480Y26295684D01*
X70505487Y26295689D01*
X70803169Y26615775D01*
X71065166Y26897489D01*
X71595128Y27525641D01*
X72094105Y28178639D01*
X72094105Y28178640D01*
X72341210Y28536632D01*
X72560958Y28854992D01*
X72994582Y29553100D01*
X72994583Y29553101D01*
X73174335Y29876359D01*
X73393985Y30271366D01*
X73758214Y31008078D01*
X74086423Y31761522D01*
X74086424Y31761522D01*
X74309332Y32349287D01*
X74377850Y32529953D01*
X74536801Y33019152D01*
X74631810Y33311561D01*
X74662181Y33423109D01*
X74847711Y34104526D01*
X75025049Y34906996D01*
X75163410Y35717097D01*
X75193281Y35963109D01*
X75262471Y36532931D01*
X75322001Y37352614D01*
X75341859Y38174200D01*
X75322001Y38995786D01*
X75262471Y39815469D01*
X75163410Y40631302D01*
X75159973Y40651423D01*
X75098500Y41011346D01*
X76619500Y41011346D01*
X76626011Y40950798D01*
X76626011Y40950796D01*
X76657325Y40866843D01*
X76677111Y40813796D01*
X76764739Y40696739D01*
X76881796Y40609111D01*
X77018799Y40558011D01*
X77046050Y40555082D01*
X77079345Y40551501D01*
X77079362Y40551500D01*
X78876638Y40551500D01*
X78876654Y40551501D01*
X78903692Y40554409D01*
X78937201Y40558011D01*
X79074204Y40609111D01*
X79191261Y40696739D01*
X79278889Y40813796D01*
X79327223Y40943385D01*
X79369093Y40999314D01*
X79434557Y41023731D01*
X79502830Y41008879D01*
X79531084Y40987728D01*
X79646917Y40871895D01*
X79840421Y40736400D01*
X80054507Y40636571D01*
X80054516Y40636567D01*
X80268000Y40579366D01*
X80268000Y41474499D01*
X80375685Y41425320D01*
X80482237Y41410000D01*
X80553763Y41410000D01*
X80660315Y41425320D01*
X80768000Y41474499D01*
X80768000Y40579367D01*
X80981483Y40636567D01*
X80981492Y40636571D01*
X81195578Y40736400D01*
X81389082Y40871895D01*
X81556105Y41038918D01*
X81691600Y41232422D01*
X81791429Y41446508D01*
X81791432Y41446514D01*
X81848636Y41660000D01*
X80951686Y41660000D01*
X80977493Y41700156D01*
X81018000Y41838111D01*
X81018000Y41981889D01*
X80977493Y42119844D01*
X80951686Y42160000D01*
X81848636Y42160000D01*
X81848635Y42160001D01*
X81791432Y42373487D01*
X81791429Y42373493D01*
X81691600Y42587578D01*
X81691599Y42587580D01*
X81556113Y42781074D01*
X81556108Y42781080D01*
X81389082Y42948106D01*
X81195578Y43083601D01*
X80981492Y43183430D01*
X80981486Y43183433D01*
X80768000Y43240636D01*
X80768000Y42345502D01*
X80660315Y42394680D01*
X80553763Y42410000D01*
X80482237Y42410000D01*
X80375685Y42394680D01*
X80268000Y42345502D01*
X80268000Y43240636D01*
X80267999Y43240636D01*
X80054513Y43183433D01*
X80054507Y43183430D01*
X79840422Y43083601D01*
X79840420Y43083600D01*
X79646926Y42948114D01*
X79531084Y42832272D01*
X79469761Y42798788D01*
X79400069Y42803772D01*
X79344136Y42845644D01*
X79327223Y42876616D01*
X79278889Y43006204D01*
X79277175Y43008493D01*
X79255956Y43036839D01*
X79191261Y43123261D01*
X79074204Y43210889D01*
X79042860Y43222580D01*
X78937203Y43261989D01*
X78876654Y43268500D01*
X78876638Y43268500D01*
X77079362Y43268500D01*
X77079345Y43268500D01*
X77018797Y43261989D01*
X77018795Y43261989D01*
X76881795Y43210889D01*
X76764739Y43123261D01*
X76677111Y43006205D01*
X76626011Y42869205D01*
X76626011Y42869203D01*
X76619500Y42808655D01*
X76619500Y41011346D01*
X75098500Y41011346D01*
X75038977Y41359855D01*
X75025050Y41441399D01*
X74847710Y42243879D01*
X74631810Y43036839D01*
X74395919Y43762837D01*
X74377852Y43818441D01*
X74367442Y43845889D01*
X74240425Y44180808D01*
X74086424Y44586878D01*
X74086423Y44586878D01*
X73758214Y45340322D01*
X73393990Y46077024D01*
X73393989Y46077025D01*
X73393985Y46077034D01*
X72994589Y46795288D01*
X72994583Y46795299D01*
X72994582Y46795300D01*
X72816655Y47081751D01*
X72560958Y47493408D01*
X72094104Y48169762D01*
X71777592Y48583973D01*
X71595128Y48822759D01*
X71065166Y49450911D01*
X70659576Y49887025D01*
X70505487Y50052711D01*
X69917385Y50626769D01*
X69917379Y50626775D01*
X69302247Y51171735D01*
X68730708Y51630759D01*
X68661480Y51686359D01*
X68661481Y51686359D01*
X67996601Y52169422D01*
X67996599Y52169423D01*
X67309162Y52619797D01*
X67309150Y52619804D01*
X67309144Y52619808D01*
X66600773Y53036430D01*
X66600768Y53036433D01*
X66278969Y53205326D01*
X65873071Y53418358D01*
X65873072Y53418357D01*
X65127768Y53764681D01*
X64366627Y54074581D01*
X64366629Y54074581D01*
X64366615Y54074586D01*
X63591372Y54347358D01*
X62803855Y54582357D01*
X62005905Y54779035D01*
X61199384Y54936930D01*
X60386176Y55055676D01*
X60386169Y55055677D01*
X60386160Y55055678D01*
X59568181Y55134994D01*
X59568182Y55134994D01*
X58747318Y55174700D01*
X58747310Y55174700D01*
X57925478Y55174700D01*
X57925470Y55174700D01*
X57104606Y55134994D01*
X57104607Y55134994D01*
X56286628Y55055678D01*
X56286618Y55055677D01*
X56286612Y55055676D01*
X55473404Y54936930D01*
X54666883Y54779035D01*
X53868933Y54582357D01*
X53081416Y54347358D01*
X52306173Y54074586D01*
X52306161Y54074581D01*
X51545020Y53764681D01*
X50799716Y53418357D01*
X50799717Y53418358D01*
X50393819Y53205326D01*
X50072020Y53036433D01*
X50072015Y53036430D01*
X49363644Y52619808D01*
X49363637Y52619804D01*
X49363626Y52619797D01*
X48676189Y52169423D01*
X48676187Y52169422D01*
X48011307Y51686359D01*
X48011308Y51686359D01*
X47942080Y51630759D01*
X47370541Y51171735D01*
X46755409Y50626775D01*
X46755403Y50626769D01*
X46167301Y50052711D01*
X46013212Y49887025D01*
X45607622Y49450911D01*
X45077660Y48822759D01*
X44895196Y48583973D01*
X44578684Y48169762D01*
X44111830Y47493408D01*
X43856132Y47081751D01*
X43678206Y46795300D01*
X43678205Y46795299D01*
X43678199Y46795288D01*
X43278803Y46077034D01*
X43278798Y46077025D01*
X43278798Y46077024D01*
X42914574Y45340322D01*
X42586365Y44586878D01*
X42586364Y44586878D01*
X42432363Y44180808D01*
X42305346Y43845889D01*
X42294936Y43818441D01*
X42276869Y43762837D01*
X42040978Y43036839D01*
X41825078Y42243879D01*
X41647738Y41441399D01*
X41633811Y41359855D01*
X41523296Y40712789D01*
X41519730Y40691913D01*
X41489040Y40629144D01*
X41429287Y40592932D01*
X41359441Y40594774D01*
X41301679Y40634085D01*
X41274340Y40698383D01*
X41273500Y40712789D01*
X41273500Y57275000D01*
X74231335Y57275000D01*
X74251193Y56453414D01*
X74310723Y55633731D01*
X74366460Y55174700D01*
X74409784Y54817897D01*
X74450013Y54582357D01*
X74536737Y54074586D01*
X74548145Y54007796D01*
X74725483Y53205326D01*
X74800262Y52930677D01*
X74941384Y52412361D01*
X75195342Y51630759D01*
X75486770Y50862322D01*
X75486771Y50862322D01*
X75814980Y50108878D01*
X76179209Y49372166D01*
X76484709Y48822770D01*
X76578611Y48653901D01*
X76578612Y48653900D01*
X76622047Y48583973D01*
X77012236Y47955792D01*
X77012241Y47955785D01*
X77479089Y47279440D01*
X77479089Y47279439D01*
X77978066Y46626441D01*
X78508028Y45998289D01*
X78847008Y45633798D01*
X79067707Y45396489D01*
X79067713Y45396484D01*
X79067715Y45396481D01*
X79655815Y44822425D01*
X80270947Y44277465D01*
X80270956Y44277458D01*
X80270958Y44277456D01*
X80842495Y43818433D01*
X80911714Y43762841D01*
X80911713Y43762841D01*
X81576593Y43279778D01*
X81576593Y43279779D01*
X81576595Y43279777D01*
X82264032Y42829403D01*
X82264043Y42829397D01*
X82264050Y42829392D01*
X82675200Y42587578D01*
X82972426Y42412767D01*
X83293787Y42244104D01*
X83700123Y42030842D01*
X83700122Y42030843D01*
X84445426Y41684519D01*
X85042537Y41441404D01*
X85206579Y41374614D01*
X85981822Y41101842D01*
X86769339Y40866843D01*
X87567289Y40670165D01*
X88373810Y40512270D01*
X89187018Y40393524D01*
X89187024Y40393524D01*
X89187034Y40393522D01*
X90005013Y40314206D01*
X90005012Y40314206D01*
X90825876Y40274500D01*
X90825884Y40274500D01*
X91647724Y40274500D01*
X92468588Y40314206D01*
X92468587Y40314206D01*
X93286566Y40393522D01*
X93286575Y40393524D01*
X93286582Y40393524D01*
X94099790Y40512270D01*
X94906311Y40670165D01*
X95704261Y40866843D01*
X96491778Y41101842D01*
X97267021Y41374614D01*
X97431063Y41441404D01*
X98028174Y41684519D01*
X98773478Y42030843D01*
X98773477Y42030842D01*
X99179812Y42244104D01*
X99501174Y42412767D01*
X99798400Y42587578D01*
X100209550Y42829392D01*
X100209556Y42829397D01*
X100209568Y42829403D01*
X100897005Y43279777D01*
X100897007Y43279779D01*
X100897007Y43279778D01*
X101561887Y43762841D01*
X101561886Y43762841D01*
X101631105Y43818433D01*
X102202642Y44277456D01*
X102202643Y44277458D01*
X102202653Y44277465D01*
X102817785Y44822425D01*
X103405885Y45396481D01*
X103405886Y45396484D01*
X103405893Y45396489D01*
X103626591Y45633798D01*
X103965572Y45998289D01*
X104495534Y46626441D01*
X104994511Y47279439D01*
X104994511Y47279440D01*
X105461359Y47955785D01*
X105461364Y47955792D01*
X105851553Y48583973D01*
X105894988Y48653900D01*
X105894989Y48653901D01*
X105988891Y48822770D01*
X106294391Y49372166D01*
X106658620Y50108878D01*
X106986829Y50862322D01*
X106986830Y50862322D01*
X107278258Y51630759D01*
X107532216Y52412361D01*
X107673338Y52930677D01*
X107748117Y53205326D01*
X107925455Y54007796D01*
X107936863Y54074586D01*
X108023587Y54582357D01*
X108063816Y54817897D01*
X108107140Y55174700D01*
X108162877Y55633731D01*
X108222407Y56453414D01*
X108242265Y57275000D01*
X108222407Y58096586D01*
X108162877Y58916269D01*
X108063816Y59732102D01*
X108053612Y59791844D01*
X107925455Y60542204D01*
X107758765Y61296493D01*
X107748116Y61344679D01*
X107532216Y62137639D01*
X107278256Y62919247D01*
X107118417Y63340709D01*
X106986830Y63687678D01*
X106986829Y63687678D01*
X106658620Y64441122D01*
X106294396Y65177824D01*
X106294395Y65177825D01*
X106294391Y65177834D01*
X105894995Y65896088D01*
X105894989Y65896099D01*
X105894988Y65896100D01*
X105703466Y66204438D01*
X105461364Y66594208D01*
X104994510Y67270562D01*
X104495534Y67923559D01*
X103965572Y68551711D01*
X103626591Y68916203D01*
X103405893Y69153511D01*
X102817791Y69727569D01*
X102817785Y69727575D01*
X102202653Y70272535D01*
X101561886Y70787159D01*
X101561887Y70787159D01*
X100897007Y71270222D01*
X100897005Y71270223D01*
X100209568Y71720597D01*
X100209556Y71720604D01*
X100209550Y71720608D01*
X99501179Y72137230D01*
X99501174Y72137233D01*
X99038504Y72380061D01*
X98773477Y72519158D01*
X98773478Y72519157D01*
X98028174Y72865481D01*
X97267033Y73175381D01*
X97267035Y73175381D01*
X97267021Y73175386D01*
X96491778Y73448158D01*
X95704261Y73683157D01*
X94906311Y73879835D01*
X94099790Y74037730D01*
X93286582Y74156476D01*
X93286575Y74156477D01*
X93286566Y74156478D01*
X92468587Y74235794D01*
X92468588Y74235794D01*
X91647724Y74275500D01*
X91647716Y74275500D01*
X90825884Y74275500D01*
X90825876Y74275500D01*
X90005012Y74235794D01*
X90005013Y74235794D01*
X89187034Y74156478D01*
X89187024Y74156477D01*
X89187018Y74156476D01*
X88373810Y74037730D01*
X87567289Y73879835D01*
X86769339Y73683157D01*
X85981822Y73448158D01*
X85206579Y73175386D01*
X85206567Y73175381D01*
X84445426Y72865481D01*
X83700122Y72519157D01*
X83700123Y72519158D01*
X83435096Y72380061D01*
X82972426Y72137233D01*
X82972421Y72137230D01*
X82264050Y71720608D01*
X82264043Y71720604D01*
X82264032Y71720597D01*
X81576595Y71270223D01*
X81576593Y71270222D01*
X80911713Y70787159D01*
X80911714Y70787159D01*
X80270947Y70272535D01*
X79655815Y69727575D01*
X79655809Y69727569D01*
X79067707Y69153511D01*
X78847008Y68916203D01*
X78508028Y68551711D01*
X77978066Y67923559D01*
X77479090Y67270562D01*
X77012236Y66594208D01*
X76770134Y66204438D01*
X76578612Y65896100D01*
X76578611Y65896099D01*
X76578605Y65896088D01*
X76179209Y65177834D01*
X76179204Y65177825D01*
X76179204Y65177824D01*
X75814980Y64441122D01*
X75486771Y63687678D01*
X75486770Y63687678D01*
X75355183Y63340709D01*
X75195344Y62919247D01*
X74941384Y62137639D01*
X74725484Y61344679D01*
X74714835Y61296493D01*
X74548145Y60542204D01*
X74419988Y59791844D01*
X74409784Y59732102D01*
X74310723Y58916269D01*
X74251193Y58096586D01*
X74231335Y57275000D01*
X41273500Y57275000D01*
X41273500Y59934346D01*
X43726500Y59934346D01*
X43733011Y59873798D01*
X43733011Y59873796D01*
X43763579Y59791843D01*
X43784111Y59736796D01*
X43871739Y59619739D01*
X43988796Y59532111D01*
X44125799Y59481011D01*
X44153050Y59478082D01*
X44186345Y59474501D01*
X44186362Y59474500D01*
X45983638Y59474500D01*
X45983654Y59474501D01*
X46010692Y59477409D01*
X46044201Y59481011D01*
X46181204Y59532111D01*
X46298261Y59619739D01*
X46385889Y59736796D01*
X46434223Y59866385D01*
X46476093Y59922314D01*
X46541557Y59946731D01*
X46609830Y59931879D01*
X46638084Y59910728D01*
X46753917Y59794895D01*
X46947421Y59659400D01*
X47161507Y59559571D01*
X47161516Y59559567D01*
X47375000Y59502366D01*
X47375000Y60397499D01*
X47482685Y60348320D01*
X47589237Y60333000D01*
X47660763Y60333000D01*
X47767315Y60348320D01*
X47875000Y60397499D01*
X47875000Y59502367D01*
X48088483Y59559567D01*
X48088492Y59559571D01*
X48302578Y59659400D01*
X48496082Y59794895D01*
X48663105Y59961918D01*
X48798600Y60155422D01*
X48898429Y60369508D01*
X48898432Y60369514D01*
X48955636Y60583000D01*
X48058686Y60583000D01*
X48084493Y60623156D01*
X48125000Y60761111D01*
X48125000Y60904889D01*
X48084493Y61042844D01*
X48058686Y61083000D01*
X48955636Y61083000D01*
X48955635Y61083001D01*
X48898432Y61296487D01*
X48898429Y61296493D01*
X48798600Y61510578D01*
X48798599Y61510580D01*
X48663113Y61704074D01*
X48663108Y61704080D01*
X48496082Y61871106D01*
X48302578Y62006601D01*
X48088492Y62106430D01*
X48088486Y62106433D01*
X47875000Y62163636D01*
X47875000Y61268502D01*
X47767315Y61317680D01*
X47660763Y61333000D01*
X47589237Y61333000D01*
X47482685Y61317680D01*
X47375000Y61268502D01*
X47375000Y62163636D01*
X47374999Y62163636D01*
X47161513Y62106433D01*
X47161507Y62106430D01*
X46947422Y62006601D01*
X46947420Y62006600D01*
X46753926Y61871114D01*
X46638084Y61755272D01*
X46576761Y61721788D01*
X46507069Y61726772D01*
X46451136Y61768644D01*
X46434223Y61799616D01*
X46385889Y61929204D01*
X46298261Y62046261D01*
X46181204Y62133889D01*
X46171150Y62137639D01*
X46044203Y62184989D01*
X45983654Y62191500D01*
X45983638Y62191500D01*
X44186362Y62191500D01*
X44186345Y62191500D01*
X44125797Y62184989D01*
X44125795Y62184989D01*
X43988795Y62133889D01*
X43871739Y62046261D01*
X43784111Y61929205D01*
X43733011Y61792205D01*
X43733011Y61792203D01*
X43726500Y61731655D01*
X43726500Y59934346D01*
X41273500Y59934346D01*
X41273500Y73661412D01*
X41293185Y73728451D01*
X41345989Y73774206D01*
X41415147Y73784150D01*
X41478703Y73755125D01*
X41516477Y73696347D01*
X41519728Y73682293D01*
X41647739Y72932796D01*
X41825077Y72130326D01*
X41959006Y71638430D01*
X42040978Y71337361D01*
X42294936Y70555759D01*
X42586364Y69787322D01*
X42586365Y69787322D01*
X42612394Y69727569D01*
X42914574Y69033878D01*
X43278803Y68297166D01*
X43486547Y67923570D01*
X43678205Y67578901D01*
X43678206Y67578900D01*
X44111830Y66880792D01*
X44543733Y66255073D01*
X44578683Y66204440D01*
X44578683Y66204439D01*
X45077660Y65551441D01*
X45607622Y64923289D01*
X45859494Y64652462D01*
X46167301Y64321489D01*
X46167307Y64321484D01*
X46167309Y64321481D01*
X46755409Y63747425D01*
X47370541Y63202465D01*
X48011308Y62687841D01*
X48011307Y62687841D01*
X48676187Y62204778D01*
X48676187Y62204779D01*
X48676189Y62204777D01*
X49363626Y61754403D01*
X49363637Y61754397D01*
X49363644Y61754392D01*
X49892206Y61443523D01*
X50072020Y61337767D01*
X50393381Y61169104D01*
X50799717Y60955842D01*
X50799716Y60955843D01*
X51545020Y60609519D01*
X52039850Y60408048D01*
X52306173Y60299614D01*
X53081416Y60026842D01*
X53868933Y59791843D01*
X54666883Y59595165D01*
X55473404Y59437270D01*
X56286612Y59318524D01*
X56286618Y59318524D01*
X56286628Y59318522D01*
X57104607Y59239206D01*
X57104606Y59239206D01*
X57925470Y59199500D01*
X57925478Y59199500D01*
X58747318Y59199500D01*
X59568182Y59239206D01*
X59568181Y59239206D01*
X60386160Y59318522D01*
X60386169Y59318524D01*
X60386176Y59318524D01*
X61199384Y59437270D01*
X62005905Y59595165D01*
X62803855Y59791843D01*
X63591372Y60026842D01*
X64366615Y60299614D01*
X64632938Y60408048D01*
X65127768Y60609519D01*
X65873072Y60955843D01*
X65873071Y60955842D01*
X66279406Y61169104D01*
X66600768Y61337767D01*
X66780582Y61443523D01*
X67309144Y61754392D01*
X67309150Y61754397D01*
X67309162Y61754403D01*
X67996599Y62204777D01*
X67996601Y62204779D01*
X67996601Y62204778D01*
X68661481Y62687841D01*
X68661480Y62687841D01*
X69302247Y63202465D01*
X69917379Y63747425D01*
X70505479Y64321481D01*
X70505480Y64321484D01*
X70505487Y64321489D01*
X70813294Y64652462D01*
X71065166Y64923289D01*
X71595128Y65551441D01*
X72094105Y66204439D01*
X72094105Y66204440D01*
X72129055Y66255073D01*
X72560958Y66880792D01*
X72994582Y67578900D01*
X72994583Y67578901D01*
X73186241Y67923570D01*
X73393985Y68297166D01*
X73758214Y69033878D01*
X74060394Y69727569D01*
X74086423Y69787322D01*
X74086424Y69787322D01*
X74377852Y70555759D01*
X74631810Y71337361D01*
X74713782Y71638430D01*
X74847711Y72130326D01*
X75025049Y72932796D01*
X75163410Y73742897D01*
X75243591Y74403242D01*
X75262471Y74558731D01*
X75322001Y75378414D01*
X75341859Y76200000D01*
X75322001Y77021586D01*
X75262471Y77841269D01*
X75163410Y78657102D01*
X75149492Y78738589D01*
X75025049Y79467204D01*
X74912138Y79978137D01*
X74847710Y80269679D01*
X74631810Y81062639D01*
X74377850Y81844247D01*
X74240425Y82206608D01*
X74086424Y82612678D01*
X74086423Y82612678D01*
X73758214Y83366122D01*
X73393990Y84102824D01*
X73393989Y84102825D01*
X73393985Y84102834D01*
X72994589Y84821088D01*
X72994583Y84821099D01*
X72994582Y84821100D01*
X72816655Y85107551D01*
X72560958Y85519208D01*
X72094104Y86195562D01*
X72044166Y86260915D01*
X71595128Y86848559D01*
X71065166Y87476711D01*
X70726185Y87841203D01*
X70505487Y88078511D01*
X70360779Y88219763D01*
X69917379Y88652575D01*
X69302247Y89197535D01*
X68661480Y89712159D01*
X68661481Y89712159D01*
X67996601Y90195222D01*
X67996599Y90195223D01*
X67309162Y90645597D01*
X67309150Y90645604D01*
X67309144Y90645608D01*
X66600773Y91062230D01*
X66600768Y91062233D01*
X66279406Y91230897D01*
X65873071Y91444158D01*
X65873072Y91444157D01*
X65127768Y91790481D01*
X64366627Y92100381D01*
X64366629Y92100381D01*
X64366615Y92100386D01*
X63591372Y92373158D01*
X62803855Y92608157D01*
X62005905Y92804835D01*
X61199384Y92962730D01*
X60386176Y93081476D01*
X60386169Y93081477D01*
X60386160Y93081478D01*
X59568181Y93160794D01*
X59568182Y93160794D01*
X58747318Y93200500D01*
X58747310Y93200500D01*
X57925478Y93200500D01*
X57925470Y93200500D01*
X57104606Y93160794D01*
X57104607Y93160794D01*
X56286628Y93081478D01*
X56286618Y93081477D01*
X56286612Y93081476D01*
X55473404Y92962730D01*
X54666883Y92804835D01*
X53868933Y92608157D01*
X53868930Y92608156D01*
X53811588Y92591046D01*
X53741719Y92590740D01*
X53682777Y92628257D01*
X53653474Y92691685D01*
X53663114Y92760886D01*
X53688449Y92797547D01*
X55804009Y94913106D01*
X55865330Y94946589D01*
X55922128Y94945629D01*
X55926359Y94944558D01*
X55926365Y94944556D01*
X56148431Y94907500D01*
X56373569Y94907500D01*
X56595635Y94944556D01*
X56808574Y95017658D01*
X57006576Y95124811D01*
X57184240Y95263094D01*
X57253908Y95338774D01*
X57313793Y95374763D01*
X57383631Y95372663D01*
X57441247Y95333140D01*
X57461318Y95298123D01*
X57507645Y95173914D01*
X57507649Y95173907D01*
X57593809Y95058813D01*
X57593812Y95058810D01*
X57708906Y94972650D01*
X57708913Y94972646D01*
X57843620Y94922404D01*
X57843627Y94922402D01*
X57903155Y94916001D01*
X57903172Y94916000D01*
X58551000Y94916000D01*
X58551000Y95830499D01*
X58658685Y95781320D01*
X58765237Y95766000D01*
X58836763Y95766000D01*
X58943315Y95781320D01*
X59051000Y95830499D01*
X59051000Y94916000D01*
X59698828Y94916000D01*
X59698844Y94916001D01*
X59758372Y94922402D01*
X59758379Y94922404D01*
X59893086Y94972646D01*
X59893093Y94972650D01*
X60008187Y95058810D01*
X60008190Y95058813D01*
X60094350Y95173907D01*
X60094354Y95173914D01*
X60144596Y95308621D01*
X60144598Y95308628D01*
X60150999Y95368156D01*
X60151000Y95368173D01*
X60151000Y95377000D01*
X67920496Y95377000D01*
X67940458Y95187072D01*
X67940459Y95187069D01*
X67999470Y95005451D01*
X67999473Y95005444D01*
X68094960Y94840056D01*
X68099503Y94835011D01*
X68218998Y94702297D01*
X68222747Y94698134D01*
X68377248Y94585882D01*
X68551712Y94508206D01*
X68738513Y94468500D01*
X68795234Y94468500D01*
X68862273Y94448815D01*
X68882915Y94432181D01*
X86487910Y76827186D01*
X86497816Y76814822D01*
X86498026Y76814995D01*
X86503001Y76808981D01*
X86554095Y76761000D01*
X86575224Y76739871D01*
X86575228Y76739868D01*
X86575231Y76739865D01*
X86580805Y76735542D01*
X86585247Y76731748D01*
X86619679Y76699414D01*
X86619683Y76699411D01*
X86637563Y76689582D01*
X86653827Y76678899D01*
X86669960Y76666386D01*
X86713301Y76647631D01*
X86718550Y76645059D01*
X86738627Y76634022D01*
X86759940Y76622305D01*
X86779718Y76617227D01*
X86798119Y76610927D01*
X86816855Y76602819D01*
X86861362Y76595771D01*
X86863503Y76595431D01*
X86869212Y76594249D01*
X86914970Y76582500D01*
X86935384Y76582500D01*
X86954783Y76580973D01*
X86974943Y76577780D01*
X87021966Y76582225D01*
X87027804Y76582500D01*
X96968234Y76582500D01*
X97035273Y76562815D01*
X97055915Y76546181D01*
X108677181Y64924915D01*
X108710666Y64863592D01*
X108713500Y64837234D01*
X108713500Y37802634D01*
X108711761Y37786887D01*
X108712032Y37786861D01*
X108711298Y37779095D01*
X108713500Y37709043D01*
X108713500Y37679141D01*
X108714384Y37672144D01*
X108714842Y37666321D01*
X108716326Y37619111D01*
X108716327Y37619109D01*
X108722022Y37599505D01*
X108725967Y37580458D01*
X108728526Y37560203D01*
X108728527Y37560200D01*
X108728528Y37560197D01*
X108745914Y37516284D01*
X108747806Y37510756D01*
X108760981Y37465408D01*
X108771372Y37447838D01*
X108779932Y37430365D01*
X108787447Y37411383D01*
X108815209Y37373173D01*
X108818416Y37368290D01*
X108842458Y37327638D01*
X108842462Y37327634D01*
X108856889Y37313207D01*
X108869526Y37298412D01*
X108881528Y37281893D01*
X108917931Y37251778D01*
X108922231Y37247865D01*
X109866041Y36304055D01*
X110791936Y35378160D01*
X110825421Y35316837D01*
X110824461Y35260040D01*
X110796435Y35149367D01*
X110777844Y34925006D01*
X110777844Y34924995D01*
X110796434Y34700641D01*
X110796436Y34700629D01*
X110851703Y34482386D01*
X110942140Y34276208D01*
X111065276Y34087735D01*
X111065284Y34087724D01*
X111217756Y33922098D01*
X111217760Y33922094D01*
X111395424Y33783811D01*
X111438693Y33760395D01*
X111438695Y33760394D01*
X111488286Y33711175D01*
X111503394Y33642958D01*
X111479224Y33577403D01*
X111450802Y33549764D01*
X111269922Y33423110D01*
X111269920Y33423109D01*
X111102891Y33256080D01*
X111102886Y33256074D01*
X110967400Y33062580D01*
X110967399Y33062578D01*
X110867570Y32848493D01*
X110867567Y32848487D01*
X110810364Y32635001D01*
X110810364Y32635000D01*
X111707314Y32635000D01*
X111681507Y32594844D01*
X111641000Y32456889D01*
X111641000Y32313111D01*
X111681507Y32175156D01*
X111707314Y32135000D01*
X110810364Y32135000D01*
X110867567Y31921514D01*
X110867570Y31921508D01*
X110967399Y31707422D01*
X111102894Y31513918D01*
X111269917Y31346895D01*
X111463421Y31211400D01*
X111677507Y31111571D01*
X111677516Y31111567D01*
X111891000Y31054366D01*
X111891000Y31949499D01*
X111998685Y31900320D01*
X112105237Y31885000D01*
X112176763Y31885000D01*
X112283315Y31900320D01*
X112391000Y31949499D01*
X112391000Y31054367D01*
X112604483Y31111567D01*
X112604492Y31111571D01*
X112818578Y31211400D01*
X113012082Y31346895D01*
X113179105Y31513918D01*
X113309425Y31700032D01*
X113364002Y31743656D01*
X113433501Y31750849D01*
X113495855Y31719327D01*
X113512575Y31700032D01*
X113642894Y31513918D01*
X113809917Y31346895D01*
X114003421Y31211400D01*
X114217507Y31111571D01*
X114217516Y31111567D01*
X114431000Y31054366D01*
X114431000Y31949499D01*
X114538685Y31900320D01*
X114645237Y31885000D01*
X114716763Y31885000D01*
X114823315Y31900320D01*
X114931000Y31949499D01*
X114931000Y31054367D01*
X115144483Y31111567D01*
X115144492Y31111571D01*
X115358578Y31211400D01*
X115552082Y31346895D01*
X115719105Y31513918D01*
X115854600Y31707422D01*
X115954429Y31921508D01*
X115954432Y31921514D01*
X116011636Y32135000D01*
X115114686Y32135000D01*
X115140493Y32175156D01*
X115181000Y32313111D01*
X115181000Y32456889D01*
X115140493Y32594844D01*
X115114686Y32635000D01*
X116011636Y32635000D01*
X116011635Y32635001D01*
X115954432Y32848487D01*
X115954429Y32848493D01*
X115854600Y33062578D01*
X115854599Y33062580D01*
X115719113Y33256074D01*
X115719108Y33256080D01*
X115552082Y33423106D01*
X115365968Y33553425D01*
X115322344Y33608002D01*
X115315151Y33677501D01*
X115346673Y33739855D01*
X115365968Y33756575D01*
X115552082Y33886895D01*
X115719105Y34053918D01*
X115854600Y34247422D01*
X115954429Y34461508D01*
X115954432Y34461514D01*
X116011636Y34675000D01*
X115114686Y34675000D01*
X115140493Y34715156D01*
X115181000Y34853111D01*
X115181000Y34996889D01*
X115140493Y35134844D01*
X115114686Y35175000D01*
X116011636Y35175000D01*
X116011635Y35175001D01*
X115954432Y35388487D01*
X115954429Y35388493D01*
X115854600Y35602578D01*
X115854599Y35602580D01*
X115719113Y35796074D01*
X115719108Y35796080D01*
X115552082Y35963106D01*
X115365968Y36093425D01*
X115322344Y36148002D01*
X115315151Y36217501D01*
X115346673Y36279855D01*
X115365968Y36296575D01*
X115552082Y36426895D01*
X115719105Y36593918D01*
X115854600Y36787422D01*
X115954429Y37001508D01*
X115954432Y37001514D01*
X116011636Y37215000D01*
X115114686Y37215000D01*
X115140493Y37255156D01*
X115181000Y37393111D01*
X115181000Y37536889D01*
X115140493Y37674844D01*
X115114686Y37715000D01*
X116011636Y37715000D01*
X116011635Y37715001D01*
X115954432Y37928487D01*
X115954429Y37928493D01*
X115854600Y38142578D01*
X115854599Y38142580D01*
X115719113Y38336074D01*
X115719108Y38336080D01*
X115552082Y38503106D01*
X115365968Y38633425D01*
X115322344Y38688002D01*
X115315151Y38757501D01*
X115346673Y38819855D01*
X115365968Y38836575D01*
X115552082Y38966895D01*
X115719105Y39133918D01*
X115854600Y39327422D01*
X115954429Y39541508D01*
X115954432Y39541514D01*
X116011636Y39755000D01*
X115114686Y39755000D01*
X115140493Y39795156D01*
X115181000Y39933111D01*
X115181000Y40076889D01*
X115140493Y40214844D01*
X115114686Y40255000D01*
X116011636Y40255000D01*
X116011635Y40255001D01*
X115954432Y40468487D01*
X115954429Y40468493D01*
X115854600Y40682578D01*
X115854599Y40682580D01*
X115719113Y40876074D01*
X115719108Y40876080D01*
X115552082Y41043106D01*
X115365968Y41173425D01*
X115322344Y41228002D01*
X115315151Y41297501D01*
X115346673Y41359855D01*
X115365968Y41376575D01*
X115552082Y41506895D01*
X115719105Y41673918D01*
X115854600Y41867422D01*
X115954429Y42081508D01*
X115954432Y42081514D01*
X116011636Y42295000D01*
X115114686Y42295000D01*
X115140493Y42335156D01*
X115181000Y42473111D01*
X115181000Y42616889D01*
X115140493Y42754844D01*
X115114686Y42795000D01*
X116011636Y42795000D01*
X116011635Y42795001D01*
X115954432Y43008487D01*
X115954429Y43008493D01*
X115854600Y43222578D01*
X115854599Y43222580D01*
X115719113Y43416074D01*
X115719108Y43416080D01*
X115552082Y43583106D01*
X115358578Y43718601D01*
X115144492Y43818430D01*
X115144486Y43818433D01*
X114931000Y43875636D01*
X114931000Y42980502D01*
X114823315Y43029680D01*
X114716763Y43045000D01*
X114645237Y43045000D01*
X114538685Y43029680D01*
X114431000Y42980502D01*
X114431000Y43875636D01*
X114430999Y43875636D01*
X114217513Y43818433D01*
X114217507Y43818430D01*
X114003422Y43718601D01*
X114003420Y43718600D01*
X113809926Y43583114D01*
X113694084Y43467272D01*
X113632761Y43433788D01*
X113563069Y43438772D01*
X113507136Y43480644D01*
X113490223Y43511616D01*
X113441889Y43641204D01*
X113354261Y43758261D01*
X113237204Y43845889D01*
X113100203Y43896989D01*
X113039654Y43903500D01*
X113039638Y43903500D01*
X112263500Y43903500D01*
X112196461Y43923185D01*
X112150706Y43975989D01*
X112139500Y44027500D01*
X112139500Y65702369D01*
X112141238Y65718119D01*
X112140968Y65718144D01*
X112141701Y65725906D01*
X112141702Y65725909D01*
X112139500Y65795959D01*
X112139500Y65825856D01*
X112138614Y65832864D01*
X112138156Y65838686D01*
X112136673Y65885890D01*
X112136672Y65885892D01*
X112133710Y65896088D01*
X112130977Y65905492D01*
X112127032Y65924543D01*
X112124474Y65944797D01*
X112107084Y65988716D01*
X112105193Y65994243D01*
X112092018Y66039592D01*
X112092018Y66039593D01*
X112081624Y66057168D01*
X112073064Y66074644D01*
X112065554Y66093612D01*
X112065554Y66093613D01*
X112065553Y66093615D01*
X112065552Y66093617D01*
X112037789Y66131829D01*
X112034587Y66136703D01*
X112010542Y66177363D01*
X111996106Y66191799D01*
X111983469Y66206594D01*
X111971471Y66223108D01*
X111935084Y66253210D01*
X111930762Y66257143D01*
X98297088Y79890817D01*
X98287187Y79903177D01*
X98286977Y79903002D01*
X98282002Y79909014D01*
X98282000Y79909018D01*
X98255658Y79933755D01*
X98230922Y79956984D01*
X98209768Y79978137D01*
X98207792Y79979669D01*
X98204183Y79982469D01*
X98199750Y79986256D01*
X98165321Y80018586D01*
X98165319Y80018588D01*
X98147431Y80028422D01*
X98131170Y80039103D01*
X98115039Y80051616D01*
X98071693Y80070373D01*
X98066445Y80072944D01*
X98039251Y80087894D01*
X98025060Y80095695D01*
X98021660Y80096568D01*
X98005287Y80100772D01*
X97986881Y80107074D01*
X97968144Y80115182D01*
X97968146Y80115182D01*
X97921496Y80122570D01*
X97915781Y80123754D01*
X97895612Y80128932D01*
X97870032Y80135500D01*
X97870030Y80135500D01*
X97849616Y80135500D01*
X97830217Y80137027D01*
X97810058Y80140220D01*
X97810057Y80140220D01*
X97763034Y80135775D01*
X97757196Y80135500D01*
X89086767Y80135500D01*
X89019728Y80155185D01*
X88999086Y80171819D01*
X71771559Y97399346D01*
X73190500Y97399346D01*
X73197011Y97338798D01*
X73197011Y97338796D01*
X73240063Y97223373D01*
X73248111Y97201796D01*
X73335739Y97084739D01*
X73452796Y96997111D01*
X73589799Y96946011D01*
X73617050Y96943082D01*
X73650345Y96939501D01*
X73650362Y96939500D01*
X75447638Y96939500D01*
X75447654Y96939501D01*
X75474692Y96942409D01*
X75508201Y96946011D01*
X75645204Y96997111D01*
X75762261Y97084739D01*
X75849889Y97201796D01*
X75895138Y97323113D01*
X75937009Y97379044D01*
X76002474Y97403461D01*
X76070746Y97388609D01*
X76102545Y97363764D01*
X76165760Y97295094D01*
X76343424Y97156811D01*
X76343425Y97156811D01*
X76343427Y97156809D01*
X76403848Y97124111D01*
X76541426Y97049658D01*
X76754365Y96976556D01*
X76976431Y96939500D01*
X77201569Y96939500D01*
X77423635Y96976556D01*
X77636574Y97049658D01*
X77834576Y97156811D01*
X78012240Y97295094D01*
X78115432Y97407189D01*
X78164715Y97460724D01*
X78164715Y97460725D01*
X78164722Y97460732D01*
X78255193Y97599210D01*
X78308338Y97644563D01*
X78377569Y97653987D01*
X78440905Y97624485D01*
X78462804Y97599213D01*
X78553278Y97460732D01*
X78553283Y97460727D01*
X78553284Y97460724D01*
X78705756Y97295098D01*
X78705761Y97295093D01*
X78752082Y97259040D01*
X78883424Y97156811D01*
X78883425Y97156811D01*
X78883427Y97156809D01*
X78943848Y97124111D01*
X79081426Y97049658D01*
X79294365Y96976556D01*
X79516431Y96939500D01*
X79741569Y96939500D01*
X79963635Y96976556D01*
X80176574Y97049658D01*
X80374576Y97156811D01*
X80552240Y97295094D01*
X80655432Y97407189D01*
X80704715Y97460724D01*
X80704715Y97460725D01*
X80704722Y97460732D01*
X80798749Y97604653D01*
X80851894Y97650006D01*
X80921125Y97659430D01*
X80984461Y97629928D01*
X81004130Y97607952D01*
X81130890Y97426922D01*
X81297917Y97259895D01*
X81491421Y97124400D01*
X81705507Y97024571D01*
X81705516Y97024567D01*
X81919000Y96967366D01*
X81919000Y97862499D01*
X82026685Y97813320D01*
X82133237Y97798000D01*
X82204763Y97798000D01*
X82311315Y97813320D01*
X82419000Y97862499D01*
X82419000Y96967367D01*
X82632483Y97024567D01*
X82632492Y97024571D01*
X82846578Y97124400D01*
X83040082Y97259895D01*
X83207105Y97426918D01*
X83342600Y97620422D01*
X83442429Y97834508D01*
X83442432Y97834514D01*
X83499636Y98048000D01*
X82602686Y98048000D01*
X82628493Y98088156D01*
X82669000Y98226111D01*
X82669000Y98369889D01*
X82628493Y98507844D01*
X82602686Y98548000D01*
X83499636Y98548000D01*
X83499635Y98548001D01*
X83442432Y98761487D01*
X83442429Y98761493D01*
X83342600Y98975578D01*
X83342599Y98975580D01*
X83207113Y99169074D01*
X83207108Y99169080D01*
X83040082Y99336106D01*
X82853968Y99466425D01*
X82810344Y99521002D01*
X82803151Y99590501D01*
X82834673Y99652855D01*
X82853968Y99669575D01*
X82883138Y99690000D01*
X86421747Y99690000D01*
X86440741Y99375977D01*
X86440741Y99375972D01*
X86440742Y99375971D01*
X86497451Y99066522D01*
X86497452Y99066518D01*
X86497453Y99066514D01*
X86591039Y98766184D01*
X86591043Y98766173D01*
X86591044Y98766170D01*
X86591046Y98766165D01*
X86720163Y98479279D01*
X86879901Y98215040D01*
X86882924Y98210040D01*
X87076942Y97962395D01*
X87299394Y97739943D01*
X87547039Y97545925D01*
X87547044Y97545922D01*
X87547048Y97545919D01*
X87816279Y97383163D01*
X88103165Y97254046D01*
X88103175Y97254043D01*
X88103183Y97254040D01*
X88298337Y97193228D01*
X88403522Y97160451D01*
X88712971Y97103742D01*
X89027000Y97084747D01*
X89341029Y97103742D01*
X89650478Y97160451D01*
X89950835Y97254046D01*
X90237721Y97383163D01*
X90506952Y97545919D01*
X90530302Y97564212D01*
X90589726Y97610768D01*
X90754602Y97739940D01*
X90977060Y97962398D01*
X91171081Y98210048D01*
X91333837Y98479279D01*
X91462954Y98766165D01*
X91556549Y99066522D01*
X91613258Y99375971D01*
X91632253Y99690000D01*
X91613258Y100004029D01*
X91556549Y100313478D01*
X91509333Y100465000D01*
X91462960Y100613817D01*
X91462956Y100613828D01*
X91462954Y100613835D01*
X91333837Y100900721D01*
X91171081Y101169952D01*
X91171078Y101169956D01*
X91171075Y101169961D01*
X90977057Y101417606D01*
X90754605Y101640058D01*
X90506960Y101834076D01*
X90503655Y101836074D01*
X90237721Y101996837D01*
X89950835Y102125954D01*
X89950830Y102125956D01*
X89950827Y102125957D01*
X89950816Y102125961D01*
X89650486Y102219547D01*
X89650482Y102219548D01*
X89650478Y102219549D01*
X89341029Y102276258D01*
X89341028Y102276259D01*
X89341023Y102276259D01*
X89027000Y102295253D01*
X88712976Y102276259D01*
X88712971Y102276258D01*
X88403522Y102219549D01*
X88403519Y102219549D01*
X88403513Y102219547D01*
X88103183Y102125961D01*
X88103172Y102125957D01*
X87816283Y101996839D01*
X87816281Y101996838D01*
X87547039Y101834076D01*
X87299394Y101640058D01*
X87076942Y101417606D01*
X86882924Y101169961D01*
X86776827Y100994455D01*
X86720163Y100900721D01*
X86600213Y100634202D01*
X86591043Y100613828D01*
X86591039Y100613817D01*
X86497453Y100313487D01*
X86497451Y100313481D01*
X86497451Y100313478D01*
X86463379Y100127554D01*
X86440741Y100004024D01*
X86421747Y99690000D01*
X82883138Y99690000D01*
X83040082Y99799895D01*
X83207105Y99966918D01*
X83342600Y100160422D01*
X83442429Y100374508D01*
X83442432Y100374514D01*
X83499636Y100588000D01*
X82602686Y100588000D01*
X82628493Y100628156D01*
X82669000Y100766111D01*
X82669000Y100909889D01*
X82628493Y101047844D01*
X82602686Y101088000D01*
X83499636Y101088000D01*
X83499635Y101088001D01*
X83442432Y101301487D01*
X83442429Y101301493D01*
X83342600Y101515578D01*
X83342599Y101515580D01*
X83207113Y101709074D01*
X83207108Y101709080D01*
X83040082Y101876106D01*
X82846578Y102011601D01*
X82632492Y102111430D01*
X82632486Y102111433D01*
X82419000Y102168636D01*
X82419000Y101273502D01*
X82311315Y101322680D01*
X82204763Y101338000D01*
X82133237Y101338000D01*
X82026685Y101322680D01*
X81919000Y101273502D01*
X81919000Y102168636D01*
X81918999Y102168636D01*
X81705513Y102111433D01*
X81705507Y102111430D01*
X81491422Y102011601D01*
X81491420Y102011600D01*
X81297926Y101876114D01*
X81297920Y101876109D01*
X81130891Y101709080D01*
X81130890Y101709078D01*
X81000575Y101522969D01*
X80945998Y101479345D01*
X80876499Y101472152D01*
X80814145Y101503674D01*
X80797425Y101522969D01*
X80667109Y101709078D01*
X80667108Y101709080D01*
X80500082Y101876106D01*
X80306578Y102011601D01*
X80092492Y102111430D01*
X80092486Y102111433D01*
X79879000Y102168636D01*
X79879000Y101273502D01*
X79771315Y101322680D01*
X79664763Y101338000D01*
X79593237Y101338000D01*
X79486685Y101322680D01*
X79379000Y101273502D01*
X79379000Y102168636D01*
X79378999Y102168636D01*
X79165513Y102111433D01*
X79165507Y102111430D01*
X78951422Y102011601D01*
X78951420Y102011600D01*
X78757926Y101876114D01*
X78757920Y101876109D01*
X78590891Y101709080D01*
X78590890Y101709078D01*
X78460575Y101522969D01*
X78405998Y101479345D01*
X78336499Y101472152D01*
X78274145Y101503674D01*
X78257425Y101522969D01*
X78127109Y101709078D01*
X78127108Y101709080D01*
X77960082Y101876106D01*
X77766578Y102011601D01*
X77552492Y102111430D01*
X77552486Y102111433D01*
X77339000Y102168636D01*
X77339000Y101273502D01*
X77231315Y101322680D01*
X77124763Y101338000D01*
X77053237Y101338000D01*
X76946685Y101322680D01*
X76839000Y101273502D01*
X76839000Y102168636D01*
X76838999Y102168636D01*
X76625513Y102111433D01*
X76625507Y102111430D01*
X76411422Y102011601D01*
X76411420Y102011600D01*
X76217926Y101876114D01*
X76217920Y101876109D01*
X76050891Y101709080D01*
X76050890Y101709078D01*
X75920575Y101522969D01*
X75865998Y101479345D01*
X75796499Y101472152D01*
X75734145Y101503674D01*
X75717425Y101522969D01*
X75587109Y101709078D01*
X75587108Y101709080D01*
X75420082Y101876106D01*
X75226578Y102011601D01*
X75012492Y102111430D01*
X75012486Y102111433D01*
X74799000Y102168636D01*
X74799000Y101273502D01*
X74691315Y101322680D01*
X74584763Y101338000D01*
X74513237Y101338000D01*
X74406685Y101322680D01*
X74299000Y101273502D01*
X74299000Y102168636D01*
X74298999Y102168636D01*
X74085513Y102111433D01*
X74085507Y102111430D01*
X73871422Y102011601D01*
X73871420Y102011600D01*
X73677926Y101876114D01*
X73677920Y101876109D01*
X73510891Y101709080D01*
X73510886Y101709074D01*
X73375400Y101515580D01*
X73375399Y101515578D01*
X73275570Y101301493D01*
X73275567Y101301487D01*
X73218364Y101088001D01*
X73218364Y101088000D01*
X74115314Y101088000D01*
X74089507Y101047844D01*
X74049000Y100909889D01*
X74049000Y100766111D01*
X74089507Y100628156D01*
X74115314Y100588000D01*
X73218364Y100588000D01*
X73275567Y100374514D01*
X73275570Y100374508D01*
X73375399Y100160422D01*
X73510894Y99966918D01*
X73626727Y99851085D01*
X73660212Y99789762D01*
X73655228Y99720070D01*
X73613356Y99664137D01*
X73582381Y99647223D01*
X73452795Y99598889D01*
X73335739Y99511261D01*
X73248111Y99394205D01*
X73197011Y99257205D01*
X73197011Y99257203D01*
X73190500Y99196655D01*
X73190500Y97399346D01*
X71771559Y97399346D01*
X69780620Y99390285D01*
X69747135Y99451608D01*
X69744982Y99464988D01*
X69727542Y99630928D01*
X69668527Y99812556D01*
X69573040Y99977944D01*
X69445253Y100119866D01*
X69290752Y100232118D01*
X69116288Y100309794D01*
X69116286Y100309795D01*
X68929487Y100349500D01*
X68738513Y100349500D01*
X68551714Y100309795D01*
X68377246Y100232117D01*
X68222745Y100119865D01*
X68094959Y99977943D01*
X67999473Y99812557D01*
X67999470Y99812550D01*
X67940459Y99630932D01*
X67940458Y99630928D01*
X67920496Y99441000D01*
X67940458Y99251072D01*
X67940459Y99251069D01*
X67999470Y99069451D01*
X67999473Y99069444D01*
X68094960Y98904056D01*
X68140180Y98853834D01*
X68165717Y98825472D01*
X68195947Y98762480D01*
X68187322Y98693145D01*
X68165717Y98659528D01*
X68094959Y98580943D01*
X67999473Y98415557D01*
X67999470Y98415550D01*
X67940459Y98233932D01*
X67940458Y98233928D01*
X67920496Y98044000D01*
X67940458Y97854072D01*
X67940459Y97854069D01*
X67999470Y97672451D01*
X67999473Y97672444D01*
X68094960Y97507056D01*
X68146233Y97450111D01*
X68165717Y97428472D01*
X68195947Y97365480D01*
X68187322Y97296145D01*
X68165717Y97262528D01*
X68094959Y97183943D01*
X67999473Y97018557D01*
X67999470Y97018550D01*
X67972022Y96934072D01*
X67940458Y96836928D01*
X67920496Y96647000D01*
X67940458Y96457072D01*
X67940459Y96457069D01*
X67999470Y96275451D01*
X67999473Y96275444D01*
X68094957Y96110060D01*
X68094961Y96110055D01*
X68108542Y96094971D01*
X68138771Y96031978D01*
X68130145Y95962643D01*
X68108542Y95929029D01*
X68094961Y95913946D01*
X68094957Y95913941D01*
X67999473Y95748557D01*
X67999470Y95748550D01*
X67940459Y95566932D01*
X67940458Y95566928D01*
X67920496Y95377000D01*
X60151000Y95377000D01*
X60151000Y96016000D01*
X59234686Y96016000D01*
X59260493Y96056156D01*
X59301000Y96194111D01*
X59301000Y96337889D01*
X59260493Y96475844D01*
X59234686Y96516000D01*
X60151000Y96516000D01*
X60151000Y97163828D01*
X60150999Y97163845D01*
X60144598Y97223373D01*
X60144596Y97223380D01*
X60094354Y97358087D01*
X60094350Y97358094D01*
X60008190Y97473188D01*
X60008187Y97473191D01*
X59893093Y97559351D01*
X59893086Y97559355D01*
X59758379Y97609597D01*
X59758372Y97609599D01*
X59698844Y97616000D01*
X59051000Y97616000D01*
X59051000Y96701502D01*
X58943315Y96750680D01*
X58836763Y96766000D01*
X58765237Y96766000D01*
X58658685Y96750680D01*
X58551000Y96701502D01*
X58551000Y97616000D01*
X57903155Y97616000D01*
X57843627Y97609599D01*
X57843620Y97609597D01*
X57708913Y97559355D01*
X57708906Y97559351D01*
X57593812Y97473191D01*
X57593809Y97473188D01*
X57507649Y97358094D01*
X57507646Y97358089D01*
X57461318Y97233877D01*
X57419446Y97177944D01*
X57353982Y97153527D01*
X57285709Y97168379D01*
X57253910Y97193225D01*
X57184240Y97268906D01*
X57006576Y97407189D01*
X57006575Y97407190D01*
X57006572Y97407192D01*
X56808580Y97514339D01*
X56808577Y97514341D01*
X56808574Y97514342D01*
X56808571Y97514343D01*
X56808569Y97514344D01*
X56595637Y97587444D01*
X56373569Y97624500D01*
X56148431Y97624500D01*
X56129086Y97621273D01*
X56059722Y97629659D01*
X56021002Y97655902D01*
X54884051Y98792853D01*
X53720088Y99956817D01*
X53710187Y99969177D01*
X53709977Y99969002D01*
X53705002Y99975014D01*
X53705000Y99975018D01*
X53668782Y100009029D01*
X53653922Y100022984D01*
X53632768Y100044137D01*
X53630792Y100045669D01*
X53627183Y100048469D01*
X53622750Y100052256D01*
X53616524Y100058102D01*
X53588321Y100084586D01*
X53588319Y100084588D01*
X53570431Y100094422D01*
X53554170Y100105103D01*
X53538039Y100117616D01*
X53494693Y100136373D01*
X53489445Y100138944D01*
X53462024Y100154018D01*
X53448060Y100161695D01*
X53444660Y100162568D01*
X53428287Y100166772D01*
X53409881Y100173074D01*
X53391144Y100181182D01*
X53391146Y100181182D01*
X53344496Y100188570D01*
X53338781Y100189754D01*
X53318612Y100194932D01*
X53293032Y100201500D01*
X53293030Y100201500D01*
X53272616Y100201500D01*
X53253217Y100203027D01*
X53233058Y100206220D01*
X53233057Y100206220D01*
X53186034Y100201775D01*
X53180196Y100201500D01*
X50748454Y100201500D01*
X50681415Y100221185D01*
X50635660Y100273989D01*
X50625716Y100343147D01*
X50630069Y100362390D01*
X50677590Y100514894D01*
X50684000Y100585428D01*
X50684000Y100842000D01*
X49808624Y100842000D01*
X49881545Y100856505D01*
X49964240Y100911760D01*
X50019495Y100994455D01*
X50038898Y101092000D01*
X50019495Y101189545D01*
X49964240Y101272240D01*
X49881545Y101327495D01*
X49808624Y101342000D01*
X49759376Y101342000D01*
X49686455Y101327495D01*
X49603760Y101272240D01*
X49548505Y101189545D01*
X49534000Y101116624D01*
X49534000Y102242000D01*
X50034000Y102242000D01*
X50034000Y101342000D01*
X50683999Y101342000D01*
X50683999Y101598583D01*
X50677591Y101669103D01*
X50677590Y101669108D01*
X50627018Y101831397D01*
X50539072Y101976878D01*
X50418877Y102097073D01*
X50273395Y102185020D01*
X50273396Y102185020D01*
X50111105Y102235591D01*
X50111106Y102235591D01*
X50040572Y102242000D01*
X50034000Y102242000D01*
X49534000Y102242000D01*
X49533999Y102242001D01*
X49527436Y102242000D01*
X49527417Y102241999D01*
X49456897Y102235592D01*
X49456892Y102235591D01*
X49294602Y102185019D01*
X49160200Y102103770D01*
X49092645Y102085934D01*
X49026171Y102107452D01*
X49023164Y102109569D01*
X49020603Y102111430D01*
X48990752Y102133118D01*
X48816288Y102210794D01*
X48816286Y102210795D01*
X48629487Y102250500D01*
X48438513Y102250500D01*
X48251714Y102210795D01*
X48077246Y102133117D01*
X47981886Y102063833D01*
X47916079Y102040353D01*
X47848025Y102056178D01*
X47836114Y102063833D01*
X47770603Y102111430D01*
X47740752Y102133118D01*
X47566288Y102210794D01*
X47566286Y102210795D01*
X47379487Y102250500D01*
X47188513Y102250500D01*
X47001714Y102210795D01*
X46827246Y102133117D01*
X46731886Y102063833D01*
X46666079Y102040353D01*
X46598025Y102056178D01*
X46586114Y102063833D01*
X46520603Y102111430D01*
X46490752Y102133118D01*
X46316288Y102210794D01*
X46316286Y102210795D01*
X46129487Y102250500D01*
X45938513Y102250500D01*
X45751714Y102210795D01*
X45577246Y102133117D01*
X45481886Y102063833D01*
X45416079Y102040353D01*
X45348025Y102056178D01*
X45336114Y102063833D01*
X45270603Y102111430D01*
X45240752Y102133118D01*
X45066288Y102210794D01*
X45066286Y102210795D01*
X44879487Y102250500D01*
X44688513Y102250500D01*
X44501714Y102210795D01*
X44327246Y102133117D01*
X44231886Y102063833D01*
X44166079Y102040353D01*
X44098025Y102056178D01*
X44086114Y102063833D01*
X44020603Y102111430D01*
X43990752Y102133118D01*
X43816288Y102210794D01*
X43816286Y102210795D01*
X43629487Y102250500D01*
X43438513Y102250500D01*
X43251714Y102210795D01*
X43077246Y102133117D01*
X42981886Y102063833D01*
X42916079Y102040353D01*
X42848025Y102056178D01*
X42836114Y102063833D01*
X42770603Y102111430D01*
X42740752Y102133118D01*
X42566288Y102210794D01*
X42566286Y102210795D01*
X42379487Y102250500D01*
X42188513Y102250500D01*
X42001714Y102210795D01*
X41827246Y102133117D01*
X41731886Y102063833D01*
X41666079Y102040353D01*
X41598025Y102056178D01*
X41586114Y102063833D01*
X41520603Y102111430D01*
X41490752Y102133118D01*
X41316288Y102210794D01*
X41316286Y102210795D01*
X41129487Y102250500D01*
X40938513Y102250500D01*
X40751714Y102210795D01*
X40577246Y102133117D01*
X40481886Y102063833D01*
X40416079Y102040353D01*
X40348025Y102056178D01*
X40336114Y102063833D01*
X40270603Y102111430D01*
X40240752Y102133118D01*
X40066288Y102210794D01*
X40066286Y102210795D01*
X39879487Y102250500D01*
X39688513Y102250500D01*
X39501714Y102210795D01*
X39327246Y102133117D01*
X39231886Y102063833D01*
X39166079Y102040353D01*
X39098025Y102056178D01*
X39086114Y102063833D01*
X39020603Y102111430D01*
X38990752Y102133118D01*
X38816288Y102210794D01*
X38816286Y102210795D01*
X38629487Y102250500D01*
X38438513Y102250500D01*
X38251714Y102210795D01*
X38077246Y102133117D01*
X37981886Y102063833D01*
X37916079Y102040353D01*
X37848025Y102056178D01*
X37836114Y102063833D01*
X37770603Y102111430D01*
X37740752Y102133118D01*
X37566288Y102210794D01*
X37566286Y102210795D01*
X37379487Y102250500D01*
X37188513Y102250500D01*
X37001714Y102210795D01*
X36827246Y102133117D01*
X36731886Y102063833D01*
X36666079Y102040353D01*
X36598025Y102056178D01*
X36586114Y102063833D01*
X36520603Y102111430D01*
X36490752Y102133118D01*
X36316288Y102210794D01*
X36316286Y102210795D01*
X36129487Y102250500D01*
X35938513Y102250500D01*
X35751714Y102210795D01*
X35577246Y102133117D01*
X35481886Y102063833D01*
X35416079Y102040353D01*
X35348025Y102056178D01*
X35336114Y102063833D01*
X35270603Y102111430D01*
X35240752Y102133118D01*
X35066288Y102210794D01*
X35066286Y102210795D01*
X34879487Y102250500D01*
X34688513Y102250500D01*
X34501714Y102210795D01*
X34327246Y102133117D01*
X34231886Y102063833D01*
X34166079Y102040353D01*
X34098025Y102056178D01*
X34086114Y102063833D01*
X34020603Y102111430D01*
X33990752Y102133118D01*
X33816288Y102210794D01*
X33816286Y102210795D01*
X33629487Y102250500D01*
X33438513Y102250500D01*
X33251714Y102210795D01*
X33077243Y102133116D01*
X32974654Y102058580D01*
X32908848Y102035100D01*
X32840794Y102050926D01*
X32828883Y102058580D01*
X32736477Y102125718D01*
X32563648Y102202665D01*
X32534000Y102208968D01*
X32534000Y101116624D01*
X32519495Y101189545D01*
X32464240Y101272240D01*
X32381545Y101327495D01*
X32308624Y101342000D01*
X32259376Y101342000D01*
X32186455Y101327495D01*
X32103760Y101272240D01*
X32048505Y101189545D01*
X32029102Y101092000D01*
X32048505Y100994455D01*
X32103760Y100911760D01*
X32186455Y100856505D01*
X32259376Y100842000D01*
X31384000Y100842000D01*
X31384000Y100794841D01*
X31398819Y100653846D01*
X31457278Y100473928D01*
X31457281Y100473921D01*
X31507176Y100387500D01*
X31523649Y100319599D01*
X31500796Y100253573D01*
X31445875Y100210382D01*
X31399789Y100201500D01*
X29166634Y100201500D01*
X29150886Y100203239D01*
X29150861Y100202968D01*
X29143094Y100203702D01*
X29143091Y100203702D01*
X29073042Y100201500D01*
X29043137Y100201500D01*
X29036143Y100200616D01*
X29030320Y100200158D01*
X28983111Y100198674D01*
X28983108Y100198673D01*
X28963505Y100192978D01*
X28944459Y100189034D01*
X28924203Y100186474D01*
X28924201Y100186474D01*
X28924199Y100186473D01*
X28880282Y100169086D01*
X28874756Y100167194D01*
X28829406Y100154018D01*
X28811833Y100143626D01*
X28794370Y100135071D01*
X28775385Y100127554D01*
X28775383Y100127553D01*
X28737179Y100099796D01*
X28732296Y100096588D01*
X28691637Y100072542D01*
X28677196Y100058102D01*
X28662408Y100045473D01*
X28645897Y100033477D01*
X28645892Y100033472D01*
X28615790Y99997086D01*
X28611858Y99992764D01*
X26237990Y97618897D01*
X26176667Y97585412D01*
X26119872Y97586372D01*
X26115642Y97587443D01*
X25893569Y97624500D01*
X25668431Y97624500D01*
X25446362Y97587444D01*
X25233430Y97514344D01*
X25233419Y97514339D01*
X25035427Y97407192D01*
X25035422Y97407188D01*
X24857761Y97268908D01*
X24857756Y97268903D01*
X24705284Y97103277D01*
X24705276Y97103266D01*
X24611251Y96959350D01*
X24558105Y96913993D01*
X24488873Y96904570D01*
X24425538Y96934072D01*
X24405868Y96956049D01*
X24279113Y97137074D01*
X24279108Y97137080D01*
X24112082Y97304106D01*
X23918578Y97439601D01*
X23704492Y97539430D01*
X23704486Y97539433D01*
X23491000Y97596636D01*
X23491000Y96701502D01*
X23383315Y96750680D01*
X23276763Y96766000D01*
X23205237Y96766000D01*
X23098685Y96750680D01*
X22991000Y96701502D01*
X22991000Y97596636D01*
X22990999Y97596636D01*
X22777513Y97539433D01*
X22777507Y97539430D01*
X22563422Y97439601D01*
X22563420Y97439600D01*
X22369926Y97304114D01*
X22369920Y97304109D01*
X22202891Y97137080D01*
X22202886Y97137074D01*
X22067400Y96943580D01*
X22067399Y96943578D01*
X21967570Y96729493D01*
X21967567Y96729487D01*
X21910364Y96516001D01*
X21910364Y96516000D01*
X22807314Y96516000D01*
X22781507Y96475844D01*
X22741000Y96337889D01*
X22741000Y96194111D01*
X22781507Y96056156D01*
X22807314Y96016000D01*
X21910364Y96016000D01*
X21967567Y95802514D01*
X21967570Y95802508D01*
X22067399Y95588422D01*
X22202894Y95394918D01*
X22264631Y95333181D01*
X22298116Y95271858D01*
X22293132Y95202166D01*
X22251260Y95146233D01*
X22185796Y95121816D01*
X22176950Y95121500D01*
X17966766Y95121500D01*
X17899727Y95141185D01*
X17879085Y95157819D01*
X16182085Y96854819D01*
X16148600Y96916142D01*
X16153584Y96985834D01*
X16195456Y97041767D01*
X16260920Y97066184D01*
X16269766Y97066500D01*
X16368569Y97066500D01*
X16590635Y97103556D01*
X16803574Y97176658D01*
X17001576Y97283811D01*
X17179240Y97422094D01*
X17280192Y97531756D01*
X17331715Y97587724D01*
X17331715Y97587725D01*
X17331722Y97587732D01*
X17425749Y97731653D01*
X17478894Y97777006D01*
X17548125Y97786430D01*
X17611461Y97756928D01*
X17631130Y97734952D01*
X17757890Y97553922D01*
X17924917Y97386895D01*
X18118421Y97251400D01*
X18332507Y97151571D01*
X18332516Y97151567D01*
X18546000Y97094366D01*
X18546000Y97989499D01*
X18653685Y97940320D01*
X18760237Y97925000D01*
X18831763Y97925000D01*
X18938315Y97940320D01*
X19046000Y97989499D01*
X19046000Y97094367D01*
X19259483Y97151567D01*
X19259492Y97151571D01*
X19473578Y97251400D01*
X19667082Y97386895D01*
X19834105Y97553918D01*
X19969602Y97747425D01*
X20069429Y97961508D01*
X20069432Y97961514D01*
X20126636Y98175000D01*
X19229686Y98175000D01*
X19255493Y98215156D01*
X19296000Y98353111D01*
X19296000Y98496889D01*
X19255493Y98634844D01*
X19229686Y98675000D01*
X20126636Y98675000D01*
X20126635Y98675001D01*
X20069432Y98888487D01*
X20069429Y98888493D01*
X19969600Y99102578D01*
X19969599Y99102580D01*
X19834113Y99296074D01*
X19834108Y99296080D01*
X19667082Y99463106D01*
X19480968Y99593425D01*
X19437344Y99648002D01*
X19430151Y99717501D01*
X19461673Y99779855D01*
X19480968Y99796575D01*
X19667082Y99926895D01*
X19834105Y100093918D01*
X19969600Y100287422D01*
X20069429Y100501508D01*
X20069432Y100501514D01*
X20126636Y100715000D01*
X19229686Y100715000D01*
X19255493Y100755156D01*
X19296000Y100893111D01*
X19296000Y101036889D01*
X19255493Y101174844D01*
X19229686Y101215000D01*
X20126636Y101215000D01*
X20126635Y101215001D01*
X20092606Y101342000D01*
X31384000Y101342000D01*
X32034000Y101342000D01*
X32034000Y102208968D01*
X32004354Y102202666D01*
X31831518Y102125714D01*
X31678464Y102014513D01*
X31551872Y101873919D01*
X31551870Y101873916D01*
X31457283Y101710085D01*
X31457278Y101710073D01*
X31398819Y101530155D01*
X31384000Y101389160D01*
X31384000Y101342000D01*
X20092606Y101342000D01*
X20069432Y101428487D01*
X20069429Y101428493D01*
X19969600Y101642578D01*
X19969599Y101642580D01*
X19834113Y101836074D01*
X19834108Y101836080D01*
X19667082Y102003106D01*
X19473578Y102138601D01*
X19259492Y102238430D01*
X19259486Y102238433D01*
X19046000Y102295636D01*
X19046000Y101400502D01*
X18938315Y101449680D01*
X18831763Y101465000D01*
X18760237Y101465000D01*
X18653685Y101449680D01*
X18546000Y101400502D01*
X18546000Y102295636D01*
X18545999Y102295636D01*
X18332513Y102238433D01*
X18332507Y102238430D01*
X18118422Y102138601D01*
X18118420Y102138600D01*
X17924926Y102003114D01*
X17924920Y102003109D01*
X17757891Y101836080D01*
X17757890Y101836078D01*
X17627575Y101649969D01*
X17572998Y101606345D01*
X17503499Y101599152D01*
X17441145Y101630674D01*
X17424425Y101649969D01*
X17294109Y101836078D01*
X17294108Y101836080D01*
X17127082Y102003106D01*
X16933578Y102138601D01*
X16719492Y102238430D01*
X16719486Y102238433D01*
X16506000Y102295636D01*
X16506000Y101400502D01*
X16398315Y101449680D01*
X16291763Y101465000D01*
X16220237Y101465000D01*
X16113685Y101449680D01*
X16006000Y101400502D01*
X16006000Y102295636D01*
X16005999Y102295636D01*
X15792513Y102238433D01*
X15792507Y102238430D01*
X15578422Y102138601D01*
X15578420Y102138600D01*
X15384926Y102003114D01*
X15384920Y102003109D01*
X15217891Y101836080D01*
X15217890Y101836078D01*
X15087575Y101649969D01*
X15032998Y101606345D01*
X14963499Y101599152D01*
X14901145Y101630674D01*
X14884425Y101649969D01*
X14754109Y101836078D01*
X14754108Y101836080D01*
X14587082Y102003106D01*
X14393578Y102138601D01*
X14179492Y102238430D01*
X14179486Y102238433D01*
X13966000Y102295636D01*
X13966000Y101400502D01*
X13858315Y101449680D01*
X13751763Y101465000D01*
X13680237Y101465000D01*
X13573685Y101449680D01*
X13466000Y101400502D01*
X13466000Y102295636D01*
X13465999Y102295636D01*
X13252513Y102238433D01*
X13252507Y102238430D01*
X13038422Y102138601D01*
X13038420Y102138600D01*
X12844926Y102003114D01*
X12844920Y102003109D01*
X12677891Y101836080D01*
X12677890Y101836078D01*
X12547575Y101649969D01*
X12492998Y101606345D01*
X12423499Y101599152D01*
X12361145Y101630674D01*
X12344425Y101649969D01*
X12214109Y101836078D01*
X12214108Y101836080D01*
X12047082Y102003106D01*
X11853578Y102138601D01*
X11639492Y102238430D01*
X11639486Y102238433D01*
X11426000Y102295636D01*
X11426000Y101400502D01*
X11318315Y101449680D01*
X11211763Y101465000D01*
X11140237Y101465000D01*
X11033685Y101449680D01*
X10926000Y101400502D01*
X10926000Y102295636D01*
X10925999Y102295636D01*
X10712513Y102238433D01*
X10712507Y102238430D01*
X10498422Y102138601D01*
X10498420Y102138600D01*
X10304926Y102003114D01*
X10304920Y102003109D01*
X10137891Y101836080D01*
X10137886Y101836074D01*
X10002400Y101642580D01*
X10002399Y101642578D01*
X9902570Y101428493D01*
X9902567Y101428487D01*
X9845364Y101215001D01*
X9845364Y101215000D01*
X10742314Y101215000D01*
X10716507Y101174844D01*
X10676000Y101036889D01*
X10676000Y100893111D01*
X10716507Y100755156D01*
X10742314Y100715000D01*
X9845364Y100715000D01*
X9902567Y100501514D01*
X9902570Y100501508D01*
X10002399Y100287422D01*
X10137894Y100093918D01*
X10253727Y99978085D01*
X10287212Y99916762D01*
X10282228Y99847070D01*
X10240356Y99791137D01*
X10209381Y99774223D01*
X10079795Y99725889D01*
X9962739Y99638261D01*
X9875111Y99521205D01*
X9824011Y99384205D01*
X9824011Y99384203D01*
X9817500Y99323655D01*
X9817500Y97526346D01*
X9824011Y97465798D01*
X9824011Y97465796D01*
X9861428Y97365480D01*
X9875111Y97328796D01*
X9962739Y97211739D01*
X10079796Y97124111D01*
X10216799Y97073011D01*
X10244050Y97070082D01*
X10277345Y97066501D01*
X10277362Y97066500D01*
X12074638Y97066500D01*
X12074654Y97066501D01*
X12101692Y97069409D01*
X12135201Y97073011D01*
X12272204Y97124111D01*
X12389261Y97211739D01*
X12476889Y97328796D01*
X12522138Y97450113D01*
X12564009Y97506044D01*
X12629474Y97530461D01*
X12697746Y97515609D01*
X12729545Y97490764D01*
X12792760Y97422094D01*
X12970424Y97283811D01*
X12970425Y97283811D01*
X12970427Y97283809D01*
X13025436Y97254040D01*
X13168426Y97176658D01*
X13381365Y97103556D01*
X13603431Y97066500D01*
X13828569Y97066500D01*
X14050630Y97103555D01*
X14050631Y97103556D01*
X14050635Y97103556D01*
X14050637Y97103558D01*
X14054849Y97104624D01*
X14124669Y97102012D01*
X14172990Y97072106D01*
X15669143Y95575952D01*
X17145912Y94099183D01*
X17155816Y94086822D01*
X17156026Y94086995D01*
X17161001Y94080981D01*
X17212078Y94033016D01*
X17233224Y94011870D01*
X17238813Y94007534D01*
X17243245Y94003748D01*
X17264853Y93983458D01*
X17277680Y93971413D01*
X17295562Y93961583D01*
X17311829Y93950898D01*
X17327960Y93938385D01*
X17348025Y93929703D01*
X17371307Y93919629D01*
X17376533Y93917069D01*
X17417940Y93894305D01*
X17437716Y93889228D01*
X17456124Y93882925D01*
X17474850Y93874821D01*
X17474852Y93874820D01*
X17474853Y93874820D01*
X17474855Y93874819D01*
X17515784Y93868337D01*
X17521503Y93867431D01*
X17527212Y93866249D01*
X17572970Y93854500D01*
X17593384Y93854500D01*
X17612783Y93852973D01*
X17632943Y93849780D01*
X17679966Y93854225D01*
X17685804Y93854500D01*
X36619366Y93854500D01*
X36635113Y93852762D01*
X36635139Y93853032D01*
X36642905Y93852299D01*
X36642909Y93852298D01*
X36712958Y93854500D01*
X36742856Y93854500D01*
X36742857Y93854500D01*
X36744222Y93854673D01*
X36749862Y93855386D01*
X36755685Y93855844D01*
X36781708Y93856662D01*
X36802890Y93857327D01*
X36812681Y93860173D01*
X36822481Y93863020D01*
X36841538Y93866968D01*
X36861797Y93869526D01*
X36905721Y93886918D01*
X36911221Y93888801D01*
X36956593Y93901982D01*
X36974165Y93912375D01*
X36991632Y93920932D01*
X37010617Y93928448D01*
X37048826Y93956210D01*
X37053704Y93959415D01*
X37094362Y93983458D01*
X37108802Y93997900D01*
X37123592Y94010530D01*
X37140107Y94022528D01*
X37170222Y94058933D01*
X37174126Y94063224D01*
X38024009Y94913107D01*
X38085330Y94946590D01*
X38142143Y94945626D01*
X38146356Y94944559D01*
X38146365Y94944556D01*
X38368431Y94907500D01*
X38593569Y94907500D01*
X38815635Y94944556D01*
X39028574Y95017658D01*
X39226576Y95124811D01*
X39404240Y95263094D01*
X39556722Y95428732D01*
X39647193Y95567210D01*
X39700338Y95612563D01*
X39769569Y95621987D01*
X39832905Y95592485D01*
X39854804Y95567213D01*
X39945278Y95428732D01*
X39945283Y95428727D01*
X39945284Y95428724D01*
X40097711Y95263147D01*
X40097760Y95263094D01*
X40275424Y95124811D01*
X40275425Y95124811D01*
X40275427Y95124809D01*
X40281542Y95121500D01*
X40473426Y95017658D01*
X40686365Y94944556D01*
X40908431Y94907500D01*
X41133569Y94907500D01*
X41355635Y94944556D01*
X41568574Y95017658D01*
X41766576Y95124811D01*
X41944240Y95263094D01*
X42096722Y95428732D01*
X42187193Y95567210D01*
X42240338Y95612563D01*
X42309569Y95621987D01*
X42372905Y95592485D01*
X42394804Y95567213D01*
X42485278Y95428732D01*
X42485283Y95428727D01*
X42485284Y95428724D01*
X42637711Y95263147D01*
X42637760Y95263094D01*
X42815424Y95124811D01*
X42815425Y95124811D01*
X42815427Y95124809D01*
X42821542Y95121500D01*
X43013426Y95017658D01*
X43226365Y94944556D01*
X43448431Y94907500D01*
X43547233Y94907500D01*
X43614272Y94887815D01*
X43660027Y94835011D01*
X43669971Y94765853D01*
X43640946Y94702297D01*
X43634914Y94695819D01*
X37711179Y88772086D01*
X37698820Y88762182D01*
X37698993Y88761973D01*
X37692983Y88757001D01*
X37645016Y88705922D01*
X37623872Y88684778D01*
X37623857Y88684761D01*
X37619531Y88679186D01*
X37615747Y88674756D01*
X37583419Y88640329D01*
X37583412Y88640319D01*
X37573579Y88622433D01*
X37562903Y88606180D01*
X37550386Y88590043D01*
X37550385Y88590041D01*
X37531625Y88546690D01*
X37529055Y88541444D01*
X37506303Y88500059D01*
X37506303Y88500058D01*
X37501225Y88480280D01*
X37494925Y88461878D01*
X37486818Y88443143D01*
X37479431Y88396505D01*
X37478246Y88390784D01*
X37466500Y88345035D01*
X37466500Y88324616D01*
X37464972Y88305217D01*
X37461780Y88285057D01*
X37465567Y88244995D01*
X37466225Y88238034D01*
X37466500Y88232196D01*
X37466500Y78075884D01*
X37446815Y78008845D01*
X37394011Y77963090D01*
X37324853Y77953146D01*
X37261297Y77982171D01*
X37223523Y78040949D01*
X37219404Y78060937D01*
X37147016Y78657102D01*
X37133098Y78738589D01*
X37008655Y79467204D01*
X36895744Y79978137D01*
X36831316Y80269679D01*
X36615416Y81062639D01*
X36361456Y81844247D01*
X36224031Y82206608D01*
X36070030Y82612678D01*
X36070029Y82612678D01*
X35741820Y83366122D01*
X35377596Y84102824D01*
X35377595Y84102825D01*
X35377591Y84102834D01*
X34978195Y84821088D01*
X34978189Y84821099D01*
X34978188Y84821100D01*
X34800261Y85107551D01*
X34544564Y85519208D01*
X34077710Y86195562D01*
X34027772Y86260915D01*
X33578734Y86848559D01*
X33048772Y87476711D01*
X32709791Y87841203D01*
X32489093Y88078511D01*
X32344385Y88219763D01*
X31900985Y88652575D01*
X31285853Y89197535D01*
X30645086Y89712159D01*
X30645087Y89712159D01*
X29980207Y90195222D01*
X29980205Y90195223D01*
X29292768Y90645597D01*
X29292756Y90645604D01*
X29292750Y90645608D01*
X28584379Y91062230D01*
X28584374Y91062233D01*
X28263012Y91230897D01*
X27856677Y91444158D01*
X27856678Y91444157D01*
X27111374Y91790481D01*
X26350233Y92100381D01*
X26350235Y92100381D01*
X26350221Y92100386D01*
X25574978Y92373158D01*
X24787461Y92608157D01*
X23989511Y92804835D01*
X23182990Y92962730D01*
X22369782Y93081476D01*
X22369775Y93081477D01*
X22369766Y93081478D01*
X21551787Y93160794D01*
X21551788Y93160794D01*
X20730924Y93200500D01*
X20730916Y93200500D01*
X19909084Y93200500D01*
X19909076Y93200500D01*
X19088212Y93160794D01*
X19088213Y93160794D01*
X18270234Y93081478D01*
X18270224Y93081477D01*
X18270218Y93081476D01*
X17457010Y92962730D01*
X16650489Y92804835D01*
X15852539Y92608157D01*
X15065022Y92373158D01*
X14289779Y92100386D01*
X14289767Y92100381D01*
X13528626Y91790481D01*
X12783322Y91444157D01*
X12783323Y91444158D01*
X12376987Y91230897D01*
X12055626Y91062233D01*
X12055621Y91062230D01*
X11347250Y90645608D01*
X11347243Y90645604D01*
X11347232Y90645597D01*
X10659795Y90195223D01*
X10659793Y90195222D01*
X9994913Y89712159D01*
X9994914Y89712159D01*
X9354147Y89197535D01*
X8739015Y88652575D01*
X8295615Y88219763D01*
X8150907Y88078511D01*
X7930208Y87841203D01*
X7591228Y87476711D01*
X7061266Y86848559D01*
X6612228Y86260915D01*
X6562290Y86195562D01*
X6095436Y85519208D01*
X5839738Y85107551D01*
X5661812Y84821100D01*
X5661811Y84821099D01*
X5661805Y84821088D01*
X5262409Y84102834D01*
X5262404Y84102825D01*
X5262404Y84102824D01*
X4898180Y83366122D01*
X4569971Y82612678D01*
X4569970Y82612678D01*
X4415969Y82206608D01*
X4278544Y81844247D01*
X4024584Y81062639D01*
X3808684Y80269679D01*
X3744256Y79978137D01*
X3631345Y79467204D01*
X3506902Y78738589D01*
X3492984Y78657102D01*
X3393923Y77841269D01*
X3334393Y77021586D01*
X3314535Y76200000D01*
X3334393Y75378414D01*
X3393923Y74558731D01*
X3412803Y74403242D01*
X3492984Y73742897D01*
X3631345Y72932796D01*
X3808683Y72130326D01*
X3942612Y71638430D01*
X4024584Y71337361D01*
X4278542Y70555759D01*
X4569970Y69787322D01*
X4569971Y69787322D01*
X4596000Y69727569D01*
X4898180Y69033878D01*
X5262409Y68297166D01*
X5470153Y67923570D01*
X5661811Y67578901D01*
X5661812Y67578900D01*
X6095436Y66880792D01*
X6527339Y66255073D01*
X6562289Y66204440D01*
X6562289Y66204439D01*
X7061266Y65551441D01*
X7591228Y64923289D01*
X7843100Y64652462D01*
X8150907Y64321489D01*
X8150913Y64321484D01*
X8150915Y64321481D01*
X8739015Y63747425D01*
X9354147Y63202465D01*
X9994914Y62687841D01*
X9994913Y62687841D01*
X10659793Y62204778D01*
X10659793Y62204779D01*
X10659795Y62204777D01*
X11347232Y61754403D01*
X11347243Y61754397D01*
X11347250Y61754392D01*
X11875812Y61443523D01*
X12055626Y61337767D01*
X12376987Y61169104D01*
X12783323Y60955842D01*
X12783322Y60955843D01*
X13528626Y60609519D01*
X14023456Y60408048D01*
X14289779Y60299614D01*
X15065022Y60026842D01*
X15852539Y59791843D01*
X16650489Y59595165D01*
X17457010Y59437270D01*
X18270218Y59318524D01*
X18270224Y59318524D01*
X18270234Y59318522D01*
X19088213Y59239206D01*
X19088212Y59239206D01*
X19909076Y59199500D01*
X19909084Y59199500D01*
X20730924Y59199500D01*
X21551788Y59239206D01*
X21551787Y59239206D01*
X22369766Y59318522D01*
X22369775Y59318524D01*
X22369782Y59318524D01*
X23182990Y59437270D01*
X23989511Y59595165D01*
X24787461Y59791843D01*
X25574978Y60026842D01*
X26350221Y60299614D01*
X26616544Y60408048D01*
X27111374Y60609519D01*
X27856678Y60955843D01*
X27856677Y60955842D01*
X28263012Y61169104D01*
X28584374Y61337767D01*
X28764188Y61443523D01*
X29292750Y61754392D01*
X29292756Y61754397D01*
X29292768Y61754403D01*
X29980205Y62204777D01*
X29980207Y62204779D01*
X29980207Y62204778D01*
X30645087Y62687841D01*
X30645086Y62687841D01*
X31285853Y63202465D01*
X31900985Y63747425D01*
X32489085Y64321481D01*
X32489086Y64321484D01*
X32489093Y64321489D01*
X32796900Y64652462D01*
X33048772Y64923289D01*
X33578734Y65551441D01*
X34077711Y66204439D01*
X34077711Y66204440D01*
X34112661Y66255073D01*
X34544564Y66880792D01*
X34978188Y67578900D01*
X34978189Y67578901D01*
X35169847Y67923570D01*
X35377591Y68297166D01*
X35741820Y69033878D01*
X36044000Y69727569D01*
X36070029Y69787322D01*
X36070030Y69787322D01*
X36361458Y70555759D01*
X36615416Y71337361D01*
X36697388Y71638430D01*
X36831317Y72130326D01*
X37008655Y72932796D01*
X37147016Y73742897D01*
X37219404Y74339064D01*
X37247026Y74403242D01*
X37304960Y74442298D01*
X37374813Y74443833D01*
X37434407Y74407359D01*
X37464821Y74344456D01*
X37466500Y74324117D01*
X37466500Y61781767D01*
X37446815Y61714728D01*
X37430181Y61694086D01*
X33809914Y58073819D01*
X33748591Y58040334D01*
X33722233Y58037500D01*
X10854767Y58037500D01*
X10787728Y58057185D01*
X10767086Y58073819D01*
X9438319Y59402586D01*
X9404834Y59463909D01*
X9402000Y59490267D01*
X9402000Y60397499D01*
X9509685Y60348320D01*
X9616237Y60333000D01*
X9687763Y60333000D01*
X9794315Y60348320D01*
X9902000Y60397499D01*
X9902000Y59502367D01*
X10115483Y59559567D01*
X10115492Y59559571D01*
X10329578Y59659400D01*
X10523082Y59794895D01*
X10690105Y59961918D01*
X10825600Y60155422D01*
X10925429Y60369508D01*
X10925432Y60369514D01*
X10982636Y60583000D01*
X10085686Y60583000D01*
X10111493Y60623156D01*
X10152000Y60761111D01*
X10152000Y60904889D01*
X10111493Y61042844D01*
X10085686Y61083000D01*
X10982636Y61083000D01*
X10982635Y61083001D01*
X10925432Y61296487D01*
X10925429Y61296493D01*
X10825600Y61510578D01*
X10825599Y61510580D01*
X10690113Y61704074D01*
X10690108Y61704080D01*
X10523082Y61871106D01*
X10329578Y62006601D01*
X10115492Y62106430D01*
X10115486Y62106433D01*
X9902000Y62163636D01*
X9902000Y61268502D01*
X9794315Y61317680D01*
X9687763Y61333000D01*
X9616237Y61333000D01*
X9509685Y61317680D01*
X9402000Y61268502D01*
X9402000Y62163636D01*
X9401999Y62163636D01*
X9188513Y62106433D01*
X9188507Y62106430D01*
X8974422Y62006601D01*
X8974420Y62006600D01*
X8780926Y61871114D01*
X8665084Y61755272D01*
X8603761Y61721788D01*
X8534069Y61726772D01*
X8478136Y61768644D01*
X8461223Y61799616D01*
X8412889Y61929204D01*
X8325261Y62046261D01*
X8208204Y62133889D01*
X8198150Y62137639D01*
X8071203Y62184989D01*
X8010654Y62191500D01*
X8010638Y62191500D01*
X6213362Y62191500D01*
X6213345Y62191500D01*
X6152797Y62184989D01*
X6152795Y62184989D01*
X6015795Y62133889D01*
X5898739Y62046261D01*
X5811111Y61929205D01*
X5760011Y61792205D01*
X5760011Y61792203D01*
X5753500Y61731655D01*
X5753500Y59934346D01*
X5760011Y59873798D01*
X5760011Y59873796D01*
X5790579Y59791843D01*
X5811111Y59736796D01*
X5898739Y59619739D01*
X6015796Y59532111D01*
X6152799Y59481011D01*
X6180050Y59478082D01*
X6213345Y59474501D01*
X6213362Y59474500D01*
X7523234Y59474500D01*
X7590273Y59454815D01*
X7610915Y59438181D01*
X10033910Y57015186D01*
X10043816Y57002822D01*
X10044026Y57002995D01*
X10049001Y56996981D01*
X10100094Y56949001D01*
X10121225Y56927871D01*
X10121230Y56927866D01*
X10126802Y56923544D01*
X10131242Y56919751D01*
X10165678Y56887414D01*
X10183567Y56877580D01*
X10199833Y56866896D01*
X10215959Y56854387D01*
X10259298Y56835633D01*
X10264545Y56833063D01*
X10305940Y56810305D01*
X10325718Y56805227D01*
X10344119Y56798927D01*
X10362855Y56790819D01*
X10407362Y56783771D01*
X10409503Y56783431D01*
X10415212Y56782249D01*
X10460970Y56770500D01*
X10481384Y56770500D01*
X10500783Y56768973D01*
X10520943Y56765780D01*
X10567966Y56770225D01*
X10573804Y56770500D01*
X33952366Y56770500D01*
X33968113Y56768762D01*
X33968139Y56769032D01*
X33975905Y56768299D01*
X33975909Y56768298D01*
X34045958Y56770500D01*
X34075856Y56770500D01*
X34075857Y56770500D01*
X34077222Y56770673D01*
X34082862Y56771386D01*
X34088685Y56771844D01*
X34114708Y56772662D01*
X34135890Y56773327D01*
X34145681Y56776173D01*
X34155481Y56779020D01*
X34174538Y56782968D01*
X34194797Y56785526D01*
X34238721Y56802918D01*
X34244221Y56804801D01*
X34289593Y56817982D01*
X34307165Y56828375D01*
X34324632Y56836932D01*
X34343617Y56844448D01*
X34381826Y56872210D01*
X34386704Y56875415D01*
X34427362Y56899458D01*
X34441802Y56913900D01*
X34456592Y56926530D01*
X34473107Y56938528D01*
X34503222Y56974933D01*
X34507126Y56979224D01*
X37254821Y59726918D01*
X37316142Y59760401D01*
X37385834Y59755417D01*
X37441767Y59713545D01*
X37466184Y59648081D01*
X37466500Y59639235D01*
X37466500Y39840898D01*
X37446815Y39773859D01*
X37394011Y39728104D01*
X37324853Y39718160D01*
X37261297Y39747185D01*
X37223523Y39805963D01*
X37219404Y39825951D01*
X37126051Y40594774D01*
X37121616Y40631303D01*
X36997183Y41359855D01*
X36983256Y41441399D01*
X36805916Y42243879D01*
X36590016Y43036839D01*
X36354125Y43762837D01*
X36336058Y43818441D01*
X36325648Y43845889D01*
X36198631Y44180808D01*
X36044630Y44586878D01*
X36044629Y44586878D01*
X35716420Y45340322D01*
X35352196Y46077024D01*
X35352195Y46077025D01*
X35352191Y46077034D01*
X34952795Y46795288D01*
X34952789Y46795299D01*
X34952788Y46795300D01*
X34774861Y47081751D01*
X34519164Y47493408D01*
X34052310Y48169762D01*
X33735798Y48583973D01*
X33553334Y48822759D01*
X33023372Y49450911D01*
X32617782Y49887025D01*
X32463693Y50052711D01*
X31875591Y50626769D01*
X31875585Y50626775D01*
X31260453Y51171735D01*
X30688914Y51630759D01*
X30619686Y51686359D01*
X30619687Y51686359D01*
X29954807Y52169422D01*
X29954805Y52169423D01*
X29267368Y52619797D01*
X29267356Y52619804D01*
X29267350Y52619808D01*
X28558979Y53036430D01*
X28558974Y53036433D01*
X28237175Y53205326D01*
X27831277Y53418358D01*
X27831278Y53418357D01*
X27085974Y53764681D01*
X26324833Y54074581D01*
X26324835Y54074581D01*
X26324821Y54074586D01*
X25549578Y54347358D01*
X24762061Y54582357D01*
X23964111Y54779035D01*
X23157590Y54936930D01*
X22344382Y55055676D01*
X22344375Y55055677D01*
X22344366Y55055678D01*
X21526387Y55134994D01*
X21526388Y55134994D01*
X20705524Y55174700D01*
X20705516Y55174700D01*
X19883684Y55174700D01*
X19883676Y55174700D01*
X19062812Y55134994D01*
X19062813Y55134994D01*
X18244834Y55055678D01*
X18244824Y55055677D01*
X18244818Y55055676D01*
X17431610Y54936930D01*
X16625089Y54779035D01*
X15827139Y54582357D01*
X15039622Y54347358D01*
X14264379Y54074586D01*
X14264367Y54074581D01*
X13503226Y53764681D01*
X12757922Y53418357D01*
X12757923Y53418358D01*
X12352025Y53205326D01*
X12030226Y53036433D01*
X12030221Y53036430D01*
X11321850Y52619808D01*
X11321843Y52619804D01*
X11321832Y52619797D01*
X10634395Y52169423D01*
X10634393Y52169422D01*
X9969513Y51686359D01*
X9969514Y51686359D01*
X9900286Y51630759D01*
X9328747Y51171735D01*
X8713615Y50626775D01*
X8713609Y50626769D01*
X8125507Y50052711D01*
X7971418Y49887025D01*
X7565828Y49450911D01*
X7035866Y48822759D01*
X6853402Y48583973D01*
X6536890Y48169762D01*
X6070036Y47493408D01*
X5814338Y47081751D01*
X5636412Y46795300D01*
X5636411Y46795299D01*
X5636405Y46795288D01*
X5237009Y46077034D01*
X5237004Y46077025D01*
X5237004Y46077024D01*
X4872780Y45340322D01*
X4544571Y44586878D01*
X4544570Y44586878D01*
X4390569Y44180808D01*
X4263552Y43845889D01*
X4253142Y43818441D01*
X4235075Y43762837D01*
X3999184Y43036839D01*
X3783284Y42243879D01*
X3605944Y41441399D01*
X3592017Y41359855D01*
X3471021Y40651423D01*
X3467584Y40631302D01*
X3368523Y39815469D01*
X3308993Y38995786D01*
X3289135Y38174200D01*
X1000500Y38174200D01*
X1000500Y99695000D01*
X1331747Y99695000D01*
X1350741Y99380977D01*
X1350741Y99380972D01*
X1350742Y99380971D01*
X1407451Y99071522D01*
X1407452Y99071518D01*
X1407453Y99071514D01*
X1501039Y98771184D01*
X1501043Y98771173D01*
X1501044Y98771170D01*
X1501046Y98771165D01*
X1630163Y98484279D01*
X1791880Y98216767D01*
X1792924Y98215040D01*
X1986942Y97967395D01*
X2209394Y97744943D01*
X2457039Y97550925D01*
X2457044Y97550922D01*
X2457048Y97550919D01*
X2726279Y97388163D01*
X3013165Y97259046D01*
X3013175Y97259043D01*
X3013183Y97259040D01*
X3196887Y97201796D01*
X3313522Y97165451D01*
X3622971Y97108742D01*
X3937000Y97089747D01*
X4251029Y97108742D01*
X4560478Y97165451D01*
X4844783Y97254044D01*
X4860816Y97259040D01*
X4860817Y97259041D01*
X4860835Y97259046D01*
X5147721Y97388163D01*
X5416952Y97550919D01*
X5433920Y97564212D01*
X5512431Y97625722D01*
X5664602Y97744940D01*
X5887060Y97967398D01*
X6038607Y98160834D01*
X6081075Y98215040D01*
X6081075Y98215042D01*
X6081081Y98215048D01*
X6243837Y98484279D01*
X6372954Y98771165D01*
X6466549Y99071522D01*
X6523258Y99380971D01*
X6542253Y99695000D01*
X6523258Y100009029D01*
X6466549Y100318478D01*
X6420891Y100465000D01*
X6372960Y100618817D01*
X6372956Y100618828D01*
X6372954Y100618835D01*
X6243837Y100905721D01*
X6081081Y101174952D01*
X6081078Y101174956D01*
X6081075Y101174961D01*
X5887057Y101422606D01*
X5664605Y101645058D01*
X5416960Y101839076D01*
X5416952Y101839081D01*
X5147721Y102001837D01*
X4860835Y102130954D01*
X4860830Y102130956D01*
X4860827Y102130957D01*
X4860816Y102130961D01*
X4560486Y102224547D01*
X4560482Y102224548D01*
X4560478Y102224549D01*
X4251029Y102281258D01*
X4251028Y102281259D01*
X4251023Y102281259D01*
X3937000Y102300253D01*
X3622976Y102281259D01*
X3595687Y102276258D01*
X3313522Y102224549D01*
X3313519Y102224549D01*
X3313513Y102224547D01*
X3013183Y102130961D01*
X3013172Y102130957D01*
X3013166Y102130955D01*
X3013165Y102130954D01*
X2965650Y102109569D01*
X2729099Y102003106D01*
X2726279Y102001837D01*
X2718010Y101996838D01*
X2457039Y101839076D01*
X2209394Y101645058D01*
X1986942Y101422606D01*
X1792924Y101174961D01*
X1716079Y101047844D01*
X1635464Y100914489D01*
X1630162Y100905719D01*
X1630161Y100905717D01*
X1501043Y100618828D01*
X1501039Y100618817D01*
X1407453Y100318487D01*
X1407451Y100318481D01*
X1407451Y100318478D01*
X1368348Y100105103D01*
X1350741Y100009024D01*
X1331747Y99695000D01*
X1000500Y99695000D01*
X1000500Y102634500D01*
X1020185Y102701539D01*
X1072989Y102747294D01*
X1124500Y102758500D01*
X92093500Y102758500D01*
X92160539Y102738815D01*
G37*
%TD.AperFunction*%
%TD*%
M02*
